<svg enable-background="new 0 0 566.93 566.93" viewBox="0 0 566.93 566.93" xmlns="http://www.w3.org/2000/svg"><path d="m507.78 438.8c-5.1 6.7-7.87 7.14-15.56 3.38-20.69-10.13-42.56-16.65-65.15-20.9-46.01-8.66-91.75-7.02-137.17 3.95-6.97 1.68-13.32-.16-19.81-1.58-54.41-11.89-108.38-10.38-161.73 5.73-11.81 3.57-23.22 8.58-34.6 13.42-8.62 3.66-14.51.26-14.51-9.19-.02-90.95-.02-181.9 0-272.85 0-8.1 3.03-11.13 11.07-11.16 8.73-.03 17.46-.01 26.86-.01 0-3.21-.08-6.07.02-8.92.22-6.3 2.4-8.78 8.56-10.33 28.74-7.27 57.9-9.4 87.29-5.84 33.69 4.08 64.17 15.76 88.72 40.24.41.41.88.75 1.54 1.3 1-.84 2.03-1.62 2.96-2.51 21.84-20.84 48.2-32.34 77.61-37.44 32.86-5.7 65.39-3.59 97.65 4.34 5.6 1.38 7.76 4.03 7.92 9.89.08 2.9.01 5.79.01 9.33h16.8c3.21 0 6.44.22 9.63-.05 5.38-.46 9.32 1.5 11.9 6.23-.01 94.33-.01 188.65-.01 282.97zm-233.04-39.33c0-10.07.01-19.55 0-29.04-.05-60.88-.13-121.77-.1-182.65 0-3.16-.87-5.41-3.09-7.69-9.35-9.62-19.94-17.5-31.94-23.47-23.5-11.71-48.61-15.9-74.62-15.84-16.96.04-33.7 1.92-50.3 5.68v228.54c55.4-5.58 109.62-4.9 160.05 24.47zm177.36-24.43c0-76.57 0-152.43 0-228.39-.67-.22-1.19-.45-1.74-.56-27.97-5.87-56.06-7.46-84.3-2.2-27.33 5.1-51.7 16.1-71.07 36.61-1.57 1.67-2.67 4.52-2.67 6.82-.14 69.19-.11 138.37-.1 207.56 0 1.37.13 2.74.22 4.37 50.16-29 104.18-30.07 159.66-24.21zm-218.87 24.95c-18.65-6.04-36.79-9.27-55.27-10.15-23.24-1.11-46.38.37-69.41 3.68-6.65.96-10.65-2.38-11.07-9.05-.1-1.6-.04-3.21-.04-4.82 0-68.91 0-137.81 0-206.72 0-1.84 0-3.68 0-5.51-7.27 0-13.9 0-20.47 0v254.14c89.9-26.88 75.18-21.97 156.26-21.57zm101.13-1.14c.07.47.14.93.2 1.4 53.53-5.69 105.25 1.67 155.66 21.85 0-85.3 0-169.97 0-254.67-6.86 0-13.47 0-20.28 0v6.03 207.08c0 1.46.08 2.93-.04 4.38-.48 5.55-3.98 8.7-9.55 8.61-1.6-.02-3.21-.19-4.79-.41-28.29-3.93-56.68-5.32-85.05-1.47-12.16 1.66-24.11 4.76-36.15 7.2z" fill="#05afa0"/><path d="m274.74 399.47c-50.43-29.37-104.65-30.05-160.04-24.47 0-76.33 0-152.33 0-228.54 16.6-3.76 33.34-5.64 50.3-5.68 26.01-.06 51.11 4.13 74.62 15.84 12 5.98 22.59 13.85 31.94 23.47 2.22 2.28 3.09 4.53 3.09 7.69-.03 60.88.05 121.77.1 182.65 0 9.48-.01 18.97-.01 29.04z" fill="#ccdc45"/><path d="m452.1 375.04c-55.48-5.86-109.5-4.8-159.67 24.22-.08-1.63-.22-3-.22-4.37-.01-69.19-.03-138.37.1-207.56 0-2.3 1.1-5.15 2.67-6.82 19.37-20.51 43.74-31.52 71.07-36.61 28.24-5.27 56.34-3.68 84.3 2.2.55.11 1.07.34 1.74.56.01 75.96.01 151.81.01 228.38z" fill="#ccdc45"/><g fill="#69cfc6"><path d="m233.23 399.99c-81.08-.4-66.36-5.31-156.27 21.57 0-84.66 0-169.23 0-254.14h20.47v5.51 206.72c0 1.61-.06 3.22.04 4.82.42 6.66 4.41 10 11.07 9.05 23.03-3.31 46.18-4.78 69.41-3.68 18.5.88 36.63 4.11 55.28 10.15z"/><path d="m334.36 398.85c12.04-2.44 23.99-5.55 36.14-7.19 28.37-3.85 56.76-2.46 85.05 1.47 1.59.22 3.19.38 4.79.41 5.57.09 9.06-3.07 9.55-8.61.13-1.45.04-2.92.04-4.38 0-69.03 0-138.05 0-207.08 0-1.89 0-3.78 0-6.03h20.28v254.67c-50.4-20.18-102.13-27.55-155.66-21.85-.06-.47-.13-.94-.19-1.41z"/></g></svg>