<svg enable-background="new 0 0 566.93 566.93" viewBox="0 0 566.93 566.93" xmlns="http://www.w3.org/2000/svg"><g fill="#05afa0"><path d="m461.76 414.29c-2.39 2.42-4.79 4.82-7.15 7.25-4.74 4.87-9.46 9.76-14.19 14.64-.22.23-.46.43-.79.73-24.94-21.28-49.86-42.55-75.05-64.04-.54 16.8-1.06 33.3-1.6 49.93-38.62-.26-77.11-1.88-115.76-.52-.54-16.7-1.08-33.24-1.62-50.08-25.14 21.45-50.06 42.72-75.09 64.07-7.37-7.6-14.69-15.15-22.1-22.79.91-1.02 1.78-2 2.66-2.96 29-31.81 58.01-63.63 87.01-95.44 4.69-5.14 9.38-10.27 14.04-15.44.87-.96 1.85-1.37 3.15-1.37 32.16.02 64.31-.02 96.47.08 2.78.01 5.37.81 7.55 3.22 24.57 27.15 49.26 54.18 73.92 81.25 9.39 10.31 18.79 20.63 28.18 30.94.11.12.24.2.37.3z"/><path d="m290.88 130.61c2.18.23 4.35.49 6.53.7 12.53 1.23 25.07 2.33 37.58 3.7 7.75.85 15.37 2.47 22.84 4.78 11.36 3.51 17.7 11.33 19.68 22.9.93 5.44.73 10.91.41 16.39-.6 10.37-1.27 20.74-1.83 31.11-.86 15.99-6.04 30.42-15.88 43.05-12.37 15.88-28.59 25.33-48.53 28.36-14.49 2.2-28.58.92-41.95-5.33-16.45-7.69-29.24-19.36-37.46-35.71-4.82-9.59-7.34-19.84-7.58-30.57-.19-8.36-1.52-16.52-3.23-24.67-.88-4.21-1.51-8.51-1.77-12.79-.3-4.93 1.73-9.22 5.35-12.5 10.73-9.74 22.55-17.84 35.99-23.44 5.28-2.2 10.61-4.35 16.31-5.05 3.87-.47 7.8-.36 11.71-.58.52-.03 1.27.62 1.6-.35zm2.63 60.06c-.05-.06-.1-.13-.15-.19-.5.23-1 .45-1.49.69-6.54 3.17-13.06 6.37-19.62 9.5-.63.3-1.54.53-2.14.31-6.73-2.42-13.63-2.92-20.67-1.99-1.77.23-1.99.42-2.24 2.18-.85 5.99-.57 11.93.42 17.89 4.43 26.67 31.06 49.71 61.19 45.3 16.78-2.46 30.03-10.29 39.28-24.61 7.58-11.72 10.77-24.45 8.81-38.37-.24-1.71-.55-2.11-2.01-2.37-14.64-2.58-29.34-3.6-44.14-1.65-6.66.88-13.24 2.14-19.49 4.77-.43.18-.92.26-1.39.3-.77.06-1.29-.31-1.18-1.11.13-1.01.22-2.09.66-2.98 1.29-2.6 2.76-5.12 4.16-7.67z"/></g></svg>