<svg enable-background="new 0 0 566.93 566.93" viewBox="0 0 566.93 566.93" xmlns="http://www.w3.org/2000/svg"><g fill="#f79421"><path d="m277.2 126.05h4.32c.34.09.68.22 1.02.25 4.41.41 8.86.59 13.24 1.24 12.59 1.87 24.29 6.19 34.72 13.57 16.99 12.02 27.8 28.39 33.57 48.24 2.09 7.2 3.1 14.6 3.79 22.05.12 1.26.67 1.86 1.9 2.03.94.14 1.88.38 2.8.64 12.36 3.48 22.57 10.35 31.17 19.77 7.47 8.18 13.13 17.39 15.86 28.24.52 2.08.92 4.2 1.38 6.29v7.68c-.1.3-.23.59-.28.89-1.84 11.18-8.56 18.14-18.96 21.92-5.77 2.1-11.77 2.89-17.87 3.09-.74.02-1.48 0-2.31 0 .63-7.4.37-14.58-.73-21.72-1.1-7.17-3.04-14.12-5.5-20.94-2.09-5.81-7.91-18.41-9.15-19.45-2.55 9.43-6.33 18.28-11.73 26.4-5.42 8.14-12.12 15.05-19.99 20.83-7.86 5.78-16.4 10.18-25.77 12.96-9.38 2.78-18.96 3.59-28.69 3.09-39.15-2.01-71.65-32.96-77.09-69.81-17.43 19.8-23.47 42.93-20.99 68.76-1.19-.11-2.21-.2-3.24-.31-14.5-1.64-25.63-11.34-29.14-25.52-.66-2.66-.97-5.41-1.44-8.12 0-1.92 0-3.84 0-5.76.28-1.81.49-3.64.86-5.43 1.88-9.14 6.59-16.71 13.02-23.31 7.22-7.41 16.02-12.23 25.78-15.36 4.36-1.4 8.85-2.43 13.29-3.57.8-.2 1.1-.51 1.15-1.33.09-1.43.27-2.87.54-4.28 1.13-5.96 2.39-11.9 3.45-17.87 1.43-8.07 3.12-16.07 6.24-23.69 5.06-12.35 12.61-22.74 23.92-30.11 10.57-6.89 22.37-9.95 34.82-10.88 2-.14 4.02-.32 6.04-.48zm9.52 60.58c-.1-.02-.19-.04-.29-.06-.53.93-1.06 1.86-1.6 2.79-5.08 8.85-10.54 17.45-17.45 25.03-2.46 2.7-5.09 5.2-8.46 6.78-1.47.69-2.98 1.12-4.64.91-.73-.09-1.1-.3-1.15-1.16-.16-2.91-.4-5.82-.65-8.73-.3-3.51-.73-6.99-2.14-10.28-.95-2.23-2.23-4.22-4.23-5.79-.3.63-.57 1.19-.85 1.76-2.64 5.49-5.74 10.71-9.69 15.38-2.39 2.83-5.02 5.4-8.43 6.97-1.3.6-1.71 1.44-1.62 2.83.56 8.27 2.42 16.21 6.25 23.58 11.44 22.03 36.59 38.44 67.66 31.25 23.68-5.48 46.22-28.46 45.46-59.09-.04-1.58-1.04-2.51-2.63-2.39-2.55.2-5.1.43-7.64.66-11.19 1.01-22.39 1.94-33.63 1.58-4.3-.14-8.6-.52-12.9-.77-1.08-.06-1.41-.53-1.4-1.65.05-9.44.03-18.88.03-28.32 0-.43 0-.86 0-1.28z"/><path d="m188.4 432.05c-3.33-.79-6.66-1.62-10-2.38-7.2-1.64-14.42-3.24-21.63-4.86-.31-.07-.61-.17-1.01-.28.17-.31.29-.59.46-.83 12.72-17.93 25.23-36.02 38.24-53.74 10.12-13.79 20.89-27.1 31.32-40.67 3.51-4.56 6.89-9.23 10.25-13.9.77-1.06 1.6-1.48 2.89-1.47 9.71.07 19.43.08 29.14.1 22.2.06 44.39.14 66.59.17 1.23 0 1.98.43 2.69 1.39 25.58 34.64 51.18 69.26 76.78 103.88.61.83 1.22 1.66 1.92 2.61-3.68.93-7.18 1.83-10.7 2.7-6.98 1.73-13.96 3.43-20.93 5.19-1.29.33-2.14.1-2.97-1.02-15.91-21.4-31.86-42.77-47.81-64.15-.33-.44-.67-.88-1.22-1.59-.16 1.71-.3 3.1-.42 4.5-.6 7.41-1.19 14.82-1.78 22.23-.19 2.35-.32 4.71-.56 7.05-.13 1.22.11 2.25.79 3.28 4.55 6.91 9.07 13.84 13.59 20.76.28.42.53.86.93 1.5-39.1.65-77.97 1.31-117 1.96.59-1.13 1.09-2.14 1.63-3.14 3.22-5.98 6.3-12.03 9.73-17.89 1.64-2.79 2.33-5.42 1.94-8.68-1.22-10.16-2.14-20.35-3.21-30.9-.46.59-.74.92-.99 1.28-15.32 21.48-30.64 42.96-45.98 64.43-.64.89-1.47 1.64-2.21 2.45-.15.02-.31.02-.47.02z"/></g></svg>