<svg enable-background="new 0 0 384.84 349.92" viewBox="0 0 384.84 349.92" xmlns="http://www.w3.org/2000/svg"><g fill="#7f7f7f"><path d="m283.07 271.63c-1.76 3.04-3.62 6.02-5.24 9.13-1.14 2.2-2.69 3-5.16 3-66.12-.05-132.25-.04-198.37-.04-7.53 0-13.8-2.68-18.38-8.76-3-3.99-4.4-8.57-4.4-13.59.02-39.26.01-78.52.02-117.77 0-18.04-.08-36.08.03-54.12.07-10.21 4.86-17.58 14.28-21.63 2.19-.94 4.74-1.4 7.14-1.47 6.89-.2 13.79-.1 20.68-.08 2.41.01 3.07.7 3.09 3.15.03 3.66.01 7.31 0 10.97 0 2.22.1 2.33 2.31 2.33h53.59c21.94 0 43.88 0 65.82-.02 1.76 0 3.08.51 4.03 2.1 1.75 2.92 3.64 5.76 5.45 8.64.74 1.18 1.32 1.23 2.07.06 1.9-2.97 3.8-5.94 5.67-8.93.85-1.37 2.07-1.87 3.63-1.87 30.03.01 60.07.01 90.1.02 3.01 0 3.92.95 3.92 4v192.93c0 3.15-.89 4.05-4.02 4.05-10.73 0-21.46-.03-32.19.03-1.83.01-3.22-.57-4.4-1.94-2.59-2.99-5.25-5.9-7.85-8.88-.43-.49-.67-1.14-1-1.72-.26.12-.54.26-.82.41zm-103.73-182.97c-12.23 0-24.46-.03-36.69.05-1.03.01-2.24.44-3.06 1.07-5.63 4.33-9.64 10.05-13.66 15.81-2.04 2.92-4.34 5.78-7.02 8.08-5.81 4.99-12.89 7.65-20.18 9.72-1.41.4-1.97 1.04-1.96 2.49.03 11.87.03 23.73 0 35.6 0 1.33.44 1.89 1.78 2.14 5.82 1.12 11.5 2.74 16.82 5.43 11.32 5.71 20.41 13.92 27.07 24.71 2.99 4.84 4.6 10.25 3.53 15.95-.77 4.14-2.23 8.17-3.55 12.19-1.41 4.3-2.52 8.6-1.85 13.19.77 5.21 2.99 9.83 5.84 14.14 5.52 8.34 7.88 17.34 6.17 27.28-.17 1.02.25 1.31 1.11 1.35.48.02.96.01 1.44.01h103.23c4.26 0 8.51.06 12.77-.06.8-.02 1.9-.57 2.3-1.22 2.16-3.5 4.2-7.08 6.18-10.69 1.73-3.15 3.78-3.5 6.13-.88 3.35 3.75 6.66 7.53 9.98 11.3.91 1.04 1.9 1.59 3.4 1.58 8.63-.08 17.26-.04 25.9-.04 2.63 0 2.63 0 2.63-2.72 0-34.52 0-69.04 0-103.56 0-4.02-.03-8.03.02-12.05.02-1.14-.29-1.75-1.49-2-2.28-.47-4.57-.97-6.8-1.65-8.19-2.52-15.69-6.4-22.44-11.66-3.67-2.86-6.84-6.24-8.71-10.57-2.14-4.95-1.87-10.16-1.36-15.38.27-2.79.5-5.63.36-8.42-.19-4.08-1.46-7.94-4.16-11.05-2.73-3.15-5.72-6.08-8.71-9-.64-.62-1.75-1.07-2.65-1.08-9.95-.08-19.9-.02-29.85-.08-1.32-.01-2.09.47-2.75 1.53-2.3 3.71-4.68 7.37-7 11.06-1.74 2.77-4.28 2.92-5.95.27-2.2-3.48-4.38-6.98-6.54-10.48-1-1.62-2.16-2.45-4.31-2.42-11.99.14-23.98.07-35.97.06zm-88.3 68.32c0-10.49 0-20.97 0-31.46.01-17.08.02-34.15.02-51.23 0-2.24-.07-2.31-2.33-2.31-5.09 0-10.19 0-15.28.02-4.19.02-7.65 1.84-10.61 4.59-3.84 3.57-5.55 8.11-5.55 13.34 0 51.77 0 103.54.02 155.31 0 .54.27 1.08.42 1.63.53-.21 1.15-.31 1.58-.65 2.89-2.29 6.11-3.85 9.81-3.96 6.46-.2 12.93-.21 19.4-.28 2.48-.03 2.52-.03 2.52-2.5 0-27.49 0-54.99 0-82.5zm5.76 51.09c.01 11.92.01 23.84.01 35.77 0 3.33-.78 4.09-4.16 4.09-7.37 0-14.74-.08-22.11.04-7.55.12-14.24 8.24-13.1 15.67 1.22 7.97 7.81 14.34 16.65 14.28 23.25-.16 46.5-.05 69.75-.05.36 0 .8.13 1.06-.03.63-.39 1.52-.81 1.7-1.4.45-1.47.68-3.03.79-4.57.52-7.46-2.28-13.89-6.23-19.99-4.56-7.05-7.59-14.67-6.25-23.2.75-4.73 2.3-9.38 3.9-13.93 2.3-6.53 2.01-12.68-1.75-18.54-5.28-8.24-12.21-14.79-20.56-19.89-5.11-3.12-10.65-5.09-16.43-6.48-2.93-.71-3.26-.43-3.26 2.48-.01 11.9-.01 23.83-.01 35.75zm185.62-119.13c1.36 1.46 2.36 2.46 3.28 3.54 4.44 5.2 7.36 11.07 7.37 18.04 0 3.83-.2 7.67-.57 11.48-.66 6.84 1.75 12.35 6.94 16.64 7.54 6.23 16.14 10.38 25.63 12.71 2.2.54 2.58.28 2.58-1.9 0-19.48 0-38.96 0-58.44 0-2.31-.02-2.35-2.27-2.35-13.55 0-27.1-.01-40.65.01-.6.01-1.22.14-2.31.27zm-151.31-.01c-.48-.09-.97-.26-1.46-.26-10.36-.01-20.72 0-31.08-.02-1.28 0-1.81.45-1.8 1.8.04 8.5.01 17 .02 25.5 0 1.66.58 2.05 2.11 1.48 1.9-.72 3.79-1.44 5.67-2.2 4.74-1.92 9.4-4.08 12.66-8.15 4.69-5.85 9.13-11.91 13.88-18.15z"/><path d="m272.68 286.25h-.01c-63.92-.05-128.91-.04-191.76-.04h-6.61c-8.65 0-15.5-3.28-20.37-9.76-3.25-4.32-4.9-9.4-4.9-15.1.01-30.72.01-61.45.01-92.17v-25.6c0-5.41-.01-10.83-.01-16.24-.02-12.42-.03-25.26.05-37.9.07-11.23 5.54-19.5 15.8-23.91 2.97-1.28 6.02-1.62 8.05-1.67 5.49-.16 11.06-.13 16.45-.1 1.44.01 2.87.01 4.31.02 3.78.01 5.56 1.8 5.59 5.63.02 2.73.02 5.46.01 8.19l-.01 2.63h65.81c17.81 0 35.61 0 53.42-.02h.01c2.81 0 4.82 1.08 6.16 3.31 1.07 1.78 2.22 3.58 3.34 5.32.34.53.68 1.07 1.03 1.61 1.53-2.39 3.05-4.79 4.56-7.19 1.26-2.02 3.19-3.04 5.75-3.04 20.74.01 41.48.01 62.21.01h27.89c4.38 0 6.42 2.06 6.42 6.5v192.93c0 4.53-2.01 6.55-6.52 6.55h-8.76c-7.81 0-15.62-.01-23.42.03-.02 0-.04 0-.06 0-2.57 0-4.61-.92-6.25-2.81-1.38-1.59-2.78-3.16-4.18-4.73-.98-1.1-1.96-2.2-2.94-3.31-.04.07-.09.15-.13.22-1.22 2.05-2.47 4.17-3.57 6.29-1.53 2.97-3.87 4.35-7.37 4.35zm-134.67-5.04c44.68 0 89.94.01 134.67.04h.01c1.63 0 2.26-.36 2.93-1.65 1.16-2.24 2.46-4.43 3.71-6.54.53-.9 1.06-1.79 1.58-2.69l.36-.63 3.61-1.88 1.19 2.09c.13.22.24.45.36.67.12.24.27.54.36.64 1.2 1.38 2.42 2.74 3.63 4.1 1.42 1.59 2.83 3.18 4.22 4.78.68.79 1.35 1.08 2.47 1.08h.03c7.82-.04 15.64-.03 23.45-.03h8.75c.84 0 1.23-.08 1.39-.13.05-.16.13-.56.13-1.43v-192.93c0-.84-.09-1.22-.13-1.37-.14-.05-.51-.13-1.29-.13h-27.89c-20.74 0-41.48 0-62.21-.01-1 0-1.25.29-1.51.69-1.87 3-3.78 5.98-5.69 8.96-.86 1.34-1.91 1.96-3.14 2-1.23-.01-2.29-.71-3.15-2.08-.68-1.08-1.37-2.16-2.06-3.24-1.13-1.77-2.3-3.6-3.41-5.44-.37-.61-.73-.89-1.88-.89 0 0 0 0-.01 0-17.81.02-35.62.02-53.43.02h-66c-1.32 0-2.69 0-3.75-1.07-1.06-1.06-1.06-2.44-1.06-3.77l.01-2.8c.01-2.71.01-5.43-.01-8.14 0-.29-.02-.5-.03-.65-.14-.01-.32-.02-.57-.02-1.44 0-2.88-.01-4.32-.02-5.35-.03-10.87-.06-16.28.1-2.26.07-4.47.52-6.22 1.27-8.41 3.62-12.71 10.13-12.77 19.35-.08 12.61-.06 25.45-.05 37.86.01 5.42.01 10.83.01 16.25v25.6c0 30.72 0 61.45-.01 92.17 0 4.58 1.31 8.65 3.89 12.09 3.93 5.22 9.28 7.76 16.37 7.76h6.61c18.9.02 37.96.02 57.13.02zm-64.06-.8c-9.56 0-17.54-6.88-19-16.4-.66-4.3.77-8.91 3.93-12.65 3.11-3.68 7.33-5.83 11.6-5.9 5.22-.08 10.52-.07 15.64-.05 2.17.01 4.34 0 6.51.01.91 0 1.35-.07 1.56-.11.05-.2.11-.62.11-1.47v-71.54c0-1.51 0-3.39 1.47-4.56 1.49-1.17 3.36-.72 4.87-.36 6.72 1.62 12.33 3.83 17.15 6.78 8.84 5.39 16.03 12.35 21.36 20.67 3.98 6.21 4.65 13.18 2 20.72-1.52 4.33-3.07 8.94-3.79 13.49-1.07 6.79.8 13.6 5.88 21.45 5.07 7.84 7.11 14.48 6.62 21.53-.14 1.93-.43 3.61-.89 5.13-.44 1.43-1.68 2.16-2.5 2.64l-.28.17c-.91.56-1.84.46-2.29.41l-.12-.01c-6.62 0-13.25-.01-19.89-.02-16.32-.02-33.2-.04-49.8.07-.04 0-.09 0-.14 0zm69.68-4.74c-.02.01-.03.02-.05.03zm-63.74-25.28c-3.1 0-6.23.01-9.32.07-2.82.05-5.69 1.55-7.87 4.12-2.19 2.6-3.24 5.84-2.81 8.67 1.1 7.17 6.87 12.16 14.05 12.16h.11c16.62-.12 33.51-.09 49.84-.07 6.64.01 13.28.02 19.93.02.1 0 .21 0 .31.01.06-.04.13-.08.18-.11.28-1.05.46-2.22.56-3.58.41-5.9-1.39-11.59-5.83-18.46-5.79-8.94-7.89-16.87-6.62-24.95.78-4.97 2.41-9.82 4.01-14.37 2.14-6.1 1.66-11.45-1.49-16.36-4.93-7.68-11.57-14.11-19.76-19.11-4.37-2.67-9.51-4.69-15.71-6.18-.06-.01-.12-.03-.17-.04v.09l.01 71.53c0 4.74-1.87 6.59-6.66 6.59-2.17 0-4.35-.01-6.53-.01-2.06-.01-4.14-.02-6.23-.02zm219.19 30c-2.08 0-3.79-.79-5.23-2.43l-.15-.17c-3.26-3.71-6.52-7.43-9.82-11.12-.57-.64-.93-.84-1.07-.9-.13.09-.5.4-1 1.31-2.35 4.28-4.34 7.71-6.25 10.8-.94 1.52-2.91 2.36-4.36 2.4-3.2.09-6.43.08-9.56.06-1.09 0-2.18-.01-3.27-.01h-103.23-.34c-.4 0-.8 0-1.2-.01-1.23-.05-2.18-.47-2.82-1.26s-.87-1.8-.66-3c1.53-8.94-.37-17.27-5.8-25.48-3.51-5.31-5.49-10.13-6.23-15.16-.78-5.34.59-10.2 1.95-14.33l.64-1.93c1.08-3.26 2.21-6.62 2.82-9.94.86-4.58-.22-9.35-3.21-14.18-6.32-10.24-15.09-18.25-26.06-23.79-4.58-2.31-9.72-3.97-16.17-5.2-2.5-.48-3.81-2.07-3.81-4.61.03-11.49.03-23.46 0-35.58-.01-2.54 1.27-4.18 3.78-4.9 6.28-1.79 13.48-4.28 19.23-9.21 2.18-1.87 4.28-4.29 6.6-7.62 4.04-5.79 8.22-11.78 14.19-16.36 1.26-.97 3.01-1.58 4.57-1.59 9.69-.06 19.55-.05 29.08-.05h7.62c3.02 0 6.04 0 9.06.01 8.81.01 17.93.03 26.88-.08h.12c2.81 0 4.83 1.15 6.35 3.61 2.05 3.31 4.26 6.87 6.53 10.46.37.58.66.73.72.73.08 0 .5-.19 1.01-1 .98-1.56 1.98-3.12 2.97-4.68 1.35-2.12 2.7-4.24 4.03-6.37 1.13-1.83 2.72-2.72 4.85-2.72h.04c4.54.02 9.08.03 13.61.03 5.41 0 10.83.01 16.24.05 1.55.01 3.27.72 4.37 1.79 2.79 2.73 5.96 5.82 8.85 9.15 2.93 3.38 4.54 7.61 4.77 12.57.15 3.07-.12 6.14-.37 8.78-.48 4.92-.75 9.71 1.17 14.15 1.5 3.48 4.03 6.53 7.95 9.59 6.45 5.03 13.73 8.81 21.63 11.24 2.02.62 4.08 1.09 6.57 1.59 1.32.27 3.54 1.21 3.49 4.48-.04 2.9-.03 5.86-.03 8.72v3.29 103.56c0 1.77 0 3.05-1.03 4.12-1.07 1.1-2.4 1.1-4.1 1.1h-6.56c-6.33-.01-12.88-.02-19.32.04.01.05-.01.05-.04.05zm-16.27-19.63c1.66 0 3.28.87 4.82 2.59 3.3 3.7 6.57 7.42 9.84 11.15l.15.17c.5.58.79.72 1.5.73 6.46-.06 13.02-.05 19.37-.04h6.55.13c0-.07 0-.14 0-.21v-106.84c-.01-2.76-.01-5.6.02-8.42-2.4-.5-4.46-.97-6.52-1.61-8.49-2.61-16.31-6.67-23.24-12.08-4.54-3.54-7.64-7.32-9.47-11.55-2.39-5.53-2.08-11.24-1.55-16.62.24-2.47.48-5.33.35-8.06-.18-3.82-1.38-7.02-3.56-9.53-2.75-3.17-5.84-6.19-8.56-8.85-.17-.17-.66-.37-.92-.37-5.4-.04-10.81-.04-16.21-.05-4.55 0-9.09-.01-13.64-.03-.01 0-.01 0-.02 0-.26 0-.35.04-.36.04s-.08.06-.24.32c-1.34 2.15-2.7 4.29-4.06 6.42-.99 1.55-1.97 3.1-2.95 4.65-1.35 2.15-3.21 3.34-5.23 3.34 0 0 0 0-.01 0-1.94 0-3.69-1.09-4.94-3.06-2.28-3.61-4.5-7.18-6.56-10.51-.62-1.01-1.01-1.25-2.16-1.24-8.99.11-18.12.09-26.95.08-3.02 0-6.03-.01-9.05-.01h-7.63c-9.52 0-19.37-.01-29.05.05-.47 0-1.15.24-1.55.55-5.35 4.11-9.31 9.78-13.13 15.26-2.57 3.68-4.93 6.39-7.44 8.55-6.48 5.57-14.32 8.29-21.12 10.23-.06.02-.11.03-.15.04v.03c.03 12.04.03 23.93 0 35.34 6.8 1.32 12.28 3.1 17.23 5.6 11.81 5.96 21.25 14.58 28.07 25.62 3.66 5.92 4.96 11.89 3.87 17.72-.68 3.65-1.86 7.18-3 10.6l-.63 1.91c-1.46 4.45-2.32 8.21-1.75 12.04.63 4.28 2.36 8.45 5.45 13.12 5.76 8.71 8.04 17.96 6.79 27.51h103.08c1.1 0 2.19 0 3.29.01 3.09.01 6.29.02 9.41-.06.06-.01.22-.09.32-.15 1.84-2.99 3.77-6.32 6.04-10.46 1.3-2.37 2.93-3.68 4.82-3.89.18-.02.37-.03.55-.03zm-226.78-10.52-.73-2.71c-.03-.12-.07-.24-.11-.35-.16-.48-.39-1.13-.39-1.92-.01-35.5-.01-71-.01-106.5v-48.81c0-6.15 2.13-11.25 6.35-15.17 3.73-3.48 7.87-5.25 12.3-5.26 4.23-.02 8.46-.02 12.69-.02h2.6c1.4.01 2.73 0 3.78 1.04 1.06 1.05 1.06 2.43 1.06 3.77l-.02 72.86v92.34c0 3.84-1.12 4.96-4.99 5l-4.28.04c-4.95.04-10.06.09-15.07.24-2.81.08-5.54 1.2-8.34 3.42-.66.52-1.35.74-1.86.9-.12.04-.24.07-.35.12zm32.53-175.76h-2.44c-4.22 0-8.45 0-12.67.02-3.17.01-6.09 1.3-8.91 3.92-3.2 2.98-4.75 6.74-4.75 11.51v48.81c0 34.68 0 69.36.01 104.04 3-1.94 6.05-2.93 9.24-3.03 5.07-.15 10.21-.2 15.18-.24l4.27-.04h.04v-92.34zm237.95 79.61c-.77 0-1.49-.18-2.03-.31-10.05-2.46-19.01-6.91-26.63-13.21-5.94-4.91-8.57-11.24-7.84-18.81.37-3.87.56-7.65.56-11.24 0-5.72-2.22-11.09-6.77-16.42-.57-.66-1.2-1.33-1.92-2.1-.39-.42-.82-.86-1.29-1.37l-3.35-3.6 4.88-.58c.36-.04.67-.09.94-.13.59-.09 1.1-.16 1.68-.16 13.55-.01 27.1-.01 40.65-.01 3.61 0 4.76 1.18 4.77 4.85v58.44c0 1.06 0 2.82-1.4 3.92-.7.56-1.5.73-2.25.73zm-38.64-62.92c5.18 6.17 7.7 12.5 7.7 19.35 0 3.75-.2 7.69-.58 11.72-.57 5.91 1.41 10.64 6.05 14.48 6.91 5.71 15.02 9.77 24.12 12.08v-57.63c-12.43-.01-24.86-.01-37.29 0zm-190.05 29.01c-.62 0-1.31-.14-1.96-.59-1.56-1.08-1.56-3-1.57-3.63 0-3.09 0-6.19 0-9.28 0-5.41.01-10.81-.02-16.22 0-.5-.01-2.02 1.13-3.17s2.66-1.14 3.17-1.14c10.36.02 20.72.01 31.08.02.62 0 1.15.13 1.57.23.11.03.23.05.34.08l3.99.74-2.46 3.23c-1.43 1.88-2.83 3.74-4.22 5.58-3.29 4.37-6.4 8.49-9.7 12.61-3.69 4.6-8.78 6.92-13.67 8.91-1.9.77-3.79 1.49-5.72 2.22-.34.13-1.09.41-1.96.41zm1.49-3.9s0 0 0 0zm-.03-25.13c.02 5.18.02 10.35.01 15.53v7.93c1.46-.56 2.9-1.11 4.34-1.7 4.28-1.74 8.71-3.74 11.65-7.4 3.25-4.05 6.34-8.15 9.6-12.49.46-.62.93-1.23 1.4-1.85-8.99-.01-18 0-27-.02z"/><path d="m154.69 166.28c.03-1.48-.16-3.11 1.57-3.85 2.23-.95 4.24.44 4.22 3-.02 3.46.81 6.58 2.94 9.37 2.8 3.66 6.55 5.43 11.04 5.83 1.3.12 2.52.27 2.96 1.8.59 2.07-.69 3.99-2.88 3.93-6.05-.15-11.17-2.5-15.12-7.07-3.16-3.69-4.77-8.08-4.73-13.01z"/><path d="m174.64 188.86c-.05 0-.1 0-.15 0-6.85-.17-12.55-2.84-16.95-7.93-3.6-4.18-5.4-9.11-5.35-14.66l.01-.47c.01-1.41.02-4.36 3.09-5.66 1.82-.78 3.74-.65 5.26.36 1.57 1.04 2.46 2.84 2.45 4.95-.02 3.16.76 5.65 2.43 7.84 2.22 2.91 5.26 4.5 9.28 4.86 1.26.11 4.22.38 5.14 3.61.52 1.82.19 3.67-.89 5.07-1.03 1.29-2.59 2.03-4.32 2.03zm-17.45-22.56c-.04 4.31 1.36 8.13 4.14 11.35 3.43 3.98 7.9 6.07 13.28 6.2.13 0 .3-.01.38-.11.07-.08.11-.27.06-.54-.24-.05-.61-.08-.8-.1-5.42-.48-9.73-2.77-12.81-6.8-2.35-3.07-3.48-6.64-3.46-10.9 0-.45-.13-.7-.21-.76-.07-.04-.26-.04-.52.07-.05.24-.05.75-.06 1.09z"/><path d="m277.27 180.69c9.93.24 19 9.33 18.45 20.74-.1 2.09-1.08 3.23-2.83 3.27-1.68.04-2.99-1.38-2.98-3.34.03-7.04-3.29-11.8-9.8-14.33-1.14-.44-2.44-.52-3.68-.61-2.28-.18-3.63-1.31-3.57-3.15.06-1.85 1.28-2.72 3.69-2.62.24.01.48.03.72.04z"/><path d="m292.82 207.2c-1.39 0-2.69-.53-3.68-1.51-1.12-1.1-1.74-2.64-1.73-4.34.03-5.99-2.58-9.8-8.2-11.99-.72-.28-1.69-.35-2.73-.43l-.24-.02c-3.67-.29-5.98-2.53-5.88-5.72.06-1.86.87-2.99 1.53-3.61 1.11-1.03 2.71-1.52 4.76-1.44.21.01.41.02.61.04l.13.01c5.46.15 10.86 2.67 14.81 6.92 4.17 4.49 6.31 10.33 6.01 16.44-.2 4.08-2.85 5.59-5.27 5.65-.04 0-.08 0-.12 0zm-17.46-23.97c0 .03-.01.07-.01.12-.01.39.68.53 1.26.58l.23.02c1.29.1 2.75.21 4.16.76 7.49 2.91 11.43 8.68 11.39 16.67 0 .48.18.7.23.75.07.07.14.08.19.08.14 0 .21-.02.24-.03-.01-.01.12-.24.15-.86.23-4.76-1.43-9.3-4.68-12.79-3.05-3.28-7.18-5.23-11.33-5.33l-.32-.02c-.15-.01-.3-.02-.44-.03-.59-.03-.92.04-1.07.08z"/><path d="m289.89 252.41c0-1.55-.02-3.1.01-4.66.04-1.81 1.28-3.2 2.88-3.27 1.59-.07 2.86 1.11 2.9 2.98.08 3.34.09 6.69 0 10.03-.05 1.89-1.27 3.03-2.88 3-1.59-.04-2.85-1.4-2.9-3.24-.04-1.61-.01-3.22-.01-4.84z"/><path d="m292.88 262.99c-.04 0-.09 0-.13 0-2.96-.07-5.26-2.5-5.35-5.67-.03-1.16-.02-2.32-.02-3.48l.01-1.43v-1.44c0-1.09-.01-2.17.01-3.26.06-3.13 2.33-5.59 5.27-5.71 1.42-.05 2.77.43 3.78 1.38 1.07 1 1.68 2.43 1.72 4.03.09 3.51.09 6.92 0 10.15-.07 3.17-2.29 5.43-5.29 5.43zm-.49-10.57-.01 1.46c-.01 1.1-.02 2.21.01 3.31.01.44.22.8.46.81.15 0 .31.01.32-.56.08-3.15.08-6.48 0-9.9-.01-.3-.09-.46-.14-.51-.03-.03-.1-.04-.16-.03-.26.01-.47.37-.48.82-.02 1.05-.02 2.09-.01 3.14z"/><path d="m225.33 180.66c1.61 0 3.23-.05 4.84.01 1.66.07 2.79 1.16 2.85 2.6.06 1.5-1.28 3.05-2.89 3.09-3.23.07-6.46.07-9.69.01-1.69-.03-3.01-1.43-3.03-2.96-.02-1.58 1.17-2.69 3.07-2.75 1.61-.06 3.23-.01 4.84-.01.01 0 .01 0 .01.01z"/><path d="m225.2 188.92c-1.59 0-3.2-.02-4.81-.05-2.99-.06-5.45-2.5-5.48-5.43-.03-2.95 2.27-5.17 5.48-5.28 1.17-.04 2.34-.03 3.47-.02.49 0 .98.01 1.46.01h2.12c.93-.01 1.88-.01 2.83.03 2.92.12 5.13 2.22 5.25 5 .06 1.41-.49 2.84-1.52 3.94-1.01 1.08-2.41 1.72-3.82 1.76-1.63.02-3.3.04-4.98.04zm-2.85-5.79c-.6 0-1.19.01-1.79.03-.43.02-.63.13-.66.17.01.23.23.55.59.55 3.25.07 6.47.06 9.58-.01.17 0 .45-.32.45-.48-.01-.17-.32-.21-.46-.21-1.05-.04-2.11-.03-3.23-.02-.5 0-1.01.01-1.51.01l-2.5-.03c-.15-.01-.31-.01-.47-.01z"/><path d="m197.51 186.39c-1.49 0-2.99.03-4.48-.01-1.89-.05-3.35-1.43-3.31-3.06.04-1.57 1.24-2.63 3.17-2.66 3.17-.05 6.33-.05 9.5 0 1.75.03 2.9 1.18 2.92 2.7.01 1.53-1.32 2.93-2.97 3-1.6.08-3.22.02-4.83.03z"/><path d="m194.78 188.9c-.61 0-1.21 0-1.82-.02-1.63-.04-3.19-.72-4.27-1.86-.99-1.04-1.51-2.38-1.47-3.78.08-2.95 2.4-5.04 5.64-5.09 3.29-.05 6.52-.04 9.58 0 3.04.05 5.35 2.28 5.38 5.18.02 2.92-2.38 5.39-5.36 5.52-1.19.05-2.36.04-3.49.03-.15 0-.3 0-.46 0l-2.35.01c-.46.01-.92.01-1.38.01zm-2.55-5.59c0 .01 0 .04-.01.08 0 .08.06.16.1.2.17.18.46.29.77.3.64.02 1.27.02 1.92.02v-.02h2.5c.5 0 1 0 1.5.01 1.12.01 2.18.02 3.23-.02.33-.01.57-.33.57-.48 0-.06 0-.22-.46-.22-3.01-.05-6.18-.05-9.42 0-.43-.02-.65.08-.7.13z"/><path d="m252.93 180.65c1.61 0 3.23-.05 4.84.01 1.73.07 2.94 1.25 2.93 2.72 0 1.5-1.36 2.95-3.02 2.98-3.23.07-6.46.06-9.68 0-1.61-.03-2.94-1.54-2.9-3.07.04-1.51 1.09-2.55 2.81-2.62 1.68-.07 3.35-.01 5.02-.02z"/><path d="m252.93 188.92c-1.66 0-3.32-.02-4.98-.05-1.42-.03-2.77-.64-3.79-1.71-1.03-1.08-1.59-2.51-1.56-3.92.07-2.85 2.21-4.93 5.2-5.06 1.22-.05 2.44-.04 3.62-.03.2 0 .4 0 .61.01h.9c.49 0 .98 0 1.46-.01 1.13-.01 2.3-.02 3.48.03 3.05.13 5.34 2.38 5.33 5.23-.01 2.91-2.51 5.41-5.47 5.47-1.58.02-3.19.04-4.8.04zm-5.32-5.66c0 .01-.01.05-.01.11 0 .05.04.2.18.34.11.11.22.16.28.16 3.2.07 6.42.07 9.58 0 .31-.01.57-.36.57-.49 0-.08-.21-.2-.54-.22-.73-.03-1.47-.04-2.23-.03v.03h-2.5c-.52 0-1.04 0-1.56-.01-1.16-.01-2.26-.02-3.36.02-.25.01-.37.07-.41.09z"/><path d="m289.89 224.61c0-1.55-.03-3.1.01-4.65.05-1.69 1.32-3.05 2.83-3.12 1.62-.08 2.87 1.05 2.93 2.92.09 3.28.1 6.56.01 9.84-.05 1.69-1.38 2.84-2.9 2.78-1.4-.05-2.79-1.42-2.85-2.94-.07-1.61-.02-3.22-.03-4.83z"/><path d="m292.87 234.88c-.07 0-.13 0-.2 0-2.74-.1-5.15-2.54-5.26-5.34-.05-1.18-.04-2.35-.02-3.48 0-.2 0-.39 0-.59l-.01-2.28c-.01-1.1-.01-2.21.02-3.31.08-2.98 2.37-5.42 5.21-5.55 1.43-.08 2.8.41 3.82 1.35 1.06.98 1.67 2.4 1.72 4 .09 3.31.1 6.67.01 9.98-.04 1.47-.63 2.81-1.67 3.79-.98.93-2.26 1.43-3.62 1.43zm-.49-12.77h.02v2.5c0 .5 0 1-.01 1.5-.01 1.12-.02 2.18.02 3.24.01.19.3.5.47.54.09 0 .15-.04.19-.07.06-.06.09-.15.1-.28.09-3.22.09-6.48-.01-9.7-.01-.3-.09-.44-.12-.47-.01-.01-.07-.04-.19-.03-.15.01-.45.26-.46.7-.01.68-.01 1.37-.01 2.07z"/><path d="m160.5 142.25c0 1.49.04 2.98-.01 4.47-.06 1.83-1.34 3.24-2.89 3.26-1.6.03-2.86-1.27-2.9-3.21-.06-3.1-.07-6.21 0-9.31.05-1.98 1.07-2.95 2.83-2.97 1.78-.01 2.9 1.13 2.96 3.09.05 1.57.01 3.12.01 4.67z"/><path d="m157.55 152.49c-2.99 0-5.28-2.42-5.35-5.66-.07-3.34-.07-6.42 0-9.42.08-3.27 2.16-5.39 5.32-5.41 3.13-.02 5.37 2.2 5.47 5.51.03 1.09.02 2.18.02 3.27 0 .49-.01.97-.01 1.46l.01 1.32c.01 1.08.02 2.16-.02 3.23-.1 3.14-2.45 5.64-5.35 5.69-.03.01-.06.01-.09.01zm-.28-15.46c-.02.08-.06.24-.06.5-.07 2.92-.07 5.93 0 9.2 0 .21.08.76.35.76.12 0 .42-.29.44-.84.03-1.01.02-2.03.01-3.04l-.01-1.35c0-.5 0-1 .01-1.49.01-1.03.01-2.06-.02-3.09-.01-.4-.1-.58-.13-.62s-.07-.03-.31-.04c-.13-.01-.23 0-.28.01z"/><path d="m154.68 114.32c0-1.55-.02-3.1.01-4.66.04-1.81 1.28-3.2 2.88-3.27 1.59-.07 2.86 1.11 2.9 2.98.08 3.34.09 6.69 0 10.03-.05 1.89-1.27 3.03-2.88 3-1.59-.04-2.85-1.4-2.9-3.24-.05-1.62-.01-3.23-.01-4.84z"/><path d="m157.67 124.9c-.04 0-.09 0-.13 0-2.96-.07-5.26-2.5-5.35-5.67-.03-1.15-.02-2.3-.02-3.45l.01-1.46v-1.45c0-1.08-.01-2.17.01-3.25.06-3.13 2.33-5.59 5.27-5.71 1.43-.05 2.77.43 3.78 1.38 1.07 1 1.68 2.43 1.72 4.03.09 3.5.09 6.92 0 10.15-.08 3.16-2.3 5.43-5.29 5.43zm-.49-10.58-.01 1.49c-.01 1.09-.02 2.19.01 3.28.01.44.22.8.46.81.14.01.31.01.32-.56.08-3.15.08-6.48 0-9.9-.01-.3-.09-.46-.14-.51-.03-.03-.11-.04-.16-.03-.26.01-.47.37-.48.82-.02 1.04-.02 2.09-.01 3.13z"/></g></svg>