<svg enable-background="new 0 0 566.93 566.93" viewBox="0 0 566.93 566.93" xmlns="http://www.w3.org/2000/svg"><path d="m546 283.97c-.29 1.4-.52 2.81-.87 4.19-2.3 9.06-8.22 14.85-16.63 18.36-5.98 2.49-12.28 3.43-18.7 3.73-1.02.05-2.05.01-3.16.01 1.95-22.48-4.7-42.79-15.3-62.48-5.34 20.17-16.1 36.37-32.84 48.35-16.75 11.99-35.55 16.98-56.04 15.1-18.78-1.73-35.13-9.19-48.89-22.07-13.75-12.88-22.12-28.74-25.52-47.64-17.54 19.89-23.55 42.96-21.07 68.9-1.85-.2-3.63-.3-5.37-.6-15-2.6-24.8-13.79-27.49-27.27-2.99-15.04 1.47-28.06 11.64-39.21 8.12-8.9 18.46-14.24 29.86-17.65 3.74-1.12 7.58-1.93 11.55-2.93.19-1.66.3-3.53.64-5.36.74-3.96 1.64-7.89 2.41-11.84.7-3.6 1.27-7.23 1.94-10.83 2.34-12.6 6.52-24.45 14.27-34.83 8.51-11.4 19.85-18.58 33.47-22.3 7.01-1.91 14.17-2.82 21.44-2.95.38-.01.76-.13 1.14-.19h4.08c.26.07.51.19.77.19 6.05.08 12.04.76 17.96 1.98 15.9 3.29 29.77 10.46 41.26 22 10.46 10.51 17.68 23 22.05 37.14 2.43 7.85 3.61 15.95 4.37 24.11.1 1.03.29 1.6 1.51 1.8 1.92.32 3.82.87 5.67 1.48 11.6 3.82 21.21 10.66 29.28 19.7 7.62 8.54 13.25 18.18 15.71 29.48.34 1.55.57 3.12.85 4.68.01 2.31.01 4.63.01 6.95zm-134.2-58.03c0-10.54 0-20.89 0-31.58-.41.72-.63 1.1-.84 1.48-5.41 9.55-11.16 18.85-18.61 26.98-2.49 2.72-5.18 5.24-8.61 6.79-1.74.78-3.53 1.21-5.5.49 0-.35.02-.67 0-.98-.31-3.98-.49-7.98-1-11.93-.46-3.62-1.44-7.14-3.55-10.21-.65-.94-1.54-1.71-2.44-2.69-2.56 5.56-5.36 10.58-8.88 15.16-2.92 3.8-6.14 7.3-10.59 9.35-.95.44-1.25.93-1.19 1.96.95 16.38 7.29 30.31 19.39 41.34 14.15 12.9 30.91 17.87 49.85 15 12.81-1.94 23.78-7.74 32.89-16.92 9.33-9.4 14.98-20.72 16.81-33.85.44-3.15.43-6.36.46-9.55.01-1.35-1.27-2.19-2.66-2.06-.56.05-1.11.15-1.67.2-8.84.68-17.68 1.58-26.54 1.96-7.13.31-14.3.05-21.45-.09-1.91-.05-3.82-.55-5.87-.85z" fill="#f79421"/><path d="m30.96 428.93c7.78-8.53 15.57-17.06 23.35-25.6 25.9-28.42 51.8-56.84 77.71-85.26 1.08-1.18 2.11-2.41 3.25-3.53.4-.39 1.06-.74 1.61-.74 32.76-.03 65.52-.03 98.28 0 .5 0 1.17.3 1.49.69 21.28 26.09 42.54 52.19 63.78 78.31.3.37.53.92.53 1.38.03 18.04.02 36.08.02 54.12 0 .19-.03.37-.06.83-1.1-1.47-2.1-2.69-2.97-4.01-3.48-5.22-7.84-9.67-12.2-14.14-12.94-13.24-25.83-26.53-38.73-39.8-.3-.31-.53-.7-.8-1.05-.17.06-.34.12-.51.18v45.58c-38.83.59-77.33 1.18-115.96 1.78-.55-16.64-1.09-33.16-1.64-50-25.17 21.47-50.11 42.75-75.11 64.09-3.24-3.35-6.43-6.64-9.63-9.94-3.98-4.11-7.96-8.21-11.94-12.31-.13-.14-.31-.22-.47-.34 0-.08 0-.16 0-.24z" fill="#05afa0"/><path d="m541.12 430.42c-4.23 1.05-8.25 2.06-12.27 3.05-6.63 1.64-13.26 3.26-19.88 4.94-.96.24-1.47.07-2.07-.73-16.04-21.55-32.11-43.07-48.18-64.6-.35-.47-.7-.94-1.24-1.64-.27 3.22-.52 6.14-.76 9.06-.69 8.52-1.38 17.05-2.03 25.57-.05.62.11 1.37.44 1.88 4.67 7.21 9.4 14.39 14.1 21.57.24.36.47.73.85 1.33-39 .65-77.81 1.3-116.81 1.96.19-.47.31-.82.46-1.15 3.44-7.65 6.84-15.31 10.34-22.93.56-1.21.6-2.34.44-3.58-1.13-8.8-2.24-17.6-3.36-26.4-.01-.11-.07-.21-.17-.49-.44.48-.81.87-1.16 1.28-17.28 19.78-34.53 39.58-51.85 59.33-2.57 2.93-4.39 5.43-6.51 9.54-.07.16-.2.29-.49.71 0-.71 0-1.09 0-1.47 0-15.92-.01-36.84.03-52.75 0-.72.31-1.58.77-2.13 17.8-21.5 35.62-37.97 53.45-59.44 2.78-3.35 5.55-6.72 8.38-10.04.33-.39.98-.7 1.48-.7 31.8-.03 63.59-.03 95.39-.05.75 0 1.14.31 1.55.86 15.08 20.42 30.18 40.82 45.27 61.23 11.03 14.91 22.06 29.83 33.08 44.74.24.3.44.6.75 1.05z" fill="#f79421"/><path d="m173.18 146.23c11.74 1.04 23.5 1.92 35.21 3.18 10.8 1.16 21.57 2.7 32 5.94 11.76 3.65 18.03 11.94 19.77 23.9.96 6.62.38 13.24-.07 19.86-.55 8.13-1.28 16.26-1.43 24.4-.66 35.31-25.64 65.95-60.25 72.86-25.8 5.15-48.69-1.34-67.97-19.36-12.76-11.93-20.25-26.79-22.66-44.1-.61-4.42-.65-8.92-.86-13.38-.3-6.46-1.74-12.72-3.06-19.02-.75-3.58-1.39-7.22-1.68-10.87-.46-5.93 1.81-11.01 6.18-14.86 13.67-12.04 28.83-21.55 46.49-26.67 6-1.74 12.13-1.91 18.31-1.51 0-.14.01-.26.02-.37zm2.97 59.84c-.05-.06-.11-.12-.16-.19-.38.18-.76.35-1.14.53-6.86 3.34-13.71 6.68-20.58 9.99-.42.2-1.04.35-1.44.2-7.06-2.69-14.31-3.07-21.71-2.01-.78.11-1.15.37-1.29 1.22-.84 5.09-.93 10.18-.26 15.29 1.68 12.93 6.98 24.17 16.34 33.24 13.6 13.18 29.94 18.45 48.6 15.01 18.22-3.37 31.41-13.87 39.67-30.38 5.14-10.26 6.87-21.2 5.15-32.63-.17-1.14-.52-1.58-1.69-1.79-10.81-1.94-21.69-2.96-32.68-2.63-6.4.19-12.76.83-19.03 2.15-4.18.88-8.34 1.83-12.27 3.6-.65.29-1.78.41-2.22.04-.41-.34-.29-1.44-.24-2.19.04-.54.3-1.08.56-1.57 1.19-2.22 2.41-4.41 3.62-6.61.24-.43.51-.84.77-1.27z" fill="#05afa0"/></svg>