<svg enable-background="new 0 0 566.93 566.93" viewBox="0 0 566.93 566.93" xmlns="http://www.w3.org/2000/svg"><path d="m225.59 103.62c119.92-12.3 108.84 204.52 55.14 245.07-21.73 18.98-50.7 18.63-79 10.92-17.91-.1-74.8 67.84-92.44 70.87 48.52-109.8 37.44-91.76 19.83-104.52-172.58-101.48 10.07-208.56 96.47-222.34z" fill="#0cb0a1"/><path d="m344.21 164.53c-119.92-12.3-108.84 204.52-55.14 245.07 21.73 18.98 50.7 18.63 79 10.92 17.91-.1 74.8 67.84 92.44 70.87-48.52-109.8-37.44-91.76-19.83-104.52 172.58-101.48-10.08-208.56-96.47-222.34z" fill="#f89522"/><path d="m311.03 301.21c-11.2 35.26-27.17 52.3-50.74 59.54l-.51-1.54c-27.17-99.51-5.22-153.29 31.36-182.04 5.8-4.56 12.71-7.73 19.58-9.58 10.89 31.3 12.57 73.88.31 133.62" fill="#cddd46"/><path d="m313.05 136.93c-7.05-10.3-14.78-20.09-23.88-28.29-9.09-8.15-19.76-14.53-31.46-17.49-1.42-.53-2.95-.62-4.42-.92l-4.46-.78c-3.01-.14-6.03-.42-9.06-.4l-4.55.23c-1.52.07-3.04.1-4.54.4l-4.52.69-2.27.32-2.23.54c-11.97 2.67-23.58 7.21-34.87 12.55 10.47-6.78 21.83-12.49 34.08-15.81 12.17-3.32 25.41-4.31 37.92-.98l4.62 1.41c.77.24 1.54.45 2.3.72l2.2.98c2.93 1.32 5.93 2.52 8.58 4.34l4.09 2.52c1.31.91 2.53 1.95 3.79 2.92l3.75 2.96 3.38 3.36c9 8.93 15.93 19.6 21.55 30.73" fill="#0cb0a1"/><path d="m67.42 295.81c-9.17-7.75-17.23-17.28-22.26-28.56-5.17-11.22-6.63-24.02-5.13-36.23 1.55-12.26 5.84-23.93 11.53-34.65 5.66-10.76 12.75-20.63 20.55-29.8-6.45 10.17-12.5 20.53-17.54 31.29-4.95 10.77-8.86 22.06-10.26 33.68-1.49 11.58-.34 23.49 3.95 34.43 4.27 10.94 11.13 20.88 19.16 29.84" fill="#f89522"/><path d="m255.6 397.45c7.13 8.08 14.72 15.64 23.22 21.94 8.51 6.25 17.93 11.17 27.98 14.08 10.02 3.02 20.59 4 31.14 3.52 10.57-.5 21.09-2.5 31.56-5.06-9.89 4.26-20.44 7.25-31.3 8.41-10.85 1.2-22.03.37-32.62-2.74-10.57-3.15-20.44-8.54-28.81-15.57-8.41-7.03-15.47-15.44-21.17-24.58" fill="#0cb0a1"/><path d="m497.08 208.26c7.25 11.85 14.59 23.63 20.98 36.03 6.42 12.36 11.94 25.38 14.99 39.21 1.47 6.91 2.31 13.99 2.27 21.08-.09 7.09-.96 14.19-2.84 21.01-3.61 13.72-10.84 26.1-19.58 36.85 7.39-11.74 13.39-24.33 16.31-37.64 2.94-13.3 2.58-27.12-.37-40.39-2.85-13.33-8.05-26.12-13.79-38.65-5.8-12.51-12.18-24.86-17.97-37.5" fill="#f89522"/></svg>