<svg enable-background="new 0 0 226.77 226.77" viewBox="0 0 226.77 226.77" xmlns="http://www.w3.org/2000/svg"><path d="m11.61 95.64s14.34 20.9 60.67 11.04c14.19-3.02 82.47-16.25 82.47-16.25l4.22-18.74z" fill="#c1532f"/><path d="m158.96 71.68-27.93-60.63-105.09 19.22 28.03 65.26z" fill="#754d25"/><path d="m131.03 11.05 18.77 40.79-106.08 19.81-17.78-41.38z" fill="#412312" opacity=".29"/><path d="m118.72 26.23c5.94-8.99 12.32-15.18 12.32-15.18l28.17 61.81c-14.06 12.87-33.95 14.16-45.49-3.21-10.29-14.2-2.99-31.43 5-43.42z" fill="#603a17"/><path d="m159 71.98.03 80.54-104.99 35.98v-93.16z" fill="#754d25"/><path d="m224.54 95.59v83.54l-65.58-26.61v-80.84z" fill="#754d25"/><path d="m119.55 123.1v95.93l-65.58-30.56v-92.83z" fill="#8d633a"/><path d="m60.6 106c2.04.87 57.2 23.4 57.2 23.4l-2.39 81.74-8.5-3.67s.14-58.31-16.7-70.24c-15.9-11.27-30.68 2.48-30.68 2.48z" fill="#7f281e" opacity=".21"/><path d="m119.53 216.42-65.56-30.58v-10.59l65.56 30.3z" fill="#c56e29"/><path d="m56.21 96.52 6.63 2.77v93.15l-6.63-3.09z" fill="#c56e29"/><path d="m53.97 95.64 6.63 2.77v93.15l-6.63-3.09z" fill="#df8926"/><path d="m119.55 123.1v95.93l-8.27-3.85v-95.54z" fill="#df8926"/><path d="m224.56 95.64v83.55l-105.01 39.84v-95.93z" fill="#a77d52"/><path d="m218.63 177.89-91.9 33.1v-7.59s66.02-30.17 75.67-37.56c8.15-6.23 5.99-25.09 6.13-47.46-17.53 4.97-46.75 13.76-56.31 19.66-21.6 13.33-26.71 70.69-26.71 70.69v-81.63l93.96-24.5z" fill="#7f281e" opacity=".33"/><path d="m184.17 115.32.01 14.94c0 2.48-1.61 4.68-3.98 5.42l-6.6 2.07c-3.66 1.15-7.38-1.59-7.38-5.42v-11.88z" fill="#c56e29"/><path d="m222.72 96.36v.04 83.51l-8.18 3.1v-84.51z" fill="#c56e29"/><path d="m119.55 123.1v95.93l-8.27-3.85v-95.54z" fill="#df8926"/><path d="m224.56 167.39v9.61l-105.03 39.9v-10.87z" fill="#c56e29"/><g fill="#faa62a"><path d="m119.55 123.1 7.15-1.87v95.09l-7.15 2.71z"/><path d="m224.56 95.64v8.81l-105.03 29.99v-11.75z"/><path d="m224.56 169.55v9.61l-105.03 39.9v-10.87z"/><path d="m224.55 95.64.01.04v83.51l-8.18 3.1v-84.51z"/></g><path d="m119.4 122.74.15 3.25 105.06-28.29s.22-.94 0-1.93z" fill="#df8926"/><path d="m119.53 122.74v3.23l-65.56-27.78v-2.66z" fill="#c56e29"/><path d="m119.53 125.97-65.56-27.78v7.86l65.56 28.39z" fill="#df8926"/><path d="m224.56 95.64v.04l-.01-.04z" fill="#a77d52"/><path d="m119.53 219.06-65.56-30.59v-10.58l65.56 30.3z" fill="#df8926"/><path d="m186.49 115.32.01 14.94c0 2.48-1.61 4.68-3.98 5.42l-6.6 2.07c-3.66 1.15-7.38-1.59-7.38-5.42v-11.88z" fill="#faa62a"/><path d="m175.42 133.87 1.75-7.71c-1-.09-1.76-.96-1.83-2.23-.09-1.59.96-3.18 2.32-3.53 1.33-.35 2.46.64 2.54 2.18.06 1.22-.55 2.44-1.45 3.1l2.33 6.28z" fill="#c56e29"/><path d="m53.97 95.53 65.56 27.21 105.02-27.11-65.59-23.96zm8.09.69 96.74-21.98 57.46 20.99-96.54 24.92z" fill="#db8d58"/><path d="m54.21 95.39-28.27-65.12s-35.01 35.55-17.22 61.71c18.79 27.63 42.62 6.07 45.25 3.55.16-.15.24-.14.24-.14z" fill="#8d633a"/><path d="m10.89 90.46c-14.07-24.48 17.19-55.03 17.19-55.03l20.68 50.23s-14.35-20.95-21.7-13.27c-12.55 13.09-3.07 27.64-3.07 27.64s-7.06.95-13.1-9.57z" fill="#7f281e" opacity=".21"/><path d="m53.97 95.53c.17-.16.24-.14.24-.14l-28.27-65.12s-35.01 35.55-17.22 61.71c18.76 27.58 42.55 6.13 45.25 3.55zm-28.27-53.2 21.95 50.33s-18.8 18.99-34-3.72c-13.59-20.29 12.05-46.61 12.05-46.61z" fill="#df8926"/><path d="m47.64 92.67-21.94-50.34s-25.64 26.32-12.06 46.61c15.2 22.71 34 3.73 34 3.73zm-22.35-47.68 20.14 46.63s-17.69 15.66-30.72-3.73c-11.64-17.32 10.58-42.9 10.58-42.9z" fill="#c56e29"/><path d="m25.94 30.27 28.03 65.26 104.99-23.85-27.93-60.63zm4.19 2.24 99.09-18.14 25.53 55.23-99.03 22.5z" fill="#e39865"/></svg>