<svg enable-background="new 0 0 226.77 226.77" viewBox="0 0 226.77 226.77" xmlns="http://www.w3.org/2000/svg"><path d="m138.94 70.15.02 81.83-106.67 36.56v-94.65z" fill="#754d25"/><path d="m205.52 94.15v84.88l-66.62-27.04v-82.14z" fill="#754d25"/><path d="m98.85 122.1v97.47l-66.63-31.05v-94.33z" fill="#8d633a"/><path d="m38.96 104.72c2.07.89 58.12 23.78 58.12 23.78l-2.43 83.05-8.64-3.72s.14-59.24-16.97-71.36c-16.16-11.45-31.18 2.52-31.18 2.52z" fill="#7f281e" opacity=".21"/><path d="m98.83 216.91-66.61-31.07v-10.76l66.61 30.79z" fill="#c56e29"/><path d="m34.49 95.08 6.74 2.83v94.64l-6.74-3.14z" fill="#c56e29"/><path d="m32.22 94.19 6.74 2.82v94.65l-6.74-3.14z" fill="#df8926"/><path d="m98.85 122.1v97.47l-8.41-3.92v-97.07z" fill="#df8926"/><path d="m205.54 94.19v84.89l-106.69 40.49v-97.47z" fill="#a77d52"/><path d="m199.52 177.76-93.38 33.63v-7.71s67.08-30.66 76.89-38.16c8.28-6.33 6.09-25.49 6.23-48.22-17.81 5.05-47.5 13.98-57.22 19.97-21.95 13.54-27.14 71.82-27.14 71.82v-82.93l95.47-24.89z" fill="#7f281e" opacity=".33"/><path d="m164.51 114.19.01 15.18c0 2.52-1.64 4.76-4.05 5.51l-6.71 2.1c-3.72 1.16-7.5-1.61-7.5-5.51v-12.07z" fill="#c56e29"/><path d="m203.67 94.92.01.05v84.85l-8.32 3.15v-85.87z" fill="#c56e29"/><path d="m98.85 122.1v97.47l-8.41-3.92v-97.07z" fill="#df8926"/><path d="m205.54 167.1v9.76l-106.71 40.54v-11.04z" fill="#c56e29"/><g fill="#faa62a"><path d="m98.85 122.1 7.26-1.9v96.61l-7.26 2.76z"/><path d="m205.54 94.19v8.95l-106.71 30.48v-11.94z"/><path d="m205.54 169.29v9.77l-106.71 40.53v-11.04z"/><path d="m205.54 94.19v.05 84.84l-8.31 3.16v-85.87z"/></g><path d="m98.7 121.73.15 3.3 106.75-28.74s.22-.96 0-1.97z" fill="#df8926"/><path d="m98.83 121.73v3.28l-66.61-28.22v-2.71z" fill="#c56e29"/><path d="m98.83 125.01-66.61-28.22v7.98l66.61 28.85z" fill="#df8926"/><path d="m205.54 94.19v.05z" fill="#a77d52"/><path d="m98.83 219.59-66.61-31.07v-10.76l66.61 30.79z" fill="#df8926"/><path d="m166.86 114.19.01 15.18c0 2.52-1.64 4.76-4.05 5.51l-6.71 2.1c-3.72 1.16-7.5-1.61-7.5-5.51v-12.07z" fill="#faa62a"/><path d="m155.62 133.04 1.78-7.84c-1.01-.09-1.79-.97-1.86-2.26-.09-1.62.98-3.23 2.36-3.59 1.36-.35 2.5.65 2.58 2.22.06 1.24-.56 2.48-1.48 3.15l2.37 6.38z" fill="#c56e29"/><path d="m170.93 47.88s.01.01.04.02c-.04-.01-.07-.01-.11-.02z" fill="#7f281e" opacity=".33"/><path d="m148.61 48.74h.01z" fill="#7f281e" opacity=".33"/><path d="m32.22 94.08 66.61 27.65 106.7-27.54-66.63-24.34zm8.22.7 98.29-22.33 58.38 21.33-98.09 25.32z" fill="#db8d58"/><path d="m203.07 42.3-102.17 25.55-66.61 27.04 104.17-25.04z" fill="#412312"/><path d="m140.52 24.32c16.33-8.88 34.04-2.61 46.92 5.67 9.66 6.16 15.62 12.32 15.62 12.32l-64.61 27.55s-5.94-3.37-8.98-9.45c-2.54-5.11-10.04-24.62 11.05-36.09z" fill="#754d25"/><path d="m146.26 20.67c14.04-5.09 29.5 1.63 40.69 8.82 9.66 6.16 16.26 12.71 16.26 12.71l-73.83 18.46-28.34 7.08-59.74-20.43z" fill="#a77d52"/><path d="m146.26 20.67c14.03-5.09 29.49 1.62 40.68 8.81 9.66 6.16 16.26 12.71 16.26 12.71l-73.83 18.46-28.34 7.08-5.98-11.02s74.88-12.88 76.95-20.43c1.98-7.19-23.92-14.78-26.36-15.47z" fill="#7f281e" opacity=".33"/><path d="m145.47 20.77c13.44-3.73 29.34 1.89 39.97 8.72 9.66 6.16 16.26 12.71 16.26 12.71l-6.91 1.73c-4.14-3.45-16.32-11.93-24.28-16.65-13.52-8.01-24.58-6.5-25.04-6.51z" fill="#df8926"/><path d="m129.49 60.9-28.45 6.84-36.7-12.55-13.63-10.27s13.63-4.62 29.65 1.39c12.5 4.69 23.17 16.33 23.17 16.33l95.02-24.34 5.01 4.01z" fill="#faa62a"/><path d="m148.4 20c13.44-3.73 27.92 2.66 38.54 9.49 9.66 6.16 16.26 12.71 16.26 12.71l-6.91 1.73c-4.14-3.45-16.08-13.19-24.09-17.83-9.65-5.6-23.35-6.09-23.8-6.1z" fill="#faa62a"/><path d="m33.82 95.53 66.73-28.1s-35.89-35.81-62.69-18.07c-30.01 19.86-4.04 46.17-4.04 46.17z" fill="#8d633a"/><path d="m39.37 51.58c25.05-13.98 55.69 18.16 55.69 18.16l-51.29 20.38s21.46-14.31 13.76-21.88c-13.15-12.92-28.05-3.47-28.05-3.47s-.87-7.18 9.89-13.19z" fill="#7f281e" opacity=".21"/><path d="m33.82 95.53 67.22-27.79s-36.38-36.13-63.19-18.38c-30 19.86-4.03 46.17-4.03 46.17zm54.26-28.3-51.41 21.66s-19.06-19.34 4.21-34.5c20.79-13.54 47.2 12.84 47.2 12.84z" fill="#df8926"/><path d="m36.67 88.89 51.41-21.66s-26.42-26.38-47.2-12.84c-23.27 15.16-4.21 34.5-4.21 34.5zm48.72-22.11-47.63 19.88s-15.69-18.17 4.17-31.16c17.75-11.61 43.46 11.28 43.46 11.28z" fill="#c56e29"/><path d="m34.29 94.89 104.6-25.04 64.67-27.55-102.52 25.44zm103.17-26.04-98.16 24.54 62.6-24.54 90.65-23.04z" fill="#db8d58"/><path d="m148.4 20c13.44-3.73 27.92 2.66 38.54 9.49 9.66 6.16 16.26 12.71 16.26 12.71l-6.91 1.73c-4.14-3.45-16.32-11.93-24.28-16.65-13.51-8.01-23.16-7.27-23.61-7.28z" fill="#faa62a"/><path d="m130.34 42.16c-5.93 1.78-35.92 8.79-61.28 14.64l-27.76-9.49 99.7-25.31c5.89 6.19 4.33 15.65-10.66 20.16z" fill="#fff" opacity=".08"/></svg>