<svg enable-background="new 0 0 226.77 226.77" viewBox="0 0 226.77 226.77" xmlns="http://www.w3.org/2000/svg"><path d="m90.52 63.44-.03 81.83 106.68 36.56v-94.29z" fill="#754d25"/><path d="m130.61 115.38v97.47l66.62-31.05v-94.32z" fill="#8d633a"/><path d="m190.5 98c-2.07.89-58.12 23.78-58.12 23.78l2.43 83.05 8.64-3.72s-.14-59.24 16.97-71.36c16.16-11.45 31.18 2.52 31.18 2.52z" fill="#7f281e" opacity=".21"/><path d="m130.62 210.2 66.61-31.08v-10.75l-66.61 30.79z" fill="#c56e29"/><path d="m194.96 88.37-6.74 2.82v94.65l6.74-3.14z" fill="#c56e29"/><path d="m197.23 87.48-6.73 2.82v94.64l6.73-3.14z" fill="#df8926"/><path d="m23.93 87.52v84.79l66.63-27.03v-82.15z" fill="#754d25"/><path d="m130.61 115.38v97.47l8.4-3.91v-97.08z" fill="#df8926"/><path d="m23.91 87.48v84.89l106.7 40.48v-97.47z" fill="#a77d52"/><path d="m29.94 171.05 93.38 33.63v-7.71s-67.08-30.66-76.89-38.16c-8.28-6.33-6.09-25.49-6.23-48.22 17.81 5.05 47.5 13.98 57.22 19.97 21.95 13.54 27.14 71.82 27.14 71.82v-82.93l-95.48-24.9z" fill="#7f281e" opacity=".33"/><path d="m64.95 107.48-.01 15.18c0 2.52 1.64 4.76 4.05 5.51l6.71 2.1c3.72 1.16 7.5-1.61 7.5-5.51v-12.07z" fill="#c56e29"/><path d="m25.78 88.21v.04 84.85l8.31 3.16v-85.88z" fill="#c56e29"/><path d="m130.61 115.38v97.47l8.4-3.91v-97.08z" fill="#df8926"/><path d="m23.91 160.38v9.77l106.71 40.54v-11.04z" fill="#c56e29"/><path d="m130.61 115.38-7.27-1.9v96.62l7.27 2.75z" fill="#faa62a"/><path d="m23.91 87.48v8.95l106.71 30.47v-11.93z" fill="#faa62a"/><path d="m130.62 212.88 66.61-31.08v-10.75l-66.61 30.79z" fill="#df8926"/><path d="m23.91 162.58v9.76l106.71 40.54v-11.04z" fill="#faa62a"/><path d="m23.92 87.48-.01.04v84.85l8.32 3.16v-85.88z" fill="#faa62a"/><path d="m130.76 115.02-.15 3.3-106.7-28.76s-.22-1.08 0-2.09z" fill="#df8926"/><path d="m130.62 115.02v3.28l66.61-28.23v-2.7z" fill="#c56e29"/><path d="m130.62 118.3 66.61-28.23v7.99l-66.61 28.84z" fill="#df8926"/><path d="m62.59 107.48-.01 15.18c0 2.52 1.64 4.76 4.05 5.51l6.71 2.1c3.72 1.16 7.5-1.61 7.5-5.51v-12.07z" fill="#faa62a"/><path d="m73.84 126.33-1.78-7.84c1.01-.09 1.79-.97 1.86-2.26.09-1.62-.98-3.23-2.36-3.59-1.36-.35-2.5.65-2.58 2.22-.06 1.24.56 2.48 1.48 3.15l-2.37 6.38z" fill="#c56e29"/><path d="m90.56 63.13-66.65 24.35 106.71 27.54 66.61-27.65zm39.88 49.26-98.1-25.32 58.38-21.33 98.29 22.33z" fill="#db8d58"/><path d="m71 31.34s-.01.01-.03.03c.03-.02.06-.03.1-.05z" fill="#7f281e" opacity=".33"/><path d="m78.89 24.27c-18.25-3.56-33.25 7.75-43.04 19.52-7.36 8.77-7.85 12.56-7.85 12.56l95.59 24.99 54.73-36.53s-96.78-20.03-99.43-20.54z" fill="#a77d52"/><path d="m92.18 27c-11.53 5.9-10.73 17.99 1.18 21.86 5.69 1.85 32.92 8.41 57.56 14.25l27.41-18.29c-.01-.01-59.03-12.22-86.15-17.82z" fill="#fff" opacity=".08"/><path d="m53.54 43.83c1.5-12.02 33.93-17.8 33.93-17.8-4.96-1.02-8.14-1.68-8.59-1.76-18.25-3.56-33.25 7.75-43.04 19.52-7.35 8.77-7.84 12.56-7.84 12.56l90.13 23.57 3.59-8.6s-69.61-16.05-68.18-27.49z" fill="#7f281e" opacity=".33"/><path d="m85.71 25.67s-11.5.45-19.15 3.64c-18.03 7.51-27.55 23.54-27.55 23.54l-6.01-3s13.02-16.53 26.54-21.54c10.74-3.98 26.17-2.64 26.17-2.64z" fill="#df8926"/><path d="m35.84 43.78c-7.35 8.78-7.84 12.57-7.84 12.57l95.59 24.99 54.73-36.53s-3.57-.74-9.36-1.94-12.25-1.71-25.27 6.46c-10.91 6.85-23.54 24.04-23.54 24.04l-82.75-22.22s8.58-12.18 21.15-19.78c12.52-7.57 26.1-5.92 26.1-5.92-3.33-.68-5.41-1.11-5.76-1.18-18.25-3.56-33.25 7.74-43.05 19.51z" fill="#faa62a"/><path d="m196.06 87.63-72.09-6.73s23.46-44.95 54.35-36.09c34.59 9.92 17.74 42.82 17.74 42.82z" fill="#8d633a"/><path d="m177.54 47.39c-28.09-5.8-47.65 34.07-47.65 34.07l55.05 4.01s-24.77-7.2-19.7-16.73c8.65-16.27 25.7-11.74 25.7-11.74s-1.33-7.12-13.4-9.61z" fill="#7f281e" opacity=".21"/><path d="m178.32 44.81c-30.9-8.86-54.73 36.53-54.73 36.53l72.47 6.28c0 .01 16.85-32.89-17.74-42.81zm-1.37 5.71c26.75 7.46 14.39 31.64 14.39 31.64l-55.55-5.2s17.27-33.1 41.16-26.44z" fill="#df8926"/><path d="m176.95 50.52c-23.9-6.67-41.16 26.44-41.16 26.44l55.55 5.2s12.36-24.18-14.39-31.64zm-.67 1.37c22.85 6.42 13.35 28.47 13.35 28.47l-51.4-4.63s17.64-29.57 38.05-23.84z" fill="#c56e29"/></svg>