<svg enable-background="new 0 0 226.77 226.77" viewBox="0 0 226.77 226.77" xmlns="http://www.w3.org/2000/svg"><path d="m90.15 70.15-.03 81.83 106.68 36.56v-94.65z" fill="#754d25"/><path d="m23.56 94.15v84.88l66.63-27.04v-82.14z" fill="#754d25"/><path d="m130.24 122.1v97.47l66.62-31.05v-94.33z" fill="#8d633a"/><path d="m190.13 104.72c-2.07.89-58.12 23.78-58.12 23.78l2.43 83.05 8.64-3.72s-.14-59.24 16.97-71.36c16.16-11.45 31.18 2.52 31.18 2.52z" fill="#7f281e" opacity=".21"/><path d="m130.25 216.91 66.61-31.07v-10.76l-66.61 30.79z" fill="#c56e29"/><path d="m194.59 95.08-6.74 2.83v94.64l6.74-3.14z" fill="#c56e29"/><path d="m196.86 94.19-6.73 2.82v94.65l6.73-3.14z" fill="#df8926"/><path d="m130.24 122.1v97.47l8.4-3.92v-97.07z" fill="#df8926"/><path d="m23.54 94.19v84.89l106.7 40.49v-97.47z" fill="#a77d52"/><path d="m29.57 177.76 93.38 33.63v-7.71s-67.08-30.66-76.89-38.16c-8.28-6.33-6.09-25.49-6.23-48.22 17.81 5.05 47.5 13.98 57.22 19.97 21.95 13.54 27.14 71.82 27.14 71.82v-82.93l-95.47-24.89z" fill="#7f281e" opacity=".33"/><path d="m64.58 114.19-.01 15.18c0 2.52 1.64 4.76 4.05 5.51l6.71 2.1c3.72 1.16 7.5-1.61 7.5-5.51v-12.07z" fill="#c56e29"/><path d="m25.41 94.92v.05 84.85l8.31 3.15v-85.87z" fill="#c56e29"/><path d="m130.24 122.1v97.47l8.4-3.92v-97.07z" fill="#df8926"/><path d="m23.54 167.1v9.76l106.71 40.54v-11.04z" fill="#c56e29"/><g fill="#faa62a"><path d="m130.24 122.1-7.27-1.9v96.61l7.27 2.76z"/><path d="m23.54 94.19v8.95l106.71 30.48v-11.94z"/><path d="m23.54 169.29v9.77l106.71 40.53v-11.04z"/><path d="m23.55 94.19-.01.05v84.84l8.32 3.16v-85.87z"/></g><path d="m130.39 121.73-.15 3.3-106.76-28.74s-.22-.96 0-1.97z" fill="#df8926"/><path d="m130.25 121.73v3.28l66.61-28.22v-2.71z" fill="#c56e29"/><path d="m130.25 125.01 66.61-28.22v7.98l-66.61 28.85z" fill="#df8926"/><path d="m23.54 94.19v.05l.01-.05z" fill="#a77d52"/><path d="m130.25 219.59 66.61-31.07v-10.76l-66.61 30.79z" fill="#df8926"/><path d="m62.22 114.19-.01 15.18c0 2.52 1.64 4.76 4.05 5.51l6.71 2.1c3.72 1.16 7.5-1.61 7.5-5.51v-12.07z" fill="#faa62a"/><path d="m73.47 133.04-1.78-7.84c1.01-.09 1.79-.97 1.86-2.26.09-1.62-.98-3.23-2.36-3.59-1.36-.35-2.5.65-2.58 2.22-.06 1.24.56 2.48 1.48 3.15l-2.37 6.38z" fill="#c56e29"/><path d="m58.16 47.88s-.01.01-.04.02c.04-.01.07-.01.11-.02z" fill="#7f281e" opacity=".33"/><path d="m80.47 48.74h-.01z" fill="#7f281e" opacity=".33"/><path d="m90.19 69.85-66.64 24.34 106.7 27.54 66.61-27.65zm39.88 49.25-98.1-25.32 58.38-21.33 98.29 22.33z" fill="#db8d58"/><path d="m26.02 42.3 102.16 25.55 66.61 27.04-104.17-25.04z" fill="#412312"/><path d="m88.56 24.32c-16.33-8.88-34.04-2.61-46.92 5.67-9.66 6.15-15.62 12.31-15.62 12.31l64.61 27.55s5.94-3.37 8.98-9.45c2.55-5.1 10.04-24.61-11.05-36.08z" fill="#754d25"/><path d="m82.83 20.67c-14.04-5.09-29.5 1.63-40.69 8.82-9.65 6.15-16.26 12.71-16.26 12.71l73.83 18.46 28.34 7.08 59.74-20.43z" fill="#a77d52"/><path d="m82.82 20.67c-14.03-5.09-29.49 1.62-40.68 8.81-9.65 6.16-16.26 12.72-16.26 12.72l73.83 18.46 28.34 7.08 5.98-11.02s-74.88-12.88-76.95-20.43c-1.98-7.19 23.92-14.78 26.36-15.47z" fill="#7f281e" opacity=".33"/><path d="m83.61 20.77c-13.44-3.73-29.34 1.89-39.97 8.72-9.65 6.15-16.26 12.71-16.26 12.71l6.91 1.73c4.14-3.45 16.32-11.93 24.28-16.65 13.52-8.01 24.59-6.5 25.04-6.51z" fill="#df8926"/><path d="m99.59 60.9 28.45 6.84 36.7-12.55 13.63-10.27s-13.63-4.62-29.65 1.39c-12.5 4.69-23.17 16.33-23.17 16.33l-95.03-24.34-5.01 4.01z" fill="#faa62a"/><path d="m80.68 20c-13.44-3.73-27.92 2.66-38.54 9.49-9.65 6.15-16.26 12.71-16.26 12.71l6.91 1.73c4.14-3.45 16.08-13.19 24.09-17.83 9.66-5.6 23.35-6.09 23.8-6.1z" fill="#faa62a"/><path d="m195.27 95.53-66.73-28.1s35.89-35.81 62.69-18.07c30 19.86 4.04 46.17 4.04 46.17z" fill="#8d633a"/><path d="m189.71 51.58c-25.05-13.98-55.69 18.16-55.69 18.16l51.29 20.38s-21.46-14.31-13.76-21.88c13.15-12.92 28.05-3.47 28.05-3.47s.87-7.18-9.89-13.19z" fill="#7f281e" opacity=".21"/><path d="m191.23 49.36c-26.8-17.75-63.19 18.38-63.19 18.38l67.22 27.79c.01 0 25.97-26.31-4.03-46.17zm-3.03 5.03c23.27 15.16 4.21 34.5 4.21 34.5l-51.41-21.66s26.42-26.38 47.2-12.84z" fill="#df8926"/><path d="m188.2 54.39c-20.78-13.54-47.2 12.84-47.2 12.84l51.41 21.66s19.06-19.34-4.21-34.5zm-1.05 1.11c19.86 12.99 4.17 31.16 4.17 31.16l-47.63-19.88s25.72-22.89 43.46-11.28z" fill="#c56e29"/><path d="m128.04 67.74-102.53-25.44 64.67 27.55 104.6 25.04zm-91.51-21.93 90.65 23.04 62.6 24.54-98.16-24.54z" fill="#db8d58"/><path d="m80.68 20c-13.44-3.73-27.92 2.66-38.54 9.49-9.65 6.15-16.26 12.71-16.26 12.71l6.91 1.73c4.14-3.45 16.31-11.93 24.28-16.65 13.52-8.01 23.16-7.27 23.61-7.28z" fill="#faa62a"/><path d="m98.74 42.16c5.93 1.78 35.92 8.79 61.28 14.64l27.76-9.49-99.69-25.31c-5.89 6.19-4.34 15.65 10.65 20.16z" fill="#fff" opacity=".08"/></svg>