<svg enable-background="new 0 0 226.77 226.77" viewBox="0 0 226.77 226.77" xmlns="http://www.w3.org/2000/svg"><path d="m27.35 78.17 66.81 27.9s.39-50.7-31.05-57.38c-35.19-7.47-35.76 29.48-35.76 29.48z" fill="#8d633a"/><path d="m93.98 105.68v97.47l-66.63-31.04v-94.33z" fill="#8d633a"/><path d="m34.09 88.31c2.07.89 58.12 23.78 58.12 23.78l-2.43 83.05-8.64-3.72s.14-59.24-16.97-71.36c-16.16-11.45-31.18 2.52-31.18 2.52z" fill="#7f281e" opacity=".21"/><path d="m93.97 200.5-66.62-31.07v-10.76l66.62 30.79z" fill="#c56e29"/><path d="m29.63 78.67 6.73 2.82v94.65l-6.73-3.14z" fill="#c56e29"/><path d="m27.35 77.78 6.74 2.82v94.65l-6.74-3.14z" fill="#df8926"/><path d="m93.98 105.68v97.47l-8.4-3.91v-97.07z" fill="#df8926"/><path d="m200.66 77.78.02 84.89-106.7 40.48v-97.47z" fill="#a77d52"/><path d="m53.61 47.7 86.54-14.73c8.25-1.57 19.99-3.34 29.08-.79 22.4 6.29 29.05 30.42 31.44 45.98l-106.51 27.9s.39-50.7-31.05-57.38c-.83-.16-9.5-.98-9.5-.98z" fill="#a77d52"/><path d="m127.17 120.86c-21.95 13.54-27.14 71.82-27.14 71.82v-102.94s53.2-13.54 65.86-17.68c12.67-4.14 14.57-10.79 9.09-21.43-7.39-14.37-31.25-18.3-31.25-18.3l22.32-.86s20.13 11.45 26.3 26.53c6.16 15.08 2.29 103.35 2.29 103.35l-93.38 33.63v-7.71s67.08-30.66 76.89-38.16c8.28-6.33 6.09-25.49 6.23-48.22-17.8 5.04-47.49 13.97-57.21 19.97z" fill="#7f281e" opacity=".33"/><path d="m158.27 46.98c8.09 5.99 7.88 16.97-8.63 21.94-10.62 3.2-55.62 11.17-55.62 11.17l-21.08-31.25 54.27-8.49s20.75-1.01 31.06 6.63z" fill="#fff" opacity=".08"/><path d="m159.64 97.78.01 15.18c0 2.52-1.64 4.76-4.05 5.51l-6.71 2.1c-3.72 1.16-7.5-1.61-7.5-5.51v-12.07z" fill="#c56e29"/><path d="m198.8 78.51.01.05v84.84l-8.32 3.16v-85.87z" fill="#c56e29"/><path d="m62.6 51.33c27.53 8.07 26.08 52.45 26.08 52.45l-50.49-22.3s25.25 5.28 25.25-5.52c0-18.43-17.18-22.44-17.18-22.44s4.51-5.65 16.34-2.19z" fill="#7f281e" opacity=".21"/><path d="m93.98 105.68v97.47l-8.4-3.91v-97.07z" fill="#df8926"/><path d="m27.35 77.78v.39l66.94 28.48s.27-51.27-31.17-57.95c-33.06-7.03-35.58 25.14-35.77 29.08zm58.23 19.27-51.49-21.49s.44-27.15 27.56-21.17c24.23 5.33 23.93 42.66 23.93 42.66z" fill="#df8926"/><path d="m34.09 75.56 51.49 21.49s.3-37.33-23.93-42.67c-27.12-5.97-27.56 21.18-27.56 21.18zm49.91 19.26-47.55-20.05s1.97-23.92 25.15-18.87c20.72 4.53 22.4 38.92 22.4 38.92z" fill="#c56e29"/><path d="m93.98 96.56v8.13l104.34-28.14s-.69-6.77-.91-7.78z" fill="#df8926"/><path d="m200.68 150.69v9.76l-106.71 40.54v-11.04z" fill="#c56e29"/><g fill="#faa62a"><path d="m93.98 105.68 7.26-1.89v96.61l-7.26 2.75z"/><path d="m200.66 77.78.02 8.95-106.71 30.47v-11.93z"/><path d="m200.68 152.88v9.76l-106.71 40.54v-11.04z"/></g><path d="m160.98 34.49c-4.1-1.44-13.97-2.11-17.24-2.16 7.38-1.11 16.85-1.33 23.92.65 22.4 6.29 29.11 29.77 31.5 45.33l-7.86 1.97c-.94-9.26-5.27-37.01-30.32-45.79z" fill="#df8926"/><path d="m200.66 77.78.02.06v84.83l-8.32 3.16v-85.87z" fill="#faa62a"/><path d="m93.83 105.82.15 2.8 1.96-.53 104.74-28.2s.24-.96.02-1.97z" fill="#df8926"/><path d="m63.7 45.99c3.86.4 32.48-.64 37.13 50.34l91.37-24.09c-2.59-12.29-9.77-31.57-29.65-38.53-4.1-1.44-13.15-1.71-16.42-1.76 7.38-1.11 16.04-1.74 23.11.24 18.92 5.31 26.6 23.35 29.97 38.2l1.5 7.59-106.68 28.04c-4.03-61.6-38.26-58.28-44.05-58.04z" fill="#faa62a"/><path d="m93.97 106.32v2.28l-66.62-28.22v-2.21z" fill="#c56e29"/><path d="m93.97 108.6-66.62-28.22v7.98l66.62 28.84z" fill="#df8926"/><path d="m93.97 203.18-66.62-31.07v-10.76l66.62 30.79z" fill="#df8926"/><path d="m161.99 97.78.01 15.18c0 2.52-1.64 4.76-4.05 5.51l-6.71 2.1c-3.72 1.16-7.5-1.61-7.5-5.51v-12.07z" fill="#faa62a"/><path d="m150.75 116.63 1.78-7.84c-1.01-.09-1.79-.97-1.86-2.26-.09-1.62.98-3.23 2.36-3.59 1.36-.35 2.5.65 2.58 2.22.06 1.24-.56 2.48-1.48 3.15l2.37 6.38z" fill="#c56e29"/><g fill="#7f281e"><path d="m166.06 31.47s.01.01.04.02c-.04-.01-.07-.01-.11-.02z" opacity=".33"/><path d="m143.74 32.33.02-.01-.01.01z" opacity=".33"/></g></svg>