<svg enable-background="new 0 0 226.77 226.77" viewBox="0 0 226.77 226.77" xmlns="http://www.w3.org/2000/svg"><path d="m216.78 95.64s-14.34 20.9-60.67 11.04c-14.19-3.02-82.47-16.25-82.47-16.25l-4.22-18.74z" fill="#c1532f"/><path d="m69.43 71.68 27.93-60.63 105.09 19.22-28.03 65.26z" fill="#754d25"/><path d="m97.36 11.05-18.76 40.79 106.08 19.81 17.77-41.38z" fill="#412312" opacity=".29"/><path d="m109.67 26.23c-5.94-8.99-12.32-15.18-12.32-15.18l-28.16 61.81c14.06 12.87 33.95 14.16 45.49-3.21 10.29-14.2 2.98-31.43-5.01-43.42z" fill="#603a17"/><path d="m69.39 71.98-.03 80.54 104.99 35.98v-93.16z" fill="#754d25"/><path d="m3.86 95.59v83.54l65.57-26.61v-80.84z" fill="#754d25"/><path d="m108.85 123.1v95.93l65.57-30.56v-92.83z" fill="#8d633a"/><path d="m167.79 106c-2.04.87-57.2 23.4-57.2 23.4l2.39 81.74 8.5-3.67s-.14-58.31 16.7-70.24c15.9-11.27 30.68 2.48 30.68 2.48z" fill="#7f281e" opacity=".21"/><path d="m108.86 216.42 65.56-30.58v-10.59l-65.56 30.3z" fill="#c56e29"/><path d="m172.18 96.52-6.63 2.77v93.15l6.63-3.09z" fill="#c56e29"/><path d="m174.42 95.64-6.63 2.77v93.15l6.63-3.09z" fill="#df8926"/><path d="m108.85 123.1v95.93l8.27-3.85v-95.54z" fill="#df8926"/><path d="m3.83 95.64v83.55l105.02 39.84v-95.93z" fill="#a77d52"/><path d="m9.76 177.89 91.9 33.1v-7.59s-66.02-30.17-75.67-37.56c-8.15-6.23-5.99-25.09-6.13-47.46 17.53 4.97 46.75 13.76 56.31 19.66 21.6 13.33 26.71 70.69 26.71 70.69v-81.63l-93.95-24.5z" fill="#7f281e" opacity=".33"/><path d="m44.22 115.32-.01 14.94c0 2.48 1.61 4.68 3.98 5.42l6.6 2.07c3.66 1.15 7.38-1.59 7.38-5.42v-11.88z" fill="#c56e29"/><path d="m5.68 96.36-.01.04v83.51l8.19 3.1v-84.51z" fill="#c56e29"/><path d="m108.85 123.1v95.93l8.27-3.85v-95.54z" fill="#df8926"/><path d="m3.83 167.39v9.61l105.03 39.9v-10.87z" fill="#c56e29"/><g fill="#faa62a"><path d="m108.85 123.1-7.15-1.87v95.09l7.15 2.71z"/><path d="m3.83 95.64v8.81l105.03 29.99v-11.75z"/><path d="m3.83 169.55v9.61l105.03 39.9v-10.87z"/><path d="m3.84 95.64-.01.04v83.51l8.19 3.1v-84.51z"/></g><path d="m108.99 122.74-.15 3.25-105.06-28.29s-.22-.94 0-1.93z" fill="#df8926"/><path d="m108.86 122.74v3.23l65.56-27.78v-2.66z" fill="#c56e29"/><path d="m108.86 125.97 65.56-27.78v7.86l-65.56 28.39z" fill="#df8926"/><path d="m3.83 95.64v.04l.01-.04z" fill="#a77d52"/><path d="m108.86 219.06 65.56-30.59v-10.58l-65.56 30.3z" fill="#df8926"/><path d="m41.91 115.32-.01 14.94c0 2.48 1.61 4.68 3.98 5.42l6.6 2.07c3.66 1.15 7.38-1.59 7.38-5.42v-11.88z" fill="#faa62a"/><path d="m52.97 133.87-1.75-7.71c1-.09 1.76-.96 1.83-2.23.09-1.59-.96-3.18-2.32-3.53-1.33-.35-2.46.64-2.54 2.18-.06 1.22.55 2.44 1.45 3.1l-2.33 6.28z" fill="#c56e29"/><path d="m69.43 71.68-65.59 23.96 105.02 27.11 65.56-27.21zm39.25 48.47-96.55-24.92 57.46-20.99 96.74 21.98z" fill="#db8d58"/><path d="m174.18 95.39 28.27-65.12s35.01 35.55 17.22 61.71c-18.79 27.63-42.62 6.07-45.25 3.55-.16-.15-.24-.14-.24-.14z" fill="#8d633a"/><path d="m217.5 90.46c14.07-24.48-17.19-55.03-17.19-55.03l-20.68 50.23s14.35-20.95 21.7-13.27c12.55 13.09 3.07 27.64 3.07 27.64s7.06.95 13.1-9.57z" fill="#7f281e" opacity=".21"/><path d="m219.67 91.98c17.79-26.16-17.22-61.71-17.22-61.71l-28.27 65.12s.07-.02.24.14c2.7 2.58 26.49 24.03 45.25-3.55zm-4.91-3.04c-15.2 22.71-34 3.72-34 3.72l21.95-50.33c-.01 0 25.63 26.32 12.05 46.61z" fill="#df8926"/><path d="m214.76 88.94c13.58-20.29-12.06-46.61-12.06-46.61l-21.95 50.33c0 .01 18.8 18.99 34.01-3.72zm-1.08-1.05c-13.03 19.39-30.72 3.73-30.72 3.73l20.14-46.63s22.22 25.58 10.58 42.9z" fill="#c56e29"/><path d="m97.36 11.05-27.93 60.63 104.99 23.85 28.03-65.26zm75.31 81.05-99.02-22.5 25.53-55.23 99.09 18.14z" fill="#e39865"/></svg>