<svg enable-background="new 0 0 226.77 226.77" viewBox="0 0 226.77 226.77" xmlns="http://www.w3.org/2000/svg"><path d="m200.79 78.17-66.81 27.9s-.39-50.7 31.05-57.38c35.19-7.47 35.76 29.48 35.76 29.48z" fill="#8d633a"/><path d="m134.16 105.68v97.47l66.63-31.04v-94.33z" fill="#8d633a"/><path d="m194.05 88.31c-2.07.89-58.12 23.78-58.12 23.78l2.43 83.05 8.64-3.72s-.14-59.24 16.97-71.36c16.16-11.45 31.18 2.52 31.18 2.52z" fill="#7f281e" opacity=".21"/><path d="m134.18 200.5 66.61-31.07v-10.76l-66.61 30.79z" fill="#c56e29"/><path d="m198.52 78.67-6.74 2.82v94.65l6.74-3.14z" fill="#c56e29"/><path d="m200.79 77.78-6.74 2.82v94.65l6.74-3.14z" fill="#df8926"/><path d="m134.16 105.68v97.47l8.41-3.91v-97.07z" fill="#df8926"/><path d="m27.48 77.78-.01 84.89 106.69 40.48v-97.47z" fill="#a77d52"/><path d="m174.54 47.7-86.55-14.72c-8.25-1.58-19.99-3.34-29.08-.79-22.4 6.29-29.05 30.42-31.44 45.98l106.51 27.9s-.39-50.7 31.05-57.38c.83-.17 9.51-.99 9.51-.99z" fill="#a77d52"/><path d="m100.97 120.86c21.95 13.54 27.14 71.82 27.14 71.82v-102.94s-53.2-13.54-65.86-17.68c-12.67-4.14-14.57-10.79-9.09-21.43 7.39-14.37 31.25-18.3 31.25-18.3l-22.32-.86s-20.13 11.45-26.3 26.53c-6.16 15.08-2.29 103.35-2.29 103.35l93.38 33.63v-7.71s-67.08-30.66-76.89-38.16c-8.28-6.33-6.09-25.49-6.23-48.22 17.8 5.04 47.5 13.97 57.21 19.97z" fill="#7f281e" opacity=".33"/><path d="m69.88 46.98c-8.09 5.99-7.88 16.97 8.63 21.94 10.62 3.2 55.62 11.17 55.62 11.17l21.07-31.24-54.27-8.49c0-.01-20.74-1.02-31.05 6.62z" fill="#fff" opacity=".08"/><path d="m68.5 97.78-.01 15.18c0 2.52 1.64 4.76 4.05 5.51l6.71 2.1c3.72 1.16 7.5-1.61 7.5-5.51v-12.07z" fill="#c56e29"/><path d="m29.34 78.51-.01.05v84.84l8.32 3.16v-85.87z" fill="#c56e29"/><path d="m165.54 51.33c-27.53 8.07-26.08 52.45-26.08 52.45l50.49-22.3s-25.25 5.28-25.25-5.52c0-18.43 17.18-22.44 17.18-22.44s-4.51-5.65-16.34-2.19z" fill="#7f281e" opacity=".21"/><path d="m134.16 105.68v97.47l8.41-3.91v-97.07z" fill="#df8926"/><path d="m165.02 48.7c-31.44 6.68-31.17 57.95-31.17 57.95l66.94-28.48v-.39c-.18-3.94-2.71-36.11-35.77-29.08zm1.47 5.68c27.12-5.97 27.56 21.17 27.56 21.17l-51.49 21.49c.01.01-.3-37.32 23.93-42.66z" fill="#df8926"/><path d="m166.49 54.38c-24.23 5.33-23.93 42.67-23.93 42.67l51.49-21.49s-.44-27.15-27.56-21.18zm.05 1.53c23.19-5.06 25.15 18.87 25.15 18.87l-47.56 20.04c.01 0 1.7-34.39 22.41-38.91z" fill="#c56e29"/><path d="m134.16 96.56v8.13l-104.34-28.13s.69-6.77.91-7.78z" fill="#df8926"/><path d="m27.47 150.69v9.76l106.71 40.54v-11.04z" fill="#c56e29"/><g fill="#faa62a"><path d="m134.16 105.68-7.26-1.89v96.61l7.26 2.75z"/><path d="m27.48 77.78-.01 8.95 106.71 30.47v-11.93z"/><path d="m27.47 152.88v9.76l106.71 40.54v-11.04z"/></g><path d="m67.16 34.49c4.1-1.44 13.97-2.11 17.24-2.16-7.38-1.11-16.85-1.33-23.92.65-22.4 6.29-29.11 29.77-31.5 45.33l7.86 1.97c.94-9.26 5.27-37.01 30.32-45.79z" fill="#df8926"/><path d="m27.48 77.78-.01.06v84.83l8.31 3.16v-85.87z" fill="#faa62a"/><path d="m134.31 105.82-.15 2.8-1.96-.53-104.73-28.19s-.24-.96-.02-1.97z" fill="#df8926"/><path d="m164.44 45.99c-3.86.4-32.48-.64-37.13 50.34l-91.37-24.09c2.59-12.29 9.77-31.57 29.65-38.53 4.1-1.44 13.15-1.71 16.42-1.76-7.38-1.11-16.04-1.74-23.11.24-18.92 5.31-26.6 23.35-29.97 38.2l-1.5 7.59 106.67 28.05c4.03-61.6 38.26-58.28 44.05-58.04z" fill="#faa62a"/><path d="m134.18 106.32v2.28l66.61-28.22v-2.21z" fill="#c56e29"/><path d="m134.18 108.6 66.61-28.22v7.98l-66.61 28.84z" fill="#df8926"/><path d="m134.18 203.18 66.61-31.07v-10.76l-66.61 30.79z" fill="#df8926"/><path d="m66.15 97.78-.01 15.18c0 2.52 1.64 4.76 4.05 5.51l6.71 2.1c3.72 1.16 7.5-1.61 7.5-5.51v-12.07z" fill="#faa62a"/><path d="m77.39 116.63-1.78-7.84c1.01-.09 1.79-.97 1.86-2.26.09-1.62-.98-3.23-2.36-3.59-1.36-.35-2.5.65-2.58 2.22-.06 1.24.56 2.48 1.48 3.15l-2.37 6.38z" fill="#c56e29"/><g fill="#7f281e"><path d="m62.08 31.47s-.01.01-.04.02c.04-.01.07-.01.11-.02z" opacity=".33"/><path d="m84.4 32.33-.01-.01v.01z" opacity=".33"/></g></svg>