<svg enable-background="new 0 0 226.77 226.77" viewBox="0 0 226.77 226.77" xmlns="http://www.w3.org/2000/svg"><path d="m133.46 63.44.03 81.83-106.68 36.56v-94.29z" fill="#754d25"/><path d="m93.37 115.38v97.47l-66.63-31.05v-94.32z" fill="#8d633a"/><path d="m33.48 98c2.07.89 58.12 23.78 58.12 23.78l-2.43 83.05-8.64-3.72s.14-59.24-16.97-71.36c-16.16-11.45-31.18 2.52-31.18 2.52z" fill="#7f281e" opacity=".21"/><path d="m93.36 210.2-66.62-31.08v-10.75l66.62 30.79z" fill="#c56e29"/><path d="m29.02 88.37 6.73 2.82v94.65l-6.73-3.14z" fill="#c56e29"/><path d="m26.74 87.48 6.74 2.82v94.64l-6.74-3.14z" fill="#df8926"/><path d="m200.04 87.52v84.79l-66.62-27.03v-82.15z" fill="#754d25"/><path d="m93.37 115.38v97.47l-8.4-3.91v-97.08z" fill="#df8926"/><path d="m200.07 87.48v84.89l-106.7 40.48v-97.47z" fill="#a77d52"/><path d="m194.04 171.05-93.38 33.63v-7.71s67.08-30.66 76.89-38.16c8.28-6.33 6.09-25.49 6.23-48.22-17.81 5.05-47.5 13.98-57.22 19.97-21.95 13.54-27.14 71.82-27.14 71.82v-82.93l95.47-24.89z" fill="#7f281e" opacity=".33"/><path d="m159.03 107.48.01 15.18c0 2.52-1.64 4.76-4.05 5.51l-6.71 2.1c-3.72 1.16-7.5-1.61-7.5-5.51v-12.07z" fill="#c56e29"/><path d="m198.19 88.21.01.04v84.85l-8.32 3.16v-85.88z" fill="#c56e29"/><path d="m93.37 115.38v97.47l-8.4-3.91v-97.08z" fill="#df8926"/><path d="m200.07 160.38v9.77l-106.71 40.54v-11.04z" fill="#c56e29"/><path d="m93.37 115.38 7.26-1.9v96.62l-7.26 2.75z" fill="#faa62a"/><path d="m200.07 87.48v8.95l-106.71 30.47v-11.93z" fill="#faa62a"/><path d="m93.36 212.88-66.62-31.08v-10.75l66.62 30.79z" fill="#df8926"/><path d="m200.07 162.58v9.76l-106.71 40.54v-11.04z" fill="#faa62a"/><path d="m200.06 87.48.01.04v84.85l-8.32 3.16v-85.88z" fill="#faa62a"/><path d="m93.22 115.02.15 3.3 106.7-28.76s.22-1.08 0-2.09z" fill="#df8926"/><path d="m93.36 115.02v3.28l-66.62-28.23v-2.7z" fill="#c56e29"/><path d="m93.36 118.3-66.62-28.23v7.99l66.62 28.84z" fill="#df8926"/><path d="m161.38 107.48.01 15.18c0 2.52-1.64 4.76-4.05 5.51l-6.71 2.1c-3.72 1.16-7.5-1.61-7.5-5.51v-12.07z" fill="#faa62a"/><path d="m150.14 126.33 1.78-7.84c-1.01-.09-1.79-.97-1.86-2.26-.09-1.62.98-3.23 2.36-3.59 1.36-.35 2.5.65 2.58 2.22.06 1.24-.56 2.48-1.48 3.15l2.37 6.38z" fill="#c56e29"/><path d="m26.74 87.37 66.61 27.65 106.71-27.54-66.65-24.34zm8.22.7 98.29-22.33 58.38 21.33-98.09 25.32z" fill="#db8d58"/><path d="m152.98 31.34s.01.01.03.03c-.03-.02-.06-.03-.1-.05z" fill="#7f281e" opacity=".33"/><path d="m145.09 24.27c18.25-3.56 33.25 7.75 43.04 19.52 7.36 8.77 7.84 12.57 7.84 12.57l-95.59 24.99-54.73-36.54s96.79-20.03 99.44-20.54z" fill="#a77d52"/><path d="m131.8 27c11.53 5.9 10.73 17.99-1.18 21.86-5.69 1.85-32.92 8.41-57.56 14.25l-27.41-18.3s59.03-12.21 86.15-17.81z" fill="#fff" opacity=".08"/><path d="m170.43 43.83c-1.5-12.02-33.93-17.8-33.93-17.8 4.96-1.02 8.14-1.68 8.59-1.76 18.25-3.56 33.25 7.75 43.04 19.52 7.36 8.77 7.84 12.57 7.84 12.57l-90.13 23.57-3.59-8.6c0-.01 69.61-16.06 68.18-27.5z" fill="#7f281e" opacity=".33"/><path d="m138.26 25.67s11.5.45 19.15 3.64c18.03 7.51 27.55 23.54 27.55 23.54l6.01-3s-13.02-16.53-26.54-21.54c-10.74-3.98-26.17-2.64-26.17-2.64z" fill="#df8926"/><path d="m188.13 43.78c7.36 8.77 7.84 12.57 7.84 12.57l-95.59 24.99-54.73-36.53s3.57-.74 9.36-1.94 12.25-1.71 25.27 6.46c10.91 6.85 23.54 24.04 23.54 24.04l82.76-22.23s-8.58-12.18-21.15-19.78c-12.52-7.57-26.1-5.92-26.1-5.92 3.33-.68 5.41-1.11 5.76-1.18 18.25-3.55 33.25 7.75 43.04 19.52z" fill="#faa62a"/><path d="m27.91 87.63 72.09-6.73s-23.46-44.95-54.35-36.09c-34.58 9.92-17.74 42.82-17.74 42.82z" fill="#8d633a"/><path d="m46.43 47.39c28.09-5.8 47.65 34.07 47.65 34.07l-55.05 4.01s24.77-7.2 19.7-16.73c-8.65-16.27-25.7-11.74-25.7-11.74s1.33-7.12 13.4-9.61z" fill="#7f281e" opacity=".21"/><path d="m27.91 87.63 72.47-6.28s-23.83-45.4-54.73-36.53c-34.58 9.91-17.74 42.81-17.74 42.81zm60.27-10.67-55.55 5.2s-12.36-24.17 14.39-31.64c23.9-6.66 41.16 26.44 41.16 26.44z" fill="#df8926"/><path d="m32.63 82.16 55.55-5.2s-17.26-33.1-41.16-26.44c-26.74 7.46-14.39 31.64-14.39 31.64zm53.12-6.43-51.4 4.63s-9.5-22.05 13.35-28.47c20.41-5.73 38.05 23.84 38.05 23.84z" fill="#c56e29"/></svg>