<?xml version="1.0" encoding="UTF-8" standalone="no"?>
<!-- Created with Inkscape (http://www.inkscape.org/) -->

<svg
   version="1.1"
   id="svg18"
   width="300"
   height="150"
   viewBox="0 0 300.00002 150"
   sodipodi:docname="1000_word.svg"
   inkscape:version="1.2.1 (9c6d41e410, 2022-07-14)"
   xmlns:inkscape="http://www.inkscape.org/namespaces/inkscape"
   xmlns:sodipodi="http://sodipodi.sourceforge.net/DTD/sodipodi-0.dtd"
   xmlns="http://www.w3.org/2000/svg"
   xmlns:svg="http://www.w3.org/2000/svg">
  <sodipodi:namedview
     id="namedview37"
     pagecolor="#ffffff"
     bordercolor="#000000"
     borderopacity="0.25"
     inkscape:showpageshadow="2"
     inkscape:pageopacity="0.0"
     inkscape:pagecheckerboard="0"
     inkscape:deskcolor="#d1d1d1"
     showgrid="false"
     inkscape:zoom="1.4475126"
     inkscape:cx="-124.69667"
     inkscape:cy="260.44678"
     inkscape:window-width="1700"
     inkscape:window-height="1396"
     inkscape:window-x="8"
     inkscape:window-y="28"
     inkscape:window-maximized="1"
     inkscape:current-layer="svg18" />
  <defs
     id="defs22">
    <clipPath
       clipPathUnits="userSpaceOnUse"
       id="clipPath2796">
      <path
         d="M 0,340.157 H 226.772 V 0 H 0 Z"
         id="path2794" />
    </clipPath>
    <clipPath
       clipPathUnits="userSpaceOnUse"
       id="clipPath2804">
      <path
         d="M 246.772,340.157 H 473.544 V 0 H 246.772 Z"
         id="path2802" />
    </clipPath>
    <clipPath
       clipPathUnits="userSpaceOnUse"
       id="clipPath2812">
      <path
         d="M 246.772,0 H 473.544 V 340.157 H 246.772 Z"
         id="path2810" />
    </clipPath>
    <clipPath
       clipPathUnits="userSpaceOnUse"
       id="clipPath2820">
      <path
         d="M 246.772,340.157 H 473.544 V 0 H 246.772 Z"
         id="path2818" />
    </clipPath>
    <clipPath
       clipPathUnits="userSpaceOnUse"
       id="clipPath2828">
      <path
         d="m 438.313,-190.079 c 0,-43.163 -34.991,-78.155 -78.155,-78.155 -43.164,0 -78.155,34.992 -78.155,78.155 0,43.164 34.991,78.155 78.155,78.155 43.164,0 78.155,-34.991 78.155,-78.155"
         id="path2826" />
    </clipPath>
  </defs>
  <g
     id="g2614"
     transform="matrix(1.3333333,0,0,-1.3333333,-1.1814629,305.81053)">
    <g
       id="g2790">
      <g
         id="g2792"
         clip-path="url(#clipPath2796)">
        <g
           id="g2798">
          <g
             id="g2800"
             clip-path="url(#clipPath2804)">
            <g
               id="g2806">
              <g
                 id="g2808"
                 clip-path="url(#clipPath2812)">
                <g
                   id="g2814">
                  <g
                     id="g2816"
                     clip-path="url(#clipPath2820)">
                    <g
                       id="g2822">
                      <g
                         id="g2824"
                         clip-path="url(#clipPath2828)">
                        <g
                           id="g2830"
                           transform="translate(439.5815,-149.5338)">
                          <path
                             d="m 0,0 c -7.822,-0.997 -20.283,-0.997 -21.951,-0.997 -1.496,0 -9.318,7.075 -15.108,12.864 -3.508,3.509 -6.269,6.538 -6.461,7.266 -0.479,1.918 13.9,77.647 13.9,77.647 0,0 -7.669,-0.479 -8.628,1.438 -0.958,1.917 0.959,9.107 0.959,9.107 l -69.978,53.681 1.917,-110.239 c 0,0 12.462,-50.326 11.504,-55.598 -0.422,-2.358 -5.33,-8.896 -10.852,-15.549 -1.917,-2.32 -3.93,-4.659 -5.847,-6.844 -4.889,-5.579 -9.184,-10.104 -10.142,-10.679 -2.396,-1.438 -60.871,2.876 -64.705,1.438 -3.835,-1.438 -29.717,-7.669 -35.468,-7.669 -3.183,0 -11.906,3.509 -19.882,7.305 -4.62,2.166 -8.991,4.448 -11.886,6.192 -1.189,0.729 -2.128,1.342 -2.742,1.841 -4.793,3.834 -14.858,27.799 -15.817,31.633 -0.958,3.835 6.231,33.072 4.314,41.22 -1.917,8.148 -21.089,101.611 -21.089,101.611 l -72.374,-74.291 c 0,0 2.876,-0.479 2.876,-3.835 0,-3.354 -3.355,-4.313 -3.355,-4.313 0,0 51.764,-50.326 54.16,-56.557 0.94,-2.435 0.479,-6.481 -0.594,-10.66 -1.668,-6.499 -4.851,-13.286 -6.595,-14.743 -2.071,-1.726 -13.497,-9.605 -21.55,-14.091 -3.182,-1.783 -5.847,-3.03 -7.208,-3.164 -4.793,-0.479 -61.351,63.268 -64.706,67.102 -3.355,3.834 -12.462,19.651 -12.462,24.924 0,5.272 11.983,42.657 16.776,47.45 4.793,4.793 55.599,56.078 71.895,75.25 16.296,19.172 30.675,38.823 35.947,40.261 5.273,1.438 48.409,1.668 48.409,1.668 l 32.114,-32.592 4.236,19.804 8.82,-6.499 c 0,0 -0.594,-90.223 -3.47,-116.585 -2.876,-26.361 -1.438,-81.48 -0.959,-85.315 0.479,-3.834 22.047,-14.378 23.965,-14.378 1.917,0 12.941,16.775 15.337,20.609 2.397,3.834 -10.065,80.522 -12.941,102.57 -2.876,22.048 -13.42,93.943 -13.42,93.943 l 9.586,7.669 0.019,0.019 9.567,-14.398 c 0,0 14.858,29.716 14.858,31.403 0,0 55.599,1.189 58.954,-1.208 3.355,-2.396 122.221,-100.173 122.7,-103.528 0.48,-3.355 -6.71,-76.209 -6.23,-81.481 C 16.872,35.43 7.765,4.754 6.327,1.879 5.905,1.016 3.375,0.402 0,0"
                             style="fill:#e9e5d9;fill-opacity:1;fill-rule:nonzero;stroke:none"
                             id="path2832" />
                        </g>
                        <g
                           id="g2834"
                           transform="translate(200.7187,87.7191)">
                          <path
                             d="m 0,0 -6.442,18.328 c -4.927,-2.722 -9.241,-0.172 -11.982,4.927 -2.416,4.468 -3.624,10.89 -3.03,17.447 1.266,14.053 11.81,13.094 16.603,10.218 4.793,-2.875 -0.306,-25.23 2.57,-19.171 2.875,6.077 15.011,12.155 15.011,14.705 0,2.549 -4.16,9.911 -2.876,12.787 1.285,2.876 6.385,16.929 9.26,17.888 2.876,0.958 43.789,-5.119 47.93,-5.119 4.161,0 38.67,8.953 38.67,8.953 0,0 2.243,-22.374 1.591,-25.882 -0.633,-3.509 -6.058,-9.26 -6.058,-13.095 0,-3.834 0.307,-10.544 -0.326,-13.42 0,0 0.23,-2.972 -1.687,-7.515 -1.189,-2.838 -12.5,-14.954 -21.626,-23.888 -5.483,-5.35 -10.18,-9.548 -11.426,-9.913 -1.687,-0.479 -5.522,-1.265 -9.453,-1.821 l -6.614,-4.793 H 30.618 L 1.86,-5.311 Z"
                             style="fill:#eed7ba;fill-opacity:1;fill-rule:nonzero;stroke:none"
                             id="path2836" />
                        </g>
                        <g
                           id="g2838"
                           transform="translate(179.2651,128.4207)">
                          <path
                             d="m 0,0 c -0.594,-6.557 0.614,-12.979 3.029,-17.446 l -0.172,-0.096 c -0.46,0.729 -7.765,12.692 -11.177,21.051 -3.509,8.627 -8.302,37.078 -6.385,45.38 1.917,8.301 24.291,22.373 24.291,22.373 0,0 0,1.918 4.467,11.81 4.467,9.912 71.895,13.114 71.895,13.114 l 0.959,7.017 c 11.503,-1.265 29.084,-15.971 29.084,-15.971 l 3.182,7.669 c 20.782,-12.135 18.213,-32.266 18.213,-32.266 l 7.363,4.467 c 0,0 -0.652,-10.219 -6.078,-16.622 -5.426,-6.384 -11.504,-10.219 -11.504,-10.219 0,0 -34.509,-8.953 -38.669,-8.953 -4.141,0 -45.054,6.078 -47.93,5.119 C 37.692,35.468 32.592,21.416 31.308,18.54 30.023,15.664 34.184,8.302 34.184,5.752 34.184,3.202 22.048,-2.875 19.172,-8.953 16.296,-15.011 21.396,7.343 16.603,10.219 11.81,13.095 1.266,14.053 0,0"
                             style="fill:#845e40;fill-opacity:1;fill-rule:nonzero;stroke:none"
                             id="path2840" />
                        </g>
                        <g
                           id="g2842"
                           transform="translate(267.3095,75.076)">
                          <path
                             d="m 0,0 c 0,0 -0.19,-0.088 -0.547,-0.254 -0.352,-0.182 -0.882,-0.414 -1.576,-0.675 -1.393,-0.479 -3.443,-1.134 -5.98,-1.439 -2.531,-0.287 -5.502,-0.46 -8.652,-0.429 -3.153,0.061 -6.427,-0.026 -9.881,0.164 -3.417,0.241 -6.91,1.002 -9.858,2.447 -3.014,1.351 -5.332,3.415 -7.155,5.153 -1.836,1.753 -3.164,3.364 -4.22,4.379 -1.006,1.068 -1.618,1.651 -1.618,1.651 0,0 0.737,-0.409 1.982,-1.217 1.206,-0.848 2.931,-2.103 4.846,-3.689 1.923,-1.58 4.261,-3.206 7.006,-4.407 2.762,-1.2 5.926,-1.841 9.182,-2.046 3.23,-0.237 6.66,-0.201 9.779,-0.455 3.122,-0.181 6.017,-0.386 8.497,-0.303 2.475,0.052 4.551,0.208 5.972,0.538 0.717,0.139 1.273,0.284 1.646,0.406 C -0.201,-0.061 0,0 0,0"
                             style="fill:#ddbc99;fill-opacity:1;fill-rule:nonzero;stroke:none"
                             id="path2844" />
                        </g>
                      </g>
                    </g>
                  </g>
                </g>
              </g>
            </g>
          </g>
        </g>
        <g
           id="g2846"
           transform="translate(143.2431,158.3919)">
          <path
             d="m 0,0 c 0,-1.882 -1.084,-2.822 -3.251,-2.822 -3.6,0 -6.371,0.961 -8.312,2.884 -1.944,1.921 -3.017,5.193 -3.222,9.815 l -1.226,31.532 4.601,0.307 1.165,-30.305 c 0.123,-3.232 0.798,-5.471 2.025,-6.718 1.227,-1.248 2.883,-1.892 4.969,-1.932 0.899,0 1.666,-0.226 2.3,-0.675 C -0.317,1.635 0,0.94 0,0"
             style="fill:#f91536;fill-opacity:1;fill-rule:nonzero;stroke:none"
             id="path2848" />
        </g>
        <g
           id="g2850"
           transform="translate(150.9121,143.4232)">
          <path
             d="m 0,0 c 0,-2.086 -1.064,-3.21 -3.19,-3.374 -0.9,0 -1.657,0.307 -2.27,0.92 -0.614,0.614 -0.92,1.432 -0.92,2.454 0,1.963 1.063,3.067 3.19,3.313 C -1.269,3.313 -0.205,2.208 0,0 m -10.061,12.147 h -0.92 c -2.045,0 -3.068,0.96 -3.068,2.883 0,0.573 0.215,1.166 0.645,1.779 0.429,0.613 1.237,0.92 2.423,0.92 h 1.227 c 4.417,0 7.3,0.47 8.65,1.411 l 0.122,0.491 c 0.163,0.531 0.246,1.166 0.246,1.902 0,0.736 -0.144,1.472 -0.43,2.208 -0.286,0.737 -0.818,1.718 -1.595,2.945 l -1.043,1.779 4.479,1.779 c 1.799,-3.354 2.699,-6.728 2.699,-10.122 0,-1.678 -0.328,-3.334 -0.981,-4.969 -0.737,-0.778 -1.964,-1.472 -3.682,-2.086 -1.717,-0.613 -4.642,-0.92 -8.772,-0.92 M -50.207,0 c 0,-2.086 -1.064,-3.21 -3.189,-3.374 -0.9,0 -1.657,0.307 -2.271,0.92 -0.613,0.614 -0.919,1.432 -0.919,2.454 0,1.963 1.063,3.067 3.19,3.313 1.921,0 2.984,-1.105 3.189,-3.313 m 18.895,15.644 c -7.402,-3.19 -15.93,-4.786 -25.581,-4.786 -14.356,0 -21.533,5.439 -21.533,16.319 0,2.781 0.449,5.316 1.349,7.607 l 3.313,-0.675 c -0.45,-1.595 -0.674,-3.313 -0.674,-5.153 0,-8.385 5.95,-12.598 17.852,-12.638 9.324,0 16.522,1.043 21.594,3.129 0.04,0.327 0.061,0.736 0.061,1.227 -0.123,4.334 -1.575,9.058 -4.356,14.171 l 4.417,1.227 c 1.063,-1.882 2.025,-4.213 2.884,-6.993 0.859,-2.782 1.288,-5.747 1.288,-8.896 0,-1.881 -0.205,-3.395 -0.614,-4.539"
             style="fill:#1d1d1b;fill-opacity:1;fill-rule:nonzero;stroke:none"
             id="path2852" />
        </g>
      </g>
    </g>
  </g>
</svg>
