<?xml version="1.0" encoding="UTF-8" standalone="no"?>
<!-- Created with Inkscape (http://www.inkscape.org/) -->

<svg
   version="1.1"
   id="svg18"
   width="300"
   height="150"
   viewBox="0 0 300.00001 150"
   sodipodi:docname="1001_word.svg"
   inkscape:version="1.2.1 (9c6d41e410, 2022-07-14)"
   xmlns:inkscape="http://www.inkscape.org/namespaces/inkscape"
   xmlns:sodipodi="http://sodipodi.sourceforge.net/DTD/sodipodi-0.dtd"
   xmlns="http://www.w3.org/2000/svg"
   xmlns:svg="http://www.w3.org/2000/svg">
  <sodipodi:namedview
     id="namedview520"
     pagecolor="#ffffff"
     bordercolor="#000000"
     borderopacity="0.25"
     inkscape:showpageshadow="2"
     inkscape:pageopacity="0.0"
     inkscape:pagecheckerboard="0"
     inkscape:deskcolor="#d1d1d1"
     showgrid="false"
     inkscape:zoom="3.8629452"
     inkscape:cx="133.96514"
     inkscape:cy="165.41783"
     inkscape:window-width="1700"
     inkscape:window-height="1396"
     inkscape:window-x="8"
     inkscape:window-y="28"
     inkscape:window-maximized="1"
     inkscape:current-layer="svg18" />
  <defs
     id="defs22">
    <clipPath
       clipPathUnits="userSpaceOnUse"
       id="clipPath3110">
      <path
         d="M 0,340.157 H 226.772 V 0 H 0 Z"
         id="path3108" />
    </clipPath>
  </defs>
  <g
     id="g2856"
     transform="matrix(1.3333333,0,0,-1.3333333,-1.1814629,313.71253)">
    <g
       id="g3104">
      <g
         id="g3106"
         clip-path="url(#clipPath3110)">
        <g
           id="g3112"
           transform="translate(90.8959,160.2938)">
          <path
             d="m 0,0 c -6.421,0 -11.472,1.319 -15.153,3.957 -3.68,2.638 -5.582,6.778 -5.705,12.422 0,2.904 0.429,5.439 1.288,7.607 l 3.374,-0.613 c -0.45,-1.636 -0.675,-3.374 -0.675,-5.214 0,-8.344 5.788,-12.515 17.362,-12.515 3.517,0 6.656,0.265 9.417,0.797 2.76,0.531 5.092,1.155 6.993,1.872 1.902,0.714 3.344,1.4 4.325,2.055 -0.122,0.981 -0.184,1.84 -0.184,2.576 0,1.186 0.224,2.556 0.675,4.11 l 3.619,0.368 C 25.131,16.318 25.03,15.214 25.03,14.11 c 0,-4.622 2.432,-7.015 7.3,-7.178 V 6.871 c 0.899,0 1.676,-0.215 2.331,-0.644 0.654,-0.43 0.982,-1.115 0.982,-2.056 0,-1.881 -1.104,-2.821 -3.313,-2.821 -4.622,0 -7.812,1.533 -9.57,4.601 C 20.101,4.191 16.86,2.76 13.036,1.656 9.211,0.552 4.867,0 0,0"
             style="fill:#1d1d1b;fill-opacity:1;fill-rule:nonzero;stroke:none"
             id="path3114" />
        </g>
        <g
           id="g3116"
           transform="translate(145.6552,164.4652)">
          <path
             d="m 0,0 c 0,-1.881 -1.084,-2.822 -3.252,-2.822 -2.659,0 -4.744,0.511 -6.257,1.534 -1.513,1.021 -2.577,2.555 -3.19,4.601 -1.514,-4.09 -4.847,-6.135 -9.999,-6.135 -2.086,0 -3.129,0.941 -3.129,2.822 0,0.614 0.245,1.216 0.736,1.81 0.49,0.592 1.309,0.889 2.453,0.889 2.249,0 3.967,0.409 5.154,1.227 1.185,0.818 2.034,1.933 2.546,3.344 0.51,1.411 0.848,3.015 1.012,4.815 l 3.619,0.307 c -0.082,-0.655 -0.123,-1.35 -0.123,-2.086 0,-1.268 0.185,-2.484 0.553,-3.65 0.368,-1.165 1.073,-2.107 2.116,-2.822 1.043,-0.716 2.546,-1.094 4.509,-1.135 0.899,0 1.666,-0.214 2.301,-0.644 C -0.317,1.626 0,0.94 0,0"
             style="fill:#f91536;fill-opacity:1;fill-rule:nonzero;stroke:none"
             id="path3118" />
        </g>
        <g
           id="g3120"
           transform="translate(153.3603,149.4964)">
          <path
             d="m 0,0 c 0,-2.085 -1.064,-3.21 -3.19,-3.374 -0.901,0 -1.657,0.307 -2.27,0.92 -0.613,0.614 -0.921,1.433 -0.921,2.454 0,1.963 1.064,3.067 3.191,3.313 C -1.269,3.313 -0.205,2.208 0,0 m -10.062,12.147 h -0.919 c -2.045,0 -3.068,0.96 -3.068,2.883 0,0.573 0.215,1.166 0.645,1.779 0.428,0.614 1.237,0.92 2.423,0.92 h 1.226 c 4.417,0 7.301,0.47 8.651,1.412 l 0.123,0.49 c 0.162,0.531 0.245,1.166 0.245,1.902 0,0.736 -0.144,1.472 -0.43,2.208 -0.286,0.737 -0.818,1.718 -1.595,2.945 l -1.043,1.779 4.479,1.779 c 1.799,-3.354 2.699,-6.728 2.699,-10.122 0,-1.678 -0.328,-3.334 -0.981,-4.969 -0.737,-0.778 -1.964,-1.472 -3.682,-2.086 -1.717,-0.613 -4.642,-0.92 -8.773,-0.92 m -42.648,29.14 c 0,-2.005 -1.043,-3.089 -3.129,-3.252 -0.9,0 -1.625,0.286 -2.178,0.859 -0.552,0.572 -0.828,1.37 -0.828,2.393 0,1.963 1.002,3.046 3.006,3.251 1.922,0 2.965,-1.084 3.129,-3.251 m -8.221,0 c 0,-2.005 -1.043,-3.089 -3.129,-3.252 -0.899,0 -1.646,0.286 -2.238,0.859 -0.594,0.572 -0.89,1.37 -0.89,2.393 0,1.963 1.043,3.046 3.128,3.251 0.941,0 1.697,-0.297 2.27,-0.89 0.573,-0.593 0.859,-1.38 0.859,-2.361"
             style="fill:#1d1d1b;fill-opacity:1;fill-rule:nonzero;stroke:none"
             id="path3122" />
        </g>
        <g
           id="g3124"
           transform="translate(131.9745,149.558)">
          <path
             d="m 0,0 c 0,-1.963 -1.043,-3.046 -3.129,-3.251 -0.9,0 -1.646,0.286 -2.239,0.858 -0.593,0.574 -0.89,1.371 -0.89,2.393 0,1.963 1.043,3.047 3.129,3.251 0.941,0 1.696,-0.296 2.27,-0.889 C -0.287,1.77 0,0.981 0,0"
             style="fill:#f91536;fill-opacity:1;fill-rule:nonzero;stroke:none"
             id="path3126" />
        </g>
        <g
           id="g3128"
           transform="translate(140.1953,149.558)">
          <path
             d="m 0,0 c 0,-1.963 -1.043,-3.046 -3.129,-3.251 -1.841,0 -2.843,1.084 -3.006,3.251 0,1.963 1.002,3.047 3.006,3.251 0.941,0 1.696,-0.296 2.27,-0.889 C -0.287,1.77 0,0.981 0,0"
             style="fill:#f91536;fill-opacity:1;fill-rule:nonzero;stroke:none"
             id="path3130" />
        </g>
      </g>
    </g>
  </g>
</svg>
