<?xml version="1.0" encoding="UTF-8" standalone="no"?>
<!-- Created with Inkscape (http://www.inkscape.org/) -->

<svg
   version="1.1"
   id="svg18"
   width="300"
   height="300"
   viewBox="0 0 300 300"
   sodipodi:docname="1001_pic.svg"
   inkscape:version="1.2.1 (9c6d41e410, 2022-07-14)"
   xmlns:inkscape="http://www.inkscape.org/namespaces/inkscape"
   xmlns:sodipodi="http://sodipodi.sourceforge.net/DTD/sodipodi-0.dtd"
   xmlns="http://www.w3.org/2000/svg"
   xmlns:svg="http://www.w3.org/2000/svg">
  <sodipodi:namedview
     id="namedview1372"
     pagecolor="#ffffff"
     bordercolor="#000000"
     borderopacity="0.25"
     inkscape:showpageshadow="2"
     inkscape:pageopacity="0.0"
     inkscape:pagecheckerboard="0"
     inkscape:deskcolor="#d1d1d1"
     showgrid="false"
     inkscape:zoom="1.4822459"
     inkscape:cx="249.28387"
     inkscape:cy="11.469082"
     inkscape:window-width="1700"
     inkscape:window-height="1396"
     inkscape:window-x="1724"
     inkscape:window-y="28"
     inkscape:window-maximized="1"
     inkscape:current-layer="svg18" />
  <defs
     id="defs22">
    <clipPath
       clipPathUnits="userSpaceOnUse"
       id="clipPath732">
      <path
         d="M 51.436,233.471 33.503,174.49 h 21.705 v 26.593 H 95.894 V 174.49 h 35.321 v 26.593 h 41.279 V 174.49 h 20.775 l -17.527,58.981 z"
         id="path730" />
    </clipPath>
    <clipPath
       clipPathUnits="userSpaceOnUse"
       id="clipPath740">
      <path
         d="M 21.6617,228.414 H 205.11 V 178.402 H 21.6617 Z"
         id="path738" />
    </clipPath>
    <clipPath
       clipPathUnits="userSpaceOnUse"
       id="clipPath1589">
      <path
         d="M 51.436,233.471 33.503,174.49 h 21.705 v 26.593 H 95.894 V 174.49 h 35.321 v 26.593 h 41.279 V 174.49 h 20.775 l -17.527,58.981 z"
         id="path1587" />
    </clipPath>
    <clipPath
       clipPathUnits="userSpaceOnUse"
       id="clipPath1597">
      <path
         d="M 21.6617,228.414 H 205.11 V 178.402 H 21.6617 Z"
         id="path1595" />
    </clipPath>
    <clipPath
       clipPathUnits="userSpaceOnUse"
       id="clipPath26494">
      <g
         id="g26498"
         transform="matrix(0.75000002,0,0,-0.75000002,-22.595052,-207.45499)">
        <path
           d="M -38.513797,135.01867 H 263.84886 V -318.52399 H -38.513797 Z"
           id="path26496"
           style="stroke-width:1.33333" />
      </g>
    </clipPath>
    <clipPath
       clipPathUnits="userSpaceOnUse"
       id="clipPath26500">
      <g
         id="g26504"
         transform="matrix(0.75000002,0,0,-0.75000002,-9.1346515,-196.9101)">
        <path
           d="M -38.513797,135.01867 H 263.84886 V -318.52399 H -38.513797 Z"
           id="path26502"
           style="stroke-width:1.33333" />
      </g>
    </clipPath>
    <clipPath
       clipPathUnits="userSpaceOnUse"
       id="clipPath26506">
      <g
         id="g26510"
         transform="matrix(0.75000002,0,0,-0.75000002,1.3541485,-202.5751)">
        <path
           d="M -38.513797,135.01867 H 263.84886 V -318.52399 H -38.513797 Z"
           id="path26508"
           style="stroke-width:1.33333" />
      </g>
    </clipPath>
    <clipPath
       clipPathUnits="userSpaceOnUse"
       id="clipPath26512">
      <g
         id="g26516"
         transform="matrix(0.75000002,0,0,-0.75000002,-12.336752,-211.4311)">
        <path
           d="M -38.513797,135.01867 H 263.84886 V -318.52399 H -38.513797 Z"
           id="path26514"
           style="stroke-width:1.33333" />
      </g>
    </clipPath>
    <clipPath
       clipPathUnits="userSpaceOnUse"
       id="clipPath26518">
      <g
         id="g26522"
         transform="matrix(0.75000002,0,0,-0.75000002,-12.354351,-202.332)">
        <path
           d="M -38.513797,135.01867 H 263.84886 V -318.52399 H -38.513797 Z"
           id="path26520"
           style="stroke-width:1.33333" />
      </g>
    </clipPath>
    <clipPath
       clipPathUnits="userSpaceOnUse"
       id="clipPath26524">
      <g
         id="g26528"
         transform="matrix(0.75000002,0,0,-0.75000002,-12.336752,-209.7792)">
        <path
           d="M -38.513797,135.01867 H 263.84886 V -318.52399 H -38.513797 Z"
           id="path26526"
           style="stroke-width:1.33333" />
      </g>
    </clipPath>
    <clipPath
       clipPathUnits="userSpaceOnUse"
       id="clipPath26530">
      <g
         id="g26534"
         transform="matrix(0.75000002,0,0,-0.75000002,-18.699552,-208.26259)">
        <path
           d="M -38.513797,135.01867 H 263.84886 V -318.52399 H -38.513797 Z"
           id="path26532"
           style="stroke-width:1.33333" />
      </g>
    </clipPath>
    <clipPath
       clipPathUnits="userSpaceOnUse"
       id="clipPath26536">
      <g
         id="g26540"
         transform="matrix(0.75000002,0,0,-0.75000002,-18.564751,-196.90809)">
        <path
           d="M -38.513797,135.01867 H 263.84886 V -318.52399 H -38.513797 Z"
           id="path26538"
           style="stroke-width:1.33333" />
      </g>
    </clipPath>
    <clipPath
       clipPathUnits="userSpaceOnUse"
       id="clipPath26542">
      <g
         id="g26546"
         transform="matrix(0.75000002,0,0,-0.75000002,-22.737151,-200.2773)">
        <path
           d="M -38.513797,135.01867 H 263.84886 V -318.52399 H -38.513797 Z"
           id="path26544"
           style="stroke-width:1.33333" />
      </g>
    </clipPath>
    <clipPath
       clipPathUnits="userSpaceOnUse"
       id="clipPath26548">
      <g
         id="g26552"
         transform="matrix(0.75000002,0,0,-0.75000002,-10.435851,-212.60299)">
        <path
           d="M -38.513797,135.01867 H 263.84886 V -318.52399 H -38.513797 Z"
           id="path26550"
           style="stroke-width:1.33333" />
      </g>
    </clipPath>
    <clipPath
       clipPathUnits="userSpaceOnUse"
       id="clipPath26803">
      <g
         id="g26807"
         transform="matrix(0.75000002,0,0,-0.75000002,-162.41245,87.090902)">
        <path
           d="M -38.513797,135.01867 H 263.84886 V -318.52399 H -38.513797 Z"
           id="path26805"
           style="stroke-width:1.33333" />
      </g>
    </clipPath>
  </defs>
  <g
     id="g26783" />
  <g
     id="g26699" />
  <g
     id="g26588" />
  <g
     id="g26924"
     transform="translate(37.332467,241.75286)">
    <g
       id="g1529"
       transform="matrix(1.3333333,0,0,-1.3333333,185.8846,-91.951058)"
       clip-path="none">
      <path
         d="M 0,0 V 26.599 H -33.292 V 0 H -76.33 v 26.599 h -33.293 V 0 h -20.3 V -58.871 H 20.3 V 0 Z"
         style="fill:#05b0a1;fill-opacity:1;fill-rule:nonzero;stroke:none"
         id="path1531" />
    </g>
    <g
       id="g1533"
       transform="matrix(1.3333333,0,0,-1.3333333,14.243935,-15.046126)"
       clip-path="none">
      <path
         d="m 0,0 h 147.838 v 56.486 h -20.3 V 83.084 H 96.63 V 56.486 H 51.208 V 83.084 H 20.3 V 56.486 H 0 Z M 150.224,-2.385 H -2.385 v 61.257 h 20.3 V 85.47 H 53.593 V 58.872 H 94.245 V 85.47 h 35.678 V 58.872 h 20.301 z"
         style="fill:#05b0a1;fill-opacity:1;fill-rule:nonzero;stroke:none"
         id="path1535" />
    </g>
    <path
       d="M 128.90753,-63.123992 H 96.696866 v 49.667999 h 32.210664 z"
       style="fill:#f79420;fill-opacity:1;fill-rule:nonzero;stroke:none;stroke-width:1.33333"
       id="path1537"
       clip-path="none" />
    <path
       d="m 97.7582,-14.515993 h 30.08933 V -62.063992 H 97.7582 Z m 32.20933,2.12 H 95.636866 v -51.787999 h 34.330664 z"
       style="fill:#088475;fill-opacity:1;fill-rule:nonzero;stroke:none;stroke-width:1.33333"
       id="path1539"
       clip-path="none" />
    <path
       d="M 75.720867,-69.214658 H 29.571535 v 34.375999 h 46.149332 z"
       style="fill:#ffffff;fill-opacity:1;fill-rule:nonzero;stroke:none;stroke-width:1.33333"
       id="path1541"
       clip-path="none" />
    <path
       d="M 30.631535,-35.899992 H 74.660867 V -68.154658 H 30.631535 Z m 46.149332,2.121333 H 28.510201 v -36.495999 h 48.270666 z"
       style="fill:#088475;fill-opacity:1;fill-rule:nonzero;stroke:none;stroke-width:1.33333"
       id="path1543"
       clip-path="none" />
    <path
       d="M 75.720867,-56.222659 H 29.571535 v -2.165333 h 46.149332 z"
       style="fill:#088475;fill-opacity:1;fill-rule:nonzero;stroke:none;stroke-width:1.33333"
       id="path1545"
       clip-path="none" />
    <path
       d="m 42.022201,-69.755992 h 2.572 v 35.525333 h -2.572 z"
       style="fill:#088475;fill-opacity:1;fill-rule:nonzero;stroke:none;stroke-width:1.33333"
       id="path1547"
       clip-path="none" />
    <path
       d="M 59.750201,-69.755992 H 62.3222 v 35.525333 h -2.571999 z"
       style="fill:#088475;fill-opacity:1;fill-rule:nonzero;stroke:none;stroke-width:1.33333"
       id="path1549"
       clip-path="none" />
    <path
       d="m 195.80886,-69.214658 h -46.14933 v 34.375999 h 46.14933 z"
       style="fill:#ffffff;fill-opacity:1;fill-rule:nonzero;stroke:none;stroke-width:1.33333"
       id="path1551"
       clip-path="none" />
    <path
       d="m 150.71953,-35.899992 h 44.02933 v -32.254666 h -44.02933 z m 46.14933,2.121333 H 148.5982 v -36.495999 h 48.27066 z"
       style="fill:#088475;fill-opacity:1;fill-rule:nonzero;stroke:none;stroke-width:1.33333"
       id="path1553"
       clip-path="none" />
    <path
       d="m 195.80886,-56.222659 h -46.14933 v -2.165333 h 46.14933 z"
       style="fill:#088475;fill-opacity:1;fill-rule:nonzero;stroke:none;stroke-width:1.33333"
       id="path1555"
       clip-path="none" />
    <path
       d="m 162.1102,-69.755992 h 2.57333 v 35.525333 h -2.57333 z"
       style="fill:#088475;fill-opacity:1;fill-rule:nonzero;stroke:none;stroke-width:1.33333"
       id="path1557"
       clip-path="none" />
    <path
       d="m 179.83953,-69.755992 h 2.57333 v 35.525333 h -2.57333 z"
       style="fill:#088475;fill-opacity:1;fill-rule:nonzero;stroke:none;stroke-width:1.33333"
       id="path1559"
       clip-path="none" />
    <path
       d="M 178.68886,-119.33332 H 149.0502 v 34.374662 h 29.63866 z"
       style="fill:#ffffff;fill-opacity:1;fill-rule:nonzero;stroke:none;stroke-width:1.33333"
       id="path1561"
       clip-path="none" />
    <path
       d="m 150.1102,-86.018658 h 27.52 v -32.254662 h -27.52 z m 29.63866,2.12 H 147.9902 v -36.496002 h 31.75866 z"
       style="fill:#088475;fill-opacity:1;fill-rule:nonzero;stroke:none;stroke-width:1.33333"
       id="path1563"
       clip-path="none" />
    <path
       d="m 162.58353,-119.87599 h 2.57067 v 35.526665 h -2.57067 z"
       style="fill:#088475;fill-opacity:1;fill-rule:nonzero;stroke:none;stroke-width:1.33333"
       id="path1565"
       clip-path="none" />
    <path
       d="m 148.20486,-103.39866 h 31.33067 v 2.572 h -31.33067 z"
       style="fill:#088475;fill-opacity:1;fill-rule:nonzero;stroke:none;stroke-width:1.33333"
       id="path1567"
       clip-path="none" />
    <path
       d="M 77.140867,-119.33332 H 47.502201 v 34.374662 h 29.638666 z"
       style="fill:#ffffff;fill-opacity:1;fill-rule:nonzero;stroke:none;stroke-width:1.33333"
       id="path1569"
       clip-path="none" />
    <path
       d="M 48.563534,-86.018658 H 76.0822 V -118.27332 H 48.563534 Z m 29.637333,2.12 H 46.442201 v -36.496002 h 31.758666 z"
       style="fill:#088475;fill-opacity:1;fill-rule:nonzero;stroke:none;stroke-width:1.33333"
       id="path1571"
       clip-path="none" />
    <path
       d="m 61.036867,-119.87599 h 2.572 v 35.526665 h -2.572 z"
       style="fill:#088475;fill-opacity:1;fill-rule:nonzero;stroke:none;stroke-width:1.33333"
       id="path1573"
       clip-path="none" />
    <path
       d="m 46.656868,-103.39866 h 31.330665 v 2.572 H 46.656868 Z"
       style="fill:#088475;fill-opacity:1;fill-rule:nonzero;stroke:none;stroke-width:1.33333"
       id="path1575"
       clip-path="none" />
    <path
       d="M 216.4702,-15.079993 H 9.4062018 v 7.8493332 H 216.4702 Z"
       style="fill:#cddc47;fill-opacity:1;fill-rule:nonzero;stroke:none;stroke-width:1.33333"
       id="path1577"
       clip-path="none" />
    <g
       id="g1579"
       transform="matrix(1.3333333,0,0,-1.3333333,35.097401,-133.09372)"
       clip-path="none">
      <path
         d="M 0,0 H 40.686 V -26.594 H 76.007 V 0 h 41.279 v -26.594 h 20.774 l -17.526,58.98 H -3.772 l -17.933,-58.98 H 0 Z"
         style="fill:#cddc47;fill-opacity:1;fill-rule:nonzero;stroke:none"
         id="path1581" />
    </g>
    <g
       id="g1583"
       transform="matrix(1.3333333,0,0,-1.3333333,-38.513797,135.01867)"
       clip-path="none">
      <g
         id="g1585"
         clip-path="url(#clipPath1589)">
        <g
           id="g1591">
          <g
             id="g1593" />
          <g
             id="g1619">
            <g
               clip-path="url(#clipPath1597)"
               opacity="0.240005"
               id="g1617">
              <path
                 d="M 21.662,227.102 H 205.11 v 1.312 H 21.662 Z"
                 style="fill:#05b0a1;fill-opacity:1;fill-rule:nonzero;stroke:none"
                 id="path1599" />
              <path
                 d="M 21.662,221.015 H 205.11 v 1.312 H 21.662 Z"
                 style="fill:#05b0a1;fill-opacity:1;fill-rule:nonzero;stroke:none"
                 id="path1601" />
              <path
                 d="M 21.662,214.928 H 205.11 v 1.312 H 21.662 Z"
                 style="fill:#05b0a1;fill-opacity:1;fill-rule:nonzero;stroke:none"
                 id="path1603" />
              <path
                 d="M 21.662,208.84 H 205.11 v 1.311 H 21.662 Z"
                 style="fill:#05b0a1;fill-opacity:1;fill-rule:nonzero;stroke:none"
                 id="path1605" />
              <path
                 d="M 21.662,202.752 H 205.11 v 1.312 H 21.662 Z"
                 style="fill:#05b0a1;fill-opacity:1;fill-rule:nonzero;stroke:none"
                 id="path1607" />
              <path
                 d="M 21.662,196.664 H 205.11 v 1.312 H 21.662 Z"
                 style="fill:#05b0a1;fill-opacity:1;fill-rule:nonzero;stroke:none"
                 id="path1609" />
              <path
                 d="M 21.662,190.577 H 205.11 v 1.312 H 21.662 Z"
                 style="fill:#05b0a1;fill-opacity:1;fill-rule:nonzero;stroke:none"
                 id="path1611" />
              <path
                 d="M 21.662,184.49 H 205.11 v 1.312 H 21.662 Z"
                 style="fill:#05b0a1;fill-opacity:1;fill-rule:nonzero;stroke:none"
                 id="path1613" />
              <path
                 d="M 21.662,178.402 H 205.11 v 1.311 H 21.662 Z"
                 style="fill:#05b0a1;fill-opacity:1;fill-rule:nonzero;stroke:none"
                 id="path1615" />
            </g>
          </g>
        </g>
      </g>
    </g>
    <g
       id="g1629"
       transform="matrix(1.3333333,0,0,-1.3333333,113.8774,-49.525992)"
       clip-path="none">
      <path
         d="m 0,0 c 0,-0.421 -0.341,-0.762 -0.762,-0.762 -0.421,0 -0.762,0.341 -0.762,0.762 0,0.421 0.341,0.762 0.762,0.762 C -0.341,0.762 0,0.421 0,0"
         style="fill:#ffffff;fill-opacity:1;fill-rule:nonzero;stroke:none"
         id="path1631" />
    </g>
    <g
       id="g1633"
       transform="matrix(1.3333333,0,0,-1.3333333,112.86113,-50.167192)"
       clip-path="none">
      <path
         d="m 0,0 c -0.265,0 -0.481,-0.216 -0.481,-0.481 0,-0.265 0.216,-0.481 0.481,-0.481 0.265,0 0.481,0.216 0.481,0.481 C 0.481,-0.216 0.265,0 0,0 m 0,-1.243 c -0.42,0 -0.762,0.342 -0.762,0.762 0,0.42 0.342,0.762 0.762,0.762 0.42,0 0.762,-0.342 0.762,-0.762 0,-0.42 -0.342,-0.762 -0.762,-0.762"
         style="fill:#f27900;fill-opacity:1;fill-rule:nonzero;stroke:none"
         id="path1635" />
    </g>
    <path
       d="m 111.33153,-53.546659 h 2.94134 v -1.768 h -2.94134 z m 3.4,0.46 h -3.85866 v -2.686666 h 3.85866 z"
       style="fill:#f27900;fill-opacity:1;fill-rule:nonzero;stroke:none;stroke-width:1.33333"
       id="path1637"
       clip-path="none" />
    <path
       d="m 114.5022,-53.315992 h -3.4 v -2.226667 h 3.4 z"
       style="fill:#ffffff;fill-opacity:1;fill-rule:nonzero;stroke:none;stroke-width:1.33333"
       id="path1639"
       clip-path="none" />
    <g
       id="g1641"
       transform="matrix(1.3333333,0,0,-1.3333333,125.43407,-37.166526)"
       clip-path="none">
      <path
         d="m 0,0 c 0,-0.729 -0.59,-1.319 -1.318,-1.319 -0.729,0 -1.319,0.59 -1.319,1.319 0,0.728 0.59,1.318 1.319,1.318 C -0.59,1.318 0,0.728 0,0"
         style="fill:#cddc47;fill-opacity:1;fill-rule:nonzero;stroke:none"
         id="path1643" />
    </g>
    <g
       id="g1645"
       transform="matrix(1.3333333,0,0,-1.3333333,124.06687,-34.089726)"
       clip-path="none">
      <path
         d="m 0,0 c 0,-0.162 -0.131,-0.293 -0.293,-0.293 -0.162,0 -0.293,0.131 -0.293,0.293 0,0.162 0.131,0.293 0.293,0.293 C -0.131,0.293 0,0.162 0,0"
         style="fill:#088475;fill-opacity:1;fill-rule:nonzero;stroke:none"
         id="path1647" />
    </g>
    <path
       d="m 124.0662,-34.089326 h -0.78133 v 0.910667 h 0.78133 z"
       style="fill:#088475;fill-opacity:1;fill-rule:nonzero;stroke:none;stroke-width:1.33333"
       id="path1649"
       clip-path="none" />
  </g>
</svg>
