<?xml version="1.0" encoding="UTF-8" standalone="no"?>
<!-- Created with Inkscape (http://www.inkscape.org/) -->

<svg
   version="1.1"
   id="svg18"
   width="300"
   height="150"
   viewBox="0 0 300 150"
   sodipodi:docname="1002_word.svg"
   inkscape:version="1.2.1 (9c6d41e410, 2022-07-14)"
   xmlns:inkscape="http://www.inkscape.org/namespaces/inkscape"
   xmlns:sodipodi="http://sodipodi.sourceforge.net/DTD/sodipodi-0.dtd"
   xmlns="http://www.w3.org/2000/svg"
   xmlns:svg="http://www.w3.org/2000/svg">
  <sodipodi:namedview
     id="namedview587"
     pagecolor="#ffffff"
     bordercolor="#000000"
     borderopacity="0.25"
     inkscape:showpageshadow="2"
     inkscape:pageopacity="0.0"
     inkscape:pagecheckerboard="0"
     inkscape:deskcolor="#d1d1d1"
     showgrid="true"
     inkscape:zoom="7.1408967"
     inkscape:cx="94.035809"
     inkscape:cy="80.802177"
     inkscape:window-width="3416"
     inkscape:window-height="1396"
     inkscape:window-x="8"
     inkscape:window-y="28"
     inkscape:window-maximized="1"
     inkscape:current-layer="svg18"
     inkscape:lockguides="true" />
  <defs
     id="defs22">
    <clipPath
       clipPathUnits="userSpaceOnUse"
       id="clipPath3232">
      <path
         d="M 0,340.157 H 226.772 V 0 H 0 Z"
         id="path3230" />
    </clipPath>
  </defs>
  <g
     id="g3134"
     transform="matrix(1.3333333,0,0,-1.3333333,-1.1813296,314.65333)">
    <g
       id="g3226">
      <g
         id="g3228"
         clip-path="url(#clipPath3232)">
        <g
           id="g3234"
           transform="translate(136.2982,167.87)">
          <path
             d="m 0,0 c -3.189,0 -5.572,0.307 -7.146,0.92 -1.576,0.614 -2.619,1.39 -3.129,2.331 -0.512,0.941 -0.767,1.881 -0.767,2.822 0,1.267 0.449,2.433 1.35,3.497 0.899,1.063 2.086,1.595 3.557,1.595 1.922,0 3.537,-0.951 4.847,-2.852 C 0.021,6.411 0.757,3.64 0.921,0 Z M 11.993,-0.644 C 11.359,-0.215 10.592,0 9.693,0 H 5.03 C 4.908,4.171 4.273,7.402 3.129,9.693 c -1.146,2.29 -2.506,3.885 -4.079,4.785 -1.575,0.899 -3.037,1.35 -4.387,1.35 -2.659,0 -4.929,-1.034 -6.809,-3.099 -1.882,-2.065 -2.823,-4.488 -2.823,-7.269 0,-1.882 0.408,-3.661 1.228,-5.337 0.817,-1.678 2.239,-3.037 4.263,-4.08 2.025,-1.043 4.877,-1.564 8.558,-1.564 h 1.227 c -0.859,-3.353 -2.475,-6.166 -4.846,-8.436 -2.373,-2.269 -5.297,-3.404 -8.774,-3.404 -1.839,0 -3.353,0.153 -4.539,0.46 -1.186,0.307 -2.291,0.747 -3.312,1.319 l -0.921,-3.865 c 2.249,-2.003 5.338,-3.006 9.264,-3.006 4.294,0 8.026,1.595 11.196,4.785 3.169,3.19 5.245,7.239 6.227,12.147 h 5.091 c 2.167,0 3.251,0.94 3.251,2.822 0,0.94 -0.317,1.625 -0.951,2.055"
             style="fill:#f91536;fill-opacity:1;fill-rule:nonzero;stroke:none"
             id="path3236" />
        </g>
        <g
           id="g3238"
           transform="translate(156.9115,150.202)">
          <path
             d="m 0,0 c 0,-2.086 -1.064,-3.21 -3.19,-3.374 -0.9,0 -1.657,0.307 -2.27,0.92 -0.613,0.614 -0.92,1.433 -0.92,2.454 0,1.963 1.063,3.067 3.19,3.313 C -1.269,3.313 -0.205,2.208 0,0 m -10.061,12.147 h -0.92 c -2.044,0 -3.068,0.96 -3.068,2.883 0,0.573 0.215,1.166 0.645,1.779 0.429,0.614 1.237,0.92 2.423,0.92 h 1.227 c 4.417,0 7.3,0.47 8.65,1.411 l 0.123,0.491 c 0.163,0.531 0.245,1.166 0.245,1.902 0,0.736 -0.144,1.472 -0.43,2.208 -0.286,0.737 -0.818,1.718 -1.595,2.945 l -1.043,1.779 4.479,1.779 C 2.474,26.89 3.374,23.516 3.374,20.122 3.374,18.444 3.046,16.788 2.393,15.153 1.656,14.375 0.43,13.681 -1.288,13.067 c -1.718,-0.613 -4.643,-0.92 -8.773,-0.92 m -49.752,29.14 c 0,-2.005 -1.042,-3.089 -3.128,-3.252 -0.901,0 -1.626,0.286 -2.178,0.859 -0.553,0.572 -0.828,1.37 -0.828,2.393 0,1.963 1.001,3.046 3.006,3.251 1.921,0 2.964,-1.084 3.128,-3.251 m -8.22,0 c 0,-2.005 -1.043,-3.089 -3.129,-3.252 -0.901,0 -1.647,0.286 -2.239,0.859 -0.593,0.572 -0.89,1.37 -0.89,2.393 0,1.963 1.043,3.046 3.129,3.251 0.94,0 1.696,-0.297 2.269,-0.89 0.573,-0.593 0.86,-1.38 0.86,-2.361 m 24.722,-25.643 c -7.403,-3.19 -15.929,-4.786 -25.582,-4.786 -14.354,0 -21.532,5.439 -21.532,16.319 0,2.781 0.449,5.316 1.35,7.607 l 3.312,-0.675 c -0.45,-1.595 -0.675,-3.313 -0.675,-5.153 0,-8.385 5.951,-12.597 17.852,-12.638 9.325,0 16.523,1.043 21.595,3.129 0.04,0.327 0.061,0.736 0.061,1.227 -0.123,4.335 -1.575,9.058 -4.356,14.171 l 4.417,1.227 c 1.063,-1.882 2.024,-4.213 2.884,-6.993 0.858,-2.782 1.288,-5.747 1.288,-8.896 0,-1.881 -0.205,-3.395 -0.614,-4.539"
             style="fill:#1d1d1b;fill-opacity:1;fill-rule:nonzero;stroke:none"
             id="path3240" />
        </g>
      </g>
    </g>
  </g>
</svg>
