<?xml version="1.0" encoding="UTF-8" standalone="no"?>
<!-- Created with Inkscape (http://www.inkscape.org/) -->

<svg
   version="1.1"
   id="svg18"
   width="300"
   height="300"
   viewBox="0 0 300 300"
   sodipodi:docname="1002_pic.svg"
   inkscape:version="1.2.1 (9c6d41e410, 2022-07-14)"
   xmlns:inkscape="http://www.inkscape.org/namespaces/inkscape"
   xmlns:sodipodi="http://sodipodi.sourceforge.net/DTD/sodipodi-0.dtd"
   xmlns="http://www.w3.org/2000/svg"
   xmlns:svg="http://www.w3.org/2000/svg">
  <sodipodi:namedview
     id="namedview551"
     pagecolor="#ffffff"
     bordercolor="#000000"
     borderopacity="0.25"
     inkscape:showpageshadow="2"
     inkscape:pageopacity="0.0"
     inkscape:pagecheckerboard="0"
     inkscape:deskcolor="#d1d1d1"
     showgrid="false"
     inkscape:zoom="1.6985111"
     inkscape:cx="-6.7706359"
     inkscape:cy="215.48285"
     inkscape:window-width="1700"
     inkscape:window-height="1396"
     inkscape:window-x="8"
     inkscape:window-y="28"
     inkscape:window-maximized="1"
     inkscape:current-layer="svg18" />
  <defs
     id="defs22">
    <clipPath
       clipPathUnits="userSpaceOnUse"
       id="clipPath862">
      <path
         d="M 93.795,250.973 97.774,186.4 v -38.708 c -2.273,-9.394 -7.953,-17.111 -17.9,-22.726 v 0 c -7.366,-4.159 -15.722,-6.24 -24.179,-6.371 v 0 c -11.367,-0.177 -22.37,-0.637 -22.012,-9.913 v 0 l 1.568,-6.873 6.391,-5.426 11.335,-1.93 20.379,-1.809 17.002,1.568 26.891,5.486 25.685,-0.542 10.732,4.824 0.844,8.44 0.009,0.325 c 0.506,18.727 3.007,37.335 7.224,55.59 v 0 c 5.847,25.296 10.02,52.474 12.181,81.914 v 0 c -14.151,1.81 -28.454,2.726 -42.906,2.727 v 0 c -12.298,0 -24.702,-0.663 -37.223,-2.003"
         id="path860" />
    </clipPath>
    <clipPath
       clipPathUnits="userSpaceOnUse"
       id="clipPath25908">
      <g
         id="g25912"
         transform="matrix(0.75000002,0,0,-0.75000002,405.70582,-5.4745824)">
        <path
           d="m -609.58228,404.32588 h 302.36266 V -49.216775 h -302.36266 z"
           id="path25910"
           style="stroke-width:1.33333" />
      </g>
    </clipPath>
    <clipPath
       clipPathUnits="userSpaceOnUse"
       id="clipPath25914">
      <g
         id="g25918"
         transform="matrix(0.75000002,0,0,-0.75000002,419.16582,5.0703176)">
        <path
           d="m -609.58228,404.32588 h 302.36266 V -49.216775 h -302.36266 z"
           id="path25916"
           style="stroke-width:1.33333" />
      </g>
    </clipPath>
    <clipPath
       clipPathUnits="userSpaceOnUse"
       id="clipPath25920">
      <g
         id="g25924"
         transform="matrix(0.75000002,0,0,-0.75000002,429.65512,-0.59468242)">
        <path
           d="m -609.58228,404.32588 h 302.36266 V -49.216775 h -302.36266 z"
           id="path25922"
           style="stroke-width:1.33333" />
      </g>
    </clipPath>
    <clipPath
       clipPathUnits="userSpaceOnUse"
       id="clipPath25926">
      <g
         id="g25930"
         transform="matrix(0.75000002,0,0,-0.75000002,415.96362,-9.4506827)">
        <path
           d="m -609.58228,404.32588 h 302.36266 V -49.216775 h -302.36266 z"
           id="path25928"
           style="stroke-width:1.33333" />
      </g>
    </clipPath>
    <clipPath
       clipPathUnits="userSpaceOnUse"
       id="clipPath25932">
      <g
         id="g25936"
         transform="matrix(0.75000002,0,0,-0.75000002,415.94702,-0.35158242)">
        <path
           d="m -609.58228,404.32588 h 302.36266 V -49.216775 h -302.36266 z"
           id="path25934"
           style="stroke-width:1.33333" />
      </g>
    </clipPath>
    <clipPath
       clipPathUnits="userSpaceOnUse"
       id="clipPath25938">
      <g
         id="g25942"
         transform="matrix(0.75000002,0,0,-0.75000002,415.96362,-7.7987822)">
        <path
           d="m -609.58228,404.32588 h 302.36266 V -49.216775 h -302.36266 z"
           id="path25940"
           style="stroke-width:1.33333" />
      </g>
    </clipPath>
    <clipPath
       clipPathUnits="userSpaceOnUse"
       id="clipPath25944">
      <g
         id="g25948"
         transform="matrix(0.75000002,0,0,-0.75000002,409.60132,-6.2821824)">
        <path
           d="m -609.58228,404.32588 h 302.36266 V -49.216775 h -302.36266 z"
           id="path25946"
           style="stroke-width:1.33333" />
      </g>
    </clipPath>
    <clipPath
       clipPathUnits="userSpaceOnUse"
       id="clipPath25950">
      <g
         id="g25954"
         transform="matrix(0.75000002,0,0,-0.75000002,409.73612,5.0723176)">
        <path
           d="m -609.58228,404.32588 h 302.36266 V -49.216775 h -302.36266 z"
           id="path25952"
           style="stroke-width:1.33333" />
      </g>
    </clipPath>
    <clipPath
       clipPathUnits="userSpaceOnUse"
       id="clipPath25956">
      <g
         id="g25960"
         transform="matrix(0.75000002,0,0,-0.75000002,405.56422,1.7031176)">
        <path
           d="m -609.58228,404.32588 h 302.36266 V -49.216775 h -302.36266 z"
           id="path25958"
           style="stroke-width:1.33333" />
      </g>
    </clipPath>
    <clipPath
       clipPathUnits="userSpaceOnUse"
       id="clipPath25962">
      <g
         id="g25966"
         transform="matrix(0.75000002,0,0,-0.75000002,417.86502,-10.622583)">
        <path
           d="m -609.58228,404.32588 h 302.36266 V -49.216775 h -302.36266 z"
           id="path25964"
           style="stroke-width:1.33333" />
      </g>
    </clipPath>
    <clipPath
       clipPathUnits="userSpaceOnUse"
       id="clipPath1445">
      <g
         id="g1451">
        <g
           id="g1449">
          <path
             d="m 136.94902,42.141222 5.30533,86.097328 v 51.61067 c -3.03067,12.52533 -10.604,22.81466 -23.86667,30.30133 v 0 c -9.82133,5.54533 -20.962662,8.32 -32.238662,8.49467 v 0 c -15.155999,0.236 -29.826666,0.84933 -29.349332,13.21733 v 0 l 2.090666,9.164 8.521333,7.23467 15.113333,2.57333 27.172002,2.412 22.66933,-2.09067 35.85467,-7.31466 34.24666,0.72266 14.30933,-6.432 1.12534,-11.25333 0.012,-0.43333 c 0.67466,-24.96934 4.00933,-49.78 9.632,-74.12 v 0 c 7.796,-33.728 13.36,-69.965333 16.24133,-109.218665 v 0 c -18.868,-2.413333 -37.93866,-3.634667 -57.208,-3.636 v 0 c -16.39733,0 -32.936,0.884 -49.63066,2.670667"
             id="path1447"
             style="stroke-width:1.33333" />
        </g>
      </g>
    </clipPath>
    <clipPath
       clipPathUnits="userSpaceOnUse"
       id="clipPath1460">
      <g
         id="g1466">
        <g
           id="g1464">
          <path
             d="m 136.94902,42.141222 5.30533,86.097328 v 51.61067 c -3.03067,12.52533 -10.604,22.81466 -23.86667,30.30133 v 0 c -9.82133,5.54533 -20.962662,8.32 -32.238662,8.49467 v 0 c -15.155999,0.236 -29.826666,0.84933 -29.349332,13.21733 v 0 l 2.090666,9.164 8.521333,7.23467 15.113333,2.57333 27.172002,2.412 22.66933,-2.09067 35.85467,-7.31466 34.24666,0.72266 14.30933,-6.432 1.12534,-11.25333 0.012,-0.43333 c 0.67466,-24.96934 4.00933,-49.78 9.632,-74.12 v 0 c 7.796,-33.728 13.36,-69.965333 16.24133,-109.218665 v 0 c -18.868,-2.413333 -37.93866,-3.634667 -57.208,-3.636 v 0 c -16.39733,0 -32.936,0.884 -49.63066,2.670667"
             id="path1462"
             style="stroke-width:1.33333" />
        </g>
      </g>
    </clipPath>
    <clipPath
       clipPathUnits="userSpaceOnUse"
       id="clipPath1475">
      <g
         id="g1481">
        <g
           id="g1479">
          <path
             d="m 136.94902,42.141222 5.30533,86.097328 v 51.61067 c -3.03067,12.52533 -10.604,22.81466 -23.86667,30.30133 v 0 c -9.82133,5.54533 -20.962662,8.32 -32.238662,8.49467 v 0 c -15.155999,0.236 -29.826666,0.84933 -29.349332,13.21733 v 0 l 2.090666,9.164 8.521333,7.23467 15.113333,2.57333 27.172002,2.412 22.66933,-2.09067 35.85467,-7.31466 34.24666,0.72266 14.30933,-6.432 1.12534,-11.25333 0.012,-0.43333 c 0.67466,-24.96934 4.00933,-49.78 9.632,-74.12 v 0 c 7.796,-33.728 13.36,-69.965333 16.24133,-109.218665 v 0 c -18.868,-2.413333 -37.93866,-3.634667 -57.208,-3.636 v 0 c -16.39733,0 -32.936,0.884 -49.63066,2.670667"
             id="path1477"
             style="stroke-width:1.33333" />
        </g>
      </g>
    </clipPath>
    <clipPath
       clipPathUnits="userSpaceOnUse"
       id="clipPath1490">
      <g
         id="g1496">
        <g
           id="g1494">
          <path
             d="m 136.94902,42.141222 5.30533,86.097328 v 51.61067 c -3.03067,12.52533 -10.604,22.81466 -23.86667,30.30133 v 0 c -9.82133,5.54533 -20.962662,8.32 -32.238662,8.49467 v 0 c -15.155999,0.236 -29.826666,0.84933 -29.349332,13.21733 v 0 l 2.090666,9.164 8.521333,7.23467 15.113333,2.57333 27.172002,2.412 22.66933,-2.09067 35.85467,-7.31466 34.24666,0.72266 14.30933,-6.432 1.12534,-11.25333 0.012,-0.43333 c 0.67466,-24.96934 4.00933,-49.78 9.632,-74.12 v 0 c 7.796,-33.728 13.36,-69.965333 16.24133,-109.218665 v 0 c -18.868,-2.413333 -37.93866,-3.634667 -57.208,-3.636 v 0 c -16.39733,0 -32.936,0.884 -49.63066,2.670667"
             id="path1492"
             style="stroke-width:1.33333" />
        </g>
      </g>
    </clipPath>
    <clipPath
       clipPathUnits="userSpaceOnUse"
       id="clipPath1505">
      <g
         id="g1511">
        <g
           id="g1509">
          <path
             d="m 136.94902,42.141222 5.30533,86.097328 v 51.61067 c -3.03067,12.52533 -10.604,22.81466 -23.86667,30.30133 v 0 c -9.82133,5.54533 -20.962662,8.32 -32.238662,8.49467 v 0 c -15.155999,0.236 -29.826666,0.84933 -29.349332,13.21733 v 0 l 2.090666,9.164 8.521333,7.23467 15.113333,2.57333 27.172002,2.412 22.66933,-2.09067 35.85467,-7.31466 34.24666,0.72266 14.30933,-6.432 1.12534,-11.25333 0.012,-0.43333 c 0.67466,-24.96934 4.00933,-49.78 9.632,-74.12 v 0 c 7.796,-33.728 13.36,-69.965333 16.24133,-109.218665 v 0 c -18.868,-2.413333 -37.93866,-3.634667 -57.208,-3.636 v 0 c -16.39733,0 -32.936,0.884 -49.63066,2.670667"
             id="path1507"
             style="stroke-width:1.33333" />
        </g>
      </g>
    </clipPath>
    <clipPath
       clipPathUnits="userSpaceOnUse"
       id="clipPath1520">
      <g
         id="g1526">
        <g
           id="g1524">
          <path
             d="m 136.94902,42.141222 5.30533,86.097328 v 51.61067 c -3.03067,12.52533 -10.604,22.81466 -23.86667,30.30133 v 0 c -9.82133,5.54533 -20.962662,8.32 -32.238662,8.49467 v 0 c -15.155999,0.236 -29.826666,0.84933 -29.349332,13.21733 v 0 l 2.090666,9.164 8.521333,7.23467 15.113333,2.57333 27.172002,2.412 22.66933,-2.09067 35.85467,-7.31466 34.24666,0.72266 14.30933,-6.432 1.12534,-11.25333 0.012,-0.43333 c 0.67466,-24.96934 4.00933,-49.78 9.632,-74.12 v 0 c 7.796,-33.728 13.36,-69.965333 16.24133,-109.218665 v 0 c -18.868,-2.413333 -37.93866,-3.634667 -57.208,-3.636 v 0 c -16.39733,0 -32.936,0.884 -49.63066,2.670667"
             id="path1522"
             style="stroke-width:1.33333" />
        </g>
      </g>
    </clipPath>
    <clipPath
       clipPathUnits="userSpaceOnUse"
       id="clipPath1535">
      <g
         id="g1541">
        <g
           id="g1539">
          <path
             d="m 136.94902,42.141222 5.30533,86.097328 v 51.61067 c -3.03067,12.52533 -10.604,22.81466 -23.86667,30.30133 v 0 c -9.82133,5.54533 -20.962662,8.32 -32.238662,8.49467 v 0 c -15.155999,0.236 -29.826666,0.84933 -29.349332,13.21733 v 0 l 2.090666,9.164 8.521333,7.23467 15.113333,2.57333 27.172002,2.412 22.66933,-2.09067 35.85467,-7.31466 34.24666,0.72266 14.30933,-6.432 1.12534,-11.25333 0.012,-0.43333 c 0.67466,-24.96934 4.00933,-49.78 9.632,-74.12 v 0 c 7.796,-33.728 13.36,-69.965333 16.24133,-109.218665 v 0 c -18.868,-2.413333 -37.93866,-3.634667 -57.208,-3.636 v 0 c -16.39733,0 -32.936,0.884 -49.63066,2.670667"
             id="path1537"
             style="stroke-width:1.33333" />
        </g>
      </g>
    </clipPath>
    <clipPath
       clipPathUnits="userSpaceOnUse"
       id="clipPath1550">
      <g
         id="g1556">
        <g
           id="g1554">
          <path
             d="m 136.94902,42.141222 5.30533,86.097328 v 51.61067 c -3.03067,12.52533 -10.604,22.81466 -23.86667,30.30133 v 0 c -9.82133,5.54533 -20.962662,8.32 -32.238662,8.49467 v 0 c -15.155999,0.236 -29.826666,0.84933 -29.349332,13.21733 v 0 l 2.090666,9.164 8.521333,7.23467 15.113333,2.57333 27.172002,2.412 22.66933,-2.09067 35.85467,-7.31466 34.24666,0.72266 14.30933,-6.432 1.12534,-11.25333 0.012,-0.43333 c 0.67466,-24.96934 4.00933,-49.78 9.632,-74.12 v 0 c 7.796,-33.728 13.36,-69.965333 16.24133,-109.218665 v 0 c -18.868,-2.413333 -37.93866,-3.634667 -57.208,-3.636 v 0 c -16.39733,0 -32.936,0.884 -49.63066,2.670667"
             id="path1552"
             style="stroke-width:1.33333" />
        </g>
      </g>
    </clipPath>
    <clipPath
       clipPathUnits="userSpaceOnUse"
       id="clipPath1565">
      <g
         id="g1571">
        <g
           id="g1569">
          <path
             d="m 136.94902,42.141222 5.30533,86.097328 v 51.61067 c -3.03067,12.52533 -10.604,22.81466 -23.86667,30.30133 v 0 c -9.82133,5.54533 -20.962662,8.32 -32.238662,8.49467 v 0 c -15.155999,0.236 -29.826666,0.84933 -29.349332,13.21733 v 0 l 2.090666,9.164 8.521333,7.23467 15.113333,2.57333 27.172002,2.412 22.66933,-2.09067 35.85467,-7.31466 34.24666,0.72266 14.30933,-6.432 1.12534,-11.25333 0.012,-0.43333 c 0.67466,-24.96934 4.00933,-49.78 9.632,-74.12 v 0 c 7.796,-33.728 13.36,-69.965333 16.24133,-109.218665 v 0 c -18.868,-2.413333 -37.93866,-3.634667 -57.208,-3.636 v 0 c -16.39733,0 -32.936,0.884 -49.63066,2.670667"
             id="path1567"
             style="stroke-width:1.33333" />
        </g>
      </g>
    </clipPath>
    <clipPath
       clipPathUnits="userSpaceOnUse"
       id="clipPath1580">
      <g
         id="g1586">
        <g
           id="g1584">
          <path
             d="m 136.94902,42.141222 5.30533,86.097328 v 51.61067 c -3.03067,12.52533 -10.604,22.81466 -23.86667,30.30133 v 0 c -9.82133,5.54533 -20.962662,8.32 -32.238662,8.49467 v 0 c -15.155999,0.236 -29.826666,0.84933 -29.349332,13.21733 v 0 l 2.090666,9.164 8.521333,7.23467 15.113333,2.57333 27.172002,2.412 22.66933,-2.09067 35.85467,-7.31466 34.24666,0.72266 14.30933,-6.432 1.12534,-11.25333 0.012,-0.43333 c 0.67466,-24.96934 4.00933,-49.78 9.632,-74.12 v 0 c 7.796,-33.728 13.36,-69.965333 16.24133,-109.218665 v 0 c -18.868,-2.413333 -37.93866,-3.634667 -57.208,-3.636 v 0 c -16.39733,0 -32.936,0.884 -49.63066,2.670667"
             id="path1582"
             style="stroke-width:1.33333" />
        </g>
      </g>
    </clipPath>
    <clipPath
       clipPathUnits="userSpaceOnUse"
       id="clipPath1595">
      <g
         id="g1601">
        <g
           id="g1599">
          <path
             d="m 136.94902,42.141222 5.30533,86.097328 v 51.61067 c -3.03067,12.52533 -10.604,22.81466 -23.86667,30.30133 v 0 c -9.82133,5.54533 -20.962662,8.32 -32.238662,8.49467 v 0 c -15.155999,0.236 -29.826666,0.84933 -29.349332,13.21733 v 0 l 2.090666,9.164 8.521333,7.23467 15.113333,2.57333 27.172002,2.412 22.66933,-2.09067 35.85467,-7.31466 34.24666,0.72266 14.30933,-6.432 1.12534,-11.25333 0.012,-0.43333 c 0.67466,-24.96934 4.00933,-49.78 9.632,-74.12 v 0 c 7.796,-33.728 13.36,-69.965333 16.24133,-109.218665 v 0 c -18.868,-2.413333 -37.93866,-3.634667 -57.208,-3.636 v 0 c -16.39733,0 -32.936,0.884 -49.63066,2.670667"
             id="path1597"
             style="stroke-width:1.33333" />
        </g>
      </g>
    </clipPath>
    <clipPath
       clipPathUnits="userSpaceOnUse"
       id="clipPath1610">
      <g
         id="g1616">
        <g
           id="g1614">
          <path
             d="m 136.94902,42.141222 5.30533,86.097328 v 51.61067 c -3.03067,12.52533 -10.604,22.81466 -23.86667,30.30133 v 0 c -9.82133,5.54533 -20.962662,8.32 -32.238662,8.49467 v 0 c -15.155999,0.236 -29.826666,0.84933 -29.349332,13.21733 v 0 l 2.090666,9.164 8.521333,7.23467 15.113333,2.57333 27.172002,2.412 22.66933,-2.09067 35.85467,-7.31466 34.24666,0.72266 14.30933,-6.432 1.12534,-11.25333 0.012,-0.43333 c 0.67466,-24.96934 4.00933,-49.78 9.632,-74.12 v 0 c 7.796,-33.728 13.36,-69.965333 16.24133,-109.218665 v 0 c -18.868,-2.413333 -37.93866,-3.634667 -57.208,-3.636 v 0 c -16.39733,0 -32.936,0.884 -49.63066,2.670667"
             id="path1612"
             style="stroke-width:1.33333" />
        </g>
      </g>
    </clipPath>
    <clipPath
       clipPathUnits="userSpaceOnUse"
       id="clipPath1625">
      <g
         id="g1631">
        <g
           id="g1629">
          <path
             d="m 136.94902,42.141222 5.30533,86.097328 v 51.61067 c -3.03067,12.52533 -10.604,22.81466 -23.86667,30.30133 v 0 c -9.82133,5.54533 -20.962662,8.32 -32.238662,8.49467 v 0 c -15.155999,0.236 -29.826666,0.84933 -29.349332,13.21733 v 0 l 2.090666,9.164 8.521333,7.23467 15.113333,2.57333 27.172002,2.412 22.66933,-2.09067 35.85467,-7.31466 34.24666,0.72266 14.30933,-6.432 1.12534,-11.25333 0.012,-0.43333 c 0.67466,-24.96934 4.00933,-49.78 9.632,-74.12 v 0 c 7.796,-33.728 13.36,-69.965333 16.24133,-109.218665 v 0 c -18.868,-2.413333 -37.93866,-3.634667 -57.208,-3.636 v 0 c -16.39733,0 -32.936,0.884 -49.63066,2.670667"
             id="path1627"
             style="stroke-width:1.33333" />
        </g>
      </g>
    </clipPath>
    <clipPath
       clipPathUnits="userSpaceOnUse"
       id="clipPath1640">
      <g
         id="g1646">
        <g
           id="g1644">
          <path
             d="m 136.94902,42.141222 5.30533,86.097328 v 51.61067 c -3.03067,12.52533 -10.604,22.81466 -23.86667,30.30133 v 0 c -9.82133,5.54533 -20.962662,8.32 -32.238662,8.49467 v 0 c -15.155999,0.236 -29.826666,0.84933 -29.349332,13.21733 v 0 l 2.090666,9.164 8.521333,7.23467 15.113333,2.57333 27.172002,2.412 22.66933,-2.09067 35.85467,-7.31466 34.24666,0.72266 14.30933,-6.432 1.12534,-11.25333 0.012,-0.43333 c 0.67466,-24.96934 4.00933,-49.78 9.632,-74.12 v 0 c 7.796,-33.728 13.36,-69.965333 16.24133,-109.218665 v 0 c -18.868,-2.413333 -37.93866,-3.634667 -57.208,-3.636 v 0 c -16.39733,0 -32.936,0.884 -49.63066,2.670667"
             id="path1642"
             style="stroke-width:1.33333" />
        </g>
      </g>
    </clipPath>
    <clipPath
       clipPathUnits="userSpaceOnUse"
       id="clipPath1655">
      <g
         id="g1661">
        <g
           id="g1659">
          <path
             d="m 136.94902,42.141222 5.30533,86.097328 v 51.61067 c -3.03067,12.52533 -10.604,22.81466 -23.86667,30.30133 v 0 c -9.82133,5.54533 -20.962662,8.32 -32.238662,8.49467 v 0 c -15.155999,0.236 -29.826666,0.84933 -29.349332,13.21733 v 0 l 2.090666,9.164 8.521333,7.23467 15.113333,2.57333 27.172002,2.412 22.66933,-2.09067 35.85467,-7.31466 34.24666,0.72266 14.30933,-6.432 1.12534,-11.25333 0.012,-0.43333 c 0.67466,-24.96934 4.00933,-49.78 9.632,-74.12 v 0 c 7.796,-33.728 13.36,-69.965333 16.24133,-109.218665 v 0 c -18.868,-2.413333 -37.93866,-3.634667 -57.208,-3.636 v 0 c -16.39733,0 -32.936,0.884 -49.63066,2.670667"
             id="path1657"
             style="stroke-width:1.33333" />
        </g>
      </g>
    </clipPath>
    <clipPath
       clipPathUnits="userSpaceOnUse"
       id="clipPath1670">
      <g
         id="g1676">
        <g
           id="g1674">
          <path
             d="m 136.94902,42.141222 5.30533,86.097328 v 51.61067 c -3.03067,12.52533 -10.604,22.81466 -23.86667,30.30133 v 0 c -9.82133,5.54533 -20.962662,8.32 -32.238662,8.49467 v 0 c -15.155999,0.236 -29.826666,0.84933 -29.349332,13.21733 v 0 l 2.090666,9.164 8.521333,7.23467 15.113333,2.57333 27.172002,2.412 22.66933,-2.09067 35.85467,-7.31466 34.24666,0.72266 14.30933,-6.432 1.12534,-11.25333 0.012,-0.43333 c 0.67466,-24.96934 4.00933,-49.78 9.632,-74.12 v 0 c 7.796,-33.728 13.36,-69.965333 16.24133,-109.218665 v 0 c -18.868,-2.413333 -37.93866,-3.634667 -57.208,-3.636 v 0 c -16.39733,0 -32.936,0.884 -49.63066,2.670667"
             id="path1672"
             style="stroke-width:1.33333" />
        </g>
      </g>
    </clipPath>
    <clipPath
       clipPathUnits="userSpaceOnUse"
       id="clipPath1685">
      <g
         id="g1691">
        <g
           id="g1689">
          <path
             d="m 136.94902,42.141222 5.30533,86.097328 v 51.61067 c -3.03067,12.52533 -10.604,22.81466 -23.86667,30.30133 v 0 c -9.82133,5.54533 -20.962662,8.32 -32.238662,8.49467 v 0 c -15.155999,0.236 -29.826666,0.84933 -29.349332,13.21733 v 0 l 2.090666,9.164 8.521333,7.23467 15.113333,2.57333 27.172002,2.412 22.66933,-2.09067 35.85467,-7.31466 34.24666,0.72266 14.30933,-6.432 1.12534,-11.25333 0.012,-0.43333 c 0.67466,-24.96934 4.00933,-49.78 9.632,-74.12 v 0 c 7.796,-33.728 13.36,-69.965333 16.24133,-109.218665 v 0 c -18.868,-2.413333 -37.93866,-3.634667 -57.208,-3.636 v 0 c -16.39733,0 -32.936,0.884 -49.63066,2.670667"
             id="path1687"
             style="stroke-width:1.33333" />
        </g>
      </g>
    </clipPath>
    <clipPath
       clipPathUnits="userSpaceOnUse"
       id="clipPath1700">
      <g
         id="g1706">
        <g
           id="g1704">
          <path
             d="m 136.94902,42.141222 5.30533,86.097328 v 51.61067 c -3.03067,12.52533 -10.604,22.81466 -23.86667,30.30133 v 0 c -9.82133,5.54533 -20.962662,8.32 -32.238662,8.49467 v 0 c -15.155999,0.236 -29.826666,0.84933 -29.349332,13.21733 v 0 l 2.090666,9.164 8.521333,7.23467 15.113333,2.57333 27.172002,2.412 22.66933,-2.09067 35.85467,-7.31466 34.24666,0.72266 14.30933,-6.432 1.12534,-11.25333 0.012,-0.43333 c 0.67466,-24.96934 4.00933,-49.78 9.632,-74.12 v 0 c 7.796,-33.728 13.36,-69.965333 16.24133,-109.218665 v 0 c -18.868,-2.413333 -37.93866,-3.634667 -57.208,-3.636 v 0 c -16.39733,0 -32.936,0.884 -49.63066,2.670667"
             id="path1702"
             style="stroke-width:1.33333" />
        </g>
      </g>
    </clipPath>
    <clipPath
       clipPathUnits="userSpaceOnUse"
       id="clipPath1715">
      <g
         id="g1721">
        <g
           id="g1719">
          <path
             d="m 136.94902,42.141222 5.30533,86.097328 v 51.61067 c -3.03067,12.52533 -10.604,22.81466 -23.86667,30.30133 v 0 c -9.82133,5.54533 -20.962662,8.32 -32.238662,8.49467 v 0 c -15.155999,0.236 -29.826666,0.84933 -29.349332,13.21733 v 0 l 2.090666,9.164 8.521333,7.23467 15.113333,2.57333 27.172002,2.412 22.66933,-2.09067 35.85467,-7.31466 34.24666,0.72266 14.30933,-6.432 1.12534,-11.25333 0.012,-0.43333 c 0.67466,-24.96934 4.00933,-49.78 9.632,-74.12 v 0 c 7.796,-33.728 13.36,-69.965333 16.24133,-109.218665 v 0 c -18.868,-2.413333 -37.93866,-3.634667 -57.208,-3.636 v 0 c -16.39733,0 -32.936,0.884 -49.63066,2.670667"
             id="path1717"
             style="stroke-width:1.33333" />
        </g>
      </g>
    </clipPath>
    <clipPath
       clipPathUnits="userSpaceOnUse"
       id="clipPath1730">
      <g
         id="g1736">
        <g
           id="g1734">
          <path
             d="m 136.94902,42.141222 5.30533,86.097328 v 51.61067 c -3.03067,12.52533 -10.604,22.81466 -23.86667,30.30133 v 0 c -9.82133,5.54533 -20.962662,8.32 -32.238662,8.49467 v 0 c -15.155999,0.236 -29.826666,0.84933 -29.349332,13.21733 v 0 l 2.090666,9.164 8.521333,7.23467 15.113333,2.57333 27.172002,2.412 22.66933,-2.09067 35.85467,-7.31466 34.24666,0.72266 14.30933,-6.432 1.12534,-11.25333 0.012,-0.43333 c 0.67466,-24.96934 4.00933,-49.78 9.632,-74.12 v 0 c 7.796,-33.728 13.36,-69.965333 16.24133,-109.218665 v 0 c -18.868,-2.413333 -37.93866,-3.634667 -57.208,-3.636 v 0 c -16.39733,0 -32.936,0.884 -49.63066,2.670667"
             id="path1732"
             style="stroke-width:1.33333" />
        </g>
      </g>
    </clipPath>
    <clipPath
       clipPathUnits="userSpaceOnUse"
       id="clipPath1745">
      <g
         id="g1751">
        <g
           id="g1749">
          <path
             d="m 136.94902,42.141222 5.30533,86.097328 v 51.61067 c -3.03067,12.52533 -10.604,22.81466 -23.86667,30.30133 v 0 c -9.82133,5.54533 -20.962662,8.32 -32.238662,8.49467 v 0 c -15.155999,0.236 -29.826666,0.84933 -29.349332,13.21733 v 0 l 2.090666,9.164 8.521333,7.23467 15.113333,2.57333 27.172002,2.412 22.66933,-2.09067 35.85467,-7.31466 34.24666,0.72266 14.30933,-6.432 1.12534,-11.25333 0.012,-0.43333 c 0.67466,-24.96934 4.00933,-49.78 9.632,-74.12 v 0 c 7.796,-33.728 13.36,-69.965333 16.24133,-109.218665 v 0 c -18.868,-2.413333 -37.93866,-3.634667 -57.208,-3.636 v 0 c -16.39733,0 -32.936,0.884 -49.63066,2.670667"
             id="path1747"
             style="stroke-width:1.33333" />
        </g>
      </g>
    </clipPath>
    <clipPath
       clipPathUnits="userSpaceOnUse"
       id="clipPath1760">
      <g
         id="g1766">
        <g
           id="g1764">
          <path
             d="m 136.94902,42.141222 5.30533,86.097328 v 51.61067 c -3.03067,12.52533 -10.604,22.81466 -23.86667,30.30133 v 0 c -9.82133,5.54533 -20.962662,8.32 -32.238662,8.49467 v 0 c -15.155999,0.236 -29.826666,0.84933 -29.349332,13.21733 v 0 l 2.090666,9.164 8.521333,7.23467 15.113333,2.57333 27.172002,2.412 22.66933,-2.09067 35.85467,-7.31466 34.24666,0.72266 14.30933,-6.432 1.12534,-11.25333 0.012,-0.43333 c 0.67466,-24.96934 4.00933,-49.78 9.632,-74.12 v 0 c 7.796,-33.728 13.36,-69.965333 16.24133,-109.218665 v 0 c -18.868,-2.413333 -37.93866,-3.634667 -57.208,-3.636 v 0 c -16.39733,0 -32.936,0.884 -49.63066,2.670667"
             id="path1762"
             style="stroke-width:1.33333" />
        </g>
      </g>
    </clipPath>
    <clipPath
       clipPathUnits="userSpaceOnUse"
       id="clipPath1775">
      <g
         id="g1781">
        <g
           id="g1779">
          <path
             d="m 136.94902,42.141222 5.30533,86.097328 v 51.61067 c -3.03067,12.52533 -10.604,22.81466 -23.86667,30.30133 v 0 c -9.82133,5.54533 -20.962662,8.32 -32.238662,8.49467 v 0 c -15.155999,0.236 -29.826666,0.84933 -29.349332,13.21733 v 0 l 2.090666,9.164 8.521333,7.23467 15.113333,2.57333 27.172002,2.412 22.66933,-2.09067 35.85467,-7.31466 34.24666,0.72266 14.30933,-6.432 1.12534,-11.25333 0.012,-0.43333 c 0.67466,-24.96934 4.00933,-49.78 9.632,-74.12 v 0 c 7.796,-33.728 13.36,-69.965333 16.24133,-109.218665 v 0 c -18.868,-2.413333 -37.93866,-3.634667 -57.208,-3.636 v 0 c -16.39733,0 -32.936,0.884 -49.63066,2.670667"
             id="path1777"
             style="stroke-width:1.33333" />
        </g>
      </g>
    </clipPath>
    <clipPath
       clipPathUnits="userSpaceOnUse"
       id="clipPath1790">
      <g
         id="g1796">
        <g
           id="g1794">
          <path
             d="m 136.94902,42.141222 5.30533,86.097328 v 51.61067 c -3.03067,12.52533 -10.604,22.81466 -23.86667,30.30133 v 0 c -9.82133,5.54533 -20.962662,8.32 -32.238662,8.49467 v 0 c -15.155999,0.236 -29.826666,0.84933 -29.349332,13.21733 v 0 l 2.090666,9.164 8.521333,7.23467 15.113333,2.57333 27.172002,2.412 22.66933,-2.09067 35.85467,-7.31466 34.24666,0.72266 14.30933,-6.432 1.12534,-11.25333 0.012,-0.43333 c 0.67466,-24.96934 4.00933,-49.78 9.632,-74.12 v 0 c 7.796,-33.728 13.36,-69.965333 16.24133,-109.218665 v 0 c -18.868,-2.413333 -37.93866,-3.634667 -57.208,-3.636 v 0 c -16.39733,0 -32.936,0.884 -49.63066,2.670667"
             id="path1792"
             style="stroke-width:1.33333" />
        </g>
      </g>
    </clipPath>
    <clipPath
       clipPathUnits="userSpaceOnUse"
       id="clipPath1805">
      <g
         id="g1811">
        <g
           id="g1809">
          <path
             d="m 136.94902,42.141222 5.30533,86.097328 v 51.61067 c -3.03067,12.52533 -10.604,22.81466 -23.86667,30.30133 v 0 c -9.82133,5.54533 -20.962662,8.32 -32.238662,8.49467 v 0 c -15.155999,0.236 -29.826666,0.84933 -29.349332,13.21733 v 0 l 2.090666,9.164 8.521333,7.23467 15.113333,2.57333 27.172002,2.412 22.66933,-2.09067 35.85467,-7.31466 34.24666,0.72266 14.30933,-6.432 1.12534,-11.25333 0.012,-0.43333 c 0.67466,-24.96934 4.00933,-49.78 9.632,-74.12 v 0 c 7.796,-33.728 13.36,-69.965333 16.24133,-109.218665 v 0 c -18.868,-2.413333 -37.93866,-3.634667 -57.208,-3.636 v 0 c -16.39733,0 -32.936,0.884 -49.63066,2.670667"
             id="path1807"
             style="stroke-width:1.33333" />
        </g>
      </g>
    </clipPath>
    <clipPath
       clipPathUnits="userSpaceOnUse"
       id="clipPath1820">
      <g
         id="g1826">
        <g
           id="g1824">
          <path
             d="m 136.94902,42.141222 5.30533,86.097328 v 51.61067 c -3.03067,12.52533 -10.604,22.81466 -23.86667,30.30133 v 0 c -9.82133,5.54533 -20.962662,8.32 -32.238662,8.49467 v 0 c -15.155999,0.236 -29.826666,0.84933 -29.349332,13.21733 v 0 l 2.090666,9.164 8.521333,7.23467 15.113333,2.57333 27.172002,2.412 22.66933,-2.09067 35.85467,-7.31466 34.24666,0.72266 14.30933,-6.432 1.12534,-11.25333 0.012,-0.43333 c 0.67466,-24.96934 4.00933,-49.78 9.632,-74.12 v 0 c 7.796,-33.728 13.36,-69.965333 16.24133,-109.218665 v 0 c -18.868,-2.413333 -37.93866,-3.634667 -57.208,-3.636 v 0 c -16.39733,0 -32.936,0.884 -49.63066,2.670667"
             id="path1822"
             style="stroke-width:1.33333" />
        </g>
      </g>
    </clipPath>
    <clipPath
       clipPathUnits="userSpaceOnUse"
       id="clipPath1835">
      <g
         id="g1841">
        <g
           id="g1839">
          <path
             d="m 136.94902,42.141222 5.30533,86.097328 v 51.61067 c -3.03067,12.52533 -10.604,22.81466 -23.86667,30.30133 v 0 c -9.82133,5.54533 -20.962662,8.32 -32.238662,8.49467 v 0 c -15.155999,0.236 -29.826666,0.84933 -29.349332,13.21733 v 0 l 2.090666,9.164 8.521333,7.23467 15.113333,2.57333 27.172002,2.412 22.66933,-2.09067 35.85467,-7.31466 34.24666,0.72266 14.30933,-6.432 1.12534,-11.25333 0.012,-0.43333 c 0.67466,-24.96934 4.00933,-49.78 9.632,-74.12 v 0 c 7.796,-33.728 13.36,-69.965333 16.24133,-109.218665 v 0 c -18.868,-2.413333 -37.93866,-3.634667 -57.208,-3.636 v 0 c -16.39733,0 -32.936,0.884 -49.63066,2.670667"
             id="path1837"
             style="stroke-width:1.33333" />
        </g>
      </g>
    </clipPath>
    <clipPath
       clipPathUnits="userSpaceOnUse"
       id="clipPath1850">
      <g
         id="g1856">
        <g
           id="g1854">
          <path
             d="m 136.94902,42.141222 5.30533,86.097328 v 51.61067 c -3.03067,12.52533 -10.604,22.81466 -23.86667,30.30133 v 0 c -9.82133,5.54533 -20.962662,8.32 -32.238662,8.49467 v 0 c -15.155999,0.236 -29.826666,0.84933 -29.349332,13.21733 v 0 l 2.090666,9.164 8.521333,7.23467 15.113333,2.57333 27.172002,2.412 22.66933,-2.09067 35.85467,-7.31466 34.24666,0.72266 14.30933,-6.432 1.12534,-11.25333 0.012,-0.43333 c 0.67466,-24.96934 4.00933,-49.78 9.632,-74.12 v 0 c 7.796,-33.728 13.36,-69.965333 16.24133,-109.218665 v 0 c -18.868,-2.413333 -37.93866,-3.634667 -57.208,-3.636 v 0 c -16.39733,0 -32.936,0.884 -49.63066,2.670667"
             id="path1852"
             style="stroke-width:1.33333" />
        </g>
      </g>
    </clipPath>
    <clipPath
       clipPathUnits="userSpaceOnUse"
       id="clipPath1865">
      <g
         id="g1871">
        <g
           id="g1869">
          <path
             d="m 136.94902,42.141222 5.30533,86.097328 v 51.61067 c -3.03067,12.52533 -10.604,22.81466 -23.86667,30.30133 v 0 c -9.82133,5.54533 -20.962662,8.32 -32.238662,8.49467 v 0 c -15.155999,0.236 -29.826666,0.84933 -29.349332,13.21733 v 0 l 2.090666,9.164 8.521333,7.23467 15.113333,2.57333 27.172002,2.412 22.66933,-2.09067 35.85467,-7.31466 34.24666,0.72266 14.30933,-6.432 1.12534,-11.25333 0.012,-0.43333 c 0.67466,-24.96934 4.00933,-49.78 9.632,-74.12 v 0 c 7.796,-33.728 13.36,-69.965333 16.24133,-109.218665 v 0 c -18.868,-2.413333 -37.93866,-3.634667 -57.208,-3.636 v 0 c -16.39733,0 -32.936,0.884 -49.63066,2.670667"
             id="path1867"
             style="stroke-width:1.33333" />
        </g>
      </g>
    </clipPath>
    <clipPath
       clipPathUnits="userSpaceOnUse"
       id="clipPath1880">
      <g
         id="g1886">
        <g
           id="g1884">
          <path
             d="m 136.94902,42.141222 5.30533,86.097328 v 51.61067 c -3.03067,12.52533 -10.604,22.81466 -23.86667,30.30133 v 0 c -9.82133,5.54533 -20.962662,8.32 -32.238662,8.49467 v 0 c -15.155999,0.236 -29.826666,0.84933 -29.349332,13.21733 v 0 l 2.090666,9.164 8.521333,7.23467 15.113333,2.57333 27.172002,2.412 22.66933,-2.09067 35.85467,-7.31466 34.24666,0.72266 14.30933,-6.432 1.12534,-11.25333 0.012,-0.43333 c 0.67466,-24.96934 4.00933,-49.78 9.632,-74.12 v 0 c 7.796,-33.728 13.36,-69.965333 16.24133,-109.218665 v 0 c -18.868,-2.413333 -37.93866,-3.634667 -57.208,-3.636 v 0 c -16.39733,0 -32.936,0.884 -49.63066,2.670667"
             id="path1882"
             style="stroke-width:1.33333" />
        </g>
      </g>
    </clipPath>
    <clipPath
       clipPathUnits="userSpaceOnUse"
       id="clipPath1895">
      <g
         id="g1901">
        <g
           id="g1899">
          <path
             d="m 136.94902,42.141222 5.30533,86.097328 v 51.61067 c -3.03067,12.52533 -10.604,22.81466 -23.86667,30.30133 v 0 c -9.82133,5.54533 -20.962662,8.32 -32.238662,8.49467 v 0 c -15.155999,0.236 -29.826666,0.84933 -29.349332,13.21733 v 0 l 2.090666,9.164 8.521333,7.23467 15.113333,2.57333 27.172002,2.412 22.66933,-2.09067 35.85467,-7.31466 34.24666,0.72266 14.30933,-6.432 1.12534,-11.25333 0.012,-0.43333 c 0.67466,-24.96934 4.00933,-49.78 9.632,-74.12 v 0 c 7.796,-33.728 13.36,-69.965333 16.24133,-109.218665 v 0 c -18.868,-2.413333 -37.93866,-3.634667 -57.208,-3.636 v 0 c -16.39733,0 -32.936,0.884 -49.63066,2.670667"
             id="path1897"
             style="stroke-width:1.33333" />
        </g>
      </g>
    </clipPath>
    <clipPath
       clipPathUnits="userSpaceOnUse"
       id="clipPath1910">
      <g
         id="g1916">
        <g
           id="g1914">
          <path
             d="m 136.94902,42.141222 5.30533,86.097328 v 51.61067 c -3.03067,12.52533 -10.604,22.81466 -23.86667,30.30133 v 0 c -9.82133,5.54533 -20.962662,8.32 -32.238662,8.49467 v 0 c -15.155999,0.236 -29.826666,0.84933 -29.349332,13.21733 v 0 l 2.090666,9.164 8.521333,7.23467 15.113333,2.57333 27.172002,2.412 22.66933,-2.09067 35.85467,-7.31466 34.24666,0.72266 14.30933,-6.432 1.12534,-11.25333 0.012,-0.43333 c 0.67466,-24.96934 4.00933,-49.78 9.632,-74.12 v 0 c 7.796,-33.728 13.36,-69.965333 16.24133,-109.218665 v 0 c -18.868,-2.413333 -37.93866,-3.634667 -57.208,-3.636 v 0 c -16.39733,0 -32.936,0.884 -49.63066,2.670667"
             id="path1912"
             style="stroke-width:1.33333" />
        </g>
      </g>
    </clipPath>
    <clipPath
       clipPathUnits="userSpaceOnUse"
       id="clipPath1925">
      <g
         id="g1931">
        <g
           id="g1929">
          <path
             d="m 136.94902,42.141222 5.30533,86.097328 v 51.61067 c -3.03067,12.52533 -10.604,22.81466 -23.86667,30.30133 v 0 c -9.82133,5.54533 -20.962662,8.32 -32.238662,8.49467 v 0 c -15.155999,0.236 -29.826666,0.84933 -29.349332,13.21733 v 0 l 2.090666,9.164 8.521333,7.23467 15.113333,2.57333 27.172002,2.412 22.66933,-2.09067 35.85467,-7.31466 34.24666,0.72266 14.30933,-6.432 1.12534,-11.25333 0.012,-0.43333 c 0.67466,-24.96934 4.00933,-49.78 9.632,-74.12 v 0 c 7.796,-33.728 13.36,-69.965333 16.24133,-109.218665 v 0 c -18.868,-2.413333 -37.93866,-3.634667 -57.208,-3.636 v 0 c -16.39733,0 -32.936,0.884 -49.63066,2.670667"
             id="path1927"
             style="stroke-width:1.33333" />
        </g>
      </g>
    </clipPath>
    <clipPath
       clipPathUnits="userSpaceOnUse"
       id="clipPath1940">
      <g
         id="g1946">
        <g
           id="g1944">
          <path
             d="m 136.94902,42.141222 5.30533,86.097328 v 51.61067 c -3.03067,12.52533 -10.604,22.81466 -23.86667,30.30133 v 0 c -9.82133,5.54533 -20.962662,8.32 -32.238662,8.49467 v 0 c -15.155999,0.236 -29.826666,0.84933 -29.349332,13.21733 v 0 l 2.090666,9.164 8.521333,7.23467 15.113333,2.57333 27.172002,2.412 22.66933,-2.09067 35.85467,-7.31466 34.24666,0.72266 14.30933,-6.432 1.12534,-11.25333 0.012,-0.43333 c 0.67466,-24.96934 4.00933,-49.78 9.632,-74.12 v 0 c 7.796,-33.728 13.36,-69.965333 16.24133,-109.218665 v 0 c -18.868,-2.413333 -37.93866,-3.634667 -57.208,-3.636 v 0 c -16.39733,0 -32.936,0.884 -49.63066,2.670667"
             id="path1942"
             style="stroke-width:1.33333" />
        </g>
      </g>
    </clipPath>
    <clipPath
       clipPathUnits="userSpaceOnUse"
       id="clipPath1955">
      <g
         id="g1961">
        <g
           id="g1959">
          <path
             d="m 136.94902,42.141222 5.30533,86.097328 v 51.61067 c -3.03067,12.52533 -10.604,22.81466 -23.86667,30.30133 v 0 c -9.82133,5.54533 -20.962662,8.32 -32.238662,8.49467 v 0 c -15.155999,0.236 -29.826666,0.84933 -29.349332,13.21733 v 0 l 2.090666,9.164 8.521333,7.23467 15.113333,2.57333 27.172002,2.412 22.66933,-2.09067 35.85467,-7.31466 34.24666,0.72266 14.30933,-6.432 1.12534,-11.25333 0.012,-0.43333 c 0.67466,-24.96934 4.00933,-49.78 9.632,-74.12 v 0 c 7.796,-33.728 13.36,-69.965333 16.24133,-109.218665 v 0 c -18.868,-2.413333 -37.93866,-3.634667 -57.208,-3.636 v 0 c -16.39733,0 -32.936,0.884 -49.63066,2.670667"
             id="path1957"
             style="stroke-width:1.33333" />
        </g>
      </g>
    </clipPath>
    <clipPath
       clipPathUnits="userSpaceOnUse"
       id="clipPath1970">
      <g
         id="g1976">
        <g
           id="g1974">
          <path
             d="m 136.94902,42.141222 5.30533,86.097328 v 51.61067 c -3.03067,12.52533 -10.604,22.81466 -23.86667,30.30133 v 0 c -9.82133,5.54533 -20.962662,8.32 -32.238662,8.49467 v 0 c -15.155999,0.236 -29.826666,0.84933 -29.349332,13.21733 v 0 l 2.090666,9.164 8.521333,7.23467 15.113333,2.57333 27.172002,2.412 22.66933,-2.09067 35.85467,-7.31466 34.24666,0.72266 14.30933,-6.432 1.12534,-11.25333 0.012,-0.43333 c 0.67466,-24.96934 4.00933,-49.78 9.632,-74.12 v 0 c 7.796,-33.728 13.36,-69.965333 16.24133,-109.218665 v 0 c -18.868,-2.413333 -37.93866,-3.634667 -57.208,-3.636 v 0 c -16.39733,0 -32.936,0.884 -49.63066,2.670667"
             id="path1972"
             style="stroke-width:1.33333" />
        </g>
      </g>
    </clipPath>
    <clipPath
       clipPathUnits="userSpaceOnUse"
       id="clipPath1985">
      <g
         id="g1991">
        <g
           id="g1989">
          <path
             d="m 136.94902,42.141222 5.30533,86.097328 v 51.61067 c -3.03067,12.52533 -10.604,22.81466 -23.86667,30.30133 v 0 c -9.82133,5.54533 -20.962662,8.32 -32.238662,8.49467 v 0 c -15.155999,0.236 -29.826666,0.84933 -29.349332,13.21733 v 0 l 2.090666,9.164 8.521333,7.23467 15.113333,2.57333 27.172002,2.412 22.66933,-2.09067 35.85467,-7.31466 34.24666,0.72266 14.30933,-6.432 1.12534,-11.25333 0.012,-0.43333 c 0.67466,-24.96934 4.00933,-49.78 9.632,-74.12 v 0 c 7.796,-33.728 13.36,-69.965333 16.24133,-109.218665 v 0 c -18.868,-2.413333 -37.93866,-3.634667 -57.208,-3.636 v 0 c -16.39733,0 -32.936,0.884 -49.63066,2.670667"
             id="path1987"
             style="stroke-width:1.33333" />
        </g>
      </g>
    </clipPath>
    <clipPath
       clipPathUnits="userSpaceOnUse"
       id="clipPath2000">
      <g
         id="g2006">
        <g
           id="g2004">
          <path
             d="m 136.94902,42.141222 5.30533,86.097328 v 51.61067 c -3.03067,12.52533 -10.604,22.81466 -23.86667,30.30133 v 0 c -9.82133,5.54533 -20.962662,8.32 -32.238662,8.49467 v 0 c -15.155999,0.236 -29.826666,0.84933 -29.349332,13.21733 v 0 l 2.090666,9.164 8.521333,7.23467 15.113333,2.57333 27.172002,2.412 22.66933,-2.09067 35.85467,-7.31466 34.24666,0.72266 14.30933,-6.432 1.12534,-11.25333 0.012,-0.43333 c 0.67466,-24.96934 4.00933,-49.78 9.632,-74.12 v 0 c 7.796,-33.728 13.36,-69.965333 16.24133,-109.218665 v 0 c -18.868,-2.413333 -37.93866,-3.634667 -57.208,-3.636 v 0 c -16.39733,0 -32.936,0.884 -49.63066,2.670667"
             id="path2002"
             style="stroke-width:1.33333" />
        </g>
      </g>
    </clipPath>
    <clipPath
       clipPathUnits="userSpaceOnUse"
       id="clipPath2015">
      <g
         id="g2021">
        <g
           id="g2019">
          <path
             d="m 136.94902,42.141222 5.30533,86.097328 v 51.61067 c -3.03067,12.52533 -10.604,22.81466 -23.86667,30.30133 v 0 c -9.82133,5.54533 -20.962662,8.32 -32.238662,8.49467 v 0 c -15.155999,0.236 -29.826666,0.84933 -29.349332,13.21733 v 0 l 2.090666,9.164 8.521333,7.23467 15.113333,2.57333 27.172002,2.412 22.66933,-2.09067 35.85467,-7.31466 34.24666,0.72266 14.30933,-6.432 1.12534,-11.25333 0.012,-0.43333 c 0.67466,-24.96934 4.00933,-49.78 9.632,-74.12 v 0 c 7.796,-33.728 13.36,-69.965333 16.24133,-109.218665 v 0 c -18.868,-2.413333 -37.93866,-3.634667 -57.208,-3.636 v 0 c -16.39733,0 -32.936,0.884 -49.63066,2.670667"
             id="path2017"
             style="stroke-width:1.33333" />
        </g>
      </g>
    </clipPath>
    <clipPath
       clipPathUnits="userSpaceOnUse"
       id="clipPath2030">
      <g
         id="g2036">
        <g
           id="g2034">
          <path
             d="m 136.94902,42.141222 5.30533,86.097328 v 51.61067 c -3.03067,12.52533 -10.604,22.81466 -23.86667,30.30133 v 0 c -9.82133,5.54533 -20.962662,8.32 -32.238662,8.49467 v 0 c -15.155999,0.236 -29.826666,0.84933 -29.349332,13.21733 v 0 l 2.090666,9.164 8.521333,7.23467 15.113333,2.57333 27.172002,2.412 22.66933,-2.09067 35.85467,-7.31466 34.24666,0.72266 14.30933,-6.432 1.12534,-11.25333 0.012,-0.43333 c 0.67466,-24.96934 4.00933,-49.78 9.632,-74.12 v 0 c 7.796,-33.728 13.36,-69.965333 16.24133,-109.218665 v 0 c -18.868,-2.413333 -37.93866,-3.634667 -57.208,-3.636 v 0 c -16.39733,0 -32.936,0.884 -49.63066,2.670667"
             id="path2032"
             style="stroke-width:1.33333" />
        </g>
      </g>
    </clipPath>
    <clipPath
       clipPathUnits="userSpaceOnUse"
       id="clipPath2045">
      <g
         id="g2051">
        <g
           id="g2049">
          <path
             d="m 136.94902,42.141222 5.30533,86.097328 v 51.61067 c -3.03067,12.52533 -10.604,22.81466 -23.86667,30.30133 v 0 c -9.82133,5.54533 -20.962662,8.32 -32.238662,8.49467 v 0 c -15.155999,0.236 -29.826666,0.84933 -29.349332,13.21733 v 0 l 2.090666,9.164 8.521333,7.23467 15.113333,2.57333 27.172002,2.412 22.66933,-2.09067 35.85467,-7.31466 34.24666,0.72266 14.30933,-6.432 1.12534,-11.25333 0.012,-0.43333 c 0.67466,-24.96934 4.00933,-49.78 9.632,-74.12 v 0 c 7.796,-33.728 13.36,-69.965333 16.24133,-109.218665 v 0 c -18.868,-2.413333 -37.93866,-3.634667 -57.208,-3.636 v 0 c -16.39733,0 -32.936,0.884 -49.63066,2.670667"
             id="path2047"
             style="stroke-width:1.33333" />
        </g>
      </g>
    </clipPath>
    <clipPath
       clipPathUnits="userSpaceOnUse"
       id="clipPath2060">
      <g
         id="g2066">
        <g
           id="g2064">
          <path
             d="m 136.94902,42.141222 5.30533,86.097328 v 51.61067 c -3.03067,12.52533 -10.604,22.81466 -23.86667,30.30133 v 0 c -9.82133,5.54533 -20.962662,8.32 -32.238662,8.49467 v 0 c -15.155999,0.236 -29.826666,0.84933 -29.349332,13.21733 v 0 l 2.090666,9.164 8.521333,7.23467 15.113333,2.57333 27.172002,2.412 22.66933,-2.09067 35.85467,-7.31466 34.24666,0.72266 14.30933,-6.432 1.12534,-11.25333 0.012,-0.43333 c 0.67466,-24.96934 4.00933,-49.78 9.632,-74.12 v 0 c 7.796,-33.728 13.36,-69.965333 16.24133,-109.218665 v 0 c -18.868,-2.413333 -37.93866,-3.634667 -57.208,-3.636 v 0 c -16.39733,0 -32.936,0.884 -49.63066,2.670667"
             id="path2062"
             style="stroke-width:1.33333" />
        </g>
      </g>
    </clipPath>
    <clipPath
       clipPathUnits="userSpaceOnUse"
       id="clipPath2075">
      <g
         id="g2081">
        <g
           id="g2079">
          <path
             d="m 136.94902,42.141222 5.30533,86.097328 v 51.61067 c -3.03067,12.52533 -10.604,22.81466 -23.86667,30.30133 v 0 c -9.82133,5.54533 -20.962662,8.32 -32.238662,8.49467 v 0 c -15.155999,0.236 -29.826666,0.84933 -29.349332,13.21733 v 0 l 2.090666,9.164 8.521333,7.23467 15.113333,2.57333 27.172002,2.412 22.66933,-2.09067 35.85467,-7.31466 34.24666,0.72266 14.30933,-6.432 1.12534,-11.25333 0.012,-0.43333 c 0.67466,-24.96934 4.00933,-49.78 9.632,-74.12 v 0 c 7.796,-33.728 13.36,-69.965333 16.24133,-109.218665 v 0 c -18.868,-2.413333 -37.93866,-3.634667 -57.208,-3.636 v 0 c -16.39733,0 -32.936,0.884 -49.63066,2.670667"
             id="path2077"
             style="stroke-width:1.33333" />
        </g>
      </g>
    </clipPath>
    <clipPath
       clipPathUnits="userSpaceOnUse"
       id="clipPath2090">
      <g
         id="g2096">
        <g
           id="g2094">
          <path
             d="m 136.94902,42.141222 5.30533,86.097328 v 51.61067 c -3.03067,12.52533 -10.604,22.81466 -23.86667,30.30133 v 0 c -9.82133,5.54533 -20.962662,8.32 -32.238662,8.49467 v 0 c -15.155999,0.236 -29.826666,0.84933 -29.349332,13.21733 v 0 l 2.090666,9.164 8.521333,7.23467 15.113333,2.57333 27.172002,2.412 22.66933,-2.09067 35.85467,-7.31466 34.24666,0.72266 14.30933,-6.432 1.12534,-11.25333 0.012,-0.43333 c 0.67466,-24.96934 4.00933,-49.78 9.632,-74.12 v 0 c 7.796,-33.728 13.36,-69.965333 16.24133,-109.218665 v 0 c -18.868,-2.413333 -37.93866,-3.634667 -57.208,-3.636 v 0 c -16.39733,0 -32.936,0.884 -49.63066,2.670667"
             id="path2092"
             style="stroke-width:1.33333" />
        </g>
      </g>
    </clipPath>
    <clipPath
       clipPathUnits="userSpaceOnUse"
       id="clipPath2105">
      <g
         id="g2111">
        <g
           id="g2109">
          <path
             d="m 136.94902,42.141222 5.30533,86.097328 v 51.61067 c -3.03067,12.52533 -10.604,22.81466 -23.86667,30.30133 v 0 c -9.82133,5.54533 -20.962662,8.32 -32.238662,8.49467 v 0 c -15.155999,0.236 -29.826666,0.84933 -29.349332,13.21733 v 0 l 2.090666,9.164 8.521333,7.23467 15.113333,2.57333 27.172002,2.412 22.66933,-2.09067 35.85467,-7.31466 34.24666,0.72266 14.30933,-6.432 1.12534,-11.25333 0.012,-0.43333 c 0.67466,-24.96934 4.00933,-49.78 9.632,-74.12 v 0 c 7.796,-33.728 13.36,-69.965333 16.24133,-109.218665 v 0 c -18.868,-2.413333 -37.93866,-3.634667 -57.208,-3.636 v 0 c -16.39733,0 -32.936,0.884 -49.63066,2.670667"
             id="path2107"
             style="stroke-width:1.33333" />
        </g>
      </g>
    </clipPath>
    <clipPath
       clipPathUnits="userSpaceOnUse"
       id="clipPath2120">
      <g
         id="g2126">
        <g
           id="g2124">
          <path
             d="m 136.94902,42.141222 5.30533,86.097328 v 51.61067 c -3.03067,12.52533 -10.604,22.81466 -23.86667,30.30133 v 0 c -9.82133,5.54533 -20.962662,8.32 -32.238662,8.49467 v 0 c -15.155999,0.236 -29.826666,0.84933 -29.349332,13.21733 v 0 l 2.090666,9.164 8.521333,7.23467 15.113333,2.57333 27.172002,2.412 22.66933,-2.09067 35.85467,-7.31466 34.24666,0.72266 14.30933,-6.432 1.12534,-11.25333 0.012,-0.43333 c 0.67466,-24.96934 4.00933,-49.78 9.632,-74.12 v 0 c 7.796,-33.728 13.36,-69.965333 16.24133,-109.218665 v 0 c -18.868,-2.413333 -37.93866,-3.634667 -57.208,-3.636 v 0 c -16.39733,0 -32.936,0.884 -49.63066,2.670667"
             id="path2122"
             style="stroke-width:1.33333" />
        </g>
      </g>
    </clipPath>
    <clipPath
       clipPathUnits="userSpaceOnUse"
       id="clipPath2135">
      <g
         id="g2141">
        <g
           id="g2139">
          <path
             d="m 136.94902,42.141222 5.30533,86.097328 v 51.61067 c -3.03067,12.52533 -10.604,22.81466 -23.86667,30.30133 v 0 c -9.82133,5.54533 -20.962662,8.32 -32.238662,8.49467 v 0 c -15.155999,0.236 -29.826666,0.84933 -29.349332,13.21733 v 0 l 2.090666,9.164 8.521333,7.23467 15.113333,2.57333 27.172002,2.412 22.66933,-2.09067 35.85467,-7.31466 34.24666,0.72266 14.30933,-6.432 1.12534,-11.25333 0.012,-0.43333 c 0.67466,-24.96934 4.00933,-49.78 9.632,-74.12 v 0 c 7.796,-33.728 13.36,-69.965333 16.24133,-109.218665 v 0 c -18.868,-2.413333 -37.93866,-3.634667 -57.208,-3.636 v 0 c -16.39733,0 -32.936,0.884 -49.63066,2.670667"
             id="path2137"
             style="stroke-width:1.33333" />
        </g>
      </g>
    </clipPath>
    <clipPath
       clipPathUnits="userSpaceOnUse"
       id="clipPath2150">
      <g
         id="g2156">
        <g
           id="g2154">
          <path
             d="m 136.94902,42.141222 5.30533,86.097328 v 51.61067 c -3.03067,12.52533 -10.604,22.81466 -23.86667,30.30133 v 0 c -9.82133,5.54533 -20.962662,8.32 -32.238662,8.49467 v 0 c -15.155999,0.236 -29.826666,0.84933 -29.349332,13.21733 v 0 l 2.090666,9.164 8.521333,7.23467 15.113333,2.57333 27.172002,2.412 22.66933,-2.09067 35.85467,-7.31466 34.24666,0.72266 14.30933,-6.432 1.12534,-11.25333 0.012,-0.43333 c 0.67466,-24.96934 4.00933,-49.78 9.632,-74.12 v 0 c 7.796,-33.728 13.36,-69.965333 16.24133,-109.218665 v 0 c -18.868,-2.413333 -37.93866,-3.634667 -57.208,-3.636 v 0 c -16.39733,0 -32.936,0.884 -49.63066,2.670667"
             id="path2152"
             style="stroke-width:1.33333" />
        </g>
      </g>
    </clipPath>
    <clipPath
       clipPathUnits="userSpaceOnUse"
       id="clipPath2165">
      <g
         id="g2171">
        <g
           id="g2169">
          <path
             d="m 136.94902,42.141222 5.30533,86.097328 v 51.61067 c -3.03067,12.52533 -10.604,22.81466 -23.86667,30.30133 v 0 c -9.82133,5.54533 -20.962662,8.32 -32.238662,8.49467 v 0 c -15.155999,0.236 -29.826666,0.84933 -29.349332,13.21733 v 0 l 2.090666,9.164 8.521333,7.23467 15.113333,2.57333 27.172002,2.412 22.66933,-2.09067 35.85467,-7.31466 34.24666,0.72266 14.30933,-6.432 1.12534,-11.25333 0.012,-0.43333 c 0.67466,-24.96934 4.00933,-49.78 9.632,-74.12 v 0 c 7.796,-33.728 13.36,-69.965333 16.24133,-109.218665 v 0 c -18.868,-2.413333 -37.93866,-3.634667 -57.208,-3.636 v 0 c -16.39733,0 -32.936,0.884 -49.63066,2.670667"
             id="path2167"
             style="stroke-width:1.33333" />
        </g>
      </g>
    </clipPath>
    <clipPath
       clipPathUnits="userSpaceOnUse"
       id="clipPath2180">
      <g
         id="g2186">
        <g
           id="g2184">
          <path
             d="m 136.94902,42.141222 5.30533,86.097328 v 51.61067 c -3.03067,12.52533 -10.604,22.81466 -23.86667,30.30133 v 0 c -9.82133,5.54533 -20.962662,8.32 -32.238662,8.49467 v 0 c -15.155999,0.236 -29.826666,0.84933 -29.349332,13.21733 v 0 l 2.090666,9.164 8.521333,7.23467 15.113333,2.57333 27.172002,2.412 22.66933,-2.09067 35.85467,-7.31466 34.24666,0.72266 14.30933,-6.432 1.12534,-11.25333 0.012,-0.43333 c 0.67466,-24.96934 4.00933,-49.78 9.632,-74.12 v 0 c 7.796,-33.728 13.36,-69.965333 16.24133,-109.218665 v 0 c -18.868,-2.413333 -37.93866,-3.634667 -57.208,-3.636 v 0 c -16.39733,0 -32.936,0.884 -49.63066,2.670667"
             id="path2182"
             style="stroke-width:1.33333" />
        </g>
      </g>
    </clipPath>
    <clipPath
       clipPathUnits="userSpaceOnUse"
       id="clipPath2195">
      <g
         id="g2201">
        <g
           id="g2199">
          <path
             d="m 136.94902,42.141222 5.30533,86.097328 v 51.61067 c -3.03067,12.52533 -10.604,22.81466 -23.86667,30.30133 v 0 c -9.82133,5.54533 -20.962662,8.32 -32.238662,8.49467 v 0 c -15.155999,0.236 -29.826666,0.84933 -29.349332,13.21733 v 0 l 2.090666,9.164 8.521333,7.23467 15.113333,2.57333 27.172002,2.412 22.66933,-2.09067 35.85467,-7.31466 34.24666,0.72266 14.30933,-6.432 1.12534,-11.25333 0.012,-0.43333 c 0.67466,-24.96934 4.00933,-49.78 9.632,-74.12 v 0 c 7.796,-33.728 13.36,-69.965333 16.24133,-109.218665 v 0 c -18.868,-2.413333 -37.93866,-3.634667 -57.208,-3.636 v 0 c -16.39733,0 -32.936,0.884 -49.63066,2.670667"
             id="path2197"
             style="stroke-width:1.33333" />
        </g>
      </g>
    </clipPath>
    <clipPath
       clipPathUnits="userSpaceOnUse"
       id="clipPath2210">
      <g
         id="g2216">
        <g
           id="g2214">
          <path
             d="m 136.94902,42.141222 5.30533,86.097328 v 51.61067 c -3.03067,12.52533 -10.604,22.81466 -23.86667,30.30133 v 0 c -9.82133,5.54533 -20.962662,8.32 -32.238662,8.49467 v 0 c -15.155999,0.236 -29.826666,0.84933 -29.349332,13.21733 v 0 l 2.090666,9.164 8.521333,7.23467 15.113333,2.57333 27.172002,2.412 22.66933,-2.09067 35.85467,-7.31466 34.24666,0.72266 14.30933,-6.432 1.12534,-11.25333 0.012,-0.43333 c 0.67466,-24.96934 4.00933,-49.78 9.632,-74.12 v 0 c 7.796,-33.728 13.36,-69.965333 16.24133,-109.218665 v 0 c -18.868,-2.413333 -37.93866,-3.634667 -57.208,-3.636 v 0 c -16.39733,0 -32.936,0.884 -49.63066,2.670667"
             id="path2212"
             style="stroke-width:1.33333" />
        </g>
      </g>
    </clipPath>
    <clipPath
       clipPathUnits="userSpaceOnUse"
       id="clipPath2225">
      <g
         id="g2231">
        <g
           id="g2229">
          <path
             d="m 136.94902,42.141222 5.30533,86.097328 v 51.61067 c -3.03067,12.52533 -10.604,22.81466 -23.86667,30.30133 v 0 c -9.82133,5.54533 -20.962662,8.32 -32.238662,8.49467 v 0 c -15.155999,0.236 -29.826666,0.84933 -29.349332,13.21733 v 0 l 2.090666,9.164 8.521333,7.23467 15.113333,2.57333 27.172002,2.412 22.66933,-2.09067 35.85467,-7.31466 34.24666,0.72266 14.30933,-6.432 1.12534,-11.25333 0.012,-0.43333 c 0.67466,-24.96934 4.00933,-49.78 9.632,-74.12 v 0 c 7.796,-33.728 13.36,-69.965333 16.24133,-109.218665 v 0 c -18.868,-2.413333 -37.93866,-3.634667 -57.208,-3.636 v 0 c -16.39733,0 -32.936,0.884 -49.63066,2.670667"
             id="path2227"
             style="stroke-width:1.33333" />
        </g>
      </g>
    </clipPath>
    <clipPath
       clipPathUnits="userSpaceOnUse"
       id="clipPath2240">
      <g
         id="g2246">
        <g
           id="g2244">
          <path
             d="m 136.94902,42.141222 5.30533,86.097328 v 51.61067 c -3.03067,12.52533 -10.604,22.81466 -23.86667,30.30133 v 0 c -9.82133,5.54533 -20.962662,8.32 -32.238662,8.49467 v 0 c -15.155999,0.236 -29.826666,0.84933 -29.349332,13.21733 v 0 l 2.090666,9.164 8.521333,7.23467 15.113333,2.57333 27.172002,2.412 22.66933,-2.09067 35.85467,-7.31466 34.24666,0.72266 14.30933,-6.432 1.12534,-11.25333 0.012,-0.43333 c 0.67466,-24.96934 4.00933,-49.78 9.632,-74.12 v 0 c 7.796,-33.728 13.36,-69.965333 16.24133,-109.218665 v 0 c -18.868,-2.413333 -37.93866,-3.634667 -57.208,-3.636 v 0 c -16.39733,0 -32.936,0.884 -49.63066,2.670667"
             id="path2242"
             style="stroke-width:1.33333" />
        </g>
      </g>
    </clipPath>
    <clipPath
       clipPathUnits="userSpaceOnUse"
       id="clipPath2255">
      <g
         id="g2261">
        <g
           id="g2259">
          <path
             d="m 136.94902,42.141222 5.30533,86.097328 v 51.61067 c -3.03067,12.52533 -10.604,22.81466 -23.86667,30.30133 v 0 c -9.82133,5.54533 -20.962662,8.32 -32.238662,8.49467 v 0 c -15.155999,0.236 -29.826666,0.84933 -29.349332,13.21733 v 0 l 2.090666,9.164 8.521333,7.23467 15.113333,2.57333 27.172002,2.412 22.66933,-2.09067 35.85467,-7.31466 34.24666,0.72266 14.30933,-6.432 1.12534,-11.25333 0.012,-0.43333 c 0.67466,-24.96934 4.00933,-49.78 9.632,-74.12 v 0 c 7.796,-33.728 13.36,-69.965333 16.24133,-109.218665 v 0 c -18.868,-2.413333 -37.93866,-3.634667 -57.208,-3.636 v 0 c -16.39733,0 -32.936,0.884 -49.63066,2.670667"
             id="path2257"
             style="stroke-width:1.33333" />
        </g>
      </g>
    </clipPath>
    <clipPath
       clipPathUnits="userSpaceOnUse"
       id="clipPath2270">
      <g
         id="g2276">
        <g
           id="g2274">
          <path
             d="m 136.94902,42.141222 5.30533,86.097328 v 51.61067 c -3.03067,12.52533 -10.604,22.81466 -23.86667,30.30133 v 0 c -9.82133,5.54533 -20.962662,8.32 -32.238662,8.49467 v 0 c -15.155999,0.236 -29.826666,0.84933 -29.349332,13.21733 v 0 l 2.090666,9.164 8.521333,7.23467 15.113333,2.57333 27.172002,2.412 22.66933,-2.09067 35.85467,-7.31466 34.24666,0.72266 14.30933,-6.432 1.12534,-11.25333 0.012,-0.43333 c 0.67466,-24.96934 4.00933,-49.78 9.632,-74.12 v 0 c 7.796,-33.728 13.36,-69.965333 16.24133,-109.218665 v 0 c -18.868,-2.413333 -37.93866,-3.634667 -57.208,-3.636 v 0 c -16.39733,0 -32.936,0.884 -49.63066,2.670667"
             id="path2272"
             style="stroke-width:1.33333" />
        </g>
      </g>
    </clipPath>
  </defs>
  <path
     d="m 86.14862,218.64522 c -15.156,0.236 -29.82533,0.848 -29.348,13.21733 l 2.08933,9.164 8.52134,7.23467 15.11333,2.57333 27.172,2.412 22.67067,-2.09066 35.85333,-7.316 34.24666,0.724 14.30934,-6.43067 1.12533,-11.25467 0.012,-0.432 c 0.67467,-24.97066 4.01067,-49.78266 9.63333,-74.12133 7.796,-33.72933 13.35867,-69.965331 16.24,-109.218663 -34.92,-4.466667 -70.52266,-4.850667 -106.83733,-0.965334 l 5.30534,86.097337 v 51.61066 c -3.03334,12.52533 -10.60534,22.81467 -23.86667,30.30133 -9.82267,5.54534 -20.96267,8.32 -32.24,8.49467"
     style="fill:#05b0a1;fill-opacity:1;fill-rule:nonzero;stroke:none;stroke-width:1.33333"
     id="path861"
     clip-path="none" />
  <path
     d="m 150.60315,58.313888 c 0,2.672 -2.16667,4.837333 -4.83733,4.837333 -2.672,0 -4.83734,-2.165333 -4.83734,-4.837333 0,-2.672 2.16534,-4.837333 4.83734,-4.837333 2.67066,0 4.83733,2.165333 4.83733,4.837333"
     style="fill:#cddc47;fill-opacity:1;fill-rule:nonzero;stroke:none;stroke-width:1.33333"
     id="path873"
     clip-path="url(#clipPath2255)" />
  <path
     d="m 176.75675,58.313888 c 0,2.672 -2.16667,4.837333 -4.83733,4.837333 -2.672,0 -4.83734,-2.165333 -4.83734,-4.837333 0,-2.672 2.16534,-4.837333 4.83734,-4.837333 2.67066,0 4.83733,2.165333 4.83733,4.837333"
     style="fill:#cddc47;fill-opacity:1;fill-rule:nonzero;stroke:none;stroke-width:1.33333"
     id="path877"
     clip-path="url(#clipPath2270)" />
  <path
     d="m 202.91035,58.313888 c 0,2.672 -2.16667,4.837333 -4.83733,4.837333 -2.672,0 -4.83734,-2.165333 -4.83734,-4.837333 0,-2.672 2.16534,-4.837333 4.83734,-4.837333 2.67066,0 4.83733,2.165333 4.83733,4.837333"
     style="fill:#cddc47;fill-opacity:1;fill-rule:nonzero;stroke:none;stroke-width:1.33333"
     id="path881"
     clip-path="url(#clipPath2210)" />
  <path
     d="m 164.26982,80.018954 c 0,2.672 -2.16533,4.837333 -4.83867,4.837333 -2.672,0 -4.83733,-2.165333 -4.83733,-4.837333 0,-2.670667 2.16533,-4.837333 4.83733,-4.837333 2.67334,0 4.83867,2.166666 4.83867,4.837333"
     style="fill:#cddc47;fill-opacity:1;fill-rule:nonzero;stroke:none;stroke-width:1.33333"
     id="path885"
     clip-path="url(#clipPath2195)" />
  <path
     d="m 190.42342,80.018954 c 0,2.672 -2.16533,4.837333 -4.83733,4.837333 -2.67334,0 -4.83867,-2.165333 -4.83867,-4.837333 0,-2.670667 2.16533,-4.837333 4.83867,-4.837333 2.672,0 4.83733,2.166666 4.83733,4.837333"
     style="fill:#cddc47;fill-opacity:1;fill-rule:nonzero;stroke:none;stroke-width:1.33333"
     id="path889"
     clip-path="url(#clipPath2225)" />
  <path
     d="m 216.57701,80.018954 c 0,2.672 -2.16533,4.837333 -4.83867,4.837333 -2.672,0 -4.83733,-2.165333 -4.83733,-4.837333 0,-2.670667 2.16533,-4.837333 4.83733,-4.837333 2.67334,0 4.83867,2.166666 4.83867,4.837333"
     style="fill:#cddc47;fill-opacity:1;fill-rule:nonzero;stroke:none;stroke-width:1.33333"
     id="path893"
     clip-path="url(#clipPath2240)" />
  <path
     d="m 229.06408,58.313888 c 0,2.672 -2.16667,4.837333 -4.83733,4.837333 -2.672,0 -4.83734,-2.165333 -4.83734,-4.837333 0,-2.672 2.16534,-4.837333 4.83734,-4.837333 2.67066,0 4.83733,2.165333 4.83733,4.837333"
     style="fill:#cddc47;fill-opacity:1;fill-rule:nonzero;stroke:none;stroke-width:1.33333"
     id="path897"
     clip-path="url(#clipPath2180)" />
  <path
     d="m 150.60315,101.40309 c 0,2.672 -2.16667,4.83733 -4.83733,4.83733 -2.672,0 -4.83734,-2.16533 -4.83734,-4.83733 0,-2.672 2.16534,-4.837333 4.83734,-4.837333 2.67066,0 4.83733,2.165333 4.83733,4.837333"
     style="fill:#cddc47;fill-opacity:1;fill-rule:nonzero;stroke:none;stroke-width:1.33333"
     id="path901"
     clip-path="url(#clipPath1805)" />
  <path
     d="m 176.75675,101.40309 c 0,2.672 -2.16667,4.83733 -4.83733,4.83733 -2.672,0 -4.83734,-2.16533 -4.83734,-4.83733 0,-2.672 2.16534,-4.837333 4.83734,-4.837333 2.67066,0 4.83733,2.165333 4.83733,4.837333"
     style="fill:#cddc47;fill-opacity:1;fill-rule:nonzero;stroke:none;stroke-width:1.33333"
     id="path905"
     clip-path="url(#clipPath1835)" />
  <path
     d="m 202.91035,101.40309 c 0,2.672 -2.16667,4.83733 -4.83733,4.83733 -2.672,0 -4.83734,-2.16533 -4.83734,-4.83733 0,-2.672 2.16534,-4.837333 4.83734,-4.837333 2.67066,0 4.83733,2.165333 4.83733,4.837333"
     style="fill:#cddc47;fill-opacity:1;fill-rule:nonzero;stroke:none;stroke-width:1.33333"
     id="path909"
     clip-path="url(#clipPath1730)" />
  <path
     d="m 164.26982,123.10815 c 0,2.672 -2.16533,4.83733 -4.83867,4.83733 -2.672,0 -4.83733,-2.16533 -4.83733,-4.83733 0,-2.67067 2.16533,-4.83733 4.83733,-4.83733 2.67334,0 4.83867,2.16666 4.83867,4.83733"
     style="fill:#cddc47;fill-opacity:1;fill-rule:nonzero;stroke:none;stroke-width:1.33333"
     id="path913"
     clip-path="url(#clipPath1520)" />
  <path
     d="m 190.42342,123.10815 c 0,2.672 -2.16533,4.83733 -4.83733,4.83733 -2.67334,0 -4.83867,-2.16533 -4.83867,-4.83733 0,-2.67067 2.16533,-4.83733 4.83867,-4.83733 2.672,0 4.83733,2.16666 4.83733,4.83733"
     style="fill:#cddc47;fill-opacity:1;fill-rule:nonzero;stroke:none;stroke-width:1.33333"
     id="path917"
     clip-path="url(#clipPath1700)" />
  <path
     d="m 216.57701,123.10815 c 0,2.672 -2.16533,4.83733 -4.83867,4.83733 -2.672,0 -4.83733,-2.16533 -4.83733,-4.83733 0,-2.67067 2.16533,-4.83733 4.83733,-4.83733 2.67334,0 4.83867,2.16666 4.83867,4.83733"
     style="fill:#cddc47;fill-opacity:1;fill-rule:nonzero;stroke:none;stroke-width:1.33333"
     id="path921"
     clip-path="url(#clipPath1745)" />
  <path
     d="m 229.06408,101.40309 c 0,2.672 -2.16667,4.83733 -4.83733,4.83733 -2.672,0 -4.83734,-2.16533 -4.83734,-4.83733 0,-2.672 2.16534,-4.837333 4.83734,-4.837333 2.67066,0 4.83733,2.165333 4.83733,4.837333"
     style="fill:#cddc47;fill-opacity:1;fill-rule:nonzero;stroke:none;stroke-width:1.33333"
     id="path925"
     clip-path="url(#clipPath1775)" />
  <path
     d="m 150.60315,144.49229 c 0,2.672 -2.16667,4.83733 -4.83733,4.83733 -2.672,0 -4.83734,-2.16533 -4.83734,-4.83733 0,-2.672 2.16534,-4.83733 4.83734,-4.83733 2.67066,0 4.83733,2.16533 4.83733,4.83733"
     style="fill:#cddc47;fill-opacity:1;fill-rule:nonzero;stroke:none;stroke-width:1.33333"
     id="path929"
     clip-path="url(#clipPath1790)" />
  <path
     d="m 176.75675,144.49229 c 0,2.672 -2.16667,4.83733 -4.83733,4.83733 -2.672,0 -4.83734,-2.16533 -4.83734,-4.83733 0,-2.672 2.16534,-4.83733 4.83734,-4.83733 2.67066,0 4.83733,2.16533 4.83733,4.83733"
     style="fill:#cddc47;fill-opacity:1;fill-rule:nonzero;stroke:none;stroke-width:1.33333"
     id="path933"
     clip-path="url(#clipPath1850)" />
  <path
     d="m 202.91035,144.49229 c 0,2.672 -2.16667,4.83733 -4.83733,4.83733 -2.672,0 -4.83734,-2.16533 -4.83734,-4.83733 0,-2.672 2.16534,-4.83733 4.83734,-4.83733 2.67066,0 4.83733,2.16533 4.83733,4.83733"
     style="fill:#cddc47;fill-opacity:1;fill-rule:nonzero;stroke:none;stroke-width:1.33333"
     id="path937"
     clip-path="url(#clipPath1955)" />
  <path
     d="m 164.26982,166.19735 c 0,2.672 -2.16533,4.83733 -4.83867,4.83733 -2.672,0 -4.83733,-2.16533 -4.83733,-4.83733 0,-2.67067 2.16533,-4.83733 4.83733,-4.83733 2.67334,0 4.83867,2.16666 4.83867,4.83733"
     style="fill:#cddc47;fill-opacity:1;fill-rule:nonzero;stroke:none;stroke-width:1.33333"
     id="path941"
     clip-path="url(#clipPath1565)" />
  <path
     d="m 190.42342,166.19735 c 0,2.672 -2.16533,4.83733 -4.83733,4.83733 -2.67334,0 -4.83867,-2.16533 -4.83867,-4.83733 0,-2.67067 2.16533,-4.83733 4.83867,-4.83733 2.672,0 4.83733,2.16666 4.83733,4.83733"
     style="fill:#cddc47;fill-opacity:1;fill-rule:nonzero;stroke:none;stroke-width:1.33333"
     id="path945"
     clip-path="url(#clipPath1910)" />
  <path
     d="m 216.57701,166.19735 c 0,2.672 -2.16533,4.83733 -4.83867,4.83733 -2.672,0 -4.83733,-2.16533 -4.83733,-4.83733 0,-2.67067 2.16533,-4.83733 4.83733,-4.83733 2.67334,0 4.83867,2.16666 4.83867,4.83733"
     style="fill:#cddc47;fill-opacity:1;fill-rule:nonzero;stroke:none;stroke-width:1.33333"
     id="path949"
     clip-path="url(#clipPath1895)" />
  <path
     d="m 229.06408,144.49229 c 0,2.672 -2.16667,4.83733 -4.83733,4.83733 -2.672,0 -4.83734,-2.16533 -4.83734,-4.83733 0,-2.672 2.16534,-4.83733 4.83734,-4.83733 2.67066,0 4.83733,2.16533 4.83733,4.83733"
     style="fill:#cddc47;fill-opacity:1;fill-rule:nonzero;stroke:none;stroke-width:1.33333"
     id="path953"
     clip-path="url(#clipPath1880)" />
  <path
     d="m 150.60315,187.58135 c 0,2.67067 -2.16667,4.83733 -4.83733,4.83733 -2.672,0 -4.83734,-2.16666 -4.83734,-4.83733 0,-2.672 2.16534,-4.83733 4.83734,-4.83733 2.67066,0 4.83733,2.16533 4.83733,4.83733"
     style="fill:#cddc47;fill-opacity:1;fill-rule:nonzero;stroke:none;stroke-width:1.33333"
     id="path957"
     clip-path="url(#clipPath1865)" />
  <path
     d="m 176.75675,187.58135 c 0,2.67067 -2.16667,4.83733 -4.83733,4.83733 -2.672,0 -4.83734,-2.16666 -4.83734,-4.83733 0,-2.672 2.16534,-4.83733 4.83734,-4.83733 2.67066,0 4.83733,2.16533 4.83733,4.83733"
     style="fill:#cddc47;fill-opacity:1;fill-rule:nonzero;stroke:none;stroke-width:1.33333"
     id="path961"
     clip-path="url(#clipPath1715)" />
  <path
     d="m 202.91035,187.58135 c 0,2.67067 -2.16667,4.83733 -4.83733,4.83733 -2.672,0 -4.83734,-2.16666 -4.83734,-4.83733 0,-2.672 2.16534,-4.83733 4.83734,-4.83733 2.67066,0 4.83733,2.16533 4.83733,4.83733"
     style="fill:#cddc47;fill-opacity:1;fill-rule:nonzero;stroke:none;stroke-width:1.33333"
     id="path965"
     clip-path="url(#clipPath1970)" />
  <path
     d="m 164.26982,209.28655 c 0,2.672 -2.16533,4.83733 -4.83867,4.83733 -2.672,0 -4.83733,-2.16533 -4.83733,-4.83733 0,-2.67067 2.16533,-4.83733 4.83733,-4.83733 2.67334,0 4.83867,2.16666 4.83867,4.83733"
     style="fill:#cddc47;fill-opacity:1;fill-rule:nonzero;stroke:none;stroke-width:1.33333"
     id="path969"
     clip-path="url(#clipPath2075)" />
  <path
     d="m 190.42342,209.28655 c 0,2.672 -2.16533,4.83733 -4.83733,4.83733 -2.67334,0 -4.83867,-2.16533 -4.83867,-4.83733 0,-2.67067 2.16533,-4.83733 4.83867,-4.83733 2.672,0 4.83733,2.16666 4.83733,4.83733"
     style="fill:#cddc47;fill-opacity:1;fill-rule:nonzero;stroke:none;stroke-width:1.33333"
     id="path973"
     clip-path="url(#clipPath2090)" />
  <path
     d="m 216.57701,209.28655 c 0,2.672 -2.16533,4.83733 -4.83867,4.83733 -2.672,0 -4.83733,-2.16533 -4.83733,-4.83733 0,-2.67067 2.16533,-4.83733 4.83733,-4.83733 2.67334,0 4.83867,2.16666 4.83867,4.83733"
     style="fill:#cddc47;fill-opacity:1;fill-rule:nonzero;stroke:none;stroke-width:1.33333"
     id="path977"
     clip-path="url(#clipPath2045)" />
  <path
     d="m 229.06408,187.58135 c 0,2.67067 -2.16667,4.83733 -4.83733,4.83733 -2.672,0 -4.83734,-2.16666 -4.83734,-4.83733 0,-2.672 2.16534,-4.83733 4.83734,-4.83733 2.67066,0 4.83733,2.16533 4.83733,4.83733"
     style="fill:#cddc47;fill-opacity:1;fill-rule:nonzero;stroke:none;stroke-width:1.33333"
     id="path981"
     clip-path="url(#clipPath2060)" />
  <path
     d="m 150.60315,230.67055 c 0,2.67067 -2.16667,4.83733 -4.83733,4.83733 -2.672,0 -4.83734,-2.16666 -4.83734,-4.83733 0,-2.672 2.16534,-4.83733 4.83734,-4.83733 2.67066,0 4.83733,2.16533 4.83733,4.83733"
     style="fill:#cddc47;fill-opacity:1;fill-rule:nonzero;stroke:none;stroke-width:1.33333"
     id="path985"
     clip-path="url(#clipPath2120)" />
  <path
     d="m 176.75675,230.67055 c 0,2.67067 -2.16667,4.83733 -4.83733,4.83733 -2.672,0 -4.83734,-2.16666 -4.83734,-4.83733 0,-2.672 2.16534,-4.83733 4.83734,-4.83733 2.67066,0 4.83733,2.16533 4.83733,4.83733"
     style="fill:#cddc47;fill-opacity:1;fill-rule:nonzero;stroke:none;stroke-width:1.33333"
     id="path989"
     clip-path="url(#clipPath1940)" />
  <path
     d="m 202.91035,230.67055 c 0,2.67067 -2.16667,4.83733 -4.83733,4.83733 -2.672,0 -4.83734,-2.16666 -4.83734,-4.83733 0,-2.672 2.16534,-4.83733 4.83734,-4.83733 2.67066,0 4.83733,2.16533 4.83733,4.83733"
     style="fill:#cddc47;fill-opacity:1;fill-rule:nonzero;stroke:none;stroke-width:1.33333"
     id="path993"
     clip-path="url(#clipPath2015)" />
  <path
     d="m 164.26982,252.37575 c 0,2.672 -2.16533,4.83733 -4.83867,4.83733 -2.672,0 -4.83733,-2.16533 -4.83733,-4.83733 0,-2.672 2.16533,-4.83733 4.83733,-4.83733 2.67334,0 4.83867,2.16533 4.83867,4.83733"
     style="fill:#cddc47;fill-opacity:1;fill-rule:nonzero;stroke:none;stroke-width:1.33333"
     id="path997"
     clip-path="url(#clipPath2150)" />
  <path
     d="m 190.42342,252.37575 c 0,2.672 -2.16533,4.83733 -4.83733,4.83733 -2.67334,0 -4.83867,-2.16533 -4.83867,-4.83733 0,-2.672 2.16533,-4.83733 4.83867,-4.83733 2.672,0 4.83733,2.16533 4.83733,4.83733"
     style="fill:#cddc47;fill-opacity:1;fill-rule:nonzero;stroke:none;stroke-width:1.33333"
     id="path1001"
     clip-path="url(#clipPath1595)" />
  <path
     d="m 216.57701,252.37575 c 0,2.672 -2.16533,4.83733 -4.83867,4.83733 -2.672,0 -4.83733,-2.16533 -4.83733,-4.83733 0,-2.672 2.16533,-4.83733 4.83733,-4.83733 2.67334,0 4.83867,2.16533 4.83867,4.83733"
     style="fill:#cddc47;fill-opacity:1;fill-rule:nonzero;stroke:none;stroke-width:1.33333"
     id="path1005"
     clip-path="url(#clipPath1580)" />
  <path
     d="m 229.06408,230.67055 c 0,2.67067 -2.16667,4.83733 -4.83733,4.83733 -2.672,0 -4.83734,-2.16666 -4.83734,-4.83733 0,-2.672 2.16534,-4.83733 4.83734,-4.83733 2.67066,0 4.83733,2.16533 4.83733,4.83733"
     style="fill:#cddc47;fill-opacity:1;fill-rule:nonzero;stroke:none;stroke-width:1.33333"
     id="path1009"
     clip-path="url(#clipPath1760)" />
  <path
     d="m 72.142085,187.58135 c 0,2.67067 -2.166667,4.83733 -4.837333,4.83733 -2.672,0 -4.837333,-2.16666 -4.837333,-4.83733 0,-2.672 2.165333,-4.83733 4.837333,-4.83733 2.670666,0 4.837333,2.16533 4.837333,4.83733"
     style="fill:#cddc47;fill-opacity:1;fill-rule:nonzero;stroke:none;stroke-width:1.33333"
     id="path1013"
     clip-path="url(#clipPath1925)" />
  <path
     d="m 98.295818,187.58135 c 0,2.67067 -2.166667,4.83733 -4.837333,4.83733 -2.672,0 -4.837333,-2.16666 -4.837333,-4.83733 0,-2.672 2.165333,-4.83733 4.837333,-4.83733 2.670666,0 4.837333,2.16533 4.837333,4.83733"
     style="fill:#cddc47;fill-opacity:1;fill-rule:nonzero;stroke:none;stroke-width:1.33333"
     id="path1017"
     clip-path="url(#clipPath2000)" />
  <path
     d="m 124.44942,187.58135 c 0,2.67067 -2.16667,4.83733 -4.83733,4.83733 -2.672,0 -4.83734,-2.16666 -4.83734,-4.83733 0,-2.672 2.16534,-4.83733 4.83734,-4.83733 2.67066,0 4.83733,2.16533 4.83733,4.83733"
     style="fill:#cddc47;fill-opacity:1;fill-rule:nonzero;stroke:none;stroke-width:1.33333"
     id="path1021"
     clip-path="url(#clipPath2030)" />
  <path
     d="m 85.808751,209.28655 c 0,2.672 -2.165333,4.83733 -4.838667,4.83733 -2.671999,0 -4.837333,-2.16533 -4.837333,-4.83733 0,-2.67067 2.165334,-4.83733 4.837333,-4.83733 2.673334,0 4.838667,2.16666 4.838667,4.83733"
     style="fill:#cddc47;fill-opacity:1;fill-rule:nonzero;stroke:none;stroke-width:1.33333"
     id="path1025"
     clip-path="url(#clipPath2105)" />
  <path
     d="m 111.96248,209.28655 c 0,2.672 -2.16533,4.83733 -4.83733,4.83733 -2.67334,0 -4.83867,-2.16533 -4.83867,-4.83733 0,-2.67067 2.16533,-4.83733 4.83867,-4.83733 2.672,0 4.83733,2.16666 4.83733,4.83733"
     style="fill:#cddc47;fill-opacity:1;fill-rule:nonzero;stroke:none;stroke-width:1.33333"
     id="path1029"
     clip-path="url(#clipPath1550)" />
  <path
     d="m 138.11608,209.28655 c 0,2.672 -2.16533,4.83733 -4.83867,4.83733 -2.672,0 -4.83733,-2.16533 -4.83733,-4.83733 0,-2.67067 2.16533,-4.83733 4.83733,-4.83733 2.67334,0 4.83867,2.16666 4.83867,4.83733"
     style="fill:#cddc47;fill-opacity:1;fill-rule:nonzero;stroke:none;stroke-width:1.33333"
     id="path1033"
     clip-path="url(#clipPath1505)" />
  <path
     d="m 150.60315,187.58135 c 0,2.67067 -2.16667,4.83733 -4.83733,4.83733 -2.672,0 -4.83734,-2.16666 -4.83734,-4.83733 0,-2.672 2.16534,-4.83733 4.83734,-4.83733 2.67066,0 4.83733,2.16533 4.83733,4.83733"
     style="fill:#cddc47;fill-opacity:1;fill-rule:nonzero;stroke:none;stroke-width:1.33333"
     id="path1037"
     clip-path="url(#clipPath1670)" />
  <path
     d="m 72.142085,230.67055 c 0,2.67067 -2.166667,4.83733 -4.837333,4.83733 -2.672,0 -4.837333,-2.16666 -4.837333,-4.83733 0,-2.672 2.165333,-4.83733 4.837333,-4.83733 2.670666,0 4.837333,2.16533 4.837333,4.83733"
     style="fill:#cddc47;fill-opacity:1;fill-rule:nonzero;stroke:none;stroke-width:1.33333"
     id="path1041"
     clip-path="url(#clipPath1685)" />
  <path
     d="m 98.295818,230.67055 c 0,2.67067 -2.166667,4.83733 -4.837333,4.83733 -2.672,0 -4.837333,-2.16666 -4.837333,-4.83733 0,-2.672 2.165333,-4.83733 4.837333,-4.83733 2.670666,0 4.837333,2.16533 4.837333,4.83733"
     style="fill:#cddc47;fill-opacity:1;fill-rule:nonzero;stroke:none;stroke-width:1.33333"
     id="path1045"
     clip-path="url(#clipPath1640)" />
  <path
     d="m 124.44942,230.67055 c 0,2.67067 -2.16667,4.83733 -4.83733,4.83733 -2.672,0 -4.83734,-2.16666 -4.83734,-4.83733 0,-2.672 2.16534,-4.83733 4.83734,-4.83733 2.67066,0 4.83733,2.16533 4.83733,4.83733"
     style="fill:#cddc47;fill-opacity:1;fill-rule:nonzero;stroke:none;stroke-width:1.33333"
     id="path1049"
     clip-path="url(#clipPath1475)" />
  <path
     d="m 85.808751,252.37575 c 0,2.672 -2.165333,4.83733 -4.838667,4.83733 -2.671999,0 -4.837333,-2.16533 -4.837333,-4.83733 0,-2.672 2.165334,-4.83733 4.837333,-4.83733 2.673334,0 4.838667,2.16533 4.838667,4.83733"
     style="fill:#cddc47;fill-opacity:1;fill-rule:nonzero;stroke:none;stroke-width:1.33333"
     id="path1053"
     clip-path="url(#clipPath1985)" />
  <path
     d="m 111.96248,252.37575 c 0,2.672 -2.16533,4.83733 -4.83733,4.83733 -2.67334,0 -4.83867,-2.16533 -4.83867,-4.83733 0,-2.672 2.16533,-4.83733 4.83867,-4.83733 2.672,0 4.83733,2.16533 4.83733,4.83733"
     style="fill:#cddc47;fill-opacity:1;fill-rule:nonzero;stroke:none;stroke-width:1.33333"
     id="path1057"
     clip-path="url(#clipPath2135)" />
  <path
     d="m 138.11608,252.37575 c 0,2.672 -2.16533,4.83733 -4.83867,4.83733 -2.672,0 -4.83733,-2.16533 -4.83733,-4.83733 0,-2.672 2.16533,-4.83733 4.83733,-4.83733 2.67334,0 4.83867,2.16533 4.83867,4.83733"
     style="fill:#cddc47;fill-opacity:1;fill-rule:nonzero;stroke:none;stroke-width:1.33333"
     id="path1061"
     clip-path="url(#clipPath1655)" />
  <path
     d="m 150.60315,230.67055 c 0,2.67067 -2.16667,4.83733 -4.83733,4.83733 -2.672,0 -4.83734,-2.16666 -4.83734,-4.83733 0,-2.672 2.16534,-4.83733 4.83734,-4.83733 2.67066,0 4.83733,2.16533 4.83733,4.83733"
     style="fill:#cddc47;fill-opacity:1;fill-rule:nonzero;stroke:none;stroke-width:1.33333"
     id="path1065"
     clip-path="url(#clipPath1820)" />
  <path
     d="m 72.142085,273.75975 c 0,2.67067 -2.166667,4.83733 -4.837333,4.83733 -2.672,0 -4.837333,-2.16666 -4.837333,-4.83733 0,-2.672 2.165333,-4.83733 4.837333,-4.83733 2.670666,0 4.837333,2.16533 4.837333,4.83733"
     style="fill:#cddc47;fill-opacity:1;fill-rule:nonzero;stroke:none;stroke-width:1.33333"
     id="path1069"
     clip-path="url(#clipPath1625)" />
  <path
     d="m 98.295818,273.75975 c 0,2.67067 -2.166667,4.83733 -4.837333,4.83733 -2.672,0 -4.837333,-2.16666 -4.837333,-4.83733 0,-2.672 2.165333,-4.83733 4.837333,-4.83733 2.670666,0 4.837333,2.16533 4.837333,4.83733"
     style="fill:#cddc47;fill-opacity:1;fill-rule:nonzero;stroke:none;stroke-width:1.33333"
     id="path1073"
     clip-path="url(#clipPath1610)" />
  <path
     d="m 124.44942,273.75975 c 0,2.67067 -2.16667,4.83733 -4.83733,4.83733 -2.672,0 -4.83734,-2.16666 -4.83734,-4.83733 0,-2.672 2.16534,-4.83733 4.83734,-4.83733 2.67066,0 4.83733,2.16533 4.83733,4.83733"
     style="fill:#cddc47;fill-opacity:1;fill-rule:nonzero;stroke:none;stroke-width:1.33333"
     id="path1077"
     clip-path="url(#clipPath1535)" />
  <path
     d="m 85.808751,295.46482 c 0,2.672 -2.165333,4.83733 -4.838667,4.83733 -2.671999,0 -4.837333,-2.16533 -4.837333,-4.83733 0,-2.672 2.165334,-4.83733 4.837333,-4.83733 2.673334,0 4.838667,2.16533 4.838667,4.83733"
     style="fill:#cddc47;fill-opacity:1;fill-rule:nonzero;stroke:none;stroke-width:1.33333"
     id="path1081"
     clip-path="url(#clipPath1445)" />
  <path
     d="m 111.96248,295.46482 c 0,2.672 -2.16533,4.83733 -4.83733,4.83733 -2.67334,0 -4.83867,-2.16533 -4.83867,-4.83733 0,-2.672 2.16533,-4.83733 4.83867,-4.83733 2.672,0 4.83733,2.16533 4.83733,4.83733"
     style="fill:#cddc47;fill-opacity:1;fill-rule:nonzero;stroke:none;stroke-width:1.33333"
     id="path1085"
     clip-path="url(#clipPath1460)" />
  <path
     d="m 138.11608,295.46482 c 0,2.672 -2.16533,4.83733 -4.83867,4.83733 -2.672,0 -4.83733,-2.16533 -4.83733,-4.83733 0,-2.672 2.16533,-4.83733 4.83733,-4.83733 2.67334,0 4.83867,2.16533 4.83867,4.83733"
     style="fill:#cddc47;fill-opacity:1;fill-rule:nonzero;stroke:none;stroke-width:1.33333"
     id="path1089"
     clip-path="url(#clipPath1490)" />
  <path
     d="m 150.60315,273.75975 c 0,2.67067 -2.16667,4.83733 -4.83733,4.83733 -2.672,0 -4.83734,-2.16666 -4.83734,-4.83733 0,-2.672 2.16534,-4.83733 4.83734,-4.83733 2.67066,0 4.83733,2.16533 4.83733,4.83733"
     style="fill:#cddc47;fill-opacity:1;fill-rule:nonzero;stroke:none;stroke-width:1.33333"
     id="path1093"
     clip-path="url(#clipPath2165)" />
  <path
     d="m 217.90261,226.87828 c 0.28,15.16667 1.736,31.556 -13.66667,30.388 v -4.664 h -1.608 l -6.18933,6.19067 h -11.81733 v -4.42134 h -0.96534 l -4.944,4.944 h -10.812 v -10.41066 l -36.97999,8.52133 -4.34134,-3.53733 v 5.42666 l -11.09333,1.48667 -5.30533,-4.18 v 4.18 H 98.92528 l -5.788,-5.46667 v 4.34134 l -9.648,-0.96534 -6.590666,-6.10933 h -0.804 v 3.69867 c -13.92,-3.10267 -22.230667,-9.984 -19.294667,-24.43867 2.312,8.27333 11.278667,13.76533 26.689333,16.56 22.83467,3.62533 43.06933,3.25067 59.972,-2.25067 14.19733,-3.68533 32.22533,-5.7 52.42133,-6.768 1.448,-0.0773 2.90133,-0.12533 4.352,-0.0973 11.044,0.216 17.87333,-3.132 17.668,-12.428"
     style="fill:#f58b1f;fill-opacity:1;fill-rule:nonzero;stroke:none;stroke-width:1.33333"
     id="path1105"
     clip-path="none" />
  <path
     d="m 136.94942,42.141354 c 35.612,8.038666 71.22533,8.361333 106.83866,0.965333 -30.06533,-4.824 -81.35466,-5.226666 -106.83866,-0.965333"
     style="fill:#088475;fill-opacity:1;fill-rule:nonzero;stroke:none;stroke-width:1.33333"
     id="path1109"
     clip-path="none" />
</svg>
