<?xml version="1.0" encoding="UTF-8" standalone="no"?>
<!-- Created with Inkscape (http://www.inkscape.org/) -->

<svg
   version="1.1"
   id="svg18"
   width="300"
   height="150"
   viewBox="0 0 299.99999 150"
   sodipodi:docname="1003_word.svg"
   inkscape:version="1.2.1 (9c6d41e410, 2022-07-14)"
   xmlns:inkscape="http://www.inkscape.org/namespaces/inkscape"
   xmlns:sodipodi="http://sodipodi.sourceforge.net/DTD/sodipodi-0.dtd"
   xmlns="http://www.w3.org/2000/svg"
   xmlns:svg="http://www.w3.org/2000/svg">
  <sodipodi:namedview
     id="namedview695"
     pagecolor="#ffffff"
     bordercolor="#000000"
     borderopacity="0.25"
     inkscape:showpageshadow="2"
     inkscape:pageopacity="0.0"
     inkscape:pagecheckerboard="0"
     inkscape:deskcolor="#d1d1d1"
     showgrid="false"
     inkscape:zoom="6.9721284"
     inkscape:cx="64.470987"
     inkscape:cy="66.407268"
     inkscape:window-width="3416"
     inkscape:window-height="1396"
     inkscape:window-x="8"
     inkscape:window-y="28"
     inkscape:window-maximized="1"
     inkscape:current-layer="svg18" />
  <defs
     id="defs22">
    <clipPath
       clipPathUnits="userSpaceOnUse"
       id="clipPath3334">
      <path
         d="M 0,340.157 H 226.772 V 0 H 0 Z"
         id="path3332" />
    </clipPath>
  </defs>
  <g
     id="g3244"
     transform="matrix(1.3333333,0,0,-1.3333333,-1.1814629,310.75173)">
    <g
       id="g3328">
      <g
         id="g3330"
         clip-path="url(#clipPath3334)">
        <g
           id="g3336"
           transform="translate(135.1639,165.1707)">
          <path
             d="m 0,0 c -3.19,0 -5.573,0.307 -7.147,0.92 -1.576,0.614 -2.618,1.39 -3.129,2.331 -0.512,0.941 -0.767,1.881 -0.767,2.822 0,1.267 0.449,2.433 1.35,3.497 0.899,1.063 2.086,1.595 3.558,1.595 1.922,0 3.537,-0.951 4.846,-2.852 C 0.02,6.411 0.756,3.64 0.92,0 Z M 11.993,-0.644 C 11.358,-0.215 10.592,0 9.692,0 H 5.03 C 4.907,4.171 4.272,7.402 3.128,9.693 c -1.146,2.29 -2.505,3.885 -4.079,4.785 -1.575,0.899 -3.037,1.35 -4.387,1.35 -2.659,0 -4.929,-1.034 -6.809,-3.099 -1.881,-2.065 -2.822,-4.488 -2.822,-7.269 0,-1.882 0.408,-3.661 1.227,-5.337 0.817,-1.678 2.239,-3.037 4.263,-4.08 2.025,-1.043 4.877,-1.564 8.558,-1.564 h 1.228 c -0.86,-3.353 -2.476,-6.166 -4.847,-8.436 -2.372,-2.269 -5.297,-3.404 -8.773,-3.404 -1.84,0 -3.354,0.153 -4.54,0.46 -1.186,0.307 -2.291,0.747 -3.312,1.319 l -0.92,-3.865 c 2.248,-2.003 5.337,-3.006 9.263,-3.006 4.295,0 8.026,1.595 11.196,4.785 3.169,3.19 5.245,7.239 6.227,12.147 h 5.091 c 2.167,0 3.251,0.94 3.251,2.822 0,0.94 -0.316,1.625 -0.95,2.055"
             style="fill:#f91536;fill-opacity:1;fill-rule:nonzero;stroke:none"
             id="path3338" />
        </g>
        <g
           id="g3340"
           transform="translate(159.8866,194.1878)">
          <path
             d="m 0,0 c 0,-2.004 -1.043,-3.088 -3.129,-3.251 -0.899,0 -1.625,0.285 -2.178,0.858 -0.551,0.573 -0.828,1.371 -0.828,2.393 0,1.963 1.002,3.046 3.006,3.251 C -1.207,3.251 -0.164,2.167 0,0 m -8.221,0 c 0,-2.004 -1.043,-3.088 -3.128,-3.251 -0.9,0 -1.647,0.285 -2.239,0.858 -0.594,0.573 -0.89,1.371 -0.89,2.393 0,1.963 1.043,3.046 3.129,3.251 0.941,0 1.697,-0.297 2.27,-0.889 C -8.507,1.769 -8.221,0.981 -8.221,0 m -3.68,-34.538 -3.129,0.061 c -0.245,0 -0.957,0.169 -1.718,0.981 -0.569,0.61 -0.508,2.915 0.061,3.62 0.721,0.892 1.495,0.981 1.657,0.981 l 3.435,-0.061 c 4.417,0 7.301,0.47 8.651,1.411 l 0.123,0.491 c 0.162,0.531 0.245,1.166 0.245,1.902 0,0.736 -0.144,1.472 -0.43,2.208 -0.286,0.736 -0.818,1.718 -1.595,2.945 l -1.043,1.779 4.479,1.779 c 1.799,-3.354 2.699,-6.728 2.699,-10.122 0,-1.678 -0.328,-3.334 -0.981,-4.969 -0.737,-0.778 -1.964,-1.472 -3.682,-2.086 -1.718,-0.613 -4.642,-0.92 -8.772,-0.92 m -52.022,29.14 c 0,-2.005 -1.043,-3.089 -3.129,-3.252 -0.9,0 -1.626,0.286 -2.177,0.859 -0.552,0.572 -0.829,1.37 -0.829,2.393 0,1.962 1.002,3.046 3.006,3.251 1.922,0 2.965,-1.084 3.129,-3.251 m -8.221,0 c 0,-2.005 -1.043,-3.089 -3.128,-3.252 -0.9,0 -1.647,0.286 -2.24,0.859 -0.592,0.572 -0.888,1.37 -0.888,2.393 0,1.962 1.043,3.046 3.128,3.251 0.94,0 1.697,-0.297 2.27,-0.89 0.572,-0.593 0.858,-1.38 0.858,-2.361 m 24.723,-25.644 c -7.402,-3.189 -15.93,-4.785 -25.581,-4.785 -14.355,0 -21.533,5.439 -21.533,16.319 0,2.78 0.449,5.316 1.349,7.607 l 3.313,-0.675 c -0.45,-1.595 -0.675,-3.313 -0.675,-5.153 0,-8.385 5.951,-12.598 17.853,-12.638 9.324,0 16.522,1.043 21.593,3.129 0.04,0.327 0.062,0.736 0.062,1.227 -0.123,4.334 -1.575,9.058 -4.356,14.171 l 4.417,1.227 c 1.063,-1.882 2.025,-4.213 2.883,-6.993 0.86,-2.782 1.289,-5.747 1.289,-8.896 0,-1.881 -0.206,-3.395 -0.614,-4.54"
             style="fill:#1d1d1b;fill-opacity:1;fill-rule:nonzero;stroke:none"
             id="path3342" />
        </g>
      </g>
    </g>
  </g>
</svg>
