<?xml version="1.0" encoding="UTF-8" standalone="no"?>
<!-- Created with Inkscape (http://www.inkscape.org/) -->

<svg
   version="1.1"
   id="svg18"
   width="300"
   height="300"
   viewBox="0 0 300 300"
   sodipodi:docname="1003_pic.svg"
   inkscape:version="1.2.1 (9c6d41e410, 2022-07-14)"
   xmlns:inkscape="http://www.inkscape.org/namespaces/inkscape"
   xmlns:sodipodi="http://sodipodi.sourceforge.net/DTD/sodipodi-0.dtd"
   xmlns="http://www.w3.org/2000/svg"
   xmlns:svg="http://www.w3.org/2000/svg">
  <sodipodi:namedview
     id="namedview1572"
     pagecolor="#ffffff"
     bordercolor="#000000"
     borderopacity="0.25"
     inkscape:showpageshadow="2"
     inkscape:pageopacity="0.0"
     inkscape:pagecheckerboard="0"
     inkscape:deskcolor="#d1d1d1"
     showgrid="false"
     inkscape:zoom="1.5051745"
     inkscape:cx="-17.938119"
     inkscape:cy="220.57243"
     inkscape:window-width="1351"
     inkscape:window-height="1396"
     inkscape:window-x="1040"
     inkscape:window-y="28"
     inkscape:window-maximized="1"
     inkscape:current-layer="svg18" />
  <defs
     id="defs22" />
  <g
     id="g1146"
     transform="matrix(1.3333333,0,0,-1.3333333,-1.1807047,376.7716)">
    <path
       d="m 166.1327,192.1101 c -0.832,0 -1.62,0.49 -1.96,1.307 -0.36,0.862 -8.697,21.3 3.184,34.638 0.779,0.877 2.122,0.952 2.999,0.172 0.877,-0.78 0.955,-2.123 0.173,-2.998 -10.09,-11.33 -2.512,-29.989 -2.434,-30.178 0.45,-1.083 -0.064,-2.326 -1.146,-2.777 -0.265,-0.113 -0.545,-0.164 -0.816,-0.164"
       style="fill:#498c2a;fill-opacity:1;fill-rule:nonzero;stroke:none"
       id="path1204" />
    <path
       d="m 192.0399,184.1199 c 0.04,-0.712 -0.023,-1.409 -0.174,-2.069 -0.121,-0.556 -0.311,-1.09 -0.554,-1.592 -0.711,-1.47 -1.891,-2.677 -3.358,-3.406 0.625,-1.024 1.016,-2.21 1.086,-3.494 0.039,-0.711 -0.021,-1.405 -0.172,-2.067 -0.509,-2.267 -2.053,-4.155 -4.13,-5.103 -0.806,-0.368 -1.69,-0.594 -2.625,-0.646 -0.029,-0.002 -0.057,0 -0.086,-0.002 0.077,-0.371 0.132,-0.752 0.153,-1.141 0.04,-0.711 -0.024,-1.403 -0.173,-2.065 -0.708,-3.144 -3.408,-5.567 -6.756,-5.751 -0.649,-0.037 -1.287,0.018 -1.894,0.146 -0.84,-2.952 -3.451,-5.181 -6.652,-5.358 -3.727,-0.205 -6.956,2.431 -7.625,6.039 -0.853,-0.412 -1.795,-0.671 -2.797,-0.729 -4.049,-0.221 -7.517,2.92 -7.742,7.01 -0.04,0.729 0.028,1.441 0.185,2.116 -2.728,0.966 -4.747,3.511 -4.918,6.603 -0.049,0.873 0.058,1.719 0.289,2.515 -2.185,1.182 -3.722,3.453 -3.87,6.139 -0.144,2.618 1.075,4.992 3.034,6.424 0.11,0.079 0.223,0.158 0.339,0.232 -0.037,0.207 -0.067,0.414 -0.089,0.629 -0.012,0.109 -0.021,0.217 -0.026,0.328 -0.145,2.623 1.076,5 3.039,6.428 1.099,0.802 2.432,1.305 3.887,1.386 2.738,0.151 5.204,-1.234 6.587,-3.41 1.137,2.317 3.44,3.963 6.175,4.112 2.574,0.144 4.912,-1.071 6.334,-3.03 1.12,2.359 3.445,4.04 6.214,4.193 4.05,0.223 7.516,-2.912 7.741,-7.005 0.01,-0.174 0.015,-0.349 0.009,-0.52 0.273,0.046 0.547,0.081 0.83,0.096 4.048,0.223 7.514,-2.916 7.739,-7.008"
       style="fill:#b51f18;fill-opacity:1;fill-rule:nonzero;stroke:none"
       id="path1208" />
    <path
       d="m 191.6288,212.0862 c -0.116,-0.35 -8.495,-24.926 -24.074,-20.536 -1.403,0.395 -2.864,1.024 -4.384,1.931 0,0 -9.83,-6.21 -14.174,5.94 -4.342,12.147 -2.225,15.354 -2.225,15.354 l 10.25,-16.09 9.335,14.606 0.164,0.254 5.599,-14.951 z"
       style="fill:#498c2a;fill-opacity:1;fill-rule:nonzero;stroke:none"
       id="path1212" />
    <path
       d="m 166.3563,213.2913 1.198,-21.741 c -1.401,0.395 -2.863,1.024 -4.385,1.93 0,0 -9.829,-6.21 -14.172,5.941 -4.342,12.147 -2.226,15.354 -2.226,15.354 l 10.25,-16.09 z"
       style="fill:#3c801d;fill-opacity:1;fill-rule:nonzero;stroke:none"
       id="path1216" />
    <path
       d="m 173.3729,156.9226 c -0.008,-0.003 -0.014,-0.007 -0.022,-0.013 0.002,0.006 0.003,0.013 0.005,0.02 0.006,-0.004 0.013,-0.004 0.017,-0.007"
       style="fill:#d53d33;fill-opacity:1;fill-rule:nonzero;stroke:none"
       id="path1220" />
    <path
       d="m 182.2987,191.0159 c 0.164,-2.999 -2.132,-5.563 -5.13,-5.728 -2.998,-0.165 -5.563,2.132 -5.728,5.131 -0.164,2.998 2.13,5.561 5.128,5.728 3,0.163 5.564,-2.132 5.73,-5.131"
       style="fill:#c52e25;fill-opacity:1;fill-rule:nonzero;stroke:none"
       id="path1224" />
    <path
       d="m 188.1083,184.3972 c 0.166,-2.999 -2.131,-5.562 -5.13,-5.727 -2.998,-0.167 -5.563,2.131 -5.728,5.131 -0.165,2.997 2.13,5.562 5.129,5.727 3,0.167 5.564,-2.132 5.729,-5.131"
       style="fill:#c52e25;fill-opacity:1;fill-rule:nonzero;stroke:none"
       id="path1228" />
    <path
       d="m 172.6268,181.6341 c 0.166,-2.999 -2.132,-5.563 -5.129,-5.727 -2.999,-0.167 -5.563,2.129 -5.729,5.128 -0.166,2.998 2.132,5.565 5.129,5.73 3,0.163 5.565,-2.131 5.729,-5.131"
       style="fill:#c52e25;fill-opacity:1;fill-rule:nonzero;stroke:none"
       id="path1232" />
    <path
       d="m 158.2733,190.8753 c 0.164,-3 -2.132,-5.564 -5.131,-5.729 -2.998,-0.164 -5.561,2.13 -5.726,5.13 -0.166,2.997 2.129,5.563 5.128,5.728 2.998,0.165 5.563,-2.132 5.729,-5.129"
       style="fill:#c52e25;fill-opacity:1;fill-rule:nonzero;stroke:none"
       id="path1236" />
    <path
       d="m 183.3202,172.4803 c 0.165,-2.998 -2.132,-5.564 -5.13,-5.729 -2.998,-0.166 -5.564,2.13 -5.727,5.127 -0.166,3 2.129,5.566 5.128,5.729 2.999,0.166 5.563,-2.128 5.729,-5.127"
       style="fill:#c52e25;fill-opacity:1;fill-rule:nonzero;stroke:none"
       id="path1240" />
    <path
       d="m 173.6678,162.7561 c 0.165,-3 -2.132,-5.565 -5.131,-5.73 -2.998,-0.165 -5.563,2.131 -5.726,5.129 -0.166,2.998 2.13,5.563 5.128,5.728 2.998,0.167 5.563,-2.128 5.729,-5.127"
       style="fill:#c52e25;fill-opacity:1;fill-rule:nonzero;stroke:none"
       id="path1244" />
    <path
       d="m 150.5175,178.4265 c -0.92,-1.008 -2.227,-1.667 -3.697,-1.75 -3.002,-0.165 -5.564,2.133 -5.73,5.131 -0.151,2.747 1.765,5.133 4.397,5.636 -0.963,-1.04 -1.516,-2.453 -1.432,-3.979 0.166,-3 2.731,-5.296 5.728,-5.131 0.252,0.014 0.497,0.044 0.734,0.093"
       style="fill:#a5100e;fill-opacity:1;fill-rule:nonzero;stroke:none"
       id="path1248" />
    <path
       d="m 159.9843,159.8172 c -0.921,-1.005 -2.227,-1.665 -3.698,-1.746 -2.999,-0.165 -5.563,2.133 -5.729,5.131 -0.149,2.745 1.766,5.131 4.397,5.636 -0.963,-1.041 -1.517,-2.455 -1.432,-3.981 0.166,-3 2.731,-5.294 5.729,-5.129 0.252,0.014 0.496,0.044 0.733,0.089"
       style="fill:#b51f18;fill-opacity:1;fill-rule:nonzero;stroke:none"
       id="path1252" />
    <path
       d="m 158.5536,171.5374 c -0.922,-1.007 -2.228,-1.666 -3.698,-1.748 -3,-0.165 -5.564,2.133 -5.729,5.129 -0.15,2.749 1.764,5.133 4.396,5.637 -0.966,-1.039 -1.517,-2.454 -1.432,-3.98 0.165,-3 2.731,-5.294 5.728,-5.128 0.252,0.013 0.497,0.043 0.735,0.09"
       style="fill:#a5100e;fill-opacity:1;fill-rule:nonzero;stroke:none"
       id="path1256" />
    <path
       d="m 74.9218,161.2224 c -0.431,0 -0.865,0.132 -1.242,0.402 -0.262,0.19 -6.396,4.725 -5.579,12.86 1.139,11.374 15.15,23.24 41.637,35.259 59.928,27.195 79.315,18.428 80.113,18.041 1.053,-0.514 1.495,-1.786 0.981,-2.842 -0.512,-1.055 -1.783,-1.495 -2.84,-0.982 -0.159,0.072 -18.969,8.019 -76.497,-18.087 -31.15,-14.137 -38.493,-25.104 -39.166,-31.814 -0.574,-5.726 3.797,-8.957 3.841,-8.988 0.951,-0.689 1.164,-2.017 0.479,-2.969 -0.417,-0.574 -1.066,-0.88 -1.727,-0.88"
       style="fill:#498c2a;fill-opacity:1;fill-rule:nonzero;stroke:none"
       id="path1260" />
    <path
       d="m 161.0721,162.9861 c 0.343,-0.876 0.553,-1.774 0.635,-2.667 0.076,-0.743 0.061,-1.491 -0.038,-2.216 -0.283,-2.135 -1.262,-4.134 -2.798,-5.649 1.207,-1.023 2.183,-2.349 2.802,-3.926 0.343,-0.874 0.551,-1.768 0.636,-2.658 0.298,-3.046 -0.857,-6.046 -3.064,-8.089 -0.857,-0.794 -1.872,-1.442 -3.02,-1.892 -0.035,-0.012 -0.07,-0.023 -0.106,-0.039 0.251,-0.43 0.474,-0.885 0.661,-1.364 0.342,-0.875 0.549,-1.764 0.636,-2.655 0.411,-4.229 -1.969,-8.375 -6.081,-9.984 -0.802,-0.313 -1.62,-0.509 -2.434,-0.603 0.165,-4.036 -2.183,-7.904 -6.119,-9.446 -4.577,-1.794 -9.706,0.173 -12.032,4.416 -0.895,-0.87 -1.969,-1.582 -3.202,-2.064 -4.976,-1.95 -10.609,0.549 -12.578,5.579 -0.352,0.895 -0.561,1.814 -0.642,2.726 -3.812,0.082 -7.391,2.434 -8.879,6.236 -0.422,1.071 -0.638,2.174 -0.676,3.265 -3.222,0.583 -6.082,2.789 -7.374,6.087 -1.262,3.219 -0.715,6.694 1.148,9.292 0.104,0.146 0.213,0.29 0.329,0.432 -0.133,0.244 -0.258,0.49 -0.371,0.748 -0.059,0.132 -0.116,0.265 -0.169,0.401 -1.263,3.225 -0.715,6.703 1.153,9.298 1.046,1.458 2.506,2.638 4.294,3.34 3.364,1.316 7.022,0.601 9.651,-1.55 0.469,3.365 2.67,6.376 6.032,7.691 3.165,1.241 6.593,0.684 9.178,-1.18 0.43,3.413 2.649,6.478 6.05,7.811 4.977,1.949 10.607,-0.548 12.576,-5.577 0.085,-0.214 0.162,-0.431 0.226,-0.646 0.325,0.169 0.651,0.325 0.998,0.462 4.976,1.95 10.609,-0.552 12.578,-5.579"
       style="fill:#c52e25;fill-opacity:1;fill-rule:nonzero;stroke:none"
       id="path1264" />
    <path
       d="m 149.0253,197.8157 c -10e-4,-0.481 -0.354,-34.698 -21.662,-35.629 -1.918,-0.084 -4.008,0.102 -6.285,0.606 0,0 -9.744,-11.822 -20.19,1.592 -10.443,13.415 -9.117,18.3 -9.117,18.3 l 19.466,-15.911 5.661,22.131 0.098,0.388 13.175,-16.408 z"
       style="fill:#5b9e3d;fill-opacity:1;fill-rule:nonzero;stroke:none"
       id="path1268" />
    <path
       d="m 116.8983,188.9046 10.465,-26.718 c -1.918,-0.084 -4.008,0.102 -6.285,0.606 0,0 -9.744,-11.822 -20.19,1.592 -10.443,13.415 -9.117,18.3 -9.117,18.3 l 19.466,-15.911 z"
       style="fill:#498c2a;fill-opacity:1;fill-rule:nonzero;stroke:none"
       id="path1272" />
    <path
       d="m 148.9227,121.2444 c -0.007,-0.005 -0.014,-0.01 -0.021,-0.022 0,0.01 0,0.015 0,0.022 0.006,-0.001 0.014,0.002 0.021,0"
       style="fill:#d53d33;fill-opacity:1;fill-rule:nonzero;stroke:none"
       id="path1276" />
    <path
       d="m 146.035,167.5989 c 1.444,-3.685 -0.373,-7.841 -4.059,-9.285 -3.683,-1.443 -7.84,0.372 -9.285,4.057 -1.442,3.687 0.374,7.844 4.059,9.286 3.683,1.444 7.842,-0.374 9.285,-4.058"
       style="fill:#d53d33;fill-opacity:1;fill-rule:nonzero;stroke:none"
       id="path1280" />
    <path
       d="m 156.036,161.7127 c 1.443,-3.684 -0.375,-7.841 -4.058,-9.287 -3.684,-1.441 -7.841,0.376 -9.286,4.058 -1.442,3.687 0.374,7.845 4.059,9.287 3.684,1.442 7.843,-0.374 9.285,-4.058"
       style="fill:#d53d33;fill-opacity:1;fill-rule:nonzero;stroke:none"
       id="path1284" />
    <path
       d="m 137.7997,151.8689 c 1.442,-3.687 -0.375,-7.843 -4.06,-9.287 -3.683,-1.442 -7.839,0.374 -9.284,4.059 -1.443,3.686 0.373,7.843 4.059,9.286 3.683,1.443 7.843,-0.373 9.285,-4.058"
       style="fill:#d53d33;fill-opacity:1;fill-rule:nonzero;stroke:none"
       id="path1288" />
    <path
       d="m 116.0223,157.5144 c 1.444,-3.686 -0.375,-7.843 -4.058,-9.285 -3.684,-1.443 -7.841,0.372 -9.286,4.057 -1.443,3.686 0.373,7.844 4.059,9.286 3.684,1.443 7.843,-0.372 9.285,-4.058"
       style="fill:#d53d33;fill-opacity:1;fill-rule:nonzero;stroke:none"
       id="path1292" />
    <path
       d="m 154.9579,144.8177 c 1.444,-3.685 -0.375,-7.843 -4.059,-9.283 -3.683,-1.444 -7.841,0.372 -9.284,4.057 -1.443,3.682 0.373,7.842 4.059,9.286 3.683,1.442 7.842,-0.374 9.284,-4.06"
       style="fill:#d53d33;fill-opacity:1;fill-rule:nonzero;stroke:none"
       id="path1296" />
    <path
       d="m 146.8876,128.6663 c 1.442,-3.684 -0.375,-7.843 -4.061,-9.284 -3.683,-1.444 -7.841,0.374 -9.284,4.058 -1.443,3.684 0.374,7.841 4.059,9.285 3.684,1.444 7.842,-0.374 9.286,-4.059"
       style="fill:#d53d33;fill-opacity:1;fill-rule:nonzero;stroke:none"
       id="path1300" />
    <path
       d="m 111.4491,138.7346 c -0.737,-1.641 -2.099,-3.005 -3.908,-3.713 -3.687,-1.444 -7.842,0.374 -9.285,4.057 -1.323,3.378 0.089,7.153 3.178,8.868 -0.777,-1.697 -0.884,-3.696 -0.152,-5.572 1.444,-3.685 5.604,-5.5 9.286,-4.058 0.31,0.121 0.604,0.262 0.881,0.418"
       style="fill:#b51f18;fill-opacity:1;fill-rule:nonzero;stroke:none"
       id="path1304" />
    <path
       d="m 130.9706,119.3509 c -0.736,-1.642 -2.098,-3.007 -3.906,-3.713 -3.688,-1.446 -7.844,0.374 -9.286,4.057 -1.323,3.377 0.091,7.153 3.177,8.866 -0.777,-1.697 -0.884,-3.696 -0.151,-5.568 1.445,-3.689 5.603,-5.504 9.285,-4.06 0.31,0.121 0.606,0.26 0.881,0.418"
       style="fill:#b51f18;fill-opacity:1;fill-rule:nonzero;stroke:none"
       id="path1308" />
    <path
       d="m 124.3466,133.428 c -0.737,-1.642 -2.098,-3.003 -3.906,-3.713 -3.688,-1.446 -7.843,0.374 -9.286,4.056 -1.325,3.379 0.09,7.153 3.176,8.869 -0.776,-1.699 -0.882,-3.698 -0.149,-5.572 1.443,-3.687 5.601,-5.5 9.284,-4.058 0.311,0.12 0.605,0.26 0.881,0.418"
       style="fill:#b51f18;fill-opacity:1;fill-rule:nonzero;stroke:none"
       id="path1312" />
    <path
       d="m 103.1044,151.7141 c 0,-0.938 -0.132,-1.852 -0.381,-2.712 -0.198,-0.72 -0.485,-1.411 -0.844,-2.052 -1.041,-1.886 -2.681,-3.384 -4.666,-4.238 0.751,-1.39 1.178,-2.985 1.178,-4.675 0,-0.941 -0.133,-1.849 -0.378,-2.708 -0.833,-2.946 -3.002,-5.319 -5.804,-6.417 -1.085,-0.427 -2.265,-0.66 -3.5,-0.66 -0.037,0 -0.075,0.006 -0.113,0.006 0.076,-0.495 0.117,-1.002 0.117,-1.514 0,-0.938 -0.13,-1.842 -0.378,-2.703 -1.156,-4.088 -4.884,-7.079 -9.301,-7.079 -0.861,0 -1.695,0.117 -2.487,0.328 -1.32,-3.822 -4.915,-6.566 -9.141,-6.566 -4.917,0 -8.975,3.703 -9.594,8.502 -1.149,-0.485 -2.409,-0.757 -3.732,-0.757 -5.346,0 -9.679,4.383 -9.679,9.783 0,0.962 0.14,1.895 0.397,2.773 -3.52,1.467 -5.994,4.964 -5.994,9.041 0,1.156 0.2,2.261 0.563,3.292 -2.787,1.714 -4.648,4.815 -4.648,8.356 0,3.459 1.778,6.494 4.458,8.233 0.153,0.097 0.307,0.193 0.464,0.283 -0.033,0.276 -0.058,0.551 -0.07,0.833 -0.009,0.144 -0.012,0.288 -0.012,0.433 0,3.463 1.779,6.503 4.466,8.237 1.503,0.977 3.295,1.543 5.215,1.543 3.612,0 6.758,-2 8.422,-4.963 1.664,2.963 4.811,4.963 8.421,4.963 3.396,0 6.387,-1.768 8.116,-4.447 1.643,3.02 4.827,5.063 8.48,5.063 5.346,0 9.676,-4.378 9.676,-9.776 0,-0.232 -0.006,-0.462 -0.024,-0.683 0.362,0.039 0.724,0.063 1.096,0.063 5.344,0 9.677,-4.38 9.677,-9.782"
       style="fill:#d53d33;fill-opacity:1;fill-rule:nonzero;stroke:none"
       id="path1316" />
    <path
       d="m 104.5907,188.5408 c -0.178,-0.451 -12.984,-32.179 -33.166,-25.275 -1.816,0.622 -3.692,1.556 -5.629,2.858 0,0 -13.385,-7.456 -18.219,8.844 -4.831,16.301 -1.813,20.364 -1.813,20.364 l 12.32,-21.914 13.341,18.543 0.236,0.325 6.284,-20.081 z"
       style="fill:#64b044;fill-opacity:1;fill-rule:nonzero;stroke:none"
       id="path1320" />
    <path
       d="m 71.4257,191.9612 v -28.696 c -1.817,0.622 -3.694,1.556 -5.63,2.858 0,0 -13.384,-7.455 -18.218,8.845 -4.832,16.301 -1.815,20.364 -1.815,20.364 l 12.322,-21.914 z"
       style="fill:#5b9e3d;fill-opacity:1;fill-rule:nonzero;stroke:none"
       id="path1324" />
    <path
       d="m 76.5712,117.2815 c -0.012,-0.003 -0.02,-0.009 -0.03,-0.014 0.003,0.005 0.003,0.014 0.007,0.023 0.007,-0.004 0.014,-0.004 0.023,-0.009"
       style="fill:#d53d33;fill-opacity:1;fill-rule:nonzero;stroke:none"
       id="path1328" />
    <path
       d="m 90.786,161.4949 c 0,-3.956 -3.208,-7.165 -7.166,-7.165 -3.956,0 -7.164,3.209 -7.164,7.165 0,3.958 3.208,7.167 7.164,7.167 3.958,0 7.166,-3.209 7.166,-7.167"
       style="fill:#e54d42;fill-opacity:1;fill-rule:nonzero;stroke:none"
       id="path1332" />
    <path
       d="m 97.952,152.366 c 0,-3.956 -3.209,-7.165 -7.167,-7.165 -3.957,0 -7.165,3.209 -7.165,7.165 0,3.959 3.208,7.167 7.165,7.167 3.958,0 7.167,-3.208 7.167,-7.167"
       style="fill:#e54d42;fill-opacity:1;fill-rule:nonzero;stroke:none"
       id="path1336" />
    <path
       d="m 77.3798,149.8523 c 0,-3.959 -3.208,-7.165 -7.165,-7.165 -3.958,0 -7.166,3.206 -7.166,7.165 0,3.956 3.208,7.165 7.166,7.165 3.957,0 7.165,-3.209 7.165,-7.165"
       style="fill:#e54d42;fill-opacity:1;fill-rule:nonzero;stroke:none"
       id="path1340" />
    <path
       d="m 59.163,163.0511 c 0,-3.958 -3.209,-7.167 -7.166,-7.167 -3.958,0 -7.165,3.209 -7.165,7.167 0,3.956 3.207,7.166 7.165,7.166 3.957,0 7.166,-3.21 7.166,-7.166"
       style="fill:#e54d42;fill-opacity:1;fill-rule:nonzero;stroke:none"
       id="path1344" />
    <path
       d="m 90.786,137.0291 c 0,-3.958 -3.208,-7.164 -7.166,-7.164 -3.957,0 -7.165,3.206 -7.165,7.164 0,3.958 3.208,7.165 7.165,7.165 3.958,0 7.166,-3.207 7.166,-7.165"
       style="fill:#e54d42;fill-opacity:1;fill-rule:nonzero;stroke:none"
       id="path1348" />
    <path
       d="m 77.3798,124.9348 c 0,-3.959 -3.208,-7.167 -7.166,-7.167 -3.957,0 -7.165,3.208 -7.165,7.167 0,3.958 3.208,7.164 7.165,7.164 3.958,0 7.166,-3.206 7.166,-7.164"
       style="fill:#e54d42;fill-opacity:1;fill-rule:nonzero;stroke:none"
       id="path1352" />
    <path
       d="m 48.0555,147.2332 c -1.286,-1.26 -3.051,-2.032 -4.992,-2.032 -3.96,0 -7.166,3.209 -7.166,7.165 0,3.631 2.69,6.625 6.191,7.096 -1.342,-1.294 -2.17,-3.118 -2.17,-5.129 0,-3.963 3.208,-7.167 7.164,-7.167 0.331,0 0.657,0.023 0.973,0.067"
       style="fill:#c52e25;fill-opacity:1;fill-rule:nonzero;stroke:none"
       id="path1356" />
    <path
       d="m 59.163,122.0633 c -1.285,-1.26 -3.05,-2.033 -4.994,-2.033 -3.959,0 -7.163,3.211 -7.163,7.166 0,3.629 2.692,6.627 6.192,7.099 -1.343,-1.297 -2.172,-3.121 -2.172,-5.134 0,-3.959 3.208,-7.165 7.164,-7.165 0.332,0 0.656,0.023 0.973,0.067"
       style="fill:#c52e25;fill-opacity:1;fill-rule:nonzero;stroke:none"
       id="path1360" />
    <path
       d="m 58.1307,137.5877 c -1.286,-1.259 -3.053,-2.034 -4.995,-2.034 -3.958,0 -7.165,3.211 -7.165,7.167 0,3.627 2.693,6.626 6.193,7.098 -1.344,-1.3 -2.173,-3.121 -2.173,-5.134 0,-3.96 3.208,-7.165 7.165,-7.165 0.333,0 0.66,0.024 0.975,0.068"
       style="fill:#c52e25;fill-opacity:1;fill-rule:nonzero;stroke:none"
       id="path1364" />
    <path
       d="m 117.5018,164.1419 c -0.494,0 -0.991,0.17 -1.392,0.522 -0.686,0.594 -16.771,14.757 -15.425,29.52 0.619,6.812 4.795,12.548 12.405,17.045 1.011,0.598 2.315,0.262 2.912,-0.747 0.596,-1.011 0.262,-2.315 -0.75,-2.912 -6.364,-3.762 -9.842,-8.391 -10.333,-13.762 -1.155,-12.597 13.829,-25.809 13.979,-25.937 0.885,-0.771 0.979,-2.114 0.208,-2.998 -0.419,-0.483 -1.01,-0.731 -1.604,-0.731"
       style="fill:#498c2a;fill-opacity:1;fill-rule:nonzero;stroke:none"
       id="path1368" />
  </g>
</svg>
