<?xml version="1.0" encoding="UTF-8" standalone="no"?>
<!-- Created with Inkscape (http://www.inkscape.org/) -->

<svg
   version="1.1"
   id="svg18"
   width="300"
   height="150"
   viewBox="0 0 300.00001 150"
   sodipodi:docname="1004_word.svg"
   inkscape:version="1.2.1 (9c6d41e410, 2022-07-14)"
   xmlns:inkscape="http://www.inkscape.org/namespaces/inkscape"
   xmlns:sodipodi="http://sodipodi.sourceforge.net/DTD/sodipodi-0.dtd"
   xmlns="http://www.w3.org/2000/svg"
   xmlns:svg="http://www.w3.org/2000/svg">
  <sodipodi:namedview
     id="namedview756"
     pagecolor="#ffffff"
     bordercolor="#000000"
     borderopacity="0.25"
     inkscape:showpageshadow="2"
     inkscape:pageopacity="0.0"
     inkscape:pagecheckerboard="0"
     inkscape:deskcolor="#d1d1d1"
     showgrid="true"
     inkscape:zoom="2.8284271"
     inkscape:cx="149.37631"
     inkscape:cy="48.083262"
     inkscape:window-width="1700"
     inkscape:window-height="1396"
     inkscape:window-x="8"
     inkscape:window-y="28"
     inkscape:window-maximized="1"
     inkscape:current-layer="g3346" />
  <defs
     id="defs22">
    <clipPath
       clipPathUnits="userSpaceOnUse"
       id="clipPath3408">
      <path
         d="M 0,340.157 H 226.772 V 0 H 0 Z"
         id="path3406" />
    </clipPath>
  </defs>
  <g
     id="g3346"
     transform="matrix(1.3333333,0,0,-1.3333333,-72.739001,284.65306)">
    <g
       id="g3402"
       transform="translate(53.668355,-22.500001)">
      <g
         id="g3404"
         clip-path="url(#clipPath3408)">
        <g
           id="g3410"
           transform="translate(124.3662,167.8698)">
          <path
             d="m 0,0 c -3.19,0 -5.573,0.307 -7.146,0.92 -1.576,0.614 -2.619,1.391 -3.129,2.331 -0.512,0.941 -0.767,1.881 -0.767,2.823 0,1.267 0.449,2.432 1.35,3.496 0.899,1.063 2.085,1.596 3.558,1.596 1.922,0 3.536,-0.952 4.846,-2.853 C 0.021,6.411 0.756,3.64 0.92,0 Z M 11.994,-0.644 C 11.359,-0.214 10.592,0 9.693,0 H 5.031 C 4.908,4.172 4.273,7.402 3.129,9.693 c -1.146,2.29 -2.506,3.885 -4.08,4.785 -1.574,0.899 -3.036,1.35 -4.386,1.35 -2.659,0 -4.929,-1.034 -6.809,-3.099 -1.882,-2.065 -2.822,-4.488 -2.822,-7.269 0,-1.881 0.408,-3.661 1.226,-5.337 0.818,-1.678 2.24,-3.037 4.264,-4.08 2.024,-1.043 4.877,-1.564 8.558,-1.564 h 1.227 c -0.859,-3.353 -2.475,-6.166 -4.847,-8.435 -2.372,-2.27 -5.296,-3.405 -8.772,-3.405 -1.84,0 -3.354,0.153 -4.54,0.46 -1.187,0.307 -2.291,0.747 -3.313,1.319 l -0.919,-3.865 c 2.248,-2.003 5.336,-3.006 9.263,-3.006 4.294,0 8.026,1.595 11.196,4.786 3.168,3.189 5.245,7.238 6.226,12.146 h 5.092 c 2.167,0 3.251,0.94 3.251,2.822 0,0.94 -0.317,1.626 -0.95,2.055"
             style="fill:#f91536;fill-opacity:1;fill-rule:nonzero;stroke:none"
             id="path3412" />
        </g>
        <g
           id="g3414"
           transform="translate(134.7344,162.3488)">
          <path
             d="m 0,0 h -0.675 c -1.021,0 -1.799,0.266 -2.331,0.797 -0.531,0.532 -0.797,1.186 -0.797,1.964 0,0.695 0.236,1.339 0.705,1.932 0.471,0.593 1.279,0.89 2.423,0.89 h 0.737 c 7.892,0 14.824,1.349 20.796,4.048 l 2.147,0.982 c 1.636,0.777 3.068,1.37 4.294,1.779 -1.349,0.491 -2.801,1.083 -4.355,1.779 -1.963,0.899 -3.998,1.727 -6.104,2.485 -2.107,0.756 -4.121,1.135 -6.043,1.135 -3.231,0 -5.971,-0.471 -8.22,-1.411 l 0.859,5.03 c 1.962,0.899 4.437,1.35 7.422,1.35 2.618,0 5.133,-0.429 7.546,-1.288 2.413,-0.859 4.785,-1.841 7.117,-2.945 2.821,-1.268 4.846,-2.066 6.073,-2.393 1.227,-0.327 2.433,-0.49 3.619,-0.49 h 2.27 l -0.858,-5.092 h -0.982 c -2.822,0 -6.38,-1.31 -10.675,-3.927 C 20.551,4.049 16.451,2.301 12.668,1.38 8.885,0.46 4.663,0 0,0 m -49.568,29.14 c 0,-2.004 -1.043,-3.089 -3.128,-3.251 -0.901,0 -1.626,0.285 -2.178,0.859 -0.552,0.571 -0.829,1.369 -0.829,2.392 0,1.963 1.002,3.046 3.007,3.251 1.922,0 2.965,-1.084 3.128,-3.251 m -8.22,0 c 0,-2.004 -1.043,-3.089 -3.129,-3.251 -0.9,0 -1.647,0.285 -2.239,0.859 -0.594,0.571 -0.889,1.369 -0.889,2.392 0,1.963 1.042,3.046 3.128,3.251 0.94,0 1.697,-0.297 2.27,-0.889 0.572,-0.594 0.859,-1.38 0.859,-2.362 M -33.065,3.497 c -7.403,-3.19 -15.931,-4.785 -25.582,-4.785 -14.355,0 -21.533,5.438 -21.533,16.318 0,2.781 0.45,5.316 1.35,7.607 l 3.312,-0.675 c -0.45,-1.595 -0.674,-3.313 -0.674,-5.153 0,-8.384 5.95,-12.597 17.852,-12.638 9.324,0 16.522,1.043 21.594,3.129 0.04,0.327 0.061,0.737 0.061,1.227 -0.123,4.335 -1.575,9.058 -4.356,14.171 l 4.417,1.227 c 1.063,-1.881 2.025,-4.213 2.884,-6.993 0.859,-2.782 1.288,-5.746 1.288,-8.895 0,-1.882 -0.205,-3.396 -0.613,-4.54"
             style="fill:#1d1d1b;fill-opacity:1;fill-rule:nonzero;stroke:none"
             id="path3416" />
        </g>
      </g>
    </g>
  </g>
</svg>
