<?xml version="1.0" encoding="UTF-8" standalone="no"?>
<!-- Created with Inkscape (http://www.inkscape.org/) -->

<svg
   version="1.1"
   id="svg18"
   width="300"
   height="300"
   viewBox="0 0 300.00001 300"
   sodipodi:docname="1004_pic.svg"
   inkscape:version="1.2.1 (9c6d41e410, 2022-07-14)"
   xmlns:inkscape="http://www.inkscape.org/namespaces/inkscape"
   xmlns:sodipodi="http://sodipodi.sourceforge.net/DTD/sodipodi-0.dtd"
   xmlns="http://www.w3.org/2000/svg"
   xmlns:svg="http://www.w3.org/2000/svg">
  <sodipodi:namedview
     id="namedview1605"
     pagecolor="#ffffff"
     bordercolor="#000000"
     borderopacity="0.25"
     inkscape:showpageshadow="2"
     inkscape:pageopacity="0.0"
     inkscape:pagecheckerboard="0"
     inkscape:deskcolor="#d1d1d1"
     showgrid="false"
     inkscape:zoom="2.7432499"
     inkscape:cx="90.039192"
     inkscape:cy="132.3248"
     inkscape:window-width="1351"
     inkscape:window-height="1396"
     inkscape:window-x="1040"
     inkscape:window-y="28"
     inkscape:window-maximized="1"
     inkscape:current-layer="svg18" />
  <defs
     id="defs22">
    <clipPath
       clipPathUnits="userSpaceOnUse"
       id="clipPath1434">
      <path
         d="m 144.116,175.913 c 0,-1.878 0.679,-3.402 1.516,-3.402 v 0 c 0.837,0 1.515,1.524 1.515,3.402 v 0 c 0,1.879 -0.678,3.403 -1.515,3.403 v 0 c -0.837,0 -1.516,-1.524 -1.516,-3.403"
         id="path1432" />
    </clipPath>
  </defs>
  <g
     id="g1372"
     transform="matrix(1.3333333,0,0,-1.3333333,-1.1811685,376.77139)">
    <path
       d="m 152.7295,156.773 c -5.124,-3.253 -10.626,-5.959 -16.398,-7.964 l -1.079,-0.387 -0.54,-0.193 -0.55,-0.162 -2.206,-0.628 -1.104,-0.313 c -0.368,-0.106 -0.736,-0.212 -1.112,-0.285 l -2.243,-0.49 -1.123,-0.242 c -0.375,-0.082 -0.75,-0.159 -1.131,-0.205 l -2.275,-0.331 -1.137,-0.165 -0.569,-0.08 -0.574,-0.047 -2.292,-0.186 c -1.527,-0.156 -3.063,-0.116 -4.596,-0.141 l -1.15,-0.01 c -0.383,-10e-4 -0.765,0.035 -1.148,0.051 l -2.295,0.129 -1.147,0.076 -1.141,0.142 -2.279,0.286 c -0.762,0.077 -1.513,0.231 -2.264,0.374 l -2.251,0.442 c -5.979,1.291 -11.759,3.395 -17.152,6.182 5.674,-2.152 11.481,-3.874 17.402,-4.906 l 2.227,-0.339 c 0.741,-0.114 1.479,-0.252 2.228,-0.306 l 2.238,-0.221 1.119,-0.111 1.123,-0.045 2.244,-0.096 c 0.374,-0.012 0.748,-0.045 1.122,-0.04 l 1.123,0.02 c 1.496,0.037 2.995,0.012 4.486,0.174 l 2.24,0.162 0.56,0.041 0.556,0.074 1.113,0.152 2.226,0.304 c 0.374,0.041 0.741,0.114 1.107,0.191 l 1.104,0.214 2.209,0.423 c 0.371,0.062 0.734,0.156 1.097,0.251 l 1.09,0.279 c 1.453,0.376 2.918,0.713 4.344,1.193 5.756,1.743 11.338,4.081 16.798,6.733"
       style="fill:#cddc47;fill-opacity:1;fill-rule:nonzero;stroke:none"
       id="path1390"
       clip-path="none" />
    <path
       d="m 89.0347,146.3521 c 6.09,-1.493 12.226,-2.692 18.413,-3.375 0.772,-0.093 1.549,-0.136 2.324,-0.206 l 2.322,-0.209 c 1.55,-0.09 3.103,-0.138 4.653,-0.21 l 4.656,-0.008 4.646,0.231 c 1.543,0.152 3.089,0.279 4.631,0.444 1.533,0.231 3.07,0.441 4.601,0.689 1.52,0.305 3.05,0.568 4.566,0.906 l 2.259,0.563 c 0.752,0.193 1.517,0.341 2.26,0.57 5.993,1.658 11.826,3.909 17.509,6.56 -5.356,-3.264 -11.127,-5.89 -17.138,-7.806 -1.501,-0.483 -3.03,-0.88 -4.55,-1.307 -1.532,-0.381 -3.082,-0.69 -4.623,-1.038 -1.553,-0.287 -3.12,-0.499 -4.68,-0.751 -1.569,-0.181 -3.143,-0.328 -4.715,-0.49 l -4.736,-0.197 c -1.579,0.022 -3.159,0.015 -4.736,0.062 -1.576,0.112 -3.151,0.2 -4.723,0.331 -1.566,0.183 -3.134,0.357 -4.693,0.582 -6.234,0.936 -12.356,2.506 -18.246,4.659"
       style="fill:#cddc47;fill-opacity:1;fill-rule:nonzero;stroke:none"
       id="path1394"
       clip-path="none" />
    <path
       d="m 95.8398,140.2911 c 6.728,-1.648 13.528,-2.892 20.38,-3.479 l 0.641,-0.068 0.644,-0.034 1.287,-0.066 2.57,-0.15 0.643,-0.036 0.644,-0.004 1.287,-0.007 2.573,-0.014 c 1.714,0.029 3.427,0.132 5.14,0.194 1.709,0.124 3.412,0.323 5.118,0.48 1.698,0.228 3.391,0.496 5.088,0.741 l 5.036,1.035 c 1.658,0.435 3.324,0.845 4.979,1.299 l 2.453,0.78 c 0.817,0.263 1.646,0.492 2.455,0.781 6.495,2.253 12.759,5.179 18.814,8.543 -5.689,-3.953 -11.866,-7.25 -18.367,-9.763 -1.628,-0.616 -3.283,-1.168 -4.931,-1.738 -1.67,-0.499 -3.354,-0.955 -5.033,-1.435 -1.701,-0.386 -3.411,-0.741 -5.118,-1.104 -1.725,-0.263 -3.448,-0.551 -5.177,-0.791 -1.739,-0.149 -3.476,-0.337 -5.217,-0.451 l -2.616,-0.09 -1.308,-0.045 c -0.436,-0.019 -0.872,-0.03 -1.308,-0.009 l -2.615,0.073 -1.308,0.037 -0.653,0.018 -0.651,0.052 c -1.737,0.152 -3.477,0.257 -5.204,0.483 -6.914,0.841 -13.715,2.459 -20.246,4.768"
       style="fill:#cddc47;fill-opacity:1;fill-rule:nonzero;stroke:none"
       id="path1398"
       clip-path="none" />
    <path
       d="m 185.1621,149.7549 c -4.974,-4.563 -10.549,-8.521 -16.58,-11.66 -1.528,-0.738 -3.042,-1.519 -4.598,-2.204 l -2.363,-0.962 -1.183,-0.482 -0.591,-0.24 -0.605,-0.204 -2.424,-0.804 c -0.81,-0.26 -1.612,-0.552 -2.442,-0.745 l -2.472,-0.644 -1.236,-0.323 c -0.412,-0.106 -0.834,-0.17 -1.251,-0.257 -3.338,-0.678 -6.713,-1.169 -10.106,-1.415 l -2.547,-0.144 c -0.425,-0.02 -0.849,-0.057 -1.274,-0.064 l -1.275,0.002 -2.549,0.007 c -0.424,0.007 -0.849,0.002 -1.273,0.018 l -1.271,0.084 c -6.781,0.349 -13.497,1.501 -19.99,3.342 6.648,-1.164 13.338,-1.941 20.034,-2.043 3.346,-0.037 6.691,0.048 10.016,0.37 3.325,0.289 6.63,0.783 9.894,1.472 0.408,0.083 0.822,0.142 1.226,0.243 l 1.213,0.306 2.425,0.613 c 0.815,0.182 1.601,0.463 2.397,0.712 l 2.386,0.755 0.598,0.185 0.585,0.223 1.17,0.445 2.34,0.891 c 0.781,0.296 1.526,0.677 2.294,1.006 l 2.293,1.016 c 6.045,2.873 11.746,6.47 17.159,10.501"
       style="fill:#cddc47;fill-opacity:1;fill-rule:nonzero;stroke:none"
       id="path1402"
       clip-path="none" />
    <path
       d="m 198.3477,157.4107 c -15.536,-3.918 -31.121,-5.744 -47,5.175 -8.082,5.459 -14.32,-0.213 -23.395,-3.332 1.238,-13.396 -1.322,-24.741 -7.921,-33.903 -2.637,-4.378 -5.911,-7.462 -10.164,-8.56 -0.491,-0.126 -0.944,0.318 -0.838,0.813 0.874,4.09 1.381,7.898 0.953,10.99 1.17,9.535 -2.942,17.546 6.983,23.926 -17.43,-2.878 -35.809,0.736 -55.685,14.568 l -8.349,8.043 -1.209,1.367 -3.541,-2.914 c -3.669,-3.089 -8.13,-5.127 -13.433,-6.049 l -4.911,0.245 -1.736,1.647 1.869,2.349 4.267,4.958 3.105,4.03 3.995,3.314 3.311,1.698 0.815,5.518 3.399,6.971 2.996,6.243 2.191,1.579 2.659,-2.048 2.446,-6.49 -0.098,-8.055 -2.36,-5.681 -1.902,-3.114 2.118,-3.584 6.73,-3.932 11.45,-0.586 16.359,3.368 17.166,4.67 16.813,4.149 18.686,2.434 9.238,-0.748 13.401,-4.204 8.075,-4.518 8.524,-6.194 4.253,-3.934 5.975,-3.716 3.631,-2.652 1.312,-2.222 z"
       style="fill:#05b0a1;fill-opacity:1;fill-rule:nonzero;stroke:none"
       id="path1406"
       clip-path="none" />
    <path
       d="m 109.5103,117.8174 c -0.02,-0.15 -0.025,-0.262 -0.024,-0.344 0.229,0.042 0.694,0.185 1.531,0.652 l 0.137,0.063 c 2.5,0.954 5.048,3.417 8.018,7.751 l 0.378,0.552 0.659,-0.115 c 29.078,-5.049 53.858,4.166 75.758,28.177 l 0.061,0.062 1.369,1.27 c 0.024,0.064 0.117,0.39 -0.07,1.32 l -0.092,0.457 0.279,0.373 c 0.479,0.639 -0.757,2.173 -3.673,4.561 -5.077,2.602 -8.645,5.213 -11.212,8.204 -11.009,8.688 -24.62,17.686 -46.78,14.821 -10.124,-1.2 -31.103,-7.036 -51.392,-12.68 l -0.659,-0.179 c -12.511,-2.272 -25.855,-3.151 -29.975,7.563 l -0.193,0.499 0.295,0.447 c 5.027,7.629 6.939,14.174 0.949,23.164 -0.892,0.67 -1.296,0.627 -1.401,0.595 -0.238,-0.072 -0.501,-0.468 -0.707,-1.065 -0.675,-2.865 -2.006,-4.789 -3.293,-6.651 -1.772,-2.56 -3.444,-4.978 -3.209,-9.867 l 0.004,-0.077 -0.008,-0.079 c -0.211,-2.058 -1.379,-3.257 -3.473,-3.568 -4.349,-2.388 -6.695,-6.025 -8.415,-8.69 -1.187,-1.84 -2.125,-3.292 -3.376,-3.897 -0.329,-0.16 -0.597,-0.294 -0.804,-0.46 -0.92,-0.736 -1.061,-1.164 -1.049,-1.238 0.012,-0.068 0.256,-0.39 1.229,-0.749 5.978,-0.777 11.414,0.935 16.618,5.24 0.886,0.733 1.702,1.591 2.53,2.48 0.306,0.327 1.241,1.323 2.42,1.109 0.724,-0.132 1.295,-0.663 1.698,-1.58 2.218,-3.227 4.904,-5.837 8.209,-7.977 l 0.13,-0.084 0.1,-0.119 c 13.048,-15.492 29.327,-28.358 48.385,-38.24 l 0.439,-0.228 0.101,-0.484 c 0.601,-2.884 0.127,-6.378 -1.492,-10.989 m -0.184,-2.444 c -0.4,0 -0.781,0.096 -1.118,0.33 -0.679,0.474 -0.93,1.322 -0.743,2.523 l 0.047,0.188 c 1.421,4.019 1.915,7.054 1.538,9.492 -19.058,9.951 -35.362,22.866 -48.466,38.393 -3.51,2.296 -6.365,5.094 -8.723,8.549 l -0.061,0.089 -0.041,0.1 c -0.085,0.205 -0.158,0.324 -0.207,0.39 -0.093,-0.053 -0.261,-0.173 -0.508,-0.437 -0.877,-0.941 -1.744,-1.853 -2.726,-2.665 -5.631,-4.657 -11.798,-6.571 -18.334,-5.684 l -0.105,0.014 -0.101,0.035 c -0.6,0.212 -2.426,0.857 -2.688,2.4 -0.264,1.559 1.29,2.803 1.801,3.212 0.376,0.301 0.766,0.499 1.199,0.709 0.724,0.35 1.562,1.648 2.532,3.151 1.864,2.889 4.418,6.845 9.346,9.485 l 0.174,0.094 0.196,0.022 c 1.38,0.163 1.733,0.734 1.843,1.667 -0.247,5.539 1.698,8.35 3.579,11.069 1.238,1.791 2.408,3.482 2.989,5.988 l 0.027,0.095 c 0.449,1.339 1.155,2.161 2.101,2.443 1.012,0.304 2.13,-0.041 3.412,-1.051 l 0.128,-0.102 0.091,-0.135 c 6.967,-10.344 3.942,-18.211 -0.544,-25.151 3.016,-6.983 11.272,-8.71 27.414,-5.783 l 0.521,0.144 c 20.364,5.666 41.422,11.524 51.695,12.74 23.008,2.976 37.049,-6.346 48.405,-15.316 l 0.148,-0.143 c 2.405,-2.828 5.818,-5.315 10.74,-7.829 l 0.098,-0.05 0.086,-0.07 c 2.137,-1.741 5.636,-4.593 4.372,-7.074 0.148,-0.936 0.17,-2.089 -0.59,-2.811 l -1.377,-1.276 c -18.446,-20.212 -38.915,-30.167 -62.209,-30.169 -4.799,0 -9.712,0.422 -14.758,1.264 -3.04,-4.326 -5.767,-6.859 -8.542,-7.943 -0.82,-0.453 -1.778,-0.897 -2.641,-0.897"
       style="fill:#05b0a1;fill-opacity:1;fill-rule:nonzero;stroke:none"
       id="path1410"
       clip-path="none" />
    <path
       d="m 147.147,175.9131 c 0,1.879 -0.678,3.403 -1.515,3.403 -0.837,0 -1.516,-1.524 -1.516,-3.403 0,-1.879 0.679,-3.402 1.516,-3.402 0.837,0 1.515,1.523 1.515,3.402"
       style="fill:#ffffff;fill-opacity:1;fill-rule:nonzero;stroke:none"
       id="path1414"
       clip-path="none" />
    <path
       d="m 140.4619,192.0611 c -2.657,8.852 -5.515,17.305 -12.629,17.303 -2.365,-0.001 -4.134,-2.045 -3.647,-4.359 1.128,-5.368 10.716,-3.28 16.276,-12.944"
       style="fill:#f79420;fill-opacity:1;fill-rule:nonzero;stroke:none"
       id="path1418"
       clip-path="none" />
    <path
       d="m 143.4897,193.9893 c 2.657,8.852 5.515,17.305 12.629,17.303 2.365,-0.001 4.134,-2.045 3.648,-4.359 -1.129,-5.368 -10.717,-3.28 -16.277,-12.944"
       style="fill:#f79420;fill-opacity:1;fill-rule:nonzero;stroke:none"
       id="path1422"
       clip-path="none" />
    <path
       d="m 140.9619,200.7159 c -3.106,9.564 -5.785,18.896 0.588,23.31 2.119,1.468 4.97,0.739 5.968,-1.632 2.316,-5.5 -7.565,-9.587 -6.556,-21.678"
       style="fill:#f79420;fill-opacity:1;fill-rule:nonzero;stroke:none"
       id="path1426"
       clip-path="none" />
    <g
       id="g1428"
       clip-path="none">
      <g
         id="g1430"
         clip-path="url(#clipPath1434)">
        <g
           id="g1436"
           transform="translate(147.147,174.8965)">
          <path
             d="m 0,0 c 0,1.406 -0.507,2.545 -1.133,2.545 -0.626,0 -1.134,-1.139 -1.134,-2.545 0,-1.405 0.508,-2.545 1.134,-2.545 C -0.507,-2.545 0,-1.405 0,0"
             style="fill:#088475;fill-opacity:1;fill-rule:nonzero;stroke:none"
             id="path1438" />
        </g>
      </g>
    </g>
  </g>
</svg>
