<?xml version="1.0" encoding="UTF-8" standalone="no"?>
<!-- Created with Inkscape (http://www.inkscape.org/) -->

<svg
   version="1.1"
   id="svg18"
   width="300"
   height="150"
   viewBox="0 0 300.00002 150"
   sodipodi:docname="1120_word.svg"
   inkscape:version="1.2.1 (9c6d41e410, 2022-07-14)"
   xmlns:inkscape="http://www.inkscape.org/namespaces/inkscape"
   xmlns:sodipodi="http://sodipodi.sourceforge.net/DTD/sodipodi-0.dtd"
   xmlns="http://www.w3.org/2000/svg"
   xmlns:svg="http://www.w3.org/2000/svg">
  <sodipodi:namedview
     id="namedview37"
     pagecolor="#ffffff"
     bordercolor="#000000"
     borderopacity="0.25"
     inkscape:showpageshadow="2"
     inkscape:pageopacity="0.0"
     inkscape:pagecheckerboard="0"
     inkscape:deskcolor="#d1d1d1"
     showgrid="false"
     inkscape:zoom="23.160202"
     inkscape:cx="162.19634"
     inkscape:cy="110.01631"
     inkscape:window-width="1700"
     inkscape:window-height="1396"
     inkscape:window-x="8"
     inkscape:window-y="28"
     inkscape:window-maximized="1"
     inkscape:current-layer="svg18" />
  <defs
     id="defs22">
    <clipPath
       clipPathUnits="userSpaceOnUse"
       id="clipPath2796">
      <path
         d="M 0,340.157 H 226.772 V 0 H 0 Z"
         id="path2794" />
    </clipPath>
    <clipPath
       clipPathUnits="userSpaceOnUse"
       id="clipPath2804">
      <path
         d="M 246.772,340.157 H 473.544 V 0 H 246.772 Z"
         id="path2802" />
    </clipPath>
    <clipPath
       clipPathUnits="userSpaceOnUse"
       id="clipPath2812">
      <path
         d="M 246.772,0 H 473.544 V 340.157 H 246.772 Z"
         id="path2810" />
    </clipPath>
    <clipPath
       clipPathUnits="userSpaceOnUse"
       id="clipPath2820">
      <path
         d="M 246.772,340.157 H 473.544 V 0 H 246.772 Z"
         id="path2818" />
    </clipPath>
    <clipPath
       clipPathUnits="userSpaceOnUse"
       id="clipPath2828">
      <path
         d="m 438.313,-190.079 c 0,-43.163 -34.991,-78.155 -78.155,-78.155 -43.164,0 -78.155,34.992 -78.155,78.155 0,43.164 34.991,78.155 78.155,78.155 43.164,0 78.155,-34.991 78.155,-78.155"
         id="path2826" />
    </clipPath>
    <clipPath
       clipPathUnits="userSpaceOnUse"
       id="clipPath702936">
      <path
         d="M 0,340.157 H 226.772 V 0 H 0 Z"
         id="path702934" />
    </clipPath>
  </defs>
  <g
     id="g702930"
     transform="matrix(1.3333333,0,0,-1.3333333,-1.1806629,305.74475)">
    <g
       id="g702932"
       clip-path="url(#clipPath702936)">
      <g
         id="g702938"
         transform="translate(130.5819,157.4411)">
        <path
           d="m 0,0 c 0,-1.882 -1.084,-2.822 -3.252,-2.822 -3.599,0 -6.37,0.96 -8.312,2.883 -1.943,1.922 -3.017,5.194 -3.221,9.816 l -1.227,31.532 4.601,0.307 1.166,-30.305 c 0.123,-3.232 0.798,-5.471 2.024,-6.718 1.227,-1.248 2.883,-1.892 4.969,-1.932 0.899,0 1.666,-0.226 2.301,-0.675 C -0.317,1.635 0,0.94 0,0"
           style="fill:#1d1d1b;fill-opacity:1;fill-rule:nonzero;stroke:none"
           id="path702940" />
      </g>
      <g
         id="g702942"
         transform="translate(135.1825,189.28)">
        <path
           d="m 0,0 c 0,-2.085 -1.084,-3.211 -3.251,-3.374 -0.9,0 -1.646,0.307 -2.239,0.92 -0.593,0.614 -0.89,1.432 -0.89,2.454 0,0.94 0.297,1.728 0.89,2.362 0.593,0.634 1.359,0.951 2.301,0.951 C -1.268,3.313 -0.205,2.208 0,0 m -6.993,-34.661 h -0.92 c -2.045,0 -3.067,0.96 -3.067,2.883 0,0.572 0.214,1.166 0.643,1.779 0.43,0.614 1.238,0.921 2.424,0.921 h 1.226 c 4.417,0 7.301,0.47 8.651,1.411 l 0.122,0.49 c 0.163,0.531 0.246,1.166 0.246,1.902 0,0.736 -0.144,1.473 -0.43,2.209 -0.287,0.736 -0.818,1.717 -1.594,2.944 l -1.043,1.779 4.477,1.78 c 1.8,-3.354 2.699,-6.729 2.699,-10.123 0,-1.677 -0.327,-3.334 -0.981,-4.969 -0.735,-0.777 -1.963,-1.472 -3.681,-2.086 -1.717,-0.613 -4.641,-0.92 -8.772,-0.92 M -40.895,-48.28 c -0.49,0 -1.502,0.092 -3.036,0.276 -1.534,0.184 -3.568,0.911 -6.104,2.178 l 0.675,3.742 c 0.654,-0.327 1.656,-0.715 3.006,-1.166 1.35,-0.449 2.638,-0.776 3.865,-0.981 0.04,-0.04 0.327,-0.061 0.859,-0.061 3.026,0 5.909,1.616 8.65,4.846 1.962,2.372 2.944,5.235 2.944,8.589 0,2.903 -0.552,6.032 -1.656,9.386 -0.205,0.695 -1.227,3.353 -3.068,7.975 l 4.357,2.331 c 0.245,-0.655 0.674,-1.943 1.288,-3.865 0.613,-1.923 1.266,-3.947 1.963,-6.073 0.899,-2.863 1.349,-5.808 1.349,-8.834 0,-0.491 -0.051,-1.749 -0.153,-3.773 -0.103,-2.024 -0.951,-4.264 -2.546,-6.718 -3.395,-4.947 -7.361,-7.545 -11.901,-7.791 z"
           style="fill:#f91536;fill-opacity:1;fill-rule:nonzero;stroke:none"
           id="path702944" />
      </g>
    </g>
  </g>
</svg>
