<?xml version="1.0" encoding="UTF-8" standalone="no"?>
<!-- Created with Inkscape (http://www.inkscape.org/) -->

<svg
   width="300"
   height="300"
   viewBox="0 0 79.374998 79.375"
   version="1.1"
   id="svg31435"
   inkscape:version="1.2.1 (9c6d41e410, 2022-07-14)"
   sodipodi:docname="1120_pic.svg"
   xmlns:inkscape="http://www.inkscape.org/namespaces/inkscape"
   xmlns:sodipodi="http://sodipodi.sourceforge.net/DTD/sodipodi-0.dtd"
   xmlns="http://www.w3.org/2000/svg"
   xmlns:svg="http://www.w3.org/2000/svg">
  <sodipodi:namedview
     id="namedview31437"
     pagecolor="#ffffff"
     bordercolor="#000000"
     borderopacity="0.25"
     inkscape:showpageshadow="2"
     inkscape:pageopacity="0.0"
     inkscape:pagecheckerboard="0"
     inkscape:deskcolor="#d1d1d1"
     inkscape:document-units="px"
     showgrid="false"
     inkscape:zoom="0.914906"
     inkscape:cx="-20.220656"
     inkscape:cy="115.8589"
     inkscape:window-width="1700"
     inkscape:window-height="690"
     inkscape:window-x="1724"
     inkscape:window-y="28"
     inkscape:window-maximized="1"
     inkscape:current-layer="layer1" />
  <defs
     id="defs31432" />
  <g
     inkscape:label="Layer 1"
     inkscape:groupmode="layer"
     id="layer1">
    <g
       id="g31834"
       transform="translate(-0.39244193,-11.434871)">
      <g
         id="g10319"
         transform="matrix(0.35277777,0,0,-0.35277777,17.665094,42.361936)"
         clip-path="none">
        <path
           d="m 0,0 c 4.12,-3.875 6.791,-8.559 7.446,-14.364 0.504,-4.47 -0.428,-8.998 -2.357,-13.062 -9.239,-19.468 -7.825,-38.16 2.514,-56.2 8.945,-14.287 23.448,-23.422 39.377,-27.171 42.185,-9.928 83.099,23.766 81.095,67.057 -0.43,9.326 -3.405,18.025 -10.227,25.774 6.082,-15.118 -6.898,-32.073 -19.321,-27.23 -5.444,2.123 -8.588,7.91 -7.883,13.712 0.752,6.213 2.609,12.005 5.602,17.368 4.752,16.621 2.15,29.96 -8.342,39.781 C 94.802,9.842 78.417,10.759 73.974,-1.88 73.871,-2.169 73.454,-2.1 73.468,-1.793 74.476,19.882 74.701,41.546 53.47,62.88 54.37,49.69 52.424,38.48 44.487,31.44 34.568,19.275 28.82,6.542 31.013,-7.272 c 0.458,-9.927 1.095,-20.131 -6.399,-17.783 -2.503,0.784 -4.505,2.696 -5.643,5.059 C 14,-9.68 8.21,-1.574 0,0"
           style="fill:#f27900;fill-opacity:1;fill-rule:nonzero;stroke:none"
           id="path10321" />
      </g>
      <g
         id="g10323"
         transform="matrix(0.35277777,0,0,-0.35277777,28.690069,79.414291)"
         clip-path="none">
        <path
           d="m 0,0 c -13.319,14.676 -18.467,32.246 -13.856,53.271 6.559,-17.11 18.821,-16.825 20.817,0 -3.386,23.182 2.559,40.83 19.106,52.187 -11.093,-25.26 9.982,-41.065 19.392,-25.26 4.532,-5.395 4.46,-13.716 3.423,-22.649 C 36.619,38.157 65.137,29.317 63.71,52.729 76.174,39.67 76.181,22.968 67.252,3.651 46.943,-8.646 24.95,-12.097 0,0"
           style="fill:#f79420;fill-opacity:1;fill-rule:nonzero;stroke:none"
           id="path10325" />
      </g>
      <g
         id="g10327"
         transform="matrix(0.35277777,0,0,-0.35277777,37.584302,58.00562)"
         clip-path="none">
        <path
           d="m 0,0 c 5.473,-14.457 4.303,-26.016 -6.313,-33.455 -3.377,-2.366 -6.557,-5.052 -8.943,-8.417 -5.815,-8.201 -5.392,-16.223 3.565,-24.003 7.614,-2.504 16.864,-2.664 27.045,-1.49 10.458,4.565 14.873,12.728 11.167,25.73 -6.16,-12.576 -19.626,-13.834 -18.592,1.767 0.178,2.694 0.775,5.353 1.705,7.888 C 16.029,-14.533 10.471,-5.532 0,0"
           style="fill:#ffa750;fill-opacity:1;fill-rule:nonzero;stroke:none"
           id="path10329" />
      </g>
    </g>
  </g>
</svg>
