<?xml version="1.0" encoding="UTF-8" standalone="no"?>
<!-- Created with Inkscape (http://www.inkscape.org/) -->

<svg
   version="1.1"
   id="svg18"
   width="300"
   height="150"
   viewBox="0 0 300.00002 150"
   sodipodi:docname="1121_word.svg"
   inkscape:version="1.2.1 (9c6d41e410, 2022-07-14)"
   xmlns:inkscape="http://www.inkscape.org/namespaces/inkscape"
   xmlns:sodipodi="http://sodipodi.sourceforge.net/DTD/sodipodi-0.dtd"
   xmlns="http://www.w3.org/2000/svg"
   xmlns:svg="http://www.w3.org/2000/svg">
  <sodipodi:namedview
     id="namedview37"
     pagecolor="#ffffff"
     bordercolor="#000000"
     borderopacity="0.25"
     inkscape:showpageshadow="2"
     inkscape:pageopacity="0.0"
     inkscape:pagecheckerboard="0"
     inkscape:deskcolor="#d1d1d1"
     showgrid="false"
     inkscape:zoom="2.8950252"
     inkscape:cx="99.653709"
     inkscape:cy="189.29023"
     inkscape:window-width="1700"
     inkscape:window-height="1396"
     inkscape:window-x="8"
     inkscape:window-y="28"
     inkscape:window-maximized="1"
     inkscape:current-layer="svg18" />
  <defs
     id="defs22">
    <clipPath
       clipPathUnits="userSpaceOnUse"
       id="clipPath2796">
      <path
         d="M 0,340.157 H 226.772 V 0 H 0 Z"
         id="path2794" />
    </clipPath>
    <clipPath
       clipPathUnits="userSpaceOnUse"
       id="clipPath2804">
      <path
         d="M 246.772,340.157 H 473.544 V 0 H 246.772 Z"
         id="path2802" />
    </clipPath>
    <clipPath
       clipPathUnits="userSpaceOnUse"
       id="clipPath2812">
      <path
         d="M 246.772,0 H 473.544 V 340.157 H 246.772 Z"
         id="path2810" />
    </clipPath>
    <clipPath
       clipPathUnits="userSpaceOnUse"
       id="clipPath2820">
      <path
         d="M 246.772,340.157 H 473.544 V 0 H 246.772 Z"
         id="path2818" />
    </clipPath>
    <clipPath
       clipPathUnits="userSpaceOnUse"
       id="clipPath2828">
      <path
         d="m 438.313,-190.079 c 0,-43.163 -34.991,-78.155 -78.155,-78.155 -43.164,0 -78.155,34.992 -78.155,78.155 0,43.164 34.991,78.155 78.155,78.155 43.164,0 78.155,-34.991 78.155,-78.155"
         id="path2826" />
    </clipPath>
    <clipPath
       clipPathUnits="userSpaceOnUse"
       id="clipPath702936">
      <path
         d="M 0,340.157 H 226.772 V 0 H 0 Z"
         id="path702934" />
    </clipPath>
    <clipPath
       clipPathUnits="userSpaceOnUse"
       id="clipPath703010">
      <path
         d="M 0,340.157 H 226.772 V 0 H 0 Z"
         id="path703008" />
    </clipPath>
  </defs>
  <g
     id="g703004"
     transform="matrix(1.3333333,0,0,-1.3333333,-1.1809296,312.73362)">
    <g
       id="g703006"
       clip-path="url(#clipPath703010)">
      <g
         id="g703012"
         transform="translate(124.6411,165.0786)">
        <path
           d="m 0,0 c -3.19,0 -5.573,0.307 -7.147,0.92 -1.575,0.614 -2.618,1.39 -3.128,2.331 -0.512,0.941 -0.767,1.881 -0.767,2.823 0,1.267 0.449,2.432 1.349,3.496 0.9,1.063 2.086,1.596 3.559,1.596 1.922,0 3.536,-0.952 4.846,-2.853 C 0.021,6.411 0.756,3.64 0.92,0 Z M 11.994,-0.644 C 11.359,-0.214 10.592,0 9.693,0 H 5.031 C 4.908,4.172 4.273,7.402 3.129,9.693 c -1.146,2.29 -2.506,3.885 -4.08,4.785 -1.574,0.899 -3.036,1.35 -4.386,1.35 -2.659,0 -4.929,-1.034 -6.809,-3.099 -1.882,-2.065 -2.822,-4.488 -2.822,-7.269 0,-1.881 0.408,-3.661 1.226,-5.337 0.818,-1.678 2.24,-3.037 4.264,-4.08 2.024,-1.043 4.877,-1.564 8.558,-1.564 h 1.227 c -0.859,-3.353 -2.475,-6.166 -4.847,-8.435 -2.372,-2.27 -5.296,-3.405 -8.772,-3.405 -1.84,0 -3.354,0.153 -4.54,0.46 -1.187,0.307 -2.291,0.747 -3.313,1.319 l -0.92,-3.865 c 2.249,-2.003 5.337,-3.006 9.264,-3.006 4.294,0 8.026,1.595 11.196,4.785 3.168,3.19 5.245,7.239 6.226,12.147 h 5.092 c 2.167,0 3.251,0.94 3.251,2.822 0,0.94 -0.317,1.626 -0.95,2.055"
           style="fill:#1d1d1b;fill-opacity:1;fill-rule:nonzero;stroke:none"
           id="path703014" />
      </g>
      <g
         id="g703016"
         transform="translate(142.1777,194.2187)">
        <path
           d="m 0,0 c 0,-2.086 -1.084,-3.211 -3.251,-3.375 -0.9,0 -1.647,0.308 -2.24,0.921 -0.593,0.613 -0.889,1.431 -0.889,2.454 0,0.94 0.296,1.727 0.889,2.362 0.593,0.633 1.36,0.951 2.301,0.951 C -1.268,3.313 -0.205,2.208 0,0 m -6.994,-34.661 h -0.92 c -2.044,0 -3.067,0.96 -3.067,2.883 0,0.572 0.214,1.166 0.644,1.779 0.429,0.614 1.237,0.92 2.423,0.92 h 1.227 c 4.417,0 7.3,0.47 8.65,1.412 l 0.123,0.49 c 0.163,0.531 0.245,1.166 0.245,1.902 0,0.736 -0.143,1.472 -0.429,2.208 -0.287,0.736 -0.819,1.718 -1.595,2.945 l -1.043,1.779 4.478,1.779 c 1.8,-3.354 2.699,-6.728 2.699,-10.122 0,-1.678 -0.327,-3.334 -0.981,-4.969 -0.736,-0.778 -1.963,-1.472 -3.681,-2.086 -1.717,-0.613 -4.642,-0.92 -8.773,-0.92 m -47.89,-13.619 c -0.491,0 -1.503,0.092 -3.037,0.276 -1.534,0.184 -3.569,0.91 -6.104,2.178 l 0.675,3.742 c 0.654,-0.327 1.656,-0.715 3.006,-1.166 1.349,-0.449 2.638,-0.776 3.865,-0.981 0.04,-0.04 0.327,-0.062 0.858,-0.062 3.027,0 5.91,1.616 8.65,4.847 1.964,2.372 2.945,5.234 2.945,8.588 0,2.904 -0.552,6.032 -1.656,9.386 -0.205,0.695 -1.227,3.353 -3.068,7.975 l 4.356,2.331 c 0.246,-0.654 0.675,-1.942 1.289,-3.864 0.613,-1.923 1.267,-3.948 1.962,-6.074 0.9,-2.863 1.35,-5.808 1.35,-8.833 0,-0.491 -0.052,-1.749 -0.153,-3.773 -0.103,-2.025 -0.951,-4.264 -2.546,-6.718 -3.395,-4.948 -7.362,-7.546 -11.902,-7.791 z"
           style="fill:#f91536;fill-opacity:1;fill-rule:nonzero;stroke:none"
           id="path703018" />
      </g>
    </g>
  </g>
</svg>
