<?xml version="1.0" encoding="UTF-8" standalone="no"?>
<!-- Created with Inkscape (http://www.inkscape.org/) -->

<svg
   version="1.1"
   id="svg18"
   width="300"
   height="150"
   viewBox="0 0 300.00002 150"
   sodipodi:docname="1122_word.svg"
   inkscape:version="1.2.1 (9c6d41e410, 2022-07-14)"
   xmlns:inkscape="http://www.inkscape.org/namespaces/inkscape"
   xmlns:sodipodi="http://sodipodi.sourceforge.net/DTD/sodipodi-0.dtd"
   xmlns="http://www.w3.org/2000/svg"
   xmlns:svg="http://www.w3.org/2000/svg">
  <sodipodi:namedview
     id="namedview37"
     pagecolor="#ffffff"
     bordercolor="#000000"
     borderopacity="0.25"
     inkscape:showpageshadow="2"
     inkscape:pageopacity="0.0"
     inkscape:pagecheckerboard="0"
     inkscape:deskcolor="#d1d1d1"
     showgrid="false"
     inkscape:zoom="2.8950252"
     inkscape:cx="59.930394"
     inkscape:cy="93.263437"
     inkscape:window-width="1700"
     inkscape:window-height="690"
     inkscape:window-x="1724"
     inkscape:window-y="28"
     inkscape:window-maximized="1"
     inkscape:current-layer="svg18" />
  <defs
     id="defs22">
    <clipPath
       clipPathUnits="userSpaceOnUse"
       id="clipPath2796">
      <path
         d="M 0,340.157 H 226.772 V 0 H 0 Z"
         id="path2794" />
    </clipPath>
    <clipPath
       clipPathUnits="userSpaceOnUse"
       id="clipPath2804">
      <path
         d="M 246.772,340.157 H 473.544 V 0 H 246.772 Z"
         id="path2802" />
    </clipPath>
    <clipPath
       clipPathUnits="userSpaceOnUse"
       id="clipPath2812">
      <path
         d="M 246.772,0 H 473.544 V 340.157 H 246.772 Z"
         id="path2810" />
    </clipPath>
    <clipPath
       clipPathUnits="userSpaceOnUse"
       id="clipPath2820">
      <path
         d="M 246.772,340.157 H 473.544 V 0 H 246.772 Z"
         id="path2818" />
    </clipPath>
    <clipPath
       clipPathUnits="userSpaceOnUse"
       id="clipPath2828">
      <path
         d="m 438.313,-190.079 c 0,-43.163 -34.991,-78.155 -78.155,-78.155 -43.164,0 -78.155,34.992 -78.155,78.155 0,43.164 34.991,78.155 78.155,78.155 43.164,0 78.155,-34.991 78.155,-78.155"
         id="path2826" />
    </clipPath>
    <clipPath
       clipPathUnits="userSpaceOnUse"
       id="clipPath702936">
      <path
         d="M 0,340.157 H 226.772 V 0 H 0 Z"
         id="path702934" />
    </clipPath>
    <clipPath
       clipPathUnits="userSpaceOnUse"
       id="clipPath703010">
      <path
         d="M 0,340.157 H 226.772 V 0 H 0 Z"
         id="path703008" />
    </clipPath>
    <clipPath
       clipPathUnits="userSpaceOnUse"
       id="clipPath703120">
      <path
         d="M 0,-20 H 226.772 V -360.157 H 0 Z"
         id="path703118" />
    </clipPath>
    <clipPath
       clipPathUnits="userSpaceOnUse"
       id="clipPath703128">
      <path
         d="M 0,-360.157 H 226.772 V -20 H 0 Z"
         id="path703126" />
    </clipPath>
    <clipPath
       clipPathUnits="userSpaceOnUse"
       id="clipPath703136">
      <path
         d="M 0,-20 H 226.772 V -360.157 H 0 Z"
         id="path703134" />
    </clipPath>
    <clipPath
       clipPathUnits="userSpaceOnUse"
       id="clipPath703144">
      <path
         d="m 438.313,-190.078 c 0,-43.164 -34.992,-78.155 -78.156,-78.155 -43.163,0 -78.154,34.991 -78.154,78.155 0,43.164 34.991,78.155 78.154,78.155 43.164,0 78.156,-34.991 78.156,-78.155"
         id="path703142" />
    </clipPath>
    <clipPath
       clipPathUnits="userSpaceOnUse"
       id="clipPath703160">
      <path
         d="M 246.772,-20 H 473.544 V -360.157 H 246.772 Z"
         id="path703158" />
    </clipPath>
    <clipPath
       clipPathUnits="userSpaceOnUse"
       id="clipPath703168">
      <path
         d="M 246.772,-360.157 H 473.544 V -20 H 246.772 Z"
         id="path703166" />
    </clipPath>
    <clipPath
       clipPathUnits="userSpaceOnUse"
       id="clipPath703176">
      <path
         d="m 282.002,-190.079 c 0,-43.163 34.993,-78.154 78.156,-78.154 43.164,0 78.155,34.991 78.155,78.154 0,43.164 -34.991,78.156 -78.155,78.156 -43.163,0 -78.156,-34.992 -78.156,-78.156"
         id="path703174" />
    </clipPath>
  </defs>
  <g
     id="g703114"
     transform="matrix(1.3333333,0,0,-1.3333333,-1.181727,322.23409)"
     clip-path="none">
    <g
       id="g703116"
       clip-path="url(#clipPath703120)">
      <g
         id="g703122">
        <g
           id="g703124"
           clip-path="url(#clipPath703128)">
          <g
             id="g703130">
            <g
               id="g703132"
               clip-path="url(#clipPath703136)">
              <g
                 id="g703138">
                <g
                   id="g703140"
                   clip-path="url(#clipPath703144)">
                  <g
                     id="g703146"
                     transform="translate(439.5815,-149.5332)">
                    <path
                       d="m 0,0 c -7.822,-0.997 -20.283,-0.997 -21.951,-0.997 -1.496,0 -9.319,7.075 -15.109,12.864 -3.507,3.509 -6.268,6.538 -6.461,7.266 -0.478,1.918 13.901,77.647 13.901,77.647 0,0 -7.669,-0.479 -8.628,1.438 -0.958,1.917 0.959,9.107 0.959,9.107 l -69.979,53.681 1.917,-110.239 c 0,0 12.462,-50.326 11.504,-55.598 -0.422,-2.358 -5.329,-8.896 -10.851,-15.549 -1.917,-2.32 -3.93,-4.659 -5.847,-6.844 -4.89,-5.579 -9.184,-10.104 -10.143,-10.679 -2.395,-1.438 -60.871,2.876 -64.705,1.438 -3.835,-1.438 -29.716,-7.669 -35.467,-7.669 -3.183,0 -11.907,3.509 -19.883,7.305 -4.619,2.166 -8.99,4.448 -11.885,6.192 -1.189,0.729 -2.128,1.342 -2.743,1.841 -4.793,3.834 -14.858,27.799 -15.816,31.633 -0.959,3.835 6.23,33.072 4.313,41.22 -1.917,8.148 -21.088,101.611 -21.088,101.611 l -72.374,-74.291 c 0,0 2.876,-0.479 2.876,-3.835 0,-3.354 -3.355,-4.313 -3.355,-4.313 0,0 51.764,-50.326 54.16,-56.557 0.94,-2.435 0.479,-6.481 -0.595,-10.66 -1.667,-6.499 -4.851,-13.286 -6.594,-14.743 -2.072,-1.726 -13.497,-9.605 -21.551,-14.091 -3.182,-1.783 -5.846,-3.03 -7.208,-3.164 -4.793,-0.479 -61.351,63.268 -64.706,67.102 -3.355,3.834 -12.462,19.651 -12.462,24.924 0,5.272 11.983,42.657 16.776,47.45 4.793,4.793 55.599,56.078 71.895,75.25 16.297,19.172 30.676,38.823 35.948,40.261 5.273,1.438 48.408,1.668 48.408,1.668 l 32.115,-32.592 4.235,19.804 8.821,-6.499 c 0,0 -0.594,-90.223 -3.47,-116.585 -2.876,-26.361 -1.438,-81.48 -0.959,-85.315 0.479,-3.834 22.046,-14.378 23.964,-14.378 1.917,0 12.941,16.775 15.337,20.609 2.398,3.834 -10.065,80.522 -12.941,102.57 -2.876,22.048 -13.42,93.943 -13.42,93.943 l 9.586,7.669 0.019,0.019 9.567,-14.398 c 0,0 14.859,29.716 14.859,31.403 0,0 55.598,1.189 58.953,-1.208 3.355,-2.396 122.222,-100.173 122.701,-103.528 0.48,-3.355 -6.711,-76.209 -6.23,-81.481 C 16.871,35.43 7.765,4.754 6.326,1.879 5.904,1.016 3.375,0.402 0,0"
                       style="fill:#e9e5d9;fill-opacity:1;fill-rule:nonzero;stroke:none"
                       id="path703148" />
                  </g>
                  <g
                     id="g703150"
                     transform="translate(146.706,29.438)">
                    <path
                       d="m 0,0 c 0,0 0,-1.138 0.152,-3.111 0.096,-1.977 0.487,-4.781 1.089,-8.105 0.594,-3.329 1.579,-7.155 2.709,-11.237 1.129,-4.083 2.475,-8.415 3.533,-12.86 0.496,-2.227 0.936,-4.497 1.306,-6.713 0.342,-2.226 0.576,-4.417 0.807,-6.531 0.476,-4.224 0.793,-8.163 1.329,-11.5 0.516,-3.336 0.988,-6.124 1.494,-8.037 0.436,-1.934 0.778,-3.021 0.778,-3.021 0,0 -0.5,1.02 -1.264,2.865 -0.717,1.857 -1.75,4.54 -2.597,7.864 -0.851,3.319 -1.79,7.215 -2.588,11.392 -0.882,4.172 -1.586,8.588 -2.529,12.967 -0.885,4.409 -1.741,8.87 -2.468,13.08 -0.74,4.206 -1.291,8.168 -1.623,11.575 -0.337,3.407 -0.363,6.265 -0.307,8.253 C -0.108,-1.128 0,0 0,0"
                       style="fill:#bfc1bf;fill-opacity:1;fill-rule:nonzero;stroke:none"
                       id="path703152" />
                  </g>
                </g>
              </g>
            </g>
          </g>
        </g>
      </g>
    </g>
  </g>
  <g
     id="g703154"
     transform="matrix(1.3333333,0,0,-1.3333333,-1.181727,322.23409)"
     clip-path="none">
    <g
       id="g703156"
       clip-path="url(#clipPath703160)">
      <g
         id="g703162">
        <g
           id="g703164"
           clip-path="url(#clipPath703168)">
          <g
             id="g703170">
            <g
               id="g703172"
               clip-path="url(#clipPath703176)">
              <g
                 id="g703178"
                 transform="translate(439.5815,-149.5332)">
                <path
                   d="m 0,0 c -7.822,-0.997 -20.283,-0.997 -21.951,-0.997 -1.496,0 -9.318,7.075 -15.108,12.864 -3.508,3.509 -6.269,6.538 -6.461,7.266 -0.479,1.918 13.9,77.647 13.9,77.647 0,0 -7.669,-0.479 -8.628,1.438 -0.958,1.917 0.959,9.107 0.959,9.107 l -69.978,53.681 1.917,-110.239 c 0,0 12.462,-50.326 11.504,-55.598 -0.422,-2.358 -5.33,-8.896 -10.852,-15.549 -1.917,-2.32 -3.93,-4.659 -5.847,-6.844 -4.889,-5.579 -9.184,-10.104 -10.142,-10.679 -2.396,-1.438 -60.871,2.876 -64.705,1.438 -3.835,-1.438 -29.717,-7.669 -35.468,-7.669 -3.183,0 -11.906,3.509 -19.882,7.305 -4.62,2.166 -8.991,4.448 -11.886,6.192 -1.189,0.729 -2.128,1.342 -2.742,1.841 -4.793,3.834 -14.858,27.799 -15.817,31.633 -0.958,3.835 6.231,33.072 4.314,41.22 -1.917,8.148 -21.089,101.611 -21.089,101.611 l -72.374,-74.291 c 0,0 2.876,-0.479 2.876,-3.835 0,-3.354 -3.355,-4.313 -3.355,-4.313 0,0 51.764,-50.326 54.16,-56.557 0.94,-2.435 0.479,-6.481 -0.594,-10.66 -1.668,-6.499 -4.851,-13.286 -6.595,-14.743 -2.071,-1.726 -13.497,-9.605 -21.55,-14.091 -3.182,-1.783 -5.847,-3.03 -7.208,-3.164 -4.793,-0.479 -61.351,63.268 -64.706,67.102 -3.355,3.834 -12.462,19.651 -12.462,24.924 0,5.272 11.983,42.657 16.776,47.45 4.793,4.793 55.599,56.078 71.895,75.25 16.296,19.172 30.675,38.823 35.947,40.261 5.273,1.438 48.409,1.668 48.409,1.668 l 32.114,-32.592 4.236,19.804 8.82,-6.499 c 0,0 -0.594,-90.223 -3.47,-116.585 -2.876,-26.361 -1.438,-81.48 -0.959,-85.315 0.479,-3.834 22.047,-14.378 23.965,-14.378 1.917,0 12.941,16.775 15.337,20.609 2.397,3.834 -10.065,80.522 -12.941,102.57 -2.876,22.048 -13.42,93.943 -13.42,93.943 l 9.586,7.669 0.019,0.019 9.567,-14.398 c 0,0 14.858,29.716 14.858,31.403 0,0 55.599,1.189 58.954,-1.208 3.355,-2.396 122.221,-100.173 122.7,-103.528 0.48,-3.355 -6.71,-76.209 -6.23,-81.481 C 16.872,35.43 7.765,4.754 6.327,1.879 5.905,1.016 3.375,0.402 0,0"
                   style="fill:#e9e5d9;fill-opacity:1;fill-rule:nonzero;stroke:none"
                   id="path703180" />
              </g>
            </g>
          </g>
        </g>
      </g>
    </g>
  </g>
  <g
     id="g720788"
     transform="translate(44.249135)" />
  <g
     id="g1008645">
    <g
       id="g703182"
       transform="matrix(1.3333333,0,0,-1.3333333,149.302,92.477562)"
       clip-path="none">
      <path
         d="m 0,0 c -3.19,0 -5.573,0.307 -7.147,0.92 -1.575,0.614 -2.618,1.39 -3.129,2.331 -0.512,0.941 -0.766,1.881 -0.766,2.823 0,1.267 0.449,2.432 1.349,3.496 0.899,1.063 2.086,1.596 3.558,1.596 1.922,0 3.537,-0.952 4.846,-2.853 C 0.02,6.411 0.756,3.64 0.92,0 Z M 11.993,-0.644 C 11.358,-0.214 10.592,0 9.692,0 H 5.03 C 4.908,4.172 4.273,7.402 3.128,9.693 c -1.145,2.29 -2.505,3.885 -4.079,4.785 -1.575,0.899 -3.037,1.35 -4.386,1.35 -2.66,0 -4.929,-1.034 -6.81,-3.099 -1.882,-2.065 -2.822,-4.488 -2.822,-7.269 0,-1.881 0.408,-3.661 1.227,-5.337 0.818,-1.678 2.239,-3.037 4.263,-4.08 2.025,-1.043 4.878,-1.564 8.559,-1.564 h 1.227 c -0.859,-3.353 -2.475,-6.166 -4.847,-8.435 -2.372,-2.27 -5.297,-3.405 -8.773,-3.405 -1.84,0 -3.354,0.153 -4.539,0.46 -1.187,0.307 -2.291,0.747 -3.313,1.319 l -0.92,-3.865 c 2.249,-2.003 5.337,-3.006 9.263,-3.006 4.295,0 8.026,1.595 11.196,4.785 3.169,3.19 5.245,7.239 6.227,12.147 h 5.091 c 2.168,0 3.252,0.94 3.252,2.822 0,0.94 -0.318,1.626 -0.951,2.055"
         style="fill:#f91536;fill-opacity:1;fill-rule:nonzero;stroke:none"
         id="path703184" />
    </g>
    <g
       id="g703186"
       transform="matrix(1.3333333,0,0,-1.3333333,200.49466,99.838896)"
       clip-path="none">
      <path
         d="M 0,0 C -3.313,0 -5.501,1.431 -6.564,4.294 -8.119,1.431 -10.552,0 -13.865,0 -17.055,0 -19.018,1.493 -19.754,4.479 -21.717,1.493 -24.723,0 -28.772,0 c -1.186,0 -2.003,0.296 -2.454,0.89 -0.449,0.592 -0.674,1.216 -0.674,1.871 0,0.776 0.245,1.441 0.735,1.993 0.491,0.553 1.289,0.829 2.393,0.829 2.985,0 5.123,0.767 6.411,2.3 1.288,1.534 2.156,3.609 2.607,6.227 l 3.926,0.184 c -0.573,-1.8 -0.859,-3.354 -0.859,-4.663 0,-2.862 1.125,-4.294 3.374,-4.294 1.636,0 2.965,0.573 3.988,1.718 1.022,1.144 1.799,3.251 2.331,6.319 l 3.865,0.184 C -3.17,13.475 -3.19,13.374 -3.19,13.251 c -0.287,-0.9 -0.43,-2.004 -0.43,-3.313 0,-3.027 1.39,-4.54 4.172,-4.54 1.349,0 2.474,0.439 3.374,1.32 0.899,0.879 1.35,2.013 1.35,3.404 0,1.064 -0.215,2.311 -0.645,3.742 -0.429,1.431 -0.91,2.7 -1.441,3.804 l 4.478,1.288 C 8.65,17.033 9.141,14.375 9.141,10.981 9.141,7.504 8.251,4.805 6.472,2.883 4.693,0.96 2.535,0 0,0 m -75.743,-13.619 c -0.49,0 -1.503,0.092 -3.036,0.276 -1.534,0.184 -3.569,0.911 -6.104,2.178 l 0.675,3.742 c 0.653,-0.327 1.656,-0.715 3.006,-1.165 1.349,-0.45 2.638,-0.777 3.865,-0.982 0.04,-0.04 0.326,-0.061 0.858,-0.061 3.026,0 5.91,1.616 8.65,4.846 1.963,2.372 2.945,5.235 2.945,8.589 0,2.903 -0.552,6.032 -1.657,9.385 -0.205,0.696 -1.226,3.353 -3.067,7.976 l 4.356,2.331 c 0.245,-0.655 0.675,-1.943 1.288,-3.865 0.614,-1.923 1.267,-3.947 1.964,-6.073 0.898,-2.864 1.349,-5.808 1.349,-8.834 0,-0.491 -0.052,-1.748 -0.153,-3.773 -0.103,-2.025 -0.951,-4.264 -2.546,-6.718 -3.396,-4.947 -7.362,-7.546 -11.901,-7.791 z"
         style="fill:#1d1d1b;fill-opacity:1;fill-rule:nonzero;stroke:none"
         id="path703188" />
    </g>
  </g>
</svg>
