<?xml version="1.0" encoding="UTF-8" standalone="no"?>
<!-- Created with Inkscape (http://www.inkscape.org/) -->

<svg
   version="1.1"
   id="svg18"
   width="300"
   height="150"
   viewBox="0 0 300.00002 150"
   sodipodi:docname="1123_word.svg"
   inkscape:version="1.2.1 (9c6d41e410, 2022-07-14)"
   xmlns:inkscape="http://www.inkscape.org/namespaces/inkscape"
   xmlns:sodipodi="http://sodipodi.sourceforge.net/DTD/sodipodi-0.dtd"
   xmlns="http://www.w3.org/2000/svg"
   xmlns:svg="http://www.w3.org/2000/svg">
  <sodipodi:namedview
     id="namedview37"
     pagecolor="#ffffff"
     bordercolor="#000000"
     borderopacity="0.25"
     inkscape:showpageshadow="2"
     inkscape:pageopacity="0.0"
     inkscape:pagecheckerboard="0"
     inkscape:deskcolor="#d1d1d1"
     showgrid="false"
     inkscape:zoom="2.8950252"
     inkscape:cx="130.3961"
     inkscape:cy="49.39508"
     inkscape:window-width="1700"
     inkscape:window-height="690"
     inkscape:window-x="1724"
     inkscape:window-y="28"
     inkscape:window-maximized="1"
     inkscape:current-layer="svg18" />
  <defs
     id="defs22">
    <clipPath
       clipPathUnits="userSpaceOnUse"
       id="clipPath2796">
      <path
         d="M 0,340.157 H 226.772 V 0 H 0 Z"
         id="path2794" />
    </clipPath>
    <clipPath
       clipPathUnits="userSpaceOnUse"
       id="clipPath2804">
      <path
         d="M 246.772,340.157 H 473.544 V 0 H 246.772 Z"
         id="path2802" />
    </clipPath>
    <clipPath
       clipPathUnits="userSpaceOnUse"
       id="clipPath2812">
      <path
         d="M 246.772,0 H 473.544 V 340.157 H 246.772 Z"
         id="path2810" />
    </clipPath>
    <clipPath
       clipPathUnits="userSpaceOnUse"
       id="clipPath2820">
      <path
         d="M 246.772,340.157 H 473.544 V 0 H 246.772 Z"
         id="path2818" />
    </clipPath>
    <clipPath
       clipPathUnits="userSpaceOnUse"
       id="clipPath2828">
      <path
         d="m 438.313,-190.079 c 0,-43.163 -34.991,-78.155 -78.155,-78.155 -43.164,0 -78.155,34.992 -78.155,78.155 0,43.164 34.991,78.155 78.155,78.155 43.164,0 78.155,-34.991 78.155,-78.155"
         id="path2826" />
    </clipPath>
    <clipPath
       clipPathUnits="userSpaceOnUse"
       id="clipPath702936">
      <path
         d="M 0,340.157 H 226.772 V 0 H 0 Z"
         id="path702934" />
    </clipPath>
    <clipPath
       clipPathUnits="userSpaceOnUse"
       id="clipPath703010">
      <path
         d="M 0,340.157 H 226.772 V 0 H 0 Z"
         id="path703008" />
    </clipPath>
    <clipPath
       clipPathUnits="userSpaceOnUse"
       id="clipPath703120">
      <path
         d="M 0,-20 H 226.772 V -360.157 H 0 Z"
         id="path703118" />
    </clipPath>
    <clipPath
       clipPathUnits="userSpaceOnUse"
       id="clipPath703128">
      <path
         d="M 0,-360.157 H 226.772 V -20 H 0 Z"
         id="path703126" />
    </clipPath>
    <clipPath
       clipPathUnits="userSpaceOnUse"
       id="clipPath703136">
      <path
         d="M 0,-20 H 226.772 V -360.157 H 0 Z"
         id="path703134" />
    </clipPath>
    <clipPath
       clipPathUnits="userSpaceOnUse"
       id="clipPath703144">
      <path
         d="m 438.313,-190.078 c 0,-43.164 -34.992,-78.155 -78.156,-78.155 -43.163,0 -78.154,34.991 -78.154,78.155 0,43.164 34.991,78.155 78.154,78.155 43.164,0 78.156,-34.991 78.156,-78.155"
         id="path703142" />
    </clipPath>
    <clipPath
       clipPathUnits="userSpaceOnUse"
       id="clipPath703160">
      <path
         d="M 246.772,-20 H 473.544 V -360.157 H 246.772 Z"
         id="path703158" />
    </clipPath>
    <clipPath
       clipPathUnits="userSpaceOnUse"
       id="clipPath703168">
      <path
         d="M 246.772,-360.157 H 473.544 V -20 H 246.772 Z"
         id="path703166" />
    </clipPath>
    <clipPath
       clipPathUnits="userSpaceOnUse"
       id="clipPath703176">
      <path
         d="m 282.002,-190.079 c 0,-43.163 34.993,-78.154 78.156,-78.154 43.164,0 78.155,34.991 78.155,78.154 0,43.164 -34.991,78.156 -78.155,78.156 -43.163,0 -78.156,-34.992 -78.156,-78.156"
         id="path703174" />
    </clipPath>
    <clipPath
       clipPathUnits="userSpaceOnUse"
       id="clipPath720772">
      <g
         id="g720776"
         transform="matrix(0.75000002,0,0,-0.75000002,-117.18415,74.879174)">
        <path
           d="M -45.430862,-131.30857 H 256.9318 V 322.23409 H -45.430862 Z"
           id="path720774"
           style="stroke-width:1.33333" />
      </g>
    </clipPath>
    <clipPath
       clipPathUnits="userSpaceOnUse"
       id="clipPath720778">
      <g
         id="g720782"
         transform="matrix(0.75000002,0,0,-0.75000002,-78.789654,69.358173)">
        <path
           d="M -45.430862,-131.30857 H 256.9318 V 322.23409 H -45.430862 Z"
           id="path720780"
           style="stroke-width:1.33333" />
      </g>
    </clipPath>
    <clipPath
       clipPathUnits="userSpaceOnUse"
       id="clipPath720784">
      <g
         id="g720788"
         transform="matrix(0.75000002,0,0,-0.75000002,34.073147,241.67557)">
        <path
           d="M -45.430862,-131.30857 H 256.9318 V 322.23409 H -45.430862 Z"
           id="path720786"
           style="stroke-width:1.33333" />
      </g>
    </clipPath>
    <clipPath
       clipPathUnits="userSpaceOnUse"
       id="clipPath703262">
      <path
         d="M -246.772,-20 H -20 v -340.157 h -226.772 z"
         id="path703260" />
    </clipPath>
    <clipPath
       clipPathUnits="userSpaceOnUse"
       id="clipPath703270">
      <path
         d="M -246.772,-360.157 H -20 V -20 h -226.772 z"
         id="path703268" />
    </clipPath>
    <clipPath
       clipPathUnits="userSpaceOnUse"
       id="clipPath703278">
      <path
         d="M -246.772,-20 H -20 v -340.157 h -226.772 z"
         id="path703276" />
    </clipPath>
    <clipPath
       clipPathUnits="userSpaceOnUse"
       id="clipPath703286">
      <path
         d="m 191.541,-190.078 c 0,-43.164 -34.992,-78.155 -78.156,-78.155 -43.163,0 -78.154,34.991 -78.154,78.155 0,43.164 34.991,78.155 78.154,78.155 43.164,0 78.156,-34.991 78.156,-78.155"
         id="path703284" />
    </clipPath>
    <clipPath
       clipPathUnits="userSpaceOnUse"
       id="clipPath703298">
      <path
         d="M 0,-20 H 226.772 V -360.157 H 0 Z"
         id="path703296" />
    </clipPath>
    <clipPath
       clipPathUnits="userSpaceOnUse"
       id="clipPath703306">
      <path
         d="M 0,-360.157 H 226.772 V -20 H 0 Z"
         id="path703304" />
    </clipPath>
    <clipPath
       clipPathUnits="userSpaceOnUse"
       id="clipPath703314">
      <path
         d="m 35.23,-190.079 c 0,-43.163 34.993,-78.154 78.156,-78.154 43.164,0 78.155,34.991 78.155,78.154 0,43.164 -34.991,78.156 -78.155,78.156 -43.163,0 -78.156,-34.992 -78.156,-78.156"
         id="path703312" />
    </clipPath>
  </defs>
  <g
     id="g703256"
     transform="matrix(1.3333333,0,0,-1.3333333,-1.1813318,287.19582)"
     clip-path="none">
    <g
       id="g703258"
       clip-path="url(#clipPath703262)">
      <g
         id="g703264">
        <g
           id="g703266"
           clip-path="url(#clipPath703270)">
          <g
             id="g703272">
            <g
               id="g703274"
               clip-path="url(#clipPath703278)">
              <g
                 id="g703280">
                <g
                   id="g703282"
                   clip-path="url(#clipPath703286)">
                  <g
                     id="g703288"
                     transform="translate(192.8095,-149.5332)">
                    <path
                       d="m 0,0 c -7.822,-0.997 -20.283,-0.997 -21.951,-0.997 -1.496,0 -9.319,7.075 -15.109,12.864 -3.507,3.509 -6.268,6.538 -6.461,7.266 -0.478,1.918 13.901,77.647 13.901,77.647 0,0 -7.669,-0.479 -8.628,1.438 -0.958,1.917 0.959,9.107 0.959,9.107 l -69.979,53.681 1.917,-110.239 c 0,0 12.462,-50.326 11.504,-55.598 -0.422,-2.358 -5.329,-8.896 -10.851,-15.549 -1.917,-2.32 -3.93,-4.659 -5.847,-6.844 -4.89,-5.579 -9.184,-10.104 -10.143,-10.679 -2.395,-1.438 -60.871,2.876 -64.705,1.438 -3.835,-1.438 -29.716,-7.669 -35.467,-7.669 -3.183,0 -11.907,3.509 -19.883,7.305 -4.619,2.166 -8.99,4.448 -11.885,6.192 -1.189,0.729 -2.128,1.342 -2.743,1.841 -4.793,3.834 -14.858,27.799 -15.816,31.633 -0.959,3.835 6.23,33.072 4.313,41.22 -1.917,8.148 -21.088,101.611 -21.088,101.611 l -72.374,-74.291 c 0,0 2.876,-0.479 2.876,-3.835 0,-3.354 -3.355,-4.313 -3.355,-4.313 0,0 51.764,-50.326 54.16,-56.557 0.94,-2.435 0.479,-6.481 -0.595,-10.66 -1.667,-6.499 -4.851,-13.286 -6.594,-14.743 -2.072,-1.726 -13.497,-9.605 -21.551,-14.091 -3.182,-1.783 -5.846,-3.03 -7.208,-3.164 -4.793,-0.479 -61.351,63.268 -64.706,67.102 -3.355,3.834 -12.462,19.651 -12.462,24.924 0,5.272 11.983,42.657 16.776,47.45 4.793,4.793 55.599,56.078 71.895,75.25 16.297,19.172 30.676,38.823 35.948,40.261 5.273,1.438 48.408,1.668 48.408,1.668 l 32.115,-32.592 4.235,19.804 8.821,-6.499 c 0,0 -0.594,-90.223 -3.47,-116.585 -2.876,-26.361 -1.438,-81.48 -0.959,-85.315 0.479,-3.834 22.046,-14.378 23.964,-14.378 1.917,0 12.941,16.775 15.337,20.609 2.398,3.834 -10.065,80.522 -12.941,102.57 -2.876,22.048 -13.42,93.943 -13.42,93.943 l 9.586,7.669 0.019,0.019 9.567,-14.398 c 0,0 14.859,29.716 14.859,31.403 0,0 55.598,1.189 58.953,-1.208 3.355,-2.396 122.222,-100.173 122.701,-103.528 0.48,-3.355 -6.711,-76.209 -6.23,-81.481 C 16.871,35.43 7.765,4.754 6.326,1.879 5.904,1.016 3.375,0.402 0,0"
                       style="fill:#e9e5d9;fill-opacity:1;fill-rule:nonzero;stroke:none"
                       id="path703290" />
                  </g>
                </g>
              </g>
            </g>
          </g>
        </g>
      </g>
    </g>
  </g>
  <g
     id="g703292"
     transform="matrix(1.3333333,0,0,-1.3333333,-1.1813318,287.19582)"
     clip-path="none">
    <g
       id="g703294"
       clip-path="url(#clipPath703298)">
      <g
         id="g703300">
        <g
           id="g703302"
           clip-path="url(#clipPath703306)">
          <g
             id="g703308">
            <g
               id="g703310"
               clip-path="url(#clipPath703314)">
              <g
                 id="g703316"
                 transform="translate(192.8095,-149.5332)">
                <path
                   d="m 0,0 c -7.822,-0.997 -20.283,-0.997 -21.951,-0.997 -1.496,0 -9.318,7.075 -15.108,12.864 -3.508,3.509 -6.269,6.538 -6.461,7.266 -0.479,1.918 13.9,77.647 13.9,77.647 0,0 -7.669,-0.479 -8.628,1.438 -0.958,1.917 0.959,9.107 0.959,9.107 l -69.978,53.681 1.917,-110.239 c 0,0 12.462,-50.326 11.504,-55.598 -0.422,-2.358 -5.33,-8.896 -10.852,-15.549 -1.917,-2.32 -3.93,-4.659 -5.847,-6.844 -4.889,-5.579 -9.184,-10.104 -10.142,-10.679 -2.396,-1.438 -60.871,2.876 -64.705,1.438 -3.835,-1.438 -29.717,-7.669 -35.468,-7.669 -3.183,0 -11.906,3.509 -19.882,7.305 -4.62,2.166 -8.991,4.448 -11.886,6.192 -1.189,0.729 -2.128,1.342 -2.742,1.841 -4.793,3.834 -14.858,27.799 -15.817,31.633 -0.958,3.835 6.231,33.072 4.314,41.22 -1.917,8.148 -21.089,101.611 -21.089,101.611 l -72.374,-74.291 c 0,0 2.876,-0.479 2.876,-3.835 0,-3.354 -3.355,-4.313 -3.355,-4.313 0,0 51.764,-50.326 54.16,-56.557 0.94,-2.435 0.479,-6.481 -0.594,-10.66 -1.668,-6.499 -4.851,-13.286 -6.595,-14.743 -2.071,-1.726 -13.497,-9.605 -21.55,-14.091 -3.182,-1.783 -5.847,-3.03 -7.208,-3.164 -4.793,-0.479 -61.351,63.268 -64.706,67.102 -3.355,3.834 -12.462,19.651 -12.462,24.924 0,5.272 11.983,42.657 16.776,47.45 4.793,4.793 55.599,56.078 71.895,75.25 16.296,19.172 30.675,38.823 35.947,40.261 5.273,1.438 48.409,1.668 48.409,1.668 l 32.114,-32.592 4.236,19.804 8.82,-6.499 c 0,0 -0.594,-90.223 -3.47,-116.585 -2.876,-26.361 -1.438,-81.48 -0.959,-85.315 0.479,-3.834 22.047,-14.378 23.965,-14.378 1.917,0 12.941,16.775 15.337,20.609 2.397,3.834 -10.065,80.522 -12.941,102.57 -2.876,22.048 -13.42,93.943 -13.42,93.943 l 9.586,7.669 0.019,0.019 9.567,-14.398 c 0,0 14.858,29.716 14.858,31.403 0,0 55.599,1.189 58.954,-1.208 3.355,-2.396 122.221,-100.173 122.7,-103.528 0.48,-3.355 -6.71,-76.209 -6.23,-81.481 C 16.872,35.43 7.765,4.754 6.327,1.879 5.905,1.016 3.375,0.402 0,0"
                   style="fill:#e9e5d9;fill-opacity:1;fill-rule:nonzero;stroke:none"
                   id="path703318" />
              </g>
              <g
                 id="g703320"
                 transform="translate(13.1689,-41.25)">
                <path
                   d="m 0,0 c 2.876,-22.048 15.337,-98.736 12.941,-102.57 -2.397,-3.834 -13.42,-20.61 -15.337,-20.61 -1.918,0 -23.486,10.545 -23.965,14.379 -0.48,3.835 -1.918,58.954 0.958,85.315 2.876,26.361 3.47,116.585 3.47,116.585 l -8.819,6.499 2.148,10.008 h 19.497 l 5.292,-7.976 -0.019,-0.019 -9.586,-7.669 C -13.42,93.942 -2.876,22.048 0,0"
                   style="fill:#f16935;fill-opacity:1;fill-rule:nonzero;stroke:none"
                   id="path703322" />
              </g>
              <g
                 id="g703324"
                 transform="translate(87.621,12.3921)">
                <path
                   d="m 0,0 c 0,0 1.217,-0.602 3.346,-1.655 2.073,-1.15 5.114,-2.717 8.493,-5.023 3.375,-2.301 7.271,-5.07 11.247,-8.262 3.997,-3.167 8.106,-6.706 12.247,-10.162 4.083,-3.544 8.201,-6.922 12.177,-10.054 3.985,-3.114 7.625,-6.195 10.717,-8.867 3.098,-2.672 5.41,-5.215 7.024,-6.966 1.558,-1.815 2.382,-2.898 2.382,-2.898 0,0 -1.042,0.881 -2.93,2.317 -1.824,1.506 -4.609,3.424 -7.858,5.815 -3.252,2.398 -7.216,4.97 -11.322,7.984 -4.15,2.954 -8.384,6.475 -12.472,10.033 -3.989,3.653 -7.964,7.296 -11.723,10.74 -3.736,3.406 -7.224,6.582 -10.39,9.093 C 7.776,-5.395 5.093,-3.34 3.122,-2.028 1.135,-0.738 0,0 0,0"
                   style="fill:#bfc1bf;fill-opacity:1;fill-rule:nonzero;stroke:none"
                   id="path703326" />
              </g>
              <g
                 id="g703328"
                 transform="translate(87.2543,32.0044)">
                <path
                   d="m 0,0 c 0,0 0.066,-1.049 0.183,-2.885 0.065,-1.837 0.175,-4.47 0.11,-7.627 -0.024,-3.158 -0.271,-6.831 -0.214,-10.774 -0.07,-0.981 0.191,-1.997 0.17,-3.006 0.06,-1.013 -0.064,-2.026 -0.079,-3.052 -0.081,-2.048 -0.141,-4.123 -0.145,-6.193 0.002,-4.105 -0.03,-8.306 -0.192,-12.267 -0.199,-3.89 -0.391,-7.633 -0.552,-10.782 -0.101,-3.051 -0.191,-5.791 -0.252,-7.612 -0.082,-1.838 -0.129,-2.885 -0.129,-2.885 0,0 -0.075,1.046 -0.206,2.883 -0.109,1.817 -0.272,4.552 -0.454,7.597 -0.245,3.131 -0.536,6.852 -0.839,10.72 -0.106,1.971 -0.215,3.99 -0.325,6.042 -0.13,2.063 -0.239,4.219 -0.203,6.339 0.044,2.126 0.141,4.244 0.283,6.32 0.089,1.038 0.106,2.068 0.29,3.077 0.122,1.009 0.514,1.988 0.593,2.969 0.64,3.902 0.971,7.55 1.282,10.677 0.277,3.128 0.504,5.74 0.568,7.574 C -0.041,-1.049 0,0 0,0"
                   style="fill:#bfc1bf;fill-opacity:1;fill-rule:nonzero;stroke:none"
                   id="path703330" />
              </g>
            </g>
          </g>
        </g>
      </g>
    </g>
  </g>
  <g
     id="g1008526">
    <g
       id="g703332"
       transform="matrix(1.3333333,0,0,-1.3333333,190.75867,99.195821)"
       clip-path="none">
      <path
         d="M 0,0 C -0.491,0 -1.503,0.092 -3.037,0.276 -4.57,0.46 -6.605,1.187 -9.141,2.454 l 0.675,3.742 C -7.812,5.869 -6.81,5.481 -5.46,5.03 c 1.35,-0.449 2.638,-0.776 3.865,-0.981 0.04,-0.04 0.326,-0.061 0.859,-0.061 3.026,0 5.909,1.616 8.65,4.846 1.963,2.373 2.944,5.235 2.944,8.588 0,2.904 -0.551,6.033 -1.656,9.387 -0.205,0.694 -1.227,3.353 -3.067,7.975 l 4.355,2.331 c 0.245,-0.655 0.675,-1.943 1.288,-3.865 0.614,-1.923 1.268,-3.947 1.963,-6.073 0.9,-2.864 1.35,-5.808 1.35,-8.834 0,-0.491 -0.052,-1.749 -0.153,-3.773 C 14.835,12.545 13.987,10.306 12.392,7.853 8.997,2.904 5.03,0.307 0.49,0.062 Z m -62.12,0.368 c -4.335,0 -7.771,1.422 -10.306,4.264 -2.536,2.843 -3.803,6.37 -3.803,10.582 0,3.681 0.674,6.85 2.024,9.509 l 3.313,-0.614 c -0.736,-2.291 -1.105,-4.764 -1.105,-7.422 0,-3.436 1.053,-6.104 3.16,-8.006 2.106,-1.902 4.632,-2.853 7.576,-2.853 2.904,0 5.368,0.706 7.393,2.116 2.024,1.411 3.425,3.283 4.202,5.614 0.327,0.776 0.491,1.512 0.491,2.208 -0.451,4.172 -1.78,8.527 -3.988,13.067 l 4.417,1.657 c 1.144,-2.495 2.147,-5.583 3.006,-9.264 0.449,-1.514 1.574,-2.27 3.374,-2.27 1.022,0 1.922,0.307 2.699,0.92 1.39,1.063 2.086,3.743 2.086,8.037 l -0.061,2.822 3.865,0.184 c 0.572,-1.923 0.92,-3.354 1.043,-4.294 l 0.061,-1.657 v -1.411 c 0,-3.027 1.39,-4.539 4.172,-4.539 1.35,0 2.474,0.439 3.374,1.318 0.898,0.88 1.35,2.015 1.35,3.405 0,1.063 -0.215,2.31 -0.645,3.742 -0.43,1.432 -0.91,2.7 -1.441,3.804 l 4.478,1.288 c 0.982,-1.923 1.472,-4.58 1.472,-7.975 0,-3.476 -0.89,-6.176 -2.668,-8.098 -1.779,-1.922 -3.938,-2.883 -6.473,-2.883 -3.353,0 -5.521,1.472 -6.502,4.417 -1.595,-2.945 -3.988,-4.417 -7.178,-4.417 -1.023,0 -1.943,0.245 -2.761,0.736 0,-0.613 -0.163,-1.533 -0.49,-2.76 -1.187,-3.64 -3.231,-6.421 -6.135,-8.344 -2.904,-1.921 -6.237,-2.883 -10,-2.883"
         style="fill:#f91536;fill-opacity:1;fill-rule:nonzero;stroke:none"
         id="path703334" />
    </g>
    <g
       id="g703336"
       transform="matrix(1.3333333,0,0,-1.3333333,181.79387,81.037021)"
       clip-path="none">
      <path
         d="m 0,0 h -4.602 l -1.716,44.17 4.6,0.368 z"
         style="fill:#1d1d1b;fill-opacity:1;fill-rule:nonzero;stroke:none"
         id="path703338" />
    </g>
  </g>
</svg>
