<?xml version="1.0" encoding="UTF-8" standalone="no"?>
<!-- Created with Inkscape (http://www.inkscape.org/) -->

<svg
   width="300"
   height="300"
   viewBox="0 0 79.374998 79.375"
   version="1.1"
   id="svg31435"
   inkscape:version="1.2.1 (9c6d41e410, 2022-07-14)"
   sodipodi:docname="1123_pic.svg"
   xmlns:inkscape="http://www.inkscape.org/namespaces/inkscape"
   xmlns:sodipodi="http://sodipodi.sourceforge.net/DTD/sodipodi-0.dtd"
   xmlns="http://www.w3.org/2000/svg"
   xmlns:svg="http://www.w3.org/2000/svg">
  <sodipodi:namedview
     id="namedview31437"
     pagecolor="#ffffff"
     bordercolor="#000000"
     borderopacity="0.25"
     inkscape:showpageshadow="2"
     inkscape:pageopacity="0.0"
     inkscape:pagecheckerboard="0"
     inkscape:deskcolor="#d1d1d1"
     inkscape:document-units="px"
     showgrid="false"
     inkscape:zoom="0.914906"
     inkscape:cx="416.98273"
     inkscape:cy="115.8589"
     inkscape:window-width="1700"
     inkscape:window-height="690"
     inkscape:window-x="1724"
     inkscape:window-y="28"
     inkscape:window-maximized="1"
     inkscape:current-layer="layer1" />
  <defs
     id="defs31432" />
  <g
     inkscape:label="Layer 1"
     inkscape:groupmode="layer"
     id="layer1">
    <g
       id="g33235"
       transform="translate(14.817004,20.600839)">
      <g
         id="g10821"
         transform="matrix(0.35277776,0,0,-0.35277776,30.706642,47.744886)"
         clip-path="none">
        <path
           d="m 0,0 c 14.746,11.459 26.146,26.834 30.014,51.022 13.607,-2.519 25.211,35.416 10.204,38.417 l -8.404,30.014 -30.313,3.301 -68.13,-10.805 -6.003,-23.11 c -13.627,-5.157 -7.959,-35.715 7.203,-39.617 1.432,-16.777 11.756,-33.672 32.832,-50.71 1.346,-1.088 2.619,-2.264 3.926,-3.397 C -21.395,-11.193 -12.028,-10.228 0,0"
           style="fill:#ffc088;fill-opacity:1;fill-rule:nonzero;stroke:none"
           id="path10823" />
      </g>
      <g
         id="g10825"
         transform="matrix(0.35277776,0,0,-0.35277776,42.035853,23.868993)"
         clip-path="none">
        <path
           d="m 0,0 h -3.827 v 40.968 c -0.22,6.065 -2.988,8.701 -8.328,7.879 C -21.158,37.616 -41.422,36.508 -68.88,41.869 -81.416,44.078 -90.452,41.89 -93.866,32.64 V 0 h -2.477 c -2.064,10.428 -4.548,18.937 -8.403,21.16 C -131.908,112.325 -10.13,130.333 2.251,63.028 9.798,63.049 9.909,44.763 8.104,21.76 3.361,17.312 0.081,10.854 0,0"
           style="fill:#432918;fill-opacity:1;fill-rule:nonzero;stroke:none"
           id="path10827" />
      </g>
      <g
         id="g10829"
         transform="matrix(0.35277776,0,0,-0.35277776,11.370717,23.868993)"
         clip-path="none">
        <path
           d="m 0,0 c 2.438,-1.701 4.884,-3.298 7.488,-4.468 2.599,-1.157 5.346,-1.891 8.119,-1.886 2.773,-0.002 5.519,0.731 8.118,1.889 2.603,1.17 5.048,2.766 7.489,4.465 -1.871,-2.306 -4.138,-4.336 -6.78,-5.855 -0.638,-0.421 -1.348,-0.716 -2.048,-1.03 -0.688,-0.347 -1.444,-0.533 -2.173,-0.788 -0.731,-0.263 -1.518,-0.322 -2.276,-0.49 -0.768,-0.114 -1.552,-0.128 -2.33,-0.19 -3.133,0.031 -6.199,0.967 -8.825,2.5 C 4.14,-4.333 1.873,-2.304 0,0"
           style="fill:#d36900;fill-opacity:1;fill-rule:nonzero;stroke:none"
           id="path10831" />
      </g>
      <g
         id="g10833"
         transform="matrix(0.35277776,0,0,-0.35277776,21.974017,33.061217)"
         clip-path="none">
        <path
           d="m 0,0 c 1.417,-0.752 2.745,-1.49 4.106,-2.022 1.36,-0.534 2.734,-0.837 4.104,-0.847 1.371,0.014 2.744,0.315 4.103,0.849 1.36,0.533 2.689,1.27 4.108,2.02 -0.85,-1.357 -1.999,-2.528 -3.399,-3.41 C 11.632,-4.292 9.947,-4.869 8.21,-4.868 6.474,-4.865 4.79,-4.29 3.4,-3.407 2.001,-2.525 0.851,-1.355 0,0"
           style="fill:#d36900;fill-opacity:1;fill-rule:nonzero;stroke:none"
           id="path10835" />
      </g>
      <g
         id="g10837"
         transform="matrix(0.35277776,0,0,-0.35277776,27.358711,23.772544)"
         clip-path="none">
        <path
           d="m 0,0 c 2.438,-1.701 4.884,-3.298 7.488,-4.468 2.599,-1.157 5.345,-1.891 8.118,-1.886 2.774,-0.002 5.52,0.731 8.118,1.889 2.603,1.17 5.049,2.766 7.49,4.465 -1.871,-2.306 -4.138,-4.336 -6.78,-5.855 -0.638,-0.421 -1.349,-0.716 -2.049,-1.03 -0.687,-0.347 -1.443,-0.533 -2.173,-0.788 -0.731,-0.263 -1.517,-0.322 -2.275,-0.49 -0.769,-0.114 -1.553,-0.128 -2.331,-0.19 -3.132,0.031 -6.199,0.967 -8.825,2.5 C 4.14,-4.333 1.872,-2.304 0,0"
           style="fill:#d36900;fill-opacity:1;fill-rule:nonzero;stroke:none"
           id="path10839" />
      </g>
      <g
         id="g10841"
         transform="matrix(0.35277776,0,0,-0.35277776,16.752976,39.51578)"
         clip-path="none">
        <path
           d="m 0,0 c 3.302,-2.503 6.691,-4.827 10.347,-6.535 3.645,-1.697 7.555,-2.765 11.512,-2.764 3.956,0.002 7.867,1.07 11.512,2.766 3.654,1.709 7.044,4.032 10.348,6.533 -2.735,-3.108 -5.946,-5.865 -9.639,-7.923 -0.893,-0.57 -1.882,-0.964 -2.854,-1.393 -0.955,-0.473 -2.001,-0.72 -3.013,-1.064 -0.503,-0.186 -1.03,-0.284 -1.559,-0.374 l -1.583,-0.29 c -1.06,-0.156 -2.14,-0.17 -3.212,-0.254 C 17.543,-11.263 13.313,-9.992 9.64,-7.92 5.947,-5.862 2.736,-3.106 0,0"
           style="fill:#d36900;fill-opacity:1;fill-rule:nonzero;stroke:none"
           id="path10843" />
      </g>
      <g
         id="g10845"
         transform="matrix(0.35277776,0,0,-0.35277776,42.414101,2.0145166)"
         clip-path="none">
        <path
           d="m 0,0 c -2.102,-1.405 -4.038,-2.907 -5.504,-4.83 -1.498,-1.898 -2.439,-4.157 -3.178,-6.574 -0.017,1.265 0.163,2.548 0.576,3.769 0.395,1.227 1.021,2.385 1.811,3.416 C -4.696,-2.163 -2.433,-0.686 0,0"
           style="fill:#936037;fill-opacity:1;fill-rule:nonzero;stroke:none"
           id="path10847" />
      </g>
      <g
         id="g10849"
         transform="matrix(0.35277776,0,0,-0.35277776,6.8827839,22.866152)"
         clip-path="none">
        <path
           d="m 0,0 c -1.572,-0.434 -3.176,-0.994 -3.883,-1.988 -0.668,-0.963 -0.403,-2.377 0.048,-3.776 0.481,-1.398 1.104,-2.831 1.813,-4.248 0.68,-1.432 1.418,-2.86 2.022,-4.413 -1.276,1.062 -2.395,2.272 -3.361,3.61 -0.987,1.321 -1.822,2.789 -2.376,4.438 l -0.197,0.624 -0.129,0.665 c -0.097,0.433 -0.116,0.912 -0.105,1.387 0.07,0.934 0.318,2.036 1.12,2.743 0.749,0.699 1.672,1.023 2.53,1.119 0.434,0.06 0.862,0.032 1.281,0.031 C -0.818,0.151 -0.404,0.077 0,0"
           style="fill:#d36900;fill-opacity:1;fill-rule:nonzero;stroke:none"
           id="path10851" />
      </g>
      <g
         id="g10853"
         transform="matrix(0.35277776,0,0,-0.35277776,43.386674,21.023346)"
         clip-path="none">
        <path
           d="M 0,0 C 0.404,0.077 0.817,0.151 1.237,0.192 1.656,0.193 2.084,0.221 2.518,0.161 3.376,0.065 4.299,-0.259 5.048,-0.958 5.85,-1.665 6.098,-2.767 6.168,-3.701 6.178,-4.176 6.16,-4.654 6.062,-5.088 L 5.934,-5.753 5.737,-6.377 C 5.183,-8.026 4.348,-9.494 3.36,-10.815 2.395,-12.153 1.275,-13.363 0,-14.425 c 0.604,1.553 1.342,2.981 2.022,4.413 0.709,1.417 1.332,2.85 1.813,4.248 0.45,1.399 0.716,2.813 0.048,3.777 C 3.176,-0.994 1.572,-0.434 0,0"
           style="fill:#d36900;fill-opacity:1;fill-rule:nonzero;stroke:none"
           id="path10855" />
      </g>
    </g>
  </g>
</svg>
