<?xml version="1.0" encoding="UTF-8" standalone="no"?>
<!-- Created with Inkscape (http://www.inkscape.org/) -->

<svg
   version="1.1"
   id="svg18"
   width="300"
   height="150"
   viewBox="0 0 300.00002 150"
   sodipodi:docname="1124_word.svg"
   inkscape:version="1.2.1 (9c6d41e410, 2022-07-14)"
   xmlns:inkscape="http://www.inkscape.org/namespaces/inkscape"
   xmlns:sodipodi="http://sodipodi.sourceforge.net/DTD/sodipodi-0.dtd"
   xmlns="http://www.w3.org/2000/svg"
   xmlns:svg="http://www.w3.org/2000/svg">
  <sodipodi:namedview
     id="namedview37"
     pagecolor="#ffffff"
     bordercolor="#000000"
     borderopacity="0.25"
     inkscape:showpageshadow="2"
     inkscape:pageopacity="0.0"
     inkscape:pagecheckerboard="0"
     inkscape:deskcolor="#d1d1d1"
     showgrid="false"
     inkscape:zoom="4.0941839"
     inkscape:cx="102.95092"
     inkscape:cy="106.24828"
     inkscape:window-width="1700"
     inkscape:window-height="1396"
     inkscape:window-x="8"
     inkscape:window-y="28"
     inkscape:window-maximized="1"
     inkscape:current-layer="svg18" />
  <defs
     id="defs22">
    <clipPath
       clipPathUnits="userSpaceOnUse"
       id="clipPath2796">
      <path
         d="M 0,340.157 H 226.772 V 0 H 0 Z"
         id="path2794" />
    </clipPath>
    <clipPath
       clipPathUnits="userSpaceOnUse"
       id="clipPath2804">
      <path
         d="M 246.772,340.157 H 473.544 V 0 H 246.772 Z"
         id="path2802" />
    </clipPath>
    <clipPath
       clipPathUnits="userSpaceOnUse"
       id="clipPath2812">
      <path
         d="M 246.772,0 H 473.544 V 340.157 H 246.772 Z"
         id="path2810" />
    </clipPath>
    <clipPath
       clipPathUnits="userSpaceOnUse"
       id="clipPath2820">
      <path
         d="M 246.772,340.157 H 473.544 V 0 H 246.772 Z"
         id="path2818" />
    </clipPath>
    <clipPath
       clipPathUnits="userSpaceOnUse"
       id="clipPath2828">
      <path
         d="m 438.313,-190.079 c 0,-43.163 -34.991,-78.155 -78.155,-78.155 -43.164,0 -78.155,34.992 -78.155,78.155 0,43.164 34.991,78.155 78.155,78.155 43.164,0 78.155,-34.991 78.155,-78.155"
         id="path2826" />
    </clipPath>
    <clipPath
       clipPathUnits="userSpaceOnUse"
       id="clipPath702936">
      <path
         d="M 0,340.157 H 226.772 V 0 H 0 Z"
         id="path702934" />
    </clipPath>
    <clipPath
       clipPathUnits="userSpaceOnUse"
       id="clipPath703010">
      <path
         d="M 0,340.157 H 226.772 V 0 H 0 Z"
         id="path703008" />
    </clipPath>
    <clipPath
       clipPathUnits="userSpaceOnUse"
       id="clipPath703120">
      <path
         d="M 0,-20 H 226.772 V -360.157 H 0 Z"
         id="path703118" />
    </clipPath>
    <clipPath
       clipPathUnits="userSpaceOnUse"
       id="clipPath703128">
      <path
         d="M 0,-360.157 H 226.772 V -20 H 0 Z"
         id="path703126" />
    </clipPath>
    <clipPath
       clipPathUnits="userSpaceOnUse"
       id="clipPath703136">
      <path
         d="M 0,-20 H 226.772 V -360.157 H 0 Z"
         id="path703134" />
    </clipPath>
    <clipPath
       clipPathUnits="userSpaceOnUse"
       id="clipPath703144">
      <path
         d="m 438.313,-190.078 c 0,-43.164 -34.992,-78.155 -78.156,-78.155 -43.163,0 -78.154,34.991 -78.154,78.155 0,43.164 34.991,78.155 78.154,78.155 43.164,0 78.156,-34.991 78.156,-78.155"
         id="path703142" />
    </clipPath>
    <clipPath
       clipPathUnits="userSpaceOnUse"
       id="clipPath703160">
      <path
         d="M 246.772,-20 H 473.544 V -360.157 H 246.772 Z"
         id="path703158" />
    </clipPath>
    <clipPath
       clipPathUnits="userSpaceOnUse"
       id="clipPath703168">
      <path
         d="M 246.772,-360.157 H 473.544 V -20 H 246.772 Z"
         id="path703166" />
    </clipPath>
    <clipPath
       clipPathUnits="userSpaceOnUse"
       id="clipPath703176">
      <path
         d="m 282.002,-190.079 c 0,-43.163 34.993,-78.154 78.156,-78.154 43.164,0 78.155,34.991 78.155,78.154 0,43.164 -34.991,78.156 -78.155,78.156 -43.163,0 -78.156,-34.992 -78.156,-78.156"
         id="path703174" />
    </clipPath>
    <clipPath
       clipPathUnits="userSpaceOnUse"
       id="clipPath720772">
      <g
         id="g720776"
         transform="matrix(0.75000002,0,0,-0.75000002,-117.18415,74.879174)">
        <path
           d="M -45.430862,-131.30857 H 256.9318 V 322.23409 H -45.430862 Z"
           id="path720774"
           style="stroke-width:1.33333" />
      </g>
    </clipPath>
    <clipPath
       clipPathUnits="userSpaceOnUse"
       id="clipPath720778">
      <g
         id="g720782"
         transform="matrix(0.75000002,0,0,-0.75000002,-78.789654,69.358173)">
        <path
           d="M -45.430862,-131.30857 H 256.9318 V 322.23409 H -45.430862 Z"
           id="path720780"
           style="stroke-width:1.33333" />
      </g>
    </clipPath>
    <clipPath
       clipPathUnits="userSpaceOnUse"
       id="clipPath720784">
      <g
         id="g720788"
         transform="matrix(0.75000002,0,0,-0.75000002,34.073147,241.67557)">
        <path
           d="M -45.430862,-131.30857 H 256.9318 V 322.23409 H -45.430862 Z"
           id="path720786"
           style="stroke-width:1.33333" />
      </g>
    </clipPath>
    <clipPath
       clipPathUnits="userSpaceOnUse"
       id="clipPath703262">
      <path
         d="M -246.772,-20 H -20 v -340.157 h -226.772 z"
         id="path703260" />
    </clipPath>
    <clipPath
       clipPathUnits="userSpaceOnUse"
       id="clipPath703270">
      <path
         d="M -246.772,-360.157 H -20 V -20 h -226.772 z"
         id="path703268" />
    </clipPath>
    <clipPath
       clipPathUnits="userSpaceOnUse"
       id="clipPath703278">
      <path
         d="M -246.772,-20 H -20 v -340.157 h -226.772 z"
         id="path703276" />
    </clipPath>
    <clipPath
       clipPathUnits="userSpaceOnUse"
       id="clipPath703286">
      <path
         d="m 191.541,-190.078 c 0,-43.164 -34.992,-78.155 -78.156,-78.155 -43.163,0 -78.154,34.991 -78.154,78.155 0,43.164 34.991,78.155 78.154,78.155 43.164,0 78.156,-34.991 78.156,-78.155"
         id="path703284" />
    </clipPath>
    <clipPath
       clipPathUnits="userSpaceOnUse"
       id="clipPath703298">
      <path
         d="M 0,-20 H 226.772 V -360.157 H 0 Z"
         id="path703296" />
    </clipPath>
    <clipPath
       clipPathUnits="userSpaceOnUse"
       id="clipPath703306">
      <path
         d="M 0,-360.157 H 226.772 V -20 H 0 Z"
         id="path703304" />
    </clipPath>
    <clipPath
       clipPathUnits="userSpaceOnUse"
       id="clipPath703314">
      <path
         d="m 35.23,-190.079 c 0,-43.163 34.993,-78.154 78.156,-78.154 43.164,0 78.155,34.991 78.155,78.154 0,43.164 -34.991,78.156 -78.155,78.156 -43.163,0 -78.156,-34.992 -78.156,-78.156"
         id="path703312" />
    </clipPath>
    <clipPath
       clipPathUnits="userSpaceOnUse"
       id="clipPath721254">
      <g
         id="g721258"
         transform="matrix(0.75000002,0,0,-0.75000002,-143.46681,15.486327)">
        <path
           d="M 8.3138826,-226.73543 H 310.67654 V 226.80723 H 8.3138826 Z"
           id="path721256"
           style="stroke-width:1.33333" />
      </g>
    </clipPath>
    <clipPath
       clipPathUnits="userSpaceOnUse"
       id="clipPath721260">
      <g
         id="g721264"
         transform="matrix(0.75000002,0,0,-0.75000002,-150.19041,29.105427)">
        <path
           d="M 8.3138826,-226.73543 H 310.67654 V 226.80723 H 8.3138826 Z"
           id="path721262"
           style="stroke-width:1.33333" />
      </g>
    </clipPath>
    <clipPath
       clipPathUnits="userSpaceOnUse"
       id="clipPath721266">
      <g
         id="g721270"
         transform="matrix(0.75000002,0,0,-0.75000002,-6.2354121,170.10543)">
        <path
           d="M 8.3138826,-226.73543 H 310.67654 V 226.80723 H 8.3138826 Z"
           id="path721268"
           style="stroke-width:1.33333" />
      </g>
    </clipPath>
    <clipPath
       clipPathUnits="userSpaceOnUse"
       id="clipPath703432">
      <path
         d="M 0,340.157 H 226.772 V 0 H 0 Z"
         id="path703430" />
    </clipPath>
  </defs>
  <g
     id="g703426"
     transform="matrix(1.3333333,0,0,-1.3333333,-1.1813296,293.52128)">
    <g
       id="g703428"
       clip-path="url(#clipPath703432)">
      <g
         id="g703434"
         transform="translate(151.1215,145.2636)">
        <path
           d="M 0,0 C -0.491,0 -1.503,0.092 -3.037,0.276 -4.57,0.46 -6.605,1.187 -9.141,2.454 l 0.675,3.742 C -7.812,5.869 -6.81,5.481 -5.46,5.03 c 1.35,-0.449 2.638,-0.776 3.865,-0.981 0.04,-0.04 0.326,-0.061 0.859,-0.061 3.026,0 5.909,1.616 8.65,4.846 1.963,2.373 2.944,5.234 2.944,8.588 0,2.904 -0.551,6.033 -1.656,9.387 -0.205,0.694 -1.226,3.353 -3.067,7.975 l 4.355,2.331 c 0.245,-0.655 0.675,-1.943 1.288,-3.865 0.615,-1.923 1.268,-3.947 1.964,-6.073 0.899,-2.864 1.35,-5.808 1.35,-8.834 0,-0.491 -0.052,-1.749 -0.154,-3.773 C 14.835,12.545 13.987,10.306 12.393,7.853 8.997,2.904 5.03,0.307 0.491,0.062 Z m -42.896,40.734 c 0,-2.004 -1.002,-3.108 -3.005,-3.312 -0.901,0 -1.637,0.296 -2.209,0.889 -0.574,0.593 -0.859,1.4 -0.859,2.423 0,0.899 0.285,1.657 0.859,2.27 0.572,0.614 1.308,0.92 2.209,0.92 0.94,0 1.675,-0.306 2.208,-0.92 0.531,-0.613 0.797,-1.371 0.797,-2.27 m -3.926,7.362 c 0,-2.004 -1.043,-3.088 -3.128,-3.251 -1.76,0 -2.741,1.083 -2.946,3.251 0,0.941 0.266,1.718 0.798,2.331 0.532,0.614 1.247,0.921 2.148,0.921 1.922,0 2.964,-1.085 3.128,-3.252 m -4.111,-7.362 c 0,-2.004 -1.042,-3.108 -3.128,-3.312 -0.9,0 -1.636,0.296 -2.209,0.889 -0.573,0.593 -0.858,1.4 -0.858,2.423 0,0.899 0.296,1.657 0.89,2.27 0.592,0.614 1.318,0.92 2.177,0.92 0.941,0 1.697,-0.306 2.27,-0.92 0.572,-0.613 0.858,-1.371 0.858,-2.27 M -76.452,0.368 c -4.336,0 -7.772,1.402 -10.307,4.202 -2.536,2.802 -3.804,6.268 -3.804,10.399 0,2.167 0.255,4.212 0.767,6.135 0.512,1.921 1.094,3.537 1.749,4.846 l 3.251,-0.614 c -0.981,-3.395 -1.472,-6.298 -1.472,-8.711 0,-3.476 1.042,-6.144 3.128,-8.006 2.086,-1.86 4.602,-2.791 7.546,-2.791 2.904,0 5.358,0.685 7.362,2.055 2.003,1.371 3.435,3.262 4.294,5.675 0.246,0.981 0.369,1.717 0.369,2.208 -0.492,4.253 -1.801,8.609 -3.927,13.067 l 4.417,1.656 c 1.063,-2.453 2.045,-5.439 2.945,-8.956 0.245,-0.859 0.695,-1.503 1.35,-1.932 0.653,-0.43 1.41,-0.645 2.269,-0.645 1.063,0 1.984,0.255 2.761,0.767 0.776,0.511 1.451,1.534 2.025,3.068 0.572,1.533 1.042,3.834 1.411,6.901 l 3.802,0.184 -0.306,-4.417 c -0.082,-0.696 -0.122,-1.33 -0.122,-1.902 0,-1.718 0.265,-2.904 0.797,-3.558 0.531,-0.655 1.329,-0.981 2.392,-0.981 1.432,0 2.546,0.592 3.344,1.779 0.798,1.185 1.39,2.576 1.779,4.171 0.388,1.595 0.685,3.068 0.89,4.417 l 3.68,0.307 c -0.083,-0.655 -0.164,-1.309 -0.246,-1.963 -0.082,-0.655 -0.122,-1.269 -0.122,-1.84 0,-2.046 0.522,-3.661 1.565,-4.847 1.043,-1.187 2.914,-1.8 5.613,-1.84 0.898,0 1.666,-0.225 2.3,-0.675 0.634,-0.451 0.951,-1.146 0.951,-2.086 0,-0.613 -0.205,-1.237 -0.613,-1.871 -0.409,-0.634 -1.35,-0.951 -2.823,-0.951 -4.826,0 -7.893,1.84 -9.202,5.521 -0.818,-1.8 -1.912,-3.17 -3.281,-4.11 -1.371,-0.941 -2.771,-1.411 -4.203,-1.411 -1.35,0 -2.402,0.235 -3.159,0.706 -0.757,0.469 -1.319,1.032 -1.687,1.687 -0.368,0.654 -0.655,1.308 -0.859,1.963 -0.695,-1.391 -1.595,-2.465 -2.699,-3.221 -1.105,-0.757 -2.557,-1.135 -4.356,-1.135 -1.022,0 -2.004,0.347 -2.944,1.043 0,-0.819 -0.145,-1.819 -0.43,-3.006 -1.226,-3.598 -3.293,-6.38 -6.196,-8.343 -2.904,-1.963 -6.237,-2.945 -9.999,-2.945"
           style="fill:#f91536;fill-opacity:1;fill-rule:nonzero;stroke:none"
           id="path703436" />
      </g>
      <g
         id="g703438"
         transform="translate(124.7309,158.8828)">
        <path
           d="m 0,0 h -0.92 c -2.045,0 -3.067,0.96 -3.067,2.883 0,0.573 0.215,1.166 0.644,1.779 0.429,0.614 1.238,0.921 2.423,0.921 h 1.227 c 4.417,0 7.3,0.469 8.65,1.411 l 0.122,0.49 c 0.163,0.531 0.246,1.166 0.246,1.902 0,0.736 -0.144,1.472 -0.429,2.208 -0.288,0.737 -0.819,1.718 -1.595,2.945 l -1.043,1.779 4.478,1.779 c 1.799,-3.354 2.7,-6.728 2.7,-10.122 0,-1.678 -0.329,-3.334 -0.983,-4.969 C 11.718,2.229 10.49,1.534 8.772,0.92 7.055,0.307 4.131,0 0,0"
           style="fill:#1d1d1b;fill-opacity:1;fill-rule:nonzero;stroke:none"
           id="path703440" />
      </g>
      <g
         id="g703442"
         transform="translate(130.6205,146.7973)">
        <path
           d="m 0,0 c 0,-1.963 -1.043,-3.046 -3.129,-3.251 -0.9,0 -1.646,0.286 -2.239,0.858 -0.593,0.574 -0.89,1.371 -0.89,2.393 0,1.963 1.043,3.047 3.129,3.251 0.9,0 1.646,-0.296 2.239,-0.889 C -0.297,1.77 0,0.981 0,0"
           style="fill:#1d1d1b;fill-opacity:1;fill-rule:nonzero;stroke:none"
           id="path703444" />
      </g>
      <g
         id="g703446"
         transform="translate(138.8412,146.7973)">
        <path
           d="m 0,0 c 0,-1.963 -1.043,-3.046 -3.129,-3.251 -1.841,0 -2.843,1.084 -3.006,3.251 0,1.963 1.001,3.047 3.006,3.251 0.941,0 1.696,-0.296 2.27,-0.889 C -0.287,1.77 0,0.981 0,0"
           style="fill:#1d1d1b;fill-opacity:1;fill-rule:nonzero;stroke:none"
           id="path703448" />
      </g>
    </g>
  </g>
</svg>
