<?xml version="1.0" encoding="UTF-8" standalone="no"?>
<!-- Created with Inkscape (http://www.inkscape.org/) -->

<svg
   version="1.1"
   id="svg18"
   width="300"
   height="150"
   viewBox="0 0 300.00002 150"
   sodipodi:docname="1125_word.svg"
   inkscape:version="1.2.1 (9c6d41e410, 2022-07-14)"
   xmlns:inkscape="http://www.inkscape.org/namespaces/inkscape"
   xmlns:sodipodi="http://sodipodi.sourceforge.net/DTD/sodipodi-0.dtd"
   xmlns="http://www.w3.org/2000/svg"
   xmlns:svg="http://www.w3.org/2000/svg">
  <sodipodi:namedview
     id="namedview37"
     pagecolor="#ffffff"
     bordercolor="#000000"
     borderopacity="0.25"
     inkscape:showpageshadow="2"
     inkscape:pageopacity="0.0"
     inkscape:pagecheckerboard="0"
     inkscape:deskcolor="#d1d1d1"
     showgrid="false"
     inkscape:zoom="4.0941839"
     inkscape:cx="102.95092"
     inkscape:cy="106.24828"
     inkscape:window-width="1700"
     inkscape:window-height="1396"
     inkscape:window-x="8"
     inkscape:window-y="28"
     inkscape:window-maximized="1"
     inkscape:current-layer="svg18" />
  <defs
     id="defs22">
    <clipPath
       clipPathUnits="userSpaceOnUse"
       id="clipPath2796">
      <path
         d="M 0,340.157 H 226.772 V 0 H 0 Z"
         id="path2794" />
    </clipPath>
    <clipPath
       clipPathUnits="userSpaceOnUse"
       id="clipPath2804">
      <path
         d="M 246.772,340.157 H 473.544 V 0 H 246.772 Z"
         id="path2802" />
    </clipPath>
    <clipPath
       clipPathUnits="userSpaceOnUse"
       id="clipPath2812">
      <path
         d="M 246.772,0 H 473.544 V 340.157 H 246.772 Z"
         id="path2810" />
    </clipPath>
    <clipPath
       clipPathUnits="userSpaceOnUse"
       id="clipPath2820">
      <path
         d="M 246.772,340.157 H 473.544 V 0 H 246.772 Z"
         id="path2818" />
    </clipPath>
    <clipPath
       clipPathUnits="userSpaceOnUse"
       id="clipPath2828">
      <path
         d="m 438.313,-190.079 c 0,-43.163 -34.991,-78.155 -78.155,-78.155 -43.164,0 -78.155,34.992 -78.155,78.155 0,43.164 34.991,78.155 78.155,78.155 43.164,0 78.155,-34.991 78.155,-78.155"
         id="path2826" />
    </clipPath>
    <clipPath
       clipPathUnits="userSpaceOnUse"
       id="clipPath702936">
      <path
         d="M 0,340.157 H 226.772 V 0 H 0 Z"
         id="path702934" />
    </clipPath>
    <clipPath
       clipPathUnits="userSpaceOnUse"
       id="clipPath703010">
      <path
         d="M 0,340.157 H 226.772 V 0 H 0 Z"
         id="path703008" />
    </clipPath>
    <clipPath
       clipPathUnits="userSpaceOnUse"
       id="clipPath703120">
      <path
         d="M 0,-20 H 226.772 V -360.157 H 0 Z"
         id="path703118" />
    </clipPath>
    <clipPath
       clipPathUnits="userSpaceOnUse"
       id="clipPath703128">
      <path
         d="M 0,-360.157 H 226.772 V -20 H 0 Z"
         id="path703126" />
    </clipPath>
    <clipPath
       clipPathUnits="userSpaceOnUse"
       id="clipPath703136">
      <path
         d="M 0,-20 H 226.772 V -360.157 H 0 Z"
         id="path703134" />
    </clipPath>
    <clipPath
       clipPathUnits="userSpaceOnUse"
       id="clipPath703144">
      <path
         d="m 438.313,-190.078 c 0,-43.164 -34.992,-78.155 -78.156,-78.155 -43.163,0 -78.154,34.991 -78.154,78.155 0,43.164 34.991,78.155 78.154,78.155 43.164,0 78.156,-34.991 78.156,-78.155"
         id="path703142" />
    </clipPath>
    <clipPath
       clipPathUnits="userSpaceOnUse"
       id="clipPath703160">
      <path
         d="M 246.772,-20 H 473.544 V -360.157 H 246.772 Z"
         id="path703158" />
    </clipPath>
    <clipPath
       clipPathUnits="userSpaceOnUse"
       id="clipPath703168">
      <path
         d="M 246.772,-360.157 H 473.544 V -20 H 246.772 Z"
         id="path703166" />
    </clipPath>
    <clipPath
       clipPathUnits="userSpaceOnUse"
       id="clipPath703176">
      <path
         d="m 282.002,-190.079 c 0,-43.163 34.993,-78.154 78.156,-78.154 43.164,0 78.155,34.991 78.155,78.154 0,43.164 -34.991,78.156 -78.155,78.156 -43.163,0 -78.156,-34.992 -78.156,-78.156"
         id="path703174" />
    </clipPath>
    <clipPath
       clipPathUnits="userSpaceOnUse"
       id="clipPath720772">
      <g
         id="g720776"
         transform="matrix(0.75000002,0,0,-0.75000002,-117.18415,74.879174)">
        <path
           d="M -45.430862,-131.30857 H 256.9318 V 322.23409 H -45.430862 Z"
           id="path720774"
           style="stroke-width:1.33333" />
      </g>
    </clipPath>
    <clipPath
       clipPathUnits="userSpaceOnUse"
       id="clipPath720778">
      <g
         id="g720782"
         transform="matrix(0.75000002,0,0,-0.75000002,-78.789654,69.358173)">
        <path
           d="M -45.430862,-131.30857 H 256.9318 V 322.23409 H -45.430862 Z"
           id="path720780"
           style="stroke-width:1.33333" />
      </g>
    </clipPath>
    <clipPath
       clipPathUnits="userSpaceOnUse"
       id="clipPath720784">
      <g
         id="g720788"
         transform="matrix(0.75000002,0,0,-0.75000002,34.073147,241.67557)">
        <path
           d="M -45.430862,-131.30857 H 256.9318 V 322.23409 H -45.430862 Z"
           id="path720786"
           style="stroke-width:1.33333" />
      </g>
    </clipPath>
    <clipPath
       clipPathUnits="userSpaceOnUse"
       id="clipPath703262">
      <path
         d="M -246.772,-20 H -20 v -340.157 h -226.772 z"
         id="path703260" />
    </clipPath>
    <clipPath
       clipPathUnits="userSpaceOnUse"
       id="clipPath703270">
      <path
         d="M -246.772,-360.157 H -20 V -20 h -226.772 z"
         id="path703268" />
    </clipPath>
    <clipPath
       clipPathUnits="userSpaceOnUse"
       id="clipPath703278">
      <path
         d="M -246.772,-20 H -20 v -340.157 h -226.772 z"
         id="path703276" />
    </clipPath>
    <clipPath
       clipPathUnits="userSpaceOnUse"
       id="clipPath703286">
      <path
         d="m 191.541,-190.078 c 0,-43.164 -34.992,-78.155 -78.156,-78.155 -43.163,0 -78.154,34.991 -78.154,78.155 0,43.164 34.991,78.155 78.154,78.155 43.164,0 78.156,-34.991 78.156,-78.155"
         id="path703284" />
    </clipPath>
    <clipPath
       clipPathUnits="userSpaceOnUse"
       id="clipPath703298">
      <path
         d="M 0,-20 H 226.772 V -360.157 H 0 Z"
         id="path703296" />
    </clipPath>
    <clipPath
       clipPathUnits="userSpaceOnUse"
       id="clipPath703306">
      <path
         d="M 0,-360.157 H 226.772 V -20 H 0 Z"
         id="path703304" />
    </clipPath>
    <clipPath
       clipPathUnits="userSpaceOnUse"
       id="clipPath703314">
      <path
         d="m 35.23,-190.079 c 0,-43.163 34.993,-78.154 78.156,-78.154 43.164,0 78.155,34.991 78.155,78.154 0,43.164 -34.991,78.156 -78.155,78.156 -43.163,0 -78.156,-34.992 -78.156,-78.156"
         id="path703312" />
    </clipPath>
    <clipPath
       clipPathUnits="userSpaceOnUse"
       id="clipPath721254">
      <g
         id="g721258"
         transform="matrix(0.75000002,0,0,-0.75000002,-143.46681,15.486327)">
        <path
           d="M 8.3138826,-226.73543 H 310.67654 V 226.80723 H 8.3138826 Z"
           id="path721256"
           style="stroke-width:1.33333" />
      </g>
    </clipPath>
    <clipPath
       clipPathUnits="userSpaceOnUse"
       id="clipPath721260">
      <g
         id="g721264"
         transform="matrix(0.75000002,0,0,-0.75000002,-150.19041,29.105427)">
        <path
           d="M 8.3138826,-226.73543 H 310.67654 V 226.80723 H 8.3138826 Z"
           id="path721262"
           style="stroke-width:1.33333" />
      </g>
    </clipPath>
    <clipPath
       clipPathUnits="userSpaceOnUse"
       id="clipPath721266">
      <g
         id="g721270"
         transform="matrix(0.75000002,0,0,-0.75000002,-6.2354121,170.10543)">
        <path
           d="M 8.3138826,-226.73543 H 310.67654 V 226.80723 H 8.3138826 Z"
           id="path721268"
           style="stroke-width:1.33333" />
      </g>
    </clipPath>
    <clipPath
       clipPathUnits="userSpaceOnUse"
       id="clipPath703432">
      <path
         d="M 0,340.157 H 226.772 V 0 H 0 Z"
         id="path703430" />
    </clipPath>
    <clipPath
       clipPathUnits="userSpaceOnUse"
       id="clipPath703542">
      <path
         d="M 0,340.157 H 226.772 V 0 H 0 Z"
         id="path703540" />
    </clipPath>
  </defs>
  <g
     id="g703536"
     transform="matrix(1.3333333,0,0,-1.3333333,-1.1815962,318.35073)">
    <g
       id="g703538"
       clip-path="url(#clipPath703542)">
      <g
         id="g703544"
         transform="translate(147.8807,151.9199)">
        <path
           d="M 0,0 C -0.49,0 -1.503,0.092 -3.036,0.276 -4.57,0.46 -6.605,1.187 -9.141,2.454 l 0.675,3.742 C -7.812,5.869 -6.81,5.481 -5.46,5.03 c 1.35,-0.449 2.639,-0.776 3.865,-0.981 0.04,-0.041 0.327,-0.062 0.859,-0.062 3.026,0 5.91,1.617 8.65,4.847 1.963,2.372 2.944,5.234 2.944,8.588 0,2.904 -0.551,6.033 -1.656,9.387 -0.205,0.694 -1.226,3.353 -3.067,7.975 l 4.355,2.331 c 0.246,-0.655 0.675,-1.943 1.289,-3.865 0.614,-1.923 1.267,-3.947 1.963,-6.073 0.899,-2.864 1.35,-5.808 1.35,-8.834 0,-0.491 -0.052,-1.749 -0.154,-3.773 C 14.836,12.545 13.987,10.306 12.393,7.853 8.997,2.904 5.03,0.307 0.491,0.061 Z m -55.861,1.472 c 0,-2.086 -1.065,-3.21 -3.191,-3.374 -0.899,0 -1.656,0.307 -2.269,0.921 -0.614,0.613 -0.92,1.431 -0.92,2.453 0,1.964 1.062,3.068 3.189,3.313 1.922,0 2.986,-1.104 3.191,-3.313 m 18.894,15.644 c -7.402,-3.19 -15.929,-4.785 -25.581,-4.785 -14.355,0 -21.533,5.439 -21.533,16.318 0,2.781 0.449,5.316 1.35,7.607 l 3.312,-0.675 c -0.45,-1.595 -0.675,-3.312 -0.675,-5.153 0,-8.385 5.951,-12.597 17.853,-12.637 9.324,0 16.522,1.042 21.594,3.128 0.04,0.327 0.061,0.736 0.061,1.227 -0.123,4.334 -1.575,9.059 -4.355,14.171 l 4.417,1.227 c 1.062,-1.881 2.024,-4.212 2.882,-6.993 0.86,-2.782 1.288,-5.747 1.288,-8.896 0,-1.881 -0.205,-3.395 -0.613,-4.539"
           style="fill:#1d1d1b;fill-opacity:1;fill-rule:nonzero;stroke:none"
           id="path703546" />
      </g>
      <g
         id="g703548"
         transform="translate(131.2802,174.3725)">
        <path
           d="m 0,0 c -1.268,0 -2.576,0.174 -3.926,0.521 -1.349,0.348 -2.475,0.961 -3.374,1.841 -0.9,0.879 -1.349,2.096 -1.349,3.65 0,1.104 0.408,2.249 1.226,3.436 0.818,1.185 2.086,1.779 3.804,1.779 1.062,0 2.137,-0.379 3.221,-1.135 C 0.685,9.334 1.596,8.149 2.331,6.534 3.067,4.917 3.476,2.862 3.559,0.368 2.535,0.123 1.35,0 0,0 m 6.227,7.638 c -0.716,2.31 -1.81,4.242 -3.282,5.797 -1.472,1.554 -3.395,2.332 -5.766,2.332 -2.495,0 -4.725,-1.013 -6.688,-3.038 -1.963,-2.024 -2.944,-4.529 -2.944,-7.514 0,-2.332 0.552,-4.275 1.656,-5.828 1.105,-1.555 2.546,-2.72 4.325,-3.497 1.78,-0.777 3.711,-1.166 5.797,-1.166 1.596,0 2.822,0.102 3.681,0.307 -0.942,-3.599 -2.679,-6.573 -5.214,-8.926 -2.536,-2.351 -5.583,-3.527 -9.141,-3.527 -3.19,0 -5.747,0.552 -7.669,1.656 l -0.736,-3.619 c 1.145,-1.105 2.556,-1.892 4.233,-2.363 1.677,-0.469 3.251,-0.705 4.724,-0.705 2.209,0 4.396,0.491 6.565,1.473 4.743,2.085 8.159,6.421 10.245,13.005 0.858,2.617 1.288,5.521 1.288,8.711 0,2.29 -0.359,4.591 -1.074,6.902"
           style="fill:#f91536;fill-opacity:1;fill-rule:nonzero;stroke:none"
           id="path703550" />
      </g>
    </g>
  </g>
</svg>
