<?xml version="1.0" encoding="UTF-8" standalone="no"?>
<!-- Created with Inkscape (http://www.inkscape.org/) -->

<svg
   width="300"
   height="300"
   viewBox="0 0 79.374998 79.375"
   version="1.1"
   id="svg31435"
   inkscape:version="1.2.1 (9c6d41e410, 2022-07-14)"
   sodipodi:docname="1125_pic.svg"
   xmlns:inkscape="http://www.inkscape.org/namespaces/inkscape"
   xmlns:sodipodi="http://sodipodi.sourceforge.net/DTD/sodipodi-0.dtd"
   xmlns="http://www.w3.org/2000/svg"
   xmlns:svg="http://www.w3.org/2000/svg">
  <sodipodi:namedview
     id="namedview31437"
     pagecolor="#ffffff"
     bordercolor="#000000"
     borderopacity="0.25"
     inkscape:showpageshadow="2"
     inkscape:pageopacity="0.0"
     inkscape:pagecheckerboard="0"
     inkscape:deskcolor="#d1d1d1"
     inkscape:document-units="px"
     showgrid="false"
     inkscape:zoom="0.64693624"
     inkscape:cx="770.55507"
     inkscape:cy="71.10438"
     inkscape:window-width="1700"
     inkscape:window-height="690"
     inkscape:window-x="1724"
     inkscape:window-y="28"
     inkscape:window-maximized="1"
     inkscape:current-layer="layer1" />
  <defs
     id="defs31432">
    <clipPath
       clipPathUnits="userSpaceOnUse"
       id="clipPath10961">
      <path
         d="M 66.3185,149.98 H 99.4759 V 116.467 H 66.3185 Z"
         id="path10959" />
    </clipPath>
    <clipPath
       clipPathUnits="userSpaceOnUse"
       id="clipPath10965">
      <path
         d="M 66.319,116.467 H 99.476 V 149.98 H 66.319 Z"
         id="path10963" />
    </clipPath>
    <clipPath
       clipPathUnits="userSpaceOnUse"
       id="clipPath10985">
      <path
         d="M 60.5204,179.581 H 96.2847 V 132.009 H 60.5204 Z"
         id="path10983" />
    </clipPath>
    <clipPath
       clipPathUnits="userSpaceOnUse"
       id="clipPath10989">
      <path
         d="M 60.521,132.009 H 96.285 V 179.58 H 60.521 Z"
         id="path10987" />
    </clipPath>
    <clipPath
       clipPathUnits="userSpaceOnUse"
       id="clipPath11009">
      <path
         d="m 58.3281,222.915 h 32.433 v -66.986 h -32.433 z"
         id="path11007" />
    </clipPath>
    <clipPath
       clipPathUnits="userSpaceOnUse"
       id="clipPath11013">
      <path
         d="m 58.328,155.929 h 32.433 v 66.986 H 58.328 Z"
         id="path11011" />
    </clipPath>
    <clipPath
       clipPathUnits="userSpaceOnUse"
       id="clipPath11033">
      <path
         d="M 63.2338,232.871 H 88.1091 V 171.822 H 63.2338 Z"
         id="path11031" />
    </clipPath>
    <clipPath
       clipPathUnits="userSpaceOnUse"
       id="clipPath11037">
      <path
         d="m 63.234,171.822 h 24.875 v 61.049 H 63.234 Z"
         id="path11035" />
    </clipPath>
    <clipPath
       clipPathUnits="userSpaceOnUse"
       id="clipPath11057">
      <path
         d="M 68.9517,252.463 H 86.6302 V 197.528 H 68.9517 Z"
         id="path11055" />
    </clipPath>
    <clipPath
       clipPathUnits="userSpaceOnUse"
       id="clipPath11061">
      <path
         d="M 68.952,197.528 H 86.63 v 54.934 H 68.952 Z"
         id="path11059" />
    </clipPath>
    <clipPath
       clipPathUnits="userSpaceOnUse"
       id="clipPath11081">
      <path
         d="M 66.3185,149.98 H 99.4759 V 116.467 H 66.3185 Z"
         id="path11079" />
    </clipPath>
    <clipPath
       clipPathUnits="userSpaceOnUse"
       id="clipPath11085">
      <path
         d="M 66.319,116.467 H 99.476 V 149.98 H 66.319 Z"
         id="path11083" />
    </clipPath>
    <clipPath
       clipPathUnits="userSpaceOnUse"
       id="clipPath11105">
      <path
         d="M 60.5204,179.581 H 96.2847 V 132.009 H 60.5204 Z"
         id="path11103" />
    </clipPath>
    <clipPath
       clipPathUnits="userSpaceOnUse"
       id="clipPath11109">
      <path
         d="M 60.521,132.009 H 96.285 V 179.58 H 60.521 Z"
         id="path11107" />
    </clipPath>
    <clipPath
       clipPathUnits="userSpaceOnUse"
       id="clipPath11129">
      <path
         d="m 58.3281,222.915 h 32.433 v -66.986 h -32.433 z"
         id="path11127" />
    </clipPath>
    <clipPath
       clipPathUnits="userSpaceOnUse"
       id="clipPath11133">
      <path
         d="m 58.328,155.929 h 32.433 v 66.986 H 58.328 Z"
         id="path11131" />
    </clipPath>
    <clipPath
       clipPathUnits="userSpaceOnUse"
       id="clipPath11153">
      <path
         d="M 63.2338,232.871 H 88.1091 V 171.822 H 63.2338 Z"
         id="path11151" />
    </clipPath>
    <clipPath
       clipPathUnits="userSpaceOnUse"
       id="clipPath11157">
      <path
         d="m 63.234,171.822 h 24.875 v 61.049 H 63.234 Z"
         id="path11155" />
    </clipPath>
    <clipPath
       clipPathUnits="userSpaceOnUse"
       id="clipPath11177">
      <path
         d="M 68.9517,252.463 H 86.6302 V 197.528 H 68.9517 Z"
         id="path11175" />
    </clipPath>
    <clipPath
       clipPathUnits="userSpaceOnUse"
       id="clipPath11181">
      <path
         d="M 68.952,197.528 H 86.63 v 54.934 H 68.952 Z"
         id="path11179" />
    </clipPath>
    <clipPath
       clipPathUnits="userSpaceOnUse"
       id="clipPath11201">
      <path
         d="M 86.1289,252.322 H 103 V 197.745 H 86.1289 Z"
         id="path11199" />
    </clipPath>
    <clipPath
       clipPathUnits="userSpaceOnUse"
       id="clipPath11205">
      <path
         d="M 86.129,197.745 H 103 v 54.577 H 86.129 Z"
         id="path11203" />
    </clipPath>
    <clipPath
       clipPathUnits="userSpaceOnUse"
       id="clipPath11225">
      <path
         d="M 86.1137,225.081 H 107.624 V 181.389 H 86.1137 Z"
         id="path11223" />
    </clipPath>
    <clipPath
       clipPathUnits="userSpaceOnUse"
       id="clipPath11229">
      <path
         d="m 86.114,181.39 h 21.51 v 43.691 h -21.51 z"
         id="path11227" />
    </clipPath>
    <clipPath
       clipPathUnits="userSpaceOnUse"
       id="clipPath11249">
      <path
         d="m 87.323,209.222 h 24.316 V 156.263 H 87.323 Z"
         id="path11247" />
    </clipPath>
    <clipPath
       clipPathUnits="userSpaceOnUse"
       id="clipPath11253">
      <path
         d="m 87.323,156.263 h 24.316 v 52.958 H 87.323 Z"
         id="path11251" />
    </clipPath>
    <clipPath
       clipPathUnits="userSpaceOnUse"
       id="clipPath11273">
      <path
         d="M 90.5529,183.237 H 113.585 V 130.675 H 90.5529 Z"
         id="path11271" />
    </clipPath>
    <clipPath
       clipPathUnits="userSpaceOnUse"
       id="clipPath11277">
      <path
         d="m 90.553,130.675 h 23.032 v 52.562 H 90.553 Z"
         id="path11275" />
    </clipPath>
    <clipPath
       clipPathUnits="userSpaceOnUse"
       id="clipPath11297">
      <path
         d="M 95.2056,161.739 H 116.473 V 90.5852 H 95.2056 Z"
         id="path11295" />
    </clipPath>
    <clipPath
       clipPathUnits="userSpaceOnUse"
       id="clipPath11301">
      <path
         d="m 95.206,90.585 h 21.268 v 71.154 H 95.206 Z"
         id="path11299" />
    </clipPath>
    <clipPath
       clipPathUnits="userSpaceOnUse"
       id="clipPath11321">
      <path
         d="M 86.1289,252.322 H 103 V 197.745 H 86.1289 Z"
         id="path11319" />
    </clipPath>
    <clipPath
       clipPathUnits="userSpaceOnUse"
       id="clipPath11325">
      <path
         d="M 86.129,197.745 H 103 v 54.577 H 86.129 Z"
         id="path11323" />
    </clipPath>
    <clipPath
       clipPathUnits="userSpaceOnUse"
       id="clipPath11345">
      <path
         d="M 86.1137,225.081 H 107.624 V 181.389 H 86.1137 Z"
         id="path11343" />
    </clipPath>
    <clipPath
       clipPathUnits="userSpaceOnUse"
       id="clipPath11349">
      <path
         d="m 86.114,181.39 h 21.51 v 43.691 h -21.51 z"
         id="path11347" />
    </clipPath>
    <clipPath
       clipPathUnits="userSpaceOnUse"
       id="clipPath11369">
      <path
         d="m 87.323,209.222 h 24.316 V 156.263 H 87.323 Z"
         id="path11367" />
    </clipPath>
    <clipPath
       clipPathUnits="userSpaceOnUse"
       id="clipPath11373">
      <path
         d="m 87.323,156.263 h 24.316 v 52.958 H 87.323 Z"
         id="path11371" />
    </clipPath>
    <clipPath
       clipPathUnits="userSpaceOnUse"
       id="clipPath11393">
      <path
         d="M 90.5529,183.237 H 113.585 V 130.675 H 90.5529 Z"
         id="path11391" />
    </clipPath>
    <clipPath
       clipPathUnits="userSpaceOnUse"
       id="clipPath11397">
      <path
         d="m 90.553,130.675 h 23.032 v 52.562 H 90.553 Z"
         id="path11395" />
    </clipPath>
    <clipPath
       clipPathUnits="userSpaceOnUse"
       id="clipPath11417">
      <path
         d="M 95.2056,161.739 H 116.473 V 90.5852 H 95.2056 Z"
         id="path11415" />
    </clipPath>
    <clipPath
       clipPathUnits="userSpaceOnUse"
       id="clipPath11421">
      <path
         d="m 95.206,90.585 h 21.268 v 71.154 H 95.206 Z"
         id="path11419" />
    </clipPath>
    <clipPath
       clipPathUnits="userSpaceOnUse"
       id="clipPath11441">
      <path
         d="m 124.925,115.874 h 14.893 v -13.963 h -14.893 z"
         id="path11439" />
    </clipPath>
    <clipPath
       clipPathUnits="userSpaceOnUse"
       id="clipPath11445">
      <path
         d="m 124.925,101.911 h 14.893 v 13.962 h -14.893 z"
         id="path11443" />
    </clipPath>
    <clipPath
       clipPathUnits="userSpaceOnUse"
       id="clipPath11465">
      <path
         d="m 125.89,127.226 h 18.202 V 108.295 H 125.89 Z"
         id="path11463" />
    </clipPath>
    <clipPath
       clipPathUnits="userSpaceOnUse"
       id="clipPath11469">
      <path
         d="m 125.89,108.295 h 18.202 v 18.931 H 125.89 Z"
         id="path11467" />
    </clipPath>
    <clipPath
       clipPathUnits="userSpaceOnUse"
       id="clipPath11489">
      <path
         d="m 128.57,143.753 h 21.335 V 119.521 H 128.57 Z"
         id="path11487" />
    </clipPath>
    <clipPath
       clipPathUnits="userSpaceOnUse"
       id="clipPath11493">
      <path
         d="m 128.57,119.522 h 21.335 v 24.231 H 128.57 Z"
         id="path11491" />
    </clipPath>
    <clipPath
       clipPathUnits="userSpaceOnUse"
       id="clipPath11513">
      <path
         d="m 130.779,149.011 h 18.444 v -22.243 h -18.444 z"
         id="path11511" />
    </clipPath>
    <clipPath
       clipPathUnits="userSpaceOnUse"
       id="clipPath11517">
      <path
         d="m 130.779,126.768 h 18.444 v 22.243 h -18.444 z"
         id="path11515" />
    </clipPath>
    <clipPath
       clipPathUnits="userSpaceOnUse"
       id="clipPath11537">
      <path
         d="m 135.053,161.028 h 13.124 v -22.889 h -13.124 z"
         id="path11535" />
    </clipPath>
    <clipPath
       clipPathUnits="userSpaceOnUse"
       id="clipPath11541">
      <path
         d="m 135.053,138.139 h 13.124 v 22.889 h -13.124 z"
         id="path11539" />
    </clipPath>
    <clipPath
       clipPathUnits="userSpaceOnUse"
       id="clipPath11561">
      <path
         d="m 124.925,161.028 h 24.98 v -59.117 h -24.98 z"
         id="path11559" />
    </clipPath>
    <clipPath
       clipPathUnits="userSpaceOnUse"
       id="clipPath11565">
      <path
         d="m 124.925,101.911 h 24.98 v 59.117 h -24.98 z"
         id="path11563" />
    </clipPath>
    <clipPath
       clipPathUnits="userSpaceOnUse"
       id="clipPath11569">
      <path
         d="m 124.925,115.874 h 14.893 v -13.963 h -14.893 z"
         id="path11567" />
    </clipPath>
    <clipPath
       clipPathUnits="userSpaceOnUse"
       id="clipPath11573">
      <path
         d="m 124.925,101.911 h 14.893 v 13.962 h -14.893 z"
         id="path11571" />
    </clipPath>
    <clipPath
       clipPathUnits="userSpaceOnUse"
       id="clipPath11577">
      <path
         d="m 125.89,127.226 h 18.202 V 108.295 H 125.89 Z"
         id="path11575" />
    </clipPath>
    <clipPath
       clipPathUnits="userSpaceOnUse"
       id="clipPath11581">
      <path
         d="m 125.89,108.295 h 18.202 v 18.931 H 125.89 Z"
         id="path11579" />
    </clipPath>
    <clipPath
       clipPathUnits="userSpaceOnUse"
       id="clipPath11585">
      <path
         d="m 128.57,143.753 h 21.335 V 119.521 H 128.57 Z"
         id="path11583" />
    </clipPath>
    <clipPath
       clipPathUnits="userSpaceOnUse"
       id="clipPath11589">
      <path
         d="m 128.57,119.522 h 21.335 v 24.231 H 128.57 Z"
         id="path11587" />
    </clipPath>
    <clipPath
       clipPathUnits="userSpaceOnUse"
       id="clipPath11593">
      <path
         d="m 130.779,149.011 h 18.444 v -22.243 h -18.444 z"
         id="path11591" />
    </clipPath>
    <clipPath
       clipPathUnits="userSpaceOnUse"
       id="clipPath11597">
      <path
         d="m 130.779,126.768 h 18.444 v 22.243 h -18.444 z"
         id="path11595" />
    </clipPath>
    <clipPath
       clipPathUnits="userSpaceOnUse"
       id="clipPath11601">
      <path
         d="m 135.053,161.028 h 13.124 v -22.889 h -13.124 z"
         id="path11599" />
    </clipPath>
    <clipPath
       clipPathUnits="userSpaceOnUse"
       id="clipPath11605">
      <path
         d="m 135.053,138.139 h 13.124 v 22.889 h -13.124 z"
         id="path11603" />
    </clipPath>
    <clipPath
       clipPathUnits="userSpaceOnUse"
       id="clipPath11721">
      <path
         d="m 131.343,161.295 h 15.246 v -22.89 h -15.246 z"
         id="path11719" />
    </clipPath>
    <clipPath
       clipPathUnits="userSpaceOnUse"
       id="clipPath11725">
      <path
         d="m 131.343,138.405 h 15.245 v 22.89 h -15.245 z"
         id="path11723" />
    </clipPath>
    <clipPath
       clipPathUnits="userSpaceOnUse"
       id="clipPath11745">
      <path
         d="m 127.241,154.49 h 9.217 v -23.31 h -9.217 z"
         id="path11743" />
    </clipPath>
    <clipPath
       clipPathUnits="userSpaceOnUse"
       id="clipPath11749">
      <path
         d="m 127.242,131.18 h 9.216 v 23.31 h -9.216 z"
         id="path11747" />
    </clipPath>
    <clipPath
       clipPathUnits="userSpaceOnUse"
       id="clipPath11769">
      <path
         d="m 121.867,147.714 h 11.008 v -27.988 h -11.008 z"
         id="path11767" />
    </clipPath>
    <clipPath
       clipPathUnits="userSpaceOnUse"
       id="clipPath11773">
      <path
         d="m 121.867,119.726 h 11.008 v 27.988 h -11.008 z"
         id="path11771" />
    </clipPath>
    <clipPath
       clipPathUnits="userSpaceOnUse"
       id="clipPath11793">
      <path
         d="m 118.735,134.763 h 10.293 v -27.154 h -10.293 z"
         id="path11791" />
    </clipPath>
    <clipPath
       clipPathUnits="userSpaceOnUse"
       id="clipPath11797">
      <path
         d="m 118.735,107.609 h 10.293 v 27.153 h -10.293 z"
         id="path11795" />
    </clipPath>
    <clipPath
       clipPathUnits="userSpaceOnUse"
       id="clipPath11817">
      <path
         d="m 116.277,123.23 h 9.954 V 87.695 h -9.954 z"
         id="path11815" />
    </clipPath>
    <clipPath
       clipPathUnits="userSpaceOnUse"
       id="clipPath11821">
      <path
         d="m 116.277,87.695 h 9.954 v 35.535 h -9.954 z"
         id="path11819" />
    </clipPath>
    <clipPath
       clipPathUnits="userSpaceOnUse"
       id="clipPath11841">
      <path
         d="m 116.277,161.295 h 30.312 v -73.6 h -30.312 z"
         id="path11839" />
    </clipPath>
    <clipPath
       clipPathUnits="userSpaceOnUse"
       id="clipPath11845">
      <path
         d="m 116.277,87.695 h 30.311 v 73.6 h -30.311 z"
         id="path11843" />
    </clipPath>
    <clipPath
       clipPathUnits="userSpaceOnUse"
       id="clipPath11849">
      <path
         d="m 131.343,161.295 h 15.246 v -22.89 h -15.246 z"
         id="path11847" />
    </clipPath>
    <clipPath
       clipPathUnits="userSpaceOnUse"
       id="clipPath11853">
      <path
         d="m 131.343,138.405 h 15.245 v 22.89 h -15.245 z"
         id="path11851" />
    </clipPath>
    <clipPath
       clipPathUnits="userSpaceOnUse"
       id="clipPath11857">
      <path
         d="m 127.241,154.49 h 9.217 v -23.31 h -9.217 z"
         id="path11855" />
    </clipPath>
    <clipPath
       clipPathUnits="userSpaceOnUse"
       id="clipPath11861">
      <path
         d="m 127.242,131.18 h 9.216 v 23.31 h -9.216 z"
         id="path11859" />
    </clipPath>
    <clipPath
       clipPathUnits="userSpaceOnUse"
       id="clipPath11865">
      <path
         d="m 121.867,147.714 h 11.008 v -27.988 h -11.008 z"
         id="path11863" />
    </clipPath>
    <clipPath
       clipPathUnits="userSpaceOnUse"
       id="clipPath11869">
      <path
         d="m 121.867,119.726 h 11.008 v 27.988 h -11.008 z"
         id="path11867" />
    </clipPath>
    <clipPath
       clipPathUnits="userSpaceOnUse"
       id="clipPath11873">
      <path
         d="m 118.735,134.763 h 10.293 v -27.154 h -10.293 z"
         id="path11871" />
    </clipPath>
    <clipPath
       clipPathUnits="userSpaceOnUse"
       id="clipPath11877">
      <path
         d="m 118.735,107.609 h 10.293 v 27.153 h -10.293 z"
         id="path11875" />
    </clipPath>
    <clipPath
       clipPathUnits="userSpaceOnUse"
       id="clipPath11881">
      <path
         d="m 116.277,123.23 h 9.954 V 87.695 h -9.954 z"
         id="path11879" />
    </clipPath>
    <clipPath
       clipPathUnits="userSpaceOnUse"
       id="clipPath11885">
      <path
         d="m 116.277,87.695 h 9.954 v 35.535 h -9.954 z"
         id="path11883" />
    </clipPath>
    <clipPath
       clipPathUnits="userSpaceOnUse"
       id="clipPath12001">
      <path
         d="m 138.868,194.591 h 20.776 v -16.162 h -20.776 z"
         id="path11999" />
    </clipPath>
    <clipPath
       clipPathUnits="userSpaceOnUse"
       id="clipPath12005">
      <path
         d="m 138.868,178.429 h 20.776 v 16.162 h -20.776 z"
         id="path12003" />
    </clipPath>
    <clipPath
       clipPathUnits="userSpaceOnUse"
       id="clipPath12025">
      <path
         d="m 131.122,206.278 h 26.133 v -18.351 h -26.133 z"
         id="path12023" />
    </clipPath>
    <clipPath
       clipPathUnits="userSpaceOnUse"
       id="clipPath12029">
      <path
         d="m 131.123,187.927 h 26.132 v 18.351 h -26.132 z"
         id="path12027" />
    </clipPath>
    <clipPath
       clipPathUnits="userSpaceOnUse"
       id="clipPath12049">
      <path
         d="m 120.335,224.646 h 31.107 V 200.7 h -31.107 z"
         id="path12047" />
    </clipPath>
    <clipPath
       clipPathUnits="userSpaceOnUse"
       id="clipPath12053">
      <path
         d="m 120.336,200.7 h 31.105 v 23.946 h -31.105 z"
         id="path12051" />
    </clipPath>
    <clipPath
       clipPathUnits="userSpaceOnUse"
       id="clipPath12073">
      <path
         d="m 120.152,231.128 h 26.965 v -22.296 h -26.965 z"
         id="path12071" />
    </clipPath>
    <clipPath
       clipPathUnits="userSpaceOnUse"
       id="clipPath12077">
      <path
         d="m 120.152,208.833 h 26.965 v 22.295 h -26.965 z"
         id="path12075" />
    </clipPath>
    <clipPath
       clipPathUnits="userSpaceOnUse"
       id="clipPath12097">
      <path
         d="m 119.741,245.931 h 19.626 v -24.599 h -19.626 z"
         id="path12095" />
    </clipPath>
    <clipPath
       clipPathUnits="userSpaceOnUse"
       id="clipPath12101">
      <path
         d="m 119.741,221.332 h 19.626 v 24.599 h -19.626 z"
         id="path12099" />
    </clipPath>
    <clipPath
       clipPathUnits="userSpaceOnUse"
       id="clipPath12121">
      <path
         d="m 119.741,245.931 h 39.903 v -67.502 h -39.903 z"
         id="path12119" />
    </clipPath>
    <clipPath
       clipPathUnits="userSpaceOnUse"
       id="clipPath12125">
      <path
         d="m 119.741,178.429 h 39.903 v 67.502 h -39.903 z"
         id="path12123" />
    </clipPath>
    <clipPath
       clipPathUnits="userSpaceOnUse"
       id="clipPath12129">
      <path
         d="m 138.868,194.591 h 20.776 v -16.162 h -20.776 z"
         id="path12127" />
    </clipPath>
    <clipPath
       clipPathUnits="userSpaceOnUse"
       id="clipPath12133">
      <path
         d="m 138.868,178.429 h 20.776 v 16.162 h -20.776 z"
         id="path12131" />
    </clipPath>
    <clipPath
       clipPathUnits="userSpaceOnUse"
       id="clipPath12137">
      <path
         d="m 131.122,206.278 h 26.133 v -18.351 h -26.133 z"
         id="path12135" />
    </clipPath>
    <clipPath
       clipPathUnits="userSpaceOnUse"
       id="clipPath12141">
      <path
         d="m 131.123,187.927 h 26.132 v 18.351 h -26.132 z"
         id="path12139" />
    </clipPath>
    <clipPath
       clipPathUnits="userSpaceOnUse"
       id="clipPath12145">
      <path
         d="m 120.335,224.646 h 31.107 V 200.7 h -31.107 z"
         id="path12143" />
    </clipPath>
    <clipPath
       clipPathUnits="userSpaceOnUse"
       id="clipPath12149">
      <path
         d="m 120.336,200.7 h 31.105 v 23.946 h -31.105 z"
         id="path12147" />
    </clipPath>
    <clipPath
       clipPathUnits="userSpaceOnUse"
       id="clipPath12153">
      <path
         d="m 120.152,231.128 h 26.965 v -22.296 h -26.965 z"
         id="path12151" />
    </clipPath>
    <clipPath
       clipPathUnits="userSpaceOnUse"
       id="clipPath12157">
      <path
         d="m 120.152,208.833 h 26.965 v 22.295 h -26.965 z"
         id="path12155" />
    </clipPath>
    <clipPath
       clipPathUnits="userSpaceOnUse"
       id="clipPath12161">
      <path
         d="m 119.741,245.931 h 19.626 v -24.599 h -19.626 z"
         id="path12159" />
    </clipPath>
    <clipPath
       clipPathUnits="userSpaceOnUse"
       id="clipPath12165">
      <path
         d="m 119.741,221.332 h 19.626 v 24.599 h -19.626 z"
         id="path12163" />
    </clipPath>
    <clipPath
       clipPathUnits="userSpaceOnUse"
       id="clipPath12281">
      <path
         d="M 120.207,246.353 H 142.01 V 221.828 H 120.207 Z"
         id="path12279" />
    </clipPath>
    <clipPath
       clipPathUnits="userSpaceOnUse"
       id="clipPath12285">
      <path
         d="m 120.207,221.829 h 21.803 v 24.524 h -21.803 z"
         id="path12283" />
    </clipPath>
    <clipPath
       clipPathUnits="userSpaceOnUse"
       id="clipPath12305">
      <path
         d="M 136.646,241.58 H 147.84 V 213.875 H 136.646 Z"
         id="path12303" />
    </clipPath>
    <clipPath
       clipPathUnits="userSpaceOnUse"
       id="clipPath12309">
      <path
         d="M 136.646,213.876 H 147.84 V 241.58 H 136.646 Z"
         id="path12307" />
    </clipPath>
    <clipPath
       clipPathUnits="userSpaceOnUse"
       id="clipPath12329">
      <path
         d="m 142.9,234.798 h 13.678 V 201.075 H 142.9 Z"
         id="path12327" />
    </clipPath>
    <clipPath
       clipPathUnits="userSpaceOnUse"
       id="clipPath12333">
      <path
         d="m 142.9,201.075 h 13.678 v 33.723 H 142.9 Z"
         id="path12331" />
    </clipPath>
    <clipPath
       clipPathUnits="userSpaceOnUse"
       id="clipPath12353">
      <path
         d="m 150.095,220.826 h 12.813 v -33.544 h -12.813 z"
         id="path12351" />
    </clipPath>
    <clipPath
       clipPathUnits="userSpaceOnUse"
       id="clipPath12357">
      <path
         d="m 150.095,187.282 h 12.813 v 33.544 h -12.813 z"
         id="path12355" />
    </clipPath>
    <clipPath
       clipPathUnits="userSpaceOnUse"
       id="clipPath12377">
      <path
         d="m 155.815,207.604 h 12.629 v -43.512 h -12.629 z"
         id="path12375" />
    </clipPath>
    <clipPath
       clipPathUnits="userSpaceOnUse"
       id="clipPath12381">
      <path
         d="m 155.816,164.092 h 12.628 v 43.512 h -12.628 z"
         id="path12379" />
    </clipPath>
    <clipPath
       clipPathUnits="userSpaceOnUse"
       id="clipPath12401">
      <path
         d="m 120.207,246.353 h 48.237 v -82.261 h -48.237 z"
         id="path12399" />
    </clipPath>
    <clipPath
       clipPathUnits="userSpaceOnUse"
       id="clipPath12405">
      <path
         d="m 120.207,164.092 h 48.237 v 82.261 h -48.237 z"
         id="path12403" />
    </clipPath>
    <clipPath
       clipPathUnits="userSpaceOnUse"
       id="clipPath12409">
      <path
         d="M 120.207,246.353 H 142.01 V 221.828 H 120.207 Z"
         id="path12407" />
    </clipPath>
    <clipPath
       clipPathUnits="userSpaceOnUse"
       id="clipPath12413">
      <path
         d="m 120.207,221.829 h 21.803 v 24.524 h -21.803 z"
         id="path12411" />
    </clipPath>
    <clipPath
       clipPathUnits="userSpaceOnUse"
       id="clipPath12417">
      <path
         d="M 136.646,241.58 H 147.84 V 213.875 H 136.646 Z"
         id="path12415" />
    </clipPath>
    <clipPath
       clipPathUnits="userSpaceOnUse"
       id="clipPath12421">
      <path
         d="M 136.646,213.876 H 147.84 V 241.58 H 136.646 Z"
         id="path12419" />
    </clipPath>
    <clipPath
       clipPathUnits="userSpaceOnUse"
       id="clipPath12425">
      <path
         d="m 142.9,234.798 h 13.678 V 201.075 H 142.9 Z"
         id="path12423" />
    </clipPath>
    <clipPath
       clipPathUnits="userSpaceOnUse"
       id="clipPath12429">
      <path
         d="m 142.9,201.075 h 13.678 v 33.723 H 142.9 Z"
         id="path12427" />
    </clipPath>
    <clipPath
       clipPathUnits="userSpaceOnUse"
       id="clipPath12433">
      <path
         d="m 150.095,220.826 h 12.813 v -33.544 h -12.813 z"
         id="path12431" />
    </clipPath>
    <clipPath
       clipPathUnits="userSpaceOnUse"
       id="clipPath12437">
      <path
         d="m 150.095,187.282 h 12.813 v 33.544 h -12.813 z"
         id="path12435" />
    </clipPath>
    <clipPath
       clipPathUnits="userSpaceOnUse"
       id="clipPath12441">
      <path
         d="m 155.815,207.604 h 12.629 v -43.512 h -12.629 z"
         id="path12439" />
    </clipPath>
    <clipPath
       clipPathUnits="userSpaceOnUse"
       id="clipPath12445">
      <path
         d="m 155.816,164.092 h 12.628 v 43.512 h -12.628 z"
         id="path12443" />
    </clipPath>
  </defs>
  <g
     inkscape:label="Layer 1"
     inkscape:groupmode="layer"
     id="layer1">
    <g
       id="g42016"
       transform="matrix(0.35277776,0,0,-0.35277776,-0.31247939,99.687581)">
      <path
         d="m 120.4355,82.3661 v 105.66 c -26.477,34.762 -29.875,53.063 -25.578,71.327 -4.571,-0.253 -8.421,-2.647 -11.974,-5.923 -13.794,-10.435 -20.866,-42.261 -22.874,-90.21 -0.897,-3.69 0.435,-5.6 4.291,-5.493 l 12.081,-1.438 c 2.519,-0.674 3.443,0.789 3.294,3.692 -0.125,2.441 -0.273,4.886 -0.248,7.331 0.155,15.033 1.208,28.673 4.229,39.254 2.144,-6.852 2.767,-13.798 1.545,-20.858 -2.511,-12.852 -4.248,-25.508 -3.734,-37.594 -4.292,-52.186 -6.009,-66.864 5.665,-67.207 l 26.651,-5.021 c 5.119,-1.044 6.979,1.51 6.652,6.48"
         style="fill:#05b0a1;fill-opacity:1;fill-rule:nonzero;stroke:none"
         id="path12655"
         clip-path="none" />
      <path
         d="m 120.4355,82.3661 h 27.209 c 4.12,0.515 5.493,3.033 4.12,7.553 -0.735,31.582 -4.421,63.805 -10.558,96.562 -1.265,6.466 -0.923,14.003 1.289,22.788 h 1.158 c 3.388,-13.607 4.556,-30.126 4.377,-48.409 0.259,-4.569 1.29,-7.724 4.249,-7.339 l 13.134,3.348 c 1.598,0.161 1.878,2.844 1.416,6.952 -0.947,40.853 -6.695,73.773 -23.097,89.094 -2.715,1.82 -5.942,3.981 -9.607,6.438 l -11.586,-44.032 -4.798,-8.847 2.694,-18.448 z"
         style="fill:#088475;fill-opacity:1;fill-rule:nonzero;stroke:none"
         id="path12659"
         clip-path="none" />
      <path
         d="m 121.8945,264.5028 h -15.063 l -5.151,-2.188 v -33.089 l 8.111,-19.184 8.499,2.962 11.072,27.552 -3.219,20.342 z"
         style="fill:#088475;fill-opacity:1;fill-rule:nonzero;stroke:none"
         id="path12663"
         clip-path="none" />
      <path
         d="m 106.831,264.5028 c -5.84,-0.131 -10.39,-1.369 -11.974,-5.15 -4.639,-21.672 3.887,-45.448 25.578,-71.327 l 2.103,0.644 c -0.574,9.21 -5.804,20.324 -10.776,31.869 -4.391,10.193 -6.743,21.177 -6.7,32.276 0.021,5.152 0.502,9.287 1.769,11.688"
         style="fill:#f79420;fill-opacity:1;fill-rule:nonzero;stroke:none"
         id="path12667"
         clip-path="none" />
      <path
         d="m 117.7402,206.4745 c 3.291,2.335 6.157,6.771 8.815,12.23 5.101,10.476 7.571,22.037 7.571,33.688 v 6.96 c -3.403,3.101 -7.433,4.913 -12.232,5.15 v -27.423 c -0.424,-8.279 -3.805,-14.591 -8.669,-19.919 z"
         style="fill:#f27900;fill-opacity:1;fill-rule:nonzero;stroke:none"
         id="path12671"
         clip-path="none" />
      <path
         d="m 139.1376,193.3559 c -14.174,-6.885 -32.001,-5.982 -51.361,-1.811 -1.547,0.333 -3.075,-0.699 -3.288,-2.266 -0.093,-0.68 -0.037,-1.39 0.163,-2.129 0.233,-0.864 0.89,-1.564 1.737,-1.854 20.522,-7.033 39.147,-8.486 54.137,0.755 0.496,0.307 0.904,0.753 1.171,1.273 0.954,1.866 1.009,3.668 -0.105,5.386 -0.525,0.811 -1.585,1.068 -2.454,0.646"
         style="fill:#f27900;fill-opacity:1;fill-rule:nonzero;stroke:none"
         id="path12675"
         clip-path="none" />
      <path
         d="m 115.5859,181.4599 1.03,-56.392 c -0.425,-4.127 1.341,-7.336 9.529,-7.854 -0.336,26.401 -0.64,52.938 -4.378,65.662 z"
         style="fill:#f27900;fill-opacity:1;fill-rule:nonzero;stroke:none"
         id="path12679"
         clip-path="none" />
      <path
         d="m 110.8222,182.2323 -4.249,-39.011 c -0.364,-5.582 2.89,-7.209 7.982,-6.823 v 45.19 z"
         style="fill:#f27900;fill-opacity:1;fill-rule:nonzero;stroke:none"
         id="path12683"
         clip-path="none" />
      <g
         id="g12685"
         transform="translate(84.4443,208.1967)"
         clip-path="none">
        <path
           d="M 0,0 C -0.176,1.026 -0.344,2.056 -0.499,3.088 L -0.86,6.2 -1.061,9.328 -1.14,12.464 c -0.019,4.185 0.364,8.367 0.967,12.507 0.685,4.129 1.595,8.22 2.803,12.221 0.616,1.997 1.277,3.978 1.984,5.941 0.751,1.948 1.513,3.889 2.365,5.792 C 6.664,47.931 6.341,46.94 6.006,45.956 L 5.082,42.975 4.191,39.988 3.376,36.982 C 2.331,32.966 1.423,28.916 0.822,24.816 0.142,20.728 -0.222,16.595 -0.367,12.452 -0.513,8.308 -0.363,4.152 0,0"
           style="fill:#088475;fill-opacity:1;fill-rule:nonzero;stroke:none"
           id="path12687" />
      </g>
      <path
         d="m 142.2363,212.8061 c 0.257,3.375 0.358,6.745 0.227,10.104 -0.144,3.358 -0.456,6.705 -0.989,10.021 -0.506,3.32 -1.225,6.605 -2.049,9.869 -0.414,1.632 -0.872,3.253 -1.358,4.869 l -0.727,2.425 c -0.267,0.801 -0.522,1.608 -0.768,2.418 0.712,-1.536 1.339,-3.109 1.964,-4.685 0.583,-1.591 1.129,-3.197 1.637,-4.817 1.005,-3.243 1.762,-6.565 2.297,-9.924 0.513,-3.361 0.805,-6.763 0.764,-10.164 l -0.077,-2.547 -0.176,-2.54 -0.313,-2.525 c -0.134,-0.838 -0.279,-1.672 -0.432,-2.504"
         style="fill:#086053;fill-opacity:1;fill-rule:nonzero;stroke:none"
         id="path12691"
         clip-path="none" />
    </g>
  </g>
</svg>
