<?xml version="1.0" encoding="UTF-8" standalone="no"?>
<!-- Created with Inkscape (http://www.inkscape.org/) -->

<svg
   width="300"
   height="300"
   viewBox="0 0 79.374998 79.375"
   version="1.1"
   id="svg31435"
   inkscape:version="1.2.1 (9c6d41e410, 2022-07-14)"
   sodipodi:docname="1130_pic.svg"
   xmlns:inkscape="http://www.inkscape.org/namespaces/inkscape"
   xmlns:sodipodi="http://sodipodi.sourceforge.net/DTD/sodipodi-0.dtd"
   xmlns="http://www.w3.org/2000/svg"
   xmlns:svg="http://www.w3.org/2000/svg">
  <sodipodi:namedview
     id="namedview31437"
     pagecolor="#ffffff"
     bordercolor="#000000"
     borderopacity="0.25"
     inkscape:showpageshadow="2"
     inkscape:pageopacity="0.0"
     inkscape:pagecheckerboard="0"
     inkscape:deskcolor="#d1d1d1"
     inkscape:document-units="px"
     showgrid="false"
     inkscape:zoom="0.914906"
     inkscape:cx="376.54141"
     inkscape:cy="254.67097"
     inkscape:window-width="1700"
     inkscape:window-height="690"
     inkscape:window-x="1724"
     inkscape:window-y="28"
     inkscape:window-maximized="1"
     inkscape:current-layer="layer1" />
  <defs
     id="defs31432">
    <clipPath
       clipPathUnits="userSpaceOnUse"
       id="clipPath10961">
      <path
         d="M 66.3185,149.98 H 99.4759 V 116.467 H 66.3185 Z"
         id="path10959" />
    </clipPath>
    <clipPath
       clipPathUnits="userSpaceOnUse"
       id="clipPath10965">
      <path
         d="M 66.319,116.467 H 99.476 V 149.98 H 66.319 Z"
         id="path10963" />
    </clipPath>
    <clipPath
       clipPathUnits="userSpaceOnUse"
       id="clipPath10985">
      <path
         d="M 60.5204,179.581 H 96.2847 V 132.009 H 60.5204 Z"
         id="path10983" />
    </clipPath>
    <clipPath
       clipPathUnits="userSpaceOnUse"
       id="clipPath10989">
      <path
         d="M 60.521,132.009 H 96.285 V 179.58 H 60.521 Z"
         id="path10987" />
    </clipPath>
    <clipPath
       clipPathUnits="userSpaceOnUse"
       id="clipPath11009">
      <path
         d="m 58.3281,222.915 h 32.433 v -66.986 h -32.433 z"
         id="path11007" />
    </clipPath>
    <clipPath
       clipPathUnits="userSpaceOnUse"
       id="clipPath11013">
      <path
         d="m 58.328,155.929 h 32.433 v 66.986 H 58.328 Z"
         id="path11011" />
    </clipPath>
    <clipPath
       clipPathUnits="userSpaceOnUse"
       id="clipPath11033">
      <path
         d="M 63.2338,232.871 H 88.1091 V 171.822 H 63.2338 Z"
         id="path11031" />
    </clipPath>
    <clipPath
       clipPathUnits="userSpaceOnUse"
       id="clipPath11037">
      <path
         d="m 63.234,171.822 h 24.875 v 61.049 H 63.234 Z"
         id="path11035" />
    </clipPath>
    <clipPath
       clipPathUnits="userSpaceOnUse"
       id="clipPath11057">
      <path
         d="M 68.9517,252.463 H 86.6302 V 197.528 H 68.9517 Z"
         id="path11055" />
    </clipPath>
    <clipPath
       clipPathUnits="userSpaceOnUse"
       id="clipPath11061">
      <path
         d="M 68.952,197.528 H 86.63 v 54.934 H 68.952 Z"
         id="path11059" />
    </clipPath>
    <clipPath
       clipPathUnits="userSpaceOnUse"
       id="clipPath11081">
      <path
         d="M 66.3185,149.98 H 99.4759 V 116.467 H 66.3185 Z"
         id="path11079" />
    </clipPath>
    <clipPath
       clipPathUnits="userSpaceOnUse"
       id="clipPath11085">
      <path
         d="M 66.319,116.467 H 99.476 V 149.98 H 66.319 Z"
         id="path11083" />
    </clipPath>
    <clipPath
       clipPathUnits="userSpaceOnUse"
       id="clipPath11105">
      <path
         d="M 60.5204,179.581 H 96.2847 V 132.009 H 60.5204 Z"
         id="path11103" />
    </clipPath>
    <clipPath
       clipPathUnits="userSpaceOnUse"
       id="clipPath11109">
      <path
         d="M 60.521,132.009 H 96.285 V 179.58 H 60.521 Z"
         id="path11107" />
    </clipPath>
    <clipPath
       clipPathUnits="userSpaceOnUse"
       id="clipPath11129">
      <path
         d="m 58.3281,222.915 h 32.433 v -66.986 h -32.433 z"
         id="path11127" />
    </clipPath>
    <clipPath
       clipPathUnits="userSpaceOnUse"
       id="clipPath11133">
      <path
         d="m 58.328,155.929 h 32.433 v 66.986 H 58.328 Z"
         id="path11131" />
    </clipPath>
    <clipPath
       clipPathUnits="userSpaceOnUse"
       id="clipPath11153">
      <path
         d="M 63.2338,232.871 H 88.1091 V 171.822 H 63.2338 Z"
         id="path11151" />
    </clipPath>
    <clipPath
       clipPathUnits="userSpaceOnUse"
       id="clipPath11157">
      <path
         d="m 63.234,171.822 h 24.875 v 61.049 H 63.234 Z"
         id="path11155" />
    </clipPath>
    <clipPath
       clipPathUnits="userSpaceOnUse"
       id="clipPath11177">
      <path
         d="M 68.9517,252.463 H 86.6302 V 197.528 H 68.9517 Z"
         id="path11175" />
    </clipPath>
    <clipPath
       clipPathUnits="userSpaceOnUse"
       id="clipPath11181">
      <path
         d="M 68.952,197.528 H 86.63 v 54.934 H 68.952 Z"
         id="path11179" />
    </clipPath>
    <clipPath
       clipPathUnits="userSpaceOnUse"
       id="clipPath11201">
      <path
         d="M 86.1289,252.322 H 103 V 197.745 H 86.1289 Z"
         id="path11199" />
    </clipPath>
    <clipPath
       clipPathUnits="userSpaceOnUse"
       id="clipPath11205">
      <path
         d="M 86.129,197.745 H 103 v 54.577 H 86.129 Z"
         id="path11203" />
    </clipPath>
    <clipPath
       clipPathUnits="userSpaceOnUse"
       id="clipPath11225">
      <path
         d="M 86.1137,225.081 H 107.624 V 181.389 H 86.1137 Z"
         id="path11223" />
    </clipPath>
    <clipPath
       clipPathUnits="userSpaceOnUse"
       id="clipPath11229">
      <path
         d="m 86.114,181.39 h 21.51 v 43.691 h -21.51 z"
         id="path11227" />
    </clipPath>
    <clipPath
       clipPathUnits="userSpaceOnUse"
       id="clipPath11249">
      <path
         d="m 87.323,209.222 h 24.316 V 156.263 H 87.323 Z"
         id="path11247" />
    </clipPath>
    <clipPath
       clipPathUnits="userSpaceOnUse"
       id="clipPath11253">
      <path
         d="m 87.323,156.263 h 24.316 v 52.958 H 87.323 Z"
         id="path11251" />
    </clipPath>
    <clipPath
       clipPathUnits="userSpaceOnUse"
       id="clipPath11273">
      <path
         d="M 90.5529,183.237 H 113.585 V 130.675 H 90.5529 Z"
         id="path11271" />
    </clipPath>
    <clipPath
       clipPathUnits="userSpaceOnUse"
       id="clipPath11277">
      <path
         d="m 90.553,130.675 h 23.032 v 52.562 H 90.553 Z"
         id="path11275" />
    </clipPath>
    <clipPath
       clipPathUnits="userSpaceOnUse"
       id="clipPath11297">
      <path
         d="M 95.2056,161.739 H 116.473 V 90.5852 H 95.2056 Z"
         id="path11295" />
    </clipPath>
    <clipPath
       clipPathUnits="userSpaceOnUse"
       id="clipPath11301">
      <path
         d="m 95.206,90.585 h 21.268 v 71.154 H 95.206 Z"
         id="path11299" />
    </clipPath>
    <clipPath
       clipPathUnits="userSpaceOnUse"
       id="clipPath11321">
      <path
         d="M 86.1289,252.322 H 103 V 197.745 H 86.1289 Z"
         id="path11319" />
    </clipPath>
    <clipPath
       clipPathUnits="userSpaceOnUse"
       id="clipPath11325">
      <path
         d="M 86.129,197.745 H 103 v 54.577 H 86.129 Z"
         id="path11323" />
    </clipPath>
    <clipPath
       clipPathUnits="userSpaceOnUse"
       id="clipPath11345">
      <path
         d="M 86.1137,225.081 H 107.624 V 181.389 H 86.1137 Z"
         id="path11343" />
    </clipPath>
    <clipPath
       clipPathUnits="userSpaceOnUse"
       id="clipPath11349">
      <path
         d="m 86.114,181.39 h 21.51 v 43.691 h -21.51 z"
         id="path11347" />
    </clipPath>
    <clipPath
       clipPathUnits="userSpaceOnUse"
       id="clipPath11369">
      <path
         d="m 87.323,209.222 h 24.316 V 156.263 H 87.323 Z"
         id="path11367" />
    </clipPath>
    <clipPath
       clipPathUnits="userSpaceOnUse"
       id="clipPath11373">
      <path
         d="m 87.323,156.263 h 24.316 v 52.958 H 87.323 Z"
         id="path11371" />
    </clipPath>
    <clipPath
       clipPathUnits="userSpaceOnUse"
       id="clipPath11393">
      <path
         d="M 90.5529,183.237 H 113.585 V 130.675 H 90.5529 Z"
         id="path11391" />
    </clipPath>
    <clipPath
       clipPathUnits="userSpaceOnUse"
       id="clipPath11397">
      <path
         d="m 90.553,130.675 h 23.032 v 52.562 H 90.553 Z"
         id="path11395" />
    </clipPath>
    <clipPath
       clipPathUnits="userSpaceOnUse"
       id="clipPath11417">
      <path
         d="M 95.2056,161.739 H 116.473 V 90.5852 H 95.2056 Z"
         id="path11415" />
    </clipPath>
    <clipPath
       clipPathUnits="userSpaceOnUse"
       id="clipPath11421">
      <path
         d="m 95.206,90.585 h 21.268 v 71.154 H 95.206 Z"
         id="path11419" />
    </clipPath>
    <clipPath
       clipPathUnits="userSpaceOnUse"
       id="clipPath11441">
      <path
         d="m 124.925,115.874 h 14.893 v -13.963 h -14.893 z"
         id="path11439" />
    </clipPath>
    <clipPath
       clipPathUnits="userSpaceOnUse"
       id="clipPath11445">
      <path
         d="m 124.925,101.911 h 14.893 v 13.962 h -14.893 z"
         id="path11443" />
    </clipPath>
    <clipPath
       clipPathUnits="userSpaceOnUse"
       id="clipPath11465">
      <path
         d="m 125.89,127.226 h 18.202 V 108.295 H 125.89 Z"
         id="path11463" />
    </clipPath>
    <clipPath
       clipPathUnits="userSpaceOnUse"
       id="clipPath11469">
      <path
         d="m 125.89,108.295 h 18.202 v 18.931 H 125.89 Z"
         id="path11467" />
    </clipPath>
    <clipPath
       clipPathUnits="userSpaceOnUse"
       id="clipPath11489">
      <path
         d="m 128.57,143.753 h 21.335 V 119.521 H 128.57 Z"
         id="path11487" />
    </clipPath>
    <clipPath
       clipPathUnits="userSpaceOnUse"
       id="clipPath11493">
      <path
         d="m 128.57,119.522 h 21.335 v 24.231 H 128.57 Z"
         id="path11491" />
    </clipPath>
    <clipPath
       clipPathUnits="userSpaceOnUse"
       id="clipPath11513">
      <path
         d="m 130.779,149.011 h 18.444 v -22.243 h -18.444 z"
         id="path11511" />
    </clipPath>
    <clipPath
       clipPathUnits="userSpaceOnUse"
       id="clipPath11517">
      <path
         d="m 130.779,126.768 h 18.444 v 22.243 h -18.444 z"
         id="path11515" />
    </clipPath>
    <clipPath
       clipPathUnits="userSpaceOnUse"
       id="clipPath11537">
      <path
         d="m 135.053,161.028 h 13.124 v -22.889 h -13.124 z"
         id="path11535" />
    </clipPath>
    <clipPath
       clipPathUnits="userSpaceOnUse"
       id="clipPath11541">
      <path
         d="m 135.053,138.139 h 13.124 v 22.889 h -13.124 z"
         id="path11539" />
    </clipPath>
    <clipPath
       clipPathUnits="userSpaceOnUse"
       id="clipPath11561">
      <path
         d="m 124.925,161.028 h 24.98 v -59.117 h -24.98 z"
         id="path11559" />
    </clipPath>
    <clipPath
       clipPathUnits="userSpaceOnUse"
       id="clipPath11565">
      <path
         d="m 124.925,101.911 h 24.98 v 59.117 h -24.98 z"
         id="path11563" />
    </clipPath>
    <clipPath
       clipPathUnits="userSpaceOnUse"
       id="clipPath11569">
      <path
         d="m 124.925,115.874 h 14.893 v -13.963 h -14.893 z"
         id="path11567" />
    </clipPath>
    <clipPath
       clipPathUnits="userSpaceOnUse"
       id="clipPath11573">
      <path
         d="m 124.925,101.911 h 14.893 v 13.962 h -14.893 z"
         id="path11571" />
    </clipPath>
    <clipPath
       clipPathUnits="userSpaceOnUse"
       id="clipPath11577">
      <path
         d="m 125.89,127.226 h 18.202 V 108.295 H 125.89 Z"
         id="path11575" />
    </clipPath>
    <clipPath
       clipPathUnits="userSpaceOnUse"
       id="clipPath11581">
      <path
         d="m 125.89,108.295 h 18.202 v 18.931 H 125.89 Z"
         id="path11579" />
    </clipPath>
    <clipPath
       clipPathUnits="userSpaceOnUse"
       id="clipPath11585">
      <path
         d="m 128.57,143.753 h 21.335 V 119.521 H 128.57 Z"
         id="path11583" />
    </clipPath>
    <clipPath
       clipPathUnits="userSpaceOnUse"
       id="clipPath11589">
      <path
         d="m 128.57,119.522 h 21.335 v 24.231 H 128.57 Z"
         id="path11587" />
    </clipPath>
    <clipPath
       clipPathUnits="userSpaceOnUse"
       id="clipPath11593">
      <path
         d="m 130.779,149.011 h 18.444 v -22.243 h -18.444 z"
         id="path11591" />
    </clipPath>
    <clipPath
       clipPathUnits="userSpaceOnUse"
       id="clipPath11597">
      <path
         d="m 130.779,126.768 h 18.444 v 22.243 h -18.444 z"
         id="path11595" />
    </clipPath>
    <clipPath
       clipPathUnits="userSpaceOnUse"
       id="clipPath11601">
      <path
         d="m 135.053,161.028 h 13.124 v -22.889 h -13.124 z"
         id="path11599" />
    </clipPath>
    <clipPath
       clipPathUnits="userSpaceOnUse"
       id="clipPath11605">
      <path
         d="m 135.053,138.139 h 13.124 v 22.889 h -13.124 z"
         id="path11603" />
    </clipPath>
    <clipPath
       clipPathUnits="userSpaceOnUse"
       id="clipPath11721">
      <path
         d="m 131.343,161.295 h 15.246 v -22.89 h -15.246 z"
         id="path11719" />
    </clipPath>
    <clipPath
       clipPathUnits="userSpaceOnUse"
       id="clipPath11725">
      <path
         d="m 131.343,138.405 h 15.245 v 22.89 h -15.245 z"
         id="path11723" />
    </clipPath>
    <clipPath
       clipPathUnits="userSpaceOnUse"
       id="clipPath11745">
      <path
         d="m 127.241,154.49 h 9.217 v -23.31 h -9.217 z"
         id="path11743" />
    </clipPath>
    <clipPath
       clipPathUnits="userSpaceOnUse"
       id="clipPath11749">
      <path
         d="m 127.242,131.18 h 9.216 v 23.31 h -9.216 z"
         id="path11747" />
    </clipPath>
    <clipPath
       clipPathUnits="userSpaceOnUse"
       id="clipPath11769">
      <path
         d="m 121.867,147.714 h 11.008 v -27.988 h -11.008 z"
         id="path11767" />
    </clipPath>
    <clipPath
       clipPathUnits="userSpaceOnUse"
       id="clipPath11773">
      <path
         d="m 121.867,119.726 h 11.008 v 27.988 h -11.008 z"
         id="path11771" />
    </clipPath>
    <clipPath
       clipPathUnits="userSpaceOnUse"
       id="clipPath11793">
      <path
         d="m 118.735,134.763 h 10.293 v -27.154 h -10.293 z"
         id="path11791" />
    </clipPath>
    <clipPath
       clipPathUnits="userSpaceOnUse"
       id="clipPath11797">
      <path
         d="m 118.735,107.609 h 10.293 v 27.153 h -10.293 z"
         id="path11795" />
    </clipPath>
    <clipPath
       clipPathUnits="userSpaceOnUse"
       id="clipPath11817">
      <path
         d="m 116.277,123.23 h 9.954 V 87.695 h -9.954 z"
         id="path11815" />
    </clipPath>
    <clipPath
       clipPathUnits="userSpaceOnUse"
       id="clipPath11821">
      <path
         d="m 116.277,87.695 h 9.954 v 35.535 h -9.954 z"
         id="path11819" />
    </clipPath>
    <clipPath
       clipPathUnits="userSpaceOnUse"
       id="clipPath11841">
      <path
         d="m 116.277,161.295 h 30.312 v -73.6 h -30.312 z"
         id="path11839" />
    </clipPath>
    <clipPath
       clipPathUnits="userSpaceOnUse"
       id="clipPath11845">
      <path
         d="m 116.277,87.695 h 30.311 v 73.6 h -30.311 z"
         id="path11843" />
    </clipPath>
    <clipPath
       clipPathUnits="userSpaceOnUse"
       id="clipPath11849">
      <path
         d="m 131.343,161.295 h 15.246 v -22.89 h -15.246 z"
         id="path11847" />
    </clipPath>
    <clipPath
       clipPathUnits="userSpaceOnUse"
       id="clipPath11853">
      <path
         d="m 131.343,138.405 h 15.245 v 22.89 h -15.245 z"
         id="path11851" />
    </clipPath>
    <clipPath
       clipPathUnits="userSpaceOnUse"
       id="clipPath11857">
      <path
         d="m 127.241,154.49 h 9.217 v -23.31 h -9.217 z"
         id="path11855" />
    </clipPath>
    <clipPath
       clipPathUnits="userSpaceOnUse"
       id="clipPath11861">
      <path
         d="m 127.242,131.18 h 9.216 v 23.31 h -9.216 z"
         id="path11859" />
    </clipPath>
    <clipPath
       clipPathUnits="userSpaceOnUse"
       id="clipPath11865">
      <path
         d="m 121.867,147.714 h 11.008 v -27.988 h -11.008 z"
         id="path11863" />
    </clipPath>
    <clipPath
       clipPathUnits="userSpaceOnUse"
       id="clipPath11869">
      <path
         d="m 121.867,119.726 h 11.008 v 27.988 h -11.008 z"
         id="path11867" />
    </clipPath>
    <clipPath
       clipPathUnits="userSpaceOnUse"
       id="clipPath11873">
      <path
         d="m 118.735,134.763 h 10.293 v -27.154 h -10.293 z"
         id="path11871" />
    </clipPath>
    <clipPath
       clipPathUnits="userSpaceOnUse"
       id="clipPath11877">
      <path
         d="m 118.735,107.609 h 10.293 v 27.153 h -10.293 z"
         id="path11875" />
    </clipPath>
    <clipPath
       clipPathUnits="userSpaceOnUse"
       id="clipPath11881">
      <path
         d="m 116.277,123.23 h 9.954 V 87.695 h -9.954 z"
         id="path11879" />
    </clipPath>
    <clipPath
       clipPathUnits="userSpaceOnUse"
       id="clipPath11885">
      <path
         d="m 116.277,87.695 h 9.954 v 35.535 h -9.954 z"
         id="path11883" />
    </clipPath>
    <clipPath
       clipPathUnits="userSpaceOnUse"
       id="clipPath12001">
      <path
         d="m 138.868,194.591 h 20.776 v -16.162 h -20.776 z"
         id="path11999" />
    </clipPath>
    <clipPath
       clipPathUnits="userSpaceOnUse"
       id="clipPath12005">
      <path
         d="m 138.868,178.429 h 20.776 v 16.162 h -20.776 z"
         id="path12003" />
    </clipPath>
    <clipPath
       clipPathUnits="userSpaceOnUse"
       id="clipPath12025">
      <path
         d="m 131.122,206.278 h 26.133 v -18.351 h -26.133 z"
         id="path12023" />
    </clipPath>
    <clipPath
       clipPathUnits="userSpaceOnUse"
       id="clipPath12029">
      <path
         d="m 131.123,187.927 h 26.132 v 18.351 h -26.132 z"
         id="path12027" />
    </clipPath>
    <clipPath
       clipPathUnits="userSpaceOnUse"
       id="clipPath12049">
      <path
         d="m 120.335,224.646 h 31.107 V 200.7 h -31.107 z"
         id="path12047" />
    </clipPath>
    <clipPath
       clipPathUnits="userSpaceOnUse"
       id="clipPath12053">
      <path
         d="m 120.336,200.7 h 31.105 v 23.946 h -31.105 z"
         id="path12051" />
    </clipPath>
    <clipPath
       clipPathUnits="userSpaceOnUse"
       id="clipPath12073">
      <path
         d="m 120.152,231.128 h 26.965 v -22.296 h -26.965 z"
         id="path12071" />
    </clipPath>
    <clipPath
       clipPathUnits="userSpaceOnUse"
       id="clipPath12077">
      <path
         d="m 120.152,208.833 h 26.965 v 22.295 h -26.965 z"
         id="path12075" />
    </clipPath>
    <clipPath
       clipPathUnits="userSpaceOnUse"
       id="clipPath12097">
      <path
         d="m 119.741,245.931 h 19.626 v -24.599 h -19.626 z"
         id="path12095" />
    </clipPath>
    <clipPath
       clipPathUnits="userSpaceOnUse"
       id="clipPath12101">
      <path
         d="m 119.741,221.332 h 19.626 v 24.599 h -19.626 z"
         id="path12099" />
    </clipPath>
    <clipPath
       clipPathUnits="userSpaceOnUse"
       id="clipPath12121">
      <path
         d="m 119.741,245.931 h 39.903 v -67.502 h -39.903 z"
         id="path12119" />
    </clipPath>
    <clipPath
       clipPathUnits="userSpaceOnUse"
       id="clipPath12125">
      <path
         d="m 119.741,178.429 h 39.903 v 67.502 h -39.903 z"
         id="path12123" />
    </clipPath>
    <clipPath
       clipPathUnits="userSpaceOnUse"
       id="clipPath12129">
      <path
         d="m 138.868,194.591 h 20.776 v -16.162 h -20.776 z"
         id="path12127" />
    </clipPath>
    <clipPath
       clipPathUnits="userSpaceOnUse"
       id="clipPath12133">
      <path
         d="m 138.868,178.429 h 20.776 v 16.162 h -20.776 z"
         id="path12131" />
    </clipPath>
    <clipPath
       clipPathUnits="userSpaceOnUse"
       id="clipPath12137">
      <path
         d="m 131.122,206.278 h 26.133 v -18.351 h -26.133 z"
         id="path12135" />
    </clipPath>
    <clipPath
       clipPathUnits="userSpaceOnUse"
       id="clipPath12141">
      <path
         d="m 131.123,187.927 h 26.132 v 18.351 h -26.132 z"
         id="path12139" />
    </clipPath>
    <clipPath
       clipPathUnits="userSpaceOnUse"
       id="clipPath12145">
      <path
         d="m 120.335,224.646 h 31.107 V 200.7 h -31.107 z"
         id="path12143" />
    </clipPath>
    <clipPath
       clipPathUnits="userSpaceOnUse"
       id="clipPath12149">
      <path
         d="m 120.336,200.7 h 31.105 v 23.946 h -31.105 z"
         id="path12147" />
    </clipPath>
    <clipPath
       clipPathUnits="userSpaceOnUse"
       id="clipPath12153">
      <path
         d="m 120.152,231.128 h 26.965 v -22.296 h -26.965 z"
         id="path12151" />
    </clipPath>
    <clipPath
       clipPathUnits="userSpaceOnUse"
       id="clipPath12157">
      <path
         d="m 120.152,208.833 h 26.965 v 22.295 h -26.965 z"
         id="path12155" />
    </clipPath>
    <clipPath
       clipPathUnits="userSpaceOnUse"
       id="clipPath12161">
      <path
         d="m 119.741,245.931 h 19.626 v -24.599 h -19.626 z"
         id="path12159" />
    </clipPath>
    <clipPath
       clipPathUnits="userSpaceOnUse"
       id="clipPath12165">
      <path
         d="m 119.741,221.332 h 19.626 v 24.599 h -19.626 z"
         id="path12163" />
    </clipPath>
    <clipPath
       clipPathUnits="userSpaceOnUse"
       id="clipPath12281">
      <path
         d="M 120.207,246.353 H 142.01 V 221.828 H 120.207 Z"
         id="path12279" />
    </clipPath>
    <clipPath
       clipPathUnits="userSpaceOnUse"
       id="clipPath12285">
      <path
         d="m 120.207,221.829 h 21.803 v 24.524 h -21.803 z"
         id="path12283" />
    </clipPath>
    <clipPath
       clipPathUnits="userSpaceOnUse"
       id="clipPath12305">
      <path
         d="M 136.646,241.58 H 147.84 V 213.875 H 136.646 Z"
         id="path12303" />
    </clipPath>
    <clipPath
       clipPathUnits="userSpaceOnUse"
       id="clipPath12309">
      <path
         d="M 136.646,213.876 H 147.84 V 241.58 H 136.646 Z"
         id="path12307" />
    </clipPath>
    <clipPath
       clipPathUnits="userSpaceOnUse"
       id="clipPath12329">
      <path
         d="m 142.9,234.798 h 13.678 V 201.075 H 142.9 Z"
         id="path12327" />
    </clipPath>
    <clipPath
       clipPathUnits="userSpaceOnUse"
       id="clipPath12333">
      <path
         d="m 142.9,201.075 h 13.678 v 33.723 H 142.9 Z"
         id="path12331" />
    </clipPath>
    <clipPath
       clipPathUnits="userSpaceOnUse"
       id="clipPath12353">
      <path
         d="m 150.095,220.826 h 12.813 v -33.544 h -12.813 z"
         id="path12351" />
    </clipPath>
    <clipPath
       clipPathUnits="userSpaceOnUse"
       id="clipPath12357">
      <path
         d="m 150.095,187.282 h 12.813 v 33.544 h -12.813 z"
         id="path12355" />
    </clipPath>
    <clipPath
       clipPathUnits="userSpaceOnUse"
       id="clipPath12377">
      <path
         d="m 155.815,207.604 h 12.629 v -43.512 h -12.629 z"
         id="path12375" />
    </clipPath>
    <clipPath
       clipPathUnits="userSpaceOnUse"
       id="clipPath12381">
      <path
         d="m 155.816,164.092 h 12.628 v 43.512 h -12.628 z"
         id="path12379" />
    </clipPath>
    <clipPath
       clipPathUnits="userSpaceOnUse"
       id="clipPath12401">
      <path
         d="m 120.207,246.353 h 48.237 v -82.261 h -48.237 z"
         id="path12399" />
    </clipPath>
    <clipPath
       clipPathUnits="userSpaceOnUse"
       id="clipPath12405">
      <path
         d="m 120.207,164.092 h 48.237 v 82.261 h -48.237 z"
         id="path12403" />
    </clipPath>
    <clipPath
       clipPathUnits="userSpaceOnUse"
       id="clipPath12409">
      <path
         d="M 120.207,246.353 H 142.01 V 221.828 H 120.207 Z"
         id="path12407" />
    </clipPath>
    <clipPath
       clipPathUnits="userSpaceOnUse"
       id="clipPath12413">
      <path
         d="m 120.207,221.829 h 21.803 v 24.524 h -21.803 z"
         id="path12411" />
    </clipPath>
    <clipPath
       clipPathUnits="userSpaceOnUse"
       id="clipPath12417">
      <path
         d="M 136.646,241.58 H 147.84 V 213.875 H 136.646 Z"
         id="path12415" />
    </clipPath>
    <clipPath
       clipPathUnits="userSpaceOnUse"
       id="clipPath12421">
      <path
         d="M 136.646,213.876 H 147.84 V 241.58 H 136.646 Z"
         id="path12419" />
    </clipPath>
    <clipPath
       clipPathUnits="userSpaceOnUse"
       id="clipPath12425">
      <path
         d="m 142.9,234.798 h 13.678 V 201.075 H 142.9 Z"
         id="path12423" />
    </clipPath>
    <clipPath
       clipPathUnits="userSpaceOnUse"
       id="clipPath12429">
      <path
         d="m 142.9,201.075 h 13.678 v 33.723 H 142.9 Z"
         id="path12427" />
    </clipPath>
    <clipPath
       clipPathUnits="userSpaceOnUse"
       id="clipPath12433">
      <path
         d="m 150.095,220.826 h 12.813 v -33.544 h -12.813 z"
         id="path12431" />
    </clipPath>
    <clipPath
       clipPathUnits="userSpaceOnUse"
       id="clipPath12437">
      <path
         d="m 150.095,187.282 h 12.813 v 33.544 h -12.813 z"
         id="path12435" />
    </clipPath>
    <clipPath
       clipPathUnits="userSpaceOnUse"
       id="clipPath12441">
      <path
         d="m 155.815,207.604 h 12.629 v -43.512 h -12.629 z"
         id="path12439" />
    </clipPath>
    <clipPath
       clipPathUnits="userSpaceOnUse"
       id="clipPath12445">
      <path
         d="m 155.816,164.092 h 12.628 v 43.512 h -12.628 z"
         id="path12443" />
    </clipPath>
  </defs>
  <g
     inkscape:label="Layer 1"
     inkscape:groupmode="layer"
     id="layer1">
    <g
       id="g45999"
       transform="translate(-2.028357,-53.559712)">
      <g
         id="g16211"
         transform="matrix(0.35277776,0,0,-0.35277776,63.245813,91.004916)"
         clip-path="none">
        <path
           d="m 0,0 0.629,-0.576 c 0.774,-0.708 1.595,-1.475 2.662,-2.487 0.401,-0.381 0.838,-0.76 1.26,-1.126 0.754,-0.655 1.534,-1.332 2.194,-2.084 1.602,-1.828 0.067,-3.696 -0.851,-4.812 -0.994,-1.21 -1.982,-2.465 -2.83,-3.545 -0.44,-0.562 -0.885,-1.119 -1.333,-1.674 l -0.529,-0.654 -0.07,0.838 c -0.235,2.813 -0.42,5.676 -0.598,8.445 -0.144,2.238 -0.294,4.551 -0.469,6.824 z m -21.892,-49.121 c 1.208,0.027 2.198,1.516 2.68,2.4 1.178,2.163 2.026,4.715 2.708,6.764 0.612,1.839 1.037,3.807 1.449,5.71 0.616,2.847 1.252,5.79 2.529,8.439 0.446,0.927 1.09,1.992 2.11,1.992 0.525,0 1.056,-0.279 1.621,-0.851 0.976,-0.988 1.423,-2.417 1.817,-3.678 l 0.023,-0.073 c 0.814,-2.601 1.76,-5.235 2.594,-7.559 l 0.074,-0.208 c 0.958,-2.669 1.948,-5.428 2.976,-8.12 0.094,-0.247 0.187,-0.513 0.285,-0.791 0.496,-1.416 1.114,-3.179 2.443,-3.75 0.267,-0.115 0.545,-0.174 0.828,-0.174 0.962,0 1.941,0.692 2.436,1.721 0.779,1.616 0.528,3.822 0.306,5.769 -0.053,0.473 -0.106,0.93 -0.141,1.36 -0.423,5.147 -1.262,10.577 -2.565,16.6 l -0.076,0.354 0.358,0.051 c 1.864,0.267 3.462,1.611 4.474,2.691 2.094,2.235 3.987,4.448 5.629,6.58 3.336,4.334 3.438,9.002 0.272,12.488 C 9.664,2.199 5.557,5.874 0.012,10.159 l -0.398,0.308 0.436,0.251 c 4.252,2.45 6.929,7.038 6.82,11.688 -0.123,5.279 -3.111,10.465 -7.265,12.611 -1.738,0.898 -4.252,1.393 -7.076,1.393 -0.306,0 -0.606,-0.006 -0.899,-0.017 -2.542,-0.094 -4.911,-0.746 -7.245,-1.992 -4.505,-2.404 -7.178,-6.168 -7.335,-10.324 -0.098,-2.615 0.241,-4.736 1.007,-6.305 1.11,-2.27 2.887,-4.349 5.141,-6.011 l 0.519,-0.383 -0.611,-0.208 c -2.585,-0.878 -5.127,-2.044 -7.584,-3.171 L -24.905,7.803 C -25.546,7.509 -26.187,7.212 -26.826,6.915 -27.56,6.575 -28.293,6.234 -29.028,5.898 L -29.302,5.773 C -29.697,5.591 -30.106,5.404 -30.518,5.233 -30.545,5.222 -30.583,5.202 -30.626,5.181 -30.844,5.073 -31.024,4.99 -31.192,4.986 -31.315,4.983 -31.365,4.981 -31.385,4.98 l -0.159,0.068 c -0.444,0.262 -0.68,1.047 -0.921,1.97 -0.047,0.177 -0.086,0.331 -0.122,0.438 -0.262,0.798 -0.516,1.661 -0.775,2.637 -0.382,1.44 -0.875,2.868 -1.351,4.249 -0.338,0.976 -0.686,1.985 -0.995,2.995 l -0.046,0.152 c -0.731,2.397 -1.732,5.681 -4.319,5.681 -0.383,0 -0.8,-0.071 -1.237,-0.212 -1.093,-0.352 -1.862,-1.212 -2.057,-2.304 -0.359,-2.01 0.134,-4.595 0.493,-6.483 0.478,-2.507 1.357,-4.997 2.207,-7.404 0.502,-1.423 1.021,-2.895 1.453,-4.354 0.835,-2.827 1.965,-5.882 4.825,-6.367 0.325,-0.054 0.663,-0.082 1.006,-0.082 2.17,0 4.371,1.098 6.313,2.067 l 0.347,0.174 c 0.675,0.335 1.461,0.722 2.255,1.078 0.145,0.065 0.312,0.15 0.491,0.241 0.636,0.323 1.427,0.724 2.112,0.724 0.453,0 1.046,-0.177 1.298,-1.02 0.152,-0.512 0.03,-1.12 -0.078,-1.656 -0.035,-0.171 -0.068,-0.337 -0.09,-0.489 -0.246,-1.737 -0.481,-3.477 -0.715,-5.216 -1.116,-8.311 -1.957,-15.169 -2.646,-21.582 -0.415,-3.875 -0.845,-7.883 -1.096,-11.867 -0.122,-1.946 -0.117,-3.973 0.745,-5.602 0.51,-0.962 1.54,-1.938 2.522,-1.938 z"
           style="fill:#f27900;fill-opacity:1;fill-rule:nonzero;stroke:none"
           id="path16213" />
      </g>
      <g
         id="g16215"
         transform="matrix(0.35277776,0,0,-0.35277776,64.233167,96.092642)"
         clip-path="none">
        <path
           d="M 0,0 C 0.935,1.192 1.873,2.38 2.835,3.551 3.884,4.828 5.051,6.375 3.693,7.926 2.679,9.083 1.377,10.053 0.259,11.114 -0.62,11.948 -1.503,12.779 -2.397,13.597 -2.006,8.51 -1.754,3.414 -1.331,-1.67 -0.883,-1.117 -0.439,-0.561 0,0 m 11.616,9.357 c -0.729,2.482 -2.985,4.233 -4.794,5.943 -3.405,3.218 -6.855,6.336 -10.576,9.188 -0.275,0.211 -0.376,0.684 0,0.874 6.049,3.044 8.428,9.846 6.206,16.113 -1.027,2.895 -2.857,5.531 -5.549,7.139 -2.61,1.557 -6.428,1.769 -9.388,1.42 -5.424,-0.641 -11.36,-4.399 -12.453,-10.095 -1.08,-5.629 1.901,-10.72 6.51,-13.756 0.365,-0.24 0.307,-0.793 -0.12,-0.925 -3.417,-1.056 -6.678,-2.624 -9.917,-4.122 -1.344,-0.62 -2.68,-1.258 -4.034,-1.854 -0.452,-0.198 -1.248,-0.711 -1.78,-0.635 -0.9,0.128 -1.23,1.556 -1.482,2.25 -0.715,1.962 -1.125,4.01 -1.768,5.993 -0.385,1.186 -0.841,2.348 -1.245,3.527 -0.426,1.247 -0.653,2.575 -1.134,3.794 -0.522,1.32 -1.441,2.623 -2.992,2.672 -1.706,0.053 -2.581,-1.184 -2.641,-2.756 -0.153,-4.045 1.101,-7.933 2.455,-11.676 0.684,-1.89 1.216,-3.811 1.812,-5.728 0.474,-1.522 1.086,-3.473 2.237,-4.646 2.419,-2.468 6.718,-0.09 9.155,1.121 1.398,0.695 6.111,3.804 7.063,1.375 0.436,-1.113 0.035,-2.528 -0.128,-3.688 -0.268,-1.895 -0.523,-3.791 -0.776,-5.688 -0.907,-6.808 -1.761,-13.625 -2.495,-20.454 -0.383,-3.574 -0.714,-7.151 -1.007,-10.733 -0.186,-2.278 -0.592,-5.488 1.186,-7.262 2.471,-2.464 4.194,2.886 4.804,4.406 1.779,4.43 2.633,9.004 3.866,13.588 0.493,1.835 1.561,6.919 4.238,6.783 1.436,-0.072 2.565,-1.849 3.13,-2.975 0.754,-1.507 1.098,-3.179 1.633,-4.767 1.526,-4.537 3.211,-9.046 4.919,-13.518 0.408,-1.068 0.74,-2.264 1.4,-3.205 0.807,-1.154 2.331,-1.178 3.132,0.007 0.463,0.685 0.528,1.524 0.561,2.319 0.09,2.229 -0.221,4.545 -0.442,6.76 -0.495,4.961 -1.354,9.869 -2.414,14.738 -0.116,0.008 -0.231,0.016 -0.348,0.033 -1.64,0.229 -2.381,1.782 -2.288,3.346 0.061,1.032 0.602,1.74 1.24,2.508 0.131,0.157 0.258,0.316 0.388,0.474 -0.024,0.052 -0.042,0.111 -0.048,0.177 -0.508,5.796 -0.762,11.61 -1.237,17.409 -0.038,0.468 0.565,0.622 0.864,0.357 C -0.323,13.141 2.073,11.034 4.231,8.82 5.623,7.392 5.636,6.039 4.687,4.367 3.687,2.604 2.123,1.08 0.872,-0.517 c -1.143,-1.458 -5.106,-4.945 -3.364,-6.9 1.366,-1.534 3.857,-0.291 5.126,0.754 0.788,0.65 1.464,1.439 2.122,2.215 1.687,1.991 3.566,3.91 5.064,6.046 1.57,2.238 2.599,5.026 1.796,7.759 M 10.134,0.322 C 8.392,-1.941 6.438,-4.197 4.484,-6.283 3.253,-7.597 1.629,-8.816 -0.188,-9.077 1,-14.57 1.922,-20.117 2.384,-25.721 c 0.183,-2.227 0.818,-5.195 -0.197,-7.302 -0.656,-1.361 -2.205,-2.355 -3.702,-1.711 -1.732,0.745 -2.308,3.152 -2.91,4.73 -1.055,2.765 -2.054,5.55 -3.053,8.335 -0.903,2.517 -1.799,5.021 -2.597,7.572 -0.387,1.237 -0.822,2.666 -1.758,3.615 -1.615,1.633 -2.545,0.283 -3.188,-1.051 -2.113,-4.382 -2.433,-9.513 -3.961,-14.108 -0.76,-2.282 -1.578,-4.7 -2.733,-6.819 -0.573,-1.051 -1.617,-2.546 -2.968,-2.577 -1.192,-0.026 -2.34,1.133 -2.861,2.118 -0.916,1.73 -0.903,3.886 -0.784,5.78 0.25,3.967 0.674,7.931 1.098,11.882 0.774,7.209 1.682,14.404 2.647,21.591 0.234,1.74 0.469,3.48 0.715,5.219 0.087,0.608 0.352,1.418 0.179,2 -0.482,1.616 -2.448,0.289 -3.44,-0.156 -0.756,-0.339 -1.5,-0.704 -2.243,-1.073 -2.375,-1.18 -5.136,-2.652 -7.872,-2.188 -3.132,0.53 -4.293,3.898 -5.092,6.603 -1.159,3.92 -2.902,7.769 -3.668,11.79 -0.385,2.019 -0.857,4.572 -0.494,6.607 0.222,1.24 1.089,2.18 2.287,2.565 3.936,1.266 5.166,-3.022 6.027,-5.843 0.745,-2.439 1.695,-4.788 2.35,-7.256 0.233,-0.879 0.485,-1.755 0.769,-2.619 0.164,-0.499 0.428,-1.948 0.893,-2.222 0.025,-0.014 -0.014,-0.02 -0.036,-0.023 0.021,0.002 0.076,0.005 0.21,0.008 0.146,0.003 0.431,0.17 0.552,0.221 0.499,0.206 0.988,0.436 1.479,0.66 1.377,0.629 2.746,1.274 4.122,1.905 2.635,1.207 5.293,2.445 8.044,3.38 -2.185,1.61 -4.045,3.681 -5.243,6.134 -0.94,1.923 -1.121,4.356 -1.041,6.466 0.179,4.756 3.484,8.459 7.512,10.609 2.323,1.24 4.749,1.933 7.392,2.031 2.607,0.097 5.795,-0.201 8.142,-1.414 4.588,-2.37 7.33,-7.883 7.447,-12.902 C 4.522,31.943 1.606,27.261 -2.58,24.848 1.967,21.333 6.534,17.487 10.389,13.242 13.995,9.272 13.246,4.364 10.134,0.322"
           style="fill:#f27900;fill-opacity:1;fill-rule:nonzero;stroke:none"
           id="path16217" />
      </g>
      <g
         id="g16219"
         transform="matrix(0.35277776,0,0,-0.35277776,58.280396,81.092849)"
         clip-path="none">
        <path
           d="m 0,0 c -0.161,-1.292 -0.237,-2.587 -0.226,-3.89 0.005,-0.651 1.018,-0.652 1.012,0 C 0.775,-2.587 0.851,-1.292 1.012,0 1.093,0.645 0.08,0.639 0,0"
           style="fill:#ffffff;fill-opacity:1;fill-rule:nonzero;stroke:none"
           id="path16221" />
      </g>
      <g
         id="g16223"
         transform="matrix(0.35277776,0,0,-0.35277776,61.65849,81.281832)"
         clip-path="none">
        <path
           d="m 0,0 c -0.172,-1.206 -0.284,-2.403 -0.282,-3.622 10e-4,-0.651 1.013,-0.652 1.012,0 -0.002,1.127 0.086,2.238 0.246,3.353 C 1.067,0.368 0.092,0.643 0,0"
           style="fill:#ffffff;fill-opacity:1;fill-rule:nonzero;stroke:none"
           id="path16225" />
      </g>
      <g
         id="g16227"
         transform="matrix(0.35277776,0,0,-0.35277776,20.185901,91.004916)"
         clip-path="none">
        <path
           d="m 0,0 -0.629,-0.576 c -0.774,-0.708 -1.595,-1.475 -2.662,-2.487 -0.401,-0.381 -0.838,-0.76 -1.26,-1.126 -0.754,-0.655 -1.534,-1.332 -2.194,-2.084 -1.602,-1.828 -0.067,-3.696 0.851,-4.812 0.994,-1.21 1.982,-2.465 2.83,-3.545 0.44,-0.562 0.885,-1.119 1.333,-1.674 l 0.529,-0.654 0.07,0.838 c 0.235,2.813 0.42,5.676 0.598,8.445 0.144,2.238 0.294,4.551 0.469,6.824 z m 21.892,-49.121 c -1.208,0.027 -2.198,1.516 -2.68,2.4 -1.178,2.163 -2.026,4.715 -2.708,6.764 -0.612,1.839 -1.037,3.807 -1.449,5.71 -0.616,2.847 -1.252,5.79 -2.529,8.439 -0.446,0.927 -1.09,1.992 -2.11,1.992 -0.525,0 -1.056,-0.279 -1.621,-0.851 -0.976,-0.988 -1.423,-2.417 -1.817,-3.678 l -0.023,-0.073 c -0.814,-2.601 -1.76,-5.235 -2.594,-7.559 l -0.074,-0.208 c -0.958,-2.669 -1.948,-5.428 -2.976,-8.12 -0.094,-0.247 -0.187,-0.513 -0.285,-0.791 -0.496,-1.416 -1.114,-3.179 -2.443,-3.75 -0.267,-0.115 -0.546,-0.174 -0.828,-0.174 -0.962,0 -1.941,0.692 -2.436,1.721 -0.779,1.616 -0.528,3.822 -0.306,5.769 0.053,0.473 0.105,0.93 0.141,1.36 0.423,5.147 1.262,10.577 2.565,16.6 l 0.076,0.354 -0.358,0.051 c -1.864,0.267 -3.462,1.611 -4.474,2.691 -2.094,2.235 -3.987,4.448 -5.629,6.58 -3.336,4.334 -3.438,9.002 -0.272,12.488 3.274,3.605 7.381,7.28 12.926,11.565 l 0.398,0.308 -0.436,0.251 c -4.252,2.45 -6.929,7.038 -6.82,11.688 0.123,5.279 3.111,10.465 7.265,12.611 1.738,0.898 4.252,1.393 7.076,1.393 0.306,0 0.606,-0.006 0.899,-0.017 2.542,-0.094 4.911,-0.746 7.245,-1.992 4.505,-2.404 7.177,-6.168 7.335,-10.324 0.098,-2.615 -0.241,-4.736 -1.007,-6.305 -1.11,-2.27 -2.887,-4.349 -5.141,-6.011 l -0.519,-0.383 0.611,-0.208 c 2.585,-0.878 5.127,-2.044 7.584,-3.171 L 24.905,7.803 C 25.546,7.509 26.187,7.212 26.826,6.915 27.56,6.575 28.293,6.234 29.028,5.898 L 29.302,5.773 C 29.697,5.591 30.106,5.404 30.518,5.233 30.545,5.222 30.583,5.202 30.626,5.181 30.844,5.073 31.024,4.99 31.192,4.986 31.315,4.983 31.365,4.981 31.385,4.98 l 0.159,0.068 c 0.444,0.262 0.68,1.047 0.921,1.97 0.047,0.177 0.086,0.331 0.122,0.438 0.262,0.798 0.516,1.661 0.775,2.637 0.382,1.44 0.875,2.868 1.351,4.249 0.338,0.976 0.686,1.985 0.995,2.995 l 0.046,0.152 c 0.731,2.397 1.732,5.681 4.319,5.681 0.383,0 0.8,-0.071 1.237,-0.212 1.093,-0.352 1.862,-1.212 2.057,-2.304 0.359,-2.01 -0.134,-4.595 -0.493,-6.483 C 42.396,11.664 41.517,9.174 40.667,6.767 40.165,5.344 39.646,3.872 39.214,2.413 c -0.835,-2.827 -1.965,-5.882 -4.825,-6.367 -0.325,-0.054 -0.663,-0.082 -1.006,-0.082 -2.17,0 -4.371,1.098 -6.313,2.067 l -0.347,0.174 c -0.675,0.335 -1.461,0.722 -2.255,1.078 -0.145,0.065 -0.312,0.15 -0.491,0.241 -0.636,0.323 -1.427,0.724 -2.112,0.724 -0.453,0 -1.046,-0.177 -1.298,-1.02 -0.152,-0.512 -0.03,-1.12 0.078,-1.656 0.035,-0.171 0.068,-0.337 0.09,-0.489 0.246,-1.737 0.481,-3.477 0.715,-5.216 1.116,-8.311 1.957,-15.169 2.646,-21.582 0.415,-3.875 0.845,-7.883 1.096,-11.867 0.122,-1.946 0.117,-3.973 -0.745,-5.602 -0.51,-0.962 -1.54,-1.938 -2.522,-1.938 z"
           style="fill:#05b0a1;fill-opacity:1;fill-rule:nonzero;stroke:none"
           id="path16229" />
      </g>
      <g
         id="g16231"
         transform="matrix(0.35277776,0,0,-0.35277776,19.198546,96.092642)"
         clip-path="none">
        <path
           d="m 0,0 c -0.935,1.192 -1.873,2.38 -2.835,3.551 -1.049,1.277 -2.216,2.824 -0.858,4.375 1.014,1.157 2.316,2.127 3.434,3.188 0.879,0.834 1.762,1.665 2.656,2.483 C 2.006,8.51 1.754,3.414 1.331,-1.67 0.883,-1.117 0.439,-0.561 0,0 m -11.616,9.357 c 0.729,2.482 2.985,4.233 4.794,5.943 3.405,3.218 6.855,6.336 10.576,9.188 0.275,0.211 0.376,0.684 0,0.874 -6.049,3.044 -8.428,9.846 -6.206,16.113 1.027,2.895 2.857,5.531 5.549,7.139 2.61,1.557 6.428,1.769 9.388,1.42 5.424,-0.641 11.36,-4.399 12.453,-10.095 1.08,-5.629 -1.901,-10.72 -6.51,-13.756 -0.365,-0.24 -0.307,-0.793 0.12,-0.925 3.417,-1.056 6.678,-2.624 9.917,-4.122 1.344,-0.62 2.68,-1.258 4.034,-1.854 0.452,-0.198 1.248,-0.711 1.78,-0.635 0.9,0.128 1.23,1.556 1.482,2.25 0.715,1.962 1.125,4.01 1.768,5.993 0.385,1.186 0.841,2.348 1.245,3.527 0.426,1.247 0.653,2.575 1.134,3.794 0.522,1.32 1.441,2.623 2.992,2.672 1.706,0.053 2.581,-1.184 2.641,-2.756 C 45.694,30.082 44.44,26.194 43.086,22.451 42.402,20.561 41.87,18.64 41.274,16.723 40.8,15.201 40.188,13.25 39.037,12.077 c -2.42,-2.468 -6.718,-0.09 -9.155,1.121 -1.398,0.695 -6.111,3.804 -7.063,1.375 -0.436,-1.113 -0.035,-2.528 0.128,-3.688 0.268,-1.895 0.523,-3.791 0.776,-5.688 0.907,-6.808 1.761,-13.625 2.495,-20.454 0.383,-3.574 0.714,-7.151 1.007,-10.733 0.186,-2.278 0.592,-5.488 -1.186,-7.262 -2.471,-2.464 -4.194,2.886 -4.804,4.406 -1.779,4.43 -2.633,9.004 -3.866,13.588 -0.493,1.835 -1.561,6.919 -4.238,6.783 -1.436,-0.072 -2.565,-1.849 -3.13,-2.975 -0.754,-1.507 -1.098,-3.179 -1.633,-4.767 -1.526,-4.537 -3.211,-9.046 -4.919,-13.518 -0.408,-1.068 -0.74,-2.264 -1.4,-3.205 -0.807,-1.154 -2.331,-1.178 -3.132,0.007 -0.463,0.685 -0.528,1.524 -0.561,2.319 -0.09,2.229 0.221,4.545 0.442,6.76 0.495,4.961 1.354,9.869 2.414,14.738 0.116,0.008 0.231,0.016 0.348,0.033 1.64,0.229 2.381,1.782 2.288,3.346 -0.061,1.032 -0.602,1.74 -1.24,2.508 -0.131,0.157 -0.258,0.316 -0.388,0.474 0.024,0.052 0.042,0.111 0.048,0.177 C 2.776,3.218 3.03,9.032 3.505,14.831 3.543,15.299 2.94,15.453 2.641,15.188 0.323,13.141 -2.073,11.034 -4.231,8.82 -5.623,7.392 -5.636,6.039 -4.687,4.367 c 1,-1.763 2.564,-3.287 3.815,-4.884 1.143,-1.458 5.106,-4.945 3.364,-6.9 -1.366,-1.534 -3.857,-0.291 -5.126,0.754 -0.788,0.65 -1.464,1.439 -2.122,2.215 -1.687,1.991 -3.566,3.91 -5.064,6.046 -1.57,2.238 -2.599,5.026 -1.796,7.759 m 1.482,-9.035 c 1.742,-2.263 3.696,-4.519 5.65,-6.605 1.231,-1.314 2.855,-2.533 4.672,-2.794 -1.188,-5.493 -2.11,-11.04 -2.572,-16.644 -0.183,-2.227 -0.818,-5.195 0.197,-7.302 0.656,-1.361 2.205,-2.355 3.702,-1.711 1.732,0.745 2.308,3.152 2.91,4.73 1.055,2.765 2.054,5.55 3.053,8.335 0.903,2.517 1.799,5.021 2.597,7.572 0.387,1.237 0.822,2.666 1.758,3.615 1.615,1.633 2.545,0.283 3.188,-1.051 2.113,-4.382 2.433,-9.513 3.961,-14.108 0.76,-2.282 1.578,-4.7 2.733,-6.819 0.573,-1.051 1.617,-2.546 2.968,-2.577 1.192,-0.026 2.34,1.133 2.861,2.118 0.916,1.73 0.903,3.886 0.784,5.78 -0.25,3.967 -0.674,7.931 -1.098,11.882 -0.774,7.209 -1.682,14.404 -2.647,21.591 -0.234,1.74 -0.469,3.48 -0.715,5.219 -0.087,0.608 -0.352,1.418 -0.179,2 0.482,1.616 2.448,0.289 3.44,-0.156 0.756,-0.339 1.5,-0.704 2.242,-1.073 2.376,-1.18 5.137,-2.652 7.873,-2.188 3.132,0.53 4.293,3.898 5.092,6.603 1.159,3.92 2.902,7.769 3.668,11.79 0.385,2.019 0.857,4.572 0.494,6.607 -0.222,1.24 -1.089,2.18 -2.287,2.565 -3.936,1.266 -5.166,-3.022 -6.027,-5.843 -0.745,-2.439 -1.695,-4.788 -2.35,-7.256 -0.233,-0.879 -0.485,-1.755 -0.769,-2.619 -0.164,-0.499 -0.428,-1.948 -0.893,-2.222 -0.025,-0.014 0.014,-0.02 0.035,-0.023 -0.02,0.002 -0.075,0.005 -0.209,0.008 -0.146,0.003 -0.431,0.17 -0.552,0.221 -0.499,0.206 -0.988,0.436 -1.479,0.66 -1.377,0.629 -2.746,1.274 -4.122,1.905 -2.635,1.207 -5.293,2.445 -8.044,3.38 2.185,1.61 4.045,3.681 5.243,6.134 0.94,1.923 1.121,4.356 1.041,6.466 -0.179,4.756 -3.484,8.459 -7.512,10.609 -2.323,1.24 -4.749,1.933 -7.392,2.031 -2.607,0.097 -5.795,-0.201 -8.142,-1.414 -4.588,-2.37 -7.33,-7.883 -7.447,-12.902 -0.114,-4.893 2.802,-9.575 6.988,-11.988 -4.547,-3.515 -9.114,-7.361 -12.969,-11.606 -3.606,-3.97 -2.857,-8.878 0.255,-12.92"
           style="fill:#05b0a1;fill-opacity:1;fill-rule:nonzero;stroke:none"
           id="path16233" />
      </g>
      <g
         id="g16235"
         transform="matrix(0.35277776,0,0,-0.35277776,25.151318,81.092849)"
         clip-path="none">
        <path
           d="m 0,0 c 0.161,-1.292 0.237,-2.587 0.226,-3.89 -0.005,-0.651 -1.018,-0.652 -1.012,0 C -0.775,-2.587 -0.851,-1.292 -1.012,0 -1.093,0.645 -0.08,0.639 0,0"
           style="fill:#ffffff;fill-opacity:1;fill-rule:nonzero;stroke:none"
           id="path16237" />
      </g>
      <g
         id="g16239"
         transform="matrix(0.35277776,0,0,-0.35277776,21.773224,81.281832)"
         clip-path="none">
        <path
           d="m 0,0 c 0.172,-1.206 0.284,-2.403 0.282,-3.622 -10e-4,-0.651 -1.013,-0.652 -1.012,0 0.002,1.127 -0.086,2.238 -0.246,3.353 C -1.067,0.368 -0.092,0.643 0,0"
           style="fill:#ffffff;fill-opacity:1;fill-rule:nonzero;stroke:none"
           id="path16241" />
      </g>
      <path
         d="M 45.362979,108.19923 H 35.268949 V 94.83954 h 10.09403 z"
         style="fill:#6d6d27;fill-opacity:1;fill-rule:nonzero;stroke:none;stroke-width:0.352778"
         id="path16243"
         clip-path="none" />
      <path
         d="m 38.979818,102.9693 h -3.505552 v 2.38584 h 3.505552 z"
         style="fill:#a0a537;fill-opacity:1;fill-rule:nonzero;stroke:none;stroke-width:0.352778"
         id="path16245"
         clip-path="none" />
      <path
         d="m 45.15731,102.9693 h -1.096081 v 2.38584 h 1.096081 z"
         style="fill:#a0a537;fill-opacity:1;fill-rule:nonzero;stroke:none;stroke-width:0.352778"
         id="path16247"
         clip-path="none" />
      <path
         d="m 40.224418,105.61337 h -4.750152 v 2.38584 h 4.750152 z"
         style="fill:#cddc47;fill-opacity:1;fill-rule:nonzero;stroke:none;stroke-width:0.352778"
         id="path16249"
         clip-path="none" />
      <path
         d="m 45.15731,105.61337 h -4.750153 v 2.38584 h 4.750153 z"
         style="fill:#a0a537;fill-opacity:1;fill-rule:nonzero;stroke:none;stroke-width:0.352778"
         id="path16251"
         clip-path="none" />
      <path
         d="m 40.224418,95.036743 h -4.750152 v 2.385836 h 4.750152 z"
         style="fill:#cddc47;fill-opacity:1;fill-rule:nonzero;stroke:none;stroke-width:0.352778"
         id="path16253"
         clip-path="none" />
      <path
         d="m 45.15731,95.036743 h -4.750153 v 2.385836 h 4.750153 z"
         style="fill:#a0a537;fill-opacity:1;fill-rule:nonzero;stroke:none;stroke-width:0.352778"
         id="path16255"
         clip-path="none" />
      <path
         d="m 40.224418,100.32523 h -4.750152 v 2.38584 h 4.750152 z"
         style="fill:#cddc47;fill-opacity:1;fill-rule:nonzero;stroke:none;stroke-width:0.352778"
         id="path16257"
         clip-path="none" />
      <path
         d="m 45.15731,100.32523 h -4.750153 v 2.38584 h 4.750153 z"
         style="fill:#a0a537;fill-opacity:1;fill-rule:nonzero;stroke:none;stroke-width:0.352778"
         id="path16259"
         clip-path="none" />
      <path
         d="m 43.908829,102.9693 h -4.750152 v 2.38584 h 4.750152 z"
         style="fill:#cddc47;fill-opacity:1;fill-rule:nonzero;stroke:none;stroke-width:0.352778"
         id="path16261"
         clip-path="none" />
      <path
         d="m 41.651757,97.680812 h 3.505906 V 100.067 h -3.505906 z"
         style="fill:#a0a537;fill-opacity:1;fill-rule:nonzero;stroke:none;stroke-width:0.352778"
         id="path16263"
         clip-path="none" />
      <path
         d="m 35.474266,97.680812 h 1.09608 V 100.067 h -1.09608 z"
         style="fill:#a0a537;fill-opacity:1;fill-rule:nonzero;stroke:none;stroke-width:0.352778"
         id="path16265"
         clip-path="none" />
      <path
         d="m 36.723099,97.680812 h 4.750153 V 100.067 h -4.750153 z"
         style="fill:#cddc47;fill-opacity:1;fill-rule:nonzero;stroke:none;stroke-width:0.352778"
         id="path16267"
         clip-path="none" />
    </g>
  </g>
</svg>
