<?xml version="1.0" encoding="UTF-8" standalone="no"?>
<!-- Created with Inkscape (http://www.inkscape.org/) -->

<svg
   version="1.1"
   id="svg1328"
   width="400"
   height="400"
   viewBox="0 0 400 400"
   sodipodi:docname="1131_pic.pdf"
   xmlns:inkscape="http://www.inkscape.org/namespaces/inkscape"
   xmlns:sodipodi="http://sodipodi.sourceforge.net/DTD/sodipodi-0.dtd"
   xmlns="http://www.w3.org/2000/svg"
   xmlns:svg="http://www.w3.org/2000/svg">
  <defs
     id="defs1332">
    <clipPath
       clipPathUnits="userSpaceOnUse"
       id="clipPath1348">
      <path
         d="M 0,0 H 210.40808 V -210.40941 H 0 Z"
         clip-rule="evenodd"
         id="path1346" />
    </clipPath>
    <clipPath
       clipPathUnits="userSpaceOnUse"
       id="clipPath1358">
      <path
         d="M 0,-210.40941 H 300 V 210.40941 H 0 Z"
         id="path1356" />
    </clipPath>
    <clipPath
       clipPathUnits="userSpaceOnUse"
       id="clipPath1362">
      <path
         d="M 0,0 H 208.40941 V -208.40808 H 0 Z"
         clip-rule="evenodd"
         id="path1360" />
    </clipPath>
    <clipPath
       clipPathUnits="userSpaceOnUse"
       id="clipPath1366">
      <path
         d="M 0,-208.40808 H 300 V 208.40808 H 0 Z"
         id="path1364" />
    </clipPath>
  </defs>
  <sodipodi:namedview
     id="namedview1330"
     pagecolor="#ffffff"
     bordercolor="#000000"
     borderopacity="0.25"
     inkscape:showpageshadow="2"
     inkscape:pageopacity="0.0"
     inkscape:pagecheckerboard="0"
     inkscape:deskcolor="#d1d1d1" />
  <g
     id="g1334"
     inkscape:groupmode="layer"
     inkscape:label="1131_pic2"
     transform="matrix(1.3333333,0,0,-1.3333333,0,400)">
    <g
       id="g1336">
      <g
         id="g1338">
        <g
           id="g1340"
           transform="translate(44.79596,255.20471)">
          <g
             id="g1342">
            <g
               id="g1344"
               clip-path="url(#clipPath1348)">
              <g
                 id="g1350"
                 transform="translate(0,-210.40941)">
                <g
                   id="g1352">
                  <g
                     id="g1354" />
                  <g
                     id="g1532">
                    <g
                       clip-path="url(#clipPath1358)"
                       id="g1530">
                      <g
                         transform="translate(0.99893,209.40941)"
                         id="g1488">
                        <g
                           id="g1486">
                          <g
                             id="g1484">
                            <g
                               clip-path="url(#clipPath1362)"
                               id="g1482">
                              <g
                                 transform="matrix(1.3333,0,0,1.3333,0,-277.87007)"
                                 id="g1480">
                                <g
                                   id="g1478">
                                <g
                                   id="g1368" />
                                <g
                                   id="g1476">
                                <g
                                   clip-path="url(#clipPath1366)"
                                   id="g1474">
                                <g
                                   transform="translate(0,208.40808)"
                                   id="g1376">
                                <g
                                   id="g1374">
                                <g
                                   id="g1372">
                                <path
                                   d="m 0,-78.157 c 0,-43.163 34.9929,-78.153 78.1569,-78.153 43.1631,0 78.1541,34.99 78.1541,78.153 C 156.311,-34.992 121.32,0 78.1569,0 34.9929,0 0,-34.992 0,-78.157 Z"
                                   style="fill:#088475;fill-opacity:1;fill-rule:nonzero;stroke:none"
                                   id="path1370" />
                                </g>
                                </g>
                                </g>
                                <g
                                   transform="translate(0.08601,205.26227)"
                                   id="g1384">
                                <g
                                   id="g1382">
                                <g
                                   id="g1380">
                                <path
                                   d="m 145.395,-35.2988 -0.829,1.3761 -1.027,1.6145 -1.066,1.5874 -1.102,1.5596 -1.14,1.5312 -1.176,1.5021 -1.211,1.4723 -1.246,1.442 -1.281,1.4109 -1.314,1.3793 -1.347,1.347 -1.379,1.314 -1.411,1.2805 -1.442,1.2462 -1.472,1.2113 -1.502,1.1758 -1.531,1.1397 -1.56,1.1028 -1.587,1.06538 -1.614,1.02728 -1.641,0.98855 -1.667,0.94915 -0.572,0.30742 -0.163,-0.96645 -0.189,-1.13709 -0.175,-1.06498 -0.159,-0.98926 -0.142,-0.91 -0.126,-0.8271 -0.109,-0.7407 -0.09,-0.6506 -0.071,-0.557 -0.051,-0.4597 -0.032,-0.3589 -0.01,-0.2546 0.012,-0.1465 0.302,-0.5473 0.679,-0.8802 1.007,-1.1626 1.282,-1.3943 1.508,-1.5755 1.683,-1.7061 1.269,-1.2571 1.313,-1.2782 1.338,-1.2811 1.346,-1.2655 1.335,-1.2318 1.306,-1.1797 1.258,-1.1095 1.193,-1.0208 1.108,-0.9139 1.006,-0.7887 0.886,-0.6453 0.747,-0.4836 0.59,-0.3035 0.414,-0.1053 0.31,10e-5 0.447,8e-4 0.574,0.002 0.69,0.004 0.798,0.0066 0.894,0.0098 0.981,0.0136 1.058,0.0182 1.125,0.0234 1.181,0.0292 1.229,0.0356 z M 56.0595,0 l -1.579,-0.47751 -1.8507,-0.61092 -1.83,-0.65545 -1.8087,-0.69934 -1.7866,-0.74259 -1.764,-0.78519 -1.7407,-0.82714 -1.7167,-0.86847 -1.6922,-0.90913 -1.6669,-0.94915 -1.6411,-0.98855 -1.6145,-1.02728 -1.5874,-1.06538 -1.5597,-1.1028 -1.5311,-1.1397 -1.5021,-1.1758 -1.4723,-1.2113 -1.442,-1.2462 -1.411,-1.2805 -1.3793,-1.314 -1.347,-1.347 -1.314,-1.3793 -1.2805,-1.4109 -1.2462,-1.442 -1.2113,-1.4723 -1.1759,-1.5021 -1.1396,-1.5312 -1.1029,-1.5596 -1.0654,-1.5874 -1.0272,-1.6145 -0.9886,-1.6411 -0.94918,-1.667 -0.90914,-1.6921 -0.86848,-1.7168 -0.82716,-1.7407 -0.7852,-1.764 L 5.50314,-45.931 4.80379,-47.7396 4.14832,-49.5697 3.53739,-51.4204 2.97163,-53.2912 2.45169,-55.1814 1.97822,-57.0905 1.55185,-59.0177 1.17324,-60.9624 0.84301,-62.9239 0.56183,-64.9017 0.33032,-66.895 0.14915,-68.9033 0.01894,-70.9258 0,-71.4164 l 1.3307,-0.0613 1.46318,-0.0679 1.46608,-0.0684 1.46632,-0.0684 1.4639,-0.0684 1.45883,-0.0679 1.45109,-0.0672 1.4407,-0.0662 1.4277,-0.0651 1.412,-0.0635 1.3936,-0.0617 1.3726,-0.0596 1.349,-0.0573 1.3226,-0.0546 1.2936,-0.0518 1.262,-0.0486 1.2277,-0.0451 1.1907,-0.0414 1.1511,-0.0374 1.1089,-0.0332 1.0639,-0.0286 1.0164,-0.0237 0.9661,-0.0186 0.9132,-0.0133 0.8577,-0.0076 0.7995,-0.0017 0.7386,0.0046 0.6751,0.011 0.6089,0.0178 0.5401,0.0249 0.4685,0.0321 0.3945,0.0398 0.3176,0.0476 0.2381,0.0557 0.1561,0.0642 0.3847,0.2881 0.5685,0.5077 0.7358,0.71 0.8866,0.8949 1.0211,1.0623 1.1389,1.2125 1.2405,1.3452 1.3255,1.4606 1.394,1.5585 1.4462,1.6392 0.9656,1.1045 0.9763,1.1254 0.9816,1.1415 0.9816,1.1527 0.9762,1.1591 0.9655,1.1608 1.0951,1.3279 1.0719,1.3175 1.0417,1.3001 1.0046,1.2753 0.9608,1.2433 0.91,1.2041 0.8522,1.1578 0.7878,1.104 0.7162,1.0432 0.638,0.975 0.5528,0.8998 0.4606,0.8171 0.3617,0.7274 0.2559,0.6304 0.1431,0.5261 0.0382,0.3186 0.0142,0.3986 -0.0089,0.4757 -0.0312,0.5497 -0.0526,0.6204 -0.0731,0.6882 -0.093,0.7529 -0.1118,0.8145 -0.1299,0.8729 -0.1472,0.9283 -0.1635,0.9806 -0.1791,1.0299 -0.1939,1.0759 -0.2077,1.119 -0.2207,1.1589 -0.233,1.1958 -0.2443,1.2295 -0.2549,1.2602 -0.2645,1.2878 -0.2734,1.3123 -0.2814,1.3336 -0.2886,1.352 -0.2949,1.3672 -0.3004,1.3793 -0.3051,1.3884 -0.3089,1.3943 -0.3118,1.3972 -0.314,1.3969 -0.3153,1.3936 -0.3158,1.3872 -0.3154,1.37769 -0.3142,1.3651 -0.3122,1.34941 -0.3092,1.33065 -0.3055,1.30877 z"
                                   style="fill:#e9e5d9;fill-opacity:1;fill-rule:evenodd;stroke:none"
                                   id="path1378" />
                                </g>
                                </g>
                                </g>
                                <g
                                   transform="translate(115.7031,182.66508)"
                                   id="g1392">
                                <g
                                   id="g1390">
                                <g
                                   id="g1388">
                                <path
                                   d="m 35.76,-25.2591 -0.0417,0.1166 -0.6994,1.8087 -0.7425,1.7866 -0.7852,1.764 -0.8271,1.7407 -0.8684,1.7168 -0.9091,1.6921 -0.9492,1.667 -0.159,0.264 -0.5657,-0.0191 -1.2286,-0.0356 -1.1816,-0.0292 -1.1249,-0.0234 -1.0579,-0.0182 -0.9811,-0.0136 -0.8942,-0.0098 -0.7974,-0.0066 -0.6906,-0.004 -0.5737,-0.002 -0.4469,-8e-4 -0.31,-10e-5 -0.4145,0.1052 -0.5899,0.3036 -0.7469,0.4836 -0.8857,0.6453 -1.0062,0.7887 -1.1085,0.91399 -1.1924,1.02086 -1.2582,1.10948 -1.3056,1.17982 -1.3347,1.23188 L 8.73751,-3.8169 7.39922,-2.53573 6.08656,-1.25734 4.8178,0 4.57629,-0.71635 4.27606,-1.61619 3.92802,-2.66954 3.5431,-3.84644 3.13223,-5.11692 2.70633,-6.45103 2.27634,-7.81879 1.85318,-9.19025 1.44777,-10.5354 1.07103,-11.8244 0.73391,-13.0271 0.44732,-14.1137 0.22218,-15.0541 0.06944,-15.8185 0,-16.3767 l 0.0248,-0.3223 0.39025,-0.7595 0.77875,-1.1765 0.53763,-0.6853 0.65133,-0.7474 0.77169,-0.7969 0.89871,-0.8336 1.03239,-0.8577 1.17273,-0.8692 1.31973,-0.868 1.47339,-0.8543 1.6337,-0.8278 1.8007,-0.7888 1.16,-0.4518 1.1753,-0.4283 1.1848,-0.4046 1.1886,-0.3809 1.1865,-0.3571 1.1787,-0.3333 1.1651,-0.3094 1.1457,-0.2854 1.1206,-0.2614 1.0895,-0.2372 1.0528,-0.213 1.0103,-0.1888 0.962,-0.1645 0.9079,-0.1401 0.848,-0.1156 0.7823,-0.0911 0.7109,-0.0665 1.7156,-0.0572 0.7954,0.1722 0.1607,0.2366 0.262,0.474 0.3517,0.6848 0.4295,0.8688 0.4957,1.0262 0.5501,1.1567 0.5927,1.2605 z"
                                   style="fill:#ddd7c5;fill-opacity:1;fill-rule:evenodd;stroke:none"
                                   id="path1386" />
                                </g>
                                </g>
                                </g>
                                <g
                                   transform="translate(89.90065,164.03108)"
                                   id="g1400">
                                <g
                                   id="g1398">
                                <g
                                   id="g1396">
                                <path
                                   d="m 30.4673,-55.331 -1.0137,-0.3994 -1.1056,-0.3488 -1.1716,-0.2606 -1.2115,-0.1343 -1.2254,0.0296 -1.2132,0.2315 -2.4266,0.9581 -1.6018,1.0838 -0.9297,0.9831 -0.4099,0.656 -1.3108,0.1454 -1.2592,0.2505 -1.2103,0.3562 -1.1639,0.4627 -1.1198,0.5695 -1.0783,0.6772 -1.03915,0.7854 -1.0026,0.8941 -1.08938,1.2167 -0.79729,1.237 -0.53546,1.2326 -0.30387,1.2037 -0.10254,1.1504 0.06854,1.0726 0.63737,2.1544 1.01163,1.2776 1.08525,0.1457 1.6747,-0.4137 1.1486,-0.3937 1.2333,-0.4436 1.2791,-0.4444 1.2857,-0.3963 1.2533,-0.2991 1.1819,-0.1531 1.0713,0.0421 0.9218,0.2861 0.8982,0.5698 0.776,0.7406 0.6566,0.8904 0.5402,1.019 0.4269,1.1265 0.3165,1.2127 0.209,1.2781 0.1044,1.322 0.0029,1.3451 -0.0956,1.3468 -0.3903,1.5681 -0.7555,1.3362 -1.0364,1.099 -1.233,0.8565 -1.3453,0.6084 -1.3735,0.3551 -1.3172,0.0964 -1.1769,-0.1677 -0.7214,-0.3719 -0.7547,-0.6926 -0.7813,-0.955 -0.8013,-1.159 -0.8145,-1.3046 -0.8213,-1.3917 -0.82126,-1.4205 -0.8147,-1.3909 -0.80149,-1.3028 -1.26212,-1.8001 -1.19088,-1.1529 -1.22745,-0.3319 -1.22941,0.4881 -1.1412,1.1525 -0.96277,1.6615 L 0.36525,-31.27 0.12084,-30.0635 0,-28.8211 l 0.01903,1.2497 0.17522,1.2284 0.22552,1.0168 0.25936,1.0673 0.29293,1.1085 0.32622,1.1402 0.35923,1.1627 0.39197,1.1758 0.42442,1.1797 0.4566,1.1741 0.4885,1.1593 0.52011,1.1351 0.55146,1.1016 0.58252,1.0588 0.61331,1.0066 0.64381,0.9451 0.67405,0.8743 0.70399,0.7941 0.67473,0.61798 0.83476,0.63308 0.97326,0.64294 1.0901,0.64756 1.1854,0.64692 1.2593,0.64105 1.3114,0.62993 1.3421,0.61357 1.3511,0.59197 1.3386,0.56513 1.3046,0.53303 1.249,0.4957 1.1717,0.45313 1.073,0.4053 0.9527,0.35224 0.8108,0.29394 0.6474,0.23038 0.4623,0.16159 L 26.9963,0 l 0.5378,-0.68561 0.6514,-0.74761 0.7717,-0.79697 0.8986,-0.83368 1.0322,-0.85775 1.1726,-0.86919 1.3196,-0.86797 1.4734,-0.85412 1.6337,-0.82762 1.801,-0.78848 1.1599,-0.45184 1.1753,-0.42828 1.1849,-0.40466 1.1886,-0.38097 1.1865,-0.35725 1.1787,-0.3333 1.1651,-0.3095 1.1457,-0.2855 1.1205,-0.2614 1.0896,-0.2373 1.0528,-0.2132 1.0103,-0.1888 0.9619,-0.1646 0.9079,-0.1401 0.848,-0.1157 0.7824,-0.0911 0.7109,-0.0665 0.0744,-0.3768 0.1019,-0.5234 0.127,-0.6576 0.1497,-0.7795 0.1697,-0.8893 0.1875,-0.9867 0.2028,-1.0719 0.2157,-1.1448 0.226,-1.2054 0.2339,-1.2539 0.2395,-1.2899 0.2425,-1.3138 0.2431,-1.3254 0.2413,-1.3247 0.237,-1.3117 0.2302,-1.2865 0.2212,-1.2491 0.2094,-1.1993 0.1955,-1.1373 0.1789,-1.063 0.16,-0.9765 0.1386,-0.8776 0.1147,-0.7666 0.0885,-0.6433 0.0404,-0.4983 0.0107,-0.6161 -0.0178,-0.7259 -0.0453,-0.8274 -0.0715,-0.9208 -0.0968,-1.006 -0.1208,-1.083 -0.1437,-1.152 -0.1654,-1.2126 -0.1862,-1.2651 -0.2056,-1.3095 -0.224,-1.3457 -0.2413,-1.3736 -0.2574,-1.3936 -0.2723,-1.4052 -0.2862,-1.4087 -0.299,-1.404 -0.3105,-1.3912 -0.321,-1.3702 -0.3303,-1.341 -0.3385,-1.3036 -0.3455,-1.2581 -0.3515,-1.2044 -0.3563,-1.1426 -0.3599,-1.0725 -0.3625,-0.9943 -0.3638,-0.908 -0.3642,-0.8134 -0.3632,-0.7106 -0.3613,-0.5998 -0.3581,-0.4807 -0.3538,-0.3535 -0.3485,-0.2181 -0.3419,-0.0745 -0.5674,0.155 -0.4944,0.4423 -0.4263,0.6959 -0.3631,0.9157 -0.3046,1.1016 -0.2511,1.2538 -0.2023,1.3721 -0.1584,1.4566 -0.1192,1.5074 -0.085,1.5242 -0.0556,1.5074 -0.0309,1.4566 -0.0111,1.3721 0.0038,1.2538 0.014,1.1016 0.0192,0.9157 0.0198,0.6959 0.0153,0.4423 0.0063,0.155 -0.1675,-0.2943 -0.5062,-0.7692 -0.8502,-1.0734 -1.1996,-1.2068 -1.5547,-1.1696 -1.915,-0.9616 -2.2808,-0.5831 -1.7324,-0.1153 -1.6303,0.1165 -1.5072,0.2945 -1.3627,0.4189 -1.1973,0.4898 -1.0107,0.5069 -0.8028,0.4705 -0.5739,0.3805 z"
                                   style="fill:#eed7ba;fill-opacity:1;fill-rule:evenodd;stroke:none"
                                   id="path1394" />
                                </g>
                                </g>
                                </g>
                                <g
                                   transform="translate(48.4144,141.54108)"
                                   id="g1408">
                                <g
                                   id="g1406">
                                <g
                                   id="g1404">
                                <path
                                   d="m 54.6215,-12.96 -0.6448,-1.0374 -1.8672,-1.6276 -1.6748,0.415 -1.0852,-0.146 -1.0116,-1.2776 -0.6374,-2.1544 -1.1724,-0.7815 -1.2252,-0.803 -1.2692,-0.8197 -1.3041,-0.8317 -1.3303,-0.839 -1.3475,-0.8414 -1.3558,-0.8393 -1.3552,-0.8324 -1.3456,-0.8207 -1.3273,-0.8044 -1.2999,-0.7832 -1.2638,-0.7575 -1.2185,-0.7268 -1.1646,-0.6916 -1.1015,-0.6516 -1.0298,-0.6069 -0.9489,-0.5574 -0.8593,-0.5032 -0.7608,-0.4443 -0.6532,-0.3806 -0.5369,-0.3124 -0.4116,-0.2392 -0.2773,-0.1614 -0.1343,-0.0788 h -0.02 L 0,0 0.60155,-0.11189 1.3776,-0.25931 2.31759,-0.44002 3.41096,-0.65175 4.64716,-0.89227 6.01561,-1.15931 7.50578,-1.45064 9.1071,-1.764 l 0.84191,-0.1682 0.86549,-0.17336 0.8876,-0.17829 0.9085,-0.18298 0.9279,-0.18745 0.946,-0.19168 0.9627,-0.19569 0.9781,-0.19947 0.992,-0.20301 1.0046,-0.20632 1.0158,-0.2094 1.0257,-0.21226 1.0341,-0.21488 1.0413,-0.21727 1.047,-0.21942 1.0514,-0.22136 1.0544,-0.22306 1.056,-0.22453 1.0562,-0.22577 1.0552,-0.22677 1.0527,-0.22755 1.0488,-0.22809 1.0436,-0.22842 1.037,-0.2285 1.0291,-0.22835 1.0197,-0.22797 1.009,-0.22737 0.997,-0.22654 0.9835,-0.22546 0.9687,-0.22417 0.9525,-0.22264 0.9349,-0.22088 0.916,-0.21889 0.6942,-2.0148 0.9627,-1.6615 1.1412,-1.1525 1.2295,-0.4881 1.2274,0.3319 1.1909,1.1524 1.2621,1.7996 2.0964,-0.6478 1.5855,-0.5836 1.0101,-0.5046 z"
                                   style="fill:#e9e5d9;fill-opacity:1;fill-rule:evenodd;stroke:none"
                                   id="path1402" />
                                </g>
                                </g>
                                </g>
                                <g
                                   transform="translate(0,143.57308)"
                                   id="g1416">
                                <g
                                   id="g1414">
                                <g
                                   id="g1412">
                                <path
                                   d="m 0,-13.322 0.02634,-2.0491 0.0786,-2.0361 0.13021,-2.0224 0.18118,-2.0082 0.2315,-1.9933 0.28119,-1.9776 0.33022,-1.9615 0.37862,-1.9446 0.42636,-1.9271 0.47348,-1.9089 0.51994,-1.8902 0.56575,-1.8707 0.61094,-1.8506 0.65546,-1.83 0.69936,-1.8085 0.7426,-1.7866 0.7852,-1.7639 0.82716,-1.7406 0.86847,-1.7166 0.90915,-1.6921 0.94917,-1.6669 0.9886,-1.641 1.0273,-1.6145 1.0653,-1.5873 1.1029,-1.5595 1.1396,-1.5311 1.1759,-1.502 1.2113,-1.4723 1.2462,-1.4419 1.2805,-1.4109 1.314,-1.3792 1.347,-1.3469 1.3793,-1.314 1.411,-1.2804 1.442,-1.2461 1.4723,-1.2113 1.5021,-1.1757 1.5312,-1.1396 1.5596,-1.1028 1.5874,-1.0653 1.6145,-1.0272 1.6411,-0.9885 1.6669,-0.9491 1.6922,-0.9091 1.7168,-0.8685 1.7406,-0.8271 1.764,-0.7851 1.7866,-0.7426 1.8087,-0.6993 1.83,-0.6554 1.8507,-0.6109 1.8708,-0.5657 1.8902,-0.5199 1.909,-0.4734 1.9272,-0.4264 1.9446,-0.3786 1.9615,-0.3302 1.9778,-0.2811 1.9933,-0.2315 2.0082,-0.1812 2.0225,-0.1302 2.0362,-0.0786 2.0491,-0.0263 2.0491,0.0263 2.0361,0.0786 2.0225,0.1302 2.0081,0.1812 1.9933,0.2315 1.9777,0.2811 1.9614,0.3302 1.9446,0.3786 0.2036,0.0451 -0.5732,1.3622 -1.4748,3.4988 -1.4715,3.4849 -1.4666,3.4678 -1.4603,3.4476 -1.4524,3.4239 -1.4431,3.3972 -1.4323,3.3671 -1.42,3.3337 -1.4062,3.2972 -1.3909,3.2574 -1.3741,3.2144 -1.3559,3.168 -1.3361,3.1185 -1.3149,3.0657 -1.2922,3.0097 -1.2679,2.9503 h -0.019 L 48.4148,-2.032 47.0347,0 45.5886,-1.63918 44.1945,-3.19775 42.8691,-4.65833 41.6286,-6.00354 40.4896,-7.216 l -1.021,-1.06234 -0.8867,-0.89485 -0.7358,-0.70998 -0.5685,-0.50773 -0.3847,-0.2881 -0.1561,-0.0642 -0.2382,-0.0557 -0.3177,-0.0476 -0.3945,-0.0398 -0.4686,-0.0321 -0.5401,-0.0249 -0.6089,-0.0178 -0.6752,-0.011 -0.7386,-0.0046 -0.7995,0.0017 -0.8577,0.0076 -0.9133,0.0133 -0.9661,0.0186 -1.0164,0.0237 -1.064,0.0286 -1.1089,0.0331 -1.1511,0.0375 -1.1908,0.0414 -1.2277,0.0451 -1.262,0.0486 -1.2937,0.0518 -1.3226,0.0546 -1.3489,0.0573 -1.3727,0.0596 -1.3936,0.0617 -1.412,0.0635 -1.4277,0.065 -1.4407,0.0663 -1.45109,0.0672 -1.45884,0.0679 -1.4639,0.06837 -1.46632,0.06846 -1.46607,0.06833 -1.46318,0.06791 -1.33023,0.06135 -0.05963,-1.54462 z"
                                   style="fill:#845e40;fill-opacity:1;fill-rule:evenodd;stroke:none"
                                   id="path1410" />
                                </g>
                                </g>
                                </g>
                                <g
                                   transform="translate(47.0347,150.41808)"
                                   id="g1424">
                                <g
                                   id="g1422">
                                <g
                                   id="g1420">
                                <path
                                   d="M 5.8469,0 6.16325,-0.71923 6.51363,-1.51879 6.89758,-2.3973 7.31464,-3.35338 7.76438,-4.38563 8.24632,-5.49266 8.76003,-6.67311 9.30505,-7.92557 9.88092,-9.24866 10.4872,-10.641 8.88552,-10.3276 7.39515,-10.0362 6.02662,-9.76895 4.79046,-9.52825 3.6972,-9.31633 2.75737,-9.13547 1.98149,-8.98793 1.3801,-8.876 0,-6.844 l 0.96555,1.10453 0.97627,1.1254 0.98163,1.14144 0.98163,1.1527 0.97627,1.15915 z"
                                   style="fill:#845e40;fill-opacity:1;fill-rule:evenodd;stroke:none"
                                   id="path1418" />
                                </g>
                                </g>
                                </g>
                                <g
                                   transform="translate(53.35431,204.78631)"
                                   id="g1432">
                                <g
                                   id="g1430">
                                <g
                                   id="g1428">
                                <path
                                   d="M 1.21728,0 1.21218,-0.00154 0,-0.40168 0.02844,-0.6221 l 0.18081,-1.30111 0.13914,-1.10602 0.24985,-1.55262 0.08845,-0.54838 0.07063,0.55113 0.20127,1.55987 0.09792,1.11397 0.11911,1.31328 z"
                                   style="fill:#bfc1bf;fill-opacity:1;fill-rule:evenodd;stroke:none"
                                   id="path1426" />
                                </g>
                                </g>
                                </g>
                                <g
                                   transform="translate(47.4422,141.37208)"
                                   id="g1440">
                                <g
                                   id="g1438">
                                <g
                                   id="g1436">
                                <path
                                   d="M 0,0 0.39243,-0.31 1.5011,-1.184 3.18721,-2.60337 5.255,-4.58 6.38986,-5.75948 7.57722,-7.04837 8.79695,-8.44058 10.0289,-9.93 l 0.9805,-1.2534 0.9667,-1.3034 0.9532,-1.3419 0.9405,-1.3689 0.9282,-1.3844 0.7388,-1.1733 0.7315,-1.1701 0.7196,-1.1641 0.7032,-1.1555 0.6825,-1.144 0.6571,-1.13 0.7682,-1.3196 0.7221,-1.2901 0.6858,-1.2447 0.659,-1.1831 0.6419,-1.1055 0.9568,-1.6954 0.8004,-1.4842 0.6768,-1.2014 0.6661,-1.2548 0.2349,-0.4432 -0.3626,0.3472 -1.0264,0.9848 -1.5154,1.606 -1.8446,2.182 -0.9996,1.2887 -1.0578,1.3864 -1.089,1.4819 -1.0934,1.575 -0.7338,1.0875 -0.7324,1.1151 -0.7321,1.136 -0.733,1.1505 -0.735,1.1583 -0.7384,1.1596 -0.7227,1.1569 -0.7192,1.1517 -0.715,1.1449 -0.70983,1.1366 -0.70373,1.1267 L 8.182,-11.25 7.35597,-9.9776 6.55788,-8.74288 5.78069,-7.56216 5.01738,-6.45176 4.2609,-5.428 3.10429,-3.87022 2.08724,-2.53444 1.2199,-1.468 0.31858,-0.38375 Z"
                                   style="fill:#66452f;fill-opacity:1;fill-rule:evenodd;stroke:none"
                                   id="path1434" />
                                </g>
                                </g>
                                </g>
                                <g
                                   transform="translate(107.6519,121.30108)"
                                   id="g1448">
                                <g
                                   id="g1446">
                                <g
                                   id="g1444">
                                <path
                                   d="m 0,-9.897 0.181,0.114 0.511,0.321 0.80638,0.48913 L 2.556,-8.363 3.8315,-7.7165 5.248,-7.022 6.73712,-6.30787 8.221,-5.548 9.63175,-4.74287 10.921,-3.877 l 1.156,0.89213 0.994,0.89287 0.8273,0.82138 0.6337,0.67362 0.4355,0.44175 L 15.121,0 15.083,-0.21588 14.976,-0.83 14.7145,-1.76713 14.213,-2.933 13.4059,-4.2195 12.274,-5.5 10.8379,-6.62312 9.221,-7.543 7.52725,-8.217 5.868,-8.726 4.30738,-9.08338 2.911,-9.371 1.7185,-9.56975 0.802,-9.74 0.20975,-9.856 Z"
                                   style="fill:#ddbc99;fill-opacity:1;fill-rule:evenodd;stroke:none"
                                   id="path1442" />
                                </g>
                                </g>
                                </g>
                                <g
                                   transform="translate(120.2989,119.37708)"
                                   id="g1456">
                                <g
                                   id="g1454">
                                <g
                                   id="g1452">
                                <path
                                   d="M 0,-11.272 0.15675,-11.1521 0.6,-10.814 1.26613,-10.2693 2.107,-9.546 3.092,-8.70162 4.158,-7.732 5.3125,-6.66112 6.434,-5.621 7.54775,-4.582 8.699,-3.51 9.77063,-2.55737 10.744,-1.703 11.5973,-0.9915 12.284,-0.454 12.7551,-0.11825 12.921,0 12.8584,-0.19475 12.681,-0.748 12.335,-1.5685 11.794,-2.578 11.0548,-3.70675 10.137,-4.897 9.03525,-6.064 7.812,-7.183 6.493,-8.1865 5.153,-9.073 3.83438,-9.796 2.62,-10.375 1.55763,-10.7829 0.724,-11.052 0.1895,-11.2145 Z"
                                   style="fill:#ddbc99;fill-opacity:1;fill-rule:evenodd;stroke:none"
                                   id="path1450" />
                                </g>
                                </g>
                                </g>
                                <g
                                   transform="translate(138.1689,121.02608)"
                                   id="g1464">
                                <g
                                   id="g1462">
                                <g
                                   id="g1460">
                                <path
                                   d="M 0,-10.172 0.04463,-10.0404 0.171,-9.668 0.37363,-9.0985 0.64,-8.367 0.96013,-7.51262 1.317,-6.566 1.73888,-5.58525 2.196,-4.594 2.742,-3.656 3.33,-2.781 3.95238,-1.99762 4.55,-1.311 5.10813,-0.75188 5.583,-0.339 5.92775,-0.08813 6.049,0 6.05388,-0.14963 6.067,-0.576 6.02388,-1.21037 5.896,-2.003 5.6635,-2.90637 5.335,-3.884 4.87387,-4.87537 4.307,-5.848 3.61838,-6.74575 2.899,-7.579 2.16463,-8.30938 1.485,-8.943 0.89188,-9.46063 0.421,-9.847 0.11,-10.0867 Z"
                                   style="fill:#ddbc99;fill-opacity:1;fill-rule:evenodd;stroke:none"
                                   id="path1458" />
                                </g>
                                </g>
                                </g>
                                <g
                                   transform="translate(117.2749,163.64008)"
                                   id="g1472">
                                <g
                                   id="g1470">
                                <g
                                   id="g1468">
                                <path
                                   d="M 0,0 0.28175,-0.19163 1.093,-0.708 2.35963,-1.48163 4.032,-2.418 5.3313,-3.1063 6.78037,-3.78037 8.309,-4.496 9.49034,-5.06219 10.7053,-5.625 l 1.24,-0.55231 1.2567,-0.53469 1.2584,-0.52163 1.2575,-0.49087 1.2446,-0.46237 1.2195,-0.43613 1.5744,-0.52437 1.4898,-0.48326 1.3938,-0.36437 1.8348,-0.4473 1.4462,-0.2987 0.9586,-0.1891 0.3384,-0.0669 -0.3349,-0.0936 -0.9491,-0.2654 -1.5164,-0.2619 -1.9926,-0.1021 -1.1402,0.0453 -1.2194,0.0962 -1.2796,0.1682 -1.3208,0.2613 -1.3468,0.344 -1.3536,0.4314 -1.3534,0.49796 L 12.065,-9.332 10.7642,-8.6927 9.49275,-8.02537 8.26897,-7.32261 7.111,-6.577 5.042,-4.99025 3.291,-3.453 1.8855,-2.0865 0.855,-0.987 0.22388,-0.258 Z"
                                   style="fill:#ddbc99;fill-opacity:1;fill-rule:evenodd;stroke:none"
                                   id="path1466" />
                                </g>
                                </g>
                                </g>
                                </g>
                                </g>
                                </g>
                              </g>
                            </g>
                          </g>
                        </g>
                      </g>
                      <g
                         transform="translate(122.90639,115.62911)"
                         id="g1496">
                        <g
                           id="g1494">
                          <g
                             id="g1492">
                            <path
                               d="M 1.83062,-7.69714 1.74845,-7.63763 1.5173,-7.46914 1.1903,-7.15799 0.82931,-6.69583 0.48265,-6.09035 0.188,-5.37586 0.043,-4.59122 0,-3.78657 l 0.08933,0.78147 0.17733,0.73049 0.27899,0.65014 0.313,0.55916 0.33299,0.45066 0.31099,0.33466 0.2425,0.20749 L 1.83062,0 1.88279,-0.09916 2.03195,-0.38132 2.19812,-0.80731 2.34527,-1.3413 2.44794,-1.95195 2.5146,-2.6106 2.5051,-3.28476 2.4546,-3.9599 2.36278,-4.51222 2.23994,-5.25053 2.08061,-5.85385 1.96528,-6.41317 1.88695,-6.91233 1.85062,-7.31848 1.83562,-7.59781 Z"
                               style="mix-blend-mode:screen;fill:#ddbc99;fill-opacity:1;fill-rule:evenodd;stroke:none"
                               id="path1490" />
                          </g>
                        </g>
                      </g>
                      <g
                         transform="translate(178.12233,101.70146)"
                         id="g1504">
                        <g
                           id="g1502">
                          <g
                             id="g1500">
                            <path
                               d="m 2.39727,-4.13991 v 9e-5 l -0.0225,0.79373 -0.09349,0.76082 -0.182,0.70132 L 1.89329,-1.26263 1.66878,-0.74348 1.4573,-0.34532 1.29113,-0.09016 1.23197,0 1.1768,-0.09266 1.02264,-0.35332 0.82381,-0.75865 0.61598,-1.27997 0.42232,-1.89162 0.23866,-2.56527 0.11466,-3.27542 0.02667,-3.99857 0,-4.71521 0.00933,-5.41186 0.0775,-6.07502 0.15866,-6.68516 0.26199,-7.22399 0.36932,-7.65981 0.46499,-7.9588 l 0.03366,-0.105 0.08817,0.06783 0.24916,0.19483 0.32816,0.33615 0.34916,0.47317 0.32765,0.59681 0.28566,0.69382 0.17733,0.76514 z"
                               style="mix-blend-mode:screen;fill:#ddbc99;fill-opacity:1;fill-rule:evenodd;stroke:none"
                               id="path1498" />
                          </g>
                        </g>
                      </g>
                      <g
                         transform="translate(191.15946,62.14512)"
                         id="g1512">
                        <g
                           id="g1510">
                          <g
                             id="g1508">
                            <path
                               d="m 0.29187,-2.23194 c 0,0 -0.03733,0.06933 -0.10133,0.18932 -0.03067,0.1 -0.14,0.284 -0.148,0.43866 -0.004,0.15066 -0.06533,0.36532 -0.03333,0.53599 0.01733,0.18266 0.096,0.33866 0.172,0.49732 0.11066,0.13599 0.21466,0.27732 0.37332,0.36399 C 0.69319,-0.104 0.91719,-0.08 1.05985,-0.028 1.10883,-0.00986 1.16691,-0.00236 1.22643,0 h 0.10364 c 0.07967,-0.00237 0.15379,-0.00832 0.2031,-0.004 0.144,-0.01867 0.22533,-0.03067 0.22533,-0.03067 0,0 0.036,-0.07866 0.09867,-0.21732 C 1.8825,-0.36266 1.9905,-0.57065 1.99716,-0.72532 2.00104,-0.8361 2.03682,-0.9816 2.0425,-1.11275 V -1.17788 C 2.04122,-1.2032 2.03828,-1.22759 2.03316,-1.25064 2.01983,-1.42263 1.94116,-1.55596 1.86917,-1.69462 c -0.10667,-0.116 -0.212,-0.23333 -0.36799,-0.30933 -0.13867,-0.088 -0.36,-0.11333 -0.50399,-0.168 -0.144,-0.05333 -0.368,-0.04133 -0.47733,-0.05999 z"
                               style="mix-blend-mode:screen;fill:#ddbc99;fill-opacity:1;fill-rule:nonzero;stroke:none"
                               id="path1506" />
                          </g>
                        </g>
                      </g>
                      <g
                         transform="translate(14.83911,53.29023)"
                         id="g1520">
                        <g
                           id="g1518">
                          <g
                             id="g1516">
                            <path
                               d="m 0,0 0.38733,-0.68019 0.9063,-1.50446 1.44295,-0.25124 1.81035,-0.27031 1.66598,-0.23861 2.17057,-0.24732 1.68147,-0.13533 1.08733,-0.05117 0.38343,-0.01816 -0.36399,0.12099 -1.03238,0.34299 -1.60538,0.49882 -2.08359,0.62382 -1.63617,0.46512 -1.7897,0.50928 -1.80053,0.51223 z"
                               style="fill:#66452f;fill-opacity:1;fill-rule:evenodd;stroke:none"
                               id="path1514" />
                          </g>
                        </g>
                      </g>
                      <g
                         transform="translate(1,209.40941)"
                         id="g1528">
                        <g
                           id="g1526">
                          <g
                             id="g1522" />
                          <path
                             d="m 208.40808,-104.20404 c 0,-57.55188 -46.65349,-104.20537 -104.20391,-104.20537 C 46.65349,-208.40941 0,-161.75592 0,-104.20404 0,-46.65349 46.65349,0 104.20417,0 161.75459,0 208.40808,-46.65349 208.40808,-104.20404 Z"
                             style="fill:none;stroke:#05b0a1;stroke-width:2;stroke-linecap:butt;stroke-linejoin:miter;stroke-miterlimit:10;stroke-dasharray:none;stroke-opacity:1"
                             id="path1524" />
                        </g>
                      </g>
                    </g>
                  </g>
                </g>
              </g>
            </g>
          </g>
        </g>
      </g>
    </g>
  </g>
</svg>
