<?xml version="1.0" encoding="UTF-8" standalone="no"?>
<!-- Created with Inkscape (http://www.inkscape.org/) -->

<svg
   version="1.1"
   id="svg18"
   width="300"
   height="150"
   viewBox="0 0 300.00002 150"
   sodipodi:docname="1131_word.svg"
   inkscape:version="1.2.1 (9c6d41e410, 2022-07-14)"
   xmlns:inkscape="http://www.inkscape.org/namespaces/inkscape"
   xmlns:sodipodi="http://sodipodi.sourceforge.net/DTD/sodipodi-0.dtd"
   xmlns="http://www.w3.org/2000/svg"
   xmlns:svg="http://www.w3.org/2000/svg">
  <sodipodi:namedview
     id="namedview37"
     pagecolor="#ffffff"
     bordercolor="#000000"
     borderopacity="0.25"
     inkscape:showpageshadow="2"
     inkscape:pageopacity="0.0"
     inkscape:pagecheckerboard="0"
     inkscape:deskcolor="#d1d1d1"
     showgrid="false"
     inkscape:zoom="4.0941839"
     inkscape:cx="102.95092"
     inkscape:cy="106.24828"
     inkscape:window-width="1700"
     inkscape:window-height="1396"
     inkscape:window-x="8"
     inkscape:window-y="28"
     inkscape:window-maximized="1"
     inkscape:current-layer="svg18" />
  <defs
     id="defs22">
    <clipPath
       clipPathUnits="userSpaceOnUse"
       id="clipPath2796">
      <path
         d="M 0,340.157 H 226.772 V 0 H 0 Z"
         id="path2794" />
    </clipPath>
    <clipPath
       clipPathUnits="userSpaceOnUse"
       id="clipPath2804">
      <path
         d="M 246.772,340.157 H 473.544 V 0 H 246.772 Z"
         id="path2802" />
    </clipPath>
    <clipPath
       clipPathUnits="userSpaceOnUse"
       id="clipPath2812">
      <path
         d="M 246.772,0 H 473.544 V 340.157 H 246.772 Z"
         id="path2810" />
    </clipPath>
    <clipPath
       clipPathUnits="userSpaceOnUse"
       id="clipPath2820">
      <path
         d="M 246.772,340.157 H 473.544 V 0 H 246.772 Z"
         id="path2818" />
    </clipPath>
    <clipPath
       clipPathUnits="userSpaceOnUse"
       id="clipPath2828">
      <path
         d="m 438.313,-190.079 c 0,-43.163 -34.991,-78.155 -78.155,-78.155 -43.164,0 -78.155,34.992 -78.155,78.155 0,43.164 34.991,78.155 78.155,78.155 43.164,0 78.155,-34.991 78.155,-78.155"
         id="path2826" />
    </clipPath>
    <clipPath
       clipPathUnits="userSpaceOnUse"
       id="clipPath702936">
      <path
         d="M 0,340.157 H 226.772 V 0 H 0 Z"
         id="path702934" />
    </clipPath>
    <clipPath
       clipPathUnits="userSpaceOnUse"
       id="clipPath703010">
      <path
         d="M 0,340.157 H 226.772 V 0 H 0 Z"
         id="path703008" />
    </clipPath>
    <clipPath
       clipPathUnits="userSpaceOnUse"
       id="clipPath703120">
      <path
         d="M 0,-20 H 226.772 V -360.157 H 0 Z"
         id="path703118" />
    </clipPath>
    <clipPath
       clipPathUnits="userSpaceOnUse"
       id="clipPath703128">
      <path
         d="M 0,-360.157 H 226.772 V -20 H 0 Z"
         id="path703126" />
    </clipPath>
    <clipPath
       clipPathUnits="userSpaceOnUse"
       id="clipPath703136">
      <path
         d="M 0,-20 H 226.772 V -360.157 H 0 Z"
         id="path703134" />
    </clipPath>
    <clipPath
       clipPathUnits="userSpaceOnUse"
       id="clipPath703144">
      <path
         d="m 438.313,-190.078 c 0,-43.164 -34.992,-78.155 -78.156,-78.155 -43.163,0 -78.154,34.991 -78.154,78.155 0,43.164 34.991,78.155 78.154,78.155 43.164,0 78.156,-34.991 78.156,-78.155"
         id="path703142" />
    </clipPath>
    <clipPath
       clipPathUnits="userSpaceOnUse"
       id="clipPath703160">
      <path
         d="M 246.772,-20 H 473.544 V -360.157 H 246.772 Z"
         id="path703158" />
    </clipPath>
    <clipPath
       clipPathUnits="userSpaceOnUse"
       id="clipPath703168">
      <path
         d="M 246.772,-360.157 H 473.544 V -20 H 246.772 Z"
         id="path703166" />
    </clipPath>
    <clipPath
       clipPathUnits="userSpaceOnUse"
       id="clipPath703176">
      <path
         d="m 282.002,-190.079 c 0,-43.163 34.993,-78.154 78.156,-78.154 43.164,0 78.155,34.991 78.155,78.154 0,43.164 -34.991,78.156 -78.155,78.156 -43.163,0 -78.156,-34.992 -78.156,-78.156"
         id="path703174" />
    </clipPath>
    <clipPath
       clipPathUnits="userSpaceOnUse"
       id="clipPath720772">
      <g
         id="g720776"
         transform="matrix(0.75000002,0,0,-0.75000002,-117.18415,74.879174)">
        <path
           d="M -45.430862,-131.30857 H 256.9318 V 322.23409 H -45.430862 Z"
           id="path720774"
           style="stroke-width:1.33333" />
      </g>
    </clipPath>
    <clipPath
       clipPathUnits="userSpaceOnUse"
       id="clipPath720778">
      <g
         id="g720782"
         transform="matrix(0.75000002,0,0,-0.75000002,-78.789654,69.358173)">
        <path
           d="M -45.430862,-131.30857 H 256.9318 V 322.23409 H -45.430862 Z"
           id="path720780"
           style="stroke-width:1.33333" />
      </g>
    </clipPath>
    <clipPath
       clipPathUnits="userSpaceOnUse"
       id="clipPath720784">
      <g
         id="g720788"
         transform="matrix(0.75000002,0,0,-0.75000002,34.073147,241.67557)">
        <path
           d="M -45.430862,-131.30857 H 256.9318 V 322.23409 H -45.430862 Z"
           id="path720786"
           style="stroke-width:1.33333" />
      </g>
    </clipPath>
    <clipPath
       clipPathUnits="userSpaceOnUse"
       id="clipPath703262">
      <path
         d="M -246.772,-20 H -20 v -340.157 h -226.772 z"
         id="path703260" />
    </clipPath>
    <clipPath
       clipPathUnits="userSpaceOnUse"
       id="clipPath703270">
      <path
         d="M -246.772,-360.157 H -20 V -20 h -226.772 z"
         id="path703268" />
    </clipPath>
    <clipPath
       clipPathUnits="userSpaceOnUse"
       id="clipPath703278">
      <path
         d="M -246.772,-20 H -20 v -340.157 h -226.772 z"
         id="path703276" />
    </clipPath>
    <clipPath
       clipPathUnits="userSpaceOnUse"
       id="clipPath703286">
      <path
         d="m 191.541,-190.078 c 0,-43.164 -34.992,-78.155 -78.156,-78.155 -43.163,0 -78.154,34.991 -78.154,78.155 0,43.164 34.991,78.155 78.154,78.155 43.164,0 78.156,-34.991 78.156,-78.155"
         id="path703284" />
    </clipPath>
    <clipPath
       clipPathUnits="userSpaceOnUse"
       id="clipPath703298">
      <path
         d="M 0,-20 H 226.772 V -360.157 H 0 Z"
         id="path703296" />
    </clipPath>
    <clipPath
       clipPathUnits="userSpaceOnUse"
       id="clipPath703306">
      <path
         d="M 0,-360.157 H 226.772 V -20 H 0 Z"
         id="path703304" />
    </clipPath>
    <clipPath
       clipPathUnits="userSpaceOnUse"
       id="clipPath703314">
      <path
         d="m 35.23,-190.079 c 0,-43.163 34.993,-78.154 78.156,-78.154 43.164,0 78.155,34.991 78.155,78.154 0,43.164 -34.991,78.156 -78.155,78.156 -43.163,0 -78.156,-34.992 -78.156,-78.156"
         id="path703312" />
    </clipPath>
    <clipPath
       clipPathUnits="userSpaceOnUse"
       id="clipPath721254">
      <g
         id="g721258"
         transform="matrix(0.75000002,0,0,-0.75000002,-143.46681,15.486327)">
        <path
           d="M 8.3138826,-226.73543 H 310.67654 V 226.80723 H 8.3138826 Z"
           id="path721256"
           style="stroke-width:1.33333" />
      </g>
    </clipPath>
    <clipPath
       clipPathUnits="userSpaceOnUse"
       id="clipPath721260">
      <g
         id="g721264"
         transform="matrix(0.75000002,0,0,-0.75000002,-150.19041,29.105427)">
        <path
           d="M 8.3138826,-226.73543 H 310.67654 V 226.80723 H 8.3138826 Z"
           id="path721262"
           style="stroke-width:1.33333" />
      </g>
    </clipPath>
    <clipPath
       clipPathUnits="userSpaceOnUse"
       id="clipPath721266">
      <g
         id="g721270"
         transform="matrix(0.75000002,0,0,-0.75000002,-6.2354121,170.10543)">
        <path
           d="M 8.3138826,-226.73543 H 310.67654 V 226.80723 H 8.3138826 Z"
           id="path721268"
           style="stroke-width:1.33333" />
      </g>
    </clipPath>
    <clipPath
       clipPathUnits="userSpaceOnUse"
       id="clipPath703432">
      <path
         d="M 0,340.157 H 226.772 V 0 H 0 Z"
         id="path703430" />
    </clipPath>
    <clipPath
       clipPathUnits="userSpaceOnUse"
       id="clipPath703542">
      <path
         d="M 0,340.157 H 226.772 V 0 H 0 Z"
         id="path703540" />
    </clipPath>
    <clipPath
       clipPathUnits="userSpaceOnUse"
       id="clipPath713424">
      <path
         d="M 0,340.157 H 226.772 V 0 H 0 Z"
         id="path713422" />
    </clipPath>
    <clipPath
       clipPathUnits="userSpaceOnUse"
       id="clipPath713526">
      <path
         d="M 0,340.157 H 226.772 V 0 H 0 Z"
         id="path713524" />
    </clipPath>
  </defs>
  <g
     id="g713520"
     transform="matrix(1.3333333,0,0,-1.3333333,-1.1809962,321.80182)">
    <g
       id="g713522"
       clip-path="url(#clipPath713526)">
      <g
         id="g713528"
         transform="translate(86.326,154.3123)">
        <path
           d="m 0,0 c 0,-2.086 -1.064,-3.21 -3.19,-3.374 -0.901,0 -1.657,0.307 -2.27,0.92 -0.614,0.613 -0.921,1.433 -0.921,2.454 0,1.963 1.064,3.067 3.191,3.313 C -1.269,3.313 -0.206,2.209 0,0 m -7.362,10.797 c -6.421,0 -11.472,1.319 -15.153,3.957 -3.68,2.638 -5.583,6.779 -5.705,12.423 0,2.903 0.429,5.438 1.288,7.607 l 3.374,-0.614 c -0.45,-1.636 -0.674,-3.374 -0.674,-5.214 0,-8.344 5.787,-12.515 17.361,-12.515 3.517,0 6.656,0.265 9.417,0.797 2.76,0.532 5.092,1.156 6.993,1.871 1.901,0.715 3.344,1.401 4.325,2.056 -0.123,0.981 -0.184,1.84 -0.184,2.576 0,1.186 0.224,2.556 0.674,4.111 l 3.621,0.368 c -0.205,-1.105 -0.308,-2.209 -0.308,-3.313 0,-4.622 2.434,-7.014 7.301,-7.178 v -0.061 c 0.899,0 1.677,-0.215 2.331,-0.645 0.654,-0.428 0.981,-1.114 0.981,-2.054 0,-1.882 -1.104,-2.823 -3.312,-2.823 -4.622,0 -7.813,1.535 -9.571,4.602 C 12.738,14.989 9.498,13.558 5.674,12.453 1.85,11.35 -2.495,10.797 -7.362,10.797"
           style="fill:#f91536;fill-opacity:1;fill-rule:nonzero;stroke:none"
           id="path713530" />
      </g>
      <g
         id="g713532"
         transform="translate(133.7225,169.2811)">
        <path
           d="m 0,0 c 0,-1.882 -1.084,-2.822 -3.251,-2.822 -2.659,0 -4.745,0.51 -6.258,1.534 -1.513,1.021 -2.576,2.556 -3.189,4.601 -1.514,-4.09 -4.847,-6.135 -10,-6.135 -2.086,0 -3.129,0.94 -3.129,2.822 0,0.613 0.246,1.217 0.736,1.81 0.491,0.592 1.31,0.889 2.454,0.889 2.249,0 3.967,0.408 5.154,1.227 1.185,0.818 2.034,1.932 2.545,3.344 0.511,1.411 0.849,3.015 1.012,4.815 l 3.62,0.307 c -0.083,-0.655 -0.123,-1.35 -0.123,-2.085 0,-1.269 0.185,-2.486 0.552,-3.651 0.368,-1.166 1.074,-2.107 2.117,-2.822 1.043,-0.716 2.546,-1.095 4.509,-1.135 0.899,0 1.666,-0.215 2.301,-0.644 C -0.317,1.626 0,0.94 0,0"
           style="fill:#1d1d1b;fill-opacity:1;fill-rule:nonzero;stroke:none"
           id="path713534" />
      </g>
      <g
         id="g713536"
         transform="translate(120.0428,154.3738)">
        <path
           d="m 0,0 c 0,-1.963 -1.043,-3.047 -3.129,-3.252 -0.9,0 -1.646,0.287 -2.239,0.859 -0.594,0.574 -0.89,1.371 -0.89,2.393 0,1.963 1.043,3.047 3.129,3.251 0.941,0 1.696,-0.296 2.27,-0.89 C -0.287,1.77 0,0.981 0,0"
           style="fill:#1d1d1b;fill-opacity:1;fill-rule:nonzero;stroke:none"
           id="path713538" />
      </g>
      <g
         id="g713540"
         transform="translate(128.2626,154.3738)">
        <path
           d="m 0,0 c 0,-1.963 -1.042,-3.047 -3.128,-3.252 -1.841,0 -2.844,1.085 -3.006,3.252 0,1.963 1.001,3.047 3.006,3.251 0.94,0 1.696,-0.296 2.27,-0.89 C -0.286,1.77 0,0.981 0,0"
           style="fill:#1d1d1b;fill-opacity:1;fill-rule:nonzero;stroke:none"
           id="path713542" />
      </g>
      <g
         id="g713544"
         transform="translate(131.1835,166.4588)">
        <path
           d="m 0,0 h -0.675 c -1.022,0 -1.8,0.266 -2.332,0.798 -0.53,0.531 -0.797,1.185 -0.797,1.963 0,0.695 0.236,1.339 0.705,1.932 0.471,0.593 1.28,0.89 2.424,0.89 h 0.736 c 7.892,0 14.825,1.35 20.796,4.049 l 2.148,0.981 c 1.635,0.777 3.067,1.37 4.294,1.78 -1.35,0.49 -2.802,1.083 -4.356,1.779 -1.963,0.898 -3.998,1.726 -6.104,2.484 -2.107,0.756 -4.12,1.135 -6.042,1.135 -3.232,0 -5.972,-0.471 -8.221,-1.411 l 0.859,5.03 c 1.963,0.9 4.437,1.35 7.423,1.35 2.617,0 5.132,-0.43 7.545,-1.288 2.413,-0.859 4.785,-1.841 7.117,-2.945 2.822,-1.268 4.846,-2.066 6.073,-2.392 1.227,-0.328 2.433,-0.491 3.62,-0.491 h 2.269 L 36.624,10.552 H 35.643 C 32.82,10.552 29.262,9.242 24.968,6.626 20.551,4.049 16.45,2.301 12.668,1.381 8.885,0.46 4.662,0 0,0"
           style="fill:#f91536;fill-opacity:1;fill-rule:nonzero;stroke:none"
           id="path713546" />
      </g>
      <g
         id="g713548"
         transform="translate(153.1454,156.7049)">
        <path
           d="m 0,0 c 0,-2.086 -1.064,-3.21 -3.19,-3.374 -0.9,0 -1.647,0.307 -2.24,0.92 -0.592,0.613 -0.889,1.433 -0.889,2.454 0,0.981 0.297,1.779 0.889,2.393 0.593,0.613 1.36,0.92 2.301,0.92 C -1.207,3.313 -0.164,2.208 0,0"
           style="fill:#f91536;fill-opacity:1;fill-rule:nonzero;stroke:none"
           id="path713550" />
      </g>
    </g>
  </g>
</svg>
