<?xml version="1.0" encoding="UTF-8" standalone="no"?>
<!-- Created with Inkscape (http://www.inkscape.org/) -->

<svg
   version="1.1"
   id="svg18"
   width="300"
   height="150"
   viewBox="0 0 300.00002 150"
   sodipodi:docname="1132_word.svg"
   inkscape:version="1.2.1 (9c6d41e410, 2022-07-14)"
   xmlns:inkscape="http://www.inkscape.org/namespaces/inkscape"
   xmlns:sodipodi="http://sodipodi.sourceforge.net/DTD/sodipodi-0.dtd"
   xmlns="http://www.w3.org/2000/svg"
   xmlns:svg="http://www.w3.org/2000/svg">
  <sodipodi:namedview
     id="namedview37"
     pagecolor="#ffffff"
     bordercolor="#000000"
     borderopacity="0.25"
     inkscape:showpageshadow="2"
     inkscape:pageopacity="0.0"
     inkscape:pagecheckerboard="0"
     inkscape:deskcolor="#d1d1d1"
     showgrid="false"
     inkscape:zoom="4.0941839"
     inkscape:cx="102.95092"
     inkscape:cy="106.24828"
     inkscape:window-width="1700"
     inkscape:window-height="1396"
     inkscape:window-x="8"
     inkscape:window-y="28"
     inkscape:window-maximized="1"
     inkscape:current-layer="svg18" />
  <defs
     id="defs22">
    <clipPath
       clipPathUnits="userSpaceOnUse"
       id="clipPath2796">
      <path
         d="M 0,340.157 H 226.772 V 0 H 0 Z"
         id="path2794" />
    </clipPath>
    <clipPath
       clipPathUnits="userSpaceOnUse"
       id="clipPath2804">
      <path
         d="M 246.772,340.157 H 473.544 V 0 H 246.772 Z"
         id="path2802" />
    </clipPath>
    <clipPath
       clipPathUnits="userSpaceOnUse"
       id="clipPath2812">
      <path
         d="M 246.772,0 H 473.544 V 340.157 H 246.772 Z"
         id="path2810" />
    </clipPath>
    <clipPath
       clipPathUnits="userSpaceOnUse"
       id="clipPath2820">
      <path
         d="M 246.772,340.157 H 473.544 V 0 H 246.772 Z"
         id="path2818" />
    </clipPath>
    <clipPath
       clipPathUnits="userSpaceOnUse"
       id="clipPath2828">
      <path
         d="m 438.313,-190.079 c 0,-43.163 -34.991,-78.155 -78.155,-78.155 -43.164,0 -78.155,34.992 -78.155,78.155 0,43.164 34.991,78.155 78.155,78.155 43.164,0 78.155,-34.991 78.155,-78.155"
         id="path2826" />
    </clipPath>
    <clipPath
       clipPathUnits="userSpaceOnUse"
       id="clipPath702936">
      <path
         d="M 0,340.157 H 226.772 V 0 H 0 Z"
         id="path702934" />
    </clipPath>
    <clipPath
       clipPathUnits="userSpaceOnUse"
       id="clipPath703010">
      <path
         d="M 0,340.157 H 226.772 V 0 H 0 Z"
         id="path703008" />
    </clipPath>
    <clipPath
       clipPathUnits="userSpaceOnUse"
       id="clipPath703120">
      <path
         d="M 0,-20 H 226.772 V -360.157 H 0 Z"
         id="path703118" />
    </clipPath>
    <clipPath
       clipPathUnits="userSpaceOnUse"
       id="clipPath703128">
      <path
         d="M 0,-360.157 H 226.772 V -20 H 0 Z"
         id="path703126" />
    </clipPath>
    <clipPath
       clipPathUnits="userSpaceOnUse"
       id="clipPath703136">
      <path
         d="M 0,-20 H 226.772 V -360.157 H 0 Z"
         id="path703134" />
    </clipPath>
    <clipPath
       clipPathUnits="userSpaceOnUse"
       id="clipPath703144">
      <path
         d="m 438.313,-190.078 c 0,-43.164 -34.992,-78.155 -78.156,-78.155 -43.163,0 -78.154,34.991 -78.154,78.155 0,43.164 34.991,78.155 78.154,78.155 43.164,0 78.156,-34.991 78.156,-78.155"
         id="path703142" />
    </clipPath>
    <clipPath
       clipPathUnits="userSpaceOnUse"
       id="clipPath703160">
      <path
         d="M 246.772,-20 H 473.544 V -360.157 H 246.772 Z"
         id="path703158" />
    </clipPath>
    <clipPath
       clipPathUnits="userSpaceOnUse"
       id="clipPath703168">
      <path
         d="M 246.772,-360.157 H 473.544 V -20 H 246.772 Z"
         id="path703166" />
    </clipPath>
    <clipPath
       clipPathUnits="userSpaceOnUse"
       id="clipPath703176">
      <path
         d="m 282.002,-190.079 c 0,-43.163 34.993,-78.154 78.156,-78.154 43.164,0 78.155,34.991 78.155,78.154 0,43.164 -34.991,78.156 -78.155,78.156 -43.163,0 -78.156,-34.992 -78.156,-78.156"
         id="path703174" />
    </clipPath>
    <clipPath
       clipPathUnits="userSpaceOnUse"
       id="clipPath720772">
      <g
         id="g720776"
         transform="matrix(0.75000002,0,0,-0.75000002,-117.18415,74.879174)">
        <path
           d="M -45.430862,-131.30857 H 256.9318 V 322.23409 H -45.430862 Z"
           id="path720774"
           style="stroke-width:1.33333" />
      </g>
    </clipPath>
    <clipPath
       clipPathUnits="userSpaceOnUse"
       id="clipPath720778">
      <g
         id="g720782"
         transform="matrix(0.75000002,0,0,-0.75000002,-78.789654,69.358173)">
        <path
           d="M -45.430862,-131.30857 H 256.9318 V 322.23409 H -45.430862 Z"
           id="path720780"
           style="stroke-width:1.33333" />
      </g>
    </clipPath>
    <clipPath
       clipPathUnits="userSpaceOnUse"
       id="clipPath720784">
      <g
         id="g720788"
         transform="matrix(0.75000002,0,0,-0.75000002,34.073147,241.67557)">
        <path
           d="M -45.430862,-131.30857 H 256.9318 V 322.23409 H -45.430862 Z"
           id="path720786"
           style="stroke-width:1.33333" />
      </g>
    </clipPath>
    <clipPath
       clipPathUnits="userSpaceOnUse"
       id="clipPath703262">
      <path
         d="M -246.772,-20 H -20 v -340.157 h -226.772 z"
         id="path703260" />
    </clipPath>
    <clipPath
       clipPathUnits="userSpaceOnUse"
       id="clipPath703270">
      <path
         d="M -246.772,-360.157 H -20 V -20 h -226.772 z"
         id="path703268" />
    </clipPath>
    <clipPath
       clipPathUnits="userSpaceOnUse"
       id="clipPath703278">
      <path
         d="M -246.772,-20 H -20 v -340.157 h -226.772 z"
         id="path703276" />
    </clipPath>
    <clipPath
       clipPathUnits="userSpaceOnUse"
       id="clipPath703286">
      <path
         d="m 191.541,-190.078 c 0,-43.164 -34.992,-78.155 -78.156,-78.155 -43.163,0 -78.154,34.991 -78.154,78.155 0,43.164 34.991,78.155 78.154,78.155 43.164,0 78.156,-34.991 78.156,-78.155"
         id="path703284" />
    </clipPath>
    <clipPath
       clipPathUnits="userSpaceOnUse"
       id="clipPath703298">
      <path
         d="M 0,-20 H 226.772 V -360.157 H 0 Z"
         id="path703296" />
    </clipPath>
    <clipPath
       clipPathUnits="userSpaceOnUse"
       id="clipPath703306">
      <path
         d="M 0,-360.157 H 226.772 V -20 H 0 Z"
         id="path703304" />
    </clipPath>
    <clipPath
       clipPathUnits="userSpaceOnUse"
       id="clipPath703314">
      <path
         d="m 35.23,-190.079 c 0,-43.163 34.993,-78.154 78.156,-78.154 43.164,0 78.155,34.991 78.155,78.154 0,43.164 -34.991,78.156 -78.155,78.156 -43.163,0 -78.156,-34.992 -78.156,-78.156"
         id="path703312" />
    </clipPath>
    <clipPath
       clipPathUnits="userSpaceOnUse"
       id="clipPath721254">
      <g
         id="g721258"
         transform="matrix(0.75000002,0,0,-0.75000002,-143.46681,15.486327)">
        <path
           d="M 8.3138826,-226.73543 H 310.67654 V 226.80723 H 8.3138826 Z"
           id="path721256"
           style="stroke-width:1.33333" />
      </g>
    </clipPath>
    <clipPath
       clipPathUnits="userSpaceOnUse"
       id="clipPath721260">
      <g
         id="g721264"
         transform="matrix(0.75000002,0,0,-0.75000002,-150.19041,29.105427)">
        <path
           d="M 8.3138826,-226.73543 H 310.67654 V 226.80723 H 8.3138826 Z"
           id="path721262"
           style="stroke-width:1.33333" />
      </g>
    </clipPath>
    <clipPath
       clipPathUnits="userSpaceOnUse"
       id="clipPath721266">
      <g
         id="g721270"
         transform="matrix(0.75000002,0,0,-0.75000002,-6.2354121,170.10543)">
        <path
           d="M 8.3138826,-226.73543 H 310.67654 V 226.80723 H 8.3138826 Z"
           id="path721268"
           style="stroke-width:1.33333" />
      </g>
    </clipPath>
    <clipPath
       clipPathUnits="userSpaceOnUse"
       id="clipPath703432">
      <path
         d="M 0,340.157 H 226.772 V 0 H 0 Z"
         id="path703430" />
    </clipPath>
    <clipPath
       clipPathUnits="userSpaceOnUse"
       id="clipPath703542">
      <path
         d="M 0,340.157 H 226.772 V 0 H 0 Z"
         id="path703540" />
    </clipPath>
    <clipPath
       clipPathUnits="userSpaceOnUse"
       id="clipPath713424">
      <path
         d="M 0,340.157 H 226.772 V 0 H 0 Z"
         id="path713422" />
    </clipPath>
    <clipPath
       clipPathUnits="userSpaceOnUse"
       id="clipPath713526">
      <path
         d="M 0,340.157 H 226.772 V 0 H 0 Z"
         id="path713524" />
    </clipPath>
    <clipPath
       clipPathUnits="userSpaceOnUse"
       id="clipPath713616">
      <path
         d="M 0,340.157 H 226.772 V 0 H 0 Z"
         id="path713614" />
    </clipPath>
  </defs>
  <g
     id="g713610"
     transform="matrix(1.3333333,0,0,-1.3333333,-1.1810629,327.77079)">
    <g
       id="g713612"
       clip-path="url(#clipPath713616)">
      <g
         id="g713618"
         transform="translate(123.8379,175.5387)">
        <path
           d="m 0,0 c -3.19,0 -5.573,0.307 -7.146,0.92 -1.576,0.613 -2.619,1.39 -3.129,2.331 -0.512,0.94 -0.767,1.881 -0.767,2.822 0,1.267 0.449,2.433 1.35,3.497 0.899,1.063 2.085,1.595 3.558,1.595 1.922,0 3.536,-0.951 4.846,-2.852 C 0.021,6.41 0.756,3.64 0.92,0 Z M 11.994,-0.645 C 11.359,-0.215 10.592,0 9.693,0 H 5.031 C 4.908,4.171 4.273,7.401 3.129,9.692 c -1.146,2.29 -2.506,3.885 -4.08,4.786 -1.574,0.899 -3.036,1.349 -4.386,1.349 -2.659,0 -4.929,-1.033 -6.809,-3.098 -1.882,-2.066 -2.822,-4.489 -2.822,-7.269 0,-1.882 0.408,-3.661 1.226,-5.338 0.818,-1.677 2.24,-3.036 4.264,-4.079 2.024,-1.043 4.877,-1.564 8.558,-1.564 h 1.227 c -0.859,-3.353 -2.475,-6.166 -4.847,-8.436 -2.372,-2.27 -5.296,-3.404 -8.772,-3.404 -1.84,0 -3.354,0.153 -4.54,0.46 -1.187,0.306 -2.291,0.747 -3.313,1.319 l -0.919,-3.865 c 2.248,-2.003 5.336,-3.006 9.263,-3.006 4.294,0 8.026,1.595 11.196,4.785 3.168,3.189 5.245,7.238 6.226,12.147 h 5.092 c 2.167,0 3.251,0.94 3.251,2.822 0,0.94 -0.317,1.625 -0.95,2.054"
           style="fill:#1d1d1b;fill-opacity:1;fill-rule:nonzero;stroke:none"
           id="path713620" />
      </g>
      <g
         id="g713622"
         transform="translate(151.9878,175.4156)">
        <path
           d="m 0,0 c 1.922,0 2.883,0.859 2.883,2.576 0,1.841 -0.644,3.733 -1.932,5.675 -1.288,1.942 -2.771,2.914 -4.448,2.914 -1.187,0 -2.25,-0.481 -3.19,-1.441 C -7.628,8.762 -8.527,6.891 -9.386,4.11 -8.201,3.046 -6.749,2.096 -5.031,1.258 -3.313,0.419 -1.636,0 0,0 m -0.246,-5.398 c -3.435,0 -7.157,1.512 -11.165,4.54 -0.777,-1.596 -1.687,-2.751 -2.73,-3.467 -1.043,-0.716 -2.484,-1.073 -4.325,-1.073 -0.94,0 -1.738,0.224 -2.392,0.674 -0.654,0.45 -0.982,1.166 -0.982,2.148 0,0.653 0.236,1.277 0.706,1.871 0.47,0.592 1.36,0.89 2.668,0.89 h 0.184 c 1.39,0 2.485,0.449 3.282,1.349 0.798,0.899 1.482,2.248 2.056,4.049 1.227,3.64 2.566,6.277 4.018,7.913 1.451,1.636 3.343,2.454 5.675,2.454 2.126,0 3.926,-0.726 5.398,-2.178 C 3.619,12.32 4.754,10.541 5.552,8.436 6.349,6.328 6.748,4.314 6.748,2.393 6.748,0.102 6.073,-1.77 4.724,-3.221 3.374,-4.673 1.717,-5.398 -0.246,-5.398 m -58.86,-3.006 c 0,-2.004 -1.084,-3.129 -3.251,-3.374 -0.9,0 -1.647,0.306 -2.24,0.92 -0.593,0.613 -0.889,1.431 -0.889,2.454 0,0.981 0.296,1.779 0.889,2.392 0.593,0.614 1.36,0.92 2.301,0.92 1.922,0 2.985,-1.104 3.19,-3.312 m 7.607,-19.448 c -2.209,-0.695 -4.888,-1.043 -8.037,-1.043 -4.539,0 -8.66,0.716 -12.361,2.148 -3.702,1.432 -6.636,3.549 -8.803,6.35 -2.168,2.801 -3.252,6.247 -3.252,10.336 0,3.027 0.706,5.684 2.117,7.975 1.411,2.29 3.23,4.243 5.46,5.858 2.229,1.616 4.621,2.905 7.177,3.866 2.556,0.961 5.02,1.626 7.393,1.994 l -1.964,0.736 c -1.472,0.613 -3.231,1.236 -5.275,1.871 -2.046,0.633 -4.152,0.95 -6.319,0.95 -3.19,0 -5.95,-0.532 -8.282,-1.594 l 1.043,5.275 c 0.776,0.368 1.738,0.685 2.883,0.951 1.145,0.266 2.74,0.399 4.785,0.399 2.455,0 4.867,-0.378 7.24,-1.135 2.371,-0.757 4.641,-1.585 6.809,-2.484 l 2.331,-0.92 c 2.371,-1.105 4.376,-1.657 6.012,-1.657 l 3.129,-0.061 -1.289,-5.399 c -0.981,0.123 -2.474,0.184 -4.478,0.184 -2.372,0 -4.806,-0.307 -7.3,-0.92 -2.945,-0.696 -5.644,-1.728 -8.098,-3.098 -2.454,-1.371 -4.438,-3.078 -5.95,-5.123 -1.514,-2.045 -2.27,-4.436 -2.27,-7.177 0,-3.19 0.971,-5.848 2.914,-7.975 1.942,-2.126 4.529,-3.722 7.76,-4.785 3.23,-1.064 6.769,-1.595 10.613,-1.595 2.249,0 4.928,0.286 8.036,0.859 z"
           style="fill:#f91536;fill-opacity:1;fill-rule:nonzero;stroke:none"
           id="path713624" />
      </g>
    </g>
  </g>
</svg>
