<?xml version="1.0" encoding="UTF-8" standalone="no"?>
<!-- Created with Inkscape (http://www.inkscape.org/) -->

<svg
   version="1.1"
   id="svg18"
   width="300"
   height="150"
   viewBox="0 0 300.00002 150"
   sodipodi:docname="1133_word.svg"
   inkscape:version="1.2.1 (9c6d41e410, 2022-07-14)"
   xmlns:inkscape="http://www.inkscape.org/namespaces/inkscape"
   xmlns:sodipodi="http://sodipodi.sourceforge.net/DTD/sodipodi-0.dtd"
   xmlns="http://www.w3.org/2000/svg"
   xmlns:svg="http://www.w3.org/2000/svg">
  <sodipodi:namedview
     id="namedview37"
     pagecolor="#ffffff"
     bordercolor="#000000"
     borderopacity="0.25"
     inkscape:showpageshadow="2"
     inkscape:pageopacity="0.0"
     inkscape:pagecheckerboard="0"
     inkscape:deskcolor="#d1d1d1"
     showgrid="false"
     inkscape:zoom="4.0941839"
     inkscape:cx="102.95092"
     inkscape:cy="106.24828"
     inkscape:window-width="1700"
     inkscape:window-height="1396"
     inkscape:window-x="8"
     inkscape:window-y="28"
     inkscape:window-maximized="1"
     inkscape:current-layer="svg18" />
  <defs
     id="defs22">
    <clipPath
       clipPathUnits="userSpaceOnUse"
       id="clipPath2796">
      <path
         d="M 0,340.157 H 226.772 V 0 H 0 Z"
         id="path2794" />
    </clipPath>
    <clipPath
       clipPathUnits="userSpaceOnUse"
       id="clipPath2804">
      <path
         d="M 246.772,340.157 H 473.544 V 0 H 246.772 Z"
         id="path2802" />
    </clipPath>
    <clipPath
       clipPathUnits="userSpaceOnUse"
       id="clipPath2812">
      <path
         d="M 246.772,0 H 473.544 V 340.157 H 246.772 Z"
         id="path2810" />
    </clipPath>
    <clipPath
       clipPathUnits="userSpaceOnUse"
       id="clipPath2820">
      <path
         d="M 246.772,340.157 H 473.544 V 0 H 246.772 Z"
         id="path2818" />
    </clipPath>
    <clipPath
       clipPathUnits="userSpaceOnUse"
       id="clipPath2828">
      <path
         d="m 438.313,-190.079 c 0,-43.163 -34.991,-78.155 -78.155,-78.155 -43.164,0 -78.155,34.992 -78.155,78.155 0,43.164 34.991,78.155 78.155,78.155 43.164,0 78.155,-34.991 78.155,-78.155"
         id="path2826" />
    </clipPath>
    <clipPath
       clipPathUnits="userSpaceOnUse"
       id="clipPath702936">
      <path
         d="M 0,340.157 H 226.772 V 0 H 0 Z"
         id="path702934" />
    </clipPath>
    <clipPath
       clipPathUnits="userSpaceOnUse"
       id="clipPath703010">
      <path
         d="M 0,340.157 H 226.772 V 0 H 0 Z"
         id="path703008" />
    </clipPath>
    <clipPath
       clipPathUnits="userSpaceOnUse"
       id="clipPath703120">
      <path
         d="M 0,-20 H 226.772 V -360.157 H 0 Z"
         id="path703118" />
    </clipPath>
    <clipPath
       clipPathUnits="userSpaceOnUse"
       id="clipPath703128">
      <path
         d="M 0,-360.157 H 226.772 V -20 H 0 Z"
         id="path703126" />
    </clipPath>
    <clipPath
       clipPathUnits="userSpaceOnUse"
       id="clipPath703136">
      <path
         d="M 0,-20 H 226.772 V -360.157 H 0 Z"
         id="path703134" />
    </clipPath>
    <clipPath
       clipPathUnits="userSpaceOnUse"
       id="clipPath703144">
      <path
         d="m 438.313,-190.078 c 0,-43.164 -34.992,-78.155 -78.156,-78.155 -43.163,0 -78.154,34.991 -78.154,78.155 0,43.164 34.991,78.155 78.154,78.155 43.164,0 78.156,-34.991 78.156,-78.155"
         id="path703142" />
    </clipPath>
    <clipPath
       clipPathUnits="userSpaceOnUse"
       id="clipPath703160">
      <path
         d="M 246.772,-20 H 473.544 V -360.157 H 246.772 Z"
         id="path703158" />
    </clipPath>
    <clipPath
       clipPathUnits="userSpaceOnUse"
       id="clipPath703168">
      <path
         d="M 246.772,-360.157 H 473.544 V -20 H 246.772 Z"
         id="path703166" />
    </clipPath>
    <clipPath
       clipPathUnits="userSpaceOnUse"
       id="clipPath703176">
      <path
         d="m 282.002,-190.079 c 0,-43.163 34.993,-78.154 78.156,-78.154 43.164,0 78.155,34.991 78.155,78.154 0,43.164 -34.991,78.156 -78.155,78.156 -43.163,0 -78.156,-34.992 -78.156,-78.156"
         id="path703174" />
    </clipPath>
    <clipPath
       clipPathUnits="userSpaceOnUse"
       id="clipPath720772">
      <g
         id="g720776"
         transform="matrix(0.75000002,0,0,-0.75000002,-117.18415,74.879174)">
        <path
           d="M -45.430862,-131.30857 H 256.9318 V 322.23409 H -45.430862 Z"
           id="path720774"
           style="stroke-width:1.33333" />
      </g>
    </clipPath>
    <clipPath
       clipPathUnits="userSpaceOnUse"
       id="clipPath720778">
      <g
         id="g720782"
         transform="matrix(0.75000002,0,0,-0.75000002,-78.789654,69.358173)">
        <path
           d="M -45.430862,-131.30857 H 256.9318 V 322.23409 H -45.430862 Z"
           id="path720780"
           style="stroke-width:1.33333" />
      </g>
    </clipPath>
    <clipPath
       clipPathUnits="userSpaceOnUse"
       id="clipPath720784">
      <g
         id="g720788"
         transform="matrix(0.75000002,0,0,-0.75000002,34.073147,241.67557)">
        <path
           d="M -45.430862,-131.30857 H 256.9318 V 322.23409 H -45.430862 Z"
           id="path720786"
           style="stroke-width:1.33333" />
      </g>
    </clipPath>
    <clipPath
       clipPathUnits="userSpaceOnUse"
       id="clipPath703262">
      <path
         d="M -246.772,-20 H -20 v -340.157 h -226.772 z"
         id="path703260" />
    </clipPath>
    <clipPath
       clipPathUnits="userSpaceOnUse"
       id="clipPath703270">
      <path
         d="M -246.772,-360.157 H -20 V -20 h -226.772 z"
         id="path703268" />
    </clipPath>
    <clipPath
       clipPathUnits="userSpaceOnUse"
       id="clipPath703278">
      <path
         d="M -246.772,-20 H -20 v -340.157 h -226.772 z"
         id="path703276" />
    </clipPath>
    <clipPath
       clipPathUnits="userSpaceOnUse"
       id="clipPath703286">
      <path
         d="m 191.541,-190.078 c 0,-43.164 -34.992,-78.155 -78.156,-78.155 -43.163,0 -78.154,34.991 -78.154,78.155 0,43.164 34.991,78.155 78.154,78.155 43.164,0 78.156,-34.991 78.156,-78.155"
         id="path703284" />
    </clipPath>
    <clipPath
       clipPathUnits="userSpaceOnUse"
       id="clipPath703298">
      <path
         d="M 0,-20 H 226.772 V -360.157 H 0 Z"
         id="path703296" />
    </clipPath>
    <clipPath
       clipPathUnits="userSpaceOnUse"
       id="clipPath703306">
      <path
         d="M 0,-360.157 H 226.772 V -20 H 0 Z"
         id="path703304" />
    </clipPath>
    <clipPath
       clipPathUnits="userSpaceOnUse"
       id="clipPath703314">
      <path
         d="m 35.23,-190.079 c 0,-43.163 34.993,-78.154 78.156,-78.154 43.164,0 78.155,34.991 78.155,78.154 0,43.164 -34.991,78.156 -78.155,78.156 -43.163,0 -78.156,-34.992 -78.156,-78.156"
         id="path703312" />
    </clipPath>
    <clipPath
       clipPathUnits="userSpaceOnUse"
       id="clipPath721254">
      <g
         id="g721258"
         transform="matrix(0.75000002,0,0,-0.75000002,-143.46681,15.486327)">
        <path
           d="M 8.3138826,-226.73543 H 310.67654 V 226.80723 H 8.3138826 Z"
           id="path721256"
           style="stroke-width:1.33333" />
      </g>
    </clipPath>
    <clipPath
       clipPathUnits="userSpaceOnUse"
       id="clipPath721260">
      <g
         id="g721264"
         transform="matrix(0.75000002,0,0,-0.75000002,-150.19041,29.105427)">
        <path
           d="M 8.3138826,-226.73543 H 310.67654 V 226.80723 H 8.3138826 Z"
           id="path721262"
           style="stroke-width:1.33333" />
      </g>
    </clipPath>
    <clipPath
       clipPathUnits="userSpaceOnUse"
       id="clipPath721266">
      <g
         id="g721270"
         transform="matrix(0.75000002,0,0,-0.75000002,-6.2354121,170.10543)">
        <path
           d="M 8.3138826,-226.73543 H 310.67654 V 226.80723 H 8.3138826 Z"
           id="path721268"
           style="stroke-width:1.33333" />
      </g>
    </clipPath>
    <clipPath
       clipPathUnits="userSpaceOnUse"
       id="clipPath703432">
      <path
         d="M 0,340.157 H 226.772 V 0 H 0 Z"
         id="path703430" />
    </clipPath>
    <clipPath
       clipPathUnits="userSpaceOnUse"
       id="clipPath703542">
      <path
         d="M 0,340.157 H 226.772 V 0 H 0 Z"
         id="path703540" />
    </clipPath>
    <clipPath
       clipPathUnits="userSpaceOnUse"
       id="clipPath713424">
      <path
         d="M 0,340.157 H 226.772 V 0 H 0 Z"
         id="path713422" />
    </clipPath>
    <clipPath
       clipPathUnits="userSpaceOnUse"
       id="clipPath713526">
      <path
         d="M 0,340.157 H 226.772 V 0 H 0 Z"
         id="path713524" />
    </clipPath>
    <clipPath
       clipPathUnits="userSpaceOnUse"
       id="clipPath713616">
      <path
         d="M 0,340.157 H 226.772 V 0 H 0 Z"
         id="path713614" />
    </clipPath>
    <clipPath
       clipPathUnits="userSpaceOnUse"
       id="clipPath713690">
      <path
         d="M 0,340.157 H 226.772 V 0 H 0 Z"
         id="path713688" />
    </clipPath>
  </defs>
  <g
     id="g713684"
     transform="matrix(1.3333333,0,0,-1.3333333,-1.1813296,314.21155)">
    <g
       id="g713686"
       clip-path="url(#clipPath713690)">
      <g
         id="g713692"
         transform="translate(119.1816,165.4166)">
        <path
           d="m 0,0 c -3.19,0 -5.573,0.307 -7.147,0.92 -1.575,0.613 -2.618,1.39 -3.129,2.331 -0.512,0.94 -0.766,1.881 -0.766,2.822 0,1.267 0.449,2.433 1.349,3.496 0.899,1.064 2.086,1.596 3.558,1.596 1.922,0 3.537,-0.951 4.846,-2.852 C 0.02,6.41 0.756,3.639 0.92,0 Z M 11.993,-0.645 C 11.358,-0.215 10.592,0 9.692,0 H 5.03 C 4.908,4.171 4.273,7.401 3.128,9.692 c -1.145,2.29 -2.505,3.885 -4.079,4.786 -1.575,0.899 -3.037,1.349 -4.386,1.349 -2.66,0 -4.929,-1.033 -6.81,-3.098 -1.881,-2.066 -2.822,-4.489 -2.822,-7.27 0,-1.881 0.408,-3.66 1.227,-5.337 0.818,-1.678 2.239,-3.036 4.263,-4.079 2.025,-1.043 4.878,-1.564 8.559,-1.564 h 1.227 c -0.859,-3.354 -2.475,-6.167 -4.847,-8.436 -2.372,-2.27 -5.297,-3.404 -8.773,-3.404 -1.84,0 -3.354,0.153 -4.539,0.46 -1.187,0.306 -2.291,0.746 -3.313,1.318 l -0.92,-3.864 c 2.249,-2.004 5.337,-3.006 9.263,-3.006 4.295,0 8.026,1.595 11.196,4.785 3.169,3.189 5.245,7.238 6.227,12.147 h 5.091 c 2.168,0 3.252,0.94 3.252,2.821 0,0.94 -0.318,1.626 -0.951,2.055"
           style="fill:#f91536;fill-opacity:1;fill-rule:nonzero;stroke:none"
           id="path713694" />
      </g>
      <g
         id="g713696"
         transform="translate(147.331,165.2935)">
        <path
           d="m 0,0 c 1.922,0 2.883,0.858 2.883,2.576 0,1.841 -0.644,3.732 -1.932,5.675 -1.288,1.942 -2.771,2.914 -4.448,2.914 -1.187,0 -2.25,-0.481 -3.19,-1.441 C -7.628,8.762 -8.527,6.891 -9.386,4.11 -8.201,3.046 -6.748,2.096 -5.031,1.258 -3.313,0.419 -1.636,0 0,0 m -0.246,-5.398 c -3.435,0 -7.157,1.512 -11.165,4.539 -0.777,-1.595 -1.687,-2.751 -2.73,-3.466 -1.043,-0.716 -2.484,-1.073 -4.324,-1.073 -0.941,0 -1.739,0.223 -2.393,0.674 -0.654,0.45 -0.982,1.165 -0.982,2.147 0,0.654 0.236,1.278 0.706,1.871 0.47,0.593 1.36,0.89 2.669,0.89 h 0.183 c 1.39,0 2.485,0.45 3.282,1.349 0.798,0.9 1.482,2.249 2.056,4.049 1.227,3.64 2.566,6.278 4.018,7.914 1.451,1.636 3.343,2.454 5.675,2.454 2.126,0 3.926,-0.726 5.398,-2.178 C 3.619,12.32 4.754,10.541 5.552,8.436 6.349,6.328 6.748,4.314 6.748,2.393 6.748,0.102 6.073,-1.77 4.724,-3.221 3.374,-4.673 1.718,-5.398 -0.246,-5.398 m -58.135,33.986 c 0,-2.086 -1.084,-3.212 -3.251,-3.374 -0.901,0 -1.647,0.307 -2.24,0.92 -0.593,0.613 -0.889,1.43 -0.889,2.454 0,0.94 0.296,1.726 0.889,2.361 0.593,0.634 1.359,0.951 2.301,0.951 1.922,0 2.985,-1.104 3.19,-3.312 m -7.117,-47.606 c -0.49,0 -1.502,0.092 -3.036,0.277 -1.534,0.183 -3.569,0.91 -6.104,2.178 l 0.675,3.742 c 0.653,-0.327 1.656,-0.716 3.005,-1.166 1.35,-0.45 2.639,-0.777 3.866,-0.982 0.04,-0.04 0.326,-0.061 0.859,-0.061 3.025,0 5.909,1.616 8.65,4.846 1.962,2.372 2.944,5.235 2.944,8.589 0,2.904 -0.552,6.032 -1.656,9.386 -0.205,0.695 -1.227,3.353 -3.068,7.975 l 4.356,2.332 c 0.245,-0.656 0.675,-1.944 1.288,-3.866 0.614,-1.922 1.267,-3.947 1.963,-6.073 0.9,-2.863 1.35,-5.807 1.35,-8.834 0,-0.491 -0.052,-1.748 -0.154,-3.773 -0.102,-2.025 -0.95,-4.263 -2.545,-6.717 -3.395,-4.948 -7.362,-7.546 -11.902,-7.791 z"
           style="fill:#1d1d1b;fill-opacity:1;fill-rule:nonzero;stroke:none"
           id="path713698" />
      </g>
    </g>
  </g>
</svg>
