<?xml version="1.0" encoding="UTF-8" standalone="no"?>
<!-- Created with Inkscape (http://www.inkscape.org/) -->

<svg
   version="1.1"
   id="svg18"
   width="300"
   height="150"
   viewBox="0 0 300.00002 150"
   sodipodi:docname="1134_word.svg"
   inkscape:version="1.2.1 (9c6d41e410, 2022-07-14)"
   xmlns:inkscape="http://www.inkscape.org/namespaces/inkscape"
   xmlns:sodipodi="http://sodipodi.sourceforge.net/DTD/sodipodi-0.dtd"
   xmlns="http://www.w3.org/2000/svg"
   xmlns:svg="http://www.w3.org/2000/svg">
  <sodipodi:namedview
     id="namedview37"
     pagecolor="#ffffff"
     bordercolor="#000000"
     borderopacity="0.25"
     inkscape:showpageshadow="2"
     inkscape:pageopacity="0.0"
     inkscape:pagecheckerboard="0"
     inkscape:deskcolor="#d1d1d1"
     showgrid="false"
     inkscape:zoom="4.0941839"
     inkscape:cx="102.95092"
     inkscape:cy="106.24828"
     inkscape:window-width="1700"
     inkscape:window-height="1396"
     inkscape:window-x="8"
     inkscape:window-y="28"
     inkscape:window-maximized="1"
     inkscape:current-layer="svg18" />
  <defs
     id="defs22">
    <clipPath
       clipPathUnits="userSpaceOnUse"
       id="clipPath2796">
      <path
         d="M 0,340.157 H 226.772 V 0 H 0 Z"
         id="path2794" />
    </clipPath>
    <clipPath
       clipPathUnits="userSpaceOnUse"
       id="clipPath2804">
      <path
         d="M 246.772,340.157 H 473.544 V 0 H 246.772 Z"
         id="path2802" />
    </clipPath>
    <clipPath
       clipPathUnits="userSpaceOnUse"
       id="clipPath2812">
      <path
         d="M 246.772,0 H 473.544 V 340.157 H 246.772 Z"
         id="path2810" />
    </clipPath>
    <clipPath
       clipPathUnits="userSpaceOnUse"
       id="clipPath2820">
      <path
         d="M 246.772,340.157 H 473.544 V 0 H 246.772 Z"
         id="path2818" />
    </clipPath>
    <clipPath
       clipPathUnits="userSpaceOnUse"
       id="clipPath2828">
      <path
         d="m 438.313,-190.079 c 0,-43.163 -34.991,-78.155 -78.155,-78.155 -43.164,0 -78.155,34.992 -78.155,78.155 0,43.164 34.991,78.155 78.155,78.155 43.164,0 78.155,-34.991 78.155,-78.155"
         id="path2826" />
    </clipPath>
    <clipPath
       clipPathUnits="userSpaceOnUse"
       id="clipPath702936">
      <path
         d="M 0,340.157 H 226.772 V 0 H 0 Z"
         id="path702934" />
    </clipPath>
    <clipPath
       clipPathUnits="userSpaceOnUse"
       id="clipPath703010">
      <path
         d="M 0,340.157 H 226.772 V 0 H 0 Z"
         id="path703008" />
    </clipPath>
    <clipPath
       clipPathUnits="userSpaceOnUse"
       id="clipPath703120">
      <path
         d="M 0,-20 H 226.772 V -360.157 H 0 Z"
         id="path703118" />
    </clipPath>
    <clipPath
       clipPathUnits="userSpaceOnUse"
       id="clipPath703128">
      <path
         d="M 0,-360.157 H 226.772 V -20 H 0 Z"
         id="path703126" />
    </clipPath>
    <clipPath
       clipPathUnits="userSpaceOnUse"
       id="clipPath703136">
      <path
         d="M 0,-20 H 226.772 V -360.157 H 0 Z"
         id="path703134" />
    </clipPath>
    <clipPath
       clipPathUnits="userSpaceOnUse"
       id="clipPath703144">
      <path
         d="m 438.313,-190.078 c 0,-43.164 -34.992,-78.155 -78.156,-78.155 -43.163,0 -78.154,34.991 -78.154,78.155 0,43.164 34.991,78.155 78.154,78.155 43.164,0 78.156,-34.991 78.156,-78.155"
         id="path703142" />
    </clipPath>
    <clipPath
       clipPathUnits="userSpaceOnUse"
       id="clipPath703160">
      <path
         d="M 246.772,-20 H 473.544 V -360.157 H 246.772 Z"
         id="path703158" />
    </clipPath>
    <clipPath
       clipPathUnits="userSpaceOnUse"
       id="clipPath703168">
      <path
         d="M 246.772,-360.157 H 473.544 V -20 H 246.772 Z"
         id="path703166" />
    </clipPath>
    <clipPath
       clipPathUnits="userSpaceOnUse"
       id="clipPath703176">
      <path
         d="m 282.002,-190.079 c 0,-43.163 34.993,-78.154 78.156,-78.154 43.164,0 78.155,34.991 78.155,78.154 0,43.164 -34.991,78.156 -78.155,78.156 -43.163,0 -78.156,-34.992 -78.156,-78.156"
         id="path703174" />
    </clipPath>
    <clipPath
       clipPathUnits="userSpaceOnUse"
       id="clipPath720772">
      <g
         id="g720776"
         transform="matrix(0.75000002,0,0,-0.75000002,-117.18415,74.879174)">
        <path
           d="M -45.430862,-131.30857 H 256.9318 V 322.23409 H -45.430862 Z"
           id="path720774"
           style="stroke-width:1.33333" />
      </g>
    </clipPath>
    <clipPath
       clipPathUnits="userSpaceOnUse"
       id="clipPath720778">
      <g
         id="g720782"
         transform="matrix(0.75000002,0,0,-0.75000002,-78.789654,69.358173)">
        <path
           d="M -45.430862,-131.30857 H 256.9318 V 322.23409 H -45.430862 Z"
           id="path720780"
           style="stroke-width:1.33333" />
      </g>
    </clipPath>
    <clipPath
       clipPathUnits="userSpaceOnUse"
       id="clipPath720784">
      <g
         id="g720788"
         transform="matrix(0.75000002,0,0,-0.75000002,34.073147,241.67557)">
        <path
           d="M -45.430862,-131.30857 H 256.9318 V 322.23409 H -45.430862 Z"
           id="path720786"
           style="stroke-width:1.33333" />
      </g>
    </clipPath>
    <clipPath
       clipPathUnits="userSpaceOnUse"
       id="clipPath703262">
      <path
         d="M -246.772,-20 H -20 v -340.157 h -226.772 z"
         id="path703260" />
    </clipPath>
    <clipPath
       clipPathUnits="userSpaceOnUse"
       id="clipPath703270">
      <path
         d="M -246.772,-360.157 H -20 V -20 h -226.772 z"
         id="path703268" />
    </clipPath>
    <clipPath
       clipPathUnits="userSpaceOnUse"
       id="clipPath703278">
      <path
         d="M -246.772,-20 H -20 v -340.157 h -226.772 z"
         id="path703276" />
    </clipPath>
    <clipPath
       clipPathUnits="userSpaceOnUse"
       id="clipPath703286">
      <path
         d="m 191.541,-190.078 c 0,-43.164 -34.992,-78.155 -78.156,-78.155 -43.163,0 -78.154,34.991 -78.154,78.155 0,43.164 34.991,78.155 78.154,78.155 43.164,0 78.156,-34.991 78.156,-78.155"
         id="path703284" />
    </clipPath>
    <clipPath
       clipPathUnits="userSpaceOnUse"
       id="clipPath703298">
      <path
         d="M 0,-20 H 226.772 V -360.157 H 0 Z"
         id="path703296" />
    </clipPath>
    <clipPath
       clipPathUnits="userSpaceOnUse"
       id="clipPath703306">
      <path
         d="M 0,-360.157 H 226.772 V -20 H 0 Z"
         id="path703304" />
    </clipPath>
    <clipPath
       clipPathUnits="userSpaceOnUse"
       id="clipPath703314">
      <path
         d="m 35.23,-190.079 c 0,-43.163 34.993,-78.154 78.156,-78.154 43.164,0 78.155,34.991 78.155,78.154 0,43.164 -34.991,78.156 -78.155,78.156 -43.163,0 -78.156,-34.992 -78.156,-78.156"
         id="path703312" />
    </clipPath>
    <clipPath
       clipPathUnits="userSpaceOnUse"
       id="clipPath721254">
      <g
         id="g721258"
         transform="matrix(0.75000002,0,0,-0.75000002,-143.46681,15.486327)">
        <path
           d="M 8.3138826,-226.73543 H 310.67654 V 226.80723 H 8.3138826 Z"
           id="path721256"
           style="stroke-width:1.33333" />
      </g>
    </clipPath>
    <clipPath
       clipPathUnits="userSpaceOnUse"
       id="clipPath721260">
      <g
         id="g721264"
         transform="matrix(0.75000002,0,0,-0.75000002,-150.19041,29.105427)">
        <path
           d="M 8.3138826,-226.73543 H 310.67654 V 226.80723 H 8.3138826 Z"
           id="path721262"
           style="stroke-width:1.33333" />
      </g>
    </clipPath>
    <clipPath
       clipPathUnits="userSpaceOnUse"
       id="clipPath721266">
      <g
         id="g721270"
         transform="matrix(0.75000002,0,0,-0.75000002,-6.2354121,170.10543)">
        <path
           d="M 8.3138826,-226.73543 H 310.67654 V 226.80723 H 8.3138826 Z"
           id="path721268"
           style="stroke-width:1.33333" />
      </g>
    </clipPath>
    <clipPath
       clipPathUnits="userSpaceOnUse"
       id="clipPath703432">
      <path
         d="M 0,340.157 H 226.772 V 0 H 0 Z"
         id="path703430" />
    </clipPath>
    <clipPath
       clipPathUnits="userSpaceOnUse"
       id="clipPath703542">
      <path
         d="M 0,340.157 H 226.772 V 0 H 0 Z"
         id="path703540" />
    </clipPath>
    <clipPath
       clipPathUnits="userSpaceOnUse"
       id="clipPath713424">
      <path
         d="M 0,340.157 H 226.772 V 0 H 0 Z"
         id="path713422" />
    </clipPath>
    <clipPath
       clipPathUnits="userSpaceOnUse"
       id="clipPath713526">
      <path
         d="M 0,340.157 H 226.772 V 0 H 0 Z"
         id="path713524" />
    </clipPath>
    <clipPath
       clipPathUnits="userSpaceOnUse"
       id="clipPath713616">
      <path
         d="M 0,340.157 H 226.772 V 0 H 0 Z"
         id="path713614" />
    </clipPath>
    <clipPath
       clipPathUnits="userSpaceOnUse"
       id="clipPath713690">
      <path
         d="M 0,340.157 H 226.772 V 0 H 0 Z"
         id="path713688" />
    </clipPath>
    <clipPath
       clipPathUnits="userSpaceOnUse"
       id="clipPath713764">
      <path
         d="M 0,340.157 H 226.772 V 0 H 0 Z"
         id="path713762" />
    </clipPath>
  </defs>
  <g
     id="g713758"
     transform="matrix(1.3333333,0,0,-1.3333333,-1.1815962,309.58591)">
    <g
       id="g713760"
       clip-path="url(#clipPath713764)">
      <g
         id="g713766"
         transform="translate(153.1767,193.0836)">
        <path
           d="m 0,0 c 0,-2.086 -1.085,-3.211 -3.252,-3.374 -0.9,0 -1.646,0.307 -2.239,0.92 -0.593,0.613 -0.89,1.432 -0.89,2.454 0,0.94 0.297,1.728 0.89,2.362 0.593,0.633 1.359,0.951 2.301,0.951 C -1.269,3.313 -0.205,2.209 0,0 m -7.116,-47.605 c -0.491,0 -1.504,0.091 -3.037,0.276 -1.534,0.183 -3.569,0.91 -6.105,2.178 l 0.675,3.742 c 0.654,-0.327 1.657,-0.715 3.007,-1.166 1.349,-0.449 2.638,-0.777 3.864,-0.982 0.04,-0.04 0.327,-0.06 0.859,-0.06 3.026,0 5.91,1.615 8.65,4.846 1.963,2.373 2.945,5.234 2.945,8.588 0,2.904 -0.553,6.033 -1.657,9.386 -0.205,0.695 -1.227,3.354 -3.067,7.976 l 4.356,2.331 c 0.245,-0.655 0.675,-1.944 1.288,-3.865 0.613,-1.923 1.267,-3.948 1.963,-6.074 0.899,-2.863 1.35,-5.807 1.35,-8.834 0,-0.49 -0.052,-1.748 -0.154,-3.772 -0.102,-2.025 -0.951,-4.264 -2.546,-6.718 -3.395,-4.948 -7.361,-7.546 -11.901,-7.791 z m -49.828,42.758 c 0,-2.004 -1.043,-3.088 -3.129,-3.251 -0.9,0 -1.625,0.286 -2.177,0.859 -0.553,0.572 -0.829,1.37 -0.829,2.392 0,1.964 1.002,3.047 3.006,3.252 1.922,0 2.965,-1.084 3.129,-3.252 m -8.221,0 c 0,-2.004 -1.043,-3.088 -3.128,-3.251 -0.9,0 -1.647,0.286 -2.239,0.859 -0.593,0.572 -0.89,1.37 -0.89,2.392 0,1.964 1.043,3.047 3.129,3.252 0.94,0 1.696,-0.298 2.27,-0.889 0.572,-0.594 0.858,-1.381 0.858,-2.363 m -1.533,-30.489 c -6.422,0 -11.472,1.319 -15.153,3.957 -3.681,2.638 -5.583,6.778 -5.705,12.423 0,2.903 0.43,5.438 1.288,7.606 l 3.374,-0.613 c -0.45,-1.636 -0.674,-3.374 -0.674,-5.214 0,-8.344 5.786,-12.515 17.36,-12.515 3.518,0 6.657,0.265 9.417,0.797 2.761,0.532 5.092,1.156 6.994,1.872 1.901,0.714 3.343,1.4 4.325,2.055 -0.123,0.982 -0.184,1.84 -0.184,2.576 0,1.186 0.224,2.556 0.675,4.111 l 3.619,0.368 c -0.205,-1.105 -0.306,-2.209 -0.306,-3.313 0,-4.622 2.432,-7.014 7.3,-7.177 v -0.062 c 0.899,0 1.677,-0.215 2.331,-0.644 0.653,-0.429 0.981,-1.115 0.981,-2.055 0,-1.882 -1.104,-2.822 -3.312,-2.822 -4.622,0 -7.812,1.534 -9.57,4.601 -2.659,-1.76 -5.9,-3.19 -9.724,-4.295 -3.824,-1.104 -8.17,-1.656 -13.036,-1.656"
           style="fill:#f91536;fill-opacity:1;fill-rule:nonzero;stroke:none"
           id="path713768" />
      </g>
      <g
         id="g713770"
         transform="translate(119.6699,159.0973)">
        <path
           d="m 0,0 h -0.921 c -2.044,0 -3.067,0.961 -3.067,2.884 0,0.572 0.215,1.165 0.644,1.778 0.43,0.614 1.238,0.921 2.423,0.921 h 1.228 c 4.417,0 7.299,0.47 8.649,1.411 l 0.123,0.49 c 0.163,0.532 0.245,1.166 0.245,1.902 0,0.736 -0.143,1.472 -0.428,2.209 -0.288,0.736 -0.82,1.718 -1.596,2.944 l -1.043,1.779 4.478,1.78 c 1.799,-3.355 2.7,-6.729 2.7,-10.122 0,-1.678 -0.329,-3.334 -0.982,-4.97 C 11.717,2.229 10.49,1.534 8.772,0.92 7.055,0.307 4.13,0 0,0"
           style="fill:#1d1d1b;fill-opacity:1;fill-rule:nonzero;stroke:none"
           id="path713772" />
      </g>
      <g
         id="g713774"
         transform="translate(125.5585,147.0123)">
        <path
           d="m 0,0 c 0,-1.963 -1.043,-3.047 -3.128,-3.252 -0.9,0 -1.647,0.287 -2.239,0.859 -0.594,0.574 -0.89,1.371 -0.89,2.393 0,1.963 1.043,3.047 3.129,3.251 0.899,0 1.646,-0.296 2.238,-0.89 C -0.297,1.77 0,0.981 0,0"
           style="fill:#1d1d1b;fill-opacity:1;fill-rule:nonzero;stroke:none"
           id="path713776" />
      </g>
      <g
         id="g713778"
         transform="translate(133.7792,147.0123)">
        <path
           d="m 0,0 c 0,-1.963 -1.043,-3.047 -3.129,-3.252 -1.84,0 -2.843,1.084 -3.006,3.252 0,1.963 1.002,3.047 3.006,3.251 0.941,0 1.697,-0.296 2.271,-0.89 C -0.286,1.77 0,0.981 0,0"
           style="fill:#1d1d1b;fill-opacity:1;fill-rule:nonzero;stroke:none"
           id="path713780" />
      </g>
    </g>
  </g>
</svg>
