<?xml version="1.0" encoding="UTF-8" standalone="no"?>
<!-- Created with Inkscape (http://www.inkscape.org/) -->

<svg
   version="1.1"
   id="svg18"
   width="300"
   height="150"
   viewBox="0 0 300.00002 150"
   sodipodi:docname="1135_word.svg"
   inkscape:version="1.2.1 (9c6d41e410, 2022-07-14)"
   xmlns:inkscape="http://www.inkscape.org/namespaces/inkscape"
   xmlns:sodipodi="http://sodipodi.sourceforge.net/DTD/sodipodi-0.dtd"
   xmlns="http://www.w3.org/2000/svg"
   xmlns:svg="http://www.w3.org/2000/svg">
  <sodipodi:namedview
     id="namedview37"
     pagecolor="#ffffff"
     bordercolor="#000000"
     borderopacity="0.25"
     inkscape:showpageshadow="2"
     inkscape:pageopacity="0.0"
     inkscape:pagecheckerboard="0"
     inkscape:deskcolor="#d1d1d1"
     showgrid="false"
     inkscape:zoom="4.0941839"
     inkscape:cx="102.95092"
     inkscape:cy="106.24828"
     inkscape:window-width="1700"
     inkscape:window-height="1396"
     inkscape:window-x="8"
     inkscape:window-y="28"
     inkscape:window-maximized="1"
     inkscape:current-layer="svg18" />
  <defs
     id="defs22">
    <clipPath
       clipPathUnits="userSpaceOnUse"
       id="clipPath2796">
      <path
         d="M 0,340.157 H 226.772 V 0 H 0 Z"
         id="path2794" />
    </clipPath>
    <clipPath
       clipPathUnits="userSpaceOnUse"
       id="clipPath2804">
      <path
         d="M 246.772,340.157 H 473.544 V 0 H 246.772 Z"
         id="path2802" />
    </clipPath>
    <clipPath
       clipPathUnits="userSpaceOnUse"
       id="clipPath2812">
      <path
         d="M 246.772,0 H 473.544 V 340.157 H 246.772 Z"
         id="path2810" />
    </clipPath>
    <clipPath
       clipPathUnits="userSpaceOnUse"
       id="clipPath2820">
      <path
         d="M 246.772,340.157 H 473.544 V 0 H 246.772 Z"
         id="path2818" />
    </clipPath>
    <clipPath
       clipPathUnits="userSpaceOnUse"
       id="clipPath2828">
      <path
         d="m 438.313,-190.079 c 0,-43.163 -34.991,-78.155 -78.155,-78.155 -43.164,0 -78.155,34.992 -78.155,78.155 0,43.164 34.991,78.155 78.155,78.155 43.164,0 78.155,-34.991 78.155,-78.155"
         id="path2826" />
    </clipPath>
    <clipPath
       clipPathUnits="userSpaceOnUse"
       id="clipPath702936">
      <path
         d="M 0,340.157 H 226.772 V 0 H 0 Z"
         id="path702934" />
    </clipPath>
    <clipPath
       clipPathUnits="userSpaceOnUse"
       id="clipPath703010">
      <path
         d="M 0,340.157 H 226.772 V 0 H 0 Z"
         id="path703008" />
    </clipPath>
    <clipPath
       clipPathUnits="userSpaceOnUse"
       id="clipPath703120">
      <path
         d="M 0,-20 H 226.772 V -360.157 H 0 Z"
         id="path703118" />
    </clipPath>
    <clipPath
       clipPathUnits="userSpaceOnUse"
       id="clipPath703128">
      <path
         d="M 0,-360.157 H 226.772 V -20 H 0 Z"
         id="path703126" />
    </clipPath>
    <clipPath
       clipPathUnits="userSpaceOnUse"
       id="clipPath703136">
      <path
         d="M 0,-20 H 226.772 V -360.157 H 0 Z"
         id="path703134" />
    </clipPath>
    <clipPath
       clipPathUnits="userSpaceOnUse"
       id="clipPath703144">
      <path
         d="m 438.313,-190.078 c 0,-43.164 -34.992,-78.155 -78.156,-78.155 -43.163,0 -78.154,34.991 -78.154,78.155 0,43.164 34.991,78.155 78.154,78.155 43.164,0 78.156,-34.991 78.156,-78.155"
         id="path703142" />
    </clipPath>
    <clipPath
       clipPathUnits="userSpaceOnUse"
       id="clipPath703160">
      <path
         d="M 246.772,-20 H 473.544 V -360.157 H 246.772 Z"
         id="path703158" />
    </clipPath>
    <clipPath
       clipPathUnits="userSpaceOnUse"
       id="clipPath703168">
      <path
         d="M 246.772,-360.157 H 473.544 V -20 H 246.772 Z"
         id="path703166" />
    </clipPath>
    <clipPath
       clipPathUnits="userSpaceOnUse"
       id="clipPath703176">
      <path
         d="m 282.002,-190.079 c 0,-43.163 34.993,-78.154 78.156,-78.154 43.164,0 78.155,34.991 78.155,78.154 0,43.164 -34.991,78.156 -78.155,78.156 -43.163,0 -78.156,-34.992 -78.156,-78.156"
         id="path703174" />
    </clipPath>
    <clipPath
       clipPathUnits="userSpaceOnUse"
       id="clipPath720772">
      <g
         id="g720776"
         transform="matrix(0.75000002,0,0,-0.75000002,-117.18415,74.879174)">
        <path
           d="M -45.430862,-131.30857 H 256.9318 V 322.23409 H -45.430862 Z"
           id="path720774"
           style="stroke-width:1.33333" />
      </g>
    </clipPath>
    <clipPath
       clipPathUnits="userSpaceOnUse"
       id="clipPath720778">
      <g
         id="g720782"
         transform="matrix(0.75000002,0,0,-0.75000002,-78.789654,69.358173)">
        <path
           d="M -45.430862,-131.30857 H 256.9318 V 322.23409 H -45.430862 Z"
           id="path720780"
           style="stroke-width:1.33333" />
      </g>
    </clipPath>
    <clipPath
       clipPathUnits="userSpaceOnUse"
       id="clipPath720784">
      <g
         id="g720788"
         transform="matrix(0.75000002,0,0,-0.75000002,34.073147,241.67557)">
        <path
           d="M -45.430862,-131.30857 H 256.9318 V 322.23409 H -45.430862 Z"
           id="path720786"
           style="stroke-width:1.33333" />
      </g>
    </clipPath>
    <clipPath
       clipPathUnits="userSpaceOnUse"
       id="clipPath703262">
      <path
         d="M -246.772,-20 H -20 v -340.157 h -226.772 z"
         id="path703260" />
    </clipPath>
    <clipPath
       clipPathUnits="userSpaceOnUse"
       id="clipPath703270">
      <path
         d="M -246.772,-360.157 H -20 V -20 h -226.772 z"
         id="path703268" />
    </clipPath>
    <clipPath
       clipPathUnits="userSpaceOnUse"
       id="clipPath703278">
      <path
         d="M -246.772,-20 H -20 v -340.157 h -226.772 z"
         id="path703276" />
    </clipPath>
    <clipPath
       clipPathUnits="userSpaceOnUse"
       id="clipPath703286">
      <path
         d="m 191.541,-190.078 c 0,-43.164 -34.992,-78.155 -78.156,-78.155 -43.163,0 -78.154,34.991 -78.154,78.155 0,43.164 34.991,78.155 78.154,78.155 43.164,0 78.156,-34.991 78.156,-78.155"
         id="path703284" />
    </clipPath>
    <clipPath
       clipPathUnits="userSpaceOnUse"
       id="clipPath703298">
      <path
         d="M 0,-20 H 226.772 V -360.157 H 0 Z"
         id="path703296" />
    </clipPath>
    <clipPath
       clipPathUnits="userSpaceOnUse"
       id="clipPath703306">
      <path
         d="M 0,-360.157 H 226.772 V -20 H 0 Z"
         id="path703304" />
    </clipPath>
    <clipPath
       clipPathUnits="userSpaceOnUse"
       id="clipPath703314">
      <path
         d="m 35.23,-190.079 c 0,-43.163 34.993,-78.154 78.156,-78.154 43.164,0 78.155,34.991 78.155,78.154 0,43.164 -34.991,78.156 -78.155,78.156 -43.163,0 -78.156,-34.992 -78.156,-78.156"
         id="path703312" />
    </clipPath>
    <clipPath
       clipPathUnits="userSpaceOnUse"
       id="clipPath721254">
      <g
         id="g721258"
         transform="matrix(0.75000002,0,0,-0.75000002,-143.46681,15.486327)">
        <path
           d="M 8.3138826,-226.73543 H 310.67654 V 226.80723 H 8.3138826 Z"
           id="path721256"
           style="stroke-width:1.33333" />
      </g>
    </clipPath>
    <clipPath
       clipPathUnits="userSpaceOnUse"
       id="clipPath721260">
      <g
         id="g721264"
         transform="matrix(0.75000002,0,0,-0.75000002,-150.19041,29.105427)">
        <path
           d="M 8.3138826,-226.73543 H 310.67654 V 226.80723 H 8.3138826 Z"
           id="path721262"
           style="stroke-width:1.33333" />
      </g>
    </clipPath>
    <clipPath
       clipPathUnits="userSpaceOnUse"
       id="clipPath721266">
      <g
         id="g721270"
         transform="matrix(0.75000002,0,0,-0.75000002,-6.2354121,170.10543)">
        <path
           d="M 8.3138826,-226.73543 H 310.67654 V 226.80723 H 8.3138826 Z"
           id="path721268"
           style="stroke-width:1.33333" />
      </g>
    </clipPath>
    <clipPath
       clipPathUnits="userSpaceOnUse"
       id="clipPath703432">
      <path
         d="M 0,340.157 H 226.772 V 0 H 0 Z"
         id="path703430" />
    </clipPath>
    <clipPath
       clipPathUnits="userSpaceOnUse"
       id="clipPath703542">
      <path
         d="M 0,340.157 H 226.772 V 0 H 0 Z"
         id="path703540" />
    </clipPath>
    <clipPath
       clipPathUnits="userSpaceOnUse"
       id="clipPath713424">
      <path
         d="M 0,340.157 H 226.772 V 0 H 0 Z"
         id="path713422" />
    </clipPath>
    <clipPath
       clipPathUnits="userSpaceOnUse"
       id="clipPath713526">
      <path
         d="M 0,340.157 H 226.772 V 0 H 0 Z"
         id="path713524" />
    </clipPath>
    <clipPath
       clipPathUnits="userSpaceOnUse"
       id="clipPath713616">
      <path
         d="M 0,340.157 H 226.772 V 0 H 0 Z"
         id="path713614" />
    </clipPath>
    <clipPath
       clipPathUnits="userSpaceOnUse"
       id="clipPath713690">
      <path
         d="M 0,340.157 H 226.772 V 0 H 0 Z"
         id="path713688" />
    </clipPath>
    <clipPath
       clipPathUnits="userSpaceOnUse"
       id="clipPath713764">
      <path
         d="M 0,340.157 H 226.772 V 0 H 0 Z"
         id="path713762" />
    </clipPath>
    <clipPath
       clipPathUnits="userSpaceOnUse"
       id="clipPath713874">
      <path
         d="M 0,340.157 H 226.772 V 0 H 0 Z"
         id="path713872" />
    </clipPath>
  </defs>
  <g
     id="g713868"
     transform="matrix(1.3333333,0,0,-1.3333333,-1.1809296,316.43814)">
    <g
       id="g713870"
       clip-path="url(#clipPath713874)">
      <g
         id="g713876"
         transform="translate(117.3656,168.4225)">
        <path
           d="m 0,0 c -3.189,0 -5.572,0.307 -7.146,0.92 -1.576,0.613 -2.619,1.39 -3.129,2.331 -0.512,0.94 -0.767,1.881 -0.767,2.822 0,1.267 0.449,2.433 1.35,3.497 0.898,1.063 2.086,1.595 3.557,1.595 1.922,0 3.537,-0.951 4.847,-2.852 C 0.021,6.41 0.757,3.64 0.921,0 Z M 11.993,-0.645 C 11.359,-0.215 10.592,0 9.693,0 H 5.03 C 4.908,4.171 4.273,7.401 3.129,9.692 c -1.146,2.29 -2.506,3.885 -4.079,4.786 -1.575,0.899 -3.037,1.349 -4.387,1.349 -2.659,0 -4.929,-1.033 -6.809,-3.098 -1.882,-2.066 -2.823,-4.489 -2.823,-7.269 0,-1.882 0.408,-3.661 1.228,-5.338 0.817,-1.677 2.239,-3.036 4.263,-4.079 2.025,-1.043 4.877,-1.564 8.558,-1.564 h 1.227 c -0.859,-3.354 -2.475,-6.166 -4.846,-8.436 -2.373,-2.27 -5.297,-3.404 -8.774,-3.404 -1.839,0 -3.353,0.153 -4.539,0.46 -1.186,0.306 -2.291,0.747 -3.312,1.319 l -0.921,-3.865 c 2.249,-2.003 5.338,-3.006 9.264,-3.006 4.294,0 8.026,1.595 11.196,4.785 3.169,3.189 5.245,7.238 6.227,12.147 h 5.091 c 2.167,0 3.251,0.94 3.251,2.822 0,0.94 -0.317,1.625 -0.951,2.054"
           style="fill:#1d1d1b;fill-opacity:1;fill-rule:nonzero;stroke:none"
           id="path713878" />
      </g>
      <g
         id="g713880"
         transform="translate(151.5277,196.5807)">
        <path
           d="m 0,0 c 0,-2.086 -1.084,-3.211 -3.252,-3.374 -0.899,0 -1.646,0.307 -2.239,0.92 -0.593,0.613 -0.889,1.431 -0.889,2.454 0,0.94 0.296,1.728 0.889,2.361 0.593,0.634 1.359,0.952 2.301,0.952 C -1.269,3.313 -0.205,2.208 0,0 m -23.803,-33.68 h -0.675 c -1.022,0 -1.799,0.266 -2.331,0.798 -0.531,0.53 -0.797,1.186 -0.797,1.963 0,0.694 0.235,1.339 0.705,1.933 0.47,0.591 1.279,0.888 2.423,0.888 h 0.737 c 7.892,0 14.824,1.351 20.796,4.05 l 2.147,0.982 c 1.636,0.776 3.068,1.369 4.294,1.778 -1.35,0.491 -2.802,1.084 -4.355,1.779 -1.963,0.9 -3.998,1.728 -6.104,2.485 -2.107,0.756 -4.121,1.135 -6.043,1.135 -3.231,0 -5.972,-0.47 -8.221,-1.411 l 0.86,5.03 c 1.963,0.9 4.436,1.35 7.423,1.35 2.616,0 5.132,-0.43 7.546,-1.288 2.412,-0.859 4.785,-1.841 7.116,-2.945 2.821,-1.268 4.845,-2.066 6.073,-2.393 1.227,-0.327 2.433,-0.49 3.619,-0.49 h 2.27 l -0.859,-5.092 H 11.84 c -2.822,0 -6.38,-1.309 -10.675,-3.927 -4.417,-2.576 -8.518,-4.324 -12.3,-5.245 -3.783,-0.92 -8.006,-1.38 -12.668,-1.38 M -68.124,0.858 c 0,-2.086 -1.084,-3.211 -3.251,-3.374 -0.9,0 -1.647,0.307 -2.239,0.92 -0.594,0.615 -0.89,1.432 -0.89,2.454 0,0.941 0.296,1.728 0.89,2.363 0.592,0.633 1.358,0.95 2.3,0.95 1.921,0 2.985,-1.104 3.19,-3.313 m 10.613,-56.991 c -2.209,-0.695 -4.887,-1.043 -8.037,-1.043 -4.539,0 -8.66,0.716 -12.361,2.148 -3.701,1.431 -6.636,3.549 -8.803,6.349 -2.169,2.802 -3.252,6.247 -3.252,10.337 0,3.027 0.706,5.684 2.117,7.975 1.41,2.29 3.23,4.243 5.459,5.858 2.23,1.615 4.622,2.905 7.178,3.865 2.556,0.961 5.021,1.626 7.393,1.995 l -1.963,0.736 c -1.473,0.613 -3.232,1.236 -5.277,1.87 -2.045,0.634 -4.151,0.951 -6.318,0.951 -3.19,0 -5.95,-0.532 -8.282,-1.595 l 1.043,5.276 c 0.776,0.368 1.738,0.684 2.884,0.951 1.144,0.266 2.739,0.398 4.785,0.398 2.454,0 4.866,-0.377 7.238,-1.134 2.372,-0.757 4.642,-1.585 6.81,-2.485 l 2.331,-0.92 c 2.372,-1.104 4.376,-1.656 6.012,-1.656 l 3.129,-0.061 -1.289,-5.399 c -0.981,0.122 -2.474,0.184 -4.477,0.184 -2.373,0 -4.807,-0.307 -7.301,-0.92 -2.945,-0.696 -5.644,-1.729 -8.098,-3.099 -2.454,-1.37 -4.438,-3.077 -5.951,-5.122 -1.513,-2.046 -2.27,-4.437 -2.27,-7.178 0,-3.189 0.971,-5.847 2.915,-7.974 1.942,-2.126 4.529,-3.722 7.76,-4.785 3.231,-1.064 6.768,-1.596 10.613,-1.596 2.249,0 4.928,0.287 8.037,0.859 z"
           style="fill:#f91536;fill-opacity:1;fill-rule:nonzero;stroke:none"
           id="path713882" />
      </g>
    </g>
  </g>
</svg>
