<?xml version="1.0" encoding="UTF-8" standalone="no"?>
<!-- Created with Inkscape (http://www.inkscape.org/) -->

<svg
   version="1.1"
   id="svg18"
   width="300"
   height="150"
   viewBox="0 0 300.00002 150"
   sodipodi:docname="1140_word.svg"
   inkscape:version="1.2.1 (9c6d41e410, 2022-07-14)"
   xmlns:inkscape="http://www.inkscape.org/namespaces/inkscape"
   xmlns:sodipodi="http://sodipodi.sourceforge.net/DTD/sodipodi-0.dtd"
   xmlns="http://www.w3.org/2000/svg"
   xmlns:svg="http://www.w3.org/2000/svg">
  <sodipodi:namedview
     id="namedview37"
     pagecolor="#ffffff"
     bordercolor="#000000"
     borderopacity="0.25"
     inkscape:showpageshadow="2"
     inkscape:pageopacity="0.0"
     inkscape:pagecheckerboard="0"
     inkscape:deskcolor="#d1d1d1"
     showgrid="false"
     inkscape:zoom="11.580101"
     inkscape:cx="165.5426"
     inkscape:cy="82.123638"
     inkscape:window-width="1700"
     inkscape:window-height="1396"
     inkscape:window-x="8"
     inkscape:window-y="28"
     inkscape:window-maximized="1"
     inkscape:current-layer="svg18" />
  <defs
     id="defs22">
    <clipPath
       clipPathUnits="userSpaceOnUse"
       id="clipPath2796">
      <path
         d="M 0,340.157 H 226.772 V 0 H 0 Z"
         id="path2794" />
    </clipPath>
    <clipPath
       clipPathUnits="userSpaceOnUse"
       id="clipPath2804">
      <path
         d="M 246.772,340.157 H 473.544 V 0 H 246.772 Z"
         id="path2802" />
    </clipPath>
    <clipPath
       clipPathUnits="userSpaceOnUse"
       id="clipPath2812">
      <path
         d="M 246.772,0 H 473.544 V 340.157 H 246.772 Z"
         id="path2810" />
    </clipPath>
    <clipPath
       clipPathUnits="userSpaceOnUse"
       id="clipPath2820">
      <path
         d="M 246.772,340.157 H 473.544 V 0 H 246.772 Z"
         id="path2818" />
    </clipPath>
    <clipPath
       clipPathUnits="userSpaceOnUse"
       id="clipPath2828">
      <path
         d="m 438.313,-190.079 c 0,-43.163 -34.991,-78.155 -78.155,-78.155 -43.164,0 -78.155,34.992 -78.155,78.155 0,43.164 34.991,78.155 78.155,78.155 43.164,0 78.155,-34.991 78.155,-78.155"
         id="path2826" />
    </clipPath>
    <clipPath
       clipPathUnits="userSpaceOnUse"
       id="clipPath702936">
      <path
         d="M 0,340.157 H 226.772 V 0 H 0 Z"
         id="path702934" />
    </clipPath>
    <clipPath
       clipPathUnits="userSpaceOnUse"
       id="clipPath703010">
      <path
         d="M 0,340.157 H 226.772 V 0 H 0 Z"
         id="path703008" />
    </clipPath>
    <clipPath
       clipPathUnits="userSpaceOnUse"
       id="clipPath703120">
      <path
         d="M 0,-20 H 226.772 V -360.157 H 0 Z"
         id="path703118" />
    </clipPath>
    <clipPath
       clipPathUnits="userSpaceOnUse"
       id="clipPath703128">
      <path
         d="M 0,-360.157 H 226.772 V -20 H 0 Z"
         id="path703126" />
    </clipPath>
    <clipPath
       clipPathUnits="userSpaceOnUse"
       id="clipPath703136">
      <path
         d="M 0,-20 H 226.772 V -360.157 H 0 Z"
         id="path703134" />
    </clipPath>
    <clipPath
       clipPathUnits="userSpaceOnUse"
       id="clipPath703144">
      <path
         d="m 438.313,-190.078 c 0,-43.164 -34.992,-78.155 -78.156,-78.155 -43.163,0 -78.154,34.991 -78.154,78.155 0,43.164 34.991,78.155 78.154,78.155 43.164,0 78.156,-34.991 78.156,-78.155"
         id="path703142" />
    </clipPath>
    <clipPath
       clipPathUnits="userSpaceOnUse"
       id="clipPath703160">
      <path
         d="M 246.772,-20 H 473.544 V -360.157 H 246.772 Z"
         id="path703158" />
    </clipPath>
    <clipPath
       clipPathUnits="userSpaceOnUse"
       id="clipPath703168">
      <path
         d="M 246.772,-360.157 H 473.544 V -20 H 246.772 Z"
         id="path703166" />
    </clipPath>
    <clipPath
       clipPathUnits="userSpaceOnUse"
       id="clipPath703176">
      <path
         d="m 282.002,-190.079 c 0,-43.163 34.993,-78.154 78.156,-78.154 43.164,0 78.155,34.991 78.155,78.154 0,43.164 -34.991,78.156 -78.155,78.156 -43.163,0 -78.156,-34.992 -78.156,-78.156"
         id="path703174" />
    </clipPath>
    <clipPath
       clipPathUnits="userSpaceOnUse"
       id="clipPath720772">
      <g
         id="g720776"
         transform="matrix(0.75000002,0,0,-0.75000002,-117.18415,74.879174)">
        <path
           d="M -45.430862,-131.30857 H 256.9318 V 322.23409 H -45.430862 Z"
           id="path720774"
           style="stroke-width:1.33333" />
      </g>
    </clipPath>
    <clipPath
       clipPathUnits="userSpaceOnUse"
       id="clipPath720778">
      <g
         id="g720782"
         transform="matrix(0.75000002,0,0,-0.75000002,-78.789654,69.358173)">
        <path
           d="M -45.430862,-131.30857 H 256.9318 V 322.23409 H -45.430862 Z"
           id="path720780"
           style="stroke-width:1.33333" />
      </g>
    </clipPath>
    <clipPath
       clipPathUnits="userSpaceOnUse"
       id="clipPath720784">
      <g
         id="g720788"
         transform="matrix(0.75000002,0,0,-0.75000002,34.073147,241.67557)">
        <path
           d="M -45.430862,-131.30857 H 256.9318 V 322.23409 H -45.430862 Z"
           id="path720786"
           style="stroke-width:1.33333" />
      </g>
    </clipPath>
    <clipPath
       clipPathUnits="userSpaceOnUse"
       id="clipPath703262">
      <path
         d="M -246.772,-20 H -20 v -340.157 h -226.772 z"
         id="path703260" />
    </clipPath>
    <clipPath
       clipPathUnits="userSpaceOnUse"
       id="clipPath703270">
      <path
         d="M -246.772,-360.157 H -20 V -20 h -226.772 z"
         id="path703268" />
    </clipPath>
    <clipPath
       clipPathUnits="userSpaceOnUse"
       id="clipPath703278">
      <path
         d="M -246.772,-20 H -20 v -340.157 h -226.772 z"
         id="path703276" />
    </clipPath>
    <clipPath
       clipPathUnits="userSpaceOnUse"
       id="clipPath703286">
      <path
         d="m 191.541,-190.078 c 0,-43.164 -34.992,-78.155 -78.156,-78.155 -43.163,0 -78.154,34.991 -78.154,78.155 0,43.164 34.991,78.155 78.154,78.155 43.164,0 78.156,-34.991 78.156,-78.155"
         id="path703284" />
    </clipPath>
    <clipPath
       clipPathUnits="userSpaceOnUse"
       id="clipPath703298">
      <path
         d="M 0,-20 H 226.772 V -360.157 H 0 Z"
         id="path703296" />
    </clipPath>
    <clipPath
       clipPathUnits="userSpaceOnUse"
       id="clipPath703306">
      <path
         d="M 0,-360.157 H 226.772 V -20 H 0 Z"
         id="path703304" />
    </clipPath>
    <clipPath
       clipPathUnits="userSpaceOnUse"
       id="clipPath703314">
      <path
         d="m 35.23,-190.079 c 0,-43.163 34.993,-78.154 78.156,-78.154 43.164,0 78.155,34.991 78.155,78.154 0,43.164 -34.991,78.156 -78.155,78.156 -43.163,0 -78.156,-34.992 -78.156,-78.156"
         id="path703312" />
    </clipPath>
    <clipPath
       clipPathUnits="userSpaceOnUse"
       id="clipPath721254">
      <g
         id="g721258"
         transform="matrix(0.75000002,0,0,-0.75000002,-143.46681,15.486327)">
        <path
           d="M 8.3138826,-226.73543 H 310.67654 V 226.80723 H 8.3138826 Z"
           id="path721256"
           style="stroke-width:1.33333" />
      </g>
    </clipPath>
    <clipPath
       clipPathUnits="userSpaceOnUse"
       id="clipPath721260">
      <g
         id="g721264"
         transform="matrix(0.75000002,0,0,-0.75000002,-150.19041,29.105427)">
        <path
           d="M 8.3138826,-226.73543 H 310.67654 V 226.80723 H 8.3138826 Z"
           id="path721262"
           style="stroke-width:1.33333" />
      </g>
    </clipPath>
    <clipPath
       clipPathUnits="userSpaceOnUse"
       id="clipPath721266">
      <g
         id="g721270"
         transform="matrix(0.75000002,0,0,-0.75000002,-6.2354121,170.10543)">
        <path
           d="M 8.3138826,-226.73543 H 310.67654 V 226.80723 H 8.3138826 Z"
           id="path721268"
           style="stroke-width:1.33333" />
      </g>
    </clipPath>
    <clipPath
       clipPathUnits="userSpaceOnUse"
       id="clipPath703432">
      <path
         d="M 0,340.157 H 226.772 V 0 H 0 Z"
         id="path703430" />
    </clipPath>
    <clipPath
       clipPathUnits="userSpaceOnUse"
       id="clipPath703542">
      <path
         d="M 0,340.157 H 226.772 V 0 H 0 Z"
         id="path703540" />
    </clipPath>
    <clipPath
       clipPathUnits="userSpaceOnUse"
       id="clipPath713424">
      <path
         d="M 0,340.157 H 226.772 V 0 H 0 Z"
         id="path713422" />
    </clipPath>
    <clipPath
       clipPathUnits="userSpaceOnUse"
       id="clipPath713526">
      <path
         d="M 0,340.157 H 226.772 V 0 H 0 Z"
         id="path713524" />
    </clipPath>
    <clipPath
       clipPathUnits="userSpaceOnUse"
       id="clipPath713616">
      <path
         d="M 0,340.157 H 226.772 V 0 H 0 Z"
         id="path713614" />
    </clipPath>
    <clipPath
       clipPathUnits="userSpaceOnUse"
       id="clipPath713690">
      <path
         d="M 0,340.157 H 226.772 V 0 H 0 Z"
         id="path713688" />
    </clipPath>
    <clipPath
       clipPathUnits="userSpaceOnUse"
       id="clipPath713764">
      <path
         d="M 0,340.157 H 226.772 V 0 H 0 Z"
         id="path713762" />
    </clipPath>
    <clipPath
       clipPathUnits="userSpaceOnUse"
       id="clipPath713874">
      <path
         d="M 0,340.157 H 226.772 V 0 H 0 Z"
         id="path713872" />
    </clipPath>
    <clipPath
       clipPathUnits="userSpaceOnUse"
       id="clipPath713874-3">
      <path
         d="M 0,340.157 H 226.772 V 0 H 0 Z"
         id="path713872-6" />
    </clipPath>
    <clipPath
       clipPathUnits="userSpaceOnUse"
       id="clipPath718030">
      <path
         d="M 0,340.157 H 226.772 V 0 H 0 Z"
         id="path718028" />
    </clipPath>
    <clipPath
       clipPathUnits="userSpaceOnUse"
       id="clipPath22142">
      <path
         d="M 0,340.157 H 226.772 V 0 H 0 Z"
         id="path22140" />
    </clipPath>
    <clipPath
       clipPathUnits="userSpaceOnUse"
       id="clipPath22150">
      <path
         d="M 0,-20 H 226.772 V -360.157 H 0 Z"
         id="path22148" />
    </clipPath>
    <clipPath
       clipPathUnits="userSpaceOnUse"
       id="clipPath22158">
      <path
         d="M 0,-20 H 226.772 V -360.157 H 0 Z"
         id="path22156" />
    </clipPath>
    <clipPath
       clipPathUnits="userSpaceOnUse"
       id="clipPath22166">
      <path
         d="m 438.313,191.345 c 0,-43.164 -34.992,-78.155 -78.156,-78.155 -43.164,0 -78.155,34.991 -78.155,78.155 0,43.164 34.991,78.155 78.155,78.155 43.164,0 78.156,-34.991 78.156,-78.155"
         id="path22164" />
    </clipPath>
    <clipPath
       clipPathUnits="userSpaceOnUse"
       id="clipPath22182">
      <path
         d="M 246.772,-20 H 473.543 V -360.157 H 246.772 Z"
         id="path22180" />
    </clipPath>
    <clipPath
       clipPathUnits="userSpaceOnUse"
       id="clipPath22190">
      <path
         d="M 246.772,-20 H 473.543 V -360.157 H 246.772 Z"
         id="path22188" />
    </clipPath>
    <clipPath
       clipPathUnits="userSpaceOnUse"
       id="clipPath22198">
      <path
         d="m 438.313,191.345 c 0,-43.164 -34.991,-78.155 -78.155,-78.155 -43.164,0 -78.156,34.991 -78.156,78.155 0,43.164 34.992,78.155 78.156,78.155 43.164,0 78.155,-34.991 78.155,-78.155"
         id="path22196" />
    </clipPath>
  </defs>
  <g
     id="g718024"
     transform="matrix(1.3333333,0,0,-1.3333333,-1.1818629,306.09447)">
    <g
       id="g718026"
       clip-path="url(#clipPath718030)">
      <g
         id="g718032"
         transform="translate(126.0731,157.3486)">
        <path
           d="m 0,0 c 0,-1.881 -1.085,-2.821 -3.252,-2.821 -3.6,0 -6.37,0.96 -8.312,2.883 -1.944,1.921 -3.017,5.193 -3.221,9.815 l -1.227,31.532 4.601,0.308 1.166,-30.306 c 0.122,-3.231 0.797,-5.471 2.024,-6.718 1.227,-1.248 2.883,-1.891 4.969,-1.932 0.899,0 1.666,-0.225 2.301,-0.675 C -0.317,1.636 0,0.94 0,0"
           style="fill:#f91536;fill-opacity:1;fill-rule:nonzero;stroke:none"
           id="path718034" />
      </g>
      <g
         id="g718036"
         transform="translate(137.7899,195.9365)">
        <path
           d="m 0,0 c 0,-2.086 -1.063,-3.211 -3.189,-3.374 -0.901,0 -1.657,0.307 -2.271,0.92 -0.613,0.613 -0.92,1.431 -0.92,2.454 0,0.94 0.307,1.728 0.92,2.361 0.614,0.634 1.37,0.952 2.271,0.952 C -1.268,3.313 -0.205,2.208 0,0 m 4.172,-27.3 0.061,1.043 c 0,1.145 -0.184,2.494 -0.552,4.049 -0.368,1.554 -1.043,2.996 -2.025,4.325 -0.981,1.328 -2.249,1.994 -3.802,1.994 -1.637,0 -2.998,-0.563 -4.081,-1.687 -1.084,-1.125 -1.626,-2.423 -1.626,-3.896 0,-1.84 1.043,-3.293 3.129,-4.355 1.922,-0.982 4.621,-1.473 8.098,-1.473 z m -15.644,-14.109 h -3.557 c -1.023,0 -1.8,0.296 -2.332,0.889 -0.531,0.592 -0.797,1.257 -0.797,1.994 0,0.695 0.266,1.319 0.797,1.871 0.532,0.552 1.309,0.828 2.332,0.828 h 4.109 c 3.149,0 6.114,0.194 8.896,0.583 2.781,0.389 4.641,0.787 5.583,1.196 0.204,0.613 0.306,1.309 0.306,2.086 H 2.577 c -3.19,0 -5.869,0.439 -8.037,1.319 -2.168,0.879 -3.763,2.106 -4.785,3.681 -1.023,1.573 -1.533,3.199 -1.533,4.877 0,2.822 1.062,5.398 3.19,7.73 1.145,1.144 2.371,1.983 3.681,2.515 1.308,0.53 2.473,0.797 3.496,0.797 1.555,0 3.077,-0.603 4.57,-1.81 1.493,-1.207 2.731,-2.975 3.712,-5.306 0.982,-2.331 1.473,-5.195 1.473,-8.588 0,-1.514 -0.134,-3.314 -0.4,-5.399 -0.266,-2.085 -0.665,-3.845 -1.196,-5.276 -0.613,-0.491 -1.605,-1.043 -2.975,-1.656 -1.371,-0.613 -3.272,-1.156 -5.706,-1.626 -2.433,-0.471 -5.613,-0.705 -9.539,-0.705 m -36.539,-13.619 c -0.49,0 -1.503,0.091 -3.036,0.276 -1.534,0.184 -3.569,0.91 -6.104,2.178 l 0.674,3.742 c 0.655,-0.327 1.657,-0.716 3.006,-1.166 1.35,-0.449 2.638,-0.776 3.866,-0.981 0.04,-0.041 0.327,-0.062 0.858,-0.062 3.026,0 5.91,1.616 8.65,4.847 1.963,2.372 2.945,5.234 2.945,8.589 0,2.903 -0.552,6.031 -1.657,9.385 -0.205,0.696 -1.226,3.353 -3.067,7.975 l 4.355,2.332 c 0.247,-0.655 0.675,-1.943 1.289,-3.865 0.614,-1.923 1.267,-3.948 1.963,-6.074 0.899,-2.863 1.35,-5.807 1.35,-8.834 0,-0.491 -0.052,-1.749 -0.153,-3.773 -0.103,-2.024 -0.951,-4.263 -2.546,-6.717 -3.396,-4.948 -7.362,-7.546 -11.902,-7.791 z"
           style="fill:#1d1d1b;fill-opacity:1;fill-rule:nonzero;stroke:none"
           id="path718038" />
      </g>
    </g>
  </g>
</svg>
