<?xml version="1.0" encoding="UTF-8" standalone="no"?>
<!-- Created with Inkscape (http://www.inkscape.org/) -->

<svg
   version="1.1"
   id="svg3836"
   width="400"
   height="400"
   viewBox="0 0 400 400"
   sodipodi:docname="1141_pic.pdf"
   xmlns:inkscape="http://www.inkscape.org/namespaces/inkscape"
   xmlns:sodipodi="http://sodipodi.sourceforge.net/DTD/sodipodi-0.dtd"
   xmlns="http://www.w3.org/2000/svg"
   xmlns:svg="http://www.w3.org/2000/svg">
  <defs
     id="defs3840">
    <clipPath
       clipPathUnits="userSpaceOnUse"
       id="clipPath3856">
      <path
         d="M 0,0 H 203.79162 V -139.88298 H 0 Z"
         clip-rule="evenodd"
         id="path3854" />
    </clipPath>
    <clipPath
       clipPathUnits="userSpaceOnUse"
       id="clipPath3866">
      <path
         d="M 0,-139.88298 H 300 V 139.88298 H 0 Z"
         id="path3864" />
    </clipPath>
  </defs>
  <sodipodi:namedview
     id="namedview3838"
     pagecolor="#ffffff"
     bordercolor="#000000"
     borderopacity="0.25"
     inkscape:showpageshadow="2"
     inkscape:pageopacity="0.0"
     inkscape:pagecheckerboard="0"
     inkscape:deskcolor="#d1d1d1" />
  <g
     id="g3842"
     inkscape:groupmode="layer"
     inkscape:label="1141_pic4"
     transform="matrix(1.3333333,0,0,-1.3333333,0,400)">
    <g
       id="g3844">
      <g
         id="g3846">
        <g
           id="g3848"
           transform="translate(48.10419,219.94149)">
          <g
             id="g3850">
            <g
               id="g3852"
               clip-path="url(#clipPath3856)">
              <g
                 id="g3858"
                 transform="matrix(1.33333,0,0,1.33333,0,-186.51025)">
                <g
                   id="g3860">
                  <g
                     id="g3862" />
                  <g
                     id="g4118">
                    <g
                       clip-path="url(#clipPath3866)"
                       id="g4116">
                      <g
                         transform="translate(0,139.88289)"
                         id="g3874">
                        <g
                           id="g3872">
                          <g
                             id="g3870">
                            <path
                               d="m 146.582,-25.0383 c -2.226,1.397 -8.05,2.311 -9.881,3.272 -5.075,2.666 -12.231,7.359 -15.275,8.934 0,0 -20.791,11.66901 -49.4249,12.74801 -28.6365,1.077 -44.1255,-8.523 -44.1255,-8.523 -6.1602,-2.21401 -9.7082,-6.87501 -13.72,-10.03101 -4.17928,-3.282 -10.15308,-6.125 -12.78508,-10.316 -3.6731,-6.312 0.6601,-10.348 5.65,-13.337 0.4941,-0.309 0.9379,-0.643 1.3621,-0.984 2.71598,-2.291 2.80078,-7.809 3.59608,-10.898 1.9137,-6.022 4.3797,-12.1 6.8988,-17.629 4.4301,-9.177 11.757,-16.127 20.3121,-21.361 l 1.9098,-7.5847 6.9972,2.8977 c 1.1797,-0.532 2.3688,-1.041 3.5661,-1.523 25.1594,-9.9587 60.1023,-9.2787 80.6523,25.689 1.745,2.968 4.125,8.784 6.68,14.163 l 0.209,0.617 c 0.054,0.55 2.986,4.549 3.391,5.013 6.64,7.612 17.059,20.352 3.987,28.853 z"
                               style="fill:#05b0a1;fill-opacity:1;fill-rule:nonzero;stroke:none"
                               id="path3868" />
                          </g>
                        </g>
                      </g>
                      <g
                         transform="translate(2.2e-4,115.0206)"
                         id="g3882">
                        <g
                           id="g3880">
                          <g
                             id="g3878">
                            <path
                               d="m 146.582,-0.176 c -0.087,0.05568 -0.199,0.1173 -0.291,0.176 v 0 c 2.781,-3.01783 4.588,-6.79044 4.422,-10.772 -0.096,-2.3 -0.889,-4.202 -2.193,-6.175 -1.394,-2.104 -8.773,-5.937 -10.65,-7.537 -1.703,-1.452 -4.139,-11.134 -4.746,-12.92 -1.6,-4.713 -4.234,-9.088 -7.57,-12.773 -6.716,-7.422 -17.948,-10.707 -27.5801,-11.959 -7.529,-0.977 -14.925,-0.627 -22.459,0.03 -7.575,0.659 -15.2485,1.048 -22.6856,2.73 -6.8532,1.547 -13.2649,4.036 -18.834,8.393 -4.5309,3.545 -9.241,7.829 -10.9731,13.511 -0.9129,2.989 -0.9027,5.859 -0.723,8.939 0.193,3.247 -0.902,5.716 -3.2488,7.979 -3.0969,2.989 -6.8551,4.961 -10.3922,7.348 -2.0297,1.37 -4.8231,2.957 -5.4688,5.545 -0.5562,2.228 -0.066,4.523 0.952,6.705 -1.0992,-0.97 -2.059,-2 -2.7711,-3.136 C 0.42609,-5.71456 0.01094,-7.18673 0,-8.52938 v -0.10903 c 0.03123,-3.82389 3.34792,-6.59079 7.0203,-8.79059 0.4941,-0.309 0.9379,-0.643 1.3621,-0.984 2.716,-2.291 2.8008,-7.809 3.5961,-10.898 1.9137,-6.022 4.3797,-12.1 6.8988,-17.629 4.4301,-9.177 11.757,-16.127 20.3121,-21.361 l 1.9098,-7.585 6.9972,2.898 c 1.1797,-0.532 2.3688,-1.041 3.5661,-1.523 8.4374,-3.3398 17.9752,-5.4832 27.7014,-5.538 h 0.7637 c 19.0398,0.1077 38.7094,8.2926 52.1874,31.227 1.745,2.968 4.125,8.784 6.68,14.163 l 0.209,0.617 c 0.054,0.55 2.986,4.549 3.391,5.013 6.64,7.612 17.059,20.352 3.987,28.853 z"
                               style="mix-blend-mode:multiply;fill:#dddbdc;fill-opacity:1;fill-rule:nonzero;stroke:none"
                               id="path3876" />
                          </g>
                        </g>
                      </g>
                      <g
                         transform="translate(22.43532,139.88298)"
                         id="g3890">
                        <g
                           id="g3888">
                          <g
                             id="g3886">
                            <path
                               d="m 109.156,-31.8224 -0.003,-0.001 c -0.12,-0.025 -0.282,0.027 -0.351,0.131 -0.401,0.586 -0.689,1.182 -1.195,1.703 -0.439,0.452 -0.868,0.909 -1.238,1.419 -0.244,0.339 -0.031,0.448 -0.521,0.675 -0.504,0.232 -0.904,0.649 -1.324,1.008 -0.89,0.756 -2.001,1.43 -2.803,2.271 -0.228,0.239 -0.427,0.503 -0.491,0.837 -0.149,0.775 -0.963,0.477 -1.4042,0.797 -0.37,0.266 -0.376,0.41 -0.868,0.367 -0.263,-0.023 -0.441,0.152 -0.612,0.337 -0.288,0.31 -0.824,0.795 -0.899,1.237 -0.101,0.583 0.012,0.744 -0.603,0.964 -0.672,0.242 -1.392,1.14 -1.593,1.995 -2.009,1.864 -3.812,4.837 -0.045,6.109 0.472,0.161 0.995,0.242 1.533,0.295 -6.099,2.96902 -24.081,10.72402 -47.173,11.59402 -17.758,0.668 -30.4541,-2.767 -37.5427,-5.476 0.8797,0.087 1.5207,-0.121 1.7039,-0.815 0.123,-0.464 -0.3801,-0.859 -0.6352,-1.184 -0.3988,-0.505 -0.6789,-1.137 -1.157,-1.576 -0.2891,-0.264 -0.5309,-0.427 -0.8949,-0.552 -0.3371,-0.115 -0.9211,-0.109 -1.175,-0.37602 -0.77,-0.814 -1.0379,-2.556 -1.3828,-3.612 -0.1321,-0.405 -0.5313,-1.041 -0.4411,-1.44 0.0789,-0.359 -0.2851,-0.699 -0.589,-0.793 -0.9121,-0.278 -1.841,-0.08 -2.052,-1.263 -0.1371,-0.765 -0.341,-1.471 -0.7429,-2.142 -0.0704,-0.118 -0.2723,-0.186 -0.3961,-0.118 0.164,-0.088 -0.3809,-0.608 -0.6332,-0.37 0.223,-0.208 -0.027,-0.573 -0.2899,-0.544 -0.418,0.042 -0.7328,0.176 -0.9512,0.552 -0.1777,0.304 -1.6668,-2.008 -1.7386,-2.303 -0.1524,-0.634 -0.1114,-1.089 -0.6321,-1.481 -0.0062,-0.005 -0.0101,-0.016 -0.016,-0.024 0.0129,-0.204 0.0379,-0.408 0.084,-0.604 0.3981,-1.668 1.3238,-2.283 2.5469,-2.735 0.0992,0.077 0.2262,0.126 0.3769,0.115 3.0141,-0.178 6.1539,-1.871 9.0743,-2.649 4.2207,-1.126 8.4777,-2.09 12.75,-3.019 7.325,-1.59 14.5718,-3.355 21.7707,-5.455 7.666,-2.234 15.366,-4.61 23.276,-5.815 4.025,-0.613 8.36,-1.272 12.43,-0.802 3.542,0.405 6.955,1.352 10.374,2.331 4.8229,1.3805 16.4032,2.6677 16.5072,9.6392 v 0.1899 c -0.003,0.1901 -0.014,0.3844 -0.034,0.5829 z"
                               style="mix-blend-mode:multiply;fill:#dddbdc;fill-opacity:1;fill-rule:nonzero;stroke:none"
                               id="path3884" />
                          </g>
                        </g>
                      </g>
                      <g
                         transform="translate(17.79702,102.74508)"
                         id="g3898">
                        <g
                           id="g3896">
                          <g
                             id="g3894">
                            <path
                               d="m 104.255,-17.6245 c -0.349,0.026 -0.72,0.401 -0.636,0.773 0.148,0.663 0.393,1.248 0.69,1.802 -2.576,-1.374 -5.2349,-2.679 -8.0739,-3.245 -4.552,-0.901 -9.239,-0.567 -13.845,-0.81 -4.512,-0.239 -8.998,-0.394 -13.513,-0.511 -1.934,-0.052 -5.624,-1.006 -7.415,0.419 -2.67,-0.402 -5.338,-1.017 -8.052,-0.992 -4.967,0.043 -10.2394,0.932 -15.0413,2.19 -4.0672,1.064 -8.1871,2.262 -12.1902,3.553 -2.404,0.772 -5.3598,1.657 -7.5278,3.291 0.1051,-0.49 0.1899,-0.983 0.1981,-1.511 0.0058,-0.469 -0.5172,-0.635 -0.884,-0.545 C 10.4659,-11.3935 4.56604,-6.02679 0,0 v -0.00134 c 0.65062,-3.02599 7.7551,-12.41546 24.7907,-18.77416 28.9964,-10.825 56.1624,-7.419 69.7904,-4.732 13.6259,2.691 21.5559,10.112 21.5559,10.112 -3.338,-2.766 -7.193,-4.587 -11.882,-4.229 z"
                               style="mix-blend-mode:multiply;fill:#dddbdc;fill-opacity:1;fill-rule:nonzero;stroke:none"
                               id="path3892" />
                          </g>
                        </g>
                      </g>
                      <g
                         transform="translate(19.73452,132.60961)"
                         id="g3906">
                        <g
                           id="g3904">
                          <g
                             id="g3902">
                            <path
                               d="m 115.716,-28.989 c -0.175,-0.008 -0.359,0.042 -0.559,0.173 -0.45,0.294 -0.903,0.431 -1.244,0.865 -0.272,0.35 -0.09,0.632 -0.591,0.804 -0.186,0.061 -0.281,0.254 -0.272,0.437 0.002,0.052 -0.002,0.093 -0.01,0.134 -0.297,-0.015 -0.624,-0.096 -0.852,0.047 -0.515,0.42 0.162,1.652 -0.17,2.056 -0.332,0.401 -0.9,0.272 -1.066,0.473 -0.211,0.284 -0.514,0.555 -0.873,0.82 -0.259,-0.131 -0.502,-0.257 -0.813,-0.271 -0.228,-0.009 -0.375,0.09 -0.441,0.312 -0.055,0.187 -0.337,0.008 -0.552,0.277 -0.251,0.31 -0.291,0.581 -0.753,0.543 -0.368,-0.028 -0.634,0.216 -0.873,0.456 -0.229,0.229 -0.606,0.218 -0.813,0.472 -0.157,0.188 -0.196,0.872 -0.344,0.858 -0.233,-0.02 -0.493,-0.05 -0.699,0.091 -0.462,0.319 -0.43,1.911 -0.848,1.914 -0.278,0.002 -0.477,0.299 -0.455,0.554 0.039,0.456 -0.459,0.747 -0.945,1.028 -0.668,0.036 -1.584,0.144 -1.616,0.959 0.002,-0.029 -1.1234,0.525 -1.1864,0.513 -0.348,-0.078 -0.575,0.233 -0.584,0.54 -0.009,0.452 -0.321,0.668 -0.353,1.056 -0.045,0.54 0.057,0.956 -0.275,1.434 -0.098,0.142 -0.186,0.268 -0.218,0.412 -0.048,0.023 -0.095,0.046 -0.134,0.08 -0.057,0.051 -0.105,0.115 -0.157,0.175 -0.254,-0.137 -0.557,-0.017 -0.698,0.235 -0.102,0.185 -0.89,0.314 -1.118,0.466 -0.327,0.222 -0.55,0.738 -0.795,1.035 -0.118,0.145 -0.111,0.291 -0.043,0.406 -0.271,0.312 -0.6,0.647 -1.08,0.974 -1.729,1.279 -3.507,0.157 -5.673,0.737 -0.718,0.256 -0.793,1.376 -1.509,1.632 -0.718,0.253 -1.723,-0.574 -2.459,-0.503 -3.488,0.34 -6.247,2.462 -9.33,3.133 -2.184,0.401 -3.727,-0.191 -5.929,0.024 -1.468,0.141 -3.748,1.475 -5.2,1.802 -0.734,0.074 -2.036,0.013 -3.138,0.12 -1.633,0.345 -1.38,1.062 -2.446,1.539 -1.982,0.561 -3.927,-0.361 -6.182,-0.698 -0.954,-0.276 -2.239,-0.151 -3.175,-0.246 -0.952,-0.275 -2.127,-0.905 -3.063,-0.999 -2.9894,-0.265 -5.5605,-0.014 -8.1484,0.054 -1.1011,0.107 -2.7351,0.451 -3.3043,0.322 C 32.3422,-1.511 31.318,-2.522 29.795,-2.93 29.025,-3.226 27.7391,-3.101 26.402,-3.527 25.4282,-3.988 24.8243,-4.485 23.6871,-4.745 21.9321,-5.42 20.236,-5.473 18.611,-4.786 18.4071,-4.91 18.2063,-5.048 18.0039,-5.194 17.7321,-5.927 17.1332,-6.068 16.4461,-6.078 16.0481,-6.237 15.652,-6.409 15.3243,-6.721 15.2082,-6.834 14.9942,-6.866 14.8481,-6.801 13.525,-6.21 12.443,-8.005 11.993,-8.896 c -0.3168,-0.63 -0.8598,-0.886 -1.4937,-1.014 -0.202,-0.793 -0.9364,-1.725 -1.6704,-2.291 -0.1339,-0.225 -0.2668,-0.44 -0.3929,-0.629 -0.0641,-0.85 -0.418,-1.479 -1.452,-1.279 -0.2008,-0.372 -0.6078,-0.552 -1.0969,-0.726 -0.2179,-0.077 -0.53,-0.027 -0.6171,0.231 -0.509,1.488 -1.5739,-1.412 -1.6661,-1.709 -0.2058,-0.667 -0.9,-1.31 -0.4296,-1.987 0.141,-0.203 0.1679,-0.537 -0.068,-0.694 -0.3262,-0.218 -0.1113,-0.88 -0.6852,-1.12 -0.1379,-0.057 -0.2859,-0.092 -0.439,-0.109 -0.002,-0.003 -0.0032,-0.007 -0.0032,-0.007 -0.0207,0 -0.0367,0.001 -0.0558,0.005 -0.3051,-0.03 -0.6199,0.008 -0.9121,0.09 C -0.2289,-20.136 0.1,-20.93 0,-21.978 c 4.8973,-15.778 29.884,-26.496 43.7316,-27.847 8.443,-0.822 16.238,-2.015 24.625,-1.536 7.816,0.351 16.029,0.352 23.604,2.023 8.8894,2.139 23.4664,9.461 23.7554,20.349 z"
                               style="fill:#a7693c;fill-opacity:1;fill-rule:nonzero;stroke:none"
                               id="path3900" />
                          </g>
                        </g>
                      </g>
                      <g
                         transform="translate(19.73812,132.6092)"
                         id="g3914">
                        <g
                           id="g3912">
                          <g
                             id="g3910">
                            <path
                               d="m 109.98,-33.2966 c -0.026,0.015 -0.32,0.146 -0.226,0.116 -0.908,0.282 -0.351,1.764 0.53,1.381 0.276,-0.119 0.452,-0.28 0.578,-0.555 0.235,-0.515 -0.311,-1.224 -0.882,-0.942 z m -1.611,-3.096 c -0.111,-0.341 -0.511,-0.579 -0.862,-0.533 -1.836,0.248 -3.273,1.821 -2.601,3.693 0.06,0.165 0.207,0.313 0.378,0.402 0.085,0.197 0.227,0.363 0.436,0.441 1.017,0.377 2.326,-0.11 2.741,-1.158 0.371,-0.942 0.211,-1.904 -0.092,-2.845 z m -4.201,-4.519 c -0.391,-1.029 -1.197,-1.792 -2.587,-1.888 -0.176,-0.013 -0.363,0.026 -0.533,0.1 -0.072,-0.006 -0.141,0.003 -0.211,0.013 -1.76,0.161 -2.893,1.682 -2.293,3.559 0.126,0.392 0.338,0.816 0.606,1.229 -0.007,0.168 0.061,0.342 0.239,0.431 0.045,0.023 0.085,0.048 0.128,0.07 0.697,0.87 1.637,1.559 2.576,1.554 0.189,0.112 0.378,0.228 0.572,0.33 0.348,0.188 0.709,-0.029 0.888,-0.327 0.209,-0.345 0.385,-0.744 0.528,-1.165 0.266,-0.117 0.495,-0.323 0.576,-0.634 0.283,-1.088 0.083,-2.303 -0.489,-3.272 z m -23.11,-7.786 c -1.807,0.203 -3.625,0.642 -5.44,0.289 -1.317,-0.259 -2.388,-0.388 -3.687,-0.034 -0.511,0.139 -0.654,0.843 -0.366,1.234 1.074,1.469 4.438,3.068 6.39,2.16 1.224,0.045 2.464,-0.067 3.551,-0.189 1.055,-0.12 3.831,-0.339 3.963,-1.825 0.159,-1.815 -3.351,-1.755 -4.411,-1.635 z m -6.222,6.959 c 0.043,0.051 0.089,0.075 0.15,0.102 0.163,0.073 0.394,0.069 0.537,-0.053 0.35,-0.295 0.503,-0.625 0.632,-1.056 0.277,-0.916 -1.331,-1.242 -1.489,-0.26 -0.065,0.398 -0.111,0.937 0.17,1.267 z m 3.424,-0.081 c 0.329,0.5 0.881,0.894 1.475,0.931 0.518,0.83 2.022,0.18 1.67,-0.909 -0.326,-1.006 -0.831,-1.949 -1.642,-2.647 -0.369,-0.319 -1.024,-0.279 -1.32,0.127 -0.543,0.752 -0.717,1.683 -0.183,2.498 z m -7.273,-3.134 c -0.25,-0.414 -0.821,-0.425 -1.189,-0.193 -0.63,0.402 -1.162,0.84 -1.443,1.497 -0.077,0.107 -0.121,0.238 -0.137,0.384 -0.003,0.018 -0.013,0.031 -0.015,0.046 -0.002,-0.015 -0.005,-0.009 -0.012,0.029 -0.161,0.844 0.951,1.24 1.429,0.644 0.503,-0.063 1.068,-0.021 1.467,-0.289 0.112,-0.075 0.13,-0.222 0.084,-0.345 0.043,-0.054 0.089,-0.114 0.114,-0.176 0.236,-0.579 0.006,-1.097 -0.298,-1.597 z m -13.775,-3.264 c -0.647,0.188 -0.771,1.159 -0.252,1.545 1.103,0.814 2.176,1.672 3.316,2.436 0.709,0.472 1.457,1 2.301,1.178 0.925,0.939 1.988,1.614 3.431,1.221 0.425,-0.114 0.616,-0.587 0.607,-0.98 -0.102,-4.581 -5.568,-6.505 -9.403,-5.4 z m -17.33,2.624 c -1.7938,-0.103 -3.7277,0.755 -4.734,2.28 -1.0758,1.629 -0.3027,3.358 1.466,3.996 0.336,0.124 0.791,0.101 1.0121,-0.23 0.0762,-0.115 0.143,-0.24 0.2102,-0.36 0.3019,-0.103 0.5637,-0.34 0.6558,-0.71 0.1918,-0.788 0.7641,-1.36 1.2149,-2 0.4203,-0.602 0.7383,-1.191 0.9332,-1.9 0.1238,-0.45 -0.2852,-1.049 -0.7582,-1.076 z m -6.3899,0.946 c -0.357,-0.164 -0.6859,-0.032 -0.95,0.219 -0.3441,0.323 -0.6539,1.111 -0.407,1.569 0.1481,0.279 0.3359,0.396 0.652,0.405 0.0039,-10e-4 0.0089,-0.002 0.0152,-10e-4 0.5078,0.011 1.0437,-0.966 1.1406,-1.33 0.091,-0.343 -0.1476,-0.723 -0.4508,-0.862 z m -1.8949,5.932 c -0.234,0.255 -0.475,0.473 -0.7793,0.64 -0.0918,0.05 -0.0969,0.168 -0.075,0.253 0.2184,0.924 1.3793,0.727 1.9332,0.256 0.8828,-0.747 -0.3039,-2.001 -1.0789,-1.149 z m -0.882,-2.202 c -0.1231,-0.544 -0.5902,-0.928 -1.1652,-0.722 -1.2457,0.45 -2.4778,0.961 -3.6739,1.531 -0.9648,0.46 -2.0808,0.899 -2.8269,1.69 -0.5102,0.541 -0.0641,1.316 0.548,1.476 0.427,0.113 0.902,0.159 1.375,0.134 1.1481,0.288 2.759,-0.178 3.616,-0.613 1.3489,-0.684 2.493,-1.867 2.127,-3.496 z m -11.582,2.601 c -2.2571,-0.373 -3.1981,2.333 -3.0512,4.104 0.0293,0.371 0.3203,0.656 0.6762,0.729 0.7269,0.15 1.5109,-0.017 1.955,-0.666 0.0598,-0.086 0.1188,-0.185 0.1797,-0.281 0.7223,-0.495 1.3571,-1.331 1.4742,-2.1 0.1282,-0.838 -0.3711,-1.642 -1.2339,-1.786 z m 96.5788,9.329 c -0.175,-0.008 -0.36,0.042 -0.559,0.171 -0.451,0.293 -0.902,0.432 -1.243,0.867 -0.273,0.347 -0.09,0.632 -0.592,0.801 -0.186,0.063 -0.28,0.254 -0.272,0.439 0.002,0.053 -0.003,0.094 -0.01,0.135 -0.298,-0.016 -0.624,-0.097 -0.852,0.047 -0.515,0.418 0.161,1.651 -0.17,2.053 -0.332,0.404 -0.899,0.275 -1.066,0.475 -0.209,0.284 -0.518,0.554 -0.877,0.817 -0.257,-0.13 -0.498,-0.256 -0.809,-0.267 -0.228,-0.01 -0.376,0.09 -0.441,0.309 -0.049,0.164 -0.267,0.05 -0.466,0.197 -0.007,0.001 -0.015,0 -0.022,0 -0.036,-0.196 -0.138,-0.376 -0.263,-0.528 0.459,-0.789 0.376,-2.007 -0.202,-2.88 0.334,0 0.678,-0.051 0.996,-0.171 0.466,0.038 0.939,0 1.345,-0.137 0.952,-0.322 1.45,-0.996 1.728,-1.932 0.111,-0.369 -0.172,-0.869 -0.525,-1.001 -1.711,-0.627 -3.543,-0.862 -5.356,-0.901 -0.53,-0.012 -0.882,0.565 -0.852,1.032 0.071,1.096 0.468,2.186 1.389,2.751 -1.247,0.863 -2.235,1.926 -2.745,3.391 -0.167,0.475 0.143,1.228 0.773,1.086 0.155,-0.037 0.31,-0.054 0.463,-0.063 -0.356,0.661 -0.723,1.403 -0.785,2.06 -0.388,0.093 -0.738,0.258 -1.008,0.51 -0.071,-0.072 -0.124,-0.155 -0.205,-0.217 -0.777,-0.617 -1.783,-0.572 -2.475,0.163 -0.714,0.756 -0.903,1.835 -0.754,2.839 0.057,0.374 0.318,0.624 0.662,0.687 -0.032,0.067 -0.056,0.137 -0.085,0.203 -0.549,-0.178 -1.134,-0.141 -1.639,0.294 -0.94,0.811 -1.065,2.206 -1.318,3.345 -0.061,0.282 -0.147,0.604 -0.226,0.935 -0.219,0.152 -0.849,0.266 -1.05,0.403 -0.328,0.219 -0.551,0.737 -0.796,1.035 -0.118,0.14201 -0.112,0.29001 -0.042,0.40501 -0.272,0.314 -0.6,0.648 -1.081,0.975 -1.729,1.278 -3.507,0.156 -5.674,0.736 -0.717,0.256 -0.791,1.376 -1.509,1.632 -0.717,0.254 -1.723,-0.573 -2.458,-0.503 -3.487,0.341 -6.247,2.463 -9.331,3.134 -2.184,0.398 -3.726,-0.194 -5.929,0.021 -1.467,0.144 -3.747,1.478 -5.198,1.804 -0.735,0.072 -2.037,0.014 -3.139,0.12 -1.634,0.346 -1.379,1.063 -2.446,1.537 -1.982,0.564 -3.926,-0.358 -6.182,-0.696 -0.954,-0.276 -2.239,-0.151 -3.175,-0.245 -0.953,-0.278 -2.126,-0.906 -3.063,-0.999 -2.9898,-0.266 -5.5601,-0.015 -8.148,0.052 -1.1019,0.108 -2.7359,0.453 -3.3039,0.324 -2.3879,0.23 -3.4121,-0.781 -4.934,-1.189 -0.7699,-0.296 -2.0558,-0.171 -3.3941,-0.594 -0.9738,-0.461 -1.5777,-0.959 -2.7141,-1.218 -1.7558,-0.676 -3.4519,-0.731 -5.0769,-0.041 -0.2027,-0.124 -0.4039,-0.263 -0.6059,-0.408 -0.273,-0.734 -0.8718,-0.875 -1.5582,-0.884 -0.3988,-0.159 -0.7949,-0.331 -1.1219,-0.646 -0.1167,-0.111 -0.33,-0.142 -0.4769,-0.078 -1.3219,0.591 -2.4051,-1.204 -2.8539,-2.097 -0.318,-0.628 -0.8602,-0.883 -1.4942,-1.011 -0.073,-0.28401 -0.2128,-0.57901 -0.3949,-0.87401 -0.584,-1.439 -1.0379,-2.961 -0.7379,-4.414 0.3161,-1.519 1.377,-2.593 1.577,-4.12 0.1859,-1.422 -0.5731,-2.601 -1.0031,-3.876 -0.8641,-2.566 0.5011,-4.986 2.7039,-6.291 0.1582,-0.095 0.241,-0.364 0.1582,-0.529 -0.4242,-0.835 -0.8461,-1.615 -1.3981,-2.373 -0.141,-0.192 -0.439,-0.257 -0.632,-0.1 -1.5809,1.252 -4.4371,2.002 -5.309,3.99 -0.957,2.183 0.8219,4.158 1.3399,6.28 -2.2219,0.156 -2.4379,3.284 -2.3469,5.177 0.039,0.816 0.0969,1.876 0.3101,2.81 -0.5101,-0.268 -1.0953,-1.869 -1.1621,-2.086 -0.207,-0.667 -0.9,-1.307 -0.4308,-1.985 0.1418,-0.203 0.1687,-0.537 -0.068,-0.693 -0.3262,-0.219 -0.1113,-0.88 -0.6852,-1.12 -0.1371,-0.058 -0.2859,-0.092 -0.439,-0.112 -0.002,-0.003 -0.002,-0.007 -0.002,-0.007 -0.0211,0 -0.0379,0.001 -0.057,0.005 -0.3051,-0.028 -0.6199,0.01 -0.9129,0.092 -1.2211,-0.003 -0.9199,-0.774 -1.0062,-1.8 4.864,-15.798 29.8679,-26.539 43.727,-27.889 7.0145,-0.6854 13.5824,-1.6234 20.413,-1.646 h 0.5001 c 1.2269,0.0041 2.4629,0.0385 3.7119,0.11 7.817,0.349 16.03,0.351 23.606,2.022 8.889,2.14 23.465,9.461 23.754,20.35 z"
                               style="mix-blend-mode:multiply;fill:#f4e2b5;fill-opacity:1;fill-rule:nonzero;stroke:none"
                               id="path3908" />
                          </g>
                        </g>
                      </g>
                      <g
                         transform="translate(29.15116,136.87687)"
                         id="g3922">
                        <g
                           id="g3920">
                          <g
                             id="g3918">
                            <path
                               d="m 90.149,-25.3023 c 0.161,1.652 -1.332,3.466 -3.036,3.076 2.152,4.979 -7.38,15.54404 -8.06,8.57 -1.468,0.142 -3.009,-0.451 -4.054,-1.646 -0.719,2.109 -0.243,3.177 -1.975,4.456 -1.727,1.27904 -4.334,1.16304 -6.11,0.039 3.644,3.16504 -5.454,8.68804 -8.172,9.32104 -1.268,0.309 -2.423,-0.132 -3.709,-0.007 -1.652,0.161 -2.864,1.019 -4.316,1.345 -2.184,0.4 -5.175,0.135 -5.443,-2.62 -2.646,1.37 -5.786,1.491 -6.677,-1.941 -1.752,2.949 -8.1003,2.457 -8.2913,-1.416 l -1.1019,0.106 c 0.3757,-3.744 -1.759,-0.939 -2.6243,-0.3 -2.0757,1.499 -3.1078,2.341 -5.714,2.225 -1.8528,-0.005 -5.2469,-0.601 -6.493,-1.963 -1.8668,-2.042 -0.1199,-3.139 -0.5359,-5.50804 -4.32504,5.05704 -16.96414,-4.832 -10.16294,-9.201 -4.1981,-1.259 -4.4129,-3.462 -2.5692,-7.349 1.218,-2.71 2.5621,-4.14 5.534,-4.06 0,0 2.2422,-2.002 7.36104,-4.388 1.5281,0.942 3.75,1.554 5.4613,1.912 1.9597,0.412 4.5387,0.821 6.0039,-0.89 0.3758,-0.443 0.1488,-1.015 -0.2942,-1.282 -0.5308,-0.321 -1.121,-0.454 -1.73,-0.528 -0.2387,-0.216 -0.4938,-0.416 -0.5379,-0.556 -0.2969,-0.993 0.4179,-1.743 1.266,-2.13 0.7328,-0.336 1.5129,-0.58 2.3039,-0.74 0.509,-0.1 1.1211,-0.149 1.5191,-0.504 4.2301,-1.008 9.1544,-1.875 14.8664,-2.43 26.182,-2.553 47.416,4.497 47.416,4.497 5.061,2.473 6.779,12.497 -0.125,13.912 z"
                               style="fill:#a7693c;fill-opacity:1;fill-rule:nonzero;stroke:none"
                               id="path3916" />
                          </g>
                        </g>
                      </g>
                      <g
                         transform="translate(116.04034,108.6474)"
                         id="g3930">
                        <g
                           id="g3928">
                          <g
                             id="g3926">
                            <path
                               d="m 7.14379,-0.0688 c -0.591,-0.937 -1.728,-0.295 -2.628,-0.283 -0.745,0.009 -1.555,-0.15 -2.132,-0.652 -0.742,-0.641 -1.233,-1.451 -1.608,-2.348 -0.371,-0.898 -0.934,-2.117 -0.734,-3.099 0.059,-0.286 0.406,-0.383 0.638,-0.26 0.736,0.392 1.068,1.36 1.393,2.085 0.398,0.894 0.648,2.445 1.648,2.834 0.718,0.283 1.527,0.077 2.25,0.399 0.571,0.255 1.068,0.666 1.429,1.177 0.109,0.154 -0.152,0.309 -0.256,0.147 z"
                               style="fill:#4d2c16;fill-opacity:1;fill-rule:nonzero;stroke:none"
                               id="path3924" />
                          </g>
                        </g>
                      </g>
                      <g
                         transform="translate(33.11722,126.11586)"
                         id="g3938">
                        <g
                           id="g3936">
                          <g
                             id="g3934">
                            <path
                               d="m 2.40721,-8.87326 c -1.3789,1.29 -1.443,3.104 -0.7352,4.732 0.5864,1.35 1.8731,2.42 2.2852,3.825 0.0699,0.241 -0.1852,0.374 -0.3789,0.292 -1.6422,-0.696 -2.9313,-3.068 -3.4031,-4.694 -0.2508,-0.86 -0.2391,-1.771 0.0789,-2.607 0.3621,-0.955 1.0781,-1.37 1.8839,-1.896 0.2122,-0.135 0.4524,0.177 0.2692,0.348 z"
                               style="fill:#4d2c16;fill-opacity:1;fill-rule:nonzero;stroke:none"
                               id="path3932" />
                          </g>
                        </g>
                      </g>
                      <g
                         transform="translate(29.19439,136.87568)"
                         id="g3946">
                        <g
                           id="g3944">
                          <g
                             id="g3942">
                            <path
                               d="m 91.9677,-29.0381 -0.7853,0.2923 -0.7847,0.1947 -0.0988,-0.1684 -0.1522,-0.1616 -1.1124,-1.1683 -0.8609,-1.3603 -0.6883,-1.4737 -0.5944,-1.5087 -0.4708,-0.4911 -0.6832,-0.0209 -0.1776,0.0643 -0.1784,0.0657 -0.5248,0.5735 0.1208,0.7775 0.5631,1.2269 0.4252,1.3054 0.4147,1.2993 0.5318,1.2088 0.7762,1.0336 1.148,0.774 1.7593,0.2264 1.6377,-0.6684 0.7063,-0.8809 0.0627,-1.0781 -0.4843,-0.2087 z m -1.269,-4.773 -0.3613,-0.4809 -0.3487,-0.4891 -0.3298,-0.4347 -0.4852,-0.2203 -0.5285,0.1275 -0.2975,0.4545 0.4214,1.0989 0.9336,0.8791 0.7053,0.6276 0.8597,0.2924 0.1213,-0.0569 0.0657,-0.1191 -0.1908,-0.8995 z m -5.343,7.607 -0.0533,-0.0452 0.1183,0.1542 -0.5365,-0.4234 -0.6355,0.2344 -0.0177,1.4956 1.2917,1.0074 0.9065,0.2008 0.9305,0.0492 0.7165,0.0514 0.6865,-0.1624 0.2724,-0.6074 -0.3854,-0.5586 -0.4833,-0.1215 -0.4977,-0.0765 -0.4717,-0.1955 -0.4433,-0.2615 -0.5152,-0.2807 -0.5378,-0.2403 -0.1693,-0.0926 -0.0637,-0.0154 0.0337,0.049 z m -1.54,-4.318 -0.5418,-0.4426 -0.1122,-0.6624 0.0958,-0.5725 0.0912,-0.5725 -0.2827,-0.9292 -0.8993,-0.3458 -1.8827,0.486 -1.5663,-0.414 -0.4905,-0.5081 -0.7065,-0.0229 -0.2061,-0.1122 -0.2069,-0.1108 -1.144,-0.4637 -0.484,1.0887 0.2,0.4331 0.272,0.3379 0.5855,0.4665 0.7145,0.1935 1.0047,0.9405 1.3483,0.226 1.494,-0.1635 0.504,1.8014 1.785,0.7446 0.6738,-0.5595 z m -10.757,-0.968 -1.917,-0.5716 -0.861,-1.8624 -0.5791,-0.7905 -0.9639,0.0945 -0.6851,0.5075 -0.8179,0.1655 -0.7095,-0.4607 -0.6255,-0.6123 -0.5092,-0.1896 -0.5198,0.1576 -0.7888,1.1262 0.2933,1.159 1.0216,0.9714 1.3961,0.5631 1.4168,-0.0657 0.6412,0.8703 0.8878,0.5957 0.6763,0.1823 0.6417,0.0367 1.1404,0.1934 1.2716,-0.3234 -0.0042,-0.012 -0.0058,-0.012 0.5343,-1.0422 z m -2.826,-8.707 -0.7128,-0.0461 -0.7152,0.0341 -0.0525,-0.0164 -0.0705,-0.0216 -0.2705,-0.088 -0.2615,-0.115 -0.3417,-0.2114 -0.2443,-0.3126 -0.4223,-0.4794 -0.5507,-0.1366 -0.1018,-0.0602 0.0278,0.0252 -0.7838,-0.1195 -0.4982,0.5975 0.4884,1.673 1.1836,1.373 1.6235,1.0774 1.8755,-0.1234 1.0265,-1.6716 z m -6.427,11.639 -0.3888,-0.0061 -0.3732,-0.0129 0.2562,-0.6684 -0.0252,-0.6436 -0.4011,-0.6095 -0.5819,-0.4535 -0.7745,-0.529 -0.8675,-0.205 -0.8943,0.039 -0.8877,-0.03 -0.5156,0.2375 0.0146,0.5645 0.9487,0.7933 1.2223,0.2487 0.3954,0.1159 0.5476,0.2351 0.715,0.5443 -0.503,0.8367 -0.1461,0.3209 0.0361,0.3531 0.0395,0.112 0.0395,0.109 0.3024,0.4193 0.4696,0.2167 1.5595,0.0311 1.5701,-0.4122 1.2654,-0.8969 0.0817,-0.4994 -0.3917,-0.3336 -1.3516,-0.0169 z m -3.773,-11.083 -0.4592,-0.4697 -0.6528,-0.0273 -1.7946,1.2226 -1.8374,0.9864 -1.5194,0.0617 -1.4235,0.149 -1.3441,0.6803 -0.3758,0.6224 0.1648,0.7026 0.5929,0.4893 0.7991,0.3077 0.1939,0.143 0.2141,0.092 1.2962,0.0673 1.4903,-0.3168 1.4573,-0.5177 1.1972,-0.5358 1.8949,-1.4385 z m -10.777,6.719 -0.0892,-0.5644 -0.4148,-0.3956 -0.1078,-0.0425 -0.1132,-0.0245 -0.5612,0.0975 -0.3978,0.4065 -1.119,1.3534 -1.542,0.8276 -0.0613,0.0325 -0.0217,0.0655 0.896,0.7491 1.298,-0.1831 0.3215,-0.1609 0.3215,-0.1901 0.049,0.0424 0.055,0.0386 1.056,0.1035 1.065,-0.1845 1.3227,-0.3906 1.3353,-0.2594 1.0638,0.3006 0.5852,0.8894 0.0598,0.058 0.0672,-0.053 0.2073,-0.9641 -0.3403,-0.9019 -0.9433,-0.4789 -1.0687,-0.1211 -1.4891,0.0345 -1.5739,0.3315 0.0802,-0.2035 z m 28.575,7.629 0.2445,0.4184 0.0435,0.5796 1.0422,1.2399 1.5348,-0.8039 -0.0837,-0.3732 -0.3253,-0.2068 -0.2205,-0.0366 -0.2235,-0.0374 -0.022,-0.3984 -0.025,-0.3856 -0.1445,-0.9059 -0.5315,-0.7401 -0.1287,-0.0874 -0.1333,-0.0806 -0.0928,-0.3285 -0.2362,-0.2805 -0.0478,-0.0396 -0.0472,-0.0404 -1.1381,-0.3197 -0.6229,0.9867 0.3285,1.082 z m 3.493,11.129 0.5623,0.3976 0.6897,-0.0246 1.1275,-0.7179 0.9091,-1.1134 0.6257,-1.3598 0.2775,-1.4573 -0.1358,-1.4057 -0.6139,-1.2052 -1.1571,-0.8557 -1.8238,0.5531 -0.1312,2.1619 0.5725,1.3701 -0.1745,1.3079 -0.2492,0.1815 -0.2028,0.2025 -0.5327,0.3823 -0.1413,0.6147 0.1473,0.5054 z m -37.325,-13.365 -0.6738,-0.2506 -0.5202,0.5256 -0.1696,0.215 -0.3384,-0.052 -0.6172,0.1433 -0.3458,0.5347 -0.0592,0.3895 0.0052,0.3925 0.222,0.4888 0.471,0.2592 0.1015,0.0194 0.1015,0.0126 0.7013,0.1666 0.6967,-0.1926 0.7405,-1.2195 z m -3.696,-7.897 -0.9057,0.0311 -0.8983,0.1339 -1.4986,-0.1141 -1.4934,-0.1659 -1.7722,0.2608 -1.2658,1.1832 0.0848,1.4946 1.0511,1.1144 1.8414,0.6026 1.8487,-0.3626 1.6068,-0.031 1.3832,-0.337 1.0618,-0.5781 0.5982,-1.0079 -0.3616,-1.46 z m -12.6231,5.204 -1.48,-0.8267 -1.3276,-1.0089 -1.2373,-1.1594 -0.9449,-0.222 -0.7551,0.612 -0.5165,1.0079 -0.5874,0.9021 -0.0192,-0.295 -0.0011,-0.286 -0.3255,-0.446 -0.4585,0.31 -0.3253,1.4481 0.0232,1.7445 1.0392,0.9374 0.8365,-0.1054 0.6115,-0.5816 0.0074,-0.0171 0.0094,-0.0209 0.0866,0.38 0.2005,0.404 0.4389,0.3411 0.5541,0.0449 1.203,1.1973 1.2982,0.1727 0.0742,1.0129 1.0266,0.3011 1.3801,-0.6279 1.4421,-0.2671 0.8824,0.1444 0.8875,-0.0094 0.5122,-0.2765 0.1699,-0.5555 -0.1103,-1.18 -0.5737,-0.973 0.6846,-0.5384 0.6162,-0.7476 0.0291,-0.2005 -0.1491,-0.1225 -1.3067,-0.0039 -1.3351,0.0072 -1.3146,-0.1177 z m 8.0641,2.324 1.3419,-0.0133 1.312,-0.2848 1.2976,-0.3292 1.2985,-0.1467 0.4859,-0.2589 0.1671,-0.5341 -1.209,-0.9442 -1.731,0.2602 -1.6458,0.8133 -1.4112,1.1747 -0.0268,0.1581 z m -20.55,9.903 -0.5025,-0.2432 -0.5507,-0.0888 -0.6987,0.0866 -0.6923,0.0334 -1.0863,-0.3264 -1.1156,-0.2296 -0.513,0.2724 -0.16907,0.5566 1.07197,1.4931 1.8292,0.5429 0.3512,0.0041 0.3476,-0.0191 0.1736,0.1289 0.2116,0.0801 1.1001,-0.0467 0.8276,-0.6963 0.0078,-0.8726 z m 74.912,-7.306 -0.8182,2.3041 -2.2178,0.7719 0.2828,1.0787 5e-4,1.1888 -0.2439,1.2562 -0.45,1.2807 -0.6182,1.2624 -0.7482,1.2012 -0.8402,1.0974 -0.894,0.9506 -0.9098,0.761 -0.1601,-0.5366 -0.5389,-0.2884 -0.7527,-0.1334 -0.7513,-0.1356 -0.8148,0.3111 -0.1482,0.8609 0.022,0.06 -0.3135,-0.685 -0.1815,-0.961 -1.4719,-0.0969 -1.3935,-0.5578 -1.1886,-0.9903 -0.4467,1.8091 -0.4062,1.3919 -1.1221,1.255 -1.128,0.6039 -1.257,0.28695 -1.3042,-0.01106 -1.2693,-0.29019 -1.1525,-0.5506 0.6923,0.91618 0.1466,1.00034 -0.3128,1.0519 -0.686,1.07081 -0.973,1.05709 -1.1738,1.01073 -1.2885,0.93174 -1.3168,0.8201 -1.2591,0.67583 -1.115,0.49892 -0.8849,0.28938 -1.8472,0.06325 -1.8608,-0.07325 -1.5314,0.34815 -1.3888,0.54037 -1.3968,0.45948 L 48.9391,0 l -1.7059,-0.27445 -1.3466,-0.86527 -0.6569,-1.62736 -1.6248,0.65464 -1.6116,0.24376 -1.467,-0.27776 -1.1906,-0.90992 -0.783,-1.65272 -1.0006,1.05368 -1.3754,0.63318 -1.5622,0.21379 -1.5608,-0.20448 -1.3711,-0.62168 -0.9934,-1.03775 -0.4276,-1.45274 -1.1011,0.108 -0.8465,-1.795 -1.7774,1.496 -1.777,1.2325 -1.6511,0.7615 -0.2769,-0.381 -0.4598,-0.165 -1.4326,-0.45425 -0.7067,-1.13092 -0.2638,-1.50118 -0.1043,-1.56507 -0.2278,-1.3226 -1.6899,-1.236 -2.1089,0.963 -1.0153,1.27265 -0.6838,1.57574 -0.245,1.64463 -0.428,-1.18673 0.1057,-1.11764 0.2418,-1.20075 -0.0195,-1.4359 -0.1963,0.2006 -0.2057,0.1834 -0.2352,-0.3312 -0.3988,-0.2098 -1.6342,-0.8985 -1.25987,-1.3965 -0.64649,-1.1861 -0.55941,-1.2169 -1.6138,-0.9117 -1.3663,1.3127 -0.1537,0.8971 0.0698,0.8439 -0.70975,-1.0321 -1.00825,-0.7569 -0.82795,0.1368 -0.20335,0.8282 0.22775,0.6411 0.25235,0.6329 -0.83811,-1.1403 -0.56807,-1.188 -0.24497,-1.1968 0.1312,-1.1665 0.56043,-1.0973 1.04272,-0.9891 0.9865,0.3138 0.8854,0.1562 1.46166,0.0557 1.42292,-0.1682 1.30835,-0.4944 1.11794,-0.9231 0.0278,-0.8475 -0.84177,-0.2805 -0.29117,0.0595 -0.30693,0.0565 -0.75944,-0.3054 -0.70026,-0.3406 -0.44831,-0.2779 -0.40759,-0.3641 0.00661,-0.0934 0.01839,-0.1556 0.45358,-1.6421 -0.12978,-1.6849 -0.71042,-0.9889 -1.14468,-0.2471 -0.32006,-0.0026 -0.31774,0.0926 -1.27348,0.9446 -1.08113,1.4197 -0.8053,1.6143 -0.44599,1.5284 -0.03681,0.691 0.13951,0.604 L 0.38933,-22.763 0,-23.8101 l 0.00828,-1.2307 0.3666,-1.4292 0.68565,-1.6431 0.96109,-1.7899 1.14875,-1.2876 1.4776,-0.7641 1.94766,-0.2194 0.18979,-0.1593 0.5811,-0.448 0.99005,-0.6917 1.4166,-0.8903 1.86083,-1.044 2.3225,-1.1527 1.2574,0.6439 1.4045,0.5289 1.4386,0.4205 1.3597,0.3187 1.3787,0.246 1.4462,0.102 1.4021,-0.174 1.218,-0.0706 1.207,-0.3504 1.1459,-0.8471 0.0388,-1.3009 -1.5649,-0.827 -0.9441,-1.028 0.6375,-0.8286 0.7918,-0.7094 0.3892,0.3773 0.5339,0.2017 0.2446,0.017 0.2581,-0.01 1.1318,0.3098 1.0034,-0.4748 0.333,-0.8676 -0.2451,-0.8234 0.959,-0.2036 0.9807,-0.1982 1.0027,-0.1923 1.0248,-0.1861 1.0472,-0.1797 1.0698,-0.1727 1.0926,-0.1655 1.1158,-0.158 1.1391,-0.15 1.1626,-0.1417 1.1864,-0.1331 1.2104,-0.1241 1.6299,-0.1471 1.6162,-0.1231 1.6014,-0.0998 1.586,-0.0776 1.5695,-0.0561 1.5522,-0.0357 1.534,-0.0161 1.5149,0.0026 1.495,0.0204 1.4742,0.0372 1.4524,0.0532 1.4298,0.0683 1.4063,0.0825 1.3819,0.0957 1.3567,0.108 1.3305,0.1195 1.3035,0.1301 1.2756,0.1397 1.2468,0.1485 1.2172,0.1563 1.1865,0.1632 1.1551,0.1693 1.1228,0.1744 1.0896,0.1786 1.0555,0.182 1.0205,0.1843 0.9847,0.1859 0.9479,0.1865 0.9103,0.1862 0.8718,0.185 0.8323,0.1829 0.7921,0.18 0.751,0.176 0.7089,0.1712 0.6659,0.1655 0.6222,0.1588 0.5775,0.1514 0.5318,0.1429 0.4854,0.1336 0.4381,0.1234 0.3899,0.1123 0.3407,0.1002 0.2907,0.0873 0.2399,0.0734 0.1881,0.0587 0.1354,0.043 0.0819,0.0265 0.0275,0.009 1.106,0.6972 0.9729,0.9212 0.8254,1.1011 0.6635,1.2368 0.4871,1.3283 0.2965,1.3759 0.0912,1.3791 -0.1283,1.3383 -0.3624,1.2534 -0.6108,1.1242 -0.8736,0.9509 -1.1509,0.7336 z"
                               style="mix-blend-mode:multiply;fill:#f4e2b5;fill-opacity:1;fill-rule:evenodd;stroke:none"
                               id="path3940" />
                          </g>
                        </g>
                      </g>
                      <g
                         transform="translate(101.06838,99.81373)"
                         id="g3954">
                        <g
                           id="g3952">
                          <g
                             id="g3950">
                            <path
                               d="m 0.12274,-12.4201 c -1.246,6.23798 7.297,10.22398 11.91696,11.99598 7.517,2.975 11.388,-10.55898 3.835,-13.90098 0,0 -3.495,-1.271 -6.31796,-1.554 -3.247,3.233 -9.434,3.459 -9.434,3.459 z"
                               style="fill:#a7693c;fill-opacity:1;fill-rule:nonzero;stroke:none"
                               id="path3948" />
                          </g>
                        </g>
                      </g>
                      <g
                         transform="translate(115.5673,96.69567)"
                         id="g3962">
                        <g
                           id="g3960">
                          <g
                             id="g3958">
                            <path
                               d="m 0.45782,-8.50707 c 1.011,-0.137 1.805,0.468 2.481,1.173 0.39,0.405 0.606,0.933 0.696,1.477 0.086,0.512 -0.05,0.908 0.2,1.4 0.496,0.978 2.347,3.28 1.043,4.357 -0.287,0.239 -0.792,0.026 -0.667,-0.386 0.363,-1.188 -0.417,-2.829 -0.961,-3.896 -0.275,-0.538 -0.927,-1.057 -1.315,-1.519 -0.553,-0.656 -1.338,-1.026 -1.846,-1.702 -0.221,-0.294 -0.004,-0.853 0.369,-0.904 z"
                               style="fill:#4d2c16;fill-opacity:1;fill-rule:nonzero;stroke:none"
                               id="path3956" />
                          </g>
                        </g>
                      </g>
                      <g
                         transform="translate(101.06812,98.1006)"
                         id="g3970">
                        <g
                           id="g3968">
                          <g
                             id="g3966">
                            <path
                               d="m 17.829,0 c 0.44,-1.434 0.388,-3.031 -0.437,-3.803 -0.954,-0.888 -1.934,-1.477 -2.785,-2.567 -0.412,-0.526 -0.762,-0.929 -1.33,-1.274 -0.463,-0.281 -1.054,-0.035 -1.537,-0.033 -1.259,0.006 -2.206,-0.761 -3.314,-1.217 -1.2,-0.493 -2.64,-0.835 -3.58,0.36 -0.983,1.249 -1.718,2.696 -1.326,4.33 0.096,0.405 0.243,0.812 0.427,1.218 C 1.72281,-4.70543 0.03582,-6.8449 0,-9.40566 V -9.57212 C 0.00516,-9.94176 0.04473,-10.32 0.122,-10.707 c 0,0 6.187,-0.226 9.435,-3.459 2.824,0.283 6.318,1.554 6.318,1.554 5.164,2.283 4.986,9.334 1.954,12.612 z"
                               style="mix-blend-mode:multiply;fill:#f4e2b5;fill-opacity:1;fill-rule:nonzero;stroke:none"
                               id="path3964" />
                          </g>
                        </g>
                      </g>
                      <g
                         transform="translate(28.47784,137.489)"
                         id="g3978">
                        <g
                           id="g3976">
                          <g
                             id="g3974">
                            <path
                               d="m 7.31218,-32.3904 c -3.048,0.249 -4.373,2.595 -5.3961,5.209 -0.393,1.005 -0.7949,2.145 -0.4289,3.205 0.402,1.165 1.9641,1.732 3.009,2.063 0.473,0.147 0.5371,0.75 0.1332,1.016 -3.125,2.07 -1.3383,5.412 0.9566,7.323 2.1571,1.795 6.27112,3.552 8.51612,0.991 0.266,-0.305 0.9,-0.169 0.9632,0.254 0.1539,1.034 0.0028,1.952 -0.2043,2.962 -0.2859,1.388 0.4403,2.375 1.6434,3.013 2.0449,1.085 5.2617,1.502 7.4727,0.789 1.8171,-0.584 2.95,-2.155 4.4453,-3.202 0.4578,-0.319 1.0379,-0.564 1.5547,-0.223 0.7171,0.477 0.598,1.634 0.5453,2.361 -0.2153,-0.218 -0.4313,-0.432 -0.6453,-0.648 0.3671,-0.042 0.7339,-0.077 1.1023,-0.111 0.3727,-0.036 0.625,0.323 0.65,0.65 0.2598,3.264 5.5719,3.469 7.0929,1.095 0.294,-0.457 1.004,-0.392 1.159,0.151 0.817,2.873 3.503,2.692 5.766,1.6 0.435,-0.21 0.837,0.054 0.892,0.513 0.373,3.095 4.574,2.221 6.483,1.437 1.54,-0.633 2.884,-0.851 4.546,-0.7 1.201,0.111 2.157,-0.135 3.222,-0.63 1.874,-0.873 9.225,-4.982 6.345,-7.694 -0.531,-0.5 0.155,-1.381 0.774,-1.003 1.722,1.049 3.966,1.193 5.602,-0.108 1.169,-0.931 1.076,-2.702 1.493,-4.02 0.153,-0.48 0.787,-0.698 1.158,-0.307 0.969,1.025 2.156,1.507 3.564,1.418 0.42,-0.027 0.676,0.348 0.716,0.716 0.094,0.864 0.356,1.816 1.387,1.543 1.136,-0.3 2.088,-1.345 2.826,-2.195 1.654,-1.911 3.515,-5.15 2.47,-7.735 -0.219,-0.54 0.394,-0.915 0.843,-0.84 1.373,0.216 2.22,-1.221 2.169,-2.416 -0.012,-0.291 0.216,-0.597 0.503,-0.662 6.209,-1.377 4.551,-10.293 -0.008,-12.711 -0.719,-0.379 -0.087,-1.434 0.633,-1.083 5.748,2.817 7.056,13.485 -0.262,15.117 0.168,-0.223 0.335,-0.443 0.503,-0.661 0.095,2.188 -1.674,4.089 -3.902,3.736 0.281,-0.28 0.562,-0.563 0.843,-0.843 1.354,3.343 -1.214,7.475 -3.471,9.779 -0.941,0.96 -2.231,2.003 -3.651,1.985 -1.614,-0.023 -2.16,-1.688 -2.316,-3.014 0.239,0.239 0.478,0.479 0.717,0.718 -1.751,0.105 -3.358,-0.593 -4.543,-1.87 0.385,-0.105 0.771,-0.205 1.157,-0.307 -0.316,0.962 -0.405,1.989 -0.781,2.93 -0.352,0.881 -1.038,1.514 -1.81,2.034 -1.889,1.272 -4.601,0.982 -6.485,-0.103 0.257,-0.334 0.516,-0.668 0.774,-1.001 4.028,3.61 -3.992,8.426 -6.62,9.67 -1.137,0.538 -2.208,0.87 -3.485,0.806 -1.195,-0.059 -2.215,-0.2 -3.393,0.139 -0.916,0.262 -1.774,0.703 -2.688,0.975 -2.533,0.75 -6.026,0.062 -6.478,-2.943 0.291,0.118 0.581,0.236 0.872,0.353 -1.426,0.742 -2.965,1.188 -4.573,0.895 -1.616,-0.295 -2.584,-1.702 -3.015,-3.18 0.386,0.05 0.772,0.102 1.159,0.152 -2.227,3.525 -9.1192,2.821 -9.4902,-1.736 0.2171,0.216 0.4339,0.436 0.6523,0.652 -0.3684,0.036 -0.7352,0.07 -1.1023,0.1 -0.3278,0.028 -0.6778,-0.313 -0.6458,-0.643 0.029,-0.307 0.0489,-0.607 0.052,-0.912 0.0027,-0.285 -0.1801,-0.409 0.1211,-0.377 -0.1723,-0.018 -0.4973,0.316 -0.6141,0.416 -0.6011,0.501 -1.1429,1.014 -1.7851,1.466 -0.8649,0.612 -1.7371,1.173 -2.7301,1.551 -1.0809,0.413 -2.298,0.385 -3.4328,0.324 -2.059,-0.109 -4.4531,-0.561 -6.061,-1.936 -0.7972,-0.682 -1.2429,-1.72 -1.207,-2.755 0.0379,-1.148 0.5117,-2.145 0.3598,-3.324 0.3269,0.136 0.6562,0.27 0.9832,0.406 -5.16722,5.684 -18.03602,-5.277 -10.85122,-10.089 0.0449,0.339 0.0891,0.678 0.134,1.019 -1.4277,-0.444 -2.8609,-1.018 -3.6918,-2.33 -0.7121,-1.125 -0.575,-2.699 -0.202,-3.907 0.5047,-1.633 1.3008,-3.425 2.475,-4.689 1.186,-1.272 2.8618,-1.588 4.5309,-1.419 0.5078,0.053 0.5149,0.753 0,0.795 z"
                               style="fill:#894f24;fill-opacity:1;fill-rule:nonzero;stroke:none"
                               id="path3972" />
                          </g>
                        </g>
                      </g>
                      <g
                         transform="translate(100.5548,100.49028)"
                         id="g3986">
                        <g
                           id="g3984">
                          <g
                             id="g3982">
                            <path
                               d="m 0.84432,-13.0967 c 0.138,1.559 0.38,2.812 1.201,4.17403 0.833,1.383 2.145,2.499 3.445,3.424 1.343,0.953 2.806,1.746 4.285,2.462 1.31298,0.633 2.71898,1.336 4.15398,1.63 3.144,0.645 5.187,-2.554 5.739,-5.185 0.757,-3.61503 -1.179,-6.82503 -4.085,-8.87103 -0.302,-0.213 -0.623,-0.603 -0.234,-0.488 3.855,1.14 6.173,5.351 5.678,9.06603 -0.438,3.291 -2.586,6.616 -6.15,6.873 -1.707,0.123 -3.396,-0.752 -4.91898,-1.408 -1.816,-0.783 -3.573,-1.7 -5.192,-2.84 -2.65,-1.861 -5.997,-5.398 -4.311,-8.94103 0.097,-0.207 0.373,-0.083 0.389,0.104 z"
                               style="fill:#894f24;fill-opacity:1;fill-rule:nonzero;stroke:none"
                               id="path3980" />
                          </g>
                        </g>
                      </g>
                      <g
                         transform="translate(35.40076,110.80944)"
                         id="g3994">
                        <g
                           id="g3992">
                          <g
                             id="g3990">
                            <path
                               d="m 3.12166,-12.3038 c -3.439,2.74396 -4.4371,5.80896 -0.9429,9.35896 1.448,1.528 4.0668,3.679 6.566,2.697 1.59884,-0.712 4.63904,-5.643 5.41294,-7.202 0,0 -7.75204,-1.838 -9.30084,-5.02296 -0.6313,0.063 -1.7352,0.169 -1.7352,0.169 z"
                               style="fill:#a7693c;fill-opacity:1;fill-rule:nonzero;stroke:none"
                               id="path3988" />
                          </g>
                        </g>
                      </g>
                      <g
                         transform="translate(35.40453,107.8736)"
                         id="g4002">
                        <g
                           id="g4000">
                          <g
                             id="g3998">
                            <path
                               d="M 13.3382,-3.052 C 13.323,-3.081 13.3179,-3.114 13.3019,-3.145 12.5703,-4.502 10.3589,-5.031 9.1339,-4.094 8.6371,-3.708 8.6839,-3.03 8.5261,-2.49 8.1851,-1.322 6.8691,-2.651 6.1211,-2.36 4.88433,-1.87617 4.83393,-0.94765 5.18592,0 H 5.18367 C 4.17654,-0.38314 3.28217,-1.03583 2.1031,-0.841 1.9293,-0.813 1.7632,-0.722 1.6382,-0.598 -1.195,-3.902 -0.1289,-6.776 3.1179,-9.367 c 0,0 1.1043,-0.109 1.7352,-0.169 1.5397,3.1633 9.2103,5.00033 9.3004,5.02181 v 0.0018 c -0.1732,0.34898 -0.4611,0.86331 -0.8153,1.46039 z"
                               style="mix-blend-mode:multiply;fill:#f4e2b5;fill-opacity:1;fill-rule:nonzero;stroke:none"
                               id="path3996" />
                          </g>
                        </g>
                      </g>
                      <g
                         transform="translate(34.67818,111.4025)"
                         id="g4010">
                        <g
                           id="g4008">
                          <g
                             id="g4006">
                            <path
                               d="m 3.94584,-12.7959 c -1.6512,1.453 -2.9738,4.026 -2.252,6.213 0.4102,1.238 1.4129,2.23 2.311,3.133 0.873,0.876 1.9429,1.717 3.1301,2.106 2.2359,0.736 3.51476,-1.14 4.65066,-2.722 0.559,-0.777 1.0493,-1.619 1.5434,-2.44 0.3789,-0.628 0.7059,-1.334 1.2617,-1.825 0.2422,-0.216 0.734,-0.096 0.6992,0.288 -0.08,0.871 -0.616,1.619 -1.0703,2.343 -0.6789,1.083 -1.4316,2.129 -2.2226,3.133 -0.593,0.753 -1.2051,1.528 -1.99996,2.082 -1.0782,0.752 -2.6371,0.503 -3.7864,0.1 -2.6,-0.912 -5.2027,-3.438 -6.0187,-6.083 -0.382,-1.232 -0.1672,-2.527 0.409,-3.655 0.7031,-1.374 2.005,-2.016 3.1711,-2.898 0.1308,-0.097 0.2949,0.12 0.1738,0.225 z"
                               style="fill:#894f24;fill-opacity:1;fill-rule:nonzero;stroke:none"
                               id="path4004" />
                          </g>
                        </g>
                      </g>
                      <g
                         transform="translate(59.31393,99.25832)"
                         id="g4018">
                        <g
                           id="g4016">
                          <g
                             id="g4014">
                            <path
                               d="m 17.1742,-1.51872 c -1.56,0.453 -2.66,-0.542 -4.168,-0.596 -1.071,0.008 -2.006,0.471 -3.14301,0.695 -2.973,1.105 -6.095,2.676 -8.3472,-0.277 -1.1454,-1.491 -1.9653,-3.718 -1.2454,-5.593 1.0383,-2.708 4.2886,-3.32498 6.8216,-4.07398 5.24601,-1.713 11.73101,-2.045 12.21001,4.92598 0.184,1.888 -0.071,4.418 -2.128,4.919 z"
                               style="fill:#a7693c;fill-opacity:1;fill-rule:nonzero;stroke:none"
                               id="path4012" />
                          </g>
                        </g>
                      </g>
                      <g
                         transform="translate(59.31422,98.9236)"
                         id="g4026">
                        <g
                           id="g4024">
                          <g
                             id="g4022">
                            <path
                               d="m 17.5679,-1.343 c 0,-0.313 -0.065,-0.642 -0.234,-0.979 -0.281,-0.569 -0.537,-0.859 -1.087,-1.169 -0.731,-0.415 -0.45,-1.168 -0.699,-1.818 -1.101,-2.872 -6.06,-1.934 -8.184,-1.305 -2.544,0.755 -5.1502,2.172 -4.7092,5.245 C 2.72958,-0.86083 2.92207,-0.40748 3.17536,0 H 3.17214 C 2.58586,-0.26317 2.0272,-0.6917 1.5157,-1.362 0.67413,-2.45788 0.00796,-3.95083 0,-5.40963 v -0.05278 c 0.00278,-0.50806 0.08621,-1.01134 0.2707,-1.49159 1.0379,-2.707 4.2882,-3.326 6.8212,-4.075 5.246,-1.711 11.731,-2.043 12.21,4.926 0.172,1.752 -0.057,4.038 -1.734,4.76 z"
                               style="mix-blend-mode:multiply;fill:#f4e2b5;fill-opacity:1;fill-rule:nonzero;stroke:none"
                               id="path4020" />
                          </g>
                        </g>
                      </g>
                      <g
                         transform="translate(72.93083,96.02846)"
                         id="g4034">
                        <g
                           id="g4032">
                          <g
                             id="g4030">
                            <path
                               d="m 0.27129,-6.56386 c 1.747,-0.161 3.008,0.689 4.049,2.052 0.55,0.718 0.623,1.643 0.747,2.503 0.093,0.632 0.289,1.383 -0.079,1.95 -0.058,0.091 -0.192,0.073 -0.224,-0.03 -0.179,-0.561 -0.097,-1.188 -0.235,-1.772 -0.155,-0.655 -0.792,-1.239 -1.169,-1.767 -0.747,-1.047 -1.848,-2.131 -3.162,-2.397 -0.324,-0.064 -0.216,-0.512 0.073,-0.539 z"
                               style="fill:#4d2c16;fill-opacity:1;fill-rule:nonzero;stroke:none"
                               id="path4028" />
                          </g>
                        </g>
                      </g>
                      <g
                         transform="translate(37.95153,110.0885)"
                         id="g4042">
                        <g
                           id="g4040">
                          <g
                             id="g4038">
                            <path
                               d="m 0.18189,-5.64389 c 0.6488,1.138 1.7636,2.143 2.7226,3.014 0.5,0.455 1.0621,0.839 1.6563,1.157 0.5687,0.303 1.1609,0.35 1.7281,0.577 0.2816,0.113 0.3168,0.425 0.0797,0.607 -1.1399,0.875 -2.9988,-0.451 -3.8547,-1.153 -1.3094,-1.071 -2.2141,-2.465 -2.5121,-4.126 -0.0192,-0.104 0.1211,-0.178 0.1801,-0.076 z"
                               style="fill:#4d2c16;fill-opacity:1;fill-rule:nonzero;stroke:none"
                               id="path4036" />
                          </g>
                        </g>
                      </g>
                      <g
                         transform="translate(58.68831,99.86644)"
                         id="g4050">
                        <g
                           id="g4048">
                          <g
                             id="g4046">
                            <path
                               d="m 13.3978,-2.52284 c -1.071,0.176 -2.142,0.771 -3.146,1.182 -1.16598,0.475 -2.31898,0.975 -3.55998,1.223 -2.324,0.466 -4.1502,-0.473 -5.4272,-2.412 -1.3559,-2.056 -1.8539,-4.854 -0.318,-6.931 1.334,-1.80196 3.7432,-2.44796 5.8112,-2.94796 3.51098,-0.846 7.67898,-2.157 11.02198,-0.038 1.606,1.02 2.397,2.82196 2.741,4.62496 0.365,1.913 0.345,4.434 -1.289,5.779 -0.95,0.786 -2.418,0.759 -3.495,0.302 -0.83,-0.35 -1.729,-0.636 -2.638,-0.511 -0.881,0.12 -1.715,0.502 -2.59,0.666 -0.54398,0.098 -0.78198,-0.711 -0.231,-0.839 1.119,-0.257 2.197,-0.672 3.354,-0.718 1.094,-0.045 2.109,0.552 3.22,0.539 2.667,-0.023 2.488,-3.489 2.318,-5.321 -0.405,-4.35196 -4.953,-4.97996 -8.442,-4.22496 -1.94098,0.421 -3.87298,1.116 -5.74398,1.773 -2.4973,0.87496 -4.2794,2.79296 -3.5032,5.58596 0.3469,1.246 1.2,2.491 2.307,3.162 1.0252,0.62 2.2972,0.411 3.3862,0.124 1.041,-0.277 2.038,-0.674 3.05798,-1.011 1.045,-0.347 2.007,-0.473 3.093,-0.554 0.311,-0.023 0.384,0.495 0.073,0.547 z"
                               style="fill:#894f24;fill-opacity:1;fill-rule:nonzero;stroke:none"
                               id="path4044" />
                          </g>
                        </g>
                      </g>
                      <g
                         transform="translate(60.67282,127.30011)"
                         id="g4058">
                        <g
                           id="g4056">
                          <g
                             id="g4054">
                            <path
                               d="m 3.2433,-0.0035 c 1.425,-0.014 2.098,-1.129 3.352,-1.556 0.902,-0.263 1.806,-0.113 2.816,-0.213 2.779,0.176 5.8,0.707 6.945,-2.344 0.585,-1.543 0.709,-3.622 -0.37,-5.017 -1.558,-2.013 -4.446,-1.708 -6.764,-1.695 -4.842,-0.113 -10.3746,1.253 -9.0125,7.23 0.3226,1.633 1.1789,3.695 3.0335,3.595 z"
                               style="fill:#a7693c;fill-opacity:1;fill-rule:nonzero;stroke:none"
                               id="path4052" />
                          </g>
                        </g>
                      </g>
                      <g
                         transform="translate(60.67215,127.2626)"
                         id="g4066">
                        <g
                           id="g4064">
                          <g
                             id="g4062">
                            <path
                               d="m 2.87297,0 c -0.08,-0.266 -0.108,-0.557 -0.051,-0.883 0.092,-0.549 0.234,-0.856 0.617,-1.259 0.509,-0.533 0.083,-1.093 0.127,-1.702 0.199,-2.693 4.603,-3.161 6.54703,-3.17 2.329,-0.007 4.878,0.523 5.285,3.214 0.066,0.449 0.019,0.879 -0.091,1.284 0.428,-0.369 0.789,-0.871 1.05,-1.564 0.585,-1.544 0.71,-3.621 -0.369,-5.016 -1.1467,-1.4808 -3.0138,-1.7076 -4.8439,-1.719 h -0.319 c -0.5479,0.0031 -1.08844,0.0201 -1.60113,0.023 -4.843,-0.111 -10.376,1.252 -9.0143,7.23 0.3,1.516 1.0711,3.379 2.6633,3.562 z"
                               style="mix-blend-mode:multiply;fill:#f4e2b5;fill-opacity:1;fill-rule:nonzero;stroke:none"
                               id="path4060" />
                          </g>
                        </g>
                      </g>
                      <g
                         transform="translate(61.54723,126.19804)"
                         id="g4074">
                        <g
                           id="g4072">
                          <g
                             id="g4070">
                            <path
                               d="m 3.03489,-6.68644 c -1.509,0.307 -2.3542,1.341 -2.8831,2.746 -0.2809,0.743 -0.107,1.541 0.0059,2.295 0.082,0.555 0.107,1.234 0.5601,1.617 0.0711,0.063 0.1801,0.015 0.1809,-0.082 0.009,-0.514 -0.22,-1.021 -0.252,-1.548 -0.0348,-0.589 0.352,-1.241 0.5352,-1.782 0.363,-1.066 1.014,-2.257 2.051,-2.811 0.256,-0.137 0.052,-0.487 -0.198,-0.435 z"
                               style="fill:#4d2c16;fill-opacity:1;fill-rule:nonzero;stroke:none"
                               id="path4068" />
                          </g>
                        </g>
                      </g>
                      <g
                         transform="translate(60.13608,127.90286)"
                         id="g4082">
                        <g
                           id="g4080">
                          <g
                             id="g4078">
                            <path
                               d="m 7.37905,-2.05426 c 0.944,-0.123 1.996,0.105 2.94195,0.196 1.102,0.106 2.197,0.234 3.302,0.129 2.072,-0.198 3.368,-1.45 3.95,-3.402 0.618,-2.071 0.329,-4.552 -1.487,-5.90504 -1.579,-1.177 -3.765,-1.111 -5.631,-1.005 -3.16395,0.175 -6.99795,0.132 -9.27135,2.75704 -1.0922,1.262 -1.3,2.98 -1.132,4.584 0.1781,1.698 0.832,3.809 2.5461,4.528 0.9973,0.418 2.2253,0.024 3.0133,-0.632 0.61,-0.507 1.291,-0.973 2.087,-1.098 0.772,-0.123 1.568,-0.011 2.34495,-0.096 0.482,-0.054 0.478,-0.795 -0.018,-0.763 -1.00495,0.066 -2.01595,-0.009 -2.99995,0.245 -0.93,0.239 -1.632,0.996 -2.568,1.271 -2.2476,0.654 -2.9754,-2.305 -3.2965,-3.887 -0.7609,-3.759 2.9005,-5.44004 6.0255,-5.68804 1.737,-0.136 3.53695,-0.044 5.27495,0.036 2.319,0.102 4.303,1.26404 4.357,3.80704 0.025,1.132 -0.377,2.398 -1.138,3.241 -0.703,0.782 -1.825,0.927 -2.814,0.961 -0.945,0.034 -1.882,-0.05 -2.825,-0.077 -0.96595,-0.023 -1.80695,0.112 -2.73895,0.319 -0.268,0.059 -0.197,0.515 0.077,0.479 z"
                               style="fill:#894f24;fill-opacity:1;fill-rule:nonzero;stroke:none"
                               id="path4076" />
                          </g>
                        </g>
                      </g>
                      <g
                         transform="translate(70.31807,127.93842)"
                         id="g4090">
                        <g
                           id="g4088">
                          <g
                             id="g4086">
                            <path
                               d="m 15.6691,-5.32082 c -1.141,0.855 -2.353,0.379 -3.607,0.803 -0.878,0.339 -1.502,1.008 -2.36705,1.543 -2.099,1.828 -4.175,4.086 -6.94,2.356 -1.402,-0.869 -2.765,-2.443 -2.755,-4.207 0.014,-2.545 2.493,-4.058 4.341,-5.45798 3.778,-3.03 9.00105,-5.31 11.55305,0.266 0.735,1.49198 1.309,3.64898 -0.225,4.69698 z"
                               style="fill:#a7693c;fill-opacity:1;fill-rule:nonzero;stroke:none"
                               id="path4084" />
                          </g>
                        </g>
                      </g>
                      <g
                         transform="translate(70.31812,127.9246)"
                         id="g4098">
                        <g
                           id="g4096">
                          <g
                             id="g4094">
                            <path
                               d="M 15.944,-5.559 C 15.846,-5.818 15.691,-6.067 15.448,-6.29 15.041,-6.67 14.741,-6.83 14.193,-6.914 13.464,-7.03 13.462,-7.735 13.057,-8.191 11.263,-10.207 7.481,-7.904 5.932,-6.729 4.077,-5.32 2.375,-3.35 3.688,-0.963 3.90643,-0.56903 4.20543,-0.25465 4.53838,0 H 4.51092 C 3.95596,-0.03936 3.37383,-0.21702 2.756,-0.605 1.36223,-1.46828 0.00892,-3.02732 0,-4.77721 V -4.812 c 0.014,-2.545 2.493,-4.058 4.341,-5.458 3.778,-3.03 9,-5.31 11.554,0.266 0.3852,0.78047 0.7185,1.74093 0.729,2.62942 v 0.08584 c -0.0079,0.65474 -0.1978,1.26549 -0.68,1.72974 z"
                               style="mix-blend-mode:multiply;fill:#f4e2b5;fill-opacity:1;fill-rule:nonzero;stroke:none"
                               id="path4092" />
                          </g>
                        </g>
                      </g>
                      <g
                         transform="translate(80.58272,120.80909)"
                         id="g4106">
                        <g
                           id="g4104">
                          <g
                             id="g4102">
                            <path
                               d="m 0.1444,-3.96948 c 1.384,-0.675 2.684,-0.364 3.959,0.432 0.675,0.418 1.021,1.157 1.39,1.825 0.271,0.488 0.665,1.045 0.539,1.625 -0.02,0.093 -0.135,0.118 -0.194,0.045 -0.32,-0.405 -0.447,-0.947 -0.741,-1.383 -0.33,-0.489 -1.035,-0.772 -1.508,-1.091 -0.938,-0.628 -2.177,-1.178 -3.338,-0.985 -0.287,0.046 -0.336,-0.356 -0.107,-0.468 z"
                               style="fill:#4d2c16;fill-opacity:1;fill-rule:nonzero;stroke:none"
                               id="path4100" />
                          </g>
                        </g>
                      </g>
                      <g
                         transform="translate(69.717,128.43)"
                         id="g4114">
                        <g
                           id="g4112">
                          <g
                             id="g4110">
                            <path
                               d="m 12.5321,-4.7744 c -0.825,0.478 -1.52,1.296 -2.217,1.944 -0.81097,0.752 -1.60297,1.522 -2.54497,2.11 -1.765,1.1 -3.555,0.894 -5.204,-0.303 -1.751,-1.27 -3.02601,-3.412 -2.408,-5.594 0.538,-1.892 2.316,-3.169 3.86,-4.219 2.621,-1.785 5.639,-4.149 9.04097,-3.444 1.633,0.338 2.841,1.575 3.682,2.949 0.893,1.458 1.656,3.535 0.731,5.146 -0.538,0.936 -1.751,1.371 -2.776,1.33 -0.792,-0.032 -1.617,0.014 -2.326,0.395 -0.687,0.373 -1.252,0.946 -1.921,1.349 -0.415,0.25 -0.86197,-0.342 -0.449,-0.617 0.839,-0.559 1.596,-1.233 2.532,-1.629 0.885,-0.375 1.903,-0.198 2.812,-0.552 2.182,-0.844 0.963,-3.637 0.255,-5.09 -1.679,-3.446 -5.60897,-2.553 -8.23997,-0.852 -1.464,0.945 -2.835,2.113 -4.169,3.231 -1.779,1.492 -2.649,3.62 -1.146,5.674 0.669,0.913 1.756,1.673 2.873,1.881 1.033,0.192 2.013,-0.373 2.819,-0.946 0.771,-0.548 1.465,-1.186 2.198,-1.779 0.75097,-0.607 1.50197,-1.007 2.36897,-1.411 0.248,-0.116 0.468,0.288 0.229,0.427 z"
                               style="fill:#894f24;fill-opacity:1;fill-rule:nonzero;stroke:none"
                               id="path4108" />
                          </g>
                        </g>
                      </g>
                    </g>
                  </g>
                </g>
              </g>
            </g>
          </g>
        </g>
      </g>
    </g>
  </g>
</svg>
