<?xml version="1.0" encoding="UTF-8" standalone="no"?>
<!-- Created with Inkscape (http://www.inkscape.org/) -->

<svg
   version="1.1"
   id="svg18"
   width="300"
   height="150"
   viewBox="0 0 300.00002 150"
   sodipodi:docname="1141_word.svg"
   inkscape:version="1.2.1 (9c6d41e410, 2022-07-14)"
   xmlns:inkscape="http://www.inkscape.org/namespaces/inkscape"
   xmlns:sodipodi="http://sodipodi.sourceforge.net/DTD/sodipodi-0.dtd"
   xmlns="http://www.w3.org/2000/svg"
   xmlns:svg="http://www.w3.org/2000/svg">
  <sodipodi:namedview
     id="namedview37"
     pagecolor="#ffffff"
     bordercolor="#000000"
     borderopacity="0.25"
     inkscape:showpageshadow="2"
     inkscape:pageopacity="0.0"
     inkscape:pagecheckerboard="0"
     inkscape:deskcolor="#d1d1d1"
     showgrid="false"
     inkscape:zoom="4.0941839"
     inkscape:cx="103.19517"
     inkscape:cy="106.24828"
     inkscape:window-width="1700"
     inkscape:window-height="1396"
     inkscape:window-x="8"
     inkscape:window-y="28"
     inkscape:window-maximized="1"
     inkscape:current-layer="svg18" />
  <defs
     id="defs22">
    <clipPath
       clipPathUnits="userSpaceOnUse"
       id="clipPath2796">
      <path
         d="M 0,340.157 H 226.772 V 0 H 0 Z"
         id="path2794" />
    </clipPath>
    <clipPath
       clipPathUnits="userSpaceOnUse"
       id="clipPath2804">
      <path
         d="M 246.772,340.157 H 473.544 V 0 H 246.772 Z"
         id="path2802" />
    </clipPath>
    <clipPath
       clipPathUnits="userSpaceOnUse"
       id="clipPath2812">
      <path
         d="M 246.772,0 H 473.544 V 340.157 H 246.772 Z"
         id="path2810" />
    </clipPath>
    <clipPath
       clipPathUnits="userSpaceOnUse"
       id="clipPath2820">
      <path
         d="M 246.772,340.157 H 473.544 V 0 H 246.772 Z"
         id="path2818" />
    </clipPath>
    <clipPath
       clipPathUnits="userSpaceOnUse"
       id="clipPath2828">
      <path
         d="m 438.313,-190.079 c 0,-43.163 -34.991,-78.155 -78.155,-78.155 -43.164,0 -78.155,34.992 -78.155,78.155 0,43.164 34.991,78.155 78.155,78.155 43.164,0 78.155,-34.991 78.155,-78.155"
         id="path2826" />
    </clipPath>
    <clipPath
       clipPathUnits="userSpaceOnUse"
       id="clipPath702936">
      <path
         d="M 0,340.157 H 226.772 V 0 H 0 Z"
         id="path702934" />
    </clipPath>
    <clipPath
       clipPathUnits="userSpaceOnUse"
       id="clipPath703010">
      <path
         d="M 0,340.157 H 226.772 V 0 H 0 Z"
         id="path703008" />
    </clipPath>
    <clipPath
       clipPathUnits="userSpaceOnUse"
       id="clipPath703120">
      <path
         d="M 0,-20 H 226.772 V -360.157 H 0 Z"
         id="path703118" />
    </clipPath>
    <clipPath
       clipPathUnits="userSpaceOnUse"
       id="clipPath703128">
      <path
         d="M 0,-360.157 H 226.772 V -20 H 0 Z"
         id="path703126" />
    </clipPath>
    <clipPath
       clipPathUnits="userSpaceOnUse"
       id="clipPath703136">
      <path
         d="M 0,-20 H 226.772 V -360.157 H 0 Z"
         id="path703134" />
    </clipPath>
    <clipPath
       clipPathUnits="userSpaceOnUse"
       id="clipPath703144">
      <path
         d="m 438.313,-190.078 c 0,-43.164 -34.992,-78.155 -78.156,-78.155 -43.163,0 -78.154,34.991 -78.154,78.155 0,43.164 34.991,78.155 78.154,78.155 43.164,0 78.156,-34.991 78.156,-78.155"
         id="path703142" />
    </clipPath>
    <clipPath
       clipPathUnits="userSpaceOnUse"
       id="clipPath703160">
      <path
         d="M 246.772,-20 H 473.544 V -360.157 H 246.772 Z"
         id="path703158" />
    </clipPath>
    <clipPath
       clipPathUnits="userSpaceOnUse"
       id="clipPath703168">
      <path
         d="M 246.772,-360.157 H 473.544 V -20 H 246.772 Z"
         id="path703166" />
    </clipPath>
    <clipPath
       clipPathUnits="userSpaceOnUse"
       id="clipPath703176">
      <path
         d="m 282.002,-190.079 c 0,-43.163 34.993,-78.154 78.156,-78.154 43.164,0 78.155,34.991 78.155,78.154 0,43.164 -34.991,78.156 -78.155,78.156 -43.163,0 -78.156,-34.992 -78.156,-78.156"
         id="path703174" />
    </clipPath>
    <clipPath
       clipPathUnits="userSpaceOnUse"
       id="clipPath720772">
      <g
         id="g720776"
         transform="matrix(0.75000002,0,0,-0.75000002,-117.18415,74.879174)">
        <path
           d="M -45.430862,-131.30857 H 256.9318 V 322.23409 H -45.430862 Z"
           id="path720774"
           style="stroke-width:1.33333" />
      </g>
    </clipPath>
    <clipPath
       clipPathUnits="userSpaceOnUse"
       id="clipPath720778">
      <g
         id="g720782"
         transform="matrix(0.75000002,0,0,-0.75000002,-78.789654,69.358173)">
        <path
           d="M -45.430862,-131.30857 H 256.9318 V 322.23409 H -45.430862 Z"
           id="path720780"
           style="stroke-width:1.33333" />
      </g>
    </clipPath>
    <clipPath
       clipPathUnits="userSpaceOnUse"
       id="clipPath720784">
      <g
         id="g720788"
         transform="matrix(0.75000002,0,0,-0.75000002,34.073147,241.67557)">
        <path
           d="M -45.430862,-131.30857 H 256.9318 V 322.23409 H -45.430862 Z"
           id="path720786"
           style="stroke-width:1.33333" />
      </g>
    </clipPath>
    <clipPath
       clipPathUnits="userSpaceOnUse"
       id="clipPath703262">
      <path
         d="M -246.772,-20 H -20 v -340.157 h -226.772 z"
         id="path703260" />
    </clipPath>
    <clipPath
       clipPathUnits="userSpaceOnUse"
       id="clipPath703270">
      <path
         d="M -246.772,-360.157 H -20 V -20 h -226.772 z"
         id="path703268" />
    </clipPath>
    <clipPath
       clipPathUnits="userSpaceOnUse"
       id="clipPath703278">
      <path
         d="M -246.772,-20 H -20 v -340.157 h -226.772 z"
         id="path703276" />
    </clipPath>
    <clipPath
       clipPathUnits="userSpaceOnUse"
       id="clipPath703286">
      <path
         d="m 191.541,-190.078 c 0,-43.164 -34.992,-78.155 -78.156,-78.155 -43.163,0 -78.154,34.991 -78.154,78.155 0,43.164 34.991,78.155 78.154,78.155 43.164,0 78.156,-34.991 78.156,-78.155"
         id="path703284" />
    </clipPath>
    <clipPath
       clipPathUnits="userSpaceOnUse"
       id="clipPath703298">
      <path
         d="M 0,-20 H 226.772 V -360.157 H 0 Z"
         id="path703296" />
    </clipPath>
    <clipPath
       clipPathUnits="userSpaceOnUse"
       id="clipPath703306">
      <path
         d="M 0,-360.157 H 226.772 V -20 H 0 Z"
         id="path703304" />
    </clipPath>
    <clipPath
       clipPathUnits="userSpaceOnUse"
       id="clipPath703314">
      <path
         d="m 35.23,-190.079 c 0,-43.163 34.993,-78.154 78.156,-78.154 43.164,0 78.155,34.991 78.155,78.154 0,43.164 -34.991,78.156 -78.155,78.156 -43.163,0 -78.156,-34.992 -78.156,-78.156"
         id="path703312" />
    </clipPath>
    <clipPath
       clipPathUnits="userSpaceOnUse"
       id="clipPath721254">
      <g
         id="g721258"
         transform="matrix(0.75000002,0,0,-0.75000002,-143.46681,15.486327)">
        <path
           d="M 8.3138826,-226.73543 H 310.67654 V 226.80723 H 8.3138826 Z"
           id="path721256"
           style="stroke-width:1.33333" />
      </g>
    </clipPath>
    <clipPath
       clipPathUnits="userSpaceOnUse"
       id="clipPath721260">
      <g
         id="g721264"
         transform="matrix(0.75000002,0,0,-0.75000002,-150.19041,29.105427)">
        <path
           d="M 8.3138826,-226.73543 H 310.67654 V 226.80723 H 8.3138826 Z"
           id="path721262"
           style="stroke-width:1.33333" />
      </g>
    </clipPath>
    <clipPath
       clipPathUnits="userSpaceOnUse"
       id="clipPath721266">
      <g
         id="g721270"
         transform="matrix(0.75000002,0,0,-0.75000002,-6.2354121,170.10543)">
        <path
           d="M 8.3138826,-226.73543 H 310.67654 V 226.80723 H 8.3138826 Z"
           id="path721268"
           style="stroke-width:1.33333" />
      </g>
    </clipPath>
    <clipPath
       clipPathUnits="userSpaceOnUse"
       id="clipPath703432">
      <path
         d="M 0,340.157 H 226.772 V 0 H 0 Z"
         id="path703430" />
    </clipPath>
    <clipPath
       clipPathUnits="userSpaceOnUse"
       id="clipPath703542">
      <path
         d="M 0,340.157 H 226.772 V 0 H 0 Z"
         id="path703540" />
    </clipPath>
    <clipPath
       clipPathUnits="userSpaceOnUse"
       id="clipPath713424">
      <path
         d="M 0,340.157 H 226.772 V 0 H 0 Z"
         id="path713422" />
    </clipPath>
    <clipPath
       clipPathUnits="userSpaceOnUse"
       id="clipPath713526">
      <path
         d="M 0,340.157 H 226.772 V 0 H 0 Z"
         id="path713524" />
    </clipPath>
    <clipPath
       clipPathUnits="userSpaceOnUse"
       id="clipPath713616">
      <path
         d="M 0,340.157 H 226.772 V 0 H 0 Z"
         id="path713614" />
    </clipPath>
    <clipPath
       clipPathUnits="userSpaceOnUse"
       id="clipPath713690">
      <path
         d="M 0,340.157 H 226.772 V 0 H 0 Z"
         id="path713688" />
    </clipPath>
    <clipPath
       clipPathUnits="userSpaceOnUse"
       id="clipPath713764">
      <path
         d="M 0,340.157 H 226.772 V 0 H 0 Z"
         id="path713762" />
    </clipPath>
    <clipPath
       clipPathUnits="userSpaceOnUse"
       id="clipPath713874">
      <path
         d="M 0,340.157 H 226.772 V 0 H 0 Z"
         id="path713872" />
    </clipPath>
    <clipPath
       clipPathUnits="userSpaceOnUse"
       id="clipPath713874-3">
      <path
         d="M 0,340.157 H 226.772 V 0 H 0 Z"
         id="path713872-6" />
    </clipPath>
    <clipPath
       clipPathUnits="userSpaceOnUse"
       id="clipPath718030">
      <path
         d="M 0,340.157 H 226.772 V 0 H 0 Z"
         id="path718028" />
    </clipPath>
    <clipPath
       clipPathUnits="userSpaceOnUse"
       id="clipPath718104">
      <path
         d="M 0,340.157 H 226.772 V 0 H 0 Z"
         id="path718102" />
    </clipPath>
  </defs>
  <g
     id="g718098"
     transform="matrix(1.3333333,0,0,-1.3333333,-1.1813296,308.42302)">
    <g
       id="g718100"
       clip-path="url(#clipPath718104)">
      <g
         id="g718106"
         transform="translate(124.1523,161.7048)">
        <path
           d="m 0,0 c -3.19,0 -5.573,0.307 -7.147,0.92 -1.575,0.613 -2.618,1.39 -3.129,2.331 -0.512,0.94 -0.766,1.881 -0.766,2.822 0,1.267 0.449,2.433 1.349,3.497 0.899,1.063 2.086,1.595 3.558,1.595 1.922,0 3.537,-0.951 4.846,-2.852 C 0.02,6.41 0.756,3.64 0.92,0 Z M 11.993,-0.645 C 11.358,-0.215 10.592,0 9.692,0 H 5.03 C 4.908,4.171 4.273,7.401 3.128,9.692 c -1.145,2.29 -2.505,3.885 -4.079,4.786 -1.575,0.899 -3.037,1.349 -4.386,1.349 -2.66,0 -4.929,-1.033 -6.81,-3.098 -1.881,-2.065 -2.822,-4.489 -2.822,-7.269 0,-1.882 0.408,-3.661 1.227,-5.338 0.818,-1.677 2.239,-3.036 4.263,-4.079 2.025,-1.043 4.878,-1.564 8.559,-1.564 h 1.227 c -0.859,-3.353 -2.475,-6.166 -4.847,-8.436 -2.372,-2.27 -5.297,-3.404 -8.773,-3.404 -1.84,0 -3.354,0.153 -4.539,0.46 -1.187,0.306 -2.291,0.747 -3.313,1.319 l -0.92,-3.865 c 2.249,-2.003 5.337,-3.006 9.263,-3.006 4.295,0 8.026,1.595 11.196,4.785 3.169,3.189 5.245,7.238 6.227,12.147 h 5.091 c 2.168,0 3.252,0.94 3.252,2.822 0,0.94 -0.317,1.625 -0.951,2.054"
           style="fill:#f91536;fill-opacity:1;fill-rule:nonzero;stroke:none"
           id="path718108" />
      </g>
      <g
         id="g718110"
         transform="translate(148.814,197.5925)">
        <path
           d="m 0,0 c 0,-2.086 -1.064,-3.211 -3.19,-3.374 -0.9,0 -1.656,0.307 -2.27,0.92 -0.613,0.614 -0.92,1.432 -0.92,2.454 0,0.94 0.307,1.728 0.92,2.362 0.614,0.633 1.37,0.951 2.27,0.951 C -1.268,3.313 -0.205,2.209 0,0 m 4.172,-27.299 0.061,1.042 c 0,1.145 -0.184,2.494 -0.552,4.05 -0.368,1.554 -1.043,2.995 -2.025,4.324 -0.981,1.329 -2.249,1.994 -3.803,1.994 -1.636,0 -2.997,-0.562 -4.08,-1.687 -1.084,-1.125 -1.626,-2.423 -1.626,-3.896 0,-1.84 1.043,-3.292 3.129,-4.355 1.922,-0.982 4.621,-1.472 8.098,-1.472 z m -15.644,-14.11 h -3.558 c -1.022,0 -1.799,0.296 -2.331,0.889 -0.531,0.593 -0.798,1.258 -0.798,1.995 0,0.694 0.267,1.318 0.798,1.871 0.532,0.551 1.309,0.828 2.331,0.828 h 4.111 c 3.148,0 6.113,0.193 8.895,0.582 2.78,0.389 4.641,0.787 5.582,1.196 0.204,0.614 0.307,1.309 0.307,2.086 H 2.577 c -3.19,0 -5.869,0.44 -8.037,1.319 -2.168,0.879 -3.763,2.106 -4.785,3.681 -1.023,1.574 -1.533,3.199 -1.533,4.877 0,2.822 1.063,5.398 3.19,7.73 1.144,1.144 2.371,1.983 3.68,2.515 1.309,0.531 2.474,0.798 3.497,0.798 1.554,0 3.077,-0.604 4.571,-1.811 1.492,-1.206 2.73,-2.974 3.711,-5.305 0.982,-2.332 1.472,-5.195 1.472,-8.589 0,-1.514 -0.133,-3.313 -0.399,-5.399 -0.266,-2.085 -0.665,-3.844 -1.196,-5.276 -0.613,-0.49 -1.605,-1.043 -2.975,-1.656 -1.371,-0.613 -3.273,-1.156 -5.705,-1.626 -2.434,-0.47 -5.613,-0.705 -9.54,-0.705 m -53.065,-8.589 c -4.622,0 -8.221,1.289 -10.797,3.865 -2.577,2.576 -3.865,5.991 -3.865,10.245 0,3.027 0.634,6.155 1.902,9.386 l 3.558,-0.552 c -0.696,-2.454 -1.043,-4.887 -1.043,-7.3 0,-2.66 0.541,-4.745 1.625,-6.257 1.084,-1.513 2.444,-2.587 4.08,-3.221 1.635,-0.634 3.271,-0.951 4.908,-0.951 2.249,0 4.417,0.429 6.502,1.288 2.086,0.859 3.66,2.167 4.724,3.927 0.286,0.613 0.43,1.471 0.43,2.576 l -1.595,39.753 4.601,0.368 1.595,-39.323 c 0,-2.005 -0.328,-3.661 -0.982,-4.97 -1.513,-2.903 -3.742,-5.101 -6.687,-6.595 -2.944,-1.492 -5.93,-2.239 -8.956,-2.239"
           style="fill:#1d1d1b;fill-opacity:1;fill-rule:nonzero;stroke:none"
           id="path718112" />
      </g>
    </g>
  </g>
</svg>
