<?xml version="1.0" encoding="UTF-8" standalone="no"?>
<!-- Created with Inkscape (http://www.inkscape.org/) -->

<svg
   version="1.1"
   id="svg18"
   width="300"
   height="150"
   viewBox="0 0 300.00002 150"
   sodipodi:docname="1142_word.svg"
   inkscape:version="1.2.1 (9c6d41e410, 2022-07-14)"
   xmlns:inkscape="http://www.inkscape.org/namespaces/inkscape"
   xmlns:sodipodi="http://sodipodi.sourceforge.net/DTD/sodipodi-0.dtd"
   xmlns="http://www.w3.org/2000/svg"
   xmlns:svg="http://www.w3.org/2000/svg">
  <sodipodi:namedview
     id="namedview37"
     pagecolor="#ffffff"
     bordercolor="#000000"
     borderopacity="0.25"
     inkscape:showpageshadow="2"
     inkscape:pageopacity="0.0"
     inkscape:pagecheckerboard="0"
     inkscape:deskcolor="#d1d1d1"
     showgrid="false"
     inkscape:zoom="4.0941839"
     inkscape:cx="103.19517"
     inkscape:cy="106.24828"
     inkscape:window-width="1700"
     inkscape:window-height="1396"
     inkscape:window-x="8"
     inkscape:window-y="28"
     inkscape:window-maximized="1"
     inkscape:current-layer="svg18" />
  <defs
     id="defs22">
    <clipPath
       clipPathUnits="userSpaceOnUse"
       id="clipPath2796">
      <path
         d="M 0,340.157 H 226.772 V 0 H 0 Z"
         id="path2794" />
    </clipPath>
    <clipPath
       clipPathUnits="userSpaceOnUse"
       id="clipPath2804">
      <path
         d="M 246.772,340.157 H 473.544 V 0 H 246.772 Z"
         id="path2802" />
    </clipPath>
    <clipPath
       clipPathUnits="userSpaceOnUse"
       id="clipPath2812">
      <path
         d="M 246.772,0 H 473.544 V 340.157 H 246.772 Z"
         id="path2810" />
    </clipPath>
    <clipPath
       clipPathUnits="userSpaceOnUse"
       id="clipPath2820">
      <path
         d="M 246.772,340.157 H 473.544 V 0 H 246.772 Z"
         id="path2818" />
    </clipPath>
    <clipPath
       clipPathUnits="userSpaceOnUse"
       id="clipPath2828">
      <path
         d="m 438.313,-190.079 c 0,-43.163 -34.991,-78.155 -78.155,-78.155 -43.164,0 -78.155,34.992 -78.155,78.155 0,43.164 34.991,78.155 78.155,78.155 43.164,0 78.155,-34.991 78.155,-78.155"
         id="path2826" />
    </clipPath>
    <clipPath
       clipPathUnits="userSpaceOnUse"
       id="clipPath702936">
      <path
         d="M 0,340.157 H 226.772 V 0 H 0 Z"
         id="path702934" />
    </clipPath>
    <clipPath
       clipPathUnits="userSpaceOnUse"
       id="clipPath703010">
      <path
         d="M 0,340.157 H 226.772 V 0 H 0 Z"
         id="path703008" />
    </clipPath>
    <clipPath
       clipPathUnits="userSpaceOnUse"
       id="clipPath703120">
      <path
         d="M 0,-20 H 226.772 V -360.157 H 0 Z"
         id="path703118" />
    </clipPath>
    <clipPath
       clipPathUnits="userSpaceOnUse"
       id="clipPath703128">
      <path
         d="M 0,-360.157 H 226.772 V -20 H 0 Z"
         id="path703126" />
    </clipPath>
    <clipPath
       clipPathUnits="userSpaceOnUse"
       id="clipPath703136">
      <path
         d="M 0,-20 H 226.772 V -360.157 H 0 Z"
         id="path703134" />
    </clipPath>
    <clipPath
       clipPathUnits="userSpaceOnUse"
       id="clipPath703144">
      <path
         d="m 438.313,-190.078 c 0,-43.164 -34.992,-78.155 -78.156,-78.155 -43.163,0 -78.154,34.991 -78.154,78.155 0,43.164 34.991,78.155 78.154,78.155 43.164,0 78.156,-34.991 78.156,-78.155"
         id="path703142" />
    </clipPath>
    <clipPath
       clipPathUnits="userSpaceOnUse"
       id="clipPath703160">
      <path
         d="M 246.772,-20 H 473.544 V -360.157 H 246.772 Z"
         id="path703158" />
    </clipPath>
    <clipPath
       clipPathUnits="userSpaceOnUse"
       id="clipPath703168">
      <path
         d="M 246.772,-360.157 H 473.544 V -20 H 246.772 Z"
         id="path703166" />
    </clipPath>
    <clipPath
       clipPathUnits="userSpaceOnUse"
       id="clipPath703176">
      <path
         d="m 282.002,-190.079 c 0,-43.163 34.993,-78.154 78.156,-78.154 43.164,0 78.155,34.991 78.155,78.154 0,43.164 -34.991,78.156 -78.155,78.156 -43.163,0 -78.156,-34.992 -78.156,-78.156"
         id="path703174" />
    </clipPath>
    <clipPath
       clipPathUnits="userSpaceOnUse"
       id="clipPath720772">
      <g
         id="g720776"
         transform="matrix(0.75000002,0,0,-0.75000002,-117.18415,74.879174)">
        <path
           d="M -45.430862,-131.30857 H 256.9318 V 322.23409 H -45.430862 Z"
           id="path720774"
           style="stroke-width:1.33333" />
      </g>
    </clipPath>
    <clipPath
       clipPathUnits="userSpaceOnUse"
       id="clipPath720778">
      <g
         id="g720782"
         transform="matrix(0.75000002,0,0,-0.75000002,-78.789654,69.358173)">
        <path
           d="M -45.430862,-131.30857 H 256.9318 V 322.23409 H -45.430862 Z"
           id="path720780"
           style="stroke-width:1.33333" />
      </g>
    </clipPath>
    <clipPath
       clipPathUnits="userSpaceOnUse"
       id="clipPath720784">
      <g
         id="g720788"
         transform="matrix(0.75000002,0,0,-0.75000002,34.073147,241.67557)">
        <path
           d="M -45.430862,-131.30857 H 256.9318 V 322.23409 H -45.430862 Z"
           id="path720786"
           style="stroke-width:1.33333" />
      </g>
    </clipPath>
    <clipPath
       clipPathUnits="userSpaceOnUse"
       id="clipPath703262">
      <path
         d="M -246.772,-20 H -20 v -340.157 h -226.772 z"
         id="path703260" />
    </clipPath>
    <clipPath
       clipPathUnits="userSpaceOnUse"
       id="clipPath703270">
      <path
         d="M -246.772,-360.157 H -20 V -20 h -226.772 z"
         id="path703268" />
    </clipPath>
    <clipPath
       clipPathUnits="userSpaceOnUse"
       id="clipPath703278">
      <path
         d="M -246.772,-20 H -20 v -340.157 h -226.772 z"
         id="path703276" />
    </clipPath>
    <clipPath
       clipPathUnits="userSpaceOnUse"
       id="clipPath703286">
      <path
         d="m 191.541,-190.078 c 0,-43.164 -34.992,-78.155 -78.156,-78.155 -43.163,0 -78.154,34.991 -78.154,78.155 0,43.164 34.991,78.155 78.154,78.155 43.164,0 78.156,-34.991 78.156,-78.155"
         id="path703284" />
    </clipPath>
    <clipPath
       clipPathUnits="userSpaceOnUse"
       id="clipPath703298">
      <path
         d="M 0,-20 H 226.772 V -360.157 H 0 Z"
         id="path703296" />
    </clipPath>
    <clipPath
       clipPathUnits="userSpaceOnUse"
       id="clipPath703306">
      <path
         d="M 0,-360.157 H 226.772 V -20 H 0 Z"
         id="path703304" />
    </clipPath>
    <clipPath
       clipPathUnits="userSpaceOnUse"
       id="clipPath703314">
      <path
         d="m 35.23,-190.079 c 0,-43.163 34.993,-78.154 78.156,-78.154 43.164,0 78.155,34.991 78.155,78.154 0,43.164 -34.991,78.156 -78.155,78.156 -43.163,0 -78.156,-34.992 -78.156,-78.156"
         id="path703312" />
    </clipPath>
    <clipPath
       clipPathUnits="userSpaceOnUse"
       id="clipPath721254">
      <g
         id="g721258"
         transform="matrix(0.75000002,0,0,-0.75000002,-143.46681,15.486327)">
        <path
           d="M 8.3138826,-226.73543 H 310.67654 V 226.80723 H 8.3138826 Z"
           id="path721256"
           style="stroke-width:1.33333" />
      </g>
    </clipPath>
    <clipPath
       clipPathUnits="userSpaceOnUse"
       id="clipPath721260">
      <g
         id="g721264"
         transform="matrix(0.75000002,0,0,-0.75000002,-150.19041,29.105427)">
        <path
           d="M 8.3138826,-226.73543 H 310.67654 V 226.80723 H 8.3138826 Z"
           id="path721262"
           style="stroke-width:1.33333" />
      </g>
    </clipPath>
    <clipPath
       clipPathUnits="userSpaceOnUse"
       id="clipPath721266">
      <g
         id="g721270"
         transform="matrix(0.75000002,0,0,-0.75000002,-6.2354121,170.10543)">
        <path
           d="M 8.3138826,-226.73543 H 310.67654 V 226.80723 H 8.3138826 Z"
           id="path721268"
           style="stroke-width:1.33333" />
      </g>
    </clipPath>
    <clipPath
       clipPathUnits="userSpaceOnUse"
       id="clipPath703432">
      <path
         d="M 0,340.157 H 226.772 V 0 H 0 Z"
         id="path703430" />
    </clipPath>
    <clipPath
       clipPathUnits="userSpaceOnUse"
       id="clipPath703542">
      <path
         d="M 0,340.157 H 226.772 V 0 H 0 Z"
         id="path703540" />
    </clipPath>
    <clipPath
       clipPathUnits="userSpaceOnUse"
       id="clipPath713424">
      <path
         d="M 0,340.157 H 226.772 V 0 H 0 Z"
         id="path713422" />
    </clipPath>
    <clipPath
       clipPathUnits="userSpaceOnUse"
       id="clipPath713526">
      <path
         d="M 0,340.157 H 226.772 V 0 H 0 Z"
         id="path713524" />
    </clipPath>
    <clipPath
       clipPathUnits="userSpaceOnUse"
       id="clipPath713616">
      <path
         d="M 0,340.157 H 226.772 V 0 H 0 Z"
         id="path713614" />
    </clipPath>
    <clipPath
       clipPathUnits="userSpaceOnUse"
       id="clipPath713690">
      <path
         d="M 0,340.157 H 226.772 V 0 H 0 Z"
         id="path713688" />
    </clipPath>
    <clipPath
       clipPathUnits="userSpaceOnUse"
       id="clipPath713764">
      <path
         d="M 0,340.157 H 226.772 V 0 H 0 Z"
         id="path713762" />
    </clipPath>
    <clipPath
       clipPathUnits="userSpaceOnUse"
       id="clipPath713874">
      <path
         d="M 0,340.157 H 226.772 V 0 H 0 Z"
         id="path713872" />
    </clipPath>
    <clipPath
       clipPathUnits="userSpaceOnUse"
       id="clipPath713874-3">
      <path
         d="M 0,340.157 H 226.772 V 0 H 0 Z"
         id="path713872-6" />
    </clipPath>
    <clipPath
       clipPathUnits="userSpaceOnUse"
       id="clipPath718030">
      <path
         d="M 0,340.157 H 226.772 V 0 H 0 Z"
         id="path718028" />
    </clipPath>
    <clipPath
       clipPathUnits="userSpaceOnUse"
       id="clipPath718104">
      <path
         d="M 0,340.157 H 226.772 V 0 H 0 Z"
         id="path718102" />
    </clipPath>
    <clipPath
       clipPathUnits="userSpaceOnUse"
       id="clipPath718178">
      <path
         d="M 0,340.157 H 226.772 V 0 H 0 Z"
         id="path718176" />
    </clipPath>
  </defs>
  <g
     id="g718172"
     transform="matrix(1.3333333,0,0,-1.3333333,-1.1815962,306.64079)">
    <g
       id="g718174"
       clip-path="url(#clipPath718178)">
      <g
         id="g718180"
         transform="translate(87.8105,141.031)">
        <path
           d="m 0,0 c -4.622,0 -8.323,1.329 -11.104,3.987 -2.781,2.659 -4.171,6.258 -4.171,10.797 0,3.068 0.694,6.36 2.086,9.877 l 3.558,-0.613 c -0.819,-2.782 -1.227,-5.277 -1.227,-7.485 0,-2.739 0.572,-4.948 1.717,-6.625 1.145,-1.676 2.597,-2.883 4.356,-3.62 1.758,-0.736 3.558,-1.104 5.399,-1.104 2.657,0 5.05,0.532 7.177,1.596 3.517,1.758 5.276,4.069 5.276,6.931 l -1.902,44.783 4.663,0.369 1.227,-32.821 c 0.285,-1.759 0.797,-3.089 1.533,-3.987 0.736,-0.9 1.574,-1.494 2.516,-1.779 0.94,-0.287 1.871,-0.43 2.791,-0.43 0.92,0 1.696,-0.215 2.331,-0.644 0.633,-0.429 0.951,-1.115 0.951,-2.055 0,-1.882 -1.104,-2.823 -3.313,-2.823 -2.986,0 -5.153,1.002 -6.503,3.007 l 0.062,-1.717 c 0,-3.599 -0.614,-6.135 -1.841,-7.608 C 13.946,5.46 11.727,3.477 8.926,2.086 6.125,0.695 3.149,0 0,0"
           style="fill:#f91536;fill-opacity:1;fill-rule:nonzero;stroke:none"
           id="path718182" />
      </g>
      <g
         id="g718184"
         transform="translate(134.1396,158.2077)">
        <path
           d="m 0,0 c 0,-1.882 -1.084,-2.822 -3.251,-2.822 -2.66,0 -4.745,0.511 -6.258,1.534 -1.513,1.021 -2.576,2.556 -3.19,4.601 -1.513,-4.09 -4.846,-6.135 -9.999,-6.135 -2.086,0 -3.129,0.94 -3.129,2.822 0,0.613 0.245,1.217 0.736,1.81 0.491,0.592 1.309,0.889 2.454,0.889 2.249,0 3.967,0.408 5.153,1.228 1.186,0.817 2.034,1.931 2.546,3.343 0.511,1.411 0.848,3.015 1.012,4.816 l 3.62,0.307 c -0.083,-0.656 -0.123,-1.35 -0.123,-2.086 0,-1.269 0.184,-2.485 0.552,-3.651 0.368,-1.166 1.074,-2.106 2.117,-2.822 1.042,-0.716 2.546,-1.095 4.509,-1.135 0.898,0 1.666,-0.215 2.3,-0.643 C -0.317,1.626 0,0.94 0,0"
           style="fill:#1d1d1b;fill-opacity:1;fill-rule:nonzero;stroke:none"
           id="path718186" />
      </g>
      <g
         id="g718188"
         transform="translate(120.459,143.3005)">
        <path
           d="m 0,0 c 0,-1.963 -1.042,-3.046 -3.128,-3.251 -0.9,0 -1.647,0.286 -2.24,0.858 -0.593,0.574 -0.889,1.372 -0.889,2.393 0,1.963 1.043,3.047 3.129,3.251 0.94,0 1.696,-0.296 2.27,-0.889 C -0.287,1.77 0,0.981 0,0"
           style="fill:#1d1d1b;fill-opacity:1;fill-rule:nonzero;stroke:none"
           id="path718190" />
      </g>
      <g
         id="g718192"
         transform="translate(128.6797,143.3005)">
        <path
           d="m 0,0 c 0,-1.963 -1.043,-3.046 -3.129,-3.251 -1.84,0 -2.843,1.084 -3.006,3.251 0,1.963 1.002,3.047 3.006,3.251 0.941,0 1.697,-0.296 2.27,-0.889 C -0.287,1.77 0,0.981 0,0"
           style="fill:#1d1d1b;fill-opacity:1;fill-rule:nonzero;stroke:none"
           id="path718194" />
      </g>
      <g
         id="g718196"
         transform="translate(150.0649,169.4958)">
        <path
           d="m 0,0 h -0.797 c -3.477,0 -6.176,0.49 -8.098,1.473 -2.086,1.062 -3.129,2.514 -3.129,4.355 0,1.472 0.542,2.77 1.626,3.896 1.083,1.124 2.443,1.686 4.08,1.686 1.553,0 2.821,-0.665 3.803,-1.993 0.982,-1.33 1.657,-2.771 2.024,-4.325 0.368,-1.555 0.553,-2.904 0.553,-4.049 z m 2.7,9.141 c -0.982,2.331 -2.22,4.099 -3.712,5.306 -1.493,1.206 -3.016,1.81 -4.571,1.81 -1.022,0 -2.188,-0.267 -3.496,-0.798 -1.31,-0.531 -2.536,-1.37 -3.681,-2.515 -2.127,-2.331 -3.19,-4.908 -3.19,-7.729 0,-1.678 0.511,-3.304 1.533,-4.878 1.022,-1.574 2.618,-2.802 4.786,-3.681 2.167,-0.88 4.846,-1.318 8.036,-1.318 h 1.288 c 0,-0.777 -0.102,-1.473 -0.306,-2.086 -0.942,-0.409 -2.802,-0.809 -5.583,-1.196 -2.782,-0.39 -5.746,-0.583 -8.895,-0.583 h -4.11 c -1.022,0 -1.799,-0.277 -2.332,-0.828 -0.53,-0.552 -0.797,-1.176 -0.797,-1.872 0,-0.736 0.267,-1.401 0.797,-1.994 0.533,-0.592 1.31,-0.889 2.332,-0.889 h 3.558 c 3.926,0 7.105,0.235 9.539,0.706 2.433,0.469 4.335,1.011 5.706,1.626 1.369,0.613 2.361,1.165 2.975,1.656 0.531,1.431 0.93,3.189 1.196,5.275 0.266,2.086 0.399,3.885 0.399,5.399 0,3.394 -0.491,6.258 -1.472,8.589"
           style="fill:#f91536;fill-opacity:1;fill-rule:nonzero;stroke:none"
           id="path718198" />
      </g>
      <g
         id="g718200"
         transform="translate(145.8935,196.7946)">
        <path
           d="m 0,0 c 0,-2.085 -1.064,-3.211 -3.19,-3.374 -0.9,0 -1.656,0.308 -2.27,0.921 -0.613,0.613 -0.92,1.431 -0.92,2.453 0,0.94 0.307,1.728 0.92,2.362 0.614,0.634 1.37,0.951 2.27,0.951 C -1.268,3.313 -0.205,2.209 0,0"
           style="fill:#f91536;fill-opacity:1;fill-rule:nonzero;stroke:none"
           id="path718202" />
      </g>
    </g>
  </g>
</svg>
