<?xml version="1.0" encoding="UTF-8" standalone="no"?>
<!-- Created with Inkscape (http://www.inkscape.org/) -->

<svg
   version="1.1"
   id="svg18"
   width="300"
   height="150"
   viewBox="0 0 300.00002 150"
   sodipodi:docname="1144_word.svg"
   inkscape:version="1.2.1 (9c6d41e410, 2022-07-14)"
   xmlns:inkscape="http://www.inkscape.org/namespaces/inkscape"
   xmlns:sodipodi="http://sodipodi.sourceforge.net/DTD/sodipodi-0.dtd"
   xmlns="http://www.w3.org/2000/svg"
   xmlns:svg="http://www.w3.org/2000/svg">
  <sodipodi:namedview
     id="namedview37"
     pagecolor="#ffffff"
     bordercolor="#000000"
     borderopacity="0.25"
     inkscape:showpageshadow="2"
     inkscape:pageopacity="0.0"
     inkscape:pagecheckerboard="0"
     inkscape:deskcolor="#d1d1d1"
     showgrid="false"
     inkscape:zoom="4.0941839"
     inkscape:cx="103.19517"
     inkscape:cy="106.24828"
     inkscape:window-width="1700"
     inkscape:window-height="1396"
     inkscape:window-x="8"
     inkscape:window-y="28"
     inkscape:window-maximized="1"
     inkscape:current-layer="svg18" />
  <defs
     id="defs22">
    <clipPath
       clipPathUnits="userSpaceOnUse"
       id="clipPath2796">
      <path
         d="M 0,340.157 H 226.772 V 0 H 0 Z"
         id="path2794" />
    </clipPath>
    <clipPath
       clipPathUnits="userSpaceOnUse"
       id="clipPath2804">
      <path
         d="M 246.772,340.157 H 473.544 V 0 H 246.772 Z"
         id="path2802" />
    </clipPath>
    <clipPath
       clipPathUnits="userSpaceOnUse"
       id="clipPath2812">
      <path
         d="M 246.772,0 H 473.544 V 340.157 H 246.772 Z"
         id="path2810" />
    </clipPath>
    <clipPath
       clipPathUnits="userSpaceOnUse"
       id="clipPath2820">
      <path
         d="M 246.772,340.157 H 473.544 V 0 H 246.772 Z"
         id="path2818" />
    </clipPath>
    <clipPath
       clipPathUnits="userSpaceOnUse"
       id="clipPath2828">
      <path
         d="m 438.313,-190.079 c 0,-43.163 -34.991,-78.155 -78.155,-78.155 -43.164,0 -78.155,34.992 -78.155,78.155 0,43.164 34.991,78.155 78.155,78.155 43.164,0 78.155,-34.991 78.155,-78.155"
         id="path2826" />
    </clipPath>
    <clipPath
       clipPathUnits="userSpaceOnUse"
       id="clipPath702936">
      <path
         d="M 0,340.157 H 226.772 V 0 H 0 Z"
         id="path702934" />
    </clipPath>
    <clipPath
       clipPathUnits="userSpaceOnUse"
       id="clipPath703010">
      <path
         d="M 0,340.157 H 226.772 V 0 H 0 Z"
         id="path703008" />
    </clipPath>
    <clipPath
       clipPathUnits="userSpaceOnUse"
       id="clipPath703120">
      <path
         d="M 0,-20 H 226.772 V -360.157 H 0 Z"
         id="path703118" />
    </clipPath>
    <clipPath
       clipPathUnits="userSpaceOnUse"
       id="clipPath703128">
      <path
         d="M 0,-360.157 H 226.772 V -20 H 0 Z"
         id="path703126" />
    </clipPath>
    <clipPath
       clipPathUnits="userSpaceOnUse"
       id="clipPath703136">
      <path
         d="M 0,-20 H 226.772 V -360.157 H 0 Z"
         id="path703134" />
    </clipPath>
    <clipPath
       clipPathUnits="userSpaceOnUse"
       id="clipPath703144">
      <path
         d="m 438.313,-190.078 c 0,-43.164 -34.992,-78.155 -78.156,-78.155 -43.163,0 -78.154,34.991 -78.154,78.155 0,43.164 34.991,78.155 78.154,78.155 43.164,0 78.156,-34.991 78.156,-78.155"
         id="path703142" />
    </clipPath>
    <clipPath
       clipPathUnits="userSpaceOnUse"
       id="clipPath703160">
      <path
         d="M 246.772,-20 H 473.544 V -360.157 H 246.772 Z"
         id="path703158" />
    </clipPath>
    <clipPath
       clipPathUnits="userSpaceOnUse"
       id="clipPath703168">
      <path
         d="M 246.772,-360.157 H 473.544 V -20 H 246.772 Z"
         id="path703166" />
    </clipPath>
    <clipPath
       clipPathUnits="userSpaceOnUse"
       id="clipPath703176">
      <path
         d="m 282.002,-190.079 c 0,-43.163 34.993,-78.154 78.156,-78.154 43.164,0 78.155,34.991 78.155,78.154 0,43.164 -34.991,78.156 -78.155,78.156 -43.163,0 -78.156,-34.992 -78.156,-78.156"
         id="path703174" />
    </clipPath>
    <clipPath
       clipPathUnits="userSpaceOnUse"
       id="clipPath720772">
      <g
         id="g720776"
         transform="matrix(0.75000002,0,0,-0.75000002,-117.18415,74.879174)">
        <path
           d="M -45.430862,-131.30857 H 256.9318 V 322.23409 H -45.430862 Z"
           id="path720774"
           style="stroke-width:1.33333" />
      </g>
    </clipPath>
    <clipPath
       clipPathUnits="userSpaceOnUse"
       id="clipPath720778">
      <g
         id="g720782"
         transform="matrix(0.75000002,0,0,-0.75000002,-78.789654,69.358173)">
        <path
           d="M -45.430862,-131.30857 H 256.9318 V 322.23409 H -45.430862 Z"
           id="path720780"
           style="stroke-width:1.33333" />
      </g>
    </clipPath>
    <clipPath
       clipPathUnits="userSpaceOnUse"
       id="clipPath720784">
      <g
         id="g720788"
         transform="matrix(0.75000002,0,0,-0.75000002,34.073147,241.67557)">
        <path
           d="M -45.430862,-131.30857 H 256.9318 V 322.23409 H -45.430862 Z"
           id="path720786"
           style="stroke-width:1.33333" />
      </g>
    </clipPath>
    <clipPath
       clipPathUnits="userSpaceOnUse"
       id="clipPath703262">
      <path
         d="M -246.772,-20 H -20 v -340.157 h -226.772 z"
         id="path703260" />
    </clipPath>
    <clipPath
       clipPathUnits="userSpaceOnUse"
       id="clipPath703270">
      <path
         d="M -246.772,-360.157 H -20 V -20 h -226.772 z"
         id="path703268" />
    </clipPath>
    <clipPath
       clipPathUnits="userSpaceOnUse"
       id="clipPath703278">
      <path
         d="M -246.772,-20 H -20 v -340.157 h -226.772 z"
         id="path703276" />
    </clipPath>
    <clipPath
       clipPathUnits="userSpaceOnUse"
       id="clipPath703286">
      <path
         d="m 191.541,-190.078 c 0,-43.164 -34.992,-78.155 -78.156,-78.155 -43.163,0 -78.154,34.991 -78.154,78.155 0,43.164 34.991,78.155 78.154,78.155 43.164,0 78.156,-34.991 78.156,-78.155"
         id="path703284" />
    </clipPath>
    <clipPath
       clipPathUnits="userSpaceOnUse"
       id="clipPath703298">
      <path
         d="M 0,-20 H 226.772 V -360.157 H 0 Z"
         id="path703296" />
    </clipPath>
    <clipPath
       clipPathUnits="userSpaceOnUse"
       id="clipPath703306">
      <path
         d="M 0,-360.157 H 226.772 V -20 H 0 Z"
         id="path703304" />
    </clipPath>
    <clipPath
       clipPathUnits="userSpaceOnUse"
       id="clipPath703314">
      <path
         d="m 35.23,-190.079 c 0,-43.163 34.993,-78.154 78.156,-78.154 43.164,0 78.155,34.991 78.155,78.154 0,43.164 -34.991,78.156 -78.155,78.156 -43.163,0 -78.156,-34.992 -78.156,-78.156"
         id="path703312" />
    </clipPath>
    <clipPath
       clipPathUnits="userSpaceOnUse"
       id="clipPath721254">
      <g
         id="g721258"
         transform="matrix(0.75000002,0,0,-0.75000002,-143.46681,15.486327)">
        <path
           d="M 8.3138826,-226.73543 H 310.67654 V 226.80723 H 8.3138826 Z"
           id="path721256"
           style="stroke-width:1.33333" />
      </g>
    </clipPath>
    <clipPath
       clipPathUnits="userSpaceOnUse"
       id="clipPath721260">
      <g
         id="g721264"
         transform="matrix(0.75000002,0,0,-0.75000002,-150.19041,29.105427)">
        <path
           d="M 8.3138826,-226.73543 H 310.67654 V 226.80723 H 8.3138826 Z"
           id="path721262"
           style="stroke-width:1.33333" />
      </g>
    </clipPath>
    <clipPath
       clipPathUnits="userSpaceOnUse"
       id="clipPath721266">
      <g
         id="g721270"
         transform="matrix(0.75000002,0,0,-0.75000002,-6.2354121,170.10543)">
        <path
           d="M 8.3138826,-226.73543 H 310.67654 V 226.80723 H 8.3138826 Z"
           id="path721268"
           style="stroke-width:1.33333" />
      </g>
    </clipPath>
    <clipPath
       clipPathUnits="userSpaceOnUse"
       id="clipPath703432">
      <path
         d="M 0,340.157 H 226.772 V 0 H 0 Z"
         id="path703430" />
    </clipPath>
    <clipPath
       clipPathUnits="userSpaceOnUse"
       id="clipPath703542">
      <path
         d="M 0,340.157 H 226.772 V 0 H 0 Z"
         id="path703540" />
    </clipPath>
    <clipPath
       clipPathUnits="userSpaceOnUse"
       id="clipPath713424">
      <path
         d="M 0,340.157 H 226.772 V 0 H 0 Z"
         id="path713422" />
    </clipPath>
    <clipPath
       clipPathUnits="userSpaceOnUse"
       id="clipPath713526">
      <path
         d="M 0,340.157 H 226.772 V 0 H 0 Z"
         id="path713524" />
    </clipPath>
    <clipPath
       clipPathUnits="userSpaceOnUse"
       id="clipPath713616">
      <path
         d="M 0,340.157 H 226.772 V 0 H 0 Z"
         id="path713614" />
    </clipPath>
    <clipPath
       clipPathUnits="userSpaceOnUse"
       id="clipPath713690">
      <path
         d="M 0,340.157 H 226.772 V 0 H 0 Z"
         id="path713688" />
    </clipPath>
    <clipPath
       clipPathUnits="userSpaceOnUse"
       id="clipPath713764">
      <path
         d="M 0,340.157 H 226.772 V 0 H 0 Z"
         id="path713762" />
    </clipPath>
    <clipPath
       clipPathUnits="userSpaceOnUse"
       id="clipPath713874">
      <path
         d="M 0,340.157 H 226.772 V 0 H 0 Z"
         id="path713872" />
    </clipPath>
    <clipPath
       clipPathUnits="userSpaceOnUse"
       id="clipPath713874-3">
      <path
         d="M 0,340.157 H 226.772 V 0 H 0 Z"
         id="path713872-6" />
    </clipPath>
    <clipPath
       clipPathUnits="userSpaceOnUse"
       id="clipPath718030">
      <path
         d="M 0,340.157 H 226.772 V 0 H 0 Z"
         id="path718028" />
    </clipPath>
    <clipPath
       clipPathUnits="userSpaceOnUse"
       id="clipPath718104">
      <path
         d="M 0,340.157 H 226.772 V 0 H 0 Z"
         id="path718102" />
    </clipPath>
    <clipPath
       clipPathUnits="userSpaceOnUse"
       id="clipPath718178">
      <path
         d="M 0,340.157 H 226.772 V 0 H 0 Z"
         id="path718176" />
    </clipPath>
    <clipPath
       clipPathUnits="userSpaceOnUse"
       id="clipPath718296">
      <path
         d="M 0,340.157 H 226.772 V 0 H 0 Z"
         id="path718294" />
    </clipPath>
    <clipPath
       clipPathUnits="userSpaceOnUse"
       id="clipPath718398">
      <path
         d="M 0,340.157 H 226.772 V 0 H 0 Z"
         id="path718396" />
    </clipPath>
  </defs>
  <g
     id="g718392"
     transform="matrix(1.3333333,0,0,-1.3333333,-1.1820629,308.18704)">
    <g
       id="g718394"
       clip-path="url(#clipPath718398)">
      <g
         id="g718400"
         transform="translate(73.5346,142.2273)">
        <path
           d="m 0,0 c -4.335,0 -7.771,1.401 -10.306,4.202 -2.536,2.802 -3.803,6.268 -3.803,10.399 0,2.167 0.255,4.211 0.766,6.134 0.511,1.922 1.094,3.537 1.749,4.846 l 3.251,-0.613 c -0.981,-3.395 -1.472,-6.299 -1.472,-8.711 0,-3.476 1.043,-6.145 3.128,-8.006 2.086,-1.86 4.602,-2.791 7.546,-2.791 2.904,0 5.358,0.685 7.362,2.055 2.004,1.371 3.435,3.261 4.295,5.674 0.245,0.982 0.367,1.718 0.367,2.208 -0.49,4.253 -1.8,8.61 -3.926,13.068 l 4.417,1.656 c 1.064,-2.454 2.045,-5.439 2.944,-8.957 0.246,-0.858 0.696,-1.503 1.35,-1.932 0.654,-0.429 1.411,-0.644 2.27,-0.644 1.063,0 1.983,0.255 2.761,0.766 0.777,0.511 1.451,1.535 2.025,3.068 0.572,1.534 1.042,3.834 1.41,6.901 l 3.803,0.185 -0.306,-4.417 c -0.082,-0.696 -0.123,-1.33 -0.123,-1.903 0,-1.717 0.265,-2.904 0.798,-3.557 0.531,-0.655 1.329,-0.982 2.392,-0.982 1.432,0 2.546,0.592 3.344,1.78 0.797,1.185 1.39,2.576 1.778,4.171 0.389,1.595 0.685,3.067 0.89,4.417 l 3.682,0.306 c -0.083,-0.654 -0.164,-1.308 -0.246,-1.963 -0.083,-0.654 -0.123,-1.267 -0.123,-1.839 0,-2.046 0.522,-3.662 1.565,-4.847 1.042,-1.187 2.913,-1.801 5.612,-1.841 0.9,0 1.666,-0.225 2.301,-0.675 0.634,-0.45 0.951,-1.145 0.951,-2.086 0,-0.613 -0.205,-1.237 -0.613,-1.871 -0.409,-0.634 -1.35,-0.95 -2.822,-0.95 -4.827,0 -7.894,1.84 -9.203,5.52 -0.818,-1.799 -1.912,-3.169 -3.282,-4.109 -1.37,-0.941 -2.77,-1.411 -4.202,-1.411 -1.35,0 -2.403,0.234 -3.159,0.705 -0.757,0.47 -1.319,1.032 -1.688,1.688 -0.367,0.653 -0.654,1.307 -0.858,1.962 -0.696,-1.39 -1.595,-2.464 -2.699,-3.22 -1.105,-0.758 -2.557,-1.135 -4.356,-1.135 -1.023,0 -2.005,0.347 -2.945,1.043 0,-0.819 -0.144,-1.819 -0.429,-3.007 C 14.969,7.689 12.903,4.907 10,2.944 7.096,0.981 3.763,0 0,0"
           style="fill:#f91536;fill-opacity:1;fill-rule:nonzero;stroke:none"
           id="path718402" />
      </g>
      <g
         id="g718404"
         transform="translate(145.225,158.2995)">
        <path
           d="m 0,0 c 0,-1.881 -1.084,-2.821 -3.251,-2.821 -2.659,0 -4.745,0.51 -6.258,1.533 -1.513,1.021 -2.576,2.556 -3.189,4.601 -1.514,-4.09 -4.847,-6.134 -10,-6.134 -2.086,0 -3.129,0.94 -3.129,2.821 0,0.614 0.246,1.217 0.736,1.811 0.491,0.591 1.31,0.888 2.454,0.888 2.249,0 3.967,0.409 5.154,1.228 1.185,0.817 2.034,1.932 2.545,3.343 0.511,1.411 0.848,3.015 1.012,4.816 l 3.62,0.307 c -0.083,-0.656 -0.123,-1.35 -0.123,-2.086 0,-1.269 0.184,-2.485 0.552,-3.651 0.368,-1.165 1.074,-2.106 2.117,-2.821 1.043,-0.717 2.546,-1.095 4.509,-1.136 0.898,0 1.666,-0.214 2.301,-0.643 C -0.317,1.626 0,0.94 0,0"
           style="fill:#1d1d1b;fill-opacity:1;fill-rule:nonzero;stroke:none"
           id="path718406" />
      </g>
      <g
         id="g718408"
         transform="translate(131.5453,143.3923)">
        <path
           d="m 0,0 c 0,-1.963 -1.043,-3.046 -3.129,-3.251 -0.9,0 -1.647,0.286 -2.239,0.858 -0.594,0.574 -0.89,1.372 -0.89,2.393 0,1.963 1.043,3.048 3.129,3.252 0.941,0 1.696,-0.297 2.27,-0.89 C -0.287,1.77 0,0.981 0,0"
           style="fill:#1d1d1b;fill-opacity:1;fill-rule:nonzero;stroke:none"
           id="path718410" />
      </g>
      <g
         id="g718412"
         transform="translate(139.765,143.3923)">
        <path
           d="m 0,0 c 0,-1.963 -1.043,-3.046 -3.128,-3.251 -1.841,0 -2.844,1.084 -3.007,3.251 0,1.963 1.002,3.048 3.007,3.252 0.94,0 1.696,-0.297 2.27,-0.89 C -0.286,1.77 0,0.981 0,0"
           style="fill:#1d1d1b;fill-opacity:1;fill-rule:nonzero;stroke:none"
           id="path718414" />
      </g>
      <g
         id="g718416"
         transform="translate(158.3285,157.8093)">
        <path
           d="m 0,0 c -2.331,-1.555 -6.38,-2.331 -12.146,-2.331 h -4.233 c -1.267,0 -2.106,0.326 -2.516,0.981 -0.408,0.654 -0.613,1.288 -0.613,1.902 0,0.45 0.215,1.012 0.644,1.687 0.429,0.675 1.258,1.012 2.485,1.012 h 5.214 c 3.271,0 5.736,0.225 7.393,0.675 1.656,0.45 2.77,1.063 3.343,1.841 0.573,0.776 0.859,1.615 0.859,2.514 0,0.983 -0.491,2.249 -1.473,3.804 -0.981,1.554 -2.679,3.425 -5.092,5.613 -2.413,2.188 -5.705,4.694 -9.877,7.516 0.082,2.371 0.348,4.068 0.798,5.092 0.163,0.326 0.982,0.92 2.454,1.778 2.658,1.596 5.95,3.344 9.877,5.245 3.926,1.902 7.893,3.527 11.902,4.878 L 7.976,36.808 C 4.989,35.744 1.585,34.344 -2.239,32.605 c -3.824,-1.738 -6.922,-3.323 -9.294,-4.753 3.394,-2.619 6.032,-4.746 7.914,-6.38 2.331,-2.005 4.242,-4.111 5.736,-6.32 C 3.609,12.944 4.356,10.592 4.356,8.098 4.356,6.339 3.957,4.754 3.16,3.343 2.362,1.933 1.309,0.817 0,0"
           style="fill:#f91536;fill-opacity:1;fill-rule:nonzero;stroke:none"
           id="path718418" />
      </g>
    </g>
  </g>
</svg>
