<?xml version="1.0" encoding="UTF-8" standalone="no"?>
<!-- Created with Inkscape (http://www.inkscape.org/) -->

<svg
   version="1.1"
   id="svg18"
   width="300"
   height="150"
   viewBox="0 0 300.00002 150"
   sodipodi:docname="1145_word.svg"
   inkscape:version="1.2.1 (9c6d41e410, 2022-07-14)"
   xmlns:inkscape="http://www.inkscape.org/namespaces/inkscape"
   xmlns:sodipodi="http://sodipodi.sourceforge.net/DTD/sodipodi-0.dtd"
   xmlns="http://www.w3.org/2000/svg"
   xmlns:svg="http://www.w3.org/2000/svg">
  <sodipodi:namedview
     id="namedview37"
     pagecolor="#ffffff"
     bordercolor="#000000"
     borderopacity="0.25"
     inkscape:showpageshadow="2"
     inkscape:pageopacity="0.0"
     inkscape:pagecheckerboard="0"
     inkscape:deskcolor="#d1d1d1"
     showgrid="false"
     inkscape:zoom="4.0941839"
     inkscape:cx="103.19517"
     inkscape:cy="106.24828"
     inkscape:window-width="1700"
     inkscape:window-height="1396"
     inkscape:window-x="8"
     inkscape:window-y="28"
     inkscape:window-maximized="1"
     inkscape:current-layer="svg18" />
  <defs
     id="defs22">
    <clipPath
       clipPathUnits="userSpaceOnUse"
       id="clipPath2796">
      <path
         d="M 0,340.157 H 226.772 V 0 H 0 Z"
         id="path2794" />
    </clipPath>
    <clipPath
       clipPathUnits="userSpaceOnUse"
       id="clipPath2804">
      <path
         d="M 246.772,340.157 H 473.544 V 0 H 246.772 Z"
         id="path2802" />
    </clipPath>
    <clipPath
       clipPathUnits="userSpaceOnUse"
       id="clipPath2812">
      <path
         d="M 246.772,0 H 473.544 V 340.157 H 246.772 Z"
         id="path2810" />
    </clipPath>
    <clipPath
       clipPathUnits="userSpaceOnUse"
       id="clipPath2820">
      <path
         d="M 246.772,340.157 H 473.544 V 0 H 246.772 Z"
         id="path2818" />
    </clipPath>
    <clipPath
       clipPathUnits="userSpaceOnUse"
       id="clipPath2828">
      <path
         d="m 438.313,-190.079 c 0,-43.163 -34.991,-78.155 -78.155,-78.155 -43.164,0 -78.155,34.992 -78.155,78.155 0,43.164 34.991,78.155 78.155,78.155 43.164,0 78.155,-34.991 78.155,-78.155"
         id="path2826" />
    </clipPath>
    <clipPath
       clipPathUnits="userSpaceOnUse"
       id="clipPath702936">
      <path
         d="M 0,340.157 H 226.772 V 0 H 0 Z"
         id="path702934" />
    </clipPath>
    <clipPath
       clipPathUnits="userSpaceOnUse"
       id="clipPath703010">
      <path
         d="M 0,340.157 H 226.772 V 0 H 0 Z"
         id="path703008" />
    </clipPath>
    <clipPath
       clipPathUnits="userSpaceOnUse"
       id="clipPath703120">
      <path
         d="M 0,-20 H 226.772 V -360.157 H 0 Z"
         id="path703118" />
    </clipPath>
    <clipPath
       clipPathUnits="userSpaceOnUse"
       id="clipPath703128">
      <path
         d="M 0,-360.157 H 226.772 V -20 H 0 Z"
         id="path703126" />
    </clipPath>
    <clipPath
       clipPathUnits="userSpaceOnUse"
       id="clipPath703136">
      <path
         d="M 0,-20 H 226.772 V -360.157 H 0 Z"
         id="path703134" />
    </clipPath>
    <clipPath
       clipPathUnits="userSpaceOnUse"
       id="clipPath703144">
      <path
         d="m 438.313,-190.078 c 0,-43.164 -34.992,-78.155 -78.156,-78.155 -43.163,0 -78.154,34.991 -78.154,78.155 0,43.164 34.991,78.155 78.154,78.155 43.164,0 78.156,-34.991 78.156,-78.155"
         id="path703142" />
    </clipPath>
    <clipPath
       clipPathUnits="userSpaceOnUse"
       id="clipPath703160">
      <path
         d="M 246.772,-20 H 473.544 V -360.157 H 246.772 Z"
         id="path703158" />
    </clipPath>
    <clipPath
       clipPathUnits="userSpaceOnUse"
       id="clipPath703168">
      <path
         d="M 246.772,-360.157 H 473.544 V -20 H 246.772 Z"
         id="path703166" />
    </clipPath>
    <clipPath
       clipPathUnits="userSpaceOnUse"
       id="clipPath703176">
      <path
         d="m 282.002,-190.079 c 0,-43.163 34.993,-78.154 78.156,-78.154 43.164,0 78.155,34.991 78.155,78.154 0,43.164 -34.991,78.156 -78.155,78.156 -43.163,0 -78.156,-34.992 -78.156,-78.156"
         id="path703174" />
    </clipPath>
    <clipPath
       clipPathUnits="userSpaceOnUse"
       id="clipPath720772">
      <g
         id="g720776"
         transform="matrix(0.75000002,0,0,-0.75000002,-117.18415,74.879174)">
        <path
           d="M -45.430862,-131.30857 H 256.9318 V 322.23409 H -45.430862 Z"
           id="path720774"
           style="stroke-width:1.33333" />
      </g>
    </clipPath>
    <clipPath
       clipPathUnits="userSpaceOnUse"
       id="clipPath720778">
      <g
         id="g720782"
         transform="matrix(0.75000002,0,0,-0.75000002,-78.789654,69.358173)">
        <path
           d="M -45.430862,-131.30857 H 256.9318 V 322.23409 H -45.430862 Z"
           id="path720780"
           style="stroke-width:1.33333" />
      </g>
    </clipPath>
    <clipPath
       clipPathUnits="userSpaceOnUse"
       id="clipPath720784">
      <g
         id="g720788"
         transform="matrix(0.75000002,0,0,-0.75000002,34.073147,241.67557)">
        <path
           d="M -45.430862,-131.30857 H 256.9318 V 322.23409 H -45.430862 Z"
           id="path720786"
           style="stroke-width:1.33333" />
      </g>
    </clipPath>
    <clipPath
       clipPathUnits="userSpaceOnUse"
       id="clipPath703262">
      <path
         d="M -246.772,-20 H -20 v -340.157 h -226.772 z"
         id="path703260" />
    </clipPath>
    <clipPath
       clipPathUnits="userSpaceOnUse"
       id="clipPath703270">
      <path
         d="M -246.772,-360.157 H -20 V -20 h -226.772 z"
         id="path703268" />
    </clipPath>
    <clipPath
       clipPathUnits="userSpaceOnUse"
       id="clipPath703278">
      <path
         d="M -246.772,-20 H -20 v -340.157 h -226.772 z"
         id="path703276" />
    </clipPath>
    <clipPath
       clipPathUnits="userSpaceOnUse"
       id="clipPath703286">
      <path
         d="m 191.541,-190.078 c 0,-43.164 -34.992,-78.155 -78.156,-78.155 -43.163,0 -78.154,34.991 -78.154,78.155 0,43.164 34.991,78.155 78.154,78.155 43.164,0 78.156,-34.991 78.156,-78.155"
         id="path703284" />
    </clipPath>
    <clipPath
       clipPathUnits="userSpaceOnUse"
       id="clipPath703298">
      <path
         d="M 0,-20 H 226.772 V -360.157 H 0 Z"
         id="path703296" />
    </clipPath>
    <clipPath
       clipPathUnits="userSpaceOnUse"
       id="clipPath703306">
      <path
         d="M 0,-360.157 H 226.772 V -20 H 0 Z"
         id="path703304" />
    </clipPath>
    <clipPath
       clipPathUnits="userSpaceOnUse"
       id="clipPath703314">
      <path
         d="m 35.23,-190.079 c 0,-43.163 34.993,-78.154 78.156,-78.154 43.164,0 78.155,34.991 78.155,78.154 0,43.164 -34.991,78.156 -78.155,78.156 -43.163,0 -78.156,-34.992 -78.156,-78.156"
         id="path703312" />
    </clipPath>
    <clipPath
       clipPathUnits="userSpaceOnUse"
       id="clipPath721254">
      <g
         id="g721258"
         transform="matrix(0.75000002,0,0,-0.75000002,-143.46681,15.486327)">
        <path
           d="M 8.3138826,-226.73543 H 310.67654 V 226.80723 H 8.3138826 Z"
           id="path721256"
           style="stroke-width:1.33333" />
      </g>
    </clipPath>
    <clipPath
       clipPathUnits="userSpaceOnUse"
       id="clipPath721260">
      <g
         id="g721264"
         transform="matrix(0.75000002,0,0,-0.75000002,-150.19041,29.105427)">
        <path
           d="M 8.3138826,-226.73543 H 310.67654 V 226.80723 H 8.3138826 Z"
           id="path721262"
           style="stroke-width:1.33333" />
      </g>
    </clipPath>
    <clipPath
       clipPathUnits="userSpaceOnUse"
       id="clipPath721266">
      <g
         id="g721270"
         transform="matrix(0.75000002,0,0,-0.75000002,-6.2354121,170.10543)">
        <path
           d="M 8.3138826,-226.73543 H 310.67654 V 226.80723 H 8.3138826 Z"
           id="path721268"
           style="stroke-width:1.33333" />
      </g>
    </clipPath>
    <clipPath
       clipPathUnits="userSpaceOnUse"
       id="clipPath703432">
      <path
         d="M 0,340.157 H 226.772 V 0 H 0 Z"
         id="path703430" />
    </clipPath>
    <clipPath
       clipPathUnits="userSpaceOnUse"
       id="clipPath703542">
      <path
         d="M 0,340.157 H 226.772 V 0 H 0 Z"
         id="path703540" />
    </clipPath>
    <clipPath
       clipPathUnits="userSpaceOnUse"
       id="clipPath713424">
      <path
         d="M 0,340.157 H 226.772 V 0 H 0 Z"
         id="path713422" />
    </clipPath>
    <clipPath
       clipPathUnits="userSpaceOnUse"
       id="clipPath713526">
      <path
         d="M 0,340.157 H 226.772 V 0 H 0 Z"
         id="path713524" />
    </clipPath>
    <clipPath
       clipPathUnits="userSpaceOnUse"
       id="clipPath713616">
      <path
         d="M 0,340.157 H 226.772 V 0 H 0 Z"
         id="path713614" />
    </clipPath>
    <clipPath
       clipPathUnits="userSpaceOnUse"
       id="clipPath713690">
      <path
         d="M 0,340.157 H 226.772 V 0 H 0 Z"
         id="path713688" />
    </clipPath>
    <clipPath
       clipPathUnits="userSpaceOnUse"
       id="clipPath713764">
      <path
         d="M 0,340.157 H 226.772 V 0 H 0 Z"
         id="path713762" />
    </clipPath>
    <clipPath
       clipPathUnits="userSpaceOnUse"
       id="clipPath713874">
      <path
         d="M 0,340.157 H 226.772 V 0 H 0 Z"
         id="path713872" />
    </clipPath>
    <clipPath
       clipPathUnits="userSpaceOnUse"
       id="clipPath713874-3">
      <path
         d="M 0,340.157 H 226.772 V 0 H 0 Z"
         id="path713872-6" />
    </clipPath>
    <clipPath
       clipPathUnits="userSpaceOnUse"
       id="clipPath718030">
      <path
         d="M 0,340.157 H 226.772 V 0 H 0 Z"
         id="path718028" />
    </clipPath>
    <clipPath
       clipPathUnits="userSpaceOnUse"
       id="clipPath718104">
      <path
         d="M 0,340.157 H 226.772 V 0 H 0 Z"
         id="path718102" />
    </clipPath>
    <clipPath
       clipPathUnits="userSpaceOnUse"
       id="clipPath718178">
      <path
         d="M 0,340.157 H 226.772 V 0 H 0 Z"
         id="path718176" />
    </clipPath>
    <clipPath
       clipPathUnits="userSpaceOnUse"
       id="clipPath718296">
      <path
         d="M 0,340.157 H 226.772 V 0 H 0 Z"
         id="path718294" />
    </clipPath>
    <clipPath
       clipPathUnits="userSpaceOnUse"
       id="clipPath718398">
      <path
         d="M 0,340.157 H 226.772 V 0 H 0 Z"
         id="path718396" />
    </clipPath>
    <clipPath
       clipPathUnits="userSpaceOnUse"
       id="clipPath718484">
      <path
         d="M 0,340.157 H 226.772 V 0 H 0 Z"
         id="path718482" />
    </clipPath>
  </defs>
  <g
     id="g718478"
     transform="matrix(1.3333333,0,0,-1.3333333,-1.1809296,311.99075)">
    <g
       id="g718480"
       clip-path="url(#clipPath718484)">
      <g
         id="g718486"
         transform="translate(123.7762,165.0788)">
        <path
           d="m 0,0 c -3.189,0 -5.572,0.307 -7.146,0.92 -1.576,0.613 -2.619,1.39 -3.129,2.331 -0.512,0.94 -0.767,1.881 -0.767,2.822 0,1.268 0.449,2.433 1.35,3.497 0.899,1.063 2.086,1.595 3.558,1.595 1.922,0 3.536,-0.951 4.846,-2.852 C 0.021,6.411 0.757,3.64 0.921,0 Z M 11.994,-0.645 C 11.359,-0.215 10.593,0 9.693,0 H 5.031 C 4.908,4.172 4.273,7.401 3.129,9.692 c -1.146,2.29 -2.505,3.886 -4.079,4.786 -1.575,0.899 -3.037,1.349 -4.387,1.349 -2.659,0 -4.929,-1.033 -6.809,-3.098 -1.882,-2.065 -2.822,-4.489 -2.822,-7.269 0,-1.882 0.408,-3.661 1.227,-5.337 0.817,-1.678 2.239,-3.037 4.263,-4.08 2.025,-1.043 4.877,-1.564 8.558,-1.564 h 1.228 c -0.86,-3.353 -2.476,-6.166 -4.847,-8.436 -2.372,-2.27 -5.297,-3.404 -8.773,-3.404 -1.84,0 -3.354,0.153 -4.54,0.46 -1.186,0.306 -2.291,0.747 -3.312,1.319 l -0.92,-3.865 c 2.248,-2.003 5.337,-3.006 9.263,-3.006 4.295,0 8.026,1.595 11.196,4.785 3.169,3.19 5.245,7.239 6.227,12.147 h 5.091 c 2.167,0 3.251,0.94 3.251,2.822 0,0.94 -0.317,1.626 -0.95,2.054"
           style="fill:#1d1d1b;fill-opacity:1;fill-rule:nonzero;stroke:none"
           id="path718488" />
      </g>
      <g
         id="g718490"
         transform="translate(149.7792,161.8884)">
        <path
           d="m 0,0 c -2.331,-1.555 -6.38,-2.331 -12.146,-2.331 h -4.234 c -1.266,0 -2.105,0.327 -2.515,0.981 -0.409,0.655 -0.614,1.288 -0.614,1.903 0,0.449 0.215,1.011 0.645,1.686 0.429,0.675 1.258,1.013 2.484,1.013 h 5.215 c 3.271,0 5.735,0.224 7.392,0.675 1.657,0.449 2.77,1.062 3.343,1.84 0.573,0.776 0.86,1.615 0.86,2.515 0,0.982 -0.492,2.249 -1.473,3.804 -0.981,1.554 -2.679,3.425 -5.092,5.613 -2.414,2.188 -5.705,4.693 -9.877,7.515 0.081,2.371 0.347,4.069 0.798,5.092 0.163,0.327 0.982,0.92 2.453,1.779 2.658,1.595 5.951,3.343 9.877,5.245 3.927,1.901 7.893,3.527 11.902,4.877 L 7.975,36.809 C 4.989,35.744 1.584,34.344 -2.239,32.606 c -3.824,-1.739 -6.923,-3.323 -9.294,-4.754 3.394,-2.618 6.032,-4.745 7.914,-6.38 2.331,-2.004 4.242,-4.111 5.735,-6.319 C 3.608,12.944 4.355,10.592 4.355,8.098 4.355,6.339 3.957,4.755 3.159,3.344 2.361,1.933 1.309,0.818 0,0 m -59.965,32.207 c 0,-2.085 -1.084,-3.211 -3.251,-3.374 -0.9,0 -1.647,0.307 -2.239,0.921 -0.594,0.613 -0.89,1.431 -0.89,2.453 0,0.94 0.296,1.728 0.89,2.362 0.592,0.634 1.359,0.952 2.301,0.952 1.922,0 2.984,-1.105 3.189,-3.314 m 10.613,-56.991 c -2.209,-0.695 -4.887,-1.043 -8.036,-1.043 -4.54,0 -8.661,0.717 -12.362,2.147 -3.701,1.432 -6.636,3.549 -8.803,6.35 -2.168,2.802 -3.252,6.248 -3.252,10.337 0,3.027 0.706,5.683 2.117,7.974 1.412,2.29 3.231,4.244 5.46,5.86 2.229,1.615 4.622,2.903 7.177,3.864 2.556,0.961 5.021,1.626 7.393,1.994 l -1.963,0.737 c -1.473,0.613 -3.232,1.236 -5.275,1.871 -2.046,0.633 -4.153,0.95 -6.32,0.95 -3.189,0 -5.95,-0.531 -8.281,-1.595 l 1.042,5.276 c 0.777,0.368 1.738,0.684 2.884,0.951 1.144,0.265 2.739,0.399 4.785,0.399 2.454,0 4.866,-0.379 7.239,-1.136 2.371,-0.756 4.641,-1.585 6.81,-2.484 l 2.331,-0.92 c 2.371,-1.104 4.375,-1.656 6.011,-1.656 l 3.129,-0.062 -1.288,-5.398 c -0.982,0.123 -2.475,0.183 -4.478,0.183 -2.373,0 -4.807,-0.306 -7.301,-0.919 -2.944,-0.697 -5.644,-1.729 -8.098,-3.098 -2.454,-1.371 -4.438,-3.078 -5.95,-5.123 -1.514,-2.045 -2.27,-4.437 -2.27,-7.178 0,-3.189 0.971,-5.848 2.914,-7.975 1.942,-2.126 4.529,-3.72 7.76,-4.785 3.231,-1.063 6.769,-1.594 10.614,-1.594 2.248,0 4.927,0.286 8.036,0.858 z"
           style="fill:#f91536;fill-opacity:1;fill-rule:nonzero;stroke:none"
           id="path718492" />
      </g>
    </g>
  </g>
</svg>
