<?xml version="1.0" encoding="UTF-8" standalone="no"?>
<!-- Created with Inkscape (http://www.inkscape.org/) -->

<svg
   version="1.1"
   id="svg18"
   width="300"
   height="150"
   viewBox="0 0 300.00002 150"
   sodipodi:docname="1210_word.svg"
   inkscape:version="1.2.1 (9c6d41e410, 2022-07-14)"
   xmlns:inkscape="http://www.inkscape.org/namespaces/inkscape"
   xmlns:sodipodi="http://sodipodi.sourceforge.net/DTD/sodipodi-0.dtd"
   xmlns="http://www.w3.org/2000/svg"
   xmlns:svg="http://www.w3.org/2000/svg">
  <sodipodi:namedview
     id="namedview37"
     pagecolor="#ffffff"
     bordercolor="#000000"
     borderopacity="0.25"
     inkscape:showpageshadow="2"
     inkscape:pageopacity="0.0"
     inkscape:pagecheckerboard="0"
     inkscape:deskcolor="#d1d1d1"
     showgrid="false"
     inkscape:zoom="4.0941839"
     inkscape:cx="103.43942"
     inkscape:cy="106.24828"
     inkscape:window-width="1700"
     inkscape:window-height="1396"
     inkscape:window-x="8"
     inkscape:window-y="28"
     inkscape:window-maximized="1"
     inkscape:current-layer="svg18" />
  <defs
     id="defs22">
    <clipPath
       clipPathUnits="userSpaceOnUse"
       id="clipPath2796">
      <path
         d="M 0,340.157 H 226.772 V 0 H 0 Z"
         id="path2794" />
    </clipPath>
    <clipPath
       clipPathUnits="userSpaceOnUse"
       id="clipPath2804">
      <path
         d="M 246.772,340.157 H 473.544 V 0 H 246.772 Z"
         id="path2802" />
    </clipPath>
    <clipPath
       clipPathUnits="userSpaceOnUse"
       id="clipPath2812">
      <path
         d="M 246.772,0 H 473.544 V 340.157 H 246.772 Z"
         id="path2810" />
    </clipPath>
    <clipPath
       clipPathUnits="userSpaceOnUse"
       id="clipPath2820">
      <path
         d="M 246.772,340.157 H 473.544 V 0 H 246.772 Z"
         id="path2818" />
    </clipPath>
    <clipPath
       clipPathUnits="userSpaceOnUse"
       id="clipPath2828">
      <path
         d="m 438.313,-190.079 c 0,-43.163 -34.991,-78.155 -78.155,-78.155 -43.164,0 -78.155,34.992 -78.155,78.155 0,43.164 34.991,78.155 78.155,78.155 43.164,0 78.155,-34.991 78.155,-78.155"
         id="path2826" />
    </clipPath>
    <clipPath
       clipPathUnits="userSpaceOnUse"
       id="clipPath702936">
      <path
         d="M 0,340.157 H 226.772 V 0 H 0 Z"
         id="path702934" />
    </clipPath>
    <clipPath
       clipPathUnits="userSpaceOnUse"
       id="clipPath703010">
      <path
         d="M 0,340.157 H 226.772 V 0 H 0 Z"
         id="path703008" />
    </clipPath>
    <clipPath
       clipPathUnits="userSpaceOnUse"
       id="clipPath703120">
      <path
         d="M 0,-20 H 226.772 V -360.157 H 0 Z"
         id="path703118" />
    </clipPath>
    <clipPath
       clipPathUnits="userSpaceOnUse"
       id="clipPath703128">
      <path
         d="M 0,-360.157 H 226.772 V -20 H 0 Z"
         id="path703126" />
    </clipPath>
    <clipPath
       clipPathUnits="userSpaceOnUse"
       id="clipPath703136">
      <path
         d="M 0,-20 H 226.772 V -360.157 H 0 Z"
         id="path703134" />
    </clipPath>
    <clipPath
       clipPathUnits="userSpaceOnUse"
       id="clipPath703144">
      <path
         d="m 438.313,-190.078 c 0,-43.164 -34.992,-78.155 -78.156,-78.155 -43.163,0 -78.154,34.991 -78.154,78.155 0,43.164 34.991,78.155 78.154,78.155 43.164,0 78.156,-34.991 78.156,-78.155"
         id="path703142" />
    </clipPath>
    <clipPath
       clipPathUnits="userSpaceOnUse"
       id="clipPath703160">
      <path
         d="M 246.772,-20 H 473.544 V -360.157 H 246.772 Z"
         id="path703158" />
    </clipPath>
    <clipPath
       clipPathUnits="userSpaceOnUse"
       id="clipPath703168">
      <path
         d="M 246.772,-360.157 H 473.544 V -20 H 246.772 Z"
         id="path703166" />
    </clipPath>
    <clipPath
       clipPathUnits="userSpaceOnUse"
       id="clipPath703176">
      <path
         d="m 282.002,-190.079 c 0,-43.163 34.993,-78.154 78.156,-78.154 43.164,0 78.155,34.991 78.155,78.154 0,43.164 -34.991,78.156 -78.155,78.156 -43.163,0 -78.156,-34.992 -78.156,-78.156"
         id="path703174" />
    </clipPath>
    <clipPath
       clipPathUnits="userSpaceOnUse"
       id="clipPath720772">
      <g
         id="g720776"
         transform="matrix(0.75000002,0,0,-0.75000002,-117.18415,74.879174)">
        <path
           d="M -45.430862,-131.30857 H 256.9318 V 322.23409 H -45.430862 Z"
           id="path720774"
           style="stroke-width:1.33333" />
      </g>
    </clipPath>
    <clipPath
       clipPathUnits="userSpaceOnUse"
       id="clipPath720778">
      <g
         id="g720782"
         transform="matrix(0.75000002,0,0,-0.75000002,-78.789654,69.358173)">
        <path
           d="M -45.430862,-131.30857 H 256.9318 V 322.23409 H -45.430862 Z"
           id="path720780"
           style="stroke-width:1.33333" />
      </g>
    </clipPath>
    <clipPath
       clipPathUnits="userSpaceOnUse"
       id="clipPath720784">
      <g
         id="g720788"
         transform="matrix(0.75000002,0,0,-0.75000002,34.073147,241.67557)">
        <path
           d="M -45.430862,-131.30857 H 256.9318 V 322.23409 H -45.430862 Z"
           id="path720786"
           style="stroke-width:1.33333" />
      </g>
    </clipPath>
    <clipPath
       clipPathUnits="userSpaceOnUse"
       id="clipPath703262">
      <path
         d="M -246.772,-20 H -20 v -340.157 h -226.772 z"
         id="path703260" />
    </clipPath>
    <clipPath
       clipPathUnits="userSpaceOnUse"
       id="clipPath703270">
      <path
         d="M -246.772,-360.157 H -20 V -20 h -226.772 z"
         id="path703268" />
    </clipPath>
    <clipPath
       clipPathUnits="userSpaceOnUse"
       id="clipPath703278">
      <path
         d="M -246.772,-20 H -20 v -340.157 h -226.772 z"
         id="path703276" />
    </clipPath>
    <clipPath
       clipPathUnits="userSpaceOnUse"
       id="clipPath703286">
      <path
         d="m 191.541,-190.078 c 0,-43.164 -34.992,-78.155 -78.156,-78.155 -43.163,0 -78.154,34.991 -78.154,78.155 0,43.164 34.991,78.155 78.154,78.155 43.164,0 78.156,-34.991 78.156,-78.155"
         id="path703284" />
    </clipPath>
    <clipPath
       clipPathUnits="userSpaceOnUse"
       id="clipPath703298">
      <path
         d="M 0,-20 H 226.772 V -360.157 H 0 Z"
         id="path703296" />
    </clipPath>
    <clipPath
       clipPathUnits="userSpaceOnUse"
       id="clipPath703306">
      <path
         d="M 0,-360.157 H 226.772 V -20 H 0 Z"
         id="path703304" />
    </clipPath>
    <clipPath
       clipPathUnits="userSpaceOnUse"
       id="clipPath703314">
      <path
         d="m 35.23,-190.079 c 0,-43.163 34.993,-78.154 78.156,-78.154 43.164,0 78.155,34.991 78.155,78.154 0,43.164 -34.991,78.156 -78.155,78.156 -43.163,0 -78.156,-34.992 -78.156,-78.156"
         id="path703312" />
    </clipPath>
    <clipPath
       clipPathUnits="userSpaceOnUse"
       id="clipPath721254">
      <g
         id="g721258"
         transform="matrix(0.75000002,0,0,-0.75000002,-143.46681,15.486327)">
        <path
           d="M 8.3138826,-226.73543 H 310.67654 V 226.80723 H 8.3138826 Z"
           id="path721256"
           style="stroke-width:1.33333" />
      </g>
    </clipPath>
    <clipPath
       clipPathUnits="userSpaceOnUse"
       id="clipPath721260">
      <g
         id="g721264"
         transform="matrix(0.75000002,0,0,-0.75000002,-150.19041,29.105427)">
        <path
           d="M 8.3138826,-226.73543 H 310.67654 V 226.80723 H 8.3138826 Z"
           id="path721262"
           style="stroke-width:1.33333" />
      </g>
    </clipPath>
    <clipPath
       clipPathUnits="userSpaceOnUse"
       id="clipPath721266">
      <g
         id="g721270"
         transform="matrix(0.75000002,0,0,-0.75000002,-6.2354121,170.10543)">
        <path
           d="M 8.3138826,-226.73543 H 310.67654 V 226.80723 H 8.3138826 Z"
           id="path721268"
           style="stroke-width:1.33333" />
      </g>
    </clipPath>
    <clipPath
       clipPathUnits="userSpaceOnUse"
       id="clipPath703432">
      <path
         d="M 0,340.157 H 226.772 V 0 H 0 Z"
         id="path703430" />
    </clipPath>
    <clipPath
       clipPathUnits="userSpaceOnUse"
       id="clipPath703542">
      <path
         d="M 0,340.157 H 226.772 V 0 H 0 Z"
         id="path703540" />
    </clipPath>
    <clipPath
       clipPathUnits="userSpaceOnUse"
       id="clipPath713424">
      <path
         d="M 0,340.157 H 226.772 V 0 H 0 Z"
         id="path713422" />
    </clipPath>
    <clipPath
       clipPathUnits="userSpaceOnUse"
       id="clipPath713526">
      <path
         d="M 0,340.157 H 226.772 V 0 H 0 Z"
         id="path713524" />
    </clipPath>
    <clipPath
       clipPathUnits="userSpaceOnUse"
       id="clipPath713616">
      <path
         d="M 0,340.157 H 226.772 V 0 H 0 Z"
         id="path713614" />
    </clipPath>
    <clipPath
       clipPathUnits="userSpaceOnUse"
       id="clipPath713690">
      <path
         d="M 0,340.157 H 226.772 V 0 H 0 Z"
         id="path713688" />
    </clipPath>
    <clipPath
       clipPathUnits="userSpaceOnUse"
       id="clipPath713764">
      <path
         d="M 0,340.157 H 226.772 V 0 H 0 Z"
         id="path713762" />
    </clipPath>
    <clipPath
       clipPathUnits="userSpaceOnUse"
       id="clipPath713874">
      <path
         d="M 0,340.157 H 226.772 V 0 H 0 Z"
         id="path713872" />
    </clipPath>
    <clipPath
       clipPathUnits="userSpaceOnUse"
       id="clipPath713874-3">
      <path
         d="M 0,340.157 H 226.772 V 0 H 0 Z"
         id="path713872-6" />
    </clipPath>
    <clipPath
       clipPathUnits="userSpaceOnUse"
       id="clipPath718030">
      <path
         d="M 0,340.157 H 226.772 V 0 H 0 Z"
         id="path718028" />
    </clipPath>
    <clipPath
       clipPathUnits="userSpaceOnUse"
       id="clipPath718104">
      <path
         d="M 0,340.157 H 226.772 V 0 H 0 Z"
         id="path718102" />
    </clipPath>
    <clipPath
       clipPathUnits="userSpaceOnUse"
       id="clipPath718178">
      <path
         d="M 0,340.157 H 226.772 V 0 H 0 Z"
         id="path718176" />
    </clipPath>
    <clipPath
       clipPathUnits="userSpaceOnUse"
       id="clipPath718296">
      <path
         d="M 0,340.157 H 226.772 V 0 H 0 Z"
         id="path718294" />
    </clipPath>
    <clipPath
       clipPathUnits="userSpaceOnUse"
       id="clipPath718398">
      <path
         d="M 0,340.157 H 226.772 V 0 H 0 Z"
         id="path718396" />
    </clipPath>
    <clipPath
       clipPathUnits="userSpaceOnUse"
       id="clipPath718484">
      <path
         d="M 0,340.157 H 226.772 V 0 H 0 Z"
         id="path718482" />
    </clipPath>
    <clipPath
       clipPathUnits="userSpaceOnUse"
       id="clipPath718558">
      <path
         d="M 0,340.157 H 226.772 V 0 H 0 Z"
         id="path718556" />
    </clipPath>
    <clipPath
       clipPathUnits="userSpaceOnUse"
       id="clipPath745984">
      <path
         d="M 0,340.157 H 226.772 V 0 H 0 Z"
         id="path745982" />
    </clipPath>
  </defs>
  <g
     id="g745978"
     transform="matrix(1.3333333,0,0,-1.3333333,-1.1809296,307.04648)">
    <g
       id="g745980"
       clip-path="url(#clipPath745984)">
      <g
         id="g745986"
         transform="translate(133.7117,158.2854)">
        <path
           d="m 0,0 c 0,-1.731 -0.997,-2.596 -2.991,-2.596 -3.311,0 -5.86,0.883 -7.646,2.652 -1.788,1.768 -2.775,4.777 -2.963,9.029 l -1.129,29.004 4.233,0.282 1.072,-27.876 c 0.112,-2.972 0.734,-5.031 1.862,-6.179 1.128,-1.148 2.653,-1.74 4.571,-1.777 0.827,0 1.532,-0.207 2.116,-0.621 C -0.292,1.504 0,0.864 0,0 m -28.632,22.346 c 0,-1.844 -0.923,-2.86 -2.765,-3.048 -0.828,0 -1.505,0.272 -2.032,0.818 -0.527,0.545 -0.79,1.288 -0.79,2.23 0,0.826 0.263,1.523 0.79,2.087 0.527,0.564 1.204,0.846 2.032,0.846 0.865,0 1.543,-0.282 2.032,-0.846 0.488,-0.564 0.733,-1.261 0.733,-2.087 m -3.611,6.77 c 0,-1.843 -0.96,-2.841 -2.878,-2.99 -1.618,0 -2.522,0.996 -2.709,2.99 0,0.865 0.244,1.58 0.733,2.145 0.49,0.564 1.148,0.846 1.976,0.846 1.767,0 2.726,-0.997 2.878,-2.991 m -3.781,-6.77 c 0,-1.844 -0.959,-2.86 -2.878,-3.048 -0.827,0 -1.505,0.272 -2.032,0.818 -0.527,0.545 -0.79,1.288 -0.79,2.23 0,0.826 0.273,1.523 0.819,2.087 0.545,0.564 1.213,0.846 2.003,0.846 0.865,0 1.56,-0.282 2.088,-0.846 0.526,-0.564 0.79,-1.261 0.79,-2.087 m -23.474,-37.131 c -3.988,0 -7.148,1.307 -9.481,3.922 -2.333,2.615 -3.498,5.86 -3.498,9.734 0,3.386 0.621,6.301 1.862,8.746 l 3.048,-0.564 c -0.678,-2.107 -1.016,-4.383 -1.016,-6.827 0,-3.161 0.968,-5.616 2.905,-7.365 1.938,-1.749 4.261,-2.624 6.97,-2.624 2.67,0 4.937,0.65 6.799,1.948 1.862,1.297 3.15,3.018 3.865,5.163 0.301,0.714 0.452,1.39 0.452,2.031 -0.415,3.837 -1.637,7.844 -3.668,12.019 l 4.063,1.524 c 1.052,-2.295 1.975,-5.135 2.765,-8.521 0.413,-1.392 1.448,-2.088 3.104,-2.088 0.939,0 1.767,0.283 2.482,0.846 1.279,0.979 1.919,3.443 1.919,7.393 l -0.056,2.595 3.554,0.169 c 0.527,-1.768 0.847,-3.085 0.96,-3.95 l 0.056,-1.523 V 6.545 c 0,-2.784 1.278,-4.176 3.838,-4.176 1.241,0 2.275,0.404 3.103,1.214 0.827,0.809 1.242,1.853 1.242,3.132 0,0.977 -0.198,2.125 -0.593,3.441 -0.395,1.317 -0.838,2.484 -1.326,3.499 l 4.119,1.185 c 0.903,-1.769 1.354,-4.213 1.354,-7.335 0,-3.198 -0.818,-5.681 -2.454,-7.449 -1.637,-1.769 -3.621,-2.652 -5.953,-2.652 -3.086,0 -5.079,1.354 -5.981,4.063 -1.468,-2.709 -3.668,-4.063 -6.603,-4.063 -0.94,0 -1.787,0.226 -2.539,0.677 0,-0.564 -0.151,-1.411 -0.452,-2.539 -1.091,-3.348 -2.972,-5.906 -5.643,-7.675 -2.671,-1.767 -5.737,-2.652 -9.197,-2.652"
           style="fill:#1d1d1b;fill-opacity:1;fill-rule:nonzero;stroke:none"
           id="path745988" />
      </g>
      <g
         id="g745990"
         transform="translate(157.1297,155.6897)">
        <path
           d="M 0,0 C -3.048,0 -5.061,1.315 -6.038,3.949 -7.468,1.315 -9.706,0 -12.753,0 -15.688,0 -17.493,1.372 -18.17,4.119 -19.976,1.372 -22.741,0 -26.465,0 c -1.091,0 -1.843,0.271 -2.258,0.817 -0.413,0.545 -0.62,1.12 -0.62,1.722 0,0.714 0.226,1.326 0.677,1.834 0.451,0.508 1.185,0.762 2.201,0.762 2.745,0 4.711,0.705 5.897,2.116 1.184,1.41 1.983,3.319 2.398,5.728 l 3.611,0.168 c -0.527,-1.656 -0.79,-3.084 -0.79,-4.289 0,-2.632 1.035,-3.949 3.104,-3.949 1.504,0 2.726,0.527 3.668,1.58 0.939,1.053 1.654,2.99 2.143,5.812 l 3.556,0.17 c -0.038,-0.076 -0.057,-0.17 -0.057,-0.283 -0.263,-0.828 -0.394,-1.843 -0.394,-3.047 0,-2.785 1.278,-4.176 3.837,-4.176 1.241,0 2.275,0.404 3.103,1.214 0.827,0.808 1.242,1.852 1.242,3.132 0,0.977 -0.198,2.125 -0.593,3.441 -0.395,1.316 -0.837,2.483 -1.326,3.499 l 4.12,1.185 C 7.956,15.667 8.407,13.223 8.407,10.101 8.407,6.902 7.59,4.42 5.953,2.651 4.316,0.883 2.332,0 0,0"
           style="fill:#f91536;fill-opacity:1;fill-rule:nonzero;stroke:none"
           id="path745992" />
      </g>
      <g
         id="g745994"
         transform="translate(150.1326,180.6311)">
        <path
           d="m 0,0 c 0,-1.844 -0.941,-2.859 -2.821,-3.048 -0.828,0 -1.506,0.273 -2.033,0.819 -0.527,0.544 -0.79,1.288 -0.79,2.229 0,0.826 0.273,1.523 0.819,2.087 0.545,0.564 1.214,0.847 2.004,0.847 0.826,0 1.504,-0.283 2.031,-0.847 C -0.264,1.523 0,0.826 0,0"
           style="fill:#f91536;fill-opacity:1;fill-rule:nonzero;stroke:none"
           id="path745996" />
      </g>
      <g
         id="g745998"
         transform="translate(153.9129,187.4016)">
        <path
           d="m 0,0 c 0,-1.843 -0.94,-2.841 -2.821,-2.99 -0.828,0 -1.495,0.262 -2.003,0.79 -0.508,0.526 -0.762,1.26 -0.762,2.2 0,0.865 0.254,1.58 0.762,2.145 0.508,0.564 1.175,0.846 2.003,0.846 C -1.054,2.991 -0.112,1.994 0,0"
           style="fill:#f91536;fill-opacity:1;fill-rule:nonzero;stroke:none"
           id="path746000" />
      </g>
      <g
         id="g746002"
         transform="translate(157.5242,180.6311)">
        <path
           d="m 0,0 c 0,-1.844 -0.922,-2.859 -2.765,-3.048 -0.828,0 -1.505,0.273 -2.031,0.819 -0.527,0.544 -0.79,1.288 -0.79,2.229 0,0.826 0.263,1.523 0.79,2.087 0.526,0.564 1.203,0.847 2.031,0.847 0.866,0 1.542,-0.283 2.032,-0.847 C -0.245,1.523 0,0.826 0,0"
           style="fill:#f91536;fill-opacity:1;fill-rule:nonzero;stroke:none"
           id="path746004" />
      </g>
    </g>
  </g>
</svg>
