<?xml version="1.0" encoding="UTF-8" standalone="no"?>
<!-- Created with Inkscape (http://www.inkscape.org/) -->

<svg
   version="1.1"
   id="svg18"
   width="300"
   height="150"
   viewBox="0 0 300.00002 150"
   sodipodi:docname="12118_word.svg"
   inkscape:version="1.2.1 (9c6d41e410, 2022-07-14)"
   xmlns:inkscape="http://www.inkscape.org/namespaces/inkscape"
   xmlns:sodipodi="http://sodipodi.sourceforge.net/DTD/sodipodi-0.dtd"
   xmlns="http://www.w3.org/2000/svg"
   xmlns:svg="http://www.w3.org/2000/svg">
  <sodipodi:namedview
     id="namedview37"
     pagecolor="#ffffff"
     bordercolor="#000000"
     borderopacity="0.25"
     inkscape:showpageshadow="2"
     inkscape:pageopacity="0.0"
     inkscape:pagecheckerboard="0"
     inkscape:deskcolor="#d1d1d1"
     showgrid="false"
     inkscape:zoom="4.0941839"
     inkscape:cx="103.68367"
     inkscape:cy="106.24828"
     inkscape:window-width="1700"
     inkscape:window-height="1396"
     inkscape:window-x="8"
     inkscape:window-y="28"
     inkscape:window-maximized="1"
     inkscape:current-layer="svg18" />
  <defs
     id="defs22">
    <clipPath
       clipPathUnits="userSpaceOnUse"
       id="clipPath2796">
      <path
         d="M 0,340.157 H 226.772 V 0 H 0 Z"
         id="path2794" />
    </clipPath>
    <clipPath
       clipPathUnits="userSpaceOnUse"
       id="clipPath2804">
      <path
         d="M 246.772,340.157 H 473.544 V 0 H 246.772 Z"
         id="path2802" />
    </clipPath>
    <clipPath
       clipPathUnits="userSpaceOnUse"
       id="clipPath2812">
      <path
         d="M 246.772,0 H 473.544 V 340.157 H 246.772 Z"
         id="path2810" />
    </clipPath>
    <clipPath
       clipPathUnits="userSpaceOnUse"
       id="clipPath2820">
      <path
         d="M 246.772,340.157 H 473.544 V 0 H 246.772 Z"
         id="path2818" />
    </clipPath>
    <clipPath
       clipPathUnits="userSpaceOnUse"
       id="clipPath2828">
      <path
         d="m 438.313,-190.079 c 0,-43.163 -34.991,-78.155 -78.155,-78.155 -43.164,0 -78.155,34.992 -78.155,78.155 0,43.164 34.991,78.155 78.155,78.155 43.164,0 78.155,-34.991 78.155,-78.155"
         id="path2826" />
    </clipPath>
    <clipPath
       clipPathUnits="userSpaceOnUse"
       id="clipPath702936">
      <path
         d="M 0,340.157 H 226.772 V 0 H 0 Z"
         id="path702934" />
    </clipPath>
    <clipPath
       clipPathUnits="userSpaceOnUse"
       id="clipPath703010">
      <path
         d="M 0,340.157 H 226.772 V 0 H 0 Z"
         id="path703008" />
    </clipPath>
    <clipPath
       clipPathUnits="userSpaceOnUse"
       id="clipPath703120">
      <path
         d="M 0,-20 H 226.772 V -360.157 H 0 Z"
         id="path703118" />
    </clipPath>
    <clipPath
       clipPathUnits="userSpaceOnUse"
       id="clipPath703128">
      <path
         d="M 0,-360.157 H 226.772 V -20 H 0 Z"
         id="path703126" />
    </clipPath>
    <clipPath
       clipPathUnits="userSpaceOnUse"
       id="clipPath703136">
      <path
         d="M 0,-20 H 226.772 V -360.157 H 0 Z"
         id="path703134" />
    </clipPath>
    <clipPath
       clipPathUnits="userSpaceOnUse"
       id="clipPath703144">
      <path
         d="m 438.313,-190.078 c 0,-43.164 -34.992,-78.155 -78.156,-78.155 -43.163,0 -78.154,34.991 -78.154,78.155 0,43.164 34.991,78.155 78.154,78.155 43.164,0 78.156,-34.991 78.156,-78.155"
         id="path703142" />
    </clipPath>
    <clipPath
       clipPathUnits="userSpaceOnUse"
       id="clipPath703160">
      <path
         d="M 246.772,-20 H 473.544 V -360.157 H 246.772 Z"
         id="path703158" />
    </clipPath>
    <clipPath
       clipPathUnits="userSpaceOnUse"
       id="clipPath703168">
      <path
         d="M 246.772,-360.157 H 473.544 V -20 H 246.772 Z"
         id="path703166" />
    </clipPath>
    <clipPath
       clipPathUnits="userSpaceOnUse"
       id="clipPath703176">
      <path
         d="m 282.002,-190.079 c 0,-43.163 34.993,-78.154 78.156,-78.154 43.164,0 78.155,34.991 78.155,78.154 0,43.164 -34.991,78.156 -78.155,78.156 -43.163,0 -78.156,-34.992 -78.156,-78.156"
         id="path703174" />
    </clipPath>
    <clipPath
       clipPathUnits="userSpaceOnUse"
       id="clipPath720772">
      <g
         id="g720776"
         transform="matrix(0.75000002,0,0,-0.75000002,-117.18415,74.879174)">
        <path
           d="M -45.430862,-131.30857 H 256.9318 V 322.23409 H -45.430862 Z"
           id="path720774"
           style="stroke-width:1.33333" />
      </g>
    </clipPath>
    <clipPath
       clipPathUnits="userSpaceOnUse"
       id="clipPath720778">
      <g
         id="g720782"
         transform="matrix(0.75000002,0,0,-0.75000002,-78.789654,69.358173)">
        <path
           d="M -45.430862,-131.30857 H 256.9318 V 322.23409 H -45.430862 Z"
           id="path720780"
           style="stroke-width:1.33333" />
      </g>
    </clipPath>
    <clipPath
       clipPathUnits="userSpaceOnUse"
       id="clipPath720784">
      <g
         id="g720788"
         transform="matrix(0.75000002,0,0,-0.75000002,34.073147,241.67557)">
        <path
           d="M -45.430862,-131.30857 H 256.9318 V 322.23409 H -45.430862 Z"
           id="path720786"
           style="stroke-width:1.33333" />
      </g>
    </clipPath>
    <clipPath
       clipPathUnits="userSpaceOnUse"
       id="clipPath703262">
      <path
         d="M -246.772,-20 H -20 v -340.157 h -226.772 z"
         id="path703260" />
    </clipPath>
    <clipPath
       clipPathUnits="userSpaceOnUse"
       id="clipPath703270">
      <path
         d="M -246.772,-360.157 H -20 V -20 h -226.772 z"
         id="path703268" />
    </clipPath>
    <clipPath
       clipPathUnits="userSpaceOnUse"
       id="clipPath703278">
      <path
         d="M -246.772,-20 H -20 v -340.157 h -226.772 z"
         id="path703276" />
    </clipPath>
    <clipPath
       clipPathUnits="userSpaceOnUse"
       id="clipPath703286">
      <path
         d="m 191.541,-190.078 c 0,-43.164 -34.992,-78.155 -78.156,-78.155 -43.163,0 -78.154,34.991 -78.154,78.155 0,43.164 34.991,78.155 78.154,78.155 43.164,0 78.156,-34.991 78.156,-78.155"
         id="path703284" />
    </clipPath>
    <clipPath
       clipPathUnits="userSpaceOnUse"
       id="clipPath703298">
      <path
         d="M 0,-20 H 226.772 V -360.157 H 0 Z"
         id="path703296" />
    </clipPath>
    <clipPath
       clipPathUnits="userSpaceOnUse"
       id="clipPath703306">
      <path
         d="M 0,-360.157 H 226.772 V -20 H 0 Z"
         id="path703304" />
    </clipPath>
    <clipPath
       clipPathUnits="userSpaceOnUse"
       id="clipPath703314">
      <path
         d="m 35.23,-190.079 c 0,-43.163 34.993,-78.154 78.156,-78.154 43.164,0 78.155,34.991 78.155,78.154 0,43.164 -34.991,78.156 -78.155,78.156 -43.163,0 -78.156,-34.992 -78.156,-78.156"
         id="path703312" />
    </clipPath>
    <clipPath
       clipPathUnits="userSpaceOnUse"
       id="clipPath721254">
      <g
         id="g721258"
         transform="matrix(0.75000002,0,0,-0.75000002,-143.46681,15.486327)">
        <path
           d="M 8.3138826,-226.73543 H 310.67654 V 226.80723 H 8.3138826 Z"
           id="path721256"
           style="stroke-width:1.33333" />
      </g>
    </clipPath>
    <clipPath
       clipPathUnits="userSpaceOnUse"
       id="clipPath721260">
      <g
         id="g721264"
         transform="matrix(0.75000002,0,0,-0.75000002,-150.19041,29.105427)">
        <path
           d="M 8.3138826,-226.73543 H 310.67654 V 226.80723 H 8.3138826 Z"
           id="path721262"
           style="stroke-width:1.33333" />
      </g>
    </clipPath>
    <clipPath
       clipPathUnits="userSpaceOnUse"
       id="clipPath721266">
      <g
         id="g721270"
         transform="matrix(0.75000002,0,0,-0.75000002,-6.2354121,170.10543)">
        <path
           d="M 8.3138826,-226.73543 H 310.67654 V 226.80723 H 8.3138826 Z"
           id="path721268"
           style="stroke-width:1.33333" />
      </g>
    </clipPath>
    <clipPath
       clipPathUnits="userSpaceOnUse"
       id="clipPath703432">
      <path
         d="M 0,340.157 H 226.772 V 0 H 0 Z"
         id="path703430" />
    </clipPath>
    <clipPath
       clipPathUnits="userSpaceOnUse"
       id="clipPath703542">
      <path
         d="M 0,340.157 H 226.772 V 0 H 0 Z"
         id="path703540" />
    </clipPath>
    <clipPath
       clipPathUnits="userSpaceOnUse"
       id="clipPath713424">
      <path
         d="M 0,340.157 H 226.772 V 0 H 0 Z"
         id="path713422" />
    </clipPath>
    <clipPath
       clipPathUnits="userSpaceOnUse"
       id="clipPath713526">
      <path
         d="M 0,340.157 H 226.772 V 0 H 0 Z"
         id="path713524" />
    </clipPath>
    <clipPath
       clipPathUnits="userSpaceOnUse"
       id="clipPath713616">
      <path
         d="M 0,340.157 H 226.772 V 0 H 0 Z"
         id="path713614" />
    </clipPath>
    <clipPath
       clipPathUnits="userSpaceOnUse"
       id="clipPath713690">
      <path
         d="M 0,340.157 H 226.772 V 0 H 0 Z"
         id="path713688" />
    </clipPath>
    <clipPath
       clipPathUnits="userSpaceOnUse"
       id="clipPath713764">
      <path
         d="M 0,340.157 H 226.772 V 0 H 0 Z"
         id="path713762" />
    </clipPath>
    <clipPath
       clipPathUnits="userSpaceOnUse"
       id="clipPath713874">
      <path
         d="M 0,340.157 H 226.772 V 0 H 0 Z"
         id="path713872" />
    </clipPath>
    <clipPath
       clipPathUnits="userSpaceOnUse"
       id="clipPath713874-3">
      <path
         d="M 0,340.157 H 226.772 V 0 H 0 Z"
         id="path713872-6" />
    </clipPath>
    <clipPath
       clipPathUnits="userSpaceOnUse"
       id="clipPath718030">
      <path
         d="M 0,340.157 H 226.772 V 0 H 0 Z"
         id="path718028" />
    </clipPath>
    <clipPath
       clipPathUnits="userSpaceOnUse"
       id="clipPath718104">
      <path
         d="M 0,340.157 H 226.772 V 0 H 0 Z"
         id="path718102" />
    </clipPath>
    <clipPath
       clipPathUnits="userSpaceOnUse"
       id="clipPath718178">
      <path
         d="M 0,340.157 H 226.772 V 0 H 0 Z"
         id="path718176" />
    </clipPath>
    <clipPath
       clipPathUnits="userSpaceOnUse"
       id="clipPath718296">
      <path
         d="M 0,340.157 H 226.772 V 0 H 0 Z"
         id="path718294" />
    </clipPath>
    <clipPath
       clipPathUnits="userSpaceOnUse"
       id="clipPath718398">
      <path
         d="M 0,340.157 H 226.772 V 0 H 0 Z"
         id="path718396" />
    </clipPath>
    <clipPath
       clipPathUnits="userSpaceOnUse"
       id="clipPath718484">
      <path
         d="M 0,340.157 H 226.772 V 0 H 0 Z"
         id="path718482" />
    </clipPath>
    <clipPath
       clipPathUnits="userSpaceOnUse"
       id="clipPath718558">
      <path
         d="M 0,340.157 H 226.772 V 0 H 0 Z"
         id="path718556" />
    </clipPath>
    <clipPath
       clipPathUnits="userSpaceOnUse"
       id="clipPath745984">
      <path
         d="M 0,340.157 H 226.772 V 0 H 0 Z"
         id="path745982" />
    </clipPath>
    <clipPath
       clipPathUnits="userSpaceOnUse"
       id="clipPath746070">
      <path
         d="M 0,340.157 H 226.772 V 0 H 0 Z"
         id="path746068" />
    </clipPath>
    <clipPath
       clipPathUnits="userSpaceOnUse"
       id="clipPath746144">
      <path
         d="M 0,340.157 H 226.772 V 0 H 0 Z"
         id="path746142" />
    </clipPath>
    <clipPath
       clipPathUnits="userSpaceOnUse"
       id="clipPath746274">
      <path
         d="M 0,340.157 H 226.772 V 0 H 0 Z"
         id="path746272" />
    </clipPath>
    <clipPath
       clipPathUnits="userSpaceOnUse"
       id="clipPath746400">
      <path
         d="M 0,340.157 H 226.772 V 0 H 0 Z"
         id="path746398" />
    </clipPath>
    <clipPath
       clipPathUnits="userSpaceOnUse"
       id="clipPath746502">
      <path
         d="M 0,340.157 H 226.772 V 0 H 0 Z"
         id="path746500" />
    </clipPath>
    <clipPath
       clipPathUnits="userSpaceOnUse"
       id="clipPath746510">
      <path
         d="M -246.772,340.157 H -20 V 0 h -226.772 z"
         id="path746508" />
    </clipPath>
    <clipPath
       clipPathUnits="userSpaceOnUse"
       id="clipPath746518">
      <path
         d="M -246.772,340.157 H -20 V 0 h -226.772 z"
         id="path746516" />
    </clipPath>
    <clipPath
       clipPathUnits="userSpaceOnUse"
       id="clipPath746616">
      <path
         d="M 0,340.157 H 226.772 V 0 H 0 Z"
         id="path746614" />
    </clipPath>
    <clipPath
       clipPathUnits="userSpaceOnUse"
       id="clipPath746694">
      <path
         d="M 0,340.157 H 226.772 V 0 H 0 Z"
         id="path746692" />
    </clipPath>
    <clipPath
       clipPathUnits="userSpaceOnUse"
       id="clipPath746780">
      <path
         d="M 0,340.157 H 226.772 V 0 H 0 Z"
         id="path746778" />
    </clipPath>
    <clipPath
       clipPathUnits="userSpaceOnUse"
       id="clipPath746858">
      <path
         d="M 0,340.157 H 226.772 V 0 H 0 Z"
         id="path746856" />
    </clipPath>
    <clipPath
       clipPathUnits="userSpaceOnUse"
       id="clipPath746936">
      <path
         d="M 0,340.157 H 226.772 V 0 H 0 Z"
         id="path746934" />
    </clipPath>
    <clipPath
       clipPathUnits="userSpaceOnUse"
       id="clipPath747022">
      <path
         d="M 0,340.157 H 226.772 V 0 H 0 Z"
         id="path747020" />
    </clipPath>
    <clipPath
       clipPathUnits="userSpaceOnUse"
       id="clipPath747112">
      <path
         d="M 0,340.157 H 226.772 V 0 H 0 Z"
         id="path747110" />
    </clipPath>
    <clipPath
       clipPathUnits="userSpaceOnUse"
       id="clipPath747198">
      <path
         d="M 0,340.157 H 226.772 V 0 H 0 Z"
         id="path747196" />
    </clipPath>
    <clipPath
       clipPathUnits="userSpaceOnUse"
       id="clipPath747284">
      <path
         d="M 0,340.157 H 226.772 V 0 H 0 Z"
         id="path747282" />
    </clipPath>
    <clipPath
       clipPathUnits="userSpaceOnUse"
       id="clipPath747366">
      <path
         d="M 0,340.157 H 226.772 V 0 H 0 Z"
         id="path747364" />
    </clipPath>
    <clipPath
       clipPathUnits="userSpaceOnUse"
       id="clipPath747448">
      <path
         d="M 0,340.157 H 226.772 V 0 H 0 Z"
         id="path747446" />
    </clipPath>
    <clipPath
       clipPathUnits="userSpaceOnUse"
       id="clipPath747530">
      <path
         d="M 0,340.157 H 226.772 V 0 H 0 Z"
         id="path747528" />
    </clipPath>
    <clipPath
       clipPathUnits="userSpaceOnUse"
       id="clipPath747616">
      <path
         d="M 0,340.157 H 226.772 V 0 H 0 Z"
         id="path747614" />
    </clipPath>
  </defs>
  <g
     id="g747610"
     transform="matrix(1.3333333,0,0,-1.3333333,0.5182704,296.70276)">
    <g
       id="g747612"
       clip-path="url(#clipPath747616)">
      <g
         id="g747618"
         transform="translate(158.3666,147.0787)">
        <path
           d="m 0,0 h -14.954 c -1.88,0 -2.821,0.883 -2.821,2.651 0,0.527 0.197,1.073 0.592,1.637 0.395,0.565 1.139,0.847 2.229,0.847 H 0 C 1.881,5.135 2.821,4.269 2.821,2.539 2.821,2.012 2.624,1.457 2.229,0.874 1.834,0.29 1.091,0 0,0 m -25.879,4.288 c 1.768,0 2.652,0.79 2.652,2.37 0,1.129 -0.253,2.304 -0.761,3.527 -0.508,1.222 -1.204,2.257 -2.088,3.103 -0.885,0.847 -1.891,1.27 -3.019,1.27 -1.092,0 -2.079,-0.443 -2.963,-1.326 -0.884,-0.884 -1.74,-2.605 -2.567,-5.164 1.091,-0.978 2.445,-1.852 4.063,-2.623 1.617,-0.771 3.178,-1.157 4.683,-1.157 m 5.474,-1.467 c -1.28,-2.333 -3.142,-3.499 -5.586,-3.499 -3.198,0 -6.679,1.392 -10.44,4.176 C -37.184,2.294 -38.049,1.41 -39.026,0.846 -40.005,0.281 -41.283,0 -42.863,0 c -0.866,0 -1.599,0.206 -2.201,0.62 -0.602,0.414 -0.903,1.053 -0.903,1.919 0,1.73 1.015,2.596 3.047,2.596 h 0.282 c 1.165,0 2.107,0.346 2.822,1.044 0.713,0.695 1.391,2.003 2.031,3.922 1.166,3.196 2.407,5.473 3.724,6.827 1.317,1.354 3.047,2.032 5.192,2.032 1.58,0 2.98,-0.472 4.204,-1.411 1.222,-0.941 2.237,-2.145 3.047,-3.611 0.808,-1.467 1.383,-2.992 1.721,-4.572 0.827,-1.805 1.645,-2.962 2.455,-3.47 0.808,-0.507 1.627,-0.761 2.454,-0.761 0.827,0 1.532,-0.207 2.116,-0.621 0.583,-0.414 0.875,-1.054 0.875,-1.918 0,-1.732 -0.997,-2.596 -2.991,-2.596 -2.257,0 -4.063,0.939 -5.417,2.821 m -30.528,2.257 c -0.151,3.348 -0.828,5.897 -2.032,7.647 -1.204,1.749 -2.69,2.623 -4.458,2.623 -1.354,0 -2.446,-0.49 -3.272,-1.467 -0.828,-0.979 -1.242,-2.051 -1.242,-3.217 0,-0.865 0.235,-1.73 0.706,-2.596 0.469,-0.865 1.429,-1.579 2.877,-2.143 1.448,-0.565 3.64,-0.847 6.574,-0.847 z m -12.64,-20.653 c -3.612,0 -6.452,0.923 -8.521,2.765 l 0.846,3.555 c 0.94,-0.526 1.956,-0.931 3.047,-1.213 1.091,-0.282 2.483,-0.424 4.176,-0.424 3.197,0 5.887,1.044 8.069,3.132 2.182,2.088 3.668,4.675 4.458,7.76 h -1.128 c -3.386,0 -6.01,0.479 -7.872,1.438 -1.862,0.959 -3.169,2.21 -3.922,3.753 -0.753,1.542 -1.128,3.178 -1.128,4.91 0,2.557 0.864,4.786 2.595,6.686 1.73,1.9 3.818,2.85 6.264,2.85 1.241,0 2.586,-0.414 4.035,-1.241 1.447,-0.829 2.698,-2.295 3.752,-4.402 1.053,-2.107 1.636,-5.079 1.749,-8.916 h 4.289 c 0.827,0 1.532,-0.197 2.116,-0.593 0.583,-0.394 0.875,-1.025 0.875,-1.889 C -39.873,0.864 -40.87,0 -42.864,0 h -4.684 c -0.903,-4.515 -2.812,-8.239 -5.727,-11.174 -2.916,-2.933 -6.349,-4.401 -10.298,-4.401 m -23.587,44.24 c 0,-1.844 -0.979,-2.859 -2.935,-3.047 -0.827,0 -1.523,0.273 -2.088,0.819 -0.564,0.544 -0.846,1.288 -0.846,2.228 0,1.806 0.978,2.821 2.934,3.047 1.768,0 2.746,-1.016 2.935,-3.047 m -2.257,-37.469 c -4.214,0 -7.6,1.252 -10.158,3.753 -2.558,2.502 -3.837,5.765 -3.837,9.79 0,1.355 0.169,2.859 0.508,4.515 0.339,1.655 0.827,3.141 1.467,4.458 l 3.217,-0.565 c -0.753,-2.52 -1.129,-4.852 -1.129,-6.997 0,-3.16 1.016,-5.587 3.047,-7.279 2.031,-1.693 4.552,-2.539 7.562,-2.539 2.37,0 4.589,0.442 6.658,1.326 2.069,0.884 3.668,2.398 4.797,4.542 0.187,0.301 0.347,0.714 0.479,1.241 0.132,0.527 0.198,0.922 0.198,1.186 0,3.874 -1.637,9.085 -4.91,15.631 l 4.346,1.41 c 0.94,-1.806 1.89,-4.186 2.849,-7.138 0.959,-2.954 1.439,-6.009 1.439,-9.17 0,-0.828 -0.132,-1.787 -0.395,-2.878 -0.263,-1.091 -0.564,-1.994 -0.903,-2.709 -1.43,-2.821 -3.48,-4.956 -6.151,-6.404 -2.671,-1.447 -5.699,-2.173 -9.084,-2.173"
           style="fill:#1d1d1b;fill-opacity:1;fill-rule:nonzero;stroke:none"
           id="path747620" />
      </g>
      <g
         id="g747622"
         transform="translate(169.268,206.6217)">
        <path
           d="m 0,0 c -3.047,-1.241 -6.076,-2.276 -9.085,-3.104 l -0.395,1.863 c 3.536,1.091 6.583,2.18 9.141,3.272 z"
           style="fill:#f91536;fill-opacity:1;fill-rule:nonzero;stroke:none"
           id="path747624" />
      </g>
      <g
         id="g747626"
         transform="translate(158.3432,147.0787)">
        <path
           d="m 0,0 c -1.129,0 -1.891,0.29 -2.285,0.874 -0.396,0.583 -0.593,1.176 -0.593,1.777 0,0.489 0.217,1.025 0.649,1.609 0.433,0.583 1.176,0.875 2.229,0.875 2.068,0 3.677,0.536 4.825,1.608 1.147,1.071 1.721,2.736 1.721,4.993 L 5.191,40.628 9.424,40.967 10.778,11.285 C 10.778,7.561 9.855,4.748 8.013,2.85 6.169,0.949 3.499,0 0,0"
           style="fill:#f91536;fill-opacity:1;fill-rule:nonzero;stroke:none"
           id="path747628" />
      </g>
    </g>
  </g>
</svg>
