<?xml version="1.0" encoding="UTF-8" standalone="no"?>
<!-- Created with Inkscape (http://www.inkscape.org/) -->

<svg
   version="1.1"
   id="svg18"
   width="300"
   height="150"
   viewBox="0 0 300.00002 150"
   sodipodi:docname="1211_word.svg"
   inkscape:version="1.2.1 (9c6d41e410, 2022-07-14)"
   xmlns:inkscape="http://www.inkscape.org/namespaces/inkscape"
   xmlns:sodipodi="http://sodipodi.sourceforge.net/DTD/sodipodi-0.dtd"
   xmlns="http://www.w3.org/2000/svg"
   xmlns:svg="http://www.w3.org/2000/svg">
  <sodipodi:namedview
     id="namedview37"
     pagecolor="#ffffff"
     bordercolor="#000000"
     borderopacity="0.25"
     inkscape:showpageshadow="2"
     inkscape:pageopacity="0.0"
     inkscape:pagecheckerboard="0"
     inkscape:deskcolor="#d1d1d1"
     showgrid="false"
     inkscape:zoom="4.0941839"
     inkscape:cx="103.43942"
     inkscape:cy="106.24828"
     inkscape:window-width="1700"
     inkscape:window-height="1396"
     inkscape:window-x="8"
     inkscape:window-y="28"
     inkscape:window-maximized="1"
     inkscape:current-layer="svg18" />
  <defs
     id="defs22">
    <clipPath
       clipPathUnits="userSpaceOnUse"
       id="clipPath2796">
      <path
         d="M 0,340.157 H 226.772 V 0 H 0 Z"
         id="path2794" />
    </clipPath>
    <clipPath
       clipPathUnits="userSpaceOnUse"
       id="clipPath2804">
      <path
         d="M 246.772,340.157 H 473.544 V 0 H 246.772 Z"
         id="path2802" />
    </clipPath>
    <clipPath
       clipPathUnits="userSpaceOnUse"
       id="clipPath2812">
      <path
         d="M 246.772,0 H 473.544 V 340.157 H 246.772 Z"
         id="path2810" />
    </clipPath>
    <clipPath
       clipPathUnits="userSpaceOnUse"
       id="clipPath2820">
      <path
         d="M 246.772,340.157 H 473.544 V 0 H 246.772 Z"
         id="path2818" />
    </clipPath>
    <clipPath
       clipPathUnits="userSpaceOnUse"
       id="clipPath2828">
      <path
         d="m 438.313,-190.079 c 0,-43.163 -34.991,-78.155 -78.155,-78.155 -43.164,0 -78.155,34.992 -78.155,78.155 0,43.164 34.991,78.155 78.155,78.155 43.164,0 78.155,-34.991 78.155,-78.155"
         id="path2826" />
    </clipPath>
    <clipPath
       clipPathUnits="userSpaceOnUse"
       id="clipPath702936">
      <path
         d="M 0,340.157 H 226.772 V 0 H 0 Z"
         id="path702934" />
    </clipPath>
    <clipPath
       clipPathUnits="userSpaceOnUse"
       id="clipPath703010">
      <path
         d="M 0,340.157 H 226.772 V 0 H 0 Z"
         id="path703008" />
    </clipPath>
    <clipPath
       clipPathUnits="userSpaceOnUse"
       id="clipPath703120">
      <path
         d="M 0,-20 H 226.772 V -360.157 H 0 Z"
         id="path703118" />
    </clipPath>
    <clipPath
       clipPathUnits="userSpaceOnUse"
       id="clipPath703128">
      <path
         d="M 0,-360.157 H 226.772 V -20 H 0 Z"
         id="path703126" />
    </clipPath>
    <clipPath
       clipPathUnits="userSpaceOnUse"
       id="clipPath703136">
      <path
         d="M 0,-20 H 226.772 V -360.157 H 0 Z"
         id="path703134" />
    </clipPath>
    <clipPath
       clipPathUnits="userSpaceOnUse"
       id="clipPath703144">
      <path
         d="m 438.313,-190.078 c 0,-43.164 -34.992,-78.155 -78.156,-78.155 -43.163,0 -78.154,34.991 -78.154,78.155 0,43.164 34.991,78.155 78.154,78.155 43.164,0 78.156,-34.991 78.156,-78.155"
         id="path703142" />
    </clipPath>
    <clipPath
       clipPathUnits="userSpaceOnUse"
       id="clipPath703160">
      <path
         d="M 246.772,-20 H 473.544 V -360.157 H 246.772 Z"
         id="path703158" />
    </clipPath>
    <clipPath
       clipPathUnits="userSpaceOnUse"
       id="clipPath703168">
      <path
         d="M 246.772,-360.157 H 473.544 V -20 H 246.772 Z"
         id="path703166" />
    </clipPath>
    <clipPath
       clipPathUnits="userSpaceOnUse"
       id="clipPath703176">
      <path
         d="m 282.002,-190.079 c 0,-43.163 34.993,-78.154 78.156,-78.154 43.164,0 78.155,34.991 78.155,78.154 0,43.164 -34.991,78.156 -78.155,78.156 -43.163,0 -78.156,-34.992 -78.156,-78.156"
         id="path703174" />
    </clipPath>
    <clipPath
       clipPathUnits="userSpaceOnUse"
       id="clipPath720772">
      <g
         id="g720776"
         transform="matrix(0.75000002,0,0,-0.75000002,-117.18415,74.879174)">
        <path
           d="M -45.430862,-131.30857 H 256.9318 V 322.23409 H -45.430862 Z"
           id="path720774"
           style="stroke-width:1.33333" />
      </g>
    </clipPath>
    <clipPath
       clipPathUnits="userSpaceOnUse"
       id="clipPath720778">
      <g
         id="g720782"
         transform="matrix(0.75000002,0,0,-0.75000002,-78.789654,69.358173)">
        <path
           d="M -45.430862,-131.30857 H 256.9318 V 322.23409 H -45.430862 Z"
           id="path720780"
           style="stroke-width:1.33333" />
      </g>
    </clipPath>
    <clipPath
       clipPathUnits="userSpaceOnUse"
       id="clipPath720784">
      <g
         id="g720788"
         transform="matrix(0.75000002,0,0,-0.75000002,34.073147,241.67557)">
        <path
           d="M -45.430862,-131.30857 H 256.9318 V 322.23409 H -45.430862 Z"
           id="path720786"
           style="stroke-width:1.33333" />
      </g>
    </clipPath>
    <clipPath
       clipPathUnits="userSpaceOnUse"
       id="clipPath703262">
      <path
         d="M -246.772,-20 H -20 v -340.157 h -226.772 z"
         id="path703260" />
    </clipPath>
    <clipPath
       clipPathUnits="userSpaceOnUse"
       id="clipPath703270">
      <path
         d="M -246.772,-360.157 H -20 V -20 h -226.772 z"
         id="path703268" />
    </clipPath>
    <clipPath
       clipPathUnits="userSpaceOnUse"
       id="clipPath703278">
      <path
         d="M -246.772,-20 H -20 v -340.157 h -226.772 z"
         id="path703276" />
    </clipPath>
    <clipPath
       clipPathUnits="userSpaceOnUse"
       id="clipPath703286">
      <path
         d="m 191.541,-190.078 c 0,-43.164 -34.992,-78.155 -78.156,-78.155 -43.163,0 -78.154,34.991 -78.154,78.155 0,43.164 34.991,78.155 78.154,78.155 43.164,0 78.156,-34.991 78.156,-78.155"
         id="path703284" />
    </clipPath>
    <clipPath
       clipPathUnits="userSpaceOnUse"
       id="clipPath703298">
      <path
         d="M 0,-20 H 226.772 V -360.157 H 0 Z"
         id="path703296" />
    </clipPath>
    <clipPath
       clipPathUnits="userSpaceOnUse"
       id="clipPath703306">
      <path
         d="M 0,-360.157 H 226.772 V -20 H 0 Z"
         id="path703304" />
    </clipPath>
    <clipPath
       clipPathUnits="userSpaceOnUse"
       id="clipPath703314">
      <path
         d="m 35.23,-190.079 c 0,-43.163 34.993,-78.154 78.156,-78.154 43.164,0 78.155,34.991 78.155,78.154 0,43.164 -34.991,78.156 -78.155,78.156 -43.163,0 -78.156,-34.992 -78.156,-78.156"
         id="path703312" />
    </clipPath>
    <clipPath
       clipPathUnits="userSpaceOnUse"
       id="clipPath721254">
      <g
         id="g721258"
         transform="matrix(0.75000002,0,0,-0.75000002,-143.46681,15.486327)">
        <path
           d="M 8.3138826,-226.73543 H 310.67654 V 226.80723 H 8.3138826 Z"
           id="path721256"
           style="stroke-width:1.33333" />
      </g>
    </clipPath>
    <clipPath
       clipPathUnits="userSpaceOnUse"
       id="clipPath721260">
      <g
         id="g721264"
         transform="matrix(0.75000002,0,0,-0.75000002,-150.19041,29.105427)">
        <path
           d="M 8.3138826,-226.73543 H 310.67654 V 226.80723 H 8.3138826 Z"
           id="path721262"
           style="stroke-width:1.33333" />
      </g>
    </clipPath>
    <clipPath
       clipPathUnits="userSpaceOnUse"
       id="clipPath721266">
      <g
         id="g721270"
         transform="matrix(0.75000002,0,0,-0.75000002,-6.2354121,170.10543)">
        <path
           d="M 8.3138826,-226.73543 H 310.67654 V 226.80723 H 8.3138826 Z"
           id="path721268"
           style="stroke-width:1.33333" />
      </g>
    </clipPath>
    <clipPath
       clipPathUnits="userSpaceOnUse"
       id="clipPath703432">
      <path
         d="M 0,340.157 H 226.772 V 0 H 0 Z"
         id="path703430" />
    </clipPath>
    <clipPath
       clipPathUnits="userSpaceOnUse"
       id="clipPath703542">
      <path
         d="M 0,340.157 H 226.772 V 0 H 0 Z"
         id="path703540" />
    </clipPath>
    <clipPath
       clipPathUnits="userSpaceOnUse"
       id="clipPath713424">
      <path
         d="M 0,340.157 H 226.772 V 0 H 0 Z"
         id="path713422" />
    </clipPath>
    <clipPath
       clipPathUnits="userSpaceOnUse"
       id="clipPath713526">
      <path
         d="M 0,340.157 H 226.772 V 0 H 0 Z"
         id="path713524" />
    </clipPath>
    <clipPath
       clipPathUnits="userSpaceOnUse"
       id="clipPath713616">
      <path
         d="M 0,340.157 H 226.772 V 0 H 0 Z"
         id="path713614" />
    </clipPath>
    <clipPath
       clipPathUnits="userSpaceOnUse"
       id="clipPath713690">
      <path
         d="M 0,340.157 H 226.772 V 0 H 0 Z"
         id="path713688" />
    </clipPath>
    <clipPath
       clipPathUnits="userSpaceOnUse"
       id="clipPath713764">
      <path
         d="M 0,340.157 H 226.772 V 0 H 0 Z"
         id="path713762" />
    </clipPath>
    <clipPath
       clipPathUnits="userSpaceOnUse"
       id="clipPath713874">
      <path
         d="M 0,340.157 H 226.772 V 0 H 0 Z"
         id="path713872" />
    </clipPath>
    <clipPath
       clipPathUnits="userSpaceOnUse"
       id="clipPath713874-3">
      <path
         d="M 0,340.157 H 226.772 V 0 H 0 Z"
         id="path713872-6" />
    </clipPath>
    <clipPath
       clipPathUnits="userSpaceOnUse"
       id="clipPath718030">
      <path
         d="M 0,340.157 H 226.772 V 0 H 0 Z"
         id="path718028" />
    </clipPath>
    <clipPath
       clipPathUnits="userSpaceOnUse"
       id="clipPath718104">
      <path
         d="M 0,340.157 H 226.772 V 0 H 0 Z"
         id="path718102" />
    </clipPath>
    <clipPath
       clipPathUnits="userSpaceOnUse"
       id="clipPath718178">
      <path
         d="M 0,340.157 H 226.772 V 0 H 0 Z"
         id="path718176" />
    </clipPath>
    <clipPath
       clipPathUnits="userSpaceOnUse"
       id="clipPath718296">
      <path
         d="M 0,340.157 H 226.772 V 0 H 0 Z"
         id="path718294" />
    </clipPath>
    <clipPath
       clipPathUnits="userSpaceOnUse"
       id="clipPath718398">
      <path
         d="M 0,340.157 H 226.772 V 0 H 0 Z"
         id="path718396" />
    </clipPath>
    <clipPath
       clipPathUnits="userSpaceOnUse"
       id="clipPath718484">
      <path
         d="M 0,340.157 H 226.772 V 0 H 0 Z"
         id="path718482" />
    </clipPath>
    <clipPath
       clipPathUnits="userSpaceOnUse"
       id="clipPath718558">
      <path
         d="M 0,340.157 H 226.772 V 0 H 0 Z"
         id="path718556" />
    </clipPath>
    <clipPath
       clipPathUnits="userSpaceOnUse"
       id="clipPath745984">
      <path
         d="M 0,340.157 H 226.772 V 0 H 0 Z"
         id="path745982" />
    </clipPath>
    <clipPath
       clipPathUnits="userSpaceOnUse"
       id="clipPath746070">
      <path
         d="M 0,340.157 H 226.772 V 0 H 0 Z"
         id="path746068" />
    </clipPath>
  </defs>
  <g
     id="g746064"
     transform="matrix(1.3333333,0,0,-1.3333333,-1.1812629,298.62625)">
    <g
       id="g746066"
       clip-path="url(#clipPath746070)">
      <g
         id="g746072"
         transform="translate(128.1533,154.6514)">
        <path
           d="M 0,0 C 1.768,0 2.652,0.789 2.652,2.369 2.652,3.498 2.398,4.674 1.891,5.896 1.383,7.118 0.686,8.153 -0.197,9 -1.082,9.847 -2.088,10.27 -3.216,10.27 -4.308,10.27 -5.295,9.827 -6.179,8.943 -7.063,8.06 -7.919,6.338 -8.746,3.78 -7.656,2.802 -6.301,1.927 -4.684,1.156 -3.066,0.385 -1.505,0 0,0 m 5.474,-1.468 c -1.28,-2.333 -3.141,-3.498 -5.587,-3.498 -3.198,0 -6.678,1.391 -10.439,4.176 -0.753,-1.205 -1.618,-2.088 -2.595,-2.652 -0.979,-0.565 -2.258,-0.847 -3.838,-0.847 -0.865,0 -1.598,0.206 -2.201,0.621 -0.601,0.413 -0.902,1.053 -0.902,1.918 0,1.73 1.015,2.596 3.047,2.596 h 0.282 c 1.166,0 2.106,0.347 2.821,1.044 0.714,0.696 1.392,2.004 2.032,3.922 1.165,3.197 2.407,5.473 3.724,6.828 1.316,1.354 3.047,2.031 5.191,2.031 1.58,0 2.982,-0.471 4.204,-1.411 C 2.436,12.319 3.451,11.116 4.261,9.648 5.069,8.182 5.643,6.658 5.981,5.078 6.809,3.272 7.627,2.115 8.436,1.607 9.245,1.1 10.063,0.846 10.891,0.846 c 0.827,0 1.532,-0.207 2.116,-0.62 0.583,-0.415 0.875,-1.054 0.875,-1.919 0,-1.731 -0.998,-2.596 -2.991,-2.596 -2.257,0 -4.063,0.939 -5.417,2.821 m -67.748,-15.01 c -3.989,0 -7.148,1.29 -9.48,3.866 -2.333,2.577 -3.499,5.765 -3.499,9.564 0,1.994 0.234,3.874 0.705,5.644 0.47,1.767 1.006,3.253 1.609,4.457 l 2.99,-0.564 c -0.903,-3.123 -1.354,-5.794 -1.354,-8.013 0,-3.197 0.959,-5.652 2.878,-7.364 1.918,-1.712 4.232,-2.567 6.941,-2.567 2.67,0 4.927,0.63 6.771,1.89 1.842,1.26 3.16,3.001 3.95,5.219 0.225,0.904 0.339,1.58 0.339,2.032 -0.452,3.912 -1.657,7.918 -3.612,12.019 l 4.063,1.524 c 0.978,-2.257 1.881,-5.003 2.708,-8.239 0.226,-0.79 0.64,-1.383 1.242,-1.777 0.601,-0.396 1.298,-0.593 2.088,-0.593 0.977,0 1.824,0.234 2.539,0.705 0.714,0.471 1.335,1.411 1.862,2.822 0.527,1.411 0.959,3.527 1.298,6.348 l 3.499,0.169 -0.283,-4.062 c -0.075,-0.64 -0.112,-1.223 -0.112,-1.749 0,-1.581 0.244,-2.672 0.733,-3.274 0.489,-0.601 1.222,-0.902 2.201,-0.902 1.316,0 2.342,0.545 3.075,1.636 0.734,1.09 1.279,2.37 1.637,3.837 0.357,1.467 0.629,2.822 0.818,4.063 l 3.386,0.282 c -0.076,-0.602 -0.151,-1.204 -0.226,-1.806 -0.076,-0.602 -0.113,-1.166 -0.113,-1.692 0,-1.882 0.48,-3.367 1.439,-4.458 0.959,-1.092 2.681,-1.656 5.163,-1.693 0.827,0 1.533,-0.207 2.116,-0.62 0.583,-0.415 0.875,-1.054 0.875,-1.919 0,-0.565 -0.189,-1.139 -0.564,-1.721 -0.377,-0.584 -1.242,-0.875 -2.596,-0.875 -4.439,0 -7.261,1.693 -8.464,5.078 -0.753,-1.655 -1.76,-2.915 -3.019,-3.78 -1.261,-0.866 -2.549,-1.298 -3.866,-1.298 -1.241,0 -2.21,0.216 -2.906,0.649 -0.696,0.432 -1.213,0.95 -1.552,1.552 -0.338,0.601 -0.602,1.203 -0.79,1.806 -0.64,-1.28 -1.466,-2.268 -2.483,-2.963 -1.015,-0.696 -2.351,-1.044 -4.006,-1.044 -0.941,0 -1.844,0.319 -2.708,0.959 0,-0.753 -0.133,-1.673 -0.395,-2.765 -1.129,-3.309 -3.029,-5.868 -5.7,-7.674 -2.671,-1.806 -5.737,-2.709 -9.197,-2.709"
           style="fill:#1d1d1b;fill-opacity:1;fill-rule:nonzero;stroke:none"
           id="path746074" />
      </g>
      <g
         id="g746076"
         transform="translate(162.6426,199.9522)">
        <path
           d="m 0,0 c -3.047,-1.242 -6.076,-2.277 -9.085,-3.104 l -0.395,1.862 c 3.536,1.091 6.583,2.181 9.141,3.273 z m 3.216,-24.648 c 0,-1.844 -0.922,-2.86 -2.765,-3.047 -0.827,0 -1.505,0.272 -2.031,0.818 -0.527,0.545 -0.79,1.288 -0.79,2.229 0,0.827 0.263,1.523 0.79,2.087 0.526,0.565 1.204,0.847 2.031,0.847 0.865,0 1.543,-0.282 2.032,-0.847 0.488,-0.564 0.733,-1.26 0.733,-2.087 m -3.611,6.771 c 0,-1.844 -0.941,-2.841 -2.821,-2.99 -0.828,0 -1.496,0.263 -2.004,0.789 -0.508,0.526 -0.761,1.261 -0.761,2.201 0,0.865 0.253,1.58 0.761,2.145 0.508,0.564 1.176,0.845 2.004,0.845 1.767,0 2.708,-0.997 2.821,-2.99 m -3.781,-6.771 c 0,-1.844 -0.941,-2.86 -2.821,-3.047 -0.828,0 -1.505,0.272 -2.032,0.818 -0.527,0.545 -0.79,1.288 -0.79,2.229 0,0.827 0.273,1.523 0.819,2.087 0.544,0.565 1.213,0.847 2.003,0.847 0.827,0 1.504,-0.282 2.031,-0.847 0.527,-0.564 0.79,-1.26 0.79,-2.087 M 2.821,-49.59 c -3.047,0 -5.06,1.317 -6.037,3.95 -1.43,-2.633 -3.668,-3.95 -6.716,-3.95 -2.934,0 -4.739,1.373 -5.417,4.119 -1.805,-2.746 -4.57,-4.119 -8.295,-4.119 -1.09,0 -1.842,0.273 -2.257,0.819 -0.413,0.544 -0.62,1.119 -0.62,1.72 0,0.715 0.225,1.326 0.677,1.834 0.451,0.508 1.185,0.762 2.2,0.762 2.746,0 4.712,0.706 5.897,2.116 1.185,1.411 1.984,3.319 2.398,5.728 l 3.612,0.169 c -0.528,-1.656 -0.79,-3.085 -0.79,-4.288 0,-2.634 1.034,-3.951 3.103,-3.951 1.505,0 2.727,0.527 3.668,1.58 0.94,1.053 1.655,2.992 2.145,5.813 l 3.554,0.169 c -0.037,-0.076 -0.056,-0.169 -0.056,-0.282 -0.263,-0.828 -0.395,-1.844 -0.395,-3.047 0,-2.784 1.279,-4.176 3.837,-4.176 1.242,0 2.276,0.403 3.104,1.213 0.827,0.808 1.241,1.852 1.241,3.132 0,0.977 -0.197,2.125 -0.592,3.442 -0.395,1.316 -0.838,2.483 -1.326,3.498 l 4.119,1.186 c 0.903,-1.769 1.354,-4.214 1.354,-7.336 0,-3.199 -0.818,-5.681 -2.455,-7.449 -1.636,-1.768 -3.621,-2.652 -5.953,-2.652"
           style="fill:#f91536;fill-opacity:1;fill-rule:nonzero;stroke:none"
           id="path746078" />
      </g>
    </g>
  </g>
</svg>
