<?xml version="1.0" encoding="UTF-8" standalone="no"?>
<!-- Created with Inkscape (http://www.inkscape.org/) -->

<svg
   version="1.1"
   id="svg18"
   width="300"
   height="150"
   viewBox="0 0 300.00002 150"
   sodipodi:docname="12119_word.svg"
   inkscape:version="1.2.1 (9c6d41e410, 2022-07-14)"
   xmlns:inkscape="http://www.inkscape.org/namespaces/inkscape"
   xmlns:sodipodi="http://sodipodi.sourceforge.net/DTD/sodipodi-0.dtd"
   xmlns="http://www.w3.org/2000/svg"
   xmlns:svg="http://www.w3.org/2000/svg">
  <sodipodi:namedview
     id="namedview37"
     pagecolor="#ffffff"
     bordercolor="#000000"
     borderopacity="0.25"
     inkscape:showpageshadow="2"
     inkscape:pageopacity="0.0"
     inkscape:pagecheckerboard="0"
     inkscape:deskcolor="#d1d1d1"
     showgrid="false"
     inkscape:zoom="4.0941839"
     inkscape:cx="103.68367"
     inkscape:cy="106.24828"
     inkscape:window-width="1700"
     inkscape:window-height="1396"
     inkscape:window-x="8"
     inkscape:window-y="28"
     inkscape:window-maximized="1"
     inkscape:current-layer="svg18" />
  <defs
     id="defs22">
    <clipPath
       clipPathUnits="userSpaceOnUse"
       id="clipPath2796">
      <path
         d="M 0,340.157 H 226.772 V 0 H 0 Z"
         id="path2794" />
    </clipPath>
    <clipPath
       clipPathUnits="userSpaceOnUse"
       id="clipPath2804">
      <path
         d="M 246.772,340.157 H 473.544 V 0 H 246.772 Z"
         id="path2802" />
    </clipPath>
    <clipPath
       clipPathUnits="userSpaceOnUse"
       id="clipPath2812">
      <path
         d="M 246.772,0 H 473.544 V 340.157 H 246.772 Z"
         id="path2810" />
    </clipPath>
    <clipPath
       clipPathUnits="userSpaceOnUse"
       id="clipPath2820">
      <path
         d="M 246.772,340.157 H 473.544 V 0 H 246.772 Z"
         id="path2818" />
    </clipPath>
    <clipPath
       clipPathUnits="userSpaceOnUse"
       id="clipPath2828">
      <path
         d="m 438.313,-190.079 c 0,-43.163 -34.991,-78.155 -78.155,-78.155 -43.164,0 -78.155,34.992 -78.155,78.155 0,43.164 34.991,78.155 78.155,78.155 43.164,0 78.155,-34.991 78.155,-78.155"
         id="path2826" />
    </clipPath>
    <clipPath
       clipPathUnits="userSpaceOnUse"
       id="clipPath702936">
      <path
         d="M 0,340.157 H 226.772 V 0 H 0 Z"
         id="path702934" />
    </clipPath>
    <clipPath
       clipPathUnits="userSpaceOnUse"
       id="clipPath703010">
      <path
         d="M 0,340.157 H 226.772 V 0 H 0 Z"
         id="path703008" />
    </clipPath>
    <clipPath
       clipPathUnits="userSpaceOnUse"
       id="clipPath703120">
      <path
         d="M 0,-20 H 226.772 V -360.157 H 0 Z"
         id="path703118" />
    </clipPath>
    <clipPath
       clipPathUnits="userSpaceOnUse"
       id="clipPath703128">
      <path
         d="M 0,-360.157 H 226.772 V -20 H 0 Z"
         id="path703126" />
    </clipPath>
    <clipPath
       clipPathUnits="userSpaceOnUse"
       id="clipPath703136">
      <path
         d="M 0,-20 H 226.772 V -360.157 H 0 Z"
         id="path703134" />
    </clipPath>
    <clipPath
       clipPathUnits="userSpaceOnUse"
       id="clipPath703144">
      <path
         d="m 438.313,-190.078 c 0,-43.164 -34.992,-78.155 -78.156,-78.155 -43.163,0 -78.154,34.991 -78.154,78.155 0,43.164 34.991,78.155 78.154,78.155 43.164,0 78.156,-34.991 78.156,-78.155"
         id="path703142" />
    </clipPath>
    <clipPath
       clipPathUnits="userSpaceOnUse"
       id="clipPath703160">
      <path
         d="M 246.772,-20 H 473.544 V -360.157 H 246.772 Z"
         id="path703158" />
    </clipPath>
    <clipPath
       clipPathUnits="userSpaceOnUse"
       id="clipPath703168">
      <path
         d="M 246.772,-360.157 H 473.544 V -20 H 246.772 Z"
         id="path703166" />
    </clipPath>
    <clipPath
       clipPathUnits="userSpaceOnUse"
       id="clipPath703176">
      <path
         d="m 282.002,-190.079 c 0,-43.163 34.993,-78.154 78.156,-78.154 43.164,0 78.155,34.991 78.155,78.154 0,43.164 -34.991,78.156 -78.155,78.156 -43.163,0 -78.156,-34.992 -78.156,-78.156"
         id="path703174" />
    </clipPath>
    <clipPath
       clipPathUnits="userSpaceOnUse"
       id="clipPath720772">
      <g
         id="g720776"
         transform="matrix(0.75000002,0,0,-0.75000002,-117.18415,74.879174)">
        <path
           d="M -45.430862,-131.30857 H 256.9318 V 322.23409 H -45.430862 Z"
           id="path720774"
           style="stroke-width:1.33333" />
      </g>
    </clipPath>
    <clipPath
       clipPathUnits="userSpaceOnUse"
       id="clipPath720778">
      <g
         id="g720782"
         transform="matrix(0.75000002,0,0,-0.75000002,-78.789654,69.358173)">
        <path
           d="M -45.430862,-131.30857 H 256.9318 V 322.23409 H -45.430862 Z"
           id="path720780"
           style="stroke-width:1.33333" />
      </g>
    </clipPath>
    <clipPath
       clipPathUnits="userSpaceOnUse"
       id="clipPath720784">
      <g
         id="g720788"
         transform="matrix(0.75000002,0,0,-0.75000002,34.073147,241.67557)">
        <path
           d="M -45.430862,-131.30857 H 256.9318 V 322.23409 H -45.430862 Z"
           id="path720786"
           style="stroke-width:1.33333" />
      </g>
    </clipPath>
    <clipPath
       clipPathUnits="userSpaceOnUse"
       id="clipPath703262">
      <path
         d="M -246.772,-20 H -20 v -340.157 h -226.772 z"
         id="path703260" />
    </clipPath>
    <clipPath
       clipPathUnits="userSpaceOnUse"
       id="clipPath703270">
      <path
         d="M -246.772,-360.157 H -20 V -20 h -226.772 z"
         id="path703268" />
    </clipPath>
    <clipPath
       clipPathUnits="userSpaceOnUse"
       id="clipPath703278">
      <path
         d="M -246.772,-20 H -20 v -340.157 h -226.772 z"
         id="path703276" />
    </clipPath>
    <clipPath
       clipPathUnits="userSpaceOnUse"
       id="clipPath703286">
      <path
         d="m 191.541,-190.078 c 0,-43.164 -34.992,-78.155 -78.156,-78.155 -43.163,0 -78.154,34.991 -78.154,78.155 0,43.164 34.991,78.155 78.154,78.155 43.164,0 78.156,-34.991 78.156,-78.155"
         id="path703284" />
    </clipPath>
    <clipPath
       clipPathUnits="userSpaceOnUse"
       id="clipPath703298">
      <path
         d="M 0,-20 H 226.772 V -360.157 H 0 Z"
         id="path703296" />
    </clipPath>
    <clipPath
       clipPathUnits="userSpaceOnUse"
       id="clipPath703306">
      <path
         d="M 0,-360.157 H 226.772 V -20 H 0 Z"
         id="path703304" />
    </clipPath>
    <clipPath
       clipPathUnits="userSpaceOnUse"
       id="clipPath703314">
      <path
         d="m 35.23,-190.079 c 0,-43.163 34.993,-78.154 78.156,-78.154 43.164,0 78.155,34.991 78.155,78.154 0,43.164 -34.991,78.156 -78.155,78.156 -43.163,0 -78.156,-34.992 -78.156,-78.156"
         id="path703312" />
    </clipPath>
    <clipPath
       clipPathUnits="userSpaceOnUse"
       id="clipPath721254">
      <g
         id="g721258"
         transform="matrix(0.75000002,0,0,-0.75000002,-143.46681,15.486327)">
        <path
           d="M 8.3138826,-226.73543 H 310.67654 V 226.80723 H 8.3138826 Z"
           id="path721256"
           style="stroke-width:1.33333" />
      </g>
    </clipPath>
    <clipPath
       clipPathUnits="userSpaceOnUse"
       id="clipPath721260">
      <g
         id="g721264"
         transform="matrix(0.75000002,0,0,-0.75000002,-150.19041,29.105427)">
        <path
           d="M 8.3138826,-226.73543 H 310.67654 V 226.80723 H 8.3138826 Z"
           id="path721262"
           style="stroke-width:1.33333" />
      </g>
    </clipPath>
    <clipPath
       clipPathUnits="userSpaceOnUse"
       id="clipPath721266">
      <g
         id="g721270"
         transform="matrix(0.75000002,0,0,-0.75000002,-6.2354121,170.10543)">
        <path
           d="M 8.3138826,-226.73543 H 310.67654 V 226.80723 H 8.3138826 Z"
           id="path721268"
           style="stroke-width:1.33333" />
      </g>
    </clipPath>
    <clipPath
       clipPathUnits="userSpaceOnUse"
       id="clipPath703432">
      <path
         d="M 0,340.157 H 226.772 V 0 H 0 Z"
         id="path703430" />
    </clipPath>
    <clipPath
       clipPathUnits="userSpaceOnUse"
       id="clipPath703542">
      <path
         d="M 0,340.157 H 226.772 V 0 H 0 Z"
         id="path703540" />
    </clipPath>
    <clipPath
       clipPathUnits="userSpaceOnUse"
       id="clipPath713424">
      <path
         d="M 0,340.157 H 226.772 V 0 H 0 Z"
         id="path713422" />
    </clipPath>
    <clipPath
       clipPathUnits="userSpaceOnUse"
       id="clipPath713526">
      <path
         d="M 0,340.157 H 226.772 V 0 H 0 Z"
         id="path713524" />
    </clipPath>
    <clipPath
       clipPathUnits="userSpaceOnUse"
       id="clipPath713616">
      <path
         d="M 0,340.157 H 226.772 V 0 H 0 Z"
         id="path713614" />
    </clipPath>
    <clipPath
       clipPathUnits="userSpaceOnUse"
       id="clipPath713690">
      <path
         d="M 0,340.157 H 226.772 V 0 H 0 Z"
         id="path713688" />
    </clipPath>
    <clipPath
       clipPathUnits="userSpaceOnUse"
       id="clipPath713764">
      <path
         d="M 0,340.157 H 226.772 V 0 H 0 Z"
         id="path713762" />
    </clipPath>
    <clipPath
       clipPathUnits="userSpaceOnUse"
       id="clipPath713874">
      <path
         d="M 0,340.157 H 226.772 V 0 H 0 Z"
         id="path713872" />
    </clipPath>
    <clipPath
       clipPathUnits="userSpaceOnUse"
       id="clipPath713874-3">
      <path
         d="M 0,340.157 H 226.772 V 0 H 0 Z"
         id="path713872-6" />
    </clipPath>
    <clipPath
       clipPathUnits="userSpaceOnUse"
       id="clipPath718030">
      <path
         d="M 0,340.157 H 226.772 V 0 H 0 Z"
         id="path718028" />
    </clipPath>
    <clipPath
       clipPathUnits="userSpaceOnUse"
       id="clipPath718104">
      <path
         d="M 0,340.157 H 226.772 V 0 H 0 Z"
         id="path718102" />
    </clipPath>
    <clipPath
       clipPathUnits="userSpaceOnUse"
       id="clipPath718178">
      <path
         d="M 0,340.157 H 226.772 V 0 H 0 Z"
         id="path718176" />
    </clipPath>
    <clipPath
       clipPathUnits="userSpaceOnUse"
       id="clipPath718296">
      <path
         d="M 0,340.157 H 226.772 V 0 H 0 Z"
         id="path718294" />
    </clipPath>
    <clipPath
       clipPathUnits="userSpaceOnUse"
       id="clipPath718398">
      <path
         d="M 0,340.157 H 226.772 V 0 H 0 Z"
         id="path718396" />
    </clipPath>
    <clipPath
       clipPathUnits="userSpaceOnUse"
       id="clipPath718484">
      <path
         d="M 0,340.157 H 226.772 V 0 H 0 Z"
         id="path718482" />
    </clipPath>
    <clipPath
       clipPathUnits="userSpaceOnUse"
       id="clipPath718558">
      <path
         d="M 0,340.157 H 226.772 V 0 H 0 Z"
         id="path718556" />
    </clipPath>
    <clipPath
       clipPathUnits="userSpaceOnUse"
       id="clipPath745984">
      <path
         d="M 0,340.157 H 226.772 V 0 H 0 Z"
         id="path745982" />
    </clipPath>
    <clipPath
       clipPathUnits="userSpaceOnUse"
       id="clipPath746070">
      <path
         d="M 0,340.157 H 226.772 V 0 H 0 Z"
         id="path746068" />
    </clipPath>
    <clipPath
       clipPathUnits="userSpaceOnUse"
       id="clipPath746144">
      <path
         d="M 0,340.157 H 226.772 V 0 H 0 Z"
         id="path746142" />
    </clipPath>
    <clipPath
       clipPathUnits="userSpaceOnUse"
       id="clipPath746274">
      <path
         d="M 0,340.157 H 226.772 V 0 H 0 Z"
         id="path746272" />
    </clipPath>
    <clipPath
       clipPathUnits="userSpaceOnUse"
       id="clipPath746400">
      <path
         d="M 0,340.157 H 226.772 V 0 H 0 Z"
         id="path746398" />
    </clipPath>
    <clipPath
       clipPathUnits="userSpaceOnUse"
       id="clipPath746502">
      <path
         d="M 0,340.157 H 226.772 V 0 H 0 Z"
         id="path746500" />
    </clipPath>
    <clipPath
       clipPathUnits="userSpaceOnUse"
       id="clipPath746510">
      <path
         d="M -246.772,340.157 H -20 V 0 h -226.772 z"
         id="path746508" />
    </clipPath>
    <clipPath
       clipPathUnits="userSpaceOnUse"
       id="clipPath746518">
      <path
         d="M -246.772,340.157 H -20 V 0 h -226.772 z"
         id="path746516" />
    </clipPath>
    <clipPath
       clipPathUnits="userSpaceOnUse"
       id="clipPath746616">
      <path
         d="M 0,340.157 H 226.772 V 0 H 0 Z"
         id="path746614" />
    </clipPath>
    <clipPath
       clipPathUnits="userSpaceOnUse"
       id="clipPath746694">
      <path
         d="M 0,340.157 H 226.772 V 0 H 0 Z"
         id="path746692" />
    </clipPath>
    <clipPath
       clipPathUnits="userSpaceOnUse"
       id="clipPath746780">
      <path
         d="M 0,340.157 H 226.772 V 0 H 0 Z"
         id="path746778" />
    </clipPath>
    <clipPath
       clipPathUnits="userSpaceOnUse"
       id="clipPath746858">
      <path
         d="M 0,340.157 H 226.772 V 0 H 0 Z"
         id="path746856" />
    </clipPath>
    <clipPath
       clipPathUnits="userSpaceOnUse"
       id="clipPath746936">
      <path
         d="M 0,340.157 H 226.772 V 0 H 0 Z"
         id="path746934" />
    </clipPath>
    <clipPath
       clipPathUnits="userSpaceOnUse"
       id="clipPath747022">
      <path
         d="M 0,340.157 H 226.772 V 0 H 0 Z"
         id="path747020" />
    </clipPath>
    <clipPath
       clipPathUnits="userSpaceOnUse"
       id="clipPath747112">
      <path
         d="M 0,340.157 H 226.772 V 0 H 0 Z"
         id="path747110" />
    </clipPath>
    <clipPath
       clipPathUnits="userSpaceOnUse"
       id="clipPath747198">
      <path
         d="M 0,340.157 H 226.772 V 0 H 0 Z"
         id="path747196" />
    </clipPath>
    <clipPath
       clipPathUnits="userSpaceOnUse"
       id="clipPath747284">
      <path
         d="M 0,340.157 H 226.772 V 0 H 0 Z"
         id="path747282" />
    </clipPath>
    <clipPath
       clipPathUnits="userSpaceOnUse"
       id="clipPath747366">
      <path
         d="M 0,340.157 H 226.772 V 0 H 0 Z"
         id="path747364" />
    </clipPath>
    <clipPath
       clipPathUnits="userSpaceOnUse"
       id="clipPath747448">
      <path
         d="M 0,340.157 H 226.772 V 0 H 0 Z"
         id="path747446" />
    </clipPath>
    <clipPath
       clipPathUnits="userSpaceOnUse"
       id="clipPath747530">
      <path
         d="M 0,340.157 H 226.772 V 0 H 0 Z"
         id="path747528" />
    </clipPath>
    <clipPath
       clipPathUnits="userSpaceOnUse"
       id="clipPath747616">
      <path
         d="M 0,340.157 H 226.772 V 0 H 0 Z"
         id="path747614" />
    </clipPath>
    <clipPath
       clipPathUnits="userSpaceOnUse"
       id="clipPath747694">
      <path
         d="M 0,340.157 H 226.772 V 0 H 0 Z"
         id="path747692" />
    </clipPath>
  </defs>
  <g
     id="g747688"
     transform="matrix(1.3333333,0,0,-1.3333333,-3.1597962,309.17463)">
    <g
       id="g747690"
       clip-path="url(#clipPath747694)">
      <g
         id="g747696"
         transform="translate(154.5048,160.5025)">
        <path
           d="m 0,0 c 0,-1.73 -0.997,-2.596 -2.99,-2.596 h -0.17 c -4.552,0 -7.392,1.694 -8.521,5.078 -0.715,-1.655 -1.664,-2.915 -2.849,-3.78 -1.185,-0.866 -2.492,-1.298 -3.922,-1.298 -1.769,0 -3.028,0.423 -3.78,1.27 -0.753,0.847 -1.261,1.758 -1.524,2.737 -1.354,-2.672 -3.611,-4.007 -6.771,-4.007 -2.935,0 -4.741,1.392 -5.417,4.176 -0.716,-1.204 -1.797,-2.201 -3.245,-2.991 -1.449,-0.789 -3.114,-1.185 -4.995,-1.185 -1.089,0 -1.842,0.273 -2.256,0.819 -0.414,0.545 -0.622,1.119 -0.622,1.72 0,0.715 0.227,1.327 0.678,1.834 0.451,0.508 1.185,0.762 2.2,0.762 2.746,0 4.703,0.706 5.87,2.116 1.165,1.411 1.974,3.32 2.425,5.728 l 3.613,0.169 c -0.565,-1.843 -0.847,-3.349 -0.847,-4.514 0,-0.415 0.057,-0.894 0.169,-1.439 0.113,-0.546 0.395,-1.063 0.847,-1.552 0.451,-0.489 1.146,-0.734 2.087,-0.734 0.903,0 1.73,0.188 2.483,0.565 0.752,0.376 1.411,1.101 1.975,2.173 0.565,1.071 1.035,2.604 1.411,4.598 l 3.499,0.169 V 9.706 c -0.302,-1.129 -0.452,-2.276 -0.452,-3.442 0,-2.596 0.978,-3.894 2.934,-3.894 2.897,0 4.74,3.179 5.53,9.536 l 3.386,0.282 C -9.292,11.925 -9.33,11.681 -9.367,11.455 -9.404,11.229 -9.433,10.976 -9.451,10.693 -9.471,10.411 -9.499,10.081 -9.536,9.706 -9.574,9.329 -9.593,8.973 -9.593,8.634 c 0,-1.656 0.424,-3.067 1.27,-4.233 0.846,-1.166 2.624,-1.787 5.333,-1.862 0.827,0 1.532,-0.207 2.116,-0.62 C -0.292,1.504 0,0.865 0,0 m -41.192,0 c 0,-1.73 -0.997,-2.596 -2.992,-2.596 -3.31,0 -5.859,0.884 -7.645,2.653 -1.788,1.767 -2.775,4.777 -2.963,9.028 l -1.129,29.004 4.233,0.282 1.072,-27.875 c 0.112,-2.973 0.733,-5.032 1.862,-6.18 1.128,-1.147 2.652,-1.74 4.57,-1.777 0.828,0 1.533,-0.207 2.117,-0.62 0.583,-0.415 0.875,-1.054 0.875,-1.919 m -35.28,26.07 c 0,-1.843 -0.978,-2.859 -2.933,-3.048 -0.828,0 -1.524,0.273 -2.088,0.819 -0.565,0.545 -0.847,1.288 -0.847,2.229 0,1.806 0.978,2.822 2.935,3.047 1.767,0 2.745,-1.015 2.933,-3.047 m -2.257,-37.468 c -4.213,0 -7.599,1.251 -10.157,3.752 -2.558,2.502 -3.837,5.764 -3.837,9.791 0,1.354 0.169,2.858 0.508,4.513 0.339,1.655 0.827,3.141 1.467,4.458 l 3.217,-0.564 c -0.753,-2.521 -1.129,-4.853 -1.129,-6.997 0,-3.159 1.015,-5.586 3.048,-7.28 2.031,-1.692 4.55,-2.539 7.56,-2.539 2.37,0 4.59,0.443 6.659,1.327 2.069,0.884 3.668,2.398 4.796,4.542 0.189,0.3 0.348,0.714 0.481,1.242 0.131,0.526 0.197,0.921 0.197,1.184 0,3.874 -1.637,9.085 -4.909,15.631 l 4.345,1.411 c 0.939,-1.805 1.89,-4.185 2.849,-7.138 0.959,-2.954 1.439,-6.01 1.439,-9.17 0,-0.828 -0.132,-1.787 -0.395,-2.878 -0.264,-1.091 -0.564,-1.994 -0.903,-2.708 -1.43,-2.822 -3.48,-4.956 -6.151,-6.405 -2.671,-1.448 -5.699,-2.172 -9.085,-2.172"
           style="fill:#1d1d1b;fill-opacity:1;fill-rule:nonzero;stroke:none"
           id="path747698" />
      </g>
      <g
         id="g747700"
         transform="translate(167.9579,144.3863)">
        <path
           d="m 0,0 c -3.047,-1.241 -6.075,-2.275 -9.085,-3.104 l -0.394,1.863 c 3.535,1.092 6.582,2.182 9.14,3.272 z"
           style="fill:#f91536;fill-opacity:1;fill-rule:nonzero;stroke:none"
           id="path747702" />
      </g>
      <g
         id="g747704"
         transform="translate(151.5038,157.9068)">
        <path
           d="m 0,0 c -1.129,0 -1.891,0.291 -2.286,0.875 -0.395,0.582 -0.592,1.175 -0.592,1.777 0,0.489 0.217,1.025 0.649,1.609 0.433,0.582 1.176,0.874 2.229,0.874 2.068,0 3.677,0.536 4.824,1.608 1.148,1.072 1.721,2.737 1.721,4.994 L 5.191,40.629 9.423,40.967 10.777,11.286 C 10.777,7.562 9.855,4.749 8.013,2.85 6.169,0.949 3.498,0 0,0"
           style="fill:#f91536;fill-opacity:1;fill-rule:nonzero;stroke:none"
           id="path747706" />
      </g>
    </g>
  </g>
</svg>
