<?xml version="1.0" encoding="UTF-8" standalone="no"?>
<!-- Created with Inkscape (http://www.inkscape.org/) -->

<svg
   version="1.1"
   id="svg18"
   width="300"
   height="150"
   viewBox="0 0 300.00002 150"
   sodipodi:docname="12111_word.svg"
   inkscape:version="1.2.1 (9c6d41e410, 2022-07-14)"
   xmlns:inkscape="http://www.inkscape.org/namespaces/inkscape"
   xmlns:sodipodi="http://sodipodi.sourceforge.net/DTD/sodipodi-0.dtd"
   xmlns="http://www.w3.org/2000/svg"
   xmlns:svg="http://www.w3.org/2000/svg">
  <sodipodi:namedview
     id="namedview37"
     pagecolor="#ffffff"
     bordercolor="#000000"
     borderopacity="0.25"
     inkscape:showpageshadow="2"
     inkscape:pageopacity="0.0"
     inkscape:pagecheckerboard="0"
     inkscape:deskcolor="#d1d1d1"
     showgrid="false"
     inkscape:zoom="4.0941839"
     inkscape:cx="103.43942"
     inkscape:cy="106.24828"
     inkscape:window-width="1700"
     inkscape:window-height="1396"
     inkscape:window-x="8"
     inkscape:window-y="28"
     inkscape:window-maximized="1"
     inkscape:current-layer="svg18" />
  <defs
     id="defs22">
    <clipPath
       clipPathUnits="userSpaceOnUse"
       id="clipPath2796">
      <path
         d="M 0,340.157 H 226.772 V 0 H 0 Z"
         id="path2794" />
    </clipPath>
    <clipPath
       clipPathUnits="userSpaceOnUse"
       id="clipPath2804">
      <path
         d="M 246.772,340.157 H 473.544 V 0 H 246.772 Z"
         id="path2802" />
    </clipPath>
    <clipPath
       clipPathUnits="userSpaceOnUse"
       id="clipPath2812">
      <path
         d="M 246.772,0 H 473.544 V 340.157 H 246.772 Z"
         id="path2810" />
    </clipPath>
    <clipPath
       clipPathUnits="userSpaceOnUse"
       id="clipPath2820">
      <path
         d="M 246.772,340.157 H 473.544 V 0 H 246.772 Z"
         id="path2818" />
    </clipPath>
    <clipPath
       clipPathUnits="userSpaceOnUse"
       id="clipPath2828">
      <path
         d="m 438.313,-190.079 c 0,-43.163 -34.991,-78.155 -78.155,-78.155 -43.164,0 -78.155,34.992 -78.155,78.155 0,43.164 34.991,78.155 78.155,78.155 43.164,0 78.155,-34.991 78.155,-78.155"
         id="path2826" />
    </clipPath>
    <clipPath
       clipPathUnits="userSpaceOnUse"
       id="clipPath702936">
      <path
         d="M 0,340.157 H 226.772 V 0 H 0 Z"
         id="path702934" />
    </clipPath>
    <clipPath
       clipPathUnits="userSpaceOnUse"
       id="clipPath703010">
      <path
         d="M 0,340.157 H 226.772 V 0 H 0 Z"
         id="path703008" />
    </clipPath>
    <clipPath
       clipPathUnits="userSpaceOnUse"
       id="clipPath703120">
      <path
         d="M 0,-20 H 226.772 V -360.157 H 0 Z"
         id="path703118" />
    </clipPath>
    <clipPath
       clipPathUnits="userSpaceOnUse"
       id="clipPath703128">
      <path
         d="M 0,-360.157 H 226.772 V -20 H 0 Z"
         id="path703126" />
    </clipPath>
    <clipPath
       clipPathUnits="userSpaceOnUse"
       id="clipPath703136">
      <path
         d="M 0,-20 H 226.772 V -360.157 H 0 Z"
         id="path703134" />
    </clipPath>
    <clipPath
       clipPathUnits="userSpaceOnUse"
       id="clipPath703144">
      <path
         d="m 438.313,-190.078 c 0,-43.164 -34.992,-78.155 -78.156,-78.155 -43.163,0 -78.154,34.991 -78.154,78.155 0,43.164 34.991,78.155 78.154,78.155 43.164,0 78.156,-34.991 78.156,-78.155"
         id="path703142" />
    </clipPath>
    <clipPath
       clipPathUnits="userSpaceOnUse"
       id="clipPath703160">
      <path
         d="M 246.772,-20 H 473.544 V -360.157 H 246.772 Z"
         id="path703158" />
    </clipPath>
    <clipPath
       clipPathUnits="userSpaceOnUse"
       id="clipPath703168">
      <path
         d="M 246.772,-360.157 H 473.544 V -20 H 246.772 Z"
         id="path703166" />
    </clipPath>
    <clipPath
       clipPathUnits="userSpaceOnUse"
       id="clipPath703176">
      <path
         d="m 282.002,-190.079 c 0,-43.163 34.993,-78.154 78.156,-78.154 43.164,0 78.155,34.991 78.155,78.154 0,43.164 -34.991,78.156 -78.155,78.156 -43.163,0 -78.156,-34.992 -78.156,-78.156"
         id="path703174" />
    </clipPath>
    <clipPath
       clipPathUnits="userSpaceOnUse"
       id="clipPath720772">
      <g
         id="g720776"
         transform="matrix(0.75000002,0,0,-0.75000002,-117.18415,74.879174)">
        <path
           d="M -45.430862,-131.30857 H 256.9318 V 322.23409 H -45.430862 Z"
           id="path720774"
           style="stroke-width:1.33333" />
      </g>
    </clipPath>
    <clipPath
       clipPathUnits="userSpaceOnUse"
       id="clipPath720778">
      <g
         id="g720782"
         transform="matrix(0.75000002,0,0,-0.75000002,-78.789654,69.358173)">
        <path
           d="M -45.430862,-131.30857 H 256.9318 V 322.23409 H -45.430862 Z"
           id="path720780"
           style="stroke-width:1.33333" />
      </g>
    </clipPath>
    <clipPath
       clipPathUnits="userSpaceOnUse"
       id="clipPath720784">
      <g
         id="g720788"
         transform="matrix(0.75000002,0,0,-0.75000002,34.073147,241.67557)">
        <path
           d="M -45.430862,-131.30857 H 256.9318 V 322.23409 H -45.430862 Z"
           id="path720786"
           style="stroke-width:1.33333" />
      </g>
    </clipPath>
    <clipPath
       clipPathUnits="userSpaceOnUse"
       id="clipPath703262">
      <path
         d="M -246.772,-20 H -20 v -340.157 h -226.772 z"
         id="path703260" />
    </clipPath>
    <clipPath
       clipPathUnits="userSpaceOnUse"
       id="clipPath703270">
      <path
         d="M -246.772,-360.157 H -20 V -20 h -226.772 z"
         id="path703268" />
    </clipPath>
    <clipPath
       clipPathUnits="userSpaceOnUse"
       id="clipPath703278">
      <path
         d="M -246.772,-20 H -20 v -340.157 h -226.772 z"
         id="path703276" />
    </clipPath>
    <clipPath
       clipPathUnits="userSpaceOnUse"
       id="clipPath703286">
      <path
         d="m 191.541,-190.078 c 0,-43.164 -34.992,-78.155 -78.156,-78.155 -43.163,0 -78.154,34.991 -78.154,78.155 0,43.164 34.991,78.155 78.154,78.155 43.164,0 78.156,-34.991 78.156,-78.155"
         id="path703284" />
    </clipPath>
    <clipPath
       clipPathUnits="userSpaceOnUse"
       id="clipPath703298">
      <path
         d="M 0,-20 H 226.772 V -360.157 H 0 Z"
         id="path703296" />
    </clipPath>
    <clipPath
       clipPathUnits="userSpaceOnUse"
       id="clipPath703306">
      <path
         d="M 0,-360.157 H 226.772 V -20 H 0 Z"
         id="path703304" />
    </clipPath>
    <clipPath
       clipPathUnits="userSpaceOnUse"
       id="clipPath703314">
      <path
         d="m 35.23,-190.079 c 0,-43.163 34.993,-78.154 78.156,-78.154 43.164,0 78.155,34.991 78.155,78.154 0,43.164 -34.991,78.156 -78.155,78.156 -43.163,0 -78.156,-34.992 -78.156,-78.156"
         id="path703312" />
    </clipPath>
    <clipPath
       clipPathUnits="userSpaceOnUse"
       id="clipPath721254">
      <g
         id="g721258"
         transform="matrix(0.75000002,0,0,-0.75000002,-143.46681,15.486327)">
        <path
           d="M 8.3138826,-226.73543 H 310.67654 V 226.80723 H 8.3138826 Z"
           id="path721256"
           style="stroke-width:1.33333" />
      </g>
    </clipPath>
    <clipPath
       clipPathUnits="userSpaceOnUse"
       id="clipPath721260">
      <g
         id="g721264"
         transform="matrix(0.75000002,0,0,-0.75000002,-150.19041,29.105427)">
        <path
           d="M 8.3138826,-226.73543 H 310.67654 V 226.80723 H 8.3138826 Z"
           id="path721262"
           style="stroke-width:1.33333" />
      </g>
    </clipPath>
    <clipPath
       clipPathUnits="userSpaceOnUse"
       id="clipPath721266">
      <g
         id="g721270"
         transform="matrix(0.75000002,0,0,-0.75000002,-6.2354121,170.10543)">
        <path
           d="M 8.3138826,-226.73543 H 310.67654 V 226.80723 H 8.3138826 Z"
           id="path721268"
           style="stroke-width:1.33333" />
      </g>
    </clipPath>
    <clipPath
       clipPathUnits="userSpaceOnUse"
       id="clipPath703432">
      <path
         d="M 0,340.157 H 226.772 V 0 H 0 Z"
         id="path703430" />
    </clipPath>
    <clipPath
       clipPathUnits="userSpaceOnUse"
       id="clipPath703542">
      <path
         d="M 0,340.157 H 226.772 V 0 H 0 Z"
         id="path703540" />
    </clipPath>
    <clipPath
       clipPathUnits="userSpaceOnUse"
       id="clipPath713424">
      <path
         d="M 0,340.157 H 226.772 V 0 H 0 Z"
         id="path713422" />
    </clipPath>
    <clipPath
       clipPathUnits="userSpaceOnUse"
       id="clipPath713526">
      <path
         d="M 0,340.157 H 226.772 V 0 H 0 Z"
         id="path713524" />
    </clipPath>
    <clipPath
       clipPathUnits="userSpaceOnUse"
       id="clipPath713616">
      <path
         d="M 0,340.157 H 226.772 V 0 H 0 Z"
         id="path713614" />
    </clipPath>
    <clipPath
       clipPathUnits="userSpaceOnUse"
       id="clipPath713690">
      <path
         d="M 0,340.157 H 226.772 V 0 H 0 Z"
         id="path713688" />
    </clipPath>
    <clipPath
       clipPathUnits="userSpaceOnUse"
       id="clipPath713764">
      <path
         d="M 0,340.157 H 226.772 V 0 H 0 Z"
         id="path713762" />
    </clipPath>
    <clipPath
       clipPathUnits="userSpaceOnUse"
       id="clipPath713874">
      <path
         d="M 0,340.157 H 226.772 V 0 H 0 Z"
         id="path713872" />
    </clipPath>
    <clipPath
       clipPathUnits="userSpaceOnUse"
       id="clipPath713874-3">
      <path
         d="M 0,340.157 H 226.772 V 0 H 0 Z"
         id="path713872-6" />
    </clipPath>
    <clipPath
       clipPathUnits="userSpaceOnUse"
       id="clipPath718030">
      <path
         d="M 0,340.157 H 226.772 V 0 H 0 Z"
         id="path718028" />
    </clipPath>
    <clipPath
       clipPathUnits="userSpaceOnUse"
       id="clipPath718104">
      <path
         d="M 0,340.157 H 226.772 V 0 H 0 Z"
         id="path718102" />
    </clipPath>
    <clipPath
       clipPathUnits="userSpaceOnUse"
       id="clipPath718178">
      <path
         d="M 0,340.157 H 226.772 V 0 H 0 Z"
         id="path718176" />
    </clipPath>
    <clipPath
       clipPathUnits="userSpaceOnUse"
       id="clipPath718296">
      <path
         d="M 0,340.157 H 226.772 V 0 H 0 Z"
         id="path718294" />
    </clipPath>
    <clipPath
       clipPathUnits="userSpaceOnUse"
       id="clipPath718398">
      <path
         d="M 0,340.157 H 226.772 V 0 H 0 Z"
         id="path718396" />
    </clipPath>
    <clipPath
       clipPathUnits="userSpaceOnUse"
       id="clipPath718484">
      <path
         d="M 0,340.157 H 226.772 V 0 H 0 Z"
         id="path718482" />
    </clipPath>
    <clipPath
       clipPathUnits="userSpaceOnUse"
       id="clipPath718558">
      <path
         d="M 0,340.157 H 226.772 V 0 H 0 Z"
         id="path718556" />
    </clipPath>
    <clipPath
       clipPathUnits="userSpaceOnUse"
       id="clipPath745984">
      <path
         d="M 0,340.157 H 226.772 V 0 H 0 Z"
         id="path745982" />
    </clipPath>
    <clipPath
       clipPathUnits="userSpaceOnUse"
       id="clipPath746070">
      <path
         d="M 0,340.157 H 226.772 V 0 H 0 Z"
         id="path746068" />
    </clipPath>
    <clipPath
       clipPathUnits="userSpaceOnUse"
       id="clipPath746144">
      <path
         d="M 0,340.157 H 226.772 V 0 H 0 Z"
         id="path746142" />
    </clipPath>
    <clipPath
       clipPathUnits="userSpaceOnUse"
       id="clipPath746274">
      <path
         d="M 0,340.157 H 226.772 V 0 H 0 Z"
         id="path746272" />
    </clipPath>
    <clipPath
       clipPathUnits="userSpaceOnUse"
       id="clipPath746400">
      <path
         d="M 0,340.157 H 226.772 V 0 H 0 Z"
         id="path746398" />
    </clipPath>
    <clipPath
       clipPathUnits="userSpaceOnUse"
       id="clipPath746502">
      <path
         d="M 0,340.157 H 226.772 V 0 H 0 Z"
         id="path746500" />
    </clipPath>
    <clipPath
       clipPathUnits="userSpaceOnUse"
       id="clipPath746510">
      <path
         d="M -246.772,340.157 H -20 V 0 h -226.772 z"
         id="path746508" />
    </clipPath>
    <clipPath
       clipPathUnits="userSpaceOnUse"
       id="clipPath746518">
      <path
         d="M -246.772,340.157 H -20 V 0 h -226.772 z"
         id="path746516" />
    </clipPath>
    <clipPath
       clipPathUnits="userSpaceOnUse"
       id="clipPath746616">
      <path
         d="M 0,340.157 H 226.772 V 0 H 0 Z"
         id="path746614" />
    </clipPath>
    <clipPath
       clipPathUnits="userSpaceOnUse"
       id="clipPath746694">
      <path
         d="M 0,340.157 H 226.772 V 0 H 0 Z"
         id="path746692" />
    </clipPath>
    <clipPath
       clipPathUnits="userSpaceOnUse"
       id="clipPath746780">
      <path
         d="M 0,340.157 H 226.772 V 0 H 0 Z"
         id="path746778" />
    </clipPath>
    <clipPath
       clipPathUnits="userSpaceOnUse"
       id="clipPath746858">
      <path
         d="M 0,340.157 H 226.772 V 0 H 0 Z"
         id="path746856" />
    </clipPath>
    <clipPath
       clipPathUnits="userSpaceOnUse"
       id="clipPath746936">
      <path
         d="M 0,340.157 H 226.772 V 0 H 0 Z"
         id="path746934" />
    </clipPath>
    <clipPath
       clipPathUnits="userSpaceOnUse"
       id="clipPath747022">
      <path
         d="M 0,340.157 H 226.772 V 0 H 0 Z"
         id="path747020" />
    </clipPath>
  </defs>
  <g
     id="g747016"
     transform="matrix(1.3333333,0,0,-1.3333333,-3.7155962,308.30406)">
    <g
       id="g747018"
       clip-path="url(#clipPath747022)">
      <g
         id="g747024"
         transform="translate(82.9154,128.6756)">
        <path
           d="m 0,0 c -0.828,0 -1.496,0.264 -2.004,0.79 -0.508,0.527 -0.762,1.262 -0.762,2.202 0,1.806 0.922,2.804 2.766,2.991 1.769,0 2.728,-0.996 2.879,-2.991 C 2.879,1.186 1.919,0.188 0,0 m -7.563,0 c -0.828,0 -1.515,0.264 -2.061,0.79 -0.545,0.527 -0.818,1.262 -0.818,2.202 0,1.806 0.96,2.804 2.879,2.991 0.866,0 1.562,-0.272 2.088,-0.818 0.527,-0.545 0.79,-1.27 0.79,-2.173 0,-1.806 -0.96,-2.804 -2.878,-2.992"
           style="fill:#000000;fill-opacity:1;fill-rule:nonzero;stroke:none"
           id="path747026" />
      </g>
      <g
         id="g747028"
         transform="translate(77.4965,141.3192)">
        <path
           d="m 0,0 c -3.688,0 -6.708,0.649 -9.06,1.947 -2.352,1.298 -4.083,3.076 -5.192,5.334 -1.111,2.259 -1.666,4.836 -1.666,7.734 0,1.806 0.226,3.564 0.678,5.278 0.451,1.711 0.996,3.207 1.636,4.487 l 3.162,-0.452 c -0.979,-2.635 -1.468,-5.419 -1.468,-8.353 0,-2.634 0.583,-4.76 1.75,-6.379 1.166,-1.617 2.709,-2.794 4.628,-3.528 1.92,-0.734 4.008,-1.1 6.266,-1.1 3.198,0 6.02,0.479 8.467,1.439 2.445,0.959 4.308,2.116 5.588,3.471 0.903,0.941 1.355,1.713 1.355,2.314 0,0.867 -0.622,1.58 -1.863,2.145 -1.242,0.564 -2.955,0.847 -5.137,0.847 l 1.468,5.08 h 7.902 c 0.827,0 1.533,-0.198 2.117,-0.592 0.583,-0.396 0.875,-1.026 0.875,-1.892 0,-0.564 -0.189,-1.138 -0.565,-1.721 -0.376,-0.583 -1.261,-0.875 -2.652,-0.875 0.864,-0.866 1.297,-1.919 1.297,-3.161 0,-1.504 -0.527,-2.954 -1.58,-4.346 C 16.313,5.419 13.857,3.575 10.64,2.146 7.423,0.716 3.875,0 0,0"
           style="fill:#000000;fill-opacity:1;fill-rule:nonzero;stroke:none"
           id="path747030" />
      </g>
      <g
         id="g747032"
         transform="translate(130.3285,141.3192)">
        <path
           d="m 0,0 h -1.072 c -4.102,0 -7.131,0.79 -9.087,2.371 l 0.508,3.669 c 0.564,-0.452 1.297,-0.827 2.201,-1.129 0.903,-0.301 1.815,-0.526 2.737,-0.678 0.922,-0.149 1.722,-0.244 2.4,-0.282 l 0.959,-0.112 c 2.859,0.489 5.06,1.966 6.604,4.431 1.543,2.464 2.408,5.203 2.597,8.212 -0.452,3.199 -2.089,7.395 -4.911,12.587 l 4.12,2.089 c 1.204,-2.409 2.239,-4.741 3.105,-6.999 0.714,-1.468 1.542,-2.474 2.484,-3.02 0.94,-0.546 2.031,-0.819 3.273,-0.819 0.827,0 1.533,-0.207 2.117,-0.621 0.583,-0.414 0.875,-1.053 0.875,-1.919 0,-1.73 -0.998,-2.596 -2.992,-2.596 -1.693,0 -3.029,0.319 -4.007,0.96 0,-0.978 -0.076,-1.844 -0.226,-2.597 C 11.12,10.386 9.981,7.433 8.27,4.685 6.557,1.938 3.801,0.377 0,0"
           style="fill:#000000;fill-opacity:1;fill-rule:nonzero;stroke:none"
           id="path747034" />
      </g>
      <g
         id="g747036"
         transform="translate(158.3822,206.6268)">
        <path
           d="m 0,0 0.057,0.791 c 0,0.564 -0.141,1.1 -0.424,1.608 -0.281,0.508 -0.8,0.762 -1.552,0.762 -0.377,0 -0.715,-0.122 -1.017,-0.366 -0.3,-0.246 -0.451,-0.575 -0.451,-0.988 0,-0.452 0.244,-0.867 0.735,-1.243 C -2.164,0.188 -1.448,0 -0.508,0 Z m -3.951,-4.741 c -1.054,0 -1.825,0.17 -2.314,0.508 v 1.411 c 0.714,-0.151 1.355,-0.226 1.919,-0.226 0.601,0 1.26,0.132 1.975,0.396 0.715,0.262 1.242,0.639 1.581,1.129 h -0.452 c -0.941,0 -1.778,0.244 -2.512,0.733 -0.733,0.488 -1.1,1.279 -1.1,2.371 0,0.94 0.319,1.722 0.959,2.343 0.64,0.62 1.43,0.93 2.372,0.93 0.639,0 1.326,-0.301 2.059,-0.903 0.735,-0.602 1.101,-1.599 1.101,-2.991 0,-1.844 -0.612,-3.256 -1.834,-4.233 -1.224,-0.979 -2.475,-1.468 -3.754,-1.468"
           style="fill:#f91536;fill-opacity:1;fill-rule:nonzero;stroke:none"
           id="path747038" />
      </g>
      <g
         id="g747040"
         transform="translate(149.5199,156.5027)">
        <path
           d="m 0,0 h -3.895 c -1.166,0 -1.937,0.302 -2.314,0.903 -0.375,0.602 -0.563,1.186 -0.563,1.75 0,0.413 0.197,0.932 0.591,1.553 0.396,0.62 1.158,0.931 2.286,0.931 h 4.798 c 3.011,0 5.278,0.207 6.802,0.621 1.524,0.414 2.549,0.978 3.077,1.693 0.526,0.715 0.79,1.487 0.79,2.315 0,0.903 -0.452,2.069 -1.354,3.499 -0.905,1.429 -2.466,3.152 -4.686,5.165 -2.22,2.012 -5.249,4.318 -9.088,6.915 0.076,2.181 0.32,3.744 0.734,4.684 0.15,0.301 0.903,0.847 2.258,1.638 2.446,1.467 5.475,3.076 9.087,4.826 3.614,1.749 7.263,3.245 10.952,4.487 l -0.96,-4.967 C 15.768,35.034 12.635,33.745 9.116,32.146 5.598,30.547 2.747,29.089 0.564,27.771 c 3.124,-2.408 5.551,-4.365 7.283,-5.87 2.144,-1.843 3.903,-3.782 5.277,-5.813 1.373,-2.032 2.061,-4.197 2.061,-6.491 0,-1.619 -0.368,-3.077 -1.101,-4.375 C 13.35,3.924 12.381,2.897 11.177,2.146 9.032,0.715 5.307,0 0,0"
           style="fill:#f91536;fill-opacity:1;fill-rule:nonzero;stroke:none"
           id="path747042" />
      </g>
      <g
         id="g747044"
         transform="translate(122.2016,156.5027)">
        <path
           d="M 0,0 C -3.048,0 -5.062,1.317 -6.039,3.951 -7.47,1.317 -9.708,0 -12.756,0 -15.692,0 -17.499,1.374 -18.176,4.121 -19.982,1.374 -22.748,0 -26.473,0 c -1.092,0 -1.844,0.272 -2.258,0.818 -0.415,0.546 -0.621,1.12 -0.621,1.723 0,0.714 0.226,1.326 0.677,1.834 0.452,0.508 1.186,0.762 2.202,0.762 2.746,0 4.713,0.706 5.899,2.117 1.185,1.411 1.984,3.32 2.398,5.729 l 3.613,0.169 c -0.527,-1.656 -0.791,-3.086 -0.791,-4.29 0,-2.633 1.036,-3.951 3.105,-3.951 1.505,0 2.728,0.526 3.669,1.581 0.94,1.053 1.656,2.991 2.145,5.814 l 3.556,0.169 C -2.917,12.399 -2.936,12.306 -2.936,12.192 -3.199,11.364 -3.33,10.349 -3.33,9.145 c 0,-2.786 1.278,-4.177 3.838,-4.177 1.242,0 2.276,0.404 3.104,1.214 0.827,0.808 1.242,1.852 1.242,3.131 0,0.979 -0.198,2.126 -0.592,3.444 -0.396,1.317 -0.838,2.484 -1.326,3.5 l 4.12,1.185 C 7.959,15.673 8.41,13.228 8.41,10.104 8.41,6.905 7.592,4.422 5.955,2.653 4.318,0.884 2.333,0 0,0"
           style="fill:#f91536;fill-opacity:1;fill-rule:nonzero;stroke:none"
           id="path747046" />
      </g>
    </g>
  </g>
</svg>
