<?xml version="1.0" encoding="UTF-8" standalone="no"?>
<!-- Created with Inkscape (http://www.inkscape.org/) -->

<svg
   version="1.1"
   id="svg18"
   width="300"
   height="150"
   viewBox="0 0 300.00002 150"
   sodipodi:docname="12110_word.svg"
   inkscape:version="1.2.1 (9c6d41e410, 2022-07-14)"
   xmlns:inkscape="http://www.inkscape.org/namespaces/inkscape"
   xmlns:sodipodi="http://sodipodi.sourceforge.net/DTD/sodipodi-0.dtd"
   xmlns="http://www.w3.org/2000/svg"
   xmlns:svg="http://www.w3.org/2000/svg">
  <sodipodi:namedview
     id="namedview37"
     pagecolor="#ffffff"
     bordercolor="#000000"
     borderopacity="0.25"
     inkscape:showpageshadow="2"
     inkscape:pageopacity="0.0"
     inkscape:pagecheckerboard="0"
     inkscape:deskcolor="#d1d1d1"
     showgrid="false"
     inkscape:zoom="4.0941839"
     inkscape:cx="103.43942"
     inkscape:cy="106.24828"
     inkscape:window-width="1700"
     inkscape:window-height="1396"
     inkscape:window-x="8"
     inkscape:window-y="28"
     inkscape:window-maximized="1"
     inkscape:current-layer="svg18" />
  <defs
     id="defs22">
    <clipPath
       clipPathUnits="userSpaceOnUse"
       id="clipPath2796">
      <path
         d="M 0,340.157 H 226.772 V 0 H 0 Z"
         id="path2794" />
    </clipPath>
    <clipPath
       clipPathUnits="userSpaceOnUse"
       id="clipPath2804">
      <path
         d="M 246.772,340.157 H 473.544 V 0 H 246.772 Z"
         id="path2802" />
    </clipPath>
    <clipPath
       clipPathUnits="userSpaceOnUse"
       id="clipPath2812">
      <path
         d="M 246.772,0 H 473.544 V 340.157 H 246.772 Z"
         id="path2810" />
    </clipPath>
    <clipPath
       clipPathUnits="userSpaceOnUse"
       id="clipPath2820">
      <path
         d="M 246.772,340.157 H 473.544 V 0 H 246.772 Z"
         id="path2818" />
    </clipPath>
    <clipPath
       clipPathUnits="userSpaceOnUse"
       id="clipPath2828">
      <path
         d="m 438.313,-190.079 c 0,-43.163 -34.991,-78.155 -78.155,-78.155 -43.164,0 -78.155,34.992 -78.155,78.155 0,43.164 34.991,78.155 78.155,78.155 43.164,0 78.155,-34.991 78.155,-78.155"
         id="path2826" />
    </clipPath>
    <clipPath
       clipPathUnits="userSpaceOnUse"
       id="clipPath702936">
      <path
         d="M 0,340.157 H 226.772 V 0 H 0 Z"
         id="path702934" />
    </clipPath>
    <clipPath
       clipPathUnits="userSpaceOnUse"
       id="clipPath703010">
      <path
         d="M 0,340.157 H 226.772 V 0 H 0 Z"
         id="path703008" />
    </clipPath>
    <clipPath
       clipPathUnits="userSpaceOnUse"
       id="clipPath703120">
      <path
         d="M 0,-20 H 226.772 V -360.157 H 0 Z"
         id="path703118" />
    </clipPath>
    <clipPath
       clipPathUnits="userSpaceOnUse"
       id="clipPath703128">
      <path
         d="M 0,-360.157 H 226.772 V -20 H 0 Z"
         id="path703126" />
    </clipPath>
    <clipPath
       clipPathUnits="userSpaceOnUse"
       id="clipPath703136">
      <path
         d="M 0,-20 H 226.772 V -360.157 H 0 Z"
         id="path703134" />
    </clipPath>
    <clipPath
       clipPathUnits="userSpaceOnUse"
       id="clipPath703144">
      <path
         d="m 438.313,-190.078 c 0,-43.164 -34.992,-78.155 -78.156,-78.155 -43.163,0 -78.154,34.991 -78.154,78.155 0,43.164 34.991,78.155 78.154,78.155 43.164,0 78.156,-34.991 78.156,-78.155"
         id="path703142" />
    </clipPath>
    <clipPath
       clipPathUnits="userSpaceOnUse"
       id="clipPath703160">
      <path
         d="M 246.772,-20 H 473.544 V -360.157 H 246.772 Z"
         id="path703158" />
    </clipPath>
    <clipPath
       clipPathUnits="userSpaceOnUse"
       id="clipPath703168">
      <path
         d="M 246.772,-360.157 H 473.544 V -20 H 246.772 Z"
         id="path703166" />
    </clipPath>
    <clipPath
       clipPathUnits="userSpaceOnUse"
       id="clipPath703176">
      <path
         d="m 282.002,-190.079 c 0,-43.163 34.993,-78.154 78.156,-78.154 43.164,0 78.155,34.991 78.155,78.154 0,43.164 -34.991,78.156 -78.155,78.156 -43.163,0 -78.156,-34.992 -78.156,-78.156"
         id="path703174" />
    </clipPath>
    <clipPath
       clipPathUnits="userSpaceOnUse"
       id="clipPath720772">
      <g
         id="g720776"
         transform="matrix(0.75000002,0,0,-0.75000002,-117.18415,74.879174)">
        <path
           d="M -45.430862,-131.30857 H 256.9318 V 322.23409 H -45.430862 Z"
           id="path720774"
           style="stroke-width:1.33333" />
      </g>
    </clipPath>
    <clipPath
       clipPathUnits="userSpaceOnUse"
       id="clipPath720778">
      <g
         id="g720782"
         transform="matrix(0.75000002,0,0,-0.75000002,-78.789654,69.358173)">
        <path
           d="M -45.430862,-131.30857 H 256.9318 V 322.23409 H -45.430862 Z"
           id="path720780"
           style="stroke-width:1.33333" />
      </g>
    </clipPath>
    <clipPath
       clipPathUnits="userSpaceOnUse"
       id="clipPath720784">
      <g
         id="g720788"
         transform="matrix(0.75000002,0,0,-0.75000002,34.073147,241.67557)">
        <path
           d="M -45.430862,-131.30857 H 256.9318 V 322.23409 H -45.430862 Z"
           id="path720786"
           style="stroke-width:1.33333" />
      </g>
    </clipPath>
    <clipPath
       clipPathUnits="userSpaceOnUse"
       id="clipPath703262">
      <path
         d="M -246.772,-20 H -20 v -340.157 h -226.772 z"
         id="path703260" />
    </clipPath>
    <clipPath
       clipPathUnits="userSpaceOnUse"
       id="clipPath703270">
      <path
         d="M -246.772,-360.157 H -20 V -20 h -226.772 z"
         id="path703268" />
    </clipPath>
    <clipPath
       clipPathUnits="userSpaceOnUse"
       id="clipPath703278">
      <path
         d="M -246.772,-20 H -20 v -340.157 h -226.772 z"
         id="path703276" />
    </clipPath>
    <clipPath
       clipPathUnits="userSpaceOnUse"
       id="clipPath703286">
      <path
         d="m 191.541,-190.078 c 0,-43.164 -34.992,-78.155 -78.156,-78.155 -43.163,0 -78.154,34.991 -78.154,78.155 0,43.164 34.991,78.155 78.154,78.155 43.164,0 78.156,-34.991 78.156,-78.155"
         id="path703284" />
    </clipPath>
    <clipPath
       clipPathUnits="userSpaceOnUse"
       id="clipPath703298">
      <path
         d="M 0,-20 H 226.772 V -360.157 H 0 Z"
         id="path703296" />
    </clipPath>
    <clipPath
       clipPathUnits="userSpaceOnUse"
       id="clipPath703306">
      <path
         d="M 0,-360.157 H 226.772 V -20 H 0 Z"
         id="path703304" />
    </clipPath>
    <clipPath
       clipPathUnits="userSpaceOnUse"
       id="clipPath703314">
      <path
         d="m 35.23,-190.079 c 0,-43.163 34.993,-78.154 78.156,-78.154 43.164,0 78.155,34.991 78.155,78.154 0,43.164 -34.991,78.156 -78.155,78.156 -43.163,0 -78.156,-34.992 -78.156,-78.156"
         id="path703312" />
    </clipPath>
    <clipPath
       clipPathUnits="userSpaceOnUse"
       id="clipPath721254">
      <g
         id="g721258"
         transform="matrix(0.75000002,0,0,-0.75000002,-143.46681,15.486327)">
        <path
           d="M 8.3138826,-226.73543 H 310.67654 V 226.80723 H 8.3138826 Z"
           id="path721256"
           style="stroke-width:1.33333" />
      </g>
    </clipPath>
    <clipPath
       clipPathUnits="userSpaceOnUse"
       id="clipPath721260">
      <g
         id="g721264"
         transform="matrix(0.75000002,0,0,-0.75000002,-150.19041,29.105427)">
        <path
           d="M 8.3138826,-226.73543 H 310.67654 V 226.80723 H 8.3138826 Z"
           id="path721262"
           style="stroke-width:1.33333" />
      </g>
    </clipPath>
    <clipPath
       clipPathUnits="userSpaceOnUse"
       id="clipPath721266">
      <g
         id="g721270"
         transform="matrix(0.75000002,0,0,-0.75000002,-6.2354121,170.10543)">
        <path
           d="M 8.3138826,-226.73543 H 310.67654 V 226.80723 H 8.3138826 Z"
           id="path721268"
           style="stroke-width:1.33333" />
      </g>
    </clipPath>
    <clipPath
       clipPathUnits="userSpaceOnUse"
       id="clipPath703432">
      <path
         d="M 0,340.157 H 226.772 V 0 H 0 Z"
         id="path703430" />
    </clipPath>
    <clipPath
       clipPathUnits="userSpaceOnUse"
       id="clipPath703542">
      <path
         d="M 0,340.157 H 226.772 V 0 H 0 Z"
         id="path703540" />
    </clipPath>
    <clipPath
       clipPathUnits="userSpaceOnUse"
       id="clipPath713424">
      <path
         d="M 0,340.157 H 226.772 V 0 H 0 Z"
         id="path713422" />
    </clipPath>
    <clipPath
       clipPathUnits="userSpaceOnUse"
       id="clipPath713526">
      <path
         d="M 0,340.157 H 226.772 V 0 H 0 Z"
         id="path713524" />
    </clipPath>
    <clipPath
       clipPathUnits="userSpaceOnUse"
       id="clipPath713616">
      <path
         d="M 0,340.157 H 226.772 V 0 H 0 Z"
         id="path713614" />
    </clipPath>
    <clipPath
       clipPathUnits="userSpaceOnUse"
       id="clipPath713690">
      <path
         d="M 0,340.157 H 226.772 V 0 H 0 Z"
         id="path713688" />
    </clipPath>
    <clipPath
       clipPathUnits="userSpaceOnUse"
       id="clipPath713764">
      <path
         d="M 0,340.157 H 226.772 V 0 H 0 Z"
         id="path713762" />
    </clipPath>
    <clipPath
       clipPathUnits="userSpaceOnUse"
       id="clipPath713874">
      <path
         d="M 0,340.157 H 226.772 V 0 H 0 Z"
         id="path713872" />
    </clipPath>
    <clipPath
       clipPathUnits="userSpaceOnUse"
       id="clipPath713874-3">
      <path
         d="M 0,340.157 H 226.772 V 0 H 0 Z"
         id="path713872-6" />
    </clipPath>
    <clipPath
       clipPathUnits="userSpaceOnUse"
       id="clipPath718030">
      <path
         d="M 0,340.157 H 226.772 V 0 H 0 Z"
         id="path718028" />
    </clipPath>
    <clipPath
       clipPathUnits="userSpaceOnUse"
       id="clipPath718104">
      <path
         d="M 0,340.157 H 226.772 V 0 H 0 Z"
         id="path718102" />
    </clipPath>
    <clipPath
       clipPathUnits="userSpaceOnUse"
       id="clipPath718178">
      <path
         d="M 0,340.157 H 226.772 V 0 H 0 Z"
         id="path718176" />
    </clipPath>
    <clipPath
       clipPathUnits="userSpaceOnUse"
       id="clipPath718296">
      <path
         d="M 0,340.157 H 226.772 V 0 H 0 Z"
         id="path718294" />
    </clipPath>
    <clipPath
       clipPathUnits="userSpaceOnUse"
       id="clipPath718398">
      <path
         d="M 0,340.157 H 226.772 V 0 H 0 Z"
         id="path718396" />
    </clipPath>
    <clipPath
       clipPathUnits="userSpaceOnUse"
       id="clipPath718484">
      <path
         d="M 0,340.157 H 226.772 V 0 H 0 Z"
         id="path718482" />
    </clipPath>
    <clipPath
       clipPathUnits="userSpaceOnUse"
       id="clipPath718558">
      <path
         d="M 0,340.157 H 226.772 V 0 H 0 Z"
         id="path718556" />
    </clipPath>
    <clipPath
       clipPathUnits="userSpaceOnUse"
       id="clipPath745984">
      <path
         d="M 0,340.157 H 226.772 V 0 H 0 Z"
         id="path745982" />
    </clipPath>
    <clipPath
       clipPathUnits="userSpaceOnUse"
       id="clipPath746070">
      <path
         d="M 0,340.157 H 226.772 V 0 H 0 Z"
         id="path746068" />
    </clipPath>
    <clipPath
       clipPathUnits="userSpaceOnUse"
       id="clipPath746144">
      <path
         d="M 0,340.157 H 226.772 V 0 H 0 Z"
         id="path746142" />
    </clipPath>
    <clipPath
       clipPathUnits="userSpaceOnUse"
       id="clipPath746274">
      <path
         d="M 0,340.157 H 226.772 V 0 H 0 Z"
         id="path746272" />
    </clipPath>
    <clipPath
       clipPathUnits="userSpaceOnUse"
       id="clipPath746400">
      <path
         d="M 0,340.157 H 226.772 V 0 H 0 Z"
         id="path746398" />
    </clipPath>
    <clipPath
       clipPathUnits="userSpaceOnUse"
       id="clipPath746502">
      <path
         d="M 0,340.157 H 226.772 V 0 H 0 Z"
         id="path746500" />
    </clipPath>
    <clipPath
       clipPathUnits="userSpaceOnUse"
       id="clipPath746510">
      <path
         d="M -246.772,340.157 H -20 V 0 h -226.772 z"
         id="path746508" />
    </clipPath>
    <clipPath
       clipPathUnits="userSpaceOnUse"
       id="clipPath746518">
      <path
         d="M -246.772,340.157 H -20 V 0 h -226.772 z"
         id="path746516" />
    </clipPath>
    <clipPath
       clipPathUnits="userSpaceOnUse"
       id="clipPath746616">
      <path
         d="M 0,340.157 H 226.772 V 0 H 0 Z"
         id="path746614" />
    </clipPath>
    <clipPath
       clipPathUnits="userSpaceOnUse"
       id="clipPath746694">
      <path
         d="M 0,340.157 H 226.772 V 0 H 0 Z"
         id="path746692" />
    </clipPath>
    <clipPath
       clipPathUnits="userSpaceOnUse"
       id="clipPath746780">
      <path
         d="M 0,340.157 H 226.772 V 0 H 0 Z"
         id="path746778" />
    </clipPath>
    <clipPath
       clipPathUnits="userSpaceOnUse"
       id="clipPath746858">
      <path
         d="M 0,340.157 H 226.772 V 0 H 0 Z"
         id="path746856" />
    </clipPath>
    <clipPath
       clipPathUnits="userSpaceOnUse"
       id="clipPath746936">
      <path
         d="M 0,340.157 H 226.772 V 0 H 0 Z"
         id="path746934" />
    </clipPath>
  </defs>
  <g
     id="g746930"
     transform="matrix(1.3333333,0,0,-1.3333333,-3.7079962,297.92205)">
    <g
       id="g746932"
       clip-path="url(#clipPath746936)">
      <g
         id="g746938"
         transform="translate(94.8486,138.5633)">
        <path
           d="m 0,0 c 0,-1.919 -0.979,-2.953 -2.934,-3.104 -0.828,0 -1.524,0.283 -2.088,0.847 -0.564,0.564 -0.847,1.317 -0.847,2.257 0,1.806 0.978,2.821 2.935,3.047 C -1.167,3.047 -0.188,2.031 0,0 m -6.771,9.932 c -5.907,0 -10.553,1.213 -13.938,3.639 -3.386,2.426 -5.135,6.236 -5.248,11.427 0,2.67 0.395,5.002 1.185,6.997 l 3.104,-0.564 c -0.415,-1.505 -0.621,-3.104 -0.621,-4.797 0,-7.674 5.323,-11.511 15.969,-11.511 3.235,0 6.123,0.244 8.662,0.733 2.539,0.489 4.683,1.063 6.433,1.721 1.749,0.658 3.075,1.288 3.978,1.891 -0.113,0.902 -0.17,1.692 -0.17,2.37 0,1.091 0.207,2.35 0.622,3.78 l 3.329,0.339 c -0.189,-1.016 -0.283,-2.031 -0.283,-3.047 0,-4.252 2.238,-6.452 6.715,-6.602 v -0.057 c 0.827,0 1.543,-0.197 2.145,-0.592 0.601,-0.395 0.903,-1.025 0.903,-1.89 0,-1.731 -1.016,-2.596 -3.048,-2.596 -4.251,0 -7.185,1.41 -8.802,4.232 C 11.718,13.787 8.737,12.471 5.22,11.455 1.702,10.439 -2.295,9.932 -6.771,9.932"
           style="fill:#1d1d1b;fill-opacity:1;fill-rule:nonzero;stroke:none"
           id="path746940" />
      </g>
      <g
         id="g746942"
         transform="translate(128.7734,189.575)">
        <path
           d="m 0,0 0.057,0.79 c 0,0.564 -0.141,1.1 -0.424,1.607 -0.282,0.508 -0.8,0.762 -1.551,0.762 -0.377,0 -0.715,-0.122 -1.016,-0.366 -0.302,-0.245 -0.452,-0.574 -0.452,-0.987 0,-0.452 0.244,-0.867 0.734,-1.243 C -2.164,0.187 -1.449,0 -0.508,0 Z m -3.95,-4.74 c -1.053,0 -1.825,0.169 -2.314,0.508 v 1.41 c 0.715,-0.151 1.355,-0.226 1.919,-0.226 0.601,0 1.26,0.132 1.975,0.396 0.714,0.262 1.242,0.638 1.58,1.128 h -0.451 c -0.941,0 -1.778,0.244 -2.511,0.734 -0.734,0.488 -1.101,1.278 -1.101,2.369 0,0.941 0.319,1.722 0.959,2.342 0.64,0.621 1.43,0.932 2.371,0.932 0.639,0 1.326,-0.302 2.059,-0.904 C 1.27,3.348 1.637,2.351 1.637,0.959 1.637,-0.885 1.024,-2.296 -0.197,-3.273 -1.42,-4.252 -2.671,-4.74 -3.95,-4.74"
           style="fill:#1d1d1b;fill-opacity:1;fill-rule:nonzero;stroke:none"
           id="path746944" />
      </g>
      <g
         id="g746946"
         transform="translate(133.3105,175.5242)">
        <path
           d="m 0,0 c 0,-1.844 -0.959,-2.841 -2.878,-2.991 -1.693,0 -2.615,0.996 -2.765,2.991 0,1.806 0.921,2.802 2.765,2.99 0.865,0 1.561,-0.273 2.088,-0.818 C -0.264,1.626 0,0.902 0,0 m -7.562,0 c 0,-1.844 -0.959,-2.841 -2.877,-2.991 -0.828,0 -1.515,0.262 -2.06,0.79 -0.546,0.526 -0.818,1.26 -0.818,2.201 0,1.806 0.959,2.802 2.878,2.99 0.864,0 1.56,-0.273 2.087,-0.818 0.527,-0.546 0.79,-1.27 0.79,-2.172 M 5.135,-23.192 c 0,-1.731 -0.997,-2.596 -2.991,-2.596 -2.446,0 -4.364,0.47 -5.755,1.41 -1.393,0.941 -2.37,2.351 -2.935,4.232 -1.392,-3.761 -4.458,-5.642 -9.198,-5.642 -1.918,0 -2.878,0.865 -2.878,2.596 0,0.564 0.226,1.119 0.678,1.664 0.451,0.545 1.204,0.818 2.256,0.818 2.069,0 3.649,0.376 4.741,1.129 1.091,0.752 1.871,1.777 2.342,3.075 0.469,1.298 0.78,2.775 0.931,4.43 l 3.329,0.282 c -0.076,-0.602 -0.113,-1.241 -0.113,-1.919 0,-1.166 0.169,-2.285 0.508,-3.357 0.339,-1.073 0.988,-1.938 1.947,-2.596 0.959,-0.658 2.341,-1.007 4.147,-1.044 0.827,0 1.533,-0.197 2.116,-0.592 0.583,-0.395 0.875,-1.025 0.875,-1.89"
           style="fill:#1d1d1b;fill-opacity:1;fill-rule:nonzero;stroke:none"
           id="path746948" />
      </g>
      <g
         id="g746950"
         transform="translate(153.3754,151.8807)">
        <path
           d="m 0,0 c -2.145,-1.431 -5.869,-2.145 -11.173,-2.145 h -6.715 c -1.881,0 -2.821,0.884 -2.821,2.653 0,0.526 0.197,1.072 0.592,1.636 0.395,0.564 1.138,0.846 2.229,0.846 h 7.618 c 3.009,0 5.276,0.206 6.799,0.621 1.524,0.413 2.549,0.978 3.076,1.693 0.526,0.715 0.79,1.486 0.79,2.313 0,0.904 -0.452,2.069 -1.354,3.499 -0.903,1.429 -2.465,3.151 -4.684,5.163 -2.22,2.012 -5.248,4.317 -9.085,6.912 0.075,2.182 0.319,3.744 0.733,4.684 0.15,0.301 0.904,0.847 2.258,1.637 2.445,1.467 5.473,3.075 9.085,4.824 3.611,1.75 7.259,3.245 10.947,4.486 L 7.335,33.856 C 4.589,32.878 1.458,31.59 -2.06,29.991 -5.578,28.392 -8.427,26.935 -10.609,25.618 -7.487,23.21 -5.06,21.254 -3.33,19.75 -1.185,17.906 0.573,15.969 1.947,13.938 3.319,11.906 4.006,9.742 4.006,7.448 4.006,5.83 3.64,4.373 2.906,3.075 2.172,1.777 1.204,0.752 0,0"
           style="fill:#f91536;fill-opacity:1;fill-rule:nonzero;stroke:none"
           id="path746952" />
      </g>
      <g
         id="g746954"
         transform="translate(151.0273,199.8445)">
        <path
           d="m 0,0 h -0.508 c -0.941,0 -1.656,0.187 -2.144,0.564 -0.489,0.375 -0.734,0.79 -0.734,1.242 0,0.414 0.15,0.742 0.452,0.987 0.301,0.244 0.639,0.367 1.016,0.367 0.751,0 1.269,-0.254 1.551,-0.762 C -0.084,1.891 0.057,1.354 0.057,0.79 Z m 0.536,3.95 c -0.733,0.602 -1.42,0.903 -2.059,0.903 -0.941,0 -1.731,-0.31 -2.371,-0.931 -0.64,-0.621 -0.959,-1.402 -0.959,-2.342 0,-1.092 0.367,-1.882 1.101,-2.37 0.733,-0.489 1.57,-0.733 2.511,-0.733 h 0.451 c -0.338,-0.49 -0.866,-0.867 -1.58,-1.129 -0.715,-0.264 -1.374,-0.395 -1.975,-0.395 -0.564,0 -1.204,0.074 -1.919,0.226 v -1.411 c 0.489,-0.338 1.261,-0.508 2.314,-0.508 1.279,0 2.53,0.488 3.753,1.468 1.222,0.977 1.834,2.387 1.834,4.231 0,1.392 -0.367,2.389 -1.101,2.991"
           style="fill:#f91536;fill-opacity:1;fill-rule:nonzero;stroke:none"
           id="path746956" />
      </g>
    </g>
  </g>
</svg>
