<?xml version="1.0" encoding="UTF-8" standalone="no"?>
<!-- Created with Inkscape (http://www.inkscape.org/) -->

<svg
   version="1.1"
   id="svg18"
   width="300"
   height="150"
   viewBox="0 0 300.00002 150"
   sodipodi:docname="12121_word.svg"
   inkscape:version="1.2.1 (9c6d41e410, 2022-07-14)"
   xmlns:inkscape="http://www.inkscape.org/namespaces/inkscape"
   xmlns:sodipodi="http://sodipodi.sourceforge.net/DTD/sodipodi-0.dtd"
   xmlns="http://www.w3.org/2000/svg"
   xmlns:svg="http://www.w3.org/2000/svg">
  <sodipodi:namedview
     id="namedview37"
     pagecolor="#ffffff"
     bordercolor="#000000"
     borderopacity="0.25"
     inkscape:showpageshadow="2"
     inkscape:pageopacity="0.0"
     inkscape:pagecheckerboard="0"
     inkscape:deskcolor="#d1d1d1"
     showgrid="false"
     inkscape:zoom="4.0941839"
     inkscape:cx="103.68367"
     inkscape:cy="106.24828"
     inkscape:window-width="1700"
     inkscape:window-height="1396"
     inkscape:window-x="8"
     inkscape:window-y="28"
     inkscape:window-maximized="1"
     inkscape:current-layer="svg18" />
  <defs
     id="defs22">
    <clipPath
       clipPathUnits="userSpaceOnUse"
       id="clipPath2796">
      <path
         d="M 0,340.157 H 226.772 V 0 H 0 Z"
         id="path2794" />
    </clipPath>
    <clipPath
       clipPathUnits="userSpaceOnUse"
       id="clipPath2804">
      <path
         d="M 246.772,340.157 H 473.544 V 0 H 246.772 Z"
         id="path2802" />
    </clipPath>
    <clipPath
       clipPathUnits="userSpaceOnUse"
       id="clipPath2812">
      <path
         d="M 246.772,0 H 473.544 V 340.157 H 246.772 Z"
         id="path2810" />
    </clipPath>
    <clipPath
       clipPathUnits="userSpaceOnUse"
       id="clipPath2820">
      <path
         d="M 246.772,340.157 H 473.544 V 0 H 246.772 Z"
         id="path2818" />
    </clipPath>
    <clipPath
       clipPathUnits="userSpaceOnUse"
       id="clipPath2828">
      <path
         d="m 438.313,-190.079 c 0,-43.163 -34.991,-78.155 -78.155,-78.155 -43.164,0 -78.155,34.992 -78.155,78.155 0,43.164 34.991,78.155 78.155,78.155 43.164,0 78.155,-34.991 78.155,-78.155"
         id="path2826" />
    </clipPath>
    <clipPath
       clipPathUnits="userSpaceOnUse"
       id="clipPath702936">
      <path
         d="M 0,340.157 H 226.772 V 0 H 0 Z"
         id="path702934" />
    </clipPath>
    <clipPath
       clipPathUnits="userSpaceOnUse"
       id="clipPath703010">
      <path
         d="M 0,340.157 H 226.772 V 0 H 0 Z"
         id="path703008" />
    </clipPath>
    <clipPath
       clipPathUnits="userSpaceOnUse"
       id="clipPath703120">
      <path
         d="M 0,-20 H 226.772 V -360.157 H 0 Z"
         id="path703118" />
    </clipPath>
    <clipPath
       clipPathUnits="userSpaceOnUse"
       id="clipPath703128">
      <path
         d="M 0,-360.157 H 226.772 V -20 H 0 Z"
         id="path703126" />
    </clipPath>
    <clipPath
       clipPathUnits="userSpaceOnUse"
       id="clipPath703136">
      <path
         d="M 0,-20 H 226.772 V -360.157 H 0 Z"
         id="path703134" />
    </clipPath>
    <clipPath
       clipPathUnits="userSpaceOnUse"
       id="clipPath703144">
      <path
         d="m 438.313,-190.078 c 0,-43.164 -34.992,-78.155 -78.156,-78.155 -43.163,0 -78.154,34.991 -78.154,78.155 0,43.164 34.991,78.155 78.154,78.155 43.164,0 78.156,-34.991 78.156,-78.155"
         id="path703142" />
    </clipPath>
    <clipPath
       clipPathUnits="userSpaceOnUse"
       id="clipPath703160">
      <path
         d="M 246.772,-20 H 473.544 V -360.157 H 246.772 Z"
         id="path703158" />
    </clipPath>
    <clipPath
       clipPathUnits="userSpaceOnUse"
       id="clipPath703168">
      <path
         d="M 246.772,-360.157 H 473.544 V -20 H 246.772 Z"
         id="path703166" />
    </clipPath>
    <clipPath
       clipPathUnits="userSpaceOnUse"
       id="clipPath703176">
      <path
         d="m 282.002,-190.079 c 0,-43.163 34.993,-78.154 78.156,-78.154 43.164,0 78.155,34.991 78.155,78.154 0,43.164 -34.991,78.156 -78.155,78.156 -43.163,0 -78.156,-34.992 -78.156,-78.156"
         id="path703174" />
    </clipPath>
    <clipPath
       clipPathUnits="userSpaceOnUse"
       id="clipPath720772">
      <g
         id="g720776"
         transform="matrix(0.75000002,0,0,-0.75000002,-117.18415,74.879174)">
        <path
           d="M -45.430862,-131.30857 H 256.9318 V 322.23409 H -45.430862 Z"
           id="path720774"
           style="stroke-width:1.33333" />
      </g>
    </clipPath>
    <clipPath
       clipPathUnits="userSpaceOnUse"
       id="clipPath720778">
      <g
         id="g720782"
         transform="matrix(0.75000002,0,0,-0.75000002,-78.789654,69.358173)">
        <path
           d="M -45.430862,-131.30857 H 256.9318 V 322.23409 H -45.430862 Z"
           id="path720780"
           style="stroke-width:1.33333" />
      </g>
    </clipPath>
    <clipPath
       clipPathUnits="userSpaceOnUse"
       id="clipPath720784">
      <g
         id="g720788"
         transform="matrix(0.75000002,0,0,-0.75000002,34.073147,241.67557)">
        <path
           d="M -45.430862,-131.30857 H 256.9318 V 322.23409 H -45.430862 Z"
           id="path720786"
           style="stroke-width:1.33333" />
      </g>
    </clipPath>
    <clipPath
       clipPathUnits="userSpaceOnUse"
       id="clipPath703262">
      <path
         d="M -246.772,-20 H -20 v -340.157 h -226.772 z"
         id="path703260" />
    </clipPath>
    <clipPath
       clipPathUnits="userSpaceOnUse"
       id="clipPath703270">
      <path
         d="M -246.772,-360.157 H -20 V -20 h -226.772 z"
         id="path703268" />
    </clipPath>
    <clipPath
       clipPathUnits="userSpaceOnUse"
       id="clipPath703278">
      <path
         d="M -246.772,-20 H -20 v -340.157 h -226.772 z"
         id="path703276" />
    </clipPath>
    <clipPath
       clipPathUnits="userSpaceOnUse"
       id="clipPath703286">
      <path
         d="m 191.541,-190.078 c 0,-43.164 -34.992,-78.155 -78.156,-78.155 -43.163,0 -78.154,34.991 -78.154,78.155 0,43.164 34.991,78.155 78.154,78.155 43.164,0 78.156,-34.991 78.156,-78.155"
         id="path703284" />
    </clipPath>
    <clipPath
       clipPathUnits="userSpaceOnUse"
       id="clipPath703298">
      <path
         d="M 0,-20 H 226.772 V -360.157 H 0 Z"
         id="path703296" />
    </clipPath>
    <clipPath
       clipPathUnits="userSpaceOnUse"
       id="clipPath703306">
      <path
         d="M 0,-360.157 H 226.772 V -20 H 0 Z"
         id="path703304" />
    </clipPath>
    <clipPath
       clipPathUnits="userSpaceOnUse"
       id="clipPath703314">
      <path
         d="m 35.23,-190.079 c 0,-43.163 34.993,-78.154 78.156,-78.154 43.164,0 78.155,34.991 78.155,78.154 0,43.164 -34.991,78.156 -78.155,78.156 -43.163,0 -78.156,-34.992 -78.156,-78.156"
         id="path703312" />
    </clipPath>
    <clipPath
       clipPathUnits="userSpaceOnUse"
       id="clipPath721254">
      <g
         id="g721258"
         transform="matrix(0.75000002,0,0,-0.75000002,-143.46681,15.486327)">
        <path
           d="M 8.3138826,-226.73543 H 310.67654 V 226.80723 H 8.3138826 Z"
           id="path721256"
           style="stroke-width:1.33333" />
      </g>
    </clipPath>
    <clipPath
       clipPathUnits="userSpaceOnUse"
       id="clipPath721260">
      <g
         id="g721264"
         transform="matrix(0.75000002,0,0,-0.75000002,-150.19041,29.105427)">
        <path
           d="M 8.3138826,-226.73543 H 310.67654 V 226.80723 H 8.3138826 Z"
           id="path721262"
           style="stroke-width:1.33333" />
      </g>
    </clipPath>
    <clipPath
       clipPathUnits="userSpaceOnUse"
       id="clipPath721266">
      <g
         id="g721270"
         transform="matrix(0.75000002,0,0,-0.75000002,-6.2354121,170.10543)">
        <path
           d="M 8.3138826,-226.73543 H 310.67654 V 226.80723 H 8.3138826 Z"
           id="path721268"
           style="stroke-width:1.33333" />
      </g>
    </clipPath>
    <clipPath
       clipPathUnits="userSpaceOnUse"
       id="clipPath703432">
      <path
         d="M 0,340.157 H 226.772 V 0 H 0 Z"
         id="path703430" />
    </clipPath>
    <clipPath
       clipPathUnits="userSpaceOnUse"
       id="clipPath703542">
      <path
         d="M 0,340.157 H 226.772 V 0 H 0 Z"
         id="path703540" />
    </clipPath>
    <clipPath
       clipPathUnits="userSpaceOnUse"
       id="clipPath713424">
      <path
         d="M 0,340.157 H 226.772 V 0 H 0 Z"
         id="path713422" />
    </clipPath>
    <clipPath
       clipPathUnits="userSpaceOnUse"
       id="clipPath713526">
      <path
         d="M 0,340.157 H 226.772 V 0 H 0 Z"
         id="path713524" />
    </clipPath>
    <clipPath
       clipPathUnits="userSpaceOnUse"
       id="clipPath713616">
      <path
         d="M 0,340.157 H 226.772 V 0 H 0 Z"
         id="path713614" />
    </clipPath>
    <clipPath
       clipPathUnits="userSpaceOnUse"
       id="clipPath713690">
      <path
         d="M 0,340.157 H 226.772 V 0 H 0 Z"
         id="path713688" />
    </clipPath>
    <clipPath
       clipPathUnits="userSpaceOnUse"
       id="clipPath713764">
      <path
         d="M 0,340.157 H 226.772 V 0 H 0 Z"
         id="path713762" />
    </clipPath>
    <clipPath
       clipPathUnits="userSpaceOnUse"
       id="clipPath713874">
      <path
         d="M 0,340.157 H 226.772 V 0 H 0 Z"
         id="path713872" />
    </clipPath>
    <clipPath
       clipPathUnits="userSpaceOnUse"
       id="clipPath713874-3">
      <path
         d="M 0,340.157 H 226.772 V 0 H 0 Z"
         id="path713872-6" />
    </clipPath>
    <clipPath
       clipPathUnits="userSpaceOnUse"
       id="clipPath718030">
      <path
         d="M 0,340.157 H 226.772 V 0 H 0 Z"
         id="path718028" />
    </clipPath>
    <clipPath
       clipPathUnits="userSpaceOnUse"
       id="clipPath718104">
      <path
         d="M 0,340.157 H 226.772 V 0 H 0 Z"
         id="path718102" />
    </clipPath>
    <clipPath
       clipPathUnits="userSpaceOnUse"
       id="clipPath718178">
      <path
         d="M 0,340.157 H 226.772 V 0 H 0 Z"
         id="path718176" />
    </clipPath>
    <clipPath
       clipPathUnits="userSpaceOnUse"
       id="clipPath718296">
      <path
         d="M 0,340.157 H 226.772 V 0 H 0 Z"
         id="path718294" />
    </clipPath>
    <clipPath
       clipPathUnits="userSpaceOnUse"
       id="clipPath718398">
      <path
         d="M 0,340.157 H 226.772 V 0 H 0 Z"
         id="path718396" />
    </clipPath>
    <clipPath
       clipPathUnits="userSpaceOnUse"
       id="clipPath718484">
      <path
         d="M 0,340.157 H 226.772 V 0 H 0 Z"
         id="path718482" />
    </clipPath>
    <clipPath
       clipPathUnits="userSpaceOnUse"
       id="clipPath718558">
      <path
         d="M 0,340.157 H 226.772 V 0 H 0 Z"
         id="path718556" />
    </clipPath>
    <clipPath
       clipPathUnits="userSpaceOnUse"
       id="clipPath745984">
      <path
         d="M 0,340.157 H 226.772 V 0 H 0 Z"
         id="path745982" />
    </clipPath>
    <clipPath
       clipPathUnits="userSpaceOnUse"
       id="clipPath746070">
      <path
         d="M 0,340.157 H 226.772 V 0 H 0 Z"
         id="path746068" />
    </clipPath>
    <clipPath
       clipPathUnits="userSpaceOnUse"
       id="clipPath746144">
      <path
         d="M 0,340.157 H 226.772 V 0 H 0 Z"
         id="path746142" />
    </clipPath>
    <clipPath
       clipPathUnits="userSpaceOnUse"
       id="clipPath746274">
      <path
         d="M 0,340.157 H 226.772 V 0 H 0 Z"
         id="path746272" />
    </clipPath>
    <clipPath
       clipPathUnits="userSpaceOnUse"
       id="clipPath746400">
      <path
         d="M 0,340.157 H 226.772 V 0 H 0 Z"
         id="path746398" />
    </clipPath>
    <clipPath
       clipPathUnits="userSpaceOnUse"
       id="clipPath746502">
      <path
         d="M 0,340.157 H 226.772 V 0 H 0 Z"
         id="path746500" />
    </clipPath>
    <clipPath
       clipPathUnits="userSpaceOnUse"
       id="clipPath746510">
      <path
         d="M -246.772,340.157 H -20 V 0 h -226.772 z"
         id="path746508" />
    </clipPath>
    <clipPath
       clipPathUnits="userSpaceOnUse"
       id="clipPath746518">
      <path
         d="M -246.772,340.157 H -20 V 0 h -226.772 z"
         id="path746516" />
    </clipPath>
    <clipPath
       clipPathUnits="userSpaceOnUse"
       id="clipPath746616">
      <path
         d="M 0,340.157 H 226.772 V 0 H 0 Z"
         id="path746614" />
    </clipPath>
    <clipPath
       clipPathUnits="userSpaceOnUse"
       id="clipPath746694">
      <path
         d="M 0,340.157 H 226.772 V 0 H 0 Z"
         id="path746692" />
    </clipPath>
    <clipPath
       clipPathUnits="userSpaceOnUse"
       id="clipPath746780">
      <path
         d="M 0,340.157 H 226.772 V 0 H 0 Z"
         id="path746778" />
    </clipPath>
    <clipPath
       clipPathUnits="userSpaceOnUse"
       id="clipPath746858">
      <path
         d="M 0,340.157 H 226.772 V 0 H 0 Z"
         id="path746856" />
    </clipPath>
    <clipPath
       clipPathUnits="userSpaceOnUse"
       id="clipPath746936">
      <path
         d="M 0,340.157 H 226.772 V 0 H 0 Z"
         id="path746934" />
    </clipPath>
    <clipPath
       clipPathUnits="userSpaceOnUse"
       id="clipPath747022">
      <path
         d="M 0,340.157 H 226.772 V 0 H 0 Z"
         id="path747020" />
    </clipPath>
    <clipPath
       clipPathUnits="userSpaceOnUse"
       id="clipPath747112">
      <path
         d="M 0,340.157 H 226.772 V 0 H 0 Z"
         id="path747110" />
    </clipPath>
    <clipPath
       clipPathUnits="userSpaceOnUse"
       id="clipPath747198">
      <path
         d="M 0,340.157 H 226.772 V 0 H 0 Z"
         id="path747196" />
    </clipPath>
    <clipPath
       clipPathUnits="userSpaceOnUse"
       id="clipPath747284">
      <path
         d="M 0,340.157 H 226.772 V 0 H 0 Z"
         id="path747282" />
    </clipPath>
    <clipPath
       clipPathUnits="userSpaceOnUse"
       id="clipPath747366">
      <path
         d="M 0,340.157 H 226.772 V 0 H 0 Z"
         id="path747364" />
    </clipPath>
    <clipPath
       clipPathUnits="userSpaceOnUse"
       id="clipPath747448">
      <path
         d="M 0,340.157 H 226.772 V 0 H 0 Z"
         id="path747446" />
    </clipPath>
    <clipPath
       clipPathUnits="userSpaceOnUse"
       id="clipPath747530">
      <path
         d="M 0,340.157 H 226.772 V 0 H 0 Z"
         id="path747528" />
    </clipPath>
    <clipPath
       clipPathUnits="userSpaceOnUse"
       id="clipPath747616">
      <path
         d="M 0,340.157 H 226.772 V 0 H 0 Z"
         id="path747614" />
    </clipPath>
    <clipPath
       clipPathUnits="userSpaceOnUse"
       id="clipPath747694">
      <path
         d="M 0,340.157 H 226.772 V 0 H 0 Z"
         id="path747692" />
    </clipPath>
    <clipPath
       clipPathUnits="userSpaceOnUse"
       id="clipPath747772">
      <path
         d="M 0,340.157 H 226.772 V 0 H 0 Z"
         id="path747770" />
    </clipPath>
    <clipPath
       clipPathUnits="userSpaceOnUse"
       id="clipPath747850">
      <path
         d="M 0,340.157 H 226.772 V 0 H 0 Z"
         id="path747848" />
    </clipPath>
  </defs>
  <g
     id="g747844"
     transform="matrix(1.3333333,0,0,-1.3333333,-1.1815296,312.17042)">
    <g
       id="g747846"
       clip-path="url(#clipPath747850)">
      <g
         id="g747852"
         transform="translate(107.4109,161.4508)">
        <path
           d="m 0,0 c 0,-1.731 -0.998,-2.596 -2.991,-2.596 -3.311,0 -5.86,0.883 -7.646,2.653 -1.788,1.767 -2.775,4.776 -2.963,9.028 l -1.129,29.004 4.233,0.282 1.072,-27.876 c 0.112,-2.972 0.734,-5.031 1.862,-6.179 1.128,-1.147 2.653,-1.74 4.571,-1.777 0.827,0 1.532,-0.207 2.116,-0.621 C -0.292,1.504 0,0.864 0,0 m -21.929,-23.249 c -2.031,-0.639 -4.496,-0.959 -7.392,-0.959 -4.176,0 -7.966,0.658 -11.37,1.975 -3.406,1.317 -6.104,3.264 -8.098,5.84 -1.994,2.578 -2.99,5.747 -2.99,9.508 0,2.785 0.648,5.229 1.946,7.336 1.298,2.107 2.972,3.903 5.022,5.389 2.05,1.486 4.251,2.671 6.602,3.556 2.351,0.882 4.618,1.495 6.8,1.833 l -1.806,0.677 c -1.354,0.565 -2.972,1.138 -4.852,1.721 -1.882,0.583 -3.819,0.875 -5.813,0.875 -2.933,0 -5.474,-0.489 -7.617,-1.467 l 0.959,4.853 c 0.714,0.339 1.599,0.63 2.652,0.875 1.053,0.244 2.52,0.366 4.402,0.366 2.256,0 4.476,-0.348 6.658,-1.044 2.181,-0.696 4.269,-1.458 6.264,-2.285 l 2.144,-0.847 c 2.181,-1.015 4.024,-1.523 5.53,-1.523 l 2.877,-0.057 -1.184,-4.966 c -0.904,0.114 -2.277,0.17 -4.119,0.17 -2.183,0 -4.421,-0.282 -6.715,-0.847 -2.709,-0.639 -5.192,-1.589 -7.45,-2.849 -2.256,-1.261 -4.082,-2.831 -5.473,-4.712 -1.392,-1.882 -2.088,-4.081 -2.088,-6.602 0,-2.934 0.894,-5.38 2.681,-7.336 1.786,-1.956 4.166,-3.422 7.138,-4.401 2.971,-0.978 6.226,-1.468 9.762,-1.468 2.068,0 4.533,0.264 7.393,0.79 z"
           style="fill:#1d1d1b;fill-opacity:1;fill-rule:nonzero;stroke:none"
           id="path747854" />
      </g>
      <g
         id="g747856"
         transform="translate(125.0731,161.4508)">
        <path
           d="m 0,0 c 0,-1.731 -0.997,-2.596 -2.991,-2.596 -2.446,0 -4.364,0.47 -5.756,1.41 -1.392,0.941 -2.369,2.351 -2.934,4.233 -1.392,-3.762 -4.458,-5.643 -9.198,-5.643 -1.918,0 -2.878,0.865 -2.878,2.596 0,0.564 0.226,1.119 0.678,1.664 0.451,0.545 1.204,0.818 2.257,0.818 2.068,0 3.648,0.376 4.74,1.129 1.091,0.752 1.871,1.778 2.342,3.076 0.469,1.297 0.78,2.773 0.93,4.429 l 3.33,0.282 c -0.076,-0.602 -0.113,-1.241 -0.113,-1.919 0,-1.166 0.169,-2.285 0.508,-3.357 0.338,-1.072 0.987,-1.937 1.946,-2.596 0.96,-0.658 2.342,-1.006 4.148,-1.044 0.827,0 1.533,-0.197 2.116,-0.591 C -0.292,1.495 0,0.864 0,0"
           style="fill:#f91536;fill-opacity:1;fill-rule:nonzero;stroke:none"
           id="path747858" />
      </g>
      <g
         id="g747860"
         transform="translate(112.3768,184.6432)">
        <path
           d="m 0,0 c 0,-1.844 -0.96,-2.841 -2.878,-2.991 -0.828,0 -1.515,0.262 -2.059,0.79 -0.546,0.526 -0.819,1.26 -0.819,2.201 0,1.806 0.959,2.802 2.878,2.99 0.864,0 1.561,-0.273 2.088,-0.818 C -0.264,1.626 0,0.902 0,0"
           style="fill:#f91536;fill-opacity:1;fill-rule:nonzero;stroke:none"
           id="path747862" />
      </g>
      <g
         id="g747864"
         transform="translate(119.9383,184.6432)">
        <path
           d="m 0,0 c 0,-1.844 -0.96,-2.841 -2.878,-2.991 -1.693,0 -2.615,0.996 -2.766,2.991 0,1.806 0.922,2.802 2.766,2.99 0.864,0 1.561,-0.273 2.088,-0.818 C -0.264,1.626 0,0.902 0,0"
           style="fill:#f91536;fill-opacity:1;fill-rule:nonzero;stroke:none"
           id="path747866" />
      </g>
      <g
         id="g747868"
         transform="translate(135.3201,165.6832)">
        <path
           d="m 0,0 c -3.8,1.467 -5.699,3.704 -5.699,6.715 0,1.429 0.516,2.802 1.552,4.119 1.034,1.316 2.378,1.975 4.035,1.975 1.241,0 2.387,-0.63 3.441,-1.891 C 4.382,9.657 4.909,8.182 4.909,6.489 4.909,3.479 3.273,1.315 0,0 m 14.756,-2.314 c -0.583,0.414 -1.308,0.621 -2.172,0.621 h -1.523 c -2.07,0 -4.139,0.15 -6.208,0.451 2.445,2.37 3.668,5.059 3.668,8.069 0,2.107 -0.415,3.941 -1.242,5.502 -0.828,1.561 -1.872,2.783 -3.132,3.668 -1.26,0.884 -2.51,1.326 -3.751,1.326 -1.431,0 -2.898,-0.479 -4.402,-1.439 -1.506,-0.959 -2.765,-2.257 -3.781,-3.894 -1.016,-1.636 -1.524,-3.469 -1.524,-5.501 0,-3.086 1.242,-5.7 3.725,-7.843 -2.069,-0.226 -4.628,-0.339 -7.675,-0.339 -1.128,0 -1.89,-0.311 -2.285,-0.931 -0.395,-0.621 -0.593,-1.157 -0.593,-1.608 0.077,-1.732 1.035,-2.596 2.878,-2.596 h 2.201 c 3.799,0 7.372,0.733 10.721,2.2 3.574,-1.467 7.242,-2.2 11.004,-2.2 h 1.919 c 2.031,0 3.047,0.864 3.047,2.596 0,0.864 -0.292,1.503 -0.875,1.918"
           style="fill:#1d1d1b;fill-opacity:1;fill-rule:nonzero;stroke:none"
           id="path747870" />
      </g>
      <g
         id="g747872"
         transform="translate(136.8436,193.0504)">
        <path
           d="m 0,0 c 0,-1.918 -0.997,-2.953 -2.99,-3.104 -0.828,0 -1.515,0.283 -2.06,0.847 -0.546,0.565 -0.818,1.317 -0.818,2.257 0,0.865 0.272,1.589 0.818,2.173 0.545,0.583 1.25,0.874 2.116,0.874 C -1.166,3.047 -0.188,2.031 0,0"
           style="fill:#1d1d1b;fill-opacity:1;fill-rule:nonzero;stroke:none"
           id="path747874" />
      </g>
      <g
         id="g747876"
         transform="translate(164.8543,198.0611)">
        <path
           d="m 0,0 0.057,0.79 c 0,0.564 -0.141,1.101 -0.423,1.608 -0.282,0.508 -0.8,0.762 -1.552,0.762 -0.377,0 -0.716,-0.122 -1.017,-0.366 -0.3,-0.245 -0.451,-0.574 -0.451,-0.988 0,-0.452 0.244,-0.866 0.734,-1.242 C -2.163,0.188 -1.448,0 -0.508,0 Z m -3.95,-4.739 c -1.054,0 -1.825,0.169 -2.314,0.508 v 1.41 c 0.715,-0.151 1.355,-0.226 1.919,-0.226 0.602,0 1.26,0.132 1.975,0.396 0.715,0.262 1.242,0.638 1.58,1.128 h -0.451 c -0.941,0 -1.778,0.244 -2.511,0.733 -0.734,0.489 -1.101,1.279 -1.101,2.37 0,0.941 0.32,1.722 0.959,2.342 0.64,0.621 1.43,0.932 2.371,0.932 0.639,0 1.326,-0.302 2.059,-0.904 C 1.27,3.348 1.637,2.351 1.637,0.96 1.637,-0.884 1.024,-2.295 -0.197,-3.272 -1.42,-4.251 -2.671,-4.739 -3.95,-4.739"
           style="fill:#f91536;fill-opacity:1;fill-rule:nonzero;stroke:none"
           id="path747878" />
      </g>
      <g
         id="g747880"
         transform="translate(164.9334,163.8209)">
        <path
           d="M 0,0 C 1.768,0 2.652,0.79 2.652,2.37 2.652,4.062 2.06,5.802 0.875,7.589 -0.311,9.376 -1.674,10.27 -3.217,10.27 -4.308,10.27 -5.286,9.827 -6.15,8.943 -7.017,8.06 -7.844,6.338 -8.634,3.78 -7.543,2.802 -6.207,1.927 -4.627,1.156 -3.047,0.385 -1.505,0 0,0 m -0.226,-4.966 c -3.16,0 -6.584,1.391 -10.27,4.176 -0.715,-1.468 -1.552,-2.53 -2.511,-3.189 -0.959,-0.658 -2.285,-0.987 -3.978,-0.987 -0.865,0 -1.598,0.206 -2.201,0.62 -0.601,0.414 -0.903,1.073 -0.903,1.976 0,0.601 0.218,1.175 0.65,1.721 0.432,0.545 1.251,0.818 2.454,0.818 h 0.17 c 1.278,0 2.285,0.413 3.018,1.241 0.734,0.827 1.363,2.069 1.891,3.725 1.129,3.347 2.36,5.774 3.696,7.279 1.335,1.504 3.075,2.257 5.22,2.257 1.955,0 3.611,-0.668 4.965,-2.003 C 3.329,11.332 4.373,9.695 5.106,7.759 5.841,5.82 6.207,3.968 6.207,2.2 6.207,0.093 5.587,-1.628 4.345,-2.963 3.104,-4.299 1.58,-4.966 -0.226,-4.966"
           style="fill:#f91536;fill-opacity:1;fill-rule:nonzero;stroke:none"
           id="path747882" />
      </g>
    </g>
  </g>
</svg>
