<?xml version="1.0" encoding="UTF-8" standalone="no"?>
<!-- Created with Inkscape (http://www.inkscape.org/) -->

<svg
   version="1.1"
   id="svg18"
   width="300"
   height="150"
   viewBox="0 0 300.00002 150"
   sodipodi:docname="12122_word.svg"
   inkscape:version="1.2.1 (9c6d41e410, 2022-07-14)"
   xmlns:inkscape="http://www.inkscape.org/namespaces/inkscape"
   xmlns:sodipodi="http://sodipodi.sourceforge.net/DTD/sodipodi-0.dtd"
   xmlns="http://www.w3.org/2000/svg"
   xmlns:svg="http://www.w3.org/2000/svg">
  <sodipodi:namedview
     id="namedview37"
     pagecolor="#ffffff"
     bordercolor="#000000"
     borderopacity="0.25"
     inkscape:showpageshadow="2"
     inkscape:pageopacity="0.0"
     inkscape:pagecheckerboard="0"
     inkscape:deskcolor="#d1d1d1"
     showgrid="false"
     inkscape:zoom="4.0941839"
     inkscape:cx="103.68367"
     inkscape:cy="106.24828"
     inkscape:window-width="1700"
     inkscape:window-height="1396"
     inkscape:window-x="8"
     inkscape:window-y="28"
     inkscape:window-maximized="1"
     inkscape:current-layer="svg18" />
  <defs
     id="defs22">
    <clipPath
       clipPathUnits="userSpaceOnUse"
       id="clipPath2796">
      <path
         d="M 0,340.157 H 226.772 V 0 H 0 Z"
         id="path2794" />
    </clipPath>
    <clipPath
       clipPathUnits="userSpaceOnUse"
       id="clipPath2804">
      <path
         d="M 246.772,340.157 H 473.544 V 0 H 246.772 Z"
         id="path2802" />
    </clipPath>
    <clipPath
       clipPathUnits="userSpaceOnUse"
       id="clipPath2812">
      <path
         d="M 246.772,0 H 473.544 V 340.157 H 246.772 Z"
         id="path2810" />
    </clipPath>
    <clipPath
       clipPathUnits="userSpaceOnUse"
       id="clipPath2820">
      <path
         d="M 246.772,340.157 H 473.544 V 0 H 246.772 Z"
         id="path2818" />
    </clipPath>
    <clipPath
       clipPathUnits="userSpaceOnUse"
       id="clipPath2828">
      <path
         d="m 438.313,-190.079 c 0,-43.163 -34.991,-78.155 -78.155,-78.155 -43.164,0 -78.155,34.992 -78.155,78.155 0,43.164 34.991,78.155 78.155,78.155 43.164,0 78.155,-34.991 78.155,-78.155"
         id="path2826" />
    </clipPath>
    <clipPath
       clipPathUnits="userSpaceOnUse"
       id="clipPath702936">
      <path
         d="M 0,340.157 H 226.772 V 0 H 0 Z"
         id="path702934" />
    </clipPath>
    <clipPath
       clipPathUnits="userSpaceOnUse"
       id="clipPath703010">
      <path
         d="M 0,340.157 H 226.772 V 0 H 0 Z"
         id="path703008" />
    </clipPath>
    <clipPath
       clipPathUnits="userSpaceOnUse"
       id="clipPath703120">
      <path
         d="M 0,-20 H 226.772 V -360.157 H 0 Z"
         id="path703118" />
    </clipPath>
    <clipPath
       clipPathUnits="userSpaceOnUse"
       id="clipPath703128">
      <path
         d="M 0,-360.157 H 226.772 V -20 H 0 Z"
         id="path703126" />
    </clipPath>
    <clipPath
       clipPathUnits="userSpaceOnUse"
       id="clipPath703136">
      <path
         d="M 0,-20 H 226.772 V -360.157 H 0 Z"
         id="path703134" />
    </clipPath>
    <clipPath
       clipPathUnits="userSpaceOnUse"
       id="clipPath703144">
      <path
         d="m 438.313,-190.078 c 0,-43.164 -34.992,-78.155 -78.156,-78.155 -43.163,0 -78.154,34.991 -78.154,78.155 0,43.164 34.991,78.155 78.154,78.155 43.164,0 78.156,-34.991 78.156,-78.155"
         id="path703142" />
    </clipPath>
    <clipPath
       clipPathUnits="userSpaceOnUse"
       id="clipPath703160">
      <path
         d="M 246.772,-20 H 473.544 V -360.157 H 246.772 Z"
         id="path703158" />
    </clipPath>
    <clipPath
       clipPathUnits="userSpaceOnUse"
       id="clipPath703168">
      <path
         d="M 246.772,-360.157 H 473.544 V -20 H 246.772 Z"
         id="path703166" />
    </clipPath>
    <clipPath
       clipPathUnits="userSpaceOnUse"
       id="clipPath703176">
      <path
         d="m 282.002,-190.079 c 0,-43.163 34.993,-78.154 78.156,-78.154 43.164,0 78.155,34.991 78.155,78.154 0,43.164 -34.991,78.156 -78.155,78.156 -43.163,0 -78.156,-34.992 -78.156,-78.156"
         id="path703174" />
    </clipPath>
    <clipPath
       clipPathUnits="userSpaceOnUse"
       id="clipPath720772">
      <g
         id="g720776"
         transform="matrix(0.75000002,0,0,-0.75000002,-117.18415,74.879174)">
        <path
           d="M -45.430862,-131.30857 H 256.9318 V 322.23409 H -45.430862 Z"
           id="path720774"
           style="stroke-width:1.33333" />
      </g>
    </clipPath>
    <clipPath
       clipPathUnits="userSpaceOnUse"
       id="clipPath720778">
      <g
         id="g720782"
         transform="matrix(0.75000002,0,0,-0.75000002,-78.789654,69.358173)">
        <path
           d="M -45.430862,-131.30857 H 256.9318 V 322.23409 H -45.430862 Z"
           id="path720780"
           style="stroke-width:1.33333" />
      </g>
    </clipPath>
    <clipPath
       clipPathUnits="userSpaceOnUse"
       id="clipPath720784">
      <g
         id="g720788"
         transform="matrix(0.75000002,0,0,-0.75000002,34.073147,241.67557)">
        <path
           d="M -45.430862,-131.30857 H 256.9318 V 322.23409 H -45.430862 Z"
           id="path720786"
           style="stroke-width:1.33333" />
      </g>
    </clipPath>
    <clipPath
       clipPathUnits="userSpaceOnUse"
       id="clipPath703262">
      <path
         d="M -246.772,-20 H -20 v -340.157 h -226.772 z"
         id="path703260" />
    </clipPath>
    <clipPath
       clipPathUnits="userSpaceOnUse"
       id="clipPath703270">
      <path
         d="M -246.772,-360.157 H -20 V -20 h -226.772 z"
         id="path703268" />
    </clipPath>
    <clipPath
       clipPathUnits="userSpaceOnUse"
       id="clipPath703278">
      <path
         d="M -246.772,-20 H -20 v -340.157 h -226.772 z"
         id="path703276" />
    </clipPath>
    <clipPath
       clipPathUnits="userSpaceOnUse"
       id="clipPath703286">
      <path
         d="m 191.541,-190.078 c 0,-43.164 -34.992,-78.155 -78.156,-78.155 -43.163,0 -78.154,34.991 -78.154,78.155 0,43.164 34.991,78.155 78.154,78.155 43.164,0 78.156,-34.991 78.156,-78.155"
         id="path703284" />
    </clipPath>
    <clipPath
       clipPathUnits="userSpaceOnUse"
       id="clipPath703298">
      <path
         d="M 0,-20 H 226.772 V -360.157 H 0 Z"
         id="path703296" />
    </clipPath>
    <clipPath
       clipPathUnits="userSpaceOnUse"
       id="clipPath703306">
      <path
         d="M 0,-360.157 H 226.772 V -20 H 0 Z"
         id="path703304" />
    </clipPath>
    <clipPath
       clipPathUnits="userSpaceOnUse"
       id="clipPath703314">
      <path
         d="m 35.23,-190.079 c 0,-43.163 34.993,-78.154 78.156,-78.154 43.164,0 78.155,34.991 78.155,78.154 0,43.164 -34.991,78.156 -78.155,78.156 -43.163,0 -78.156,-34.992 -78.156,-78.156"
         id="path703312" />
    </clipPath>
    <clipPath
       clipPathUnits="userSpaceOnUse"
       id="clipPath721254">
      <g
         id="g721258"
         transform="matrix(0.75000002,0,0,-0.75000002,-143.46681,15.486327)">
        <path
           d="M 8.3138826,-226.73543 H 310.67654 V 226.80723 H 8.3138826 Z"
           id="path721256"
           style="stroke-width:1.33333" />
      </g>
    </clipPath>
    <clipPath
       clipPathUnits="userSpaceOnUse"
       id="clipPath721260">
      <g
         id="g721264"
         transform="matrix(0.75000002,0,0,-0.75000002,-150.19041,29.105427)">
        <path
           d="M 8.3138826,-226.73543 H 310.67654 V 226.80723 H 8.3138826 Z"
           id="path721262"
           style="stroke-width:1.33333" />
      </g>
    </clipPath>
    <clipPath
       clipPathUnits="userSpaceOnUse"
       id="clipPath721266">
      <g
         id="g721270"
         transform="matrix(0.75000002,0,0,-0.75000002,-6.2354121,170.10543)">
        <path
           d="M 8.3138826,-226.73543 H 310.67654 V 226.80723 H 8.3138826 Z"
           id="path721268"
           style="stroke-width:1.33333" />
      </g>
    </clipPath>
    <clipPath
       clipPathUnits="userSpaceOnUse"
       id="clipPath703432">
      <path
         d="M 0,340.157 H 226.772 V 0 H 0 Z"
         id="path703430" />
    </clipPath>
    <clipPath
       clipPathUnits="userSpaceOnUse"
       id="clipPath703542">
      <path
         d="M 0,340.157 H 226.772 V 0 H 0 Z"
         id="path703540" />
    </clipPath>
    <clipPath
       clipPathUnits="userSpaceOnUse"
       id="clipPath713424">
      <path
         d="M 0,340.157 H 226.772 V 0 H 0 Z"
         id="path713422" />
    </clipPath>
    <clipPath
       clipPathUnits="userSpaceOnUse"
       id="clipPath713526">
      <path
         d="M 0,340.157 H 226.772 V 0 H 0 Z"
         id="path713524" />
    </clipPath>
    <clipPath
       clipPathUnits="userSpaceOnUse"
       id="clipPath713616">
      <path
         d="M 0,340.157 H 226.772 V 0 H 0 Z"
         id="path713614" />
    </clipPath>
    <clipPath
       clipPathUnits="userSpaceOnUse"
       id="clipPath713690">
      <path
         d="M 0,340.157 H 226.772 V 0 H 0 Z"
         id="path713688" />
    </clipPath>
    <clipPath
       clipPathUnits="userSpaceOnUse"
       id="clipPath713764">
      <path
         d="M 0,340.157 H 226.772 V 0 H 0 Z"
         id="path713762" />
    </clipPath>
    <clipPath
       clipPathUnits="userSpaceOnUse"
       id="clipPath713874">
      <path
         d="M 0,340.157 H 226.772 V 0 H 0 Z"
         id="path713872" />
    </clipPath>
    <clipPath
       clipPathUnits="userSpaceOnUse"
       id="clipPath713874-3">
      <path
         d="M 0,340.157 H 226.772 V 0 H 0 Z"
         id="path713872-6" />
    </clipPath>
    <clipPath
       clipPathUnits="userSpaceOnUse"
       id="clipPath718030">
      <path
         d="M 0,340.157 H 226.772 V 0 H 0 Z"
         id="path718028" />
    </clipPath>
    <clipPath
       clipPathUnits="userSpaceOnUse"
       id="clipPath718104">
      <path
         d="M 0,340.157 H 226.772 V 0 H 0 Z"
         id="path718102" />
    </clipPath>
    <clipPath
       clipPathUnits="userSpaceOnUse"
       id="clipPath718178">
      <path
         d="M 0,340.157 H 226.772 V 0 H 0 Z"
         id="path718176" />
    </clipPath>
    <clipPath
       clipPathUnits="userSpaceOnUse"
       id="clipPath718296">
      <path
         d="M 0,340.157 H 226.772 V 0 H 0 Z"
         id="path718294" />
    </clipPath>
    <clipPath
       clipPathUnits="userSpaceOnUse"
       id="clipPath718398">
      <path
         d="M 0,340.157 H 226.772 V 0 H 0 Z"
         id="path718396" />
    </clipPath>
    <clipPath
       clipPathUnits="userSpaceOnUse"
       id="clipPath718484">
      <path
         d="M 0,340.157 H 226.772 V 0 H 0 Z"
         id="path718482" />
    </clipPath>
    <clipPath
       clipPathUnits="userSpaceOnUse"
       id="clipPath718558">
      <path
         d="M 0,340.157 H 226.772 V 0 H 0 Z"
         id="path718556" />
    </clipPath>
    <clipPath
       clipPathUnits="userSpaceOnUse"
       id="clipPath745984">
      <path
         d="M 0,340.157 H 226.772 V 0 H 0 Z"
         id="path745982" />
    </clipPath>
    <clipPath
       clipPathUnits="userSpaceOnUse"
       id="clipPath746070">
      <path
         d="M 0,340.157 H 226.772 V 0 H 0 Z"
         id="path746068" />
    </clipPath>
    <clipPath
       clipPathUnits="userSpaceOnUse"
       id="clipPath746144">
      <path
         d="M 0,340.157 H 226.772 V 0 H 0 Z"
         id="path746142" />
    </clipPath>
    <clipPath
       clipPathUnits="userSpaceOnUse"
       id="clipPath746274">
      <path
         d="M 0,340.157 H 226.772 V 0 H 0 Z"
         id="path746272" />
    </clipPath>
    <clipPath
       clipPathUnits="userSpaceOnUse"
       id="clipPath746400">
      <path
         d="M 0,340.157 H 226.772 V 0 H 0 Z"
         id="path746398" />
    </clipPath>
    <clipPath
       clipPathUnits="userSpaceOnUse"
       id="clipPath746502">
      <path
         d="M 0,340.157 H 226.772 V 0 H 0 Z"
         id="path746500" />
    </clipPath>
    <clipPath
       clipPathUnits="userSpaceOnUse"
       id="clipPath746510">
      <path
         d="M -246.772,340.157 H -20 V 0 h -226.772 z"
         id="path746508" />
    </clipPath>
    <clipPath
       clipPathUnits="userSpaceOnUse"
       id="clipPath746518">
      <path
         d="M -246.772,340.157 H -20 V 0 h -226.772 z"
         id="path746516" />
    </clipPath>
    <clipPath
       clipPathUnits="userSpaceOnUse"
       id="clipPath746616">
      <path
         d="M 0,340.157 H 226.772 V 0 H 0 Z"
         id="path746614" />
    </clipPath>
    <clipPath
       clipPathUnits="userSpaceOnUse"
       id="clipPath746694">
      <path
         d="M 0,340.157 H 226.772 V 0 H 0 Z"
         id="path746692" />
    </clipPath>
    <clipPath
       clipPathUnits="userSpaceOnUse"
       id="clipPath746780">
      <path
         d="M 0,340.157 H 226.772 V 0 H 0 Z"
         id="path746778" />
    </clipPath>
    <clipPath
       clipPathUnits="userSpaceOnUse"
       id="clipPath746858">
      <path
         d="M 0,340.157 H 226.772 V 0 H 0 Z"
         id="path746856" />
    </clipPath>
    <clipPath
       clipPathUnits="userSpaceOnUse"
       id="clipPath746936">
      <path
         d="M 0,340.157 H 226.772 V 0 H 0 Z"
         id="path746934" />
    </clipPath>
    <clipPath
       clipPathUnits="userSpaceOnUse"
       id="clipPath747022">
      <path
         d="M 0,340.157 H 226.772 V 0 H 0 Z"
         id="path747020" />
    </clipPath>
    <clipPath
       clipPathUnits="userSpaceOnUse"
       id="clipPath747112">
      <path
         d="M 0,340.157 H 226.772 V 0 H 0 Z"
         id="path747110" />
    </clipPath>
    <clipPath
       clipPathUnits="userSpaceOnUse"
       id="clipPath747198">
      <path
         d="M 0,340.157 H 226.772 V 0 H 0 Z"
         id="path747196" />
    </clipPath>
    <clipPath
       clipPathUnits="userSpaceOnUse"
       id="clipPath747284">
      <path
         d="M 0,340.157 H 226.772 V 0 H 0 Z"
         id="path747282" />
    </clipPath>
    <clipPath
       clipPathUnits="userSpaceOnUse"
       id="clipPath747366">
      <path
         d="M 0,340.157 H 226.772 V 0 H 0 Z"
         id="path747364" />
    </clipPath>
    <clipPath
       clipPathUnits="userSpaceOnUse"
       id="clipPath747448">
      <path
         d="M 0,340.157 H 226.772 V 0 H 0 Z"
         id="path747446" />
    </clipPath>
    <clipPath
       clipPathUnits="userSpaceOnUse"
       id="clipPath747530">
      <path
         d="M 0,340.157 H 226.772 V 0 H 0 Z"
         id="path747528" />
    </clipPath>
    <clipPath
       clipPathUnits="userSpaceOnUse"
       id="clipPath747616">
      <path
         d="M 0,340.157 H 226.772 V 0 H 0 Z"
         id="path747614" />
    </clipPath>
    <clipPath
       clipPathUnits="userSpaceOnUse"
       id="clipPath747694">
      <path
         d="M 0,340.157 H 226.772 V 0 H 0 Z"
         id="path747692" />
    </clipPath>
    <clipPath
       clipPathUnits="userSpaceOnUse"
       id="clipPath747772">
      <path
         d="M 0,340.157 H 226.772 V 0 H 0 Z"
         id="path747770" />
    </clipPath>
    <clipPath
       clipPathUnits="userSpaceOnUse"
       id="clipPath747850">
      <path
         d="M 0,340.157 H 226.772 V 0 H 0 Z"
         id="path747848" />
    </clipPath>
    <clipPath
       clipPathUnits="userSpaceOnUse"
       id="clipPath747948">
      <path
         d="M 0,340.157 H 226.772 V 0 H 0 Z"
         id="path747946" />
    </clipPath>
  </defs>
  <g
     id="g747942"
     transform="matrix(1.3333333,0,0,-1.3333333,-3.3256628,312.88537)">
    <g
       id="g747944"
       clip-path="url(#clipPath747948)">
      <g
         id="g747950"
         transform="translate(154.7715,164.6898)">
        <path
           d="M 0,0 C 1.768,0 2.652,0.79 2.652,2.37 2.652,3.498 2.398,4.674 1.891,5.896 1.383,7.118 0.686,8.153 -0.197,9 -1.082,9.847 -2.088,10.27 -3.216,10.27 -4.308,10.27 -5.295,9.827 -6.179,8.943 -7.063,8.06 -7.919,6.338 -8.746,3.78 -7.656,2.802 -6.301,1.927 -4.684,1.156 -3.066,0.385 -1.505,0 0,0 m 5.474,-1.468 c -1.28,-2.333 -3.142,-3.498 -5.587,-3.498 -3.198,0 -6.678,1.392 -10.439,4.176 -0.753,-1.205 -1.618,-2.088 -2.596,-2.652 -0.978,-0.565 -2.257,-0.847 -3.837,-0.847 -0.865,0 -1.598,0.207 -2.201,0.621 -0.601,0.413 -0.902,1.053 -0.902,1.918 0,1.73 1.015,2.596 3.046,2.596 h 0.283 c 1.165,0 2.106,0.347 2.821,1.044 0.714,0.696 1.392,2.004 2.032,3.922 1.165,3.197 2.406,5.473 3.724,6.828 1.316,1.354 3.047,2.031 5.191,2.031 1.58,0 2.981,-0.471 4.204,-1.41 C 2.436,12.319 3.451,11.116 4.26,9.649 5.069,8.182 5.643,6.658 5.981,5.078 6.809,3.272 7.627,2.116 8.436,1.608 9.245,1.101 10.063,0.846 10.891,0.846 c 0.827,0 1.532,-0.207 2.116,-0.62 0.583,-0.414 0.874,-1.054 0.874,-1.919 0,-1.731 -0.997,-2.596 -2.99,-2.596 -2.257,0 -4.063,0.94 -5.417,2.821 M -14.04,-1.693 c 0,-1.731 -0.997,-2.596 -2.99,-2.596 h -0.17 c -4.552,0 -7.392,1.693 -8.52,5.079 -0.716,-1.656 -1.665,-2.916 -2.85,-3.781 -1.185,-0.865 -2.492,-1.298 -3.922,-1.298 -1.768,0 -3.029,0.424 -3.78,1.269 -0.753,0.847 -1.261,1.759 -1.524,2.738 -1.354,-2.672 -3.611,-4.007 -6.771,-4.007 -2.934,0 -4.741,1.392 -5.417,4.176 -0.716,-1.204 -1.797,-2.2 -3.245,-2.991 -1.449,-0.79 -3.113,-1.185 -4.994,-1.185 -1.091,0 -1.843,0.272 -2.257,0.818 -0.414,0.545 -0.621,1.119 -0.621,1.721 0,0.715 0.226,1.326 0.677,1.834 0.452,0.508 1.185,0.762 2.201,0.762 2.745,0 4.702,0.706 5.869,2.116 1.165,1.411 1.975,3.32 2.426,5.727 l 3.611,0.17 c -0.564,-1.843 -0.846,-3.348 -0.846,-4.514 0,-0.414 0.056,-0.894 0.169,-1.439 0.113,-0.546 0.395,-1.063 0.847,-1.552 0.451,-0.49 1.147,-0.734 2.087,-0.734 0.903,0 1.73,0.189 2.483,0.565 0.752,0.376 1.411,1.1 1.975,2.172 0.564,1.073 1.035,2.605 1.411,4.599 l 3.499,0.169 V 8.013 c -0.302,-1.129 -0.452,-2.277 -0.452,-3.443 0,-2.595 0.978,-3.893 2.935,-3.893 2.896,0 4.739,3.178 5.529,9.536 l 3.386,0.282 C -23.332,10.231 -23.37,9.987 -23.407,9.762 -23.445,9.536 -23.473,9.282 -23.491,9 c -0.02,-0.282 -0.048,-0.611 -0.085,-0.987 -0.038,-0.377 -0.056,-0.734 -0.056,-1.073 0,-1.656 0.423,-3.066 1.269,-4.232 0.847,-1.166 2.624,-1.787 5.333,-1.862 0.827,0 1.532,-0.207 2.116,-0.62 0.582,-0.414 0.874,-1.054 0.874,-1.919 m -41.192,0 c 0,-1.731 -0.998,-2.596 -2.991,-2.596 -3.311,0 -5.86,0.884 -7.647,2.652 -1.787,1.768 -2.774,4.778 -2.962,9.029 l -1.128,29.004 4.231,0.283 1.073,-27.876 c 0.113,-2.973 0.734,-5.032 1.862,-6.179 1.128,-1.148 2.652,-1.741 4.571,-1.778 0.827,0 1.532,-0.207 2.116,-0.62 0.583,-0.414 0.875,-1.054 0.875,-1.919 m -21.929,-23.248 c -2.031,-0.64 -4.496,-0.96 -7.392,-0.96 -4.176,0 -7.967,0.659 -11.371,1.975 -3.405,1.318 -6.104,3.264 -8.097,5.84 -1.995,2.577 -2.991,5.747 -2.991,9.509 0,2.784 0.649,5.228 1.947,7.336 1.298,2.105 2.971,3.902 5.022,5.388 2.05,1.486 4.251,2.671 6.602,3.555 2.351,0.884 4.618,1.495 6.8,1.834 l -1.806,0.677 c -1.354,0.564 -2.972,1.138 -4.853,1.722 -1.881,0.583 -3.818,0.874 -5.812,0.874 -2.934,0 -5.473,-0.49 -7.617,-1.467 l 0.958,4.852 c 0.715,0.339 1.599,0.63 2.653,0.875 1.053,0.244 2.52,0.368 4.401,0.368 2.258,0 4.477,-0.349 6.659,-1.044 2.181,-0.698 4.269,-1.459 6.264,-2.287 l 2.144,-0.845 c 2.181,-1.016 4.025,-1.524 5.529,-1.524 l 2.878,-0.056 -1.185,-4.966 c -0.903,0.112 -2.276,0.169 -4.119,0.169 -2.182,0 -4.421,-0.282 -6.715,-0.846 -2.708,-0.641 -5.191,-1.59 -7.448,-2.85 -2.258,-1.261 -4.082,-2.832 -5.474,-4.711 -1.392,-1.882 -2.088,-4.082 -2.088,-6.603 0,-2.935 0.894,-5.379 2.681,-7.336 1.786,-1.955 4.166,-3.423 7.138,-4.401 2.971,-0.978 6.225,-1.467 9.762,-1.467 2.068,0 4.533,0.264 7.392,0.79 z"
           style="fill:#1d1d1b;fill-opacity:1;fill-rule:nonzero;stroke:none"
           id="path747952" />
      </g>
      <g
         id="g747954"
         transform="translate(182.229,146.8802)">
        <path
           d="m 0,0 c -3.047,-1.241 -6.076,-2.275 -9.085,-3.104 l -0.395,1.863 c 3.536,1.092 6.583,2.182 9.141,3.273 z"
           style="fill:#f91536;fill-opacity:1;fill-rule:nonzero;stroke:none"
           id="path747956" />
      </g>
      <g
         id="g747958"
         transform="translate(179.5767,192.1703)">
        <path
           d="m 0,0 c 0,-1.844 -0.959,-2.841 -2.878,-2.99 -0.828,0 -1.495,0.262 -2.003,0.789 -0.508,0.526 -0.762,1.261 -0.762,2.201 0,1.806 0.922,2.802 2.765,2.99 C -1.11,2.99 -0.15,1.993 0,0 m -7.562,0 c 0,-1.844 -0.959,-2.841 -2.877,-2.99 -0.828,0 -1.515,0.262 -2.06,0.789 -0.545,0.526 -0.818,1.261 -0.818,2.201 0,1.806 0.959,2.802 2.878,2.99 0.865,0 1.561,-0.272 2.088,-0.817 C -7.825,1.627 -7.562,0.903 -7.562,0 m -3.385,-31.77 -2.878,0.057 c -0.226,0 -1.232,-0.059 -1.58,0.903 -0.288,0.799 -0.323,2.906 0.056,3.33 0.703,0.785 1.374,0.902 1.524,0.902 l 3.16,-0.057 c 4.063,0 6.715,0.433 7.957,1.299 l 0.112,0.451 c 0.15,0.489 0.226,1.073 0.226,1.749 0,0.677 -0.132,1.355 -0.395,2.032 -0.263,0.677 -0.753,1.58 -1.467,2.708 l -0.959,1.636 4.119,1.637 c 1.655,-3.085 2.483,-6.189 2.483,-9.311 0,-1.543 -0.302,-3.066 -0.903,-4.57 -0.677,-0.716 -1.806,-1.354 -3.386,-1.919 -1.58,-0.564 -4.27,-0.847 -8.069,-0.847"
           style="fill:#f91536;fill-opacity:1;fill-rule:nonzero;stroke:none"
           id="path747960" />
      </g>
    </g>
  </g>
</svg>
