<?xml version="1.0" encoding="UTF-8" standalone="no"?>
<!-- Created with Inkscape (http://www.inkscape.org/) -->

<svg
   version="1.1"
   id="svg18"
   width="300"
   height="150"
   viewBox="0 0 300.00002 150"
   sodipodi:docname="1213_word.svg"
   inkscape:version="1.2.1 (9c6d41e410, 2022-07-14)"
   xmlns:inkscape="http://www.inkscape.org/namespaces/inkscape"
   xmlns:sodipodi="http://sodipodi.sourceforge.net/DTD/sodipodi-0.dtd"
   xmlns="http://www.w3.org/2000/svg"
   xmlns:svg="http://www.w3.org/2000/svg">
  <sodipodi:namedview
     id="namedview37"
     pagecolor="#ffffff"
     bordercolor="#000000"
     borderopacity="0.25"
     inkscape:showpageshadow="2"
     inkscape:pageopacity="0.0"
     inkscape:pagecheckerboard="0"
     inkscape:deskcolor="#d1d1d1"
     showgrid="false"
     inkscape:zoom="4.0941839"
     inkscape:cx="103.43942"
     inkscape:cy="106.24828"
     inkscape:window-width="1700"
     inkscape:window-height="1396"
     inkscape:window-x="8"
     inkscape:window-y="28"
     inkscape:window-maximized="1"
     inkscape:current-layer="svg18" />
  <defs
     id="defs22">
    <clipPath
       clipPathUnits="userSpaceOnUse"
       id="clipPath2796">
      <path
         d="M 0,340.157 H 226.772 V 0 H 0 Z"
         id="path2794" />
    </clipPath>
    <clipPath
       clipPathUnits="userSpaceOnUse"
       id="clipPath2804">
      <path
         d="M 246.772,340.157 H 473.544 V 0 H 246.772 Z"
         id="path2802" />
    </clipPath>
    <clipPath
       clipPathUnits="userSpaceOnUse"
       id="clipPath2812">
      <path
         d="M 246.772,0 H 473.544 V 340.157 H 246.772 Z"
         id="path2810" />
    </clipPath>
    <clipPath
       clipPathUnits="userSpaceOnUse"
       id="clipPath2820">
      <path
         d="M 246.772,340.157 H 473.544 V 0 H 246.772 Z"
         id="path2818" />
    </clipPath>
    <clipPath
       clipPathUnits="userSpaceOnUse"
       id="clipPath2828">
      <path
         d="m 438.313,-190.079 c 0,-43.163 -34.991,-78.155 -78.155,-78.155 -43.164,0 -78.155,34.992 -78.155,78.155 0,43.164 34.991,78.155 78.155,78.155 43.164,0 78.155,-34.991 78.155,-78.155"
         id="path2826" />
    </clipPath>
    <clipPath
       clipPathUnits="userSpaceOnUse"
       id="clipPath702936">
      <path
         d="M 0,340.157 H 226.772 V 0 H 0 Z"
         id="path702934" />
    </clipPath>
    <clipPath
       clipPathUnits="userSpaceOnUse"
       id="clipPath703010">
      <path
         d="M 0,340.157 H 226.772 V 0 H 0 Z"
         id="path703008" />
    </clipPath>
    <clipPath
       clipPathUnits="userSpaceOnUse"
       id="clipPath703120">
      <path
         d="M 0,-20 H 226.772 V -360.157 H 0 Z"
         id="path703118" />
    </clipPath>
    <clipPath
       clipPathUnits="userSpaceOnUse"
       id="clipPath703128">
      <path
         d="M 0,-360.157 H 226.772 V -20 H 0 Z"
         id="path703126" />
    </clipPath>
    <clipPath
       clipPathUnits="userSpaceOnUse"
       id="clipPath703136">
      <path
         d="M 0,-20 H 226.772 V -360.157 H 0 Z"
         id="path703134" />
    </clipPath>
    <clipPath
       clipPathUnits="userSpaceOnUse"
       id="clipPath703144">
      <path
         d="m 438.313,-190.078 c 0,-43.164 -34.992,-78.155 -78.156,-78.155 -43.163,0 -78.154,34.991 -78.154,78.155 0,43.164 34.991,78.155 78.154,78.155 43.164,0 78.156,-34.991 78.156,-78.155"
         id="path703142" />
    </clipPath>
    <clipPath
       clipPathUnits="userSpaceOnUse"
       id="clipPath703160">
      <path
         d="M 246.772,-20 H 473.544 V -360.157 H 246.772 Z"
         id="path703158" />
    </clipPath>
    <clipPath
       clipPathUnits="userSpaceOnUse"
       id="clipPath703168">
      <path
         d="M 246.772,-360.157 H 473.544 V -20 H 246.772 Z"
         id="path703166" />
    </clipPath>
    <clipPath
       clipPathUnits="userSpaceOnUse"
       id="clipPath703176">
      <path
         d="m 282.002,-190.079 c 0,-43.163 34.993,-78.154 78.156,-78.154 43.164,0 78.155,34.991 78.155,78.154 0,43.164 -34.991,78.156 -78.155,78.156 -43.163,0 -78.156,-34.992 -78.156,-78.156"
         id="path703174" />
    </clipPath>
    <clipPath
       clipPathUnits="userSpaceOnUse"
       id="clipPath720772">
      <g
         id="g720776"
         transform="matrix(0.75000002,0,0,-0.75000002,-117.18415,74.879174)">
        <path
           d="M -45.430862,-131.30857 H 256.9318 V 322.23409 H -45.430862 Z"
           id="path720774"
           style="stroke-width:1.33333" />
      </g>
    </clipPath>
    <clipPath
       clipPathUnits="userSpaceOnUse"
       id="clipPath720778">
      <g
         id="g720782"
         transform="matrix(0.75000002,0,0,-0.75000002,-78.789654,69.358173)">
        <path
           d="M -45.430862,-131.30857 H 256.9318 V 322.23409 H -45.430862 Z"
           id="path720780"
           style="stroke-width:1.33333" />
      </g>
    </clipPath>
    <clipPath
       clipPathUnits="userSpaceOnUse"
       id="clipPath720784">
      <g
         id="g720788"
         transform="matrix(0.75000002,0,0,-0.75000002,34.073147,241.67557)">
        <path
           d="M -45.430862,-131.30857 H 256.9318 V 322.23409 H -45.430862 Z"
           id="path720786"
           style="stroke-width:1.33333" />
      </g>
    </clipPath>
    <clipPath
       clipPathUnits="userSpaceOnUse"
       id="clipPath703262">
      <path
         d="M -246.772,-20 H -20 v -340.157 h -226.772 z"
         id="path703260" />
    </clipPath>
    <clipPath
       clipPathUnits="userSpaceOnUse"
       id="clipPath703270">
      <path
         d="M -246.772,-360.157 H -20 V -20 h -226.772 z"
         id="path703268" />
    </clipPath>
    <clipPath
       clipPathUnits="userSpaceOnUse"
       id="clipPath703278">
      <path
         d="M -246.772,-20 H -20 v -340.157 h -226.772 z"
         id="path703276" />
    </clipPath>
    <clipPath
       clipPathUnits="userSpaceOnUse"
       id="clipPath703286">
      <path
         d="m 191.541,-190.078 c 0,-43.164 -34.992,-78.155 -78.156,-78.155 -43.163,0 -78.154,34.991 -78.154,78.155 0,43.164 34.991,78.155 78.154,78.155 43.164,0 78.156,-34.991 78.156,-78.155"
         id="path703284" />
    </clipPath>
    <clipPath
       clipPathUnits="userSpaceOnUse"
       id="clipPath703298">
      <path
         d="M 0,-20 H 226.772 V -360.157 H 0 Z"
         id="path703296" />
    </clipPath>
    <clipPath
       clipPathUnits="userSpaceOnUse"
       id="clipPath703306">
      <path
         d="M 0,-360.157 H 226.772 V -20 H 0 Z"
         id="path703304" />
    </clipPath>
    <clipPath
       clipPathUnits="userSpaceOnUse"
       id="clipPath703314">
      <path
         d="m 35.23,-190.079 c 0,-43.163 34.993,-78.154 78.156,-78.154 43.164,0 78.155,34.991 78.155,78.154 0,43.164 -34.991,78.156 -78.155,78.156 -43.163,0 -78.156,-34.992 -78.156,-78.156"
         id="path703312" />
    </clipPath>
    <clipPath
       clipPathUnits="userSpaceOnUse"
       id="clipPath721254">
      <g
         id="g721258"
         transform="matrix(0.75000002,0,0,-0.75000002,-143.46681,15.486327)">
        <path
           d="M 8.3138826,-226.73543 H 310.67654 V 226.80723 H 8.3138826 Z"
           id="path721256"
           style="stroke-width:1.33333" />
      </g>
    </clipPath>
    <clipPath
       clipPathUnits="userSpaceOnUse"
       id="clipPath721260">
      <g
         id="g721264"
         transform="matrix(0.75000002,0,0,-0.75000002,-150.19041,29.105427)">
        <path
           d="M 8.3138826,-226.73543 H 310.67654 V 226.80723 H 8.3138826 Z"
           id="path721262"
           style="stroke-width:1.33333" />
      </g>
    </clipPath>
    <clipPath
       clipPathUnits="userSpaceOnUse"
       id="clipPath721266">
      <g
         id="g721270"
         transform="matrix(0.75000002,0,0,-0.75000002,-6.2354121,170.10543)">
        <path
           d="M 8.3138826,-226.73543 H 310.67654 V 226.80723 H 8.3138826 Z"
           id="path721268"
           style="stroke-width:1.33333" />
      </g>
    </clipPath>
    <clipPath
       clipPathUnits="userSpaceOnUse"
       id="clipPath703432">
      <path
         d="M 0,340.157 H 226.772 V 0 H 0 Z"
         id="path703430" />
    </clipPath>
    <clipPath
       clipPathUnits="userSpaceOnUse"
       id="clipPath703542">
      <path
         d="M 0,340.157 H 226.772 V 0 H 0 Z"
         id="path703540" />
    </clipPath>
    <clipPath
       clipPathUnits="userSpaceOnUse"
       id="clipPath713424">
      <path
         d="M 0,340.157 H 226.772 V 0 H 0 Z"
         id="path713422" />
    </clipPath>
    <clipPath
       clipPathUnits="userSpaceOnUse"
       id="clipPath713526">
      <path
         d="M 0,340.157 H 226.772 V 0 H 0 Z"
         id="path713524" />
    </clipPath>
    <clipPath
       clipPathUnits="userSpaceOnUse"
       id="clipPath713616">
      <path
         d="M 0,340.157 H 226.772 V 0 H 0 Z"
         id="path713614" />
    </clipPath>
    <clipPath
       clipPathUnits="userSpaceOnUse"
       id="clipPath713690">
      <path
         d="M 0,340.157 H 226.772 V 0 H 0 Z"
         id="path713688" />
    </clipPath>
    <clipPath
       clipPathUnits="userSpaceOnUse"
       id="clipPath713764">
      <path
         d="M 0,340.157 H 226.772 V 0 H 0 Z"
         id="path713762" />
    </clipPath>
    <clipPath
       clipPathUnits="userSpaceOnUse"
       id="clipPath713874">
      <path
         d="M 0,340.157 H 226.772 V 0 H 0 Z"
         id="path713872" />
    </clipPath>
    <clipPath
       clipPathUnits="userSpaceOnUse"
       id="clipPath713874-3">
      <path
         d="M 0,340.157 H 226.772 V 0 H 0 Z"
         id="path713872-6" />
    </clipPath>
    <clipPath
       clipPathUnits="userSpaceOnUse"
       id="clipPath718030">
      <path
         d="M 0,340.157 H 226.772 V 0 H 0 Z"
         id="path718028" />
    </clipPath>
    <clipPath
       clipPathUnits="userSpaceOnUse"
       id="clipPath718104">
      <path
         d="M 0,340.157 H 226.772 V 0 H 0 Z"
         id="path718102" />
    </clipPath>
    <clipPath
       clipPathUnits="userSpaceOnUse"
       id="clipPath718178">
      <path
         d="M 0,340.157 H 226.772 V 0 H 0 Z"
         id="path718176" />
    </clipPath>
    <clipPath
       clipPathUnits="userSpaceOnUse"
       id="clipPath718296">
      <path
         d="M 0,340.157 H 226.772 V 0 H 0 Z"
         id="path718294" />
    </clipPath>
    <clipPath
       clipPathUnits="userSpaceOnUse"
       id="clipPath718398">
      <path
         d="M 0,340.157 H 226.772 V 0 H 0 Z"
         id="path718396" />
    </clipPath>
    <clipPath
       clipPathUnits="userSpaceOnUse"
       id="clipPath718484">
      <path
         d="M 0,340.157 H 226.772 V 0 H 0 Z"
         id="path718482" />
    </clipPath>
    <clipPath
       clipPathUnits="userSpaceOnUse"
       id="clipPath718558">
      <path
         d="M 0,340.157 H 226.772 V 0 H 0 Z"
         id="path718556" />
    </clipPath>
    <clipPath
       clipPathUnits="userSpaceOnUse"
       id="clipPath745984">
      <path
         d="M 0,340.157 H 226.772 V 0 H 0 Z"
         id="path745982" />
    </clipPath>
    <clipPath
       clipPathUnits="userSpaceOnUse"
       id="clipPath746070">
      <path
         d="M 0,340.157 H 226.772 V 0 H 0 Z"
         id="path746068" />
    </clipPath>
    <clipPath
       clipPathUnits="userSpaceOnUse"
       id="clipPath746144">
      <path
         d="M 0,340.157 H 226.772 V 0 H 0 Z"
         id="path746142" />
    </clipPath>
    <clipPath
       clipPathUnits="userSpaceOnUse"
       id="clipPath746274">
      <path
         d="M 0,340.157 H 226.772 V 0 H 0 Z"
         id="path746272" />
    </clipPath>
  </defs>
  <g
     id="g746268"
     transform="matrix(1.3333333,0,0,-1.3333333,-1.1816629,324.17007)">
    <g
       id="g746270"
       clip-path="url(#clipPath746274)">
      <g
         id="g746276"
         transform="translate(72.5375,173.1426)">
        <path
           d="m 0,0 c 0.752,0 1.373,0.282 1.862,0.847 0.489,0.564 0.734,1.316 0.734,2.257 0,1.693 -0.584,3.329 -1.75,4.909 -1.166,1.58 -2.539,2.37 -4.119,2.37 -1.092,0 -2.069,-0.451 -2.935,-1.355 C -7.073,8.126 -7.9,6.395 -8.69,3.837 -7.637,2.821 -6.302,1.928 -4.684,1.157 -3.067,0.386 -1.505,0 0,0 m -30.359,-16.025 -2.708,2.821 c 4.1,1.655 7.862,3.498 11.285,5.529 4.552,2.747 7.336,5.437 8.352,8.07 l 1.58,4.74 c 1.053,3.386 2.257,5.831 3.611,7.336 1.355,1.504 3.104,2.257 5.248,2.257 1.542,0 2.925,-0.452 4.148,-1.354 C 2.378,12.471 3.395,11.332 4.204,9.96 5.012,8.586 5.586,7.147 5.925,5.643 6.79,3.535 7.618,2.21 8.408,1.665 9.198,1.119 9.931,0.847 10.608,0.847 h 0.113 c 0.827,0 1.532,-0.199 2.116,-0.593 0.583,-0.395 0.875,-1.025 0.875,-1.891 0,-1.73 -0.997,-2.595 -2.991,-2.595 -2.333,0 -4.157,1.015 -5.473,3.047 -1.242,-2.483 -3.029,-3.724 -5.361,-3.724 -3.198,0 -6.584,1.354 -10.157,4.062 l -0.113,-0.394 c -0.376,-1.58 -1.11,-3.197 -2.201,-4.854 -1.692,-2.143 -4.223,-4.128 -7.589,-5.953 -3.368,-1.824 -6.763,-3.15 -10.186,-3.977"
           style="fill:#1d1d1b;fill-opacity:1;fill-rule:nonzero;stroke:none"
           id="path746278" />
      </g>
      <g
         id="g746280"
         transform="translate(113.4257,155.3897)">
        <path
           d="m 0,0 c -3.047,-1.241 -6.076,-2.275 -9.085,-3.104 l -0.395,1.863 c 3.535,1.092 6.583,2.182 9.141,3.273 z"
           style="fill:#f91536;fill-opacity:1;fill-rule:nonzero;stroke:none"
           id="path746282" />
      </g>
      <g
         id="g746284"
         transform="translate(127.4648,171.5059)">
        <path
           d="M 0,0 C 0,-1.73 -0.997,-2.596 -2.991,-2.596 H -3.16 c -4.552,0 -7.392,1.694 -8.521,5.079 -0.715,-1.656 -1.664,-2.916 -2.849,-3.781 -1.185,-0.865 -2.493,-1.298 -3.922,-1.298 -1.769,0 -3.028,0.424 -3.781,1.27 -0.753,0.847 -1.261,1.759 -1.523,2.737 -1.354,-2.672 -3.612,-4.007 -6.772,-4.007 -2.934,0 -4.74,1.392 -5.417,4.176 -0.715,-1.204 -1.797,-2.2 -3.244,-2.99 -1.449,-0.79 -3.114,-1.186 -4.995,-1.186 -1.09,0 -1.842,0.273 -2.256,0.819 -0.414,0.545 -0.621,1.119 -0.621,1.72 0,0.715 0.226,1.327 0.677,1.834 0.451,0.508 1.185,0.762 2.2,0.762 2.746,0 4.703,0.706 5.869,2.116 1.166,1.411 1.975,3.321 2.427,5.728 l 3.611,0.17 c -0.564,-1.844 -0.847,-3.349 -0.847,-4.515 0,-0.414 0.057,-0.893 0.17,-1.438 0.113,-0.546 0.395,-1.064 0.846,-1.552 0.452,-0.49 1.148,-0.735 2.088,-0.735 0.903,0 1.73,0.189 2.483,0.565 0.752,0.376 1.411,1.101 1.975,2.173 0.564,1.072 1.034,2.604 1.411,4.598 l 3.498,0.169 V 9.706 c -0.301,-1.129 -0.451,-2.276 -0.451,-3.442 0,-2.596 0.978,-3.894 2.934,-3.894 2.897,0 4.74,3.179 5.53,9.536 l 3.386,0.282 C -9.292,11.925 -9.33,11.681 -9.367,11.455 -9.405,11.229 -9.433,10.976 -9.452,10.693 -9.471,10.411 -9.499,10.082 -9.536,9.706 -9.574,9.329 -9.593,8.973 -9.593,8.634 c 0,-1.656 0.424,-3.067 1.27,-4.233 0.846,-1.166 2.624,-1.787 5.332,-1.862 0.827,0 1.533,-0.207 2.116,-0.62 C -0.292,1.505 0,0.865 0,0"
           style="fill:#f91536;fill-opacity:1;fill-rule:nonzero;stroke:none"
           id="path746286" />
      </g>
      <g
         id="g746288"
         transform="translate(141.5048,173.1992)">
        <path
           d="m 0,0 c -1.505,0 -3.066,0.385 -4.684,1.156 -1.618,0.771 -2.972,1.646 -4.063,2.624 0.828,2.558 1.684,4.28 2.568,5.163 0.884,0.884 1.871,1.327 2.963,1.327 1.128,0 2.134,-0.423 3.018,-1.27 C 0.686,8.153 1.382,7.118 1.89,5.896 2.398,4.674 2.652,3.498 2.652,2.37 2.652,0.79 1.768,0 0,0 m 13.007,0.226 c -0.584,0.413 -1.289,0.62 -2.116,0.62 -0.828,0 -1.646,0.254 -2.455,0.762 -0.81,0.508 -1.627,1.664 -2.455,3.47 -0.338,1.58 -0.912,3.104 -1.721,4.571 -0.809,1.467 -1.825,2.67 -3.047,3.612 -1.223,0.939 -2.624,1.41 -4.204,1.41 -2.144,0 -3.875,-0.677 -5.191,-2.031 -1.318,-1.355 -2.559,-3.631 -3.725,-6.828 -0.64,-1.918 -1.317,-3.226 -2.031,-3.922 -0.715,-0.697 -1.656,-1.044 -2.821,-1.044 h -0.283 c -2.031,0 -3.047,-0.866 -3.047,-2.596 0,-0.865 0.302,-1.505 0.903,-1.918 0.603,-0.415 1.336,-0.621 2.201,-0.621 1.58,0 2.859,0.282 3.837,0.847 0.978,0.564 1.843,1.447 2.596,2.652 3.761,-2.784 7.241,-4.176 10.439,-4.176 2.445,0 4.307,1.165 5.587,3.498 1.354,-1.881 3.159,-2.821 5.417,-2.821 1.993,0 2.99,0.865 2.99,2.596 0,0.865 -0.292,1.504 -0.874,1.919"
           style="fill:#1d1d1b;fill-opacity:1;fill-rule:nonzero;stroke:none"
           id="path746290" />
      </g>
      <g
         id="g746292"
         transform="translate(182.6293,155.3897)">
        <path
           d="m 0,0 c -3.047,-1.241 -6.076,-2.275 -9.085,-3.104 l -0.395,1.863 c 3.536,1.092 6.583,2.182 9.142,3.273 z"
           style="fill:#f91536;fill-opacity:1;fill-rule:nonzero;stroke:none"
           id="path746294" />
      </g>
      <g
         id="g746296"
         transform="translate(178.894,168.9102)">
        <path
           d="M 0,0 C -3.047,0 -5.06,1.316 -6.038,3.95 -7.468,1.316 -9.706,0 -12.753,0 -15.687,0 -17.493,1.373 -18.17,4.119 -19.976,1.373 -22.741,0 -26.465,0 c -1.091,0 -1.843,0.272 -2.257,0.818 -0.414,0.545 -0.621,1.119 -0.621,1.721 0,0.715 0.226,1.326 0.677,1.834 0.452,0.508 1.185,0.762 2.201,0.762 2.746,0 4.712,0.706 5.897,2.116 1.185,1.411 1.984,3.32 2.398,5.728 l 3.611,0.169 c -0.527,-1.656 -0.79,-3.085 -0.79,-4.289 0,-2.633 1.035,-3.95 3.104,-3.95 1.504,0 2.727,0.527 3.668,1.58 0.94,1.053 1.655,2.991 2.144,5.813 l 3.555,0.169 c -0.038,-0.075 -0.057,-0.169 -0.057,-0.283 -0.263,-0.827 -0.394,-1.843 -0.394,-3.046 0,-2.785 1.278,-4.176 3.837,-4.176 1.241,0 2.276,0.404 3.103,1.213 0.827,0.808 1.242,1.852 1.242,3.132 0,0.978 -0.198,2.125 -0.593,3.442 -0.395,1.316 -0.837,2.483 -1.326,3.499 l 4.12,1.185 C 7.957,15.668 8.408,13.223 8.408,10.101 8.408,6.903 7.589,4.42 5.953,2.652 4.317,0.884 2.332,0 0,0"
           style="fill:#f91536;fill-opacity:1;fill-rule:nonzero;stroke:none"
           id="path746298" />
      </g>
    </g>
  </g>
</svg>
