<?xml version="1.0" encoding="UTF-8" standalone="no"?>
<!-- Created with Inkscape (http://www.inkscape.org/) -->

<svg
   version="1.1"
   id="svg18"
   width="300"
   height="150"
   viewBox="0 0 300.00002 150"
   sodipodi:docname="1214_word.svg"
   inkscape:version="1.2.1 (9c6d41e410, 2022-07-14)"
   xmlns:inkscape="http://www.inkscape.org/namespaces/inkscape"
   xmlns:sodipodi="http://sodipodi.sourceforge.net/DTD/sodipodi-0.dtd"
   xmlns="http://www.w3.org/2000/svg"
   xmlns:svg="http://www.w3.org/2000/svg">
  <sodipodi:namedview
     id="namedview37"
     pagecolor="#ffffff"
     bordercolor="#000000"
     borderopacity="0.25"
     inkscape:showpageshadow="2"
     inkscape:pageopacity="0.0"
     inkscape:pagecheckerboard="0"
     inkscape:deskcolor="#d1d1d1"
     showgrid="false"
     inkscape:zoom="4.0941839"
     inkscape:cx="103.43942"
     inkscape:cy="106.24828"
     inkscape:window-width="1700"
     inkscape:window-height="1396"
     inkscape:window-x="8"
     inkscape:window-y="28"
     inkscape:window-maximized="1"
     inkscape:current-layer="svg18" />
  <defs
     id="defs22">
    <clipPath
       clipPathUnits="userSpaceOnUse"
       id="clipPath2796">
      <path
         d="M 0,340.157 H 226.772 V 0 H 0 Z"
         id="path2794" />
    </clipPath>
    <clipPath
       clipPathUnits="userSpaceOnUse"
       id="clipPath2804">
      <path
         d="M 246.772,340.157 H 473.544 V 0 H 246.772 Z"
         id="path2802" />
    </clipPath>
    <clipPath
       clipPathUnits="userSpaceOnUse"
       id="clipPath2812">
      <path
         d="M 246.772,0 H 473.544 V 340.157 H 246.772 Z"
         id="path2810" />
    </clipPath>
    <clipPath
       clipPathUnits="userSpaceOnUse"
       id="clipPath2820">
      <path
         d="M 246.772,340.157 H 473.544 V 0 H 246.772 Z"
         id="path2818" />
    </clipPath>
    <clipPath
       clipPathUnits="userSpaceOnUse"
       id="clipPath2828">
      <path
         d="m 438.313,-190.079 c 0,-43.163 -34.991,-78.155 -78.155,-78.155 -43.164,0 -78.155,34.992 -78.155,78.155 0,43.164 34.991,78.155 78.155,78.155 43.164,0 78.155,-34.991 78.155,-78.155"
         id="path2826" />
    </clipPath>
    <clipPath
       clipPathUnits="userSpaceOnUse"
       id="clipPath702936">
      <path
         d="M 0,340.157 H 226.772 V 0 H 0 Z"
         id="path702934" />
    </clipPath>
    <clipPath
       clipPathUnits="userSpaceOnUse"
       id="clipPath703010">
      <path
         d="M 0,340.157 H 226.772 V 0 H 0 Z"
         id="path703008" />
    </clipPath>
    <clipPath
       clipPathUnits="userSpaceOnUse"
       id="clipPath703120">
      <path
         d="M 0,-20 H 226.772 V -360.157 H 0 Z"
         id="path703118" />
    </clipPath>
    <clipPath
       clipPathUnits="userSpaceOnUse"
       id="clipPath703128">
      <path
         d="M 0,-360.157 H 226.772 V -20 H 0 Z"
         id="path703126" />
    </clipPath>
    <clipPath
       clipPathUnits="userSpaceOnUse"
       id="clipPath703136">
      <path
         d="M 0,-20 H 226.772 V -360.157 H 0 Z"
         id="path703134" />
    </clipPath>
    <clipPath
       clipPathUnits="userSpaceOnUse"
       id="clipPath703144">
      <path
         d="m 438.313,-190.078 c 0,-43.164 -34.992,-78.155 -78.156,-78.155 -43.163,0 -78.154,34.991 -78.154,78.155 0,43.164 34.991,78.155 78.154,78.155 43.164,0 78.156,-34.991 78.156,-78.155"
         id="path703142" />
    </clipPath>
    <clipPath
       clipPathUnits="userSpaceOnUse"
       id="clipPath703160">
      <path
         d="M 246.772,-20 H 473.544 V -360.157 H 246.772 Z"
         id="path703158" />
    </clipPath>
    <clipPath
       clipPathUnits="userSpaceOnUse"
       id="clipPath703168">
      <path
         d="M 246.772,-360.157 H 473.544 V -20 H 246.772 Z"
         id="path703166" />
    </clipPath>
    <clipPath
       clipPathUnits="userSpaceOnUse"
       id="clipPath703176">
      <path
         d="m 282.002,-190.079 c 0,-43.163 34.993,-78.154 78.156,-78.154 43.164,0 78.155,34.991 78.155,78.154 0,43.164 -34.991,78.156 -78.155,78.156 -43.163,0 -78.156,-34.992 -78.156,-78.156"
         id="path703174" />
    </clipPath>
    <clipPath
       clipPathUnits="userSpaceOnUse"
       id="clipPath720772">
      <g
         id="g720776"
         transform="matrix(0.75000002,0,0,-0.75000002,-117.18415,74.879174)">
        <path
           d="M -45.430862,-131.30857 H 256.9318 V 322.23409 H -45.430862 Z"
           id="path720774"
           style="stroke-width:1.33333" />
      </g>
    </clipPath>
    <clipPath
       clipPathUnits="userSpaceOnUse"
       id="clipPath720778">
      <g
         id="g720782"
         transform="matrix(0.75000002,0,0,-0.75000002,-78.789654,69.358173)">
        <path
           d="M -45.430862,-131.30857 H 256.9318 V 322.23409 H -45.430862 Z"
           id="path720780"
           style="stroke-width:1.33333" />
      </g>
    </clipPath>
    <clipPath
       clipPathUnits="userSpaceOnUse"
       id="clipPath720784">
      <g
         id="g720788"
         transform="matrix(0.75000002,0,0,-0.75000002,34.073147,241.67557)">
        <path
           d="M -45.430862,-131.30857 H 256.9318 V 322.23409 H -45.430862 Z"
           id="path720786"
           style="stroke-width:1.33333" />
      </g>
    </clipPath>
    <clipPath
       clipPathUnits="userSpaceOnUse"
       id="clipPath703262">
      <path
         d="M -246.772,-20 H -20 v -340.157 h -226.772 z"
         id="path703260" />
    </clipPath>
    <clipPath
       clipPathUnits="userSpaceOnUse"
       id="clipPath703270">
      <path
         d="M -246.772,-360.157 H -20 V -20 h -226.772 z"
         id="path703268" />
    </clipPath>
    <clipPath
       clipPathUnits="userSpaceOnUse"
       id="clipPath703278">
      <path
         d="M -246.772,-20 H -20 v -340.157 h -226.772 z"
         id="path703276" />
    </clipPath>
    <clipPath
       clipPathUnits="userSpaceOnUse"
       id="clipPath703286">
      <path
         d="m 191.541,-190.078 c 0,-43.164 -34.992,-78.155 -78.156,-78.155 -43.163,0 -78.154,34.991 -78.154,78.155 0,43.164 34.991,78.155 78.154,78.155 43.164,0 78.156,-34.991 78.156,-78.155"
         id="path703284" />
    </clipPath>
    <clipPath
       clipPathUnits="userSpaceOnUse"
       id="clipPath703298">
      <path
         d="M 0,-20 H 226.772 V -360.157 H 0 Z"
         id="path703296" />
    </clipPath>
    <clipPath
       clipPathUnits="userSpaceOnUse"
       id="clipPath703306">
      <path
         d="M 0,-360.157 H 226.772 V -20 H 0 Z"
         id="path703304" />
    </clipPath>
    <clipPath
       clipPathUnits="userSpaceOnUse"
       id="clipPath703314">
      <path
         d="m 35.23,-190.079 c 0,-43.163 34.993,-78.154 78.156,-78.154 43.164,0 78.155,34.991 78.155,78.154 0,43.164 -34.991,78.156 -78.155,78.156 -43.163,0 -78.156,-34.992 -78.156,-78.156"
         id="path703312" />
    </clipPath>
    <clipPath
       clipPathUnits="userSpaceOnUse"
       id="clipPath721254">
      <g
         id="g721258"
         transform="matrix(0.75000002,0,0,-0.75000002,-143.46681,15.486327)">
        <path
           d="M 8.3138826,-226.73543 H 310.67654 V 226.80723 H 8.3138826 Z"
           id="path721256"
           style="stroke-width:1.33333" />
      </g>
    </clipPath>
    <clipPath
       clipPathUnits="userSpaceOnUse"
       id="clipPath721260">
      <g
         id="g721264"
         transform="matrix(0.75000002,0,0,-0.75000002,-150.19041,29.105427)">
        <path
           d="M 8.3138826,-226.73543 H 310.67654 V 226.80723 H 8.3138826 Z"
           id="path721262"
           style="stroke-width:1.33333" />
      </g>
    </clipPath>
    <clipPath
       clipPathUnits="userSpaceOnUse"
       id="clipPath721266">
      <g
         id="g721270"
         transform="matrix(0.75000002,0,0,-0.75000002,-6.2354121,170.10543)">
        <path
           d="M 8.3138826,-226.73543 H 310.67654 V 226.80723 H 8.3138826 Z"
           id="path721268"
           style="stroke-width:1.33333" />
      </g>
    </clipPath>
    <clipPath
       clipPathUnits="userSpaceOnUse"
       id="clipPath703432">
      <path
         d="M 0,340.157 H 226.772 V 0 H 0 Z"
         id="path703430" />
    </clipPath>
    <clipPath
       clipPathUnits="userSpaceOnUse"
       id="clipPath703542">
      <path
         d="M 0,340.157 H 226.772 V 0 H 0 Z"
         id="path703540" />
    </clipPath>
    <clipPath
       clipPathUnits="userSpaceOnUse"
       id="clipPath713424">
      <path
         d="M 0,340.157 H 226.772 V 0 H 0 Z"
         id="path713422" />
    </clipPath>
    <clipPath
       clipPathUnits="userSpaceOnUse"
       id="clipPath713526">
      <path
         d="M 0,340.157 H 226.772 V 0 H 0 Z"
         id="path713524" />
    </clipPath>
    <clipPath
       clipPathUnits="userSpaceOnUse"
       id="clipPath713616">
      <path
         d="M 0,340.157 H 226.772 V 0 H 0 Z"
         id="path713614" />
    </clipPath>
    <clipPath
       clipPathUnits="userSpaceOnUse"
       id="clipPath713690">
      <path
         d="M 0,340.157 H 226.772 V 0 H 0 Z"
         id="path713688" />
    </clipPath>
    <clipPath
       clipPathUnits="userSpaceOnUse"
       id="clipPath713764">
      <path
         d="M 0,340.157 H 226.772 V 0 H 0 Z"
         id="path713762" />
    </clipPath>
    <clipPath
       clipPathUnits="userSpaceOnUse"
       id="clipPath713874">
      <path
         d="M 0,340.157 H 226.772 V 0 H 0 Z"
         id="path713872" />
    </clipPath>
    <clipPath
       clipPathUnits="userSpaceOnUse"
       id="clipPath713874-3">
      <path
         d="M 0,340.157 H 226.772 V 0 H 0 Z"
         id="path713872-6" />
    </clipPath>
    <clipPath
       clipPathUnits="userSpaceOnUse"
       id="clipPath718030">
      <path
         d="M 0,340.157 H 226.772 V 0 H 0 Z"
         id="path718028" />
    </clipPath>
    <clipPath
       clipPathUnits="userSpaceOnUse"
       id="clipPath718104">
      <path
         d="M 0,340.157 H 226.772 V 0 H 0 Z"
         id="path718102" />
    </clipPath>
    <clipPath
       clipPathUnits="userSpaceOnUse"
       id="clipPath718178">
      <path
         d="M 0,340.157 H 226.772 V 0 H 0 Z"
         id="path718176" />
    </clipPath>
    <clipPath
       clipPathUnits="userSpaceOnUse"
       id="clipPath718296">
      <path
         d="M 0,340.157 H 226.772 V 0 H 0 Z"
         id="path718294" />
    </clipPath>
    <clipPath
       clipPathUnits="userSpaceOnUse"
       id="clipPath718398">
      <path
         d="M 0,340.157 H 226.772 V 0 H 0 Z"
         id="path718396" />
    </clipPath>
    <clipPath
       clipPathUnits="userSpaceOnUse"
       id="clipPath718484">
      <path
         d="M 0,340.157 H 226.772 V 0 H 0 Z"
         id="path718482" />
    </clipPath>
    <clipPath
       clipPathUnits="userSpaceOnUse"
       id="clipPath718558">
      <path
         d="M 0,340.157 H 226.772 V 0 H 0 Z"
         id="path718556" />
    </clipPath>
    <clipPath
       clipPathUnits="userSpaceOnUse"
       id="clipPath745984">
      <path
         d="M 0,340.157 H 226.772 V 0 H 0 Z"
         id="path745982" />
    </clipPath>
    <clipPath
       clipPathUnits="userSpaceOnUse"
       id="clipPath746070">
      <path
         d="M 0,340.157 H 226.772 V 0 H 0 Z"
         id="path746068" />
    </clipPath>
    <clipPath
       clipPathUnits="userSpaceOnUse"
       id="clipPath746144">
      <path
         d="M 0,340.157 H 226.772 V 0 H 0 Z"
         id="path746142" />
    </clipPath>
    <clipPath
       clipPathUnits="userSpaceOnUse"
       id="clipPath746274">
      <path
         d="M 0,340.157 H 226.772 V 0 H 0 Z"
         id="path746272" />
    </clipPath>
    <clipPath
       clipPathUnits="userSpaceOnUse"
       id="clipPath746400">
      <path
         d="M 0,340.157 H 226.772 V 0 H 0 Z"
         id="path746398" />
    </clipPath>
  </defs>
  <g
     id="g746394"
     transform="matrix(1.3333333,0,0,-1.3333333,-1.1813296,313.49736)">
    <g
       id="g746396"
       clip-path="url(#clipPath746400)">
      <g
         id="g746402"
         transform="translate(120.5805,147.5186)">
        <path
           d="m 0,0 c -3.047,-1.241 -6.076,-2.275 -9.085,-3.104 l -0.395,1.863 c 3.536,1.091 6.583,2.181 9.141,3.272 z"
           style="fill:#1d1d1b;fill-opacity:1;fill-rule:nonzero;stroke:none"
           id="path746404" />
      </g>
      <g
         id="g746406"
         transform="translate(189.7846,147.5186)">
        <path
           d="m 0,0 c -3.047,-1.241 -6.076,-2.275 -9.085,-3.104 l -0.394,1.863 c 3.535,1.091 6.582,2.181 9.14,3.272 z"
           style="fill:#1d1d1b;fill-opacity:1;fill-rule:nonzero;stroke:none"
           id="path746408" />
      </g>
      <g
         id="g746410"
         transform="translate(142.5766,185.9805)">
        <path
           d="m 0,0 c 0,-1.844 -0.959,-2.859 -2.878,-3.048 -0.827,0 -1.505,0.273 -2.031,0.819 -0.528,0.544 -0.79,1.288 -0.79,2.229 0,0.826 0.272,1.523 0.818,2.088 0.545,0.563 1.213,0.846 2.003,0.846 0.865,0 1.561,-0.283 2.088,-0.846 C -0.264,1.523 0,0.826 0,0"
           style="fill:#f91536;fill-opacity:1;fill-rule:nonzero;stroke:none"
           id="path746412" />
      </g>
      <g
         id="g746414"
         transform="translate(146.3578,192.752)">
        <path
           d="m 0,0 c 0,-1.844 -0.96,-2.841 -2.878,-2.991 -1.618,0 -2.52,0.996 -2.709,2.991 0,0.864 0.244,1.579 0.733,2.144 0.49,0.564 1.148,0.846 1.976,0.846 C -1.11,2.99 -0.151,1.993 0,0"
           style="fill:#f91536;fill-opacity:1;fill-rule:nonzero;stroke:none"
           id="path746416" />
      </g>
      <g
         id="g746418"
         transform="translate(149.9691,185.9805)">
        <path
           d="m 0,0 c 0,-1.844 -0.923,-2.859 -2.766,-3.048 -0.827,0 -1.505,0.273 -2.031,0.819 -0.527,0.544 -0.79,1.288 -0.79,2.229 0,0.826 0.263,1.523 0.79,2.088 0.526,0.563 1.204,0.846 2.031,0.846 0.866,0 1.543,-0.283 2.033,-0.846 C -0.245,1.523 0,0.826 0,0"
           style="fill:#f91536;fill-opacity:1;fill-rule:nonzero;stroke:none"
           id="path746420" />
      </g>
      <g
         id="g746422"
         transform="translate(80.8324,185.9805)">
        <path
           d="m 0,0 c 0,-1.844 -0.922,-2.859 -2.765,-3.048 -0.828,0 -1.505,0.273 -2.031,0.819 -0.528,0.544 -0.79,1.288 -0.79,2.229 0,0.826 0.262,1.523 0.79,2.088 0.526,0.563 1.203,0.846 2.031,0.846 0.865,0 1.542,-0.283 2.032,-0.846 C -0.245,1.523 0,0.826 0,0 m -3.611,6.771 c 0,-1.843 -0.96,-2.84 -2.878,-2.991 -1.618,0 -2.521,0.996 -2.709,2.991 0,0.865 0.244,1.58 0.734,2.144 0.488,0.564 1.147,0.847 1.975,0.847 1.767,0 2.727,-0.997 2.878,-2.991 M -7.392,0 c 0,-1.844 -0.96,-2.859 -2.878,-3.048 -0.828,0 -1.505,0.273 -2.031,0.819 -0.528,0.544 -0.79,1.288 -0.79,2.229 0,0.826 0.272,1.523 0.818,2.088 0.544,0.563 1.213,0.846 2.003,0.846 0.865,0 1.561,-0.283 2.088,-0.846 0.526,-0.565 0.79,-1.262 0.79,-2.088 m -23.475,-37.131 c -3.987,0 -7.148,1.289 -9.48,3.866 -2.333,2.578 -3.498,5.765 -3.498,9.565 0,1.993 0.235,3.874 0.705,5.642 0.47,1.768 1.006,3.254 1.608,4.458 l 2.991,-0.564 c -0.903,-3.123 -1.354,-5.794 -1.354,-8.013 0,-3.197 0.959,-5.651 2.878,-7.364 1.918,-1.711 4.232,-2.567 6.94,-2.567 2.671,0 4.928,0.63 6.772,1.89 1.843,1.261 3.16,3 3.95,5.22 0.226,0.902 0.338,1.58 0.338,2.031 -0.451,3.912 -1.655,7.919 -3.611,12.02 l 4.063,1.523 c 0.978,-2.257 1.88,-5.004 2.709,-8.238 0.225,-0.79 0.639,-1.383 1.241,-1.778 0.601,-0.395 1.298,-0.592 2.088,-0.592 0.978,0 1.824,0.234 2.539,0.705 0.714,0.47 1.335,1.411 1.862,2.821 0.526,1.411 0.959,3.527 1.298,6.349 l 3.498,0.169 -0.281,-4.063 c -0.077,-0.64 -0.113,-1.223 -0.113,-1.75 0,-1.58 0.244,-2.671 0.733,-3.272 0.489,-0.603 1.222,-0.904 2.201,-0.904 1.316,0 2.342,0.545 3.075,1.637 0.734,1.091 1.279,2.37 1.637,3.837 0.357,1.468 0.629,2.822 0.818,4.064 l 3.385,0.282 C 8.05,-10.76 7.975,-11.362 7.9,-11.963 7.824,-12.565 7.787,-13.13 7.787,-13.656 c 0,-1.882 0.48,-3.367 1.439,-4.458 0.959,-1.091 2.68,-1.656 5.163,-1.693 0.827,0 1.532,-0.207 2.116,-0.621 0.583,-0.414 0.875,-1.053 0.875,-1.918 0,-0.564 -0.189,-1.138 -0.565,-1.721 -0.376,-0.584 -1.241,-0.874 -2.595,-0.874 -4.439,0 -7.261,1.692 -8.464,5.078 -0.754,-1.657 -1.759,-2.916 -3.019,-3.781 -1.261,-0.866 -2.55,-1.297 -3.865,-1.297 -1.242,0 -2.211,0.215 -2.907,0.648 -0.696,0.432 -1.213,0.949 -1.551,1.552 -0.339,0.601 -0.602,1.203 -0.79,1.805 -0.641,-1.279 -1.468,-2.266 -2.483,-2.961 -1.016,-0.698 -2.352,-1.044 -4.007,-1.044 -0.941,0 -1.843,0.318 -2.708,0.959 0,-0.753 -0.133,-1.674 -0.395,-2.766 -1.129,-3.31 -3.029,-5.868 -5.699,-7.674 -2.672,-1.806 -5.738,-2.709 -9.199,-2.709"
           style="fill:#f91536;fill-opacity:1;fill-rule:nonzero;stroke:none"
           id="path746424" />
      </g>
      <g
         id="g746426"
         transform="translate(112.2406,165.3272)">
        <path
           d="M 0,0 C 1.768,0 2.652,0.79 2.652,2.37 2.652,3.499 2.398,4.674 1.89,5.896 1.382,7.119 0.686,8.154 -0.198,9 c -0.884,0.847 -1.89,1.271 -3.018,1.271 -1.092,0 -2.079,-0.444 -2.963,-1.327 C -7.063,8.06 -7.919,6.339 -8.747,3.78 -7.656,2.802 -6.302,1.928 -4.684,1.157 -3.067,0.386 -1.505,0 0,0 M 5.474,-1.467 C 4.194,-3.8 2.332,-4.966 -0.113,-4.966 c -3.198,0 -6.678,1.392 -10.439,4.176 -0.753,-1.204 -1.618,-2.088 -2.596,-2.652 -0.978,-0.565 -2.257,-0.846 -3.837,-0.846 -0.865,0 -1.598,0.206 -2.201,0.62 -0.601,0.414 -0.903,1.053 -0.903,1.919 0,1.729 1.016,2.596 3.047,2.596 h 0.283 c 1.165,0 2.106,0.347 2.821,1.044 0.714,0.695 1.391,2.003 2.031,3.921 1.166,3.197 2.407,5.474 3.725,6.828 1.316,1.354 3.047,2.032 5.191,2.032 1.58,0 2.981,-0.472 4.204,-1.411 C 2.435,12.32 3.451,11.116 4.26,9.649 5.068,8.183 5.643,6.658 5.981,5.078 6.809,3.272 7.627,2.116 8.436,1.608 9.244,1.101 10.063,0.847 10.891,0.847 c 0.827,0 1.532,-0.207 2.116,-0.621 0.583,-0.414 0.874,-1.054 0.874,-1.918 0,-1.732 -0.997,-2.596 -2.99,-2.596 -2.257,0 -4.063,0.939 -5.417,2.821"
           style="fill:#1d1d1b;fill-opacity:1;fill-rule:nonzero;stroke:none"
           id="path746428" />
      </g>
      <g
         id="g746430"
         transform="translate(167.4057,163.6348)">
        <path
           d="M 0,0 C 0,-1.731 -0.997,-2.596 -2.991,-2.596 H -3.16 c -4.553,0 -7.393,1.693 -8.521,5.078 -0.715,-1.656 -1.665,-2.916 -2.849,-3.78 -1.186,-0.866 -2.493,-1.298 -3.922,-1.298 -1.769,0 -3.029,0.423 -3.781,1.27 -0.753,0.846 -1.261,1.758 -1.524,2.736 -1.354,-2.672 -3.611,-4.006 -6.771,-4.006 -2.935,0 -4.741,1.391 -5.417,4.175 -0.715,-1.204 -1.797,-2.2 -3.244,-2.99 -1.45,-0.79 -3.114,-1.185 -4.995,-1.185 -1.09,0 -1.842,0.273 -2.257,0.818 -0.413,0.545 -0.621,1.119 -0.621,1.721 0,0.714 0.226,1.327 0.677,1.834 0.451,0.508 1.186,0.762 2.201,0.762 2.746,0 4.703,0.705 5.869,2.116 1.166,1.41 1.975,3.32 2.426,5.728 l 3.612,0.169 c -0.565,-1.844 -0.847,-3.349 -0.847,-4.515 0,-0.414 0.057,-0.893 0.17,-1.438 0.112,-0.546 0.394,-1.064 0.846,-1.552 0.452,-0.489 1.147,-0.734 2.087,-0.734 0.904,0 1.731,0.188 2.484,0.564 0.752,0.376 1.41,1.101 1.975,2.173 0.564,1.072 1.034,2.604 1.411,4.598 l 3.498,0.17 V 9.705 c -0.302,-1.128 -0.451,-2.276 -0.451,-3.442 0,-2.596 0.977,-3.894 2.934,-3.894 2.897,0 4.739,3.179 5.529,9.537 l 3.386,0.282 C -9.292,11.925 -9.33,11.681 -9.367,11.454 -9.405,11.229 -9.434,10.975 -9.452,10.692 -9.472,10.41 -9.5,10.081 -9.537,9.705 -9.574,9.329 -9.593,8.972 -9.593,8.633 c 0,-1.655 0.423,-3.067 1.27,-4.232 0.845,-1.167 2.624,-1.787 5.332,-1.862 0.827,0 1.532,-0.207 2.116,-0.621 C -0.292,1.504 0,0.864 0,0"
           style="fill:#f91536;fill-opacity:1;fill-rule:nonzero;stroke:none"
           id="path746432" />
      </g>
      <g
         id="g746434"
         transform="translate(181.4447,166.0039)">
        <path
           d="m 0,0 c 1.768,0 2.652,0.79 2.652,2.37 0,1.693 -0.592,3.433 -1.778,5.22 -1.185,1.786 -2.549,2.681 -4.091,2.681 -1.092,0 -2.069,-0.443 -2.934,-1.327 C -7.017,8.06 -7.844,6.339 -8.634,3.781 -7.543,2.803 -6.207,1.928 -4.627,1.157 -3.048,0.386 -1.505,0 0,0 m -0.226,-4.965 c -3.16,0 -6.584,1.391 -10.27,4.175 -0.715,-1.467 -1.552,-2.53 -2.511,-3.188 -0.959,-0.659 -2.285,-0.987 -3.978,-0.987 -0.866,0 -1.599,0.206 -2.201,0.62 -0.601,0.414 -0.903,1.073 -0.903,1.976 0,0.6 0.217,1.175 0.65,1.721 0.432,0.544 1.251,0.818 2.454,0.818 h 0.169 c 1.279,0 2.286,0.413 3.019,1.241 0.734,0.827 1.363,2.068 1.891,3.725 1.128,3.347 2.36,5.773 3.695,7.279 1.335,1.504 3.076,2.257 5.22,2.257 1.956,0 3.611,-0.668 4.966,-2.003 C 3.329,11.333 4.373,9.696 5.106,7.76 5.84,5.821 6.207,3.969 6.207,2.201 6.207,0.094 5.586,-1.627 4.345,-2.962 3.104,-4.298 1.58,-4.965 -0.226,-4.965"
           style="fill:#1d1d1b;fill-opacity:1;fill-rule:nonzero;stroke:none"
           id="path746436" />
      </g>
    </g>
  </g>
</svg>
