<?xml version="1.0" encoding="UTF-8" standalone="no"?>
<!-- Created with Inkscape (http://www.inkscape.org/) -->

<svg
   version="1.1"
   id="svg18"
   width="300"
   height="150"
   viewBox="0 0 300.00002 150"
   sodipodi:docname="1215_word.svg"
   inkscape:version="1.2.1 (9c6d41e410, 2022-07-14)"
   xmlns:inkscape="http://www.inkscape.org/namespaces/inkscape"
   xmlns:sodipodi="http://sodipodi.sourceforge.net/DTD/sodipodi-0.dtd"
   xmlns="http://www.w3.org/2000/svg"
   xmlns:svg="http://www.w3.org/2000/svg">
  <sodipodi:namedview
     id="namedview37"
     pagecolor="#ffffff"
     bordercolor="#000000"
     borderopacity="0.25"
     inkscape:showpageshadow="2"
     inkscape:pageopacity="0.0"
     inkscape:pagecheckerboard="0"
     inkscape:deskcolor="#d1d1d1"
     showgrid="false"
     inkscape:zoom="4.0941839"
     inkscape:cx="103.43942"
     inkscape:cy="106.24828"
     inkscape:window-width="1700"
     inkscape:window-height="1396"
     inkscape:window-x="8"
     inkscape:window-y="28"
     inkscape:window-maximized="1"
     inkscape:current-layer="svg18" />
  <defs
     id="defs22">
    <clipPath
       clipPathUnits="userSpaceOnUse"
       id="clipPath2796">
      <path
         d="M 0,340.157 H 226.772 V 0 H 0 Z"
         id="path2794" />
    </clipPath>
    <clipPath
       clipPathUnits="userSpaceOnUse"
       id="clipPath2804">
      <path
         d="M 246.772,340.157 H 473.544 V 0 H 246.772 Z"
         id="path2802" />
    </clipPath>
    <clipPath
       clipPathUnits="userSpaceOnUse"
       id="clipPath2812">
      <path
         d="M 246.772,0 H 473.544 V 340.157 H 246.772 Z"
         id="path2810" />
    </clipPath>
    <clipPath
       clipPathUnits="userSpaceOnUse"
       id="clipPath2820">
      <path
         d="M 246.772,340.157 H 473.544 V 0 H 246.772 Z"
         id="path2818" />
    </clipPath>
    <clipPath
       clipPathUnits="userSpaceOnUse"
       id="clipPath2828">
      <path
         d="m 438.313,-190.079 c 0,-43.163 -34.991,-78.155 -78.155,-78.155 -43.164,0 -78.155,34.992 -78.155,78.155 0,43.164 34.991,78.155 78.155,78.155 43.164,0 78.155,-34.991 78.155,-78.155"
         id="path2826" />
    </clipPath>
    <clipPath
       clipPathUnits="userSpaceOnUse"
       id="clipPath702936">
      <path
         d="M 0,340.157 H 226.772 V 0 H 0 Z"
         id="path702934" />
    </clipPath>
    <clipPath
       clipPathUnits="userSpaceOnUse"
       id="clipPath703010">
      <path
         d="M 0,340.157 H 226.772 V 0 H 0 Z"
         id="path703008" />
    </clipPath>
    <clipPath
       clipPathUnits="userSpaceOnUse"
       id="clipPath703120">
      <path
         d="M 0,-20 H 226.772 V -360.157 H 0 Z"
         id="path703118" />
    </clipPath>
    <clipPath
       clipPathUnits="userSpaceOnUse"
       id="clipPath703128">
      <path
         d="M 0,-360.157 H 226.772 V -20 H 0 Z"
         id="path703126" />
    </clipPath>
    <clipPath
       clipPathUnits="userSpaceOnUse"
       id="clipPath703136">
      <path
         d="M 0,-20 H 226.772 V -360.157 H 0 Z"
         id="path703134" />
    </clipPath>
    <clipPath
       clipPathUnits="userSpaceOnUse"
       id="clipPath703144">
      <path
         d="m 438.313,-190.078 c 0,-43.164 -34.992,-78.155 -78.156,-78.155 -43.163,0 -78.154,34.991 -78.154,78.155 0,43.164 34.991,78.155 78.154,78.155 43.164,0 78.156,-34.991 78.156,-78.155"
         id="path703142" />
    </clipPath>
    <clipPath
       clipPathUnits="userSpaceOnUse"
       id="clipPath703160">
      <path
         d="M 246.772,-20 H 473.544 V -360.157 H 246.772 Z"
         id="path703158" />
    </clipPath>
    <clipPath
       clipPathUnits="userSpaceOnUse"
       id="clipPath703168">
      <path
         d="M 246.772,-360.157 H 473.544 V -20 H 246.772 Z"
         id="path703166" />
    </clipPath>
    <clipPath
       clipPathUnits="userSpaceOnUse"
       id="clipPath703176">
      <path
         d="m 282.002,-190.079 c 0,-43.163 34.993,-78.154 78.156,-78.154 43.164,0 78.155,34.991 78.155,78.154 0,43.164 -34.991,78.156 -78.155,78.156 -43.163,0 -78.156,-34.992 -78.156,-78.156"
         id="path703174" />
    </clipPath>
    <clipPath
       clipPathUnits="userSpaceOnUse"
       id="clipPath720772">
      <g
         id="g720776"
         transform="matrix(0.75000002,0,0,-0.75000002,-117.18415,74.879174)">
        <path
           d="M -45.430862,-131.30857 H 256.9318 V 322.23409 H -45.430862 Z"
           id="path720774"
           style="stroke-width:1.33333" />
      </g>
    </clipPath>
    <clipPath
       clipPathUnits="userSpaceOnUse"
       id="clipPath720778">
      <g
         id="g720782"
         transform="matrix(0.75000002,0,0,-0.75000002,-78.789654,69.358173)">
        <path
           d="M -45.430862,-131.30857 H 256.9318 V 322.23409 H -45.430862 Z"
           id="path720780"
           style="stroke-width:1.33333" />
      </g>
    </clipPath>
    <clipPath
       clipPathUnits="userSpaceOnUse"
       id="clipPath720784">
      <g
         id="g720788"
         transform="matrix(0.75000002,0,0,-0.75000002,34.073147,241.67557)">
        <path
           d="M -45.430862,-131.30857 H 256.9318 V 322.23409 H -45.430862 Z"
           id="path720786"
           style="stroke-width:1.33333" />
      </g>
    </clipPath>
    <clipPath
       clipPathUnits="userSpaceOnUse"
       id="clipPath703262">
      <path
         d="M -246.772,-20 H -20 v -340.157 h -226.772 z"
         id="path703260" />
    </clipPath>
    <clipPath
       clipPathUnits="userSpaceOnUse"
       id="clipPath703270">
      <path
         d="M -246.772,-360.157 H -20 V -20 h -226.772 z"
         id="path703268" />
    </clipPath>
    <clipPath
       clipPathUnits="userSpaceOnUse"
       id="clipPath703278">
      <path
         d="M -246.772,-20 H -20 v -340.157 h -226.772 z"
         id="path703276" />
    </clipPath>
    <clipPath
       clipPathUnits="userSpaceOnUse"
       id="clipPath703286">
      <path
         d="m 191.541,-190.078 c 0,-43.164 -34.992,-78.155 -78.156,-78.155 -43.163,0 -78.154,34.991 -78.154,78.155 0,43.164 34.991,78.155 78.154,78.155 43.164,0 78.156,-34.991 78.156,-78.155"
         id="path703284" />
    </clipPath>
    <clipPath
       clipPathUnits="userSpaceOnUse"
       id="clipPath703298">
      <path
         d="M 0,-20 H 226.772 V -360.157 H 0 Z"
         id="path703296" />
    </clipPath>
    <clipPath
       clipPathUnits="userSpaceOnUse"
       id="clipPath703306">
      <path
         d="M 0,-360.157 H 226.772 V -20 H 0 Z"
         id="path703304" />
    </clipPath>
    <clipPath
       clipPathUnits="userSpaceOnUse"
       id="clipPath703314">
      <path
         d="m 35.23,-190.079 c 0,-43.163 34.993,-78.154 78.156,-78.154 43.164,0 78.155,34.991 78.155,78.154 0,43.164 -34.991,78.156 -78.155,78.156 -43.163,0 -78.156,-34.992 -78.156,-78.156"
         id="path703312" />
    </clipPath>
    <clipPath
       clipPathUnits="userSpaceOnUse"
       id="clipPath721254">
      <g
         id="g721258"
         transform="matrix(0.75000002,0,0,-0.75000002,-143.46681,15.486327)">
        <path
           d="M 8.3138826,-226.73543 H 310.67654 V 226.80723 H 8.3138826 Z"
           id="path721256"
           style="stroke-width:1.33333" />
      </g>
    </clipPath>
    <clipPath
       clipPathUnits="userSpaceOnUse"
       id="clipPath721260">
      <g
         id="g721264"
         transform="matrix(0.75000002,0,0,-0.75000002,-150.19041,29.105427)">
        <path
           d="M 8.3138826,-226.73543 H 310.67654 V 226.80723 H 8.3138826 Z"
           id="path721262"
           style="stroke-width:1.33333" />
      </g>
    </clipPath>
    <clipPath
       clipPathUnits="userSpaceOnUse"
       id="clipPath721266">
      <g
         id="g721270"
         transform="matrix(0.75000002,0,0,-0.75000002,-6.2354121,170.10543)">
        <path
           d="M 8.3138826,-226.73543 H 310.67654 V 226.80723 H 8.3138826 Z"
           id="path721268"
           style="stroke-width:1.33333" />
      </g>
    </clipPath>
    <clipPath
       clipPathUnits="userSpaceOnUse"
       id="clipPath703432">
      <path
         d="M 0,340.157 H 226.772 V 0 H 0 Z"
         id="path703430" />
    </clipPath>
    <clipPath
       clipPathUnits="userSpaceOnUse"
       id="clipPath703542">
      <path
         d="M 0,340.157 H 226.772 V 0 H 0 Z"
         id="path703540" />
    </clipPath>
    <clipPath
       clipPathUnits="userSpaceOnUse"
       id="clipPath713424">
      <path
         d="M 0,340.157 H 226.772 V 0 H 0 Z"
         id="path713422" />
    </clipPath>
    <clipPath
       clipPathUnits="userSpaceOnUse"
       id="clipPath713526">
      <path
         d="M 0,340.157 H 226.772 V 0 H 0 Z"
         id="path713524" />
    </clipPath>
    <clipPath
       clipPathUnits="userSpaceOnUse"
       id="clipPath713616">
      <path
         d="M 0,340.157 H 226.772 V 0 H 0 Z"
         id="path713614" />
    </clipPath>
    <clipPath
       clipPathUnits="userSpaceOnUse"
       id="clipPath713690">
      <path
         d="M 0,340.157 H 226.772 V 0 H 0 Z"
         id="path713688" />
    </clipPath>
    <clipPath
       clipPathUnits="userSpaceOnUse"
       id="clipPath713764">
      <path
         d="M 0,340.157 H 226.772 V 0 H 0 Z"
         id="path713762" />
    </clipPath>
    <clipPath
       clipPathUnits="userSpaceOnUse"
       id="clipPath713874">
      <path
         d="M 0,340.157 H 226.772 V 0 H 0 Z"
         id="path713872" />
    </clipPath>
    <clipPath
       clipPathUnits="userSpaceOnUse"
       id="clipPath713874-3">
      <path
         d="M 0,340.157 H 226.772 V 0 H 0 Z"
         id="path713872-6" />
    </clipPath>
    <clipPath
       clipPathUnits="userSpaceOnUse"
       id="clipPath718030">
      <path
         d="M 0,340.157 H 226.772 V 0 H 0 Z"
         id="path718028" />
    </clipPath>
    <clipPath
       clipPathUnits="userSpaceOnUse"
       id="clipPath718104">
      <path
         d="M 0,340.157 H 226.772 V 0 H 0 Z"
         id="path718102" />
    </clipPath>
    <clipPath
       clipPathUnits="userSpaceOnUse"
       id="clipPath718178">
      <path
         d="M 0,340.157 H 226.772 V 0 H 0 Z"
         id="path718176" />
    </clipPath>
    <clipPath
       clipPathUnits="userSpaceOnUse"
       id="clipPath718296">
      <path
         d="M 0,340.157 H 226.772 V 0 H 0 Z"
         id="path718294" />
    </clipPath>
    <clipPath
       clipPathUnits="userSpaceOnUse"
       id="clipPath718398">
      <path
         d="M 0,340.157 H 226.772 V 0 H 0 Z"
         id="path718396" />
    </clipPath>
    <clipPath
       clipPathUnits="userSpaceOnUse"
       id="clipPath718484">
      <path
         d="M 0,340.157 H 226.772 V 0 H 0 Z"
         id="path718482" />
    </clipPath>
    <clipPath
       clipPathUnits="userSpaceOnUse"
       id="clipPath718558">
      <path
         d="M 0,340.157 H 226.772 V 0 H 0 Z"
         id="path718556" />
    </clipPath>
    <clipPath
       clipPathUnits="userSpaceOnUse"
       id="clipPath745984">
      <path
         d="M 0,340.157 H 226.772 V 0 H 0 Z"
         id="path745982" />
    </clipPath>
    <clipPath
       clipPathUnits="userSpaceOnUse"
       id="clipPath746070">
      <path
         d="M 0,340.157 H 226.772 V 0 H 0 Z"
         id="path746068" />
    </clipPath>
    <clipPath
       clipPathUnits="userSpaceOnUse"
       id="clipPath746144">
      <path
         d="M 0,340.157 H 226.772 V 0 H 0 Z"
         id="path746142" />
    </clipPath>
    <clipPath
       clipPathUnits="userSpaceOnUse"
       id="clipPath746274">
      <path
         d="M 0,340.157 H 226.772 V 0 H 0 Z"
         id="path746272" />
    </clipPath>
    <clipPath
       clipPathUnits="userSpaceOnUse"
       id="clipPath746400">
      <path
         d="M 0,340.157 H 226.772 V 0 H 0 Z"
         id="path746398" />
    </clipPath>
    <clipPath
       clipPathUnits="userSpaceOnUse"
       id="clipPath746502">
      <path
         d="M 0,340.157 H 226.772 V 0 H 0 Z"
         id="path746500" />
    </clipPath>
    <clipPath
       clipPathUnits="userSpaceOnUse"
       id="clipPath746510">
      <path
         d="M -246.772,340.157 H -20 V 0 h -226.772 z"
         id="path746508" />
    </clipPath>
    <clipPath
       clipPathUnits="userSpaceOnUse"
       id="clipPath746518">
      <path
         d="M -246.772,340.157 H -20 V 0 h -226.772 z"
         id="path746516" />
    </clipPath>
  </defs>
  <g
     id="g746496"
     transform="matrix(1.3333333,0,0,-1.3333333,-1.1815962,322.01393)">
    <g
       id="g746498"
       clip-path="url(#clipPath746502)">
      <g
         id="g746504">
        <g
           id="g746506"
           clip-path="url(#clipPath746510)">
          <g
             id="g746512">
            <g
               id="g746514"
               clip-path="url(#clipPath746518)">
              <g
                 id="g746520"
                 transform="translate(149.0155,161.334)">
                <path
                   d="m 0,0 c 0,-1.73 -0.997,-2.596 -2.99,-2.596 -3.311,0 -5.869,0.714 -7.675,2.145 -1.806,1.429 -2.821,3.723 -3.047,6.884 -1.43,-0.565 -2.972,-1.355 -4.627,-2.371 -3.724,-2.445 -7.223,-4.166 -10.496,-5.163 -3.272,-0.997 -7.468,-1.495 -12.583,-1.495 -0.94,0 -1.655,0.244 -2.145,0.734 -0.488,0.488 -0.733,1.091 -0.733,1.805 0,0.64 0.217,1.232 0.649,1.778 0.433,0.545 1.176,0.818 2.229,0.818 h 0.677 c 7.184,0 12.997,1.129 17.436,3.386 l 3.443,1.693 c 1.466,0.752 2.708,1.298 3.723,1.636 -1.316,0.414 -2.746,0.94 -4.288,1.58 -1.693,0.752 -3.462,1.43 -5.304,2.031 -1.844,0.602 -3.724,0.904 -5.643,0.904 -3.123,0 -5.605,-0.508 -7.448,-1.524 l 0.845,4.684 c 1.769,0.939 4.044,1.41 6.829,1.41 2.445,0 4.805,-0.366 7.082,-1.1 2.275,-0.734 4.617,-1.684 7.025,-2.849 1.993,-0.867 3.64,-1.431 4.937,-1.694 1.298,-0.263 2.568,-0.394 3.809,-0.394 h 1.637 l -0.79,-4.684 h -1.524 c -0.451,0 -0.94,-0.038 -1.467,-0.113 0.226,-1.994 1.044,-3.32 2.455,-3.979 1.411,-0.658 3.075,-0.987 4.994,-0.987 0.827,0 1.532,-0.207 2.116,-0.62 C -0.291,1.504 0,0.865 0,0 m -38.428,0 c 0,-1.73 -0.997,-2.596 -2.99,-2.596 -3.311,0 -5.86,0.884 -7.646,2.653 -1.788,1.767 -2.775,4.776 -2.963,9.028 l -1.128,29.004 4.231,0.282 1.072,-27.875 c 0.114,-2.973 0.734,-5.032 1.863,-6.18 1.129,-1.147 2.652,-1.74 4.571,-1.777 0.826,0 1.532,-0.207 2.115,-0.62 0.583,-0.415 0.875,-1.054 0.875,-1.919 m -39.127,-13.769 c 0,-1.919 -0.979,-2.953 -2.934,-3.103 -0.828,0 -1.524,0.282 -2.088,0.847 -0.565,0.563 -0.847,1.317 -0.847,2.256 0,1.806 0.978,2.822 2.935,3.047 1.767,0 2.745,-1.015 2.934,-3.047 m 17.38,14.39 c -6.809,-2.934 -14.653,-4.401 -23.531,-4.401 -13.204,0 -19.806,5.002 -19.806,15.009 0,2.558 0.413,4.89 1.241,6.998 l 3.047,-0.622 c -0.414,-1.466 -0.621,-3.046 -0.621,-4.74 0,-7.712 5.474,-11.587 16.421,-11.624 8.577,0 15.198,0.96 19.863,2.878 0.038,0.301 0.057,0.678 0.057,1.129 -0.113,3.987 -1.449,8.332 -4.007,13.035 l 4.063,1.128 c 0.978,-1.73 1.862,-3.875 2.652,-6.432 0.79,-2.559 1.186,-5.287 1.186,-8.182 0,-1.732 -0.19,-3.123 -0.565,-4.176"
                   style="fill:#1d1d1b;fill-opacity:1;fill-rule:nonzero;stroke:none"
                   id="path746522" />
              </g>
              <g
                 id="g746524"
                 transform="translate(170.2899,197.9785)">
                <path
                   d="m 0,0 c -3.048,-1.241 -6.076,-2.276 -9.085,-3.104 l -0.395,1.863 c 3.536,1.091 6.583,2.181 9.141,3.272 z"
                   style="fill:#1d1d1b;fill-opacity:1;fill-rule:nonzero;stroke:none"
                   id="path746526" />
              </g>
              <g
                 id="g746528"
                 transform="translate(172.4794,158.7383)">
                <path
                   d="M 0,0 C -3.048,0 -5.061,1.316 -6.038,3.95 -7.469,1.316 -9.706,0 -12.753,0 -15.688,0 -17.493,1.373 -18.171,4.119 -19.977,1.373 -22.741,0 -26.466,0 c -1.09,0 -1.843,0.272 -2.257,0.818 -0.413,0.545 -0.621,1.119 -0.621,1.721 0,0.715 0.227,1.326 0.678,1.834 0.451,0.508 1.185,0.762 2.2,0.762 2.746,0 4.712,0.706 5.898,2.116 1.184,1.411 1.983,3.319 2.397,5.728 l 3.612,0.168 c -0.527,-1.655 -0.79,-3.084 -0.79,-4.288 0,-2.633 1.035,-3.95 3.104,-3.95 1.504,0 2.726,0.527 3.668,1.58 0.939,1.053 1.654,2.99 2.143,5.813 l 3.556,0.169 C -2.916,12.395 -2.935,12.302 -2.935,12.188 -3.198,11.36 -3.33,10.345 -3.33,9.142 c 0,-2.785 1.278,-4.176 3.838,-4.176 1.241,0 2.275,0.403 3.103,1.213 0.827,0.808 1.242,1.852 1.242,3.132 0,0.977 -0.198,2.125 -0.593,3.442 -0.395,1.316 -0.838,2.482 -1.326,3.498 l 4.119,1.186 C 7.956,15.668 8.407,13.223 8.407,10.101 8.407,6.902 7.589,4.42 5.953,2.652 4.316,0.884 2.332,0 0,0"
                   style="fill:#1d1d1b;fill-opacity:1;fill-rule:nonzero;stroke:none"
                   id="path746530" />
              </g>
            </g>
          </g>
        </g>
      </g>
      <g
         id="g746532"
         transform="translate(99.7694,194.4053)">
        <path
           d="m 0,0 c 0,-1.844 -0.959,-2.841 -2.878,-2.991 -0.827,0 -1.495,0.262 -2.003,0.79 -0.508,0.526 -0.762,1.26 -0.762,2.201 0,1.806 0.922,2.802 2.765,2.99 C -1.109,2.99 -0.15,1.993 0,0 m -7.562,0 c 0,-1.844 -0.959,-2.841 -2.876,-2.991 -0.829,0 -1.516,0.262 -2.061,0.79 -0.545,0.526 -0.817,1.26 -0.817,2.201 0,1.806 0.959,2.802 2.878,2.99 0.864,0 1.56,-0.273 2.087,-0.818 C -7.824,1.626 -7.562,0.902 -7.562,0 m -1.41,-28.046 c -5.906,0 -10.551,1.214 -13.937,3.64 -3.386,2.427 -5.136,6.235 -5.248,11.427 0,2.67 0.394,5.002 1.184,6.998 l 3.104,-0.565 c -0.414,-1.505 -0.62,-3.103 -0.62,-4.797 0,-7.674 5.322,-11.511 15.968,-11.511 3.236,0 6.124,0.245 8.663,0.734 2.539,0.488 4.683,1.062 6.432,1.721 1.749,0.658 3.075,1.288 3.979,1.89 -0.114,0.903 -0.17,1.693 -0.17,2.37 0,1.09 0.207,2.351 0.621,3.781 l 3.329,0.338 c -0.188,-1.015 -0.282,-2.031 -0.282,-3.046 0,-4.252 2.238,-6.454 6.715,-6.603 v -0.057 c 0.827,0 1.543,-0.197 2.144,-0.592 0.602,-0.395 0.903,-1.026 0.903,-1.89 0,-1.731 -1.015,-2.596 -3.047,-2.596 -4.251,0 -7.186,1.41 -8.803,4.232 -2.445,-1.617 -5.427,-2.934 -8.943,-3.949 -3.519,-1.016 -7.515,-1.525 -11.992,-1.525"
           style="fill:#1d1d1b;fill-opacity:1;fill-rule:nonzero;stroke:none"
           id="path746534" />
      </g>
      <g
         id="g746536"
         transform="translate(141.1659,170.1973)">
        <path
           d="m 0,0 c 0,-1.731 -0.997,-2.596 -2.99,-2.596 -2.447,0 -4.364,0.47 -5.756,1.41 -1.392,0.941 -2.37,2.351 -2.935,4.233 -1.391,-3.763 -4.457,-5.643 -9.197,-5.643 -1.919,0 -2.878,0.865 -2.878,2.596 0,0.564 0.226,1.118 0.677,1.664 0.452,0.545 1.205,0.818 2.258,0.818 2.068,0 3.648,0.376 4.739,1.129 1.091,0.752 1.871,1.778 2.342,3.076 0.47,1.297 0.78,2.773 0.931,4.429 l 3.33,0.282 c -0.077,-0.602 -0.114,-1.241 -0.114,-1.919 0,-1.166 0.17,-2.285 0.508,-3.357 0.339,-1.072 0.988,-1.937 1.947,-2.596 0.959,-0.658 2.342,-1.006 4.148,-1.044 0.827,0 1.532,-0.197 2.116,-0.592 C -0.291,1.495 0,0.864 0,0"
           style="fill:#f91536;fill-opacity:1;fill-rule:nonzero;stroke:none"
           id="path746538" />
      </g>
      <g
         id="g746540"
         transform="translate(132.3075,193.502)">
        <path
           d="m 0,0 c 0,-1.919 -0.979,-2.954 -2.935,-3.104 -0.828,0 -1.523,0.283 -2.087,0.847 -0.565,0.565 -0.847,1.317 -0.847,2.257 0,0.865 0.282,1.589 0.847,2.173 0.564,0.582 1.259,0.874 2.087,0.874 C -1.167,3.047 -0.189,2.031 0,0"
           style="fill:#f91536;fill-opacity:1;fill-rule:nonzero;stroke:none"
           id="path746542" />
      </g>
      <g
         id="g746544"
         transform="translate(155.16,145.8653)">
        <path
           d="m 0,0 c -3.047,-1.241 -6.076,-2.276 -9.085,-3.104 l -0.394,1.863 c 3.535,1.091 6.582,2.181 9.14,3.272 z"
           style="fill:#1d1d1b;fill-opacity:1;fill-rule:nonzero;stroke:none"
           id="path746546" />
      </g>
      <g
         id="g746548"
         transform="translate(148.3319,156.4287)">
        <path
           d="m 0,0 c 0,-1.919 -0.979,-2.953 -2.934,-3.104 -0.828,0 -1.524,0.283 -2.087,0.846 -0.565,0.565 -0.847,1.318 -0.847,2.258 0,1.806 0.977,2.821 2.934,3.047 C -1.166,3.047 -0.188,2.031 0,0 m -9.254,11.173 h -0.847 c -1.88,0 -2.821,0.883 -2.821,2.651 0,0.527 0.197,1.072 0.593,1.637 0.394,0.564 1.138,0.847 2.228,0.847 h 1.129 c 4.063,0 6.715,0.431 7.956,1.297 l 0.114,0.452 c 0.149,0.488 0.225,1.072 0.225,1.749 0,0.677 -0.133,1.354 -0.395,2.032 -0.264,0.677 -0.753,1.58 -1.467,2.708 l -0.959,1.637 4.119,1.636 c 1.655,-3.085 2.483,-6.189 2.483,-9.311 0,-1.543 -0.301,-3.067 -0.903,-4.57 -0.678,-0.715 -1.805,-1.355 -3.386,-1.919 -1.58,-0.564 -4.27,-0.846 -8.069,-0.846"
           style="fill:#1d1d1b;fill-opacity:1;fill-rule:nonzero;stroke:none"
           id="path746550" />
      </g>
    </g>
  </g>
</svg>
