<?xml version="1.0" encoding="UTF-8" standalone="no"?>
<!-- Created with Inkscape (http://www.inkscape.org/) -->

<svg
   width="200"
   height="200"
   viewBox="0 0 200 200"
   version="1.1"
   id="svg37630"
   inkscape:version="1.2.1 (9c6d41e410, 2022-07-14)"
   sodipodi:docname="122_lf2.svg"
   xmlns:inkscape="http://www.inkscape.org/namespaces/inkscape"
   xmlns:sodipodi="http://sodipodi.sourceforge.net/DTD/sodipodi-0.dtd"
   xmlns="http://www.w3.org/2000/svg"
   xmlns:svg="http://www.w3.org/2000/svg">
  <sodipodi:namedview
     id="namedview37632"
     pagecolor="#ffffff"
     bordercolor="#000000"
     borderopacity="0.25"
     inkscape:showpageshadow="2"
     inkscape:pageopacity="0.0"
     inkscape:pagecheckerboard="0"
     inkscape:deskcolor="#d1d1d1"
     inkscape:document-units="px"
     showgrid="false"
     inkscape:zoom="1.2938725"
     inkscape:cx="81.924611"
     inkscape:cy="29.3692"
     inkscape:window-width="2040"
     inkscape:window-height="460"
     inkscape:window-x="696"
     inkscape:window-y="28"
     inkscape:window-maximized="1"
     inkscape:current-layer="layer1" />
  <defs
     id="defs37627">
    <clipPath
       clipPathUnits="userSpaceOnUse"
       id="clipPath49831">
      <g
         id="g49837">
        <g
           id="g49835">
          <path
             d="M 0,340.157 H 226.772 V 0 H 0 Z"
             id="path49833" />
        </g>
      </g>
    </clipPath>
    <clipPath
       clipPathUnits="userSpaceOnUse"
       id="clipPath49846">
      <g
         id="g49852">
        <g
           id="g49850">
          <path
             d="M 0,340.157 H 226.772 V 0 H 0 Z"
             id="path49848" />
        </g>
      </g>
    </clipPath>
    <clipPath
       clipPathUnits="userSpaceOnUse"
       id="clipPath3810">
      <path
         d="M 0,340.157 H 226.772 V 0 H 0 Z"
         id="path3808" />
    </clipPath>
    <clipPath
       clipPathUnits="userSpaceOnUse"
       id="clipPath63168">
      <g
         id="g63172"
         transform="translate(-138.8968,-217.1925)">
        <path
           d="M 0,340.157 H 226.772 V 0 H 0 Z"
           id="path63170" />
      </g>
    </clipPath>
  </defs>
  <g
     inkscape:label="Layer 1"
     inkscape:groupmode="layer"
     id="layer1">
    <g
       id="g3882"
       transform="matrix(1.33334,0,0,-1.33334,58.009766,168.78873)"
       clip-path="none">
      <path
         d="m 0,0 c -9.719,0 -17.42,3.187 -23.104,9.558 -5.686,6.374 -8.526,14.281 -8.526,23.723 0,8.252 1.512,15.355 4.538,21.316 l 7.426,-1.375 c -1.65,-5.136 -2.476,-10.682 -2.476,-16.64 0,-7.702 2.361,-13.684 7.083,-17.947 4.722,-4.264 10.383,-6.395 16.985,-6.395 6.509,0 12.033,1.581 16.571,4.744 4.539,3.163 7.678,7.358 9.421,12.584 0.732,1.74 1.1,3.39 1.1,4.951 -1.01,9.352 -3.988,19.115 -8.939,29.292 l 9.901,3.713 c 2.566,-5.593 4.813,-12.514 6.739,-20.766 1.008,-3.393 3.528,-5.088 7.564,-5.088 2.29,0 4.309,0.687 6.051,2.063 3.116,2.383 4.676,8.389 4.676,18.016 l -0.138,6.325 8.664,0.413 c 1.282,-4.311 2.063,-7.519 2.338,-9.627 l 0.138,-3.713 v -3.163 c 0,-6.786 3.115,-10.176 9.351,-10.176 3.026,0 5.546,0.984 7.564,2.956 2.016,1.97 3.026,4.515 3.026,7.632 0,2.384 -0.481,5.179 -1.444,8.39 -0.963,3.208 -2.041,6.05 -3.232,8.526 L 91.316,72.2 c 2.201,-4.31 3.3,-10.269 3.3,-17.878 0,-7.794 -1.993,-13.844 -5.981,-18.153 -3.989,-4.311 -8.825,-6.464 -14.51,-6.464 -7.519,0 -12.377,3.301 -14.577,9.902 -3.575,-6.601 -8.939,-9.902 -16.09,-9.902 -2.293,0 -4.356,0.55 -6.189,1.65 0,-1.375 -0.368,-3.438 -1.1,-6.188 C 33.509,17.008 28.926,10.774 22.417,6.464 15.906,2.155 8.435,0 0,0"
         style="fill:#000000;fill-opacity:1;fill-rule:nonzero;stroke:none"
         id="path3884" />
    </g>
  </g>
</svg>
