<?xml version="1.0" encoding="UTF-8" standalone="no"?>
<!-- Created with Inkscape (http://www.inkscape.org/) -->

<svg
   width="200"
   height="200"
   viewBox="0 0 200 200"
   version="1.1"
   id="svg37630"
   inkscape:version="1.2.1 (9c6d41e410, 2022-07-14)"
   sodipodi:docname="122_lf1.svg"
   xmlns:inkscape="http://www.inkscape.org/namespaces/inkscape"
   xmlns:sodipodi="http://sodipodi.sourceforge.net/DTD/sodipodi-0.dtd"
   xmlns="http://www.w3.org/2000/svg"
   xmlns:svg="http://www.w3.org/2000/svg">
  <sodipodi:namedview
     id="namedview37632"
     pagecolor="#ffffff"
     bordercolor="#000000"
     borderopacity="0.25"
     inkscape:showpageshadow="2"
     inkscape:pageopacity="0.0"
     inkscape:pagecheckerboard="0"
     inkscape:deskcolor="#d1d1d1"
     inkscape:document-units="px"
     showgrid="false"
     inkscape:zoom="0.64693624"
     inkscape:cx="-193.21842"
     inkscape:cy="-44.826674"
     inkscape:window-width="2040"
     inkscape:window-height="460"
     inkscape:window-x="696"
     inkscape:window-y="28"
     inkscape:window-maximized="1"
     inkscape:current-layer="layer1" />
  <defs
     id="defs37627">
    <clipPath
       clipPathUnits="userSpaceOnUse"
       id="clipPath49831">
      <g
         id="g49837">
        <g
           id="g49835">
          <path
             d="M 0,340.157 H 226.772 V 0 H 0 Z"
             id="path49833" />
        </g>
      </g>
    </clipPath>
    <clipPath
       clipPathUnits="userSpaceOnUse"
       id="clipPath49846">
      <g
         id="g49852">
        <g
           id="g49850">
          <path
             d="M 0,340.157 H 226.772 V 0 H 0 Z"
             id="path49848" />
        </g>
      </g>
    </clipPath>
    <clipPath
       clipPathUnits="userSpaceOnUse"
       id="clipPath3810">
      <path
         d="M 0,340.157 H 226.772 V 0 H 0 Z"
         id="path3808" />
    </clipPath>
  </defs>
  <g
     inkscape:label="Layer 1"
     inkscape:groupmode="layer"
     id="layer1">
    <g
       id="g3886"
       transform="matrix(1.3333349,0,0,-1.3333349,134.01535,130.31551)"
       clip-path="none">
      <path
         d="M 0,0 C -7.427,0 -12.332,3.208 -14.715,9.626 -18.2,3.208 -23.654,0 -31.08,0 -38.231,0 -42.633,3.346 -44.283,10.039 -48.684,3.346 -55.423,0 -64.498,0 c -2.66,0 -4.493,0.664 -5.502,1.994 -1.01,1.328 -1.513,2.727 -1.513,4.194 0,1.741 0.551,3.232 1.651,4.47 1.1,1.238 2.888,1.857 5.364,1.857 6.69,0 11.482,1.719 14.37,5.157 2.889,3.438 4.835,8.09 5.845,13.958 l 8.802,0.413 c -1.285,-4.035 -1.925,-7.519 -1.925,-10.452 0,-6.418 2.52,-9.627 7.563,-9.627 3.666,0 6.646,1.284 8.939,3.851 2.291,2.566 4.034,7.289 5.226,14.165 l 8.664,0.413 c -0.092,-0.185 -0.137,-0.413 -0.137,-0.688 -0.643,-2.018 -0.963,-4.493 -0.963,-7.426 0,-6.786 3.116,-10.177 9.352,-10.177 3.026,0 5.545,0.984 7.563,2.957 2.015,1.97 3.025,4.514 3.025,7.632 0,2.383 -0.48,5.179 -1.443,8.39 -0.963,3.208 -2.042,6.05 -3.232,8.525 l 10.039,2.889 c 2.201,-4.311 3.301,-10.269 3.301,-17.878 0,-7.794 -1.994,-13.845 -5.982,-18.154 C 10.521,2.153 5.684,0 0,0"
         style="fill:#f91536;fill-opacity:1;fill-rule:nonzero;stroke:none"
         id="path3888" />
    </g>
  </g>
</svg>
