<?xml version="1.0" encoding="UTF-8" standalone="no"?>
<!-- Created with Inkscape (http://www.inkscape.org/) -->

<svg
   width="200"
   height="200"
   viewBox="0 0 200 200"
   version="1.1"
   id="svg37630"
   inkscape:version="1.2.1 (9c6d41e410, 2022-07-14)"
   sodipodi:docname="123_lf2.svg"
   xmlns:inkscape="http://www.inkscape.org/namespaces/inkscape"
   xmlns:sodipodi="http://sodipodi.sourceforge.net/DTD/sodipodi-0.dtd"
   xmlns="http://www.w3.org/2000/svg"
   xmlns:svg="http://www.w3.org/2000/svg">
  <sodipodi:namedview
     id="namedview37632"
     pagecolor="#ffffff"
     bordercolor="#000000"
     borderopacity="0.25"
     inkscape:showpageshadow="2"
     inkscape:pageopacity="0.0"
     inkscape:pagecheckerboard="0"
     inkscape:deskcolor="#d1d1d1"
     inkscape:document-units="px"
     showgrid="false"
     inkscape:zoom="3.659624"
     inkscape:cx="110.1206"
     inkscape:cy="12.296345"
     inkscape:window-width="2040"
     inkscape:window-height="460"
     inkscape:window-x="696"
     inkscape:window-y="28"
     inkscape:window-maximized="1"
     inkscape:current-layer="layer1" />
  <defs
     id="defs37627">
    <clipPath
       clipPathUnits="userSpaceOnUse"
       id="clipPath49831">
      <g
         id="g49837">
        <g
           id="g49835">
          <path
             d="M 0,340.157 H 226.772 V 0 H 0 Z"
             id="path49833" />
        </g>
      </g>
    </clipPath>
    <clipPath
       clipPathUnits="userSpaceOnUse"
       id="clipPath49846">
      <g
         id="g49852">
        <g
           id="g49850">
          <path
             d="M 0,340.157 H 226.772 V 0 H 0 Z"
             id="path49848" />
        </g>
      </g>
    </clipPath>
    <clipPath
       clipPathUnits="userSpaceOnUse"
       id="clipPath3810">
      <path
         d="M 0,340.157 H 226.772 V 0 H 0 Z"
         id="path3808" />
    </clipPath>
    <clipPath
       clipPathUnits="userSpaceOnUse"
       id="clipPath63168">
      <g
         id="g63172"
         transform="translate(-138.8968,-217.1925)">
        <path
           d="M 0,340.157 H 226.772 V 0 H 0 Z"
           id="path63170" />
      </g>
    </clipPath>
    <clipPath
       clipPathUnits="userSpaceOnUse"
       id="clipPath63174">
      <g
         id="g63178"
         transform="translate(-81.8929,-48.1051)">
        <path
           d="M 0,340.157 H 226.772 V 0 H 0 Z"
           id="path63176" />
      </g>
    </clipPath>
    <clipPath
       clipPathUnits="userSpaceOnUse"
       id="clipPath75594">
      <g
         id="g75598"
         transform="translate(-127.7585,-249.5099)">
        <path
           d="M 0,340.157 H 226.772 V 0 H 0 Z"
           id="path75596" />
      </g>
    </clipPath>
    <clipPath
       clipPathUnits="userSpaceOnUse"
       id="clipPath75588">
      <g
         id="g75592"
         transform="translate(-138.8962,-196.152)">
        <path
           d="M 0,340.157 H 226.772 V 0 H 0 Z"
           id="path75590" />
      </g>
    </clipPath>
  </defs>
  <g
     inkscape:label="Layer 1"
     inkscape:groupmode="layer"
     id="layer1">
    <g
       id="g3956"
       transform="matrix(1.3333294,0,0,-1.3333294,149.32516,58.310494)"
       clip-path="none">
      <path
         d="m 0,0 c -2.018,0 -3.668,0.664 -4.95,1.994 -1.285,1.328 -1.926,3.139 -1.926,5.432 0,2.016 0.641,3.713 1.926,5.089 1.282,1.375 2.932,2.063 4.95,2.063 2.108,0 3.759,-0.688 4.951,-2.063 C 6.142,11.139 6.739,9.442 6.739,7.426 6.739,2.933 4.491,0.458 0,0 m -9.076,16.641 c -3.944,0 -6.144,2.427 -6.602,7.288 0,2.108 0.596,3.851 1.788,5.226 1.191,1.375 2.796,2.063 4.814,2.063 4.308,0 6.646,-2.43 7.013,-7.289 0,-4.493 -2.337,-6.923 -7.013,-7.288 M -18.291,0 c -2.018,0 -3.667,0.664 -4.95,1.994 -1.285,1.328 -1.925,3.139 -1.925,5.432 0,2.016 0.663,3.713 1.994,5.089 1.327,1.375 2.956,2.063 4.881,2.063 2.108,0 3.804,-0.688 5.089,-2.063 1.283,-1.376 1.926,-3.073 1.926,-5.089 0,-4.493 -2.339,-6.968 -7.015,-7.426 m -50.195,-83.064 c -9.72,0 -17.421,3.186 -23.104,9.558 -5.686,6.373 -8.527,14.28 -8.527,23.722 0,8.252 1.513,15.356 4.539,21.317 l 7.426,-1.376 c -1.651,-5.135 -2.476,-10.681 -2.476,-16.64 0,-7.702 2.359,-13.684 7.082,-17.947 4.722,-4.263 10.384,-6.395 16.984,-6.395 6.51,0 12.035,1.582 16.572,4.745 4.539,3.163 7.678,7.357 9.421,12.583 0.732,1.741 1.1,3.391 1.1,4.951 -1.01,9.352 -3.988,19.116 -8.939,29.293 l 9.901,3.713 c 2.567,-5.594 4.814,-12.515 6.739,-20.767 1.008,-3.392 3.529,-5.088 7.564,-5.088 2.291,0 4.308,0.688 6.051,2.063 3.116,2.383 4.675,8.389 4.675,18.016 l -0.137,6.326 8.665,0.412 c 1.282,-4.31 2.062,-7.518 2.338,-9.626 l 0.137,-3.713 v -3.164 c 0,-6.785 3.116,-10.176 9.352,-10.176 3.025,0 5.545,0.984 7.563,2.956 2.016,1.971 3.026,4.515 3.026,7.633 0,2.383 -0.482,5.179 -1.445,8.389 -0.962,3.208 -2.041,6.051 -3.231,8.527 l 10.039,2.888 c 2.2,-4.311 3.301,-10.27 3.301,-17.878 0,-7.794 -1.994,-13.845 -5.983,-18.154 -3.988,-4.31 -8.825,-6.463 -14.508,-6.463 -7.519,0 -12.377,3.3 -14.577,9.901 -3.577,-6.601 -8.94,-9.901 -16.09,-9.901 -2.293,0 -4.357,0.55 -6.19,1.65 0,-1.375 -0.367,-3.438 -1.099,-6.188 -2.661,-8.16 -7.245,-14.393 -13.753,-18.704 -6.511,-4.308 -13.982,-6.463 -22.416,-6.463"
         style="fill:#000000;fill-opacity:1;fill-rule:nonzero;stroke:none"
         id="path3958" />
    </g>
  </g>
</svg>
