<?xml version="1.0" encoding="UTF-8" standalone="no"?>
<!-- Created with Inkscape (http://www.inkscape.org/) -->

<svg
   version="1.1"
   id="svg4262"
   width="400"
   height="400"
   viewBox="0 0 400 400"
   sodipodi:docname="1310_pic.pdf"
   xmlns:inkscape="http://www.inkscape.org/namespaces/inkscape"
   xmlns:sodipodi="http://sodipodi.sourceforge.net/DTD/sodipodi-0.dtd"
   xmlns="http://www.w3.org/2000/svg"
   xmlns:svg="http://www.w3.org/2000/svg">
  <defs
     id="defs4266">
    <clipPath
       clipPathUnits="userSpaceOnUse"
       id="clipPath4282">
      <path
         d="M 0,0 H 158.15794 V -223.48588 H 0 Z"
         clip-rule="evenodd"
         id="path4280" />
    </clipPath>
    <clipPath
       clipPathUnits="userSpaceOnUse"
       id="clipPath4292">
      <path
         d="M 0,-223.48588 H 300 V 223.48588 H 0 Z"
         id="path4290" />
    </clipPath>
  </defs>
  <sodipodi:namedview
     id="namedview4264"
     pagecolor="#ffffff"
     bordercolor="#000000"
     borderopacity="0.25"
     inkscape:showpageshadow="2"
     inkscape:pageopacity="0.0"
     inkscape:pagecheckerboard="0"
     inkscape:deskcolor="#d1d1d1" />
  <g
     id="g4268"
     inkscape:groupmode="layer"
     inkscape:label="1310_pic5"
     transform="matrix(1.3333333,0,0,-1.3333333,0,400)">
    <g
       id="g4270">
      <g
         id="g4272">
        <g
           id="g4274"
           transform="translate(70.92103,261.74294)">
          <g
             id="g4276">
            <g
               id="g4278"
               clip-path="url(#clipPath4282)">
              <g
                 id="g4284"
                 transform="matrix(1.33329,0,0,1.33329,0,-297.97211)">
                <g
                   id="g4286">
                  <g
                     id="g4288" />
                  <g
                     id="g4784">
                    <g
                       clip-path="url(#clipPath4292)"
                       id="g4782">
                      <g
                         transform="translate(17.67817,204.06327)"
                         id="g4300">
                        <g
                           id="g4298">
                          <g
                             id="g4296">
                            <path
                               d="m 0.17845,-34.55 c 0.6739,-2.022 2.7489,1.452 2.9039,1.607 0.1559,0.156 -0.571,-4.303 1.659,-5.651 2.2301,-1.349 5.186,5.081 5.0821,7.725 0,0 0.36295,-9.178 3.00705,-10.162 2.6437,-0.986 5.4961,5.288 5.807,10.162 0,0 0.727,-7.725 5.9629,-8.814 5.2375,-1.089 3.0602,9.54 3.0602,9.54 0,0 1.4613,-5.644 4.2813,-8.003 -0.222,0.957 -0.415,1.935 -0.568,2.932 -0.154,1.022 -0.309,2.134 -0.473,3.311 -0.881,6.327 -1.979,14.2 -4.7985,20.672 C 22.9793,-4.065 18.4805,-0.384 12.3696,0 c 1.2269,-1.104 2.8148,-2.978 2.9839,-5.389 0.17,-2.417 -1.1222,-4.784 -3.8371,-7.033 l -0.4109,-0.145 c -0.1441,-0.068 -0.5402,-0.663 -0.3012,-2.726 0.3352,-2.891 -0.066,-10.932 -2.36685,-13.389 -0.6,-0.64 -1.2172,-0.788 -1.6582,-0.788 -0.034,0 -0.0668,10e-4 -0.0988,0.002 -1.2731,0.064 -2.291,1.243 -3.0789,2.765 -0.6352,-0.839 -1.791,-2.32 -3.4692,-4.304 -0.1601,-1.409 -0.2082,-2.779 0.0461,-3.543 z"
                               style="fill:#ffa750;fill-opacity:1;fill-rule:nonzero;stroke:none"
                               id="path4294" />
                          </g>
                        </g>
                      </g>
                      <g
                         transform="translate(0.7836,173.92027)"
                         id="g4308">
                        <g
                           id="g4306">
                          <g
                             id="g4304">
                            <path
                               d="m 54.1304,-24.639 c 0.012,-0.005 1.07,-0.496 2.496,-0.587 -1.681,2.405 -5.886,9.005 -7.791,17.223 C 46.0164,-5.644 44.5547,0 44.5547,0 c 0,0 2.1777,-10.63 -3.059,-9.541 -5.2371,1.089 -5.9633,8.815 -5.9633,8.815 -0.3109,-4.874 -3.1629,-11.148 -5.8066,-10.163 -2.6453,0.986 -3.0082,10.163 -3.0082,10.163 0.1039,-2.643 -2.852,-9.074 -5.0821,-7.726 -2.2289,1.349 -1.5031,5.808 -1.6589,5.652 -0.1551,-0.155 -2.2289,-3.63 -2.9039,-1.608 -0.254,0.764 -0.2051,2.134 -0.0461,3.544 -1.9961,-2.357 -4.7309,-5.428 -8.22109,-8.982 -7.2071,-7.345 -12.0707,-18.382 -6.1707,-25.698 0.5289,0.964 1.9328,3.592 1.0609,7.7 0,0 2.9918,-5.832 5.2848,-6.809 0.5332,0.859 1.76599,3.509 0.7172,8.469 -0.9852,4.659 2.68779,11.09 2.68779,11.09 -0.0179,-0.066 -1.741,-6.684 0.143,-12.24 1.7621,-5.192 3.5391,-6.633 4.4402,-7.03 0.302,-0.134 0.5508,-0.171 0.7258,-0.175 0.141,0.981 0.4442,3.636 0.3121,7.555 -0.1582,4.699 1.4578,8.554 1.527,8.716 l 1.4289,2.168 -0.2379,-2.485 c -0.0059,-0.052 -0.6129,-5.202 -0.3859,-8.989 0.157,-2.622 -0.0629,-4.617 -0.236,-5.688 1.666,0.382 5.6,2.138 7.566,10.232 l 0.6149,2.532 0.5961,-2.537 c 0.0551,-0.238 1.168,-5.161 -1.0699,-9.023 2.4109,0.881 6.5589,2.933 7.7218,6.878 l 0.7411,2.512 0.4679,-2.576 c 0.0231,-0.125 0.4879,-2.739 0.1871,-5.368 1.1809,0.686 3.1539,2.318 4.286,5.91 l 0.6371,2.024 0.5558,-2.048 c 0.0102,-0.034 0.8481,-3.074 2.7588,-6.456 0.708,1.584 1.93,4.639 1.93,6.838 v 1.589 l 1.079,-1.168 c 0.032,-0.034 2.932,-3.132 6.751,-4.473 l -2.554,4.598 z"
                               style="fill:#f27900;fill-opacity:1;fill-rule:nonzero;stroke:none"
                               id="path4302" />
                          </g>
                        </g>
                      </g>
                      <g
                         transform="translate(37.59452,93.85727)"
                         id="g4316">
                        <g
                           id="g4314">
                          <g
                             id="g4312">
                            <path
                               d="m 12.4645,-24.01 c 0.229,3.077 2.661,19.212 3.286,23.332 -0.046,-0.004 -0.092,-0.011 -0.139,-0.012 h -0.035 c -0.559,0 -1.079,0.228 -1.566,0.69 -0.626,-5.263 -2.935,-23.889 -4.754,-28.485 l -0.058,-0.1441 -0.117,-0.1012 c -0.119,-0.1008 -2.9412,-2.4867 -5.5424,-3.1367 -0.3969,-0.0992 -0.7918,-0.1961 -1.1789,-0.2903 -0.141,-0.0347 -0.2871,-0.0699 -0.4359,-0.107 0.9449,0.0859 1.971,0.1922 2.9589,0.3063 1.3129,0.891 2.4629,1.6609 2.5661,1.7296 0,0 -0.477,-1.8187 -1.168,-2.2859 -1.907,-1.2879 -4.1063,-2.7918 -4.575,-3.173 -0.2781,-0.2258 -0.6629,-0.4571 -1.0711,-0.7008 -0.193,-0.1172 -0.4141,-0.2492 -0.6352,-0.3903 0.934,0.4821 2.0313,1.1071 2.7774,1.5313 0.9316,0.5301 1.7359,0.9871 2.1726,1.182 0.1641,0.0731 0.3473,0.1559 0.543,0.2449 2.773,1.259 4.1325,1.7301 4.8545,1.1879 0.453,-0.3398 0.618,-1.18 0.941,-3.3179 0.053,-0.3539 0.12,-0.7981 0.194,-1.2289 0.207,1.7668 0.348,4.5359 0.376,6.505 0.01,0.727 1.226,1.8297 1.226,1.8297 10e-4,-0.0226 0.005,-0.5769 -0.002,-1.4187 l 0.039,0.0469 c 0.432,-0.3622 0.906,-0.7059 1.297,-0.9508 -0.079,0.184 -0.162,0.3769 -0.241,0.5547 -0.75,1.7152 -1.884,4.3082 -1.713,6.6023 z"
                               style="fill:#dda420;fill-opacity:1;fill-rule:nonzero;stroke:none"
                               id="path4310" />
                          </g>
                        </g>
                      </g>
                      <g
                         transform="translate(14.82774,223.48588)"
                         id="g4324">
                        <g
                           id="g4322">
                          <g
                             id="g4320">
                            <path
                               d="m 11.1184,-26.8936 c 0,0 0.3238,0.377 0.8699,0.751 -0.793,0.417 -1.3371,1.249 -1.3371,2.206 0,1.371 1.1172,2.487 2.4891,2.487 1.373,0 2.489,-1.116 2.489,-2.487 0,-0.614 -0.223,-1.173 -0.5922,-1.607 0.2879,-0.086 0.5821,-0.216 0.884,-0.402 0,0 -0.5347,0.046 -1.3527,-0.028 -0.5652,-0.05 -1.2633,-0.158 -2.0203,-0.379 -0.4629,-0.134 -0.9449,-0.309 -1.4297,-0.541 z m -6.83322,-11.972 0.6601,3.282 0.5637,-3.3 c 0.6121,-3.585 2.2844,-8.675 4.0852,-8.764 0.0969,-0.005 0.398,-0.02 0.78592,0.393 1.8172,1.941 2.4082,9.202 2.0383,12.395 -0.2172,1.869 -0.016,3.084 0.6117,3.711 0.2402,0.241 0.491,0.341 0.6852,0.381 2.2898,1.938 3.382,3.91 3.248,5.863 -0.2242,3.259 -3.8031,5.509 -3.839,5.532 l -0.3672,0.229 c -0.016,10e-4 -0.0309,0.007 -0.0469,0.009 -0.2789,0.057 -0.568,0.098 -0.8449,0.08 -0.2821,0 -0.5391,-0.08 -0.7832,-0.186 -0.245,-0.105 -0.4637,-0.289 -0.6668,-0.503 -0.2102,-0.209 -0.3832,-0.48 -0.54812,-0.754 -0.164,-0.276 -0.3,-0.578 -0.432,-0.871 -0.1211,-0.3 -0.241,-0.595 -0.3391,-0.884 -0.1027,-0.286 -0.1918,-0.565 -0.2758,-0.823 -0.1652,-0.518 -0.2953,-0.961 -0.3902,-1.274 -0.0961,-0.314 -0.1508,-0.496 -0.1508,-0.496 0,0 -0.0511,0.186 -0.0961,0.516 -0.0461,0.327 -0.0859,0.8 -0.0742,1.371 0.016,0.57 0.091,1.24 0.2832,1.95 0.1059,0.354 0.2231,0.72 0.4102,1.079 0.1789,0.361 0.4027,0.718 0.7066,1.037 0.3031,0.313 0.66922,0.608 1.10432,0.763 0.4238,0.161 0.8828,0.229 1.291,0.175 0.4129,-0.032 0.7778,-0.157 1.0989,-0.294 0.0379,-0.013 0.0718,-0.034 0.107,-0.05 1.6601,1.799 4.3621,1.719 6.9781,1.635 3.3207,-0.105 6.4578,-0.205 7.6301,3.232 0.3789,1.113 0.3148,1.927 -0.1973,2.491 -1.707,1.88399 -7.8258,0.95399 -10.039,0.436 l -2.0598,-0.482 c 0,0 0.977,1.20199 1.627,1.63799 4.414,2.956 7.889,6.574 7.4019,8.306 -0.293,1.04 -2.0719,1.088 -3.1051,1.024 -4.7519,-0.298 -7.955,-4.75 -9.5269,-7.595 -0.4899,-1.114 -0.9481,-2.012 -1.161,-2.41899 0,0 -0.68082,1.68499 0.0871,3.07799 1.2387,2.879 1.9868,5.67 1.3348,6.359 -0.275,0.291 -1.0418,0.182 -2.10392,-0.303 -6.4461,-2.936 -4.034,-13.18299 -4.009,-13.28599 0,0 -2.3289,1.802 -2.9898,1.802 h -0.0153 c -0.275,-0.008 -1.2648,-0.327 -2.4507,-4.081 -1.1551,-3.659 -0.1883,-6.237 1.2597,-7.984 0.861,0.029 2.1692,-0.091 3.643,-0.787 2.3832,-1.124 4.5172,-1.952 6.35002,-1.873 l 0.5211,0.046 c 0,0 -4.53282,-3.784 -9.51992,-5.443 -0.3492,-0.705 -2.943,-6.171 -0.9469,-8.861 0.3578,-0.482 0.7008,-0.741 0.9156,-0.694 0.5703,0.128 1.2621,1.755 1.5512,3.194 z"
                               style="fill:#ef1c00;fill-opacity:1;fill-rule:nonzero;stroke:none"
                               id="path4318" />
                          </g>
                        </g>
                      </g>
                      <g
                         transform="translate(26.26842,196.42427)"
                         id="g4332">
                        <g
                           id="g4330">
                          <g
                             id="g4328">
                            <path
                               d="M 0,-0.074 C 0.5617,-0.076 0.8437,0 0.8437,0 0.6738,-0.025 0.5,-0.038 0.3238,-0.046 Z"
                               style="fill:#182a21;fill-opacity:1;fill-rule:nonzero;stroke:none"
                               id="path4326" />
                          </g>
                        </g>
                      </g>
                      <g
                         transform="translate(11.79786,197.89527)"
                         id="g4340">
                        <g
                           id="g4338">
                          <g
                             id="g4336">
                            <path
                               d="m 4.88765,-6.085 0.1391,0.122 c 0,0 3.2621,0.836 7.38405,3.714 0,0 -1.218,0.324 -2.54105,0.752 -1.3219,0.428 -3.7719,1.477 -4.7828,1.497 -0.0063,-0.001 -0.1719,-0.028 -0.4391,-0.089 -0.9269,-0.213 -3.082,-0.841 -4.032,-2.234 -0.4668,-0.684 -0.6692,-1.495 -0.6039,-2.42 1.8129,0.917 6.0949,2.914 8.2371,2.509 l 1.2316,-0.248 -1.3019,-0.395 c -0.7387,-0.201 -2.0098,-0.658 -3.3637,-1.188 -0.1883,-0.256 -1.0711,-1.455 -1.882,-2.462 0.532,0.066 1.1988,0.2 1.9468,0.464 z"
                               style="fill:#ffa750;fill-opacity:1;fill-rule:nonzero;stroke:none"
                               id="path4334" />
                          </g>
                        </g>
                      </g>
                      <g
                         transform="translate(26.10162,201.41527)"
                         id="g4348">
                        <g
                           id="g4346">
                          <g
                             id="g4344">
                            <path
                               d="m 1.6718,-3.163 c -0.7359,0 -1.3347,0.599 -1.3347,1.334 0,0.738 0.5988,1.336 1.3347,1.336 0.1219,0 0.2371,-0.021 0.3493,-0.052 -0.0922,-0.114 -0.15,-0.259 -0.15,-0.416 0,-0.068 0.0136,-0.134 0.0328,-0.196 0,0 0.0968,-0.34 0.439,-0.44 0.0621,-0.018 0.127,-0.032 0.1961,-0.032 0.1578,0 0.3008,0.057 0.416,0.15 0.0297,-0.112 0.052,-0.227 0.052,-0.35 0,-0.735 -0.5992,-1.334 -1.3352,-1.334 z M 1.866,0 C 0.8371,0 0,-0.838 0,-1.867 c 0,-0.872 0.6019,-1.605 1.4109,-1.808 0.4602,0.21 1.0012,0.357 1.593,0.33 0.4422,0.343 0.7289,0.877 0.7289,1.478 C 3.7328,-0.838 2.8961,0 1.866,0 Z"
                               style="fill:#f7c0b3;fill-opacity:1;fill-rule:nonzero;stroke:none"
                               id="path4342" />
                          </g>
                        </g>
                      </g>
                      <g
                         transform="translate(85.25402,214.86543)"
                         id="g4356">
                        <g
                           id="g4354">
                          <g
                             id="g4352">
                            <path
                               d="m 6.258,-2.05616 c 3.111,-1.531 -0.815,-4.653 -4.298,-6.828 0.291,0.105 0.584,0.205 0.88,0.299 l 0.676,0.173 c 0.222,0.062 0.449,0.108 0.679,0.147 0.226,0.041 0.454,0.083 0.679,0.124 0.228,0.038 0.456,0.055 0.684,0.083 0.226,0.022 0.451,0.057 0.678,0.068 0.225,0.005 0.451,0.011 0.674,0.016 0.448,0.024 0.887,-0.014 1.321,-0.032 0.432,-0.01 0.853,-0.076 1.265,-0.132 0.413,-0.045 0.809,-0.142 1.195,-0.223 0.192,-0.041 0.381,-0.082 0.568,-0.122 0.185,-0.053 0.364,-0.107 0.542,-0.158 0.353,-0.115 0.698,-0.201 1.018,-0.327 0.637,-0.245 1.223,-0.458 1.714,-0.715 0.052,-0.025 0.099,-0.048 0.15,-0.072 l 0.501,-0.128 c 0.357,-0.097 0.723,-0.17704 1.074,-0.28904 0.701,-0.226 1.406,-0.443 2.085,-0.73 0.694,-0.253 1.353,-0.589 2.021,-0.897 0.649,-0.351 1.307,-0.685 1.926,-1.087 0.637,-0.373 1.233,-0.811 1.833,-1.238 l 0.868,-0.685 c 0.293,-0.224 0.559,-0.481 0.839,-0.72 0.683,-0.613 1.337,-1.258 1.959,-1.933 0.483,3.916 -4.278,10.94804 -11.797,14.88204 -3.011,1.576 -9.124,3.902 -15.992,1.637 1.892,0.126 4.135,-0.068 6.258,-1.113 z"
                               style="fill:#05b0a1;fill-opacity:1;fill-rule:nonzero;stroke:none"
                               id="path4350" />
                          </g>
                        </g>
                      </g>
                      <g
                         transform="translate(91.90102,169.45427)"
                         id="g4364">
                        <g
                           id="g4362">
                          <g
                             id="g4360">
                            <path
                               d="M 0.347,-1.415 C 0.52,-0.979 0.716,-0.506 0.938,0 L 0,-1.756 c 0,0 0.129,0.132 0.347,0.341 z"
                               style="fill:#182a21;fill-opacity:1;fill-rule:nonzero;stroke:none"
                               id="path4358" />
                          </g>
                        </g>
                      </g>
                      <g
                         transform="translate(98.62002,171.54019)"
                         id="g4372">
                        <g
                           id="g4370">
                          <g
                             id="g4368">
                            <path
                               d="m 2.12,-4.46591 c 1.077,0.104 2.44,0.023 4.132,-0.435 1.404,-0.38 2.368,-0.28 2.648,0.275 0.395,0.784 -0.289,2.481 -1.33,3.303 -1.341,1.059 -4.005,1.962 -7.57,0.726 0.87,-0.757 1.727,-1.96 2.12,-3.869 z"
                               style="fill:#05b0a1;fill-opacity:1;fill-rule:nonzero;stroke:none"
                               id="path4366" />
                          </g>
                        </g>
                      </g>
                      <g
                         transform="translate(67.84302,129.74227)"
                         id="g4380">
                        <g
                           id="g4378">
                          <g
                             id="g4376">
                            <path
                               d="M 0,0 C 0.011,-0.073 0.02,-0.139 0.031,-0.209 0.27,-0.56 0.507,-0.917 0.743,-1.282 Z"
                               style="fill:#182a21;fill-opacity:1;fill-rule:nonzero;stroke:none"
                               id="path4374" />
                          </g>
                        </g>
                      </g>
                      <g
                         transform="translate(57.59602,104.05327)"
                         id="g4388">
                        <g
                           id="g4386">
                          <g
                             id="g4384">
                            <path
                               d="M 0,0 C 5.438,-4.315 6.761,-1.381 6.784,-1.329 6.475,-1.182 6.175,-1.023 5.881,-0.864 5.432,-0.61 5.011,-0.335 4.602,-0.054 3.769,-0.431 2.181,-0.835 0,0 Z"
                               style="fill:#182a21;fill-opacity:1;fill-rule:nonzero;stroke:none"
                               id="path4382" />
                          </g>
                        </g>
                      </g>
                      <g
                         transform="translate(63.78002,108.63627)"
                         id="g4396">
                        <g
                           id="g4394">
                          <g
                             id="g4392">
                            <path
                               d="m 0,-4.362 c 0.073,-0.041 0.145,-0.084 0.219,-0.124 1.13,-0.587 2.382,-1.051 3.636,-1.101 0.622,-0.015 1.249,0.065 1.815,0.29 0.273,0.109 0.507,0.254 0.651,0.414 0.139,0.162 0.2,0.33 0.202,0.564 0.003,0.477 -0.273,1.093 -0.615,1.642 -0.346,0.56 -0.762,1.098 -1.2,1.617 C 4.398,-0.7 4.083,-0.348 3.762,0 3.933,-1.729 3.675,-4.611 0,-4.362 Z"
                               style="fill:#182a21;fill-opacity:1;fill-rule:nonzero;stroke:none"
                               id="path4390" />
                          </g>
                        </g>
                      </g>
                      <g
                         transform="translate(67.85302,112.35027)"
                         id="g4404">
                        <g
                           id="g4402">
                          <g
                             id="g4400">
                            <path
                               d="M 0,-2.354 C 0.527,-2.873 1.05,-3.413 1.55,-3.994 1.562,-4.01 1.576,-4.027 1.59,-4.043 1.753,-3.396 1.896,-1.938 0.75,0 0.956,-0.902 0.97,-1.995 0,-2.354 Z"
                               style="fill:#182a21;fill-opacity:1;fill-rule:nonzero;stroke:none"
                               id="path4398" />
                          </g>
                        </g>
                      </g>
                      <g
                         transform="translate(71.18802,117.23527)"
                         id="g4412">
                        <g
                           id="g4410">
                          <g
                             id="g4408">
                            <path
                               d="M 0,-1.157 C 0.175,-1.456 0.35,-1.755 0.528,-2.054 0.755,-2.431 0.984,-2.808 1.222,-3.178 1.39,-3.441 1.562,-3.706 1.739,-3.95 1.727,-3.753 1.706,-3.549 1.685,-3.35 1.576,-2.474 1.431,-1.557 1.24,-0.688 1.194,-0.458 1.145,-0.229 1.092,0 0.877,-0.526 0.533,-0.946 0,-1.157 Z"
                               style="fill:#182a21;fill-opacity:1;fill-rule:nonzero;stroke:none"
                               id="path4406" />
                          </g>
                        </g>
                      </g>
                      <g
                         transform="translate(70.73102,124.76427)"
                         id="g4420">
                        <g
                           id="g4418">
                          <g
                             id="g4416">
                            <path
                               d="m 0,0 c 0.44,-0.848 0.858,-1.721 1.232,-2.627 0.164,-0.395 0.322,-0.795 0.472,-1.2 -0.128,0.81 -0.289,1.39 -0.289,1.39 z"
                               style="fill:#182a21;fill-opacity:1;fill-rule:nonzero;stroke:none"
                               id="path4414" />
                          </g>
                        </g>
                      </g>
                      <g
                         transform="translate(65.12302,127.47127)"
                         id="g4428">
                        <g
                           id="g4426">
                          <g
                             id="g4424">
                            <path
                               d="M 3.453,-1.07 C 3.25,-0.709 3.045,-0.352 2.837,0 2.546,-2.284 0.668,-1.737 0,-1.465 0.113,-1.629 0.226,-1.79 0.342,-1.96 c 1.569,-2.289 3.219,-5.076 4.933,-8.068 0.26,-0.452 0.525,-0.908 0.79,-1.365 0.534,0.211 0.877,0.631 1.091,1.156 -0.35,1.521 -0.843,3.012 -1.425,4.446 -0.674,1.648 -1.444,3.233 -2.278,4.721 z"
                               style="fill:#326855;fill-opacity:1;fill-rule:nonzero;stroke:none"
                               id="path4422" />
                          </g>
                        </g>
                      </g>
                      <g
                         transform="translate(4.81682,213.95654)"
                         id="g4436">
                        <g
                           id="g4434">
                          <g
                             id="g4432">
                            <path
                               d="m 103.553,-53.3443 c -1.29,1.878 -4.9348,4.85 -10.4188,4.084 l -1.69,-0.236 1.141,1.269 c 0.06,0.065 1.049,1.124 3.338,1.345 -0.392,1.909 -1.249,3.112 -2.12,3.869 -0.21,-0.073 -0.423,-0.151 -0.639,-0.239 0.464,-0.505 0.698,-0.758 0.698,-0.758 0,0 -0.234,0.253 -0.698,0.758 -1.839,-0.75 -3.896,-2.064 -6.125,-4.201 -0.483,-1.022 -0.733,-1.604 -0.733,-1.604 0,0 0.071,0.216 0.204,0.622 0.139,0.405 0.335,1.003 0.622,1.747 0.091,0.24 0.193,0.5 0.3,0.77 -0.218,-0.209 -0.348,-0.341 -0.348,-0.341 l 0.938,1.756 c 0.069,0.16 0.137,0.318 0.213,0.483 0.083,0.185 0.172,0.379 0.262,0.57 0.404,1.095 1.541,3.934 3.489,6.914 1.476,2.263 0.267,3.072 -0.958,3.357 -0.14,-0.058 -0.276,-0.117 -0.409,-0.183 -1.18,-0.57 -2.129,-1.365 -2.855,-2.17 -0.168,-0.191 -0.323,-0.381 -0.471,-0.57 -0.208,-0.31 -0.397,-0.621 -0.569,-0.928 -0.744,-1.343 -1.17,-2.636 -1.463,-3.706 -0.279,-1.077 -0.437,-1.942 -0.516,-2.535 -0.082,-0.593 -0.097,-0.913 -0.097,-0.913 0,0 -0.009,0.32 0.03,0.92 0.041,0.598 0.116,1.482 0.35,2.584 0.065,0.307 0.142,0.632 0.232,0.973 0.016,0.063 0.032,0.132 0.053,0.207 0.073,0.272 0.177,0.631 0.33,1.054 0.181,0.523 0.4,1.067 0.673,1.627 0.685,1.419 1.723,2.964 3.335,4.153 0.326,0.241 0.677,0.463 1.045,0.67 1.532,1.292 3.614,3.483 1.989,4.793 -2.411,1.944 -6.533,1.4 -6.533,1.4 0,0 0.186,0.159 0.497,0.448 -0.485,-0.241 -0.946,-0.493 -1.375,-0.752 -1.327,-0.788 -2.373,-1.65 -3.175,-2.418 -0.795,-0.775 -1.358,-1.448 -1.706,-1.936 -0.182,-0.237 -0.297,-0.437 -0.386,-0.564 l -0.13,-0.196 c 0,0 0.039,0.069 0.115,0.205 0.081,0.132 0.18,0.341 0.344,0.593 0.318,0.51 0.821,1.243 1.59,2.068 0.77,0.823 1.786,1.759 3.098,2.637 0.853,0.582 1.831,1.147 2.922,1.647 2.155,2.26 5.443,6.373 5.128,10.168 -0.28,3.35 -5.54,3.97303 -9.721,3.93203 -0.514,-0.14803 -1.024,-0.30903 -1.525,-0.49903 -2.65,-0.999 -5.095,-2.542 -7.227,-4.446 -1.069,-0.95 -2.051,-2 -2.957,-3.114 -0.899,-1.118 -1.751,-2.284 -2.447,-3.547 0.627,1.298 1.399,2.529 2.261,3.691 0.397,0.531 0.812,1.047 1.243,1.55 0.081,0.149 0.178,0.322 0.297,0.518 0.205,0.338 0.461,0.745 0.785,1.193 0.325,0.446 0.702,0.945 1.156,1.454 0.444,0.518 0.961,1.051 1.541,1.582 0.581,0.528 1.22,1.061 1.93,1.551 0.715,0.48103 1.468,0.96903 2.295,1.35203 0.543,0.272 1.113,0.504 1.693,0.711 3.481,2.175 7.408,5.297 4.299,6.829 -2.123,1.044 -4.368,1.239 -6.259,1.112 -3.662,-1.207 -7.539,-3.72 -11.277,-8.348 -9.296,-11.51603 -10.522,-26.81303 -9.911,-37.61603 0.57,-10.073 2.793,-18.218 3.439,-20.407 0.183,-0.007 0.367,-0.015 0.552,-0.025 0.448,-0.03 0.894,-0.061 1.333,-0.118 0.438,-0.043 0.869,-0.109 1.283,-0.182 0.416,-0.066 0.813,-0.149 1.189,-0.239 0.377,-0.085 0.731,-0.176 1.052,-0.277 0.325,-0.093 0.619,-0.191 0.879,-0.279 0.258,-0.093 0.479,-0.187 0.661,-0.261 0.365,-0.151 0.568,-0.25 0.568,-0.25 0,0 -0.228,-0.005 -0.621,0.008 -0.195,0.008 -0.432,0.014 -0.701,0.037 -0.271,0.007 -0.578,0.016 -0.906,0.041 -0.657,0.036 -1.426,0.079 -2.247,0.123 -0.82,0.049 -1.692,0.102 -2.565,0.154 -0.435,0.028 -0.873,0.055 -1.301,0.082 -0.432,0.029 -0.855,0.05 -1.266,0.084 -0.819,0.05 -1.589,0.112 -2.25,0.17 -0.188,0.016 -0.363,0.032 -0.532,0.048 0.256,-0.111 0.514,-0.227 0.78,-0.349 0.922,-0.431 1.885,-0.935 2.816,-1.494 0.462,-0.286 0.93,-0.563 1.368,-0.873 0.445,-0.298 0.875,-0.602 1.275,-0.92 0.407,-0.309 0.792,-0.614 1.142,-0.93 0.35,-0.309 0.684,-0.599 0.967,-0.895 0.291,-0.288 0.548,-0.561 0.776,-0.802 0.221,-0.246 0.4,-0.477 0.551,-0.66 0.3,-0.37 0.459,-0.591 0.459,-0.591 0,0 -0.236,0.143 -0.627,0.409 -0.195,0.133 -0.43,0.296 -0.697,0.483 -0.275,0.177 -0.586,0.377 -0.913,0.606 -0.325,0.232 -0.702,0.45 -1.081,0.702 -0.377,0.257 -0.788,0.509 -1.208,0.773 -0.212,0.13 -0.419,0.275 -0.639,0.407 -0.218,0.13 -0.44,0.266 -0.661,0.404 -0.439,0.28 -0.897,0.548 -1.35,0.821 -0.45,0.282 -0.915,0.535 -1.361,0.81 -0.451,0.265 -0.895,0.524 -1.326,0.774 -0.865,0.504 -1.672,0.975 -2.364,1.377 -0.347,0.202 -0.667,0.387 -0.946,0.557 -0.16,0.089 -0.302,0.175 -0.434,0.255 l -0.481,-0.052 c -1.035,-0.112 -1.984,0.004 -2.727,0.168 l 2.234,-4.021 -1.338,0.285 c -3.479,0.742 -6.394,3.004 -7.835,4.304 -0.48,-3.189 -2.355,-6.909 -2.447,-7.088 l -0.501,-0.987 -0.5832,0.941 c -1.4492,2.34 -2.3992,4.605 -2.9371,6.084 -2.023,-4.486 -5.3121,-5.457 -5.466,-5.5 l -0.9942,-0.279 0.2192,1.01 c 0.275,1.278 0.2941,2.682 0.2332,3.817 -2.8281,-4.61 -9.1441,-6.046 -9.4481,-6.112 l -1.9972,-0.438 1.414,1.477 c 1.7622,1.837 2.2,4.395 2.2231,6.388 -3.0539,-8.182 -8.3719,-8.222 -8.6262,-8.22 l -0.3769,0.005 c -0.05,-0.357 -0.086,-0.557 -0.0918,-0.587 l -0.0602,-0.322 -0.3019,-0.132 c -0.0872,-0.037 -0.8821,-0.357 -2.0219,0.145 -1.936,0.852 -3.6563,3.466 -5.1172,7.769 -0.0891,0.261 -0.1699,0.524 -0.243,0.786 1,-6.121 -1.3269,-8.748 -1.4308,-8.862 l -0.252,-0.274 -0.3601,0.092 c -1.8379,0.471 -3.318,2.371 -4.3438,4.167 -0.023,-1.648 -0.3402,-2.846 -0.6871,-3.677 0.1609,-0.512 7.3758,-23.021 24.2828,-28.7237 9.791,-3.302 12.6301,-6.499 14.7039,-8.832 1.4742,-1.66 2.4165,-2.711 5.3845,-3.002 -2.399,3.855 -7.0552,9.112 -9.8263,12.555 -1.4449,1.793 -2.1359,3.5857 -2.1359,3.5857 0.4699,-0.4767 11.5162,-11.7607 14.1232,-17.4987 0.614,-1.349 1.261,-2.092 1.824,-2.092 h 0.01 c 0.848,0.014 1.785,1.614 2.106,2.385 l 0.277,0.665 0.618,-0.37 c 0.003,-0.002 0.638,-0.364 1.209,-0.161 0.373,0.133 0.675,0.5 0.896,1.09 0.7,1.866 1.102,3.299 1.241,3.724 l -0.596,0.306 -1.135,0.7 c -0.363,0.257 -0.717,0.523 -1.075,0.784 -0.358,0.264 -0.687,0.56 -1.032,0.839 -0.349,0.277 -0.663,0.588 -0.989,0.886 l -0.485,0.454 -0.461,0.475 c -0.626,0.624 -1.205,1.289 -1.793,1.946 -0.567,0.673 -1.124,1.355 -1.653,2.059 -0.543,0.691 -1.045,1.411 -1.559,2.125 -0.502,0.719 -0.985,1.451 -1.454,2.1907 -0.479,0.735 -0.927,1.488 -1.3832,2.236 -0.45,0.751 -0.8769,1.516 -1.2972,2.283 -0.4238,0.765 -0.834,1.538 -1.2391,2.313 -0.3976,0.778 -0.7797,1.564 -1.1637,2.35 l -0.5621,1.184 -0.539,1.193 c -0.3508,0.8 -0.7078,1.596 -1.036,2.404 -0.666,1.614 -1.2992,3.242 -1.8441,4.9 0.3832,-0.784 0.7781,-1.561 1.1672,-2.338 l 1.1879,-2.323 1.209,-2.309 1.2359,-2.291 c 0.418,-0.761 0.8371,-1.52 1.2711,-2.27 0.4219,-0.757 0.8539,-1.509 1.2941,-2.253 l 0.6672,-1.116 c 0.228,-0.367 0.454,-0.736 0.674,-1.106 0.112,-0.18 0.223,-0.359 0.335,-0.539 1.333,-1.034 3.016,-1.643 4.752,-0.461 0,0 5.6,-4.2087 6.624,0.793 -0.761,0.723 -1.416,1.353 -1.93,1.862 -0.887,0.872 -1.374,1.388 -1.374,1.388 0,0 0.558,-0.437 1.536,-1.202 0.62,-0.488 1.411,-1.105 2.33,-1.832 0.828,-0.157 2.435,-0.172 2.781,1.941 -0.218,0.241 -0.436,0.482 -0.649,0.721 -0.584,0.647 -1.133,1.308 -1.671,1.94 -0.54,0.63 -1.04,1.259 -1.515,1.851 -0.479,0.591 -0.918,1.161 -1.321,1.69 -0.809,1.053 -1.453,1.955 -1.897,2.591 -0.445,0.637 -0.684,1.011 -0.684,1.011 0,0 0.323,-0.304 0.873,-0.851 0.274,-0.275 0.606,-0.608 0.988,-0.99 0.377,-0.384 0.805,-0.816 1.262,-1.295 0.461,-0.477 0.96,-0.991 1.478,-1.546 0.522,-0.55 1.075,-1.127 1.637,-1.733 0.559,-0.609 1.157,-1.217 1.738,-1.86 0.373,-0.401 0.756,-0.806 1.136,-1.209 1.167,0.228 2.577,1.207 1.939,4.739 -0.149,0.254 -0.297,0.507 -0.445,0.752 -0.713,1.173 -1.389,2.235 -2.026,3.15 -0.642,0.912 -1.233,1.685 -1.757,2.291 -0.523,0.604 -0.968,1.053 -1.289,1.341 -0.319,0.287 -0.504,0.427 -0.504,0.427 0,0 0.197,-0.118 0.547,-0.375 0.348,-0.258 0.849,-0.654 1.428,-1.224 1.08,-1.044 2.431,-2.669 3.86,-4.73 0.668,-0.273 2.547,-0.82 2.838,1.465 -0.645,1.094 -1.304,2.14 -1.969,3.123 -0.882,1.298 -1.755,2.503 -2.591,3.593 -1.675,2.178 -3.177,3.916 -4.255,5.112 -0.541,0.595 -0.966,1.063 -1.265,1.375 -0.3,0.311 -0.46,0.475 -0.46,0.475 0,0 0.177,-0.148 0.506,-0.427 0.326,-0.282 0.808,-0.696 1.395,-1.251 1.179,-1.102 2.824,-2.727 4.632,-4.835 0.904,-1.051 1.854,-2.221 2.794,-3.508 0.376,-0.513 0.753,-1.047 1.127,-1.595 -0.011,0.07 -0.02,0.136 -0.031,0.209 l 0.744,-1.282 c 0.317,-0.493 0.633,-0.995 0.937,-1.515 0.413,-0.705 0.82,-1.434 1.207,-2.18 l 1.415,-2.438 c 0,0 0.161,-0.58 0.289,-1.39 0.478,-1.286 0.882,-2.619 1.176,-3.981 1.485,0.987 4.984,3.546 7.215,6.984 -0.12,0.859 -0.214,1.611 -0.287,2.227 -0.144,1.218 -0.2,1.916 -0.2,1.916 0,0 0.793,-2.35 1.762,-6.43 0.502,-2.029 0.932,-4.776 1.693,-7.252 0.192,-0.6177 0.398,-1.2407 0.636,-1.8497 0.238,-0.598 0.503,-1.231 0.826,-1.677 0.038,-0.057 0.076,-0.093 0.112,-0.138 0.02,0.027 0.039,0.054 0.06,0.097 0.06,0.109 0.117,0.246 0.171,0.386 0.206,0.582 0.343,1.262 0.455,1.917 l 0.086,0.516 c 0.029,0.159 0.041,0.3357 0.061,0.5037 0.039,0.34 0.077,0.68 0.116,1.018 0.036,0.339 0.083,0.677 0.112,1.016 0.01,0.338 0.021,0.675 0.033,1.012 0.012,0.336 0.022,0.672 0.034,1.006 0.01,0.332 -0.019,0.663 -0.025,0.993 -0.013,0.33 -0.024,0.659 -0.036,0.984 -0.001,0.325 -0.065,0.644 -0.092,0.964 -0.037,0.318 -0.075,0.634 -0.111,0.946 -0.013,0.158 -0.037,0.313 -0.07,0.465 -0.027,0.153 -0.056,0.307 -0.084,0.458 -0.056,0.303 -0.11,0.604 -0.165,0.901 -0.046,0.3 -0.144,0.583 -0.211,0.869 -0.074,0.286 -0.147,0.568 -0.22,0.845 -0.073,0.277 -0.177,0.539 -0.258,0.804 -0.086,0.264 -0.171,0.524 -0.254,0.78 -0.096,0.25 -0.198,0.493 -0.292,0.732 -0.099,0.241 -0.194,0.475 -0.287,0.704 -0.105,0.223 -0.208,0.441 -0.309,0.655 -0.19,0.432 -0.404,0.825 -0.607,1.196 -0.402,0.74 -0.796,1.364 -1.138,1.867 -0.347,0.5 -0.635,0.885 -0.842,1.137 -0.207,0.253 -0.326,0.382 -0.326,0.382 0,0 0.135,-0.111 0.376,-0.336 0.236,-0.227 0.586,-0.564 0.986,-1.032 0.339,-0.398 0.735,-0.884 1.134,-1.46 -0.005,0.017 -0.008,0.028 -0.008,0.028 0,0 0.023,-0.038 0.06,-0.102 0.054,-0.078 0.108,-0.153 0.164,-0.237 0.239,-0.359 0.496,-0.74 0.729,-1.164 0.121,-0.21 0.244,-0.426 0.371,-0.647 0.1,-0.193 0.197,-0.395 0.295,-0.598 0.219,-0.361 0.457,-0.75 0.714,-1.161 0.362,-0.573 0.767,-1.187 1.211,-1.807 0.225,-0.309 0.462,-0.618 0.721,-0.909 0.257,-0.287 0.527,-0.58 0.806,-0.766 0.133,-0.091 0.279,-0.154 0.33,-0.147 0.048,0.008 0.008,-0.007 0.08,0.061 0.058,0.07 0.13,0.224 0.181,0.395 0.058,0.169 0.103,0.362 0.137,0.562 0.07,0.402 0.109,0.827 0.127,1.268 l 0.016,0.65 -0.021,0.652 c -0.034,0.87 -0.158,1.734 -0.361,2.57 -0.206,0.832 -0.459,1.646 -0.783,2.405 -0.323,0.759 -0.676,1.481 -1.06,2.143 -0.386,0.659 -0.78,1.268 -1.173,1.816 -0.787,1.091 -1.531,1.946 -2.076,2.525 -0.545,0.58 -0.883,0.891 -0.883,0.891 0,0 0.402,-0.223 1.047,-0.707 0.644,-0.482 1.534,-1.225 2.467,-2.263 0.24,-0.267 0.486,-0.553 0.729,-0.86 0.442,-0.293 1.888,-1.208 2.609,-1.077 0.673,0.123 0.915,0.5 0.986,0.654 0.012,0.024 0.022,0.048 0.03,0.071 0.006,0.016 0.011,0.032 0.018,0.048 l -0.492,0.695 c -0.191,0.28 -0.44,0.525 -0.653,0.791 -0.209,0.269 -0.459,0.509 -0.703,0.752 -0.241,0.246 -0.472,0.499 -0.741,0.723 l -0.773,0.696 -0.808,0.663 c -0.262,0.23 -0.556,0.425 -0.828,0.643 -0.277,0.216 -0.556,0.426 -0.845,0.627 -0.286,0.205 -0.566,0.416 -0.856,0.614 l -0.871,0.6 -0.881,0.591 c -0.291,0.201 -0.599,0.378 -0.892,0.577 -0.593,0.391 -1.198,0.762 -1.801,1.146 l -1.823,1.136 c 0.348,-0.098 0.69,-0.209 1.03,-0.327 0.338,-0.122 0.679,-0.24 1.011,-0.379 0.334,-0.134 0.671,-0.262 0.997,-0.414 0.329,-0.146 0.659,-0.291 0.984,-0.448 0.327,-0.154 0.648,-0.313 0.966,-0.484 0.095,-0.05 0.191,-0.1 0.284,-0.15 0.762,0.964 3.809,4.368 8.289,3.491 -0.701,0.5 -1.666,0.952 -2.951,1.098 l -3.972,0.455 3.924,0.774 c 0.338,0.068 8.351,1.584 11.237,-3.409 0.283,-0.491 0.491,-0.68 0.592,-0.747 0.151,0.281 0.266,1.238 -0.242,2.498 -0.512,1.27 -2.26,4.165 -7.51,4.165 -0.137,0 -0.274,-0.002 -0.413,-0.006 0,0 6.307,3.759 12.157,-1.651 0.3168,-0.293 0.4938,-0.459 0.6088,-0.52 0.077,0.491 -0.26,1.911 -1.4488,3.295 -1.477,1.721 -4.965,4.207 -11.728,1.514 l -3.546,-1.414 2.915,2.466 c 0.226,0.193 5.547,4.571 14.0748,1.166 0.103,0.363 0.156,0.891 -0.135,1.421 -0.4738,0.863 -2.2298,2.327 -8.6748,2.434 l -3.227,0.054 3.016,1.15 c 0.19,0.073 4.71,1.725 10.9128,-2.018 1.092,-0.659 1.604,-0.668 1.699,-0.618 0.041,0.088 0.003,0.67 -0.641,1.606 z"
                               style="fill:#088475;fill-opacity:1;fill-rule:nonzero;stroke:none"
                               id="path4430" />
                          </g>
                        </g>
                      </g>
                      <g
                         transform="translate(63.37002,124.37427)"
                         id="g4444">
                        <g
                           id="g4442">
                          <g
                             id="g4440">
                            <path
                               d="M 6.071,-7.466 C 5.25,-5.951 4.456,-4.487 3.702,-3.099 3.094,-2.008 2.508,-0.97 1.938,0 2.577,-3.533 1.166,-4.51 0,-4.739 0.22,-4.975 0.436,-5.21 0.66,-5.443 1.256,-6.088 1.858,-6.732 2.458,-7.345 3.05,-7.964 3.654,-8.568 4.229,-9.176 c 0.288,-0.318 0.594,-0.604 0.837,-0.942 0.183,-0.234 0.359,-0.464 0.524,-0.699 0.897,0.033 1.331,0.672 1.539,1.282 -0.036,0.112 -0.073,0.228 -0.105,0.336 -0.325,0.583 -0.641,1.163 -0.953,1.733 z"
                               style="fill:#326855;fill-opacity:1;fill-rule:nonzero;stroke:none"
                               id="path4438" />
                          </g>
                        </g>
                      </g>
                      <g
                         transform="translate(59.21302,119.31627)"
                         id="g4452">
                        <g
                           id="g4450">
                          <g
                             id="g4448">
                            <path
                               d="M 8.451,-5.729 C 8.2,-5.44 7.902,-5.177 7.618,-4.896 7.033,-4.324 6.379,-3.768 5.764,-3.135 5.138,-2.514 4.524,-1.879 3.91,-1.237 3.529,-0.827 3.153,-0.413 2.781,0 2.435,-2.113 0.828,-2.099 0,-1.942 0.529,-2.36 1.097,-2.813 1.701,-3.3 2.531,-3.966 3.43,-4.69 4.362,-5.479 5.298,-6.265 6.28,-7.1 7.263,-8.01 7.72,-8.434 8.181,-8.869 8.64,-9.32 c 0.97,0.36 0.957,1.452 0.75,2.354 -0.134,0.23 -0.286,0.465 -0.46,0.708 -0.152,0.177 -0.315,0.351 -0.479,0.529 z"
                               style="fill:#326855;fill-opacity:1;fill-rule:nonzero;stroke:none"
                               id="path4446" />
                          </g>
                        </g>
                      </g>
                      <g
                         transform="translate(68.96002,114.83827)"
                         id="g4460">
                        <g
                           id="g4458">
                          <g
                             id="g4456">
                            <path
                               d="M 0,-1.281 C 0.063,-1.373 0.133,-1.464 0.192,-1.56 0.3,-1.725 0.406,-1.887 0.511,-2.048 0.602,-2.218 0.688,-2.385 0.778,-2.55 0.961,-2.872 1.079,-3.218 1.213,-3.535 1.326,-3.851 1.417,-4.159 1.486,-4.457 1.65,-4.716 2.345,-5.725 2.945,-5.398 c 0.059,0.078 0.083,0.209 0.08,0.416 -0.005,0.203 -0.047,0.451 -0.106,0.71 -0.059,0.261 -0.142,0.535 -0.226,0.817 -0.089,0.28 -0.18,0.569 -0.282,0.857 -0.2,0.585 -0.4,1.169 -0.586,1.717 C 1.722,-0.574 1.628,-0.282 1.538,0 1.331,-0.61 0.895,-1.249 0,-1.281 Z"
                               style="fill:#182a21;fill-opacity:1;fill-rule:nonzero;stroke:none"
                               id="path4454" />
                          </g>
                        </g>
                      </g>
                      <g
                         transform="translate(47.27402,117.15727)"
                         id="g4468">
                        <g
                           id="g4466">
                          <g
                             id="g4464">
                            <path
                               d="m 18.446,-6.646 c -1.887,1.844 -3.722,3.511 -5.273,4.964 C 12.521,-1.08 11.923,-0.517 11.376,0 10.353,-5.002 4.754,-0.793 4.754,-0.793 3.016,-1.974 1.333,-1.365 0,-0.332 c 0.344,-0.555 0.69,-1.109 1.051,-1.652 0.239,-0.36 0.47,-0.726 0.715,-1.081 0.246,-0.355 0.49,-0.711 0.729,-1.07 0.496,-0.704 0.983,-1.418 1.509,-2.1 0.505,-0.698 1.057,-1.358 1.585,-2.037 0.551,-0.658 1.097,-1.323 1.686,-1.947 l 0.432,-0.475 0.454,-0.453 c 0.304,-0.304 0.593,-0.623 0.913,-0.904 0.019,-0.018 0.04,-0.036 0.059,-0.054 0.061,-0.053 0.121,-0.105 0.184,-0.161 0.349,-0.306 0.683,-0.583 1.004,-0.838 2.181,-0.835 3.77,-0.431 4.603,-0.054 -0.684,0.472 -1.321,0.97 -1.91,1.471 -0.943,0.803 -1.769,1.626 -2.504,2.407 -1.471,1.561 -2.563,2.971 -3.298,3.974 -0.371,0.5 -0.642,0.909 -0.829,1.184 -0.185,0.277 -0.282,0.425 -0.282,0.425 0,0 0.116,-0.134 0.334,-0.385 0.223,-0.247 0.551,-0.608 0.967,-1.068 0.839,-0.91 2.06,-2.192 3.608,-3.624 0.777,-0.714 1.643,-1.458 2.587,-2.195 0.888,-0.681 1.864,-1.338 2.909,-1.914 3.674,-0.249 3.933,2.633 3.761,4.362 -0.595,0.649 -1.207,1.276 -1.821,1.875 z"
                               style="fill:#326855;fill-opacity:1;fill-rule:nonzero;stroke:none"
                               id="path4462" />
                          </g>
                        </g>
                      </g>
                      <g
                         transform="translate(88.16902,204.79263)"
                         id="g4476">
                        <g
                           id="g4474">
                          <g
                             id="g4472">
                            <path
                               d="m 30.235,-20.7884 c -0.219,1.379 -0.589,2.738 -1.073,4.057 -0.486,1.318 -1.08,2.599 -1.779,3.822 -0.698,1.221 -1.492,2.389 -2.37,3.49104 -0.87,1.107 -1.858,2.119 -2.899,3.064 -0.267,0.229 -0.519,0.477 -0.798,0.691 l -0.826,0.659 c -0.573,0.405 -1.132,0.836 -1.736,1.198 -0.585,0.393 -1.21,0.718 -1.824,1.063 -0.635,0.302 -1.259,0.632 -1.918,0.882 -0.646,0.284 -1.317,0.498 -1.985,0.725 -0.334,0.112 -0.671,0.189 -1.007,0.286 l -0.505,0.137 c -0.169,0.045 -0.351,0.075 -0.526,0.114 l -1.058,0.222 -1.031,0.153 c -0.175,0.025 -0.351,0.056 -0.525,0.077 l -0.527,0.045 c -0.352,0.025 -0.703,0.071 -1.056,0.08 -1.411,0.066 -2.825,-0.016 -4.219,-0.221 -0.869,-0.129 -1.728,-0.32 -2.573,-0.564 4.183,0.041 9.443,-0.581 9.722,-3.931 0.316,-3.796 -2.974,-7.90904 -5.13,-10.16804 0.575,0.263 1.178,0.507 1.814,0.727 1.84,0.645 3.952,1.073 6.215,1.057 2.254,-0.014 4.683,-0.51 6.874,-1.755 0.267,-0.163 0.567,-0.323 0.811,-0.495 l 0.373,-0.259 0.187,-0.13 0.063,-0.045 0.046,-0.035 0.093,-0.072 c 0.496,-0.38 0.982,-0.778 1.453,-1.205 0.942,-0.85 1.817,-1.804 2.588,-2.854 0.761,-1.055 1.438,-2.196 1.934,-3.432 0.505,-1.228 0.844,-2.55 0.905,-3.923 0.006,-0.193 0.004,-0.388 -0.003,-0.584 0.091,-0.189 0.189,-0.366 0.304,-0.52 0.342,-0.471 0.684,-0.519 1.025,-0.298 0.618,1.154 0.967,2.459 1.103,3.789 0.143,1.372 0.078,2.772 -0.142,4.152 z"
                               style="fill:#05b0a1;fill-opacity:1;fill-rule:nonzero;stroke:none"
                               id="path4470" />
                          </g>
                        </g>
                      </g>
                      <g
                         transform="translate(93.31402,181.44427)"
                         id="g4484">
                        <g
                           id="g4482">
                          <g
                             id="g4480">
                            <path
                               d="m 15.234,-10.162 c -0.014,0.81 -0.21,1.667 -0.478,2.485 -0.27,0.822 -0.627,1.618 -1.043,2.369 -0.841,1.496 -1.918,2.843 -3.22,3.795 -1.294,0.955 -2.802,1.487 -4.277,1.509 L 6.147,-0.002 C 6.141,-0.001 6.109,-0.001 6.127,0 L 6.091,-0.001 5.945,-0.005 5.654,-0.013 c -0.198,0 -0.375,-0.019 -0.55,-0.036 C 4.927,-0.063 4.752,-0.079 4.575,-0.113 4.4,-0.145 4.22,-0.161 4.05,-0.204 3.516,-0.311 3.006,-0.469 2.531,-0.667 3.756,-0.952 4.966,-1.761 3.488,-4.024 1.541,-7.005 0.404,-9.843 0,-10.938 c 0.404,0.867 0.872,1.803 1.456,2.777 0.357,0.595 0.75,1.205 1.214,1.807 0.47,0.598 1.009,1.193 1.721,1.689 0.191,0.111 0.372,0.236 0.593,0.321 0.104,0.046 0.209,0.097 0.329,0.123 l 0.175,0.048 0.089,0.023 0.023,0.006 c -0.026,-0.002 0.059,0.009 0.057,0.008 l 0.038,0.005 0.3,0.032 c 0.13,-10e-4 0.266,-0.006 0.398,-0.014 0.252,-0.031 0.486,-0.074 0.711,-0.154 0.909,-0.303 1.625,-0.886 2.277,-1.486 1.243,-1.173 2.28,-2.542 3.366,-3.833 0.346,-0.233 0.646,-0.463 0.9,-0.664 0.362,-0.286 0.696,-0.654 0.982,-1.067 0.007,-0.002 0.016,-0.008 0.023,-0.01 0.136,-0.052 0.2,-0.039 0.259,-0.017 0.009,0.003 0.016,0.006 0.025,0.007 l 0.005,10e-4 c -0.003,-0.002 -0.001,-0.002 0,-10e-4 l 0.006,0.004 c 0.016,0.012 0.066,0.038 0.057,0.037 -0.005,10e-4 -0.009,0 -0.011,-0.003 0.013,0.019 0.052,0.055 0.077,0.112 0.123,0.221 0.175,0.631 0.164,1.025 z"
                               style="fill:#05b0a1;fill-opacity:1;fill-rule:nonzero;stroke:none"
                               id="path4478" />
                          </g>
                        </g>
                      </g>
                      <g
                         transform="translate(90.96902,190.7527)"
                         id="g4492">
                        <g
                           id="g4490">
                          <g
                             id="g4488">
                            <path
                               d="m 6.533,-3.99843 c 1.625,-1.311 -0.458,-3.502 -1.989,-4.793 0.531,0.3 1.097,0.563 1.701,0.766 1.02,0.345 2.123,0.529 3.257,0.59 0.274,0.016 0.548,0.032 0.848,0.019 0.294,-0.007 0.594,-0.003 0.884,-0.039 0.293,-0.03 0.589,-0.048 0.883,-0.109 l 0.444,-0.077 c 0.148,-0.028 0.293,-0.073 0.441,-0.109 0.593,-0.137 1.172,-0.366 1.738,-0.628 0.555,-0.284 1.105,-0.6 1.604,-0.995 0.505,-0.382 0.976,-0.81597 1.404,-1.28897 0.434,-0.468 0.829,-0.97 1.194,-1.493 0.737,-1.036 1.344,-2.166 1.985,-3.2 0.315,-0.507 0.681,-1.005 1.032,-1.232 0.177,-0.113 0.293,-0.12 0.467,-0.084 l 0.031,0.005 h 0.015 c 0.009,0.004 0.009,0.004 0.01,0.004 l 0.079,0.03 0.111,0.043 c 0.016,0.007 0.039,0.014 0.052,0.022 l 0.027,0.019 c 0.035,0.025 0.073,0.047 0.112,0.066 l 0.134,0.107 c 0.348,0.304 0.607,0.786 0.744,1.327 0.142,0.539 0.188,1.127 0.163,1.718 -0.047,1.184 -0.336,2.382 -0.795,3.50697 -0.448,1.134 -1.068,2.197 -1.773,3.184 -0.717,0.982 -1.527,1.886 -2.4,2.709 -0.436,0.411 -0.892,0.796 -1.357,1.164 l -0.087,0.07 -0.043,0.036 c 0.026,-0.018 -0.006,0.005 -0.006,0.005 l -0.023,0.016 -0.185,0.132 -0.369,0.266 c -0.247,0.181 -0.482,0.302 -0.722,0.456 -1.977,1.157 -4.217,1.7 -6.344,1.775 -1.067,0.039 -2.112,-0.034 -3.112,-0.175 -1.002,-0.14 -1.961,-0.356 -2.861,-0.634 -1.216,-0.372 -2.328,-0.829 -3.33,-1.331 C 0.186,-2.43943 0,-2.59843 0,-2.59843 c 0,0 4.122,0.543 6.533,-1.4 z"
                               style="fill:#05b0a1;fill-opacity:1;fill-rule:nonzero;stroke:none"
                               id="path4486" />
                          </g>
                        </g>
                      </g>
                      <g
                         transform="translate(51.29302,94.38327)"
                         id="g4500">
                        <g
                           id="g4498">
                          <g
                             id="g4496">
                            <path
                               d="M 3.403,-0.593 C 3.353,-0.92 3.213,-1.845 3.016,-3.157 l 0.12,0.043 c 0.294,-0.831 2.882,-8.16 3.041,-9.847 0.157,-1.681 -0.145,-4.689 -0.493,-5.794 -0.322,-1.016 -4.282,-5.088 -5.684,-6.506 0.009,-0.1937 0.025,-0.3898 0.05,-0.5879 l 5.004,4.6059 c 0.162,0.597 0.337,1.236 0.528,1.924 0,0 0.752,-1.514 0.648,-1.893 -0.712,-2.63 -0.88,-3.6619 -1.259,-5.517 1.113,2.559 2.608,6.717 2.94,7.959 0.2,0.747 0.153,2.16 0.057,3.344 -0.015,0.014 -0.023,0.022 -0.023,0.022 l 0.021,0.024 c -0.055,0.661 -0.125,1.247 -0.173,1.599 l 0.964,-0.705 0.013,0.014 c 0.05,-0.044 0.1,-0.089 0.15,-0.133 l 0.091,-0.067 c 0,-0.003 0.002,-0.012 0.002,-0.016 0.082,-0.072 0.162,-0.143 0.244,-0.215 -1.291,2.483 -2.834,5.629 -3.129,6.3 C 5.67,-7.56 4.534,-2.496 3.988,0 3.811,-0.213 3.616,-0.415 3.403,-0.593 Z"
                               style="fill:#dda420;fill-opacity:1;fill-rule:nonzero;stroke:none"
                               id="path4494" />
                          </g>
                        </g>
                      </g>
                      <g
                         transform="translate(70.59302,109.32727)"
                         id="g4508">
                        <g
                           id="g4506">
                          <g
                             id="g4504">
                            <path
                               d="m 0,-0.015 c 0.002,0 0.011,-0.001 0.028,-0.003 L 0,0 c 0,-0.005 0,-0.01 0,-0.015 z"
                               style="fill:#182a21;fill-opacity:1;fill-rule:nonzero;stroke:none"
                               id="path4502" />
                          </g>
                        </g>
                      </g>
                      <g
                         transform="translate(22.75702,223.03727)"
                         id="g4516">
                        <g
                           id="g4514">
                          <g
                             id="g4512">
                            <path
                               d="M 4.4328,0 C 4.4328,0 4.316,-1.75 2.7219,-3.967 1.127,-6.184 0,-8.867 0,-11.511 c 0,-0.8107 0.24473,-1.1756 0.59873,-1.19 h 0.04426 c 0.80589,0.0318 2.12355,1.7743 2.46801,4.184 0.5058,3.539 1.866,6.417 1.866,6.417 z"
                               style="mix-blend-mode:multiply;fill:#a91d1a;fill-opacity:1;fill-rule:nonzero;stroke:none"
                               id="path4510" />
                          </g>
                        </g>
                      </g>
                      <g
                         transform="translate(28.3405,221.88927)"
                         id="g4524">
                        <g
                           id="g4522">
                          <g
                             id="g4520">
                            <path
                               d="M 11.1384,-0.29211 C 11.111,-0.36794 9.68136,-4.30786 7.79471,-5.424 c -1.9059,-1.128 -5.3282,-3.189 -5.6,-3.85 -0.18765,-0.45488 -0.90736,-1.5887 -1.50322,-1.61 H 0.65775 c -0.25787,0.0094 -0.48978,0.2371 -0.64124,0.832 C -0.43973,-8.26327 8.69218,-0.05064 10.7427,0 h 0.0372 c 0.2001,-0.00518 0.3256,-0.09623 0.3585,-0.28863 z"
                               style="mix-blend-mode:multiply;fill:#a91d1a;fill-opacity:1;fill-rule:nonzero;stroke:none"
                               id="path4518" />
                          </g>
                        </g>
                      </g>
                      <g
                         transform="translate(22.76412,211.95427)"
                         id="g4532">
                        <g
                           id="g4530">
                          <g
                             id="g4528">
                            <path
                               d="M 6.682,-6.417 5.4757,-7.078 c 0,0 -1.6328,0.078 -1.789,0.078 -0.1547,0 -2.061,-1.012 -2.061,-1.012 0,0 -0.7,-1.283 -0.7,-1.439 0,-0.155 -0.6218,-1.944 -0.6218,-1.944 0,0 -0.29469,0.645 -0.3039,1.57114 L 0,-9.7353 C 0.01108,-8.62363 0.44393,-7.13772 2.2476,-5.873 5.632,-3.5 19.0488,-2.878 20.8367,0 c 0,0 -0.7379,-4.473 -2.877,-4.862 C 15.8207,-5.25 12.632,-5.834 12.632,-5.834 L 9.2089,-6.067 Z"
                               style="mix-blend-mode:multiply;fill:#a91d1a;fill-opacity:1;fill-rule:nonzero;stroke:none"
                               id="path4526" />
                          </g>
                        </g>
                      </g>
                      <g
                         transform="translate(14.44262,206.39327)"
                         id="g4540">
                        <g
                           id="g4538">
                          <g
                             id="g4536">
                            <path
                               d="m 0.1472,0 c 0,0 0.7391,-3.111 2.2942,-4.745 1.54464,-1.62128 6.04066,-4.58509 6.1051,-4.62754 v -2.5e-4 L 2.0914,-7.467 1.4691,-7.544 c 0,0 -1.45402,3.15989 -1.4691,6.04137 v 0.08986 C 0.00256,-0.92738 0.04699,-0.45094 0.1472,0 Z"
                               style="mix-blend-mode:multiply;fill:#a91d1a;fill-opacity:1;fill-rule:nonzero;stroke:none"
                               id="path4534" />
                          </g>
                        </g>
                      </g>
                      <g
                         transform="translate(15.47232,196.32027)"
                         id="g4548">
                        <g
                           id="g4546">
                          <g
                             id="g4544">
                            <path
                               d="m 1.5679,-4.744 c 0,0 4.4328,2.294 4.4328,2.1 0,-0.194 4.3172,2.178 4.3172,2.178 L 11.3267,0 h 0.0021 C 11.3216,-0.05159 11.0243,-2.0927 8.4898,-4.55 5.9226,-7.038 0.9457,-8.827 0.1679,-11.005 0.05203,-11.3293 0.00171,-11.4182 0,-11.3346 v 0.0095 c 0.0097,0.5439 1.5679,6.5811 1.5679,6.5811 z"
                               style="mix-blend-mode:multiply;fill:#a91d1a;fill-opacity:1;fill-rule:nonzero;stroke:none"
                               id="path4542" />
                          </g>
                        </g>
                      </g>
                      <g
                         transform="translate(15.52382,188.29727)"
                         id="g4556">
                        <g
                           id="g4554">
                          <g
                             id="g4552">
                            <path
                               d="m 0.1942,-4.032 c 0,0 0.4668,-0.972 1.4781,-1.089 1.0109,-0.117 2.5656,4.589 2.5656,4.589 0,0 2.3344,-9.645 4.0063,-9.8 1.6718,-0.156 3.9281,9.839 3.9668,10.305 0.0014,0.01705 0.0032,0.02586 0.0053,0.027 h 10e-4 c 0.0576,-0.02959 0.3375,-5.16384 0.3436,-5.27516 V -5.27735 C 12.5464,-5.32781 10.966,-10.8385 10.966,-10.954 c 0,-0.117 -1.7109,-2.334 -1.8281,-2.372 -0.1156,-0.039 -2.4879,2.333 -2.4879,2.333 l -2.334,7.35 -1.6718,-3.267 -0.661,-0.7 c 0,0 -1.9832,2.372 -1.9832,2.489 0,0.117 0.1942,1.089 0.1942,1.089 z"
                               style="mix-blend-mode:multiply;fill:#a91d1a;fill-opacity:1;fill-rule:nonzero;stroke:none"
                               id="path4550" />
                          </g>
                        </g>
                      </g>
                      <g
                         transform="translate(20.73442,198.86127)"
                         id="g4564">
                        <g
                           id="g4562">
                          <g
                             id="g4560">
                            <path
                               d="m 0,-20.78 c 0,0 0.389,-6.028 5.0562,-5.6 4.666,0.428 3.577,17.15 3.577,17.15 0,0 2.8008,2.645 3.3711,3.63 0.1354,0.234 0.1918,0.67287 0.1992,1.20606 v 0.25432 C 12.1817,-2.42986 11.7453,0 11.7453,0 l -0.9344,-4.563 -2.9027,-1.97 -0.675,-1.193 0.0519,-4.77 c 0,0 -0.7781,-6.378 -0.725,-6.638 0.0508,-0.259 -1.4011,-3.318 -1.5558,-3.474 -0.1563,-0.155 -1.4,-0.881 -1.4,-0.881 l -1.7114,0.881 z"
                               style="mix-blend-mode:multiply;fill:#fad6c6;fill-opacity:1;fill-rule:nonzero;stroke:none"
                               id="path4558" />
                          </g>
                        </g>
                      </g>
                      <g
                         transform="translate(29.31602,204.82727)"
                         id="g4572">
                        <g
                           id="g4570">
                          <g
                             id="g4568">
                            <path
                               d="m 0,-0.262 c 0,0 2.8,-3.733 2.8,-3.889 0,-0.156 0.3629,-1.815 0.3629,-1.815 0,0 -0.5699,4.978 -1.348,5.652 C 1.54731,-0.08177 1.24902,-0.00318 0.97283,0 H 0.93747 C 0.42642,-0.00584 0,-0.262 0,-0.262 Z"
                               style="mix-blend-mode:multiply;fill:#fad6c6;fill-opacity:1;fill-rule:nonzero;stroke:none"
                               id="path4566" />
                          </g>
                        </g>
                      </g>
                      <g
                         transform="translate(54.54202,149.21227)"
                         id="g4580">
                        <g
                           id="g4578">
                          <g
                             id="g4576">
                            <path
                               d="M 3.873,-0.776 2.359,-1.166 0,0 2.394,-4.239 4.459,-4.148 Z"
                               style="mix-blend-mode:multiply;fill:#182a21;fill-opacity:0.19;fill-rule:nonzero;stroke:none"
                               id="path4574" />
                          </g>
                        </g>
                      </g>
                      <g
                         transform="translate(3.96022,149.80927)"
                         id="g4588">
                        <g
                           id="g4586">
                          <g
                             id="g4584">
                            <path
                               d="m 44.7748,0 -1.037,-5.133 -1.504,-3.111 -1.7889,2.307 -1.9961,4.796 -1.5039,-2.955 -3.811,-3.682 c 0,0 0.3629,0.752 0.4149,0.908 0.0519,0.155 0,2.618 0,2.618 l -0.9602,1.4 -1.866,-2.592 -3.0328,-1.478 -3.993,-2.022 c 0,0 0.3891,1.166 0.3891,1.348 0,0.149 0.9859,2.342 1.3328,3.108 l -0.1918,-0.075 -0.0301,2.524 -0.2039,1.313 -0.648,-1.97 -2.7742,-4.408 -3.293,-2.333 -1.6328,0.026 -1.141,1.504 -0.4403,-2.826 -0.3898,-0.156 -2.4879,1.141 c 0,0 -3.1633,5.315 -3.1891,5.393 -0.0261,0.077 -0.7519,1.892 -0.7519,1.892 l -1.011,0.285 0.1028,-5.574 -1.218,-3.344 -1.5809,0.285 -3.1628,4.848 c 0,0 -0.7782,-4.537 -0.7782,-4.641 0,-0.059 -0.3218,-0.634 -0.5968,-1.116 l 2.8519,-6.013 c 0,0 1.3219,3.266 1.4777,4.277 0.1551,1.012 3.3442,-5.133 5.7563,-5.6 2.4109,-0.466 2.1769,3.034 2.1769,3.034 0,0 3.1891,-2.8 4.3559,-2.8 1.1672,0 3.8891,5.6 3.8891,5.6 0,0 -0.9328,-4.278 -1.4782,-5.056 -0.5437,-0.778 6.2231,1.245 9.4891,5.289 l -0.4668,-2.878 c 0,0 9.2559,3.423 11.3559,7.311 l 3.111,-4.51 c 0,0 3.734,6.921 3.734,7.622 0,0.7 4.433,-2.178 4.978,-2.178 0.544,0 0.311,2.722 0.311,2.722 l 1.09,0.048 -4.72,1.637 z"
                               style="fill:#088475;fill-opacity:1;fill-rule:nonzero;stroke:none"
                               id="path4582" />
                          </g>
                        </g>
                      </g>
                      <g
                         transform="translate(0,159.40227)"
                         id="g4596">
                        <g
                           id="g4594">
                          <g
                             id="g4592">
                            <path
                               d="m 5.33482,-15.556 3.1629,-4.848 1.58078,-0.285 1.2192,3.344 -0.1039,5.574 1.0109,-0.285 c 0,0 0.7258,-1.815 0.7519,-1.893 0.0258,-0.077 3.1891,-5.392 3.1891,-5.392 l 2.4891,-1.141 0.3886,0.155 0.4403,2.827 1.1418,-1.504 1.6332,-0.026 3.2918,2.333 2.7742,4.408 0.6488,1.97 0.2039,-1.313 -0.0488,4.217 0.1559,4.9 c 0,0 -4.3559,-10.189 -7.545,-10.941 -3.189,-0.752 -1.2437,5.211 -1.2437,5.211 L 22.0305,0 c 0,0 -5.4957,-5.575 -5.5219,-7.648 -0.0262,-2.075 0.2332,-5.73 -0.3371,-6.171 -0.5699,-0.441 -3.759,7.181 -3.8367,8.582 -0.0782,1.4 0.1808,3.966 0.1808,3.966 0,0 -3.83708,-4.225 -3.18788,-7.648 0.6481,-3.422 -0.2601,-7.207 -0.6492,-7.259 -0.3879,-0.052 -4.407,6.585 -4.407,6.585 0,0 -0.6231,-5.47 -1.3219,-5.963 -0.7,-0.493 -1.3738,8.711 -1.3738,8.711 0,0 -1.9711,-5.444 -1.5043,-7.389 0.4672,-1.944 2.9551,-7.441 2.9551,-7.441 l 0.9082,0.415 0.025,-0.053 c 0.2757,0.482 0.5968,1.057 0.5968,1.116 0,0.104 0.7782,4.641 0.7782,4.641 z"
                               style="fill:#f27900;fill-opacity:1;fill-rule:nonzero;stroke:none"
                               id="path4590" />
                          </g>
                        </g>
                      </g>
                      <g
                         transform="translate(27.65702,154.52727)"
                         id="g4604">
                        <g
                           id="g4602">
                          <g
                             id="g4600">
                            <path
                               d="m 29.245,-6.481 1.513,0.38974 v 0.00598 l -0.035,0.20028 -1.737,1.763 -4.616,1.815 2.905,-4.667 c 0,0 -6.637,3.5 -7.882,5.549 0,0 -0.493,-5.549 -2.8523,-8.012 0,0 -1.7372,6.404 -1.8403,8.349 0,0 -2.1258,-5.238 -4.7449,-6.871 L 9.1254,0 c 0,0 -2.9289,-7.803 -5.859,-8.607 l -1.5449,-0.6 c -0.3461,-0.765 -1.3332,-2.958 -1.3332,-3.107 0,-0.1786 -0.37435,-1.3058 -0.3883,-1.3478 v -0.001 l 3.9926,2.0218 3.0328,1.478 1.8672,2.593 0.959,-1.4 c 0,0 0.0519,-2.463 0,-2.618 -0.052,-0.156 -0.4152,-0.908 -0.4152,-0.908 l 3.8113,3.682 1.5039,2.955 1.9961,-4.796 1.7883,-2.307 1.505,3.11 1.036,5.134 3.137,-3.215 4.722,-1.637 0.343,0.016 -2.393,4.24 z"
                               style="mix-blend-mode:multiply;fill:#ed7534;fill-opacity:0.57001;fill-rule:nonzero;stroke:none"
                               id="path4598" />
                          </g>
                        </g>
                      </g>
                      <g
                         transform="translate(9.76762,132.69827)"
                         id="g4612">
                        <g
                           id="g4610">
                          <g
                             id="g4608">
                            <path
                               d="m 0,-6.015 c 0,0 7.3633,-6.481 14.8301,-9.696 7.466,-3.215 3.7851,2.488 3.7851,2.488 l -3.9922,7.727 c 0,0 10.6289,-8.193 14.311,-8.66 C 32.6152,-14.622 28.5711,0 28.5711,0 c 0,0 7.1031,-15.037 7.9853,-16.178 0.882,-1.141 7.519,-9.904 7.519,-9.904 0,0 3.837,-3.681 3.94,-3.94 0.104,-0.26 0.882,-1.297 0.882,-1.556 0,-0.259 -0.934,-1.918 -1.245,-2.333 -0.311,-0.415 0.415,-1.141 -3.163,-0.415 -3.577,0.726 -5.755,0.985 -6.17,1.296 -0.415,0.311 -7.5702,6.119 -7.5702,6.119 0,0 -6.534,2.437 -6.8973,2.437 -0.3629,0 -9.5398,3.267 -9.5398,3.267 l -6.8969,5.081 -6.3781,7.415 z"
                               style="fill:#088475;fill-opacity:1;fill-rule:nonzero;stroke:none"
                               id="path4606" />
                          </g>
                        </g>
                      </g>
                      <g
                         transform="translate(41.34572,141.15027)"
                         id="g4620">
                        <g
                           id="g4618">
                          <g
                             id="g4616">
                            <path
                               d="m 0,-14.13 c 0,0 6.7673,-13.922 8.1673,-15.789 1.4,-1.866 5.989,-6.845 6.066,-7.039 0.078,-0.194 4.356,-3.344 4.356,-3.344 h 2.333 c 0,0 1.711,0.272 1.75,0.427 0.038,0.156 0.933,1.361 0.933,1.361 l 1.438,-0.155 2.957,-0.233 c 0,0 0.583,0.078 0.739,0.35 0.156,0.272 0.739,0.738 0.739,0.738 0,0 0.232,0.74 0.039,1.012 -0.195,0.272 -0.117,0.894 -0.272,1.204 -0.156,0.312 -0.856,1.596 -1.089,1.75 -0.234,0.157 0.583,2.218 0.583,2.218 0,0 0.068,0.34 0.116,0.331 0.049,-0.01 1.255,-0.556 1.284,-0.584 0.028,-0.029 0.788,-0.097 0.788,-0.097 0,0 0.495,1.973 0.427,2.1 -0.068,0.125 -0.417,0.991 -0.457,1.031 -0.039,0.038 1.226,0.485 1.226,0.485 0,0 0.252,1.313 0.204,1.372 -0.049,0.058 1.04,8.194 1.04,8.194 l 5.989,1.479 1.269,-2.489 c 0,0 0.39,-2.749 0.468,-2.878 0.076,-0.129 0.648,-3.473 0.726,-3.837 0.077,-0.362 1.452,-3.396 1.53,-3.707 0.077,-0.311 1.218,-1.011 1.218,-1.011 l 0.7,2.643 0.337,8.375 -0.83,4.097 0.518,-0.182 1.608,-1.451 1.038,-0.364 0.725,1.245 -0.286,6.248 -1.995,3.682 -0.519,1.322 2.178,-1.089 1.141,-0.078 1.244,0.752 -0.233,1.322 L 45.0343,0 c 0,0 3.007,-4.511 2.463,-4.667 -0.545,-0.156 -4.304,3.189 -7.182,3.862 0,0 7.674,-7.102 5.497,-10.602 -2.178,-3.501 -5.367,3.5 -5.367,3.5 0,0 5.405,-7.778 3.344,-14.623 -2.061,-6.844 -5.329,15.05 -5.329,15.05 0,0 -2.604,-3.111 -5.599,-2.644 -2.994,0.467 -14.506,8.166 -14.506,8.166 l 7.39,-8.866 c 0,0 4.161,-9.8 3.344,-10.15 -0.817,-0.35 -6.65,7.583 -6.65,7.583 0,0 5.211,-9.644 3.811,-10.15 -1.4,-0.507 -9.645,7.661 -9.645,7.661 0,0 5.29,-8.244 4.473,-8.984 -0.817,-0.738 -5.289,2.645 -5.289,2.645 0,0 5.133,-6.416 5.872,-8.711 0.739,-2.294 -9.333,3.072 -9.333,3.072 l -3.889,5.833 c 0,0 0.233,-2.839 -1.011,-1.982 C 6.1833,-23.152 0,-14.13 0,-14.13 Z"
                               style="fill:#05b0a1;fill-opacity:1;fill-rule:nonzero;stroke:none"
                               id="path4614" />
                          </g>
                        </g>
                      </g>
                      <g
                         transform="translate(63.74602,205.80927)"
                         id="g4628">
                        <g
                           id="g4626">
                          <g
                             id="g4624">
                            <path
                               d="M 0,-23.955 0.312,-43.4 c 0,0 3.733,-9.644 3.733,-10.266 0,-0.623 2.8,-5.445 2.8,-5.445 0,0 9.8,-1.712 12.6,-3.112 0.223,-0.1115 0.4558,-0.1667 0.6955,-0.174 h 0.1104 c 2.7571,0.0822 6.3501,6.242 6.3501,6.242 l 4.977,8.4 4.821,1.555 -4.354,6.377 3.111,3.112 c 0,0 -8.4,-2.022 -12.6,-12.444 0,0 2.178,20.455 7.7,24.189 0,0 -8.089,-5.289 -10.967,-17.034 -2.877,-11.744 -2.178,14.001 5.756,20.067 0,0 -5.678,0 -9.567,-10.111 -3.889,-10.111 0.778,14.234 16.489,16.645 0,0 -19.211,1.322 -22.478,-20.924 0,0 -0.7,-1.632 -0.778,1.324 -0.077,2.955 1.634,14.466 8.867,19.055 0,0 -7.622,-1.322 -10.733,-14 0,0 3.2655,25.89574 17.4185,29.944 L 24.1351,0 C 22.8352,-0.02866 12.2555,-0.69287 7.078,-14.623 1.556,-29.477 1.867,-31.111 0,-23.955 Z"
                               style="mix-blend-mode:multiply;fill:#182a21;fill-opacity:0.19;fill-rule:nonzero;stroke:none"
                               id="path4622" />
                          </g>
                        </g>
                      </g>
                      <g
                         transform="translate(13.85122,195.64027)"
                         id="g4636">
                        <g
                           id="g4634">
                          <g
                             id="g4632">
                            <path
                               d="M 1.8668,-1.128 1.1476,-3.014 0,-4.78238 v -5.9e-4 l 3.3449,0.27197 2.3137,1.089 c 0,0 -2.47,0.369 -1.595,1.283 0.875,0.914 3.986,1.633 4.6282,1.75 C 9.3336,-0.273 9.9355,0 9.9355,0 H 9.45931 C 8.34963,-0.00316 5.61969,-0.03001 4.7449,-0.214 3.6367,-0.447 1.8668,-1.128 1.8668,-1.128 Z"
                               style="mix-blend-mode:multiply;fill:#dda420;fill-opacity:1;fill-rule:nonzero;stroke:none"
                               id="path4630" />
                          </g>
                        </g>
                      </g>
                      <g
                         transform="translate(12.15942,197.52627)"
                         id="g4644">
                        <g
                           id="g4642">
                          <g
                             id="g4640">
                            <path
                               d="m 0,-4.006 c 0,0 0.1097,2.956 4.5437,4.006 L 5.289,-0.175 c 0,0 -3.3062,-0.662 -5.289,-3.831 z"
                               style="fill:#ffffff;fill-opacity:1;fill-rule:nonzero;stroke:none"
                               id="path4638" />
                          </g>
                        </g>
                      </g>
                      <g
                         transform="translate(15.69842,210.33111)"
                         id="g4652">
                        <g
                           id="g4650">
                          <g
                             id="g4648">
                            <path
                               d="m 0,-4.63784 c 0,0 1.536,4.472 2.2559,4.627 0.7191,0.156 3.091,-1.419 2.7801,-1.671 -0.311,-0.254 -1.75,0.039 -2.411,0.252 -0.6609,0.214 -1.1281,-4.822 -2.625,-3.208 z"
                               style="fill:#c83e45;fill-opacity:1;fill-rule:nonzero;stroke:none"
                               id="path4646" />
                          </g>
                        </g>
                      </g>
                      <g
                         transform="translate(20.81212,221.70227)"
                         id="g4660">
                        <g
                           id="g4658">
                          <g
                             id="g4656">
                            <path
                               d="m 0,-8.556 c 0,0 0,6.611 4.0969,8.556 0,0 0.6742,-0.415 -0.1039,-1.219 C 3.2149,-2.022 1.7891,-4.304 1.0109,-7.181 0.2328,-10.059 0,-8.556 0,-8.556 Z"
                               style="fill:#c83e45;fill-opacity:1;fill-rule:nonzero;stroke:none"
                               id="path4654" />
                          </g>
                        </g>
                      </g>
                      <g
                         transform="translate(28.08482,222.84327)"
                         id="g4668">
                        <g
                           id="g4666">
                          <g
                             id="g4664">
                            <path
                               d="M 0,-6.145 C 0,-6.145 3.8886,0 9.0218,0 9.0218,0 9.45,-0.701 6.8449,-1.439 4.2386,-2.179 1.6718,-5.912 1.0886,-6.262 0.5047,-6.612 0,-6.145 0,-6.145 Z"
                               style="fill:#c83e45;fill-opacity:1;fill-rule:nonzero;stroke:none"
                               id="path4662" />
                          </g>
                        </g>
                      </g>
                      <g
                         transform="translate(31.59039,212.86966)"
                         id="g4676">
                        <g
                           id="g4674">
                          <g
                             id="g4672">
                            <path
                               d="m 0.88893,-0.60439 c 0,0 7.9367,1.249 8.8668,0.156 0.66087,-0.778 -8.634,-1.284 -9.4891,-0.856 -0.8558,0.428 0.6223,0.7 0.6223,0.7 z"
                               style="fill:#c83e45;fill-opacity:1;fill-rule:nonzero;stroke:none"
                               id="path4670" />
                          </g>
                        </g>
                      </g>
                      <g
                         transform="translate(3.62302,174.07627)"
                         id="g4684">
                        <g
                           id="g4682">
                          <g
                             id="g4680">
                            <path
                               d="M 15.634,0 C 15.634,0 3.1887,-13.223 1.8668,-15.711 0.545,-18.2 0,-21.545 0,-21.545 c 0,0 2.0231,-2.489 2.7219,0.545 0.7012,3.033 3.952,7.165 6.0668,9.333 2.5347,2.59732 7.6995,7.36181 7.7222,10.13281 v 0.03651 C 16.5058,-0.88259 16.2424,-0.3679 15.634,0 Z"
                               style="fill:#ffffff;fill-opacity:0.36999;fill-rule:nonzero;stroke:none"
                               id="path4678" />
                          </g>
                        </g>
                      </g>
                      <g
                         transform="translate(48.76402,94.05527)"
                         id="g4692">
                        <g
                           id="g4690">
                          <g
                             id="g4688">
                            <path
                               d="m 2.32,-1.814 c 0,0 0.985,-2.074 0.311,-5.237 C 1.957,-10.214 0.402,-26.2361 0.506,-27.2732 0.609,-28.3111 0,-31.3834 0,-31.5392 0,-31.6943 0.543,-36.399 0.543,-36.399 l -0.27096,-1.7899 h 1e-5 l 1.20495,7.1555 2.178,-1.05 0.117,1.4781 -2.061,4.7832 1.011,6.4171 1.789,13.65 1.049,5.43881 v 0.0053 L 2.69123,0 H 2.6818 Z"
                               style="mix-blend-mode:multiply;fill:#dda420;fill-opacity:1;fill-rule:nonzero;stroke:none"
                               id="path4686" />
                          </g>
                        </g>
                      </g>
                      <g
                         transform="translate(37.18465,61.89497)"
                         id="g4700">
                        <g
                           id="g4698">
                          <g
                             id="g4696">
                            <path
                               d="m 0.37836,-5.3278 h 0.00115 l 0.38372,0.18175 1.01487,0.48021 1.43689,0.67892 1.65065,0.77827 1.65613,0.77827 1.45334,0.67892 1.04229,0.48021 0.42296,0.18215 0.5295,0.03845 0.44254,0.03845 -0.1172,0.62269 L 9.36136,0 8.43351,-0.36738 6.9524,-1.04581 5.23999,-1.86678 3.61822,-2.66179 2.40906,-3.26237 1.93446,-3.5 0.26266,-4.3563 0,-4.82759 Z"
                               style="mix-blend-mode:multiply;fill:#dda420;fill-opacity:1;fill-rule:evenodd;stroke:none"
                               id="path4694" />
                          </g>
                        </g>
                      </g>
                      <g
                         transform="translate(38.73012,63.17737)"
                         id="g4708">
                        <g
                           id="g4706">
                          <g
                             id="g4704">
                            <path
                               d="m 0,-1.9828 c 0,0 4.239,0.116 4.239,0.2332 0,0.11574 2.06211,1.72052 2.09949,1.7496 L 6.33687,0 C 6.20639,-0.02457 0.11594,-1.17554 0,-1.9828 Z"
                               style="mix-blend-mode:multiply;fill:#dda420;fill-opacity:1;fill-rule:nonzero;stroke:none"
                               id="path4702" />
                          </g>
                        </g>
                      </g>
                      <g
                         transform="translate(50.35902,73.98927)"
                         id="g4716">
                        <g
                           id="g4714">
                          <g
                             id="g4712">
                            <path
                               d="M 0.543,-6.4557 6.415,-1.595 6.688,0 0,-5.3287 Z"
                               style="mix-blend-mode:multiply;fill:#dda420;fill-opacity:1;fill-rule:nonzero;stroke:none"
                               id="path4710" />
                          </g>
                        </g>
                      </g>
                      <g
                         transform="translate(56.03602,82.54427)"
                         id="g4724">
                        <g
                           id="g4722">
                          <g
                             id="g4720">
                            <path
                               d="M 0,-15.3997 2.139,-12.017 4.122,-4.589 3.928,-3.305 5.444,-3.811 5.056,-2.489 3.733,-0.35 3.461,0 2.917,-1.439 c 0,0 -0.389,-1.283 -0.195,-2.177 C 2.917,-4.511 0,-15.3997 0,-15.3997 Z"
                               style="mix-blend-mode:multiply;fill:#dda420;fill-opacity:1;fill-rule:nonzero;stroke:none"
                               id="path4718" />
                          </g>
                        </g>
                      </g>
                      <g
                         transform="translate(54.13002,95.26127)"
                         id="g4732">
                        <g
                           id="g4730">
                          <g
                             id="g4728">
                            <path
                               d="m 1.789,-0.544 c 0,0 -0.661,-2.139 -0.544,-3.345 0.116,-1.205 2.449,-7.622 2.449,-8.555 0,-0.933 -0.894,-3.461 -0.894,-3.461 0,0 -2.722,11.199 -2.761,11.394 C 0,-4.316 0,-2.022 0,-2.022 L 1.478,0 Z"
                               style="mix-blend-mode:multiply;fill:#dda420;fill-opacity:1;fill-rule:nonzero;stroke:none"
                               id="path4726" />
                          </g>
                        </g>
                      </g>
                      <g
                         transform="translate(26.92732,197.2808)"
                         id="g4740">
                        <g
                           id="g4738">
                          <g
                             id="g4736">
                            <path
                               d="m 0,-0.63553 c 0,0 2.1782,0.953 3.5969,0.525 C 5.0168,-0.53853 0,-0.63553 0,-0.63553 Z"
                               style="fill:#c83e45;fill-opacity:1;fill-rule:nonzero;stroke:none"
                               id="path4734" />
                          </g>
                        </g>
                      </g>
                      <g
                         transform="translate(27.97702,201.00127)"
                         id="g4748">
                        <g
                           id="g4746">
                          <g
                             id="g4744">
                            <path
                               d="M 1.05,-0.525 C 1.05,-0.815 0.8152,-1.05 0.525,-1.05 0.2351,-1.05 0,-0.815 0,-0.525 0,-0.235 0.2351,0 0.525,0 0.8152,0 1.05,-0.235 1.05,-0.525 Z"
                               style="fill:#ffffff;fill-opacity:1;fill-rule:nonzero;stroke:none"
                               id="path4742" />
                          </g>
                        </g>
                      </g>
                      <g
                         transform="translate(23.23242,204.76268)"
                         id="g4756">
                        <g
                           id="g4754">
                          <g
                             id="g4752">
                            <path
                               d="m 0,-5.8424 c 0,0 0.7391,5.425 2.7422,5.775 2.0027,0.35 2.5469,-0.777 2.5469,-0.777 0,0 -1.4781,0.485 -2.625,-0.156 C 1.7102,-1.5344 0,-5.8424 0,-5.8424 Z"
                               style="fill:#c83e45;fill-opacity:1;fill-rule:nonzero;stroke:none"
                               id="path4750" />
                          </g>
                        </g>
                      </g>
                      <g
                         transform="translate(27.06052,200.30027)"
                         id="g4764">
                        <g
                           id="g4762">
                          <g
                             id="g4760">
                            <path
                               d="m 0,-0.713 c 0,-0.393 0.3204,-0.713 0.7133,-0.713 0.393,0 0.7129,0.32 0.7129,0.713 0,0.082 -0.0172,0.159 -0.0422,0.232 C 1.0422,-0.382 0.9454,-0.042 0.9454,-0.042 0.8723,-0.017 0.7942,0 0.7133,0 0.3204,0 0,-0.32 0,-0.713 Z"
                               style="fill:#271c12;fill-opacity:1;fill-rule:nonzero;stroke:none"
                               id="path4758" />
                          </g>
                        </g>
                      </g>
                      <g
                         transform="translate(25.47932,202.03727)"
                         id="g4772">
                        <g
                           id="g4770">
                          <g
                             id="g4768">
                            <path
                               d="M 3.6258,-3.966 C 3.034,-3.94 2.4937,-4.087 2.034,-4.297 c -0.8102,0.204 -1.4121,0.936 -1.4121,1.808 0,1.029 0.8371,1.867 1.8668,1.867 1.0293,0 1.866,-0.838 1.866,-1.867 0,-0.601 -0.286,-1.135 -0.7289,-1.477 z m 0.7601,-0.13 c 0.368,0.434 0.5918,0.995 0.5918,1.607 C 4.9777,-1.116 3.8609,0 2.4887,0 1.1168,0 0,-1.116 0,-2.489 0,-3.445 0.543,-4.277 1.3367,-4.693 0.7906,-5.067 0.4668,-5.445 0.4668,-5.445 c 0.4852,0.232 0.9672,0.407 1.4301,0.542 0.7558,0.22 1.4551,0.329 2.0199,0.379 0.8172,0.073 1.3531,0.027 1.3531,0.027 -0.3019,0.187 -0.5972,0.316 -0.884,0.401 z"
                               style="fill:#271c12;fill-opacity:1;fill-rule:nonzero;stroke:none"
                               id="path4766" />
                          </g>
                        </g>
                      </g>
                      <g
                         transform="translate(26.43832,200.92227)"
                         id="g4780">
                        <g
                           id="g4778">
                          <g
                             id="g4776">
                            <path
                               d="m 2.618,-0.986 c -0.1141,-0.092 -0.2579,-0.15 -0.4161,-0.15 -0.0679,0 -0.1328,0.014 -0.1961,0.033 0.0262,-0.073 0.0422,-0.151 0.0422,-0.232 0,-0.393 -0.3199,-0.713 -0.7129,-0.713 -0.3929,0 -0.7132,0.32 -0.7132,0.713 0,0.393 0.3203,0.713 0.7132,0.713 0.0821,0 0.159,-0.017 0.2321,-0.042 -0.0192,0.062 -0.0321,0.127 -0.0321,0.196 0,0.158 0.0571,0.301 0.1489,0.416 C 1.5719,-0.022 1.457,0 1.3351,0 0.5988,0 0,-0.599 0,-1.335 c 0,-0.736 0.5988,-1.336 1.3351,-1.336 0.736,0 1.3348,0.6 1.3348,1.336 0,0.121 -0.0211,0.237 -0.0519,0.349 z"
                               style="fill:#271c12;fill-opacity:1;fill-rule:nonzero;stroke:none"
                               id="path4774" />
                          </g>
                        </g>
                      </g>
                    </g>
                  </g>
                </g>
              </g>
            </g>
          </g>
        </g>
      </g>
    </g>
  </g>
</svg>
