<?xml version="1.0" encoding="UTF-8" standalone="no"?>
<!-- Created with Inkscape (http://www.inkscape.org/) -->

<svg
   version="1.1"
   id="svg18"
   width="300"
   height="150"
   viewBox="0 0 300.00002 150"
   sodipodi:docname="1314_word.svg"
   inkscape:version="1.2.1 (9c6d41e410, 2022-07-14)"
   xmlns:inkscape="http://www.inkscape.org/namespaces/inkscape"
   xmlns:sodipodi="http://sodipodi.sourceforge.net/DTD/sodipodi-0.dtd"
   xmlns="http://www.w3.org/2000/svg"
   xmlns:svg="http://www.w3.org/2000/svg">
  <sodipodi:namedview
     id="namedview37"
     pagecolor="#ffffff"
     bordercolor="#000000"
     borderopacity="0.25"
     inkscape:showpageshadow="2"
     inkscape:pageopacity="0.0"
     inkscape:pagecheckerboard="0"
     inkscape:deskcolor="#d1d1d1"
     showgrid="false"
     inkscape:zoom="4.0941839"
     inkscape:cx="103.92792"
     inkscape:cy="106.24828"
     inkscape:window-width="1700"
     inkscape:window-height="1396"
     inkscape:window-x="8"
     inkscape:window-y="28"
     inkscape:window-maximized="1"
     inkscape:current-layer="svg18" />
  <defs
     id="defs22">
    <clipPath
       clipPathUnits="userSpaceOnUse"
       id="clipPath2796">
      <path
         d="M 0,340.157 H 226.772 V 0 H 0 Z"
         id="path2794" />
    </clipPath>
    <clipPath
       clipPathUnits="userSpaceOnUse"
       id="clipPath2804">
      <path
         d="M 246.772,340.157 H 473.544 V 0 H 246.772 Z"
         id="path2802" />
    </clipPath>
    <clipPath
       clipPathUnits="userSpaceOnUse"
       id="clipPath2812">
      <path
         d="M 246.772,0 H 473.544 V 340.157 H 246.772 Z"
         id="path2810" />
    </clipPath>
    <clipPath
       clipPathUnits="userSpaceOnUse"
       id="clipPath2820">
      <path
         d="M 246.772,340.157 H 473.544 V 0 H 246.772 Z"
         id="path2818" />
    </clipPath>
    <clipPath
       clipPathUnits="userSpaceOnUse"
       id="clipPath2828">
      <path
         d="m 438.313,-190.079 c 0,-43.163 -34.991,-78.155 -78.155,-78.155 -43.164,0 -78.155,34.992 -78.155,78.155 0,43.164 34.991,78.155 78.155,78.155 43.164,0 78.155,-34.991 78.155,-78.155"
         id="path2826" />
    </clipPath>
    <clipPath
       clipPathUnits="userSpaceOnUse"
       id="clipPath702936">
      <path
         d="M 0,340.157 H 226.772 V 0 H 0 Z"
         id="path702934" />
    </clipPath>
    <clipPath
       clipPathUnits="userSpaceOnUse"
       id="clipPath703010">
      <path
         d="M 0,340.157 H 226.772 V 0 H 0 Z"
         id="path703008" />
    </clipPath>
    <clipPath
       clipPathUnits="userSpaceOnUse"
       id="clipPath703120">
      <path
         d="M 0,-20 H 226.772 V -360.157 H 0 Z"
         id="path703118" />
    </clipPath>
    <clipPath
       clipPathUnits="userSpaceOnUse"
       id="clipPath703128">
      <path
         d="M 0,-360.157 H 226.772 V -20 H 0 Z"
         id="path703126" />
    </clipPath>
    <clipPath
       clipPathUnits="userSpaceOnUse"
       id="clipPath703136">
      <path
         d="M 0,-20 H 226.772 V -360.157 H 0 Z"
         id="path703134" />
    </clipPath>
    <clipPath
       clipPathUnits="userSpaceOnUse"
       id="clipPath703144">
      <path
         d="m 438.313,-190.078 c 0,-43.164 -34.992,-78.155 -78.156,-78.155 -43.163,0 -78.154,34.991 -78.154,78.155 0,43.164 34.991,78.155 78.154,78.155 43.164,0 78.156,-34.991 78.156,-78.155"
         id="path703142" />
    </clipPath>
    <clipPath
       clipPathUnits="userSpaceOnUse"
       id="clipPath703160">
      <path
         d="M 246.772,-20 H 473.544 V -360.157 H 246.772 Z"
         id="path703158" />
    </clipPath>
    <clipPath
       clipPathUnits="userSpaceOnUse"
       id="clipPath703168">
      <path
         d="M 246.772,-360.157 H 473.544 V -20 H 246.772 Z"
         id="path703166" />
    </clipPath>
    <clipPath
       clipPathUnits="userSpaceOnUse"
       id="clipPath703176">
      <path
         d="m 282.002,-190.079 c 0,-43.163 34.993,-78.154 78.156,-78.154 43.164,0 78.155,34.991 78.155,78.154 0,43.164 -34.991,78.156 -78.155,78.156 -43.163,0 -78.156,-34.992 -78.156,-78.156"
         id="path703174" />
    </clipPath>
    <clipPath
       clipPathUnits="userSpaceOnUse"
       id="clipPath720772">
      <g
         id="g720776"
         transform="matrix(0.75000002,0,0,-0.75000002,-117.18415,74.879174)">
        <path
           d="M -45.430862,-131.30857 H 256.9318 V 322.23409 H -45.430862 Z"
           id="path720774"
           style="stroke-width:1.33333" />
      </g>
    </clipPath>
    <clipPath
       clipPathUnits="userSpaceOnUse"
       id="clipPath720778">
      <g
         id="g720782"
         transform="matrix(0.75000002,0,0,-0.75000002,-78.789654,69.358173)">
        <path
           d="M -45.430862,-131.30857 H 256.9318 V 322.23409 H -45.430862 Z"
           id="path720780"
           style="stroke-width:1.33333" />
      </g>
    </clipPath>
    <clipPath
       clipPathUnits="userSpaceOnUse"
       id="clipPath720784">
      <g
         id="g720788"
         transform="matrix(0.75000002,0,0,-0.75000002,34.073147,241.67557)">
        <path
           d="M -45.430862,-131.30857 H 256.9318 V 322.23409 H -45.430862 Z"
           id="path720786"
           style="stroke-width:1.33333" />
      </g>
    </clipPath>
    <clipPath
       clipPathUnits="userSpaceOnUse"
       id="clipPath703262">
      <path
         d="M -246.772,-20 H -20 v -340.157 h -226.772 z"
         id="path703260" />
    </clipPath>
    <clipPath
       clipPathUnits="userSpaceOnUse"
       id="clipPath703270">
      <path
         d="M -246.772,-360.157 H -20 V -20 h -226.772 z"
         id="path703268" />
    </clipPath>
    <clipPath
       clipPathUnits="userSpaceOnUse"
       id="clipPath703278">
      <path
         d="M -246.772,-20 H -20 v -340.157 h -226.772 z"
         id="path703276" />
    </clipPath>
    <clipPath
       clipPathUnits="userSpaceOnUse"
       id="clipPath703286">
      <path
         d="m 191.541,-190.078 c 0,-43.164 -34.992,-78.155 -78.156,-78.155 -43.163,0 -78.154,34.991 -78.154,78.155 0,43.164 34.991,78.155 78.154,78.155 43.164,0 78.156,-34.991 78.156,-78.155"
         id="path703284" />
    </clipPath>
    <clipPath
       clipPathUnits="userSpaceOnUse"
       id="clipPath703298">
      <path
         d="M 0,-20 H 226.772 V -360.157 H 0 Z"
         id="path703296" />
    </clipPath>
    <clipPath
       clipPathUnits="userSpaceOnUse"
       id="clipPath703306">
      <path
         d="M 0,-360.157 H 226.772 V -20 H 0 Z"
         id="path703304" />
    </clipPath>
    <clipPath
       clipPathUnits="userSpaceOnUse"
       id="clipPath703314">
      <path
         d="m 35.23,-190.079 c 0,-43.163 34.993,-78.154 78.156,-78.154 43.164,0 78.155,34.991 78.155,78.154 0,43.164 -34.991,78.156 -78.155,78.156 -43.163,0 -78.156,-34.992 -78.156,-78.156"
         id="path703312" />
    </clipPath>
    <clipPath
       clipPathUnits="userSpaceOnUse"
       id="clipPath721254">
      <g
         id="g721258"
         transform="matrix(0.75000002,0,0,-0.75000002,-143.46681,15.486327)">
        <path
           d="M 8.3138826,-226.73543 H 310.67654 V 226.80723 H 8.3138826 Z"
           id="path721256"
           style="stroke-width:1.33333" />
      </g>
    </clipPath>
    <clipPath
       clipPathUnits="userSpaceOnUse"
       id="clipPath721260">
      <g
         id="g721264"
         transform="matrix(0.75000002,0,0,-0.75000002,-150.19041,29.105427)">
        <path
           d="M 8.3138826,-226.73543 H 310.67654 V 226.80723 H 8.3138826 Z"
           id="path721262"
           style="stroke-width:1.33333" />
      </g>
    </clipPath>
    <clipPath
       clipPathUnits="userSpaceOnUse"
       id="clipPath721266">
      <g
         id="g721270"
         transform="matrix(0.75000002,0,0,-0.75000002,-6.2354121,170.10543)">
        <path
           d="M 8.3138826,-226.73543 H 310.67654 V 226.80723 H 8.3138826 Z"
           id="path721268"
           style="stroke-width:1.33333" />
      </g>
    </clipPath>
    <clipPath
       clipPathUnits="userSpaceOnUse"
       id="clipPath703432">
      <path
         d="M 0,340.157 H 226.772 V 0 H 0 Z"
         id="path703430" />
    </clipPath>
    <clipPath
       clipPathUnits="userSpaceOnUse"
       id="clipPath703542">
      <path
         d="M 0,340.157 H 226.772 V 0 H 0 Z"
         id="path703540" />
    </clipPath>
    <clipPath
       clipPathUnits="userSpaceOnUse"
       id="clipPath713424">
      <path
         d="M 0,340.157 H 226.772 V 0 H 0 Z"
         id="path713422" />
    </clipPath>
    <clipPath
       clipPathUnits="userSpaceOnUse"
       id="clipPath713526">
      <path
         d="M 0,340.157 H 226.772 V 0 H 0 Z"
         id="path713524" />
    </clipPath>
    <clipPath
       clipPathUnits="userSpaceOnUse"
       id="clipPath713616">
      <path
         d="M 0,340.157 H 226.772 V 0 H 0 Z"
         id="path713614" />
    </clipPath>
    <clipPath
       clipPathUnits="userSpaceOnUse"
       id="clipPath713690">
      <path
         d="M 0,340.157 H 226.772 V 0 H 0 Z"
         id="path713688" />
    </clipPath>
    <clipPath
       clipPathUnits="userSpaceOnUse"
       id="clipPath713764">
      <path
         d="M 0,340.157 H 226.772 V 0 H 0 Z"
         id="path713762" />
    </clipPath>
    <clipPath
       clipPathUnits="userSpaceOnUse"
       id="clipPath713874">
      <path
         d="M 0,340.157 H 226.772 V 0 H 0 Z"
         id="path713872" />
    </clipPath>
    <clipPath
       clipPathUnits="userSpaceOnUse"
       id="clipPath713874-3">
      <path
         d="M 0,340.157 H 226.772 V 0 H 0 Z"
         id="path713872-6" />
    </clipPath>
    <clipPath
       clipPathUnits="userSpaceOnUse"
       id="clipPath718030">
      <path
         d="M 0,340.157 H 226.772 V 0 H 0 Z"
         id="path718028" />
    </clipPath>
    <clipPath
       clipPathUnits="userSpaceOnUse"
       id="clipPath718104">
      <path
         d="M 0,340.157 H 226.772 V 0 H 0 Z"
         id="path718102" />
    </clipPath>
    <clipPath
       clipPathUnits="userSpaceOnUse"
       id="clipPath718178">
      <path
         d="M 0,340.157 H 226.772 V 0 H 0 Z"
         id="path718176" />
    </clipPath>
    <clipPath
       clipPathUnits="userSpaceOnUse"
       id="clipPath718296">
      <path
         d="M 0,340.157 H 226.772 V 0 H 0 Z"
         id="path718294" />
    </clipPath>
    <clipPath
       clipPathUnits="userSpaceOnUse"
       id="clipPath718398">
      <path
         d="M 0,340.157 H 226.772 V 0 H 0 Z"
         id="path718396" />
    </clipPath>
    <clipPath
       clipPathUnits="userSpaceOnUse"
       id="clipPath718484">
      <path
         d="M 0,340.157 H 226.772 V 0 H 0 Z"
         id="path718482" />
    </clipPath>
    <clipPath
       clipPathUnits="userSpaceOnUse"
       id="clipPath718558">
      <path
         d="M 0,340.157 H 226.772 V 0 H 0 Z"
         id="path718556" />
    </clipPath>
    <clipPath
       clipPathUnits="userSpaceOnUse"
       id="clipPath745984">
      <path
         d="M 0,340.157 H 226.772 V 0 H 0 Z"
         id="path745982" />
    </clipPath>
    <clipPath
       clipPathUnits="userSpaceOnUse"
       id="clipPath746070">
      <path
         d="M 0,340.157 H 226.772 V 0 H 0 Z"
         id="path746068" />
    </clipPath>
    <clipPath
       clipPathUnits="userSpaceOnUse"
       id="clipPath746144">
      <path
         d="M 0,340.157 H 226.772 V 0 H 0 Z"
         id="path746142" />
    </clipPath>
    <clipPath
       clipPathUnits="userSpaceOnUse"
       id="clipPath746274">
      <path
         d="M 0,340.157 H 226.772 V 0 H 0 Z"
         id="path746272" />
    </clipPath>
    <clipPath
       clipPathUnits="userSpaceOnUse"
       id="clipPath746400">
      <path
         d="M 0,340.157 H 226.772 V 0 H 0 Z"
         id="path746398" />
    </clipPath>
    <clipPath
       clipPathUnits="userSpaceOnUse"
       id="clipPath746502">
      <path
         d="M 0,340.157 H 226.772 V 0 H 0 Z"
         id="path746500" />
    </clipPath>
    <clipPath
       clipPathUnits="userSpaceOnUse"
       id="clipPath746510">
      <path
         d="M -246.772,340.157 H -20 V 0 h -226.772 z"
         id="path746508" />
    </clipPath>
    <clipPath
       clipPathUnits="userSpaceOnUse"
       id="clipPath746518">
      <path
         d="M -246.772,340.157 H -20 V 0 h -226.772 z"
         id="path746516" />
    </clipPath>
    <clipPath
       clipPathUnits="userSpaceOnUse"
       id="clipPath746616">
      <path
         d="M 0,340.157 H 226.772 V 0 H 0 Z"
         id="path746614" />
    </clipPath>
    <clipPath
       clipPathUnits="userSpaceOnUse"
       id="clipPath746694">
      <path
         d="M 0,340.157 H 226.772 V 0 H 0 Z"
         id="path746692" />
    </clipPath>
    <clipPath
       clipPathUnits="userSpaceOnUse"
       id="clipPath746780">
      <path
         d="M 0,340.157 H 226.772 V 0 H 0 Z"
         id="path746778" />
    </clipPath>
    <clipPath
       clipPathUnits="userSpaceOnUse"
       id="clipPath746858">
      <path
         d="M 0,340.157 H 226.772 V 0 H 0 Z"
         id="path746856" />
    </clipPath>
    <clipPath
       clipPathUnits="userSpaceOnUse"
       id="clipPath746936">
      <path
         d="M 0,340.157 H 226.772 V 0 H 0 Z"
         id="path746934" />
    </clipPath>
    <clipPath
       clipPathUnits="userSpaceOnUse"
       id="clipPath747022">
      <path
         d="M 0,340.157 H 226.772 V 0 H 0 Z"
         id="path747020" />
    </clipPath>
    <clipPath
       clipPathUnits="userSpaceOnUse"
       id="clipPath747112">
      <path
         d="M 0,340.157 H 226.772 V 0 H 0 Z"
         id="path747110" />
    </clipPath>
    <clipPath
       clipPathUnits="userSpaceOnUse"
       id="clipPath747198">
      <path
         d="M 0,340.157 H 226.772 V 0 H 0 Z"
         id="path747196" />
    </clipPath>
    <clipPath
       clipPathUnits="userSpaceOnUse"
       id="clipPath747284">
      <path
         d="M 0,340.157 H 226.772 V 0 H 0 Z"
         id="path747282" />
    </clipPath>
    <clipPath
       clipPathUnits="userSpaceOnUse"
       id="clipPath747366">
      <path
         d="M 0,340.157 H 226.772 V 0 H 0 Z"
         id="path747364" />
    </clipPath>
    <clipPath
       clipPathUnits="userSpaceOnUse"
       id="clipPath747448">
      <path
         d="M 0,340.157 H 226.772 V 0 H 0 Z"
         id="path747446" />
    </clipPath>
    <clipPath
       clipPathUnits="userSpaceOnUse"
       id="clipPath747530">
      <path
         d="M 0,340.157 H 226.772 V 0 H 0 Z"
         id="path747528" />
    </clipPath>
    <clipPath
       clipPathUnits="userSpaceOnUse"
       id="clipPath747616">
      <path
         d="M 0,340.157 H 226.772 V 0 H 0 Z"
         id="path747614" />
    </clipPath>
    <clipPath
       clipPathUnits="userSpaceOnUse"
       id="clipPath747694">
      <path
         d="M 0,340.157 H 226.772 V 0 H 0 Z"
         id="path747692" />
    </clipPath>
    <clipPath
       clipPathUnits="userSpaceOnUse"
       id="clipPath747772">
      <path
         d="M 0,340.157 H 226.772 V 0 H 0 Z"
         id="path747770" />
    </clipPath>
    <clipPath
       clipPathUnits="userSpaceOnUse"
       id="clipPath747850">
      <path
         d="M 0,340.157 H 226.772 V 0 H 0 Z"
         id="path747848" />
    </clipPath>
    <clipPath
       clipPathUnits="userSpaceOnUse"
       id="clipPath747948">
      <path
         d="M 0,340.157 H 226.772 V 0 H 0 Z"
         id="path747946" />
    </clipPath>
    <clipPath
       clipPathUnits="userSpaceOnUse"
       id="clipPath748026">
      <path
         d="M 0,340.157 H 226.772 V 0 H 0 Z"
         id="path748024" />
    </clipPath>
    <clipPath
       clipPathUnits="userSpaceOnUse"
       id="clipPath748108">
      <path
         d="M 0,340.157 H 226.772 V 0 H 0 Z"
         id="path748106" />
    </clipPath>
    <clipPath
       clipPathUnits="userSpaceOnUse"
       id="clipPath783955">
      <path
         d="M 0,340.157 H 226.772 V 0 H 0 Z"
         id="path783953" />
    </clipPath>
    <clipPath
       clipPathUnits="userSpaceOnUse"
       id="clipPath784037">
      <path
         d="M 0,340.157 H 226.772 V 0 H 0 Z"
         id="path784035" />
    </clipPath>
    <clipPath
       clipPathUnits="userSpaceOnUse"
       id="clipPath784115">
      <path
         d="M 0,340.157 H 226.772 V 0 H 0 Z"
         id="path784113" />
    </clipPath>
    <clipPath
       clipPathUnits="userSpaceOnUse"
       id="clipPath784241">
      <path
         d="M 0,340.157 H 226.772 V 0 H 0 Z"
         id="path784239" />
    </clipPath>
    <clipPath
       clipPathUnits="userSpaceOnUse"
       id="clipPath784371">
      <path
         d="M 0,340.157 H 226.772 V 0 H 0 Z"
         id="path784369" />
    </clipPath>
  </defs>
  <g
     id="g784365"
     transform="matrix(1.3333333,0,0,-1.3333333,-1.1812629,290.33984)">
    <g
       id="g784367"
       clip-path="url(#clipPath784371)">
      <g
         id="g784373"
         transform="translate(77.9823,145.7911)">
        <path
           d="m 0,0 c 0,-1.881 -1.084,-2.822 -3.251,-2.822 -3.027,0 -5.256,0.531 -6.687,1.595 -1.432,1.063 -2.577,2.617 -3.435,4.663 -0.573,-1.801 -1.963,-3.293 -4.172,-4.479 -2.208,-1.186 -4.806,-1.779 -7.791,-1.779 -3.353,0 -5.858,0.746 -7.515,2.239 -1.657,1.493 -2.567,3.936 -2.73,7.331 l 3.497,0.675 c 0.368,-1.513 1.063,-2.649 2.086,-3.404 1.021,-0.758 2.699,-1.136 5.03,-1.136 1.635,0 3.231,0.215 4.785,0.644 1.554,0.43 2.822,1.074 3.804,1.933 0.449,0.45 0.807,0.92 1.073,1.411 0.266,0.491 0.399,0.837 0.399,1.043 v 0.123 c -1.432,6.011 -3.109,12.208 -5.03,18.588 l 4.478,1.533 1.901,-7.423 c 0.9,-3.722 1.922,-7.668 3.068,-11.839 0.695,-2.455 1.604,-4.091 2.73,-4.908 1.124,-0.819 2.627,-1.227 4.509,-1.227 0.899,0 1.666,-0.225 2.301,-0.675 C -0.317,1.635 0,0.94 0,0"
           style="fill:#1d1d1b;fill-opacity:1;fill-rule:nonzero;stroke:none"
           id="path784375" />
      </g>
      <g
         id="g784377"
         transform="translate(93.3563,192.464)">
        <path
           d="m 0,0 0.062,0.859 c 0,0.613 -0.154,1.196 -0.46,1.748 -0.308,0.552 -0.871,0.829 -1.688,0.829 -0.409,0 -0.777,-0.134 -1.104,-0.399 -0.328,-0.267 -0.491,-0.624 -0.491,-1.074 0,-0.491 0.266,-0.941 0.797,-1.35 C -2.353,0.204 -1.575,0 -0.552,0 Z m -4.294,-5.153 c -1.145,0 -1.984,0.184 -2.516,0.552 v 1.534 c 0.777,-0.164 1.473,-0.246 2.086,-0.246 0.654,0 1.37,0.143 2.147,0.43 0.777,0.285 1.35,0.695 1.718,1.227 H -1.35 c -1.022,0 -1.932,0.265 -2.73,0.797 -0.797,0.531 -1.196,1.39 -1.196,2.577 0,1.022 0.347,1.871 1.043,2.546 0.695,0.674 1.553,1.012 2.577,1.012 0.694,0 1.441,-0.328 2.239,-0.982 C 1.38,3.64 1.779,2.556 1.779,1.043 c 0,-2.004 -0.666,-3.538 -1.994,-4.601 -1.329,-1.064 -2.689,-1.595 -4.079,-1.595"
           style="fill:#f91536;fill-opacity:1;fill-rule:nonzero;stroke:none"
           id="path784379" />
      </g>
      <g
         id="g784381"
         transform="translate(94.1903,148.1837)">
        <path
           d="m 0,0 c 1.677,-0.451 3.271,-0.675 4.785,-0.675 2.535,0 4.438,0.439 5.705,1.319 1.268,0.879 1.903,2.075 1.903,3.589 0,3.23 -2.434,6.727 -7.301,10.49 0.286,-1.104 0.429,-2.29 0.429,-3.558 C 5.521,6.707 3.681,2.985 0,0 m -9.57,9.815 c 0,-2.904 1.512,-5.398 4.54,-7.484 4.335,1.841 6.503,5.092 6.503,9.754 0,1.39 -0.237,2.525 -0.706,3.405 -0.47,0.879 -1.012,1.534 -1.625,1.963 -0.614,0.43 -1.146,0.644 -1.596,0.644 -0.777,0 -1.728,-0.317 -2.853,-0.951 -1.125,-0.634 -2.116,-1.564 -2.974,-2.791 -0.86,-1.227 -1.289,-2.74 -1.289,-4.54 M 4.54,-5.767 c -3.477,0 -6.81,0.899 -10,2.7 -3.518,-1.433 -7.913,-2.147 -13.189,-2.147 h -0.797 c -2.004,0 -3.007,0.94 -3.007,2.821 0,0.532 0.205,1.125 0.614,1.78 0.409,0.654 1.206,0.981 2.393,0.981 3.597,0 6.645,0.184 9.14,0.552 -2.25,2.495 -3.374,5.235 -3.374,8.221 0,2.739 0.828,5.153 2.485,7.239 1.656,2.085 3.69,3.66 6.103,4.724 l -2.699,2.085 2.638,3.926 2.76,-1.901 c 2.659,-1.8 5.296,-3.681 7.914,-5.644 3.149,-2.25 5.737,-4.632 7.761,-7.147 2.025,-2.515 3.036,-5.245 3.036,-8.19 -0.041,-2.986 -1.145,-5.399 -3.312,-7.239 -2.168,-1.84 -4.99,-2.761 -8.466,-2.761"
           style="fill:#f91536;fill-opacity:1;fill-rule:nonzero;stroke:none"
           id="path784383" />
      </g>
      <g
         id="g784385"
         transform="translate(167.2177,192.464)">
        <path
           d="m 0,0 0.062,0.859 c 0,0.613 -0.154,1.196 -0.46,1.748 -0.307,0.552 -0.87,0.829 -1.688,0.829 -0.409,0 -0.777,-0.134 -1.103,-0.399 -0.329,-0.267 -0.492,-0.624 -0.492,-1.074 0,-0.491 0.266,-0.941 0.798,-1.35 C -2.352,0.204 -1.574,0 -0.552,0 Z m -4.294,-5.153 c -1.145,0 -1.984,0.184 -2.516,0.552 v 1.534 c 0.777,-0.164 1.473,-0.246 2.086,-0.246 0.655,0 1.37,0.143 2.148,0.43 0.776,0.285 1.349,0.695 1.718,1.227 H -1.35 c -1.022,0 -1.931,0.265 -2.729,0.797 -0.798,0.531 -1.196,1.39 -1.196,2.577 0,1.022 0.346,1.871 1.043,2.546 0.694,0.674 1.553,1.012 2.576,1.012 0.695,0 1.441,-0.328 2.239,-0.982 0.798,-0.654 1.196,-1.738 1.196,-3.251 0,-2.004 -0.665,-3.538 -1.994,-4.601 -1.329,-1.064 -2.689,-1.595 -4.079,-1.595"
           style="fill:#f91536;fill-opacity:1;fill-rule:nonzero;stroke:none"
           id="path784387" />
      </g>
      <g
         id="g784389"
         transform="translate(151.8446,145.7911)">
        <path
           d="m 0,0 c 0,-1.881 -1.084,-2.822 -3.251,-2.822 -3.027,0 -5.256,0.531 -6.687,1.595 -1.432,1.063 -2.577,2.617 -3.435,4.663 -0.573,-1.801 -1.963,-3.293 -4.172,-4.479 -2.208,-1.186 -4.806,-1.779 -7.791,-1.779 -3.353,0 -5.858,0.746 -7.515,2.239 -1.656,1.493 -2.567,3.936 -2.73,7.331 l 3.497,0.675 c 0.368,-1.513 1.063,-2.649 2.086,-3.404 1.021,-0.758 2.699,-1.136 5.03,-1.136 1.635,0 3.231,0.215 4.785,0.644 1.554,0.43 2.823,1.074 3.804,1.933 0.449,0.45 0.807,0.92 1.073,1.411 0.266,0.491 0.399,0.837 0.399,1.043 v 0.123 c -1.432,6.011 -3.109,12.208 -5.03,18.588 l 4.478,1.533 1.901,-7.423 c 0.9,-3.722 1.922,-7.668 3.068,-11.839 0.695,-2.455 1.604,-4.091 2.73,-4.908 1.124,-0.819 2.627,-1.227 4.509,-1.227 0.899,0 1.666,-0.225 2.301,-0.675 C -0.317,1.635 0,0.94 0,0"
           style="fill:#1d1d1b;fill-opacity:1;fill-rule:nonzero;stroke:none"
           id="path784391" />
      </g>
      <g
         id="g784393"
         transform="translate(168.0526,148.1837)">
        <path
           d="m 0,0 c 1.676,-0.451 3.271,-0.675 4.785,-0.675 2.535,0 4.437,0.439 5.705,1.319 1.267,0.879 1.902,2.075 1.902,3.589 0,3.23 -2.434,6.727 -7.3,10.49 0.285,-1.104 0.429,-2.29 0.429,-3.558 C 5.521,6.707 3.681,2.985 0,0 m -9.57,9.815 c 0,-2.904 1.512,-5.398 4.54,-7.484 4.334,1.841 6.502,5.092 6.502,9.754 0,1.39 -0.236,2.525 -0.705,3.405 -0.471,0.879 -1.013,1.534 -1.626,1.963 -0.614,0.43 -1.146,0.644 -1.595,0.644 -0.777,0 -1.729,-0.317 -2.853,-0.951 -1.126,-0.634 -2.116,-1.564 -2.975,-2.791 -0.859,-1.227 -1.288,-2.74 -1.288,-4.54 M 4.539,-5.767 c -3.477,0 -6.81,0.899 -9.999,2.7 -3.519,-1.433 -7.914,-2.147 -13.189,-2.147 h -0.798 c -2.003,0 -3.006,0.94 -3.006,2.821 0,0.532 0.205,1.125 0.613,1.78 0.409,0.654 1.207,0.981 2.393,0.981 3.598,0 6.645,0.184 9.14,0.552 -2.25,2.495 -3.374,5.235 -3.374,8.221 0,2.739 0.828,5.153 2.485,7.239 1.656,2.085 3.69,3.66 6.104,4.724 l -2.699,2.085 2.638,3.926 2.76,-1.901 c 2.659,-1.8 5.296,-3.681 7.914,-5.644 3.149,-2.25 5.736,-4.632 7.76,-7.147 2.025,-2.515 3.037,-5.245 3.037,-8.19 -0.042,-2.986 -1.145,-5.399 -3.313,-7.239 -2.168,-1.84 -4.99,-2.761 -8.466,-2.761"
           style="fill:#f91536;fill-opacity:1;fill-rule:nonzero;stroke:none"
           id="path784395" />
      </g>
    </g>
  </g>
</svg>
