<?xml version="1.0" encoding="UTF-8" standalone="no"?>
<!-- Created with Inkscape (http://www.inkscape.org/) -->

<svg
   width="200"
   height="200"
   viewBox="0 0 200 200"
   version="1.1"
   id="svg37630"
   inkscape:version="1.2.1 (9c6d41e410, 2022-07-14)"
   sodipodi:docname="131_lf1.svg"
   xmlns:inkscape="http://www.inkscape.org/namespaces/inkscape"
   xmlns:sodipodi="http://sodipodi.sourceforge.net/DTD/sodipodi-0.dtd"
   xmlns="http://www.w3.org/2000/svg"
   xmlns:svg="http://www.w3.org/2000/svg">
  <sodipodi:namedview
     id="namedview37632"
     pagecolor="#ffffff"
     bordercolor="#000000"
     borderopacity="0.25"
     inkscape:showpageshadow="2"
     inkscape:pageopacity="0.0"
     inkscape:pagecheckerboard="0"
     inkscape:deskcolor="#d1d1d1"
     inkscape:document-units="px"
     showgrid="false"
     inkscape:zoom="1.2938725"
     inkscape:cx="-159.98485"
     inkscape:cy="35.55219"
     inkscape:window-width="2040"
     inkscape:window-height="456"
     inkscape:window-x="696"
     inkscape:window-y="504"
     inkscape:window-maximized="1"
     inkscape:current-layer="layer1" />
  <defs
     id="defs37627">
    <clipPath
       clipPathUnits="userSpaceOnUse"
       id="clipPath49831">
      <g
         id="g49837">
        <g
           id="g49835">
          <path
             d="M 0,340.157 H 226.772 V 0 H 0 Z"
             id="path49833" />
        </g>
      </g>
    </clipPath>
    <clipPath
       clipPathUnits="userSpaceOnUse"
       id="clipPath49846">
      <g
         id="g49852">
        <g
           id="g49850">
          <path
             d="M 0,340.157 H 226.772 V 0 H 0 Z"
             id="path49848" />
        </g>
      </g>
    </clipPath>
    <clipPath
       clipPathUnits="userSpaceOnUse"
       id="clipPath3810">
      <path
         d="M 0,340.157 H 226.772 V 0 H 0 Z"
         id="path3808" />
    </clipPath>
    <clipPath
       clipPathUnits="userSpaceOnUse"
       id="clipPath63168">
      <g
         id="g63172"
         transform="translate(-138.8968,-217.1925)">
        <path
           d="M 0,340.157 H 226.772 V 0 H 0 Z"
           id="path63170" />
      </g>
    </clipPath>
    <clipPath
       clipPathUnits="userSpaceOnUse"
       id="clipPath63174">
      <g
         id="g63178"
         transform="translate(-81.8929,-48.1051)">
        <path
           d="M 0,340.157 H 226.772 V 0 H 0 Z"
           id="path63176" />
      </g>
    </clipPath>
    <clipPath
       clipPathUnits="userSpaceOnUse"
       id="clipPath75594">
      <g
         id="g75598"
         transform="translate(-127.7585,-249.5099)">
        <path
           d="M 0,340.157 H 226.772 V 0 H 0 Z"
           id="path75596" />
      </g>
    </clipPath>
    <clipPath
       clipPathUnits="userSpaceOnUse"
       id="clipPath75588">
      <g
         id="g75592"
         transform="translate(-138.8962,-196.152)">
        <path
           d="M 0,340.157 H 226.772 V 0 H 0 Z"
           id="path75590" />
      </g>
    </clipPath>
    <clipPath
       clipPathUnits="userSpaceOnUse"
       id="clipPath75600">
      <g
         id="g75604"
         transform="translate(-150.3796,-110.1285)">
        <path
           d="M 0,340.157 H 226.772 V 0 H 0 Z"
           id="path75602" />
      </g>
    </clipPath>
    <clipPath
       clipPathUnits="userSpaceOnUse"
       id="clipPath75902">
      <g
         id="g75906"
         transform="translate(-117.3763,-183.3499)">
        <path
           d="M 0,340.157 H 226.772 V 0 H 0 Z"
           id="path75904" />
      </g>
    </clipPath>
    <clipPath
       clipPathUnits="userSpaceOnUse"
       id="clipPath75908">
      <g
         id="g75912"
         transform="translate(-122.3158,-75.9998)">
        <path
           d="M 0,340.157 H 226.772 V 0 H 0 Z"
           id="path75910" />
      </g>
    </clipPath>
  </defs>
  <g
     inkscape:label="Layer 1"
     inkscape:groupmode="layer"
     id="layer1">
    <g
       id="g13795"
       transform="matrix(3.7795029,0,0,3.7795029,0.00129464,0.00221912)">
      <g
         id="g9820"
         transform="matrix(0.35277777,0,0,-0.35277777,23.997602,34.236768)"
         clip-path="none">
        <path
           d="m 0,0 h -38.111 c -4.794,0 -7.192,2.251 -7.192,6.759 0,1.342 0.504,2.733 1.511,4.171 1.006,1.439 2.9,2.157 5.681,2.157 H 0 c 4.794,0 7.191,-2.206 7.191,-6.615 C 7.191,5.128 6.688,3.714 5.682,2.229 4.675,0.742 2.78,0 0,0"
           style="fill:#f91536;fill-opacity:1;fill-rule:nonzero;stroke:none"
           id="path9822" />
      </g>
      <g
         id="g9824"
         transform="matrix(0.35277777,0,0,-0.35277777,39.320011,29.771942)"
         clip-path="none">
        <path
           d="m 0,0 c 4.506,0 6.76,2.013 6.76,6.04 0,4.315 -1.51,8.749 -4.531,13.303 -3.02,4.553 -6.496,6.832 -10.426,6.832 -2.782,0 -5.275,-1.128 -7.479,-3.38 -2.207,-2.254 -4.314,-6.64 -6.328,-13.159 2.78,-2.495 6.185,-4.724 10.211,-6.688 C -7.766,0.982 -3.836,0 0,0 m -0.575,-12.656 c -8.054,0 -16.779,3.546 -26.175,10.642 -1.822,-3.739 -3.955,-6.449 -6.399,-8.126 -2.446,-1.678 -5.826,-2.516 -10.14,-2.516 -2.204,0 -4.074,0.526 -5.609,1.582 -1.533,1.053 -2.301,2.732 -2.301,5.033 0,1.533 0.553,2.996 1.654,4.387 1.104,1.389 3.189,2.085 6.256,2.085 h 0.432 c 3.257,0 5.824,1.054 7.694,3.164 1.869,2.108 3.474,5.272 4.817,9.492 2.877,8.533 6.016,14.717 9.421,18.553 3.402,3.834 7.838,5.753 13.303,5.753 4.984,0 9.204,-1.704 12.656,-5.106 3.451,-3.404 6.112,-7.575 7.982,-12.512 1.87,-4.94 2.804,-9.661 2.804,-14.166 0,-5.371 -1.582,-9.757 -4.746,-13.16 -3.164,-3.404 -7.047,-5.105 -11.649,-5.105"
           style="fill:#f91536;fill-opacity:1;fill-rule:nonzero;stroke:none"
           id="path9826" />
      </g>
    </g>
  </g>
</svg>
