<?xml version="1.0" encoding="UTF-8" standalone="no"?>
<!-- Created with Inkscape (http://www.inkscape.org/) -->

<svg
   version="1.1"
   id="svg18"
   width="300"
   height="150"
   viewBox="0 0 300.00002 150"
   sodipodi:docname="1334_word.svg"
   inkscape:version="1.2.1 (9c6d41e410, 2022-07-14)"
   xmlns:inkscape="http://www.inkscape.org/namespaces/inkscape"
   xmlns:sodipodi="http://sodipodi.sourceforge.net/DTD/sodipodi-0.dtd"
   xmlns="http://www.w3.org/2000/svg"
   xmlns:svg="http://www.w3.org/2000/svg">
  <sodipodi:namedview
     id="namedview37"
     pagecolor="#ffffff"
     bordercolor="#000000"
     borderopacity="0.25"
     inkscape:showpageshadow="2"
     inkscape:pageopacity="0.0"
     inkscape:pagecheckerboard="0"
     inkscape:deskcolor="#d1d1d1"
     showgrid="false"
     inkscape:zoom="4.0941839"
     inkscape:cx="103.92792"
     inkscape:cy="106.24828"
     inkscape:window-width="1700"
     inkscape:window-height="1396"
     inkscape:window-x="8"
     inkscape:window-y="28"
     inkscape:window-maximized="1"
     inkscape:current-layer="svg18" />
  <defs
     id="defs22">
    <clipPath
       clipPathUnits="userSpaceOnUse"
       id="clipPath2796">
      <path
         d="M 0,340.157 H 226.772 V 0 H 0 Z"
         id="path2794" />
    </clipPath>
    <clipPath
       clipPathUnits="userSpaceOnUse"
       id="clipPath2804">
      <path
         d="M 246.772,340.157 H 473.544 V 0 H 246.772 Z"
         id="path2802" />
    </clipPath>
    <clipPath
       clipPathUnits="userSpaceOnUse"
       id="clipPath2812">
      <path
         d="M 246.772,0 H 473.544 V 340.157 H 246.772 Z"
         id="path2810" />
    </clipPath>
    <clipPath
       clipPathUnits="userSpaceOnUse"
       id="clipPath2820">
      <path
         d="M 246.772,340.157 H 473.544 V 0 H 246.772 Z"
         id="path2818" />
    </clipPath>
    <clipPath
       clipPathUnits="userSpaceOnUse"
       id="clipPath2828">
      <path
         d="m 438.313,-190.079 c 0,-43.163 -34.991,-78.155 -78.155,-78.155 -43.164,0 -78.155,34.992 -78.155,78.155 0,43.164 34.991,78.155 78.155,78.155 43.164,0 78.155,-34.991 78.155,-78.155"
         id="path2826" />
    </clipPath>
    <clipPath
       clipPathUnits="userSpaceOnUse"
       id="clipPath702936">
      <path
         d="M 0,340.157 H 226.772 V 0 H 0 Z"
         id="path702934" />
    </clipPath>
    <clipPath
       clipPathUnits="userSpaceOnUse"
       id="clipPath703010">
      <path
         d="M 0,340.157 H 226.772 V 0 H 0 Z"
         id="path703008" />
    </clipPath>
    <clipPath
       clipPathUnits="userSpaceOnUse"
       id="clipPath703120">
      <path
         d="M 0,-20 H 226.772 V -360.157 H 0 Z"
         id="path703118" />
    </clipPath>
    <clipPath
       clipPathUnits="userSpaceOnUse"
       id="clipPath703128">
      <path
         d="M 0,-360.157 H 226.772 V -20 H 0 Z"
         id="path703126" />
    </clipPath>
    <clipPath
       clipPathUnits="userSpaceOnUse"
       id="clipPath703136">
      <path
         d="M 0,-20 H 226.772 V -360.157 H 0 Z"
         id="path703134" />
    </clipPath>
    <clipPath
       clipPathUnits="userSpaceOnUse"
       id="clipPath703144">
      <path
         d="m 438.313,-190.078 c 0,-43.164 -34.992,-78.155 -78.156,-78.155 -43.163,0 -78.154,34.991 -78.154,78.155 0,43.164 34.991,78.155 78.154,78.155 43.164,0 78.156,-34.991 78.156,-78.155"
         id="path703142" />
    </clipPath>
    <clipPath
       clipPathUnits="userSpaceOnUse"
       id="clipPath703160">
      <path
         d="M 246.772,-20 H 473.544 V -360.157 H 246.772 Z"
         id="path703158" />
    </clipPath>
    <clipPath
       clipPathUnits="userSpaceOnUse"
       id="clipPath703168">
      <path
         d="M 246.772,-360.157 H 473.544 V -20 H 246.772 Z"
         id="path703166" />
    </clipPath>
    <clipPath
       clipPathUnits="userSpaceOnUse"
       id="clipPath703176">
      <path
         d="m 282.002,-190.079 c 0,-43.163 34.993,-78.154 78.156,-78.154 43.164,0 78.155,34.991 78.155,78.154 0,43.164 -34.991,78.156 -78.155,78.156 -43.163,0 -78.156,-34.992 -78.156,-78.156"
         id="path703174" />
    </clipPath>
    <clipPath
       clipPathUnits="userSpaceOnUse"
       id="clipPath720772">
      <g
         id="g720776"
         transform="matrix(0.75000002,0,0,-0.75000002,-117.18415,74.879174)">
        <path
           d="M -45.430862,-131.30857 H 256.9318 V 322.23409 H -45.430862 Z"
           id="path720774"
           style="stroke-width:1.33333" />
      </g>
    </clipPath>
    <clipPath
       clipPathUnits="userSpaceOnUse"
       id="clipPath720778">
      <g
         id="g720782"
         transform="matrix(0.75000002,0,0,-0.75000002,-78.789654,69.358173)">
        <path
           d="M -45.430862,-131.30857 H 256.9318 V 322.23409 H -45.430862 Z"
           id="path720780"
           style="stroke-width:1.33333" />
      </g>
    </clipPath>
    <clipPath
       clipPathUnits="userSpaceOnUse"
       id="clipPath720784">
      <g
         id="g720788"
         transform="matrix(0.75000002,0,0,-0.75000002,34.073147,241.67557)">
        <path
           d="M -45.430862,-131.30857 H 256.9318 V 322.23409 H -45.430862 Z"
           id="path720786"
           style="stroke-width:1.33333" />
      </g>
    </clipPath>
    <clipPath
       clipPathUnits="userSpaceOnUse"
       id="clipPath703262">
      <path
         d="M -246.772,-20 H -20 v -340.157 h -226.772 z"
         id="path703260" />
    </clipPath>
    <clipPath
       clipPathUnits="userSpaceOnUse"
       id="clipPath703270">
      <path
         d="M -246.772,-360.157 H -20 V -20 h -226.772 z"
         id="path703268" />
    </clipPath>
    <clipPath
       clipPathUnits="userSpaceOnUse"
       id="clipPath703278">
      <path
         d="M -246.772,-20 H -20 v -340.157 h -226.772 z"
         id="path703276" />
    </clipPath>
    <clipPath
       clipPathUnits="userSpaceOnUse"
       id="clipPath703286">
      <path
         d="m 191.541,-190.078 c 0,-43.164 -34.992,-78.155 -78.156,-78.155 -43.163,0 -78.154,34.991 -78.154,78.155 0,43.164 34.991,78.155 78.154,78.155 43.164,0 78.156,-34.991 78.156,-78.155"
         id="path703284" />
    </clipPath>
    <clipPath
       clipPathUnits="userSpaceOnUse"
       id="clipPath703298">
      <path
         d="M 0,-20 H 226.772 V -360.157 H 0 Z"
         id="path703296" />
    </clipPath>
    <clipPath
       clipPathUnits="userSpaceOnUse"
       id="clipPath703306">
      <path
         d="M 0,-360.157 H 226.772 V -20 H 0 Z"
         id="path703304" />
    </clipPath>
    <clipPath
       clipPathUnits="userSpaceOnUse"
       id="clipPath703314">
      <path
         d="m 35.23,-190.079 c 0,-43.163 34.993,-78.154 78.156,-78.154 43.164,0 78.155,34.991 78.155,78.154 0,43.164 -34.991,78.156 -78.155,78.156 -43.163,0 -78.156,-34.992 -78.156,-78.156"
         id="path703312" />
    </clipPath>
    <clipPath
       clipPathUnits="userSpaceOnUse"
       id="clipPath721254">
      <g
         id="g721258"
         transform="matrix(0.75000002,0,0,-0.75000002,-143.46681,15.486327)">
        <path
           d="M 8.3138826,-226.73543 H 310.67654 V 226.80723 H 8.3138826 Z"
           id="path721256"
           style="stroke-width:1.33333" />
      </g>
    </clipPath>
    <clipPath
       clipPathUnits="userSpaceOnUse"
       id="clipPath721260">
      <g
         id="g721264"
         transform="matrix(0.75000002,0,0,-0.75000002,-150.19041,29.105427)">
        <path
           d="M 8.3138826,-226.73543 H 310.67654 V 226.80723 H 8.3138826 Z"
           id="path721262"
           style="stroke-width:1.33333" />
      </g>
    </clipPath>
    <clipPath
       clipPathUnits="userSpaceOnUse"
       id="clipPath721266">
      <g
         id="g721270"
         transform="matrix(0.75000002,0,0,-0.75000002,-6.2354121,170.10543)">
        <path
           d="M 8.3138826,-226.73543 H 310.67654 V 226.80723 H 8.3138826 Z"
           id="path721268"
           style="stroke-width:1.33333" />
      </g>
    </clipPath>
    <clipPath
       clipPathUnits="userSpaceOnUse"
       id="clipPath703432">
      <path
         d="M 0,340.157 H 226.772 V 0 H 0 Z"
         id="path703430" />
    </clipPath>
    <clipPath
       clipPathUnits="userSpaceOnUse"
       id="clipPath703542">
      <path
         d="M 0,340.157 H 226.772 V 0 H 0 Z"
         id="path703540" />
    </clipPath>
    <clipPath
       clipPathUnits="userSpaceOnUse"
       id="clipPath713424">
      <path
         d="M 0,340.157 H 226.772 V 0 H 0 Z"
         id="path713422" />
    </clipPath>
    <clipPath
       clipPathUnits="userSpaceOnUse"
       id="clipPath713526">
      <path
         d="M 0,340.157 H 226.772 V 0 H 0 Z"
         id="path713524" />
    </clipPath>
    <clipPath
       clipPathUnits="userSpaceOnUse"
       id="clipPath713616">
      <path
         d="M 0,340.157 H 226.772 V 0 H 0 Z"
         id="path713614" />
    </clipPath>
    <clipPath
       clipPathUnits="userSpaceOnUse"
       id="clipPath713690">
      <path
         d="M 0,340.157 H 226.772 V 0 H 0 Z"
         id="path713688" />
    </clipPath>
    <clipPath
       clipPathUnits="userSpaceOnUse"
       id="clipPath713764">
      <path
         d="M 0,340.157 H 226.772 V 0 H 0 Z"
         id="path713762" />
    </clipPath>
    <clipPath
       clipPathUnits="userSpaceOnUse"
       id="clipPath713874">
      <path
         d="M 0,340.157 H 226.772 V 0 H 0 Z"
         id="path713872" />
    </clipPath>
    <clipPath
       clipPathUnits="userSpaceOnUse"
       id="clipPath713874-3">
      <path
         d="M 0,340.157 H 226.772 V 0 H 0 Z"
         id="path713872-6" />
    </clipPath>
    <clipPath
       clipPathUnits="userSpaceOnUse"
       id="clipPath718030">
      <path
         d="M 0,340.157 H 226.772 V 0 H 0 Z"
         id="path718028" />
    </clipPath>
    <clipPath
       clipPathUnits="userSpaceOnUse"
       id="clipPath718104">
      <path
         d="M 0,340.157 H 226.772 V 0 H 0 Z"
         id="path718102" />
    </clipPath>
    <clipPath
       clipPathUnits="userSpaceOnUse"
       id="clipPath718178">
      <path
         d="M 0,340.157 H 226.772 V 0 H 0 Z"
         id="path718176" />
    </clipPath>
    <clipPath
       clipPathUnits="userSpaceOnUse"
       id="clipPath718296">
      <path
         d="M 0,340.157 H 226.772 V 0 H 0 Z"
         id="path718294" />
    </clipPath>
    <clipPath
       clipPathUnits="userSpaceOnUse"
       id="clipPath718398">
      <path
         d="M 0,340.157 H 226.772 V 0 H 0 Z"
         id="path718396" />
    </clipPath>
    <clipPath
       clipPathUnits="userSpaceOnUse"
       id="clipPath718484">
      <path
         d="M 0,340.157 H 226.772 V 0 H 0 Z"
         id="path718482" />
    </clipPath>
    <clipPath
       clipPathUnits="userSpaceOnUse"
       id="clipPath718558">
      <path
         d="M 0,340.157 H 226.772 V 0 H 0 Z"
         id="path718556" />
    </clipPath>
    <clipPath
       clipPathUnits="userSpaceOnUse"
       id="clipPath745984">
      <path
         d="M 0,340.157 H 226.772 V 0 H 0 Z"
         id="path745982" />
    </clipPath>
    <clipPath
       clipPathUnits="userSpaceOnUse"
       id="clipPath746070">
      <path
         d="M 0,340.157 H 226.772 V 0 H 0 Z"
         id="path746068" />
    </clipPath>
    <clipPath
       clipPathUnits="userSpaceOnUse"
       id="clipPath746144">
      <path
         d="M 0,340.157 H 226.772 V 0 H 0 Z"
         id="path746142" />
    </clipPath>
    <clipPath
       clipPathUnits="userSpaceOnUse"
       id="clipPath746274">
      <path
         d="M 0,340.157 H 226.772 V 0 H 0 Z"
         id="path746272" />
    </clipPath>
    <clipPath
       clipPathUnits="userSpaceOnUse"
       id="clipPath746400">
      <path
         d="M 0,340.157 H 226.772 V 0 H 0 Z"
         id="path746398" />
    </clipPath>
    <clipPath
       clipPathUnits="userSpaceOnUse"
       id="clipPath746502">
      <path
         d="M 0,340.157 H 226.772 V 0 H 0 Z"
         id="path746500" />
    </clipPath>
    <clipPath
       clipPathUnits="userSpaceOnUse"
       id="clipPath746510">
      <path
         d="M -246.772,340.157 H -20 V 0 h -226.772 z"
         id="path746508" />
    </clipPath>
    <clipPath
       clipPathUnits="userSpaceOnUse"
       id="clipPath746518">
      <path
         d="M -246.772,340.157 H -20 V 0 h -226.772 z"
         id="path746516" />
    </clipPath>
    <clipPath
       clipPathUnits="userSpaceOnUse"
       id="clipPath746616">
      <path
         d="M 0,340.157 H 226.772 V 0 H 0 Z"
         id="path746614" />
    </clipPath>
    <clipPath
       clipPathUnits="userSpaceOnUse"
       id="clipPath746694">
      <path
         d="M 0,340.157 H 226.772 V 0 H 0 Z"
         id="path746692" />
    </clipPath>
    <clipPath
       clipPathUnits="userSpaceOnUse"
       id="clipPath746780">
      <path
         d="M 0,340.157 H 226.772 V 0 H 0 Z"
         id="path746778" />
    </clipPath>
    <clipPath
       clipPathUnits="userSpaceOnUse"
       id="clipPath746858">
      <path
         d="M 0,340.157 H 226.772 V 0 H 0 Z"
         id="path746856" />
    </clipPath>
    <clipPath
       clipPathUnits="userSpaceOnUse"
       id="clipPath746936">
      <path
         d="M 0,340.157 H 226.772 V 0 H 0 Z"
         id="path746934" />
    </clipPath>
    <clipPath
       clipPathUnits="userSpaceOnUse"
       id="clipPath747022">
      <path
         d="M 0,340.157 H 226.772 V 0 H 0 Z"
         id="path747020" />
    </clipPath>
    <clipPath
       clipPathUnits="userSpaceOnUse"
       id="clipPath747112">
      <path
         d="M 0,340.157 H 226.772 V 0 H 0 Z"
         id="path747110" />
    </clipPath>
    <clipPath
       clipPathUnits="userSpaceOnUse"
       id="clipPath747198">
      <path
         d="M 0,340.157 H 226.772 V 0 H 0 Z"
         id="path747196" />
    </clipPath>
    <clipPath
       clipPathUnits="userSpaceOnUse"
       id="clipPath747284">
      <path
         d="M 0,340.157 H 226.772 V 0 H 0 Z"
         id="path747282" />
    </clipPath>
    <clipPath
       clipPathUnits="userSpaceOnUse"
       id="clipPath747366">
      <path
         d="M 0,340.157 H 226.772 V 0 H 0 Z"
         id="path747364" />
    </clipPath>
    <clipPath
       clipPathUnits="userSpaceOnUse"
       id="clipPath747448">
      <path
         d="M 0,340.157 H 226.772 V 0 H 0 Z"
         id="path747446" />
    </clipPath>
    <clipPath
       clipPathUnits="userSpaceOnUse"
       id="clipPath747530">
      <path
         d="M 0,340.157 H 226.772 V 0 H 0 Z"
         id="path747528" />
    </clipPath>
    <clipPath
       clipPathUnits="userSpaceOnUse"
       id="clipPath747616">
      <path
         d="M 0,340.157 H 226.772 V 0 H 0 Z"
         id="path747614" />
    </clipPath>
    <clipPath
       clipPathUnits="userSpaceOnUse"
       id="clipPath747694">
      <path
         d="M 0,340.157 H 226.772 V 0 H 0 Z"
         id="path747692" />
    </clipPath>
    <clipPath
       clipPathUnits="userSpaceOnUse"
       id="clipPath747772">
      <path
         d="M 0,340.157 H 226.772 V 0 H 0 Z"
         id="path747770" />
    </clipPath>
    <clipPath
       clipPathUnits="userSpaceOnUse"
       id="clipPath747850">
      <path
         d="M 0,340.157 H 226.772 V 0 H 0 Z"
         id="path747848" />
    </clipPath>
    <clipPath
       clipPathUnits="userSpaceOnUse"
       id="clipPath747948">
      <path
         d="M 0,340.157 H 226.772 V 0 H 0 Z"
         id="path747946" />
    </clipPath>
    <clipPath
       clipPathUnits="userSpaceOnUse"
       id="clipPath748026">
      <path
         d="M 0,340.157 H 226.772 V 0 H 0 Z"
         id="path748024" />
    </clipPath>
    <clipPath
       clipPathUnits="userSpaceOnUse"
       id="clipPath748108">
      <path
         d="M 0,340.157 H 226.772 V 0 H 0 Z"
         id="path748106" />
    </clipPath>
    <clipPath
       clipPathUnits="userSpaceOnUse"
       id="clipPath783955">
      <path
         d="M 0,340.157 H 226.772 V 0 H 0 Z"
         id="path783953" />
    </clipPath>
    <clipPath
       clipPathUnits="userSpaceOnUse"
       id="clipPath784037">
      <path
         d="M 0,340.157 H 226.772 V 0 H 0 Z"
         id="path784035" />
    </clipPath>
    <clipPath
       clipPathUnits="userSpaceOnUse"
       id="clipPath784115">
      <path
         d="M 0,340.157 H 226.772 V 0 H 0 Z"
         id="path784113" />
    </clipPath>
    <clipPath
       clipPathUnits="userSpaceOnUse"
       id="clipPath784241">
      <path
         d="M 0,340.157 H 226.772 V 0 H 0 Z"
         id="path784239" />
    </clipPath>
    <clipPath
       clipPathUnits="userSpaceOnUse"
       id="clipPath784371">
      <path
         d="M 0,340.157 H 226.772 V 0 H 0 Z"
         id="path784369" />
    </clipPath>
    <clipPath
       clipPathUnits="userSpaceOnUse"
       id="clipPath784461">
      <path
         d="M 0,340.157 H 226.772 V 0 H 0 Z"
         id="path784459" />
    </clipPath>
    <clipPath
       clipPathUnits="userSpaceOnUse"
       id="clipPath784543">
      <path
         d="M 0,340.157 H 226.772 V 0 H 0 Z"
         id="path784541" />
    </clipPath>
    <clipPath
       clipPathUnits="userSpaceOnUse"
       id="clipPath784625">
      <path
         d="M 0,340.157 H 226.772 V 0 H 0 Z"
         id="path784623" />
    </clipPath>
    <clipPath
       clipPathUnits="userSpaceOnUse"
       id="clipPath784707">
      <path
         d="M 0,340.157 H 226.772 V 0 H 0 Z"
         id="path784705" />
    </clipPath>
    <clipPath
       clipPathUnits="userSpaceOnUse"
       id="clipPath784707-7">
      <path
         d="M 0,340.157 H 226.772 V 0 H 0 Z"
         id="path784705-5" />
    </clipPath>
    <clipPath
       clipPathUnits="userSpaceOnUse"
       id="clipPath800733">
      <path
         d="M 0,340.157 H 226.772 V 0 H 0 Z"
         id="path800731" />
    </clipPath>
    <clipPath
       clipPathUnits="userSpaceOnUse"
       id="clipPath800847">
      <path
         d="M 0,340.157 H 226.772 V 0 H 0 Z"
         id="path800845" />
    </clipPath>
    <clipPath
       clipPathUnits="userSpaceOnUse"
       id="clipPath819863">
      <path
         d="M 0,340.157 H 226.772 V 0 H 0 Z"
         id="path819861" />
    </clipPath>
    <clipPath
       clipPathUnits="userSpaceOnUse"
       id="clipPath819973">
      <path
         d="M 0,340.157 H 226.772 V 0 H 0 Z"
         id="path819971" />
    </clipPath>
    <clipPath
       clipPathUnits="userSpaceOnUse"
       id="clipPath820055">
      <path
         d="M 0,340.157 H 226.772 V 0 H 0 Z"
         id="path820053" />
    </clipPath>
    <clipPath
       clipPathUnits="userSpaceOnUse"
       id="clipPath820177">
      <path
         d="M 0,340.157 H 226.772 V 0 H 0 Z"
         id="path820175" />
    </clipPath>
    <clipPath
       clipPathUnits="userSpaceOnUse"
       id="clipPath820311">
      <path
         d="M 0,340.157 H 226.772 V 0 H 0 Z"
         id="path820309" />
    </clipPath>
  </defs>
  <g
     id="g820305"
     transform="matrix(1.3333333,0,0,-1.3333333,-1.1814629,306.07774)">
    <g
       id="g820307"
       clip-path="url(#clipPath820311)">
      <g
         id="g820313"
         transform="translate(47.1078,143.5069)">
        <path
           d="m 0,0 c -3.786,0 -6.786,1.224 -9,3.67 -2.215,2.446 -3.321,5.474 -3.321,9.08 0,1.893 0.222,3.679 0.669,5.357 0.446,1.678 0.955,3.089 1.527,4.233 l 2.839,-0.536 c -0.858,-2.965 -1.285,-5.5 -1.285,-7.608 0,-3.035 0.91,-5.365 2.731,-6.991 1.821,-1.624 4.019,-2.437 6.59,-2.437 2.535,0 4.678,0.598 6.429,1.794 1.749,1.198 3,2.849 3.75,4.957 0.214,0.856 0.321,1.5 0.321,1.927 -0.429,3.715 -1.572,7.518 -3.429,11.411 l 3.858,1.447 c 0.927,-2.143 1.785,-4.75 2.571,-7.822 0.214,-0.75 0.606,-1.312 1.179,-1.687 0.57,-0.375 1.231,-0.563 1.981,-0.563 0.929,0 1.733,0.223 2.411,0.67 0.678,0.447 1.268,1.339 1.768,2.678 0.5,1.34 0.911,3.349 1.232,6.027 l 3.322,0.161 -0.268,-3.857 c -0.072,-0.608 -0.107,-1.161 -0.107,-1.661 0,-1.5 0.231,-2.536 0.696,-3.106 0.464,-0.573 1.16,-0.858 2.09,-0.858 1.249,0 2.222,0.518 2.919,1.554 0.696,1.035 1.214,2.25 1.553,3.642 0.339,1.393 0.598,2.679 0.778,3.858 l 3.214,0.267 c -0.073,-0.572 -0.144,-1.143 -0.214,-1.714 -0.073,-0.572 -0.108,-1.108 -0.108,-1.607 0,-1.786 0.455,-3.197 1.367,-4.232 0.91,-1.036 2.543,-1.573 4.901,-1.608 0.785,0 1.455,-0.196 2.009,-0.589 0.553,-0.393 0.831,-1 0.831,-1.821 0,-0.536 -0.18,-1.081 -0.536,-1.634 -0.358,-0.554 -1.179,-0.831 -2.464,-0.831 -4.215,0 -6.894,1.608 -8.036,4.823 -0.715,-1.573 -1.67,-2.769 -2.867,-3.59 -1.197,-0.823 -2.42,-1.233 -3.67,-1.233 -1.177,0 -2.097,0.205 -2.758,0.617 -0.661,0.41 -1.152,0.901 -1.473,1.473 -0.321,0.57 -0.572,1.143 -0.75,1.714 -0.608,-1.214 -1.394,-2.151 -2.357,-2.812 -0.964,-0.662 -2.233,-0.992 -3.804,-0.992 -0.893,0 -1.75,0.304 -2.571,0.911 0,-0.714 -0.126,-1.588 -0.375,-2.625 C 13.071,6.715 11.268,4.286 8.731,2.571 6.195,0.857 3.285,0 0,0"
           style="fill:#1d1d1b;fill-opacity:1;fill-rule:nonzero;stroke:none"
           id="path820315" />
      </g>
      <g
         id="g820317"
         transform="translate(118.347,142.2432)">
        <path
           d="M 0,0 C -2.894,-1.179 -5.769,-2.161 -8.625,-2.947 L -9,-1.179 c 3.356,1.036 6.249,2.072 8.679,3.107 z"
           style="fill:#f91536;fill-opacity:1;fill-rule:nonzero;stroke:none"
           id="path820319" />
      </g>
      <g
         id="g820321"
         transform="translate(99.5111,159.9532)">
        <path
           d="m 0,0 c 3.714,0 7.125,0.116 10.232,0.349 3.107,0.231 5.357,0.553 6.75,0.963 1.393,0.411 2.518,0.947 3.375,1.608 0.857,0.66 1.286,1.598 1.286,2.812 0,0.822 -0.278,1.679 -0.831,2.572 -0.554,0.892 -1.392,1.661 -2.517,2.303 -1.125,0.643 -2.564,0.964 -4.313,0.964 -2.214,0 -4.723,-0.937 -7.527,-2.812 C 3.651,6.884 0.945,3.965 -1.661,0 Z m 12.696,-4.178 c -3,-0.465 -7.59,-0.697 -13.767,-0.697 h -8.465 c -1.071,0 -1.785,0.286 -2.143,0.857 -0.356,0.572 -0.536,1.125 -0.536,1.662 0,0.463 0.18,0.972 0.536,1.526 0.358,0.554 1.072,0.83 2.143,0.83 L -6,0 c 0.57,0.929 1.035,1.804 1.393,2.625 0.356,0.821 0.536,1.839 0.536,3.054 l -1.072,28.017 4.072,0.323 0.696,-19.34 c 0.071,-2.143 0.107,-3.823 0.107,-5.035 -0.036,-1.215 -0.089,-2.163 -0.161,-2.84 2.036,2.606 4.348,4.767 6.938,6.482 2.589,1.714 5.276,2.571 8.062,2.571 2.107,0 3.955,-0.491 5.545,-1.473 1.589,-0.983 2.83,-2.241 3.723,-3.777 0.892,-1.536 1.34,-3.143 1.34,-4.821 C 25.179,3.5 24.429,1.571 22.929,0 21.035,-2.035 17.625,-3.428 12.696,-4.178"
           style="fill:#f91536;fill-opacity:1;fill-rule:nonzero;stroke:none"
           id="path820323" />
      </g>
      <g
         id="g820325"
         transform="translate(187.2718,198.9317)">
        <path
           d="M 0,0 C -2.893,-1.178 -5.769,-2.161 -8.625,-2.946 L -9,-1.178 c 3.356,1.035 6.249,2.071 8.679,3.107 z"
           style="fill:#1d1d1b;fill-opacity:1;fill-rule:nonzero;stroke:none"
           id="path820327" />
      </g>
      <g
         id="g820329"
         transform="translate(144.0189,157.543)">
        <path
           d="m 0,0 c 0,-1.644 -0.947,-2.465 -2.84,-2.465 -3.142,0 -5.562,0.839 -7.259,2.519 -1.696,1.677 -2.633,4.535 -2.812,8.571 l -1.071,27.535 4.017,0.269 1.018,-26.465 C -8.84,7.143 -8.25,5.187 -7.179,4.098 -6.107,3.008 -4.661,2.445 -2.84,2.41 -2.055,2.41 -1.385,2.214 -0.831,1.821 -0.277,1.428 0,0.821 0,0"
           style="fill:#1d1d1b;fill-opacity:1;fill-rule:nonzero;stroke:none"
           id="path820331" />
      </g>
      <g
         id="g820333"
         transform="translate(171.0189,162.8731)">
        <path
           d="m 0,0 c -0.857,-0.661 -1.982,-1.197 -3.375,-1.607 -1.393,-0.411 -3.643,-0.733 -6.75,-0.964 -3.107,-0.233 -6.519,-0.349 -10.232,-0.349 h -1.661 c 2.607,3.965 5.312,6.885 8.117,8.76 2.802,1.875 5.311,2.812 7.526,2.812 1.749,0 3.187,-0.322 4.312,-0.965 C -0.937,7.045 -0.099,6.276 0.455,5.384 1.009,4.491 1.286,3.634 1.286,2.813 1.286,1.598 0.857,0.66 0,0 m 10.42,-3.535 c -0.555,0.375 -1.197,0.562 -1.929,0.562 -0.732,0 -1.59,0.053 -2.571,0.16 -0.983,0.108 -1.885,0.303 -2.706,0.59 1.072,1.464 1.607,3.16 1.607,5.089 0,1.679 -0.447,3.285 -1.339,4.821 -0.893,1.536 -2.134,2.794 -3.723,3.778 -1.59,0.981 -3.438,1.473 -5.545,1.473 -2.785,0 -5.473,-0.858 -8.063,-2.572 -2.589,-1.714 -4.901,-3.876 -6.937,-6.482 0.071,0.678 0.125,1.625 0.161,2.84 0,1.213 -0.036,2.892 -0.107,5.035 l -0.697,19.34 -4.071,-0.322 1.071,-28.018 c 0,-1.214 -0.178,-2.233 -0.535,-3.054 -0.357,-0.821 -0.822,-1.696 -1.393,-2.625 h -3.536 c -1.071,0 -1.786,-0.276 -2.143,-0.83 -0.357,-0.554 -0.535,-1.062 -0.535,-1.526 0,-0.536 0.178,-1.09 0.535,-1.661 0.357,-0.572 1.072,-0.858 2.143,-0.858 h 8.464 c 6.072,0 10.608,0.233 13.608,0.697 3,0.463 5.177,1.018 6.535,1.661 2.107,-1.573 5.054,-2.358 8.84,-2.358 h 0.857 c 1.893,0 2.839,0.821 2.839,2.465 0,0.821 -0.277,1.42 -0.83,1.795"
           style="fill:#f91536;fill-opacity:1;fill-rule:nonzero;stroke:none"
           id="path820335" />
      </g>
      <g
         id="g820337"
         transform="translate(189.0394,144.4717)">
        <path
           d="m 0,0 c 0,-1.822 -0.929,-2.804 -2.785,-2.947 -0.786,0 -1.447,0.268 -1.983,0.803 -0.536,0.537 -0.803,1.251 -0.803,2.144 0,1.714 0.928,2.678 2.786,2.893 C -1.107,2.893 -0.179,1.928 0,0 m -8.785,10.606 h -0.804 c -1.786,0 -2.679,0.839 -2.679,2.519 0,0.499 0.188,1.018 0.563,1.554 0.375,0.535 1.08,0.802 2.116,0.802 h 1.071 c 3.858,0 6.375,0.411 7.554,1.233 l 0.107,0.429 c 0.142,0.463 0.214,1.017 0.214,1.66 0,0.643 -0.126,1.286 -0.375,1.928 -0.25,0.644 -0.714,1.5 -1.392,2.572 L -3.321,24.856 0.59,26.41 C 2.16,23.481 2.946,20.535 2.946,17.571 2.946,16.106 2.66,14.66 2.09,13.231 1.446,12.553 0.375,11.946 -1.125,11.41 c -1.5,-0.535 -4.054,-0.804 -7.66,-0.804"
           style="fill:#1d1d1b;fill-opacity:1;fill-rule:nonzero;stroke:none"
           id="path820339" />
      </g>
    </g>
  </g>
</svg>
