<?xml version="1.0" encoding="UTF-8" standalone="no"?>
<!-- Created with Inkscape (http://www.inkscape.org/) -->

<svg
   version="1.1"
   id="svg18"
   width="300"
   height="150"
   viewBox="0 0 300.00002 150"
   sodipodi:docname="1336_word.svg"
   inkscape:version="1.2.1 (9c6d41e410, 2022-07-14)"
   xmlns:inkscape="http://www.inkscape.org/namespaces/inkscape"
   xmlns:sodipodi="http://sodipodi.sourceforge.net/DTD/sodipodi-0.dtd"
   xmlns="http://www.w3.org/2000/svg"
   xmlns:svg="http://www.w3.org/2000/svg">
  <sodipodi:namedview
     id="namedview37"
     pagecolor="#ffffff"
     bordercolor="#000000"
     borderopacity="0.25"
     inkscape:showpageshadow="2"
     inkscape:pageopacity="0.0"
     inkscape:pagecheckerboard="0"
     inkscape:deskcolor="#d1d1d1"
     showgrid="false"
     inkscape:zoom="4.0941839"
     inkscape:cx="103.92792"
     inkscape:cy="106.24828"
     inkscape:window-width="1700"
     inkscape:window-height="1396"
     inkscape:window-x="8"
     inkscape:window-y="28"
     inkscape:window-maximized="1"
     inkscape:current-layer="svg18" />
  <defs
     id="defs22">
    <clipPath
       clipPathUnits="userSpaceOnUse"
       id="clipPath2796">
      <path
         d="M 0,340.157 H 226.772 V 0 H 0 Z"
         id="path2794" />
    </clipPath>
    <clipPath
       clipPathUnits="userSpaceOnUse"
       id="clipPath2804">
      <path
         d="M 246.772,340.157 H 473.544 V 0 H 246.772 Z"
         id="path2802" />
    </clipPath>
    <clipPath
       clipPathUnits="userSpaceOnUse"
       id="clipPath2812">
      <path
         d="M 246.772,0 H 473.544 V 340.157 H 246.772 Z"
         id="path2810" />
    </clipPath>
    <clipPath
       clipPathUnits="userSpaceOnUse"
       id="clipPath2820">
      <path
         d="M 246.772,340.157 H 473.544 V 0 H 246.772 Z"
         id="path2818" />
    </clipPath>
    <clipPath
       clipPathUnits="userSpaceOnUse"
       id="clipPath2828">
      <path
         d="m 438.313,-190.079 c 0,-43.163 -34.991,-78.155 -78.155,-78.155 -43.164,0 -78.155,34.992 -78.155,78.155 0,43.164 34.991,78.155 78.155,78.155 43.164,0 78.155,-34.991 78.155,-78.155"
         id="path2826" />
    </clipPath>
    <clipPath
       clipPathUnits="userSpaceOnUse"
       id="clipPath702936">
      <path
         d="M 0,340.157 H 226.772 V 0 H 0 Z"
         id="path702934" />
    </clipPath>
    <clipPath
       clipPathUnits="userSpaceOnUse"
       id="clipPath703010">
      <path
         d="M 0,340.157 H 226.772 V 0 H 0 Z"
         id="path703008" />
    </clipPath>
    <clipPath
       clipPathUnits="userSpaceOnUse"
       id="clipPath703120">
      <path
         d="M 0,-20 H 226.772 V -360.157 H 0 Z"
         id="path703118" />
    </clipPath>
    <clipPath
       clipPathUnits="userSpaceOnUse"
       id="clipPath703128">
      <path
         d="M 0,-360.157 H 226.772 V -20 H 0 Z"
         id="path703126" />
    </clipPath>
    <clipPath
       clipPathUnits="userSpaceOnUse"
       id="clipPath703136">
      <path
         d="M 0,-20 H 226.772 V -360.157 H 0 Z"
         id="path703134" />
    </clipPath>
    <clipPath
       clipPathUnits="userSpaceOnUse"
       id="clipPath703144">
      <path
         d="m 438.313,-190.078 c 0,-43.164 -34.992,-78.155 -78.156,-78.155 -43.163,0 -78.154,34.991 -78.154,78.155 0,43.164 34.991,78.155 78.154,78.155 43.164,0 78.156,-34.991 78.156,-78.155"
         id="path703142" />
    </clipPath>
    <clipPath
       clipPathUnits="userSpaceOnUse"
       id="clipPath703160">
      <path
         d="M 246.772,-20 H 473.544 V -360.157 H 246.772 Z"
         id="path703158" />
    </clipPath>
    <clipPath
       clipPathUnits="userSpaceOnUse"
       id="clipPath703168">
      <path
         d="M 246.772,-360.157 H 473.544 V -20 H 246.772 Z"
         id="path703166" />
    </clipPath>
    <clipPath
       clipPathUnits="userSpaceOnUse"
       id="clipPath703176">
      <path
         d="m 282.002,-190.079 c 0,-43.163 34.993,-78.154 78.156,-78.154 43.164,0 78.155,34.991 78.155,78.154 0,43.164 -34.991,78.156 -78.155,78.156 -43.163,0 -78.156,-34.992 -78.156,-78.156"
         id="path703174" />
    </clipPath>
    <clipPath
       clipPathUnits="userSpaceOnUse"
       id="clipPath720772">
      <g
         id="g720776"
         transform="matrix(0.75000002,0,0,-0.75000002,-117.18415,74.879174)">
        <path
           d="M -45.430862,-131.30857 H 256.9318 V 322.23409 H -45.430862 Z"
           id="path720774"
           style="stroke-width:1.33333" />
      </g>
    </clipPath>
    <clipPath
       clipPathUnits="userSpaceOnUse"
       id="clipPath720778">
      <g
         id="g720782"
         transform="matrix(0.75000002,0,0,-0.75000002,-78.789654,69.358173)">
        <path
           d="M -45.430862,-131.30857 H 256.9318 V 322.23409 H -45.430862 Z"
           id="path720780"
           style="stroke-width:1.33333" />
      </g>
    </clipPath>
    <clipPath
       clipPathUnits="userSpaceOnUse"
       id="clipPath720784">
      <g
         id="g720788"
         transform="matrix(0.75000002,0,0,-0.75000002,34.073147,241.67557)">
        <path
           d="M -45.430862,-131.30857 H 256.9318 V 322.23409 H -45.430862 Z"
           id="path720786"
           style="stroke-width:1.33333" />
      </g>
    </clipPath>
    <clipPath
       clipPathUnits="userSpaceOnUse"
       id="clipPath703262">
      <path
         d="M -246.772,-20 H -20 v -340.157 h -226.772 z"
         id="path703260" />
    </clipPath>
    <clipPath
       clipPathUnits="userSpaceOnUse"
       id="clipPath703270">
      <path
         d="M -246.772,-360.157 H -20 V -20 h -226.772 z"
         id="path703268" />
    </clipPath>
    <clipPath
       clipPathUnits="userSpaceOnUse"
       id="clipPath703278">
      <path
         d="M -246.772,-20 H -20 v -340.157 h -226.772 z"
         id="path703276" />
    </clipPath>
    <clipPath
       clipPathUnits="userSpaceOnUse"
       id="clipPath703286">
      <path
         d="m 191.541,-190.078 c 0,-43.164 -34.992,-78.155 -78.156,-78.155 -43.163,0 -78.154,34.991 -78.154,78.155 0,43.164 34.991,78.155 78.154,78.155 43.164,0 78.156,-34.991 78.156,-78.155"
         id="path703284" />
    </clipPath>
    <clipPath
       clipPathUnits="userSpaceOnUse"
       id="clipPath703298">
      <path
         d="M 0,-20 H 226.772 V -360.157 H 0 Z"
         id="path703296" />
    </clipPath>
    <clipPath
       clipPathUnits="userSpaceOnUse"
       id="clipPath703306">
      <path
         d="M 0,-360.157 H 226.772 V -20 H 0 Z"
         id="path703304" />
    </clipPath>
    <clipPath
       clipPathUnits="userSpaceOnUse"
       id="clipPath703314">
      <path
         d="m 35.23,-190.079 c 0,-43.163 34.993,-78.154 78.156,-78.154 43.164,0 78.155,34.991 78.155,78.154 0,43.164 -34.991,78.156 -78.155,78.156 -43.163,0 -78.156,-34.992 -78.156,-78.156"
         id="path703312" />
    </clipPath>
    <clipPath
       clipPathUnits="userSpaceOnUse"
       id="clipPath721254">
      <g
         id="g721258"
         transform="matrix(0.75000002,0,0,-0.75000002,-143.46681,15.486327)">
        <path
           d="M 8.3138826,-226.73543 H 310.67654 V 226.80723 H 8.3138826 Z"
           id="path721256"
           style="stroke-width:1.33333" />
      </g>
    </clipPath>
    <clipPath
       clipPathUnits="userSpaceOnUse"
       id="clipPath721260">
      <g
         id="g721264"
         transform="matrix(0.75000002,0,0,-0.75000002,-150.19041,29.105427)">
        <path
           d="M 8.3138826,-226.73543 H 310.67654 V 226.80723 H 8.3138826 Z"
           id="path721262"
           style="stroke-width:1.33333" />
      </g>
    </clipPath>
    <clipPath
       clipPathUnits="userSpaceOnUse"
       id="clipPath721266">
      <g
         id="g721270"
         transform="matrix(0.75000002,0,0,-0.75000002,-6.2354121,170.10543)">
        <path
           d="M 8.3138826,-226.73543 H 310.67654 V 226.80723 H 8.3138826 Z"
           id="path721268"
           style="stroke-width:1.33333" />
      </g>
    </clipPath>
    <clipPath
       clipPathUnits="userSpaceOnUse"
       id="clipPath703432">
      <path
         d="M 0,340.157 H 226.772 V 0 H 0 Z"
         id="path703430" />
    </clipPath>
    <clipPath
       clipPathUnits="userSpaceOnUse"
       id="clipPath703542">
      <path
         d="M 0,340.157 H 226.772 V 0 H 0 Z"
         id="path703540" />
    </clipPath>
    <clipPath
       clipPathUnits="userSpaceOnUse"
       id="clipPath713424">
      <path
         d="M 0,340.157 H 226.772 V 0 H 0 Z"
         id="path713422" />
    </clipPath>
    <clipPath
       clipPathUnits="userSpaceOnUse"
       id="clipPath713526">
      <path
         d="M 0,340.157 H 226.772 V 0 H 0 Z"
         id="path713524" />
    </clipPath>
    <clipPath
       clipPathUnits="userSpaceOnUse"
       id="clipPath713616">
      <path
         d="M 0,340.157 H 226.772 V 0 H 0 Z"
         id="path713614" />
    </clipPath>
    <clipPath
       clipPathUnits="userSpaceOnUse"
       id="clipPath713690">
      <path
         d="M 0,340.157 H 226.772 V 0 H 0 Z"
         id="path713688" />
    </clipPath>
    <clipPath
       clipPathUnits="userSpaceOnUse"
       id="clipPath713764">
      <path
         d="M 0,340.157 H 226.772 V 0 H 0 Z"
         id="path713762" />
    </clipPath>
    <clipPath
       clipPathUnits="userSpaceOnUse"
       id="clipPath713874">
      <path
         d="M 0,340.157 H 226.772 V 0 H 0 Z"
         id="path713872" />
    </clipPath>
    <clipPath
       clipPathUnits="userSpaceOnUse"
       id="clipPath713874-3">
      <path
         d="M 0,340.157 H 226.772 V 0 H 0 Z"
         id="path713872-6" />
    </clipPath>
    <clipPath
       clipPathUnits="userSpaceOnUse"
       id="clipPath718030">
      <path
         d="M 0,340.157 H 226.772 V 0 H 0 Z"
         id="path718028" />
    </clipPath>
    <clipPath
       clipPathUnits="userSpaceOnUse"
       id="clipPath718104">
      <path
         d="M 0,340.157 H 226.772 V 0 H 0 Z"
         id="path718102" />
    </clipPath>
    <clipPath
       clipPathUnits="userSpaceOnUse"
       id="clipPath718178">
      <path
         d="M 0,340.157 H 226.772 V 0 H 0 Z"
         id="path718176" />
    </clipPath>
    <clipPath
       clipPathUnits="userSpaceOnUse"
       id="clipPath718296">
      <path
         d="M 0,340.157 H 226.772 V 0 H 0 Z"
         id="path718294" />
    </clipPath>
    <clipPath
       clipPathUnits="userSpaceOnUse"
       id="clipPath718398">
      <path
         d="M 0,340.157 H 226.772 V 0 H 0 Z"
         id="path718396" />
    </clipPath>
    <clipPath
       clipPathUnits="userSpaceOnUse"
       id="clipPath718484">
      <path
         d="M 0,340.157 H 226.772 V 0 H 0 Z"
         id="path718482" />
    </clipPath>
    <clipPath
       clipPathUnits="userSpaceOnUse"
       id="clipPath718558">
      <path
         d="M 0,340.157 H 226.772 V 0 H 0 Z"
         id="path718556" />
    </clipPath>
    <clipPath
       clipPathUnits="userSpaceOnUse"
       id="clipPath745984">
      <path
         d="M 0,340.157 H 226.772 V 0 H 0 Z"
         id="path745982" />
    </clipPath>
    <clipPath
       clipPathUnits="userSpaceOnUse"
       id="clipPath746070">
      <path
         d="M 0,340.157 H 226.772 V 0 H 0 Z"
         id="path746068" />
    </clipPath>
    <clipPath
       clipPathUnits="userSpaceOnUse"
       id="clipPath746144">
      <path
         d="M 0,340.157 H 226.772 V 0 H 0 Z"
         id="path746142" />
    </clipPath>
    <clipPath
       clipPathUnits="userSpaceOnUse"
       id="clipPath746274">
      <path
         d="M 0,340.157 H 226.772 V 0 H 0 Z"
         id="path746272" />
    </clipPath>
    <clipPath
       clipPathUnits="userSpaceOnUse"
       id="clipPath746400">
      <path
         d="M 0,340.157 H 226.772 V 0 H 0 Z"
         id="path746398" />
    </clipPath>
    <clipPath
       clipPathUnits="userSpaceOnUse"
       id="clipPath746502">
      <path
         d="M 0,340.157 H 226.772 V 0 H 0 Z"
         id="path746500" />
    </clipPath>
    <clipPath
       clipPathUnits="userSpaceOnUse"
       id="clipPath746510">
      <path
         d="M -246.772,340.157 H -20 V 0 h -226.772 z"
         id="path746508" />
    </clipPath>
    <clipPath
       clipPathUnits="userSpaceOnUse"
       id="clipPath746518">
      <path
         d="M -246.772,340.157 H -20 V 0 h -226.772 z"
         id="path746516" />
    </clipPath>
    <clipPath
       clipPathUnits="userSpaceOnUse"
       id="clipPath746616">
      <path
         d="M 0,340.157 H 226.772 V 0 H 0 Z"
         id="path746614" />
    </clipPath>
    <clipPath
       clipPathUnits="userSpaceOnUse"
       id="clipPath746694">
      <path
         d="M 0,340.157 H 226.772 V 0 H 0 Z"
         id="path746692" />
    </clipPath>
    <clipPath
       clipPathUnits="userSpaceOnUse"
       id="clipPath746780">
      <path
         d="M 0,340.157 H 226.772 V 0 H 0 Z"
         id="path746778" />
    </clipPath>
    <clipPath
       clipPathUnits="userSpaceOnUse"
       id="clipPath746858">
      <path
         d="M 0,340.157 H 226.772 V 0 H 0 Z"
         id="path746856" />
    </clipPath>
    <clipPath
       clipPathUnits="userSpaceOnUse"
       id="clipPath746936">
      <path
         d="M 0,340.157 H 226.772 V 0 H 0 Z"
         id="path746934" />
    </clipPath>
    <clipPath
       clipPathUnits="userSpaceOnUse"
       id="clipPath747022">
      <path
         d="M 0,340.157 H 226.772 V 0 H 0 Z"
         id="path747020" />
    </clipPath>
    <clipPath
       clipPathUnits="userSpaceOnUse"
       id="clipPath747112">
      <path
         d="M 0,340.157 H 226.772 V 0 H 0 Z"
         id="path747110" />
    </clipPath>
    <clipPath
       clipPathUnits="userSpaceOnUse"
       id="clipPath747198">
      <path
         d="M 0,340.157 H 226.772 V 0 H 0 Z"
         id="path747196" />
    </clipPath>
    <clipPath
       clipPathUnits="userSpaceOnUse"
       id="clipPath747284">
      <path
         d="M 0,340.157 H 226.772 V 0 H 0 Z"
         id="path747282" />
    </clipPath>
    <clipPath
       clipPathUnits="userSpaceOnUse"
       id="clipPath747366">
      <path
         d="M 0,340.157 H 226.772 V 0 H 0 Z"
         id="path747364" />
    </clipPath>
    <clipPath
       clipPathUnits="userSpaceOnUse"
       id="clipPath747448">
      <path
         d="M 0,340.157 H 226.772 V 0 H 0 Z"
         id="path747446" />
    </clipPath>
    <clipPath
       clipPathUnits="userSpaceOnUse"
       id="clipPath747530">
      <path
         d="M 0,340.157 H 226.772 V 0 H 0 Z"
         id="path747528" />
    </clipPath>
    <clipPath
       clipPathUnits="userSpaceOnUse"
       id="clipPath747616">
      <path
         d="M 0,340.157 H 226.772 V 0 H 0 Z"
         id="path747614" />
    </clipPath>
    <clipPath
       clipPathUnits="userSpaceOnUse"
       id="clipPath747694">
      <path
         d="M 0,340.157 H 226.772 V 0 H 0 Z"
         id="path747692" />
    </clipPath>
    <clipPath
       clipPathUnits="userSpaceOnUse"
       id="clipPath747772">
      <path
         d="M 0,340.157 H 226.772 V 0 H 0 Z"
         id="path747770" />
    </clipPath>
    <clipPath
       clipPathUnits="userSpaceOnUse"
       id="clipPath747850">
      <path
         d="M 0,340.157 H 226.772 V 0 H 0 Z"
         id="path747848" />
    </clipPath>
    <clipPath
       clipPathUnits="userSpaceOnUse"
       id="clipPath747948">
      <path
         d="M 0,340.157 H 226.772 V 0 H 0 Z"
         id="path747946" />
    </clipPath>
    <clipPath
       clipPathUnits="userSpaceOnUse"
       id="clipPath748026">
      <path
         d="M 0,340.157 H 226.772 V 0 H 0 Z"
         id="path748024" />
    </clipPath>
    <clipPath
       clipPathUnits="userSpaceOnUse"
       id="clipPath748108">
      <path
         d="M 0,340.157 H 226.772 V 0 H 0 Z"
         id="path748106" />
    </clipPath>
    <clipPath
       clipPathUnits="userSpaceOnUse"
       id="clipPath783955">
      <path
         d="M 0,340.157 H 226.772 V 0 H 0 Z"
         id="path783953" />
    </clipPath>
    <clipPath
       clipPathUnits="userSpaceOnUse"
       id="clipPath784037">
      <path
         d="M 0,340.157 H 226.772 V 0 H 0 Z"
         id="path784035" />
    </clipPath>
    <clipPath
       clipPathUnits="userSpaceOnUse"
       id="clipPath784115">
      <path
         d="M 0,340.157 H 226.772 V 0 H 0 Z"
         id="path784113" />
    </clipPath>
    <clipPath
       clipPathUnits="userSpaceOnUse"
       id="clipPath784241">
      <path
         d="M 0,340.157 H 226.772 V 0 H 0 Z"
         id="path784239" />
    </clipPath>
    <clipPath
       clipPathUnits="userSpaceOnUse"
       id="clipPath784371">
      <path
         d="M 0,340.157 H 226.772 V 0 H 0 Z"
         id="path784369" />
    </clipPath>
    <clipPath
       clipPathUnits="userSpaceOnUse"
       id="clipPath784461">
      <path
         d="M 0,340.157 H 226.772 V 0 H 0 Z"
         id="path784459" />
    </clipPath>
    <clipPath
       clipPathUnits="userSpaceOnUse"
       id="clipPath784543">
      <path
         d="M 0,340.157 H 226.772 V 0 H 0 Z"
         id="path784541" />
    </clipPath>
    <clipPath
       clipPathUnits="userSpaceOnUse"
       id="clipPath784625">
      <path
         d="M 0,340.157 H 226.772 V 0 H 0 Z"
         id="path784623" />
    </clipPath>
    <clipPath
       clipPathUnits="userSpaceOnUse"
       id="clipPath784707">
      <path
         d="M 0,340.157 H 226.772 V 0 H 0 Z"
         id="path784705" />
    </clipPath>
    <clipPath
       clipPathUnits="userSpaceOnUse"
       id="clipPath784707-7">
      <path
         d="M 0,340.157 H 226.772 V 0 H 0 Z"
         id="path784705-5" />
    </clipPath>
    <clipPath
       clipPathUnits="userSpaceOnUse"
       id="clipPath800733">
      <path
         d="M 0,340.157 H 226.772 V 0 H 0 Z"
         id="path800731" />
    </clipPath>
    <clipPath
       clipPathUnits="userSpaceOnUse"
       id="clipPath800847">
      <path
         d="M 0,340.157 H 226.772 V 0 H 0 Z"
         id="path800845" />
    </clipPath>
    <clipPath
       clipPathUnits="userSpaceOnUse"
       id="clipPath819863">
      <path
         d="M 0,340.157 H 226.772 V 0 H 0 Z"
         id="path819861" />
    </clipPath>
    <clipPath
       clipPathUnits="userSpaceOnUse"
       id="clipPath819973">
      <path
         d="M 0,340.157 H 226.772 V 0 H 0 Z"
         id="path819971" />
    </clipPath>
    <clipPath
       clipPathUnits="userSpaceOnUse"
       id="clipPath820055">
      <path
         d="M 0,340.157 H 226.772 V 0 H 0 Z"
         id="path820053" />
    </clipPath>
    <clipPath
       clipPathUnits="userSpaceOnUse"
       id="clipPath820177">
      <path
         d="M 0,340.157 H 226.772 V 0 H 0 Z"
         id="path820175" />
    </clipPath>
    <clipPath
       clipPathUnits="userSpaceOnUse"
       id="clipPath820311">
      <path
         d="M 0,340.157 H 226.772 V 0 H 0 Z"
         id="path820309" />
    </clipPath>
    <clipPath
       clipPathUnits="userSpaceOnUse"
       id="clipPath820441">
      <path
         d="M 0,340.157 H 226.772 V 0 H 0 Z"
         id="path820439" />
    </clipPath>
    <clipPath
       clipPathUnits="userSpaceOnUse"
       id="clipPath820523">
      <path
         d="M 0,340.157 H 226.772 V 0 H 0 Z"
         id="path820521" />
    </clipPath>
  </defs>
  <g
     id="g820517"
     transform="matrix(1.3333333,0,0,-1.3333333,-1.1810629,297.64946)">
    <g
       id="g820519"
       clip-path="url(#clipPath820523)">
      <g
         id="g820525"
         transform="translate(106.7441,137.6356)">
        <path
           d="m 0,0 c 0,-1.821 -0.929,-2.803 -2.786,-2.946 -0.785,0 -1.446,0.267 -1.982,0.803 -0.535,0.536 -0.803,1.25 -0.803,2.143 0,1.715 0.928,2.679 2.785,2.893 C -1.107,2.893 -0.179,1.929 0,0 m 8.304,13.071 c 0,-1.642 -0.947,-2.464 -2.84,-2.464 -2.321,0 -4.143,0.447 -5.464,1.339 -1.321,0.893 -2.25,2.232 -2.786,4.019 -1.321,-3.572 -4.232,-5.358 -8.732,-5.358 -1.821,0 -2.732,0.822 -2.732,2.464 0,0.536 0.214,1.063 0.643,1.581 0.429,0.517 1.144,0.777 2.143,0.777 1.964,0 3.464,0.356 4.5,1.071 1.035,0.714 1.776,1.687 2.223,2.92 0.446,1.232 0.741,2.633 0.884,4.205 l 3.161,0.268 c -0.072,-0.572 -0.107,-1.178 -0.107,-1.822 0,-1.107 0.16,-2.169 0.482,-3.187 C 0,17.866 0.616,17.044 1.527,16.42 2.438,15.795 3.75,15.464 5.464,15.429 c 0.786,0 1.455,-0.188 2.01,-0.563 0.553,-0.375 0.83,-0.973 0.83,-1.795 m -27.268,2.358 c -0.143,3.178 -0.786,5.598 -1.929,7.258 -1.144,1.662 -2.554,2.492 -4.232,2.492 -1.286,0 -2.322,-0.465 -3.107,-1.393 -0.786,-0.93 -1.179,-1.947 -1.179,-3.054 0,-0.822 0.223,-1.643 0.67,-2.464 0.446,-0.822 1.357,-1.5 2.732,-2.036 1.374,-0.536 3.455,-0.803 6.241,-0.803 z m -12,-19.608 c -3.429,0 -6.126,0.876 -8.09,2.625 l 0.804,3.375 c 0.892,-0.499 1.856,-0.884 2.893,-1.151 1.035,-0.268 2.357,-0.402 3.964,-0.402 3.035,0 5.589,0.991 7.661,2.973 2.07,1.983 3.482,4.439 4.232,7.366 h -1.072 c -3.214,0 -5.705,0.456 -7.473,1.367 -1.767,0.91 -3.009,2.097 -3.723,3.562 -0.715,1.464 -1.071,3.018 -1.071,4.66 0,2.429 0.821,4.545 2.464,6.349 1.642,1.803 3.625,2.705 5.946,2.705 1.179,0 2.455,-0.394 3.831,-1.179 1.374,-0.786 2.562,-2.178 3.562,-4.178 0.999,-2 1.554,-4.822 1.661,-8.464 h 4.071 c 0.785,0 1.455,-0.188 2.009,-0.563 0.553,-0.375 0.831,-0.973 0.831,-1.795 0,-1.642 -0.947,-2.464 -2.84,-2.464 H -15.75 C -16.607,6.321 -18.42,2.786 -21.187,0 c -2.769,-2.785 -6.027,-4.179 -9.777,-4.179"
           style="fill:#1d1d1b;fill-opacity:1;fill-rule:nonzero;stroke:none"
           id="path820527" />
      </g>
      <g
         id="g820529"
         transform="translate(122.0859,204.7713)">
        <path
           d="M 0,0 C -2.893,-1.179 -5.768,-2.161 -8.625,-2.946 L -9,-1.179 c 3.356,1.035 6.25,2.072 8.679,3.108 z"
           style="fill:#f91536;fill-opacity:1;fill-rule:nonzero;stroke:none"
           id="path820531" />
      </g>
      <g
         id="g820533"
         transform="translate(142.0571,156.0379)">
        <path
           d="m 0,0 c -0.857,-0.662 -1.982,-1.197 -3.375,-1.607 -1.393,-0.412 -3.643,-0.733 -6.75,-0.965 -3.107,-0.233 -6.518,-0.348 -10.232,-0.348 h -1.661 c 2.607,3.964 5.312,6.884 8.116,8.759 2.804,1.875 5.312,2.812 7.527,2.812 1.75,0 3.187,-0.321 4.312,-0.964 C -0.937,7.044 -0.099,6.275 0.456,5.384 1.009,4.49 1.286,3.633 1.286,2.813 1.286,1.598 0.857,0.66 0,0 m 10.42,-3.536 c -0.554,0.375 -1.197,0.562 -1.929,0.562 -0.732,0 -1.589,0.054 -2.571,0.161 -0.983,0.107 -1.884,0.303 -2.706,0.589 1.072,1.464 1.608,3.161 1.608,5.089 0,1.679 -0.447,3.286 -1.34,4.822 -0.893,1.536 -2.134,2.794 -3.723,3.777 -1.59,0.981 -3.438,1.474 -5.545,1.474 -2.785,0 -5.473,-0.858 -8.062,-2.573 -2.59,-1.714 -4.902,-3.875 -6.938,-6.481 0.072,0.678 0.125,1.624 0.161,2.839 0,1.214 -0.036,2.892 -0.107,5.036 l -0.696,19.339 -4.072,-0.322 1.072,-28.017 c 0,-1.215 -0.179,-2.233 -0.536,-3.054 -0.358,-0.822 -0.822,-1.697 -1.393,-2.625 h -3.536 c -1.071,0 -1.785,-0.277 -2.143,-0.83 -0.356,-0.555 -0.535,-1.063 -0.535,-1.527 0,-0.535 0.179,-1.09 0.535,-1.66 0.358,-0.573 1.072,-0.858 2.143,-0.858 h 8.465 c 6.071,0 10.607,0.232 13.607,0.696 3,0.464 5.178,1.018 6.535,1.662 2.107,-1.573 5.054,-2.358 8.84,-2.358 h 0.857 c 1.892,0 2.839,0.821 2.839,2.464 0,0.821 -0.277,1.42 -0.83,1.795"
           style="fill:#f91536;fill-opacity:1;fill-rule:nonzero;stroke:none"
           id="path820535" />
      </g>
      <g
         id="g820537"
         transform="translate(194.4932,148.243)">
        <path
           d="m 0,0 h -4.018 l -1.5,38.571 4.018,0.322 z m -2.571,43.339 c -3.179,0 -5.572,-0.304 -7.179,-0.91 l 0.322,2.517 c 0.25,0.143 0.624,0.285 1.125,0.429 0.499,0.143 0.946,0.214 1.339,0.214 -1.286,0.821 -1.929,1.929 -1.929,3.321 0,1.465 0.554,2.59 1.661,3.375 1.107,0.785 2.375,1.179 3.804,1.179 2.107,0 3.642,-0.464 4.607,-1.393 L 0.322,49.607 c -1.108,0.786 -2.393,1.178 -3.858,1.178 -0.893,0 -1.571,-0.205 -2.035,-0.615 -0.465,-0.411 -0.697,-0.85 -0.697,-1.313 0,-1.714 1.572,-2.643 4.715,-2.786 H 1.982 L 0.911,43.339 Z M -22.575,29.41 c 0,-1.821 -0.946,-2.804 -2.839,-2.946 -0.786,0 -1.439,0.268 -1.956,0.804 -0.518,0.536 -0.776,1.25 -0.776,2.142 0,0.821 0.258,1.509 0.776,2.063 0.517,0.553 1.187,0.831 2.009,0.831 1.678,0 2.607,-0.965 2.786,-2.894 M -43.361,0 h -0.589 c -0.892,0 -1.571,0.231 -2.036,0.696 -0.463,0.464 -0.696,1.035 -0.696,1.714 0,0.608 0.206,1.17 0.616,1.688 0.411,0.517 1.117,0.777 2.116,0.777 h 0.643 c 6.892,0 12.946,1.179 18.161,3.535 l 1.875,0.858 c 1.428,0.677 2.678,1.196 3.75,1.553 -1.179,0.429 -2.447,0.947 -3.804,1.554 -1.714,0.785 -3.491,1.508 -5.33,2.17 -1.84,0.66 -3.599,0.99 -5.277,0.99 -2.822,0 -5.215,-0.41 -7.179,-1.231 l 0.75,4.392 c 1.715,0.785 3.875,1.179 6.483,1.179 2.285,0 4.481,-0.375 6.589,-1.125 2.106,-0.75 4.178,-1.607 6.214,-2.571 2.464,-1.108 4.232,-1.804 5.304,-2.09 1.071,-0.286 2.124,-0.429 3.16,-0.429 h 1.983 l -0.75,-4.446 h -0.858 c -2.464,0 -5.571,-1.144 -9.321,-3.429 -3.857,-2.25 -7.438,-3.776 -10.741,-4.58 C -35.602,0.401 -39.289,0 -43.361,0"
           style="fill:#1d1d1b;fill-opacity:1;fill-rule:nonzero;stroke:none"
           id="path820539" />
      </g>
      <g
         id="g820541"
         transform="translate(63.2964,156.0379)">
        <path
           d="m 0,0 c -0.857,-0.662 -1.982,-1.197 -3.375,-1.607 -1.393,-0.412 -3.652,-0.733 -6.777,-0.965 -3.125,-0.233 -6.545,-0.348 -10.259,-0.348 h -1.66 c 2.571,3.964 5.267,6.884 8.089,8.759 2.821,1.875 5.357,2.812 7.607,2.812 1.714,0 3.143,-0.321 4.286,-0.964 C -0.947,7.044 -0.099,6.275 0.456,5.384 1.009,4.49 1.286,3.633 1.286,2.813 1.286,1.598 0.857,0.66 0,0 m 3.456,7.687 c -0.876,1.536 -2.108,2.794 -3.697,3.777 -1.59,0.981 -3.455,1.474 -5.598,1.474 -2.751,0 -5.42,-0.858 -8.009,-2.573 -2.59,-1.714 -4.902,-3.875 -6.938,-6.481 0.072,0.678 0.125,1.624 0.161,2.839 0,1.214 -0.053,2.892 -0.161,5.036 l -0.75,19.339 -3.964,-0.322 1.072,-28.017 c 0,-1.215 -0.179,-2.233 -0.536,-3.054 -0.358,-0.822 -0.822,-1.697 -1.393,-2.625 -2.536,0 -4.75,0.268 -6.643,0.804 l 1.661,-4.983 c 3.428,-0.464 6.214,-0.696 8.357,-0.696 h 1.5 c 6.178,0 10.785,0.232 13.821,0.696 6.893,1.072 10.893,3.429 12,7.072 0.286,1 0.429,1.964 0.429,2.892 0,1.679 -0.438,3.286 -1.312,4.822"
           style="fill:#f91536;fill-opacity:1;fill-rule:nonzero;stroke:none"
           id="path820543" />
      </g>
    </g>
  </g>
</svg>
