<?xml version="1.0" encoding="UTF-8" standalone="no"?>
<!-- Created with Inkscape (http://www.inkscape.org/) -->

<svg
   width="200"
   height="200"
   viewBox="0 0 200 200"
   version="1.1"
   id="svg37630"
   inkscape:version="1.2.1 (9c6d41e410, 2022-07-14)"
   sodipodi:docname="133_lf2.svg"
   xmlns:inkscape="http://www.inkscape.org/namespaces/inkscape"
   xmlns:sodipodi="http://sodipodi.sourceforge.net/DTD/sodipodi-0.dtd"
   xmlns="http://www.w3.org/2000/svg"
   xmlns:svg="http://www.w3.org/2000/svg">
  <sodipodi:namedview
     id="namedview37632"
     pagecolor="#ffffff"
     bordercolor="#000000"
     borderopacity="0.25"
     inkscape:showpageshadow="2"
     inkscape:pageopacity="0.0"
     inkscape:pagecheckerboard="0"
     inkscape:deskcolor="#d1d1d1"
     inkscape:document-units="px"
     showgrid="false"
     inkscape:zoom="1.829812"
     inkscape:cx="66.127012"
     inkscape:cy="126.78898"
     inkscape:window-width="2040"
     inkscape:window-height="460"
     inkscape:window-x="696"
     inkscape:window-y="28"
     inkscape:window-maximized="1"
     inkscape:current-layer="layer1" />
  <defs
     id="defs37627">
    <clipPath
       clipPathUnits="userSpaceOnUse"
       id="clipPath49831">
      <g
         id="g49837">
        <g
           id="g49835">
          <path
             d="M 0,340.157 H 226.772 V 0 H 0 Z"
             id="path49833" />
        </g>
      </g>
    </clipPath>
    <clipPath
       clipPathUnits="userSpaceOnUse"
       id="clipPath49846">
      <g
         id="g49852">
        <g
           id="g49850">
          <path
             d="M 0,340.157 H 226.772 V 0 H 0 Z"
             id="path49848" />
        </g>
      </g>
    </clipPath>
    <clipPath
       clipPathUnits="userSpaceOnUse"
       id="clipPath3810">
      <path
         d="M 0,340.157 H 226.772 V 0 H 0 Z"
         id="path3808" />
    </clipPath>
    <clipPath
       clipPathUnits="userSpaceOnUse"
       id="clipPath63168">
      <g
         id="g63172"
         transform="translate(-138.8968,-217.1925)">
        <path
           d="M 0,340.157 H 226.772 V 0 H 0 Z"
           id="path63170" />
      </g>
    </clipPath>
    <clipPath
       clipPathUnits="userSpaceOnUse"
       id="clipPath63174">
      <g
         id="g63178"
         transform="translate(-81.8929,-48.1051)">
        <path
           d="M 0,340.157 H 226.772 V 0 H 0 Z"
           id="path63176" />
      </g>
    </clipPath>
    <clipPath
       clipPathUnits="userSpaceOnUse"
       id="clipPath75594">
      <g
         id="g75598"
         transform="translate(-127.7585,-249.5099)">
        <path
           d="M 0,340.157 H 226.772 V 0 H 0 Z"
           id="path75596" />
      </g>
    </clipPath>
    <clipPath
       clipPathUnits="userSpaceOnUse"
       id="clipPath75588">
      <g
         id="g75592"
         transform="translate(-138.8962,-196.152)">
        <path
           d="M 0,340.157 H 226.772 V 0 H 0 Z"
           id="path75590" />
      </g>
    </clipPath>
    <clipPath
       clipPathUnits="userSpaceOnUse"
       id="clipPath75600">
      <g
         id="g75604"
         transform="translate(-150.3796,-110.1285)">
        <path
           d="M 0,340.157 H 226.772 V 0 H 0 Z"
           id="path75602" />
      </g>
    </clipPath>
    <clipPath
       clipPathUnits="userSpaceOnUse"
       id="clipPath75902">
      <g
         id="g75906"
         transform="translate(-117.3763,-183.3499)">
        <path
           d="M 0,340.157 H 226.772 V 0 H 0 Z"
           id="path75904" />
      </g>
    </clipPath>
    <clipPath
       clipPathUnits="userSpaceOnUse"
       id="clipPath75908">
      <g
         id="g75912"
         transform="translate(-122.3158,-75.9998)">
        <path
           d="M 0,340.157 H 226.772 V 0 H 0 Z"
           id="path75910" />
      </g>
    </clipPath>
    <clipPath
       clipPathUnits="userSpaceOnUse"
       id="clipPath76189">
      <g
         id="g76193"
         transform="translate(-91.8367,-210.8606)">
        <path
           d="M 0,340.157 H 226.772 V 0 H 0 Z"
           id="path76191" />
      </g>
    </clipPath>
    <clipPath
       clipPathUnits="userSpaceOnUse"
       id="clipPath76183">
      <g
         id="g76187"
         transform="translate(-135.2703,-223.5168)">
        <path
           d="M 0,340.157 H 226.772 V 0 H 0 Z"
           id="path76185" />
      </g>
    </clipPath>
    <clipPath
       clipPathUnits="userSpaceOnUse"
       id="clipPath76195">
      <g
         id="g76199"
         transform="translate(-135.2703,-91.532)">
        <path
           d="M 0,340.157 H 226.772 V 0 H 0 Z"
           id="path76197" />
      </g>
    </clipPath>
    <clipPath
       clipPathUnits="userSpaceOnUse"
       id="clipPath9892">
      <path
         d="M 0,340.157 H 226.772 V 0 H 0 Z"
         id="path9890" />
    </clipPath>
    <clipPath
       clipPathUnits="userSpaceOnUse"
       id="clipPath76990">
      <g
         id="g76994"
         transform="translate(-121.1707,-272.8103)">
        <path
           d="M 0,340.157 H 226.772 V 0 H 0 Z"
           id="path76992" />
      </g>
    </clipPath>
  </defs>
  <g
     inkscape:label="Layer 1"
     inkscape:groupmode="layer"
     id="layer1">
    <path
       d="m 103.61595,48.325044 c -2.46797,0 -4.513268,-0.839986 -6.137241,-2.521294 -1.625307,-1.681308 -2.437295,-3.922604 -2.437295,-6.725226 0,-2.575961 0.811988,-4.734593 2.437295,-6.473231 C 99.102682,30.869319 101.20398,30 103.78261,30 c 5.26658,0 8.1812,3.025286 8.74253,9.078524 0,5.715908 -2.97062,8.801193 -8.90919,9.24652 M 119.58636,198.124 c -12.4398,0 -23.732958,-1.9613 -33.875466,-5.8839 -10.145172,-3.92394 -18.18771,-9.72518 -24.124951,-17.39973 -5.942571,-7.67987 -8.913191,-17.12373 -8.913191,-28.32888 0,-8.2972 1.933304,-15.57842 5.802575,-21.85699 3.865273,-6.2759 8.850527,-11.62648 14.959761,-16.05574 6.110572,-4.4266 12.663802,-7.95721 19.673022,-10.591837 7.00122,-2.633291 13.75579,-4.457262 20.25701,-5.463912 l -5.37858,-2.018637 c -4.0346,-1.679973 -8.85719,-3.387945 -14.459767,-5.127917 -5.605246,-1.735974 -11.377154,-2.605293 -17.31706,-2.605293 -8.739861,0 -16.306408,1.45731 -22.694306,4.371933 l 2.854621,-14.459771 c 2.130633,-1.009318 4.765255,-1.875973 7.903872,-2.605293 3.137283,-0.72799 7.509217,-1.093317 13.114459,-1.093317 6.72523,0 13.337125,1.037317 19.839688,3.110619 6.498563,2.074633 12.719803,4.345266 18.659703,6.809225 l 6.39056,2.522625 c 6.49857,3.025286 11.99048,4.538597 16.47442,4.538597 l 8.57452,0.167997 -3.53061,14.795761 c -2.68929,-0.33731 -6.78256,-0.50532 -12.27181,-0.50532 -6.50122,0 -13.17312,0.83999 -20.00901,2.52263 -8.07054,1.90663 -15.467757,4.73592 -22.191649,8.49053 -6.723892,3.75461 -12.163809,8.4332 -16.306408,14.03711 -4.1506,5.60658 -6.221234,12.16114 -6.221234,19.67035 0,8.74253 2.659959,16.02775 7.985206,21.85699 5.322583,5.82658 12.413137,10.19717 21.266328,13.11313 8.854527,2.91328 18.549047,4.37193 29.086207,4.37193 6.16524,0 13.50645,-0.78666 22.02366,-2.35463 l -5.54792,13.11446 c -6.05057,1.9053 -13.39179,2.85728 -22.02365,2.85728"
       style="fill:#000000;fill-opacity:1;fill-rule:nonzero;stroke:none;stroke-width:1.33331"
       id="path9970"
       clip-path="none" />
  </g>
</svg>
