<?xml version="1.0" encoding="UTF-8" standalone="no"?>
<!-- Created with Inkscape (http://www.inkscape.org/) -->

<svg
   version="1.1"
   id="svg120394"
   width="400"
   height="400"
   viewBox="0 0 400 400"
   sodipodi:docname="1341_pic.pdf"
   xmlns:inkscape="http://www.inkscape.org/namespaces/inkscape"
   xmlns:sodipodi="http://sodipodi.sourceforge.net/DTD/sodipodi-0.dtd"
   xmlns="http://www.w3.org/2000/svg"
   xmlns:svg="http://www.w3.org/2000/svg">
  <defs
     id="defs120398">
    <clipPath
       clipPathUnits="userSpaceOnUse"
       id="clipPath120414">
      <path
         d="M 0,0 H 157.05434 V -238.59195 H 0 Z"
         clip-rule="evenodd"
         id="path120412" />
    </clipPath>
    <clipPath
       clipPathUnits="userSpaceOnUse"
       id="clipPath120424">
      <path
         d="m 0,-238.59195 h 300 v 477.1839 H 0 Z"
         id="path120422" />
    </clipPath>
  </defs>
  <sodipodi:namedview
     id="namedview120396"
     pagecolor="#ffffff"
     bordercolor="#000000"
     borderopacity="0.25"
     inkscape:showpageshadow="2"
     inkscape:pageopacity="0.0"
     inkscape:pagecheckerboard="0"
     inkscape:deskcolor="#d1d1d1" />
  <g
     id="g120400"
     inkscape:groupmode="layer"
     inkscape:label="1341_pic10"
     transform="matrix(1.3333333,0,0,-1.3333333,0,400)">
    <g
       id="g120402">
      <g
         id="g120404">
        <g
           id="g120406"
           transform="translate(71.47283,269.29598)">
          <g
             id="g120408">
            <g
               id="g120410"
               clip-path="url(#clipPath120414)">
              <g
                 id="g120416"
                 transform="matrix(1.33329,0,0,1.33329,0,-318.11264)">
                <g
                   id="g120418">
                  <g
                     id="g120420" />
                  <g
                     id="g120676">
                    <g
                       clip-path="url(#clipPath120424)"
                       id="g120674">
                      <g
                         transform="translate(59.59435,221.66488)"
                         id="g120432">
                        <g
                           id="g120430">
                          <g
                             id="g120428">
                            <path
                               d="m 0.38209,-38.625 c 0,0 -0.919,15.046 7.27,23.683 4.40001,4.641 7.59601,7.275 9.61101,8.718 1.041,0.745 2.471,-0.06 2.373,-1.336 l -0.365,-4.827 c 0,0 3.958,3.617 12.363,6.288 3.341,1.063 5.745,1.703 7.427,2.088 1.473,0.337 2.709,-1.129 2.116,-2.519 L 40.5821,-7.924 58.2001,0 c 0,0 -1.214,-16.74 -5.323,-26.224 -4.111,-9.483 -8.054,-12.488 -8.054,-12.488 l 5.87,-0.349 c 1.534,-0.09 2.429,-1.811 1.577,-3.089 -2.591,-3.891 -9.757,-10.76 -29.057,-14.778 -28.03901,-5.837 -22.83101,18.303 -22.83101,18.303 z"
                               style="fill:#53a043;fill-opacity:1;fill-rule:nonzero;stroke:none"
                               id="path120426" />
                          </g>
                        </g>
                      </g>
                      <g
                         transform="translate(64.43945,221.66488)"
                         id="g120440">
                        <g
                           id="g120438">
                          <g
                             id="g120436">
                            <path
                               d="m 18.368,-56.928 c 19.301,4.018 26.466,10.887 29.058,14.777 0.85,1.279 -0.044,2.999 -1.578,3.09 l -5.871,0.349 c 0,0 3.946,3.005 8.053,12.488 C 52.139,-16.74 53.354,0 53.354,0 53.354,0 29.55,-35.296 0,-54.768 c 3.382,-2.712 9.019,-4.105 18.368,-2.16 z"
                               style="mix-blend-mode:multiply;fill:#53a043;fill-opacity:0.25;fill-rule:nonzero;stroke:none"
                               id="path120434" />
                          </g>
                        </g>
                      </g>
                      <g
                         transform="translate(38.37627,93.97172)"
                         id="g120448">
                        <g
                           id="g120446">
                          <g
                             id="g120444">
                            <path
                               d="m 32.8152,-10.1258 c 3.887,-8.6437 0.03,-18.8015 -8.612,-22.6886 -8.645,-3.8879 -18.80183,-0.0321 -22.68973,8.6121 -3.8859,8.6429 -0.0312,18.80146 8.61273,22.68746 8.643,3.888 18.8,0.034 22.689,-8.61096 z"
                               style="fill:#a93484;fill-opacity:1;fill-rule:nonzero;stroke:none"
                               id="path120442" />
                          </g>
                        </g>
                      </g>
                      <g
                         transform="translate(38.37645,93.95988)"
                         id="g120456">
                        <g
                           id="g120454">
                          <g
                             id="g120452">
                            <path
                               d="m 30.766,-6.712 c 0.22,-0.379 0.422,-0.771 0.604,-1.178 2.914,-6.48 0.023,-14.0962 -6.457,-17.0103 -6.48,-2.9148 -14.096,-0.0238 -17.0095,6.457 -2.9152,6.4793 -0.025,14.0953 6.4555,17.0103 1.993,0.896 4.095,1.24 6.133,1.102 C 19.4624,-0.12648 18.4114,-0.01421 17.3519,0 H 16.8923 C 14.6244,-0.03044 12.3266,-0.51224 10.125,-1.502 3.81026,-4.34208 0.05029,-10.5301 0,-17.0293 v -0.2641 c 0.01788,-2.3106 0.50548,-4.6552 1.5145,-6.8979 2.8543,-6.3466 9.0895,-10.1125 15.6243,-10.1262 h 0.0714 c 2.3415,0.0049 4.72,0.4918 6.9938,1.5145 6.3391,2.8515 10.1026,9.0759 10.125,15.6021 v 0.1171 c -0.008,2.3341 -0.4949,4.7045 -1.514,6.9708 -0.559,1.239 -1.256,2.367 -2.049,3.401 z"
                               style="mix-blend-mode:multiply;fill:#a93484;fill-opacity:0.25;fill-rule:nonzero;stroke:none"
                               id="path120450" />
                          </g>
                        </g>
                      </g>
                      <g
                         transform="translate(66.78467,138.10812)"
                         id="g120464">
                        <g
                           id="g120462">
                          <g
                             id="g120460">
                            <path
                               d="m 35.2688,-10.8832 c 4.179,-9.29 0.032,-20.207 -9.257,-24.385 -9.289,-4.177 -20.20703,-0.034 -24.38603,9.255 -4.175,9.29 -0.032,20.20797 9.25703,24.38597 9.29,4.178 20.207,0.033 24.386,-9.25597 z"
                               style="fill:#a93484;fill-opacity:1;fill-rule:nonzero;stroke:none"
                               id="path120458" />
                          </g>
                        </g>
                      </g>
                      <g
                         transform="translate(66.78545,138.09588)"
                         id="g120472">
                        <g
                           id="g120470">
                          <g
                             id="g120468">
                            <path
                               d="m 33.066,-7.215 c 0.234,-0.406 0.452,-0.828 0.647,-1.266 3.132,-6.963 0.027,-15.149 -6.938,-18.281 -6.964,-3.133 -15.148,-0.025 -18.282,6.94 -3.132,6.963 -0.025,15.149 6.938,18.281 2.144,0.964 4.402,1.332 6.592,1.184 C 20.8831,-0.1306 19.7187,-0.00931 18.5451,0 H 18.2528 C 15.7832,-0.01959 13.2785,-0.53633 10.881,-1.614 4.08877,-4.67007 0.04748,-11.3301 0,-18.3214 v -0.2491 c 0.0169,-2.4886 0.54061,-5.0141 1.627,-7.4295 4.177,-9.289 15.095,-13.434 24.384,-9.255 9.289,4.178 13.436,15.094 9.255,24.385 -0.596,1.332 -1.348,2.545 -2.2,3.655 z"
                               style="mix-blend-mode:multiply;fill:#a93484;fill-opacity:0.25;fill-rule:nonzero;stroke:none"
                               id="path120466" />
                          </g>
                        </g>
                      </g>
                      <g
                         transform="translate(74.93681,167.32649)"
                         id="g120480">
                        <g
                           id="g120478">
                          <g
                             id="g120476">
                            <path
                               d="m 39.1796,-12.0896 c 4.642,-10.32 0.037,-22.448 -10.282,-27.09 -10.321,-4.64 -22.44796,-0.037 -27.08896,10.282 -4.643,10.321 -0.038,22.44899 10.28096,27.08999 10.319,4.641 22.448,0.037 27.09,-10.28199 z"
                               style="fill:#a93484;fill-opacity:1;fill-rule:nonzero;stroke:none"
                               id="path120474" />
                          </g>
                        </g>
                      </g>
                      <g
                         transform="translate(74.93711,167.31388)"
                         id="g120488">
                        <g
                           id="g120486">
                          <g
                             id="g120484">
                            <path
                               d="m 36.7343,-8.016 c 0.261,-0.452 0.502,-0.92 0.721,-1.405 3.478,-7.738 0.027,-16.831 -7.709,-20.31 -7.739,-3.48 -16.83,-0.028 -20.31097,7.709 -3.478,7.736 -0.027,16.829 7.70897,20.31 2.381,1.069 4.889,1.479 7.321,1.315 C 23.1615,-0.13798 21.8289,-0.00288 20.486,0 H 20.3984 C 17.6168,-0.00596 14.7925,-0.57967 12.0893,-1.795 1.76933,-6.436 -2.83267,-18.564 1.80733,-28.884 c 4.642,-10.32 16.77097,-14.923 27.08997,-10.282 7.5386,3.3905 12.0276,10.7769 12.089,18.5351 v 0.3226 c -0.0218,2.7573 -0.6039,5.5551 -1.808,8.2313 -0.665,1.48 -1.499,2.827 -2.444,4.061 z"
                               style="mix-blend-mode:multiply;fill:#a93484;fill-opacity:0.25;fill-rule:nonzero;stroke:none"
                               id="path120482" />
                          </g>
                        </g>
                      </g>
                      <g
                         transform="translate(49.99211,238.59195)"
                         id="g120496">
                        <g
                           id="g120494">
                          <g
                             id="g120492">
                            <path
                               d="m 6.45034,-54.8291 c 0,0 -9.6058,21.117 -5.373,36.462 2.771,10.04403 9.38396,15.32703 13.62196,17.77703 2.036,1.178 4.635,0.537 5.921,-1.431 1.308,-2.001 0.783,-4.657 -1.153,-6.058 -4.403,-3.18503 -11.27396,-9.60103 -11.40496,-18.68603 -0.192,-13.386 2.23096,-27.383 1.84,-27.959 -0.39,-0.575 -3.452,-0.105 -3.452,-0.105 z"
                               style="fill:#53a043;fill-opacity:1;fill-rule:nonzero;stroke:none"
                               id="path120490" />
                          </g>
                        </g>
                      </g>
                      <g
                         transform="translate(49.99167,238.5849)"
                         id="g120504">
                        <g
                           id="g120502">
                          <g
                             id="g120500">
                            <path
                               d="m 2.79677,-28.73 c 0.146,12.677 9.49703,22.72298 16.09603,28.24598 -1.289,0.65 -2.859,0.673 -4.193,-0.1 -4.238,-2.45 -10.85003,-7.732 -13.62203,-17.77598 -4.234,-15.345 5.373,-36.462 5.373,-36.462 0,0 1.04458,-0.1576 1.99199,-0.177 h 0.05655 c -2.6739,5.7431 -5.83253,14.9546 -5.70254,26.269 z"
                               style="mix-blend-mode:multiply;fill:#53a043;fill-opacity:0.25;fill-rule:nonzero;stroke:none"
                               id="path120498" />
                          </g>
                        </g>
                      </g>
                      <g
                         transform="translate(17.38703,197.88694)"
                         id="g120512">
                        <g
                           id="g120510">
                          <g
                             id="g120508">
                            <path
                               d="m 32.6994,-10.0911 c 3.874,-8.612 0.031,-18.734 -8.5822,-22.607 -8.6129,-3.874 -18.73518,-0.034 -22.60898,8.58 -3.8723,8.614 -0.0313,18.73604 8.58198,22.60904 8.6129,3.874 18.7348,0.032 22.6092,-8.58204 z"
                               style="fill:#a93484;fill-opacity:1;fill-rule:nonzero;stroke:none"
                               id="path120506" />
                          </g>
                        </g>
                      </g>
                      <g
                         transform="translate(17.38745,197.87488)"
                         id="g120520">
                        <g
                           id="g120518">
                          <g
                             id="g120516">
                            <path
                               d="m 30.658,-6.689 c 0.218,-0.377 0.419,-0.769 0.602,-1.174 2.903,-6.457 0.023,-14.046 -6.4354,-16.95 -6.4578,-2.904 -14.0457,-0.023 -16.95,6.434 -2.9039,6.458 -0.0238,14.045 6.4332,16.951 1.9871,0.893 4.0801,1.234 6.1109,1.096 -1.058,0.21068 -2.139,0.32347 -3.2284,0.332 L 16.9231,0 C 14.634,-0.01793 12.3122,-0.4973 10.0898,-1.497 3.79197,-4.32957 0.04549,-10.5024 0,-16.9834 v -0.2388 c 0.01619,-2.3058 0.50159,-4.6457 1.5078,-6.8838 2.8423,-6.3196 9.0485,-10.0707 15.5542,-10.09 h 0.1011 c 2.3284,0.0069 4.693,0.4922 6.9537,1.509 8.6132,3.873 12.4562,13.995 8.5822,22.608 -0.555,1.236 -1.251,2.36 -2.041,3.39 z"
                               style="mix-blend-mode:multiply;fill:#a93484;fill-opacity:0.25;fill-rule:nonzero;stroke:none"
                               id="path120514" />
                          </g>
                        </g>
                      </g>
                      <g
                         transform="translate(43.46938,196.10394)"
                         id="g120528">
                        <g
                           id="g120526">
                          <g
                             id="g120524">
                            <path
                               d="m 32.7001,-10.0911 c 3.872,-8.611 0.03,-18.735 -8.582,-22.608 -8.613,-3.873 -18.73504,-0.032 -22.60944,8.581 -3.8731,8.614 -0.032,18.73504 8.58244,22.60904 8.613,3.874 18.735,0.032 22.609,-8.58204 z"
                               style="fill:#a93484;fill-opacity:1;fill-rule:nonzero;stroke:none"
                               id="path120522" />
                          </g>
                        </g>
                      </g>
                      <g
                         transform="translate(43.46945,196.09188)"
                         id="g120536">
                        <g
                           id="g120534">
                          <g
                             id="g120532">
                            <path
                               d="m 30.659,-6.689 c 0.218,-0.377 0.419,-0.769 0.601,-1.173 2.904,-6.458 0.024,-14.047 -6.434,-16.951 -6.458,-2.904 -14.047,-0.023 -16.95,6.435 -2.904,6.457 -0.025,14.044 6.432,16.95 1.988,0.893 4.08,1.235 6.113,1.096 C 19.3626,-0.12132 18.2814,-0.00853 17.1918,0 H 16.9245 C 14.6352,-0.01793 12.3134,-0.4973 10.091,-1.497 3.76888,-4.34013 0.01771,-10.5485 0,-17.0559 v -0.0926 c 0.00634,-2.3296 0.49145,-4.6956 1.5086,-6.9575 3.8744,-8.612 13.9964,-12.455 22.6094,-8.581 8.612,3.873 12.454,13.996 8.582,22.608 -0.557,1.236 -1.253,2.36 -2.041,3.39 z"
                               style="mix-blend-mode:multiply;fill:#a93484;fill-opacity:0.25;fill-rule:nonzero;stroke:none"
                               id="path120530" />
                          </g>
                        </g>
                      </g>
                      <g
                         transform="translate(67.05523,194.39582)"
                         id="g120544">
                        <g
                           id="g120542">
                          <g
                             id="g120540">
                            <path
                               d="m 32.6992,-10.0889 c 3.874,-8.614 0.03,-18.737 -8.581,-22.61 -8.613,-3.874 -18.73599,-0.031 -22.60899,8.582 -3.874,8.612 -0.033,18.73496 8.58199,22.60796 8.612,3.874 18.735,0.031 22.608,-8.57996 z"
                               style="fill:#a93484;fill-opacity:1;fill-rule:nonzero;stroke:none"
                               id="path120538" />
                          </g>
                        </g>
                      </g>
                      <g
                         transform="translate(67.05523,194.38388)"
                         id="g120552">
                        <g
                           id="g120550">
                          <g
                             id="g120548">
                            <path
                               d="m 30.6582,-6.688 c 0.218,-0.377 0.419,-0.77 0.602,-1.174 2.904,-6.458 0.023,-14.047 -6.435,-16.951 -6.457,-2.903 -14.047,-0.023 -16.94999,6.435 -2.904,6.457 -0.025,14.044 6.43199,16.95 1.989,0.893 4.08,1.235 6.113,1.097 C 19.3737,-0.123 18.305,-0.0106 17.2279,0 H 16.8918 C 14.6131,-0.02245 12.3032,-0.502 10.0912,-1.497 1.47621,-5.37 -2.36479,-15.493 1.50921,-24.105 c 3.873,-8.613 13.99599,-12.456 22.60899,-8.582 6.2555,2.8135 9.9953,8.9254 10.088,15.3607 v 0.4902 c -0.0326,2.2651 -0.5186,4.5607 -1.507,6.7581 -0.557,1.235 -1.251,2.36 -2.041,3.39 z"
                               style="mix-blend-mode:multiply;fill:#a93484;fill-opacity:0.25;fill-rule:nonzero;stroke:none"
                               id="path120546" />
                          </g>
                        </g>
                      </g>
                      <g
                         transform="translate(22.77359,115.00157)"
                         id="g120560">
                        <g
                           id="g120558">
                          <g
                             id="g120556">
                            <path
                               d="m 32.8159,-10.1257 c 3.887,-8.644 0.03,-18.802 -8.6122,-22.689 -8.6449,-3.8875 -18.80194,-0.032 -22.69024,8.612 -3.886,8.643 -0.0309,18.80202 8.61334,22.68802 8.6437,3.888 18.8011,0.033 22.6891,-8.61102 z"
                               style="fill:#a93484;fill-opacity:1;fill-rule:nonzero;stroke:none"
                               id="path120554" />
                          </g>
                        </g>
                      </g>
                      <g
                         transform="translate(22.77342,114.98988)"
                         id="g120568">
                        <g
                           id="g120566">
                          <g
                             id="g120564">
                            <path
                               d="m 30.767,-6.713 c 0.218,-0.378 0.42,-0.771 0.604,-1.178 2.914,-6.48 0.023,-14.096 -6.458,-17.01 -6.4803,-2.915 -14.0963,-0.024 -17.01038,6.457 -2.9136,6.48 -0.0238,14.095 6.45708,17.01 1.9929,0.897 4.0941,1.24 6.132,1.102 C 19.4321,-0.12145 18.3496,-0.00867 17.2586,0 H 16.9861 C 14.688,-0.01828 12.357,-0.49962 10.1257,-1.503 1.48272,-5.39 -2.37308,-15.548 1.51402,-24.192 c 3.8867,-8.643 14.04488,-12.4988 22.68978,-8.612 6.2996,2.8338 10.0567,8.9983 10.1252,15.4797 v 0.3611 c -0.0243,2.2948 -0.5121,4.6223 -1.514,6.8492 -0.557,1.239 -1.256,2.367 -2.048,3.401 z"
                               style="mix-blend-mode:multiply;fill:#a93484;fill-opacity:0.25;fill-rule:nonzero;stroke:none"
                               id="path120562" />
                          </g>
                        </g>
                      </g>
                      <g
                         transform="translate(53.42497,114.38572)"
                         id="g120576">
                        <g
                           id="g120574">
                          <g
                             id="g120572">
                            <path
                               d="m 32.8155,-10.1258 c 3.888,-8.644 0.03,-18.801 -8.612,-22.689 -8.645,-3.8867 -18.80202,-0.032 -22.69002,8.613 -3.886,8.643 -0.031,18.80096 8.61302,22.68696 8.642,3.888 18.801,0.034 22.689,-8.61096 z"
                               style="fill:#a93484;fill-opacity:1;fill-rule:nonzero;stroke:none"
                               id="path120570" />
                          </g>
                        </g>
                      </g>
                      <g
                         transform="translate(53.42447,114.37388)"
                         id="g120584">
                        <g
                           id="g120582">
                          <g
                             id="g120580">
                            <path
                               d="m 30.767,-6.712 c 0.219,-0.378 0.421,-0.771 0.604,-1.178 2.915,-6.48 0.023,-14.096 -6.458,-17.01 -6.479,-2.916 -14.095,-0.024 -17.00902,6.457 -2.915,6.479 -0.025,14.095 6.45702,17.01 1.993,0.897 4.093,1.239 6.132,1.102 C 19.4585,-0.12551 18.4023,-0.01324 17.3376,0 H 16.9113 C 14.6372,-0.0283 12.3325,-0.51023 10.125,-1.502 1.48298,-5.389 -2.37402,-15.547 1.51498,-24.191 4.35654,-30.5094 10.5495,-34.2702 17.0523,-34.317 h 0.2458 c 2.3132,0.0167 4.6606,0.504 6.9059,1.514 6.3307,2.8482 10.0942,9.0611 10.126,15.5787 v 0.1663 c -0.0114,2.3258 -0.4984,4.6871 -1.514,6.945 -0.559,1.239 -1.256,2.367 -2.049,3.401 z"
                               style="mix-blend-mode:multiply;fill:#a93484;fill-opacity:0.25;fill-rule:nonzero;stroke:none"
                               id="path120578" />
                          </g>
                        </g>
                      </g>
                      <g
                         transform="translate(8.57951,141.86512)"
                         id="g120592">
                        <g
                           id="g120590">
                          <g
                             id="g120588">
                            <path
                               d="m 35.2684,-10.8832 c 4.1785,-9.29 0.034,-20.207 -9.2558,-24.385 -9.2903,-4.177 -20.20707,-0.034 -24.38517,9.256 -4.1781,9.289 -0.034,20.20697 9.25587,24.38497 9.289,4.178 20.207,0.033 24.3851,-9.25597 z"
                               style="fill:#a93484;fill-opacity:1;fill-rule:nonzero;stroke:none"
                               id="path120586" />
                          </g>
                        </g>
                      </g>
                      <g
                         transform="translate(8.58009,141.85246)"
                         id="g120600">
                        <g
                           id="g120598">
                          <g
                             id="g120596">
                            <path
                               d="m 33.0667,-7.21558 c 0.234,-0.405 0.4508,-0.828 0.6469,-1.266 3.1332,-6.96202 0.027,-15.14802 -6.9379,-18.28002 -6.9648,-3.134 -15.1492,-0.025 -18.28205,6.938 -3.132,6.964 -0.0262,15.15002 6.93795,18.28202 2.1441,0.964 4.4019,1.332 6.593,1.184 -3.6321,0.721 -7.5098,0.376 -11.143,-1.257 -9.28915,-4.178 -13.43205,-15.09502 -9.25395,-24.38502 4.1769,-9.29 15.09415,-13.434 24.38405,-9.255 9.289,4.177 13.4337,15.095 9.2558,24.384 -0.5976,1.33202 -1.3488,2.54502 -2.2008,3.65502 z"
                               style="mix-blend-mode:multiply;fill:#a93484;fill-opacity:0.25;fill-rule:nonzero;stroke:none"
                               id="path120594" />
                          </g>
                        </g>
                      </g>
                      <g
                         transform="translate(38.26164,139.25027)"
                         id="g120608">
                        <g
                           id="g120606">
                          <g
                             id="g120604">
                            <path
                               d="m 35.2678,-10.8834 c 4.178,-9.29 0.033,-20.207 -9.257,-24.385 -9.288,-4.177 -20.2057,-0.034 -24.3839,9.256 -4.1769,9.289 -0.0339,20.20701 9.2559,24.38501 9.289,4.178 20.206,0.034 24.385,-9.25601 z"
                               style="fill:#a93484;fill-opacity:1;fill-rule:nonzero;stroke:none"
                               id="path120602" />
                          </g>
                        </g>
                      </g>
                      <g
                         transform="translate(38.26245,139.23746)"
                         id="g120616">
                        <g
                           id="g120614">
                          <g
                             id="g120612">
                            <path
                               d="m 33.066,-7.21458 c 0.234,-0.407 0.451,-0.829 0.647,-1.266 3.132,-6.96402 0.027,-15.15002 -6.938,-18.28202 -6.965,-3.132 -15.149,-0.025 -18.2821,6.94 -3.132,6.963 -0.0261,15.14902 6.9391,18.28102 2.143,0.964 4.401,1.332 6.592,1.184 -3.632,0.721 -7.509,0.376 -11.142,-1.257 C 4.10046,-4.66438 0.06161,-11.3056 0,-18.283 v -0.324 c 0.02187,-2.4766 0.54585,-4.9891 1.6269,-7.3926 3.05545,-6.7956 9.7174,-10.8376 16.7105,-10.883 h 0.238 c 2.4902,0.0162 5.0175,0.5399 7.4346,1.627 9.29,4.178 13.435,15.096 9.256,24.385 -0.597,1.33202 -1.348,2.54502 -2.2,3.65602 z"
                               style="mix-blend-mode:multiply;fill:#a93484;fill-opacity:0.25;fill-rule:nonzero;stroke:none"
                               id="path120610" />
                          </g>
                        </g>
                      </g>
                      <g
                         transform="translate(55.00839,169.01065)"
                         id="g120624">
                        <g
                           id="g120622">
                          <g
                             id="g120620">
                            <path
                               d="m 39.1801,-12.0898 c 4.641,-10.319 0.036,-22.447 -10.281,-27.089 -10.323,-4.64 -22.45004,-0.038 -27.09104,10.282 -4.642,10.321 -0.037,22.44804 10.28104,27.08904 10.32,4.641 22.448,0.038 27.091,-10.28204 z"
                               style="fill:#a93484;fill-opacity:1;fill-rule:nonzero;stroke:none"
                               id="path120618" />
                          </g>
                        </g>
                      </g>
                      <g
                         transform="translate(55.00867,168.99788)"
                         id="g120632">
                        <g
                           id="g120630">
                          <g
                             id="g120628">
                            <path
                               d="m 36.7338,-8.015 c 0.262,-0.452 0.502,-0.921 0.721,-1.406 3.478,-7.739 0.028,-16.83 -7.709,-20.31 -7.739,-3.479 -16.83,-0.028 -20.31102,7.709 -3.478,7.736 -0.027,16.83 7.70902,20.31 2.381,1.07 4.889,1.479 7.322,1.315 C 23.166,-0.13885 21.8379,-0.00378 20.4995,0 h -0.1157 c -2.777,-0.00785 -5.5959,-0.58146 -8.295,-1.794 -10.31902,-4.642 -14.92202,-16.77 -10.28102,-27.09 4.641,-10.319 16.77002,-14.923 27.09002,-10.282 7.575,3.4072 12.0708,10.8499 12.089,18.6499 v 0.0947 c -0.0065,2.7939 -0.5878,5.6316 -1.808,8.3444 -0.666,1.48 -1.5,2.828 -2.445,4.062 z"
                               style="mix-blend-mode:multiply;fill:#a93484;fill-opacity:0.25;fill-rule:nonzero;stroke:none"
                               id="path120626" />
                          </g>
                        </g>
                      </g>
                      <g
                         transform="translate(0,175.23009)"
                         id="g120640">
                        <g
                           id="g120638">
                          <g
                             id="g120636">
                            <path
                               d="m 39.1799,-12.0892 c 4.6411,-10.32 0.0379,-22.448 -10.282,-27.089 -10.3211,-4.642 -22.44795,-0.039 -27.08975,10.282 -4.6422,10.319 -0.0371,22.44799 10.28155,27.08799 10.3192,4.642 22.4481,0.038 27.0902,-10.28099 z"
                               style="fill:#a93484;fill-opacity:1;fill-rule:nonzero;stroke:none"
                               id="path120634" />
                          </g>
                        </g>
                      </g>
                      <g
                         transform="translate(3.5e-4,175.21688)"
                         id="g120648">
                        <g
                           id="g120646">
                          <g
                             id="g120644">
                            <path
                               d="m 36.7332,-8.015 c 0.2613,-0.451 0.5019,-0.92 0.7203,-1.406 3.4797,-7.738 0.0289,-16.83 -7.7082,-20.31 -7.7379,-3.479 -16.8301,-0.028 -20.3102,7.709 -3.4789,7.737 -0.0277,16.83 7.7094,20.31 2.3797,1.07 4.8879,1.479 7.3207,1.315 C 23.2029,-0.14591 21.9136,-0.01107 20.614,0 H 20.2657 C 17.5269,-0.02334 14.7495,-0.59798 12.0894,-1.794 4.52894,-5.19431 0.0364,-12.6142 0,-20.3968 v -0.1906 c 0.01299,-2.7781 0.59446,-5.5987 1.8074,-8.2956 4.641,-10.32 16.7687,-14.924 27.0898,-10.282 10.3192,4.64 14.9231,16.769 10.2821,27.088 -0.6661,1.48 -1.5,2.828 -2.4461,4.062 z"
                               style="mix-blend-mode:multiply;fill:#a93484;fill-opacity:0.25;fill-rule:nonzero;stroke:none"
                               id="path120642" />
                          </g>
                        </g>
                      </g>
                      <g
                         transform="translate(29.67463,171.71549)"
                         id="g120656">
                        <g
                           id="g120654">
                          <g
                             id="g120652">
                            <path
                               d="m 39.1798,-12.0896 c 4.641,-10.32 0.036,-22.448 -10.283,-27.09 -10.321,-4.64 -22.44769,-0.037 -27.08869,10.282 -4.6418,10.321 -0.0379,22.44899 10.28079,27.08999 10.3199,4.641 22.4479,0.037 27.0909,-10.28199 z"
                               style="fill:#a93484;fill-opacity:1;fill-rule:nonzero;stroke:none"
                               id="path120650" />
                          </g>
                        </g>
                      </g>
                      <g
                         transform="translate(29.67455,171.70166)"
                         id="g120664">
                        <g
                           id="g120662">
                          <g
                             id="g120660">
                            <path
                               d="m 36.7339,-8.01578 c 0.261,-0.451 0.502,-0.92 0.721,-1.405 3.478,-7.73902 0.028,-16.83002 -7.709,-20.31002 -7.739,-3.479 -16.8299,-0.028 -20.3112,7.709 -3.4777,7.735 -0.0269,16.82902 7.709,20.31002 2.3812,1.07 4.8892,1.479 7.3222,1.314 -4.033,0.802 -8.3401,0.418 -12.3769,-1.396 C 4.53216,-5.19319 0.04074,-12.6072 0,-20.3859 v -0.2135 c 0.01453,-2.7744 0.59596,-5.591 1.807,-8.2844 4.6418,-10.319 16.7709,-14.923 27.0909,-10.282 7.5751,3.4073 12.0709,10.8499 12.089,18.6495 v 0.0948 c -0.0065,2.7936 -0.5878,5.6312 -1.808,8.3437 -0.666,1.481 -1.5,2.82802 -2.445,4.06202 z"
                               style="mix-blend-mode:multiply;fill:#a93484;fill-opacity:0.25;fill-rule:nonzero;stroke:none"
                               id="path120658" />
                          </g>
                        </g>
                      </g>
                      <g
                         transform="translate(14.79055,195.19544)"
                         id="g120672">
                        <g
                           id="g120670">
                          <g
                             id="g120668">
                            <path
                               d="m 44.7549,-118.4 c -2.781,-0.293 -5.544,1.133 -6.821,3.646 -0.674,1.329 -2.844,0.48 -2.164,-0.858 1.5913,-3.135 4.7057,-5.106 8.1638,-5.152 h 0.2429 c 0.2849,0.004 0.5718,0.021 0.8603,0.051 1.49,0.159 1.21,2.47 -0.282,2.313 z m -17.0694,18.7854 c -2.6777,-0.147 -5.1961,2.203 -5.1269,4.915 0.0359,1.48 -2.2699,1.821 -2.3078,0.321 -0.1051,-4.27 3.4199,-7.7844 7.7179,-7.5474 1.4957,0.083 1.2098,2.3934 -0.2832,2.3114 z m -16.973,24.919 c -2.8699,0.487 -4.8598,3.649 -3.9289,6.446 0.4711,1.411 -1.6641,2.346 -2.1371,0.922 -1.4149,-4.248 1.2929,-8.918 5.7453,-9.676 1.4758,-0.25 1.8,2.057 0.3207,2.308 z m 29.3854,-1.141 c -2.405,0.965 -4.082,3.197 -4.292,5.885 -0.117,1.494 -2.428,1.211 -2.312,-0.283 0.333,-4.273 3.636,-7.738 7.864,-8.354 0.911,-0.133 1.504,0.769 1.242,1.583 -0.129,0.397 -0.258,0.794 -0.386,1.193 -0.36,1.112 -1.734,0.826 -2.116,-0.024 z m 33.076,-2.904 c -3.226,-0.131 -5.792,2.649 -5.804,5.779 -0.005,1.496 -2.314,1.204 -2.309,-0.282 0.014,-4.483 4.01,-7.986 8.395,-7.808 1.496,0.061 1.209,2.372 -0.282,2.311 z m 16.524,46.032 c -1.38,0.579 -2.305,-1.557 -0.922,-2.137 1.778,-0.744 2.825,-2.325 2.911,-4.236 0.066,-1.497 2.378,-1.209 2.309,0.283 -0.12,2.695 -1.821,5.053 -4.298,6.09 z m -85.4733,7.628 C 1.49841,-26.8092 0.03503,-29.7883 0,-32.8273 v -0.2235 c 0.01895,-1.6432 0.45608,-3.2954 1.3375,-4.7688 0.7703,-1.288 2.6371,0.105 1.875,1.38 -1.9359,3.235 -0.7238,7.508 2.393,9.484 1.2672,0.805 -0.1219,2.674 -1.3809,1.875 z m 38.7403,-5.34 c -4.993,0.673 -9.616,-1.714 -12.1044,-6.058 -0.7418,-1.298 1.402,-2.209 2.1394,-0.922 1.965,3.434 5.761,5.198 9.644,4.675 1.482,-0.2 1.81,2.105 0.321,2.305 z m 21.262,1.873 c -1.462,0.322 -1.781,-1.986 -0.323,-2.307 2.586,-0.569 4.593,-2.628 5.107,-5.224 0.288,-1.461 2.6,-1.192 2.309,0.283 -0.724,3.68 -3.432,6.441 -7.093,7.248 z m 4.509,24.43204 c -3.468,-1.76 -5.512,-5.415 -5.044,-9.30504 0.18,-1.487 2.493,-1.209 2.313,0.283 -0.338,2.786 1.062,5.57704 3.593,6.85804 1.327,0.673 0.477,2.842 -0.862,2.164 z m -19.008,2.334 c -3.388,-0.226 -6.24,-2.179 -7.827,-5.149 -0.708,-1.323 1.435,-2.237 2.136,-0.922 1.211,2.266 3.436,3.591 5.974,3.76 1.495,0.099 1.211,2.411 -0.283,2.311 z m -20.2033,-3.464 c 0.259,-1.481 -2.0531,-1.753 -2.3121,-0.283 -0.232,1.328 -1.209,2.338 -2.4148,2.761 l -0.7879,0.091 c -0.1411,-0.035 -0.2942,-0.046 -0.4672,-0.018 l -0.7961,0.133 c -0.0649,0.009 -0.1328,0.014 -0.191,0.032 -0.1309,0.023 -0.261,0.044 -0.393,0.066 -0.7598,0.086 -1.043,0.725 -0.9469,1.31 0.068,0.588 0.518,1.121 1.268,0.996 0.123,-0.013 0.2449,-0.028 0.3672,-0.042 1.1277,0.405 2.3058,0.181 3.2789,-0.558 0.0211,-0.016 0.0289,-0.038 0.05,-0.055 1.7051,-0.832 2.998,-2.456 3.3449,-4.433 z"
                               style="fill:#ffffff;fill-opacity:0.10001;fill-rule:nonzero;stroke:none"
                               id="path120666" />
                          </g>
                        </g>
                      </g>
                    </g>
                  </g>
                </g>
              </g>
            </g>
          </g>
        </g>
      </g>
    </g>
  </g>
</svg>
