<?xml version="1.0" encoding="UTF-8" standalone="no"?>
<!-- Created with Inkscape (http://www.inkscape.org/) -->

<svg
   version="1.1"
   id="svg18"
   width="300"
   height="150"
   viewBox="0 0 300.00002 150"
   sodipodi:docname="1345_word.svg"
   inkscape:version="1.2.1 (9c6d41e410, 2022-07-14)"
   xmlns:inkscape="http://www.inkscape.org/namespaces/inkscape"
   xmlns:sodipodi="http://sodipodi.sourceforge.net/DTD/sodipodi-0.dtd"
   xmlns="http://www.w3.org/2000/svg"
   xmlns:svg="http://www.w3.org/2000/svg">
  <sodipodi:namedview
     id="namedview37"
     pagecolor="#ffffff"
     bordercolor="#000000"
     borderopacity="0.25"
     inkscape:showpageshadow="2"
     inkscape:pageopacity="0.0"
     inkscape:pagecheckerboard="0"
     inkscape:deskcolor="#d1d1d1"
     showgrid="false"
     inkscape:zoom="4.0941839"
     inkscape:cx="103.92792"
     inkscape:cy="106.24828"
     inkscape:window-width="1700"
     inkscape:window-height="1396"
     inkscape:window-x="8"
     inkscape:window-y="28"
     inkscape:window-maximized="1"
     inkscape:current-layer="svg18" />
  <defs
     id="defs22">
    <clipPath
       clipPathUnits="userSpaceOnUse"
       id="clipPath2796">
      <path
         d="M 0,340.157 H 226.772 V 0 H 0 Z"
         id="path2794" />
    </clipPath>
    <clipPath
       clipPathUnits="userSpaceOnUse"
       id="clipPath2804">
      <path
         d="M 246.772,340.157 H 473.544 V 0 H 246.772 Z"
         id="path2802" />
    </clipPath>
    <clipPath
       clipPathUnits="userSpaceOnUse"
       id="clipPath2812">
      <path
         d="M 246.772,0 H 473.544 V 340.157 H 246.772 Z"
         id="path2810" />
    </clipPath>
    <clipPath
       clipPathUnits="userSpaceOnUse"
       id="clipPath2820">
      <path
         d="M 246.772,340.157 H 473.544 V 0 H 246.772 Z"
         id="path2818" />
    </clipPath>
    <clipPath
       clipPathUnits="userSpaceOnUse"
       id="clipPath2828">
      <path
         d="m 438.313,-190.079 c 0,-43.163 -34.991,-78.155 -78.155,-78.155 -43.164,0 -78.155,34.992 -78.155,78.155 0,43.164 34.991,78.155 78.155,78.155 43.164,0 78.155,-34.991 78.155,-78.155"
         id="path2826" />
    </clipPath>
    <clipPath
       clipPathUnits="userSpaceOnUse"
       id="clipPath702936">
      <path
         d="M 0,340.157 H 226.772 V 0 H 0 Z"
         id="path702934" />
    </clipPath>
    <clipPath
       clipPathUnits="userSpaceOnUse"
       id="clipPath703010">
      <path
         d="M 0,340.157 H 226.772 V 0 H 0 Z"
         id="path703008" />
    </clipPath>
    <clipPath
       clipPathUnits="userSpaceOnUse"
       id="clipPath703120">
      <path
         d="M 0,-20 H 226.772 V -360.157 H 0 Z"
         id="path703118" />
    </clipPath>
    <clipPath
       clipPathUnits="userSpaceOnUse"
       id="clipPath703128">
      <path
         d="M 0,-360.157 H 226.772 V -20 H 0 Z"
         id="path703126" />
    </clipPath>
    <clipPath
       clipPathUnits="userSpaceOnUse"
       id="clipPath703136">
      <path
         d="M 0,-20 H 226.772 V -360.157 H 0 Z"
         id="path703134" />
    </clipPath>
    <clipPath
       clipPathUnits="userSpaceOnUse"
       id="clipPath703144">
      <path
         d="m 438.313,-190.078 c 0,-43.164 -34.992,-78.155 -78.156,-78.155 -43.163,0 -78.154,34.991 -78.154,78.155 0,43.164 34.991,78.155 78.154,78.155 43.164,0 78.156,-34.991 78.156,-78.155"
         id="path703142" />
    </clipPath>
    <clipPath
       clipPathUnits="userSpaceOnUse"
       id="clipPath703160">
      <path
         d="M 246.772,-20 H 473.544 V -360.157 H 246.772 Z"
         id="path703158" />
    </clipPath>
    <clipPath
       clipPathUnits="userSpaceOnUse"
       id="clipPath703168">
      <path
         d="M 246.772,-360.157 H 473.544 V -20 H 246.772 Z"
         id="path703166" />
    </clipPath>
    <clipPath
       clipPathUnits="userSpaceOnUse"
       id="clipPath703176">
      <path
         d="m 282.002,-190.079 c 0,-43.163 34.993,-78.154 78.156,-78.154 43.164,0 78.155,34.991 78.155,78.154 0,43.164 -34.991,78.156 -78.155,78.156 -43.163,0 -78.156,-34.992 -78.156,-78.156"
         id="path703174" />
    </clipPath>
    <clipPath
       clipPathUnits="userSpaceOnUse"
       id="clipPath720772">
      <g
         id="g720776"
         transform="matrix(0.75000002,0,0,-0.75000002,-117.18415,74.879174)">
        <path
           d="M -45.430862,-131.30857 H 256.9318 V 322.23409 H -45.430862 Z"
           id="path720774"
           style="stroke-width:1.33333" />
      </g>
    </clipPath>
    <clipPath
       clipPathUnits="userSpaceOnUse"
       id="clipPath720778">
      <g
         id="g720782"
         transform="matrix(0.75000002,0,0,-0.75000002,-78.789654,69.358173)">
        <path
           d="M -45.430862,-131.30857 H 256.9318 V 322.23409 H -45.430862 Z"
           id="path720780"
           style="stroke-width:1.33333" />
      </g>
    </clipPath>
    <clipPath
       clipPathUnits="userSpaceOnUse"
       id="clipPath720784">
      <g
         id="g720788"
         transform="matrix(0.75000002,0,0,-0.75000002,34.073147,241.67557)">
        <path
           d="M -45.430862,-131.30857 H 256.9318 V 322.23409 H -45.430862 Z"
           id="path720786"
           style="stroke-width:1.33333" />
      </g>
    </clipPath>
    <clipPath
       clipPathUnits="userSpaceOnUse"
       id="clipPath703262">
      <path
         d="M -246.772,-20 H -20 v -340.157 h -226.772 z"
         id="path703260" />
    </clipPath>
    <clipPath
       clipPathUnits="userSpaceOnUse"
       id="clipPath703270">
      <path
         d="M -246.772,-360.157 H -20 V -20 h -226.772 z"
         id="path703268" />
    </clipPath>
    <clipPath
       clipPathUnits="userSpaceOnUse"
       id="clipPath703278">
      <path
         d="M -246.772,-20 H -20 v -340.157 h -226.772 z"
         id="path703276" />
    </clipPath>
    <clipPath
       clipPathUnits="userSpaceOnUse"
       id="clipPath703286">
      <path
         d="m 191.541,-190.078 c 0,-43.164 -34.992,-78.155 -78.156,-78.155 -43.163,0 -78.154,34.991 -78.154,78.155 0,43.164 34.991,78.155 78.154,78.155 43.164,0 78.156,-34.991 78.156,-78.155"
         id="path703284" />
    </clipPath>
    <clipPath
       clipPathUnits="userSpaceOnUse"
       id="clipPath703298">
      <path
         d="M 0,-20 H 226.772 V -360.157 H 0 Z"
         id="path703296" />
    </clipPath>
    <clipPath
       clipPathUnits="userSpaceOnUse"
       id="clipPath703306">
      <path
         d="M 0,-360.157 H 226.772 V -20 H 0 Z"
         id="path703304" />
    </clipPath>
    <clipPath
       clipPathUnits="userSpaceOnUse"
       id="clipPath703314">
      <path
         d="m 35.23,-190.079 c 0,-43.163 34.993,-78.154 78.156,-78.154 43.164,0 78.155,34.991 78.155,78.154 0,43.164 -34.991,78.156 -78.155,78.156 -43.163,0 -78.156,-34.992 -78.156,-78.156"
         id="path703312" />
    </clipPath>
    <clipPath
       clipPathUnits="userSpaceOnUse"
       id="clipPath721254">
      <g
         id="g721258"
         transform="matrix(0.75000002,0,0,-0.75000002,-143.46681,15.486327)">
        <path
           d="M 8.3138826,-226.73543 H 310.67654 V 226.80723 H 8.3138826 Z"
           id="path721256"
           style="stroke-width:1.33333" />
      </g>
    </clipPath>
    <clipPath
       clipPathUnits="userSpaceOnUse"
       id="clipPath721260">
      <g
         id="g721264"
         transform="matrix(0.75000002,0,0,-0.75000002,-150.19041,29.105427)">
        <path
           d="M 8.3138826,-226.73543 H 310.67654 V 226.80723 H 8.3138826 Z"
           id="path721262"
           style="stroke-width:1.33333" />
      </g>
    </clipPath>
    <clipPath
       clipPathUnits="userSpaceOnUse"
       id="clipPath721266">
      <g
         id="g721270"
         transform="matrix(0.75000002,0,0,-0.75000002,-6.2354121,170.10543)">
        <path
           d="M 8.3138826,-226.73543 H 310.67654 V 226.80723 H 8.3138826 Z"
           id="path721268"
           style="stroke-width:1.33333" />
      </g>
    </clipPath>
    <clipPath
       clipPathUnits="userSpaceOnUse"
       id="clipPath703432">
      <path
         d="M 0,340.157 H 226.772 V 0 H 0 Z"
         id="path703430" />
    </clipPath>
    <clipPath
       clipPathUnits="userSpaceOnUse"
       id="clipPath703542">
      <path
         d="M 0,340.157 H 226.772 V 0 H 0 Z"
         id="path703540" />
    </clipPath>
    <clipPath
       clipPathUnits="userSpaceOnUse"
       id="clipPath713424">
      <path
         d="M 0,340.157 H 226.772 V 0 H 0 Z"
         id="path713422" />
    </clipPath>
    <clipPath
       clipPathUnits="userSpaceOnUse"
       id="clipPath713526">
      <path
         d="M 0,340.157 H 226.772 V 0 H 0 Z"
         id="path713524" />
    </clipPath>
    <clipPath
       clipPathUnits="userSpaceOnUse"
       id="clipPath713616">
      <path
         d="M 0,340.157 H 226.772 V 0 H 0 Z"
         id="path713614" />
    </clipPath>
    <clipPath
       clipPathUnits="userSpaceOnUse"
       id="clipPath713690">
      <path
         d="M 0,340.157 H 226.772 V 0 H 0 Z"
         id="path713688" />
    </clipPath>
    <clipPath
       clipPathUnits="userSpaceOnUse"
       id="clipPath713764">
      <path
         d="M 0,340.157 H 226.772 V 0 H 0 Z"
         id="path713762" />
    </clipPath>
    <clipPath
       clipPathUnits="userSpaceOnUse"
       id="clipPath713874">
      <path
         d="M 0,340.157 H 226.772 V 0 H 0 Z"
         id="path713872" />
    </clipPath>
    <clipPath
       clipPathUnits="userSpaceOnUse"
       id="clipPath713874-3">
      <path
         d="M 0,340.157 H 226.772 V 0 H 0 Z"
         id="path713872-6" />
    </clipPath>
    <clipPath
       clipPathUnits="userSpaceOnUse"
       id="clipPath718030">
      <path
         d="M 0,340.157 H 226.772 V 0 H 0 Z"
         id="path718028" />
    </clipPath>
    <clipPath
       clipPathUnits="userSpaceOnUse"
       id="clipPath718104">
      <path
         d="M 0,340.157 H 226.772 V 0 H 0 Z"
         id="path718102" />
    </clipPath>
    <clipPath
       clipPathUnits="userSpaceOnUse"
       id="clipPath718178">
      <path
         d="M 0,340.157 H 226.772 V 0 H 0 Z"
         id="path718176" />
    </clipPath>
    <clipPath
       clipPathUnits="userSpaceOnUse"
       id="clipPath718296">
      <path
         d="M 0,340.157 H 226.772 V 0 H 0 Z"
         id="path718294" />
    </clipPath>
    <clipPath
       clipPathUnits="userSpaceOnUse"
       id="clipPath718398">
      <path
         d="M 0,340.157 H 226.772 V 0 H 0 Z"
         id="path718396" />
    </clipPath>
    <clipPath
       clipPathUnits="userSpaceOnUse"
       id="clipPath718484">
      <path
         d="M 0,340.157 H 226.772 V 0 H 0 Z"
         id="path718482" />
    </clipPath>
    <clipPath
       clipPathUnits="userSpaceOnUse"
       id="clipPath718558">
      <path
         d="M 0,340.157 H 226.772 V 0 H 0 Z"
         id="path718556" />
    </clipPath>
    <clipPath
       clipPathUnits="userSpaceOnUse"
       id="clipPath745984">
      <path
         d="M 0,340.157 H 226.772 V 0 H 0 Z"
         id="path745982" />
    </clipPath>
    <clipPath
       clipPathUnits="userSpaceOnUse"
       id="clipPath746070">
      <path
         d="M 0,340.157 H 226.772 V 0 H 0 Z"
         id="path746068" />
    </clipPath>
    <clipPath
       clipPathUnits="userSpaceOnUse"
       id="clipPath746144">
      <path
         d="M 0,340.157 H 226.772 V 0 H 0 Z"
         id="path746142" />
    </clipPath>
    <clipPath
       clipPathUnits="userSpaceOnUse"
       id="clipPath746274">
      <path
         d="M 0,340.157 H 226.772 V 0 H 0 Z"
         id="path746272" />
    </clipPath>
    <clipPath
       clipPathUnits="userSpaceOnUse"
       id="clipPath746400">
      <path
         d="M 0,340.157 H 226.772 V 0 H 0 Z"
         id="path746398" />
    </clipPath>
    <clipPath
       clipPathUnits="userSpaceOnUse"
       id="clipPath746502">
      <path
         d="M 0,340.157 H 226.772 V 0 H 0 Z"
         id="path746500" />
    </clipPath>
    <clipPath
       clipPathUnits="userSpaceOnUse"
       id="clipPath746510">
      <path
         d="M -246.772,340.157 H -20 V 0 h -226.772 z"
         id="path746508" />
    </clipPath>
    <clipPath
       clipPathUnits="userSpaceOnUse"
       id="clipPath746518">
      <path
         d="M -246.772,340.157 H -20 V 0 h -226.772 z"
         id="path746516" />
    </clipPath>
    <clipPath
       clipPathUnits="userSpaceOnUse"
       id="clipPath746616">
      <path
         d="M 0,340.157 H 226.772 V 0 H 0 Z"
         id="path746614" />
    </clipPath>
    <clipPath
       clipPathUnits="userSpaceOnUse"
       id="clipPath746694">
      <path
         d="M 0,340.157 H 226.772 V 0 H 0 Z"
         id="path746692" />
    </clipPath>
    <clipPath
       clipPathUnits="userSpaceOnUse"
       id="clipPath746780">
      <path
         d="M 0,340.157 H 226.772 V 0 H 0 Z"
         id="path746778" />
    </clipPath>
    <clipPath
       clipPathUnits="userSpaceOnUse"
       id="clipPath746858">
      <path
         d="M 0,340.157 H 226.772 V 0 H 0 Z"
         id="path746856" />
    </clipPath>
    <clipPath
       clipPathUnits="userSpaceOnUse"
       id="clipPath746936">
      <path
         d="M 0,340.157 H 226.772 V 0 H 0 Z"
         id="path746934" />
    </clipPath>
    <clipPath
       clipPathUnits="userSpaceOnUse"
       id="clipPath747022">
      <path
         d="M 0,340.157 H 226.772 V 0 H 0 Z"
         id="path747020" />
    </clipPath>
    <clipPath
       clipPathUnits="userSpaceOnUse"
       id="clipPath747112">
      <path
         d="M 0,340.157 H 226.772 V 0 H 0 Z"
         id="path747110" />
    </clipPath>
    <clipPath
       clipPathUnits="userSpaceOnUse"
       id="clipPath747198">
      <path
         d="M 0,340.157 H 226.772 V 0 H 0 Z"
         id="path747196" />
    </clipPath>
    <clipPath
       clipPathUnits="userSpaceOnUse"
       id="clipPath747284">
      <path
         d="M 0,340.157 H 226.772 V 0 H 0 Z"
         id="path747282" />
    </clipPath>
    <clipPath
       clipPathUnits="userSpaceOnUse"
       id="clipPath747366">
      <path
         d="M 0,340.157 H 226.772 V 0 H 0 Z"
         id="path747364" />
    </clipPath>
    <clipPath
       clipPathUnits="userSpaceOnUse"
       id="clipPath747448">
      <path
         d="M 0,340.157 H 226.772 V 0 H 0 Z"
         id="path747446" />
    </clipPath>
    <clipPath
       clipPathUnits="userSpaceOnUse"
       id="clipPath747530">
      <path
         d="M 0,340.157 H 226.772 V 0 H 0 Z"
         id="path747528" />
    </clipPath>
    <clipPath
       clipPathUnits="userSpaceOnUse"
       id="clipPath747616">
      <path
         d="M 0,340.157 H 226.772 V 0 H 0 Z"
         id="path747614" />
    </clipPath>
    <clipPath
       clipPathUnits="userSpaceOnUse"
       id="clipPath747694">
      <path
         d="M 0,340.157 H 226.772 V 0 H 0 Z"
         id="path747692" />
    </clipPath>
    <clipPath
       clipPathUnits="userSpaceOnUse"
       id="clipPath747772">
      <path
         d="M 0,340.157 H 226.772 V 0 H 0 Z"
         id="path747770" />
    </clipPath>
    <clipPath
       clipPathUnits="userSpaceOnUse"
       id="clipPath747850">
      <path
         d="M 0,340.157 H 226.772 V 0 H 0 Z"
         id="path747848" />
    </clipPath>
    <clipPath
       clipPathUnits="userSpaceOnUse"
       id="clipPath747948">
      <path
         d="M 0,340.157 H 226.772 V 0 H 0 Z"
         id="path747946" />
    </clipPath>
    <clipPath
       clipPathUnits="userSpaceOnUse"
       id="clipPath748026">
      <path
         d="M 0,340.157 H 226.772 V 0 H 0 Z"
         id="path748024" />
    </clipPath>
    <clipPath
       clipPathUnits="userSpaceOnUse"
       id="clipPath748108">
      <path
         d="M 0,340.157 H 226.772 V 0 H 0 Z"
         id="path748106" />
    </clipPath>
    <clipPath
       clipPathUnits="userSpaceOnUse"
       id="clipPath783955">
      <path
         d="M 0,340.157 H 226.772 V 0 H 0 Z"
         id="path783953" />
    </clipPath>
    <clipPath
       clipPathUnits="userSpaceOnUse"
       id="clipPath784037">
      <path
         d="M 0,340.157 H 226.772 V 0 H 0 Z"
         id="path784035" />
    </clipPath>
    <clipPath
       clipPathUnits="userSpaceOnUse"
       id="clipPath784115">
      <path
         d="M 0,340.157 H 226.772 V 0 H 0 Z"
         id="path784113" />
    </clipPath>
    <clipPath
       clipPathUnits="userSpaceOnUse"
       id="clipPath784241">
      <path
         d="M 0,340.157 H 226.772 V 0 H 0 Z"
         id="path784239" />
    </clipPath>
    <clipPath
       clipPathUnits="userSpaceOnUse"
       id="clipPath784371">
      <path
         d="M 0,340.157 H 226.772 V 0 H 0 Z"
         id="path784369" />
    </clipPath>
    <clipPath
       clipPathUnits="userSpaceOnUse"
       id="clipPath784461">
      <path
         d="M 0,340.157 H 226.772 V 0 H 0 Z"
         id="path784459" />
    </clipPath>
    <clipPath
       clipPathUnits="userSpaceOnUse"
       id="clipPath784543">
      <path
         d="M 0,340.157 H 226.772 V 0 H 0 Z"
         id="path784541" />
    </clipPath>
    <clipPath
       clipPathUnits="userSpaceOnUse"
       id="clipPath784625">
      <path
         d="M 0,340.157 H 226.772 V 0 H 0 Z"
         id="path784623" />
    </clipPath>
    <clipPath
       clipPathUnits="userSpaceOnUse"
       id="clipPath784707">
      <path
         d="M 0,340.157 H 226.772 V 0 H 0 Z"
         id="path784705" />
    </clipPath>
    <clipPath
       clipPathUnits="userSpaceOnUse"
       id="clipPath784707-7">
      <path
         d="M 0,340.157 H 226.772 V 0 H 0 Z"
         id="path784705-5" />
    </clipPath>
    <clipPath
       clipPathUnits="userSpaceOnUse"
       id="clipPath800733">
      <path
         d="M 0,340.157 H 226.772 V 0 H 0 Z"
         id="path800731" />
    </clipPath>
    <clipPath
       clipPathUnits="userSpaceOnUse"
       id="clipPath800847">
      <path
         d="M 0,340.157 H 226.772 V 0 H 0 Z"
         id="path800845" />
    </clipPath>
    <clipPath
       clipPathUnits="userSpaceOnUse"
       id="clipPath819863">
      <path
         d="M 0,340.157 H 226.772 V 0 H 0 Z"
         id="path819861" />
    </clipPath>
    <clipPath
       clipPathUnits="userSpaceOnUse"
       id="clipPath819973">
      <path
         d="M 0,340.157 H 226.772 V 0 H 0 Z"
         id="path819971" />
    </clipPath>
    <clipPath
       clipPathUnits="userSpaceOnUse"
       id="clipPath820055">
      <path
         d="M 0,340.157 H 226.772 V 0 H 0 Z"
         id="path820053" />
    </clipPath>
    <clipPath
       clipPathUnits="userSpaceOnUse"
       id="clipPath820177">
      <path
         d="M 0,340.157 H 226.772 V 0 H 0 Z"
         id="path820175" />
    </clipPath>
    <clipPath
       clipPathUnits="userSpaceOnUse"
       id="clipPath820311">
      <path
         d="M 0,340.157 H 226.772 V 0 H 0 Z"
         id="path820309" />
    </clipPath>
    <clipPath
       clipPathUnits="userSpaceOnUse"
       id="clipPath820441">
      <path
         d="M 0,340.157 H 226.772 V 0 H 0 Z"
         id="path820439" />
    </clipPath>
    <clipPath
       clipPathUnits="userSpaceOnUse"
       id="clipPath820523">
      <path
         d="M 0,340.157 H 226.772 V 0 H 0 Z"
         id="path820521" />
    </clipPath>
    <clipPath
       clipPathUnits="userSpaceOnUse"
       id="clipPath831541">
      <path
         d="M 0,340.157 H 226.772 V 0 H 0 Z"
         id="path831539" />
    </clipPath>
    <clipPath
       clipPathUnits="userSpaceOnUse"
       id="clipPath831667">
      <path
         d="M 0,340.157 H 226.772 V 0 H 0 Z"
         id="path831665" />
    </clipPath>
    <clipPath
       clipPathUnits="userSpaceOnUse"
       id="clipPath831797">
      <path
         d="M 0,340.157 H 226.772 V 0 H 0 Z"
         id="path831795" />
    </clipPath>
    <clipPath
       clipPathUnits="userSpaceOnUse"
       id="clipPath831927">
      <path
         d="M 0,340.157 H 226.772 V 0 H 0 Z"
         id="path831925" />
    </clipPath>
    <clipPath
       clipPathUnits="userSpaceOnUse"
       id="clipPath832005">
      <path
         d="M 0,340.157 H 226.772 V 0 H 0 Z"
         id="path832003" />
    </clipPath>
    <clipPath
       clipPathUnits="userSpaceOnUse"
       id="clipPath832087">
      <path
         d="M 0,340.157 H 226.772 V 0 H 0 Z"
         id="path832085" />
    </clipPath>
    <clipPath
       clipPathUnits="userSpaceOnUse"
       id="clipPath832095">
      <path
         d="M -246.772,340.157 H -20 V 0 h -226.772 z"
         id="path832093" />
    </clipPath>
    <clipPath
       clipPathUnits="userSpaceOnUse"
       id="clipPath832103">
      <path
         d="M -246.772,340.157 H -20 V 0 h -226.772 z"
         id="path832101" />
    </clipPath>
  </defs>
  <g
     id="g832081"
     transform="matrix(1.3333333,0,0,-1.3333333,-1.1809962,315.46254)">
    <g
       id="g832083"
       clip-path="url(#clipPath832087)">
      <g
         id="g832089">
        <g
           id="g832091"
           clip-path="url(#clipPath832095)">
          <g
             id="g832097">
            <g
               id="g832099"
               clip-path="url(#clipPath832103)">
              <g
                 id="g832105"
                 transform="translate(91.6401,137.2421)">
                <path
                   d="m 0,0 c 0,-2.086 -1.064,-3.21 -3.19,-3.374 -0.9,0 -1.656,0.307 -2.27,0.92 -0.613,0.613 -0.92,1.433 -0.92,2.454 0,1.963 1.063,3.067 3.19,3.313 C -1.268,3.313 -0.205,2.208 0,0 m -7.362,10.797 c -6.421,0 -11.471,1.319 -15.152,3.957 -3.681,2.638 -5.583,6.778 -5.706,12.423 0,2.903 0.43,5.438 1.289,7.606 l 3.374,-0.613 c -0.451,-1.636 -0.675,-3.374 -0.675,-5.214 0,-8.344 5.787,-12.516 17.361,-12.516 3.517,0 6.656,0.266 9.417,0.798 2.761,0.532 5.092,1.156 6.994,1.871 1.901,0.715 3.343,1.401 4.324,2.056 -0.122,0.981 -0.184,1.84 -0.184,2.576 0,1.186 0.225,2.556 0.675,4.111 l 3.62,0.368 c -0.205,-1.105 -0.307,-2.209 -0.307,-3.313 0,-4.623 2.433,-7.014 7.3,-7.178 v -0.061 c 0.899,0 1.677,-0.215 2.331,-0.645 0.654,-0.429 0.982,-1.114 0.982,-2.054 0,-1.882 -1.104,-2.823 -3.313,-2.823 -4.622,0 -7.812,1.535 -9.57,4.602 -2.659,-1.76 -5.9,-3.19 -9.723,-4.295 -3.825,-1.104 -8.17,-1.656 -13.037,-1.656"
                   style="fill:#1d1d1b;fill-opacity:1;fill-rule:nonzero;stroke:none"
                   id="path832107" />
              </g>
              <g
                 id="g832109"
                 transform="translate(130.1172,199.6933)">
                <path
                   d="m 0,0 c -3.313,-1.35 -6.605,-2.475 -9.877,-3.374 l -0.43,2.024 c 3.844,1.186 7.157,2.371 9.939,3.558 z"
                   style="fill:#1d1d1b;fill-opacity:1;fill-rule:nonzero;stroke:none"
                   id="path832111" />
              </g>
              <g
                 id="g832113"
                 transform="translate(129.4052,177.5468)">
                <path
                   d="m 0,0 c 0,-2.086 -1.064,-3.211 -3.19,-3.374 -0.9,0 -1.656,0.307 -2.27,0.92 -0.613,0.614 -0.92,1.432 -0.92,2.454 0,0.94 0.307,1.728 0.92,2.362 0.614,0.634 1.37,0.951 2.27,0.951 C -1.268,3.313 -0.205,2.209 0,0 m 9.631,-25.336 c 0,-1.882 -1.084,-2.822 -3.251,-2.822 -2.659,0 -4.745,0.511 -6.257,1.534 -1.514,1.021 -2.577,2.555 -3.19,4.601 -1.514,-4.09 -4.847,-6.135 -10,-6.135 -2.086,0 -3.128,0.94 -3.128,2.822 0,0.613 0.245,1.216 0.736,1.81 0.49,0.592 1.309,0.889 2.454,0.889 2.248,0 3.966,0.408 5.152,1.227 1.186,0.817 2.035,1.932 2.546,3.344 0.512,1.411 0.849,3.015 1.013,4.815 l 3.619,0.307 c -0.082,-0.655 -0.122,-1.35 -0.122,-2.086 0,-1.268 0.184,-2.485 0.552,-3.65 0.368,-1.166 1.073,-2.107 2.116,-2.822 1.043,-0.716 2.546,-1.095 4.509,-1.135 0.899,0 1.666,-0.215 2.301,-0.644 0.633,-0.43 0.95,-1.115 0.95,-2.055"
                   style="fill:#1d1d1b;fill-opacity:1;fill-rule:nonzero;stroke:none"
                   id="path832115" />
              </g>
              <g
                 id="g832117"
                 transform="translate(163.0112,134.6904)">
                <path
                   d="m 0,0 c -3.313,-1.35 -6.605,-2.475 -9.877,-3.374 l -0.429,2.024 c 3.844,1.187 7.156,2.372 9.938,3.558 z"
                   style="fill:#1d1d1b;fill-opacity:1;fill-rule:nonzero;stroke:none"
                   id="path832119" />
              </g>
              <g
                 id="g832121"
                 transform="translate(136.6196,149.3886)">
                <path
                   d="m 0,0 h -0.92 c -1.063,0 -1.84,0.296 -2.331,0.89 -0.491,0.592 -0.736,1.257 -0.736,1.994 0,0.572 0.214,1.165 0.644,1.778 0.429,0.614 1.258,0.921 2.484,0.921 L 2.454,5.644 C 5.031,5.767 7.095,5.89 8.65,6.012 7.832,6.503 6.994,7.167 6.135,8.006 5.276,8.844 4.54,9.847 3.926,11.012 c -0.613,1.166 -0.92,2.484 -0.92,3.957 0,3.435 1.217,6.236 3.65,8.404 2.433,2.168 5.307,3.252 8.619,3.252 3.272,0 5.849,-0.717 7.73,-2.147 l 0.553,-4.663 c -0.982,0.614 -2.22,1.083 -3.712,1.412 -1.493,0.326 -2.975,0.49 -4.448,0.49 -2.495,0 -4.519,-0.635 -6.073,-1.902 -1.555,-1.268 -2.331,-2.801 -2.331,-4.601 0,-2.699 1.983,-5.092 5.95,-7.178 1.35,-0.735 2.659,-1.103 3.927,-1.103 1.227,0 2.872,0.193 4.938,0.582 2.065,0.388 4.018,0.971 5.858,1.749 L 26.87,3.927 C 24.334,2.781 20.438,1.841 15.184,1.104 9.928,0.368 4.867,0 0,0"
                   style="fill:#1d1d1b;fill-opacity:1;fill-rule:nonzero;stroke:none"
                   id="path832123" />
              </g>
            </g>
          </g>
        </g>
      </g>
      <g
         id="g832125"
         transform="translate(89.3745,139.4052)">
        <path
           d="m 0,0 c -2.414,-0.817 -5.378,-1.228 -8.896,-1.228 -6.789,0 -12.177,1.555 -16.164,4.664 -3.988,3.108 -5.982,7.259 -5.982,12.453 0,2.944 0.808,5.634 2.424,8.067 1.615,2.433 3.834,4.509 6.656,6.227 -2.168,1.308 -3.814,2.862 -4.939,4.662 -1.125,1.8 -1.687,3.68 -1.687,5.644 0,3.19 1.227,5.909 3.681,8.159 2.454,2.248 5.5,3.374 9.141,3.374 3.394,0 6.114,-0.736 8.159,-2.209 l 0.368,-4.54 c -2.168,1.268 -4.969,1.903 -8.405,1.903 -2.004,0 -3.671,-0.359 -4.999,-1.073 -1.33,-0.717 -2.311,-1.586 -2.945,-2.608 -0.635,-1.023 -0.951,-2.005 -0.951,-2.945 0,-1.636 0.777,-3.159 2.331,-4.571 1.554,-1.411 3.272,-2.361 5.153,-2.852 1.268,0.368 5.93,1.819 13.988,4.355 l -0.859,-5.766 c -4.09,-0.942 -8.119,-2.127 -12.086,-3.558 -3.476,-1.349 -6.104,-3.047 -7.883,-5.092 -1.779,-2.045 -2.668,-4.294 -2.668,-6.748 0,-1.717 0.592,-3.547 1.779,-5.491 1.185,-1.941 3.159,-3.608 5.92,-4.999 2.76,-1.391 6.472,-2.086 11.134,-2.086 2.945,0 6.155,0.327 9.632,0.982 z"
           style="fill:#f91536;fill-opacity:1;fill-rule:nonzero;stroke:none"
           id="path832127" />
      </g>
      <g
         id="g832129"
         transform="translate(108.9072,137.3808)">
        <path
           d="m 0,0 c -3.313,-1.35 -6.605,-2.475 -9.877,-3.374 l -0.429,2.024 c 3.844,1.187 7.157,2.372 9.938,3.558 z"
           style="fill:#1d1d1b;fill-opacity:1;fill-rule:nonzero;stroke:none"
           id="path832131" />
      </g>
      <g
         id="g832133"
         transform="translate(159.728,188.7285)">
        <path
           d="m 0,0 c 0,-2.005 -1.003,-3.109 -3.006,-3.313 -0.9,0 -1.637,0.296 -2.209,0.889 -0.573,0.593 -0.859,1.401 -0.859,2.424 0,0.898 0.286,1.656 0.859,2.27 0.572,0.613 1.309,0.919 2.209,0.919 0.94,0 1.676,-0.306 2.208,-0.919 C -0.267,1.656 0,0.898 0,0 m -3.926,7.361 c 0,-2.005 -1.023,-3.089 -3.068,-3.252 -0.9,0 -1.626,0.287 -2.177,0.86 C -9.724,5.541 -10,6.339 -10,7.361 c 0,0.941 0.276,1.718 0.829,2.331 0.551,0.614 1.277,0.92 2.177,0.92 1.922,0 2.945,-1.084 3.068,-3.251 M -8.037,0 c 0,-2.005 -1.023,-3.109 -3.067,-3.313 -0.9,0 -1.636,0.296 -2.209,0.889 -0.573,0.593 -0.858,1.401 -0.858,2.424 0,0.898 0.296,1.656 0.889,2.27 0.593,0.613 1.319,0.919 2.178,0.919 0.899,0 1.635,-0.306 2.208,-0.919 C -8.323,1.656 -8.037,0.898 -8.037,0 m 7.607,-27.116 c -3.312,0 -5.501,1.431 -6.564,4.295 -1.554,-2.864 -3.987,-4.295 -7.3,-4.295 -3.19,0 -5.153,1.493 -5.889,4.478 -1.963,-2.985 -4.969,-4.478 -9.018,-4.478 -1.186,0 -2.004,0.297 -2.454,0.889 -0.45,0.593 -0.675,1.217 -0.675,1.872 0,0.776 0.246,1.442 0.736,1.994 0.491,0.551 1.288,0.828 2.393,0.828 2.985,0 5.122,0.766 6.41,2.301 1.289,1.533 2.157,3.608 2.608,6.226 l 3.926,0.184 c -0.573,-1.8 -0.859,-3.354 -0.859,-4.662 0,-2.864 1.124,-4.294 3.374,-4.294 1.636,0 2.965,0.572 3.988,1.717 1.022,1.145 1.799,3.251 2.331,6.319 l 3.865,0.183 c -0.042,-0.082 -0.062,-0.183 -0.062,-0.306 -0.286,-0.9 -0.429,-2.004 -0.429,-3.313 0,-3.027 1.39,-4.54 4.172,-4.54 1.349,0 2.474,0.44 3.374,1.32 0.899,0.878 1.349,2.013 1.349,3.405 0,1.062 -0.215,2.309 -0.644,3.742 -0.43,1.431 -0.91,2.699 -1.442,3.803 l 4.479,1.289 c 0.981,-1.923 1.472,-4.581 1.472,-7.976 0,-3.476 -0.889,-6.176 -2.669,-8.097 -1.778,-1.923 -3.936,-2.884 -6.472,-2.884 m -25.459,2.822 c 0,-1.882 -1.084,-2.822 -3.251,-2.822 -3.6,0 -6.371,0.961 -8.313,2.884 -1.943,1.921 -3.016,5.193 -3.22,9.815 l -1.227,31.532 4.601,0.307 1.165,-30.306 c 0.123,-3.23 0.798,-5.47 2.025,-6.717 1.227,-1.248 2.883,-1.892 4.969,-1.932 0.899,0 1.666,-0.226 2.3,-0.675 0.634,-0.45 0.951,-1.146 0.951,-2.086 m -36.293,-16.441 c -0.491,0 -1.503,0.092 -3.037,0.276 -1.533,0.185 -3.569,0.911 -6.104,2.178 l 0.675,3.742 c 0.654,-0.326 1.656,-0.715 3.006,-1.165 1.35,-0.45 2.638,-0.776 3.865,-0.982 0.04,-0.041 0.327,-0.061 0.859,-0.061 3.026,0 5.909,1.616 8.649,4.846 1.964,2.373 2.945,5.235 2.945,8.589 0,2.903 -0.552,6.032 -1.656,9.386 -0.205,0.695 -1.227,3.353 -3.067,7.975 l 4.355,2.331 c 0.246,-0.654 0.675,-1.942 1.289,-3.864 0.613,-1.923 1.267,-3.948 1.963,-6.075 0.898,-2.862 1.349,-5.807 1.349,-8.834 0,-0.49 -0.052,-1.748 -0.153,-3.772 -0.103,-2.024 -0.951,-4.264 -2.546,-6.718 -3.395,-4.947 -7.362,-7.545 -11.901,-7.791 z"
           style="fill:#1d1d1b;fill-opacity:1;fill-rule:nonzero;stroke:none"
           id="path832135" />
      </g>
    </g>
  </g>
</svg>
