<?xml version="1.0" encoding="UTF-8" standalone="no"?>
<!-- Created with Inkscape (http://www.inkscape.org/) -->

<svg
   version="1.1"
   id="svg18"
   width="300"
   height="150"
   viewBox="0 0 300.00002 150"
   sodipodi:docname="1347_word.svg"
   inkscape:version="1.2.1 (9c6d41e410, 2022-07-14)"
   xmlns:inkscape="http://www.inkscape.org/namespaces/inkscape"
   xmlns:sodipodi="http://sodipodi.sourceforge.net/DTD/sodipodi-0.dtd"
   xmlns="http://www.w3.org/2000/svg"
   xmlns:svg="http://www.w3.org/2000/svg">
  <sodipodi:namedview
     id="namedview37"
     pagecolor="#ffffff"
     bordercolor="#000000"
     borderopacity="0.25"
     inkscape:showpageshadow="2"
     inkscape:pageopacity="0.0"
     inkscape:pagecheckerboard="0"
     inkscape:deskcolor="#d1d1d1"
     showgrid="false"
     inkscape:zoom="4.0941839"
     inkscape:cx="103.92792"
     inkscape:cy="106.24828"
     inkscape:window-width="1700"
     inkscape:window-height="1396"
     inkscape:window-x="8"
     inkscape:window-y="28"
     inkscape:window-maximized="1"
     inkscape:current-layer="svg18" />
  <defs
     id="defs22">
    <clipPath
       clipPathUnits="userSpaceOnUse"
       id="clipPath2796">
      <path
         d="M 0,340.157 H 226.772 V 0 H 0 Z"
         id="path2794" />
    </clipPath>
    <clipPath
       clipPathUnits="userSpaceOnUse"
       id="clipPath2804">
      <path
         d="M 246.772,340.157 H 473.544 V 0 H 246.772 Z"
         id="path2802" />
    </clipPath>
    <clipPath
       clipPathUnits="userSpaceOnUse"
       id="clipPath2812">
      <path
         d="M 246.772,0 H 473.544 V 340.157 H 246.772 Z"
         id="path2810" />
    </clipPath>
    <clipPath
       clipPathUnits="userSpaceOnUse"
       id="clipPath2820">
      <path
         d="M 246.772,340.157 H 473.544 V 0 H 246.772 Z"
         id="path2818" />
    </clipPath>
    <clipPath
       clipPathUnits="userSpaceOnUse"
       id="clipPath2828">
      <path
         d="m 438.313,-190.079 c 0,-43.163 -34.991,-78.155 -78.155,-78.155 -43.164,0 -78.155,34.992 -78.155,78.155 0,43.164 34.991,78.155 78.155,78.155 43.164,0 78.155,-34.991 78.155,-78.155"
         id="path2826" />
    </clipPath>
    <clipPath
       clipPathUnits="userSpaceOnUse"
       id="clipPath702936">
      <path
         d="M 0,340.157 H 226.772 V 0 H 0 Z"
         id="path702934" />
    </clipPath>
    <clipPath
       clipPathUnits="userSpaceOnUse"
       id="clipPath703010">
      <path
         d="M 0,340.157 H 226.772 V 0 H 0 Z"
         id="path703008" />
    </clipPath>
    <clipPath
       clipPathUnits="userSpaceOnUse"
       id="clipPath703120">
      <path
         d="M 0,-20 H 226.772 V -360.157 H 0 Z"
         id="path703118" />
    </clipPath>
    <clipPath
       clipPathUnits="userSpaceOnUse"
       id="clipPath703128">
      <path
         d="M 0,-360.157 H 226.772 V -20 H 0 Z"
         id="path703126" />
    </clipPath>
    <clipPath
       clipPathUnits="userSpaceOnUse"
       id="clipPath703136">
      <path
         d="M 0,-20 H 226.772 V -360.157 H 0 Z"
         id="path703134" />
    </clipPath>
    <clipPath
       clipPathUnits="userSpaceOnUse"
       id="clipPath703144">
      <path
         d="m 438.313,-190.078 c 0,-43.164 -34.992,-78.155 -78.156,-78.155 -43.163,0 -78.154,34.991 -78.154,78.155 0,43.164 34.991,78.155 78.154,78.155 43.164,0 78.156,-34.991 78.156,-78.155"
         id="path703142" />
    </clipPath>
    <clipPath
       clipPathUnits="userSpaceOnUse"
       id="clipPath703160">
      <path
         d="M 246.772,-20 H 473.544 V -360.157 H 246.772 Z"
         id="path703158" />
    </clipPath>
    <clipPath
       clipPathUnits="userSpaceOnUse"
       id="clipPath703168">
      <path
         d="M 246.772,-360.157 H 473.544 V -20 H 246.772 Z"
         id="path703166" />
    </clipPath>
    <clipPath
       clipPathUnits="userSpaceOnUse"
       id="clipPath703176">
      <path
         d="m 282.002,-190.079 c 0,-43.163 34.993,-78.154 78.156,-78.154 43.164,0 78.155,34.991 78.155,78.154 0,43.164 -34.991,78.156 -78.155,78.156 -43.163,0 -78.156,-34.992 -78.156,-78.156"
         id="path703174" />
    </clipPath>
    <clipPath
       clipPathUnits="userSpaceOnUse"
       id="clipPath720772">
      <g
         id="g720776"
         transform="matrix(0.75000002,0,0,-0.75000002,-117.18415,74.879174)">
        <path
           d="M -45.430862,-131.30857 H 256.9318 V 322.23409 H -45.430862 Z"
           id="path720774"
           style="stroke-width:1.33333" />
      </g>
    </clipPath>
    <clipPath
       clipPathUnits="userSpaceOnUse"
       id="clipPath720778">
      <g
         id="g720782"
         transform="matrix(0.75000002,0,0,-0.75000002,-78.789654,69.358173)">
        <path
           d="M -45.430862,-131.30857 H 256.9318 V 322.23409 H -45.430862 Z"
           id="path720780"
           style="stroke-width:1.33333" />
      </g>
    </clipPath>
    <clipPath
       clipPathUnits="userSpaceOnUse"
       id="clipPath720784">
      <g
         id="g720788"
         transform="matrix(0.75000002,0,0,-0.75000002,34.073147,241.67557)">
        <path
           d="M -45.430862,-131.30857 H 256.9318 V 322.23409 H -45.430862 Z"
           id="path720786"
           style="stroke-width:1.33333" />
      </g>
    </clipPath>
    <clipPath
       clipPathUnits="userSpaceOnUse"
       id="clipPath703262">
      <path
         d="M -246.772,-20 H -20 v -340.157 h -226.772 z"
         id="path703260" />
    </clipPath>
    <clipPath
       clipPathUnits="userSpaceOnUse"
       id="clipPath703270">
      <path
         d="M -246.772,-360.157 H -20 V -20 h -226.772 z"
         id="path703268" />
    </clipPath>
    <clipPath
       clipPathUnits="userSpaceOnUse"
       id="clipPath703278">
      <path
         d="M -246.772,-20 H -20 v -340.157 h -226.772 z"
         id="path703276" />
    </clipPath>
    <clipPath
       clipPathUnits="userSpaceOnUse"
       id="clipPath703286">
      <path
         d="m 191.541,-190.078 c 0,-43.164 -34.992,-78.155 -78.156,-78.155 -43.163,0 -78.154,34.991 -78.154,78.155 0,43.164 34.991,78.155 78.154,78.155 43.164,0 78.156,-34.991 78.156,-78.155"
         id="path703284" />
    </clipPath>
    <clipPath
       clipPathUnits="userSpaceOnUse"
       id="clipPath703298">
      <path
         d="M 0,-20 H 226.772 V -360.157 H 0 Z"
         id="path703296" />
    </clipPath>
    <clipPath
       clipPathUnits="userSpaceOnUse"
       id="clipPath703306">
      <path
         d="M 0,-360.157 H 226.772 V -20 H 0 Z"
         id="path703304" />
    </clipPath>
    <clipPath
       clipPathUnits="userSpaceOnUse"
       id="clipPath703314">
      <path
         d="m 35.23,-190.079 c 0,-43.163 34.993,-78.154 78.156,-78.154 43.164,0 78.155,34.991 78.155,78.154 0,43.164 -34.991,78.156 -78.155,78.156 -43.163,0 -78.156,-34.992 -78.156,-78.156"
         id="path703312" />
    </clipPath>
    <clipPath
       clipPathUnits="userSpaceOnUse"
       id="clipPath721254">
      <g
         id="g721258"
         transform="matrix(0.75000002,0,0,-0.75000002,-143.46681,15.486327)">
        <path
           d="M 8.3138826,-226.73543 H 310.67654 V 226.80723 H 8.3138826 Z"
           id="path721256"
           style="stroke-width:1.33333" />
      </g>
    </clipPath>
    <clipPath
       clipPathUnits="userSpaceOnUse"
       id="clipPath721260">
      <g
         id="g721264"
         transform="matrix(0.75000002,0,0,-0.75000002,-150.19041,29.105427)">
        <path
           d="M 8.3138826,-226.73543 H 310.67654 V 226.80723 H 8.3138826 Z"
           id="path721262"
           style="stroke-width:1.33333" />
      </g>
    </clipPath>
    <clipPath
       clipPathUnits="userSpaceOnUse"
       id="clipPath721266">
      <g
         id="g721270"
         transform="matrix(0.75000002,0,0,-0.75000002,-6.2354121,170.10543)">
        <path
           d="M 8.3138826,-226.73543 H 310.67654 V 226.80723 H 8.3138826 Z"
           id="path721268"
           style="stroke-width:1.33333" />
      </g>
    </clipPath>
    <clipPath
       clipPathUnits="userSpaceOnUse"
       id="clipPath703432">
      <path
         d="M 0,340.157 H 226.772 V 0 H 0 Z"
         id="path703430" />
    </clipPath>
    <clipPath
       clipPathUnits="userSpaceOnUse"
       id="clipPath703542">
      <path
         d="M 0,340.157 H 226.772 V 0 H 0 Z"
         id="path703540" />
    </clipPath>
    <clipPath
       clipPathUnits="userSpaceOnUse"
       id="clipPath713424">
      <path
         d="M 0,340.157 H 226.772 V 0 H 0 Z"
         id="path713422" />
    </clipPath>
    <clipPath
       clipPathUnits="userSpaceOnUse"
       id="clipPath713526">
      <path
         d="M 0,340.157 H 226.772 V 0 H 0 Z"
         id="path713524" />
    </clipPath>
    <clipPath
       clipPathUnits="userSpaceOnUse"
       id="clipPath713616">
      <path
         d="M 0,340.157 H 226.772 V 0 H 0 Z"
         id="path713614" />
    </clipPath>
    <clipPath
       clipPathUnits="userSpaceOnUse"
       id="clipPath713690">
      <path
         d="M 0,340.157 H 226.772 V 0 H 0 Z"
         id="path713688" />
    </clipPath>
    <clipPath
       clipPathUnits="userSpaceOnUse"
       id="clipPath713764">
      <path
         d="M 0,340.157 H 226.772 V 0 H 0 Z"
         id="path713762" />
    </clipPath>
    <clipPath
       clipPathUnits="userSpaceOnUse"
       id="clipPath713874">
      <path
         d="M 0,340.157 H 226.772 V 0 H 0 Z"
         id="path713872" />
    </clipPath>
    <clipPath
       clipPathUnits="userSpaceOnUse"
       id="clipPath713874-3">
      <path
         d="M 0,340.157 H 226.772 V 0 H 0 Z"
         id="path713872-6" />
    </clipPath>
    <clipPath
       clipPathUnits="userSpaceOnUse"
       id="clipPath718030">
      <path
         d="M 0,340.157 H 226.772 V 0 H 0 Z"
         id="path718028" />
    </clipPath>
    <clipPath
       clipPathUnits="userSpaceOnUse"
       id="clipPath718104">
      <path
         d="M 0,340.157 H 226.772 V 0 H 0 Z"
         id="path718102" />
    </clipPath>
    <clipPath
       clipPathUnits="userSpaceOnUse"
       id="clipPath718178">
      <path
         d="M 0,340.157 H 226.772 V 0 H 0 Z"
         id="path718176" />
    </clipPath>
    <clipPath
       clipPathUnits="userSpaceOnUse"
       id="clipPath718296">
      <path
         d="M 0,340.157 H 226.772 V 0 H 0 Z"
         id="path718294" />
    </clipPath>
    <clipPath
       clipPathUnits="userSpaceOnUse"
       id="clipPath718398">
      <path
         d="M 0,340.157 H 226.772 V 0 H 0 Z"
         id="path718396" />
    </clipPath>
    <clipPath
       clipPathUnits="userSpaceOnUse"
       id="clipPath718484">
      <path
         d="M 0,340.157 H 226.772 V 0 H 0 Z"
         id="path718482" />
    </clipPath>
    <clipPath
       clipPathUnits="userSpaceOnUse"
       id="clipPath718558">
      <path
         d="M 0,340.157 H 226.772 V 0 H 0 Z"
         id="path718556" />
    </clipPath>
    <clipPath
       clipPathUnits="userSpaceOnUse"
       id="clipPath745984">
      <path
         d="M 0,340.157 H 226.772 V 0 H 0 Z"
         id="path745982" />
    </clipPath>
    <clipPath
       clipPathUnits="userSpaceOnUse"
       id="clipPath746070">
      <path
         d="M 0,340.157 H 226.772 V 0 H 0 Z"
         id="path746068" />
    </clipPath>
    <clipPath
       clipPathUnits="userSpaceOnUse"
       id="clipPath746144">
      <path
         d="M 0,340.157 H 226.772 V 0 H 0 Z"
         id="path746142" />
    </clipPath>
    <clipPath
       clipPathUnits="userSpaceOnUse"
       id="clipPath746274">
      <path
         d="M 0,340.157 H 226.772 V 0 H 0 Z"
         id="path746272" />
    </clipPath>
    <clipPath
       clipPathUnits="userSpaceOnUse"
       id="clipPath746400">
      <path
         d="M 0,340.157 H 226.772 V 0 H 0 Z"
         id="path746398" />
    </clipPath>
    <clipPath
       clipPathUnits="userSpaceOnUse"
       id="clipPath746502">
      <path
         d="M 0,340.157 H 226.772 V 0 H 0 Z"
         id="path746500" />
    </clipPath>
    <clipPath
       clipPathUnits="userSpaceOnUse"
       id="clipPath746510">
      <path
         d="M -246.772,340.157 H -20 V 0 h -226.772 z"
         id="path746508" />
    </clipPath>
    <clipPath
       clipPathUnits="userSpaceOnUse"
       id="clipPath746518">
      <path
         d="M -246.772,340.157 H -20 V 0 h -226.772 z"
         id="path746516" />
    </clipPath>
    <clipPath
       clipPathUnits="userSpaceOnUse"
       id="clipPath746616">
      <path
         d="M 0,340.157 H 226.772 V 0 H 0 Z"
         id="path746614" />
    </clipPath>
    <clipPath
       clipPathUnits="userSpaceOnUse"
       id="clipPath746694">
      <path
         d="M 0,340.157 H 226.772 V 0 H 0 Z"
         id="path746692" />
    </clipPath>
    <clipPath
       clipPathUnits="userSpaceOnUse"
       id="clipPath746780">
      <path
         d="M 0,340.157 H 226.772 V 0 H 0 Z"
         id="path746778" />
    </clipPath>
    <clipPath
       clipPathUnits="userSpaceOnUse"
       id="clipPath746858">
      <path
         d="M 0,340.157 H 226.772 V 0 H 0 Z"
         id="path746856" />
    </clipPath>
    <clipPath
       clipPathUnits="userSpaceOnUse"
       id="clipPath746936">
      <path
         d="M 0,340.157 H 226.772 V 0 H 0 Z"
         id="path746934" />
    </clipPath>
    <clipPath
       clipPathUnits="userSpaceOnUse"
       id="clipPath747022">
      <path
         d="M 0,340.157 H 226.772 V 0 H 0 Z"
         id="path747020" />
    </clipPath>
    <clipPath
       clipPathUnits="userSpaceOnUse"
       id="clipPath747112">
      <path
         d="M 0,340.157 H 226.772 V 0 H 0 Z"
         id="path747110" />
    </clipPath>
    <clipPath
       clipPathUnits="userSpaceOnUse"
       id="clipPath747198">
      <path
         d="M 0,340.157 H 226.772 V 0 H 0 Z"
         id="path747196" />
    </clipPath>
    <clipPath
       clipPathUnits="userSpaceOnUse"
       id="clipPath747284">
      <path
         d="M 0,340.157 H 226.772 V 0 H 0 Z"
         id="path747282" />
    </clipPath>
    <clipPath
       clipPathUnits="userSpaceOnUse"
       id="clipPath747366">
      <path
         d="M 0,340.157 H 226.772 V 0 H 0 Z"
         id="path747364" />
    </clipPath>
    <clipPath
       clipPathUnits="userSpaceOnUse"
       id="clipPath747448">
      <path
         d="M 0,340.157 H 226.772 V 0 H 0 Z"
         id="path747446" />
    </clipPath>
    <clipPath
       clipPathUnits="userSpaceOnUse"
       id="clipPath747530">
      <path
         d="M 0,340.157 H 226.772 V 0 H 0 Z"
         id="path747528" />
    </clipPath>
    <clipPath
       clipPathUnits="userSpaceOnUse"
       id="clipPath747616">
      <path
         d="M 0,340.157 H 226.772 V 0 H 0 Z"
         id="path747614" />
    </clipPath>
    <clipPath
       clipPathUnits="userSpaceOnUse"
       id="clipPath747694">
      <path
         d="M 0,340.157 H 226.772 V 0 H 0 Z"
         id="path747692" />
    </clipPath>
    <clipPath
       clipPathUnits="userSpaceOnUse"
       id="clipPath747772">
      <path
         d="M 0,340.157 H 226.772 V 0 H 0 Z"
         id="path747770" />
    </clipPath>
    <clipPath
       clipPathUnits="userSpaceOnUse"
       id="clipPath747850">
      <path
         d="M 0,340.157 H 226.772 V 0 H 0 Z"
         id="path747848" />
    </clipPath>
    <clipPath
       clipPathUnits="userSpaceOnUse"
       id="clipPath747948">
      <path
         d="M 0,340.157 H 226.772 V 0 H 0 Z"
         id="path747946" />
    </clipPath>
    <clipPath
       clipPathUnits="userSpaceOnUse"
       id="clipPath748026">
      <path
         d="M 0,340.157 H 226.772 V 0 H 0 Z"
         id="path748024" />
    </clipPath>
    <clipPath
       clipPathUnits="userSpaceOnUse"
       id="clipPath748108">
      <path
         d="M 0,340.157 H 226.772 V 0 H 0 Z"
         id="path748106" />
    </clipPath>
    <clipPath
       clipPathUnits="userSpaceOnUse"
       id="clipPath783955">
      <path
         d="M 0,340.157 H 226.772 V 0 H 0 Z"
         id="path783953" />
    </clipPath>
    <clipPath
       clipPathUnits="userSpaceOnUse"
       id="clipPath784037">
      <path
         d="M 0,340.157 H 226.772 V 0 H 0 Z"
         id="path784035" />
    </clipPath>
    <clipPath
       clipPathUnits="userSpaceOnUse"
       id="clipPath784115">
      <path
         d="M 0,340.157 H 226.772 V 0 H 0 Z"
         id="path784113" />
    </clipPath>
    <clipPath
       clipPathUnits="userSpaceOnUse"
       id="clipPath784241">
      <path
         d="M 0,340.157 H 226.772 V 0 H 0 Z"
         id="path784239" />
    </clipPath>
    <clipPath
       clipPathUnits="userSpaceOnUse"
       id="clipPath784371">
      <path
         d="M 0,340.157 H 226.772 V 0 H 0 Z"
         id="path784369" />
    </clipPath>
    <clipPath
       clipPathUnits="userSpaceOnUse"
       id="clipPath784461">
      <path
         d="M 0,340.157 H 226.772 V 0 H 0 Z"
         id="path784459" />
    </clipPath>
    <clipPath
       clipPathUnits="userSpaceOnUse"
       id="clipPath784543">
      <path
         d="M 0,340.157 H 226.772 V 0 H 0 Z"
         id="path784541" />
    </clipPath>
    <clipPath
       clipPathUnits="userSpaceOnUse"
       id="clipPath784625">
      <path
         d="M 0,340.157 H 226.772 V 0 H 0 Z"
         id="path784623" />
    </clipPath>
    <clipPath
       clipPathUnits="userSpaceOnUse"
       id="clipPath784707">
      <path
         d="M 0,340.157 H 226.772 V 0 H 0 Z"
         id="path784705" />
    </clipPath>
    <clipPath
       clipPathUnits="userSpaceOnUse"
       id="clipPath784707-7">
      <path
         d="M 0,340.157 H 226.772 V 0 H 0 Z"
         id="path784705-5" />
    </clipPath>
    <clipPath
       clipPathUnits="userSpaceOnUse"
       id="clipPath800733">
      <path
         d="M 0,340.157 H 226.772 V 0 H 0 Z"
         id="path800731" />
    </clipPath>
    <clipPath
       clipPathUnits="userSpaceOnUse"
       id="clipPath800847">
      <path
         d="M 0,340.157 H 226.772 V 0 H 0 Z"
         id="path800845" />
    </clipPath>
    <clipPath
       clipPathUnits="userSpaceOnUse"
       id="clipPath819863">
      <path
         d="M 0,340.157 H 226.772 V 0 H 0 Z"
         id="path819861" />
    </clipPath>
    <clipPath
       clipPathUnits="userSpaceOnUse"
       id="clipPath819973">
      <path
         d="M 0,340.157 H 226.772 V 0 H 0 Z"
         id="path819971" />
    </clipPath>
    <clipPath
       clipPathUnits="userSpaceOnUse"
       id="clipPath820055">
      <path
         d="M 0,340.157 H 226.772 V 0 H 0 Z"
         id="path820053" />
    </clipPath>
    <clipPath
       clipPathUnits="userSpaceOnUse"
       id="clipPath820177">
      <path
         d="M 0,340.157 H 226.772 V 0 H 0 Z"
         id="path820175" />
    </clipPath>
    <clipPath
       clipPathUnits="userSpaceOnUse"
       id="clipPath820311">
      <path
         d="M 0,340.157 H 226.772 V 0 H 0 Z"
         id="path820309" />
    </clipPath>
    <clipPath
       clipPathUnits="userSpaceOnUse"
       id="clipPath820441">
      <path
         d="M 0,340.157 H 226.772 V 0 H 0 Z"
         id="path820439" />
    </clipPath>
    <clipPath
       clipPathUnits="userSpaceOnUse"
       id="clipPath820523">
      <path
         d="M 0,340.157 H 226.772 V 0 H 0 Z"
         id="path820521" />
    </clipPath>
    <clipPath
       clipPathUnits="userSpaceOnUse"
       id="clipPath831541">
      <path
         d="M 0,340.157 H 226.772 V 0 H 0 Z"
         id="path831539" />
    </clipPath>
    <clipPath
       clipPathUnits="userSpaceOnUse"
       id="clipPath831667">
      <path
         d="M 0,340.157 H 226.772 V 0 H 0 Z"
         id="path831665" />
    </clipPath>
    <clipPath
       clipPathUnits="userSpaceOnUse"
       id="clipPath831797">
      <path
         d="M 0,340.157 H 226.772 V 0 H 0 Z"
         id="path831795" />
    </clipPath>
    <clipPath
       clipPathUnits="userSpaceOnUse"
       id="clipPath831927">
      <path
         d="M 0,340.157 H 226.772 V 0 H 0 Z"
         id="path831925" />
    </clipPath>
    <clipPath
       clipPathUnits="userSpaceOnUse"
       id="clipPath832005">
      <path
         d="M 0,340.157 H 226.772 V 0 H 0 Z"
         id="path832003" />
    </clipPath>
    <clipPath
       clipPathUnits="userSpaceOnUse"
       id="clipPath832087">
      <path
         d="M 0,340.157 H 226.772 V 0 H 0 Z"
         id="path832085" />
    </clipPath>
    <clipPath
       clipPathUnits="userSpaceOnUse"
       id="clipPath832095">
      <path
         d="M -246.772,340.157 H -20 V 0 h -226.772 z"
         id="path832093" />
    </clipPath>
    <clipPath
       clipPathUnits="userSpaceOnUse"
       id="clipPath832103">
      <path
         d="M -246.772,340.157 H -20 V 0 h -226.772 z"
         id="path832101" />
    </clipPath>
    <clipPath
       clipPathUnits="userSpaceOnUse"
       id="clipPath832201">
      <path
         d="M 0,340.157 H 226.772 V 0 H 0 Z"
         id="path832199" />
    </clipPath>
    <clipPath
       clipPathUnits="userSpaceOnUse"
       id="clipPath832209">
      <path
         d="M -246.772,340.157 H -20 V 0 h -226.772 z"
         id="path832207" />
    </clipPath>
    <clipPath
       clipPathUnits="userSpaceOnUse"
       id="clipPath832217">
      <path
         d="M -246.772,340.157 H -20 V 0 h -226.772 z"
         id="path832215" />
    </clipPath>
    <clipPath
       clipPathUnits="userSpaceOnUse"
       id="clipPath832315">
      <path
         d="M 0,340.157 H 226.772 V 0 H 0 Z"
         id="path832313" />
    </clipPath>
    <clipPath
       clipPathUnits="userSpaceOnUse"
       id="clipPath832323">
      <path
         d="M -246.772,340.157 H -20 V 0 h -226.772 z"
         id="path832321" />
    </clipPath>
    <clipPath
       clipPathUnits="userSpaceOnUse"
       id="clipPath832331">
      <path
         d="M -246.772,340.157 H -20 V 0 h -226.772 z"
         id="path832329" />
    </clipPath>
  </defs>
  <g
     id="g832309"
     transform="matrix(1.3333333,0,0,-1.3333333,-1.1817962,306.53457)">
    <g
       id="g832311"
       clip-path="url(#clipPath832315)">
      <g
         id="g832317">
        <g
           id="g832319"
           clip-path="url(#clipPath832323)">
          <g
             id="g832325">
            <g
               id="g832327"
               clip-path="url(#clipPath832331)">
              <g
                 id="g832333"
                 transform="translate(91.64,137.2421)">
                <path
                   d="m 0,0 c 0,-2.086 -1.064,-3.21 -3.19,-3.374 -0.9,0 -1.656,0.307 -2.27,0.92 -0.613,0.613 -0.92,1.433 -0.92,2.454 0,1.963 1.063,3.067 3.19,3.313 C -1.268,3.313 -0.205,2.208 0,0 m -7.361,10.797 c -6.422,0 -11.472,1.319 -15.153,3.957 -3.681,2.638 -5.583,6.778 -5.706,12.423 0,2.903 0.43,5.438 1.289,7.606 l 3.374,-0.613 c -0.451,-1.636 -0.675,-3.374 -0.675,-5.214 0,-8.344 5.787,-12.516 17.361,-12.516 3.517,0 6.656,0.266 9.417,0.798 2.761,0.532 5.092,1.156 6.994,1.871 1.901,0.715 3.343,1.401 4.325,2.056 -0.123,0.981 -0.184,1.84 -0.184,2.576 0,1.186 0.224,2.556 0.674,4.111 l 3.62,0.368 c -0.205,-1.105 -0.307,-2.209 -0.307,-3.313 0,-4.623 2.433,-7.014 7.301,-7.178 v -0.061 c 0.898,0 1.676,-0.215 2.331,-0.645 0.653,-0.429 0.981,-1.114 0.981,-2.054 0,-1.882 -1.104,-2.823 -3.312,-2.823 -4.623,0 -7.813,1.535 -9.571,4.602 -2.659,-1.76 -5.899,-3.19 -9.723,-4.295 -3.825,-1.104 -8.17,-1.656 -13.036,-1.656"
                   style="fill:#1d1d1b;fill-opacity:1;fill-rule:nonzero;stroke:none"
                   id="path832335" />
              </g>
              <g
                 id="g832337"
                 transform="translate(130.1166,199.6933)">
                <path
                   d="m 0,0 c -3.313,-1.35 -6.605,-2.475 -9.877,-3.374 l -0.429,2.024 c 3.844,1.186 7.157,2.371 9.938,3.558 z"
                   style="fill:#1d1d1b;fill-opacity:1;fill-rule:nonzero;stroke:none"
                   id="path832339" />
              </g>
              <g
                 id="g832341"
                 transform="translate(129.4057,177.5468)">
                <path
                   d="m 0,0 c 0,-2.086 -1.064,-3.211 -3.19,-3.374 -0.901,0 -1.657,0.307 -2.27,0.92 -0.613,0.614 -0.921,1.432 -0.921,2.454 0,0.94 0.308,1.728 0.921,2.362 0.613,0.634 1.369,0.951 2.27,0.951 C -1.269,3.313 -0.205,2.209 0,0 m 9.631,-25.336 c 0,-1.882 -1.084,-2.822 -3.251,-2.822 -2.659,0 -4.745,0.511 -6.258,1.534 -1.514,1.021 -2.576,2.555 -3.189,4.601 -1.514,-4.09 -4.847,-6.135 -10,-6.135 -2.086,0 -3.129,0.94 -3.129,2.822 0,0.613 0.245,1.216 0.736,1.81 0.491,0.592 1.31,0.889 2.454,0.889 2.249,0 3.967,0.408 5.153,1.227 1.186,0.817 2.035,1.932 2.546,3.344 0.511,1.411 0.848,3.015 1.012,4.815 l 3.62,0.307 c -0.083,-0.655 -0.123,-1.35 -0.123,-2.086 0,-1.268 0.184,-2.485 0.552,-3.65 0.368,-1.166 1.074,-2.107 2.117,-2.822 1.043,-0.716 2.546,-1.095 4.509,-1.135 0.899,0 1.666,-0.215 2.301,-0.644 0.632,-0.43 0.95,-1.115 0.95,-2.055"
                   style="fill:#1d1d1b;fill-opacity:1;fill-rule:nonzero;stroke:none"
                   id="path832343" />
              </g>
              <g
                 id="g832345"
                 transform="translate(163.0111,134.6904)">
                <path
                   d="m 0,0 c -3.313,-1.35 -6.605,-2.475 -9.877,-3.374 l -0.43,2.024 c 3.844,1.187 7.158,2.372 9.939,3.558 z"
                   style="fill:#1d1d1b;fill-opacity:1;fill-rule:nonzero;stroke:none"
                   id="path832347" />
              </g>
              <g
                 id="g832349"
                 transform="translate(136.6195,149.3886)">
                <path
                   d="m 0,0 h -0.92 c -1.063,0 -1.841,0.296 -2.331,0.89 -0.491,0.592 -0.736,1.257 -0.736,1.994 0,0.572 0.215,1.165 0.644,1.778 0.429,0.614 1.257,0.921 2.485,0.921 L 2.454,5.644 C 5.03,5.767 7.096,5.89 8.65,6.012 7.831,6.503 6.994,7.167 6.135,8.006 5.276,8.844 4.54,9.847 3.927,11.012 c -0.614,1.166 -0.921,2.484 -0.921,3.957 0,3.435 1.217,6.236 3.65,8.404 2.433,2.168 5.307,3.252 8.619,3.252 3.272,0 5.849,-0.717 7.73,-2.147 l 0.553,-4.663 c -0.982,0.614 -2.219,1.083 -3.712,1.412 -1.493,0.326 -2.975,0.49 -4.448,0.49 -2.495,0 -4.519,-0.635 -6.073,-1.902 -1.554,-1.268 -2.331,-2.801 -2.331,-4.601 0,-2.699 1.983,-5.092 5.95,-7.178 1.35,-0.735 2.659,-1.103 3.927,-1.103 1.227,0 2.872,0.193 4.938,0.582 2.065,0.388 4.018,0.971 5.859,1.749 L 26.87,3.927 C 24.334,2.781 20.438,1.841 15.184,1.104 9.928,0.368 4.867,0 0,0"
                   style="fill:#1d1d1b;fill-opacity:1;fill-rule:nonzero;stroke:none"
                   id="path832351" />
              </g>
            </g>
          </g>
        </g>
      </g>
      <g
         id="g832353"
         transform="translate(99.3134,143.2265)">
        <path
           d="m 0,0 c 0,-1.963 -1.043,-3.046 -3.129,-3.251 -1.84,0 -2.843,1.084 -3.006,3.251 0,1.964 1.002,3.048 3.006,3.252 0.941,0 1.697,-0.296 2.27,-0.89 C -0.287,1.77 0,0.982 0,0 m -8.221,0 c 0,-1.963 -1.043,-3.046 -3.129,-3.251 -0.9,0 -1.646,0.286 -2.238,0.858 -0.594,0.574 -0.89,1.372 -0.89,2.393 0,1.964 1.043,3.048 3.128,3.252 0.941,0 1.697,-0.296 2.27,-0.89 C -8.507,1.77 -8.221,0.982 -8.221,0 m 13.68,14.908 c 0,-1.882 -1.084,-2.822 -3.251,-2.822 -2.659,0 -4.745,0.511 -6.257,1.533 -1.513,1.023 -2.576,2.556 -3.19,4.602 -1.513,-4.091 -4.846,-6.135 -10,-6.135 -2.086,0 -3.128,0.94 -3.128,2.822 0,0.613 0.245,1.216 0.736,1.81 0.49,0.592 1.309,0.889 2.454,0.889 2.248,0 3.966,0.409 5.153,1.227 1.186,0.817 2.034,1.933 2.545,3.344 0.512,1.41 0.849,3.015 1.013,4.815 l 3.619,0.307 c -0.082,-0.654 -0.122,-1.35 -0.122,-2.086 0,-1.268 0.184,-2.485 0.552,-3.651 0.368,-1.165 1.073,-2.106 2.116,-2.821 1.043,-0.716 2.546,-1.095 4.509,-1.135 0.899,0 1.667,-0.214 2.301,-0.644 0.634,-0.43 0.95,-1.115 0.95,-2.055 m -19.189,0 c 0,-1.882 -1.084,-2.822 -3.251,-2.822 -3.027,0 -5.256,0.531 -6.687,1.595 -1.432,1.063 -2.577,2.617 -3.436,4.662 -0.573,-1.8 -1.962,-3.292 -4.171,-4.478 -2.208,-1.187 -4.806,-1.779 -7.791,-1.779 -3.354,0 -5.859,0.745 -7.515,2.239 -1.656,1.492 -2.567,3.936 -2.73,7.331 l 3.497,0.675 c 0.368,-1.514 1.063,-2.648 2.085,-3.405 1.022,-0.757 2.7,-1.135 5.031,-1.135 1.635,0 3.23,0.215 4.785,0.645 1.554,0.428 2.822,1.073 3.804,1.931 0.449,0.45 0.807,0.921 1.073,1.411 0.265,0.492 0.399,0.838 0.399,1.043 v 0.123 c -1.432,6.012 -3.109,12.208 -5.03,18.588 l 4.478,1.534 1.901,-7.423 c 0.9,-3.722 1.922,-7.668 3.068,-11.84 0.695,-2.453 1.604,-4.09 2.73,-4.907 1.124,-0.819 2.627,-1.228 4.509,-1.228 0.899,0 1.666,-0.225 2.3,-0.675 0.634,-0.45 0.951,-1.145 0.951,-2.085"
           style="fill:#1d1d1b;fill-opacity:1;fill-rule:nonzero;stroke:none"
           id="path832355" />
      </g>
      <g
         id="g832357"
         transform="translate(112.3554,173.9619)">
        <path
           d="m 0,0 c 3.272,0.736 6.094,1.104 8.466,1.104 2.74,0 4.805,-0.184 6.197,-0.552 1.389,-0.368 2.331,-0.808 2.821,-1.319 0.491,-0.511 0.736,-0.951 0.736,-1.319 0,-0.9 -0.705,-2.015 -2.116,-3.344 C 14.693,-6.759 12.617,-8.036 9.877,-9.264 5.46,-6.77 2.167,-3.681 0,0 m 28.742,-13.742 c -0.635,0.45 -1.443,0.675 -2.424,0.675 -4.131,0 -7.812,0.531 -11.042,1.595 4.621,3.436 6.932,6.81 6.932,10.122 0,1.268 -0.41,2.433 -1.227,3.497 C 20.163,3.21 18.782,4.059 16.84,4.693 14.897,5.326 12.187,5.644 8.711,5.644 6.094,5.644 3.691,5.408 1.503,4.938 -0.686,4.468 -2.577,3.946 -4.172,3.374 -5.767,2.801 -6.974,2.29 -7.791,1.841 l 0.552,-4.417 c 0.982,0.53 2.106,1.021 3.374,1.472 1.758,-3.395 4.601,-6.728 8.528,-10 -4.255,-1.309 -9.387,-1.963 -15.399,-1.963 -1.227,0 -2.064,-0.337 -2.515,-1.012 -0.45,-0.675 -0.675,-1.279 -0.675,-1.81 0,-0.573 0.225,-1.176 0.675,-1.809 0.451,-0.635 1.248,-0.951 2.393,-0.951 7.77,0 14.662,1.369 20.674,4.11 4.948,-2.741 10.245,-4.11 15.889,-4.11 h 0.736 c 2.167,0 3.251,0.94 3.251,2.822 0,0.939 -0.317,1.635 -0.95,2.085"
           style="fill:#f91536;fill-opacity:1;fill-rule:nonzero;stroke:none"
           id="path832359" />
      </g>
      <g
         id="g832361"
         transform="translate(165.2484,197.9726)">
        <path
           d="m 0,0 c -3.313,-1.35 -6.605,-2.475 -9.877,-3.374 l -0.429,2.024 c 3.844,1.187 7.157,2.372 9.938,3.559 z"
           style="fill:#1d1d1b;fill-opacity:1;fill-rule:nonzero;stroke:none"
           id="path832363" />
      </g>
      <g
         id="g832365"
         transform="translate(167.6293,155.3124)">
        <path
           d="M 0,0 C -3.313,0 -5.501,1.431 -6.564,4.294 -8.119,1.431 -10.552,0 -13.864,0 -17.055,0 -19.018,1.492 -19.754,4.479 -21.717,1.492 -24.723,0 -28.772,0 c -1.186,0 -2.003,0.296 -2.454,0.89 -0.45,0.591 -0.674,1.215 -0.674,1.871 0,0.776 0.245,1.441 0.735,1.993 0.491,0.553 1.289,0.828 2.393,0.828 2.985,0 5.123,0.768 6.411,2.301 1.288,1.534 2.157,3.609 2.607,6.226 l 3.926,0.185 c -0.573,-1.801 -0.859,-3.355 -0.859,-4.663 0,-2.862 1.124,-4.294 3.374,-4.294 1.635,0 2.965,0.572 3.988,1.718 1.022,1.144 1.8,3.251 2.331,6.318 l 3.865,0.185 C -3.17,13.475 -3.19,13.373 -3.19,13.251 c -0.287,-0.9 -0.43,-2.005 -0.43,-3.313 0,-3.027 1.391,-4.54 4.172,-4.54 1.349,0 2.473,0.439 3.374,1.32 0.899,0.879 1.349,2.013 1.349,3.404 0,1.064 -0.214,2.311 -0.643,3.742 -0.43,1.431 -0.911,2.699 -1.443,3.804 l 4.479,1.288 C 8.649,17.033 9.141,14.375 9.141,10.98 9.141,7.504 8.251,4.805 6.472,2.883 4.692,0.96 2.535,0 0,0"
           style="fill:#1d1d1b;fill-opacity:1;fill-rule:nonzero;stroke:none"
           id="path832367" />
      </g>
    </g>
  </g>
</svg>
