<?xml version="1.0" encoding="UTF-8" standalone="no"?>
<!-- Created with Inkscape (http://www.inkscape.org/) -->

<svg
   version="1.1"
   id="svg121789"
   width="400"
   height="400"
   viewBox="0 0 400 400"
   sodipodi:docname="1348_pic.pdf"
   xmlns:inkscape="http://www.inkscape.org/namespaces/inkscape"
   xmlns:sodipodi="http://sodipodi.sourceforge.net/DTD/sodipodi-0.dtd"
   xmlns="http://www.w3.org/2000/svg"
   xmlns:svg="http://www.w3.org/2000/svg">
  <defs
     id="defs121793">
    <clipPath
       clipPathUnits="userSpaceOnUse"
       id="clipPath121809">
      <path
         d="M 0,0 H 227.19306 V -177.56069 H 0 Z"
         clip-rule="evenodd"
         id="path121807" />
    </clipPath>
    <clipPath
       clipPathUnits="userSpaceOnUse"
       id="clipPath121819">
      <path
         d="M 0,-177.56069 H 300 V 177.56069 H 0 Z"
         id="path121817" />
    </clipPath>
  </defs>
  <sodipodi:namedview
     id="namedview121791"
     pagecolor="#ffffff"
     bordercolor="#000000"
     borderopacity="0.25"
     inkscape:showpageshadow="2"
     inkscape:pageopacity="0.0"
     inkscape:pagecheckerboard="0"
     inkscape:deskcolor="#d1d1d1" />
  <g
     id="g121795"
     inkscape:groupmode="layer"
     inkscape:label="1348_pic12"
     transform="matrix(1.3333333,0,0,-1.3333333,0,400)">
    <g
       id="g121797">
      <g
         id="g121799">
        <g
           id="g121801"
           transform="translate(36.40347,238.78035)">
          <g
             id="g121803">
            <g
               id="g121805"
               clip-path="url(#clipPath121809)">
              <g
                 id="g121811"
                 transform="matrix(1.3333,0,0,1.3333,0,-236.74255)">
                <g
                   id="g121813">
                  <g
                     id="g121815" />
                  <g
                     id="g121951">
                    <g
                       clip-path="url(#clipPath121819)"
                       id="g121949">
                      <g
                         transform="translate(0,151.08109)"
                         id="g121827">
                        <g
                           id="g121825">
                          <g
                             id="g121823">
                            <path
                               d="m 78.4127,-0.0194 c -10.5536,-0.217 -19.74,-2.119 -32.6626,-4.794 -16.3672,-3.389 -23.2313,-6.341 -28.934,-9.77 -6.5543,-3.948 -16.85002,-10.144 -16.81602,-18.799 0.0277,-6.733 6.1117,-12.465 8.0117,-13.733 4.64922,-3.105 10.07232,-5.05 14.31922,-8.685 4.248,-3.638 7.0968,-9.931 4.4398,-14.852 -2.8469,-5.279 -10.627,-6.65 -12.8578,-12.218 -1.6531,-4.127 0.6648,-8.998 4.2308,-11.653 3.5692,-2.656 8.0879,-3.6 12.4602,-4.415 18.2051,-3.3936 36.5988,-5.7556 55.0707,-7.0656 18.9973,-1.35 38.8433,-1.436 56.1233,6.5746 13.515,6.266 25.266,18.764 28.133,33.697 2.939,15.325 -8.687,27.751 -14.936,35.069 -26.449,30.971 -69.8253,30.784 -76.5823,30.644 z"
                               style="fill:#cddc47;fill-opacity:1;fill-rule:nonzero;stroke:none"
                               id="path121821" />
                          </g>
                        </g>
                      </g>
                      <g
                         transform="translate(27.38547,150.27749)"
                         id="g121835">
                        <g
                           id="g121833">
                          <g
                             id="g121831">
                            <path
                               d="m 74.4372,-42.8788 c -4.219,1.969 -10.502,3.991 -13.509,7.685 -1.543,1.895 -1.383,3.47 -0.418,4.884 4.767,3.452 10.26,6.734 11.358,12.904 0.523,2.946 -0.241,5.743 -2.499,7.778 -1.183,1.065 -2.583,1.859 -4.001,2.561 -1.368,0.677 -2.248,0.634 -2.665,1.998 -0.11,0.354 -0.078,0.693 0.004,1.027 0.297,0.418 0.586,0.845 0.831,1.295 0.412,0.764 0.453,1.652 -0.247,2.278 -0.539,0.482 -1.429,0.643 -2.066,0.241 -0.063,0.008 -0.127,0.018 -0.196,0.018 -1.44,0.007 -2.744,-0.228 -3.935,-1.08 -0.034,-0.025 -0.062,-0.054 -0.096,-0.077 -0.025,-0.003 -0.048,-0.009 -0.075,-0.014 -0.464,0.773 -1.779,0.346 -1.875,-0.531 -0.169,-1.528 -2.114,-2.232 -2.898,-3.394 -0.591,-0.875 -0.657,-1.234 -0.841,-2.347 -0.105,-0.648 0.409,-1.523 1.066,-1.694 1.657,-0.429 3.302,-0.877 4.941,-1.359 1.332,-0.641 2.628,-1.37 2.638,-2.559 0.008,-1.455 -1.817,-2.257 -2.827,-2.909 -0.092,-0.059 -0.179,-0.123 -0.272,-0.184 -3.159,-0.707 -6.407,-1.039 -9.526,-1.955 -6.0666,-1.784 -12.9384,-5.306 -11.4357,-12.745 1.4891,-7.368 10.1907,-11.359 15.0997,-16.232 2.644,-2.625 7.591,-6.141 5.973,-9.841 -2.138,-2.222 -5.37,-4.12 -7.425,-5.832 -2.859,-2.381 -5.5395,-3.609 -8.9836,-4.911 -7.4551,-2.814 -14.8918,-5.668 -22.3411,-8.502 -6.0757,-2.314 -12.29598,-4.564 -15.87888,-10.4 -1.7242,-2.812 -2.9179,-7.248 -2.0441,-10.775 0.975,-0.212 1.9551,-0.402 2.925,-0.584 18.20308,-3.3942 36.59918,-5.7572 55.07068,-7.0682 6.079,-0.432 12.245,-0.73 18.386,-0.678 1.295,2.346 1.971,5.346 2.385,7.8362 5.319,6.812 11.649,12.683 16.892,19.596 4.7298,6.239 8.2388,15.177 2.323,21.93 -5.781,6.6 -16.093,10.025 -23.838,13.64 z"
                               style="fill:#ffa750;fill-opacity:1;fill-rule:nonzero;stroke:none"
                               id="path121829" />
                          </g>
                        </g>
                      </g>
                      <g
                         transform="translate(68.25948,165.87169)"
                         id="g121843">
                        <g
                           id="g121841">
                          <g
                             id="g121839">
                            <path
                               d="M 26.3472,-17.577 0,-17.431 0.0957,0 26.4442,-0.143 Z"
                               style="fill:#e97e51;fill-opacity:1;fill-rule:nonzero;stroke:none"
                               id="path121837" />
                          </g>
                        </g>
                      </g>
                      <g
                         transform="translate(67.36018,165.98569)"
                         id="g121851">
                        <g
                           id="g121849">
                          <g
                             id="g121847">
                            <path
                               d="M 3.1309,-17.557 0,-17.539 0.0977,0 3.229,-0.019 Z"
                               style="fill:#ffc88c;fill-opacity:1;fill-rule:nonzero;stroke:none"
                               id="path121845" />
                          </g>
                        </g>
                      </g>
                      <g
                         transform="translate(93.66068,165.83969)"
                         id="g121859">
                        <g
                           id="g121857">
                          <g
                             id="g121855">
                            <path
                               d="M 3.132,-17.557 0,-17.538 0.098,0 3.23,-0.019 Z"
                               style="fill:#ffc88c;fill-opacity:1;fill-rule:nonzero;stroke:none"
                               id="path121853" />
                          </g>
                        </g>
                      </g>
                      <g
                         transform="translate(67.44618,165.53569)"
                         id="g121867">
                        <g
                           id="g121865">
                          <g
                             id="g121863">
                            <path
                               d="M 29.4325,-1.62 0,-1.458 v 0.07477 L 0.0074,0 29.4395,-0.16199 V -0.486 Z"
                               style="mix-blend-mode:multiply;fill:#e4dbd7;fill-opacity:1;fill-rule:nonzero;stroke:none"
                               id="path121861" />
                          </g>
                        </g>
                      </g>
                      <g
                         transform="translate(73.25768,161.72869)"
                         id="g121875">
                        <g
                           id="g121873">
                          <g
                             id="g121871">
                            <path
                               d="M 0,-7.843 5.674,-7.874 5.717,-0.031 0.043,0 Z"
                               style="fill:#766150;fill-opacity:1;fill-rule:nonzero;stroke:none"
                               id="path121869" />
                          </g>
                        </g>
                      </g>
                      <g
                         transform="translate(72.62588,162.45369)"
                         id="g121883">
                        <g
                           id="g121881">
                          <g
                             id="g121879">
                            <path
                               d="m 3.7818,-8.585 0.021,3.642 2.521,-0.015 -0.02,-3.642 z m -3.131,3.658 2.524,-0.013 -0.022,-3.642 -2.52,0.015 z m 5.696,4.17 -0.019,-3.552 -5.673,0.033 0.021,3.55 z M 0.0511,0 0,-9.353 l 6.9888,-0.038 0.053,9.353 z"
                               style="fill:#ffc88c;fill-opacity:1;fill-rule:nonzero;stroke:none"
                               id="path121877" />
                          </g>
                        </g>
                      </g>
                      <g
                         transform="translate(71.47738,153.10769)"
                         id="g121891">
                        <g
                           id="g121889">
                          <g
                             id="g121887">
                            <path
                               d="M 9.2113,-1.192 0,-1.141 0.0071,0 9.2183,-0.049 Z"
                               style="fill:#f1997f;fill-opacity:1;fill-rule:nonzero;stroke:none"
                               id="path121885" />
                          </g>
                        </g>
                      </g>
                      <g
                         transform="translate(83.61068,161.66969)"
                         id="g121899">
                        <g
                           id="g121897">
                          <g
                             id="g121895">
                            <path
                               d="M 0,-13.314 7.13,-13.354 7.203,-0.039 0.073,0 Z"
                               style="fill:#f6a05c;fill-opacity:1;fill-rule:nonzero;stroke:none"
                               id="path121893" />
                          </g>
                        </g>
                      </g>
                      <g
                         transform="translate(75.14168,165.49269)"
                         id="g121907">
                        <g
                           id="g121905">
                          <g
                             id="g121903">
                            <path
                               d="M 0.631,-0.003 C 0.421,-0.002 0.21,-0.001 0,0 Z"
                               style="mix-blend-mode:multiply;fill:#e4dbd7;fill-opacity:1;fill-rule:nonzero;stroke:none"
                               id="path121901" />
                          </g>
                        </g>
                      </g>
                      <g
                         transform="translate(67.69418,176.16669)"
                         id="g121915">
                        <g
                           id="g121913">
                          <g
                             id="g121911">
                            <path
                               d="m 0,-10.633 28.7485,-0.158 C 23.7965,-7.195 18.8465,-3.597 13.8935,0 9.2625,-3.544 4.6309,-7.088 0,-10.633 Z"
                               style="fill:#f3a471;fill-opacity:1;fill-rule:nonzero;stroke:none"
                               id="path121909" />
                          </g>
                        </g>
                      </g>
                      <g
                         transform="translate(67.69418,166.46369)"
                         id="g121923">
                        <g
                           id="g121921">
                          <g
                             id="g121919">
                            <path
                               d="M 28.7545,-0.158 0.0047,0 0,-0.929 28.7485,-1.088 Z"
                               style="fill:#e97e51;fill-opacity:1;fill-rule:nonzero;stroke:none"
                               id="path121917" />
                          </g>
                        </g>
                      </g>
                      <g
                         transform="translate(65.89458,177.56069)"
                         id="g121931">
                        <g
                           id="g121929">
                          <g
                             id="g121927">
                            <path
                               d="M 15.6991,0 C 10.4671,-4.006 5.2321,-8.011 0,-12.016 l 1.8012,-0.009 c 4.6289,3.545 9.2589,7.088 13.8899,10.63 4.953,-3.595 9.905,-7.193 14.859,-10.791 l 2.034,-0.009 C 26.9561,-8.131 21.3271,-4.064 15.6991,0 Z"
                               style="fill:#5b9b71;fill-opacity:1;fill-rule:nonzero;stroke:none"
                               id="path121925" />
                          </g>
                        </g>
                      </g>
                      <g
                         transform="translate(67.69428,176.16669)"
                         id="g121939">
                        <g
                           id="g121937">
                          <g
                             id="g121935">
                            <path
                               d="M 1.7917,-10.642 C 1.19413,-10.638 0.59887,-10.636 0,-10.633 v 10e-5 C 4.63043,-7.08628 9.26156,-3.54264 13.8921,0 h 0.0027 c 0.2522,-0.18642 0.5084,-0.37185 0.7636,-0.55727 V -0.55878 C 10.3687,-3.91752 6.08007,-7.28126 1.7917,-10.642 Z"
                               style="mix-blend-mode:multiply;fill:#e4dbd7;fill-opacity:1;fill-rule:nonzero;stroke:none"
                               id="path121933" />
                          </g>
                        </g>
                      </g>
                      <g
                         transform="translate(84.24867,154.45369)"
                         id="g121947">
                        <g
                           id="g121945">
                          <g
                             id="g121943">
                            <path
                               d="M 2.05301,-0.01 0.45802,0 C 0.20702,0 0.00101,-0.203 1e-5,-0.453 -0.00199,-0.704 0.20202,-0.91 0.45302,-0.911 l 1.59499,-0.01 c 0.25,-0.002 0.456,0.202 0.458,0.453 0.001,0.25 -0.203,0.456 -0.453,0.458 z"
                               style="fill:#cd7d44;fill-opacity:1;fill-rule:nonzero;stroke:none"
                               id="path121941" />
                          </g>
                        </g>
                      </g>
                    </g>
                  </g>
                </g>
              </g>
            </g>
          </g>
        </g>
      </g>
    </g>
  </g>
</svg>
