<?xml version="1.0" encoding="UTF-8" standalone="no"?>
<!-- Created with Inkscape (http://www.inkscape.org/) -->

<svg
   width="200"
   height="200"
   viewBox="0 0 200 200"
   version="1.1"
   id="svg37630"
   inkscape:version="1.2.1 (9c6d41e410, 2022-07-14)"
   sodipodi:docname="140_lf2.svg"
   xmlns:inkscape="http://www.inkscape.org/namespaces/inkscape"
   xmlns:sodipodi="http://sodipodi.sourceforge.net/DTD/sodipodi-0.dtd"
   xmlns="http://www.w3.org/2000/svg"
   xmlns:svg="http://www.w3.org/2000/svg">
  <sodipodi:namedview
     id="namedview37632"
     pagecolor="#ffffff"
     bordercolor="#000000"
     borderopacity="0.25"
     inkscape:showpageshadow="2"
     inkscape:pageopacity="0.0"
     inkscape:pagecheckerboard="0"
     inkscape:deskcolor="#d1d1d1"
     inkscape:document-units="px"
     showgrid="false"
     inkscape:zoom="1.829812"
     inkscape:cx="42.080826"
     inkscape:cy="109.30085"
     inkscape:window-width="2040"
     inkscape:window-height="460"
     inkscape:window-x="696"
     inkscape:window-y="28"
     inkscape:window-maximized="1"
     inkscape:current-layer="layer1" />
  <defs
     id="defs37627">
    <clipPath
       clipPathUnits="userSpaceOnUse"
       id="clipPath49831">
      <g
         id="g49837">
        <g
           id="g49835">
          <path
             d="M 0,340.157 H 226.772 V 0 H 0 Z"
             id="path49833" />
        </g>
      </g>
    </clipPath>
    <clipPath
       clipPathUnits="userSpaceOnUse"
       id="clipPath49846">
      <g
         id="g49852">
        <g
           id="g49850">
          <path
             d="M 0,340.157 H 226.772 V 0 H 0 Z"
             id="path49848" />
        </g>
      </g>
    </clipPath>
    <clipPath
       clipPathUnits="userSpaceOnUse"
       id="clipPath3810">
      <path
         d="M 0,340.157 H 226.772 V 0 H 0 Z"
         id="path3808" />
    </clipPath>
    <clipPath
       clipPathUnits="userSpaceOnUse"
       id="clipPath63168">
      <g
         id="g63172"
         transform="translate(-138.8968,-217.1925)">
        <path
           d="M 0,340.157 H 226.772 V 0 H 0 Z"
           id="path63170" />
      </g>
    </clipPath>
    <clipPath
       clipPathUnits="userSpaceOnUse"
       id="clipPath63174">
      <g
         id="g63178"
         transform="translate(-81.8929,-48.1051)">
        <path
           d="M 0,340.157 H 226.772 V 0 H 0 Z"
           id="path63176" />
      </g>
    </clipPath>
    <clipPath
       clipPathUnits="userSpaceOnUse"
       id="clipPath75594">
      <g
         id="g75598"
         transform="translate(-127.7585,-249.5099)">
        <path
           d="M 0,340.157 H 226.772 V 0 H 0 Z"
           id="path75596" />
      </g>
    </clipPath>
    <clipPath
       clipPathUnits="userSpaceOnUse"
       id="clipPath75588">
      <g
         id="g75592"
         transform="translate(-138.8962,-196.152)">
        <path
           d="M 0,340.157 H 226.772 V 0 H 0 Z"
           id="path75590" />
      </g>
    </clipPath>
    <clipPath
       clipPathUnits="userSpaceOnUse"
       id="clipPath75600">
      <g
         id="g75604"
         transform="translate(-150.3796,-110.1285)">
        <path
           d="M 0,340.157 H 226.772 V 0 H 0 Z"
           id="path75602" />
      </g>
    </clipPath>
    <clipPath
       clipPathUnits="userSpaceOnUse"
       id="clipPath75902">
      <g
         id="g75906"
         transform="translate(-117.3763,-183.3499)">
        <path
           d="M 0,340.157 H 226.772 V 0 H 0 Z"
           id="path75904" />
      </g>
    </clipPath>
    <clipPath
       clipPathUnits="userSpaceOnUse"
       id="clipPath75908">
      <g
         id="g75912"
         transform="translate(-122.3158,-75.9998)">
        <path
           d="M 0,340.157 H 226.772 V 0 H 0 Z"
           id="path75910" />
      </g>
    </clipPath>
    <clipPath
       clipPathUnits="userSpaceOnUse"
       id="clipPath76189">
      <g
         id="g76193"
         transform="translate(-91.8367,-210.8606)">
        <path
           d="M 0,340.157 H 226.772 V 0 H 0 Z"
           id="path76191" />
      </g>
    </clipPath>
    <clipPath
       clipPathUnits="userSpaceOnUse"
       id="clipPath76183">
      <g
         id="g76187"
         transform="translate(-135.2703,-223.5168)">
        <path
           d="M 0,340.157 H 226.772 V 0 H 0 Z"
           id="path76185" />
      </g>
    </clipPath>
    <clipPath
       clipPathUnits="userSpaceOnUse"
       id="clipPath76195">
      <g
         id="g76199"
         transform="translate(-135.2703,-91.532)">
        <path
           d="M 0,340.157 H 226.772 V 0 H 0 Z"
           id="path76197" />
      </g>
    </clipPath>
    <clipPath
       clipPathUnits="userSpaceOnUse"
       id="clipPath9892">
      <path
         d="M 0,340.157 H 226.772 V 0 H 0 Z"
         id="path9890" />
    </clipPath>
    <clipPath
       clipPathUnits="userSpaceOnUse"
       id="clipPath76990">
      <g
         id="g76994"
         transform="translate(-121.1707,-272.8103)">
        <path
           d="M 0,340.157 H 226.772 V 0 H 0 Z"
           id="path76992" />
      </g>
    </clipPath>
    <clipPath
       clipPathUnits="userSpaceOnUse"
       id="clipPath76984">
      <g
         id="g76988"
         transform="translate(-116.2566,-153.0125)">
        <path
           d="M 0,340.157 H 226.772 V 0 H 0 Z"
           id="path76986" />
      </g>
    </clipPath>
    <clipPath
       clipPathUnits="userSpaceOnUse"
       id="clipPath79185">
      <g
         id="g79189"
         transform="translate(-116.682,-257.1871)">
        <path
           d="M 0,340.157 H 226.772 V 0 H 0 Z"
           id="path79187" />
      </g>
    </clipPath>
  </defs>
  <g
     inkscape:label="Layer 1"
     inkscape:groupmode="layer"
     id="layer1">
    <path
       d="m 132.72227,34.105475 c -2.30269,0 -4.23737,-0.784006 -5.80671,-2.354688 -1.56935,-1.568011 -2.35336,-3.661361 -2.35336,-6.277383 0,-2.404022 0.78401,-4.41737 2.35336,-6.041383 C 128.4849,17.810674 130.41958,17 132.72227,17 c 4.91737,0 7.6374,2.824022 8.16007,8.473404 0,5.336042 -2.72136,8.216066 -8.16007,8.632071 m 15.6948,60.421835 4.07869,-0.157343 c -0.20934,-5.125377 -0.94,-9.80808 -2.19601,-14.046784 -1.25601,-4.237369 -3.1147,-7.661396 -5.57205,-10.278752 -2.45868,-2.614688 -5.57071,-3.922699 -9.33741,-3.922699 -3.97737,0 -7.40406,1.438678 -10.28008,4.316037 -2.87869,2.877356 -4.3147,6.197385 -4.3147,9.965416 0,4.813374 2.82402,8.422736 8.4734,10.828088 4.81204,2.197353 11.19476,3.296029 19.14816,3.296029 M 91.760598,134.70231 c -20.714836,0 -35.416292,-4.60137 -44.099031,-13.80945 -6.801388,-7.21872 -10.201418,-16.32147 -10.201418,-27.308225 0,-8.996076 1.412012,-16.685472 4.237368,-23.06819 l 8.474739,1.725346 c -0.73334,2.722688 -1.333345,5.336045 -1.805348,7.846731 -0.469338,2.510689 -0.705341,5.389378 -0.705341,8.632074 0,7.53206 1.908015,13.653444 5.728046,18.360154 3.8187,4.70937 9.128077,8.16273 15.929465,10.36008 6.800057,2.19602 14.648122,3.29603 23.54153,3.29603 13.496112,0 25.422882,-0.99334 35.780292,-2.98269 10.35876,-1.98668 17.73481,-3.9747 22.12952,-5.96405 0.31332,-1.35868 0.628,-3.13869 0.94134,-5.33471 l -5.33605,0.15598 c -7.84806,0 -14.46411,-1.07201 -19.85216,-3.21736 -5.38938,-2.14402 -9.31341,-5.230709 -11.7721,-9.260078 -2.45735,-4.025366 -3.68669,-8.0814 -3.68669,-12.162764 0,-7.218727 2.72002,-13.80945 8.16007,-19.773499 2.92802,-2.928025 6.01604,-5.073374 9.26007,-6.434718 3.24136,-1.357346 6.17205,-2.040017 8.78808,-2.040017 4.08136,0 8.05606,1.518679 11.92676,4.550702 3.8707,3.036025 7.06273,7.717398 9.57475,14.046784 2.51068,6.330719 3.76536,14.465452 3.76536,24.404203 0,7.637397 -1.30934,15.536127 -3.9227,23.697527 -5.75605,3.7667 -14.85879,7.08939 -27.30822,9.96542 -12.45077,2.87602 -25.63355,4.3147 -39.548332,4.3147"
       style="fill:#000000;fill-opacity:1;fill-rule:nonzero;stroke:none;stroke-width:1.33335"
       id="path20076"
       clip-path="none" />
  </g>
</svg>
