<?xml version="1.0" encoding="UTF-8" standalone="no"?>
<!-- Created with Inkscape (http://www.inkscape.org/) -->

<svg
   width="200"
   height="200"
   viewBox="0 0 200 200"
   version="1.1"
   id="svg37630"
   inkscape:version="1.2.1 (9c6d41e410, 2022-07-14)"
   sodipodi:docname="140_lf1.svg"
   xmlns:inkscape="http://www.inkscape.org/namespaces/inkscape"
   xmlns:sodipodi="http://sodipodi.sourceforge.net/DTD/sodipodi-0.dtd"
   xmlns="http://www.w3.org/2000/svg"
   xmlns:svg="http://www.w3.org/2000/svg">
  <sodipodi:namedview
     id="namedview37632"
     pagecolor="#ffffff"
     bordercolor="#000000"
     borderopacity="0.25"
     inkscape:showpageshadow="2"
     inkscape:pageopacity="0.0"
     inkscape:pagecheckerboard="0"
     inkscape:deskcolor="#d1d1d1"
     inkscape:document-units="px"
     showgrid="false"
     inkscape:zoom="1.829812"
     inkscape:cx="-62.301482"
     inkscape:cy="95.091736"
     inkscape:window-width="2040"
     inkscape:window-height="460"
     inkscape:window-x="696"
     inkscape:window-y="28"
     inkscape:window-maximized="1"
     inkscape:current-layer="layer1" />
  <defs
     id="defs37627">
    <clipPath
       clipPathUnits="userSpaceOnUse"
       id="clipPath49831">
      <g
         id="g49837">
        <g
           id="g49835">
          <path
             d="M 0,340.157 H 226.772 V 0 H 0 Z"
             id="path49833" />
        </g>
      </g>
    </clipPath>
    <clipPath
       clipPathUnits="userSpaceOnUse"
       id="clipPath49846">
      <g
         id="g49852">
        <g
           id="g49850">
          <path
             d="M 0,340.157 H 226.772 V 0 H 0 Z"
             id="path49848" />
        </g>
      </g>
    </clipPath>
    <clipPath
       clipPathUnits="userSpaceOnUse"
       id="clipPath3810">
      <path
         d="M 0,340.157 H 226.772 V 0 H 0 Z"
         id="path3808" />
    </clipPath>
    <clipPath
       clipPathUnits="userSpaceOnUse"
       id="clipPath63168">
      <g
         id="g63172"
         transform="translate(-138.8968,-217.1925)">
        <path
           d="M 0,340.157 H 226.772 V 0 H 0 Z"
           id="path63170" />
      </g>
    </clipPath>
    <clipPath
       clipPathUnits="userSpaceOnUse"
       id="clipPath63174">
      <g
         id="g63178"
         transform="translate(-81.8929,-48.1051)">
        <path
           d="M 0,340.157 H 226.772 V 0 H 0 Z"
           id="path63176" />
      </g>
    </clipPath>
    <clipPath
       clipPathUnits="userSpaceOnUse"
       id="clipPath75594">
      <g
         id="g75598"
         transform="translate(-127.7585,-249.5099)">
        <path
           d="M 0,340.157 H 226.772 V 0 H 0 Z"
           id="path75596" />
      </g>
    </clipPath>
    <clipPath
       clipPathUnits="userSpaceOnUse"
       id="clipPath75588">
      <g
         id="g75592"
         transform="translate(-138.8962,-196.152)">
        <path
           d="M 0,340.157 H 226.772 V 0 H 0 Z"
           id="path75590" />
      </g>
    </clipPath>
    <clipPath
       clipPathUnits="userSpaceOnUse"
       id="clipPath75600">
      <g
         id="g75604"
         transform="translate(-150.3796,-110.1285)">
        <path
           d="M 0,340.157 H 226.772 V 0 H 0 Z"
           id="path75602" />
      </g>
    </clipPath>
    <clipPath
       clipPathUnits="userSpaceOnUse"
       id="clipPath75902">
      <g
         id="g75906"
         transform="translate(-117.3763,-183.3499)">
        <path
           d="M 0,340.157 H 226.772 V 0 H 0 Z"
           id="path75904" />
      </g>
    </clipPath>
    <clipPath
       clipPathUnits="userSpaceOnUse"
       id="clipPath75908">
      <g
         id="g75912"
         transform="translate(-122.3158,-75.9998)">
        <path
           d="M 0,340.157 H 226.772 V 0 H 0 Z"
           id="path75910" />
      </g>
    </clipPath>
    <clipPath
       clipPathUnits="userSpaceOnUse"
       id="clipPath76189">
      <g
         id="g76193"
         transform="translate(-91.8367,-210.8606)">
        <path
           d="M 0,340.157 H 226.772 V 0 H 0 Z"
           id="path76191" />
      </g>
    </clipPath>
    <clipPath
       clipPathUnits="userSpaceOnUse"
       id="clipPath76183">
      <g
         id="g76187"
         transform="translate(-135.2703,-223.5168)">
        <path
           d="M 0,340.157 H 226.772 V 0 H 0 Z"
           id="path76185" />
      </g>
    </clipPath>
    <clipPath
       clipPathUnits="userSpaceOnUse"
       id="clipPath76195">
      <g
         id="g76199"
         transform="translate(-135.2703,-91.532)">
        <path
           d="M 0,340.157 H 226.772 V 0 H 0 Z"
           id="path76197" />
      </g>
    </clipPath>
    <clipPath
       clipPathUnits="userSpaceOnUse"
       id="clipPath9892">
      <path
         d="M 0,340.157 H 226.772 V 0 H 0 Z"
         id="path9890" />
    </clipPath>
    <clipPath
       clipPathUnits="userSpaceOnUse"
       id="clipPath76990">
      <g
         id="g76994"
         transform="translate(-121.1707,-272.8103)">
        <path
           d="M 0,340.157 H 226.772 V 0 H 0 Z"
           id="path76992" />
      </g>
    </clipPath>
    <clipPath
       clipPathUnits="userSpaceOnUse"
       id="clipPath76984">
      <g
         id="g76988"
         transform="translate(-116.2566,-153.0125)">
        <path
           d="M 0,340.157 H 226.772 V 0 H 0 Z"
           id="path76986" />
      </g>
    </clipPath>
  </defs>
  <g
     inkscape:label="Layer 1"
     inkscape:groupmode="layer"
     id="layer1">
    <path
       d="m 104.39466,34.105293 c -2.304,0 -4.23866,-0.783997 -5.806654,-2.353329 -1.569331,-1.569328 -2.354662,-3.661325 -2.354662,-6.27865 0,-2.403997 0.785331,-4.417323 2.354662,-6.041318 C 100.156,17.810665 102.09066,17 104.39466,17 c 4.91732,0 7.63598,2.823992 8.15998,8.473314 0,5.335985 -2.72133,8.215979 -8.15998,8.631979 m 18.83195,61.205186 0.15598,-2.667992 c 0,-2.926659 -0.46933,-6.379987 -1.41066,-10.355976 -0.94133,-3.977324 -2.66799,-7.663984 -5.17999,-11.065309 -2.51066,-3.398656 -5.75598,-5.099988 -9.72931,-5.099988 -4.18665,0 -7.665311,1.438667 -10.437305,4.315992 -2.771994,2.878659 -4.157323,6.197318 -4.157323,9.965309 0,4.707988 2.667992,8.422646 8.002648,11.141307 4.91732,2.511993 11.82264,3.766657 20.71595,3.766657 z M 83.208041,131.40773 h -9.102646 c -2.61466,0 -4.602652,-0.75867 -5.962653,-2.276 -1.359995,-1.51599 -2.041328,-3.21865 -2.041328,-5.10132 0,-1.77733 0.681333,-3.37332 2.041328,-4.78665 1.360001,-1.412 3.347993,-2.11733 5.962653,-2.11733 h 10.514644 c 8.055979,0 15.639961,-0.496 22.755941,-1.49333 7.11332,-0.992 11.87464,-2.012 14.2813,-3.05866 0.52267,-1.56933 0.78534,-3.34799 0.78534,-5.33599 h -3.29733 c -8.15998,0 -15.0133,-1.12266 -20.557284,-3.37466 C 93.04002,101.6158 88.961361,98.475807 86.3467,94.447815 83.729373,90.421158 82.422709,86.2625 82.422709,81.970513 c 0,-7.21865 2.719996,-13.809303 8.161315,-19.773289 2.927994,-2.927994 6.06532,-5.07332 9.415976,-6.43465 3.34666,-1.357331 6.32932,-2.039995 8.94532,-2.039995 3.97599,0 7.87064,1.545328 11.69197,4.630655 3.81865,3.086661 6.98398,7.61065 9.49464,13.573302 2.512,5.96532 3.76666,13.289302 3.76666,21.973279 0,3.870658 -0.34133,8.473315 -1.02133,13.809305 -0.68,5.33598 -1.7,9.83597 -3.05999,13.49596 -1.568,1.256 -4.10666,2.668 -7.61065,4.23733 -3.50666,1.57066 -8.37198,2.95866 -14.59464,4.15866 -6.22665,1.20399 -14.359963,1.80666 -24.40394,1.80666"
       style="fill:#f91536;fill-opacity:1;fill-rule:nonzero;stroke:none;stroke-width:1.33333"
       id="path20080"
       clip-path="none" />
  </g>
</svg>
