<?xml version="1.0" encoding="UTF-8" standalone="no"?>
<!-- Created with Inkscape (http://www.inkscape.org/) -->

<svg
   width="200"
   height="200"
   viewBox="0 0 200 200"
   version="1.1"
   id="svg37630"
   inkscape:version="1.2.1 (9c6d41e410, 2022-07-14)"
   sodipodi:docname="141_lf2.svg"
   xmlns:inkscape="http://www.inkscape.org/namespaces/inkscape"
   xmlns:sodipodi="http://sodipodi.sourceforge.net/DTD/sodipodi-0.dtd"
   xmlns="http://www.w3.org/2000/svg"
   xmlns:svg="http://www.w3.org/2000/svg">
  <sodipodi:namedview
     id="namedview37632"
     pagecolor="#ffffff"
     bordercolor="#000000"
     borderopacity="0.25"
     inkscape:showpageshadow="2"
     inkscape:pageopacity="0.0"
     inkscape:pagecheckerboard="0"
     inkscape:deskcolor="#d1d1d1"
     inkscape:document-units="px"
     showgrid="false"
     inkscape:zoom="1.2938725"
     inkscape:cx="-85.016106"
     inkscape:cy="108.20232"
     inkscape:window-width="2040"
     inkscape:window-height="460"
     inkscape:window-x="696"
     inkscape:window-y="28"
     inkscape:window-maximized="1"
     inkscape:current-layer="layer1" />
  <defs
     id="defs37627">
    <clipPath
       clipPathUnits="userSpaceOnUse"
       id="clipPath49831">
      <g
         id="g49837">
        <g
           id="g49835">
          <path
             d="M 0,340.157 H 226.772 V 0 H 0 Z"
             id="path49833" />
        </g>
      </g>
    </clipPath>
    <clipPath
       clipPathUnits="userSpaceOnUse"
       id="clipPath49846">
      <g
         id="g49852">
        <g
           id="g49850">
          <path
             d="M 0,340.157 H 226.772 V 0 H 0 Z"
             id="path49848" />
        </g>
      </g>
    </clipPath>
    <clipPath
       clipPathUnits="userSpaceOnUse"
       id="clipPath3810">
      <path
         d="M 0,340.157 H 226.772 V 0 H 0 Z"
         id="path3808" />
    </clipPath>
    <clipPath
       clipPathUnits="userSpaceOnUse"
       id="clipPath63168">
      <g
         id="g63172"
         transform="translate(-138.8968,-217.1925)">
        <path
           d="M 0,340.157 H 226.772 V 0 H 0 Z"
           id="path63170" />
      </g>
    </clipPath>
    <clipPath
       clipPathUnits="userSpaceOnUse"
       id="clipPath63174">
      <g
         id="g63178"
         transform="translate(-81.8929,-48.1051)">
        <path
           d="M 0,340.157 H 226.772 V 0 H 0 Z"
           id="path63176" />
      </g>
    </clipPath>
    <clipPath
       clipPathUnits="userSpaceOnUse"
       id="clipPath75594">
      <g
         id="g75598"
         transform="translate(-127.7585,-249.5099)">
        <path
           d="M 0,340.157 H 226.772 V 0 H 0 Z"
           id="path75596" />
      </g>
    </clipPath>
    <clipPath
       clipPathUnits="userSpaceOnUse"
       id="clipPath75588">
      <g
         id="g75592"
         transform="translate(-138.8962,-196.152)">
        <path
           d="M 0,340.157 H 226.772 V 0 H 0 Z"
           id="path75590" />
      </g>
    </clipPath>
    <clipPath
       clipPathUnits="userSpaceOnUse"
       id="clipPath75600">
      <g
         id="g75604"
         transform="translate(-150.3796,-110.1285)">
        <path
           d="M 0,340.157 H 226.772 V 0 H 0 Z"
           id="path75602" />
      </g>
    </clipPath>
    <clipPath
       clipPathUnits="userSpaceOnUse"
       id="clipPath75902">
      <g
         id="g75906"
         transform="translate(-117.3763,-183.3499)">
        <path
           d="M 0,340.157 H 226.772 V 0 H 0 Z"
           id="path75904" />
      </g>
    </clipPath>
    <clipPath
       clipPathUnits="userSpaceOnUse"
       id="clipPath75908">
      <g
         id="g75912"
         transform="translate(-122.3158,-75.9998)">
        <path
           d="M 0,340.157 H 226.772 V 0 H 0 Z"
           id="path75910" />
      </g>
    </clipPath>
    <clipPath
       clipPathUnits="userSpaceOnUse"
       id="clipPath76189">
      <g
         id="g76193"
         transform="translate(-91.8367,-210.8606)">
        <path
           d="M 0,340.157 H 226.772 V 0 H 0 Z"
           id="path76191" />
      </g>
    </clipPath>
    <clipPath
       clipPathUnits="userSpaceOnUse"
       id="clipPath76183">
      <g
         id="g76187"
         transform="translate(-135.2703,-223.5168)">
        <path
           d="M 0,340.157 H 226.772 V 0 H 0 Z"
           id="path76185" />
      </g>
    </clipPath>
    <clipPath
       clipPathUnits="userSpaceOnUse"
       id="clipPath76195">
      <g
         id="g76199"
         transform="translate(-135.2703,-91.532)">
        <path
           d="M 0,340.157 H 226.772 V 0 H 0 Z"
           id="path76197" />
      </g>
    </clipPath>
    <clipPath
       clipPathUnits="userSpaceOnUse"
       id="clipPath9892">
      <path
         d="M 0,340.157 H 226.772 V 0 H 0 Z"
         id="path9890" />
    </clipPath>
    <clipPath
       clipPathUnits="userSpaceOnUse"
       id="clipPath76990">
      <g
         id="g76994"
         transform="translate(-121.1707,-272.8103)">
        <path
           d="M 0,340.157 H 226.772 V 0 H 0 Z"
           id="path76992" />
      </g>
    </clipPath>
    <clipPath
       clipPathUnits="userSpaceOnUse"
       id="clipPath76984">
      <g
         id="g76988"
         transform="translate(-116.2566,-153.0125)">
        <path
           d="M 0,340.157 H 226.772 V 0 H 0 Z"
           id="path76986" />
      </g>
    </clipPath>
    <clipPath
       clipPathUnits="userSpaceOnUse"
       id="clipPath79185">
      <g
         id="g79189"
         transform="translate(-116.682,-257.1871)">
        <path
           d="M 0,340.157 H 226.772 V 0 H 0 Z"
           id="path79187" />
      </g>
    </clipPath>
    <clipPath
       clipPathUnits="userSpaceOnUse"
       id="clipPath79191">
      <g
         id="g79195"
         transform="translate(-137.9271,-122.0807)">
        <path
           d="M 0,340.157 H 226.772 V 0 H 0 Z"
           id="path79193" />
      </g>
    </clipPath>
    <clipPath
       clipPathUnits="userSpaceOnUse"
       id="clipPath79580">
      <g
         id="g79584"
         transform="translate(-100.3016,-184.3873)">
        <path
           d="M 0,340.157 H 226.772 V 0 H 0 Z"
           id="path79582" />
      </g>
    </clipPath>
  </defs>
  <g
     inkscape:label="Layer 1"
     inkscape:groupmode="layer"
     id="layer1">
    <path
       d="m 97.489278,154.91094 c -11.824255,0 -21.029789,-3.29607 -27.62193,-9.88688 -6.590811,-6.59081 -9.88688,-15.32567 -9.88688,-26.20857 0,-7.74283 1.621365,-15.747 4.865438,-24.012518 l 9.102861,1.412032 c -1.780038,6.277466 -2.668057,12.504266 -2.668057,18.676406 0,6.80281 1.385363,12.13893 4.158757,16.00834 2.770726,3.86942 6.249467,6.61481 10.436227,8.23885 4.184089,1.62137 8.369515,2.43205 12.554937,2.43205 5.753459,0 11.300249,-1.09736 16.636359,-3.29473 5.33612,-2.19739 9.36154,-5.54546 12.08426,-10.04556 0.73068,-1.56937 1.09736,-3.76541 1.09736,-6.59081 L 124.16985,19.941354 135.93944,19 l 4.08009,100.60084 c 0,5.12678 -0.83735,9.3642 -2.50939,12.71095 -3.87341,7.42816 -9.57487,13.05094 -17.10703,16.87103 -7.5335,3.81741 -15.171,5.72812 -22.913832,5.72812"
       style="fill:#000000;fill-opacity:1;fill-rule:nonzero;stroke:none;stroke-width:1.33336"
       id="path20150"
       clip-path="none" />
  </g>
</svg>
