<?xml version="1.0" encoding="UTF-8" standalone="no"?>
<!-- Created with Inkscape (http://www.inkscape.org/) -->

<svg
   width="200"
   height="200"
   viewBox="0 0 200 200"
   version="1.1"
   id="svg37630"
   inkscape:version="1.2.1 (9c6d41e410, 2022-07-14)"
   sodipodi:docname="141_lf1.svg"
   xmlns:inkscape="http://www.inkscape.org/namespaces/inkscape"
   xmlns:sodipodi="http://sodipodi.sourceforge.net/DTD/sodipodi-0.dtd"
   xmlns="http://www.w3.org/2000/svg"
   xmlns:svg="http://www.w3.org/2000/svg">
  <sodipodi:namedview
     id="namedview37632"
     pagecolor="#ffffff"
     bordercolor="#000000"
     borderopacity="0.25"
     inkscape:showpageshadow="2"
     inkscape:pageopacity="0.0"
     inkscape:pagecheckerboard="0"
     inkscape:deskcolor="#d1d1d1"
     inkscape:document-units="px"
     showgrid="false"
     inkscape:zoom="1.829812"
     inkscape:cx="109.84735"
     inkscape:cy="113.67288"
     inkscape:window-width="2040"
     inkscape:window-height="460"
     inkscape:window-x="696"
     inkscape:window-y="28"
     inkscape:window-maximized="1"
     inkscape:current-layer="layer1" />
  <defs
     id="defs37627">
    <clipPath
       clipPathUnits="userSpaceOnUse"
       id="clipPath49831">
      <g
         id="g49837">
        <g
           id="g49835">
          <path
             d="M 0,340.157 H 226.772 V 0 H 0 Z"
             id="path49833" />
        </g>
      </g>
    </clipPath>
    <clipPath
       clipPathUnits="userSpaceOnUse"
       id="clipPath49846">
      <g
         id="g49852">
        <g
           id="g49850">
          <path
             d="M 0,340.157 H 226.772 V 0 H 0 Z"
             id="path49848" />
        </g>
      </g>
    </clipPath>
    <clipPath
       clipPathUnits="userSpaceOnUse"
       id="clipPath3810">
      <path
         d="M 0,340.157 H 226.772 V 0 H 0 Z"
         id="path3808" />
    </clipPath>
    <clipPath
       clipPathUnits="userSpaceOnUse"
       id="clipPath63168">
      <g
         id="g63172"
         transform="translate(-138.8968,-217.1925)">
        <path
           d="M 0,340.157 H 226.772 V 0 H 0 Z"
           id="path63170" />
      </g>
    </clipPath>
    <clipPath
       clipPathUnits="userSpaceOnUse"
       id="clipPath63174">
      <g
         id="g63178"
         transform="translate(-81.8929,-48.1051)">
        <path
           d="M 0,340.157 H 226.772 V 0 H 0 Z"
           id="path63176" />
      </g>
    </clipPath>
    <clipPath
       clipPathUnits="userSpaceOnUse"
       id="clipPath75594">
      <g
         id="g75598"
         transform="translate(-127.7585,-249.5099)">
        <path
           d="M 0,340.157 H 226.772 V 0 H 0 Z"
           id="path75596" />
      </g>
    </clipPath>
    <clipPath
       clipPathUnits="userSpaceOnUse"
       id="clipPath75588">
      <g
         id="g75592"
         transform="translate(-138.8962,-196.152)">
        <path
           d="M 0,340.157 H 226.772 V 0 H 0 Z"
           id="path75590" />
      </g>
    </clipPath>
    <clipPath
       clipPathUnits="userSpaceOnUse"
       id="clipPath75600">
      <g
         id="g75604"
         transform="translate(-150.3796,-110.1285)">
        <path
           d="M 0,340.157 H 226.772 V 0 H 0 Z"
           id="path75602" />
      </g>
    </clipPath>
    <clipPath
       clipPathUnits="userSpaceOnUse"
       id="clipPath75902">
      <g
         id="g75906"
         transform="translate(-117.3763,-183.3499)">
        <path
           d="M 0,340.157 H 226.772 V 0 H 0 Z"
           id="path75904" />
      </g>
    </clipPath>
    <clipPath
       clipPathUnits="userSpaceOnUse"
       id="clipPath75908">
      <g
         id="g75912"
         transform="translate(-122.3158,-75.9998)">
        <path
           d="M 0,340.157 H 226.772 V 0 H 0 Z"
           id="path75910" />
      </g>
    </clipPath>
    <clipPath
       clipPathUnits="userSpaceOnUse"
       id="clipPath76189">
      <g
         id="g76193"
         transform="translate(-91.8367,-210.8606)">
        <path
           d="M 0,340.157 H 226.772 V 0 H 0 Z"
           id="path76191" />
      </g>
    </clipPath>
    <clipPath
       clipPathUnits="userSpaceOnUse"
       id="clipPath76183">
      <g
         id="g76187"
         transform="translate(-135.2703,-223.5168)">
        <path
           d="M 0,340.157 H 226.772 V 0 H 0 Z"
           id="path76185" />
      </g>
    </clipPath>
    <clipPath
       clipPathUnits="userSpaceOnUse"
       id="clipPath76195">
      <g
         id="g76199"
         transform="translate(-135.2703,-91.532)">
        <path
           d="M 0,340.157 H 226.772 V 0 H 0 Z"
           id="path76197" />
      </g>
    </clipPath>
    <clipPath
       clipPathUnits="userSpaceOnUse"
       id="clipPath9892">
      <path
         d="M 0,340.157 H 226.772 V 0 H 0 Z"
         id="path9890" />
    </clipPath>
    <clipPath
       clipPathUnits="userSpaceOnUse"
       id="clipPath76990">
      <g
         id="g76994"
         transform="translate(-121.1707,-272.8103)">
        <path
           d="M 0,340.157 H 226.772 V 0 H 0 Z"
           id="path76992" />
      </g>
    </clipPath>
    <clipPath
       clipPathUnits="userSpaceOnUse"
       id="clipPath76984">
      <g
         id="g76988"
         transform="translate(-116.2566,-153.0125)">
        <path
           d="M 0,340.157 H 226.772 V 0 H 0 Z"
           id="path76986" />
      </g>
    </clipPath>
    <clipPath
       clipPathUnits="userSpaceOnUse"
       id="clipPath79185">
      <g
         id="g79189"
         transform="translate(-116.682,-257.1871)">
        <path
           d="M 0,340.157 H 226.772 V 0 H 0 Z"
           id="path79187" />
      </g>
    </clipPath>
    <clipPath
       clipPathUnits="userSpaceOnUse"
       id="clipPath79191">
      <g
         id="g79195"
         transform="translate(-137.9271,-122.0807)">
        <path
           d="M 0,340.157 H 226.772 V 0 H 0 Z"
           id="path79193" />
      </g>
    </clipPath>
  </defs>
  <g
     inkscape:label="Layer 1"
     inkscape:groupmode="layer"
     id="layer1">
    <path
       d="m 82.554376,133.93765 c -3.1386,0 -5.257221,-0.808 -6.355865,-2.43334 -1.098643,-1.62 -1.647963,-3.26801 -1.647963,-4.94268 0,-1.35867 0.602655,-2.84934 1.805294,-4.47334 1.203973,-1.62134 3.270597,-2.43201 6.198534,-2.43201 5.751875,0 23.144834,-1.49067 26.338104,-4.47201 3.18926,-2.98268 4.78656,-7.61203 4.78656,-13.88938 L 109.91245,20.942669 121.68287,20 l 3.76658,82.54957 c 0,10.35869 -2.56527,18.18138 -7.6905,23.46273 -5.12655,5.28535 -25.474117,7.92535 -35.204574,7.92535"
       style="fill:#f91536;fill-opacity:1;fill-rule:nonzero;stroke:none;stroke-width:1.33332"
       id="path20154"
       clip-path="none" />
  </g>
</svg>
