<?xml version="1.0" encoding="UTF-8" standalone="no"?>
<!-- Created with Inkscape (http://www.inkscape.org/) -->

<svg
   version="1.1"
   id="svg122938"
   width="400"
   height="400"
   viewBox="0 0 400 400"
   sodipodi:docname="1422_pic.pdf"
   xmlns:inkscape="http://www.inkscape.org/namespaces/inkscape"
   xmlns:sodipodi="http://sodipodi.sourceforge.net/DTD/sodipodi-0.dtd"
   xmlns="http://www.w3.org/2000/svg"
   xmlns:svg="http://www.w3.org/2000/svg">
  <defs
     id="defs122942">
    <clipPath
       clipPathUnits="userSpaceOnUse"
       id="clipPath122958">
      <path
         d="M 0,0 H 217.64621 V -183.85132 H 0 Z"
         clip-rule="evenodd"
         id="path122956" />
    </clipPath>
    <clipPath
       clipPathUnits="userSpaceOnUse"
       id="clipPath122968">
      <path
         d="M 0,-183.85132 H 300 V 183.85132 H 0 Z"
         id="path122966" />
    </clipPath>
  </defs>
  <sodipodi:namedview
     id="namedview122940"
     pagecolor="#ffffff"
     bordercolor="#000000"
     borderopacity="0.25"
     inkscape:showpageshadow="2"
     inkscape:pageopacity="0.0"
     inkscape:pagecheckerboard="0"
     inkscape:deskcolor="#d1d1d1" />
  <g
     id="g122944"
     inkscape:groupmode="layer"
     inkscape:label="1422_pic15"
     transform="matrix(1.3333333,0,0,-1.3333333,0,400)">
    <g
       id="g122946">
      <g
         id="g122948">
        <g
           id="g122950"
           transform="translate(41.17689,241.92566)">
          <g
             id="g122952">
            <g
               id="g122954"
               clip-path="url(#clipPath122958)">
              <g
                 id="g122960"
                 transform="matrix(1.33329,0,0,1.33329,0,-245.12707)">
                <g
                   id="g122962">
                  <g
                     id="g122964" />
                  <g
                     id="g123428">
                    <g
                       clip-path="url(#clipPath122968)"
                       id="g123426">
                      <g
                         transform="translate(19.9719,110.45532)"
                         id="g122976">
                        <g
                           id="g122974">
                          <g
                             id="g122972">
                            <path
                               d="M 0,-10.485 H 24.225 V 0 H 0 Z"
                               style="fill:#e5e7e8;fill-opacity:1;fill-rule:nonzero;stroke:none"
                               id="path122970" />
                          </g>
                        </g>
                      </g>
                      <g
                         transform="translate(25.034,106.47932)"
                         id="g122984">
                        <g
                           id="g122982">
                          <g
                             id="g122980">
                            <path
                               d="M 0,-38.327 H 14.1012 V 0 H 0 Z"
                               style="fill:#e5e7e8;fill-opacity:1;fill-rule:nonzero;stroke:none"
                               id="path122978" />
                          </g>
                        </g>
                      </g>
                      <g
                         transform="translate(25.0344,99.97032)"
                         id="g122992">
                        <g
                           id="g122990">
                          <g
                             id="g122988">
                            <path
                               d="m 0,0 v -2.556 l 14.1008,2.524 V 0 Z"
                               style="fill:#bcbec0;fill-opacity:1;fill-rule:nonzero;stroke:none"
                               id="path122986" />
                          </g>
                        </g>
                      </g>
                      <g
                         transform="translate(119.042,110.45532)"
                         id="g123000">
                        <g
                           id="g122998">
                          <g
                             id="g122996">
                            <path
                               d="M 0,-10.485 H 24.226 V 0 H 0 Z"
                               style="fill:#e5e7e8;fill-opacity:1;fill-rule:nonzero;stroke:none"
                               id="path122994" />
                          </g>
                        </g>
                      </g>
                      <g
                         transform="translate(124.104,106.47932)"
                         id="g123008">
                        <g
                           id="g123006">
                          <g
                             id="g123004">
                            <path
                               d="M 0,-38.327 H 14.102 V 0 H 0 Z"
                               style="fill:#e5e7e8;fill-opacity:1;fill-rule:nonzero;stroke:none"
                               id="path123002" />
                          </g>
                        </g>
                      </g>
                      <g
                         transform="translate(124.104,99.97032)"
                         id="g123016">
                        <g
                           id="g123014">
                          <g
                             id="g123012">
                            <path
                               d="m 0,0 v -2.556 l 14.102,2.524 V 0 Z"
                               style="fill:#bcbec0;fill-opacity:1;fill-rule:nonzero;stroke:none"
                               id="path123010" />
                          </g>
                        </g>
                      </g>
                      <g
                         transform="translate(0,183.85132)"
                         id="g123024">
                        <g
                           id="g123022">
                          <g
                             id="g123020">
                            <path
                               d="m 163.24,-78.456 c 0,-0.999 -0.81,-1.809 -1.808,-1.809 H 1.8078 C 0.809,-80.265 0,-79.455 0,-78.456 V -1.808 C 0,-0.81 0.809,0 1.8078,0 H 161.432 c 0.998,0 1.808,-0.81 1.808,-1.808 z"
                               style="fill:#bcbec0;fill-opacity:1;fill-rule:nonzero;stroke:none"
                               id="path123018" />
                          </g>
                        </g>
                      </g>
                      <g
                         transform="translate(2.9473,181.12832)"
                         id="g123032">
                        <g
                           id="g123030">
                          <g
                             id="g123028">
                            <path
                               d="m 157.345,-72.602 c 0,-0.924 -0.78,-1.674 -1.742,-1.674 H 1.7418 C 0.7797,-74.276 0,-73.526 0,-72.602 V -1.673 C 0,-0.749 0.7797,0 1.7418,0 H 155.603 c 0.962,0 1.742,-0.749 1.742,-1.673 z"
                               style="fill:#5b6590;fill-opacity:1;fill-rule:nonzero;stroke:none"
                               id="path123026" />
                          </g>
                        </g>
                      </g>
                      <g
                         transform="translate(119.147,181.12832)"
                         id="g123040">
                        <g
                           id="g123038">
                          <g
                             id="g123036">
                            <path
                               d="M 39.403,0 H 32.048 L 0,-74.276 h 39.403 c 0.962,0 1.742,0.75 1.742,1.674 V -1.673 C 41.145,-0.75 40.365,0 39.403,0 Z"
                               style="mix-blend-mode:multiply;fill:#5b6590;fill-opacity:0.3;fill-rule:nonzero;stroke:none"
                               id="path123034" />
                          </g>
                        </g>
                      </g>
                      <g
                         transform="translate(2.9473,181.12832)"
                         id="g123048">
                        <g
                           id="g123046">
                          <g
                             id="g123044">
                            <path
                               d="M 35.5547,0 H 1.7418 C 0.7797,0 0,-0.75 0,-1.673 V -58.427 C 10.5527,-41.495 26.0476,-15.82 35.5547,0 Z"
                               style="mix-blend-mode:screen;fill:#5b6590;fill-opacity:0.3;fill-rule:nonzero;stroke:none"
                               id="path123042" />
                          </g>
                        </g>
                      </g>
                      <g
                         transform="translate(58.002,166.27069)"
                         id="g123056">
                        <g
                           id="g123054">
                          <g
                             id="g123052">
                            <path
                               d="m 26.947,-25.2474 c -0.007,-0.032 -0.019,-0.063 -0.037,-0.091 -0.014,-0.021 -0.03,-0.04 -0.048,-0.056 l -5.672,-5.271 c -0.019,-0.019 -0.041,-0.035 -0.065,-0.047 -0.03,-0.015 -0.063,-0.024 -0.095,-0.028 -0.039,-0.005 -0.077,-10e-4 -0.112,0.011 -0.036,0.01 -0.07,0.029 -0.1,0.056 -0.026,0.022 -0.047,0.05 -0.063,0.08 -0.012,0.023 -0.02,0.047 -0.025,0.072 l -1.675,7.717 c -0.003,0.011 -0.004,0.022 -0.006,0.034 -0.001,0.014 -0.002,0.029 -0.001,0.044 0.002,0.034 0.01,0.067 0.024,0.097 0.016,0.036 0.039,0.067 0.065,0.092 0.03,0.026 0.064,0.046 0.103,0.058 0.031,0.01 0.063,0.015 0.097,0.013 0.027,-0.002 0.052,-0.007 0.077,-0.015 l 7.346,-2.446 c 0.024,-0.007 0.046,-0.017 0.068,-0.031 0.028,-0.018 0.051,-0.041 0.072,-0.067 0.024,-0.033 0.039,-0.068 0.047,-0.106 0.002,-0.009 0.004,-0.019 0.005,-0.029 0.003,-0.028 0.002,-0.058 -0.005,-0.087 z m -20.4791,4.942 c -0.5543,-0.692 -1.5632,-0.803 -2.255,-0.249 -0.6911,0.554 -0.8032,1.564 -0.2493,2.255 0.5543,0.692 1.5641,0.803 2.2551,0.249 0.6922,-0.554 0.8031,-1.563 0.2492,-2.255 z m -4.8961,4.555 c -0.0968,0.88 0.5379,1.673 1.4192,1.771 0.8797,0.097 1.6726,-0.539 1.7707,-1.419 0.0973,-0.881 -0.5391,-1.674 -1.4188,-1.77 -0.88,-0.098 -1.673,0.537 -1.7711,1.418 z m 1.5301,5.264 c 0.5539,0.69103 1.5641,0.80303 2.2547,0.249 0.6922,-0.554 0.8031,-1.564 0.2492,-2.256 -0.5539,-0.691 -1.564,-0.802 -2.255,-0.248 -0.6911,0.554 -0.8032,1.563 -0.2489,2.255 z m 4.8039,2.64103 c 0.8801,0.097 1.6731,-0.538 1.77,-1.419 0.0968,-0.88003 -0.5372,-1.67303 -1.418,-1.77103 -0.8801,-0.097 -1.6738,0.538 -1.7711,1.41903 -0.0969,0.881 0.5391,1.673 1.4191,1.771 z m 3.0092,-1.779 c 0.554,0.691 1.564,0.803 2.256,0.249 0.691,-0.554 0.802,-1.56403 0.248,-2.25503 -0.554,-0.691 -1.564,-0.803 -2.255,-0.249 -0.691,0.554 -0.803,1.564 -0.249,2.25503 z m 4.895,-4.55503 c 0.097,-0.881 -0.537,-1.673 -1.418,-1.77 -0.881,-0.098 -1.674,0.537 -1.771,1.418 -0.097,0.881 0.538,1.674 1.419,1.771 0.881,0.097 1.673,-0.538 1.77,-1.419 z m 10.004,-0.061 c -0.097,0.881 0.537,1.674 1.419,1.771 0.88,0.097 1.672,-0.538 1.77,-1.419 0.044,-0.391 -0.065,-0.76 -0.267,-1.064 l -2.43,-0.268 c -0.264,0.252 -0.449,0.589 -0.492,0.98 z m -6.135,4.91503 c -0.097,0.881 0.538,1.674 1.419,1.771 0.88,0.097 1.674,-0.538 1.77,-1.419 0.098,-0.88 -0.538,-1.67303 -1.418,-1.77003 -0.881,-0.097 -1.673,0.538 -1.771,1.41803 z m 4.897,-4.55503 c -0.555,-0.691 -1.565,-0.803 -2.256,-0.248 -0.691,0.553 -0.803,1.563 -0.249,2.255 0.554,0.691 1.564,0.802 2.256,0.248 0.691,-0.554 0.803,-1.563 0.249,-2.255 z m -3.367,9.81903 c 0.554,0.691 1.563,0.803 2.255,0.25 0.692,-0.555 0.803,-1.565 0.249,-2.256 -0.555,-0.692 -1.564,-0.803 -2.255,-0.249 -0.692,0.554 -0.803,1.564 -0.249,2.255 z m 4.804,2.641 c 0.881,0.097 1.673,-0.538 1.771,-1.419 0.097,-0.88 -0.538,-1.673 -1.419,-1.77 -0.88,-0.097 -1.673,0.538 -1.771,1.418 -0.097,0.881 0.538,1.673 1.419,1.771 z m 3.87,-9.59103 c 0.555,0.691 1.565,0.803 2.256,0.248 0.692,-0.553 0.803,-1.563 0.249,-2.255 -0.554,-0.691 -1.564,-0.802 -2.255,-0.249 -0.691,0.555 -0.804,1.564 -0.25,2.256 z m -0.861,7.81203 c 0.553,0.692 1.564,0.803 2.255,0.249 0.691,-0.554 0.803,-1.564 0.249,-2.255 -0.554,-0.691 -1.564,-0.803 -2.255,-0.249 -0.691,0.554 -0.803,1.564 -0.249,2.255 z m 4.895,-4.554 c 0.098,-0.881 -0.538,-1.674 -1.418,-1.771 -0.881,-0.097 -1.674,0.538 -1.771,1.419 -0.097,0.88 0.538,1.673 1.419,1.77 0.88,0.097 1.674,-0.538 1.77,-1.418 z m 10.315,-6.22603 -1.458,-0.161 c -0.754,-0.084 -1.3,-0.763 -1.216,-1.518 l 0.216,-1.957 -2.993,-1.343 c -0.107,0.728 -0.77,1.248 -1.507,1.167 l -0.82,-0.091 -0.262,2.37 c -0.083,0.755 -0.763,1.299 -1.517,1.216 l -1.313,-0.145 c 1.552,1.773 2.391,4.159 2.112,6.68603 -0.527,4.781 -4.831,8.23 -9.611,7.702 -4.782,-0.52701 -8.23,-4.831 -7.703,-9.612 0.279,-2.52703 1.619,-4.67303 3.519,-6.06503 l -4.333,-0.478 c 0.081,0.66 0.097,1.337 0.021,2.028 -0.527,4.78103 -4.831,8.22903 -9.6123,7.70203 C 3.329,-6.96715 0.04551,-10.6908 0,-15.034 v -0.1829 c 0.00302,-0.2889 0.02039,-0.5803 0.0527,-0.8735 0.457,-4.14 3.7449,-7.275 7.7223,-7.701 l 1.3297,-12.051 c 0.0832,-0.755 0.7632,-1.299 1.5183,-1.216 l 11.171,1.233 -4.622,-5.812 c -0.4821,-0.6057 0.0791,-1.303 0.6754,-1.318 h 0.039 c 0.2111,0.0054 0.4238,0.098 0.5936,0.312 l 5.244,6.595 6.689,-5.319 c 0.833,-0.663 1.839,0.646 1.007,1.308 l -5.849,4.651 11.295,1.246 c 0.756,0.084 1.3,0.763 1.217,1.519 l -0.261,2.369 0.819,0.09 c 0.558,0.062 0.999,0.45 1.159,0.953 l 3.367,-1.01 0.121,-1.09 c 0.082,-0.755 0.763,-1.3 1.517,-1.217 l 1.458,0.161 c 0.755,0.084 1.3,0.764 1.216,1.518 l -1.729,15.674 c -0.084,0.754 -0.763,1.299 -1.518,1.216 z"
                               style="fill:#ffffff;fill-opacity:0.60001;fill-rule:nonzero;stroke:none"
                               id="path123050" />
                          </g>
                        </g>
                      </g>
                      <g
                         transform="translate(99.95086,78.00332)"
                         id="g123064">
                        <g
                           id="g123062">
                          <g
                             id="g123060">
                            <path
                               d="m 6.14114,0 -2.402,-18.027 c 0,0 -2.989,-0.776 -3.5,0.141 -0.513,0.916 -0.041,17.176 -0.041,17.176 z"
                               style="fill:#efc778;fill-opacity:1;fill-rule:nonzero;stroke:none"
                               id="path123058" />
                          </g>
                        </g>
                      </g>
                      <g
                         transform="translate(97.301,78.66732)"
                         id="g123072">
                        <g
                           id="g123070">
                          <g
                             id="g123068">
                            <path
                               d="M 8.178,0 C 8.178,0 7.461,-13.994 7.07,-15.083 6.744,-15.99 2.506,-16.149 2.209,-15.837 1.911,-15.525 0,-3.818 0,-3.818 Z"
                               style="fill:#9f4b4f;fill-opacity:1;fill-rule:nonzero;stroke:none"
                               id="path123066" />
                          </g>
                        </g>
                      </g>
                      <g
                         transform="translate(99.96692,62.97619)"
                         id="g123080">
                        <g
                           id="g123078">
                          <g
                             id="g123076">
                            <path
                               d="m 4.00108,-1.11087 c 0,0 -0.698,-1.257 -1.998,-1.282 -1.298,-0.025 -2.002,0.413 -2.002,0.413 0,0 -0.066,-3.265 0.834,-4.265 0.9,-1 5.645,0.738 7.05,2.6 1.407,1.861 -1.63,5.472 -3.884,2.534 z"
                               style="fill:#00b670;fill-opacity:1;fill-rule:nonzero;stroke:none"
                               id="path123074" />
                          </g>
                        </g>
                      </g>
                      <g
                         transform="translate(93.452,101.49932)"
                         id="g123088">
                        <g
                           id="g123086">
                          <g
                             id="g123084">
                            <path
                               d="M 0.032,-0.173 0,-1.694 3.568,-2.675 6.63,-1.339 6.5,0 Z"
                               style="fill:#efc778;fill-opacity:1;fill-rule:nonzero;stroke:none"
                               id="path123082" />
                          </g>
                        </g>
                      </g>
                      <g
                         transform="translate(87.65,75.50732)"
                         id="g123096">
                        <g
                           id="g123094">
                          <g
                             id="g123092">
                            <path
                               d="m 0,0 4.523,-17.614 c 0,0 3.059,-0.416 3.459,0.555 C 8.38,-16.088 5.986,0 5.986,0 Z"
                               style="fill:#efc778;fill-opacity:1;fill-rule:nonzero;stroke:none"
                               id="path123090" />
                          </g>
                        </g>
                      </g>
                      <g
                         transform="translate(88.181,76.24032)"
                         id="g123104">
                        <g
                           id="g123102">
                          <g
                             id="g123100">
                            <path
                               d="m 0,0 c 0,0 2.37,-13.809 2.888,-14.844 0.43,-0.863 4.656,-0.518 4.916,-0.174 0.259,0.347 0.776,12.592 0.776,12.592 z"
                               style="fill:#9f4b4f;fill-opacity:1;fill-rule:nonzero;stroke:none"
                               id="path123098" />
                          </g>
                        </g>
                      </g>
                      <g
                         transform="translate(64.64151,62.48496)"
                         id="g123112">
                        <g
                           id="g123110">
                          <g
                             id="g123108">
                            <path
                               d="m 2.92689,-0.56965 c 0,0 2.9496,0.832 4.2116,0.485 1.265,-0.346 1.131,-2.635 -1.462,-3.745 -2.5945,-1.109 -4.4324,-1.156 -5.0106,-0.485 -0.5757,0.671 -1.9058,3.469 2.261,3.745 z"
                               style="fill:#b81965;fill-opacity:1;fill-rule:nonzero;stroke:none"
                               id="path123106" />
                          </g>
                        </g>
                      </g>
                      <g
                         transform="translate(65.0856,77.72732)"
                         id="g123120">
                        <g
                           id="g123118">
                          <g
                             id="g123116">
                            <path
                               d="m 8.0254,0 -4.522,-17.614 c 0,0 -3.0597,-0.417 -3.4585,0.554 C -0.3543,-16.089 2.0398,0 2.0398,0 Z"
                               style="fill:#efc778;fill-opacity:1;fill-rule:nonzero;stroke:none"
                               id="path123114" />
                          </g>
                        </g>
                      </g>
                      <g
                         transform="translate(65.12412,62.02225)"
                         id="g123128">
                        <g
                           id="g123126">
                          <g
                             id="g123124">
                            <path
                               d="m 3.15388,-0.10693 c 0,0 1.286,0.509 1.818,-0.694 0.169,-0.382 -1.024,-1.375 -2.1729,-1.732 -3.0743,-0.958 -2.7922,1.178 -2.7922,1.178 z"
                               style="fill:#efc778;fill-opacity:1;fill-rule:nonzero;stroke:none"
                               id="path123122" />
                          </g>
                        </g>
                      </g>
                      <g
                         transform="translate(53.27531,60.26632)"
                         id="g123136">
                        <g
                           id="g123134">
                          <g
                             id="g123132">
                            <path
                               d="m 4.98999,-0.57 c 0,0 -2.9481,0.833 -4.2122,0.485 -1.2636,-0.345 -1.1296,-2.634 1.4633,-3.745 2.5938,-1.108 4.2981,-0.996 5.0098,-0.484 0.8121,0.581 1.9062,3.468 -2.2609,3.744 z"
                               style="fill:#b81965;fill-opacity:1;fill-rule:nonzero;stroke:none"
                               id="path123130" />
                          </g>
                        </g>
                      </g>
                      <g
                         transform="translate(52.7235,75.50732)"
                         id="g123144">
                        <g
                           id="g123142">
                          <g
                             id="g123140">
                            <path
                               d="m 0,0 4.5218,-17.614 c 0,0 3.0602,-0.416 3.4578,0.555 C 8.3796,-16.088 5.9847,0 5.9847,0 Z"
                               style="fill:#efc778;fill-opacity:1;fill-rule:nonzero;stroke:none"
                               id="path123138" />
                          </g>
                        </g>
                      </g>
                      <g
                         transform="translate(113.372,64.04532)"
                         id="g123152">
                        <g
                           id="g123150">
                          <g
                             id="g123148">
                            <path
                               d="M 8.403,-8.404 1.096,0 0,-2.009 8.037,-11.875 Z"
                               style="fill:#ff8139;fill-opacity:1;fill-rule:nonzero;stroke:none"
                               id="path123146" />
                          </g>
                        </g>
                      </g>
                      <g
                         transform="translate(111.91,76.28632)"
                         id="g123160">
                        <g
                           id="g123158">
                          <g
                             id="g123156">
                            <path
                               d="M 0,-20.278 H 2.923 V 0 H 0 Z"
                               style="fill:#ff8139;fill-opacity:1;fill-rule:nonzero;stroke:none"
                               id="path123154" />
                          </g>
                        </g>
                      </g>
                      <g
                         transform="translate(120.314,66.23732)"
                         id="g123168">
                        <g
                           id="g123166">
                          <g
                             id="g123164">
                            <path
                               d="M 0,-20.279 H 2.923 V 0 H 0 Z"
                               style="fill:#ff8139;fill-opacity:1;fill-rule:nonzero;stroke:none"
                               id="path123162" />
                          </g>
                        </g>
                      </g>
                      <g
                         transform="translate(41.3899,64.04532)"
                         id="g123176">
                        <g
                           id="g123174">
                          <g
                             id="g123172">
                            <path
                               d="M 0,-8.404 7.3078,0 8.4039,-2.009 0.3648,-11.875 Z"
                               style="fill:#ff8139;fill-opacity:1;fill-rule:nonzero;stroke:none"
                               id="path123170" />
                          </g>
                        </g>
                      </g>
                      <g
                         transform="translate(48.332,76.28632)"
                         id="g123184">
                        <g
                           id="g123182">
                          <g
                             id="g123180">
                            <path
                               d="M 0,-20.278 H 2.9231 V 0 H 0 Z"
                               style="fill:#ff8139;fill-opacity:1;fill-rule:nonzero;stroke:none"
                               id="path123178" />
                          </g>
                        </g>
                      </g>
                      <g
                         transform="translate(39.9278,70.43932)"
                         id="g123192">
                        <g
                           id="g123190">
                          <g
                             id="g123188">
                            <path
                               d="m 0,-3.652 v -2.65 h 83.3102 v 2.65 L 40.8332,0 Z"
                               style="fill:#ff8139;fill-opacity:1;fill-rule:nonzero;stroke:none"
                               id="path123186" />
                          </g>
                        </g>
                      </g>
                      <g
                         transform="translate(39.9278,76.28532)"
                         id="g123200">
                        <g
                           id="g123198">
                          <g
                             id="g123196">
                            <path
                               d="M 0,-9.498 8.3019,0 h 67.5643 l 7.444,-9.498 z"
                               style="fill:#ffb031;fill-opacity:1;fill-rule:nonzero;stroke:none"
                               id="path123194" />
                          </g>
                        </g>
                      </g>
                      <g
                         transform="translate(48.5723,74.13932)"
                         id="g123208">
                        <g
                           id="g123206">
                          <g
                             id="g123204">
                            <path
                               d="M 65.8837,-0.549 65.4837,0 H 0.4 L 0,-0.549 Z"
                               style="fill:#ff683b;fill-opacity:1;fill-rule:nonzero;stroke:none"
                               id="path123202" />
                          </g>
                        </g>
                      </g>
                      <g
                         transform="translate(46.0625,70.57732)"
                         id="g123216">
                        <g
                           id="g123214">
                          <g
                             id="g123212">
                            <path
                               d="M 70.4455,-0.549 70.0185,0 H 0.427 L 0,-0.549 Z"
                               style="fill:#ff683b;fill-opacity:1;fill-rule:nonzero;stroke:none"
                               id="path123210" />
                          </g>
                        </g>
                      </g>
                      <g
                         transform="translate(39.9289,66.23732)"
                         id="g123224">
                        <g
                           id="g123222">
                          <g
                             id="g123220">
                            <path
                               d="M 0,-20.279 H 2.923 V 0 H 0 Z"
                               style="fill:#ff8139;fill-opacity:1;fill-rule:nonzero;stroke:none"
                               id="path123218" />
                          </g>
                        </g>
                      </g>
                      <g
                         transform="translate(54.16968,101.47852)"
                         id="g123232">
                        <g
                           id="g123230">
                          <g
                             id="g123228">
                            <path
                               d="m 2.58192,-0.3982 c 0,0 -3.0149,-16.622 -2.5289,-22.161 0.4871,-5.541 17.99128,-5.425 19.06128,-0.578 1.07,4.848 -3.987,21.585 -4.182,22.048 -0.195,0.46 -10.60038,1.73 -12.35038,0.691 z"
                               style="fill:#fd155d;fill-opacity:1;fill-rule:nonzero;stroke:none"
                               id="path123226" />
                          </g>
                        </g>
                      </g>
                      <g
                         transform="translate(53.20338,80.73787)"
                         id="g123240">
                        <g
                           id="g123238">
                          <g
                             id="g123236">
                            <path
                               d="m 0.05012,-4.49756 c 0,0 -0.3129,3.886 0.625,4.438 0.9391,0.557 2.3239,-2.973 9.69688,-3.106 6.7906,-0.121 8.4466,2.109 9.6976,2.663 1.25,0.555 1.354,-4.104 1.354,-4.104 0,0 -1.193,-5.70704 -11.2246,-5.66004 -5.14108,0.023 -9.31488,2.36804 -10.14888,5.76904 z"
                               style="fill:#b81965;fill-opacity:1;fill-rule:nonzero;stroke:none"
                               id="path123234" />
                          </g>
                        </g>
                      </g>
                      <g
                         transform="translate(55.91899,109.34529)"
                         id="g123248">
                        <g
                           id="g123246">
                          <g
                             id="g123244">
                            <path
                               d="m 1.47951,-1.85497 c 0,0 0.139,1.941 -0.627,1.852 -0.7648,-0.089 -1.3777,-4.221 -0.1707,-4.157 0.5988,0.032 0.7977,2.305 0.7977,2.305 z"
                               style="fill:#efc778;fill-opacity:1;fill-rule:nonzero;stroke:none"
                               id="path123242" />
                          </g>
                        </g>
                      </g>
                      <g
                         transform="translate(71.03307,107.12468)"
                         id="g123256">
                        <g
                           id="g123254">
                          <g
                             id="g123252">
                            <path
                               d="m 0.20493,-1.61336 c 0,0 0.455,1.893 1.159,1.578 0.702,-0.313 0.035,-4.437 -1.097,-4.016 -0.562,0.21 -0.062,2.438 -0.062,2.438 z"
                               style="fill:#efc778;fill-opacity:1;fill-rule:nonzero;stroke:none"
                               id="path123250" />
                          </g>
                        </g>
                      </g>
                      <g
                         transform="translate(48.1793,78.01342)"
                         id="g123264">
                        <g
                           id="g123262">
                          <g
                             id="g123260">
                            <path
                               d="m 0,-1.9191 c 0,0 0.1692,1.72 1.5641,1.885 1.3937,0.168 3.9058,-0.294 3.7179,-1.183 -0.225,-1.072 -1.0421,-1.222 -2.189,-1.184 -1.4512,0.047 -2.016,0.482 -2.016,0.482 z"
                               style="fill:#efc778;fill-opacity:1;fill-rule:nonzero;stroke:none"
                               id="path123258" />
                          </g>
                        </g>
                      </g>
                      <g
                         transform="translate(49.7438,90.96232)"
                         id="g123272">
                        <g
                           id="g123270">
                          <g
                             id="g123268">
                            <path
                               d="m 2.189,-0.222 c 0,-0.223 -0.4172,-6.287 -0.4172,-6.287 L 0,-12.984 3.7179,-14.165 c 0,0 1.3211,6.99 1.3899,7.433 C 5.1781,-6.288 5.3871,0 5.3871,0 Z"
                               style="fill:#efc778;fill-opacity:1;fill-rule:nonzero;stroke:none"
                               id="path123266" />
                          </g>
                        </g>
                      </g>
                      <g
                         transform="translate(51.168,97.10377)"
                         id="g123280">
                        <g
                           id="g123278">
                          <g
                             id="g123276">
                            <path
                               d="m 5.1441,-0.00145 c 0,0 -3.198,0.147 -4.032,-2.516 C 0.2781,-5.18045 0,-9.10145 0,-9.10145 c 0,0 2.3633,-1.62705 4.7961,-0.813 0.566,0.189 0.348,9.913 0.348,9.913 z"
                               style="fill:#fd155d;fill-opacity:1;fill-rule:nonzero;stroke:none"
                               id="path123274" />
                          </g>
                        </g>
                      </g>
                      <g
                         transform="translate(73.99911,78.01342)"
                         id="g123288">
                        <g
                           id="g123286">
                          <g
                             id="g123284">
                            <path
                               d="m 5.29389,-1.9191 c 0,0 -0.17,1.72 -1.564,1.885 -1.397,0.168 -3.907,-0.294 -3.72,-1.183 0.225,-1.072 1.043,-1.222 2.189,-1.184 1.453,0.047 2.016,0.482 2.016,0.482 z"
                               style="fill:#efc778;fill-opacity:1;fill-rule:nonzero;stroke:none"
                               id="path123282" />
                          </g>
                        </g>
                      </g>
                      <g
                         transform="translate(72.34,90.96232)"
                         id="g123296">
                        <g
                           id="g123294">
                          <g
                             id="g123292">
                            <path
                               d="m 3.198,-0.222 c 0,-0.223 0.417,-6.287 0.417,-6.287 l 1.773,-6.475 -3.719,-1.181 c 0,0 -1.321,6.99 -1.39,7.433 C 0.209,-6.288 0,0 0,0 Z"
                               style="fill:#efc778;fill-opacity:1;fill-rule:nonzero;stroke:none"
                               id="path123290" />
                          </g>
                        </g>
                      </g>
                      <g
                         transform="translate(71.1174,97.10377)"
                         id="g123304">
                        <g
                           id="g123302">
                          <g
                             id="g123300">
                            <path
                               d="m 0.0416,-0.00145 c 0,0 3.197,0.147 4.031,-2.516 0.834,-2.663 1.113,-6.584 1.113,-6.584 0,0 -2.364,-1.62705 -4.796,-0.813 -0.567,0.189 -0.348,9.913 -0.348,9.913 z"
                               style="fill:#fd155d;fill-opacity:1;fill-rule:nonzero;stroke:none"
                               id="path123298" />
                          </g>
                        </g>
                      </g>
                      <g
                         transform="translate(54.65335,116.47016)"
                         id="g123312">
                        <g
                           id="g123310">
                          <g
                             id="g123308">
                            <path
                               d="m 6.53845,-0.98784 c 0,0 -3.1066,-1.143 -3.9316,-6.086 -0.825,-4.94396 -3.2891,-11.48496 -2.4262,-14.90196 0.9879,-3.909 4.1172,-5.57 7.218,-6.154 3.48405,-0.657 7.51505,0.58 9.44205,3.373 1.929,2.793 0.618,5.039 0.439,8.349 -0.179,3.307 0.212,11.43796 -1.915,13.92396 -1.9328,2.258 -5.75005,3.457 -8.82625,1.496 z"
                               style="fill:#5e4940;fill-opacity:1;fill-rule:nonzero;stroke:none"
                               id="path123306" />
                          </g>
                        </g>
                      </g>
                      <g
                         transform="translate(55.72205,59.80379)"
                         id="g123320">
                        <g
                           id="g123318">
                          <g
                             id="g123316">
                            <path
                               d="m 1.83425,-0.10747 c 0,0 -1.286,0.51 -1.818,-0.692 -0.1691,-0.384 1.0109,-1.423 2.1719,-1.735 2.9492,-0.79 2.7929,1.18 2.7929,1.18 z"
                               style="fill:#efc778;fill-opacity:1;fill-rule:nonzero;stroke:none"
                               id="path123314" />
                          </g>
                        </g>
                      </g>
                      <g
                         transform="translate(89.07219,99.09112)"
                         id="g123328">
                        <g
                           id="g123326">
                          <g
                             id="g123324">
                            <path
                               d="m 1.53381,-1.6788 c 0,0 -1.941,-12.954 -1.456,-18.493 0.486,-5.541 16.63099,-6.33 17.70199,-1.484 1.069,4.85 -2.804,19.814 -3.019,20.268 -1.165,2.457 -12.25799,1.196 -13.22699,-0.291 z"
                               style="fill:#00b670;fill-opacity:1;fill-rule:nonzero;stroke:none"
                               id="path123322" />
                          </g>
                        </g>
                      </g>
                      <g
                         transform="translate(88.13086,80.73787)"
                         id="g123336">
                        <g
                           id="g123334">
                          <g
                             id="g123332">
                            <path
                               d="m 0.05014,-4.49756 c 0,0 -0.313,3.886 0.625,4.438 0.938,0.557 2.324,-2.973 9.69696,-3.106 6.791,-0.121 7.744,1.934 8.348,2.106 1.317,0.375 0.863,-4.486 0.863,-4.486 0,0 -0.69,-4.74104 -9.384,-4.72104 -5.14096,0.012 -9.31496,2.36804 -10.14896,5.76904 z"
                               style="fill:#9f4b4f;fill-opacity:1;fill-rule:nonzero;stroke:none"
                               id="path123330" />
                          </g>
                        </g>
                      </g>
                      <g
                         transform="translate(88.58755,107.8704)"
                         id="g123344">
                        <g
                           id="g123342">
                          <g
                             id="g123340">
                            <path
                               d="m 1.63445,-1.46709 c 0,0 -0.671,1.82801 -1.401,1.403 -0.73,-0.421 0.38,-4.45 1.564,-3.853 0.587,0.294 -0.163,2.45 -0.163,2.45 z"
                               style="fill:#efc778;fill-opacity:1;fill-rule:nonzero;stroke:none"
                               id="path123338" />
                          </g>
                        </g>
                      </g>
                      <g
                         transform="translate(102.32073,109.05755)"
                         id="g123352">
                        <g
                           id="g123350">
                          <g
                             id="g123348">
                            <path
                               d="m 0.07527,-1.69823 c 0,0 0.283,1.925 1.011,1.676 0.87,-0.298 0.566,-4.451 -0.728,-4.099 -0.578,0.158 -0.283,2.423 -0.283,2.423 z"
                               style="fill:#efc778;fill-opacity:1;fill-rule:nonzero;stroke:none"
                               id="path123346" />
                          </g>
                        </g>
                      </g>
                      <g
                         transform="translate(83.107,78.01342)"
                         id="g123360">
                        <g
                           id="g123358">
                          <g
                             id="g123356">
                            <path
                               d="m 0,-1.9191 c 0,0 0.168,1.72 1.564,1.885 1.393,0.168 3.906,-0.294 3.718,-1.183 -0.225,-1.072 -1.042,-1.222 -2.189,-1.184 -1.452,0.047 -2.015,0.482 -2.015,0.482 z"
                               style="fill:#efc778;fill-opacity:1;fill-rule:nonzero;stroke:none"
                               id="path123354" />
                          </g>
                        </g>
                      </g>
                      <g
                         transform="translate(84.67,90.96232)"
                         id="g123368">
                        <g
                           id="g123366">
                          <g
                             id="g123364">
                            <path
                               d="m 2.191,-0.222 c 0,-0.223 -0.418,-6.287 -0.418,-6.287 L 0,-12.984 3.719,-14.165 c 0,0 1.322,6.99 1.391,7.433 C 5.178,-6.288 5.389,0 5.389,0 Z"
                               style="fill:#efc778;fill-opacity:1;fill-rule:nonzero;stroke:none"
                               id="path123362" />
                          </g>
                        </g>
                      </g>
                      <g
                         transform="translate(86.095,98.31832)"
                         id="g123376">
                        <g
                           id="g123374">
                          <g
                             id="g123372">
                            <path
                               d="M 6.386,0 C 6.386,0 2.359,-0.885 1.524,-3.548 0.691,-6.21 0,-10.315 0,-10.315 c 0,0 2.364,-1.627 4.796,-0.814 C 5.364,-10.939 6.386,0 6.386,0 Z"
                               style="fill:#00b670;fill-opacity:1;fill-rule:nonzero;stroke:none"
                               id="path123370" />
                          </g>
                        </g>
                      </g>
                      <g
                         transform="translate(107.51111,78.01342)"
                         id="g123384">
                        <g
                           id="g123382">
                          <g
                             id="g123380">
                            <path
                               d="m 5.29289,-1.9191 c 0,0 -0.169,1.72 -1.564,1.885 -1.395,0.168 -3.906,-0.294 -3.719,-1.183 0.225,-1.072 1.042,-1.222 2.189,-1.184 1.451,0.047 2.017,0.482 2.017,0.482 z"
                               style="fill:#efc778;fill-opacity:1;fill-rule:nonzero;stroke:none"
                               id="path123378" />
                          </g>
                        </g>
                      </g>
                      <g
                         transform="translate(104.695,91.06232)"
                         id="g123392">
                        <g
                           id="g123390">
                          <g
                             id="g123388">
                            <path
                               d="m 4.354,-0.322 c 0,-0.223 0.419,-6.287 0.419,-6.287 l 1.771,-6.475 -3.719,-1.181 c 0,0 -1.321,6.99 -1.39,7.433 C 1.366,-6.388 0,0 0,0 Z"
                               style="fill:#efc778;fill-opacity:1;fill-rule:nonzero;stroke:none"
                               id="path123386" />
                          </g>
                        </g>
                      </g>
                      <g
                         transform="translate(102.539,98.47932)"
                         id="g123400">
                        <g
                           id="g123398">
                          <g
                             id="g123396">
                            <path
                               d="m 0,0 c 0,0 4.026,-0.475 5.175,-3.018 1.207,-2.673 2.1,-7.459 2.1,-7.459 0,0 -2.363,-1.627 -4.796,-0.813 C 1.912,-11.101 0,0 0,0 Z"
                               style="fill:#00b670;fill-opacity:1;fill-rule:nonzero;stroke:none"
                               id="path123394" />
                          </g>
                        </g>
                      </g>
                      <g
                         transform="translate(92.481,100.16132)"
                         id="g123408">
                        <g
                           id="g123406">
                          <g
                             id="g123404">
                            <path
                               d="m 0,-1.843 0.971,1.487 c 0,0 4.042,-0.119 6.63,0.356 l 1.713,-1.359 c 0,0 -2.522,-0.646 -5.109,-0.711 C 1.617,-2.135 0,-1.843 0,-1.843 Z"
                               style="fill:#009772;fill-opacity:1;fill-rule:nonzero;stroke:none"
                               id="path123402" />
                          </g>
                        </g>
                      </g>
                      <g
                         transform="translate(88.93353,116.52946)"
                         id="g123416">
                        <g
                           id="g123414">
                          <g
                             id="g123412">
                            <path
                               d="m 7.83847,-15.8711 c 0,0 -4.402,-0.302 -5.808,1.718 -1.405,2.018 -2.62,8.38396 -1.723,10.17696 0.897,1.794 2.916,1.387 2.916,1.387 0,0 0.513,2.456 4.075,2.582 3.56303,0.127 6.22303,-1.433 6.45303,-5.253 0.197,-3.282 1.802,-9.62196 -5.91303,-10.61096 z"
                               style="fill:#5e4940;fill-opacity:1;fill-rule:nonzero;stroke:none"
                               id="path123410" />
                          </g>
                        </g>
                      </g>
                      <g
                         transform="translate(87.61384,60.62772)"
                         id="g123424">
                        <g
                           id="g123422">
                          <g
                             id="g123420">
                            <path
                               d="m 4.05916,-0.8914 c 0,0 0.841,-1.164 2.134,-1.035 1.293,0.129 1.941,0.646 1.941,0.646 0,0 0.452,-3.233 -0.323,-4.333 -0.777,-1.099 -5.693,0.065 -7.309,1.746 -1.618,1.682 0.97,5.627 3.557,2.976 z"
                               style="fill:#00b670;fill-opacity:1;fill-rule:nonzero;stroke:none"
                               id="path123418" />
                          </g>
                        </g>
                      </g>
                    </g>
                  </g>
                </g>
              </g>
            </g>
          </g>
        </g>
      </g>
    </g>
  </g>
</svg>
