<?xml version="1.0" encoding="UTF-8" standalone="no"?>
<!-- Created with Inkscape (http://www.inkscape.org/) -->

<svg
   version="1.1"
   id="svg18"
   width="300"
   height="150"
   viewBox="0 0 300.00002 150"
   sodipodi:docname="1425_word.svg"
   inkscape:version="1.2.1 (9c6d41e410, 2022-07-14)"
   xmlns:inkscape="http://www.inkscape.org/namespaces/inkscape"
   xmlns:sodipodi="http://sodipodi.sourceforge.net/DTD/sodipodi-0.dtd"
   xmlns="http://www.w3.org/2000/svg"
   xmlns:svg="http://www.w3.org/2000/svg">
  <sodipodi:namedview
     id="namedview37"
     pagecolor="#ffffff"
     bordercolor="#000000"
     borderopacity="0.25"
     inkscape:showpageshadow="2"
     inkscape:pageopacity="0.0"
     inkscape:pagecheckerboard="0"
     inkscape:deskcolor="#d1d1d1"
     showgrid="false"
     inkscape:zoom="4.0941839"
     inkscape:cx="104.17216"
     inkscape:cy="106.24828"
     inkscape:window-width="1700"
     inkscape:window-height="1396"
     inkscape:window-x="8"
     inkscape:window-y="28"
     inkscape:window-maximized="1"
     inkscape:current-layer="svg18" />
  <defs
     id="defs22">
    <clipPath
       clipPathUnits="userSpaceOnUse"
       id="clipPath2796">
      <path
         d="M 0,340.157 H 226.772 V 0 H 0 Z"
         id="path2794" />
    </clipPath>
    <clipPath
       clipPathUnits="userSpaceOnUse"
       id="clipPath2804">
      <path
         d="M 246.772,340.157 H 473.544 V 0 H 246.772 Z"
         id="path2802" />
    </clipPath>
    <clipPath
       clipPathUnits="userSpaceOnUse"
       id="clipPath2812">
      <path
         d="M 246.772,0 H 473.544 V 340.157 H 246.772 Z"
         id="path2810" />
    </clipPath>
    <clipPath
       clipPathUnits="userSpaceOnUse"
       id="clipPath2820">
      <path
         d="M 246.772,340.157 H 473.544 V 0 H 246.772 Z"
         id="path2818" />
    </clipPath>
    <clipPath
       clipPathUnits="userSpaceOnUse"
       id="clipPath2828">
      <path
         d="m 438.313,-190.079 c 0,-43.163 -34.991,-78.155 -78.155,-78.155 -43.164,0 -78.155,34.992 -78.155,78.155 0,43.164 34.991,78.155 78.155,78.155 43.164,0 78.155,-34.991 78.155,-78.155"
         id="path2826" />
    </clipPath>
    <clipPath
       clipPathUnits="userSpaceOnUse"
       id="clipPath702936">
      <path
         d="M 0,340.157 H 226.772 V 0 H 0 Z"
         id="path702934" />
    </clipPath>
    <clipPath
       clipPathUnits="userSpaceOnUse"
       id="clipPath703010">
      <path
         d="M 0,340.157 H 226.772 V 0 H 0 Z"
         id="path703008" />
    </clipPath>
    <clipPath
       clipPathUnits="userSpaceOnUse"
       id="clipPath703120">
      <path
         d="M 0,-20 H 226.772 V -360.157 H 0 Z"
         id="path703118" />
    </clipPath>
    <clipPath
       clipPathUnits="userSpaceOnUse"
       id="clipPath703128">
      <path
         d="M 0,-360.157 H 226.772 V -20 H 0 Z"
         id="path703126" />
    </clipPath>
    <clipPath
       clipPathUnits="userSpaceOnUse"
       id="clipPath703136">
      <path
         d="M 0,-20 H 226.772 V -360.157 H 0 Z"
         id="path703134" />
    </clipPath>
    <clipPath
       clipPathUnits="userSpaceOnUse"
       id="clipPath703144">
      <path
         d="m 438.313,-190.078 c 0,-43.164 -34.992,-78.155 -78.156,-78.155 -43.163,0 -78.154,34.991 -78.154,78.155 0,43.164 34.991,78.155 78.154,78.155 43.164,0 78.156,-34.991 78.156,-78.155"
         id="path703142" />
    </clipPath>
    <clipPath
       clipPathUnits="userSpaceOnUse"
       id="clipPath703160">
      <path
         d="M 246.772,-20 H 473.544 V -360.157 H 246.772 Z"
         id="path703158" />
    </clipPath>
    <clipPath
       clipPathUnits="userSpaceOnUse"
       id="clipPath703168">
      <path
         d="M 246.772,-360.157 H 473.544 V -20 H 246.772 Z"
         id="path703166" />
    </clipPath>
    <clipPath
       clipPathUnits="userSpaceOnUse"
       id="clipPath703176">
      <path
         d="m 282.002,-190.079 c 0,-43.163 34.993,-78.154 78.156,-78.154 43.164,0 78.155,34.991 78.155,78.154 0,43.164 -34.991,78.156 -78.155,78.156 -43.163,0 -78.156,-34.992 -78.156,-78.156"
         id="path703174" />
    </clipPath>
    <clipPath
       clipPathUnits="userSpaceOnUse"
       id="clipPath720772">
      <g
         id="g720776"
         transform="matrix(0.75000002,0,0,-0.75000002,-117.18415,74.879174)">
        <path
           d="M -45.430862,-131.30857 H 256.9318 V 322.23409 H -45.430862 Z"
           id="path720774"
           style="stroke-width:1.33333" />
      </g>
    </clipPath>
    <clipPath
       clipPathUnits="userSpaceOnUse"
       id="clipPath720778">
      <g
         id="g720782"
         transform="matrix(0.75000002,0,0,-0.75000002,-78.789654,69.358173)">
        <path
           d="M -45.430862,-131.30857 H 256.9318 V 322.23409 H -45.430862 Z"
           id="path720780"
           style="stroke-width:1.33333" />
      </g>
    </clipPath>
    <clipPath
       clipPathUnits="userSpaceOnUse"
       id="clipPath720784">
      <g
         id="g720788"
         transform="matrix(0.75000002,0,0,-0.75000002,34.073147,241.67557)">
        <path
           d="M -45.430862,-131.30857 H 256.9318 V 322.23409 H -45.430862 Z"
           id="path720786"
           style="stroke-width:1.33333" />
      </g>
    </clipPath>
    <clipPath
       clipPathUnits="userSpaceOnUse"
       id="clipPath703262">
      <path
         d="M -246.772,-20 H -20 v -340.157 h -226.772 z"
         id="path703260" />
    </clipPath>
    <clipPath
       clipPathUnits="userSpaceOnUse"
       id="clipPath703270">
      <path
         d="M -246.772,-360.157 H -20 V -20 h -226.772 z"
         id="path703268" />
    </clipPath>
    <clipPath
       clipPathUnits="userSpaceOnUse"
       id="clipPath703278">
      <path
         d="M -246.772,-20 H -20 v -340.157 h -226.772 z"
         id="path703276" />
    </clipPath>
    <clipPath
       clipPathUnits="userSpaceOnUse"
       id="clipPath703286">
      <path
         d="m 191.541,-190.078 c 0,-43.164 -34.992,-78.155 -78.156,-78.155 -43.163,0 -78.154,34.991 -78.154,78.155 0,43.164 34.991,78.155 78.154,78.155 43.164,0 78.156,-34.991 78.156,-78.155"
         id="path703284" />
    </clipPath>
    <clipPath
       clipPathUnits="userSpaceOnUse"
       id="clipPath703298">
      <path
         d="M 0,-20 H 226.772 V -360.157 H 0 Z"
         id="path703296" />
    </clipPath>
    <clipPath
       clipPathUnits="userSpaceOnUse"
       id="clipPath703306">
      <path
         d="M 0,-360.157 H 226.772 V -20 H 0 Z"
         id="path703304" />
    </clipPath>
    <clipPath
       clipPathUnits="userSpaceOnUse"
       id="clipPath703314">
      <path
         d="m 35.23,-190.079 c 0,-43.163 34.993,-78.154 78.156,-78.154 43.164,0 78.155,34.991 78.155,78.154 0,43.164 -34.991,78.156 -78.155,78.156 -43.163,0 -78.156,-34.992 -78.156,-78.156"
         id="path703312" />
    </clipPath>
    <clipPath
       clipPathUnits="userSpaceOnUse"
       id="clipPath721254">
      <g
         id="g721258"
         transform="matrix(0.75000002,0,0,-0.75000002,-143.46681,15.486327)">
        <path
           d="M 8.3138826,-226.73543 H 310.67654 V 226.80723 H 8.3138826 Z"
           id="path721256"
           style="stroke-width:1.33333" />
      </g>
    </clipPath>
    <clipPath
       clipPathUnits="userSpaceOnUse"
       id="clipPath721260">
      <g
         id="g721264"
         transform="matrix(0.75000002,0,0,-0.75000002,-150.19041,29.105427)">
        <path
           d="M 8.3138826,-226.73543 H 310.67654 V 226.80723 H 8.3138826 Z"
           id="path721262"
           style="stroke-width:1.33333" />
      </g>
    </clipPath>
    <clipPath
       clipPathUnits="userSpaceOnUse"
       id="clipPath721266">
      <g
         id="g721270"
         transform="matrix(0.75000002,0,0,-0.75000002,-6.2354121,170.10543)">
        <path
           d="M 8.3138826,-226.73543 H 310.67654 V 226.80723 H 8.3138826 Z"
           id="path721268"
           style="stroke-width:1.33333" />
      </g>
    </clipPath>
    <clipPath
       clipPathUnits="userSpaceOnUse"
       id="clipPath703432">
      <path
         d="M 0,340.157 H 226.772 V 0 H 0 Z"
         id="path703430" />
    </clipPath>
    <clipPath
       clipPathUnits="userSpaceOnUse"
       id="clipPath703542">
      <path
         d="M 0,340.157 H 226.772 V 0 H 0 Z"
         id="path703540" />
    </clipPath>
    <clipPath
       clipPathUnits="userSpaceOnUse"
       id="clipPath713424">
      <path
         d="M 0,340.157 H 226.772 V 0 H 0 Z"
         id="path713422" />
    </clipPath>
    <clipPath
       clipPathUnits="userSpaceOnUse"
       id="clipPath713526">
      <path
         d="M 0,340.157 H 226.772 V 0 H 0 Z"
         id="path713524" />
    </clipPath>
    <clipPath
       clipPathUnits="userSpaceOnUse"
       id="clipPath713616">
      <path
         d="M 0,340.157 H 226.772 V 0 H 0 Z"
         id="path713614" />
    </clipPath>
    <clipPath
       clipPathUnits="userSpaceOnUse"
       id="clipPath713690">
      <path
         d="M 0,340.157 H 226.772 V 0 H 0 Z"
         id="path713688" />
    </clipPath>
    <clipPath
       clipPathUnits="userSpaceOnUse"
       id="clipPath713764">
      <path
         d="M 0,340.157 H 226.772 V 0 H 0 Z"
         id="path713762" />
    </clipPath>
    <clipPath
       clipPathUnits="userSpaceOnUse"
       id="clipPath713874">
      <path
         d="M 0,340.157 H 226.772 V 0 H 0 Z"
         id="path713872" />
    </clipPath>
    <clipPath
       clipPathUnits="userSpaceOnUse"
       id="clipPath713874-3">
      <path
         d="M 0,340.157 H 226.772 V 0 H 0 Z"
         id="path713872-6" />
    </clipPath>
    <clipPath
       clipPathUnits="userSpaceOnUse"
       id="clipPath718030">
      <path
         d="M 0,340.157 H 226.772 V 0 H 0 Z"
         id="path718028" />
    </clipPath>
    <clipPath
       clipPathUnits="userSpaceOnUse"
       id="clipPath718104">
      <path
         d="M 0,340.157 H 226.772 V 0 H 0 Z"
         id="path718102" />
    </clipPath>
    <clipPath
       clipPathUnits="userSpaceOnUse"
       id="clipPath718178">
      <path
         d="M 0,340.157 H 226.772 V 0 H 0 Z"
         id="path718176" />
    </clipPath>
    <clipPath
       clipPathUnits="userSpaceOnUse"
       id="clipPath718296">
      <path
         d="M 0,340.157 H 226.772 V 0 H 0 Z"
         id="path718294" />
    </clipPath>
    <clipPath
       clipPathUnits="userSpaceOnUse"
       id="clipPath718398">
      <path
         d="M 0,340.157 H 226.772 V 0 H 0 Z"
         id="path718396" />
    </clipPath>
    <clipPath
       clipPathUnits="userSpaceOnUse"
       id="clipPath718484">
      <path
         d="M 0,340.157 H 226.772 V 0 H 0 Z"
         id="path718482" />
    </clipPath>
    <clipPath
       clipPathUnits="userSpaceOnUse"
       id="clipPath718558">
      <path
         d="M 0,340.157 H 226.772 V 0 H 0 Z"
         id="path718556" />
    </clipPath>
    <clipPath
       clipPathUnits="userSpaceOnUse"
       id="clipPath745984">
      <path
         d="M 0,340.157 H 226.772 V 0 H 0 Z"
         id="path745982" />
    </clipPath>
    <clipPath
       clipPathUnits="userSpaceOnUse"
       id="clipPath746070">
      <path
         d="M 0,340.157 H 226.772 V 0 H 0 Z"
         id="path746068" />
    </clipPath>
    <clipPath
       clipPathUnits="userSpaceOnUse"
       id="clipPath746144">
      <path
         d="M 0,340.157 H 226.772 V 0 H 0 Z"
         id="path746142" />
    </clipPath>
    <clipPath
       clipPathUnits="userSpaceOnUse"
       id="clipPath746274">
      <path
         d="M 0,340.157 H 226.772 V 0 H 0 Z"
         id="path746272" />
    </clipPath>
    <clipPath
       clipPathUnits="userSpaceOnUse"
       id="clipPath746400">
      <path
         d="M 0,340.157 H 226.772 V 0 H 0 Z"
         id="path746398" />
    </clipPath>
    <clipPath
       clipPathUnits="userSpaceOnUse"
       id="clipPath746502">
      <path
         d="M 0,340.157 H 226.772 V 0 H 0 Z"
         id="path746500" />
    </clipPath>
    <clipPath
       clipPathUnits="userSpaceOnUse"
       id="clipPath746510">
      <path
         d="M -246.772,340.157 H -20 V 0 h -226.772 z"
         id="path746508" />
    </clipPath>
    <clipPath
       clipPathUnits="userSpaceOnUse"
       id="clipPath746518">
      <path
         d="M -246.772,340.157 H -20 V 0 h -226.772 z"
         id="path746516" />
    </clipPath>
    <clipPath
       clipPathUnits="userSpaceOnUse"
       id="clipPath746616">
      <path
         d="M 0,340.157 H 226.772 V 0 H 0 Z"
         id="path746614" />
    </clipPath>
    <clipPath
       clipPathUnits="userSpaceOnUse"
       id="clipPath746694">
      <path
         d="M 0,340.157 H 226.772 V 0 H 0 Z"
         id="path746692" />
    </clipPath>
    <clipPath
       clipPathUnits="userSpaceOnUse"
       id="clipPath746780">
      <path
         d="M 0,340.157 H 226.772 V 0 H 0 Z"
         id="path746778" />
    </clipPath>
    <clipPath
       clipPathUnits="userSpaceOnUse"
       id="clipPath746858">
      <path
         d="M 0,340.157 H 226.772 V 0 H 0 Z"
         id="path746856" />
    </clipPath>
    <clipPath
       clipPathUnits="userSpaceOnUse"
       id="clipPath746936">
      <path
         d="M 0,340.157 H 226.772 V 0 H 0 Z"
         id="path746934" />
    </clipPath>
    <clipPath
       clipPathUnits="userSpaceOnUse"
       id="clipPath747022">
      <path
         d="M 0,340.157 H 226.772 V 0 H 0 Z"
         id="path747020" />
    </clipPath>
    <clipPath
       clipPathUnits="userSpaceOnUse"
       id="clipPath747112">
      <path
         d="M 0,340.157 H 226.772 V 0 H 0 Z"
         id="path747110" />
    </clipPath>
    <clipPath
       clipPathUnits="userSpaceOnUse"
       id="clipPath747198">
      <path
         d="M 0,340.157 H 226.772 V 0 H 0 Z"
         id="path747196" />
    </clipPath>
    <clipPath
       clipPathUnits="userSpaceOnUse"
       id="clipPath747284">
      <path
         d="M 0,340.157 H 226.772 V 0 H 0 Z"
         id="path747282" />
    </clipPath>
    <clipPath
       clipPathUnits="userSpaceOnUse"
       id="clipPath747366">
      <path
         d="M 0,340.157 H 226.772 V 0 H 0 Z"
         id="path747364" />
    </clipPath>
    <clipPath
       clipPathUnits="userSpaceOnUse"
       id="clipPath747448">
      <path
         d="M 0,340.157 H 226.772 V 0 H 0 Z"
         id="path747446" />
    </clipPath>
    <clipPath
       clipPathUnits="userSpaceOnUse"
       id="clipPath747530">
      <path
         d="M 0,340.157 H 226.772 V 0 H 0 Z"
         id="path747528" />
    </clipPath>
    <clipPath
       clipPathUnits="userSpaceOnUse"
       id="clipPath747616">
      <path
         d="M 0,340.157 H 226.772 V 0 H 0 Z"
         id="path747614" />
    </clipPath>
    <clipPath
       clipPathUnits="userSpaceOnUse"
       id="clipPath747694">
      <path
         d="M 0,340.157 H 226.772 V 0 H 0 Z"
         id="path747692" />
    </clipPath>
    <clipPath
       clipPathUnits="userSpaceOnUse"
       id="clipPath747772">
      <path
         d="M 0,340.157 H 226.772 V 0 H 0 Z"
         id="path747770" />
    </clipPath>
    <clipPath
       clipPathUnits="userSpaceOnUse"
       id="clipPath747850">
      <path
         d="M 0,340.157 H 226.772 V 0 H 0 Z"
         id="path747848" />
    </clipPath>
    <clipPath
       clipPathUnits="userSpaceOnUse"
       id="clipPath747948">
      <path
         d="M 0,340.157 H 226.772 V 0 H 0 Z"
         id="path747946" />
    </clipPath>
    <clipPath
       clipPathUnits="userSpaceOnUse"
       id="clipPath748026">
      <path
         d="M 0,340.157 H 226.772 V 0 H 0 Z"
         id="path748024" />
    </clipPath>
    <clipPath
       clipPathUnits="userSpaceOnUse"
       id="clipPath748108">
      <path
         d="M 0,340.157 H 226.772 V 0 H 0 Z"
         id="path748106" />
    </clipPath>
    <clipPath
       clipPathUnits="userSpaceOnUse"
       id="clipPath783955">
      <path
         d="M 0,340.157 H 226.772 V 0 H 0 Z"
         id="path783953" />
    </clipPath>
    <clipPath
       clipPathUnits="userSpaceOnUse"
       id="clipPath784037">
      <path
         d="M 0,340.157 H 226.772 V 0 H 0 Z"
         id="path784035" />
    </clipPath>
    <clipPath
       clipPathUnits="userSpaceOnUse"
       id="clipPath784115">
      <path
         d="M 0,340.157 H 226.772 V 0 H 0 Z"
         id="path784113" />
    </clipPath>
    <clipPath
       clipPathUnits="userSpaceOnUse"
       id="clipPath784241">
      <path
         d="M 0,340.157 H 226.772 V 0 H 0 Z"
         id="path784239" />
    </clipPath>
    <clipPath
       clipPathUnits="userSpaceOnUse"
       id="clipPath784371">
      <path
         d="M 0,340.157 H 226.772 V 0 H 0 Z"
         id="path784369" />
    </clipPath>
    <clipPath
       clipPathUnits="userSpaceOnUse"
       id="clipPath784461">
      <path
         d="M 0,340.157 H 226.772 V 0 H 0 Z"
         id="path784459" />
    </clipPath>
    <clipPath
       clipPathUnits="userSpaceOnUse"
       id="clipPath784543">
      <path
         d="M 0,340.157 H 226.772 V 0 H 0 Z"
         id="path784541" />
    </clipPath>
    <clipPath
       clipPathUnits="userSpaceOnUse"
       id="clipPath784625">
      <path
         d="M 0,340.157 H 226.772 V 0 H 0 Z"
         id="path784623" />
    </clipPath>
    <clipPath
       clipPathUnits="userSpaceOnUse"
       id="clipPath784707">
      <path
         d="M 0,340.157 H 226.772 V 0 H 0 Z"
         id="path784705" />
    </clipPath>
    <clipPath
       clipPathUnits="userSpaceOnUse"
       id="clipPath784707-7">
      <path
         d="M 0,340.157 H 226.772 V 0 H 0 Z"
         id="path784705-5" />
    </clipPath>
    <clipPath
       clipPathUnits="userSpaceOnUse"
       id="clipPath800733">
      <path
         d="M 0,340.157 H 226.772 V 0 H 0 Z"
         id="path800731" />
    </clipPath>
    <clipPath
       clipPathUnits="userSpaceOnUse"
       id="clipPath800847">
      <path
         d="M 0,340.157 H 226.772 V 0 H 0 Z"
         id="path800845" />
    </clipPath>
    <clipPath
       clipPathUnits="userSpaceOnUse"
       id="clipPath819863">
      <path
         d="M 0,340.157 H 226.772 V 0 H 0 Z"
         id="path819861" />
    </clipPath>
    <clipPath
       clipPathUnits="userSpaceOnUse"
       id="clipPath819973">
      <path
         d="M 0,340.157 H 226.772 V 0 H 0 Z"
         id="path819971" />
    </clipPath>
    <clipPath
       clipPathUnits="userSpaceOnUse"
       id="clipPath820055">
      <path
         d="M 0,340.157 H 226.772 V 0 H 0 Z"
         id="path820053" />
    </clipPath>
    <clipPath
       clipPathUnits="userSpaceOnUse"
       id="clipPath820177">
      <path
         d="M 0,340.157 H 226.772 V 0 H 0 Z"
         id="path820175" />
    </clipPath>
    <clipPath
       clipPathUnits="userSpaceOnUse"
       id="clipPath820311">
      <path
         d="M 0,340.157 H 226.772 V 0 H 0 Z"
         id="path820309" />
    </clipPath>
    <clipPath
       clipPathUnits="userSpaceOnUse"
       id="clipPath820441">
      <path
         d="M 0,340.157 H 226.772 V 0 H 0 Z"
         id="path820439" />
    </clipPath>
    <clipPath
       clipPathUnits="userSpaceOnUse"
       id="clipPath820523">
      <path
         d="M 0,340.157 H 226.772 V 0 H 0 Z"
         id="path820521" />
    </clipPath>
    <clipPath
       clipPathUnits="userSpaceOnUse"
       id="clipPath831541">
      <path
         d="M 0,340.157 H 226.772 V 0 H 0 Z"
         id="path831539" />
    </clipPath>
    <clipPath
       clipPathUnits="userSpaceOnUse"
       id="clipPath831667">
      <path
         d="M 0,340.157 H 226.772 V 0 H 0 Z"
         id="path831665" />
    </clipPath>
    <clipPath
       clipPathUnits="userSpaceOnUse"
       id="clipPath831797">
      <path
         d="M 0,340.157 H 226.772 V 0 H 0 Z"
         id="path831795" />
    </clipPath>
    <clipPath
       clipPathUnits="userSpaceOnUse"
       id="clipPath831927">
      <path
         d="M 0,340.157 H 226.772 V 0 H 0 Z"
         id="path831925" />
    </clipPath>
    <clipPath
       clipPathUnits="userSpaceOnUse"
       id="clipPath832005">
      <path
         d="M 0,340.157 H 226.772 V 0 H 0 Z"
         id="path832003" />
    </clipPath>
    <clipPath
       clipPathUnits="userSpaceOnUse"
       id="clipPath832087">
      <path
         d="M 0,340.157 H 226.772 V 0 H 0 Z"
         id="path832085" />
    </clipPath>
    <clipPath
       clipPathUnits="userSpaceOnUse"
       id="clipPath832095">
      <path
         d="M -246.772,340.157 H -20 V 0 h -226.772 z"
         id="path832093" />
    </clipPath>
    <clipPath
       clipPathUnits="userSpaceOnUse"
       id="clipPath832103">
      <path
         d="M -246.772,340.157 H -20 V 0 h -226.772 z"
         id="path832101" />
    </clipPath>
    <clipPath
       clipPathUnits="userSpaceOnUse"
       id="clipPath832201">
      <path
         d="M 0,340.157 H 226.772 V 0 H 0 Z"
         id="path832199" />
    </clipPath>
    <clipPath
       clipPathUnits="userSpaceOnUse"
       id="clipPath832209">
      <path
         d="M -246.772,340.157 H -20 V 0 h -226.772 z"
         id="path832207" />
    </clipPath>
    <clipPath
       clipPathUnits="userSpaceOnUse"
       id="clipPath832217">
      <path
         d="M -246.772,340.157 H -20 V 0 h -226.772 z"
         id="path832215" />
    </clipPath>
    <clipPath
       clipPathUnits="userSpaceOnUse"
       id="clipPath832315">
      <path
         d="M 0,340.157 H 226.772 V 0 H 0 Z"
         id="path832313" />
    </clipPath>
    <clipPath
       clipPathUnits="userSpaceOnUse"
       id="clipPath832323">
      <path
         d="M -246.772,340.157 H -20 V 0 h -226.772 z"
         id="path832321" />
    </clipPath>
    <clipPath
       clipPathUnits="userSpaceOnUse"
       id="clipPath832331">
      <path
         d="M -246.772,340.157 H -20 V 0 h -226.772 z"
         id="path832329" />
    </clipPath>
    <clipPath
       clipPathUnits="userSpaceOnUse"
       id="clipPath832433">
      <path
         d="M 0,340.157 H 226.772 V 0 H 0 Z"
         id="path832431" />
    </clipPath>
    <clipPath
       clipPathUnits="userSpaceOnUse"
       id="clipPath832441">
      <path
         d="M -246.772,340.157 H -20 V 0 h -226.772 z"
         id="path832439" />
    </clipPath>
    <clipPath
       clipPathUnits="userSpaceOnUse"
       id="clipPath832449">
      <path
         d="M -246.772,340.157 H -20 V 0 h -226.772 z"
         id="path832447" />
    </clipPath>
    <clipPath
       clipPathUnits="userSpaceOnUse"
       id="clipPath832595">
      <path
         d="M 0,340.157 H 226.772 V 0 H 0 Z"
         id="path832593" />
    </clipPath>
    <clipPath
       clipPathUnits="userSpaceOnUse"
       id="clipPath851468">
      <path
         d="M 0,340.157 H 226.772 V 0 H 0 Z"
         id="path851466" />
    </clipPath>
    <clipPath
       clipPathUnits="userSpaceOnUse"
       id="clipPath851582">
      <path
         d="M 0,340.157 H 226.772 V 0 H 0 Z"
         id="path851580" />
    </clipPath>
    <clipPath
       clipPathUnits="userSpaceOnUse"
       id="clipPath851660">
      <path
         d="M 0,340.157 H 226.772 V 0 H 0 Z"
         id="path851658" />
    </clipPath>
    <clipPath
       clipPathUnits="userSpaceOnUse"
       id="clipPath851774">
      <path
         d="M 0,340.157 H 226.772 V 0 H 0 Z"
         id="path851772" />
    </clipPath>
    <clipPath
       clipPathUnits="userSpaceOnUse"
       id="clipPath851774-3">
      <path
         d="M 0,340.157 H 226.772 V 0 H 0 Z"
         id="path851772-5" />
    </clipPath>
    <clipPath
       clipPathUnits="userSpaceOnUse"
       id="clipPath852002">
      <path
         d="M 0,340.157 H 226.772 V 0 H 0 Z"
         id="path852000" />
    </clipPath>
    <clipPath
       clipPathUnits="userSpaceOnUse"
       id="clipPath852002-6">
      <path
         d="M 0,340.157 H 226.772 V 0 H 0 Z"
         id="path852000-2" />
    </clipPath>
    <clipPath
       clipPathUnits="userSpaceOnUse"
       id="clipPath855748">
      <path
         d="M 0,340.157 H 226.772 V 0 H 0 Z"
         id="path855746" />
    </clipPath>
    <clipPath
       clipPathUnits="userSpaceOnUse"
       id="clipPath855850">
      <path
         d="M 0,340.157 H 226.772 V 0 H 0 Z"
         id="path855848" />
    </clipPath>
    <clipPath
       clipPathUnits="userSpaceOnUse"
       id="clipPath855952">
      <path
         d="M 0,340.157 H 226.772 V 0 H 0 Z"
         id="path855950" />
    </clipPath>
    <clipPath
       clipPathUnits="userSpaceOnUse"
       id="clipPath856034">
      <path
         d="M 0,340.157 H 226.772 V 0 H 0 Z"
         id="path856032" />
    </clipPath>
    <clipPath
       clipPathUnits="userSpaceOnUse"
       id="clipPath856116">
      <path
         d="M 0,340.157 H 226.772 V 0 H 0 Z"
         id="path856114" />
    </clipPath>
    <clipPath
       clipPathUnits="userSpaceOnUse"
       id="clipPath856124">
      <path
         d="M -246.772,340.157 H -20 V 0 h -226.772 z"
         id="path856122" />
    </clipPath>
    <clipPath
       clipPathUnits="userSpaceOnUse"
       id="clipPath856132">
      <path
         d="M -246.772,340.157 H -20 V 0 h -226.772 z"
         id="path856130" />
    </clipPath>
  </defs>
  <g
     id="g856110"
     transform="matrix(1.3333333,0,0,-1.3333333,-1.1810629,308.95296)">
    <g
       id="g856112"
       clip-path="url(#clipPath856116)">
      <g
         id="g856118">
        <g
           id="g856120"
           clip-path="url(#clipPath856124)">
          <g
             id="g856126">
            <g
               id="g856128"
               clip-path="url(#clipPath856132)">
              <g
                 id="g856134"
                 transform="translate(158.2812,196.6246)">
                <path
                   d="m 0,0 c -3.279,-1.336 -6.537,-2.449 -9.775,-3.339 l -0.425,2.003 c 3.804,1.174 7.083,2.348 9.836,3.522 z m 0.886,-58.528 c -2.307,-1.539 -6.314,-2.308 -12.021,-2.308 h -4.19 c -1.254,0 -2.084,0.324 -2.489,0.972 -0.404,0.647 -0.607,1.275 -0.607,1.882 0,0.445 0.213,1.002 0.637,1.669 0.426,0.668 1.245,1.002 2.459,1.002 h 5.161 c 3.238,0 5.677,0.222 7.316,0.668 1.64,0.446 2.742,1.052 3.309,1.822 0.566,0.768 0.85,1.598 0.85,2.489 0,0.972 -0.486,2.226 -1.457,3.765 -0.972,1.537 -2.651,3.389 -5.04,5.554 -2.388,2.165 -5.646,4.646 -9.774,7.438 0.08,2.347 0.343,4.027 0.789,5.04 0.161,0.323 0.971,0.91 2.428,1.761 2.631,1.578 5.89,3.308 9.776,5.19 3.885,1.883 7.811,3.491 11.778,4.827 L 8.779,-22.1 c -2.955,-1.052 -6.325,-2.439 -10.109,-4.159 -3.785,-1.72 -6.851,-3.289 -9.198,-4.705 3.359,-2.591 5.97,-4.696 7.832,-6.314 2.307,-1.984 4.199,-4.069 5.677,-6.254 1.477,-2.186 2.216,-4.514 2.216,-6.982 0,-1.741 -0.395,-3.309 -1.184,-4.706 -0.789,-1.396 -1.832,-2.499 -3.127,-3.308 m -48.785,-3.704 h -1.275 l -1.639,4.128 c 6.273,0.446 11.718,2.084 16.332,4.918 -0.162,0.89 -0.698,2.115 -1.609,3.673 -0.91,1.558 -2.378,3.816 -4.402,6.771 -4.453,6.474 -8.662,11.92 -12.628,16.332 l 4.068,3.582 c 3.035,-3.765 6.475,-8.42 10.321,-13.965 4.979,-7.326 7.548,-12.042 7.711,-14.146 1.011,0.688 1.943,1.902 2.792,3.643 0.851,1.739 1.276,3.946 1.276,6.617 l -0.79,23.558 4.554,0.364 0.911,-25.075 c 0.121,-5.262 0.677,-8.834 1.669,-10.716 0.992,-1.882 2.783,-2.823 5.374,-2.823 0.93,0 1.709,-0.213 2.337,-0.638 0.627,-0.425 0.941,-1.103 0.941,-2.034 0,-1.862 -1.093,-2.793 -3.278,-2.793 -2.834,0 -5.192,0.749 -7.074,2.247 -1.882,1.497 -3.167,4.149 -3.855,7.953 -1.821,-3.885 -4.827,-6.79 -9.016,-8.712 -4.19,-1.922 -8.43,-2.884 -12.72,-2.884 m -13.299,9.958 c 0.809,0 1.497,0.302 2.064,0.91 0.566,0.607 0.85,1.396 0.85,2.368 0,1.821 -0.648,3.582 -1.943,5.282 -1.296,1.7 -2.773,2.55 -4.432,2.55 -1.133,0 -2.166,-0.466 -3.096,-1.397 -0.932,-0.931 -1.822,-2.793 -2.672,-5.585 1.133,-1.093 2.55,-2.055 4.25,-2.884 1.7,-0.83 3.359,-1.244 4.979,-1.244 m -32.604,-17.304 -2.914,3.035 c 4.411,1.821 8.448,3.825 12.112,6.011 3.663,2.185 6.244,4.31 7.741,6.375 0.688,0.768 1.659,3.197 2.915,7.286 1.214,3.724 2.539,6.394 3.976,8.014 1.437,1.619 3.309,2.428 5.617,2.428 1.942,0 3.662,-0.658 5.16,-1.972 1.497,-1.317 2.661,-2.946 3.491,-4.888 0.829,-1.943 1.245,-3.825 1.245,-5.647 0,-2.509 -0.638,-4.574 -1.913,-6.192 -1.274,-1.62 -2.883,-2.429 -4.826,-2.429 -3.482,0 -7.125,1.436 -10.929,4.311 l -0.182,-0.547 c -0.364,-1.619 -1.174,-3.359 -2.429,-5.221 -1.821,-2.266 -4.533,-4.372 -8.136,-6.314 -3.603,-1.943 -7.245,-3.36 -10.928,-4.25"
                   style="fill:#1d1d1b;fill-opacity:1;fill-rule:nonzero;stroke:none"
                   id="path856136" />
              </g>
            </g>
          </g>
        </g>
      </g>
      <g
         id="g856138"
         transform="translate(111.7329,155.4352)">
        <path
           d="m 0,0 h -1.288 l -1.657,4.172 c 6.339,0.449 11.841,2.105 16.503,4.969 -0.164,0.899 -0.706,2.136 -1.626,3.711 -0.92,1.574 -2.403,3.854 -4.448,6.84 -4.499,6.543 -8.752,12.044 -12.76,16.502 l 4.11,3.62 c 3.068,-3.803 6.543,-8.507 10.43,-14.11 5.03,-7.402 7.627,-12.168 7.791,-14.294 1.021,0.695 1.963,1.922 2.821,3.681 0.859,1.759 1.289,3.988 1.289,6.687 l -0.798,23.803 4.601,0.368 0.921,-25.337 c 0.122,-5.317 0.684,-8.925 1.687,-10.827 1.001,-1.902 2.811,-2.853 5.429,-2.853 0.94,0 1.727,-0.214 2.362,-0.644 0.633,-0.43 0.95,-1.115 0.95,-2.056 0,-1.88 -1.104,-2.821 -3.312,-2.821 -2.863,0 -5.245,0.756 -7.147,2.27 -1.902,1.512 -3.201,4.191 -3.896,8.036 C 20.122,7.791 17.085,4.855 12.852,2.914 8.619,0.972 4.334,0 0,0"
           style="fill:#f91536;fill-opacity:1;fill-rule:nonzero;stroke:none"
           id="path856140" />
      </g>
      <g
         id="g856142"
         transform="translate(84.9209,144.6988)">
        <path
           d="m 0,0 c 0,-2.085 -1.064,-3.21 -3.19,-3.374 -0.9,0 -1.656,0.307 -2.27,0.921 -0.613,0.613 -0.92,1.432 -0.92,2.453 0,1.964 1.063,3.067 3.19,3.313 C -1.268,3.313 -0.205,2.209 0,0 m 18.895,15.644 c -7.403,-3.19 -15.93,-4.786 -25.582,-4.786 -14.355,0 -21.533,5.44 -21.533,16.319 0,2.781 0.45,5.316 1.35,7.607 l 3.313,-0.675 c -0.451,-1.594 -0.675,-3.312 -0.675,-5.153 0,-8.384 5.951,-12.597 17.852,-12.638 9.325,0 16.523,1.043 21.594,3.129 0.04,0.327 0.061,0.737 0.061,1.228 -0.122,4.334 -1.574,9.057 -4.355,14.171 l 4.417,1.226 c 1.063,-1.882 2.024,-4.213 2.883,-6.993 0.859,-2.782 1.288,-5.747 1.288,-8.895 0,-1.882 -0.205,-3.396 -0.613,-4.54"
           style="fill:#1d1d1b;fill-opacity:1;fill-rule:nonzero;stroke:none"
           id="path856144" />
      </g>
      <g
         id="g856146"
         transform="translate(165.4819,142.1471)">
        <path
           d="m 0,0 c -3.313,-1.35 -6.605,-2.474 -9.877,-3.374 l -0.429,2.024 c 3.844,1.187 7.156,2.372 9.938,3.559 z"
           style="fill:#1d1d1b;fill-opacity:1;fill-rule:nonzero;stroke:none"
           id="path856148" />
      </g>
      <g
         id="g856150"
         transform="translate(161.0527,159.1773)">
        <path
           d="m 0,0 c -2.331,-1.555 -6.38,-2.331 -12.147,-2.331 h -4.233 c -1.267,0 -2.106,0.326 -2.515,0.981 -0.408,0.654 -0.613,1.288 -0.613,1.902 0,0.45 0.214,1.012 0.644,1.687 0.429,0.675 1.258,1.012 2.484,1.012 h 5.215 c 3.271,0 5.736,0.225 7.392,0.675 1.656,0.45 2.77,1.063 3.343,1.841 0.573,0.776 0.859,1.615 0.859,2.514 0,0.983 -0.491,2.249 -1.472,3.804 -0.981,1.554 -2.679,3.425 -5.092,5.613 -2.413,2.188 -5.705,4.694 -9.877,7.516 0.082,2.371 0.347,4.068 0.798,5.092 0.163,0.326 0.982,0.92 2.454,1.778 2.658,1.596 5.95,3.344 9.877,5.245 3.926,1.902 7.892,3.527 11.901,4.878 L 7.975,36.808 C 4.989,35.744 1.584,34.344 -2.239,32.605 c -3.825,-1.738 -6.923,-3.323 -9.294,-4.753 3.394,-2.619 6.032,-4.746 7.913,-6.38 2.331,-2.005 4.243,-4.111 5.736,-6.32 C 3.609,12.944 4.355,10.592 4.355,8.098 4.355,6.339 3.957,4.754 3.159,3.343 2.362,1.933 1.308,0.817 0,0"
           style="fill:#1d1d1b;fill-opacity:1;fill-rule:nonzero;stroke:none"
           id="path856152" />
      </g>
    </g>
  </g>
</svg>
