<?xml version="1.0" encoding="UTF-8" standalone="no"?>
<!-- Created with Inkscape (http://www.inkscape.org/) -->

<svg
   width="200"
   height="200"
   viewBox="0 0 200 200"
   version="1.1"
   id="svg37630"
   inkscape:version="1.2.1 (9c6d41e410, 2022-07-14)"
   sodipodi:docname="142_lf2.svg"
   xmlns:inkscape="http://www.inkscape.org/namespaces/inkscape"
   xmlns:sodipodi="http://sodipodi.sourceforge.net/DTD/sodipodi-0.dtd"
   xmlns="http://www.w3.org/2000/svg"
   xmlns:svg="http://www.w3.org/2000/svg">
  <sodipodi:namedview
     id="namedview37632"
     pagecolor="#ffffff"
     bordercolor="#000000"
     borderopacity="0.25"
     inkscape:showpageshadow="2"
     inkscape:pageopacity="0.0"
     inkscape:pagecheckerboard="0"
     inkscape:deskcolor="#d1d1d1"
     inkscape:document-units="px"
     showgrid="false"
     inkscape:zoom="3.659624"
     inkscape:cx="58.749205"
     inkscape:cy="121.32394"
     inkscape:window-width="2040"
     inkscape:window-height="460"
     inkscape:window-x="696"
     inkscape:window-y="28"
     inkscape:window-maximized="1"
     inkscape:current-layer="layer1" />
  <defs
     id="defs37627">
    <clipPath
       clipPathUnits="userSpaceOnUse"
       id="clipPath49831">
      <g
         id="g49837">
        <g
           id="g49835">
          <path
             d="M 0,340.157 H 226.772 V 0 H 0 Z"
             id="path49833" />
        </g>
      </g>
    </clipPath>
    <clipPath
       clipPathUnits="userSpaceOnUse"
       id="clipPath49846">
      <g
         id="g49852">
        <g
           id="g49850">
          <path
             d="M 0,340.157 H 226.772 V 0 H 0 Z"
             id="path49848" />
        </g>
      </g>
    </clipPath>
    <clipPath
       clipPathUnits="userSpaceOnUse"
       id="clipPath3810">
      <path
         d="M 0,340.157 H 226.772 V 0 H 0 Z"
         id="path3808" />
    </clipPath>
    <clipPath
       clipPathUnits="userSpaceOnUse"
       id="clipPath63168">
      <g
         id="g63172"
         transform="translate(-138.8968,-217.1925)">
        <path
           d="M 0,340.157 H 226.772 V 0 H 0 Z"
           id="path63170" />
      </g>
    </clipPath>
    <clipPath
       clipPathUnits="userSpaceOnUse"
       id="clipPath63174">
      <g
         id="g63178"
         transform="translate(-81.8929,-48.1051)">
        <path
           d="M 0,340.157 H 226.772 V 0 H 0 Z"
           id="path63176" />
      </g>
    </clipPath>
    <clipPath
       clipPathUnits="userSpaceOnUse"
       id="clipPath75594">
      <g
         id="g75598"
         transform="translate(-127.7585,-249.5099)">
        <path
           d="M 0,340.157 H 226.772 V 0 H 0 Z"
           id="path75596" />
      </g>
    </clipPath>
    <clipPath
       clipPathUnits="userSpaceOnUse"
       id="clipPath75588">
      <g
         id="g75592"
         transform="translate(-138.8962,-196.152)">
        <path
           d="M 0,340.157 H 226.772 V 0 H 0 Z"
           id="path75590" />
      </g>
    </clipPath>
    <clipPath
       clipPathUnits="userSpaceOnUse"
       id="clipPath75600">
      <g
         id="g75604"
         transform="translate(-150.3796,-110.1285)">
        <path
           d="M 0,340.157 H 226.772 V 0 H 0 Z"
           id="path75602" />
      </g>
    </clipPath>
    <clipPath
       clipPathUnits="userSpaceOnUse"
       id="clipPath75902">
      <g
         id="g75906"
         transform="translate(-117.3763,-183.3499)">
        <path
           d="M 0,340.157 H 226.772 V 0 H 0 Z"
           id="path75904" />
      </g>
    </clipPath>
    <clipPath
       clipPathUnits="userSpaceOnUse"
       id="clipPath75908">
      <g
         id="g75912"
         transform="translate(-122.3158,-75.9998)">
        <path
           d="M 0,340.157 H 226.772 V 0 H 0 Z"
           id="path75910" />
      </g>
    </clipPath>
    <clipPath
       clipPathUnits="userSpaceOnUse"
       id="clipPath76189">
      <g
         id="g76193"
         transform="translate(-91.8367,-210.8606)">
        <path
           d="M 0,340.157 H 226.772 V 0 H 0 Z"
           id="path76191" />
      </g>
    </clipPath>
    <clipPath
       clipPathUnits="userSpaceOnUse"
       id="clipPath76183">
      <g
         id="g76187"
         transform="translate(-135.2703,-223.5168)">
        <path
           d="M 0,340.157 H 226.772 V 0 H 0 Z"
           id="path76185" />
      </g>
    </clipPath>
    <clipPath
       clipPathUnits="userSpaceOnUse"
       id="clipPath76195">
      <g
         id="g76199"
         transform="translate(-135.2703,-91.532)">
        <path
           d="M 0,340.157 H 226.772 V 0 H 0 Z"
           id="path76197" />
      </g>
    </clipPath>
    <clipPath
       clipPathUnits="userSpaceOnUse"
       id="clipPath9892">
      <path
         d="M 0,340.157 H 226.772 V 0 H 0 Z"
         id="path9890" />
    </clipPath>
    <clipPath
       clipPathUnits="userSpaceOnUse"
       id="clipPath76990">
      <g
         id="g76994"
         transform="translate(-121.1707,-272.8103)">
        <path
           d="M 0,340.157 H 226.772 V 0 H 0 Z"
           id="path76992" />
      </g>
    </clipPath>
    <clipPath
       clipPathUnits="userSpaceOnUse"
       id="clipPath76984">
      <g
         id="g76988"
         transform="translate(-116.2566,-153.0125)">
        <path
           d="M 0,340.157 H 226.772 V 0 H 0 Z"
           id="path76986" />
      </g>
    </clipPath>
    <clipPath
       clipPathUnits="userSpaceOnUse"
       id="clipPath79185">
      <g
         id="g79189"
         transform="translate(-116.682,-257.1871)">
        <path
           d="M 0,340.157 H 226.772 V 0 H 0 Z"
           id="path79187" />
      </g>
    </clipPath>
    <clipPath
       clipPathUnits="userSpaceOnUse"
       id="clipPath79191">
      <g
         id="g79195"
         transform="translate(-137.9271,-122.0807)">
        <path
           d="M 0,340.157 H 226.772 V 0 H 0 Z"
           id="path79193" />
      </g>
    </clipPath>
    <clipPath
       clipPathUnits="userSpaceOnUse"
       id="clipPath79580">
      <g
         id="g79584"
         transform="translate(-100.3016,-184.3873)">
        <path
           d="M 0,340.157 H 226.772 V 0 H 0 Z"
           id="path79582" />
      </g>
    </clipPath>
    <clipPath
       clipPathUnits="userSpaceOnUse"
       id="clipPath79586">
      <g
         id="g79590"
         transform="translate(-111.5027,-39.8062)">
        <path
           d="M 0,340.157 H 226.772 V 0 H 0 Z"
           id="path79588" />
      </g>
    </clipPath>
    <clipPath
       clipPathUnits="userSpaceOnUse"
       id="clipPath79925">
      <path
         d="m 86.775002,184.3873 h -0.972 c -2.86725,0 -4.7655,0.74 -5.691,2.222 -0.9255,1.478 -1.389,2.914 -1.389,4.302 0,1.017 0.48675,2.29 1.458,3.818 0.972,1.526 2.8455,2.29 5.622,2.29 h 2.3595 c 8.697,0 31.937248,1.087 35.732998,3.262 3.79425,2.173 5.6925,4.88 5.6925,8.12 0,2.221 -1.20525,5.112 -3.6105,8.676 -2.40675,3.561 -6.40875,7.819 -12.00675,12.771 -5.59875,4.949 -13.11675,10.618 -22.556248,17.004 l 0.138,1.11 c 0.37125,4.997 0.92625,8.42 1.6665,10.272 0.3705,0.74 2.22075,2.082 5.5515,4.025 6.014998,3.609 13.487248,7.566 22.418248,11.868 8.93025,4.304 17.883,7.983 26.85975,11.036 l -2.22,-12.215 c -6.75675,-2.408 -14.48475,-5.577 -23.18175,-9.509 -8.69925,-3.934 -15.73275,-7.52 -21.09975,-10.757 l 3.8865,-2.916 c 5.64525,-4.257 10.98825,-8.561 16.0335,-12.909 5.043,-4.351 9.162,-8.862 12.354,-13.533 3.19275,-4.675 4.78875,-9.742 4.78875,-15.201 0,-8.237 -3.60825,-14.435 -10.827,-18.6 -5.82975,-3.424 -30.828748,-5.136 -41.007748,-5.136"
         style="fill:#f91536;fill-opacity:1;fill-rule:nonzero;stroke:none;stroke-width:0.999998"
         id="path79927" />
    </clipPath>
    <clipPath
       clipPathUnits="userSpaceOnUse"
       id="clipPath61363">
      <g
         id="g61367"
         transform="translate(-81.15205,-191.37829)">
        <path
           d="M -5.6226503,347.14799 H 221.14935 V 6.9909943 H -5.6226503 Z"
           id="path61365" />
      </g>
    </clipPath>
    <clipPath
       clipPathUnits="userSpaceOnUse"
       id="clipPath61369">
      <g
         id="g61373"
         transform="translate(-101.34445,-85.752294)">
        <path
           d="M -5.6226503,347.14799 H 221.14935 V 6.9909943 H -5.6226503 Z"
           id="path61371" />
      </g>
    </clipPath>
  </defs>
  <g
     inkscape:label="Layer 1"
     inkscape:groupmode="layer"
     id="layer1">
    <path
       d="m 91.441325,97.826675 c -3.069332,0 -5.153333,-0.185348 -6.257333,-0.552 l -3.129336,-8.098667 c 8.956004,-0.369335 15.889336,-1.656 20.798674,-3.866669 4.90533,-2.208 7.36266,-4.047999 7.36266,-5.52 0,-1.717331 -3.62133,-2.698666 -10.859997,-2.945334 -4.785335,-0.245329 -8.069333,-1.164 -9.846668,-2.761334 -1.781333,-1.593332 -2.669333,-3.741332 -2.669333,-6.442667 0,-5.397332 2.393333,-10.642667 7.178665,-15.736 4.785336,-5.090665 11.348003,-8.312002 19.693333,-9.662666 v 11.594666 c -6.38133,1.104 -10.98266,2.669333 -13.802662,4.693335 -2.825334,2.025332 -4.234671,4.021334 -4.234671,5.982668 0,1.471997 2.973335,2.454667 8.926673,2.945333 5.95066,0.490666 9.81466,1.594666 11.596,3.312 1.776,1.719999 2.668,3.865331 2.668,6.442667 0,4.296 -1.47067,7.977332 -4.416,11.042666 -2.94534,3.069335 -6.53467,5.430667 -10.76667,7.086667 -4.234666,1.656001 -8.316001,2.485335 -12.241336,2.485335 m 1.841334,50.800005 c -14.479999,0 -25.585337,-2.052 -33.314669,-6.16533 -7.730669,-4.10934 -13.041337,-9.204 -15.921337,-15.27734 -2.885333,-6.07467 -4.326664,-12.056 -4.326664,-17.94533 0,-4.41867 0.797333,-9.572006 2.393333,-15.461338 l 9.94,1.841333 c -0.492,3.190666 -0.737333,6.565335 -0.737333,10.122665 0,6.38134 1.932,11.56534 5.798665,15.55334 3.865335,3.988 9.078669,6.87333 15.644004,8.65067 6.564001,1.77999 13.897335,2.66933 21.996002,2.66933 18.281331,0 35.400001,-1.65734 51.352001,-4.972 0.24533,-1.10267 0.36802,-2.944 0.36802,-5.52 L 142.42534,16.104 156.23068,15 c 2.69733,68.717342 4.04933,104.73068 4.04933,108.04268 0,8.22133 -0.24801,13.62 -0.736,16.19733 -19.26667,6.25734 -41.35333,9.38667 -66.261336,9.38667"
       style="fill:#000000;fill-opacity:1;fill-rule:nonzero;stroke:none;stroke-width:1.33333"
       id="path44857"
       clip-path="none" />
  </g>
</svg>
