<?xml version="1.0" encoding="UTF-8" standalone="no"?>
<!-- Created with Inkscape (http://www.inkscape.org/) -->

<svg
   width="200"
   height="200"
   viewBox="0 0 200 200"
   version="1.1"
   id="svg37630"
   inkscape:version="1.2.1 (9c6d41e410, 2022-07-14)"
   sodipodi:docname="142_lf1.svg"
   xmlns:inkscape="http://www.inkscape.org/namespaces/inkscape"
   xmlns:sodipodi="http://sodipodi.sourceforge.net/DTD/sodipodi-0.dtd"
   xmlns="http://www.w3.org/2000/svg"
   xmlns:svg="http://www.w3.org/2000/svg">
  <sodipodi:namedview
     id="namedview37632"
     pagecolor="#ffffff"
     bordercolor="#000000"
     borderopacity="0.25"
     inkscape:showpageshadow="2"
     inkscape:pageopacity="0.0"
     inkscape:pagecheckerboard="0"
     inkscape:deskcolor="#d1d1d1"
     inkscape:document-units="px"
     showgrid="false"
     inkscape:zoom="3.659624"
     inkscape:cx="202.47982"
     inkscape:cy="36.889036"
     inkscape:window-width="2040"
     inkscape:window-height="460"
     inkscape:window-x="696"
     inkscape:window-y="28"
     inkscape:window-maximized="1"
     inkscape:current-layer="layer1" />
  <defs
     id="defs37627">
    <clipPath
       clipPathUnits="userSpaceOnUse"
       id="clipPath49831">
      <g
         id="g49837">
        <g
           id="g49835">
          <path
             d="M 0,340.157 H 226.772 V 0 H 0 Z"
             id="path49833" />
        </g>
      </g>
    </clipPath>
    <clipPath
       clipPathUnits="userSpaceOnUse"
       id="clipPath49846">
      <g
         id="g49852">
        <g
           id="g49850">
          <path
             d="M 0,340.157 H 226.772 V 0 H 0 Z"
             id="path49848" />
        </g>
      </g>
    </clipPath>
    <clipPath
       clipPathUnits="userSpaceOnUse"
       id="clipPath3810">
      <path
         d="M 0,340.157 H 226.772 V 0 H 0 Z"
         id="path3808" />
    </clipPath>
    <clipPath
       clipPathUnits="userSpaceOnUse"
       id="clipPath63168">
      <g
         id="g63172"
         transform="translate(-138.8968,-217.1925)">
        <path
           d="M 0,340.157 H 226.772 V 0 H 0 Z"
           id="path63170" />
      </g>
    </clipPath>
    <clipPath
       clipPathUnits="userSpaceOnUse"
       id="clipPath63174">
      <g
         id="g63178"
         transform="translate(-81.8929,-48.1051)">
        <path
           d="M 0,340.157 H 226.772 V 0 H 0 Z"
           id="path63176" />
      </g>
    </clipPath>
    <clipPath
       clipPathUnits="userSpaceOnUse"
       id="clipPath75594">
      <g
         id="g75598"
         transform="translate(-127.7585,-249.5099)">
        <path
           d="M 0,340.157 H 226.772 V 0 H 0 Z"
           id="path75596" />
      </g>
    </clipPath>
    <clipPath
       clipPathUnits="userSpaceOnUse"
       id="clipPath75588">
      <g
         id="g75592"
         transform="translate(-138.8962,-196.152)">
        <path
           d="M 0,340.157 H 226.772 V 0 H 0 Z"
           id="path75590" />
      </g>
    </clipPath>
    <clipPath
       clipPathUnits="userSpaceOnUse"
       id="clipPath75600">
      <g
         id="g75604"
         transform="translate(-150.3796,-110.1285)">
        <path
           d="M 0,340.157 H 226.772 V 0 H 0 Z"
           id="path75602" />
      </g>
    </clipPath>
    <clipPath
       clipPathUnits="userSpaceOnUse"
       id="clipPath75902">
      <g
         id="g75906"
         transform="translate(-117.3763,-183.3499)">
        <path
           d="M 0,340.157 H 226.772 V 0 H 0 Z"
           id="path75904" />
      </g>
    </clipPath>
    <clipPath
       clipPathUnits="userSpaceOnUse"
       id="clipPath75908">
      <g
         id="g75912"
         transform="translate(-122.3158,-75.9998)">
        <path
           d="M 0,340.157 H 226.772 V 0 H 0 Z"
           id="path75910" />
      </g>
    </clipPath>
    <clipPath
       clipPathUnits="userSpaceOnUse"
       id="clipPath76189">
      <g
         id="g76193"
         transform="translate(-91.8367,-210.8606)">
        <path
           d="M 0,340.157 H 226.772 V 0 H 0 Z"
           id="path76191" />
      </g>
    </clipPath>
    <clipPath
       clipPathUnits="userSpaceOnUse"
       id="clipPath76183">
      <g
         id="g76187"
         transform="translate(-135.2703,-223.5168)">
        <path
           d="M 0,340.157 H 226.772 V 0 H 0 Z"
           id="path76185" />
      </g>
    </clipPath>
    <clipPath
       clipPathUnits="userSpaceOnUse"
       id="clipPath76195">
      <g
         id="g76199"
         transform="translate(-135.2703,-91.532)">
        <path
           d="M 0,340.157 H 226.772 V 0 H 0 Z"
           id="path76197" />
      </g>
    </clipPath>
    <clipPath
       clipPathUnits="userSpaceOnUse"
       id="clipPath9892">
      <path
         d="M 0,340.157 H 226.772 V 0 H 0 Z"
         id="path9890" />
    </clipPath>
    <clipPath
       clipPathUnits="userSpaceOnUse"
       id="clipPath76990">
      <g
         id="g76994"
         transform="translate(-121.1707,-272.8103)">
        <path
           d="M 0,340.157 H 226.772 V 0 H 0 Z"
           id="path76992" />
      </g>
    </clipPath>
    <clipPath
       clipPathUnits="userSpaceOnUse"
       id="clipPath76984">
      <g
         id="g76988"
         transform="translate(-116.2566,-153.0125)">
        <path
           d="M 0,340.157 H 226.772 V 0 H 0 Z"
           id="path76986" />
      </g>
    </clipPath>
    <clipPath
       clipPathUnits="userSpaceOnUse"
       id="clipPath79185">
      <g
         id="g79189"
         transform="translate(-116.682,-257.1871)">
        <path
           d="M 0,340.157 H 226.772 V 0 H 0 Z"
           id="path79187" />
      </g>
    </clipPath>
    <clipPath
       clipPathUnits="userSpaceOnUse"
       id="clipPath79191">
      <g
         id="g79195"
         transform="translate(-137.9271,-122.0807)">
        <path
           d="M 0,340.157 H 226.772 V 0 H 0 Z"
           id="path79193" />
      </g>
    </clipPath>
    <clipPath
       clipPathUnits="userSpaceOnUse"
       id="clipPath79580">
      <g
         id="g79584"
         transform="translate(-100.3016,-184.3873)">
        <path
           d="M 0,340.157 H 226.772 V 0 H 0 Z"
           id="path79582" />
      </g>
    </clipPath>
    <clipPath
       clipPathUnits="userSpaceOnUse"
       id="clipPath79586">
      <g
         id="g79590"
         transform="translate(-111.5027,-39.8062)">
        <path
           d="M 0,340.157 H 226.772 V 0 H 0 Z"
           id="path79588" />
      </g>
    </clipPath>
    <clipPath
       clipPathUnits="userSpaceOnUse"
       id="clipPath79925">
      <path
         d="m 86.775002,184.3873 h -0.972 c -2.86725,0 -4.7655,0.74 -5.691,2.222 -0.9255,1.478 -1.389,2.914 -1.389,4.302 0,1.017 0.48675,2.29 1.458,3.818 0.972,1.526 2.8455,2.29 5.622,2.29 h 2.3595 c 8.697,0 31.937248,1.087 35.732998,3.262 3.79425,2.173 5.6925,4.88 5.6925,8.12 0,2.221 -1.20525,5.112 -3.6105,8.676 -2.40675,3.561 -6.40875,7.819 -12.00675,12.771 -5.59875,4.949 -13.11675,10.618 -22.556248,17.004 l 0.138,1.11 c 0.37125,4.997 0.92625,8.42 1.6665,10.272 0.3705,0.74 2.22075,2.082 5.5515,4.025 6.014998,3.609 13.487248,7.566 22.418248,11.868 8.93025,4.304 17.883,7.983 26.85975,11.036 l -2.22,-12.215 c -6.75675,-2.408 -14.48475,-5.577 -23.18175,-9.509 -8.69925,-3.934 -15.73275,-7.52 -21.09975,-10.757 l 3.8865,-2.916 c 5.64525,-4.257 10.98825,-8.561 16.0335,-12.909 5.043,-4.351 9.162,-8.862 12.354,-13.533 3.19275,-4.675 4.78875,-9.742 4.78875,-15.201 0,-8.237 -3.60825,-14.435 -10.827,-18.6 -5.82975,-3.424 -30.828748,-5.136 -41.007748,-5.136"
         style="fill:#f91536;fill-opacity:1;fill-rule:nonzero;stroke:none;stroke-width:0.999998"
         id="path79927" />
    </clipPath>
    <clipPath
       clipPathUnits="userSpaceOnUse"
       id="clipPath61369">
      <g
         id="g61373"
         transform="translate(-101.34445,-85.752294)">
        <path
           d="M -5.6226503,347.14799 H 221.14935 V 6.9909943 H -5.6226503 Z"
           id="path61371" />
      </g>
    </clipPath>
  </defs>
  <g
     inkscape:label="Layer 1"
     inkscape:groupmode="layer"
     id="layer1">
    <path
       d="m 64.51854,149.3685 h -1.296006 c -3.822681,0 -6.353356,-0.98667 -7.588027,-2.96267 -1.23334,-1.97068 -1.852009,-3.88535 -1.852009,-5.73603 0,-1.356 0.649337,-3.05334 1.944008,-5.09068 1.296004,-2.03468 3.794682,-3.05335 7.496028,-3.05335 h 3.146681 c 11.596043,0 42.582825,-1.44933 47.644175,-4.34935 5.05868,-2.89734 7.58936,-6.50669 7.58936,-10.8267 0,-2.96135 -1.60667,-6.81603 -4.81335,-11.56805 -3.20934,-4.74802 -8.54537,-10.425373 -16.00939,-17.028063 C 93.314644,82.154917 83.290608,74.59622 70.70523,66.081524 l 0.183988,-1.480008 c 0.49467,-6.66269 1.23467,-11.226709 2.221342,-13.69605 0.494671,-0.986672 2.961343,-2.776009 7.402693,-5.366689 C 88.533282,40.726764 98.495988,35.450743 110.40403,29.714721 122.31074,23.976033 134.24812,19.070682 146.2175,15 l -2.96002,16.286726 c -9.00936,3.210679 -19.3134,7.436031 -30.90944,12.678716 -11.59871,5.24535 -20.97741,10.026705 -28.13344,14.342718 l 5.182685,3.888015 c 7.526697,5.676021 14.650725,11.414709 21.377415,17.212063 6.72403,5.801354 12.21604,11.816045 16.47206,18.044067 4.25735,6.233355 6.38536,12.989385 6.38536,20.268085 0,10.9827 -4.81068,19.24673 -14.43605,24.80009 -7.77337,4.56535 -41.105491,6.84802 -54.677542,6.84802"
       style="fill:#f91536;fill-opacity:1;fill-rule:nonzero;stroke:none;stroke-width:1.33334"
       id="path44861"
       clip-path="none" />
  </g>
</svg>
