<?xml version="1.0" encoding="UTF-8" standalone="no"?>
<!-- Created with Inkscape (http://www.inkscape.org/) -->

<svg
   version="1.1"
   id="svg18"
   width="300"
   height="150"
   viewBox="0 0 300.00002 150"
   sodipodi:docname="1430_word.svg"
   inkscape:version="1.2.1 (9c6d41e410, 2022-07-14)"
   xmlns:inkscape="http://www.inkscape.org/namespaces/inkscape"
   xmlns:sodipodi="http://sodipodi.sourceforge.net/DTD/sodipodi-0.dtd"
   xmlns="http://www.w3.org/2000/svg"
   xmlns:svg="http://www.w3.org/2000/svg">
  <sodipodi:namedview
     id="namedview37"
     pagecolor="#ffffff"
     bordercolor="#000000"
     borderopacity="0.25"
     inkscape:showpageshadow="2"
     inkscape:pageopacity="0.0"
     inkscape:pagecheckerboard="0"
     inkscape:deskcolor="#d1d1d1"
     showgrid="false"
     inkscape:zoom="4.0941839"
     inkscape:cx="104.17216"
     inkscape:cy="106.24828"
     inkscape:window-width="1700"
     inkscape:window-height="1396"
     inkscape:window-x="8"
     inkscape:window-y="28"
     inkscape:window-maximized="1"
     inkscape:current-layer="svg18" />
  <defs
     id="defs22">
    <clipPath
       clipPathUnits="userSpaceOnUse"
       id="clipPath2796">
      <path
         d="M 0,340.157 H 226.772 V 0 H 0 Z"
         id="path2794" />
    </clipPath>
    <clipPath
       clipPathUnits="userSpaceOnUse"
       id="clipPath2804">
      <path
         d="M 246.772,340.157 H 473.544 V 0 H 246.772 Z"
         id="path2802" />
    </clipPath>
    <clipPath
       clipPathUnits="userSpaceOnUse"
       id="clipPath2812">
      <path
         d="M 246.772,0 H 473.544 V 340.157 H 246.772 Z"
         id="path2810" />
    </clipPath>
    <clipPath
       clipPathUnits="userSpaceOnUse"
       id="clipPath2820">
      <path
         d="M 246.772,340.157 H 473.544 V 0 H 246.772 Z"
         id="path2818" />
    </clipPath>
    <clipPath
       clipPathUnits="userSpaceOnUse"
       id="clipPath2828">
      <path
         d="m 438.313,-190.079 c 0,-43.163 -34.991,-78.155 -78.155,-78.155 -43.164,0 -78.155,34.992 -78.155,78.155 0,43.164 34.991,78.155 78.155,78.155 43.164,0 78.155,-34.991 78.155,-78.155"
         id="path2826" />
    </clipPath>
    <clipPath
       clipPathUnits="userSpaceOnUse"
       id="clipPath702936">
      <path
         d="M 0,340.157 H 226.772 V 0 H 0 Z"
         id="path702934" />
    </clipPath>
    <clipPath
       clipPathUnits="userSpaceOnUse"
       id="clipPath703010">
      <path
         d="M 0,340.157 H 226.772 V 0 H 0 Z"
         id="path703008" />
    </clipPath>
    <clipPath
       clipPathUnits="userSpaceOnUse"
       id="clipPath703120">
      <path
         d="M 0,-20 H 226.772 V -360.157 H 0 Z"
         id="path703118" />
    </clipPath>
    <clipPath
       clipPathUnits="userSpaceOnUse"
       id="clipPath703128">
      <path
         d="M 0,-360.157 H 226.772 V -20 H 0 Z"
         id="path703126" />
    </clipPath>
    <clipPath
       clipPathUnits="userSpaceOnUse"
       id="clipPath703136">
      <path
         d="M 0,-20 H 226.772 V -360.157 H 0 Z"
         id="path703134" />
    </clipPath>
    <clipPath
       clipPathUnits="userSpaceOnUse"
       id="clipPath703144">
      <path
         d="m 438.313,-190.078 c 0,-43.164 -34.992,-78.155 -78.156,-78.155 -43.163,0 -78.154,34.991 -78.154,78.155 0,43.164 34.991,78.155 78.154,78.155 43.164,0 78.156,-34.991 78.156,-78.155"
         id="path703142" />
    </clipPath>
    <clipPath
       clipPathUnits="userSpaceOnUse"
       id="clipPath703160">
      <path
         d="M 246.772,-20 H 473.544 V -360.157 H 246.772 Z"
         id="path703158" />
    </clipPath>
    <clipPath
       clipPathUnits="userSpaceOnUse"
       id="clipPath703168">
      <path
         d="M 246.772,-360.157 H 473.544 V -20 H 246.772 Z"
         id="path703166" />
    </clipPath>
    <clipPath
       clipPathUnits="userSpaceOnUse"
       id="clipPath703176">
      <path
         d="m 282.002,-190.079 c 0,-43.163 34.993,-78.154 78.156,-78.154 43.164,0 78.155,34.991 78.155,78.154 0,43.164 -34.991,78.156 -78.155,78.156 -43.163,0 -78.156,-34.992 -78.156,-78.156"
         id="path703174" />
    </clipPath>
    <clipPath
       clipPathUnits="userSpaceOnUse"
       id="clipPath720772">
      <g
         id="g720776"
         transform="matrix(0.75000002,0,0,-0.75000002,-117.18415,74.879174)">
        <path
           d="M -45.430862,-131.30857 H 256.9318 V 322.23409 H -45.430862 Z"
           id="path720774"
           style="stroke-width:1.33333" />
      </g>
    </clipPath>
    <clipPath
       clipPathUnits="userSpaceOnUse"
       id="clipPath720778">
      <g
         id="g720782"
         transform="matrix(0.75000002,0,0,-0.75000002,-78.789654,69.358173)">
        <path
           d="M -45.430862,-131.30857 H 256.9318 V 322.23409 H -45.430862 Z"
           id="path720780"
           style="stroke-width:1.33333" />
      </g>
    </clipPath>
    <clipPath
       clipPathUnits="userSpaceOnUse"
       id="clipPath720784">
      <g
         id="g720788"
         transform="matrix(0.75000002,0,0,-0.75000002,34.073147,241.67557)">
        <path
           d="M -45.430862,-131.30857 H 256.9318 V 322.23409 H -45.430862 Z"
           id="path720786"
           style="stroke-width:1.33333" />
      </g>
    </clipPath>
    <clipPath
       clipPathUnits="userSpaceOnUse"
       id="clipPath703262">
      <path
         d="M -246.772,-20 H -20 v -340.157 h -226.772 z"
         id="path703260" />
    </clipPath>
    <clipPath
       clipPathUnits="userSpaceOnUse"
       id="clipPath703270">
      <path
         d="M -246.772,-360.157 H -20 V -20 h -226.772 z"
         id="path703268" />
    </clipPath>
    <clipPath
       clipPathUnits="userSpaceOnUse"
       id="clipPath703278">
      <path
         d="M -246.772,-20 H -20 v -340.157 h -226.772 z"
         id="path703276" />
    </clipPath>
    <clipPath
       clipPathUnits="userSpaceOnUse"
       id="clipPath703286">
      <path
         d="m 191.541,-190.078 c 0,-43.164 -34.992,-78.155 -78.156,-78.155 -43.163,0 -78.154,34.991 -78.154,78.155 0,43.164 34.991,78.155 78.154,78.155 43.164,0 78.156,-34.991 78.156,-78.155"
         id="path703284" />
    </clipPath>
    <clipPath
       clipPathUnits="userSpaceOnUse"
       id="clipPath703298">
      <path
         d="M 0,-20 H 226.772 V -360.157 H 0 Z"
         id="path703296" />
    </clipPath>
    <clipPath
       clipPathUnits="userSpaceOnUse"
       id="clipPath703306">
      <path
         d="M 0,-360.157 H 226.772 V -20 H 0 Z"
         id="path703304" />
    </clipPath>
    <clipPath
       clipPathUnits="userSpaceOnUse"
       id="clipPath703314">
      <path
         d="m 35.23,-190.079 c 0,-43.163 34.993,-78.154 78.156,-78.154 43.164,0 78.155,34.991 78.155,78.154 0,43.164 -34.991,78.156 -78.155,78.156 -43.163,0 -78.156,-34.992 -78.156,-78.156"
         id="path703312" />
    </clipPath>
    <clipPath
       clipPathUnits="userSpaceOnUse"
       id="clipPath721254">
      <g
         id="g721258"
         transform="matrix(0.75000002,0,0,-0.75000002,-143.46681,15.486327)">
        <path
           d="M 8.3138826,-226.73543 H 310.67654 V 226.80723 H 8.3138826 Z"
           id="path721256"
           style="stroke-width:1.33333" />
      </g>
    </clipPath>
    <clipPath
       clipPathUnits="userSpaceOnUse"
       id="clipPath721260">
      <g
         id="g721264"
         transform="matrix(0.75000002,0,0,-0.75000002,-150.19041,29.105427)">
        <path
           d="M 8.3138826,-226.73543 H 310.67654 V 226.80723 H 8.3138826 Z"
           id="path721262"
           style="stroke-width:1.33333" />
      </g>
    </clipPath>
    <clipPath
       clipPathUnits="userSpaceOnUse"
       id="clipPath721266">
      <g
         id="g721270"
         transform="matrix(0.75000002,0,0,-0.75000002,-6.2354121,170.10543)">
        <path
           d="M 8.3138826,-226.73543 H 310.67654 V 226.80723 H 8.3138826 Z"
           id="path721268"
           style="stroke-width:1.33333" />
      </g>
    </clipPath>
    <clipPath
       clipPathUnits="userSpaceOnUse"
       id="clipPath703432">
      <path
         d="M 0,340.157 H 226.772 V 0 H 0 Z"
         id="path703430" />
    </clipPath>
    <clipPath
       clipPathUnits="userSpaceOnUse"
       id="clipPath703542">
      <path
         d="M 0,340.157 H 226.772 V 0 H 0 Z"
         id="path703540" />
    </clipPath>
    <clipPath
       clipPathUnits="userSpaceOnUse"
       id="clipPath713424">
      <path
         d="M 0,340.157 H 226.772 V 0 H 0 Z"
         id="path713422" />
    </clipPath>
    <clipPath
       clipPathUnits="userSpaceOnUse"
       id="clipPath713526">
      <path
         d="M 0,340.157 H 226.772 V 0 H 0 Z"
         id="path713524" />
    </clipPath>
    <clipPath
       clipPathUnits="userSpaceOnUse"
       id="clipPath713616">
      <path
         d="M 0,340.157 H 226.772 V 0 H 0 Z"
         id="path713614" />
    </clipPath>
    <clipPath
       clipPathUnits="userSpaceOnUse"
       id="clipPath713690">
      <path
         d="M 0,340.157 H 226.772 V 0 H 0 Z"
         id="path713688" />
    </clipPath>
    <clipPath
       clipPathUnits="userSpaceOnUse"
       id="clipPath713764">
      <path
         d="M 0,340.157 H 226.772 V 0 H 0 Z"
         id="path713762" />
    </clipPath>
    <clipPath
       clipPathUnits="userSpaceOnUse"
       id="clipPath713874">
      <path
         d="M 0,340.157 H 226.772 V 0 H 0 Z"
         id="path713872" />
    </clipPath>
    <clipPath
       clipPathUnits="userSpaceOnUse"
       id="clipPath713874-3">
      <path
         d="M 0,340.157 H 226.772 V 0 H 0 Z"
         id="path713872-6" />
    </clipPath>
    <clipPath
       clipPathUnits="userSpaceOnUse"
       id="clipPath718030">
      <path
         d="M 0,340.157 H 226.772 V 0 H 0 Z"
         id="path718028" />
    </clipPath>
    <clipPath
       clipPathUnits="userSpaceOnUse"
       id="clipPath718104">
      <path
         d="M 0,340.157 H 226.772 V 0 H 0 Z"
         id="path718102" />
    </clipPath>
    <clipPath
       clipPathUnits="userSpaceOnUse"
       id="clipPath718178">
      <path
         d="M 0,340.157 H 226.772 V 0 H 0 Z"
         id="path718176" />
    </clipPath>
    <clipPath
       clipPathUnits="userSpaceOnUse"
       id="clipPath718296">
      <path
         d="M 0,340.157 H 226.772 V 0 H 0 Z"
         id="path718294" />
    </clipPath>
    <clipPath
       clipPathUnits="userSpaceOnUse"
       id="clipPath718398">
      <path
         d="M 0,340.157 H 226.772 V 0 H 0 Z"
         id="path718396" />
    </clipPath>
    <clipPath
       clipPathUnits="userSpaceOnUse"
       id="clipPath718484">
      <path
         d="M 0,340.157 H 226.772 V 0 H 0 Z"
         id="path718482" />
    </clipPath>
    <clipPath
       clipPathUnits="userSpaceOnUse"
       id="clipPath718558">
      <path
         d="M 0,340.157 H 226.772 V 0 H 0 Z"
         id="path718556" />
    </clipPath>
    <clipPath
       clipPathUnits="userSpaceOnUse"
       id="clipPath745984">
      <path
         d="M 0,340.157 H 226.772 V 0 H 0 Z"
         id="path745982" />
    </clipPath>
    <clipPath
       clipPathUnits="userSpaceOnUse"
       id="clipPath746070">
      <path
         d="M 0,340.157 H 226.772 V 0 H 0 Z"
         id="path746068" />
    </clipPath>
    <clipPath
       clipPathUnits="userSpaceOnUse"
       id="clipPath746144">
      <path
         d="M 0,340.157 H 226.772 V 0 H 0 Z"
         id="path746142" />
    </clipPath>
    <clipPath
       clipPathUnits="userSpaceOnUse"
       id="clipPath746274">
      <path
         d="M 0,340.157 H 226.772 V 0 H 0 Z"
         id="path746272" />
    </clipPath>
    <clipPath
       clipPathUnits="userSpaceOnUse"
       id="clipPath746400">
      <path
         d="M 0,340.157 H 226.772 V 0 H 0 Z"
         id="path746398" />
    </clipPath>
    <clipPath
       clipPathUnits="userSpaceOnUse"
       id="clipPath746502">
      <path
         d="M 0,340.157 H 226.772 V 0 H 0 Z"
         id="path746500" />
    </clipPath>
    <clipPath
       clipPathUnits="userSpaceOnUse"
       id="clipPath746510">
      <path
         d="M -246.772,340.157 H -20 V 0 h -226.772 z"
         id="path746508" />
    </clipPath>
    <clipPath
       clipPathUnits="userSpaceOnUse"
       id="clipPath746518">
      <path
         d="M -246.772,340.157 H -20 V 0 h -226.772 z"
         id="path746516" />
    </clipPath>
    <clipPath
       clipPathUnits="userSpaceOnUse"
       id="clipPath746616">
      <path
         d="M 0,340.157 H 226.772 V 0 H 0 Z"
         id="path746614" />
    </clipPath>
    <clipPath
       clipPathUnits="userSpaceOnUse"
       id="clipPath746694">
      <path
         d="M 0,340.157 H 226.772 V 0 H 0 Z"
         id="path746692" />
    </clipPath>
    <clipPath
       clipPathUnits="userSpaceOnUse"
       id="clipPath746780">
      <path
         d="M 0,340.157 H 226.772 V 0 H 0 Z"
         id="path746778" />
    </clipPath>
    <clipPath
       clipPathUnits="userSpaceOnUse"
       id="clipPath746858">
      <path
         d="M 0,340.157 H 226.772 V 0 H 0 Z"
         id="path746856" />
    </clipPath>
    <clipPath
       clipPathUnits="userSpaceOnUse"
       id="clipPath746936">
      <path
         d="M 0,340.157 H 226.772 V 0 H 0 Z"
         id="path746934" />
    </clipPath>
    <clipPath
       clipPathUnits="userSpaceOnUse"
       id="clipPath747022">
      <path
         d="M 0,340.157 H 226.772 V 0 H 0 Z"
         id="path747020" />
    </clipPath>
    <clipPath
       clipPathUnits="userSpaceOnUse"
       id="clipPath747112">
      <path
         d="M 0,340.157 H 226.772 V 0 H 0 Z"
         id="path747110" />
    </clipPath>
    <clipPath
       clipPathUnits="userSpaceOnUse"
       id="clipPath747198">
      <path
         d="M 0,340.157 H 226.772 V 0 H 0 Z"
         id="path747196" />
    </clipPath>
    <clipPath
       clipPathUnits="userSpaceOnUse"
       id="clipPath747284">
      <path
         d="M 0,340.157 H 226.772 V 0 H 0 Z"
         id="path747282" />
    </clipPath>
    <clipPath
       clipPathUnits="userSpaceOnUse"
       id="clipPath747366">
      <path
         d="M 0,340.157 H 226.772 V 0 H 0 Z"
         id="path747364" />
    </clipPath>
    <clipPath
       clipPathUnits="userSpaceOnUse"
       id="clipPath747448">
      <path
         d="M 0,340.157 H 226.772 V 0 H 0 Z"
         id="path747446" />
    </clipPath>
    <clipPath
       clipPathUnits="userSpaceOnUse"
       id="clipPath747530">
      <path
         d="M 0,340.157 H 226.772 V 0 H 0 Z"
         id="path747528" />
    </clipPath>
    <clipPath
       clipPathUnits="userSpaceOnUse"
       id="clipPath747616">
      <path
         d="M 0,340.157 H 226.772 V 0 H 0 Z"
         id="path747614" />
    </clipPath>
    <clipPath
       clipPathUnits="userSpaceOnUse"
       id="clipPath747694">
      <path
         d="M 0,340.157 H 226.772 V 0 H 0 Z"
         id="path747692" />
    </clipPath>
    <clipPath
       clipPathUnits="userSpaceOnUse"
       id="clipPath747772">
      <path
         d="M 0,340.157 H 226.772 V 0 H 0 Z"
         id="path747770" />
    </clipPath>
    <clipPath
       clipPathUnits="userSpaceOnUse"
       id="clipPath747850">
      <path
         d="M 0,340.157 H 226.772 V 0 H 0 Z"
         id="path747848" />
    </clipPath>
    <clipPath
       clipPathUnits="userSpaceOnUse"
       id="clipPath747948">
      <path
         d="M 0,340.157 H 226.772 V 0 H 0 Z"
         id="path747946" />
    </clipPath>
    <clipPath
       clipPathUnits="userSpaceOnUse"
       id="clipPath748026">
      <path
         d="M 0,340.157 H 226.772 V 0 H 0 Z"
         id="path748024" />
    </clipPath>
    <clipPath
       clipPathUnits="userSpaceOnUse"
       id="clipPath748108">
      <path
         d="M 0,340.157 H 226.772 V 0 H 0 Z"
         id="path748106" />
    </clipPath>
    <clipPath
       clipPathUnits="userSpaceOnUse"
       id="clipPath783955">
      <path
         d="M 0,340.157 H 226.772 V 0 H 0 Z"
         id="path783953" />
    </clipPath>
    <clipPath
       clipPathUnits="userSpaceOnUse"
       id="clipPath784037">
      <path
         d="M 0,340.157 H 226.772 V 0 H 0 Z"
         id="path784035" />
    </clipPath>
    <clipPath
       clipPathUnits="userSpaceOnUse"
       id="clipPath784115">
      <path
         d="M 0,340.157 H 226.772 V 0 H 0 Z"
         id="path784113" />
    </clipPath>
    <clipPath
       clipPathUnits="userSpaceOnUse"
       id="clipPath784241">
      <path
         d="M 0,340.157 H 226.772 V 0 H 0 Z"
         id="path784239" />
    </clipPath>
    <clipPath
       clipPathUnits="userSpaceOnUse"
       id="clipPath784371">
      <path
         d="M 0,340.157 H 226.772 V 0 H 0 Z"
         id="path784369" />
    </clipPath>
    <clipPath
       clipPathUnits="userSpaceOnUse"
       id="clipPath784461">
      <path
         d="M 0,340.157 H 226.772 V 0 H 0 Z"
         id="path784459" />
    </clipPath>
    <clipPath
       clipPathUnits="userSpaceOnUse"
       id="clipPath784543">
      <path
         d="M 0,340.157 H 226.772 V 0 H 0 Z"
         id="path784541" />
    </clipPath>
    <clipPath
       clipPathUnits="userSpaceOnUse"
       id="clipPath784625">
      <path
         d="M 0,340.157 H 226.772 V 0 H 0 Z"
         id="path784623" />
    </clipPath>
    <clipPath
       clipPathUnits="userSpaceOnUse"
       id="clipPath784707">
      <path
         d="M 0,340.157 H 226.772 V 0 H 0 Z"
         id="path784705" />
    </clipPath>
    <clipPath
       clipPathUnits="userSpaceOnUse"
       id="clipPath784707-7">
      <path
         d="M 0,340.157 H 226.772 V 0 H 0 Z"
         id="path784705-5" />
    </clipPath>
    <clipPath
       clipPathUnits="userSpaceOnUse"
       id="clipPath800733">
      <path
         d="M 0,340.157 H 226.772 V 0 H 0 Z"
         id="path800731" />
    </clipPath>
    <clipPath
       clipPathUnits="userSpaceOnUse"
       id="clipPath800847">
      <path
         d="M 0,340.157 H 226.772 V 0 H 0 Z"
         id="path800845" />
    </clipPath>
    <clipPath
       clipPathUnits="userSpaceOnUse"
       id="clipPath819863">
      <path
         d="M 0,340.157 H 226.772 V 0 H 0 Z"
         id="path819861" />
    </clipPath>
    <clipPath
       clipPathUnits="userSpaceOnUse"
       id="clipPath819973">
      <path
         d="M 0,340.157 H 226.772 V 0 H 0 Z"
         id="path819971" />
    </clipPath>
    <clipPath
       clipPathUnits="userSpaceOnUse"
       id="clipPath820055">
      <path
         d="M 0,340.157 H 226.772 V 0 H 0 Z"
         id="path820053" />
    </clipPath>
    <clipPath
       clipPathUnits="userSpaceOnUse"
       id="clipPath820177">
      <path
         d="M 0,340.157 H 226.772 V 0 H 0 Z"
         id="path820175" />
    </clipPath>
    <clipPath
       clipPathUnits="userSpaceOnUse"
       id="clipPath820311">
      <path
         d="M 0,340.157 H 226.772 V 0 H 0 Z"
         id="path820309" />
    </clipPath>
    <clipPath
       clipPathUnits="userSpaceOnUse"
       id="clipPath820441">
      <path
         d="M 0,340.157 H 226.772 V 0 H 0 Z"
         id="path820439" />
    </clipPath>
    <clipPath
       clipPathUnits="userSpaceOnUse"
       id="clipPath820523">
      <path
         d="M 0,340.157 H 226.772 V 0 H 0 Z"
         id="path820521" />
    </clipPath>
    <clipPath
       clipPathUnits="userSpaceOnUse"
       id="clipPath831541">
      <path
         d="M 0,340.157 H 226.772 V 0 H 0 Z"
         id="path831539" />
    </clipPath>
    <clipPath
       clipPathUnits="userSpaceOnUse"
       id="clipPath831667">
      <path
         d="M 0,340.157 H 226.772 V 0 H 0 Z"
         id="path831665" />
    </clipPath>
    <clipPath
       clipPathUnits="userSpaceOnUse"
       id="clipPath831797">
      <path
         d="M 0,340.157 H 226.772 V 0 H 0 Z"
         id="path831795" />
    </clipPath>
    <clipPath
       clipPathUnits="userSpaceOnUse"
       id="clipPath831927">
      <path
         d="M 0,340.157 H 226.772 V 0 H 0 Z"
         id="path831925" />
    </clipPath>
    <clipPath
       clipPathUnits="userSpaceOnUse"
       id="clipPath832005">
      <path
         d="M 0,340.157 H 226.772 V 0 H 0 Z"
         id="path832003" />
    </clipPath>
    <clipPath
       clipPathUnits="userSpaceOnUse"
       id="clipPath832087">
      <path
         d="M 0,340.157 H 226.772 V 0 H 0 Z"
         id="path832085" />
    </clipPath>
    <clipPath
       clipPathUnits="userSpaceOnUse"
       id="clipPath832095">
      <path
         d="M -246.772,340.157 H -20 V 0 h -226.772 z"
         id="path832093" />
    </clipPath>
    <clipPath
       clipPathUnits="userSpaceOnUse"
       id="clipPath832103">
      <path
         d="M -246.772,340.157 H -20 V 0 h -226.772 z"
         id="path832101" />
    </clipPath>
    <clipPath
       clipPathUnits="userSpaceOnUse"
       id="clipPath832201">
      <path
         d="M 0,340.157 H 226.772 V 0 H 0 Z"
         id="path832199" />
    </clipPath>
    <clipPath
       clipPathUnits="userSpaceOnUse"
       id="clipPath832209">
      <path
         d="M -246.772,340.157 H -20 V 0 h -226.772 z"
         id="path832207" />
    </clipPath>
    <clipPath
       clipPathUnits="userSpaceOnUse"
       id="clipPath832217">
      <path
         d="M -246.772,340.157 H -20 V 0 h -226.772 z"
         id="path832215" />
    </clipPath>
    <clipPath
       clipPathUnits="userSpaceOnUse"
       id="clipPath832315">
      <path
         d="M 0,340.157 H 226.772 V 0 H 0 Z"
         id="path832313" />
    </clipPath>
    <clipPath
       clipPathUnits="userSpaceOnUse"
       id="clipPath832323">
      <path
         d="M -246.772,340.157 H -20 V 0 h -226.772 z"
         id="path832321" />
    </clipPath>
    <clipPath
       clipPathUnits="userSpaceOnUse"
       id="clipPath832331">
      <path
         d="M -246.772,340.157 H -20 V 0 h -226.772 z"
         id="path832329" />
    </clipPath>
    <clipPath
       clipPathUnits="userSpaceOnUse"
       id="clipPath832433">
      <path
         d="M 0,340.157 H 226.772 V 0 H 0 Z"
         id="path832431" />
    </clipPath>
    <clipPath
       clipPathUnits="userSpaceOnUse"
       id="clipPath832441">
      <path
         d="M -246.772,340.157 H -20 V 0 h -226.772 z"
         id="path832439" />
    </clipPath>
    <clipPath
       clipPathUnits="userSpaceOnUse"
       id="clipPath832449">
      <path
         d="M -246.772,340.157 H -20 V 0 h -226.772 z"
         id="path832447" />
    </clipPath>
    <clipPath
       clipPathUnits="userSpaceOnUse"
       id="clipPath832595">
      <path
         d="M 0,340.157 H 226.772 V 0 H 0 Z"
         id="path832593" />
    </clipPath>
    <clipPath
       clipPathUnits="userSpaceOnUse"
       id="clipPath851468">
      <path
         d="M 0,340.157 H 226.772 V 0 H 0 Z"
         id="path851466" />
    </clipPath>
    <clipPath
       clipPathUnits="userSpaceOnUse"
       id="clipPath851582">
      <path
         d="M 0,340.157 H 226.772 V 0 H 0 Z"
         id="path851580" />
    </clipPath>
    <clipPath
       clipPathUnits="userSpaceOnUse"
       id="clipPath851660">
      <path
         d="M 0,340.157 H 226.772 V 0 H 0 Z"
         id="path851658" />
    </clipPath>
    <clipPath
       clipPathUnits="userSpaceOnUse"
       id="clipPath851774">
      <path
         d="M 0,340.157 H 226.772 V 0 H 0 Z"
         id="path851772" />
    </clipPath>
    <clipPath
       clipPathUnits="userSpaceOnUse"
       id="clipPath851774-3">
      <path
         d="M 0,340.157 H 226.772 V 0 H 0 Z"
         id="path851772-5" />
    </clipPath>
    <clipPath
       clipPathUnits="userSpaceOnUse"
       id="clipPath852002">
      <path
         d="M 0,340.157 H 226.772 V 0 H 0 Z"
         id="path852000" />
    </clipPath>
    <clipPath
       clipPathUnits="userSpaceOnUse"
       id="clipPath852002-6">
      <path
         d="M 0,340.157 H 226.772 V 0 H 0 Z"
         id="path852000-2" />
    </clipPath>
    <clipPath
       clipPathUnits="userSpaceOnUse"
       id="clipPath855748">
      <path
         d="M 0,340.157 H 226.772 V 0 H 0 Z"
         id="path855746" />
    </clipPath>
    <clipPath
       clipPathUnits="userSpaceOnUse"
       id="clipPath855850">
      <path
         d="M 0,340.157 H 226.772 V 0 H 0 Z"
         id="path855848" />
    </clipPath>
    <clipPath
       clipPathUnits="userSpaceOnUse"
       id="clipPath855952">
      <path
         d="M 0,340.157 H 226.772 V 0 H 0 Z"
         id="path855950" />
    </clipPath>
    <clipPath
       clipPathUnits="userSpaceOnUse"
       id="clipPath856034">
      <path
         d="M 0,340.157 H 226.772 V 0 H 0 Z"
         id="path856032" />
    </clipPath>
    <clipPath
       clipPathUnits="userSpaceOnUse"
       id="clipPath856116">
      <path
         d="M 0,340.157 H 226.772 V 0 H 0 Z"
         id="path856114" />
    </clipPath>
    <clipPath
       clipPathUnits="userSpaceOnUse"
       id="clipPath856124">
      <path
         d="M -246.772,340.157 H -20 V 0 h -226.772 z"
         id="path856122" />
    </clipPath>
    <clipPath
       clipPathUnits="userSpaceOnUse"
       id="clipPath856132">
      <path
         d="M -246.772,340.157 H -20 V 0 h -226.772 z"
         id="path856130" />
    </clipPath>
    <clipPath
       clipPathUnits="userSpaceOnUse"
       id="clipPath856246">
      <path
         d="M 0,340.157 H 226.772 V 0 H 0 Z"
         id="path856244" />
    </clipPath>
    <clipPath
       clipPathUnits="userSpaceOnUse"
       id="clipPath867950">
      <path
         d="M 0,340.157 H 226.772 V 0 H 0 Z"
         id="path867948" />
    </clipPath>
  </defs>
  <g
     id="g867944"
     transform="matrix(1.3333333,0,0,-1.3333333,-1.1811296,303.8799)">
    <g
       id="g867946"
       clip-path="url(#clipPath867950)">
      <g
         id="g867952"
         transform="translate(82.5127,138.3696)">
        <path
           d="m 0,0 h -1.018 c -3.893,0 -6.769,0.75 -8.625,2.25 l 0.482,3.482 c 0.536,-0.428 1.232,-0.785 2.089,-1.071 0.858,-0.286 1.723,-0.5 2.598,-0.643 0.875,-0.142 1.635,-0.232 2.277,-0.268 l 0.911,-0.107 c 2.714,0.464 4.803,1.867 6.268,4.206 1.464,2.339 2.285,4.937 2.464,7.794 -0.428,3.035 -1.982,7.018 -4.66,11.946 l 3.91,1.982 c 1.143,-2.286 2.125,-4.5 2.947,-6.642 0.678,-1.393 1.463,-2.349 2.357,-2.867 0.892,-0.518 1.928,-0.776 3.107,-0.776 0.785,0 1.455,-0.197 2.009,-0.59 0.553,-0.393 0.83,-1 0.83,-1.821 0,-1.644 -0.946,-2.464 -2.839,-2.464 -1.607,0 -2.876,0.303 -3.804,0.91 0,-0.927 -0.072,-1.749 -0.214,-2.464 C 10.553,9.857 9.473,7.054 7.848,4.446 6.223,1.84 3.606,0.357 0,0"
           style="fill:#1d1d1b;fill-opacity:1;fill-rule:nonzero;stroke:none"
           id="path867954" />
      </g>
      <g
         id="g867956"
         transform="translate(119.3701,195.7339)">
        <path
           d="M 0,0 C -2.893,-1.179 -5.768,-2.161 -8.625,-2.946 L -9,-1.179 c 3.356,1.035 6.25,2.072 8.678,3.108 z"
           style="fill:#1d1d1b;fill-opacity:1;fill-rule:nonzero;stroke:none"
           id="path867958" />
      </g>
      <g
         id="g867960"
         transform="translate(116.8198,144.2622)">
        <path
           d="m 0,0 c 0,-1.821 -0.929,-2.803 -2.786,-2.946 -0.786,0 -1.438,0.267 -1.955,0.803 -0.518,0.537 -0.777,1.251 -0.777,2.143 0,0.857 0.259,1.554 0.777,2.09 0.517,0.535 1.187,0.804 2.009,0.804 C -1.054,2.894 -0.143,1.929 0,0 m 19.554,10.982 c 0,-1.643 -0.947,-2.463 -2.84,-2.463 -3.143,0 -5.571,0.677 -7.285,2.035 C 7.714,11.911 6.75,14.09 6.536,17.09 5.178,16.554 3.714,15.804 2.143,14.84 -1.393,12.518 -4.714,10.884 -7.821,9.938 c -3.107,-0.947 -7.09,-1.419 -11.947,-1.419 -0.892,0 -1.571,0.231 -2.035,0.696 -0.464,0.464 -0.697,1.035 -0.697,1.714 0,0.607 0.206,1.17 0.616,1.687 0.411,0.518 1.117,0.778 2.116,0.778 h 0.643 c 6.821,0 12.339,1.071 16.554,3.213 l 3.268,1.608 c 1.392,0.714 2.571,1.231 3.535,1.554 -1.25,0.392 -2.607,0.891 -4.071,1.5 -1.607,0.713 -3.286,1.356 -5.036,1.927 -1.75,0.572 -3.536,0.858 -5.357,0.858 -2.965,0 -5.322,-0.483 -7.071,-1.447 l 0.803,4.447 c 1.678,0.892 3.839,1.34 6.482,1.34 2.321,0 4.562,-0.349 6.724,-1.045 2.16,-0.697 4.383,-1.599 6.669,-2.705 1.893,-0.823 3.456,-1.359 4.688,-1.608 1.232,-0.25 2.437,-0.375 3.616,-0.375 h 1.553 l -0.75,-4.446 h -1.446 c -0.429,0 -0.893,-0.036 -1.393,-0.108 0.214,-1.893 0.991,-3.152 2.33,-3.776 1.34,-0.626 2.92,-0.937 4.741,-0.937 0.786,0 1.455,-0.198 2.009,-0.59 0.554,-0.394 0.831,-1 0.831,-1.822"
           style="fill:#1d1d1b;fill-opacity:1;fill-rule:nonzero;stroke:none"
           id="path867962" />
      </g>
      <g
         id="g867964"
         transform="translate(155.9697,199.8589)">
        <path
           d="M 0,0 C -2.893,-1.179 -5.768,-2.161 -8.625,-2.946 L -9,-1.179 c 3.357,1.035 6.25,2.072 8.679,3.108 z"
           style="fill:#1d1d1b;fill-opacity:1;fill-rule:nonzero;stroke:none"
           id="path867966" />
      </g>
      <g
         id="g867968"
         transform="translate(159.0234,176.4585)">
        <path
           d="m 0,0 c 0,-1.75 -0.875,-2.714 -2.625,-2.893 -0.786,0 -1.429,0.259 -1.929,0.778 -0.5,0.516 -0.75,1.222 -0.75,2.115 0,0.785 0.25,1.447 0.75,1.982 0.5,0.537 1.143,0.804 1.929,0.804 0.821,0 1.464,-0.267 1.929,-0.804 C -0.232,1.447 0,0.785 0,0 m -3.429,6.429 c 0,-1.75 -0.893,-2.697 -2.678,-2.839 -0.786,0 -1.42,0.249 -1.902,0.75 -0.482,0.5 -0.723,1.196 -0.723,2.089 0,0.821 0.241,1.5 0.723,2.036 0.482,0.535 1.116,0.804 1.902,0.804 1.678,0 2.571,-0.948 2.678,-2.84 M -7.018,0 c 0,-1.75 -0.893,-2.714 -2.678,-2.893 -0.786,0 -1.429,0.259 -1.929,0.778 -0.5,0.516 -0.75,1.222 -0.75,2.115 0,0.785 0.259,1.447 0.777,1.982 0.517,0.537 1.152,0.804 1.902,0.804 0.785,0 1.427,-0.267 1.928,-0.804 0.5,-0.535 0.75,-1.197 0.75,-1.982 m 6.643,-23.678 c -2.893,0 -4.804,1.249 -5.732,3.75 -1.358,-2.501 -3.482,-3.75 -6.375,-3.75 -2.786,0 -4.5,1.303 -5.143,3.91 -1.714,-2.607 -4.339,-3.91 -7.875,-3.91 -1.035,0 -1.75,0.258 -2.143,0.777 -0.392,0.517 -0.589,1.062 -0.589,1.633 0,0.678 0.214,1.259 0.643,1.742 0.428,0.482 1.125,0.723 2.089,0.723 2.606,0 4.473,0.669 5.598,2.009 1.125,1.339 1.883,3.151 2.277,5.438 l 3.429,0.16 c -0.501,-1.572 -0.75,-2.929 -0.75,-4.072 0,-2.5 0.982,-3.75 2.946,-3.75 1.428,0 2.589,0.5 3.482,1.5 0.893,1 1.571,2.84 2.036,5.518 l 3.375,0.161 c -0.036,-0.072 -0.054,-0.161 -0.054,-0.267 -0.25,-0.787 -0.375,-1.751 -0.375,-2.894 0,-2.643 1.214,-3.964 3.643,-3.964 1.179,0 2.161,0.384 2.947,1.152 0.785,0.767 1.178,1.758 1.178,2.973 0,0.929 -0.187,2.018 -0.562,3.268 -0.375,1.25 -0.795,2.357 -1.259,3.321 l 3.91,1.125 c 0.858,-1.679 1.286,-4 1.286,-6.964 0,-3.036 -0.776,-5.393 -2.33,-7.071 -1.554,-1.68 -3.438,-2.518 -5.652,-2.518"
           style="fill:#1d1d1b;fill-opacity:1;fill-rule:nonzero;stroke:none"
           id="path867970" />
      </g>
      <g
         id="g867972"
         transform="translate(67.2129,186.3696)">
        <path
           d="m 0,0 c 0,-1.75 -0.911,-2.697 -2.732,-2.839 -0.786,0 -1.438,0.249 -1.955,0.75 -0.519,0.499 -0.777,1.195 -0.777,2.089 0,1.714 0.91,2.66 2.732,2.839 0.821,0 1.482,-0.259 1.982,-0.776 C -0.25,1.544 0,0.857 0,0"
           style="fill:#f91536;fill-opacity:1;fill-rule:nonzero;stroke:none"
           id="path867974" />
      </g>
      <g
         id="g867976"
         transform="translate(75.0073,160.4409)">
        <path
           d="m 0,0 c -0.411,-0.857 -1.063,-1.59 -1.955,-2.196 -0.893,-0.608 -2.036,-0.911 -3.429,-0.911 -1.607,0 -3.018,0.526 -4.232,1.581 -1.215,1.052 -1.822,2.507 -1.822,4.365 0,1.465 0.518,3.054 1.554,4.768 1.036,1.714 2.304,3.303 3.804,4.768 2.25,-1.821 3.928,-3.527 5.036,-5.116 C 0.062,5.669 0.616,4.053 0.616,2.411 0.616,1.661 0.41,0.857 0,0 m 1.098,10.5 c -1.714,2.429 -4.572,5.124 -8.571,8.089 l -2.465,-3.268 1.072,-0.803 c -1.714,-1.964 -3.143,-3.992 -4.286,-6.08 -1.143,-2.089 -1.714,-4.313 -1.714,-6.67 0,-1.714 0.357,-3.322 1.072,-4.822 0.713,-1.5 1.749,-2.715 3.106,-3.642 1.357,-0.93 2.982,-1.393 4.876,-1.393 1.535,0 3.053,0.375 4.553,1.125 1.5,0.75 2.759,1.883 3.777,3.401 1.018,1.518 1.527,3.437 1.527,5.759 0,2.786 -0.983,5.553 -2.947,8.304"
           style="fill:#f91536;fill-opacity:1;fill-rule:nonzero;stroke:none"
           id="path867978" />
      </g>
      <g
         id="g867980"
         transform="translate(74.3916,186.3696)">
        <path
           d="m 0,0 c 0,-1.75 -0.911,-2.697 -2.732,-2.839 -0.787,0 -1.42,0.249 -1.902,0.75 -0.482,0.499 -0.723,1.195 -0.723,2.089 0,1.714 0.875,2.66 2.625,2.839 C -1.054,2.839 -0.144,1.893 0,0"
           style="fill:#f91536;fill-opacity:1;fill-rule:nonzero;stroke:none"
           id="path867982" />
      </g>
    </g>
  </g>
</svg>
