<?xml version="1.0" encoding="UTF-8" standalone="no"?>
<!-- Created with Inkscape (http://www.inkscape.org/) -->

<svg
   version="1.1"
   id="svg126916"
   width="400"
   height="200"
   viewBox="0 0 400 200"
   sodipodi:docname="1440_word.pdf"
   xmlns:inkscape="http://www.inkscape.org/namespaces/inkscape"
   xmlns:sodipodi="http://sodipodi.sourceforge.net/DTD/sodipodi-0.dtd"
   xmlns="http://www.w3.org/2000/svg"
   xmlns:svg="http://www.w3.org/2000/svg">
  <defs
     id="defs126920">
    <clipPath
       clipPathUnits="userSpaceOnUse"
       id="clipPath126938">
      <path
         d="M 0,-215.69416 H 300 V 215.69416 H 0 Z"
         id="path126936" />
    </clipPath>
  </defs>
  <sodipodi:namedview
     id="namedview126918"
     pagecolor="#ffffff"
     bordercolor="#000000"
     borderopacity="0.25"
     inkscape:showpageshadow="2"
     inkscape:pageopacity="0.0"
     inkscape:pagecheckerboard="0"
     inkscape:deskcolor="#d1d1d1" />
  <g
     id="g126922"
     inkscape:groupmode="layer"
     inkscape:label="1440_word18"
     transform="matrix(1.3333333,0,0,-1.3333333,0,200)">
    <g
       id="g126924">
      <g
         id="g126926">
        <g
           id="g126928"
           transform="translate(100.28,102.94926)">
          <g
             id="g126930"
             transform="matrix(0.33334,0,0,0.33334,0,-23.96633)">
            <g
               id="g126932">
              <g
                 id="g126934" />
              <g
                 id="g126966">
                <g
                   clip-path="url(#clipPath126938)"
                   id="g126964">
                  <g
                     transform="translate(0,71.89852)"
                     id="g126946">
                    <g
                       id="g126944">
                      <g
                         id="g126942">
                        <path
                           d="m 55.0266,-212.158 c -16.6472,0 -29.9828,4.787 -40.0066,14.363 C 5.00668,-188.22 0,-175.255 0,-158.9 c 0,11.046 2.50334,22.906 7.51002,35.579 l 12.81398,-2.206 c -2.9414,-10.024 -4.4121,-19.01 -4.4121,-26.958 0,-9.878 2.06,-17.836 6.1801,-23.875 4.1305,-6.04 9.3614,-10.384 15.6928,-13.033 6.3314,-2.66 12.814,-3.99 19.4478,-3.99 9.5753,0 18.1962,1.919 25.8627,5.758 12.6732,6.331 19.0097,14.655 19.0097,24.97 L 95.2521,-1.31425 112.04,0 l 4.428,-118.236 c 1.033,-6.331 2.874,-11.119 5.523,-14.363 2.649,-3.244 5.669,-5.382 9.059,-6.415 3.39,-1.032 6.743,-1.549 10.06,-1.549 3.317,0 6.118,-0.771 8.402,-2.315 2.284,-1.544 3.427,-4.011 3.427,-7.401 0,-6.78 -3.98,-10.17 -11.938,-10.17 -10.754,0 -18.567,3.609 -23.438,10.827 l 0.235,-6.18 c 0,-12.965 -2.211,-22.102 -6.634,-27.411 -5.893,-9.284 -13.8883,-16.428 -23.9851,-21.435 -10.0864,-5.007 -20.8038,-7.51 -32.1523,-7.51 z"
                           style="fill:#000000;fill-opacity:1;fill-rule:nonzero;stroke:none"
                           id="path126940" />
                      </g>
                    </g>
                  </g>
                  <g
                     transform="translate(129.77585,-23.35362)"
                     id="g126954">
                    <g
                       id="g126952">
                      <g
                         id="g126950">
                        <path
                           d="m 53.9157,-120.442 c -6.6234,0 -10.2324,3.901 -10.8269,11.703 0,7.072 3.6089,10.9783 10.8269,11.7189 3.39,0 6.1176,-1.0692 8.1828,-3.2079 2.0653,-2.138 3.0979,-4.975 3.0979,-8.511 0,-7.072 -3.7602,-10.973 -11.2807,-11.703 z m -29.602,0 c -3.2439,0 -5.935,1.033 -8.0733,3.098 -2.1382,2.055 -3.2074,4.923 -3.2074,8.605 0,7.072 3.7602,10.9783 11.2807,11.7189 3.2335,0 5.9194,-1.0692 8.0576,-3.2079 2.1383,-2.138 3.2074,-4.975 3.2074,-8.511 0,-7.072 -3.755,-10.973 -11.265,-11.703 z m -9.9508,55.2456 H 11.046 c -7.364,0 -11.046,3.463 -11.046,10.3889 0,2.0652 0.77186,4.1983 2.31559,6.3991 1.54373,2.2113 4.45386,3.317 8.73041,3.317 h 4.4278 c 15.9066,0 26.2903,1.6949 31.1509,5.0849 l 0.4381,1.768 c 0.5946,1.9192 0.8918,4.2035 0.8918,6.8529 0,2.6493 -0.5163,5.2987 -1.5489,7.9481 -1.0326,2.6598 -2.9466,6.201 -5.742,10.6235 L 36.9086,-6.41481 53.0395,0 c 6.4774,-12.0786 9.7161,-24.2355 9.7161,-36.4706 0,-6.0393 -1.1786,-12.0056 -3.5359,-17.8988 -2.6494,-2.7954 -7.0668,-5.2988 -13.2521,-7.5101 -6.1853,-2.2113 -16.7202,-3.3169 -31.6047,-3.3169 z"
                           style="fill:#000000;fill-opacity:1;fill-rule:nonzero;stroke:none"
                           id="path126948" />
                      </g>
                    </g>
                  </g>
                  <g
                     transform="translate(213.43915,69.47341)"
                     id="g126962">
                    <g
                       id="g126960">
                      <g
                         id="g126958">
                        <path
                           d="m 32.2775,-158.023 c -11.0565,0 -20.783,1.549 -29.17961,4.646 L 0,-133.491 c 8.2506,-2.952 19.7451,-4.427 34.4835,-4.427 8.3967,0 15.5781,0.808 21.5444,2.425 5.9663,1.627 10.4984,3.546 13.5963,5.757 v 1.33 c 0,8.105 -3.5725,17.936 -10.7174,29.4927 -7.145,11.5675 -20.0007,23.0255 -38.5672,34.374 l 13.9249,11.9378 c 14.4359,-8.2506 26.478,-19.1922 36.1263,-32.825 9.6588,-13.6224 14.4881,-28.0945 14.4881,-43.4175 0,-6.05 -0.4433,-10.326 -1.3299,-12.829 -4.4225,-4.715 -10.8687,-8.621 -19.3383,-11.719 -8.4696,-3.088 -19.114,-4.631 -31.9332,-4.631 z m 1.3142,133.9283 c -3.2335,0 -5.9193,1.1057 -8.0576,3.317 -2.1383,2.2113 -3.2074,5.1579 -3.2074,8.8399 0,3.38993 1.0691,6.22705 3.2074,8.51135 C 27.6724,-1.14215 30.4365,0 33.8264,0 c 6.9155,0 10.7435,-3.97927 11.4841,-11.9378 0,-7.51 -3.9063,-11.5623 -11.7188,-12.1569 z"
                           style="fill:#f81436;fill-opacity:1;fill-rule:nonzero;stroke:none"
                           id="path126956" />
                      </g>
                    </g>
                  </g>
                </g>
              </g>
            </g>
          </g>
        </g>
      </g>
    </g>
  </g>
</svg>
