<?xml version="1.0" encoding="UTF-8" standalone="no"?>
<!-- Created with Inkscape (http://www.inkscape.org/) -->

<svg
   version="1.1"
   id="svg126250"
   width="533.33331"
   height="533.33331"
   viewBox="0 0 533.33331 533.33331"
   sodipodi:docname="1440_pic.pdf"
   xmlns:inkscape="http://www.inkscape.org/namespaces/inkscape"
   xmlns:sodipodi="http://sodipodi.sourceforge.net/DTD/sodipodi-0.dtd"
   xmlns="http://www.w3.org/2000/svg"
   xmlns:svg="http://www.w3.org/2000/svg">
  <defs
     id="defs126254">
    <clipPath
       clipPathUnits="userSpaceOnUse"
       id="clipPath126270">
      <path
         d="M 0,0 H 290.46308 V -248.00007 H 0 Z"
         clip-rule="evenodd"
         id="path126268" />
    </clipPath>
    <clipPath
       clipPathUnits="userSpaceOnUse"
       id="clipPath126280">
      <path
         d="M 0,-495.99982 H 580.92646 V 495.99982 H 0 Z"
         id="path126278" />
    </clipPath>
  </defs>
  <sodipodi:namedview
     id="namedview126252"
     pagecolor="#ffffff"
     bordercolor="#000000"
     borderopacity="0.25"
     inkscape:showpageshadow="2"
     inkscape:pageopacity="0.0"
     inkscape:pagecheckerboard="0"
     inkscape:deskcolor="#d1d1d1" />
  <g
     id="g126256"
     inkscape:groupmode="layer"
     inkscape:label="1440_pic17"
     transform="matrix(1.3333333,0,0,-1.3333333,0,533.33333)">
    <g
       id="g126258">
      <g
         id="g126260">
        <g
           id="g126262"
           transform="translate(54.76835,323.99999)">
          <g
             id="g126264">
            <g
               id="g126266"
               clip-path="url(#clipPath126270)">
              <g
                 id="g126272"
                 transform="matrix(0.5,0,0,0.5,0,-124.00002)">
                <g
                   id="g126274">
                  <g
                     id="g126276" />
                  <g
                     id="g126692">
                    <g
                       clip-path="url(#clipPath126280)"
                       id="g126690">
                      <g
                         transform="translate(190.5683,159.28052)"
                         id="g126288">
                        <g
                           id="g126286">
                          <g
                             id="g126284">
                            <path
                               d="m 0,-366.81 c 62.468,-41.248 176.354,-48.273 237.043,-3.25 42.204,31.307 67.085,80.286 71.218,130.678 1.588,19.351 0.546,39.237 -6.639,57.454 -6.598,16.731 -18.062,31.331 -29.608,45.51 -32.79,40.263 -69.626,87.05 -57.837,136.418 -58.057,-31.316 -91.292,-98.627 -79.272,-160.552 9.617,-49.55 45,-98.034 29.58,-146.217 -11.047,-34.509 -45.427,-57.342 -79.215,-74.423 z"
                               style="fill:#f79c00;fill-opacity:1;fill-rule:nonzero;stroke:none"
                               id="path126282" />
                          </g>
                        </g>
                      </g>
                      <g
                         transform="translate(323.03678,159.28002)"
                         id="g126296">
                        <g
                           id="g126294">
                          <g
                             id="g126292">
                            <path
                               d="M 139.545,-136.418 C 106.755,-96.155 69.9193,-49.368 81.7083,0 25.3433,-30.403 -7.61568,-94.732 1.50832,-155.123 c 4.735,7.578 9.47098,15.156 14.20598,22.735 3.76,-6 8.164,-11.644 13.125,-16.82 0.436,6.477 2.154,12.873 5.039,18.765 9.59,-12.919 23.09,-23.254 38.498,-29.471 -3.061,8.671 -4.197,17.932 -3.315,27.02 16.592,-15.813 36.8567,-28.215 58.9577,-36.081 -2.333,6.594 -4.668,13.187 -7.002,19.781 14.177,-4.647 27.845,-10.654 40.758,-17.854 -6.327,10.783 -14.239,20.817 -22.23,30.63 z"
                               style="fill:#ffebd1;fill-opacity:1;fill-rule:nonzero;stroke:none"
                               id="path126290" />
                          </g>
                        </g>
                      </g>
                      <g
                         transform="translate(464.2718,-59.18648)"
                         id="g126304">
                        <g
                           id="g126302">
                          <g
                             id="g126300">
                            <path
                               d="m 18.177,0 c 0.885,-6.454 0.995,-13.011 0.582,-19.537 -0.382,-6.532 -1.45,-13.021 -2.975,-19.39 C 14.198,-45.281 12.148,-51.528 9.481,-57.503 8.13,-60.482 6.697,-63.417 5.164,-66.296 3.521,-69.121 1.872,-71.928 0,-74.595 c 0.665,1.489 1.346,2.962 2.057,4.417 l 1.938,4.452 1.876,4.465 1.717,4.52 c 2.182,6.06 4.121,12.196 5.62,18.444 1.56,6.235 2.673,12.571 3.528,18.954 0.827,6.389 1.232,12.839 1.441,19.343 z"
                               style="fill:#e38c00;fill-opacity:1;fill-rule:nonzero;stroke:none"
                               id="path126298" />
                          </g>
                        </g>
                      </g>
                      <g
                         transform="translate(443.08,-151.80198)"
                         id="g126312">
                        <g
                           id="g126310">
                          <g
                             id="g126308">
                            <path
                               d="M 11.795,0 C 10.729,-3.633 8.951,-6.875 7.018,-10.008 5.012,-13.097 2.836,-16.087 0,-18.597 c 1.093,3.689 2.85,6.899 4.777,10.009 1.997,3.066 4.152,6.022 7.018,8.588 z"
                               style="fill:#e38c00;fill-opacity:1;fill-rule:nonzero;stroke:none"
                               id="path126306" />
                          </g>
                        </g>
                      </g>
                      <g
                         transform="translate(442.7131,-88.48858)"
                         id="g126320">
                        <g
                           id="g126318">
                          <g
                             id="g126316">
                            <path
                               d="m 0,-58.659 c 5.012,9.505 9.827,18.965 13.97,28.754 2.109,4.875 4.029,9.827 5.871,14.821 l 2.657,7.542 1.304,3.795 c 0.383,1.219 0.858,2.592 0.052,3.747 1.075,-0.972 0.873,-2.658 0.629,-3.918 l -0.73,-3.968 c -0.568,-2.629 -1.195,-5.249 -1.943,-7.835 -1.459,-5.186 -3.304,-10.262 -5.402,-15.227 C 12.135,-40.836 6.764,-50.293 0,-58.659 Z"
                               style="fill:#e38c00;fill-opacity:1;fill-rule:nonzero;stroke:none"
                               id="path126314" />
                          </g>
                        </g>
                      </g>
                      <g
                         transform="translate(469.79988,-49.32048)"
                         id="g126328">
                        <g
                           id="g126326">
                          <g
                             id="g126324">
                            <path
                               d="m 0.74102,-22.751 c -0.819,3.854 -0.827,7.659 -0.645,11.454 0.265,3.791 0.726,7.568 2.003,11.297 0.824,-3.855 0.832,-7.661 0.644,-11.455 -0.271,-3.79 -0.732,-7.567 -2.002,-11.296 z"
                               style="fill:#e38c00;fill-opacity:1;fill-rule:nonzero;stroke:none"
                               id="path126322" />
                          </g>
                        </g>
                      </g>
                      <g
                         transform="translate(423.3545,-183.77458)"
                         id="g126336">
                        <g
                           id="g126334">
                          <g
                             id="g126332">
                            <path
                               d="M 8.105,0 C 7.53,-2.192 6.353,-3.841 5.035,-5.361 3.655,-6.825 2.13,-8.157 0,-8.941 0.571,-6.744 1.748,-5.096 3.07,-3.58 4.455,-2.12 5.98,-0.787 8.105,0 Z"
                               style="fill:#e38c00;fill-opacity:1;fill-rule:nonzero;stroke:none"
                               id="path126330" />
                          </g>
                        </g>
                      </g>
                      <g
                         transform="translate(424.2884,-168.69328)"
                         id="g126344">
                        <g
                           id="g126342">
                          <g
                             id="g126340">
                            <path
                               d="M 6.207,0 C 6.333,-2.167 5.558,-4.022 4.528,-5.673 3.429,-7.28 2.039,-8.729 0,-9.48 c 0.437,2.118 1.331,3.7 2.309,5.261 1.047,1.517 2.14,2.967 3.898,4.219 z"
                               style="fill:#e38c00;fill-opacity:1;fill-rule:nonzero;stroke:none"
                               id="path126338" />
                          </g>
                        </g>
                      </g>
                      <g
                         transform="translate(477.345,-27.29308)"
                         id="g126352">
                        <g
                           id="g126350">
                          <g
                             id="g126348">
                            <path
                               d="M 4.08,-18.047 C 2.69,-15.1 1.951,-12.168 1.237,-9.205 0.601,-6.224 0.006,-3.26 0,0 c 2,-2.585 3.095,-5.573 3.823,-8.62 0.648,-3.065 0.946,-6.234 0.257,-9.427 z"
                               style="fill:#e38c00;fill-opacity:1;fill-rule:nonzero;stroke:none"
                               id="path126346" />
                          </g>
                        </g>
                      </g>
                      <g
                         transform="translate(20.77632,33.65432)"
                         id="g126360">
                        <g
                           id="g126358">
                          <g
                             id="g126356">
                            <path
                               d="m 77.7922,0 c -15.418,-60.496 -30.97,-129.04 -32.045,-191.459 -0.23,-13.264 -2.09,-28.789 -13.541,-35.483 -10.97,-6.413 -29.58102,-4.472 -32.01402,-16.944 -1.129,-5.779 2.868,-11.58 8.013,-14.447 5.14302,-2.868 11.20302,-3.457 17.06702,-3.989 13.338,-1.207 26.673,-2.415 40.011,-3.624 2.406,-0.217 5.065,-0.368 6.988,1.094 2.081,1.581 2.554,4.462 2.87,7.055 9.179,75.44 18.357,150.879 27.5348,226.319 z"
                               style="fill:#e38c00;fill-opacity:1;fill-rule:nonzero;stroke:none"
                               id="path126354" />
                          </g>
                        </g>
                      </g>
                      <g
                         transform="translate(66.5267,-157.33028)"
                         id="g126368">
                        <g
                           id="g126366">
                          <g
                             id="g126364">
                            <path
                               d="m 0.001,-0.216 c 0,-0.014 0,-0.028 -0.001,-0.042 0.001,0.015 0.001,0.027 0.001,0.042 z M 0.005,0 c 0,-0.01 0,-0.019 -0.001,-0.029 0.001,0.012 0.001,0.017 0.001,0.029 z"
                               style="fill:#78706e;fill-opacity:1;fill-rule:nonzero;stroke:none"
                               id="path126362" />
                          </g>
                        </g>
                      </g>
                      <g
                         transform="translate(20.7759,-97.36458)"
                         id="g126376">
                        <g
                           id="g126374">
                          <g
                             id="g126372">
                            <path
                               d="m 50.631,0 c -2.739,-20.295 -4.516,-40.43 -4.875,-59.966 0,-0.012 0,-0.017 -10e-4,-0.028 -0.001,-0.063 -0.002,-0.125 -0.003,-0.188 0,-0.015 -0.001,-0.026 -0.001,-0.042 -10e-4,-0.072 -0.002,-0.144 -0.004,-0.216 -0.229,-13.264 -2.09,-28.79 -13.54,-35.483 -10.97,-6.413 -29.581,-4.472 -32.014,-16.944 C 0.062,-113.533 0,-114.199 0,-114.861 c 0,-5.083 3.654,-9.916 8.205,-12.454 5.143,-2.867 11.203,-3.456 17.068,-3.988 2.926,-0.265 5.853,-0.53 8.779,-0.794 -3.897,2.679 -6.845,7.043 -6.846,11.609 0,0.661 0.062,1.328 0.192,1.994 2.433,12.471 21.046,10.53 32.014,16.943 11.452,6.694 13.313,22.22 13.542,35.483 0.088,5.088 0.125,10.183 0.127,15.284 v 0.085 0.04 c 0.005,11.253 -0.159,22.531 -0.319,33.81 -0.502,2.735 -1.047,5.462 -1.635,8.179 C 67.532,-16.77 63.936,-24.868 60.34,-32.968 57.103,-21.979 53.868,-10.989 50.631,0 Z"
                               style="fill:#6e4000;fill-opacity:1;fill-rule:nonzero;stroke:none"
                               id="path126370" />
                          </g>
                        </g>
                      </g>
                      <g
                         transform="translate(95.24208,124.77702)"
                         id="g126384">
                        <g
                           id="g126382">
                          <g
                             id="g126380">
                            <path
                               d="m 93.2554,0 c 3.097,-37.492 26.8386,-69.923 52.2866,-97.629 25.447,-27.704 54.008,-53.661 70.781,-87.334 22.405,-44.974 20.913,-97.882 15.267,-147.811 -0.683,-6.032 -1.489,-12.271 -4.66,-17.449 -6.98,-11.398 -22.372,-13.633 -35.731,-14.056 -51.794,-1.642 -103.3676,6.196 -154.5936,14.013 -3.583,0.547 -7.439,1.229 -9.957,3.836 -2.103,2.175 -2.858,5.282 -3.527,8.233 -12.922,56.971 -24.29598,114.872 -23.02398,173.277 1.272,58.405 16.08098,117.943 51.14698,164.665 z"
                               style="fill:#f79c00;fill-opacity:1;fill-rule:nonzero;stroke:none"
                               id="path126378" />
                          </g>
                        </g>
                      </g>
                      <g
                         transform="translate(47.98223,23.04862)"
                         id="g126392">
                        <g
                           id="g126390">
                          <g
                             id="g126388">
                            <path
                               d="m 55.6926,0 c -15.417,-60.495 -8.869,-124.062 -9.945,-186.481 -0.229,-13.264 -2.09,-28.789 -13.542,-35.483 -10.968,-6.414 -29.58003,-4.472 -32.01403,-16.944 -1.127,-5.778 2.87,-11.58 8.013,-14.447 5.14303,-2.868 11.20403,-3.457 17.06903,-3.988 13.336,-1.208 26.673,-2.416 40.01,-3.625 2.406,-0.217 5.064,-0.368 6.989,1.094 2.08,1.581 2.554,4.463 2.87,7.055 9.177,75.441 18.356,150.879 27.5344,226.32 z"
                               style="fill:#f79c00;fill-opacity:1;fill-rule:nonzero;stroke:none"
                               id="path126386" />
                          </g>
                        </g>
                      </g>
                      <g
                         transform="translate(93.78903,-34.47293)"
                         id="g126400">
                        <g
                           id="g126398">
                          <g
                             id="g126396">
                            <path
                               d="m 13.0684,-202.275 c -8.56903,0.249 -14.57503,10.204 -12.73603,18.577 1.839,8.372 9.464,14.502 17.65403,17.034 8.19,2.532 16.959,2.114 25.521,1.67 10.763,-0.558 21.529,-1.115 32.292,-1.672 -5.573,28.285 -11.172,57.111 -7.939,85.7583 3.233,28.646 16.763,57.613 41.5246,72.37595 24.762,14.762 61.365,10.482 77.012,-13.73195 9.149,-14.156 10.024,-31.932 10.581,-48.779 1.159,-35.0603 2.146,-70.1273 2.965,-105.1963 z"
                               style="fill:#e38c00;fill-opacity:1;fill-rule:nonzero;stroke:none"
                               id="path126394" />
                          </g>
                        </g>
                      </g>
                      <g
                         transform="translate(123.6278,-21.57078)"
                         id="g126408">
                        <g
                           id="g126406">
                          <g
                             id="g126404">
                            <path
                               d="m 26.023,-182.932 c -7.593,28.994 -0.691,69.722 5.523,127.018 C 33.418,-38.645 36.378,-22.781 37.068,0 28.426,-52.672 23.953,-75.934 13.598,-133.92 9.878,-154.753 0.317,-179.73 0,-200.89 Z"
                               style="fill:#e38c00;fill-opacity:1;fill-rule:nonzero;stroke:none"
                               id="path126402" />
                          </g>
                        </g>
                      </g>
                      <g
                         transform="translate(47.9822,-148.02308)"
                         id="g126416">
                        <g
                           id="g126414">
                          <g
                             id="g126412">
                            <path
                               d="m 45.875,-0.126 c -0.003,-5.1 -0.039,-10.196 -0.127,-15.283 -0.229,-13.264 -2.09,-28.79 -13.542,-35.483 C 21.237,-57.305 2.625,-55.364 0.192,-67.836 0.062,-68.502 0,-69.168 0,-69.83 c 0,0.662 0.062,1.328 0.192,1.994 2.433,12.472 21.045,10.529 32.014,16.944 11.452,6.693 13.313,22.219 13.542,35.483 0.088,5.086 0.125,10.184 0.127,15.283 z m 0,0.126 v -0.04 z"
                               style="fill:#381c00;fill-opacity:1;fill-rule:nonzero;stroke:none"
                               id="path126410" />
                          </g>
                        </g>
                      </g>
                      <g
                         transform="translate(127.0132,-93.36328)"
                         id="g126424">
                        <g
                           id="g126422">
                          <g
                             id="g126420">
                            <path
                               d="M 21.258,0 C 19.298,-3.281 15.347,-7.515 11.27,-11.809 7.513,-42.687 3.757,-73.562 0,-104.44 c 2.045,9.195 4.682,18.53 6.931,27.49 1.226,5.696 2.468,11.405 3.691,17.114 4.216,23.591 7.45,41.395 10.412,57.941 0.076,0.631 0.151,1.265 0.224,1.895 z"
                               style="fill:#754500;fill-opacity:1;fill-rule:nonzero;stroke:none"
                               id="path126418" />
                          </g>
                        </g>
                      </g>
                      <g
                         transform="translate(47.9819,-94.44138)"
                         id="g126432">
                        <g
                           id="g126430">
                          <g
                             id="g126428">
                            <path
                               d="m 45.318,0 c 0.152,-17.861 0.564,-35.754 0.557,-53.582 v -0.04 -0.086 C 45.873,-58.807 45.836,-63.905 45.748,-68.991 45.519,-82.255 43.658,-97.78 32.206,-104.474 21.238,-110.888 2.625,-108.946 0.192,-121.418 0.062,-122.083 0,-122.75 0,-123.412 c 0.001,-5.082 3.655,-9.916 8.205,-12.453 5.143,-2.868 11.204,-3.457 17.069,-3.988 11.272,-1.021 22.545,-2.042 33.817,-3.063 -0.301,0.211 -0.595,0.427 -0.883,0.649 -8.21,0.73 -13.859,10.384 -12.069,18.538 1.839,8.372 9.465,14.502 17.654,17.034 4.834,1.494 9.871,1.961 14.946,2.001 0.096,0.444 0.194,0.888 0.292,1.332 3.757,30.878 7.514,61.753 11.271,92.631 -4.632,-4.878 -9.427,-9.835 -11.653,-13.562 -0.165,6.743 -0.33,13.488 -0.494,20.231 -3.439,-9.962 -7.991,-19.54 -13.543,-28.499 -2.298,9.906 -4.595,19.813 -6.892,29.719 -1.773,-5.954 -3.547,-11.909 -5.319,-17.863 -1.115,7.249 -3.54,14.286 -7.083,20.705 z"
                               style="fill:#754500;fill-opacity:1;fill-rule:nonzero;stroke:none"
                               id="path126426" />
                          </g>
                        </g>
                      </g>
                      <g
                         transform="translate(93.78912,-199.13508)"
                         id="g126440">
                        <g
                           id="g126438">
                          <g
                             id="g126436">
                            <path
                               d="M 32.9321,0 C 27.8561,-0.04 22.8201,-0.507 17.9861,-2.001 9.79608,-4.533 2.17108,-10.663 0.33208,-19.035 c -1.79,-8.154 3.859,-17.809 12.06902,-18.538 -3.69502,2.844 -6.23902,6.564 -6.55002,11.366 -0.019,0.287 -0.028,0.573 -0.028,0.858 -0.002,7.394 6.15602,13.865 13.19302,16.388 0.028,0.01 0.057,0.02 0.085,0.031 0.006,0.002 0.012,0.004 0.018,0.006 0.026,0.009 0.051,0.018 0.076,0.027 3.771,1.323 7.731,1.772 11.74,1.772 0.197,0 0.395,-0.001 0.592,-0.004 0.414,2.359 0.888,4.739 1.405,7.129 z"
                               style="fill:#6e4000;fill-opacity:1;fill-rule:nonzero;stroke:none"
                               id="path126434" />
                          </g>
                        </g>
                      </g>
                      <g
                         transform="translate(125.317,-95.25838)"
                         id="g126448">
                        <g
                           id="g126446">
                          <g
                             id="g126444">
                            <path
                               d="m 8.627,-75.055 c -2.249,-8.96 -4.885,-18.295 -6.931,-27.49 -0.098,-0.444 -0.196,-0.888 -0.292,-1.332 -0.517,-2.39 -0.991,-4.77 -1.404,-7.128 0.46,-0.005 0.921,-0.016 1.383,-0.032 2.114,11.864 4.642,23.895 7.244,35.982 z M 22.73,0 C 19.768,-16.546 16.534,-34.35 12.318,-57.941 16.487,-38.477 20.429,-19.012 22.73,0 Z"
                               style="fill:#6e4000;fill-opacity:1;fill-rule:nonzero;stroke:none"
                               id="path126442" />
                          </g>
                        </g>
                      </g>
                      <g
                         transform="translate(99.61195,-36.58976)"
                         id="g126456">
                        <g
                           id="g126454">
                          <g
                             id="g126452">
                            <path
                               d="m 223.661,-93.2477 c -2.152,27.041 -11.152,54.629 -30.717,73.419 C 173.379,-1.03972 141.799,6.60228 118.141,-6.66972 109.9,-11.2927 103.033,-18.0837 97.3129,-25.6057 65.3279,-67.6787 70.6599,-126.73 82.5969,-178.214 c -15.315,3.308 -30.791,5.887 -46.353,7.723 -7.709,0.911 -15.743,1.606 -23.051,-1.015 -7.30795,-2.62 -13.66795,-9.5 -13.16495,-17.247 0.766,-11.808 15.03095,-17.074 26.72595,-18.87 62.496,-9.601 127.7021,-0.828 185.4371,24.952 z"
                               style="fill:#f79c00;fill-opacity:1;fill-rule:nonzero;stroke:none"
                               id="path126450" />
                          </g>
                        </g>
                      </g>
                      <g
                         transform="translate(144.3543,-208.15718)"
                         id="g126464">
                        <g
                           id="g126462">
                          <g
                             id="g126460">
                            <path
                               d="M 0.001,0 H 0 C 12.698,-1.723 25.331,-3.942 37.855,-6.647 25.331,-3.942 12.699,-1.724 0.001,0 Z"
                               style="fill:#6e4000;fill-opacity:1;fill-rule:nonzero;stroke:none"
                               id="path126458" />
                          </g>
                        </g>
                      </g>
                      <g
                         transform="translate(126.6997,-206.29498)"
                         id="g126472">
                        <g
                           id="g126470">
                          <g
                             id="g126468">
                            <path
                               d="m 0,0 c 3.06,-0.104 6.133,-0.428 9.157,-0.785 2.836,-0.335 5.668,-0.694 8.498,-1.078 l 10e-4,10e-4 c -2.83,0.384 -5.663,0.743 -8.499,1.078 C 6.134,-0.427 3.059,-0.104 0,0 Z"
                               style="fill:#6e4000;fill-opacity:1;fill-rule:nonzero;stroke:none"
                               id="path126466" />
                          </g>
                        </g>
                      </g>
                      <g
                         transform="translate(112.984,-206.26048)"
                         id="g126480">
                        <g
                           id="g126478">
                          <g
                             id="g126476">
                            <path
                               d="M 11.74,0 C 7.732,0 3.771,-0.449 0,-1.772 3.771,-0.45 7.731,0 11.738,0 c 0.198,0 0.396,-0.001 0.595,-0.004 v 0.001 C 12.135,-0.001 11.937,0 11.74,0 Z"
                               style="fill:#381c00;fill-opacity:1;fill-rule:nonzero;stroke:none"
                               id="path126474" />
                          </g>
                        </g>
                      </g>
                      <g
                         transform="translate(125.3166,-206.26368)"
                         id="g126488">
                        <g
                           id="g126486">
                          <g
                             id="g126484">
                            <path
                               d="M 0,0 C 0.461,-0.005 0.922,-0.016 1.383,-0.031 0.922,-0.016 0.461,-0.005 0,0 Z"
                               style="fill:#381c00;fill-opacity:1;fill-rule:nonzero;stroke:none"
                               id="path126482" />
                          </g>
                        </g>
                      </g>
                      <g
                         transform="translate(181.9238,-213.56578)"
                         id="g126496">
                        <g
                           id="g126494">
                          <g
                             id="g126492">
                            <path
                               d="M 0.236,-1.024 C 0.237,-1.03 0.239,-1.037 0.24,-1.043 0.239,-1.037 0.237,-1.03 0.236,-1.024 Z M 0.188,-0.816 C 0.189,-0.822 0.191,-0.83 0.192,-0.836 0.191,-0.83 0.189,-0.822 0.188,-0.816 Z M 0.14,-0.609 C 0.141,-0.615 0.143,-0.622 0.144,-0.628 0.143,-0.622 0.141,-0.615 0.14,-0.609 Z M 0.047,-0.206 C 0.048,-0.207 0.048,-0.208 0.048,-0.209 Z M 0,0 0.001,-0.002 Z"
                               style="fill:#6e4000;fill-opacity:1;fill-rule:nonzero;stroke:none"
                               id="path126490" />
                          </g>
                        </g>
                      </g>
                      <g
                         transform="translate(126.3661,-244.21248)"
                         id="g126504">
                        <g
                           id="g126502">
                          <g
                             id="g126500">
                            <path
                               d="M 0,0 C 0.516,-0.079 1.029,-0.157 1.545,-0.234 1.03,-0.157 0.515,-0.079 0,0 Z"
                               style="fill:#78706e;fill-opacity:1;fill-rule:nonzero;stroke:none"
                               id="path126498" />
                          </g>
                        </g>
                      </g>
                      <g
                         transform="translate(99.6117,-160.41218)"
                         id="g126512">
                        <g
                           id="g126510">
                          <g
                             id="g126508">
                            <path
                               d="m 73.907,0 c 1.283,-17.932 4.462,-35.952 8.405,-53.154 l 0.001,-0.002 c 0.015,-0.068 0.031,-0.135 0.046,-0.204 l 0.001,-0.003 c 0.031,-0.133 0.061,-0.266 0.092,-0.399 0.002,-0.007 0.003,-0.014 0.004,-0.02 0.015,-0.062 0.03,-0.125 0.044,-0.188 0.001,-0.006 0.003,-0.014 0.004,-0.02 0.015,-0.062 0.03,-0.125 0.044,-0.188 0.001,-0.006 0.003,-0.013 0.005,-0.019 0.015,-0.065 0.03,-0.129 0.045,-0.195 -12.525,2.705 -25.157,4.924 -37.855,6.647 -2.83,0.384 -5.662,0.742 -8.498,1.077 -3.024,0.357 -6.097,0.681 -9.157,0.785 -0.461,0.016 -0.922,0.026 -1.383,0.031 -0.198,0.002 -0.397,0.004 -0.595,0.004 -4.007,0 -7.967,-0.45 -11.737,-1.772 -0.026,-0.009 -0.051,-0.018 -0.076,-0.027 -0.006,-0.002 -0.013,-0.004 -0.019,-0.006 -0.028,-0.011 -0.057,-0.021 -0.085,-0.031 C 6.156,-50.207 -0.001,-56.678 0,-64.072 c 0,-0.285 0.01,-0.571 0.028,-0.858 0.766,-11.808 15.031,-17.074 26.726,-18.87 0.515,-0.079 1.03,-0.157 1.546,-0.234 15.966,-2.374 32.111,-3.549 48.25,-3.549 18.657,0 37.311,1.569 55.711,4.669 -1.465,0.78 -2.932,1.56 -4.397,2.339 1.066,2.103 2.133,4.206 3.2,6.309 -3.643,1.451 -7.565,2.196 -11.486,2.197 -0.985,0 -1.969,-0.048 -2.95,-0.142 2.397,4.906 4.794,9.81 7.192,14.716 -0.634,0.592 -1.369,0.822 -2.168,0.822 -1.41,0.001 -3.018,-0.718 -4.61,-1.437 -1.591,-0.719 -3.166,-1.438 -4.512,-1.438 -0.841,0 -1.593,0.281 -2.202,1.02 -0.889,1.078 -0.811,2.629 -0.688,4.02 0.409,4.628 0.82,9.256 1.23,13.885 -3.686,-2.165 -7.37,-4.329 -11.056,-6.493 -1.215,12.607 -2.429,25.215 -3.644,37.823 C 92.348,-16.351 88.526,-23.409 84.703,-30.467 81.105,-20.311 77.505,-10.156 73.907,0 Z"
                               style="fill:#754500;fill-opacity:1;fill-rule:nonzero;stroke:none"
                               id="path126506" />
                          </g>
                        </g>
                      </g>
                      <g
                         transform="translate(11.37087,219.72605)"
                         id="g126520">
                        <g
                           id="g126518">
                          <g
                             id="g126516">
                            <path
                               d="m 70.8944,-43.4092 c -11.792,20.645 -32.026,36.30097 -54.971,42.52897 -2.62,0.712 -5.425,1.301 -8.01397,0.484 -5.768,-1.822 -7.306,-9.151 -7.618,-15.18997 -1.656,-32.042 3.765,-64.429 15.76397,-94.1848 z"
                               style="fill:#f79c00;fill-opacity:1;fill-rule:nonzero;stroke:none"
                               id="path126514" />
                          </g>
                        </g>
                      </g>
                      <g
                         transform="translate(16.19803,212.15852)"
                         id="g126528">
                        <g
                           id="g126526">
                          <g
                             id="g126524">
                            <path
                               d="m 16.1314,-101.526 c -11.11503,27.69 -13.78803,48 -15.89603,77.769 -0.734,10.351 0.245,20.881 2.989,23.757 C 20.8054,-14.405 41.2794,-42.431 46.0184,-65.105 Z"
                               style="fill:#ffebd1;fill-opacity:1;fill-rule:nonzero;stroke:none"
                               id="path126522" />
                          </g>
                        </g>
                      </g>
                      <g
                         transform="translate(14.1821,215.61592)"
                         id="g126536">
                        <g
                           id="g126534">
                          <g
                             id="g126532">
                            <path
                               d="m 48.442,-67.987 c -1.745,6.91 -4.314,13.508 -7.712,19.654 -3.402,6.146 -7.427,11.934 -11.652,17.608 -4.098,5.804 -8.64,11.058 -13.589,16.144 -2.452,2.543 -5.004,4.999 -7.608,7.401 C 5.329,-4.713 2.65,-2.386 0,0 c 5.991,-3.869 11.606,-8.308 16.901,-13.123 5.318,-4.751 10.155,-10.25 14.31,-16.026 4.21,-5.755 8.277,-11.722 11.337,-18.254 1.526,-3.26 2.849,-6.616 3.879,-10.056 0.947,-3.464 1.703,-6.974 2.015,-10.528 z"
                               style="fill:#d68200;fill-opacity:1;fill-rule:nonzero;stroke:none"
                               id="path126530" />
                          </g>
                        </g>
                      </g>
                      <g
                         transform="translate(167.1775,246.74238)"
                         id="g126544">
                        <g
                           id="g126542">
                          <g
                             id="g126540">
                            <path
                               d="m 0,-58.484 c 5.752,23.071 20.983,43.626 41.38,55.84204 2.328,1.396 4.869,2.724 7.582,2.638 6.045,-0.189 9.514,-6.826 11.453,-12.55604 10.28,-30.392 13.845,-63.036 10.363,-94.929 z"
                               style="fill:#f79c00;fill-opacity:1;fill-rule:nonzero;stroke:none"
                               id="path126538" />
                          </g>
                        </g>
                      </g>
                      <g
                         transform="translate(194.26981,239.79842)"
                         id="g126552">
                        <g
                           id="g126550">
                          <g
                             id="g126548">
                            <path
                               d="m 38.7837,-101.223 c 3.189,29.668 0.255,49.941 -5.787,79.165 -2.1,10.163 -5.898,20.033 -9.319,22.058 C 10.6607,-18.633 -1.44731,-51.159 0.14069,-74.269 Z"
                               style="fill:#ffebd1;fill-opacity:1;fill-rule:nonzero;stroke:none"
                               id="path126546" />
                          </g>
                        </g>
                      </g>
                      <g
                         transform="translate(192.9461,244.54762)"
                         id="g126560">
                        <g
                           id="g126558">
                          <g
                             id="g126556">
                            <path
                               d="m 0.916,-78.576 c -0.663,3.506 -0.889,7.09 -0.916,10.681 0.058,3.59 0.422,7.18 1.008,10.73 1.173,7.118 3.47,13.963 5.961,20.644 2.434,6.686 5.599,13.292 9.43,19.307 3.789,6.069 7.991,11.864 12.708,17.214 -1.903,-3.015 -3.85,-5.982 -5.638,-9.048 -1.856,-3.019 -3.645,-6.075 -5.316,-9.187 C 14.768,-24.473 11.821,-30.761 9.45,-37.459 6.923,-44.066 4.616,-50.729 3.009,-57.567 1.405,-64.404 0.72,-71.451 0.916,-78.576 Z"
                               style="fill:#d68200;fill-opacity:1;fill-rule:nonzero;stroke:none"
                               id="path126554" />
                          </g>
                        </g>
                      </g>
                      <g
                         transform="translate(0,218.43712)"
                         id="g126568">
                        <g
                           id="g126566">
                          <g
                             id="g126564">
                            <path
                               d="m 260.46,-87.2617 c -26.898,9.756 -39.464,26.359 -58.507,45.446 -14.349,14.384 -29.174,29.095 -47.037,36.579 C 130.702,4.9083 98.81,0.1263 79.457,-17.9607 45.387,-49.8017 40.71,-107.402 0,-128.823 c 7.502,-10.578 18.379,-21.349 29.686,-23.546 -1.683,-0.923 -12.623,-2.435 -19.588,-2.469 6.975,-13.326 29.406,-20.213 42.121,-25.772 61.28,-26.789 138.803,-11.168 187.409,35.649 5.827,5.612 25.455,27.959 23.558,27.879 -19.397,-0.822 -31.566,-0.181 -31.122,-1.168 11.797,7.626 22.03,18.217 29.78,30.8253 z"
                               style="fill:#f79c00;fill-opacity:1;fill-rule:nonzero;stroke:none"
                               id="path126562" />
                          </g>
                        </g>
                      </g>
                      <g
                         transform="translate(0.3662,157.22128)"
                         id="g126576">
                        <g
                           id="g126574">
                          <g
                             id="g126572">
                            <path
                               d="m 51.853,-119.393 c -12.715,5.559 -35.147,12.446 -42.121,25.7725 6.965,0.032 17.905,1.544 19.588,2.468 -11.128,2.162 -21.834,12.63 -29.32,23.044 8.082,-2.365 16.222,0.652 25.391,4.061 12.385,4.605 22.973,17.438 32.139,26.957 11.005,11.428 17.981,23.87 38.532,23.922 15.555,0.039 26.6,-22.973 33.746,-42.365 0.56,-1.52 3.508,-1.713 3.595,-0.096 1.245,22.936 9.286,49.62403 26.516,54.50703 11.999,3.402 24.812,-1.422 35.495,-7.861 10.682,-6.43703 20.472,-14.62003 32.171,-18.94503 9.834,-3.637 21.021,-3.499 32.811,0.06 -7.513,-11.712 -17.176,-21.603 -28.258,-28.861 2.346,0.542 13.761,0.145 30.682,0.863 1.897,0.081 -17.731,-22.266 -23.558,-27.878 C 190.656,-130.561 113.133,-146.183 51.853,-119.393 Z"
                               style="fill:#ffebd1;fill-opacity:1;fill-rule:nonzero;stroke:none"
                               id="path126570" />
                          </g>
                        </g>
                      </g>
                      <g
                         transform="translate(118.17868,103.96469)"
                         id="g126584">
                        <g
                           id="g126582">
                          <g
                             id="g126580">
                            <path
                               d="m 17.3122,-18.0578 c 2.695,3.119 7.273,8.81603 10.737,13.17103 1.693,2.129 -0.083,5.229 -2.778,4.856 l -22.66598,-3.131 c -2.6,-0.359 -3.53101,-3.641 -1.507,-5.313 L 13.1202,-18.3988 c 1.264,-1.042 3.122,-0.898 4.192,0.341 z"
                               style="fill:#120300;fill-opacity:1;fill-rule:nonzero;stroke:none"
                               id="path126578" />
                          </g>
                        </g>
                      </g>
                      <g
                         transform="translate(116.477,73.03482)"
                         id="g126592">
                        <g
                           id="g126590">
                          <g
                             id="g126588">
                            <path
                               d="m 39.825,-0.022 c -2.172,-3.032 -5.923,-4.832 -9.746,-5.112 -1.922,-0.178 -3.888,0.096 -5.747,0.713 -0.923,0.334 -1.814,0.762 -2.653,1.287 -0.394,0.274 -0.855,0.563 -1.192,0.832 -0.344,0.263 -0.493,0.303 -0.667,0.313 -0.841,0.102 -2.152,-1.836 -3.685,-2.98 C 14.58,-6.156 12.798,-7.028 10.927,-7.484 7.217,-8.475 3.131,-7.995 0,-6.001 3.467,-7.226 7.201,-7.197 10.481,-6.02 c 1.625,0.615 3.189,1.398 4.48,2.524 0.679,0.569 1.197,1.098 1.871,1.837 0.68,0.647 1.465,1.601 3.032,1.659 0.755,-0.012 1.451,-0.431 1.815,-0.738 0.376,-0.308 0.697,-0.501 1.048,-0.76 0.704,-0.466 1.473,-0.824 2.254,-1.159 1.585,-0.637 3.309,-0.904 5.046,-0.953 3.468,-0.03 7.034,1.147 9.798,3.588 z"
                               style="fill:#120300;fill-opacity:1;fill-rule:nonzero;stroke:none"
                               id="path126586" />
                          </g>
                        </g>
                      </g>
                      <g
                         transform="translate(133.46994,85.24082)"
                         id="g126600">
                        <g
                           id="g126598">
                          <g
                             id="g126596">
                            <path
                               d="m 0.48176,0 c 1.473,-2.029 1.986,-4.324 2.306,-6.554 0.241,-2.261 0.266,-4.465 -0.326,-6.876 -1.479,2.028 -1.993,4.323 -2.307,6.553 -0.234,2.263 -0.259,4.467 0.327,6.877 z"
                               style="fill:#120300;fill-opacity:1;fill-rule:nonzero;stroke:none"
                               id="path126594" />
                          </g>
                        </g>
                      </g>
                      <g
                         transform="translate(80.5705,134.72064)"
                         id="g126608">
                        <g
                           id="g126606">
                          <g
                             id="g126604">
                            <path
                               d="m 22.287,-4.70362 c -3.968,1.927 -8.037,2.607 -11.904,1.87 -1.926,-0.345 -3.781,-1.103 -5.527,-2.118 -1.741,-1.039 -3.343,-2.364 -4.856,-3.997 1.131,4.37 5.248,7.841 9.886,8.721 4.639,0.881 9.739,-0.834 12.401,-4.476 z"
                               style="fill:#754500;fill-opacity:1;fill-rule:nonzero;stroke:none"
                               id="path126602" />
                          </g>
                        </g>
                      </g>
                      <g
                         transform="translate(154.8276,144.89297)"
                         id="g126616">
                        <g
                           id="g126614">
                          <g
                             id="g126612">
                            <path
                               d="m 0,-7.69625 c 1.517,4.2 5.906,7.25 10.577,7.65 4.67,0.403 9.515,-1.854 11.729,-5.732 -3.709,2.309 -7.629,3.415 -11.503,3.089 -3.873,-0.329 -7.552,-2.09 -10.803,-5.007 z"
                               style="fill:#754500;fill-opacity:1;fill-rule:nonzero;stroke:none"
                               id="path126610" />
                          </g>
                        </g>
                      </g>
                      <g
                         transform="translate(185.9241,187.49902)"
                         id="g126624">
                        <g
                           id="g126622">
                          <g
                             id="g126620">
                            <path
                               d="m 47.522,-40.943 c -4.557,5.022 -7.913,11.154 -9.699,17.723 -1.308,1.178 -2.259,-2.309 -3.988,-2.576 -1.042,-0.16 -1.801,0.947 -2.282,1.9 -1.835,3.635 -3.668,7.269 -5.503,10.905 -1.316,-1.544 -3.513,-3.207 -5.099,-1.937 -0.467,0.374 -0.743,0.935 -1.004,1.477 -1.815,3.772 -3.631,7.544 -5.445,11.316 C 14.456,-3.869 12.235,-4.903 10.658,-4.219 9.081,-3.535 8.231,-1.728 8.083,0 L 0,-7.773 28.865,-36.421 Z"
                               style="fill:#f79c00;fill-opacity:1;fill-rule:nonzero;stroke:none"
                               id="path126618" />
                          </g>
                        </g>
                      </g>
                      <g
                         transform="translate(194.00698,188.80702)"
                         id="g126632">
                        <g
                           id="g126630">
                          <g
                             id="g126628">
                            <path
                               d="m 39.4391,-42.251 c -1.265,1.147 -2.432,2.406 -3.51,3.743 -1.076,1.339 -2.117,2.723 -3.001,4.209 -1.778,2.963 -3.218,6.148 -4.266,9.477 l 0.331,-0.536 0.22,-0.069 0.091,-0.013 c -0.158,-0.137 -0.414,-0.459 -0.669,-0.794 -0.57,-0.622 -1.024,-1.641 -2.646,-2.069 -0.814,-0.176 -1.71,0.174 -2.186,0.589 -0.516,0.413 -0.841,0.859 -1.114,1.294 -0.534,0.92 -0.822,1.568 -1.245,2.365 -1.577,3.041 -3.123,6.098 -4.63,9.173 l 2.137,-0.255 c -0.63,-0.717 -1.319,-1.374 -2.176,-1.929 -0.827,-0.528 -1.967,-1.059 -3.361,-0.761 -1.422,0.309 -2.225,1.633 -2.531,2.397 l -1.05998,2.323 -4.043,9.357 1.347,0.287 c -0.049,-1.203 -0.96,-2.116 -1.878,-2.469 -0.926,-0.383 -2.003,-0.394 -2.889,0.071 -1.734,0.942 -2.37,2.878 -2.36,4.553 0.303,-1.654 1.239,-3.298 2.686,-3.834 1.372,-0.539 3.129,0.595 3.025,1.717 L 5.38912,0 l 1.669,-3.136 4.78798,-8.998 1.149,-2.265 c 0.369,-0.751 0.657,-0.987 0.964,-1.032 0.643,-0.168 2.132,0.847 3.025,1.969 l 1.212,1.524 0.924,-1.779 c 1.58,-3.04 3.121,-6.099 4.629,-9.174 0.368,-0.722 0.79,-1.637 1.112,-2.2 0.366,-0.646 0.759,-0.859 0.71,-0.797 0.116,-0.065 0.733,0.475 1.238,1.124 0.284,0.328 0.553,0.694 1.055,1.106 0.288,0.195 0.627,0.465 1.245,0.492 0.613,0.033 1.087,-0.273 1.379,-0.531 l 0.262,-0.232 0.068,-0.306 c 0.736,-3.23 1.862,-6.389 3.346,-9.389 0.748,-1.495 1.51,-2.997 2.402,-4.43 0.891,-1.433 1.854,-2.829 2.873,-4.197 z"
                               style="fill:#d68200;fill-opacity:1;fill-rule:nonzero;stroke:none"
                               id="path126626" />
                          </g>
                        </g>
                      </g>
                      <g
                         transform="translate(29.7044,168.81552)"
                         id="g126640">
                        <g
                           id="g126638">
                          <g
                             id="g126636">
                            <path
                               d="m 0,-50.319 c 2.914,6.077 4.249,12.746 3.857,19.277 0.926,1.507 3.044,-1.315 4.872,-0.968 1.102,0.21 1.497,1.467 1.664,2.488 0.635,3.901 1.27,7.801 1.906,11.703 1.839,-0.946 4.603,-1.697 5.777,-0.013 0.346,0.495 0.435,1.095 0.518,1.673 0.57,4.017 1.14,8.035 1.71,12.053 0.625,-1.549 3.204,-1.725 4.563,-0.573 1.36,1.154 1.613,3.071 1.185,4.679 L 36.776,-4.262 17.27,-39.9 Z"
                               style="fill:#f79c00;fill-opacity:1;fill-rule:nonzero;stroke:none"
                               id="path126634" />
                          </g>
                        </g>
                      </g>
                      <g
                         transform="translate(29.7044,168.81552)"
                         id="g126648">
                        <g
                           id="g126646">
                          <g
                             id="g126644">
                            <path
                               d="m 0,-50.319 c 0.569,1.562 1.075,3.136 1.5,4.723 0.427,1.587 0.712,3.203 0.968,4.81 0.512,3.215 0.613,6.477 0.287,9.678 l -0.034,0.324 0.196,0.32 c 0.201,0.331 0.545,0.72 1.065,0.887 0.526,0.187 0.944,0.091 1.27,0.025 0.638,-0.174 1.03,-0.411 1.426,-0.607 0.744,-0.41 1.457,-0.709 1.749,-0.654 l 0.254,0.145 c 0.096,0.112 0.214,0.359 0.3,0.66 0.167,0.561 0.265,1.521 0.407,2.334 0.511,3.359 1.048,6.715 1.634,10.062 l 0.312,1.782 1.556,-0.838 c 1.269,-0.686 2.944,-1.116 3.758,-0.789 0.374,0.177 0.575,0.348 0.714,1.053 l 0.407,2.452 1.827,9.946 0.545,2.975 0.828,-2.808 c 0.298,-1.011 2.396,-1.438 3.588,-0.57 1.292,0.873 1.784,2.727 1.495,4.409 0.607,-1.583 0.478,-3.7 -0.992,-5.035 -0.745,-0.664 -1.731,-0.969 -2.726,-0.948 -0.963,0.007 -2.176,0.44 -2.693,1.609 L 21.014,-4.207 20,-14.269 19.686,-16.816 c -0.06,-0.961 -0.82,-2.427 -2.043,-2.9 -1.188,-0.521 -2.291,-0.405 -3.25,-0.22 -0.965,0.208 -1.842,0.545 -2.685,0.967 l 1.868,0.941 c -0.507,-3.359 -1.063,-6.713 -1.644,-10.061 -0.171,-0.857 -0.215,-1.602 -0.524,-2.675 -0.166,-0.505 -0.402,-1.054 -0.878,-1.576 -0.458,-0.53 -1.277,-0.919 -1.984,-0.909 -1.437,0.016 -2.256,0.665 -2.986,1.044 -0.351,0.205 -0.705,0.396 -0.886,0.449 l 0.016,0.044 0.109,0.092 0.161,0.642 C 5.029,-34.389 4.637,-37.787 3.835,-41.063 3.436,-42.701 2.861,-44.291 2.233,-45.842 1.604,-47.395 0.863,-48.896 0,-50.319 Z"
                               style="fill:#d68200;fill-opacity:1;fill-rule:nonzero;stroke:none"
                               id="path126642" />
                          </g>
                        </g>
                      </g>
                      <g
                         transform="translate(11.6273,220.42024)"
                         id="g126656">
                        <g
                           id="g126654">
                          <g
                             id="g126652">
                            <path
                               d="m 0,-17.2073 c 0.014,0.308 0.019,0.618 0.035,0.926 0.312,6.04 -0.508,14.21498 5.258,16.03698 2.589,0.817 7.754,-0.618 10.374,-1.33 2.046,-0.556 4.062,-1.211 6.061,-1.914 -3.293,0.448 -6.696,0.11 -9.79,-1.11 C 6.326,-6.81132 1.879,-11.7763 0.294,-17.5973 Z"
                               style="fill:#754500;fill-opacity:1;fill-rule:nonzero;stroke:none"
                               id="path126650" />
                          </g>
                        </g>
                      </g>
                      <g
                         transform="translate(203.3508,247.99998)"
                         id="g126664">
                        <g
                           id="g126662">
                          <g
                             id="g126660">
                            <path
                               d="m 24.635,-14.8939 c -0.098,0.293 -0.187,0.588 -0.285,0.881 -1.939,5.72904 -3.365,13.82104 -9.411,14.01104 -2.712,0.084 -7.294,-2.698 -9.622,-4.093 -1.821,-1.09 -3.583,-2.268 -5.317,-3.486 3.05,1.324 6.415,1.922 9.725,1.586 6.002,-0.609 11.629,-4.18304 14.732,-9.35504 z"
                               style="fill:#754500;fill-opacity:1;fill-rule:nonzero;stroke:none"
                               id="path126658" />
                          </g>
                        </g>
                      </g>
                      <g
                         transform="translate(83.87695,119.29682)"
                         id="g126672">
                        <g
                           id="g126670">
                          <g
                             id="g126668">
                            <path
                               d="m 0.31115,-4.045 c 0.198,-2.861 1.933,-5.031 4.016,-6.389 2.101,-1.34 4.673,-1.94 6.90305,-1.318 2.326,0.579 4.356,2.207 5.842,4.286 1.474,2.107 2.441,4.652 2.73,7.466 0.827,-2.733 0.421,-5.867 -0.955,-8.531 -1.343,-2.678 -3.839,-4.961 -6.941,-5.785 -3.20205,-0.814 -6.53905,0.225 -8.83005,2.241 -2.326,1.935 -3.737,5.26 -2.765,8.03 z"
                               style="fill:#120300;fill-opacity:1;fill-rule:nonzero;stroke:none"
                               id="path126666" />
                          </g>
                        </g>
                      </g>
                      <g
                         transform="translate(157.08367,128.89272)"
                         id="g126680">
                        <g
                           id="g126678">
                          <g
                             id="g126676">
                            <path
                               d="m 0.11003,-4.104 c 0.622,-2.651 2.292,-4.664 4.293,-5.982 2.011,-1.292 4.427,-1.895 6.56597,-1.351 2.154,0.479 4.039,2.105 5.254,4.163 1.19,2.077 1.779,4.625 1.144,7.274 1.691,-2.199 1.828,-5.48 0.724,-8.168 -1.057,-2.719 -3.429,-5.1 -6.508,-5.85 -3.08697,-0.712 -6.27597,0.346 -8.44097,2.299 -2.195,1.902 -3.549,4.891 -3.032,7.615 z"
                               style="fill:#120300;fill-opacity:1;fill-rule:nonzero;stroke:none"
                               id="path126674" />
                          </g>
                        </g>
                      </g>
                      <g
                         transform="translate(421.4046,189.90992)"
                         id="g126688">
                        <g
                           id="g126686">
                          <g
                             id="g126684">
                            <path
                               d="m 159.452,0 c 1,-42.211 -8.789,-82.97 -25.984,-118.881 -14.665,-30.626 -34.78,-57.912 -58.741,-80.328 L 108.854,-218.331 0,-247.189 l 55.295,98.103 9.024,-34.389 c 16.228,23.889 27.975,50.242 34.714,77.263 8.389,33.534 9.041,68.117 1.693,99.583 z"
                               style="fill:#c92e1c;fill-opacity:1;fill-rule:nonzero;stroke:none"
                               id="path126682" />
                          </g>
                        </g>
                      </g>
                    </g>
                  </g>
                </g>
              </g>
            </g>
          </g>
        </g>
      </g>
    </g>
  </g>
</svg>
