<?xml version="1.0" encoding="UTF-8" standalone="no"?>
<!-- Created with Inkscape (http://www.inkscape.org/) -->

<svg
   version="1.1"
   id="svg127282"
   width="400"
   height="200"
   viewBox="0 0 400 200"
   sodipodi:docname="1441_word.pdf"
   xmlns:inkscape="http://www.inkscape.org/namespaces/inkscape"
   xmlns:sodipodi="http://sodipodi.sourceforge.net/DTD/sodipodi-0.dtd"
   xmlns="http://www.w3.org/2000/svg"
   xmlns:svg="http://www.w3.org/2000/svg">
  <defs
     id="defs127286">
    <clipPath
       clipPathUnits="userSpaceOnUse"
       id="clipPath127304">
      <path
         d="M 0,-244.87373 H 327.92821 V 244.87373 H 0 Z"
         id="path127302" />
    </clipPath>
  </defs>
  <sodipodi:namedview
     id="namedview127284"
     pagecolor="#ffffff"
     bordercolor="#000000"
     borderopacity="0.25"
     inkscape:showpageshadow="2"
     inkscape:pageopacity="0.0"
     inkscape:pagecheckerboard="0"
     inkscape:deskcolor="#d1d1d1" />
  <g
     id="g127288"
     inkscape:groupmode="layer"
     inkscape:label="1441_word20"
     transform="matrix(1.3333333,0,0,-1.3333333,0,200)">
    <g
       id="g127290">
      <g
         id="g127292">
        <g
           id="g127294"
           transform="translate(95.345,102.81251)">
          <g
             id="g127296"
             transform="matrix(0.33334,0,0,0.33334,0,-27.20849)">
            <g
               id="g127298">
              <g
                 id="g127300" />
              <g
                 id="g127348">
                <g
                   clip-path="url(#clipPath127304)"
                   id="g127346">
                  <g
                     transform="translate(0,28.58547)"
                     id="g127312">
                    <g
                       id="g127310">
                      <g
                         id="g127308">
                        <path
                           d="m 79.7784,-191.834 c -24.4598,0 -43.8711,5.601 -58.234,16.803 C 7.18146,-163.838 0,-148.886 0,-130.174 c 0,10.608 2.90492,20.293 8.71476,29.055 5.82024,8.7718 13.81534,16.2505 23.98514,22.4358 -7.8125,4.7147 -13.7423,10.3107 -17.7894,16.7881 -4.047,6.4878 -6.07058,13.2677 -6.07058,20.3396 0,11.4945 4.41738,21.2941 13.25208,29.3986 C 30.9371,-4.05228 41.9153,0 55.0266,0 67.2512,0 77.0508,-2.64937 84.4252,-7.94811 l 1.3142,-16.36559 c -7.802,4.5686 -17.8936,6.8529 -30.2747,6.8529 -7.218,0 -13.2208,-1.2882 -18.0085,-3.8645 -4.7876,-2.5764 -8.3236,-5.7108 -10.6079,-9.4032 -2.2843,-3.682 -3.4264,-7.2128 -3.4264,-10.5923 0,-5.8933 2.7954,-11.385 8.3862,-16.4751 5.6012,-5.0797 11.7918,-8.5061 18.5716,-10.2793 4.5686,1.3351 21.3671,6.566 50.3953,15.6928 L 97.6773,-73.1602 C 82.9493,-76.5397 68.4351,-80.811 54.1348,-85.9741 41.6181,-90.8348 32.1523,-96.9523 25.7375,-104.327 c -6.4044,-7.364 -9.6066,-15.463 -9.6066,-24.298 0,-6.185 2.1331,-12.777 6.3992,-19.776 4.2765,-6.999 11.385,-13.002 21.3253,-18.009 9.9508,-5.017 23.3228,-7.525 40.1161,-7.525 10.6079,0 22.1755,1.178 34.7025,3.536 l -6.853,-17.023 c -8.689,-2.941 -19.3695,-4.412 -32.0426,-4.412 z"
                           style="fill:#000000;fill-opacity:1;fill-rule:nonzero;stroke:none"
                           id="path127306" />
                      </g>
                    </g>
                  </g>
                  <g
                     transform="translate(125.08999,81.62502)"
                     id="g127320">
                    <g
                       id="g127318">
                      <g
                         id="g127316">
                        <path
                           d="M 22.7648,-160.449 H 6.19577 L 0,-1.31425 16.5846,0 Z"
                           style="fill:#000000;fill-opacity:1;fill-rule:nonzero;stroke:none"
                           id="path127314" />
                      </g>
                    </g>
                  </g>
                  <g
                     transform="translate(139.14851,5.82071)"
                     id="g127328">
                    <g
                       id="g127326">
                      <g
                         id="g127324">
                        <path
                           d="m 32.9346,-133.71 c -1.7732,0 -5.4239,0.334 -10.9521,1.002 -5.5178,0.657 -12.8453,3.27 -21.9825,7.838 l 2.42511,13.487 c 2.35732,-1.179 5.9663,-2.576 10.82699,-4.193 4.871,-1.627 9.5127,-2.811 13.9248,-3.552 0.1565,-0.146 1.1891,-0.219 3.0979,-0.219 10.9104,0 21.2992,5.82 31.1666,17.461 7.0719,8.5427 10.6079,18.8585 10.6079,30.9476 0,10.4618 -1.987,21.7321 -5.9611,33.8107 -0.7406,2.5034 -4.4278,12.0786 -11.0616,28.72586 L 70.7194,0 c 0.8866,-2.35731 2.4355,-6.99893 4.6468,-13.9248 2.2113,-6.9259 4.5686,-14.2169 7.072,-21.873 3.2439,-10.3158 4.8658,-20.9237 4.8658,-31.8237 0,-1.7732 -0.1877,-6.3053 -0.5632,-13.5963 -0.3651,-7.291 -3.4213,-15.359 -9.1685,-24.2042 -12.2247,-17.826 -26.5146,-27.182 -42.8697,-28.069 z"
                           style="fill:#000000;fill-opacity:1;fill-rule:nonzero;stroke:none"
                           id="path127322" />
                      </g>
                    </g>
                  </g>
                  <g
                     transform="translate(290.80053,-123.82271)"
                     id="g127336">
                    <g
                       id="g127334">
                      <g
                         id="g127332">
                        <path
                           d="M 1.54894,-20.105 0,-12.814 C 13.8518,-8.54787 25.7844,-4.27654 35.7978,0 l 1.3299,-7.94811 C 25.1951,-12.8192 13.3355,-16.8715 1.54894,-20.105 Z"
                           style="fill:#f81436;fill-opacity:1;fill-rule:nonzero;stroke:none"
                           id="path127330" />
                      </g>
                    </g>
                  </g>
                  <g
                     transform="translate(242.03757,79.19991)"
                     id="g127344">
                    <g
                       id="g127342">
                      <g
                         id="g127340">
                        <path
                           d="m 32.2775,-158.023 c -11.0565,0 -20.783,1.549 -29.17961,4.646 L 0,-133.491 c 8.2506,-2.952 19.7451,-4.427 34.4835,-4.427 8.3967,0 15.5781,0.808 21.5444,2.425 5.9663,1.627 10.4984,3.546 13.5963,5.757 v 1.33 c 0,8.105 -3.5725,17.936 -10.7174,29.4927 -7.145,11.5675 -20.0007,23.0255 -38.5672,34.374 l 13.9249,11.9378 c 14.4359,-8.2506 26.478,-19.1922 36.1263,-32.825 9.6588,-13.6224 14.4881,-28.0945 14.4881,-43.4175 0,-6.05 -0.4433,-10.326 -1.3299,-12.829 -4.4225,-4.715 -10.8687,-8.621 -19.3383,-11.719 -8.4696,-3.088 -19.114,-4.631 -31.9332,-4.631 z m 1.3142,133.9283 c -3.2335,0 -5.9193,1.1057 -8.0576,3.317 -2.1383,2.2113 -3.2074,5.1579 -3.2074,8.8399 0,3.38993 1.0691,6.22705 3.2074,8.51135 C 27.6724,-1.14215 30.4365,0 33.8264,0 c 6.9155,0 10.7435,-3.97927 11.4841,-11.9378 0,-7.51 -3.9063,-11.5623 -11.7188,-12.1569 z"
                           style="fill:#f81436;fill-opacity:1;fill-rule:nonzero;stroke:none"
                           id="path127338" />
                      </g>
                    </g>
                  </g>
                </g>
              </g>
            </g>
          </g>
        </g>
      </g>
    </g>
  </g>
</svg>
