<?xml version="1.0" encoding="UTF-8" standalone="no"?>
<!-- Created with Inkscape (http://www.inkscape.org/) -->

<svg
   version="1.1"
   id="svg129214"
   width="400"
   height="200"
   viewBox="0 0 400 200"
   sodipodi:docname="1442_word.pdf"
   xmlns:inkscape="http://www.inkscape.org/namespaces/inkscape"
   xmlns:sodipodi="http://sodipodi.sourceforge.net/DTD/sodipodi-0.dtd"
   xmlns="http://www.w3.org/2000/svg"
   xmlns:svg="http://www.w3.org/2000/svg">
  <defs
     id="defs129218">
    <clipPath
       clipPathUnits="userSpaceOnUse"
       id="clipPath129236">
      <path
         d="M 0,-268.65334 H 300 V 268.65334 H 0 Z"
         id="path129234" />
    </clipPath>
  </defs>
  <sodipodi:namedview
     id="namedview129216"
     pagecolor="#ffffff"
     bordercolor="#000000"
     borderopacity="0.25"
     inkscape:showpageshadow="2"
     inkscape:pageopacity="0.0"
     inkscape:pagecheckerboard="0"
     inkscape:deskcolor="#d1d1d1" />
  <g
     id="g129220"
     inkscape:groupmode="layer"
     inkscape:label="1442_word22"
     transform="matrix(1.3333333,0,0,-1.3333333,0,200)">
    <g
       id="g129222">
      <g
         id="g129224">
        <g
           id="g129226"
           transform="translate(109.08333,122.77543)">
          <g
             id="g129228"
             transform="matrix(0.33333,0,0,0.33333,0,-29.8502)">
            <g
               id="g129230">
              <g
                 id="g129232" />
              <g
                 id="g129280">
                <g
                   clip-path="url(#clipPath129236)"
                   id="g129278">
                  <g
                     transform="translate(0,20.24173)"
                     id="g129244">
                    <g
                       id="g129242">
                      <g
                         id="g129240">
                        <path
                           d="m 17.8989,-23.4219 c -3.2439,0 -5.935,1.0326 -8.07328,3.0979 -2.12785,2.0653 -3.19177,4.9389 -3.19177,8.6209 0,7.07192 3.75505,10.97296 11.26505,11.7031 3.3899,0 6.1123,-1.06914 8.1671,-3.20741 2.0653,-2.12784 3.0979,-4.95974 3.0979,-8.49569 0,-7.218 -3.755,-11.1242 -11.265,-11.7188 z m 29.6176,0 c -3.2439,0 -5.8619,1.0326 -7.8542,3.0979 -1.9818,2.0653 -2.9727,4.9389 -2.9727,8.6209 0,7.07192 3.609,10.97296 10.8269,11.7031 6.926,0 10.681,-3.90104 11.2651,-11.7031 0,-7.218 -3.755,-11.1242 -11.2651,-11.7188 z M 37.3467,-152.047 c -7.8125,0 -14.5194,1.914 -20.1206,5.742 -5.5908,3.839 -9.8621,8.851 -12.81396,15.036 C 1.47071,-125.084 0,-118.455 0,-111.383 c 0,9.721 2.35731,18.8897 7.07194,27.5054 4.71466,8.6261 10.60786,16.9914 17.67986,25.096 l -4.4278,3.3169 10.1698,13.4868 c 16.5012,-12.2351 28.2878,-23.3593 35.3597,-33.3727 8.1046,-11.3485 12.1569,-22.77 12.1569,-34.2644 0,-9.575 -2.1018,-17.497 -6.3053,-23.766 -4.1931,-6.259 -9.3875,-10.937 -15.5833,-14.035 -6.1854,-3.087 -12.4437,-4.631 -18.7751,-4.631 z m 1.768,20.559 c 5.7473,0 10.4619,1.252 14.1439,3.755 3.682,2.503 6.3679,5.523 8.0576,9.059 1.7002,3.536 2.5503,6.853 2.5503,9.951 0,6.769 -2.2843,13.4344 -6.8529,19.9952 -4.5686,6.5608 -11.4945,13.5963 -20.7777,21.1063 -6.1854,-6.0393 -11.4163,-12.5949 -15.6929,-19.6669 -4.2661,-7.0719 -6.3991,-13.6276 -6.3991,-19.6666 0,-7.667 2.5033,-13.675 7.51,-18.024 5.0067,-4.339 10.827,-6.509 17.4608,-6.509 z"
                           style="fill:#000000;fill-opacity:1;fill-rule:nonzero;stroke:none"
                           id="path129238" />
                      </g>
                    </g>
                  </g>
                  <g
                     transform="translate(82.5254,49.54747)"
                     id="g129252">
                    <g
                       id="g129250">
                      <g
                         id="g129248">
                        <path
                           d="M 1.54894,-20.105 0,-12.814 C 13.8518,-8.53744 25.7844,-4.26611 35.7978,0 l 1.3299,-7.94811 C 25.1951,-12.8088 13.3355,-16.861 1.54894,-20.105 Z"
                           style="fill:#000000;fill-opacity:1;fill-rule:nonzero;stroke:none"
                           id="path129246" />
                      </g>
                    </g>
                  </g>
                  <g
                     transform="translate(57.85648,-45.39276)"
                     id="g129260">
                    <g
                       id="g129258">
                      <g
                         id="g129256">
                        <path
                           d="m 32.9346,-133.71 c -1.7732,0 -5.4239,0.334 -10.9521,1.002 -5.5178,0.657 -12.8453,3.27 -21.9825,7.838 l 2.42511,13.487 c 2.35732,-1.179 5.9663,-2.576 10.82699,-4.193 4.871,-1.627 9.5127,-2.811 13.9248,-3.552 0.1565,-0.146 1.1891,-0.219 3.0979,-0.219 10.9104,0 21.2992,5.82 31.1666,17.461 7.0719,8.5427 10.6079,18.8585 10.6079,30.9476 0,10.4618 -1.987,21.7321 -5.9611,33.8107 -0.7406,2.5034 -4.4278,12.0786 -11.0616,28.72586 L 70.7194,0 c 0.8866,-2.35731 2.4355,-6.99893 4.6468,-13.9248 2.2113,-6.9259 4.5686,-14.2169 7.072,-21.873 3.2439,-10.3158 4.8658,-20.9237 4.8658,-31.8237 0,-1.7732 -0.1877,-6.3053 -0.5632,-13.5963 -0.3651,-7.291 -3.4213,-15.359 -9.1685,-24.2042 -12.2247,-17.826 -26.5146,-27.182 -42.8697,-28.069 z"
                           style="fill:#000000;fill-opacity:1;fill-rule:nonzero;stroke:none"
                           id="path129254" />
                      </g>
                    </g>
                  </g>
                  <g
                     transform="translate(177.56101,89.55086)"
                     id="g129268">
                    <g
                       id="g129266">
                      <g
                         id="g129264">
                        <path
                           d="m 9.05897,-37.5658 c -4.13052,0 -7.15017,0.6624 -9.05897,1.9871 v 5.523 c 2.7954,-0.5842 5.29874,-0.8762 7.51002,-0.8762 2.35732,0 4.93368,0.5163 7.72908,1.5489 2.8058,1.0327 4.8711,2.5034 6.1958,4.4122 h -1.768 c -3.682,0 -6.9624,0.9596 -9.84128,2.8788 -2.86842,1.9192 -4.30262,5.0119 -4.30262,9.278 0,3.68202 1.25167,6.73818 3.75501,9.16851 C 11.7814,-1.21516 14.874,0 18.556,0 c 2.5034,0 5.1892,-1.17866 8.0576,-3.53597 2.8789,-2.35731 4.3183,-6.25835 4.3183,-11.70313 0,-7.218 -2.3938,-12.7462 -7.1814,-16.5846 -4.7877,-3.8281 -9.6849,-5.7421 -14.69153,-5.7421 z m 15.47373,18.5717 0.2191,3.0822 c 0,2.2113 -0.5528,4.3131 -1.6585,6.30533 -1.1056,1.99224 -3.1344,2.98836 -6.0862,2.98836 -1.4707,0 -2.7954,-0.47981 -3.9741,-1.43942 -1.1786,-0.95961 -1.768,-2.24777 -1.768,-3.86457 0,-1.7732 0.9544,-3.3951 2.8632,-4.8658 1.9193,-1.4707 4.7251,-2.2061 8.4175,-2.2061 z"
                           style="fill:#f81436;fill-opacity:1;fill-rule:nonzero;stroke:none"
                           id="path129262" />
                      </g>
                    </g>
                  </g>
                  <g
                     transform="translate(160.62177,27.98644)"
                     id="g129276">
                    <g
                       id="g129274">
                      <g
                         id="g129272">
                        <path
                           d="m 32.2775,-158.023 c -11.0565,0 -20.783,1.549 -29.17961,4.646 L 0,-133.491 c 8.2506,-2.952 19.7451,-4.427 34.4835,-4.427 8.3967,0 15.5781,0.808 21.5444,2.425 5.9663,1.627 10.4984,3.546 13.5963,5.757 v 1.33 c 0,8.105 -3.5725,17.936 -10.7174,29.4927 -7.145,11.5675 -20.0007,23.0255 -38.5672,34.374 l 13.9249,11.9378 c 14.4359,-8.2506 26.478,-19.1922 36.1263,-32.825 9.6588,-13.6224 14.4881,-28.0945 14.4881,-43.4175 0,-6.05 -0.4433,-10.326 -1.3299,-12.829 -4.4225,-4.715 -10.8687,-8.621 -19.3383,-11.719 -8.4696,-3.088 -19.114,-4.631 -31.9332,-4.631 z m 1.3142,133.9283 c -3.2335,0 -5.9193,1.1057 -8.0576,3.317 -2.1383,2.2113 -3.2074,5.1579 -3.2074,8.8399 0,3.38993 1.0691,6.22705 3.2074,8.51135 C 27.6724,-1.14215 30.4365,0 33.8264,0 c 6.9155,0 10.7435,-3.97927 11.4841,-11.9378 0,-7.51 -3.9063,-11.5623 -11.7188,-12.1569 z"
                           style="fill:#f81436;fill-opacity:1;fill-rule:nonzero;stroke:none"
                           id="path129270" />
                      </g>
                    </g>
                  </g>
                </g>
              </g>
            </g>
          </g>
        </g>
      </g>
    </g>
  </g>
</svg>
