<?xml version="1.0" encoding="UTF-8" standalone="no"?>
<!-- Created with Inkscape (http://www.inkscape.org/) -->

<svg
   version="1.1"
   id="svg132646"
   width="400"
   height="200"
   viewBox="0 0 400 200"
   sodipodi:docname="1510_word.pdf"
   xmlns:inkscape="http://www.inkscape.org/namespaces/inkscape"
   xmlns:sodipodi="http://sodipodi.sourceforge.net/DTD/sodipodi-0.dtd"
   xmlns="http://www.w3.org/2000/svg"
   xmlns:svg="http://www.w3.org/2000/svg">
  <defs
     id="defs132650">
    <clipPath
       clipPathUnits="userSpaceOnUse"
       id="clipPath132668">
      <path
         d="M 0,-285.66856 H 519.45924 V 285.66856 H 0 Z"
         id="path132666" />
    </clipPath>
  </defs>
  <sodipodi:namedview
     id="namedview132648"
     pagecolor="#ffffff"
     bordercolor="#000000"
     borderopacity="0.25"
     inkscape:showpageshadow="2"
     inkscape:pageopacity="0.0"
     inkscape:pagecheckerboard="0"
     inkscape:deskcolor="#d1d1d1" />
  <g
     id="g132652"
     inkscape:groupmode="layer"
     inkscape:label="1510_word24"
     transform="matrix(1.3333333,0,0,-1.3333333,0,200)">
    <g
       id="g132654">
      <g
         id="g132656">
        <g
           id="g132658"
           transform="translate(63.42333,135.76597)">
          <g
             id="g132660"
             transform="matrix(0.33333,0,0,0.33333,0,-31.74104)">
            <g
               id="g132662">
              <g
                 id="g132664" />
              <g
                 id="g132720">
                <g
                   clip-path="url(#clipPath132668)"
                   id="g132718">
                  <g
                     transform="translate(0,1.38862)"
                     id="g132676">
                    <g
                       id="g132674">
                      <g
                         id="g132672">
                        <path
                           d="m 79.7784,-191.834 c -24.4598,0 -43.8711,5.601 -58.234,16.803 C 7.18146,-163.838 0,-148.886 0,-130.174 c 0,10.608 2.90492,20.293 8.71476,29.055 5.82024,8.7718 13.81534,16.2505 23.98514,22.4358 -7.8125,4.7147 -13.7423,10.3107 -17.7894,16.7881 -4.047,6.4878 -6.07058,13.2677 -6.07058,20.3396 0,11.4945 4.41738,21.2941 13.25208,29.3986 C 30.9371,-4.05228 41.9153,0 55.0266,0 67.2512,0 77.0508,-2.64937 84.4252,-7.94811 l 1.3142,-16.36559 c -7.802,4.5686 -17.8936,6.8529 -30.2747,6.8529 -7.218,0 -13.2208,-1.2882 -18.0085,-3.8645 -4.7876,-2.5764 -8.3236,-5.7108 -10.6079,-9.4032 -2.2843,-3.682 -3.4264,-7.2128 -3.4264,-10.5923 0,-5.8933 2.7954,-11.385 8.3862,-16.4751 5.6012,-5.0797 11.7918,-8.5061 18.5716,-10.2793 4.5686,1.3351 21.3671,6.566 50.3953,15.6928 L 97.6773,-73.1602 C 82.9493,-76.5397 68.4351,-80.811 54.1348,-85.9741 41.6181,-90.8348 32.1523,-96.9523 25.7375,-104.327 c -6.4044,-7.364 -9.6066,-15.463 -9.6066,-24.298 0,-6.185 2.1331,-12.777 6.3992,-19.776 4.2765,-6.999 11.385,-13.002 21.3253,-18.009 9.9508,-5.017 23.3228,-7.525 40.1161,-7.525 10.6079,0 22.1755,1.178 34.7025,3.536 l -6.853,-17.023 c -8.689,-2.941 -19.3695,-4.412 -32.0426,-4.412 z"
                           style="fill:#000000;fill-opacity:1;fill-rule:nonzero;stroke:none"
                           id="path132670" />
                      </g>
                    </g>
                  </g>
                  <g
                     transform="translate(160.22825,95.22299)"
                     id="g132684">
                    <g
                       id="g132682">
                      <g
                         id="g132680">
                        <path
                           d="M 1.54894,-20.105 0,-12.814 C 13.8518,-8.53744 25.7844,-4.26611 35.7978,0 l 1.3299,-7.94811 C 25.1951,-12.8088 13.3355,-16.861 1.54894,-20.105 Z"
                           style="fill:#000000;fill-opacity:1;fill-rule:nonzero;stroke:none"
                           id="path132678" />
                      </g>
                    </g>
                  </g>
                  <g
                     transform="translate(119.73094,5.58171)"
                     id="g132692">
                    <g
                       id="g132690">
                      <g
                         id="g132688">
                        <path
                           d="m 116.484,-111.602 c -10.911,0 -18.9476,1.914 -24.1107,5.742 -5.1527,3.838 -9.2728,9.4396 -12.3602,16.8036 -2.0653,-6.4878 -7.0772,-11.8696 -15.0357,-16.1466 -7.9586,-4.266 -17.3148,-6.399 -28.0688,-6.399 -12.0786,0 -21.101,2.686 -27.06734,8.058 C 3.87496,-98.1623 0.59454,-89.3536 0,-77.1186 l 12.5949,2.4252 c 1.3352,-5.4552 3.8437,-9.544 7.5257,-12.2664 3.682,-2.7224 9.7213,-4.0836 18.1179,-4.0836 5.8933,0 11.6406,0.7719 17.2418,2.3156 5.6012,1.5437 10.1698,3.8645 13.7058,6.9624 1.6167,1.6168 2.9049,3.3065 3.8645,5.0693 0.9596,1.7732 1.4395,3.0301 1.4395,3.7706 v 0.4381 C 69.3269,-50.823 63.2824,-28.5016 56.3565,-5.523 L 72.503,0 79.3403,-26.7388 c 3.2439,-13.4033 6.9311,-27.6202 11.0616,-42.6507 2.5034,-8.8451 5.7786,-14.7436 9.8261,-17.6955 4.057,-2.9414 9.476,-4.4121 16.256,-4.4121 3.233,0 5.992,-0.8084 8.276,-2.4251 2.285,-1.6168 3.427,-4.1201 3.427,-7.5098 0,-6.78 -3.901,-10.17 -11.703,-10.17 z"
                           style="fill:#000000;fill-opacity:1;fill-rule:nonzero;stroke:none"
                           id="path132686" />
                      </g>
                    </g>
                  </g>
                  <g
                     transform="translate(224.67902,39.8462)"
                     id="g132700">
                    <g
                       id="g132698">
                      <g
                         id="g132696">
                        <path
                           d="m 57.4517,-24.0947 c -3.2335,0 -5.9194,1.1057 -8.0576,3.317 -2.1383,2.2113 -3.2075,5.1579 -3.2075,8.8399 0,3.38993 1.0692,6.22705 3.2075,8.51135 C 51.5323,-1.14215 54.2912,0 57.6707,0 c 6.9259,0 10.7592,-3.97927 11.4998,-11.9378 0,-7.51 -3.9063,-11.5623 -11.7188,-12.1569 z M 112.494,-145.867 h -7.526 c -14.7278,0 -29.0907,2.874 -43.0885,8.621 -13.1113,-5.747 -27.1091,-8.621 -41.9936,-8.621 H 11.265 c -7.21793,0 -10.97294,3.39 -11.265,10.17 0,1.763 0.77186,3.86 2.31559,6.29 1.54373,2.43 4.52688,3.645 8.94941,3.645 11.9326,0 21.9512,0.444 30.0558,1.33 -9.7213,8.397 -14.582,18.64 -14.582,30.7288 0,7.9481 1.987,15.1244 5.9611,21.5287 3.9845,6.4148 8.9234,11.4998 14.8166,15.2548 5.8933,3.7654 11.6354,5.6481 17.2262,5.6481 4.8711,0 9.7734,-1.7314 14.7071,-5.1944 4.9337,-3.463 9.0225,-8.2558 12.2664,-14.3786 3.2439,-6.1123 4.8658,-13.2937 4.8658,-21.5443 0,-11.7871 -4.7928,-22.3211 -14.3785,-31.6051 8.1045,-1.178 16.2091,-1.768 24.3135,-1.768 h 5.977 c 3.379,0 6.211,-0.808 8.496,-2.425 2.284,-1.616 3.426,-4.12 3.426,-7.51 0,-6.78 -3.974,-10.17 -11.922,-10.17 z m -49.2846,26.739 c 12.8087,5.163 19.2131,13.638 19.2131,25.4248 0,6.6234 -2.0652,12.402 -6.1958,17.3356 -4.12,4.9441 -8.6104,7.4162 -13.4711,7.4162 -6.4774,0 -11.7448,-2.5816 -15.8023,-7.7447 -4.0471,-5.1527 -6.0706,-10.5297 -6.0706,-16.1309 0,-11.787 7.4422,-20.554 22.3267,-26.301 z"
                           style="fill:#000000;fill-opacity:1;fill-rule:nonzero;stroke:none"
                           id="path132694" />
                      </g>
                    </g>
                  </g>
                  <g
                     transform="translate(455.71766,-151.01956)"
                     id="g132708">
                    <g
                       id="g132706">
                      <g
                         id="g132704">
                        <path
                           d="M 1.54894,-20.105 0,-12.814 C 13.8518,-8.54787 25.7844,-4.27654 35.7978,0 l 1.3299,-7.94811 C 25.1951,-12.8192 13.3355,-16.8715 1.54894,-20.105 Z"
                           style="fill:#f81436;fill-opacity:1;fill-rule:nonzero;stroke:none"
                           id="path132702" />
                      </g>
                    </g>
                  </g>
                  <g
                     transform="translate(325.62239,31.44436)"
                     id="g132716">
                    <g
                       id="g132714">
                      <g
                         id="g132712">
                        <path
                           d="m 106.095,-139.014 c -14.5927,0 -25.8316,1.106 -33.7171,3.317 -7.8751,2.212 -13.7319,5.122 -17.5704,8.731 -3.828,3.609 -6.8477,7.478 -9.0589,11.609 -2.7954,-6.488 -7.1763,-11.797 -13.1426,-15.928 -5.9663,-4.12 -13.0747,-6.18 -21.3253,-6.18 -4.13053,0 -7.04067,1.069 -8.73042,3.208 C 0.85009,-132.119 0,-129.871 0,-127.514 c 0,2.649 0.95961,5.002 2.87884,7.056 1.91923,2.066 4.71984,3.098 8.40186,3.098 8.3966,0 14.6915,1.951 18.8846,5.852 4.2035,3.911 7.1501,8.996 8.8399,15.2545 1.7002,6.2688 2.9206,13.0852 3.6611,20.4492 l 13.9249,0.8918 c -0.8866,-4.5686 -1.3299,-9.2102 -1.3299,-13.9248 0,-6.6339 1.2151,-11.9067 3.6455,-15.8177 2.4303,-3.901 5.8567,-6.879 10.2793,-8.934 5.8933,9.575 12.9652,19.0409 21.2158,28.3972 8.2506,9.3562 17.4191,17.2365 27.5051,23.6409 10.097,6.4148 20.82,9.6222 32.168,9.6222 8.981,0 16.715,-2.1018 23.203,-6.3053 6.488,-4.2035 11.536,-9.471 15.145,-15.8023 3.609,-6.3314 5.414,-12.887 5.414,-19.6669 0,-8.6988 -2.947,-16.0688 -8.84,-22.1078 -15.031,-15.468 -41.331,-23.203 -78.902,-23.203 z m 1.987,19.667 c 8.25,0 16.537,0.407 24.861,1.221 8.324,0.813 15.067,1.955 20.23,3.426 7.218,2.065 13.477,4.788 18.775,8.167 5.309,3.39 7.964,7.4476 7.964,12.1727 0,3.828 -1.252,7.6195 -3.755,11.3745 -2.503,3.755 -6.191,6.9207 -11.062,9.4971 -4.86,2.5868 -10.9,3.8802 -18.118,3.8802 -5.152,0 -11.306,-1.549 -18.462,-4.6469 -7.145,-3.0978 -14.623,-8.1097 -22.436,-15.0357 -7.802,-6.9259 -15.6093,-16.2039 -23.4218,-27.8339 3.2439,-0.741 6.5974,-1.299 10.0603,-1.674 3.463,-0.365 8.5845,-0.548 15.3645,-0.548 z m 10.608,95.2523 c -3.244,0 -5.972,1.1057 -8.183,3.317 -2.211,2.2113 -3.317,5.1579 -3.317,8.8399 0,3.38993 1.106,6.22705 3.317,8.51135 C 112.718,-1.14215 115.446,0 118.69,0 c 6.926,0 10.759,-3.97927 11.499,-11.9378 0,-7.51 -3.833,-11.5623 -11.499,-12.1569 z"
                           style="fill:#f81436;fill-opacity:1;fill-rule:nonzero;stroke:none"
                           id="path132710" />
                      </g>
                    </g>
                  </g>
                </g>
              </g>
            </g>
          </g>
        </g>
      </g>
    </g>
  </g>
</svg>
