<?xml version="1.0" encoding="UTF-8" standalone="no"?>
<!-- Created with Inkscape (http://www.inkscape.org/) -->

<svg
   version="1.1"
   id="svg133078"
   width="400"
   height="200"
   viewBox="0 0 400 200"
   sodipodi:docname="1511_word.pdf"
   xmlns:inkscape="http://www.inkscape.org/namespaces/inkscape"
   xmlns:sodipodi="http://sodipodi.sourceforge.net/DTD/sodipodi-0.dtd"
   xmlns="http://www.w3.org/2000/svg"
   xmlns:svg="http://www.w3.org/2000/svg">
  <defs
     id="defs133082">
    <clipPath
       clipPathUnits="userSpaceOnUse"
       id="clipPath133100">
      <path
         d="M 0,-269.62552 H 362.64205 V 269.62552 H 0 Z"
         id="path133098" />
    </clipPath>
  </defs>
  <sodipodi:namedview
     id="namedview133080"
     pagecolor="#ffffff"
     bordercolor="#000000"
     borderopacity="0.25"
     inkscape:showpageshadow="2"
     inkscape:pageopacity="0.0"
     inkscape:pagecheckerboard="0"
     inkscape:deskcolor="#d1d1d1" />
  <g
     id="g133084"
     inkscape:groupmode="layer"
     inkscape:label="1511_word26"
     transform="matrix(1.3333333,0,0,-1.3333333,0,200)">
    <g
       id="g133086">
      <g
         id="g133088">
        <g
           id="g133090"
           transform="translate(89.56,142.30523)">
          <g
             id="g133092"
             transform="matrix(0.33333,0,0,0.33333,0,-29.95805)">
            <g
               id="g133094">
              <g
                 id="g133096" />
              <g
                 id="g133128">
                <g
                   clip-path="url(#clipPath133100)"
                   id="g133126">
                  <g
                     transform="translate(0,6.77938)"
                     id="g133108">
                    <g
                       id="g133106">
                      <g
                         id="g133104">
                        <path
                           d="m 50.6144,-186.53 c -16.0631,0 -28.5172,4.751 -37.3623,14.253 C 4.41735,-162.775 0,-150.508 0,-135.478 c 0,10.9 2.7276,22.244 8.1828,34.03 l 11.9378,-2.206 c -3.3899,-10.462 -5.0849,-19.229 -5.0849,-26.301 0,-8.25 1.768,-15.134 5.3039,-20.652 3.536,-5.528 8.1776,-9.654 13.9249,-12.376 5.7472,-2.733 12.0108,-4.099 18.7907,-4.099 9.2832,0 17.7894,2.101 25.5184,6.305 7.7395,4.193 13.226,10.858 16.4595,19.995 1.0326,2.212 1.5489,4.496 1.5489,6.853 0,13.56 -4.1983,29.472 -12.5949,47.7358 l 15.4738,7.072 1.9871,-5.7421 c 2.649,-8.5426 5.299,-14.8427 7.948,-18.9007 2.66,-4.047 6.201,-7.176 10.624,-9.387 5.893,9.575 12.928,19.0045 21.106,28.2877 8.177,9.2833 17.309,17.0905 27.396,23.4219 10.097,6.3418 20.819,9.5127 32.168,9.5127 8.98,0 16.746,-2.1018 23.296,-6.3053 6.561,-4.2035 11.646,-9.471 15.255,-15.8023 3.62,-6.3314 5.429,-12.887 5.429,-19.6669 0,-8.6988 -3.025,-16.1048 -9.074,-22.2168 -6.04,-6.113 -13.628,-10.937 -22.765,-14.473 -14.874,-5.747 -33.07,-8.621 -54.589,-8.621 -12.819,0 -22.983,1.033 -30.493,3.098 -7.51,2.065 -13.331,4.866 -17.461,8.402 0,-7.666 -0.589,-14.3 -1.768,-19.902 -3.974,-12.37 -11.0461,-21.982 -21.216,-28.835 -10.1698,-6.853 -22.3997,-10.279 -36.6896,-10.279 z m 108.3006,67.183 c 8.251,0 16.501,0.407 24.752,1.221 8.251,0.813 14.952,1.955 20.105,3.426 17.68,5.153 26.52,12.006 26.52,20.5587 0,3.682 -1.252,7.4005 -3.755,11.1555 -2.504,3.755 -6.113,6.9207 -10.827,9.4971 -4.715,2.5868 -10.535,3.8802 -17.461,3.8802 -5.445,0 -11.745,-1.5125 -18.9,-4.5373 -7.145,-3.0249 -14.66,-8.0003 -22.546,-14.9262 -7.875,-6.9155 -15.719,-16.12 -23.531,-27.615 6.341,-1.773 14.889,-2.66 25.643,-2.66 z m 9.935,95.2523 c -3.233,0 -5.919,1.1057 -8.057,3.317 -2.139,2.2113 -3.208,5.1579 -3.208,8.8399 0,3.38993 1.069,6.22705 3.208,8.51135 2.138,2.2843 4.902,3.42645 8.292,3.42645 6.916,0 10.744,-3.97927 11.484,-11.9378 0,-7.51 -3.906,-11.5623 -11.719,-12.1569 z"
                           style="fill:#f81436;fill-opacity:1;fill-rule:nonzero;stroke:none"
                           id="path133102" />
                      </g>
                    </g>
                  </g>
                  <g
                     transform="translate(224.1537,-46.04113)"
                     id="g133116">
                    <g
                       id="g133114">
                      <g
                         id="g133112">
                        <path
                           d="m 32.9346,-133.71 c -1.7732,0 -5.4239,0.334 -10.9521,1.002 -5.5178,0.657 -12.8453,3.27 -21.9825,7.838 l 2.42511,13.487 c 2.35732,-1.179 5.9663,-2.576 10.82699,-4.193 4.871,-1.627 9.5127,-2.811 13.9248,-3.552 0.1565,-0.146 1.1891,-0.219 3.0979,-0.219 10.9104,0 21.2992,5.82 31.1666,17.461 7.0719,8.5427 10.6079,18.8585 10.6079,30.9476 0,10.4618 -1.987,21.7321 -5.9611,33.8107 -0.7406,2.5034 -4.4278,12.0786 -11.0616,28.72586 L 70.7194,0 c 0.8866,-2.35731 2.4355,-6.99893 4.6468,-13.9248 2.2113,-6.9259 4.5686,-14.2169 7.072,-21.873 3.2439,-10.3158 4.8658,-20.9237 4.8658,-31.8237 0,-1.7732 -0.1877,-6.3053 -0.5632,-13.5963 -0.3651,-7.291 -3.4213,-15.359 -9.1685,-24.2042 -12.2247,-17.826 -26.5146,-27.182 -42.8697,-28.069 z"
                           style="fill:#000000;fill-opacity:1;fill-rule:nonzero;stroke:none"
                           id="path133110" />
                      </g>
                    </g>
                  </g>
                  <g
                     transform="translate(314.23368,89.87466)"
                     id="g133124">
                    <g
                       id="g133122">
                      <g
                         id="g133120">
                        <path
                           d="m 40.2256,-220.56 h -16.569 l -6.1958,159.1343 16.5846,1.3142 z M 0,-45.5139 1.3299,-35.1407 c 1.03263,0.5946 2.57636,1.1839 4.63118,1.768 2.06526,0.5946 3.91147,0.8918 5.53862,0.8918 -5.30915,3.39 -7.96373,7.9586 -7.96373,13.7058 0,6.0394 2.2843,10.67575 6.85293,13.90923 C 14.9575,-1.62196 20.1884,0 26.0817,0 34.7704,0 41.107,-1.91401 45.0914,-5.74204 L 41.5555,-15.9119 c -4.5686,3.2439 -9.8726,4.8659 -15.9119,4.8659 -3.682,0 -6.4826,-0.8501 -8.4018,-2.5503 -1.9193,-1.6897 -2.8789,-3.489 -2.8789,-5.3978 0,-7.0719 6.4826,-10.9052 19.4479,-11.4997 H 48.4084 L 43.9806,-41.7589 H 29.6177 c -13.1113,0 -22.98385,-1.2516 -29.6177,-3.755 z"
                           style="fill:#000000;fill-opacity:1;fill-rule:nonzero;stroke:none"
                           id="path133118" />
                      </g>
                    </g>
                  </g>
                </g>
              </g>
            </g>
          </g>
        </g>
      </g>
    </g>
  </g>
</svg>
