<?xml version="1.0" encoding="UTF-8" standalone="no"?>
<!-- Created with Inkscape (http://www.inkscape.org/) -->

<svg
   version="1.1"
   id="svg133330"
   width="400"
   height="200"
   viewBox="0 0 400 200"
   sodipodi:docname="1512_word.pdf"
   xmlns:inkscape="http://www.inkscape.org/namespaces/inkscape"
   xmlns:sodipodi="http://sodipodi.sourceforge.net/DTD/sodipodi-0.dtd"
   xmlns="http://www.w3.org/2000/svg"
   xmlns:svg="http://www.w3.org/2000/svg">
  <defs
     id="defs133334">
    <clipPath
       clipPathUnits="userSpaceOnUse"
       id="clipPath133352">
      <path
         d="M 0,-193.38313 H 380.27045 V 193.38313 H 0 Z"
         id="path133350" />
    </clipPath>
  </defs>
  <sodipodi:namedview
     id="namedview133332"
     pagecolor="#ffffff"
     bordercolor="#000000"
     borderopacity="0.25"
     inkscape:showpageshadow="2"
     inkscape:pageopacity="0.0"
     inkscape:pagecheckerboard="0"
     inkscape:deskcolor="#d1d1d1" />
  <g
     id="g133336"
     inkscape:groupmode="layer"
     inkscape:label="1512_word28"
     transform="matrix(1.3333333,0,0,-1.3333333,0,200)">
    <g
       id="g133338">
      <g
         id="g133340">
        <g
           id="g133342"
           transform="translate(86.62167,114.98734)">
          <g
             id="g133344"
             transform="matrix(0.33333,0,0,0.33333,0,-21.48696)">
            <g
               id="g133346">
              <g
                 id="g133348" />
              <g
                 id="g133380">
                <g
                   clip-path="url(#clipPath133352)"
                   id="g133378">
                  <g
                     transform="translate(0,64.46096)"
                     id="g133360">
                    <g
                       id="g133358">
                      <g
                         id="g133356">
                        <path
                           d="m 169.304,-24.0947 c -3.244,0 -5.971,1.1057 -8.183,3.317 -2.211,2.2113 -3.317,5.1579 -3.317,8.8399 0,3.38993 1.106,6.22705 3.317,8.51135 C 163.333,-1.14215 166.06,0 169.304,0 c 6.926,0 10.754,-3.97927 11.484,-11.9378 0,-7.51 -3.828,-11.5623 -11.484,-12.1569 z M 50.6144,-186.53 c -16.0631,0 -28.5172,4.751 -37.3623,14.253 C 4.41735,-162.775 0,-150.508 0,-135.478 c 0,10.9 2.7276,22.244 8.1828,34.03 l 11.9378,-2.206 c -3.3899,-10.462 -5.0849,-19.229 -5.0849,-26.301 0,-8.25 1.768,-15.134 5.3039,-20.652 3.536,-5.528 8.1776,-9.654 13.9249,-12.376 5.7472,-2.733 12.0108,-4.099 18.7907,-4.099 9.2832,0 17.7894,2.174 25.5184,6.524 7.7395,4.349 13.226,11.015 16.4595,19.995 1.0326,2.504 1.5489,4.788 1.5489,6.853 0,12.819 -4.1983,28.658 -12.5949,47.5168 l 15.4738,7.072 1.9871,-5.7421 c 2.649,-8.5426 5.299,-14.8427 7.948,-18.9007 2.66,-4.047 6.201,-7.176 10.624,-9.387 5.893,9.575 12.928,19.0045 21.106,28.2877 8.177,9.2833 17.309,17.0905 27.396,23.4219 10.097,6.3418 20.819,9.5127 32.168,9.5127 8.98,0 16.746,-2.1018 23.296,-6.3053 6.561,-4.2035 11.646,-9.471 15.255,-15.8023 3.62,-6.3314 5.429,-12.887 5.429,-19.6669 0,-7.9588 -2.508,-14.8118 -7.525,-20.5588 3.39,-1.033 7.218,-1.846 11.484,-2.441 4.276,-0.584 8,-0.876 11.171,-0.876 3.171,0 5.898,-0.772 8.183,-2.315 2.284,-1.544 3.426,-4.011 3.426,-7.401 0,-6.78 -3.979,-10.17 -11.938,-10.17 -10.023,0 -18.279,0.955 -24.767,2.863 -6.477,1.92 -11.703,4.209 -15.677,6.869 -16.647,-7.52 -36.909,-11.281 -60.785,-11.281 -12.819,0 -22.983,1.033 -30.493,3.098 -7.51,2.065 -13.331,4.866 -17.461,8.402 0,-7.666 -0.589,-14.3 -1.768,-19.902 -3.974,-12.37 -11.0461,-21.982 -21.216,-28.835 -10.1698,-6.853 -22.3997,-10.279 -36.6896,-10.279 z m 108.3006,67.183 c 8.251,0 16.501,0.407 24.752,1.221 8.251,0.813 14.952,1.955 20.105,3.426 17.68,5.153 26.52,12.006 26.52,20.5587 0,3.682 -1.252,7.4005 -3.755,11.1555 -2.504,3.755 -6.113,6.9207 -10.827,9.4971 -4.715,2.5868 -10.535,3.8802 -17.461,3.8802 -5.445,0 -11.745,-1.5125 -18.9,-4.5373 -7.145,-3.0249 -14.66,-8.0003 -22.546,-14.9262 -7.875,-6.9155 -15.719,-16.12 -23.531,-27.615 6.341,-1.773 14.889,-2.66 25.643,-2.66 z"
                           style="fill:#f81436;fill-opacity:1;fill-rule:nonzero;stroke:none"
                           id="path133354" />
                      </g>
                    </g>
                  </g>
                  <g
                     transform="translate(247.31449,-18.19624)"
                     id="g133368">
                    <g
                       id="g133366">
                      <g
                         id="g133364">
                        <path
                           d="m 81.3273,-54.8075 c -9.5753,0 -17.0905,1.841 -22.5457,5.523 -5.4448,3.682 -9.2728,9.2102 -11.4841,16.5846 C 41.8423,-47.4383 29.8367,-54.8075 11.2807,-54.8075 3.76023,-54.8075 0,-51.4176 0,-44.6377 c 0,2.2113 0.8866,4.3808 2.6598,6.5087 1.76277,2.1383 4.70941,3.2074 8.8399,3.2074 8.1046,0 14.2899,1.4707 18.556,4.4121 4.2766,2.9519 7.3327,6.9677 9.1685,12.0474 1.8462,5.0901 3.0666,10.87906 3.6612,17.36689 L 55.9184,0 c -0.2921,-2.35731 -0.4381,-4.86065 -0.4381,-7.51002 0,-4.56858 0.6623,-8.95468 1.987,-13.15818 1.3247,-4.1931 3.8646,-7.5831 7.6196,-10.1698 3.755,-2.5764 9.1685,-3.9376 16.2404,-4.0836 3.2439,0 6.008,-0.7719 8.2923,-2.3156 2.2843,-1.5437 3.4265,-4.0106 3.4265,-7.4005 0,-6.7799 -3.9063,-10.1698 -11.7188,-10.1698 z M 62.1142,-110.053 c -6.6339,0 -10.2481,3.901 -10.8426,11.703 0,7.0719 3.6142,10.9782 10.8426,11.7187 3.3795,0 6.1019,-1.0691 8.1671,-3.2074 2.0653,-2.1382 3.0979,-4.9754 3.0979,-8.5113 0,-7.072 -3.755,-10.973 -11.265,-11.703 z m -29.6177,0 c -3.2439,0 -5.935,1.032 -8.0733,3.098 -2.1382,2.055 -3.2074,4.923 -3.2074,8.605 0,7.0719 3.7602,10.9782 11.2807,11.7187 3.3899,0 6.1123,-1.0691 8.1672,-3.2074 2.0652,-2.1382 3.0978,-4.9754 3.0978,-8.5113 0,-7.072 -3.755,-10.973 -11.265,-11.703 z"
                           style="fill:#000000;fill-opacity:1;fill-rule:nonzero;stroke:none"
                           id="path133362" />
                      </g>
                    </g>
                  </g>
                  <g
                     transform="translate(317.51481,-7.80737)"
                     id="g133376">
                    <g
                       id="g133374">
                      <g
                         id="g133372">
                        <path
                           d="m 39.1147,-121.115 c -3.2439,0 -5.9715,1.106 -8.1828,3.317 -2.2113,2.211 -3.3169,5.158 -3.3169,8.84 0,7.072 3.8332,11.0513 11.4997,11.9379 6.9259,0 10.7592,-3.9789 11.4997,-11.9379 0,-7.51 -3.8332,-11.562 -11.4997,-12.157 z M 14.3629,-65.1964 H 11.046 c -7.364,0 -11.046,3.463 -11.046,10.3889 0,2.0652 0.77186,4.1983 2.31559,6.3991 1.54373,2.2113 4.45386,3.317 8.73041,3.317 h 4.4278 c 15.9066,0 26.2903,1.6949 31.1509,5.0849 l 0.4381,1.768 c 0.5946,1.9192 0.8918,4.2035 0.8918,6.8529 0,2.6493 -0.5163,5.2987 -1.5489,7.9481 -1.0326,2.6598 -2.9466,6.201 -5.742,10.6235 L 36.9086,-6.41481 53.0395,0 c 6.4774,-12.0786 9.7161,-24.2355 9.7161,-36.4706 0,-6.0393 -1.1786,-12.0056 -3.5359,-17.8988 -2.6494,-2.7954 -7.0668,-5.2988 -13.2521,-7.5101 -6.1853,-2.2113 -16.7202,-3.3169 -31.6047,-3.3169 z"
                           style="fill:#000000;fill-opacity:1;fill-rule:nonzero;stroke:none"
                           id="path133370" />
                      </g>
                    </g>
                  </g>
                </g>
              </g>
            </g>
          </g>
        </g>
      </g>
    </g>
  </g>
</svg>
