<?xml version="1.0" encoding="UTF-8" standalone="no"?>
<!-- Created with Inkscape (http://www.inkscape.org/) -->

<svg
   version="1.1"
   id="svg133156"
   width="400"
   height="400"
   viewBox="0 0 400 400"
   sodipodi:docname="1512_pic.pdf"
   xmlns:inkscape="http://www.inkscape.org/namespaces/inkscape"
   xmlns:sodipodi="http://sodipodi.sourceforge.net/DTD/sodipodi-0.dtd"
   xmlns="http://www.w3.org/2000/svg"
   xmlns:svg="http://www.w3.org/2000/svg">
  <defs
     id="defs133160">
    <clipPath
       clipPathUnits="userSpaceOnUse"
       id="clipPath133176">
      <path
         d="M 0,0 H 213.38646 V -112.36506 H 0 Z"
         clip-rule="evenodd"
         id="path133174" />
    </clipPath>
    <clipPath
       clipPathUnits="userSpaceOnUse"
       id="clipPath133186">
      <path
         d="M 0,-337.09542 H 640.159 V 337.09542 H 0 Z"
         id="path133184" />
    </clipPath>
  </defs>
  <sodipodi:namedview
     id="namedview133158"
     pagecolor="#ffffff"
     bordercolor="#000000"
     borderopacity="0.25"
     inkscape:showpageshadow="2"
     inkscape:pageopacity="0.0"
     inkscape:pagecheckerboard="0"
     inkscape:deskcolor="#d1d1d1" />
  <g
     id="g133162"
     inkscape:groupmode="layer"
     inkscape:label="1512_pic27"
     transform="matrix(1.3333333,0,0,-1.3333333,0,400)">
    <g
       id="g133164">
      <g
         id="g133166">
        <g
           id="g133168"
           transform="translate(43.30677,206.1826)">
          <g
             id="g133170">
            <g
               id="g133172"
               clip-path="url(#clipPath133176)">
              <g
                 id="g133178"
                 transform="matrix(0.33333,0,0,0.33333,0,-37.45509)">
                <g
                   id="g133180">
                  <g
                     id="g133182" />
                  <g
                     id="g133270">
                    <g
                       clip-path="url(#clipPath133186)"
                       id="g133268">
                      <g
                         transform="translate(60.8571,-152.41136)"
                         id="g133194">
                        <g
                           id="g133192">
                          <g
                             id="g133190">
                            <path
                               d="m 519.649,-52.8179 c -2.705,-2.171 -5.41,-4.342 -8.115,-6.513 -6.544,9.428 -18.035,15.201 -29.506,14.825 -3.469,-0.114 -7.282,-0.972 -9.288,-3.804 -2.006,-2.833 -0.541,-7.884 2.929,-7.971 -19.327,-1.72 -38.655,-3.44 -57.983,-5.159 0.031,-2.476 0.062,-4.951 0.093,-7.427 -17.295,3.821 -34.906,7.666 -52.561,6.227 -14.923,-1.217 -29.52,-6.195 -44.485,-5.678 -17.482,0.603 -36.88,8.231 -51.225,-1.779 -23.989,6.438 -49.867,5.655 -73.423,-2.222 1.874,5.375 -6.158,8.383 -11.847,8.175 -16.112,-0.59 -32.149,-3.203 -47.615,-7.758 2.085,4.586 -4.389,8.185 -9.366,8.96 -23.844,3.709 -48.377,2.944 -71.944,-2.241 -6.092,-0.578 -4.964,9.596 -8.388,14.667 -1.873,2.775 -5.323,3.913 -8.468,5.06 -15.097,5.507 -28.589,15.338 -38.457,28.021 13.633,-2.973 27.768,-0.466 41.701,0.303 28.992,1.598 57.817,-4.404 86.796,-6.233 66.785,-4.215 132.99,13.74805 199.876,15.79005 49.907,1.524 100.433,-5.79105 149.482,3.544 12.974,2.469 36.945,9.126 47.355,-3.135 4.284,-5.04505 3.419,-11.23105 2.375,-17.27405 -0.997,-5.77 -3.236,-24.606 -7.936,-28.378 z"
                               style="fill:#ba913d;fill-opacity:1;fill-rule:nonzero;stroke:none"
                               id="path133188" />
                          </g>
                        </g>
                      </g>
                      <g
                         transform="translate(82.678,-81.65492)"
                         id="g133202">
                        <g
                           id="g133200">
                          <g
                             id="g133198">
                            <path
                               d="m 0,-21.174 c 10.896,-6.533 20.371,-16.058 27.376,-27.519 -7.001,15.349 -0.3,36.627 13.715,43.551 0.211,-10.934 0.42,-21.869 0.63,-32.803 C 50.628,-19.542 66.372,-5.512 84.304,0 78.057,-12.18 70.319,-23.385 61.377,-33.195 c 7.125,6.229 16.46,9.143 25.411,7.932 -3.181,-13.066 -2.545,-27.277 1.786,-39.916 5.483,18.019 10.965,36.037 16.448,54.056 3.667,-13.767 4.229,-28.571 1.617,-42.641 0.249,7.57 1.495,15.912 6.726,20.66 5.232,4.747 15.245,2.135 15.582,-5.43 -0.458,8.664 -0.476,17.358 -0.052,26.024 4.439,2.01 7.365,-5.324 7.685,-10.708 0.951,-15.983 1.207,-32.017 0.767,-48.028 3.918,19.382 17,36.083 33.567,42.852 -4.314,-11.707 -8.714,-24.047 -7.478,-36.648 8.34,15.099 16.681,30.197 25.022,45.295 -1.309,-17.635 5.391,-35.789 17.407,-47.164 -3.715,7.308 2.675,15.731 8.46,21.057 12.532,11.537 28.442,23.793 43.573,17.344 -7.186,-5.1 -12.581,-13.321 -14.809,-22.562 6.499,7.82 13.497,15.113 20.921,21.802 1.559,1.404 3.432,2.864 5.378,2.37 2.471,-0.628 3.473,-3.903 4.12,-6.667 2.741,-11.721 8.321,-24.751 18.875,-27.024 0.38,10.544 0.76,21.087 1.14,31.63 0.106,2.934 0.748,6.634 3.293,7.248 1.289,0.312 2.595,-0.367 3.726,-1.129 8.422,-5.671 13.227,-17.473 11.554,-28.376 2.529,11.884 9.405,22.511 18.666,28.85 4.273,-4.453 1.377,-12.307 -1.087,-18.252 -2.465,-5.945 -2.879,-15.322 2.79,-16.791 2.441,-0.632 4.903,0.728 7.118,2.048 8.075,4.81 16.151,9.62 24.226,14.43 -0.612,-8.899 6.759,-17.407 14.66,-16.917 -2.146,15.422 0.269,31.606 6.773,45.385 5.408,-15.71 10.816,-31.42 16.223,-47.129 5.199,11.228 10.398,22.456 15.597,33.684 1.157,2.5 2.527,5.213 4.892,6.127 3.637,1.406 7.484,-2.596 8.055,-6.886 0.573,-4.289 -1.087,-8.514 -2.706,-12.448 -3.071,-7.466 -6.143,-14.932 -9.215,-22.399 17.043,14.762 31.516,33.287 42.358,54.216 2.558,-14.375 3.439,-29.129 2.614,-43.76 2.507,10.995 5.014,21.991 7.521,32.986 0.598,2.622 1.254,5.366 2.905,7.331 5.148,6.125 15.12,-1.376 15.207,-9.816 0.086,-8.44 -5.53,-15.403 -10.785,-21.41 6.772,10.158 16.959,17.344 28.019,19.765 0.191,-15.116 -6.516,-30.137 -17.398,-38.959 7.512,-1.809 14.781,3.349 22.212,5.539 7.432,2.191 17.926,-1.446 17.638,-10.106 -49.324,-6.659 -98.648,-13.319 -147.972,-19.978 -61.298,-8.277 -122.843,-16.568 -184.564,-15.008 -40.662,1.027 -81.134,6.326 -121.535,11.62 -15.271,2 -44.192,1.834 -55.994,14.587 C 7.961,-63.323 4.648,-36.085 0,-21.174 Z"
                               style="fill:#ba913d;fill-opacity:1;fill-rule:nonzero;stroke:none"
                               id="path133196" />
                          </g>
                        </g>
                      </g>
                      <g
                         transform="translate(359.32996,92.83558)"
                         id="g133210">
                        <g
                           id="g133208">
                          <g
                             id="g133206">
                            <path
                               d="m 208.389,-130.356 c -1.262,-29.299 -9.263,-58.124 -25.174,-82.87 -2.367,-3.595 -4.902,-7.088 -7.64,-10.457 -5.657,-7.483 -12.926,-14.041 -21.197,-19.225 -3.854,-2.287 -7.967,-4.135 -12.429,-5.578 -4.474,-1.442 -9.308,-2.479 -14.638,-3.144 -20.374,-2.535 -41.3449,-0.372 -60.7269,6.435 -7.528,2.637 -14.706,6.513 -21.343,11.325 -3.313,2.4 -6.502,5.037 -9.534,7.854 -58.867,52.681 -38.86496,149.479 15.867,195.974 4.89,4.305 10.052,8.249 15.449,11.765 C 83.2161,-7.73 101.539,-1.014 121.023,0 c 1.476,-0.067 2.941,-0.18 4.383,-0.326 5.747,-0.575 11.213,-1.747 16.408,-3.437 22.774,-7.438 40.24,-24.882 51.644,-46.258 2.851,-5.342 5.319,-10.931 7.381,-16.678 5.815,-20.532 8.485,-42.212 7.55,-63.657 z"
                               style="fill:#f2b073;fill-opacity:1;fill-rule:nonzero;stroke:none"
                               id="path133204" />
                          </g>
                        </g>
                      </g>
                      <g
                         transform="translate(442.37189,92.50958)"
                         id="g133218">
                        <g
                           id="g133216">
                          <g
                             id="g133214">
                            <path
                               d="m 125.347,-130.03 c -9.116,-30.741 -36.3298,-64.254 -72.0178,-52.771 -20.024,6.445 -32.116,20.734 -43.103,38.088 -6.86299,10.829 -7.66299,23.157 -9.22899,35.744 -3.415,27.338 1.972,56.918 15.68599,80.887 4.068,7.099 14.57,22.301 25.681,28.082 5.747,-0.575 11.213,-1.747 16.408,-3.437 22.774,-7.438 40.24,-24.882 51.6438,-46.258 2.851,-5.342 5.319,-10.931 7.381,-16.678 5.815,-20.532 8.485,-42.212 7.55,-63.657 z"
                               style="fill:#fac48c;fill-opacity:1;fill-rule:nonzero;stroke:none"
                               id="path133212" />
                          </g>
                        </g>
                      </g>
                      <g
                         transform="translate(67.96321,92.83558)"
                         id="g133226">
                        <g
                           id="g133224">
                          <g
                             id="g133222">
                            <path
                               d="m 0.18289,-130.356 c 1.262,-29.299 9.263,-58.124 25.17401,-82.87 2.367,-3.595 4.902,-7.088 7.64,-10.457 5.657,-7.483 12.926,-14.041 21.197,-19.225 3.854,-2.287 7.967,-4.135 12.429,-5.578 4.474,-1.442 9.308,-2.479 14.638,-3.144 20.3741,-2.535 41.3451,-0.372 60.7271,6.435 7.528,2.637 14.706,6.513 21.343,11.325 3.313,2.4 6.502,5.037 9.534,7.854 58.867,52.681 38.865,149.479 -15.867,195.974 -4.89,4.305 -10.052,8.249 -15.45,11.765 C 125.356,-7.73 107.033,-1.014 87.5489,0 c -1.476,-0.067 -2.941,-0.18 -4.383,-0.326 -5.747,-0.575 -11.213,-1.747 -16.408,-3.437 -22.774,-7.438 -40.24,-24.882 -51.644,-46.258 -2.851,-5.342 -5.31901,-10.931 -7.38101,-16.678 -5.815,-20.532 -8.485,-42.212 -7.55,-63.657 z"
                               style="fill:#f2b073;fill-opacity:1;fill-rule:nonzero;stroke:none"
                               id="path133220" />
                          </g>
                        </g>
                      </g>
                      <g
                         transform="translate(67.96321,92.50958)"
                         id="g133234">
                        <g
                           id="g133232">
                          <g
                             id="g133230">
                            <path
                               d="m 0.18289,-130.03 c 9.116,-30.741 36.33001,-64.254 72.01801,-52.771 20.024,6.445 32.1161,20.734 43.1031,38.088 6.863,10.829 7.663,23.157 9.229,35.744 3.415,27.338 -1.972,56.918 -15.686,80.887 -4.068,7.099 -14.5711,22.301 -25.6811,28.082 -5.747,-0.575 -11.213,-1.747 -16.408,-3.437 -22.774,-7.438 -40.24,-24.882 -51.644,-46.258 -2.851,-5.342 -5.31901,-10.931 -7.38101,-16.678 -5.815,-20.532 -8.485,-42.212 -7.55,-63.657 z"
                               style="fill:#fac48c;fill-opacity:1;fill-rule:nonzero;stroke:none"
                               id="path133228" />
                          </g>
                        </g>
                      </g>
                      <g
                         transform="translate(200.97615,112.36521)"
                         id="g133242">
                        <g
                           id="g133240">
                          <g
                             id="g133238">
                            <path
                               d="m 219.393,-241.684 c -4.732,-9.71 -11.493,-18.725 -19.686,-26.423 -3.858,-3.444 -8.085,-6.443 -12.816,-9.064 -4.731,-2.622 -9.966,-4.865 -15.842,-6.796 -22.464,-7.385 -46.642,-9.583 -70.054,-6.196 -9.0894,1.314 -18.0544,4.104 -26.6224,8.063 -4.285,1.979 -8.47,4.25 -12.521,6.758 -78.199,46.485 -77.073,160.299 -25.53,224.9812 4.572,5.945 9.531,11.547 14.851,16.718 15.96,15.518 35.172,27.15998 56.9684,32.63498 8.382,1.244 16.511,1.307 24.333,0.351 27.377,-3.347 50.988,-19.18698 68.617,-40.81298 4.408,-5.406 8.434,-11.174 12.038,-17.216 26.323,-51.8492 34.211,-114.9542 12.578,-169.4842 -1.874,-4.585 -3.975,-9.093 -6.314,-13.514 z"
                               style="fill:#fac48c;fill-opacity:1;fill-rule:nonzero;stroke:none"
                               id="path133236" />
                          </g>
                        </g>
                      </g>
                      <g
                         transform="translate(224.67196,111.90108)"
                         id="g133250">
                        <g
                           id="g133248">
                          <g
                             id="g133246">
                            <path
                               d="m 49.5262,-17.6546 c -4.294,-5.213 -8.422,-10.673 -12.337,-16.341 -3.917,-5.668 -7.622,-11.544 -11.073,-17.589 -41.369,-62.9944 -37.988,-170.0474 42.161,-200.1944 6.901,-2.813 13.945,-4.786 21.269,-5.913 5.635,0 10.142,-2.253 15.3518,-1.51 5.138,-0.279 10.298,-0.173 15.398,0.355 5.099,0.529 10.136,1.479 15.04,2.876 6.537,1.863 12.836,4.518 18.724,8.024 65.076,42.091 66.203,141.256 24.114,201.2574 -4.04,5.57 -8.467,10.817 -13.248,15.638 -14.343,14.465 -31.87,25.10501 -51.669,29.20301 -7.542,1.561 -15.4138,2.173 -23.5658,1.684 -7.437,-0.928 -14.698,-3.179 -21.675,-6.861 -6.708,-2.792 -12.902,-6.33501 -18.49,-10.62901 z"
                               style="fill:#fad1a8;fill-opacity:1;fill-rule:nonzero;stroke:none"
                               id="path133244" />
                          </g>
                        </g>
                      </g>
                      <g
                         transform="translate(512.98476,-143.10177)"
                         id="g133258">
                        <g
                           id="g133256">
                          <g
                             id="g133254">
                            <path
                               d="m 44.4108,-19.983 c -5.363,15.30595 -23.73,21.80995 -38.50496,19.54395 -10.255,-1.573 -6.092,-17.88695 4.35696,-15.80595 11.294,2.249 19.218,-2.212 28.152,-8.348 2.872,-1.972 7.149,1.32 5.996,4.61 z"
                               style="fill:#d4ad59;fill-opacity:1;fill-rule:nonzero;stroke:none"
                               id="path133252" />
                          </g>
                        </g>
                      </g>
                      <g
                         transform="translate(0,-104.71892)"
                         id="g133266">
                        <g
                           id="g133264">
                          <g
                             id="g133262">
                            <path
                               d="m 640.159,-84.53 c -8.791,12.473 -17.582,24.946 -26.373,37.419 -5.315,7.542 -10.756,15.214 -18.533,21.047 -3.879,2.909 -8.465,5.32 -13.364,6.734 4.133,2.247 7.541,5.073 5.086,7.726 -5.81,6.279 -19.181,-0.812 -25.36,-3.489 -0.497,-0.215 -0.978,-0.458 -1.469,-0.682 0.72,1.409 1.42,2.832 2.047,4.309 0.475,1.119 0.429,2.427 0.023,3.59 1.97,1.174 3.719,2.477 4.741,4.74 0.197,0.434 0.14,0.981 -0.323,1.235 -7.544,4.122 -20.098,-4.896 -25.84,-9.274 -1.68,-1.281 -3.276,-2.648 -4.831,-4.054 -2.185,1.162 -4.516,2.128 -6.968,2.832 0.782,-2.452 1.564,-4.903 2.345,-7.355 -4.735,-5.087 -8.758,-10.805 -12.023,-17.024 -0.525,-0.999 -0.723,-1.978 -0.675,-2.897 -22.889,1.304 -46.183,-1.529 -69.021,-4.391 14.526,6.743 29.052,13.487 43.578,20.23 -32.233,0.739 -68.385,0.237 -91.19,-18.965 11.843,9.636 19.933,22.492 22.751,36.157 -21.486,-5.965 -38.152,-22.777 -41.288,-41.649 -8.74,14.972 -23.127,27.561 -40.555,35.488 -4.694,-11.692 -4.883,-24.634 -0.533,-36.421 -12.482,7.182 -28.859,9.337 -43.346,5.703 1.726,13.703 9.621,26.792 21.742,36.047 -25.872,-1.983 -50.501,-13.568 -66.077,-31.081 8.141,12.004 14.107,25.053 17.629,38.555 -22.824,-9.706 -38.953,-29.774 -41.173,-51.23 -11.146,15.035 -26.213,27.996 -43.823,37.699 6.741,-13.204 10.045,-27.644 9.613,-42.013 -11.957,7.271 -27.323,10.444 -41.916,8.657 5.454,8.492 10.909,16.985 16.363,25.478 -20.802,1.278 -42.109,-6.115 -55.808,-19.364 1.969,10.225 3.938,20.449 5.907,30.674 -15.775,-4.868 -27.803,-17.456 -30.078,-31.477 -0.642,0.544 -1.304,1.069 -1.976,1.585 -0.459,1.587 -1.361,3.187 -2.847,4.718 -8.185,8.44 -17.427,15.912 -27.556,21.906 -7.525,4.453 -20.079,12.667 -29.048,10.519 -2.102,-0.503 -3.011,-3.062 -1.978,-4.86 2.177,-3.787 5.615,-5.292 9.197,-7.634 4.495,-2.938 8.761,-6.192 12.774,-9.76 0.558,-0.496 1.098,-1.007 1.644,-1.512 -10.365,0.643 -20.891,-0.791 -30.325,-4.499 15.987,-0.66 31.185,-8.873 38.755,-20.725 C 38.801,-50.412 16.862,-55.583 0,-66.63 c 22.468,2.386 45.288,2.412 67.763,0.076 -7.612,-1.906 -14.799,-5.007 -21.083,-9.098 14.818,-2.185 29.948,-2.861 44.956,-2.008 -19.369,-7.302 -37.666,-16.621 -54.342,-27.675 21.509,-0.55 42.097,10.748 63.411,8.254 8.621,-1.009 16.986,-4.266 25.652,-3.583 8.666,0.683 17.48,8.156 13.649,14.739 22.891,-4.126 44.483,-13.262 62.08,-26.266 8.448,18.249 37.592,27.135 57.949,17.667 -0.261,5.934 6.766,11.309 13.753,10.518 6.987,-0.791 12.081,-7.537 9.969,-13.203 -1.49,-3.996 -5.906,-7.691 -4.399,-11.683 23.422,6.008 45.792,14.918 66.166,26.355 7.557,-10.82 15.115,-21.639 22.672,-32.459 0.889,-1.272 1.87,-2.617 3.459,-3.238 1.78,-0.695 3.875,-0.307 5.737,0.214 10.86,3.038 19.517,9.999 29.829,14.18 10.311,4.181 24.762,4.574 31.206,-3.393 11.041,8.946 22.081,17.891 33.122,26.837 -2.439,-10.597 -0.132,-21.919 6.363,-31.224 8.461,16.887 24.572,30.96 44.299,38.696 2.647,-10.364 1.9,-21.327 -2.138,-31.367 18.79,6.381 34.896,18.217 44.951,33.032 4.413,-9.405 4.605,-20.167 0.53,-29.68 15.64,7.701 33.625,19.505 29.95,34.448 16.102,-3.455 31.376,-9.625 44.655,-18.039 z m -104.846,52.32 c -0.574,-0.504 -1.145,-1.01 -1.71,-1.525 0.478,0.763 0.97,1.516 1.476,2.259 0.078,-0.244 0.156,-0.489 0.234,-0.734 z m -4.644,-6.627 c -0.054,-0.655 -0.012,-1.309 0.121,-1.949 -0.34,0.043 -0.679,0.085 -1.019,0.126 0.297,0.61 0.586,1.224 0.898,1.823 z"
                               style="fill:#d4ad59;fill-opacity:1;fill-rule:nonzero;stroke:none"
                               id="path133260" />
                          </g>
                        </g>
                      </g>
                    </g>
                  </g>
                </g>
              </g>
            </g>
          </g>
        </g>
      </g>
    </g>
  </g>
</svg>
