<?xml version="1.0" encoding="UTF-8" standalone="no"?>
<!-- Created with Inkscape (http://www.inkscape.org/) -->

<svg
   version="1.1"
   id="svg133762"
   width="400"
   height="200"
   viewBox="0 0 400 200"
   sodipodi:docname="1513_word.pdf"
   xmlns:inkscape="http://www.inkscape.org/namespaces/inkscape"
   xmlns:sodipodi="http://sodipodi.sourceforge.net/DTD/sodipodi-0.dtd"
   xmlns="http://www.w3.org/2000/svg"
   xmlns:svg="http://www.w3.org/2000/svg">
  <defs
     id="defs133766">
    <clipPath
       clipPathUnits="userSpaceOnUse"
       id="clipPath133784">
      <path
         d="M 0,-278.14789 H 474.71552 V 278.14789 H 0 Z"
         id="path133782" />
    </clipPath>
  </defs>
  <sodipodi:namedview
     id="namedview133764"
     pagecolor="#ffffff"
     bordercolor="#000000"
     borderopacity="0.25"
     inkscape:showpageshadow="2"
     inkscape:pageopacity="0.0"
     inkscape:pagecheckerboard="0"
     inkscape:deskcolor="#d1d1d1" />
  <g
     id="g133768"
     inkscape:groupmode="layer"
     inkscape:label="1513_word30"
     transform="matrix(1.3333333,0,0,-1.3333333,0,200)">
    <g
       id="g133770">
      <g
         id="g133772">
        <g
           id="g133774"
           transform="translate(70.88,143.35842)">
          <g
             id="g133776"
             transform="matrix(0.33334,0,0,0.33334,0,-30.9059)">
            <g
               id="g133778">
              <g
                 id="g133780" />
              <g
                 id="g133828">
                <g
                   clip-path="url(#clipPath133784)"
                   id="g133826">
                  <g
                     transform="translate(0,30.2631)"
                     id="g133792">
                    <g
                       id="g133790">
                      <g
                         id="g133788">
                        <path
                           d="m 55.0266,-212.158 c -16.6472,0 -29.9828,4.787 -40.0066,14.363 C 5.00668,-188.22 0,-175.255 0,-158.9 c 0,11.046 2.50334,22.906 7.51002,35.579 l 12.81398,-2.206 c -2.9414,-10.024 -4.4121,-19.01 -4.4121,-26.958 0,-9.878 2.06,-17.836 6.1801,-23.875 4.1305,-6.04 9.3614,-10.384 15.6928,-13.033 6.3314,-2.66 12.814,-3.99 19.4478,-3.99 9.5753,0 18.1962,1.919 25.8627,5.758 12.6732,6.331 19.0097,14.655 19.0097,24.97 L 95.2521,-1.31425 112.04,0 l 4.428,-118.236 c 1.033,-6.331 2.874,-11.119 5.523,-14.363 2.649,-3.244 5.669,-5.382 9.059,-6.415 3.39,-1.032 6.743,-1.549 10.06,-1.549 3.317,0 6.118,-0.771 8.402,-2.315 2.284,-1.544 3.427,-4.011 3.427,-7.401 0,-6.78 -3.98,-10.17 -11.938,-10.17 -10.754,0 -18.567,3.609 -23.438,10.827 l 0.235,-6.18 c 0,-12.965 -2.211,-22.102 -6.634,-27.411 -5.893,-9.284 -13.8883,-16.428 -23.9851,-21.435 -10.0864,-5.007 -20.8038,-7.51 -32.1523,-7.51 z"
                           style="fill:#000000;fill-opacity:1;fill-rule:nonzero;stroke:none"
                           id="path133786" />
                      </g>
                    </g>
                  </g>
                  <g
                     transform="translate(128.88403,-75.37791)"
                     id="g133800">
                    <g
                       id="g133798">
                      <g
                         id="g133796">
                        <path
                           d="m 81.3273,-54.8075 c -9.5753,0 -17.0905,1.841 -22.5457,5.523 -5.4448,3.682 -9.2728,9.2102 -11.4841,16.5846 C 41.8423,-47.4383 29.8367,-54.8075 11.2807,-54.8075 3.76023,-54.8075 0,-51.4176 0,-44.6377 c 0,2.2113 0.8866,4.3808 2.6598,6.5087 1.76277,2.1383 4.70941,3.2074 8.8399,3.2074 8.1046,0 14.2899,1.4707 18.556,4.4121 4.2766,2.9519 7.3327,6.9677 9.1685,12.0474 1.8462,5.0901 3.0666,10.87906 3.6612,17.36689 L 55.9184,0 c -0.2921,-2.35731 -0.4381,-4.86065 -0.4381,-7.51002 0,-4.56858 0.6623,-8.95468 1.987,-13.15818 1.3247,-4.1931 3.8646,-7.5831 7.6196,-10.1698 3.755,-2.5764 9.1685,-3.9376 16.2404,-4.0836 3.2439,0 6.008,-0.7719 8.2923,-2.3156 2.2843,-1.5437 3.4265,-4.0106 3.4265,-7.4005 0,-6.7799 -3.9063,-10.1698 -11.7188,-10.1698 z M 62.1142,-110.053 c -6.6339,0 -10.2481,3.901 -10.8426,11.703 0,7.0719 3.6142,10.9782 10.8426,11.7187 3.3795,0 6.1019,-1.0691 8.1671,-3.2074 2.0653,-2.1382 3.0979,-4.9754 3.0979,-8.5113 0,-7.072 -3.755,-10.973 -11.265,-11.703 z m -29.6177,0 c -3.2439,0 -5.935,1.032 -8.0733,3.098 -2.1382,2.055 -3.2074,4.923 -3.2074,8.605 0,7.0719 3.7602,10.9782 11.2807,11.7187 3.3899,0 6.1123,-1.0691 8.1672,-3.2074 2.0652,-2.1382 3.0978,-4.9754 3.0978,-8.5113 0,-7.072 -3.755,-10.973 -11.265,-11.703 z"
                           style="fill:#000000;fill-opacity:1;fill-rule:nonzero;stroke:none"
                           id="path133794" />
                      </g>
                    </g>
                  </g>
                  <g
                     transform="translate(199.08436,-72.28002)"
                     id="g133808">
                    <g
                       id="g133806">
                      <g
                         id="g133804">
                        <path
                           d="m 172.605,-57.9054 h -0.657 c -17.836,0 -28.96,6.6286 -33.372,19.8859 -2.806,-6.4774 -6.53,-11.4111 -11.172,-14.801 -4.641,-3.3899 -9.763,-5.0849 -15.364,-5.0849 -6.915,0 -11.849,1.6584 -14.8008,4.9754 -2.9415,3.3169 -4.9285,6.8894 -5.9611,10.7174 -5.3092,-10.4619 -14.1491,-15.6928 -26.5198,-15.6928 -11.4945,0 -18.5717,5.45 -21.2315,16.3499 -2.7953,-4.7146 -7.0302,-8.6208 -12.7044,-11.7187 -5.6742,-3.0875 -12.1934,-4.6312 -19.5574,-4.6312 -4.27651,0 -7.22315,1.0691 -8.83989,3.2074 C 0.80837,-52.5597 0,-50.3119 0,-47.9546 c 0,2.7954 0.8866,5.184 2.6598,7.1658 1.76277,1.9922 4.63118,2.9883 8.6052,2.9883 10.754,0 18.4152,2.7642 22.9838,8.2924 4.5686,5.5282 7.7395,13.0069 9.5127,22.43616 l 14.1439,0.65713 c -2.2113,-7.21799 -3.3169,-13.11129 -3.3169,-17.67989 0,-1.6167 0.219,-3.4942 0.6571,-5.6325 0.4485,-2.1383 1.5542,-4.167 3.3169,-6.0862 1.7732,-1.9088 4.5008,-2.8632 8.1828,-2.8632 3.536,0 6.7747,0.7353 9.7161,2.206 2.9519,1.4708 5.5282,4.3079 7.7291,8.5114 2.2113,4.2035 4.0575,10.2063 5.5386,18.00842 l 13.7059,0.67277 v -0.45373 c -1.179,-4.41216 -1.768,-8.90246 -1.768,-13.47106 0,-10.1699 3.828,-15.2548 11.484,-15.2548 11.349,0 18.566,12.4489 21.654,37.34674 L 148.073,0 c -0.146,-1.03263 -0.292,-1.99224 -0.438,-2.87884 -0.146,-0.87617 -0.261,-1.86708 -0.345,-2.97272 -0.073,-1.10564 -0.182,-2.39904 -0.328,-3.88018 -0.146,-1.47076 -0.219,-2.86846 -0.219,-4.19306 0,-6.4879 1.658,-12.0161 4.975,-16.5847 3.317,-4.5581 10.279,-6.9885 20.887,-7.291 3.244,0 6.008,-0.8083 8.293,-2.4251 2.284,-1.6167 3.426,-4.1201 3.426,-7.51 0,-6.7799 -3.906,-10.1698 -11.719,-10.1698 z"
                           style="fill:#000000;fill-opacity:1;fill-rule:nonzero;stroke:none"
                           id="path133802" />
                      </g>
                    </g>
                  </g>
                  <g
                     transform="translate(396.79676,92.71684)"
                     id="g133816">
                    <g
                       id="g133814">
                      <g
                         id="g133812">
                        <path
                           d="M 1.54894,-20.105 0,-12.814 C 13.8518,-8.53744 25.7844,-4.26611 35.7978,0 l 1.3299,-7.94811 C 25.1951,-12.8088 13.3355,-16.861 1.54894,-20.105 Z"
                           style="fill:#f81436;fill-opacity:1;fill-rule:nonzero;stroke:none"
                           id="path133810" />
                      </g>
                    </g>
                  </g>
                  <g
                     transform="translate(360.68832,16.792)"
                     id="g133824">
                    <g
                       id="g133822">
                      <g
                         id="g133820">
                        <path
                           d="M 14.3629,-146.977 H 11.046 c -3.82803,0 -6.62343,1.069 -8.3862,3.207 -1.7732,2.138 -2.6598,4.532 -2.6598,7.181 0,2.066 0.77186,4.199 2.31559,6.4 1.54373,2.211 4.52688,3.317 8.94941,3.317 l 11.9378,0.234 c 9.2833,0.438 16.7203,0.876 22.3111,1.314 -2.9414,1.774 -5.9611,4.167 -9.059,7.182 -3.0874,3.025 -5.7368,6.634 -7.9481,10.827 -2.2113,4.203 -3.3169,8.9598 -3.3169,14.2689 0,12.3707 4.3808,22.4623 13.1425,30.2748 8.7721,7.8125 19.1245,11.7188 31.0571,11.7188 11.7866,0 21.0698,-2.5816 27.8497,-7.7447 l 1.987,-16.7881 c -3.536,2.2009 -7.9951,3.8906 -13.3772,5.0693 -5.3718,1.1891 -10.7123,1.7836 -16.0214,1.7836 -8.9808,0 -16.2717,-2.2843 -21.873,-6.8529 -5.6012,-4.5686 -8.4018,-10.0968 -8.4018,-16.5846 0,-9.7211 7.1449,-18.3421 21.4349,-25.8631 4.8606,-2.649 9.5752,-3.974 14.1438,-3.974 4.4226,0 10.3524,0.699 17.7894,2.097 7.4471,1.408 14.4831,3.51 21.1061,6.305 l -2.863,-19.229 c -9.137,-4.12 -23.1715,-7.51 -42.1031,-10.169 -18.9315,-2.65 -37.1642,-3.974 -54.698,-3.974 z m 45.0758,123.1014 c -3.2335,0 -5.9559,1.0691 -8.1671,3.2074 -2.2113,2.1383 -3.317,5.0484 -3.317,8.7304 0,7.07193 3.8281,11.0512 11.4841,11.9378 6.9259,0 10.7592,-3.97927 11.4997,-11.9378 0,-7.218 -3.8332,-11.1972 -11.4997,-11.9378 z"
                           style="fill:#f81436;fill-opacity:1;fill-rule:nonzero;stroke:none"
                           id="path133818" />
                      </g>
                    </g>
                  </g>
                </g>
              </g>
            </g>
          </g>
        </g>
      </g>
    </g>
  </g>
</svg>
