<?xml version="1.0" encoding="UTF-8" standalone="no"?>
<!-- Created with Inkscape (http://www.inkscape.org/) -->

<svg
   version="1.1"
   id="svg138250"
   width="400"
   height="200"
   viewBox="0 0 400 200"
   sodipodi:docname="1514_word.pdf"
   xmlns:inkscape="http://www.inkscape.org/namespaces/inkscape"
   xmlns:sodipodi="http://sodipodi.sourceforge.net/DTD/sodipodi-0.dtd"
   xmlns="http://www.w3.org/2000/svg"
   xmlns:svg="http://www.w3.org/2000/svg">
  <defs
     id="defs138254">
    <clipPath
       clipPathUnits="userSpaceOnUse"
       id="clipPath138272">
      <path
         d="M 0,-216.36693 H 320.19164 V 216.36693 H 0 Z"
         id="path138270" />
    </clipPath>
  </defs>
  <sodipodi:namedview
     id="namedview138252"
     pagecolor="#ffffff"
     bordercolor="#000000"
     borderopacity="0.25"
     inkscape:showpageshadow="2"
     inkscape:pageopacity="0.0"
     inkscape:pagecheckerboard="0"
     inkscape:deskcolor="#d1d1d1" />
  <g
     id="g138256"
     inkscape:groupmode="layer"
     inkscape:label="1514_word32"
     transform="matrix(1.3333333,0,0,-1.3333333,0,200)">
    <g
       id="g138258">
      <g
         id="g138260">
        <g
           id="g138262"
           transform="translate(96.635,122.06097)">
          <g
             id="g138264"
             transform="matrix(0.33333,0,0,0.33333,0,-24.04052)">
            <g
               id="g138266">
              <g
                 id="g138268" />
              <g
                 id="g138308">
                <g
                   clip-path="url(#clipPath138272)"
                   id="g138306">
                  <g
                     transform="translate(0,71.9029)"
                     id="g138280">
                    <g
                       id="g138278">
                      <g
                         id="g138276">
                        <path
                           d="m 44.1996,-23.2028 c -3.2439,0 -5.935,0.9909 -8.0733,2.9727 -2.1278,1.9922 -3.1917,4.8293 -3.1917,8.5113 0,7.0824 3.755,10.98866 11.265,11.7188 3.39,0 6.1123,-1.06914 8.1672,-3.20741 2.0652,-2.13827 3.0979,-4.97539 3.0979,-8.51139 0,-7.0719 -3.7551,-10.8999 -11.2651,-11.484 z m 29.6177,0 c -3.2439,0 -5.862,0.9909 -7.8543,2.9727 -1.9818,1.9922 -2.9727,4.8293 -2.9727,8.5113 0,7.0824 3.609,10.98866 10.827,11.7188 6.9259,0 10.6809,-3.90626 11.265,-11.7188 0,-7.0719 -3.755,-10.8999 -11.265,-11.484 z M 95.6902,-160.229 c -6.7694,0 -13.3616,1.361 -19.7764,4.083 -6.4044,2.733 -11.3745,8.073 -14.9105,16.021 -3.8385,-2.357 -8.4123,-4.088 -13.7214,-5.194 -5.2988,-1.095 -9.8622,-1.643 -13.6902,-1.643 -10.0238,0 -18.1284,2.54 -24.31369,7.62 C 3.09267,-134.263 0,-127.524 0,-119.128 c 0,13.268 7.21797,25.6491 21.6539,37.1436 6.6339,5.1527 17.539,11.5571 32.7155,19.2131 l -0.6727,17.6799 15.0357,1.5489 2.6598,-68.2785 c 0.4381,-7.813 1.7627,-13.784 3.974,-17.915 2.2113,-4.12 5.1214,-6.884 8.7304,-8.292 3.609,-1.398 7.4735,-2.097 11.5936,-2.097 3.2439,0 6.0448,-0.808 8.4018,-2.425 2.357,-1.616 3.536,-4.12 3.536,-7.51 0,-6.78 -3.979,-10.169 -11.9378,-10.169 z m -59.6734,32.934 c 7.5205,0 14.5194,1.398 20.9968,4.193 l -1.987,43.9808 C 41.0287,-85.1605 30.8589,-91.1634 24.5171,-97.1296 18.1857,-103.096 15.02,-108.734 15.02,-114.043 c 0,-4.568 1.9506,-7.922 5.8516,-10.06 3.9115,-2.128 8.9599,-3.192 15.1452,-3.192 z"
                           style="fill:#000000;fill-opacity:1;fill-rule:nonzero;stroke:none"
                           id="path138274" />
                      </g>
                    </g>
                  </g>
                  <g
                     transform="translate(84.47476,-23.1302)"
                     id="g138288">
                    <g
                       id="g138286">
                      <g
                         id="g138284">
                        <path
                           d="m 39.1147,-121.115 c -3.2439,0 -5.9715,1.106 -8.1828,3.317 -2.2113,2.211 -3.3169,5.158 -3.3169,8.84 0,7.072 3.8332,11.0513 11.4997,11.9379 6.9259,0 10.7592,-3.9789 11.4997,-11.9379 0,-7.51 -3.8332,-11.562 -11.4997,-12.157 z M 14.3629,-65.1964 H 11.046 c -7.364,0 -11.046,3.463 -11.046,10.3889 0,2.0652 0.77186,4.1983 2.31559,6.3991 1.54373,2.2113 4.45386,3.317 8.73041,3.317 h 4.4278 c 15.9066,0 26.2903,1.6949 31.1509,5.0849 l 0.4381,1.768 c 0.5946,1.9192 0.8918,4.2035 0.8918,6.8529 0,2.6493 -0.5163,5.2987 -1.5489,7.9481 -1.0326,2.6598 -2.9466,6.201 -5.742,10.6235 L 36.9086,-6.41481 53.0395,0 c 6.4774,-12.0786 9.7161,-24.2355 9.7161,-36.4706 0,-6.0393 -1.1786,-12.0056 -3.5359,-17.8988 -2.6494,-2.7954 -7.0668,-5.2988 -13.2521,-7.5101 -6.1853,-2.2113 -16.7202,-3.3169 -31.6047,-3.3169 z"
                           style="fill:#000000;fill-opacity:1;fill-rule:nonzero;stroke:none"
                           id="path138282" />
                      </g>
                    </g>
                  </g>
                  <g
                     transform="translate(171.67402,72.12194)"
                     id="g138296">
                    <g
                       id="g138294">
                      <g
                         id="g138292">
                        <path
                           d="m 45.9676,-160.449 c -12.9652,0 -22.9473,3.463 -29.9462,10.389 -6.99894,6.926 -10.86347,18.713 -11.59361,35.36 L 0,-1.09521 16.5846,0 20.7777,-109.177 c 0.4381,-11.641 2.8684,-19.709 7.291,-24.204 4.4226,-4.485 10.3889,-6.806 17.8989,-6.963 3.2439,0 6.008,-0.808 8.2923,-2.425 2.2843,-1.616 3.4265,-4.12 3.4265,-7.51 0,-6.78 -3.9063,-10.17 -11.7188,-10.17 z"
                           style="fill:#000000;fill-opacity:1;fill-rule:nonzero;stroke:none"
                           id="path138290" />
                      </g>
                    </g>
                  </g>
                  <g
                     transform="translate(206.16444,58.65083)"
                     id="g138304">
                    <g
                       id="g138302">
                      <g
                         id="g138300">
                        <path
                           d="M 14.3629,-146.977 H 11.046 c -3.82803,0 -6.62343,1.069 -8.3862,3.207 -1.7732,2.138 -2.6598,4.532 -2.6598,7.181 0,2.066 0.77186,4.199 2.31559,6.4 1.54373,2.211 4.52688,3.317 8.94941,3.317 l 11.9378,0.234 c 9.2833,0.438 16.7203,0.876 22.3111,1.314 -2.9414,1.774 -5.9611,4.167 -9.059,7.182 -3.0874,3.025 -5.7368,6.634 -7.9481,10.827 -2.2113,4.203 -3.3169,8.9598 -3.3169,14.2689 0,12.3707 4.3808,22.4623 13.1425,30.2748 8.7721,7.8125 19.1245,11.7188 31.0571,11.7188 11.7866,0 21.0698,-2.5816 27.8497,-7.7447 l 1.987,-16.7881 c -3.536,2.2009 -7.9951,3.8906 -13.3772,5.0693 -5.3718,1.1891 -10.7123,1.7836 -16.0214,1.7836 -8.9808,0 -16.2717,-2.2843 -21.873,-6.8529 -5.6012,-4.5686 -8.4018,-10.0968 -8.4018,-16.5846 0,-9.7211 7.1449,-18.3421 21.4349,-25.8631 4.8606,-2.649 9.5752,-3.974 14.1438,-3.974 4.4226,0 10.3524,0.699 17.7894,2.097 7.4471,1.408 14.4831,3.51 21.1061,6.305 l -2.863,-19.229 c -9.137,-4.12 -23.1715,-7.51 -42.1031,-10.169 -18.9315,-2.65 -37.1642,-3.974 -54.698,-3.974 z m 45.0758,123.1014 c -3.2335,0 -5.9559,1.0691 -8.1671,3.2074 -2.2113,2.1383 -3.317,5.0484 -3.317,8.7304 0,7.07193 3.8281,11.0512 11.4841,11.9378 6.9259,0 10.7592,-3.97927 11.4997,-11.9378 0,-7.218 -3.8332,-11.1972 -11.4997,-11.9378 z"
                           style="fill:#f81436;fill-opacity:1;fill-rule:nonzero;stroke:none"
                           id="path138298" />
                      </g>
                    </g>
                  </g>
                </g>
              </g>
            </g>
          </g>
        </g>
      </g>
    </g>
  </g>
</svg>
