<?xml version="1.0" encoding="UTF-8" standalone="no"?>
<!-- Created with Inkscape (http://www.inkscape.org/) -->

<svg
   version="1.1"
   id="svg138514"
   width="400"
   height="200"
   viewBox="0 0 400 200"
   sodipodi:docname="1515_word.pdf"
   xmlns:inkscape="http://www.inkscape.org/namespaces/inkscape"
   xmlns:sodipodi="http://sodipodi.sourceforge.net/DTD/sodipodi-0.dtd"
   xmlns="http://www.w3.org/2000/svg"
   xmlns:svg="http://www.w3.org/2000/svg">
  <defs
     id="defs138518">
    <clipPath
       clipPathUnits="userSpaceOnUse"
       id="clipPath138536">
      <path
         d="M 0,-268.21276 H 409.48332 V 268.21276 H 0 Z"
         id="path138534" />
    </clipPath>
  </defs>
  <sodipodi:namedview
     id="namedview138516"
     pagecolor="#ffffff"
     bordercolor="#000000"
     borderopacity="0.25"
     inkscape:showpageshadow="2"
     inkscape:pageopacity="0.0"
     inkscape:pagecheckerboard="0"
     inkscape:deskcolor="#d1d1d1" />
  <g
     id="g138520"
     inkscape:groupmode="layer"
     inkscape:label="1515_word34"
     transform="matrix(1.3333333,0,0,-1.3333333,0,200)">
    <g
       id="g138522">
      <g
         id="g138524">
        <g
           id="g138526"
           transform="translate(81.75333,137.70176)">
          <g
             id="g138528"
             transform="matrix(0.33333,0,0,0.33333,0,-29.80093)">
            <g
               id="g138530">
              <g
                 id="g138532" />
              <g
                 id="g138580">
                <g
                   clip-path="url(#clipPath138536)"
                   id="g138578">
                  <g
                     transform="translate(0,-33.1617)"
                     id="g138544">
                    <g
                       id="g138542">
                      <g
                         id="g138540">
                        <path
                           d="M 77.5723,-90.84 C 25.8574,-90.84 0,-71.2409 0,-32.0428 0,-22.0294 1.62196,-12.8974 4.86587,-4.64683 L 16.8037,-7.07194 c -1.6272,-5.74726 -2.4408,-11.93776 -2.4408,-18.57166 0,-30.1966 21.4401,-45.3679 64.3203,-45.5139 33.5968,0 59.5278,3.755 77.7908,11.2651 0.147,1.1786 0.22,2.6493 0.22,4.4121 -0.439,15.625 -5.669,32.6477 -15.693,51.06816 L 156.913,0 c 3.838,-6.77988 7.301,-15.1817 10.388,-25.2055 3.098,-10.0134 4.647,-20.6943 4.647,-32.0428 0,-6.7694 -0.735,-12.2194 -2.206,-16.3499 C 143.071,-85.0927 112.348,-90.84 77.5723,-90.84 Z m 12.5949,-51.272 c -3.2335,0 -5.9558,1.106 -8.1671,3.317 -2.2113,2.212 -3.3169,5.158 -3.3169,8.84 0,7.072 3.828,11.051 11.484,11.938 6.9259,0 10.7588,-3.979 11.4998,-11.938 0,-7.51 -3.8333,-11.562 -11.4998,-12.157 z"
                           style="fill:#000000;fill-opacity:1;fill-rule:nonzero;stroke:none"
                           id="path138538" />
                      </g>
                    </g>
                  </g>
                  <g
                     transform="translate(198.89934,41.09367)"
                     id="g138552">
                    <g
                       id="g138550">
                      <g
                         id="g138548">
                        <path
                           d="M 22.7648,-160.449 H 6.19577 L 0,-1.31425 16.5846,0 Z"
                           style="fill:#000000;fill-opacity:1;fill-rule:nonzero;stroke:none"
                           id="path138546" />
                      </g>
                    </g>
                  </g>
                  <g
                     transform="translate(206.86112,-56.80263)"
                     id="g138560">
                    <g
                       id="g138558">
                      <g
                         id="g138556">
                        <path
                           d="m 39.7875,-122.007 h -4.1931 c -16.0631,0 -27.92792,3.093 -35.5944,9.278 l 2.00267,14.379 c 2.20086,-1.773 5.06927,-3.249 8.60523,-4.428 3.536,-1.178 7.1085,-2.06 10.7174,-2.644 3.6195,-0.595 6.7538,-0.965 9.4032,-1.111 l 3.755,-0.438 c 11.2025,1.909 19.8234,7.6927 25.8627,17.3514 6.0393,9.6483 9.424,20.3657 10.1542,32.1523 -1.7628,12.5271 -8.1672,28.9553 -19.2132,49.2845 L 67.4181,0 c 4.7146,-9.42925 8.7669,-18.5664 12.1569,-27.4116 2.7954,-5.7472 6.0341,-9.69 9.7161,-11.8283 3.682,-2.1382 7.9533,-3.2074 12.8139,-3.2074 3.244,0 6.008,-0.8084 8.292,-2.4251 2.285,-1.6167 3.427,-4.1201 3.427,-7.51 0,-6.7799 -3.906,-10.1698 -11.719,-10.1698 -6.6234,0 -11.8491,1.2516 -15.6771,3.755 0,-3.8281 -0.2973,-7.218 -0.8919,-10.1699 C 83.3248,-81.3377 78.8657,-92.9 72.1588,-103.654 65.4624,-114.418 54.6719,-120.536 39.7875,-122.007 Z"
                           style="fill:#000000;fill-opacity:1;fill-rule:nonzero;stroke:none"
                           id="path138554" />
                      </g>
                    </g>
                  </g>
                  <g
                     transform="translate(338.41746,89.40353)"
                     id="g138568">
                    <g
                       id="g138566">
                      <g
                         id="g138564">
                        <path
                           d="m 9.05897,-37.5658 c -4.13052,0 -7.15017,0.6624 -9.05897,1.9871 v 5.523 c 2.7954,-0.5842 5.29874,-0.8762 7.51002,-0.8762 2.35732,0 4.93368,0.5163 7.72908,1.5489 2.8058,1.0327 4.8711,2.5034 6.1958,4.4122 h -1.768 c -3.682,0 -6.9624,0.9596 -9.84128,2.8788 -2.86842,1.9192 -4.30262,5.0119 -4.30262,9.278 0,3.68202 1.25167,6.73818 3.75501,9.16851 C 11.7814,-1.21516 14.874,0 18.556,0 c 2.5034,0 5.1892,-1.17866 8.0576,-3.53597 2.8789,-2.35731 4.3183,-6.25835 4.3183,-11.70313 0,-7.218 -2.3938,-12.7462 -7.1814,-16.5846 -4.7877,-3.8281 -9.6849,-5.7421 -14.69153,-5.7421 z m 15.47373,18.5717 0.2191,3.0822 c 0,2.2113 -0.5528,4.3131 -1.6585,6.30533 -1.1056,1.99224 -3.1344,2.98836 -6.0862,2.98836 -1.4707,0 -2.7954,-0.47981 -3.9741,-1.43942 -1.1786,-0.95961 -1.768,-2.24777 -1.768,-3.86457 0,-1.7732 0.9544,-3.3951 2.8632,-4.8658 1.9193,-1.4707 4.7251,-2.2061 8.4175,-2.2061 z"
                           style="fill:#f81436;fill-opacity:1;fill-rule:nonzero;stroke:none"
                           id="path138562" />
                      </g>
                    </g>
                  </g>
                  <g
                     transform="translate(295.45612,27.62256)"
                     id="g138576">
                    <g
                       id="g138574">
                      <g
                         id="g138572">
                        <path
                           d="M 14.3629,-146.977 H 11.046 c -3.82803,0 -6.62343,1.069 -8.3862,3.207 -1.7732,2.138 -2.6598,4.532 -2.6598,7.181 0,2.066 0.77186,4.199 2.31559,6.4 1.54373,2.211 4.52688,3.317 8.94941,3.317 l 11.9378,0.234 c 9.2833,0.438 16.7203,0.876 22.3111,1.314 -2.9414,1.774 -5.9611,4.167 -9.059,7.182 -3.0874,3.025 -5.7368,6.634 -7.9481,10.827 -2.2113,4.203 -3.3169,8.9598 -3.3169,14.2689 0,12.3707 4.3808,22.4623 13.1425,30.2748 8.7721,7.8125 19.1245,11.7188 31.0571,11.7188 11.7866,0 21.0698,-2.5816 27.8497,-7.7447 l 1.987,-16.7881 c -3.536,2.2009 -7.9951,3.8906 -13.3772,5.0693 -5.3718,1.1891 -10.7123,1.7836 -16.0214,1.7836 -8.9808,0 -16.2717,-2.2843 -21.873,-6.8529 -5.6012,-4.5686 -8.4018,-10.0968 -8.4018,-16.5846 0,-9.7211 7.1449,-18.3421 21.4349,-25.8631 4.8606,-2.649 9.5752,-3.974 14.1438,-3.974 4.4226,0 10.3524,0.699 17.7894,2.097 7.4471,1.408 14.4831,3.51 21.1061,6.305 l -2.863,-19.229 c -9.137,-4.12 -23.1715,-7.51 -42.1031,-10.169 -18.9315,-2.65 -37.1642,-3.974 -54.698,-3.974 z m 45.0758,123.1014 c -3.2335,0 -5.9559,1.0691 -8.1671,3.2074 -2.2113,2.1383 -3.317,5.0484 -3.317,8.7304 0,7.07193 3.8281,11.0512 11.4841,11.9378 6.9259,0 10.7592,-3.97927 11.4997,-11.9378 0,-7.218 -3.8332,-11.1972 -11.4997,-11.9378 z"
                           style="fill:#f81436;fill-opacity:1;fill-rule:nonzero;stroke:none"
                           id="path138570" />
                      </g>
                    </g>
                  </g>
                </g>
              </g>
            </g>
          </g>
        </g>
      </g>
    </g>
  </g>
</svg>
