<?xml version="1.0" encoding="UTF-8" standalone="no"?>
<!-- Created with Inkscape (http://www.inkscape.org/) -->

<svg
   version="1.1"
   id="svg138340"
   width="400"
   height="400"
   viewBox="0 0 400 400"
   sodipodi:docname="1515_pic.pdf"
   xmlns:inkscape="http://www.inkscape.org/namespaces/inkscape"
   xmlns:sodipodi="http://sodipodi.sourceforge.net/DTD/sodipodi-0.dtd"
   xmlns="http://www.w3.org/2000/svg"
   xmlns:svg="http://www.w3.org/2000/svg">
  <defs
     id="defs138344">
    <clipPath
       clipPathUnits="userSpaceOnUse"
       id="clipPath138360">
      <path
         d="M 0,0 H 177.71907 V -137.84613 H 0 Z"
         clip-rule="evenodd"
         id="path138358" />
    </clipPath>
    <clipPath
       clipPathUnits="userSpaceOnUse"
       id="clipPath138370">
      <path
         d="M 0,-413.53949 H 533.15795 V 413.53949 H 0 Z"
         id="path138368" />
    </clipPath>
  </defs>
  <sodipodi:namedview
     id="namedview138342"
     pagecolor="#ffffff"
     bordercolor="#000000"
     borderopacity="0.25"
     inkscape:showpageshadow="2"
     inkscape:pageopacity="0.0"
     inkscape:pagecheckerboard="0"
     inkscape:deskcolor="#d1d1d1" />
  <g
     id="g138346"
     inkscape:groupmode="layer"
     inkscape:label="1515_pic33"
     transform="matrix(1.3333333,0,0,-1.3333333,0,400)">
    <g
       id="g138348">
      <g
         id="g138350">
        <g
           id="g138352"
           transform="translate(61.14047,218.92315)">
          <g
             id="g138354">
            <g
               id="g138356"
               clip-path="url(#clipPath138360)">
              <g
                 id="g138362"
                 transform="matrix(0.33333,0,0,0.33333,0,-45.9487)">
                <g
                   id="g138364">
                  <g
                     id="g138366" />
                  <g
                     id="g138454">
                    <g
                       clip-path="url(#clipPath138370)"
                       id="g138452">
                      <g
                         transform="translate(64.68172,-249.9553)"
                         id="g138378">
                        <g
                           id="g138376">
                          <g
                             id="g138374">
                            <path
                               d="M 113.7,-25.7379 283.941,-15.134 V 0 H 104.585 C 69.6735,0 32.225,-9.56553 0,-25.7379 Z"
                               style="fill:#5b4034;fill-opacity:1;fill-rule:nonzero;stroke:none"
                               id="path138372" />
                          </g>
                        </g>
                      </g>
                      <g
                         transform="translate(328.48645,-141.6769)"
                         id="g138386">
                        <g
                           id="g138384">
                          <g
                             id="g138382">
                            <path
                               d="m 0,-124.666 30.784,1.253 c 36.022,1.565 47.504,39.8534 51.222,49.8734 l 17.574,68.583 c 0.513,2.007 -0.586,4.071 -2.531,4.764 -1.853,0.654 -3.859,-0.417 -4.348,-2.313 l -17.645,-68.782 -0.028,-0.108 c -0.03,-0.091 -10.411,-36.8834 -44.244,-36.8834 H 20.135 Z"
                               style="fill:#5b4034;fill-opacity:1;fill-rule:nonzero;stroke:none"
                               id="path138380" />
                          </g>
                        </g>
                      </g>
                      <g
                         transform="translate(122.53285,-256.5261)"
                         id="g138394">
                        <g
                           id="g138392">
                          <g
                             id="g138390">
                            <path
                               d="M 0,-0.687 23.9162,-19.1671 H 37.1405 L 16.163,0 Z"
                               style="fill:#5b4034;fill-opacity:1;fill-rule:nonzero;stroke:none"
                               id="path138388" />
                          </g>
                        </g>
                      </g>
                      <g
                         transform="translate(367.71855,-114.79393)"
                         id="g138402">
                        <g
                           id="g138400">
                          <g
                             id="g138398">
                            <path
                               d="m 0,-143.338 h 18.352 c 21.623,0 36.889,11.275 47.8,22.189 L 142.43,-5.02936 c 0.903,1.369 0.715,3.197 -0.444,4.356 -1.032,1.029 -2.744,0.856 -3.547,-0.364 L 62.161,-117.158 C 52.293,-127.02 38.644,-132.676 24.7,-132.676 H 6.345 Z"
                               style="fill:#5b4034;fill-opacity:1;fill-rule:nonzero;stroke:none"
                               id="path138396" />
                          </g>
                        </g>
                      </g>
                      <g
                         transform="translate(274.49885,-141.357)"
                         id="g138410">
                        <g
                           id="g138408">
                          <g
                             id="g138406">
                            <path
                               d="m 25.559,-64.821 c -3.478,5.2 -7.913,9.691 -13.064,13.229 l -0.784,0.533 C 4.397,-46.033 0,-37.681 0,-28.812 V 0 h 28.333 v -44.529 c 0,-6.171 1.808,-12.227 5.197,-17.38 l 21.946,-33.455 c 0.629,-2.462 2.909,-3.881 5.078,-3.164 l 24.8,9.114 c 4.654,1.535 11.802,0.218 14.756,-4.134 l 4.535,-7.781 c 5.47,-8.101 1.294,-8.057 -0.721,-9.52 H 43.66 l 0.185,0.058 c -0.55,-0.005 -1.096,-0.058 -1.651,-0.058 H 10.848 c -2.396,0 -4.141,0.804 -4.141,3.519 0,2.711 4.767,9.578 10.721,9.578 l 26.353,-3.254 c 2.048,0 3.53,2.23 2.956,4.46 z"
                               style="fill:#272324;fill-opacity:1;fill-rule:nonzero;stroke:none"
                               id="path138404" />
                          </g>
                        </g>
                      </g>
                      <g
                         transform="translate(212.90375,-141.357)"
                         id="g138418">
                        <g
                           id="g138416">
                          <g
                             id="g138414">
                            <path
                               d="m 25.553,-64.821 c -3.469,5.2 -7.908,9.691 -13.064,13.229 l -0.784,0.533 C 4.391,-46.033 0,-37.681 0,-28.812 V 0 h 28.335 v -44.529 c 0,-6.171 1.805,-12.227 5.195,-17.38 l 21.948,-33.455 c 0.627,-2.462 2.901,-3.881 5.079,-3.164 l 24.791,9.114 c 4.662,1.535 11.805,0.218 14.761,-4.134 l 4.532,-7.781 c 5.474,-8.101 1.3,-8.057 -0.72,-9.52 H 43.659 l 0.183,0.058 c -0.547,-0.005 -1.094,-0.058 -1.648,-0.058 H 10.842 c -2.388,0 -4.135,0.804 -4.135,3.519 0,2.711 4.761,9.578 10.717,9.578 l 26.349,-3.254 c 2.059,0 3.538,2.23 2.964,4.46 z"
                               style="fill:#272324;fill-opacity:1;fill-rule:nonzero;stroke:none"
                               id="path138412" />
                          </g>
                        </g>
                      </g>
                      <g
                         transform="translate(0,137.8458)"
                         id="g138426">
                        <g
                           id="g138424">
                          <g
                             id="g138422">
                            <path
                               d="M 438.8,-18.7666 C 424.274,6.55741 373.341,9.05841 335.265,-28.7496 L 2.70055,-347.389 c -5.57,-5.118 -1.948,-14.414 5.615,-14.414 H 41.0775 c 4.552,0 25.78,-4.225 55.401,24.69 l 49.4265,50.032 c 6.406,6.078 25.338,24.728 44.537,14.728 14.813,-7.712 29.227,-23.378 58.189,-22.164 l 22.205,-0.38 c 4.565,0 30.044,-1.717 44.882,11.694 l 59.428,57.339 c 36.605,37.855 41.615,54.559 45.17,82.58 l 8.973,51.3084 c 2.925,7.993 10.574,13.337 19.083,13.337 l 81.12,10.874 c 2.906,0 4.778,3.249 2.928,5.488 -5.953,7.225 -21.28,21.236 -46.284,25.409 -9.18,1.532 -41.821,5.824 -41.821,5.824 0,0 -1.673,5.573 -5.515,12.277 z"
                               style="fill:#262626;fill-opacity:1;fill-rule:nonzero;stroke:none"
                               id="path138420" />
                          </g>
                        </g>
                      </g>
                      <g
                         transform="translate(117.32307,23.50689)"
                         id="g138434">
                        <g
                           id="g138432">
                          <g
                             id="g138430">
                            <path
                               d="M 132.554,-25.5886 6.14918,-137.065 c -10.11,-9.24 -8.568,-19.169 10.74802,-14.46 46.596,11.358 184.6928,39.972 219.0448,77.7474 l 38.888,43.428 c 25.859,39.56902 -97.998,39.69602 -142.276,4.761 z"
                               style="fill:#161616;fill-opacity:1;fill-rule:nonzero;stroke:none"
                               id="path138428" />
                          </g>
                        </g>
                      </g>
                      <g
                         transform="translate(321.74065,137.8463)"
                         id="g138442">
                        <g
                           id="g138440">
                          <g
                             id="g138438">
                            <path
                               d="m 13.525,-28.7496 c 38.076,37.80801 89.008,35.30701 103.535,9.983 3.839,-6.707 5.514,-12.279 5.514,-12.279 0,0 32.642,-4.292 41.822,-5.822 25.004,-4.173 40.328,-18.186 46.284,-25.409 1.849,-2.239 -0.022,-5.487 -2.928,-5.487 l -81.12,-10.875 c -8.51,0 -16.158,-5.347 -19.086,-13.34 L 99.864,-135.92 0,-41.7136 Z"
                               style="fill:#161616;fill-opacity:1;fill-rule:nonzero;stroke:none"
                               id="path138436" />
                          </g>
                        </g>
                      </g>
                      <g
                         transform="translate(0.00154,-103.8408)"
                         id="g138450">
                        <g
                           id="g138448">
                          <g
                             id="g138446">
                            <path
                               d="M 2.70081,-105.701 113.028,0 95.2038,-31.495 c -3.175,-5.612 0.764,-12.564 7.1982,-12.738 l 43.513,-1.146 c -0.011,0 -0.011,-0.002 -0.014,-0.013 l -0.038,-0.036 -57.1512,-57.005 c -25.531,-21.176 -43.497,-17.684 -47.637,-17.684 H 8.31481 c -7.563,0 -11.184,9.299 -5.614,14.416 z"
                               style="fill:#161616;fill-opacity:1;fill-rule:nonzero;stroke:none"
                               id="path138444" />
                          </g>
                        </g>
                      </g>
                    </g>
                  </g>
                </g>
              </g>
            </g>
          </g>
        </g>
      </g>
    </g>
  </g>
</svg>
