<?xml version="1.0" encoding="UTF-8" standalone="no"?>
<!-- Created with Inkscape (http://www.inkscape.org/) -->

<svg
   version="1.1"
   id="svg138616"
   width="400"
   height="400"
   viewBox="0 0 400 400"
   sodipodi:docname="1516_pic.pdf"
   xmlns:inkscape="http://www.inkscape.org/namespaces/inkscape"
   xmlns:sodipodi="http://sodipodi.sourceforge.net/DTD/sodipodi-0.dtd"
   xmlns="http://www.w3.org/2000/svg"
   xmlns:svg="http://www.w3.org/2000/svg">
  <defs
     id="defs138620">
    <clipPath
       clipPathUnits="userSpaceOnUse"
       id="clipPath138636">
      <path
         d="M 0,0 H 185.98219 V -183.44886 H 0 Z"
         clip-rule="evenodd"
         id="path138634" />
    </clipPath>
    <clipPath
       clipPathUnits="userSpaceOnUse"
       id="clipPath138646">
      <path
         d="M 0,-550.34685 H 557.94657 V 550.34685 H 0 Z"
         id="path138644" />
    </clipPath>
  </defs>
  <sodipodi:namedview
     id="namedview138618"
     pagecolor="#ffffff"
     bordercolor="#000000"
     borderopacity="0.25"
     inkscape:showpageshadow="2"
     inkscape:pageopacity="0.0"
     inkscape:pagecheckerboard="0"
     inkscape:deskcolor="#d1d1d1" />
  <g
     id="g138622"
     inkscape:groupmode="layer"
     inkscape:label="1516_pic35"
     transform="matrix(1.3333333,0,0,-1.3333333,0,400)">
    <g
       id="g138624">
      <g
         id="g138626">
        <g
           id="g138628"
           transform="translate(57.00898,241.7244)">
          <g
             id="g138630">
            <g
               id="g138632"
               clip-path="url(#clipPath138636)">
              <g
                 id="g138638"
                 transform="matrix(0.33333,0,0,0.33333,0,-61.14956)">
                <g
                   id="g138640">
                  <g
                     id="g138642" />
                  <g
                     id="g139058">
                    <g
                       clip-path="url(#clipPath138646)"
                       id="g139056">
                      <g
                         transform="translate(102.72331,108.598)"
                         id="g138654">
                        <g
                           id="g138652">
                          <g
                             id="g138650">
                            <path
                               d="m 40.2941,-8.33712 c -10.036,11.78 -26.65,8.394 -39.79803,5.847 -0.249,-0.05 -0.756,-0.803 -0.334,-0.764 12.86203,1.133 25.83803,2.85699 36.32603,-6.318 10.436,-9.12098 13.124,-23.23098 12.747,-36.34098 -0.022,-0.74 1.172,0.367 1.229,0.759 2.062,14.127 -0.912,25.948 -10.17,36.81698 z"
                               style="fill:#5c2f10;fill-opacity:1;fill-rule:nonzero;stroke:none"
                               id="path138648" />
                          </g>
                        </g>
                      </g>
                      <g
                         transform="translate(0,183.44881)"
                         id="g138662">
                        <g
                           id="g138660">
                          <g
                             id="g138658">
                            <path
                               d="m 557.849,-395.203 c -0.205,5.499 -1.099,10.942 -2.165,16.33 -0.242,1.265 -0.572,2.457 -0.915,3.639 -0.247,1.437 -0.539,2.859 -0.898,4.28 -0.373,1.506 -1.042,2.924 -1.796,4.312 1.058,-1.271 2.08,-2.568 3.292,-3.613 0.191,-0.162 1.88,-1.09 2.111,-1.042 -0.012,1.213 -0.118,2.488 -0.272,3.784 -0.863,4.722 -1.685,9.511 -3.307,13.998 -1.65,4.568 -3.846,8.87 -6.06,13.178 -1.53,2.18 -3.199,4.224 -5.028,6.063 -4.317,4.338 -8.092,9.926 -10.742,16.015 4.357,19.326 7.19,38.954 7.583,58.974 0.191,9.432 0.383,18.862 -0.93,28.225 -1.199,8.554 -3.628,16.919 -5.998,25.208 -5.099,17.882 -10.253,35.212 -18.813,51.833 -13.937,27.051 -42.616,52.2 -73.294,56.7361 -8.313,1.23 -17.589,-1.182 -25.622,-2.9691 -8.891,-1.978 -17.82,-5.33 -26.386,-8.399 -8.736,-3.125 -17.388,-6.387 -26.356,-8.792 -4.109,-1.103 -8.262,-1.589 -12.487,-1.95 -1.92,-0.162 -3.945,-0.479 -5.977,-0.655 -13.694,2.936 -27.558,5.786 -40.775,10.367 -7.228,2.51 -14.387,6.311 -21.066,10.0181 -6.147,3.416 -12.674,6.277 -18.517,10.184 -11.48,7.676 -22.566,16.491 -32.58,25.998 -11.47,10.886 -20.837,23.671 -31.852,34.979 -9.28,9.529 -20.6,16.64 -32.775,21.87097 -12.536,5.389 -25.881,7.739 -39.471,6.135 -6.338,-0.746 -11.855,-2.689 -17.549,-5.377 -0.908,-0.428 -1.526,-1.06 -1.966,-1.667 1.125,1.679 2.634,3.196 3.686,4.899 0.29,0.466 0.754,1.794 -0.286,1.616 -5.369,-0.915 -12.1104,-5.217 -15.8984,-9.05497 -2.048,-2.082 -3.477,-4.234 -4.923,-6.76 1.505,2.632 2.431,6.024 3.321,8.90897 0.065,0.231 0.074,0.845 -0.328,0.825 -5.517,-0.304 -11.026,-7.14297 -14.097,-11.11097 -2.297,-2.968 -3.976,-6.605 -5.359,-10.072 -0.223,-0.55 -0.387,-1.113 -0.549,-1.677 -4.234,-1.551 -8.406,-3.226 -12.468,-4.982 -11.129,-4.819 -22.355,-13.055 -29.066,-23.385 -5.533,-8.511 -12.909,-21.151 -10.683,-31.945 -2.313,-2.715 -4.136,-6.075 -5.253,-9.41 -1.164,-3.4811 -4.122,-9.5291 -2.678,-13.3141 0.387,-1.014 1.865,0.912 2.019,1.242 -0.935,-1.979 -0.389,-1.358 0.582,0.077 -1.253,-2.554 -2.711,-5.563 -2.234,-8.365 0.142,-0.829 1.504,0.639 1.611,0.797 1.039,1.545 4.52,7.607 2.363,2.706 -1.793,-4.089 -2.064,-7.769 -2.064,-12.199 0,-5.622 4.13,-16.009 9.162,-20.421 -13.655,-11.75 -23.97902,-27.783 -24.09502,-46.027 -0.032,-5.616 1.263,-10.328 3.52,-14.324 1.275,-7.388 4.146,-14.6 8.40002,-20.565 4.087,-5.723 8.621,-10.88 14.03,-15.393 3.526,-2.942 8.536,-6.999 13.446,-6.599 0.694,0.055 1.633,1.164 1.738,2.011 3.672,-2.731 7.745,-4.72 11.682,-4.235 0.739,0.095 1.572,1.172 1.685,1.865 0.081,0.48 0.017,0.959 -0.146,1.433 0.479,-0.267 0.967,-0.511 1.474,-0.717 6.671,-2.709 13.666,-5.096 20.74,-6.462 1.914,-0.369 3.83,-0.659 5.752,-0.918 0.72,-11.288 1.936,-22.522 3.442,-33.73 1.675,-7.098 2.717,-14.304 3.159,-21.561 0.826,-5.346 1.641,-10.689 2.482,-16.029 2.029,-12.865 3.966,-25.68 5.49,-38.618 1.6,-13.572 1.26,-27.25 0.743,-40.911 -0.451,-11.908 -1.91,-23.742 -2.88,-35.595 -0.825,-10.038 -2.435,-19.942 -2.769,-29.983 -0.264,-3.335 -0.282,-6.67 0.03,-9.999 0.118,-1.251 0.288,-2.223 0.487,-3.013 -0.043,-0.02 -0.091,-0.025 -0.136,-0.041 -3.737,-8.542 -6.33,-17.844 -5.547,-27.148 0.736,-8.767 6.119,-18.913 15.9794,-18.704 0.129,0 0.407,0.12 0.695,0.282 0.126,-0.339 0.223,-0.699 0.369,-1.034 1.898,-4.382 6.91,-6.445 11.052,-7.909 3.457,-1.221 7.905,-1.989 12.023,-1.551 1.809,-1.509 3.938,-2.602 6.446,-3.646 6.161,-2.561 12.83,-2.382 17.994,1.651 0.837,-0.85 1.762,-1.62 2.761,-2.302 4.955,-3.375 13.045,0.148 17.893,1.872 5.083,1.798 10.014,6.054 12.749,11.129 0.355,0.359 0.622,0.756 0.853,1.161 0.102,2.316 -0.381,4.927 -1.563,6.501 -0.217,0.286 -0.495,0.502 -0.75,0.74 -0.288,0.168 -0.562,0.353 -0.894,0.474 -2.464,0.912 -5.468,0.385 -7.84,-0.608 -2.113,-0.884 -4.658,-2.261 -6.663,-0.365 -0.853,0.807 -1.636,1.717 -2.415,2.617 2.223,1.641 5.294,2.892 7.788,3.492 3.7,0.886 6.415,-0.152 8.913,-1.817 2.392,-3.128 4.566,-6.259 8.645,-7.911 4.149,-1.687 10.247,-0.635 12.808,3.394 2.145,3.384 2.285,6.962 0.507,10.206 -1.576,2.068 -3.504,3.838 -5.669,5.014 -2.305,1.251 -4.767,2.498 -6.581,4.453 -2.977,3.219 -5.01,7.222 -8.157,10.289 -1.581,1.543 -3.266,2.934 -4.866,4.422 -1.513,0.819 -3.09,1.389 -4.716,1.533 0.067,0.077 0.124,0.158 0.191,0.233 -0.156,0.319 -0.282,0.647 -0.467,0.957 0.39,0.907 0.586,1.931 0.477,3.064 -1.219,12.51 -1.799,24.164 -0.767,36.696 0.757,9.251 2.328,18.278 3.601,27.404 5.975,23.01 11.468,46.101 14.945,69.748 0.207,2.037 0.491,4.057 0.843,6.074 0.084,0.596 0.173,1.194 0.25,1.792 1.425,11.308 2.031,22.848 2.088,34.391 0.914,-0.935 1.813,-1.885 2.772,-2.77 2.033,-8.762 4.172,-17.509 6.291,-26.244 3.068,-12.653 6.05,-25.27 8.625,-38.044 2.707,-13.395 3.483,-27.057 4.085,-40.706 0.526,-11.908 0.039,-23.823 0.039,-35.717 0,-10.066 -0.799,-20.072 -0.31,-30.108 0.01,-3.343 0.261,-6.671 0.845,-9.963 0.558,-3.127 1.274,-4.694 2.074,-5.231 -1.585,-10.097 -1.78,-20.861 1.935,-30.465 3.177,-8.202 11.2,-16.423 20.607,-13.437 0.124,0.033 0.351,0.229 0.586,0.467 0.225,-0.292 0.402,-0.605 0.645,-0.894 3.055,-3.666 8.444,-4.228 12.834,-4.469 3.662,-0.197 8.145,0.322 11.974,1.904 2.16,-0.939 4.51,-1.393 7.218,-1.681 6.622,-0.72 12.979,1.334 16.794,6.66 1.04,-0.584 2.147,-1.062 3.297,-1.435 5.705,-1.837 12.475,3.826 16.64,6.841 5.969,4.316 10.419,12.943 9.391,20.421 -0.489,3.588 -2.623,7.516 -6.251,8.641 -4.142,1.283 -8.961,-1.835 -11.372,-5.091 -1.208,6.465 -0.487,13.56 -4.298,18.852 0.322,0.934 0.43,1.976 0.227,3.094 -2.239,12.367 -3.769,23.934 -3.763,36.509 0,9.282 0.831,18.41 1.358,27.612 4.065,23.416 7.656,46.878 9.187,70.734 0.004,0.199 0.026,0.393 0.032,0.592 1.918,-0.195 3.853,-0.219 5.777,-0.069 -0.01,-0.057 -0.013,-0.121 -0.029,-0.186 7.798,0.231 15.592,0.957 23.527,2.394 1.801,0.326 3.587,0.714 5.359,1.121 0.708,-1.723 1.417,-3.444 2.109,-5.168 5.068,-12.599 10.068,-25.429 12.771,-38.776 0.28,-6.18 0.28,-12.337 0.13,-18.584 -0.191,-7.828 -3.68,-14.564 -5.203,-21.915 -0.417,-0.146 -0.823,-0.284 -1.289,-0.457 -4.28,-1.601 -8.579,-3.586 -12.62,-5.691 -4.703,-2.453 -9.703,-4.332 -12.609,-9.089 -2.068,-3.378 -1.386,-6.596 2.66,-7.451 1.416,-0.296 2.815,-0.314 4.197,-0.162 -3.659,-2.821 -8.322,-6.837 -8.925,-11.508 -0.642,-4.96 3.993,-6.371 8.046,-4.266 3.169,1.646 6.072,3.667 9.04,5.648 -2.325,-2.682 -4.327,-5.764 -4.574,-8.756 -0.519,-6.259 5.016,-6.241 9.41,-4.025 3.558,1.79 6.636,5.032 9.787,7.471 -1.385,-2.112 -2.383,-4.314 -2.76,-6.532 -1.066,-6.328 7.23,-3.701 10.144,-2.247 2.97,1.484 5.636,3.504 8.282,5.47 0.045,0.033 0.091,0.063 0.144,0.092 -1.277,-1.742 -2.226,-3.652 -2.291,-5.495 -0.434,-12.611 24.291,4.424 28.03,6.332 13.949,7.106 29.833,8.988 42.454,18.856 5.168,4.045 9.582,12.392 7.1,18.551 0.572,0.248 1.108,0.635 1.57,1.207 1.267,1.585 0.999,3.783 0.991,5.669 0,5.588 0.331,11.1 0.945,16.654 1.409,12.659 2.79,25.153 2.437,37.906 4.562,-11.472 8.905,-23.158 11.366,-35.269 0.282,-6.185 0.282,-12.341 0.13,-18.582 -0.197,-7.832 -3.678,-14.569 -5.204,-21.917 -0.424,-0.146 -0.826,-0.28 -1.294,-0.458 -4.274,-1.598 -8.574,-3.587 -12.617,-5.695 -4.704,-2.45 -9.7,-4.325 -12.611,-9.082 -2.062,-3.377 -1.381,-6.597 2.656,-7.451 1.423,-0.3 2.814,-0.314 4.197,-0.164 -3.648,-2.824 -8.319,-6.835 -8.919,-11.504 -0.637,-4.963 3.986,-6.372 8.049,-4.27 3.169,1.648 6.074,3.668 9.041,5.645 -2.324,-2.677 -4.331,-5.759 -4.577,-8.753 -0.515,-6.261 5.014,-6.239 9.404,-4.027 3.556,1.789 6.644,5.035 9.795,7.47 -1.385,-2.109 -2.385,-4.309 -2.758,-6.531 -1.066,-6.324 7.226,-3.7 10.144,-2.246 2.964,1.482 5.63,3.503 8.28,5.472 0.045,0.036 0.092,0.059 0.138,0.095 -1.271,-1.748 -2.218,-3.654 -2.285,-5.499 -0.436,-12.613 24.29,4.424 28.033,6.334 13.939,7.103 29.832,8.986 42.445,18.856 5.173,4.041 9.589,12.39 7.099,18.546 0.58,0.249 1.113,0.64 1.575,1.212 1.265,1.58 0.992,3.778 0.992,5.665 -0.007,5.59 0.326,11.099 0.946,16.656 1.458,13.092 2.898,26.003 2.407,39.21 z"
                               style="fill:#303030;fill-opacity:1;fill-rule:nonzero;stroke:none"
                               id="path138656" />
                          </g>
                        </g>
                      </g>
                      <g
                         transform="translate(2.64722,90.74572)"
                         id="g138670">
                        <g
                           id="g138668">
                          <g
                             id="g138666">
                            <path
                               d="m 1.08896,-107.048 c -0.067,0.683 -0.16,1.36 -0.211,2.044 -0.014,0.194 -0.158,0.144 -0.308,0.024 -2.348,11.4252 2.909,24.2962 9.355,33.2922 3.72604,5.202 8.06904,9.951 12.82204,14.251 0.046,-0.034 0.101,-0.065 0.154,-0.101 1.433,1.494 2.897,2.962 4.351,4.436 -3.124,7.873 -5.876,16.252 -4.594,24.381 -0.517,13.197 8.189,24.49195 21.848,19.09495 16.064,-6.35195 28.92,4.894 44.232,8.371 18.783,4.27 40.374,-2.062 43.425,-23.55095 1.308,-9.215 0.497,-18.124 -2.617,-26.897 -2.417,-6.829 -6.857,-12.129 -10.004,-18.426 -0.103,-0.189 -0.225,-0.619 0,-0.783 2.257,-1.61 8.226,4.096 9.517,5.284 0.917,0.839 1.894,1.667 2.697,2.628 3.004,3.572 -0.102,-0.226 -0.59,-1.553 -1.239,-3.34 -3.942,-5.959 -5.203,-9.295 -0.107,-0.275 -0.247,-1.105 0.359,-0.888 3.757,1.349 7.5,4.714 9.799,8.457 0.055,-2.739 -0.256,-5.387 -0.839,-8.114 0.044,-1.543 -0.013,-3.08 -0.151,-4.613 0.167,-0.01 0.329,-0.026 0.491,-0.012 3.891,2.194 5.892,8.056 6.95,12.891 4.818,-5.799 12.8,-11.526 14.536,-24.543 -1.132,-14.9872 -7.94,-23.9062 -20.083,-32.4522 -10.05,-7.072 -22.878,-9.546 -34.818,-11.184 -13.203,-1.806 -26.666,-2.331 -39.954,-1.581 -21.34,1.206 -52.56504,3.884 -60.83404,27.708 -0.125,0.373 -0.221,0.752 -0.33,1.131 z"
                               style="fill:#aeaeaf;fill-opacity:1;fill-rule:nonzero;stroke:none"
                               id="path138664" />
                          </g>
                        </g>
                      </g>
                      <g
                         transform="translate(45.55448,-29.12792)"
                         id="g138678">
                        <g
                           id="g138676">
                          <g
                             id="g138674">
                            <path
                               d="m 0,-1.33008 c 3.3201,-2.5896 7.78077,-3.3518 12.152,-3.37382 h 0.3956 c 1.8256,0.00907 3.629,0.14189 5.3203,0.3189 5.187,0.545 9.953,2.104 14.377,4.385 -6.534,-1.407 -13.205,-2.175 -19.881,-2.021 C 8.28593,-1.928 4.10597,-1.806 0,-1.33001 Z"
                               style="mix-blend-mode:multiply;fill:#68696b;fill-opacity:0.39999;fill-rule:nonzero;stroke:none"
                               id="path138672" />
                          </g>
                        </g>
                      </g>
                      <g
                         transform="translate(36.89598,89.91718)"
                         id="g138686">
                        <g
                           id="g138684">
                          <g
                             id="g138682">
                            <path
                               d="m 108.322,-65.2989 c -1.058,-4.834 -3.059,-10.697 -6.95,-12.891 -0.162,-0.014 -0.323,0.002 -0.491,0.012 0.138,1.533 0.197,3.07 0.152,4.615 0.582,2.725 0.894,5.375 0.838,8.112 -2.298,-3.743 -6.042,-7.107 -9.799,-8.457 -0.605,-0.217 -0.463,0.613 -0.359,0.888 1.261,3.336 3.966,5.955 5.204,9.296 0.487,1.326 3.595,5.126 0.59,1.553 -0.801,-0.961 -1.778,-1.79 -2.698,-2.629 -1.29,-1.188 -7.257,-6.894 -9.517,-5.282 -0.225,0.162 -0.102,0.592 0,0.781 3.15,6.299 7.587,11.597 10.005,18.426 3.113,8.773 3.926,17.682 2.616,26.897 C 95.9109,-9.86916 85.9029,-2.32959 73.9599,0 h -0.0093 c 1.7328,-0.81846 3.4726,-1.83152 5.2204,-3.1149 8.969,-6.572 13.464,-19.211 12.661,-30.054 -1.024,-13.832 -6.79,-27.126 -16.457,-37.14 -1.701,-1.756 -3.475,-3.43 -5.286,-5.067 0.264,0.039 0.53,0.081 0.799,0.114 5.051,0.677 16.857,3.1 16.46,2.151 -1.164,-2.769 -2.707,-5.249 -4.496,-7.522 4.222,1.385 14.396,4.984 14.215,3.818 -0.624,-4.047 -1.847,-7.867 -3.645,-11.358 2.638,1.632 5.205,3.404 7.755,5.044 1.64,1.058 4.146,3.147 6.332,2.705 5.541,-1.111 6.454,-9.627 5.209,-14.13 -4.682,-16.8971 -21.607,-27.5501 -37.712,-31.4301 -20.93,-5.037 -42.217,-7.007 -63.69,-6.186 -3.495,0.132 -7.372,0.209 -11.316,0.493 9.524,-2.172 19.538,-2.904 28.004,-3.382 13.289,-0.748 26.753,-0.225 39.954,1.581 11.942,1.638 24.77,4.112 34.817,11.184 12.143,8.546 18.951,17.465 20.084,32.4521 -1.737,13.017 -9.718,18.746 -14.537,24.543 z"
                               style="mix-blend-mode:multiply;fill:#68696b;fill-opacity:0.39999;fill-rule:nonzero;stroke:none"
                               id="path138680" />
                          </g>
                        </g>
                      </g>
                      <g
                         transform="translate(2.64701,90.71397)"
                         id="g138694">
                        <g
                           id="g138692">
                          <g
                             id="g138690">
                            <path
                               d="m 4.36297,-105.165 c -2.275,11.9008 1.736,23.1928 9.33703,32.4498 4.464,5.428 9.604,10.113 14.823,14.793 2.467,2.218 4.61,2.238 2.532,4.657 -1.085,1.259 -2.023,2.747 -2.745,4.238 -3.155,6.555 -4.757,14.326 -3.534,21.58 1.158,6.837 4.604,12.774 11.751,14.357 4.203,0.927 8.51,-0.417 12.194,-2.38 9.886,-5.261 17.82,-1.803 26.292,4.404 8.0878,5.92191 16.4757,10.62785 26.091,11.04699 v 3e-5 c -4.1104,0.11396 -8.3052,-0.27905 -12.366,-1.20401 -15.312,-3.477 -28.17,-14.72201 -44.232,-8.371 -13.658,5.397 -22.364,-5.89801 -21.847,-19.09501 -1.283,-8.129 1.47,-16.508 4.593,-24.381 -1.454,-1.474 -2.918,-2.942 -4.351,-4.436 -0.053,0.036 -0.108,0.067 -0.155,0.101 -4.752,-4.3 -9.095,-9.049 -12.82203,-14.251 -6.445,-8.996 -11.702,-21.867 -9.354,-33.2918 0.15,0.12 0.294,0.17 0.308,-0.024 0.052,-0.684 0.144,-1.361 0.211,-2.044 0.109,-0.379 0.206,-0.758 0.33,-1.131 3.155,-9.075 9.64103,-15.067 17.63903,-19.096 -7.074,5.645 -12.98803,13.129 -14.69503,22.078 z"
                               style="mix-blend-mode:color-dodge;fill:#68696b;fill-opacity:1;fill-rule:nonzero;stroke:none"
                               id="path138688" />
                          </g>
                        </g>
                      </g>
                      <g
                         transform="translate(38.18688,48.71011)"
                         id="g138702">
                        <g
                           id="g138700">
                          <g
                             id="g138698">
                            <path
                               d="m 55.099,-6.11213 c 3.814,-0.434 7.53,-1.606 11.245,-2.678 -9.313,7.87899 -23.319,8.60399 -35.082,8.754 -9.56,0.122 -26.251,0.479 -31.262,-9.565 h 0.571 c 0.12316,0.02501 0.23335,0.00189 0.35642,-0.0088 h 0.01851 c 11.15087,3.407 22.89447,4.27681 34.51907,4.4038 6.585,0.073 13.089,-0.158 19.634,-0.906 z"
                               style="mix-blend-mode:color-dodge;fill:#68696b;fill-opacity:1;fill-rule:nonzero;stroke:none"
                               id="path138696" />
                          </g>
                        </g>
                      </g>
                      <g
                         transform="translate(62.41148,36.27018)"
                         id="g138710">
                        <g
                           id="g138708">
                          <g
                             id="g138706">
                            <path
                               d="M 18.0581,-0.2442 C 17.3197,-0.08963 16.5471,-0.01045 15.751,0 H 15.3847 C 10.6943,-0.06072 5.25917,-2.43211 1.2261,-5.7912 0.78246,-6.39072 0.37475,-7.02119 0,-7.67563 v -8.2e-4 c 1.97475,1.63567 4.10546,3.02439 6.4711,3.94925 3.175,1.237 9.012,2.921 11.358,-0.805 2.7226,-4.31639 0.4166,-10.8452 -2.3748,-16.0558 h 0.0016 c 0.8579,0.6784 1.6561,1.4336 2.4562,2.1738 0.843,1.074 1.642,2.181 2.397,3.327 3.26,6.474 4.059,13.527 -2.251,14.843 z"
                               style="mix-blend-mode:color-dodge;fill:#68696b;fill-opacity:1;fill-rule:nonzero;stroke:none"
                               id="path138704" />
                          </g>
                        </g>
                      </g>
                      <g
                         transform="translate(33.85254,33.97926)"
                         id="g138718">
                        <g
                           id="g138716">
                          <g
                             id="g138714">
                            <path
                               d="m 14.5519,-4.39899 c -2.6339,2.45496 -5.5529,4.34891 -8.48886,4.39791 -5.9,0.105 -6.705,-7.472 -5.693,-11.86502 0.052,-0.235 0.139,-0.457 0.19,-0.69 0.055,2.83502 0.633,5.44002 2.003,7.27102 3.22797,4.31497 7.81596,3.22202 11.98886,0.88606 z"
                               style="mix-blend-mode:color-dodge;fill:#68696b;fill-opacity:1;fill-rule:nonzero;stroke:none"
                               id="path138712" />
                          </g>
                        </g>
                      </g>
                      <g
                         transform="translate(90.34976,-298.02372)"
                         id="g138726">
                        <g
                           id="g138724">
                          <g
                             id="g138722">
                            <path
                               d="m 89.8989,-18.562 c 2.032,-1.679 3.917,-3.69 5.896,-5.876 3.451,-3.807 7.4251,-6.125 11.5021,-9.121 2.032,-1.483 4.146,-3.999 4.649,-6.564 0.101,-0.529 0.148,-1.1 0.148,-1.688 0.146,-0.832 0.045,-1.574 -0.249,-2.229 -0.694,-3.132 -2.893,-5.869 -6.754,-4.697 -4.541,1.382 -7.0171,4.521 -10.5471,7.518 -4.033,3.42 -8.714,5.05 -13.503,3.073 -0.053,-0.018 -0.106,-0.046 -0.156,-0.063 -0.665,-0.287 -1.326,-0.624 -1.987,-1.048 -2.178,-1.401 -5.13,-3.169 -5.673,-6.044 0.168,0.049 0.365,0.142 0.606,0.339 0.446,-1.857 1.03,-3.623 2.255,-5.158 1.409,-1.764 3.759,-0.329 5.383,0.15 2.81,0.831 4.926,2.192 8.027,1.685 1.839,-0.302 2.846,-1.367 3.256,-2.711 -0.205,-0.428 -0.436,-0.856 -0.72,-1.288 -2.088,-3.171 -2.991,-6.342 -6.19,-8.736 -2.834,-2.105 -6.306,-3.544 -9.748,-4.28 -1.88,-0.395 -3.891,-0.631 -5.817,-0.635 -5.622,-0.012 -7.465,4.213 -9.317,8.449 -2.106,2.234 -4.103,4.584 -6.498,6.52 2.458,-2.473 2.964,-7.055 4.005,-10.166 0.377,-1.131 0.973,-2.094 1.666,-2.98 -5.371,-2.336 -11.958,-1.535 -17.219,1.375 -2.131,0.515 -4.033,1.618 -5.276,3.738 -0.17,0.284 -0.314,0.588 -0.464,0.899 -0.795,1.056 -1.223,2.579 -1.594,4.186 -0.493,1.197 -1.103,2.31 -2.058,3.129 -0.578,0.488 -1.21,0.9 -1.857,1.287 0.85,-2.887 0.312,-7.506 1.373,-9.377 0.35,-0.626 0.729,-1.184 1.119,-1.717 -5.661,0.565 -11.612,3.199 -15.105,6.167 -3.122,2.661 -3.792,6.799 -5.201,10.556 -1.387,1.397 -2.875,2.684 -4.45999,3.876 1.35799,-3.442 1.96999,-7.076 3.02299,-10.593 -8.07399,4.282 -11.57498,11.139 -12.33099,20.475 -0.58,7.257 2.013,14.302 3.728,21.364 0.841,0.276 1.691,0.505 2.522,0.671 1.618,1.969 3.325,5.343 4.62299,8.076 0.485,-4.189 1.399,-11.044 5.361,-9.917 3.436,0.978 4.981,4.58 5.979,8.204 3.179,-7.758 13.296,-13.479 21.019,-13.65 6.928,-0.154 9.112,3.482 9.732,8.277 2.889,-4.475 7.53,-8.644 12.165,-8.248 0.831,0.069 1.756,1.011 2.084,1.723 0.641,1.391 0.83,2.964 0.809,4.593 1.955,-2.401 4.522,-3.897 9.394,-4.163 1.042,-0.059 1.995,0.132 2.861,0.478 0.038,0.003 0.067,-0.018 0.111,0 3.706,-1.733 6.737,-3.54 9.428,-5.859 z"
                               style="fill:#aeaeaf;fill-opacity:1;fill-rule:nonzero;stroke:none"
                               id="path138720" />
                          </g>
                        </g>
                      </g>
                      <g
                         transform="translate(92.36378,-337.08122)"
                         id="g138734">
                        <g
                           id="g138732">
                          <g
                             id="g138730">
                            <path
                               d="M 0,0 C 1.892,-4.894 5.182,-8.755 10.401,-11.528 9.979,-10.125 9.625,-8.7 9.272,-7.279 5.859,-5.245 2.737,-2.808 0,0 Z"
                               style="fill:#393b3c;fill-opacity:1;fill-rule:nonzero;stroke:none"
                               id="path138728" />
                          </g>
                        </g>
                      </g>
                      <g
                         transform="translate(125.66858,-305.10982)"
                         id="g138742">
                        <g
                           id="g138740">
                          <g
                             id="g138738">
                            <path
                               d="m 76.774,-34.725 c 0,0.588 -0.045,1.158 -0.148,1.687 -0.501,2.565 -2.616,5.083 -4.647,6.567 -4.079,2.993 -8.053,5.312 -11.502,9.12 -1.981,2.185 -3.863,4.197 -5.898,5.875 -2.689,2.318 -5.72,4.126 -9.428,5.858 -0.041,-0.018 -0.073,0.004 -0.11,0 -0.867,-0.345 -1.818,-0.537 -2.86,-0.477 -4.872,0.268 -7.441,1.762 -9.396,4.163 0.022,-1.63 -0.168,-3.202 -0.807,-4.594 -0.33,-0.71 -1.255,-1.653 -2.084,-1.722 C 25.2577,-8.64494 20.6174,-4.47624 17.7303,0 h -0.0016 c -0.2981,-2.29017 -0.9751,-4.29443 -2.3217,-5.77 0.148,-0.712 0.286,-1.426 0.455,-2.137 1.879,-7.924 5.263,-15.685 6.484,-23.722 1.466,-9.572 -7.849,-13.564 -15.872,-14.46 C 4.337,-46.33 2.166,-46.365 0,-46.296 c 0.075,-0.186 0.187,-0.347 0.26,-0.533 0.371,-1.606 0.801,-3.129 1.596,-4.185 0.148,-0.312 0.292,-0.614 0.462,-0.9 1.243,-2.119 3.147,-3.222 5.277,-3.735 5.26,-2.913 11.849,-3.712 17.218,-1.377 -0.691,0.885 -1.287,1.848 -1.663,2.979 -1.044,3.112 -1.548,7.694 -4.008,10.166 2.395,-1.936 4.394,-4.286 6.5,-6.517 1.8322,-4.196 3.6566,-8.3762 9.1469,-8.451 h 0.345 c 1.8726,0.0175 3.8189,0.252 5.6401,0.637 3.442,0.734 6.915,2.172 9.748,4.28 3.201,2.393 4.102,5.562 6.19,8.733 0.286,0.432 0.517,0.86 0.722,1.291 -0.41,1.341 -1.418,2.407 -3.255,2.711 -3.102,0.507 -5.218,-0.857 -8.03,-1.687 -1.624,-0.48 -3.974,-1.912 -5.383,-0.15 -1.223,1.535 -1.809,3.301 -2.255,5.158 -0.241,-0.196 -0.436,-0.29 -0.604,-0.34 0.543,2.875 3.495,4.643 5.673,6.044 0.661,0.425 1.322,0.764 1.987,1.048 0.048,0.018 0.101,0.047 0.156,0.063 4.787,1.977 9.468,0.348 13.501,-3.072 3.532,-2.997 6.009,-6.137 10.547,-7.518 3.864,-1.172 6.06,1.565 6.756,4.696 0.1902,0.4267 0.3002,0.8903 0.3129,1.3919 v 0.1963 c -0.0052,0.2077 -0.0268,0.4215 -0.0659,0.6418 z"
                               style="fill:#393b3c;fill-opacity:0.3;fill-rule:nonzero;stroke:none"
                               id="path138736" />
                          </g>
                        </g>
                      </g>
                      <g
                         transform="translate(105.78348,-346.56682)"
                         id="g138750">
                        <g
                           id="g138748">
                          <g
                             id="g138746">
                            <path
                               d="M 16.7559,-4.641 C 10.9914,-4.08915 5.27695,-2.49485 0.00313,0 H 0 v -0.00109 c 0.78982,-2.21885 1.77576,-4.30964 3.6179,-5.88091 3.49094,-2.96625 9.437,-5.5989 15.097,-6.166 h 0.0093 c -0.3918,0.5327 -0.7705,1.0914 -1.1203,1.716 -0.67,1.178 -0.702,3.449 -0.848,5.691 z"
                               style="fill:#393b3c;fill-opacity:0.3;fill-rule:nonzero;stroke:none"
                               id="path138744" />
                          </g>
                        </g>
                      </g>
                      <g
                         transform="translate(90.35006,-299.09592)"
                         id="g138758">
                        <g
                           id="g138756">
                          <g
                             id="g138754">
                            <path
                               d="M 5.85891,-32.187 C 5.28691,-21.261 9.13091,-10.772 10.4289,0 9.21191,-2.504 7.74691,-5.284 6.33291,-7.003 c -0.831,-0.165 -1.682,-0.394 -2.522,-0.673 -1.715,-7.062 -4.308,-14.106 -3.728,-21.362 0.75601,-9.337 4.257,-16.192 12.33099,-20.474 -0.13,0.436 -0.245,0.88 -0.365,1.32 -3.33899,4.763 -5.87199,10.018 -6.18999,16.005 z"
                               style="fill:#7b7c7e;fill-opacity:1;fill-rule:nonzero;stroke:none"
                               id="path138752" />
                          </g>
                        </g>
                      </g>
                      <g
                         transform="translate(85.95438,-69.08642)"
                         id="g138766">
                        <g
                           id="g138764">
                          <g
                             id="g138762">
                            <path
                               d="m 103.96,-95.871 c -0.087,-0.732 -0.197,-1.464 -0.284,-2.196 -0.032,0.006 -0.065,0.008 -0.099,0.014 -0.108,-1.058 -0.211,-2.114 -0.312,-3.169 -0.146,-1.115 -0.341,-2.222 -0.499,-3.337 -0.254,-1.711 -0.509,-3.426 -0.752,-5.14 -0.008,-0.042 -0.035,-0.067 -0.041,-0.107 -2.542,-16.534 -6.016,-32.909 -9.973,-49.167 0.077,-0.243 0.119,-0.499 0.054,-0.791 -3.213,-14.162 -5.758,-28.421 -7.615,-42.786 -0.286,-3.409 -0.539,-6.827 -0.736,-10.264 -0.454,-7.546 0.637,-15.155 1.515,-22.631 0.744,-6.354 -6.235,-2.735 -9.669,-0.452 -2.725,1.428 -5.179,3.206 -7.454,5.252 0.532,-2.661 1.85,-7.192 1.519,-10.404 -3.372,0.663 -6.837,3.986 -9.233,7.401 -1.886,1.259 -3.818,2.587 -5.247,4.187 -0.193,-0.296 -0.323,-0.564 -0.323,-0.753 0.061,-2.319 0.26,-4.618 0.282,-6.942 0.057,-5.934 -9.416,-3.315 -11.918,-2.514 -2.043,0.659 -4.345,1.863 -6.516,3.408 -3.909,1.937 -8.374,5.061 -11.21,8.751 -0.939,-4.617 -2.843,-11.24 -6.636,-3.883 -1.162,2.257 -0.874,4.601 -1.549,6.94 -0.294,1.02 -1.936,-0.715 -2.105,-1.062 -1.141,-2.38 -2.266,-4.765 -3.487,-7.102 -1.957,-3.737 -1.861,-2.717 -2.407,0.835 -0.438,2.806 -0.517,5.74 -0.354,8.688 -0.297,0.239 -0.489,0.608 -0.394,1.123 1.569,8.929 2.05,17.994 3.354,26.95 0.744,11.688 1.928,23.389 2.887,35.066 2.035,24.838 0.336,49.834 -4.321,74.302 -1.587,8.325 -3.002,16.727 -4.31,25.155 C 4.892,-54.806 3.903,-49.092 3.673,-43.28 2.098,-31.2 0.876,-19.095 0,-7.001 c 9.253,-0.927 18.576,-0.708 27.898,0.008 9.736,0.752 18.748,3.325 27.509,6.993 5.495,-5.189 10.478,-11.101 15.531,-16.668 11.826,-13.031 23.377,-26.301 35.194,-39.334 0.074,-13.376 -0.639,-26.794 -2.172,-39.869 z"
                               style="fill:#4c4d4f;fill-opacity:1;fill-rule:nonzero;stroke:none"
                               id="path138760" />
                          </g>
                        </g>
                      </g>
                      <g
                         transform="translate(85.95438,-69.08642)"
                         id="g138774">
                        <g
                           id="g138772">
                          <g
                             id="g138770">
                            <path
                               d="m 103.96,-95.871 c -0.087,-0.732 -0.197,-1.464 -0.284,-2.196 -0.032,0.006 -0.065,0.008 -0.099,0.014 -0.108,-1.058 -0.211,-2.114 -0.312,-3.169 -0.146,-1.115 -0.341,-2.222 -0.499,-3.337 -0.254,-1.711 -0.509,-3.426 -0.752,-5.14 -0.008,-0.042 -0.035,-0.067 -0.041,-0.107 -2.542,-16.534 -6.016,-32.909 -9.973,-49.167 0.077,-0.243 0.119,-0.499 0.054,-0.791 -3.213,-14.162 -5.758,-28.421 -7.615,-42.786 -0.286,-3.409 -0.539,-6.827 -0.736,-10.264 -0.454,-7.546 0.637,-15.155 1.515,-22.631 0.744,-6.354 -6.235,-2.735 -9.669,-0.452 -2.725,1.428 -5.179,3.206 -7.454,5.252 0.532,-2.661 1.85,-7.192 1.519,-10.404 -3.372,0.663 -6.837,3.986 -9.233,7.401 -1.886,1.259 -3.818,2.587 -5.247,4.187 -0.193,-0.296 -0.323,-0.564 -0.323,-0.753 0.061,-2.319 0.26,-4.618 0.282,-6.942 0.057,-5.934 -9.416,-3.315 -11.918,-2.514 -2.043,0.659 -4.345,1.863 -6.516,3.408 -3.909,1.937 -8.374,5.061 -11.21,8.751 -0.939,-4.617 -2.843,-11.24 -6.636,-3.883 -1.162,2.257 -0.874,4.601 -1.549,6.94 -0.294,1.02 -1.936,-0.715 -2.105,-1.062 -1.141,-2.38 -2.266,-4.765 -3.487,-7.102 -1.957,-3.737 -1.861,-2.717 -2.407,0.835 -0.438,2.806 -0.517,5.74 -0.354,8.688 -0.297,0.239 -0.489,0.608 -0.394,1.123 1.569,8.929 2.05,17.994 3.354,26.95 0.744,11.688 1.928,23.389 2.887,35.066 2.035,24.838 0.336,49.834 -4.321,74.302 -1.587,8.325 -3.002,16.727 -4.31,25.155 C 4.892,-54.806 3.903,-49.092 3.673,-43.28 2.098,-31.2 0.876,-19.095 0,-7.001 c 9.253,-0.927 18.576,-0.708 27.898,0.008 9.736,0.752 18.748,3.325 27.509,6.993 5.495,-5.189 10.478,-11.101 15.531,-16.668 11.826,-13.031 23.377,-26.301 35.194,-39.334 0.074,-13.376 -0.639,-26.794 -2.172,-39.869 z"
                               style="fill:#4c4d4f;fill-opacity:1;fill-rule:nonzero;stroke:none"
                               id="path138768" />
                          </g>
                        </g>
                      </g>
                      <g
                         transform="translate(120.84678,-69.08452)"
                         id="g138782">
                        <g
                           id="g138780">
                          <g
                             id="g138778">
                            <path
                               d="M 36.045,-16.67 C 30.992,-11.102 26.009,-5.192 20.514,0 13.888,-2.777 7.117,-4.917 0,-6.127 c 5.247,-1.202 10.133,-3.197 14.19,-6.979 15.059,-14.052 13.374,-39.678 13.5,-58.507 0.243,-35.07 -4.36,-69.816 -8.076,-104.614 -1.902,-17.858 -7.021,-42.772 0.586,-60.91 -0.026,2.313 -0.221,4.605 -0.28,6.92 0,0.19 0.128,0.46 0.323,0.754 1.427,-1.598 3.361,-2.926 5.245,-4.187 2.396,-3.414 5.863,-6.739 9.235,-7.402 0.331,3.213 -0.989,7.743 -1.521,10.407 2.275,-2.048 4.731,-3.826 7.454,-5.255 3.434,-2.283 10.415,-5.902 9.669,0.452 -0.878,7.477 -1.967,15.085 -1.515,22.633 0.199,3.435 0.452,6.853 0.736,10.263 1.859,14.365 4.404,28.625 7.617,42.785 0.063,0.292 0.021,0.551 -0.056,0.792 3.959,16.257 7.431,32.633 9.975,49.167 0.004,0.039 0.033,0.065 0.039,0.108 0.243,1.715 0.498,3.43 0.752,5.138 0.158,1.115 0.353,2.222 0.499,3.337 0.101,1.058 0.204,2.113 0.312,3.169 0.036,-0.006 0.069,-0.008 0.101,-0.014 0.087,0.732 0.195,1.464 0.282,2.197 1.533,13.074 2.246,26.492 2.173,39.869 -11.818,13.033 -23.369,26.303 -35.195,39.334 z"
                               style="fill:#393b3c;fill-opacity:1;fill-rule:nonzero;stroke:none"
                               id="path138776" />
                          </g>
                        </g>
                      </g>
                      <g
                         transform="translate(85.95488,-76.08692)"
                         id="g138790">
                        <g
                           id="g138788">
                          <g
                             id="g138786">
                            <path
                               d="m 30.846,-136.729 c 0.923,25.125 -3.98,50.27 -7.508,75.06 -2.907,20.462 -6.082,40.895 -10.529,61.075 C 8.529,-0.588 4.259,-0.426 0,0 c 0.877,-12.094 2.098,-24.2 3.673,-36.28 0.231,-5.811 1.219,-11.527 2.454,-17.218 1.307,-8.428 2.723,-16.83 4.308,-25.155 4.659,-24.468 6.356,-49.465 4.323,-74.302 -0.959,-11.677 -2.145,-23.379 -2.889,-35.066 -1.302,-8.957 -1.783,-18.022 -3.352,-26.95 -0.097,-0.516 0.095,-0.884 0.395,-1.123 -0.166,-2.948 -0.085,-5.882 0.351,-8.688 0.548,-3.552 0.452,-4.572 2.409,-0.835 1.208,2.311 2.321,4.667 3.445,7.021 0.592,27.185 14.752,55.132 15.729,81.867 z"
                               style="mix-blend-mode:screen;fill:#4c4d4f;fill-opacity:1;fill-rule:nonzero;stroke:none"
                               id="path138784" />
                          </g>
                        </g>
                      </g>
                      <g
                         transform="translate(221.27958,-307.28652)"
                         id="g138798">
                        <g
                           id="g138796">
                          <g
                             id="g138794">
                            <path
                               d="m 81.658,-31.132 c 1.715,-0.722 3.522,-0.949 5.488,-0.665 -1.974,2.044 -3.118,4.386 -3.819,6.879 1.105,2.369 3.491,3.54 5.999,3.903 0.199,0.16 0.432,0.286 0.744,0.315 1.395,0.137 2.579,-0.039 3.648,-0.444 0.805,-0.165 1.376,-0.586 1.812,-1.162 1.973,-2.632 2.658,-5.262 1.661,-8.544 -1.111,-3.633 -1.081,-6.928 -3.481,-10.125 -2.121,-2.819 -5.049,-5.183 -8.143,-6.853 -1.693,-0.915 -3.546,-1.706 -5.399,-2.255 -5.391,-1.592 -8.354,1.942 -11.32,5.486 -2.654,1.545 -5.229,3.236 -8.077,4.42 3.061,-1.683 4.827,-5.94 6.709,-8.629 0.685,-0.977 1.53,-1.729 2.445,-2.388 -4.497,-3.755 -11.046,-4.844 -16.918,-3.532 -2.183,-0.11 -4.322,0.41 -6.111,2.092 -0.239,0.231 -0.472,0.483 -0.697,0.74 -1.062,0.785 -1.902,2.119 -2.711,3.561 -0.811,1.011 -1.705,1.91 -2.861,2.421 -0.691,0.308 -1.413,0.523 -2.145,0.715 1.632,-2.532 2.427,-7.112 3.958,-8.609 0.517,-0.502 1.042,-0.934 1.569,-1.332 -5.594,-1.054 -12.047,-0.208 -16.234,1.659 -3.747,1.67 -5.561,5.45 -7.968,8.657 -1.725,0.951 -3.514,1.766 -5.369,2.462 2.269,-2.918 3.885,-6.233 5.884,-9.305 -8.948,1.827 -14.247,7.419 -17.603,16.162 C -0.365,-27.446 0.947,-18.411 0,-9.947 1.882,-8.681 3.925,-3.744 5.339,0 c 0.833,-4.134 2.293,-10.897 6.151,-9.45 3.348,1.255 4.594,4.972 5.296,8.666 3.797,-7.468 14.353,-12.348 22.059,-11.884 6.916,0.412 8.798,4.212 9.019,9.045 3.254,-4.221 8.215,-8.002 12.803,-7.23 0.823,0.142 1.665,1.154 1.939,1.89 0.519,1.437 0.583,3.019 0.425,4.645 2.149,-2.233 4.83,-3.514 9.708,-3.382 1.717,0.042 3.187,0.689 4.274,1.697 0.961,-6.198 0.442,-19.525 4.645,-25.129 z"
                               style="fill:#aeaeaf;fill-opacity:1;fill-rule:nonzero;stroke:none"
                               id="path138792" />
                          </g>
                        </g>
                      </g>
                      <g
                         transform="translate(227.83058,-350.05162)"
                         id="g138806">
                        <g
                           id="g138804">
                          <g
                             id="g138802">
                            <path
                               d="m 0,0 c 3.252,-4.588 7.64,-7.648 13.771,-8.901 -1.099,1.689 -2.088,3.447 -3.129,5.172 C 6.898,-2.863 3.315,-1.675 0,0 Z"
                               style="fill:#393b3c;fill-opacity:1;fill-rule:nonzero;stroke:none"
                               id="path138800" />
                          </g>
                        </g>
                      </g>
                      <g
                         transform="translate(242.85165,-354.62382)"
                         id="g138814">
                        <g
                           id="g138812">
                          <g
                             id="g138810">
                            <path
                               d="M 18.3099,-0.8619 C 12.5189,-1.2739 6.63593,-0.9569 1.22993,-0.2109 0.81915,-0.15393 0.41136,-0.063 5.8e-4,0 H 0 C 1.68898,-2.48196 3.40597,-4.89892 6.20193,-6.1419 9.08253,-7.42576 13.0337,-8.22728 17.0393,-8.26 h 0.5089 c 1.651,0.01355 3.3039,0.15957 4.8877,0.4581 -0.527,0.401 -1.052,0.831 -1.567,1.332 -1.024,1 -1.722,3.382 -2.559,5.608 z"
                               style="fill:#393b3c;fill-opacity:0.3;fill-rule:nonzero;stroke:none"
                               id="path138808" />
                          </g>
                        </g>
                      </g>
                      <g
                         transform="translate(279.80648,-311.60482)"
                         id="g138822">
                        <g
                           id="g138820">
                          <g
                             id="g138818">
                            <path
                               d="m 37.0035,-17.988 c -0.438,0.576 -1.008,0.997 -1.811,1.164 -1.07,0.403 -2.256,0.58 -3.651,0.442 -0.31,-0.027 -0.543,-0.156 -0.744,-0.315 -2.506,-0.362 -4.891,-1.534 -5.998,-3.902 0.702,-2.494 1.846,-4.834 3.82,-6.88 -1.966,-0.284 -3.773,-0.057 -5.488,0.665 -4.203,5.604 -3.684,18.931 -4.645,25.131 -1.089,-1.011 -2.559,-1.658 -4.274,-1.699 -4.878,-0.132 -7.559,1.148 -9.71,3.382 0.158,-1.626 0.097,-3.209 -0.424,-4.643 -0.273,-0.736 -1.115,-1.75 -1.938,-1.89 C 1.43067,-6.65397 0.71384,-6.63001 0,-6.54706 v -0.00121 c 0.53083,-1.34958 1.05965,-2.70116 1.5505,-4.06173 2.837,-7.883 7.108,-18.955 1.65,-25.693 2.466,-1.143 4.773,-2.607 7.121,-3.977 2.964,-3.544 5.928,-7.078 11.32,-5.483 1.851,0.546 3.706,1.34 5.399,2.253 3.094,1.67 6.022,4.034 8.144,6.853 2.399,3.197 2.368,6.492 3.48,10.125 0.997,3.281 0.312,5.912 -1.661,8.544 z"
                               style="fill:#393b3c;fill-opacity:0.3;fill-rule:nonzero;stroke:none"
                               id="path138816" />
                          </g>
                        </g>
                      </g>
                      <g
                         transform="translate(264.33848,-348.03782)"
                         id="g138830">
                        <g
                           id="g138828">
                          <g
                             id="g138826">
                            <path
                               d="m 26.865,-10.4425 v -8e-4 l -0.8657,-0.6725 -0.9104,-0.6108 -0.9505,-0.5491 -0.9866,-0.4877 -1.0188,-0.4268 -1.0469,-0.3663 -1.0711,-0.3062 -1.0913,-0.2463 -1.1073,-0.187 -1.1196,-0.128 -1.1276,-0.0694 -1.1319,-0.0112 -1.1319,0.0467 -1.1282,0.1041 -1.1203,0.1611 -1.1084,0.2178 -1.30236,0.014 -1.27668,0.1907 -1.2366,0.393 -1.18212,0.6207 -1.11324,0.8736 -0.354,0.3603 -0.342,0.3797 L 1.68987,-9.60865 0.4295,-7.5809 0.21675,-7.34603 0,-7.11843 v 5.9e-4 l 1.1074,0.14365 1.10263,0.16301 1.09646,0.18302 1.08939,0.20375 1.08141,0.22523 1.07255,0.2474 1.06277,0.27032 1.05209,0.29396 1.04052,0.31831 1.02808,0.34339 1.0146,0.3692 1.0004,0.39572 0.9852,0.42298 1.4786,0.75531 1.2856,0.84794 1.1083,0.93081 L 18.5524,0 h 2e-4 l 1.0385,-0.9259 0.9427,-1.08864 0.8642,-1.19862 0.8035,-1.25599 0.7602,-1.26071 0.7344,-1.21279 0.7264,-1.11225 1.1349,-1.31325 z"
                               style="fill:#393b3c;fill-opacity:0.3;fill-rule:evenodd;stroke:none"
                               id="path138824" />
                          </g>
                        </g>
                      </g>
                      <g
                         transform="translate(221.27928,-307.68932)"
                         id="g138838">
                        <g
                           id="g138836">
                          <g
                             id="g138834">
                            <path
                               d="M 10.359,-37.065 C 6.817,-25.269 5.195,-12.447 5.185,0 3.778,-3.688 1.817,-8.323 0,-9.544 0.947,-18.008 -0.366,-27.043 2.719,-35.1 c 3.358,-8.745 8.656,-14.337 17.603,-16.162 -0.038,0.057 -0.077,0.118 -0.113,0.175 -4.432,3.601 -8.037,7.992 -9.85,14.022 z"
                               style="fill:#7b7c7e;fill-opacity:1;fill-rule:nonzero;stroke:none"
                               id="path138832" />
                          </g>
                        </g>
                      </g>
                      <g
                         transform="translate(325.10295,-245.95122)"
                         id="g138846">
                        <g
                           id="g138844">
                          <g
                             id="g138842">
                            <path
                               d="m 100.549,-34.02 c -9.2562,-4.548 -19.6572,-6.072 -28.8822,-10.908 -4.272,-2.236 -8.42,-4.602 -12.597,-6.995 -2.459,-1.403 -4.975,-2.656 -7.686,-3.489 -3.625,-1.198 -5.057,0.523 -4.302,5.16 1.445,2.141 3.24,3.931 5.338,5.399 1.902,0.947 3.836,1.853 5.795,2.82 0.34,0.167 1.285,1.387 1.119,1.847 -1.6,-0.038 -3.23,-0.273 -4.862,-0.669 -0.3,-0.221 -0.62,-0.45 -0.908,-0.661 -5.185,-2.193 -9.536,-6.064 -14.461,-8.87 -3.578,-2.691 -7.538,-4.661 -9.348,-1.575 -2.137,3.647 2.887,7.799 5.206,9.851 2.82,2.494 10.989,8.127 10.586,7.96 -6.673,-2.834 -7.295,-2.039 -12.585,-7.337 -1.744,-1.077 -3.465,-2.204 -5.154,-3.39 -2.145,-1.492 -4.249,-3.042 -6.386,-4.542 -3.267,-2.818 -5.947,-2.776 -8.029,0.124 -1.128,2.104 2.337,6.386 3.459,7.867 1.228,1.63 2.706,3.041 4.314,4.328 0.081,0.037 0.162,0.073 0.247,0.106 1.626,1.555 3.384,2.962 5.254,4.205 -0.199,-0.067 -0.402,-0.118 -0.598,-0.185 -1.979,-0.675 -3.903,-1.516 -5.868,-2.198 -2.153,-0.985 -4.258,-2.145 -6.677,-3.635 -2.844,-1.754 -6.49397,-4.88 -10.03197,-4.594 -0.221,-0.075 -0.432,-0.189 -0.659,-0.248 -2.785,-0.768 -3.38201,2.94 -2.376,4.724 2.267,4.009 7.027,7.476 10.91197,9.887 3.22,2.001 6.533,3.256 10.004,3.998 -2.792,0.051 -5.606,-0.177 -8.429,-0.387 -1.303,-0.432 -2.582,-0.844 -3.81297,-1.105 -2.66,-0.562 -12.461,-0.457 -4.85,5.671 2.853,2.293 7.57897,4.085 10.94397,5.443 4.072,1.641 7.823,3.816 12.032,5.164 2.112,-0.01 4.997,1.876 7.238,3.575 0.953,0.805 6.474,5.547 7.552,6.679 -1.419,-5.513 -3.515,-12.662 0.477,-12.545 3.108,0.09 5.715,2.884 7.994,5.529 -2.713,-4.75 -7.147,-10.078 0.282,-10.826 6.089,-0.611 12.185,1.011 17.396,4.089 -0.75,-1.867 -1.129,-3.702 -0.631,-5.188 0.065,-0.165 0.185,-0.26 0.357,-0.29 4.714,-0.055 8.99,4.714 12.563,8.416 -1.835,-4.947 -5.219,-12.666 2.238,-11.076 4.447,0.952 10.221,4.432 14.089,8.397 1.697,-3.187 4.4932,-5.186 8.2712,-5.676 3.884,-0.495 5.157,2.729 6.526,5.711 0.641,1.389 0.983,3.043 1.275,4.679 0.631,-0.523 1.308,-1.009 2.016,-1.397 1.456,-2.445 2.65,-4.478 2.964,-7.795 0.795,-8.329 -11.472,-13.177 -17.315,-16.048 z"
                               style="fill:#aeaeaf;fill-opacity:1;fill-rule:nonzero;stroke:none"
                               id="path138840" />
                          </g>
                        </g>
                      </g>
                      <g
                         transform="translate(368.26488,-252.96882)"
                         id="g138854">
                        <g
                           id="g138852">
                          <g
                             id="g138850">
                            <path
                               d="m 71.739,-3.1599 c -0.708,0.389 -1.385,0.874 -2.017,1.397 -0.294,-1.636 -0.635,-3.289 -1.274,-4.678 -1.37,-2.982 -2.644,-6.206 -6.528,-5.711 -3.779,0.489 -6.575,2.488 -8.27,5.675 -3.869,-3.964 -9.643,-7.445 -14.091,-8.396 -7.454,-1.591 -4.07,6.129 -2.235,11.076 -3.574,-3.702 -7.85,-8.471 -12.566,-8.416 -0.171,0.029 -0.29,0.124 -0.355,0.29 -0.497,1.486 -0.12,3.321 0.632,5.187 -5.214,-3.078 -11.307,-4.7 -17.396,-4.088 C 0.20957,-10.076 4.64032,-4.74972 7.35337,0 H 7.35306 C 5.23828,-2.46266 2.82158,-5.02096 0,-5.4389 c 1.447,-4.057 4.11,-7.599 8.035,-9.683 5.036,-2.668 10.249,-3.498 15.782,-4.426 2.863,-0.479 7.344,-0.947 9.472,-3.317 7.453,-8.303 -13.059,-19.262 -27.316,-25.879 0.06365,-0.0054 0.12857,-0.0091 0.19479,-0.0111 h 0.22972 c 0.52864,0.0151 1.13426,0.1328 1.82549,0.3611 2.711,0.832 5.227,2.085 7.683,3.488 4.178,2.394 8.327,4.76 12.6,6.995 9.224,4.837 19.623,6.36 28.882,10.908 5.6518,2.7785 17.3162,7.4065 17.3516,15.2466 v 0.0715 c -0.0011,0.2406 -0.0131,0.4842 -0.0366,0.7309 -0.314,3.317 -1.51,5.349 -2.964,7.794 z"
                               style="fill:#393b3c;fill-opacity:0.5;fill-rule:nonzero;stroke:none"
                               id="path138848" />
                          </g>
                        </g>
                      </g>
                      <g
                         transform="translate(326.54644,-245.95002)"
                         id="g138862">
                        <g
                           id="g138860">
                          <g
                             id="g138858">
                            <path
                               d="m 3.28414,-26.637 c 2.451,1.184 4.998,2.092 7.63996,3.131 4.935,1.95 9.507,4.606 14.214,7.027 5.134,2.646 9.858,4.959 13.71,8.408 0.244,2.417 1.075,5.426 1.754,8.071 -1.078,-1.133 -6.599,-5.877 -7.55,-6.68 -2.243,-1.699 -5.128,-3.585 -7.238,-3.575 -4.211,-1.348 -7.96,-3.523 -12.034,-5.164 -3.365,-1.358 -8.08896,-3.149 -10.94396,-5.442 -4.919,-3.965 -2.555,-5.405 0.448,-5.776 z"
                               style="fill:#7b7c7e;fill-opacity:1;fill-rule:nonzero;stroke:none"
                               id="path138856" />
                          </g>
                        </g>
                      </g>
                      <g
                         transform="translate(345.71938,-123.47682)"
                         id="g138870">
                        <g
                           id="g138868">
                          <g
                             id="g138866">
                            <path
                               d="m 102.399,-90.95 c -0.073,-1.196 -0.144,-2.394 -0.231,-3.579 -0.645,-8.706 -2.64,-17.479 -2.687,-26.213 -0.002,-0.89 -0.036,-1.776 -0.064,-2.664 0.285,-1.843 0.561,-3.68 0.61,-5.535 0.026,-0.744 -0.643,-1.407 -1.383,-1.391 -2.909,0.077 -5.166,1.533 -7.451,3.049 0.095,-4.241 -0.357,-8.777 -3.124,-10.985 -4.066,-3.236 -8.601,1.188 -10.837,5.124 -1.349,-1.292 -2.719,-2.573 -4.159,-3.768 -2.621,-2.179 -5.675,-4.908 -9.166,-5.47 -6.172,-0.991 -3.096,7.727 -1.509,12.461 -3.584,-3.128 -7.232,-6.169 -11.137,-8.898 -1.08,-0.753 -2.262,0.48 -2.041,1.567 0.269,1.287 0.541,2.565 0.804,3.846 -1.733,-0.497 -3.491,-0.791 -5.275,-1.083 -3.82,-1.618 -7.905,-2.562 -12.684,-2.747 -6.215,-0.241 -1.764,5.103 -0.179,8.063 0.815,1.517 1.48,2.851 2.016,4.416 -3.104,-2.794 -5.908,-5.961 -9.88,-7.607 -0.838,-0.345 -1.766,0.515 -1.756,1.34 0.069,4.114 0.701,8.157 1.271,12.212 -1.089,-0.945 -2.163,-1.896 -3.276,-2.818 -1.347,-1.109 -2.851,-2.141 -4.355,-3.181 -0.864,-0.747 -1.764,-1.456 -2.725,-1.991 -1.262,-0.965 -5.765,-3.561 -5.144,-2.227 2.019,4.378 3.323,9.396 4.335,13.974 1.563,10.588 2.577,14.807 -0.258,32.286 -1.662,6.908 -3.126,14.286 -5.549,21.137 -2.026,5.725 -4.26,11.376 -6.565,16.994 12.87,3.447 25.115,8.848 36.927,15.085 13.698,7.23 25.984,16.623 37.778,26.597 1.14,0.963 2.178,1.964 3.234,2.956 6.393,-21.81 15.754,-42.592 24.375,-63.646 0.928,-9.162 1.137,-18.229 0.085,-27.304 z"
                               style="fill:#4c4d4f;fill-opacity:1;fill-rule:nonzero;stroke:none"
                               id="path138864" />
                          </g>
                        </g>
                      </g>
                      <g
                         transform="translate(382.41978,-123.47742)"
                         id="g138878">
                        <g
                           id="g138876">
                          <g
                             id="g138874">
                            <path
                               d="M 65.614,-63.646 C 56.993,-42.592 47.632,-21.81 41.239,0 40.183,-0.992 39.145,-1.992 38.005,-2.955 26.211,-12.93 13.925,-22.323 0.227,-29.553 0.154,-29.592 0.077,-29.63 0,-29.671 c 2.425,0.057 4.856,-0.037 7.295,-0.339 16.662,-2.086 21.554,-17.785 22.795,-32.33 1.62,-19.111 -0.276,-39.21 -5.64,-57.644 -1.45,-4.976 -3.224,-10.389 -5.566,-15.567 2.315,1.818 4.594,3.692 6.813,5.63 -1.586,-4.734 -4.662,-13.451 1.51,-12.461 3.491,0.563 6.545,3.291 9.166,5.47 1.44,1.198 2.808,2.476 4.159,3.769 2.236,-3.937 6.77,-8.361 10.837,-5.125 2.767,2.208 3.219,6.747 3.124,10.985 2.283,-1.515 4.542,-2.971 7.451,-3.048 0.74,-0.016 1.409,0.647 1.383,1.391 -0.049,1.855 -0.326,3.692 -0.61,5.535 0.028,0.888 0.061,1.774 0.061,2.664 0.05,8.733 2.045,17.508 2.69,26.212 0.087,1.186 0.158,2.384 0.231,3.579 1.052,9.075 0.842,18.142 -0.085,27.304 z"
                               style="fill:#393b3c;fill-opacity:1;fill-rule:nonzero;stroke:none"
                               id="path138872" />
                          </g>
                        </g>
                      </g>
                      <g
                         transform="translate(345.72048,-164.34672)"
                         id="g138886">
                        <g
                           id="g138884">
                          <g
                             id="g138882">
                            <path
                               d="m 15.9053,-83.941 c 1.504,1.04 3.007,2.072 4.355,3.181 0.302,0.252 0.592,0.513 0.886,0.765 2.482,10.565 2.02,22.116 0.815,32.571 -1.082,9.38 -2.733,18.751 -4.623,28 -1.25,6.087 -2.71,13.278 -5.514,19.424 C 7.94153,-1.41892 4.00276,-2.69885 0,-3.76881 v -0.0019 C 2.30475,-9.38714 4.53751,-15.0386 6.5643,-20.76 c 2.423,-6.853 3.887,-14.229 5.548,-21.139 2.836,-17.479 1.822,-21.696 0.259,-32.286 -1.012,-4.578 -2.317,-9.596 -4.335,-13.975 -0.11838,-0.2535 -0.05112,-0.3648 0.14413,-0.3721 h 0.04354 c 0.89159,0.0304 3.95083,1.8318 4.95633,2.6001 0.961,0.535 1.861,1.243 2.725,1.991 z"
                               style="mix-blend-mode:screen;fill:#4c4d4f;fill-opacity:1;fill-rule:nonzero;stroke:none"
                               id="path138880" />
                          </g>
                        </g>
                      </g>
                      <g
                         transform="translate(431.55892,-263.54062)"
                         id="g138894">
                        <g
                           id="g138892">
                          <g
                             id="g138890">
                            <path
                               d="m 100.555,-34.022 c -9.2582,-4.546 -19.6572,-6.072 -28.8882,-10.904 -4.264,-2.236 -8.414,-4.606 -12.595,-6.999 -2.453,-1.401 -4.977,-2.654 -7.69,-3.489 -3.615,-1.198 -5.053,0.525 -4.3,5.16 1.453,2.145 3.236,3.931 5.342,5.399 1.906,0.947 3.836,1.857 5.797,2.818 0.34,0.167 1.277,1.393 1.115,1.849 -1.606,-0.036 -3.232,-0.273 -4.858,-0.667 -0.306,-0.221 -0.62,-0.452 -0.91,-0.663 -5.183,-2.191 -9.532,-6.062 -14.463,-8.868 -3.576,-2.697 -7.538,-4.661 -9.346,-1.575 -2.135,3.645 2.887,7.799 5.206,9.851 2.82,2.492 5.939,4.905 9.357,6.511 2.664,1.255 5.428,2.335 7.828,4.046 0.144,0.353 0.152,0.659 -0.271,0.58 -0.086,-0.016 -0.167,-0.03 -0.254,-0.044 -0.014,-0.006 -0.024,-0.014 -0.038,-0.018 -5.87,-1.087 -13.329,-5.158 -18.619,-10.452 -1.744,-1.079 -3.473,-2.21 -5.164,-3.39 -2.137,-1.491 -4.235,-3.048 -6.372,-4.544 -3.277,-2.816 -5.955,-2.778 -8.035,0.126 -1.126,2.102 2.337,6.384 3.457,7.869 1.232,1.624 2.706,3.035 4.318,4.324 0.083,0.039 0.162,0.073 0.245,0.108 1.626,1.557 9.217,6.467 11.089,7.704 -0.195,-0.067 -10.332,-5.2 -12.307,-5.882 -2.147,-0.987 -4.258,-2.145 -6.675,-3.639 -2.844,-1.752 -6.48605,-4.88 -10.02405,-4.59 -0.223,-0.073 -0.44,-0.189 -0.661,-0.25 -2.783,-0.768 -3.39,2.944 -2.384,4.724 2.271,4.013 7.031,7.472 10.91605,9.889 3.226,2.001 6.535,3.256 10.006,3.998 -2.794,0.051 -5.61,-0.175 -8.428,-0.387 -1.304,-0.436 -2.582,-0.842 -3.81405,-1.103 -2.662,-0.564 -12.459,-0.459 -4.85,5.664 2.847,2.296 7.57305,4.088 10.94705,5.448 4.065,1.639 7.822,3.816 12.031,5.164 2.106,-0.01 4.991,1.878 7.234,3.573 0.957,0.807 6.48,5.549 7.552,6.681 -1.415,-5.515 -3.517,-12.662 0.477,-12.543 3.108,0.088 5.715,2.88 7.992,5.523 -2.708,-4.746 -7.139,-10.076 0.286,-10.823 6.087,-0.61 12.183,1.014 17.4,4.09 -0.75,-1.867 -1.139,-3.702 -0.632,-5.19 0.056,-0.165 0.176,-0.262 0.356,-0.288 4.708,-0.057 8.99,4.712 12.557,8.412 -1.829,-4.945 -5.219,-12.664 2.246,-11.074 4.447,0.954 10.219,4.436 14.083,8.395 1.703,-3.181 4.4892,-5.184 8.2722,-5.672 3.879,-0.501 5.162,2.726 6.527,5.709 0.635,1.385 0.983,3.045 1.269,4.677 0.639,-0.523 1.31,-1.005 2.02,-1.395 1.46,-2.445 2.652,-4.478 2.966,-7.791 0.789,-8.331 -11.474,-13.181 -17.313,-16.052 z"
                               style="fill:#aeaeaf;fill-opacity:1;fill-rule:nonzero;stroke:none"
                               id="path138888" />
                          </g>
                        </g>
                      </g>
                      <g
                         transform="translate(478.70548,-272.32502)"
                         id="g138902">
                        <g
                           id="g138900">
                          <g
                             id="g138898">
                            <path
                               d="m 67.7545,-1.395 c -0.708,0.391 -1.379,0.872 -2.019,1.395 -0.288,-1.632 -0.635,-3.291 -1.268,-4.676 -1.366,-2.984 -2.65,-6.21 -6.53,-5.709 -3.782,0.487 -6.569,2.49 -8.27,5.671 -3.865,-3.958 -9.637,-7.441 -14.085,-8.394 -7.464,-1.591 -4.072,6.129 -2.243,11.074 -1.888,-1.952 -3.976,-4.191 -6.216,-5.877 1.285,-2.332 2.988,-4.414 4.371,-6.975 1.989,-3.676 0.326,-8.335 -2.419,-11.125 C 20.9676,-34.2509 10.4208,-39.9138 0,-45.4037 v -0.0017 c 0.36385,-1.0486 1.11668,-1.5804 2.25968,-1.5904 h 0.06633 c 0.54906,0.0048 1.18585,0.1268 1.91049,0.3668 2.713,0.834 5.237,2.087 7.687,3.488 4.182,2.394 8.333,4.764 12.598,6.999 9.23,4.833 19.627,6.358 28.886,10.904 5.6335,2.7714 17.2508,7.3847 17.3505,15.1904 v 0.20252 c -0.0028,0.21756 -0.0145,0.43758 -0.0355,0.66008 -0.314,3.313 -1.508,5.345 -2.968,7.79 z"
                               style="fill:#393b3c;fill-opacity:0.5;fill-rule:nonzero;stroke:none"
                               id="path138896" />
                          </g>
                        </g>
                      </g>
                      <g
                         transform="translate(433.02007,-263.53962)"
                         id="g138910">
                        <g
                           id="g138908">
                          <g
                             id="g138906">
                            <path
                               d="m 0.49391,-25.658 c 4.499,3.929 11.10099,6.518 15.95199,8.688 7.462,3.345 15.067,6.358 22.49,9.768 0.332,2.249 1.05,4.868 1.65,7.202 -1.071,-1.133 -6.592,-5.876 -7.55,-6.681 -2.245,-1.695 -5.128,-3.584 -7.233,-3.574 -4.211,-1.348 -7.966,-3.524 -12.031,-5.166 -3.374,-1.357 -8.09999,-3.149 -10.94799,-5.446 -3.042,-2.449 -3.279,-3.921 -2.33,-4.791 z"
                               style="fill:#7b7c7e;fill-opacity:1;fill-rule:nonzero;stroke:none"
                               id="path138904" />
                          </g>
                        </g>
                      </g>
                      <g
                         transform="translate(6.97128,180.41036)"
                         id="g138918">
                        <g
                           id="g138916">
                          <g
                             id="g138914">
                            <path
                               d="m 547.609,-412.427 c -0.073,-1.194 -0.154,-2.393 -0.239,-3.579 -0.639,-8.708 -2.638,-17.477 -2.681,-26.213 -0.006,-0.888 -0.042,-1.774 -0.062,-2.662 0.281,-1.847 0.557,-3.686 0.612,-5.537 0.022,-0.745 -0.649,-1.41 -1.385,-1.391 -2.917,0.075 -5.166,1.532 -7.455,3.047 0.097,-4.242 -0.361,-8.777 -3.128,-10.983 -4.058,-3.242 -8.593,1.188 -10.83,5.126 -1.35,-1.298 -2.724,-2.575 -4.16,-3.77 -2.625,-2.177 -5.679,-4.912 -9.164,-5.47 -6.176,-0.991 -3.096,7.727 -1.517,12.457 -3.58,-3.122 -7.224,-6.169 -11.129,-8.896 -1.08,-0.753 -2.269,0.478 -2.039,1.569 0.267,1.289 0.533,2.561 0.802,3.844 -1.739,-0.497 -3.495,-0.789 -5.273,-1.085 -3.824,-1.618 -7.909,-2.558 -12.688,-2.743 -6.221,-0.241 -1.764,5.101 -0.177,8.061 0.813,1.517 1.474,2.851 2.016,4.416 -3.108,-2.796 -5.913,-5.963 -9.88,-7.605 -0.842,-0.347 -1.772,0.517 -1.752,1.34 0.059,4.114 0.691,8.151 1.261,12.212 -1.085,-0.943 -2.161,-1.898 -3.27,-2.816 -1.351,-1.109 -2.859,-2.143 -4.36,-3.185 -0.861,-0.749 -1.761,-1.456 -2.722,-1.987 -1.26,-0.968 -5.765,-3.565 -5.146,-2.229 2.019,4.376 3.319,9.394 4.341,13.972 1.563,10.586 2.573,14.807 -0.26,32.284 -1.666,6.91 -3.126,14.29 -5.549,21.139 -8.252,23.304 -19.558,45.392 -27.67,68.742 -4.456,12.806 -7.785,26.035 -10.338,39.34 -2.603,13.59 -4.189,27.383 -4.535,41.221 -0.201,7.776 0.022,15.555 0.721,23.306 1.187,13.116 3.916,26.879 9.126,39.231 1.565,5.129 3.63,10.05 6.361,14.575 -2.539,-3.12 -4.648,-6.593 -6.517,-10.133 -6.249,-11.861 -8.742,-24.867 -11.113,-37.917 -5.077,-27.936 -0.819,-58.181 5.321,-85.609 0.92,-4.1 1.995,-8.15 3.146,-12.171 -2.24,-1.938 -4.527,-3.83 -6.824,-5.677 -12.409,-9.967 -25.097,-18.773 -39.433,-25.792 -15.119,-7.398 -30.656,-12.337 -47.3,-14.821 -4.935,-0.734 -9.868,-1.103 -14.807,-1.245 -1.257,0.053 -2.518,0.136 -3.769,0.239 -1.379,0.108 -2.737,0.56 -4.102,0.621 0.045,0.62 0.049,1.239 0.102,1.855 0.042,0.606 0.075,1.208 0.103,1.81 0.988,22.423 -1.066,45.486 -4.793,67.589 -1.825,10.809 -4.377,21.658 -7.544,32.153 -0.169,0.549 -0.369,1.092 -0.544,1.634 0.491,0.474 0.953,1.182 0.925,1.518 -0.783,9.163 -0.428,18.37 -2.241,27.445 0.292,0.239 0.544,0.503 0.615,0.675 1.847,4.254 -0.256,9.509 -1.618,13.641 -0.578,1.768 -1.32,3.68 -2.2,5.58 0.491,-0.566 1.008,-1.116 1.586,-1.626 0.794,-0.7 2.053,1.415 2.076,2.011 0.184,5.533 -3.482,12.021 -6.038,16.69 -3.798,6.936 -8.388,11.92 -14.58,16.788 -0.331,0.262 -1.089,-0.691 -0.803,-0.997 4.615,-4.883 8.941,-9.554 12.179,-15.535 2.204,-4.069 5.231,-9.248 6.454,-14.278 -2.756,2.717 -4.931,5.72 -8.893,7.386 -0.032,0.014 -0.063,0.033 -0.097,0.051 -0.442,0.178 -1.431,-1.093 -0.998,-1.417 5.389,-4.037 11.703,-17.5 11.614,-25.871 -1.488,4.856 -7.53,18.395 -12.577,18.063 -0.468,-0.029 -1.435,-1.492 -0.809,-1.539 2.962,-0.209 6.32,-8.905 7.561,-11.565 2.244,-4.829 3.751,-9.515 4.454,-14.815 0.645,-4.905 0.4,-10.379 0.911,-15.541 -3.027,7.279 -6.819,14.335 -10.091,21.433 -0.223,0.48 -1.158,-0.564 -1.016,-0.981 3.323,-9.704 8.088,-19.14 10.752,-29.02 2.865,-10.642 5.464,-21.368 7.485,-32.205 4.218,-22.663 5.872,-46.539 5.067,-69.568 -0.028,-0.738 -0.073,-1.478 -0.103,-2.212 -0.027,0.002 -0.069,0.002 -0.1,0.004 -0.022,-1.058 -0.038,-2.122 -0.05,-3.181 -0.057,-1.121 -0.164,-2.244 -0.227,-3.366 -0.11,-1.725 -0.221,-3.454 -0.333,-5.186 0,-0.044 -0.022,-0.069 -0.028,-0.109 -1.188,-16.689 -3.301,-33.288 -5.921,-49.822 0.098,-0.231 0.159,-0.485 0.122,-0.779 -2.042,-14.375 -3.42,-28.793 -4.093,-43.265 -0.006,-3.42 0.022,-6.847 0.097,-10.289 0.176,-7.561 1.877,-15.053 3.363,-22.435 1.266,-6.265 -5.987,-3.236 -9.602,-1.237 -2.826,1.201 -5.425,2.77 -7.852,4.625 0.744,-2.609 2.427,-7.019 2.356,-10.247 -3.402,0.385 -7.135,3.417 -9.799,6.622 -1.983,1.099 -4.019,2.263 -5.568,3.741 -0.174,-0.304 -0.286,-0.588 -0.263,-0.773 0.245,-2.307 0.636,-4.582 0.845,-6.891 0.539,-5.914 -9.112,-4.082 -11.67,-3.485 -2.091,0.488 -4.483,1.5 -6.778,2.866 -4.051,1.612 -8.755,4.353 -11.883,7.802 -0.56,-4.677 -1.916,-11.433 -6.298,-4.414 -1.344,2.156 -1.253,4.518 -2.108,6.795 -0.376,0.989 -1.876,-0.874 -2.016,-1.237 -0.941,-2.464 -1.865,-4.931 -2.895,-7.358 -1.646,-3.885 -1.628,-2.859 -2.468,0.637 -0.667,2.757 -0.981,5.675 -1.062,8.627 -0.318,0.215 -0.531,0.565 -0.483,1.086 0.832,9.027 0.576,18.102 1.14,27.137 -0.213,11.706 0.01,23.464 0.01,35.185 0,24.924 -3.731,49.696 -10.375,73.7 -2.264,8.167 -4.365,16.427 -6.352,24.717 -1.703,5.572 -3.151,11.186 -3.858,16.966 -3.064,14.308 -5.712,28.708 -7.759,43.111 -1.349,9.473 -1.815,18.811 -1.829,28.257 -0.714,12.472 1.044,24.586 4.148,36.532 1.225,11.123 3.854,22.047 7.776,32.132 5.064,12.974 16.045,23.86 27.505,31.451 6.078,4.028 13.085,7.368 20.025,9.513 4.516,1.401 9.595,0.677 13.846,2.633 0.316,0.144 1.168,1.503 0.456,1.318 -2.094,-0.553 -3.767,0.161 -5.802,0.031 -3.317,-0.211 -6.365,-0.803 -9.562,-1.691 -5.878,-1.638 -11.399,-4.799 -16.688,-7.776 -9.921,-5.59 -18.654,-14.229 -25.527,-23.229 -7.321,-9.576 -10.295,-21.564 -12.85,-33.089 -0.45,-2.031 -0.848,-4.101 -1.221,-6.186 -2.114,-9.507 -4.353,-18.851 -4.653,-28.782 -0.379,-12.861 -1.012,-25.445 0.475,-38.263 1.841,-15.839 4.882,-31.459 8.361,-46.988 -0.109,0.114 -0.231,0.221 -0.339,0.335 -11.516,11.972 -22.182,24.756 -33.512,36.898 -5.335,5.718 -10.693,11.399 -16.238,16.908 -0.761,0.756 -1.554,1.456 -2.334,2.181 2.344,1.045 4.669,2.141 6.989,3.322 6.301,3.205 11.502,7.828 16.193,12.986 -3.298,-3.017 -6.832,-5.763 -10.654,-8.112 -7.419,-4.556 -16.762,-9.741 -25.822,-10.456 -7.281,-1.985 -14.757,-3.088 -22.65,-3.333 -11.009,-0.331 -21.358,0.042 -32.207,2.114 -5.458,1.04 -10.989,3.094 -16.22,4.941 -3.319,1.18 -6.421,2.733 -9.543,4.349 -1.716,0.886 -2.774,2.62 -4.57,3.394 -0.659,0.278 -1.963,-1.099 -1.582,-1.737 1.016,-1.736 5.738,-5.243 7.543,-7.804 -6.687,0.718 -14.065,7.755 -18.138,11.938 -0.499,0.515 -1.831,-1.136 -1.529,-1.677 1.387,-2.551 3.913,-4.803 5.553,-7.329 -3.44,1.196 -6.61,3.965 -9.322,5.993 -4.951,3.708 -9.002,8.505 -12.824,13.317 -3.636,4.565 -6.387,9.691 -8.327,15.113 13.02,-14.461 41.282,-16.543 58.562,-17.506 27.098,-1.518 60.335,0.485 81.549,19.349 7.783,6.915 13.182,16.694 15.206,26.884 0.091,0.112 0.138,0.199 0.176,0.28 -0.545,3.931 -1.626,7.796 -3.029,11.583 -3.499,7.013 -9.047,13.132 -14.997,18.593 -0.294,-0.418 -0.511,-0.872 -0.53,-1.087 -0.403,-4.475 -2.22,-8.246 -4.237,-12.171 1.802,3.499 1.338,9.904 0.951,13.657 -0.134,1.322 -1.831,-0.728 -1.975,-1.21 -0.926,-3.23 -3.649,-5.728 -6.198,-7.691 -1.74,-1.334 -2.585,-2.585 -0.032,1.421 1.948,3.056 3.637,6.229 4.618,9.733 0.25,0.916 -0.758,0.539 -1.119,0.18 -2.962,-2.976 -5.738,-6.141 -9.363,-8.364 -3.84,-2.351 2.026,5.345 2.472,6.203 5.17,9.967 8.783,20.37 8.32,31.704 -0.441,10.62 -3.394,19.677 -11.921,26.5384 -9.013,7.254 -22.418,6.486 -33.091,4.464 -11.861,-2.25 -23.278,-11.5894 -35.421,-10.362 -5.877,0.594 -10.97,3.998 -16.897,4.022 -3.418,0.017 -6.383,-2.356 -8.927,-4.32 -5.797,-4.4834 -7.579,-11.6164 -7.749,-18.5724 -0.118,-4.718 0.371,-20.397 5.227,-24.527 -0.826,-0.628 -1.645,-1.281 -2.46,-1.94 -4.073,4.833 -6.666,11.398 -8.314,17.315 -1.41,5.06 -1.164,11.921 2.216,16.157 0.241,0.892 0.474,1.788 0.707,2.684 -0.156,0.035 -0.346,0.002 -0.488,-0.071 -2.407,-1.249 -3.98,-3.209 -5.426,-5.34 0.16,3.901 3.321,7.97 5.752,11.015 0.124,0.795 0.308,1.576 0.533,2.354 -2.595,-0.531 -4.797,-3.047 -6.423,-5.555 0.213,2.137 1.176,4.736 1.584,6.2144 1.062,3.862 2.593,7.401 4.851,10.476 0.025,-0.077 0.057,-0.154 0.086,-0.231 0.519,0.827 1.088,1.618 1.697,2.391 2.1,2.625 4.712,4.845 8.29,6.526 3.591,1.689 7.885,3.24 12.248,4.041 -7.731,0.245 -14.817,-2.893 -20.703,-8.562 -0.622,12.201 6.462,25.143 14.061,34.062 7.096,8.325 16.585,13.734 26.563,17.876 16.976,7.439 32.598,11.026 49.99,14.578 -1.845,0 -3.684,-0.048 -5.489,-0.186 -11.11,-0.848 -22.213,-3.707 -32.894,-7.474 2.421,6.792 5.803,12.944 12.364,17.28702 2.998,1.985 2.52,2.378 1.857,-0.85 -0.519,-2.56102 -1.821,-4.68102 -1.734,-7.32702 0.021,-0.783 0.846,-0.527 1.264,-0.207 1.741,1.336 2.749,2.871 3.844,4.779 2.585,4.48102 9.549,9.49902 15.169,11.11702 -1.591,-2.245 -2.99,-3.851 -4.417,-6.693 -0.341,-0.683 -0.086,-1.606 0.811,-1.119 4.868,2.656 8.178,5.847 13.924,7.309 8.155,2.086 16.5,2.258 24.825,1.344 13.741,-1.509 26.394,-8.126 38.182,-14.84302 11.778,-6.709 20.695,-18.291 29.409,-28.349 9.596,-11.066 19.464,-22.404 31.244,-31.242 19.922,-14.955 41.868,-29.8614 66.127,-36.8404 28.795,-8.282 58.396,-14.19 87.984,-6.723 0.379,0.097 1.076,1.239 0.491,1.125 -14.436,-2.852 -28.929,-3.903 -43.395,-1.441 7.704,0.744 15.159,3.228 22.461,5.738 16.745,5.746 33.253,12.343 50.858,14.9204 34.414,5.037 67.224,-26.1344 83.342,-53.4164 8.99,-15.229 13.931,-32.428 18.686,-49.303 2.313,-8.218 4.702,-16.391 6.449,-24.758 2.093,-10.04 1.91,-20.109 1.813,-30.299 -0.168,-18.538 -2.61,-36.56 -6.283,-54.364 -0.274,0.856 -0.481,1.728 -0.702,2.591 -0.381,-4.462 -0.389,-8.852 1.141,-13.493 0.039,0.16 0.082,0.313 0.118,0.473 1.01,-2.263 2.149,-4.447 3.38,-6.502 3.887,-6.458 9.91,-10.961 13.602,-17.719 2.648,-4.842 4.789,-9.807 6.142,-15.05 -1.042,1.07 -2.147,2.048 -3.441,2.798 -0.326,-0.154 -0.705,-0.172 -1.103,0.006 -0.464,0 -0.926,0.04 -1.385,0.099 1.268,-2.564 2.064,-5.577 2.908,-7.99 1.849,-5.32 2.629,-11.176 3.296,-16.761 1.221,-10.272 1.582,-20.411 0.402,-30.557 z"
                               style="fill:#4c4d4f;fill-opacity:1;fill-rule:nonzero;stroke:none"
                               id="path138912" />
                          </g>
                        </g>
                      </g>
                      <g
                         transform="translate(6.97328,180.41011)"
                         id="g138926">
                        <g
                           id="g138924">
                          <g
                             id="g138922">
                            <path
                               d="m 26.447,-236.714 c 3.982,-4.092 11.109,-10.859 17.676,-11.837 0.051,0.084 0.125,0.159 0.196,0.232 -1.958,2.528 -6.301,5.81 -7.278,7.469 -0.381,0.639 0.924,2.015 1.583,1.739 1.795,-0.774 2.853,-2.508 4.57,-3.396 3.121,-1.614 6.223,-3.169 9.542,-4.347 5.231,-1.847 10.762,-3.902 16.22,-4.943 3.219,-0.616 6.397,-1.066 9.555,-1.405 6.945,0.398 13.864,1.584 20.492,3.291 16.411,4.229 33.207,10.803 45.931,22.321 25.622,23.194 39.539,58.846 44.628,92.436 5.567,36.7244 0.586,75.6324 -20.068,107.1984 -6.492,9.927 -14.681,19.91997 -25.147,25.81597 -2.784,0.718 -5.592,1.298 -8.467,1.614 -8.323,0.913 -16.668,0.74 -24.825,-1.344 -5.746,-1.464 -9.053,-4.655 -13.923,-7.309 -0.898,-0.487 -1.152,0.436 -0.811,1.117 1.427,2.841 2.826,4.448 4.416,6.695 -5.62,-1.62 -12.583,-6.638 -15.168,-11.11897 -1.095,-1.906 -2.104,-3.441 -3.842,-4.779 -0.42,-0.318 -1.245,-0.576 -1.265,0.209 -0.089,2.644 1.214,4.763 1.733,7.32697 0.663,3.226 1.14,2.835 -1.857,0.848 -6.561,-4.34297 -9.943,-10.49397 -12.364,-17.28697 10.681,3.768 21.784,6.628 32.893,7.474 1.806,0.14 3.645,0.188 5.492,0.188 -17.392,-3.552 -33.014,-7.141 -49.99,-14.581 -9.981,-4.139 -19.47,-9.55 -26.566,-17.875 -7.598,-8.919 -14.682,-21.859 -14.059,-34.06 5.886,5.669 12.97,8.807 20.701,8.56 -4.362,-0.799 -8.654,-2.35 -12.247,-4.039 -3.578,-1.681 -6.189,-3.901 -8.288,-6.528 -0.61,-0.771 -1.178,-1.563 -1.699,-2.389 -0.03,0.077 -0.059,0.154 -0.087,0.229 -2.257,-3.073 -3.788,-6.613 -4.85,-10.474 -0.408,-1.4784 -1.369,-4.0774 -1.585,-6.2144 1.626,2.508 3.831,5.024 6.423,5.555 -0.225,-0.778 -0.408,-1.559 -0.532,-2.354 -2.431,-3.047 -5.591,-7.114 -5.752,-11.017 1.446,2.131 3.019,4.093 5.426,5.342 0.142,0.071 0.331,0.106 0.489,0.069 -0.234,-0.894 -0.467,-1.79 -0.708,-2.682 -3.378,-4.237 -3.627,-11.097 -2.214,-16.157 1.648,-5.917 4.238,-12.482 8.311,-17.315 0.817,0.659 1.636,1.312 2.461,1.94 -4.856,4.128 -5.344,19.809 -5.225,24.525 0.167,6.958 1.949,14.089 7.747,18.5724 2.543,1.965 5.509,4.339 8.927,4.321 5.927,-0.023 11.02,-3.427 16.896,-4.021 12.146,-1.2294 23.563,8.112 35.422,10.359 10.675,2.025 24.077,2.793 33.091,-4.463 8.526,-6.8614 11.48,-15.9164 11.92,-26.5384 0.464,-11.332 -3.149,-21.735 -8.317,-31.702 -0.446,-0.858 -6.314,-8.556 -2.473,-6.206 3.623,2.224 6.4,5.391 9.361,8.367 0.362,0.357 1.372,0.736 1.119,-0.182 -0.98,-3.504 -2.669,-6.675 -4.617,-9.732 -2.553,-4.005 -1.709,-2.754 0.033,-1.42 2.548,1.963 5.271,4.459 6.198,7.689 0.142,0.484 1.839,2.534 1.976,1.21 0.384,-3.753 0.848,-10.156 -0.951,-13.655 2.016,3.925 3.833,7.696 4.234,12.171 0.02,0.215 0.237,0.669 0.531,1.087 5.949,-5.464 11.498,-11.583 14.996,-18.593 1.405,-3.789 2.487,-7.653 3.029,-11.583 -0.037,-0.081 -0.085,-0.168 -0.175,-0.281 -2.025,-10.191 -7.424,-19.971 -15.204,-26.885 -21.216,-18.862 -54.453,-20.865 -81.552,-19.349 -17.277,0.965 -45.542,3.046 -58.559,17.508 1.939,-5.424 4.688,-10.549 8.325,-15.115 3.822,-4.812 7.875,-9.607 12.824,-13.317 2.711,-2.029 5.882,-4.795 9.321,-5.991 -1.639,2.526 -4.165,4.775 -5.552,7.327 -0.302,0.542 1.03,2.192 1.529,1.679 z"
                               style="fill:#4c4d4f;fill-opacity:1;fill-rule:nonzero;stroke:none"
                               id="path138920" />
                          </g>
                        </g>
                      </g>
                      <g
                         transform="translate(294.33768,-0.90272)"
                         id="g138934">
                        <g
                           id="g138932">
                          <g
                             id="g138930">
                            <path
                               d="m 120.444,-23.434 c 1.438,7.911 2.93,15.798 5.269,23.434 -5.425,-10.537 -10.094,-21.51 -16.094,-31.803 -8.58,-14.72 -20.082,-27.199 -35.313,-35.143 -23.653,-12.33 -55.258,-16.054 -73.39,5.778 0,-0.053 0.007,-0.105 0.009,-0.162 0.026,-0.335 -0.434,-1.042 -0.925,-1.515 0.176,-0.545 0.373,-1.086 0.543,-1.634 3.169,-10.496 5.72,-21.345 7.545,-32.154 3.726,-22.102 5.78,-45.167 4.791,-67.589 -0.025,-0.604 -0.059,-1.204 -0.1,-1.809 -0.056,-0.618 -0.06,-1.236 -0.103,-1.857 1.366,-0.061 2.723,-0.511 4.102,-0.622 1.251,-0.102 2.51,-0.185 3.769,-0.237 4.939,0.14 9.872,0.511 14.807,1.245 16.643,2.485 32.182,7.422 47.301,14.821 14.333,7.017 27.023,15.824 39.433,25.793 2.297,1.845 4.582,3.737 6.823,5.676 -1.15,4.022 -2.226,8.071 -3.147,12.171 -6.139,27.426 -10.397,57.674 -5.32,85.607 z"
                               style="fill:#393b3c;fill-opacity:1;fill-rule:nonzero;stroke:none"
                               id="path138928" />
                          </g>
                        </g>
                      </g>
                      <g
                         transform="translate(250.23898,33.58478)"
                         id="g138942">
                        <g
                           id="g138940">
                          <g
                             id="g138938">
                            <path
                               d="m 41.264,-99.238 c -2.664,9.88 -7.429,19.316 -10.752,29.02 -0.142,0.415 0.793,1.46 1.016,0.981 3.193,-6.92 6.863,-13.801 9.85,-20.881 0.018,0.186 0.073,0.354 0.172,0.505 -0.395,4.847 -0.241,9.91 -0.842,14.484 -0.703,5.3 -2.208,9.986 -4.454,14.815 -1.241,2.66 -4.6,11.354 -7.561,11.565 -0.624,0.047 0.343,1.51 0.809,1.539 5.049,0.332 11.089,-13.207 12.577,-18.063 0.089,8.371 -6.226,21.834 -11.614,25.871 -0.431,0.324 0.558,1.595 0.998,1.417 0.033,-0.018 0.065,-0.037 0.097,-0.051 3.962,-1.666 6.136,-4.669 8.893,-7.386 -1.221,5.03 -4.248,10.209 -6.454,14.278 -3.237,5.981 -7.564,10.652 -12.179,15.535 -0.286,0.306 0.471,1.259 0.803,0.997 0.414,-0.324 0.797,-0.647 1.19,-0.969 -4.065,3.889 -8.566,7.218 -13.176,10.442 C 7.153,-3.292 3.593,-1.601 0,0 c 7.851,-10.599 13.262,-22.288 16.802,-35.252 0.43,-1.571 -1.677,-2.35 -2.54,-1.066 -3.313,4.951 -7.802,8.32 -12.818,10.952 8.043,-13.734 12.349,-29.707 15.324,-45.276 5.45,-28.503 9.071,-57.091 11.356,-86.017 2.412,-30.449 3.787,-60.48 3.112,-91.027 -0.655,-29.711 -1.322,-59.676 5.002,-88.892 0.298,-1.377 -1.271,-2.291 -2.324,-1.348 -6.995,6.263 -13.239,13.126 -18.294,20.774 1.774,-5.124 4.023,-10.101 6.326,-15.083 2.654,-5.738 5.136,-11.247 8.816,-16.135 0.229,-0.051 0.456,-0.115 0.683,-0.14 0.073,3.228 -1.612,7.638 -2.356,10.247 2.429,-1.855 5.026,-3.424 7.854,-4.625 3.615,-1.999 10.866,-5.028 9.599,1.237 -1.485,7.382 -3.184,14.874 -3.36,22.435 -0.075,3.442 -0.105,6.869 -0.099,10.289 0.675,14.471 2.051,28.89 4.093,43.265 0.039,0.294 -0.024,0.548 -0.121,0.779 2.621,16.534 4.732,33.133 5.922,49.822 0.004,0.04 0.026,0.065 0.026,0.109 0.112,1.732 0.223,3.461 0.333,5.185 0.063,1.123 0.17,2.246 0.227,3.367 0.012,1.059 0.028,2.123 0.049,3.181 0.032,-0.002 0.073,-0.002 0.103,-0.004 0.028,0.734 0.075,1.474 0.101,2.212 0.807,23.029 -0.847,46.905 -5.068,69.568 -2.018,10.837 -4.619,21.563 -7.484,32.205 z"
                               style="fill:#393b3c;fill-opacity:1;fill-rule:nonzero;stroke:none"
                               id="path138936" />
                          </g>
                        </g>
                      </g>
                      <g
                         transform="translate(431.93958,82.75137)"
                         id="g138950">
                        <g
                           id="g138948">
                          <g
                             id="g138946">
                            <path
                               d="m 122.238,-284.21 c -0.667,5.584 -1.444,11.441 -3.295,16.761 -0.845,2.413 -1.64,5.426 -2.909,7.989 0.46,-0.059 0.922,-0.098 1.385,-0.1 0.399,-0.178 0.778,-0.158 1.103,-0.006 1.295,-0.75 2.4,-1.729 3.442,-2.798 -1.354,5.245 -3.495,10.209 -6.143,15.049 -3.692,6.761 -9.714,11.262 -13.601,17.722 -1.232,2.054 -2.37,4.237 -3.379,6.502 -0.037,-0.16 -0.078,-0.316 -0.12,-0.476 -1.529,4.643 -1.519,9.034 -1.14,13.493 0.221,-0.86 0.428,-1.734 0.702,-2.589 3.672,17.803 6.115,35.826 6.283,54.365 0.096,10.19 0.282,20.257 -1.814,30.299 -1.746,8.364 -4.136,16.539 -6.448,24.758 -4.756,16.8754 -9.697,34.0744 -18.687,49.3014 C 62.396,-28.1736 32.28,1.04241 0,-0.02859 c 2.812,-0.904 5.569,-1.985 8.243,-3.331 41.885,-21.10601 52.195,-78.60801 54.021,-120.82741 0.485,-11.133 0.44,-22.319 -0.464,-33.434 -1.632,-19.952 -7.7,-41.134 -5.174,-61.169 2.425,-19.205 16.242,-35.792 23.551,-53.405 7.636,-18.404 12.658,-37.633 11.859,-57.679 -0.053,-1.435 -1.806,-1.824 -2.585,-0.701 -2.463,3.548 -5.213,6.871 -7.954,10.198 3.571,-13.093 2.188,-27.819 -5.298,-38.711 2.184,1.73 4.331,3.514 6.432,5.345 -1.578,-4.731 -4.659,-13.449 1.518,-12.459 3.485,0.559 6.539,3.294 9.163,5.472 1.437,1.194 2.81,2.473 4.16,3.771 2.238,-3.939 6.772,-8.368 10.831,-5.128 2.767,2.206 3.224,6.74 3.128,10.985 2.291,-1.516 4.538,-2.972 7.454,-3.047 0.737,-0.02 1.407,0.645 1.386,1.391 -0.056,1.849 -0.332,3.69 -0.612,5.535 0.02,0.89 0.055,1.776 0.061,2.664 0.044,8.735 2.042,17.504 2.682,26.21 0.085,1.188 0.166,2.386 0.238,3.582 1.181,10.144 0.819,20.284 -0.402,30.557 z"
                               style="fill:#393b3c;fill-opacity:1;fill-rule:nonzero;stroke:none"
                               id="path138944" />
                          </g>
                        </g>
                      </g>
                      <g
                         transform="translate(102.63438,175.43308)"
                         id="g138958">
                        <g
                           id="g138956">
                          <g
                             id="g138954">
                            <path
                               d="m 85.034,-214.411 c 0.3,9.931 2.54,19.276 4.651,28.782 0.373,2.087 0.773,4.155 1.223,6.186 2.556,11.525 5.529,23.513 12.85,33.091 6.873,8.998 15.604,17.638 25.528,23.227 5.288,2.977 10.809,6.14 16.687,7.776 2.216,0.616 4.381,1.024 6.587,1.328 6.904,1.782 14.205,2.674 21.25,3.12 13.295,0.838 26.615,0.507 39.914,1.123 0.62,0.029 1.247,0.065 1.873,0.096 -3.483,0.906 -6.954,1.865 -10.415,2.857 -24.259,6.98 -46.205,21.888 -66.127,36.841 -11.78,8.838 -21.648,20.176 -31.244,31.244 C 99.095,-28.683 90.178,-17.1 78.402,-10.393 71.705,-6.581 64.727,-2.831 57.438,0 69.169,-9.775 78.025,-22.666 84.45,-36.475 c 15.77,-33.89 18.098,-72.094 9.42,-108.299 -7.688,-32.057 -22.69,-67.51 -51.162,-86.471 -12.117,-8.064 -27.147,-14.529 -42.708,-17.78 1.821,0.01 3.652,0.039 5.503,0.094 7.891,0.245 15.367,1.346 22.649,3.331 9.061,0.714 18.404,5.9 25.823,10.456 3.823,2.348 7.357,5.095 10.654,8.112 -4.691,-5.156 -9.892,-9.781 -16.193,-12.986 -2.32,-1.182 -4.644,-2.275 -6.989,-3.32 0.78,-0.727 1.573,-1.425 2.335,-2.183 5.544,-5.507 10.902,-11.19 16.237,-16.907 11.331,-12.143 21.996,-24.925 33.512,-36.899 0.106,-0.112 0.229,-0.221 0.339,-0.335 -3.479,15.531 -6.519,31.151 -8.36,46.988 -1.488,12.818 -0.855,25.402 -0.476,38.263 z"
                               style="fill:#393b3c;fill-opacity:1;fill-rule:nonzero;stroke:none"
                               id="path138952" />
                          </g>
                        </g>
                      </g>
                      <g
                         transform="translate(14.66348,178.90718)"
                         id="g138966">
                        <g
                           id="g138964">
                          <g
                             id="g138962">
                            <path
                               d="m 6.4221,-98.8198 c -0.225,-0.777 -0.408,-1.5592 -0.533,-2.3542 -2.431,-3.045 -5.592,-7.114 -5.752,-11.015 1.447,2.131 3.019,4.091 5.427,5.34 0.142,0.073 0.331,0.106 0.489,0.071 -0.235,-0.896 -0.468,-1.792 -0.708,-2.684 -3.379,-4.236 -3.627,-11.097 -2.214,-16.156 1.64691,-5.917 4.23771,-12.482 8.3103,-17.315 h 0.0017 c 0.0305,0.024 0.0543,0.041 0.078,0.065 -4.89,8.068 -5.892,19.329 -5.056,28.231 0.857,9.084 4.939,17.2522 11.321,23.3742 -2.555,-0.972 -5.058,-2.113 -7.439,-3.63 -1.251,-0.796 -2.485,0.726 -1.897,1.9 6.352,12.818 24.589,19.88 37.96,22.211 -4.456,0.521 -8.947,0.763 -13.365,0.28 -5.172,-0.565 -9.926,-2.634 -15.07,-3.286 -0.754,-0.1 -1.379,0.703 -1.381,1.39 -0.215,21.318 20.668,32.603 37.961,39.594 13.073,5.287 26.617,9.409 40.641,11.204 6.1069,0.784 12.0979,1.036 18.0619,0.942 v 6e-4 c -8.511,4.3915 -17.8513,5.9973 -28.0269,4.3124 -0.847,-0.14 -1.798,0.361 -1.76,1.34 0.2349,5.66144 4.8055,11.122 9.1934,15.0048 h -0.0067 c -5.547,-1.73081 -12.2513,-6.5995 -14.7787,-10.9818 -1.096,-1.908 -2.104,-3.443 -3.842,-4.779 -0.421,-0.319 -1.245,-0.576 -1.265,0.207 -0.089,2.646 1.213,4.766 1.732,7.327 0.663,3.228 1.141,2.835 -1.856,0.85 -6.561,-4.343 -9.944,-10.495 -12.365,-17.287 10.681,3.767 21.785,6.626 32.894,7.475 1.806,0.138 3.645,0.185 5.492,0.185 -17.393,-3.552 -33.015,-7.139 -49.99,-14.578 -9.981,-4.142 -19.47,-9.551 -26.566,-17.876 -7.599,-8.919 -14.683,-21.859 -14.059,-34.062 5.886,5.67 12.97,8.807 20.701,8.562 -4.363,-0.801 -8.655,-2.352 -12.248,-4.041 -3.577,-1.681 -6.188,-3.901 -8.287,-6.525 -0.61,-0.774 -1.18,-1.565 -1.699,-2.392 -0.03,0.077 -0.06,0.154 -0.087,0.231 -2.258,-3.074 -3.789,-6.612 -4.85,-10.476 C 1.17567,-99.6367 0.21677,-102.229 0,-104.364 v -0.007 c 1.62591,2.505 3.82958,5.0203 6.4221,5.5512 z"
                               style="mix-blend-mode:screen;fill:#4c4d4f;fill-opacity:1;fill-rule:nonzero;stroke:none"
                               id="path138960" />
                          </g>
                        </g>
                      </g>
                      <g
                         transform="translate(416.1336,31.26418)"
                         id="g138974">
                        <g
                           id="g138972">
                          <g
                             id="g138970">
                            <path
                               d="m 48.422,-287.387 c -1.022,-4.578 -2.323,-9.596 -4.341,-13.972 -0.1195,-0.257 -0.0487,-0.369 0.1524,-0.374 h 0.0308 c 0.8858,0.022 3.9567,1.831 4.9628,2.603 0.963,0.529 1.861,1.238 2.721,1.987 0.377,0.265 0.752,0.529 1.127,0.79 8.503,22.06 2.49,48.594 -3.852,71.034 -8.011,28.343 -19.079,55.69 -27.718,83.837 C 13.667,-115.913 6.60698,-88.284 9.99898,-61.338 13.127,-36.518 25.237,-15.803 44.203,0 32.038,-0.647 20.54,-7.084 11.974,-16.336 c -0.755,-1.898 -1.458,-3.824 -2.05802,-5.788 -5.209,-12.354 -7.938,-26.117 -9.126,-39.231 -0.698,-7.751 -0.919,-15.53 -0.72,-23.306 0.345,-13.839 1.932,-27.631 4.534,-41.221 2.554,-13.307 5.88302,-26.536 10.33802,-39.34 8.114,-23.35 19.419,-45.438 27.671,-68.742 2.423,-6.849 3.883,-14.229 5.549,-21.141 2.833,-17.475 1.823,-21.696 0.26,-32.282 z"
                               style="mix-blend-mode:screen;fill:#4c4d4f;fill-opacity:1;fill-rule:nonzero;stroke:none"
                               id="path138968" />
                          </g>
                        </g>
                      </g>
                      <g
                         transform="translate(190.05748,56.01576)"
                         id="g138982">
                        <g
                           id="g138980">
                          <g
                             id="g138978">
                            <path
                               d="m 38.0324,-358.585 c 3.617,36.71 0.975,73.854 -4.039,110.384 -5.517,40.112 -15.074,79.912 -18.758,120.241 -1.774,19.419 -2.109,39.3273 1.831,58.5263 3.063,14.938 8.016,32.128 17.517,44.435 7.652,9.906 17.737,15.32802 30.176,16.68602 4.4339,0.48298 11.6657,1.28296 17.3996,-0.1659 v 2.9e-4 c -6.997,6.85071 -17.9108,9.58158 -28.5656,8.07661 -4.898,-1.985 -9.693,-4.472 -14.006,-7.333 -11.463,-7.59102 -22.442,-18.47902 -27.505,-31.45102 -3.923,-10.085 -6.551,-21.009 -7.776,-32.132 C 1.68202,-81.4178 0.01911,-91.638 0,-102.095 v -0.364 c 0.00328,-1.791 0.05494,-3.588 0.1584,-5.394 0.014,-9.443 0.479,-18.781 1.829,-28.254 2.046,-14.403 4.694,-28.806 7.759,-43.113 0.706,-5.778 2.155,-11.392 3.857,-16.964 1.987,-8.29 4.089,-16.55 6.352,-24.719 6.644,-24.002 10.375,-48.774 10.375,-73.698 0,-11.721 -0.222,-23.479 -0.009,-35.185 -0.565,-9.035 -0.308,-18.11 -1.141,-27.138 -0.047,-0.52 0.166,-0.87 0.484,-1.085 0.08,-2.952 0.394,-5.872 1.061,-8.627 0.841,-3.498 0.823,-4.522 2.469,-0.637 1.03,2.427 1.953,4.894 2.894,7.358 0.137,0.345 1.49,2.025 1.944,1.33 z"
                               style="mix-blend-mode:screen;fill:#4c4d4f;fill-opacity:1;fill-rule:nonzero;stroke:none"
                               id="path138976" />
                          </g>
                        </g>
                      </g>
                      <g
                         transform="translate(84.53994,59.58926)"
                         id="g138990">
                        <g
                           id="g138988">
                          <g
                             id="g138986">
                            <path
                               d="m 9.36154,-7.61748 c -0.227,-4.05702 -2.508,-7.22202 -5.095,-7.08002 -2.579,0.148 -4.487,3.562 -4.246,7.62102 0.227,4.055 2.512,7.212 5.091,7.072 2.583,-0.144 4.481,-3.556 4.25,-7.613 z"
                               style="fill:#393b3c;fill-opacity:1;fill-rule:nonzero;stroke:none"
                               id="path138984" />
                          </g>
                        </g>
                      </g>
                      <g
                         transform="translate(86.5345,57.41876)"
                         id="g138998">
                        <g
                           id="g138996">
                          <g
                             id="g138994">
                            <path
                               d="m 2.85008,-2.32238 c -0.079,-1.233 -0.77,-2.182 -1.553,-2.147 -0.777,0.048 -1.369,1.083 -1.29,2.311 0.069,1.233 0.763,2.2 1.545,2.157 0.793,-0.048 1.365,-1.08 1.298,-2.321 z"
                               style="fill:#ffffff;fill-opacity:1;fill-rule:nonzero;stroke:none"
                               id="path138992" />
                          </g>
                        </g>
                      </g>
                      <g
                         transform="translate(41.14691,57.85231)"
                         id="g139006">
                        <g
                           id="g139004">
                          <g
                             id="g139002">
                            <path
                               d="m 9.35897,-7.61573 c -0.227,-4.05897 -2.508,-7.22397 -5.093,-7.07797 -2.583,0.146 -4.483,3.558 -4.246,7.61697 0.225,4.055 2.51,7.216 5.093,7.072 2.583,-0.142 4.479,-3.554 4.246,-7.611 z"
                               style="fill:#393b3c;fill-opacity:1;fill-rule:nonzero;stroke:none"
                               id="path139000" />
                          </g>
                        </g>
                      </g>
                      <g
                         transform="translate(43.13875,55.68076)"
                         id="g139014">
                        <g
                           id="g139012">
                          <g
                             id="g139010">
                            <path
                               d="m 2.85513,-2.31958 c -0.083,-1.233 -0.77,-2.184 -1.557,-2.147 -0.777,0.049 -1.365,1.081 -1.292,2.309 0.073,1.237 0.767,2.202 1.549,2.156 0.789,-0.047 1.363,-1.077 1.3,-2.318 z"
                               style="fill:#ffffff;fill-opacity:1;fill-rule:nonzero;stroke:none"
                               id="path139008" />
                          </g>
                        </g>
                      </g>
                      <g
                         transform="translate(40.58473,25.67282)"
                         id="g139022">
                        <g
                           id="g139020">
                          <g
                             id="g139018">
                            <path
                               d="m 9.32855,-9.63155 c -0.014,0.089 -0.071,0.174 -0.097,0.262 -0.236,2.349 -1.405,5.03 -2.831,6.836 -1.285,1.628 -3.444,3.631 -5.326,1.813 -1.898,-1.833 -0.951,-4.187 0.306,-6.095 0.712,-1.083 1.622,-2.025 2.537,-2.938 0.991,-1.00895 2.224,-1.41095 3.371,-2.11795 0.951,-0.576 2.224,1.453 2.04,2.23995 z"
                               style="fill:#393b3c;fill-opacity:1;fill-rule:nonzero;stroke:none"
                               id="path139016" />
                          </g>
                        </g>
                      </g>
                      <g
                         transform="translate(60.18977,27.35073)"
                         id="g139030">
                        <g
                           id="g139028">
                          <g
                             id="g139026">
                            <path
                               d="m 12.3194,-0.42496 c -1.585,1.776 -6.18599,-2.538 -7.07999,-3.345 -1.425,-1.276 -2.743,-2.733 -3.712,-4.376 -0.54801,-0.928 -1.604,-2.43904 -1.523,-3.56804 0.014,-0.174 0.116,-0.27 0.261,-0.298 -0.022,-0.256 -0.00601,-0.509 0.075,-0.752 0.065,-0.165 0.183,-0.264 0.363,-0.292 1.472,-0.146 3.228,0.946 4.449,1.67 1.601,0.945 2.996,2.19404 4.28,3.52004 1.52899,1.577 4.96899,5.099 2.88699,7.441 z"
                               style="fill:#393b3c;fill-opacity:1;fill-rule:nonzero;stroke:none"
                               id="path139024" />
                          </g>
                        </g>
                      </g>
                      <g
                         transform="translate(32.56917,35.35198)"
                         id="g139038">
                        <g
                           id="g139036">
                          <g
                             id="g139034">
                            <path
                               d="m 19.3568,-7.8086 c -3.171,3.581 -11.43299,11.064 -16.51599,6.231 -5.004,-4.761 -2.506,-13.757 0.687,-18.822 0.345,-0.545 1.369,0.677 1.186,1.142 -1.678,4.266 -7.402,17.205 1.736,17.436 4.48499,0.114 8.91099,-4.333 12.28299,-6.766 0.271,-0.198 0.843,0.532 0.624,0.779 z"
                               style="fill:#393b3c;fill-opacity:1;fill-rule:nonzero;stroke:none"
                               id="path139032" />
                          </g>
                        </g>
                      </g>
                      <g
                         transform="translate(61.90178,37.25322)"
                         id="g139046">
                        <g
                           id="g139044">
                          <g
                             id="g139042">
                            <path
                               d="m 21.382,-1.09625 c -3.739,2.123 -8.514,0.77 -12.131,-0.756 -0.697,-0.29 -2.349,-1.004 -4.14,-1.914 -1.016,-0.74 -1.999,-1.509 -2.893,-2.387 -0.209,-0.21 -1.373,-1.315 -2.218,-2.262 4.231,3.371 10.995,6.092 15.825,5.691 11.676,-0.975 4.024,-13.66295 -0.329,-18.45195 -0.442,-0.493 -0.213,-1.059 0.389,-0.552 4.54,3.84 13.735,15.95495 5.497,20.63195 z"
                               style="fill:#393b3c;fill-opacity:1;fill-rule:nonzero;stroke:none"
                               id="path139040" />
                          </g>
                        </g>
                      </g>
                      <g
                         transform="translate(19.25747,-2.72071)"
                         id="g139054">
                        <g
                           id="g139052">
                          <g
                             id="g139050">
                            <path
                               d="M 99.9694,-0.63211 C 88.4714,-13.7701 67.5434,-19.7391 51.0744,-22.9331 c -8.97,-1.737 -18.003,-1.909 -27.021,-0.587 -6.397,0.94 -25.29499,5.932 -22.02699,15.74899 0.199,0.592 -0.64,-0.067 -0.748,-0.276 -9.034,-17.73599 32.47499,-19.35599 41.04699,-18.58799 12.009,1.079 23.758,4.887 34.875,9.39 7.885,3.193 18.712,8.69399 23.7416,15.83199 0.925,1.304 0.087,1.998 -0.9726,0.781 z"
                               style="fill:#393b3c;fill-opacity:1;fill-rule:nonzero;stroke:none"
                               id="path139048" />
                          </g>
                        </g>
                      </g>
                    </g>
                  </g>
                </g>
              </g>
            </g>
          </g>
        </g>
      </g>
    </g>
  </g>
</svg>
