<?xml version="1.0" encoding="UTF-8" standalone="no"?>
<!-- Created with Inkscape (http://www.inkscape.org/) -->

<svg
   version="1.1"
   id="svg139282"
   width="400"
   height="200"
   viewBox="0 0 400 200"
   sodipodi:docname="1516_word.pdf"
   xmlns:inkscape="http://www.inkscape.org/namespaces/inkscape"
   xmlns:sodipodi="http://sodipodi.sourceforge.net/DTD/sodipodi-0.dtd"
   xmlns="http://www.w3.org/2000/svg"
   xmlns:svg="http://www.w3.org/2000/svg">
  <defs
     id="defs139286">
    <clipPath
       clipPathUnits="userSpaceOnUse"
       id="clipPath139304">
      <path
         d="M 0,-283.82397 H 508.04738 V 283.82397 H 0 Z"
         id="path139302" />
    </clipPath>
  </defs>
  <sodipodi:namedview
     id="namedview139284"
     pagecolor="#ffffff"
     bordercolor="#000000"
     borderopacity="0.25"
     inkscape:showpageshadow="2"
     inkscape:pageopacity="0.0"
     inkscape:pagecheckerboard="0"
     inkscape:deskcolor="#d1d1d1" />
  <g
     id="g139288"
     inkscape:groupmode="layer"
     inkscape:label="1516_word36"
     transform="matrix(1.3333333,0,0,-1.3333333,0,200)">
    <g
       id="g139290">
      <g
         id="g139292">
        <g
           id="g139294"
           transform="translate(65.325,142.30424)">
          <g
             id="g139296"
             transform="matrix(0.33334,0,0,0.33334,0,-31.53632)">
            <g
               id="g139298">
              <g
                 id="g139300" />
              <g
                 id="g139356">
                <g
                   clip-path="url(#clipPath139304)"
                   id="g139354">
                  <g
                     transform="translate(77.49006,94.60848)"
                     id="g139312">
                    <g
                       id="g139310">
                      <g
                         id="g139308">
                        <path
                           d="m 9.27801,-32.4809 c -3.53597,0 -5.9663,1.3247 -7.29098,3.9741 C 0.66234,-25.8574 0,-23.2081 0,-20.5587 c 0,2.5138 0.51631,5.1684 1.54894,7.9638 l 6.39917,2.206 c -0.73014,-3.0874 -1.09521,-5.815 -1.09521,-8.1828 0,-3.5359 1.17865,-5.3039 3.536,-5.3039 3.828,0 5.742,3.7602 5.742,11.2807 l -0.219,4.86583 6.1801,2.42512 c 0.4485,-5.45525 1.1839,-9.14245 2.2061,-11.06165 1.0326,-1.9088 2.5085,-2.8632 4.4277,-2.8632 1.0327,0 1.9871,0.4798 2.8632,1.4394 0.8866,0.9596 1.3299,2.3208 1.3299,4.0836 v 0.219 c 0,3.0979 -0.8813,6.71213 -2.6441,10.84265 L 36.674,0 c 1.7732,-4.86065 2.6598,-9.35624 2.6598,-13.4868 0,-3.828 -1.0327,-7.1449 -3.0979,-9.9507 -2.0653,-2.7954 -4.6416,-4.1931 -7.7291,-4.1931 -3.536,0 -6.1906,1.6219 -7.9638,4.8658 -1.3246,-3.2439 -3.0196,-5.6742 -5.0849,-7.2909 -2.0548,-1.6168 -4.1148,-2.4252 -6.18009,-2.4252 z"
                           style="fill:#000000;fill-opacity:1;fill-rule:nonzero;stroke:none"
                           id="path139306" />
                      </g>
                    </g>
                  </g>
                  <g
                     transform="translate(0,32.23635)"
                     id="g139320">
                    <g
                       id="g139318">
                      <g
                         id="g139316">
                        <path
                           d="m 19.0097,-165.533 h -4.6468 l -5.96106,15.035 c 22.83256,1.617 42.64546,7.583 59.43876,17.899 -0.5842,3.244 -2.5347,7.698 -5.8516,13.362 -3.3169,5.674 -8.6574,13.888 -16.0214,24.642 C 29.7585,-71.0115 14.4359,-51.1933 0,-35.1407 l 14.801,13.0487 c 11.0564,-13.7058 23.5836,-30.6503 37.5814,-50.8335 18.118,-26.671 27.4742,-43.8395 28.0687,-51.5065 3.682,2.514 7.0668,6.937 10.1542,13.268 3.0979,6.331 4.6468,14.3629 4.6468,24.0947 L 92.3733,-1.31425 108.958,0 l 3.317,-91.2781 c 0.438,-19.1509 2.461,-32.1519 6.07,-39.0049 3.609,-6.853 10.129,-10.28 19.558,-10.28 3.39,0 6.227,-0.771 8.511,-2.315 2.284,-1.544 3.427,-4.011 3.427,-7.401 0,-6.78 -3.98,-10.17 -11.938,-10.17 -10.316,0 -18.9,2.723 -25.753,8.168 -6.843,5.455 -11.516,15.108 -14.019,28.96 -6.6339,-14.144 -17.5756,-24.715 -32.8251,-31.714 -15.2495,-6.999 -30.6816,-10.498 -46.2962,-10.498 z"
                           style="fill:#000000;fill-opacity:1;fill-rule:nonzero;stroke:none"
                           id="path139314" />
                      </g>
                    </g>
                  </g>
                  <g
                     transform="translate(126.65886,-63.01579)"
                     id="g139328">
                    <g
                       id="g139326">
                      <g
                         id="g139324">
                        <path
                           d="m 53.9157,-120.442 c -6.6234,0 -10.2324,3.901 -10.8269,11.703 0,7.072 3.6089,10.9783 10.8269,11.7189 3.39,0 6.1176,-1.0692 8.1828,-3.2079 2.0653,-2.138 3.0979,-4.975 3.0979,-8.511 0,-7.072 -3.7602,-10.973 -11.2807,-11.703 z m -29.602,0 c -3.2439,0 -5.935,1.033 -8.0733,3.098 -2.1382,2.055 -3.2074,4.923 -3.2074,8.605 0,7.072 3.7602,10.9783 11.2807,11.7189 3.2335,0 5.9194,-1.0692 8.0576,-3.2079 2.1383,-2.138 3.2074,-4.975 3.2074,-8.511 0,-7.072 -3.755,-10.973 -11.265,-11.703 z m -9.9508,55.2456 H 11.046 c -7.364,0 -11.046,3.463 -11.046,10.3889 0,2.0652 0.77186,4.1983 2.31559,6.3991 1.54373,2.2113 4.45386,3.317 8.73041,3.317 h 4.4278 c 15.9066,0 26.2903,1.6949 31.1509,5.0849 l 0.4381,1.768 c 0.5946,1.9192 0.8918,4.2035 0.8918,6.8529 0,2.6493 -0.5163,5.2987 -1.5489,7.9481 -1.0326,2.6598 -2.9466,6.201 -5.742,10.6235 L 36.9086,-6.41481 53.0395,0 c 6.4774,-12.0786 9.7161,-24.2355 9.7161,-36.4706 0,-6.0393 -1.1786,-12.0056 -3.5359,-17.8988 -2.6494,-2.7954 -7.0668,-5.2988 -13.2521,-7.5101 -6.1853,-2.2113 -16.7202,-3.3169 -31.6047,-3.3169 z"
                           style="fill:#000000;fill-opacity:1;fill-rule:nonzero;stroke:none"
                           id="path139322" />
                      </g>
                    </g>
                  </g>
                  <g
                     transform="translate(203.1036,-43.56796)"
                     id="g139336">
                    <g
                       id="g139334">
                      <g
                         id="g139332">
                        <path
                           d="m 32.9346,-133.71 c -1.7732,0 -5.4239,0.334 -10.9521,1.002 -5.5178,0.657 -12.8453,3.27 -21.9825,7.838 l 2.42511,13.487 c 2.35732,-1.179 5.9663,-2.576 10.82699,-4.193 4.871,-1.627 9.5127,-2.811 13.9248,-3.552 0.1565,-0.146 1.1891,-0.219 3.0979,-0.219 10.9104,0 21.2992,5.82 31.1666,17.461 7.0719,8.5427 10.6079,18.8585 10.6079,30.9476 0,10.4618 -1.987,21.7321 -5.9611,33.8107 -0.7406,2.5034 -4.4278,12.0786 -11.0616,28.72586 L 70.7194,0 c 0.8866,-2.35731 2.4355,-6.99893 4.6468,-13.9248 2.2113,-6.9259 4.5686,-14.2169 7.072,-21.873 3.2439,-10.3158 4.8658,-20.9237 4.8658,-31.8237 0,-1.7732 -0.1877,-6.3053 -0.5632,-13.5963 -0.3651,-7.291 -3.4213,-15.359 -9.1685,-24.2042 -12.2247,-17.826 -26.5146,-27.182 -42.8697,-28.069 z"
                           style="fill:#000000;fill-opacity:1;fill-rule:nonzero;stroke:none"
                           id="path139330" />
                      </g>
                    </g>
                  </g>
                  <g
                     transform="translate(291.02521,-51.29703)"
                     id="g139344">
                    <g
                       id="g139342">
                      <g
                         id="g139340">
                        <path
                           d="m 33.3727,-137.918 c -14.1439,0 -25.26813,3.609 -33.3727,10.826 l 3.31693,13.925 c 3.682,-2.055 7.65607,-3.635 11.92217,-4.74 4.2765,-1.106 9.7317,-1.659 16.3656,-1.659 12.5167,0 23.0464,4.089 31.589,12.267 8.5531,8.1771 14.3786,18.3052 17.4765,30.3838 h -4.4278 c -13.2573,0 -23.5366,1.8775 -30.838,5.6326 -7.291,3.755 -12.4124,8.6521 -15.3643,14.6914 -2.9414,6.0498 -4.4121,12.4646 -4.4121,19.2445 0,10.0133 3.3899,18.7385 10.1698,26.1755 C 42.5777,-3.72372 50.7552,0 60.3305,0 c 4.8607,0 10.1281,-1.62196 15.8024,-4.86587 5.6742,-3.24391 10.5714,-8.99113 14.6915,-17.24173 4.1305,-8.2506 6.4148,-19.8912 6.8529,-34.9216 h 16.8037 c 3.244,0 6.008,-0.7719 8.292,-2.3156 2.285,-1.5438 3.427,-4.0106 3.427,-7.4005 0,-6.7799 -3.907,-10.1699 -11.719,-10.1699 H 96.1283 C 92.5923,-94.595 85.1136,-109.182 73.6921,-120.677 62.281,-132.171 48.8412,-137.918 33.3727,-137.918 Z m 49.5035,80.8888 c -0.5945,13.1216 -3.2491,23.1037 -7.9637,29.9462 -4.7146,6.8529 -10.5349,10.2793 -17.4608,10.2793 -5.2988,0 -9.5701,-1.914 -12.814,-5.742 -3.2439,-3.828 -4.8659,-8.0264 -4.8659,-12.595 0,-3.3899 0.9231,-6.7798 2.7694,-10.1698 1.8462,-3.3899 5.6012,-6.1905 11.265,-8.4018 5.6742,-2.2113 14.2586,-3.3169 25.7531,-3.3169 z"
                           style="fill:#000000;fill-opacity:1;fill-rule:nonzero;stroke:none"
                           id="path139338" />
                      </g>
                    </g>
                  </g>
                  <g
                     transform="translate(394.02018,18.76524)"
                     id="g139352">
                    <g
                       id="g139350">
                      <g
                         id="g139348">
                        <path
                           d="M 14.3629,-146.977 H 11.046 c -3.82803,0 -6.62343,1.069 -8.3862,3.207 -1.7732,2.138 -2.6598,4.532 -2.6598,7.181 0,2.066 0.77186,4.199 2.31559,6.4 1.54373,2.211 4.52688,3.317 8.94941,3.317 l 11.9378,0.234 c 9.2833,0.438 16.7203,0.876 22.3111,1.314 -2.9414,1.774 -5.9611,4.167 -9.059,7.182 -3.0874,3.025 -5.7368,6.634 -7.9481,10.827 -2.2113,4.203 -3.3169,8.9598 -3.3169,14.2689 0,12.3707 4.3808,22.4623 13.1425,30.2748 8.7721,7.8125 19.1245,11.7188 31.0571,11.7188 11.7866,0 21.0698,-2.5816 27.8497,-7.7447 l 1.987,-16.7881 c -3.536,2.2009 -7.9951,3.8906 -13.3772,5.0693 -5.3718,1.1891 -10.7123,1.7836 -16.0214,1.7836 -8.9808,0 -16.2717,-2.2843 -21.873,-6.8529 -5.6012,-4.5686 -8.4018,-10.0968 -8.4018,-16.5846 0,-9.7211 7.1449,-18.3421 21.4349,-25.8631 4.8606,-2.649 9.5752,-3.974 14.1438,-3.974 4.4226,0 10.3524,0.699 17.7894,2.097 7.4471,1.408 14.4831,3.51 21.1061,6.305 l -2.863,-19.229 c -9.137,-4.12 -23.1715,-7.51 -42.1031,-10.169 -18.9315,-2.65 -37.1642,-3.974 -54.698,-3.974 z m 45.0758,123.1014 c -3.2335,0 -5.9559,1.0691 -8.1671,3.2074 -2.2113,2.1383 -3.317,5.0484 -3.317,8.7304 0,7.07193 3.8281,11.0512 11.4841,11.9378 6.9259,0 10.7592,-3.97927 11.4997,-11.9378 0,-7.218 -3.8332,-11.1972 -11.4997,-11.9378 z"
                           style="fill:#f81436;fill-opacity:1;fill-rule:nonzero;stroke:none"
                           id="path139346" />
                      </g>
                    </g>
                  </g>
                </g>
              </g>
            </g>
          </g>
        </g>
      </g>
    </g>
  </g>
</svg>
