<?xml version="1.0" encoding="UTF-8" standalone="no"?>
<!-- Created with Inkscape (http://www.inkscape.org/) -->

<svg
   version="1.1"
   id="svg139396"
   width="400"
   height="400"
   viewBox="0 0 400 400"
   sodipodi:docname="1520_pic.pdf"
   xmlns:inkscape="http://www.inkscape.org/namespaces/inkscape"
   xmlns:sodipodi="http://sodipodi.sourceforge.net/DTD/sodipodi-0.dtd"
   xmlns="http://www.w3.org/2000/svg"
   xmlns:svg="http://www.w3.org/2000/svg">
  <defs
     id="defs139400">
    <clipPath
       clipPathUnits="userSpaceOnUse"
       id="clipPath139416">
      <path
         d="M 0,0 H 186.12395 V -185.17361 H 0 Z"
         clip-rule="evenodd"
         id="path139414" />
    </clipPath>
    <clipPath
       clipPathUnits="userSpaceOnUse"
       id="clipPath139426">
      <path
         d="M 0,-555.52 H 558.3705 V 555.52 H 0 Z"
         id="path139424" />
    </clipPath>
  </defs>
  <sodipodi:namedview
     id="namedview139398"
     pagecolor="#ffffff"
     bordercolor="#000000"
     borderopacity="0.25"
     inkscape:showpageshadow="2"
     inkscape:pageopacity="0.0"
     inkscape:pagecheckerboard="0"
     inkscape:deskcolor="#d1d1d1" />
  <g
     id="g139402"
     inkscape:groupmode="layer"
     inkscape:label="1520_pic37"
     transform="matrix(1.3333333,0,0,-1.3333333,0,400)">
    <g
       id="g139404">
      <g
         id="g139406">
        <g
           id="g139408"
           transform="translate(56.93811,242.58681)">
          <g
             id="g139410">
            <g
               id="g139412"
               clip-path="url(#clipPath139416)">
              <g
                 id="g139418"
                 transform="matrix(0.33333,0,0,0.33333,0,-61.72463)">
                <g
                   id="g139420">
                  <g
                     id="g139422" />
                  <g
                     id="g139494">
                    <g
                       clip-path="url(#clipPath139426)"
                       id="g139492">
                      <g
                         transform="translate(0,185.17361)"
                         id="g139434">
                        <g
                           id="g139432">
                          <g
                             id="g139430">
                            <path
                               d="m 487.338,-124.673 c -7.774,36.2531 -41.117,63.5081 -81.076,63.5081 -19.544,0 -37.471,-6.556 -51.635,-17.456 C 330.776,-32.0964 281.05,-0.06529 223.525,0 h -0.353 C 148.768,-0.08444 87.4183,-53.6356 78.2435,-122.877 33.7179,-132.529 0.1493,-170.897 0,-216.531 v -0.65 c 0.17287,-52.86 45.1504,-96.057 100.101,-96.057 H 458.27 c 55.058,0 100.101,43.364 100.101,96.363 v 0.038 c 0,43.273 -30.041,80.099 -71.033,92.164 z"
                               style="fill:#a9def0;fill-opacity:1;fill-rule:nonzero;stroke:none"
                               id="path139428" />
                          </g>
                        </g>
                      </g>
                      <g
                         transform="translate(115.68202,168.59419)"
                         id="g139442">
                        <g
                           id="g139440">
                          <g
                             id="g139438">
                            <path
                               d="m 13.2565,-64.0808 c 22.047,31.445 55.673,49.201 94.0175,50.176 8.928,0.228 8.962,14.13003 0,13.90203 C 63.7785,-1.10877 26.2085,-21.4698 1.25248,-57.0648 c -5.146,-7.341 6.9,-14.294 12.00402,-7.016 z"
                               style="fill:#c9eaf2;fill-opacity:1;fill-rule:nonzero;stroke:none"
                               id="path139436" />
                          </g>
                        </g>
                      </g>
                      <g
                         transform="translate(18.57647,39.1935)"
                         id="g139450">
                        <g
                           id="g139448">
                          <g
                             id="g139446">
                            <path
                               d="m 13.9047,-76.0591 c 0.661,26.113 13.412,48.857 35.417,62.93 7.513,4.80401 0.551,16.84201 -7.016,12.00401 C 16.0557,-17.9121 0.79273,-44.9101 0.00273,-76.0591 c -0.226,-8.95 13.67597,-8.944 13.90197,0 z"
                               style="fill:#c9eaf2;fill-opacity:1;fill-rule:nonzero;stroke:none"
                               id="path139444" />
                          </g>
                        </g>
                      </g>
                      <g
                         transform="translate(60.23764,-148.22749)"
                         id="g139458">
                        <g
                           id="g139456">
                          <g
                             id="g139454">
                            <path
                               d="m 98.9191,-62.745 -17.632,-4.724 c -7.571,4.374 -15.147,8.745 -22.72,13.119 7.573,4.373 15.149,8.745 22.72,13.116 5.879,-1.574 11.755,-3.147 17.632,-4.722 4.3249,-1.161 6.1699,5.543 1.8469,6.702 l -10.9639,2.939 c 2.576,1.488 5.153,2.974 7.728,4.462 3.8729,2.233 0.378,8.242 -3.508,6.001 -2.565,-1.482 -5.129,-2.964 -7.694,-4.443 l 2.923,10.915 c 1.159,4.325 -5.543,6.172 -6.701,1.846 -1.579,-5.891 -3.158,-11.784 -4.737,-17.678 -7.574,-4.371 -15.147,-8.747 -22.723,-13.118 v 26.239 c 4.308,4.306 8.616,8.614 12.925,12.923 3.166,3.168 -1.748,8.082 -4.916,4.914 -2.669,-2.671 -5.341,-5.339 -8.009,-8.009 v 8.906 c 0,4.473 -6.951,4.479 -6.951,0 v -8.906 c -2.668,2.67 -5.338,5.338 -8.008,8.009 -3.169,3.168 -8.085,-1.746 -4.914,-4.914 4.306,-4.309 8.614,-8.617 12.922,-12.925 V -48.33 c -7.573,4.371 -15.147,8.747 -22.723,13.118 -1.579,5.894 -3.157,11.787 -4.736,17.678 -1.157,4.317 -7.863,2.487 -6.702,-1.846 l 2.925,-10.915 c -2.566,1.479 -5.131,2.961 -7.69604,4.443 -3.879,2.239 -7.385,-3.766 -3.508,-6.001 2.578,-1.488 5.15304,-2.974 7.72804,-4.462 L 2.46306,-39.254 c -4.316,-1.156 -2.486,-7.865 1.847,-6.702 5.87704,1.575 11.75504,3.148 17.63204,4.722 7.573,-4.371 15.147,-8.743 22.721,-13.116 -7.574,-4.374 -15.148,-8.745 -22.721,-13.119 l -17.63204,4.724 c -4.325,1.159 -6.17,-5.543 -1.847,-6.702 3.654,-0.981 7.31,-1.959 10.96404,-2.938 -2.577,-1.486 -5.15004,-2.974 -7.72804,-4.462 -3.873,-2.234 -0.376,-8.243 3.508,-5.999 2.56504,1.479 5.13004,2.961 7.69604,4.441 l -2.925,-10.915 c -1.159,-4.327 5.543,-6.172 6.702,-1.849 l 4.736,17.68 c 7.576,4.372 15.15,8.747 22.723,13.119 v -26.24 c -4.308,-4.308 -8.616,-8.616 -12.922,-12.924 -3.169,-3.167 1.745,-8.083 4.914,-4.914 2.67,2.67 5.338,5.34 8.008,8.01 v -8.905 c 0,-4.473 6.951,-4.482 6.951,0 v 8.905 c 2.67,-2.67 5.34,-5.34 8.009,-8.01 3.168,-3.167 8.084,1.747 4.916,4.914 l -12.925,12.924 v 26.24 c 7.576,-4.372 15.149,-8.747 22.723,-13.119 l 4.737,-17.68 c 1.156,-4.317 7.862,-2.485 6.701,1.849 l -2.923,10.915 c 2.565,-1.48 5.129,-2.962 7.694,-4.441 3.882,-2.242 7.3859,3.761 3.508,5.999 -2.575,1.488 -5.152,2.976 -7.728,4.462 3.656,0.979 7.31,1.959 10.9639,2.938 4.317,1.157 2.484,7.863 -1.8469,6.702 z"
                               style="fill:#70c9ff;fill-opacity:1;fill-rule:nonzero;stroke:none"
                               id="path139452" />
                          </g>
                        </g>
                      </g>
                      <g
                         transform="translate(136.22684,-262.21129)"
                         id="g139466">
                        <g
                           id="g139464">
                          <g
                             id="g139462">
                            <path
                               d="m 98.9191,-62.745 -17.632,-4.724 c -7.571,4.374 -15.147,8.745 -22.72,13.119 7.573,4.373 15.149,8.745 22.72,13.116 5.879,-1.574 11.756,-3.147 17.632,-4.722 4.3249,-1.161 6.1699,5.543 1.8469,6.702 l -10.9639,2.939 c 2.576,1.488 5.153,2.974 7.728,4.462 3.8729,2.233 0.378,8.242 -3.508,6.001 -2.565,-1.482 -5.129,-2.964 -7.694,-4.443 l 2.923,10.915 c 1.159,4.325 -5.543,6.172 -6.701,1.846 -1.579,-5.891 -3.158,-11.784 -4.737,-17.678 -7.574,-4.371 -15.147,-8.747 -22.723,-13.118 v 26.239 c 4.308,4.306 8.616,8.614 12.925,12.923 3.166,3.168 -1.748,8.082 -4.916,4.914 -2.669,-2.671 -5.341,-5.339 -8.009,-8.009 v 8.906 c 0,4.473 -6.951,4.479 -6.951,0 v -8.906 c -2.668,2.67 -5.338,5.338 -8.008,8.009 -3.169,3.168 -8.085,-1.746 -4.914,-4.914 4.306,-4.309 8.614,-8.617 12.922,-12.925 V -48.33 c -7.573,4.371 -15.147,8.747 -22.723,13.118 -1.579,5.894 -3.157,11.787 -4.736,17.678 -1.157,4.317 -7.863,2.487 -6.702,-1.846 l 2.925,-10.915 c -2.566,1.479 -5.131,2.961 -7.69604,4.443 -3.879,2.239 -7.385,-3.766 -3.508,-6.001 2.578,-1.488 5.15304,-2.974 7.72804,-4.462 L 2.46306,-39.254 c -4.316,-1.156 -2.486,-7.865 1.847,-6.702 5.87704,1.575 11.75504,3.148 17.63204,4.722 7.573,-4.371 15.147,-8.743 22.721,-13.116 -7.574,-4.374 -15.148,-8.745 -22.721,-13.119 l -17.63204,4.724 c -4.325,1.159 -6.17,-5.543 -1.847,-6.702 3.654,-0.981 7.31,-1.959 10.96404,-2.938 -2.577,-1.486 -5.15004,-2.974 -7.72804,-4.462 -3.873,-2.234 -0.375,-8.243 3.508,-5.999 2.56504,1.479 5.13004,2.961 7.69604,4.441 l -2.925,-10.915 c -1.159,-4.327 5.543,-6.172 6.702,-1.849 l 4.736,17.68 c 7.576,4.372 15.15,8.747 22.723,13.119 v -26.24 c -4.308,-4.308 -8.616,-8.616 -12.922,-12.924 -3.168,-3.167 1.745,-8.083 4.914,-4.914 2.67,2.67 5.338,5.34 8.008,8.01 v -8.905 c 0,-1.319 0.6046,-2.25 1.4572,-2.792 h 4.0401 c 0.8507,0.542 1.4537,1.472 1.4537,2.792 v 8.905 c 2.67,-2.67 5.34,-5.34 8.009,-8.01 3.168,-3.167 8.084,1.747 4.916,4.914 l -12.925,12.924 v 26.24 c 7.576,-4.372 15.149,-8.747 22.723,-13.119 l 4.737,-17.68 c 1.156,-4.317 7.862,-2.485 6.701,1.849 l -2.923,10.915 c 2.565,-1.48 5.129,-2.962 7.694,-4.441 3.882,-2.242 7.3859,3.761 3.508,5.999 -2.575,1.488 -5.152,2.976 -7.728,4.462 3.656,0.979 7.31,1.959 10.9639,2.938 4.317,1.157 2.484,7.863 -1.8469,6.702 z"
                               style="fill:#70c9ff;fill-opacity:1;fill-rule:nonzero;stroke:none"
                               id="path139460" />
                          </g>
                        </g>
                      </g>
                      <g
                         transform="translate(296.64867,-262.21129)"
                         id="g139474">
                        <g
                           id="g139472">
                          <g
                             id="g139470">
                            <path
                               d="m 98.9199,-62.745 c -5.879,-1.575 -11.753,-3.149 -17.634,-4.724 -7.571,4.374 -15.145,8.745 -22.718,13.119 7.573,4.373 15.147,8.745 22.72,13.116 5.879,-1.574 11.753,-3.147 17.632,-4.722 4.3251,-1.161 6.1701,5.543 1.8471,6.702 l -10.9641,2.939 c 2.576,1.488 5.151,2.974 7.728,4.462 3.8731,2.233 0.376,8.242 -3.508,6.001 -2.565,-1.482 -5.132,-2.964 -7.696,-4.443 l 2.925,10.915 c 1.159,4.325 -5.545,6.172 -6.703,1.846 -1.579,-5.891 -3.156,-11.784 -4.737,-17.678 -7.574,-4.371 -15.147,-8.747 -22.723,-13.118 v 26.239 c 4.308,4.306 8.616,8.614 12.924,12.923 3.167,3.168 -1.745,8.082 -4.913,4.914 -2.669,-2.671 -5.341,-5.339 -8.011,-8.009 v 8.906 c 0,4.473 -6.951,4.479 -6.951,0 v -8.906 l -8.008,8.009 c -3.169,3.168 -8.083,-1.746 -4.914,-4.914 4.306,-4.309 8.616,-8.617 12.922,-12.925 V -48.33 c -7.574,4.371 -15.147,8.747 -22.721,13.118 -1.579,5.894 -3.157,11.787 -4.736,17.678 -1.157,4.317 -7.863,2.487 -6.704,-1.846 l 2.925,-10.915 c -2.564,1.479 -5.129,2.961 -7.69597,4.443 -3.879,2.239 -7.383,-3.766 -3.506,-6.001 2.575,-1.488 5.15097,-2.974 7.72597,-4.462 -3.65397,-0.98 -7.30797,-1.959 -10.96197,-2.939 -4.316,-1.156 -2.486,-7.865 1.847,-6.702 5.87697,1.575 11.75297,3.148 17.62997,4.722 7.573,-4.371 15.147,-8.743 22.723,-13.116 -7.576,-4.374 -15.15,-8.745 -22.723,-13.119 l -17.62997,4.724 c -4.325,1.159 -6.172,-5.543 -1.847,-6.702 3.654,-0.981 7.308,-1.959 10.96197,-2.938 -2.575,-1.486 -5.15097,-2.974 -7.72597,-4.462 -3.873,-2.234 -0.378,-8.243 3.506,-5.999 2.56697,1.479 5.13197,2.961 7.69597,4.441 l -2.925,-10.915 c -1.159,-4.327 5.545,-6.172 6.704,-1.849 l 4.736,17.68 c 7.574,4.372 15.147,8.747 22.721,13.119 v -26.24 c -4.306,-4.308 -8.616,-8.616 -12.922,-12.924 -3.169,-3.167 1.745,-8.083 4.914,-4.914 2.67,2.67 5.34,5.34 8.008,8.01 v -8.905 c 0,-1.319 0.6047,-2.25 1.4573,-2.792 h 4.0401 c 0.8507,0.542 1.4536,1.472 1.4536,2.792 v 8.905 l 8.011,-8.01 c 3.166,-3.167 8.082,1.747 4.913,4.914 l -12.924,12.924 v 26.24 c 7.576,-4.372 15.149,-8.747 22.723,-13.119 l 4.737,-17.68 c 1.156,-4.317 7.864,-2.485 6.703,1.849 l -2.925,10.915 c 2.564,-1.48 5.131,-2.962 7.696,-4.441 3.88,-2.242 7.3841,3.761 3.508,5.999 -2.577,1.488 -5.152,2.976 -7.728,4.462 3.654,0.979 7.31,1.959 10.9641,2.938 4.317,1.157 2.484,7.863 -1.8471,6.702 z"
                               style="fill:#70c9ff;fill-opacity:1;fill-rule:nonzero;stroke:none"
                               id="path139468" />
                          </g>
                        </g>
                      </g>
                      <g
                         transform="translate(221.54066,-148.22749)"
                         id="g139482">
                        <g
                           id="g139480">
                          <g
                             id="g139478">
                            <path
                               d="m 98.9189,-62.745 -17.632,-4.724 c -7.571,4.374 -15.145,8.745 -22.72,13.119 7.575,4.373 15.149,8.745 22.72,13.116 5.879,-1.574 11.755,-3.147 17.632,-4.722 4.3271,-1.161 6.1721,5.543 1.8491,6.702 l -10.9641,2.939 c 2.576,1.488 5.151,2.974 7.726,4.462 3.8731,2.233 0.378,8.242 -3.506,6.001 -2.567,-1.482 -5.131,-2.964 -7.696,-4.443 l 2.926,10.915 c 1.158,4.325 -5.546,6.172 -6.704,1.846 -1.579,-5.891 -3.158,-11.784 -4.737,-17.678 -7.574,-4.371 -15.147,-8.747 -22.723,-13.118 v 26.239 c 4.308,4.306 8.616,8.614 12.925,12.923 3.166,3.168 -1.746,8.082 -4.914,4.914 -2.671,-2.671 -5.341,-5.339 -8.011,-8.009 v 8.906 c 0,4.473 -6.951,4.479 -6.951,0 v -8.906 c -2.668,2.67 -5.338,5.338 -8.008,8.009 -3.166,3.168 -8.083,-1.746 -4.914,-4.914 4.306,-4.309 8.616,-8.617 12.922,-12.925 V -48.33 c -7.573,4.371 -15.147,8.747 -22.721,13.118 -1.578,5.894 -3.157,11.787 -4.736,17.678 -1.157,4.317 -7.865,2.487 -6.704,-1.846 0.975,-3.639 1.95,-7.276 2.925,-10.915 -2.564,1.479 -5.131,2.961 -7.69396,4.443 -3.881,2.239 -7.385,-3.766 -3.51,-6.001 2.578,-1.488 5.15296,-2.974 7.72796,-4.462 -3.65396,-0.98 -7.30796,-1.959 -10.96396,-2.939 -4.316,-1.156 -2.484,-7.865 1.849,-6.702 5.87696,1.575 11.75296,3.148 17.62996,4.722 7.573,-4.371 15.147,-8.743 22.721,-13.116 -7.574,-4.374 -15.148,-8.745 -22.721,-13.119 -5.877,1.575 -11.753,3.149 -17.62996,4.724 -4.327,1.159 -6.172,-5.543 -1.849,-6.702 3.656,-0.981 7.31,-1.959 10.96396,-2.938 -2.575,-1.486 -5.14996,-2.974 -7.72796,-4.462 -3.871,-2.234 -0.376,-8.243 3.51,-5.999 2.56296,1.479 5.12996,2.961 7.69396,4.441 -0.975,-3.639 -1.95,-7.276 -2.925,-10.915 -1.159,-4.327 5.545,-6.172 6.704,-1.849 l 4.736,17.68 c 7.574,4.372 15.148,8.747 22.721,13.119 v -26.24 c -4.306,-4.308 -8.616,-8.616 -12.922,-12.924 -3.169,-3.167 1.745,-8.083 4.914,-4.914 2.67,2.67 5.34,5.34 8.008,8.01 v -8.905 c 0,-4.473 6.951,-4.482 6.951,0 v 8.905 c 2.67,-2.67 5.34,-5.34 8.011,-8.01 3.166,-3.167 8.082,1.747 4.914,4.914 l -12.925,12.924 v 26.24 c 7.576,-4.372 15.149,-8.747 22.723,-13.119 l 4.737,-17.68 c 1.156,-4.317 7.865,-2.485 6.704,1.849 l -2.926,10.915 c 2.565,-1.48 5.129,-2.962 7.696,-4.441 3.88,-2.242 7.3841,3.761 3.506,5.999 -2.575,1.488 -5.15,2.976 -7.726,4.462 3.654,0.979 7.31,1.959 10.9641,2.938 4.317,1.157 2.484,7.863 -1.8491,6.702 z"
                               style="fill:#70c9ff;fill-opacity:1;fill-rule:nonzero;stroke:none"
                               id="path139476" />
                          </g>
                        </g>
                      </g>
                      <g
                         transform="translate(377.74123,-148.22749)"
                         id="g139490">
                        <g
                           id="g139488">
                          <g
                             id="g139486">
                            <path
                               d="m 98.9184,-62.745 -17.632,-4.724 c -7.571,4.374 -15.145,8.745 -22.72,13.119 7.575,4.373 15.149,8.745 22.72,13.116 5.879,-1.574 11.756,-3.147 17.632,-4.722 4.3266,-1.161 6.1716,5.543 1.8486,6.702 l -10.9636,2.939 c 2.576,1.488 5.151,2.974 7.726,4.462 3.8726,2.233 0.378,8.242 -3.506,6.001 -2.567,-1.482 -5.131,-2.964 -7.696,-4.443 l 2.926,10.915 c 1.158,4.325 -5.545,6.172 -6.704,1.846 -1.579,-5.891 -3.158,-11.784 -4.737,-17.678 -7.574,-4.371 -15.147,-8.747 -22.723,-13.118 v 26.239 c 4.308,4.306 8.616,8.614 12.925,12.923 3.166,3.168 -1.746,8.082 -4.916,4.914 l -8.009,-8.009 v 8.906 c 0,4.473 -6.951,4.479 -6.951,0 v -8.906 l -8.008,8.009 c -3.169,3.168 -8.085,-1.746 -4.916,-4.914 l 12.924,-12.925 V -48.33 c -7.573,4.371 -15.147,8.747 -22.72,13.118 -1.579,5.894 -3.158,11.787 -4.737,17.678 -1.157,4.317 -7.865,2.487 -6.704,-1.846 l 2.925,-10.915 c -2.564,1.479 -5.129,2.961 -7.69603,4.443 -3.879,2.239 -7.383,-3.766 -3.506,-6.001 2.576,-1.488 5.15103,-2.974 7.72603,-4.462 L 2.46237,-39.254 c -4.316,-1.156 -2.484,-7.865 1.849,-6.702 5.87703,1.575 11.75303,3.148 17.63003,4.722 7.574,-4.371 15.147,-8.743 22.723,-13.116 -7.576,-4.374 -15.149,-8.745 -22.723,-13.119 l -17.63003,4.724 c -4.325,1.159 -6.172,-5.543 -1.849,-6.702 3.654,-0.981 7.31,-1.959 10.96403,-2.938 -2.577,-1.486 -5.15003,-2.974 -7.72603,-4.462 -3.873,-2.234 -0.377,-8.243 3.506,-5.999 2.56703,1.479 5.13203,2.961 7.69603,4.441 l -2.925,-10.915 c -1.159,-4.327 5.545,-6.172 6.704,-1.849 l 4.737,17.68 c 7.573,4.372 15.147,8.747 22.72,13.119 v -26.24 l -12.924,-12.924 c -3.166,-3.167 1.747,-8.083 4.916,-4.914 2.67,2.67 5.34,5.34 8.008,8.01 v -8.905 c 0,-4.473 6.951,-4.482 6.951,0 v 8.905 c 2.67,-2.67 5.34,-5.34 8.009,-8.01 3.168,-3.167 8.084,1.747 4.916,4.914 l -12.925,12.924 v 26.24 c 7.576,-4.372 15.149,-8.747 22.723,-13.119 l 4.737,-17.68 c 1.156,-4.317 7.865,-2.485 6.704,1.849 l -2.926,10.915 c 2.565,-1.48 5.129,-2.962 7.696,-4.441 3.88,-2.242 7.3836,3.761 3.506,5.999 -2.575,1.488 -5.15,2.976 -7.726,4.462 3.654,0.979 7.31,1.959 10.9636,2.938 4.317,1.157 2.484,7.863 -1.8486,6.702 z"
                               style="fill:#70c9ff;fill-opacity:1;fill-rule:nonzero;stroke:none"
                               id="path139484" />
                          </g>
                        </g>
                      </g>
                    </g>
                  </g>
                </g>
              </g>
            </g>
          </g>
        </g>
      </g>
    </g>
  </g>
</svg>
