<?xml version="1.0" encoding="UTF-8" standalone="no"?>
<!-- Created with Inkscape (http://www.inkscape.org/) -->

<svg
   version="1.1"
   id="svg139546"
   width="400"
   height="200"
   viewBox="0 0 400 200"
   sodipodi:docname="1520_word.pdf"
   xmlns:inkscape="http://www.inkscape.org/namespaces/inkscape"
   xmlns:sodipodi="http://sodipodi.sourceforge.net/DTD/sodipodi-0.dtd"
   xmlns="http://www.w3.org/2000/svg"
   xmlns:svg="http://www.w3.org/2000/svg">
  <defs
     id="defs139550">
    <clipPath
       clipPathUnits="userSpaceOnUse"
       id="clipPath139568">
      <path
         d="M 0,-313.73477 H 300 V 313.73477 H 0 Z"
         id="path139566" />
    </clipPath>
  </defs>
  <sodipodi:namedview
     id="namedview139548"
     pagecolor="#ffffff"
     bordercolor="#000000"
     borderopacity="0.25"
     inkscape:showpageshadow="2"
     inkscape:pageopacity="0.0"
     inkscape:pagecheckerboard="0"
     inkscape:deskcolor="#d1d1d1" />
  <g
     id="g139552"
     inkscape:groupmode="layer"
     inkscape:label="1520_word38"
     transform="matrix(1.3333333,0,0,-1.3333333,0,200)">
    <g
       id="g139554">
      <g
         id="g139556">
        <g
           id="g139558"
           transform="translate(107.35167,144.28986)">
          <g
             id="g139560"
             transform="matrix(0.33334,0,0,0.33334,0,-34.86039)">
            <g
               id="g139562">
              <g
                 id="g139564" />
              <g
                 id="g139604">
                <g
                   clip-path="url(#clipPath139568)"
                   id="g139602">
                  <g
                     transform="translate(0,-39.4285)"
                     id="g139576">
                    <g
                       id="g139574">
                      <g
                         id="g139572">
                        <path
                           d="m 87.9612,-169.727 c -16.3552,0 -31.1979,2.619 -44.5282,7.855 -13.3303,5.225 -23.9017,12.923 -31.7142,23.093 C 3.90626,-128.62 0,-116.171 0,-101.432 c 0,11.0457 2.61286,20.7305 7.83859,29.0541 5.23611,8.3237 11.90651,15.3956 20.01111,21.2159 8.1045,5.8202 16.6524,10.4618 25.6436,13.9248 8.9911,3.463 17.4608,5.8568 25.4089,7.1815 l -8.8399,2.8788 c -5.4448,2.0653 -11.6301,4.0888 -18.5561,6.0706 -6.9259,1.9922 -13.7788,2.9884 -20.5586,2.9884 -11.7866,0 -21.73217,-1.841 -29.83674,-5.523 L 4.86587,-4.85022 C 12.0838,-1.61674 21.075,0 31.8394,0 40.09,0 48.3406,-1.21516 56.5912,-3.64549 c 8.2506,-2.43033 16.1309,-5.1162 23.6409,-8.05761 3.828,-1.4812 7.583,-2.8111 11.265,-3.9897 8.1046,-3.3795 15.3279,-5.0693 21.6699,-5.0693 h 11.265 l -4.631,-19.2288 c -3.536,0.2921 -8.105,0.4381 -13.706,0.4381 1.909,-16.9497 11.557,-25.4246 28.945,-25.4246 h 2.206 c 3.39,0 6.227,-0.8083 8.511,-2.4251 2.284,-1.6167 3.427,-4.1201 3.427,-7.51 0,-2.2113 -0.772,-4.4591 -2.316,-6.7434 -1.544,-2.2843 -5.043,-3.4264 -10.498,-3.4264 -29.321,0 -43.9811,14.9574 -43.9811,44.8724 -15.7606,-2.0653 -30.1287,-6.7069 -43.1044,-13.9249 -8.9807,-5.0171 -16.2717,-11.3224 -21.8729,-18.9158 -5.6012,-7.5831 -8.4019,-16.4543 -8.4019,-26.6137 0,-11.6407 3.39,-21.3257 10.1699,-29.0547 6.7799,-7.739 15.9118,-13.523 27.3959,-17.351 11.4945,-3.838 24.3919,-5.758 38.6923,-5.758 10.4622,0 20.1102,1.033 28.9452,3.098 l -7.291,-17.242 c -7.959,-2.503 -17.6124,-3.755 -28.9608,-3.755 z m -17.2262,61.004 c -3.2439,0 -5.935,1.105 -8.0732,3.317 -2.1383,2.201 -3.2074,5.142 -3.2074,8.824 0,3.5359 1.0691,6.4096 3.2074,8.6208 2.1382,2.2113 4.9023,3.317 8.2923,3.317 6.9259,0 10.7539,-3.9793 11.4841,-11.9378 0,-7.218 -3.9011,-11.265 -11.7032,-12.141 z"
                           style="fill:#000000;fill-opacity:1;fill-rule:nonzero;stroke:none"
                           id="path139570" />
                      </g>
                    </g>
                  </g>
                  <g
                     transform="translate(125.53444,35.93772)"
                     id="g139584">
                    <g
                       id="g139582">
                      <g
                         id="g139580">
                        <path
                           d="m 78.4641,-160.449 c -16.7932,0 -27.4012,6.999 -31.8237,20.997 -6.7799,-13.998 -18.5665,-20.997 -35.3597,-20.997 -4.42259,0 -7.40574,1.143 -8.94946,3.427 C 0.77708,-154.738 0,-152.417 0,-150.06 c 0,2.212 0.8866,4.381 2.6598,6.509 1.76277,2.138 4.70941,3.207 8.8399,3.207 9.2832,0 15.9119,2.801 19.8859,8.402 3.536,5.007 5.304,12.892 5.304,23.657 L 32.7155,-1.31425 49.2845,0 53.2742,-102.981 c 0.2921,-13.706 2.3886,-23.323 6.2897,-28.851 3.9115,-5.518 10.2115,-8.355 18.9002,-8.512 3.3899,0 6.2271,-0.808 8.5114,-2.425 2.2843,-1.616 3.4264,-4.12 3.4264,-7.51 0,-2.065 -0.7771,-4.276 -2.3312,-6.634 -1.5437,-2.357 -4.7459,-3.536 -9.6066,-3.536 z"
                           style="fill:#000000;fill-opacity:1;fill-rule:nonzero;stroke:none"
                           id="path139578" />
                      </g>
                    </g>
                  </g>
                  <g
                     transform="translate(196.53183,104.57972)"
                     id="g139592">
                    <g
                       id="g139590">
                      <g
                         id="g139588">
                        <path
                           d="M 1.54894,-20.105 0,-12.814 C 13.8518,-8.53744 25.7844,-4.26611 35.7978,0 l 1.3299,-7.94811 C 25.1951,-12.8088 13.3355,-16.861 1.54894,-20.105 Z"
                           style="fill:#f81436;fill-opacity:1;fill-rule:nonzero;stroke:none"
                           id="path139586" />
                      </g>
                    </g>
                  </g>
                  <g
                     transform="translate(193.13079,38.37848)"
                     id="g139600">
                    <g
                       id="g139598">
                      <g
                         id="g139596">
                        <path
                           d="m 42.6507,-50.1763 c -3.2439,0 -5.8985,1.0691 -7.9638,3.2074 -2.0548,2.1382 -3.0822,5.0484 -3.0822,8.7304 0,3.2439 1.0274,5.9663 3.0822,8.1671 2.0653,2.2113 4.7199,3.3169 7.9638,3.3169 3.3899,0 6.0393,-1.1056 7.9481,-3.3169 1.9192,-2.2008 2.8788,-4.9232 2.8788,-8.1671 0,-7.218 -3.609,-11.1973 -10.8269,-11.9378 z m -29.3986,0 c -3.2439,0 -5.89332,1.0691 -7.94815,3.2074 -2.06525,2.1382 -3.09788,5.0484 -3.09788,8.7304 0,3.2439 1.06914,5.9663 3.20741,8.1671 2.13827,2.2113 4.75112,3.3169 7.83862,3.3169 3.3899,0 6.1175,-1.1056 8.1828,-3.3169 2.0652,-2.2008 3.0978,-4.9232 3.0978,-8.1671 0,-7.218 -3.7602,-11.1973 -11.2806,-11.9378 z m 14.8166,26.7388 c -6.3418,0 -9.8778,3.9062 -10.6079,11.7187 0,3.38997 0.9544,6.19059 2.8632,8.40187 C 22.2432,-1.10564 24.8248,0 28.0687,0 c 6.9259,0 10.6809,-3.90626 11.2651,-11.7188 0,-7.2179 -3.7551,-11.1242 -11.2651,-11.7187 z M 14.3629,-162.889 H 11.046 C 3.682,-162.889 0,-159.426 0,-152.5 c 0,2.065 0.77186,4.198 2.31559,6.399 1.54373,2.211 4.45386,3.317 8.73041,3.317 h 4.4278 c 15.9066,0 26.2903,1.695 31.1509,5.085 l 0.4381,1.768 c 0.5946,1.919 0.8918,4.203 0.8918,6.852 0,2.65 -0.5163,5.299 -1.5489,7.949 -1.0326,2.659 -2.9466,6.201 -5.742,10.623 l -3.7551,6.399 16.1309,6.4151 c 6.4774,-12.0791 9.7161,-24.2351 9.7161,-36.4701 0,-6.04 -1.1786,-12.006 -3.5359,-17.899 -2.6494,-2.796 -7.0668,-5.299 -13.2521,-7.51 -6.1853,-2.212 -16.7202,-3.317 -31.6047,-3.317 z"
                           style="fill:#f81436;fill-opacity:1;fill-rule:nonzero;stroke:none"
                           id="path139594" />
                      </g>
                    </g>
                  </g>
                </g>
              </g>
            </g>
          </g>
        </g>
      </g>
    </g>
  </g>
</svg>
