<?xml version="1.0" encoding="UTF-8" standalone="no"?>
<!-- Created with Inkscape (http://www.inkscape.org/) -->

<svg
   version="1.1"
   id="svg140098"
   width="400"
   height="200"
   viewBox="0 0 400 200"
   sodipodi:docname="1521_word.pdf"
   xmlns:inkscape="http://www.inkscape.org/namespaces/inkscape"
   xmlns:sodipodi="http://sodipodi.sourceforge.net/DTD/sodipodi-0.dtd"
   xmlns="http://www.w3.org/2000/svg"
   xmlns:svg="http://www.w3.org/2000/svg">
  <defs
     id="defs140102">
    <clipPath
       clipPathUnits="userSpaceOnUse"
       id="clipPath140120">
      <path
         d="M 0,-297.07603 H 444.75703 V 297.07603 H 0 Z"
         id="path140118" />
    </clipPath>
  </defs>
  <sodipodi:namedview
     id="namedview140100"
     pagecolor="#ffffff"
     bordercolor="#000000"
     borderopacity="0.25"
     inkscape:showpageshadow="2"
     inkscape:pageopacity="0.0"
     inkscape:pagecheckerboard="0"
     inkscape:deskcolor="#d1d1d1" />
  <g
     id="g140104"
     inkscape:groupmode="layer"
     inkscape:label="1521_word40"
     transform="matrix(1.3333333,0,0,-1.3333333,0,200)">
    <g
       id="g140106">
      <g
         id="g140108">
        <g
           id="g140110"
           transform="translate(75.87333,148.513)">
          <g
             id="g140112"
             transform="matrix(0.33334,0,0,0.33334,0,-33.00889)">
            <g
               id="g140114">
              <g
                 id="g140116" />
              <g
                 id="g140172">
                <g
                   clip-path="url(#clipPath140120)"
                   id="g140170">
                  <g
                     transform="translate(0,-60.58529)"
                     id="g140128">
                    <g
                       id="g140126">
                      <g
                         id="g140124">
                        <path
                           d="m 75.1472,-86.4122 c -23.1351,0 -41.3312,4.7511 -54.5885,14.2534 C 7.30141,-62.6565 0.44852,-47.7356 0,-27.3959 0,-16.9341 1.54894,-7.80208 4.64683,0 L 16.8037,-2.20607 c -1.6272,-5.89328 -2.4408,-12.15683 -2.4408,-18.79073 0,-30.0505 20.8508,-45.0758 62.5523,-45.0758 12.6731,0 23.9798,0.9544 33.9198,2.8632 9.951,1.9193 18.348,4.167 25.19,6.7434 6.853,2.5764 12.048,5.0432 15.584,7.4005 -0.438,3.536 -0.658,6.6339 -0.658,9.2937 0,4.2661 0.809,9.1997 2.426,14.801 l 13.048,1.3299 c -0.74,-3.9741 -1.111,-7.9534 -1.111,-11.9378 0,-16.6473 8.767,-25.2681 26.301,-25.8627 v -0.219 c 3.244,0 6.045,-0.7719 8.402,-2.3156 2.357,-1.5437 3.536,-4.0106 3.536,-7.4005 0,-6.7799 -3.979,-10.1698 -11.938,-10.1698 -16.647,0 -28.136,5.523 -34.468,16.5689 -9.585,-6.3313 -21.268,-11.4892 -35.047,-15.4737 -13.768,-3.9741 -29.419,-5.9611 -46.9528,-5.9611 z m 15.02,-51.0528 c -3.2335,0 -5.9558,1.106 -8.1671,3.317 -2.2113,2.211 -3.3169,5.158 -3.3169,8.84 0,7.072 3.828,11.051 11.484,11.938 6.9259,0 10.7588,-3.979 11.4998,-11.938 0,-7.51 -3.8333,-11.562 -11.4998,-12.157 z"
                           style="fill:#000000;fill-opacity:1;fill-rule:nonzero;stroke:none"
                           id="path140122" />
                      </g>
                    </g>
                  </g>
                  <g
                     transform="translate(197.89815,99.02601)"
                     id="g140136">
                    <g
                       id="g140134">
                      <g
                         id="g140132">
                        <path
                           d="M 1.54894,-20.105 0,-12.814 C 13.8518,-8.53744 25.7844,-4.26611 35.7978,0 l 1.3299,-7.94811 C 25.1951,-12.8088 13.3355,-16.861 1.54894,-20.105 Z"
                           style="fill:#000000;fill-opacity:1;fill-rule:nonzero;stroke:none"
                           id="path140130" />
                      </g>
                    </g>
                  </g>
                  <g
                     transform="translate(180.1198,18.3169)"
                     id="g140144">
                    <g
                       id="g140142">
                      <g
                         id="g140140">
                        <path
                           d="m 78.4641,-160.449 c -16.7932,0 -27.4012,6.999 -31.8237,20.997 -6.7799,-13.998 -18.5665,-20.997 -35.3597,-20.997 -4.42259,0 -7.40574,1.143 -8.94946,3.427 C 0.77708,-154.738 0,-152.417 0,-150.06 c 0,2.212 0.8866,4.381 2.6598,6.509 1.76277,2.138 4.70941,3.207 8.8399,3.207 9.2832,0 15.9119,2.801 19.8859,8.402 3.536,5.007 5.304,12.892 5.304,23.657 L 32.7155,-1.31425 49.2845,0 53.2742,-102.981 c 0.2921,-13.706 2.3886,-23.323 6.2897,-28.851 3.9115,-5.518 10.2115,-8.355 18.9002,-8.512 3.3899,0 6.2271,-0.808 8.5114,-2.425 2.2843,-1.616 3.4264,-4.12 3.4264,-7.51 0,-2.065 -0.7771,-4.276 -2.3312,-6.634 -1.5437,-2.357 -4.7459,-3.536 -9.6066,-3.536 z"
                           style="fill:#000000;fill-opacity:1;fill-rule:nonzero;stroke:none"
                           id="path140138" />
                      </g>
                    </g>
                  </g>
                  <g
                     transform="translate(247.40673,-54.60856)"
                     id="g140152">
                    <g
                       id="g140150">
                      <g
                         id="g140148">
                        <path
                           d="m 145.413,-87.5231 h -2.644 c -20.33,0 -39.412,4.9337 -57.2486,14.801 -21.6539,-9.8673 -46.4787,-14.801 -74.4744,-14.801 -4.13052,0 -7.00415,1.1422 -8.62089,3.4265 C 0.80837,-81.8123 0,-79.6375 0,-77.5723 c 0,1.9088 0.80837,4.0784 2.42511,6.5087 1.61674,2.4303 4.6364,3.6455 9.05899,3.6455 21.6643,0 40.1577,2.3573 55.4803,7.0719 -14.1439,11.797 -24.3867,23.8078 -30.7285,36.0325 -4.5686,-1.6167 -8.6209,-3.3847 -12.1569,-5.304 l -1.987,15.9119 c 2.9518,1.6167 7.3014,3.4577 13.0487,5.523 5.7472,2.06526 12.5584,3.94277 20.4335,5.63252 C 63.4597,-0.85009 72.1171,0 81.5463,0 c 12.5272,0 22.2907,-1.14215 29.2887,-3.42645 6.999,-2.2843 11.97,-5.34568 14.911,-9.18415 2.952,-3.828 4.428,-8.0263 4.428,-12.5949 0,-11.9326 -8.324,-24.0842 -24.971,-36.4549 11.63,-3.8385 24.887,-5.7577 39.772,-5.7577 3.536,0 6.446,-0.8084 8.73,-2.4251 2.284,-1.6168 3.427,-4.1201 3.427,-7.5101 0,-6.7798 -3.907,-10.1698 -11.719,-10.1698 z m -59.6736,33.8108 c 9.8778,4.4226 17.3566,9.0277 22.4366,13.8153 5.09,4.7876 7.635,8.8034 7.635,12.0473 0,1.3247 -0.887,2.9049 -2.66,4.7407 -1.763,1.8462 -5.153,3.4317 -10.17,4.7564 -5.0065,1.3247 -12.4435,1.987 -22.3108,1.987 -8.5531,0 -18.7229,-1.3247 -30.5095,-3.974 7.8125,-13.2573 19.6721,-24.3816 35.5787,-33.3727 z"
                           style="fill:#000000;fill-opacity:1;fill-rule:nonzero;stroke:none"
                           id="path140146" />
                      </g>
                    </g>
                  </g>
                  <g
                     transform="translate(385.40243,86.9589)"
                     id="g140160">
                    <g
                       id="g140158">
                      <g
                         id="g140156">
                        <path
                           d="M 1.54894,-20.105 0,-12.814 C 13.8518,-8.53744 25.7844,-4.26611 35.7978,0 l 1.3299,-7.94811 C 25.1951,-12.8088 13.3355,-16.861 1.54894,-20.105 Z"
                           style="fill:#f81436;fill-opacity:1;fill-rule:nonzero;stroke:none"
                           id="path140154" />
                      </g>
                    </g>
                  </g>
                  <g
                     transform="translate(382.00139,20.75766)"
                     id="g140168">
                    <g
                       id="g140166">
                      <g
                         id="g140164">
                        <path
                           d="m 42.6507,-50.1763 c -3.2439,0 -5.8985,1.0691 -7.9638,3.2074 -2.0548,2.1382 -3.0822,5.0484 -3.0822,8.7304 0,3.2439 1.0274,5.9663 3.0822,8.1671 2.0653,2.2113 4.7199,3.3169 7.9638,3.3169 3.3899,0 6.0393,-1.1056 7.9481,-3.3169 1.9192,-2.2008 2.8788,-4.9232 2.8788,-8.1671 0,-7.218 -3.609,-11.1973 -10.8269,-11.9378 z m -29.3986,0 c -3.2439,0 -5.89332,1.0691 -7.94815,3.2074 -2.06525,2.1382 -3.09788,5.0484 -3.09788,8.7304 0,3.2439 1.06914,5.9663 3.20741,8.1671 2.13827,2.2113 4.75112,3.3169 7.83862,3.3169 3.3899,0 6.1175,-1.1056 8.1828,-3.3169 2.0652,-2.2008 3.0978,-4.9232 3.0978,-8.1671 0,-7.218 -3.7602,-11.1973 -11.2806,-11.9378 z m 14.8166,26.7388 c -6.3418,0 -9.8778,3.9062 -10.6079,11.7187 0,3.38997 0.9544,6.19059 2.8632,8.40187 C 22.2432,-1.10564 24.8248,0 28.0687,0 c 6.9259,0 10.6809,-3.90626 11.2651,-11.7188 0,-7.2179 -3.7551,-11.1242 -11.2651,-11.7187 z M 14.3629,-162.889 H 11.046 C 3.682,-162.889 0,-159.426 0,-152.5 c 0,2.065 0.77186,4.198 2.31559,6.399 1.54373,2.211 4.45386,3.317 8.73041,3.317 h 4.4278 c 15.9066,0 26.2903,1.695 31.1509,5.085 l 0.4381,1.768 c 0.5946,1.919 0.8918,4.203 0.8918,6.852 0,2.65 -0.5163,5.299 -1.5489,7.949 -1.0326,2.659 -2.9466,6.201 -5.742,10.623 l -3.7551,6.399 16.1309,6.4151 c 6.4774,-12.0791 9.7161,-24.2351 9.7161,-36.4701 0,-6.04 -1.1786,-12.006 -3.5359,-17.899 -2.6494,-2.796 -7.0668,-5.299 -13.2521,-7.51 -6.1853,-2.212 -16.7202,-3.317 -31.6047,-3.317 z"
                           style="fill:#f81436;fill-opacity:1;fill-rule:nonzero;stroke:none"
                           id="path140162" />
                      </g>
                    </g>
                  </g>
                </g>
              </g>
            </g>
          </g>
        </g>
      </g>
    </g>
  </g>
</svg>
