<?xml version="1.0" encoding="UTF-8" standalone="no"?>
<!-- Created with Inkscape (http://www.inkscape.org/) -->

<svg
   version="1.1"
   id="svg139636"
   width="400"
   height="400"
   viewBox="0 0 400 400"
   sodipodi:docname="1521_pic.pdf"
   xmlns:inkscape="http://www.inkscape.org/namespaces/inkscape"
   xmlns:sodipodi="http://sodipodi.sourceforge.net/DTD/sodipodi-0.dtd"
   xmlns="http://www.w3.org/2000/svg"
   xmlns:svg="http://www.w3.org/2000/svg">
  <defs
     id="defs139640">
    <clipPath
       clipPathUnits="userSpaceOnUse"
       id="clipPath139656">
      <path
         d="M 0,0 H 183.28831 V -185.19964 H 0 Z"
         clip-rule="evenodd"
         id="path139654" />
    </clipPath>
    <clipPath
       clipPathUnits="userSpaceOnUse"
       id="clipPath139666">
      <path
         d="M 0,-555.5997 H 549.86563 V 555.5997 H 0 Z"
         id="path139664" />
    </clipPath>
  </defs>
  <sodipodi:namedview
     id="namedview139638"
     pagecolor="#ffffff"
     bordercolor="#000000"
     borderopacity="0.25"
     inkscape:showpageshadow="2"
     inkscape:pageopacity="0.0"
     inkscape:pagecheckerboard="0"
     inkscape:deskcolor="#d1d1d1" />
  <g
     id="g139642"
     inkscape:groupmode="layer"
     inkscape:label="1521_pic39"
     transform="matrix(1.3333333,0,0,-1.3333333,0,400)">
    <g
       id="g139644">
      <g
         id="g139646">
        <g
           id="g139648"
           transform="translate(58.35591,242.59977)">
          <g
             id="g139650">
            <g
               id="g139652"
               clip-path="url(#clipPath139656)">
              <g
                 id="g139658"
                 transform="matrix(0.33333,0,0,0.33333,0,-61.73306)">
                <g
                   id="g139660">
                  <g
                     id="g139662" />
                  <g
                     id="g139942">
                    <g
                       clip-path="url(#clipPath139666)"
                       id="g139940">
                      <g
                         transform="translate(416.74808,-45.17703)"
                         id="g139674">
                        <g
                           id="g139672">
                          <g
                             id="g139670">
                            <path
                               d="m 0,-32.3649 c 5.894,14.115 17.449,25.65901 31.393,31.36201 1.591,0.652 3.31,1.238 4.992,0.908 3.752,-0.739 5.253,-5.323 5.889,-9.172 3.376,-20.41901 2.334,-41.58801 -3.025,-61.55901 z"
                               style="fill:#e38c00;fill-opacity:1;fill-rule:nonzero;stroke:none"
                               id="path139668" />
                          </g>
                        </g>
                      </g>
                      <g
                         transform="translate(444.52448,-44.63737)"
                         id="g139682">
                        <g
                           id="g139680">
                          <g
                             id="g139678">
                            <path
                               d="m 14.635,-10.5342 -0.089,0.59105 c -0.636,3.85 -0.719,9.152 -4.469,9.89 -1.684,0.332 -4.822,-0.974 -6.412,-1.625 -1.244,-0.509 -2.46,-1.079 -3.665,-1.678 2.036,0.532 4.195,0.569 6.224,0.017 3.683,-1.001 6.837,-3.854 8.255,-7.46705 z"
                               style="fill:#754500;fill-opacity:1;fill-rule:nonzero;stroke:none"
                               id="path139676" />
                          </g>
                        </g>
                      </g>
                      <g
                         transform="translate(352.84178,-164.24872)"
                         id="g139690">
                        <g
                           id="g139688">
                          <g
                             id="g139686">
                            <path
                               d="m 60.959,-50.066 c 5.219,-41.28 31.708,-79.292 68.628,-98.48 18.447,-9.588 38.931,-14.596 57.806,-23.312 3.67,-1.694 7.571,-3.837 9.052,-7.6 3.029,-7.697 -6.417,-14.91 -14.681,-15.268 -8.265,-0.361 -28.307,-3.866 -44.556,1.55 L 41.524,-176.928 0,-146.235 1.806,-75.827 46.939,0 Z"
                               style="fill:#e38c00;fill-opacity:1;fill-rule:nonzero;stroke:none"
                               id="path139684" />
                          </g>
                        </g>
                      </g>
                      <g
                         transform="translate(447.18518,-285.50752)"
                         id="g139698">
                        <g
                           id="g139696">
                          <g
                             id="g139694">
                            <path
                               d="m 64.488,-74.915 h 0.033 z m 21.667,1.376 c -4.91,-0.333 -12.86,-1.373 -21.596,-1.376 8.737,0.003 16.685,1.043 21.596,1.376 z m 1.265,0.072 c -0.265,-0.011 -0.542,-0.026 -0.831,-0.044 0.289,0.018 0.566,0.033 0.831,0.044 z m -52.465,46.331 c 0.096,-0.051 0.192,-0.101 0.288,-0.151 18.447,-9.588 38.932,-14.596 57.807,-23.312 3.669,-1.694 7.57,-3.837 9.052,-7.6 0.396,-1.007 0.579,-2.006 0.578,-2.982 10e-4,0.976 -0.182,1.975 -0.578,2.982 -1.482,3.763 -5.383,5.906 -9.052,7.6 -18.875,8.716 -39.36,13.724 -57.807,23.312 -0.096,0.05 -0.192,0.1 -0.288,0.151 z M 0.015,0 C 0.01,-0.015 0.005,-0.031 0,-0.046 9.984,-10.983 21.781,-20.238 34.91,-27.113 21.777,-20.234 10.001,-10.944 0.015,0 Z"
                               style="fill:#78706e;fill-opacity:1;fill-rule:nonzero;stroke:none"
                               id="path139692" />
                          </g>
                        </g>
                      </g>
                      <g
                         transform="translate(416.17708,-280.16272)"
                         id="g139706">
                        <g
                           id="g139704">
                          <g
                             id="g139702">
                            <path
                               d="m 16.248,0 c 0.967,-4.256 1.93,-8.512 2.893,-12.766 C 12.459,-11.39 5.985,-9.012 0,-5.737 2.26,-14.798 4.518,-23.858 6.777,-32.919 21.8,-43.129 38.33,-50.802 56.092,-54.745 c 0.008,-0.002 0.016,-0.003 0.024,-0.005 0.071,-0.016 0.145,-0.032 0.217,-0.048 0.015,-0.003 0.034,-0.007 0.049,-0.011 0.065,-0.014 0.129,-0.028 0.195,-0.042 0.023,-0.005 0.044,-0.01 0.067,-0.015 0.059,-0.013 0.12,-0.026 0.178,-0.039 0.026,-0.005 0.057,-0.012 0.083,-0.018 0.053,-0.011 0.109,-0.023 0.162,-0.034 0.032,-0.007 0.065,-0.014 0.096,-0.021 0.054,-0.011 0.107,-0.022 0.16,-0.034 0.031,-0.006 0.066,-0.013 0.097,-0.02 0.084,-0.018 0.17,-0.036 0.255,-0.054 12.868,-2.685 28.804,-9.221 28.777,-20.82 -0.003,-1.201 -0.177,-2.454 -0.542,-3.765 -0.01,-0.033 -0.019,-0.068 -0.029,-0.102 3.237,-0.35 6.476,-0.486 9.615,-0.487 h 0.033 0.038 c 8.736,0.004 16.686,1.043 21.596,1.377 0.148,0.009 0.292,0.019 0.434,0.027 0.289,0.018 0.566,0.033 0.832,0.044 7.182,0.311 15.258,5.8 15.259,12.286 0.001,0.976 -0.182,1.975 -0.578,2.982 -1.482,3.763 -5.383,5.906 -9.052,7.6 -18.875,8.716 -39.36,13.724 -57.806,23.312 -0.097,0.05 -0.193,0.1 -0.289,0.151 -0.015,0.007 -0.03,0.016 -0.045,0.023 -13.128,6.875 -24.926,16.13 -34.91,27.067 C 30.77,-6.142 30.529,-6.893 30.289,-7.644 24.9,-6.871 19.821,-4.105 16.248,0 Z"
                               style="fill:#6e4000;fill-opacity:1;fill-rule:nonzero;stroke:none"
                               id="path139700" />
                          </g>
                        </g>
                      </g>
                      <g
                         transform="translate(55.93337,10.87368)"
                         id="g139714">
                        <g
                           id="g139712">
                          <g
                             id="g139710">
                            <path
                               d="m 59.9164,-12.495 c 34.546,10.12 71.3946,-18.646 80.9946,-53.341 9.6,-34.694 -1.575,-71.835 -17.583,-104.076 -16.009,-32.243 -36.9616,-62.196 -48.8496,-96.173 -3.605,-10.302 -6.371,-21.272 -4.747,-32.067 1.627,-10.794 8.523,-21.379 18.959,-24.583 4.627,-1.42 10.07,-1.565 13.3496,-5.126 6.108,-6.64 -1.386,-17.342 -9.6476,-20.967 -25.354,-11.133 -58.738,10.008 -59.516,37.688 -0.374,13.364 5.499,26.024 8.103,39.136 7.964,40.081 -18.148,84.49 -28.718,123.962 -13.70699,51.167 -20.77799,102 5.415,148.042 z"
                               style="fill:#db8200;fill-opacity:1;fill-rule:nonzero;stroke:none"
                               id="path139708" />
                          </g>
                        </g>
                      </g>
                      <g
                         transform="translate(88.79227,-244.59342)"
                         id="g139722">
                        <g
                           id="g139720">
                          <g
                             id="g139718">
                            <path
                               d="m 36.4051,-35.241 c -0.046,-2.484 0.095,-4.969 0.468,-7.444 1.626,-10.794 8.523,-21.379 18.959,-24.582 4.627,-1.421 10.07,-1.565 13.35,-5.127 1.33,-1.446 2.015,-3.086 2.187,-4.803 0.225,2.365 -0.396,4.662 -2.187,6.609 -3.28,3.562 -8.723,3.706 -13.35,5.127 -10.436,3.204 -17.333,13.788 -18.959,24.581 -0.282,1.876 -0.432,3.757 -0.468,5.639 z M 9.60411,0 c -0.054,-4.963 -0.519,-9.879 -1.483,-14.732 -2.583,-13.005 -8.382,-25.565 -8.112,-38.807 0.252,12.583 5.646,24.589 8.112,37.002 1.081,5.441 1.534,10.96 1.483,16.537 z"
                               style="fill:#78706e;fill-opacity:1;fill-rule:nonzero;stroke:none"
                               id="path139716" />
                          </g>
                        </g>
                      </g>
                      <g
                         transform="translate(88.80128,-177.88142)"
                         id="g139730">
                        <g
                           id="g139728">
                          <g
                             id="g139726">
                            <path
                               d="M 75.789,0 C 71.22,-5.025 66.372,-9.797 61.271,-14.282 61.2,-9.805 60.327,-5.34 58.705,-1.165 55.533,-7.528 51.405,-13.414 46.501,-18.562 45.159,-14.214 43.817,-9.867 42.474,-5.52 32.263,-25.945 20.113,-45.474 9.601,-65.716 c 0,-0.332 -0.002,-0.665 -0.006,-0.996 C 9.646,-72.289 9.193,-77.808 8.112,-83.249 5.647,-95.662 0.252,-107.668 0,-120.251 c 0.003,-0.11 0.005,-0.218 0.008,-0.328 0.634,-22.522 22.855,-40.718 44.773,-40.718 5.019,0 10.019,0.953 14.744,3.027 5.839,2.565 11.294,8.662 11.835,14.361 -0.172,1.717 -0.857,3.357 -2.187,4.803 -3.28,3.562 -8.723,3.706 -13.35,5.127 -10.436,3.203 -17.333,13.788 -18.959,24.582 -0.372,2.475 -0.514,4.96 -0.468,7.444 -0.17,8.948 2.236,17.916 5.215,26.43 9.031,25.814 23.292,49.311 36.644,73.251 -0.83,0.758 -1.648,1.511 -2.466,2.272 z"
                               style="fill:#693b00;fill-opacity:1;fill-rule:nonzero;stroke:none"
                               id="path139724" />
                          </g>
                        </g>
                      </g>
                      <g
                         transform="translate(8.3918,-12.59662)"
                         id="g139738">
                        <g
                           id="g139736">
                          <g
                             id="g139734">
                            <path
                               d="m 59.9164,-12.495 c 34.547,10.12 71.3956,-18.646 80.9926,-53.341 9.6,-34.694 -1.574,-71.835 -17.582,-104.078 -16.007,-32.24 -36.9606,-62.193 -48.8506,-96.171 -3.603,-10.303 -6.369,-21.273 -4.743,-32.066 1.624,-10.795 8.523,-21.38 18.958,-24.583 4.626,-1.422 10.07,-1.564 13.3476,-5.126 6.109,-6.639 -1.386,-17.342 -9.6486,-20.969 -25.355,-11.131 -58.737,10.009 -59.513,37.691 -0.376,13.363 5.499,26.023 8.104,39.133 7.961,40.081 -18.149,84.494 -28.722,123.962 -13.70602,51.169 -20.77402,102 5.416,148.043 z"
                               style="fill:#f79c00;fill-opacity:1;fill-rule:nonzero;stroke:none"
                               id="path139732" />
                          </g>
                        </g>
                      </g>
                      <g
                         transform="translate(12.33548,58.49213)"
                         id="g139746">
                        <g
                           id="g139744">
                          <g
                             id="g139742">
                            <path
                               d="m 5.3389,-192.988 c -4.694,34.376 -8.521,69.585 -1.416,103.5446 7.103,33.96 26.926,66.978 58.369,81.64905 37.213,17.365 84.4001,4.389 112.2451,-25.79505 22.879,-24.8 74.496,-139.2016 135.88,-158.4596 72.109,-22.622 31.292,-64.391 114.341,-87.862 0,0 -59.879,-37.009 -20.162,-86.358 20.517,-25.491 -145.333,55.065 -145.333,55.065 l -75.825,64.992 -70.408,72.217 -64.9951,-21.665 z"
                               style="fill:#f79c00;fill-opacity:1;fill-rule:nonzero;stroke:none"
                               id="path139740" />
                          </g>
                        </g>
                      </g>
                      <g
                         transform="translate(0,185.19954)"
                         id="g139754">
                        <g
                           id="g139752">
                          <g
                             id="g139750">
                            <path
                               d="m 10.8055,-238.726 c -26.895,69.092 -2.68502,172.6594 62.612,211.8364 45.4035,27.24104 104.9655,33.27904 160.2585,20.40304 21.231,-4.94304 42.306,-12.40104 59.874,-24.77304 16.136,-11.361 28.626,-26.349 40.64,-41.273 34.113,-42.3784 74.107,-90.4974 130.433,-96.2294 -49.833,-41.336 -131.418,-48.78 -194.599,-17.754 -50.554,24.825 -92.775,72.209 -148.844,74.322 -40.1545,1.512 -86.0865,-44.079 -100.5295,-89.213 z"
                               style="fill:#f79c00;fill-opacity:1;fill-rule:nonzero;stroke:none"
                               id="path139748" />
                          </g>
                        </g>
                      </g>
                      <g
                         transform="translate(275.59938,142.49388)"
                         id="g139762">
                        <g
                           id="g139760">
                          <g
                             id="g139758">
                            <path
                               d="m 58.591,-29.827 c 34.113,-42.378 74.108,-90.497 130.433,-96.229 -48.38,-40.131 -126.688,-48.31 -189.024,-20.362 9.462,1.721 18.924,3.443 28.387,5.165 -5.398,5.312 -10.234,11.083 -14.411,17.193 7.08,-1.739 14.431,-2.312 21.566,-1.683 -11.206,12.771 -18.545,28.169 -20.928,43.91 8.464,-5.568 18.096,-9.62 28.107,-11.821 -12.363,19.947 -20.037,42.038 -22.326,64.272 6.436,-4.24 12.868,-8.481 19.301,-12.722 C 38.657,-27.973 36.015,-13.847 31.88,0 41.702,-9.168 50.276,-19.498 58.591,-29.827 Z"
                               style="fill:#ffebd1;fill-opacity:1;fill-rule:nonzero;stroke:none"
                               id="path139756" />
                          </g>
                        </g>
                      </g>
                      <g
                         transform="translate(123.93708,-128.68912)"
                         id="g139770">
                        <g
                           id="g139768">
                          <g
                             id="g139766">
                            <path
                               d="m 0,0 c 41.93,-76.161 191.592,-149.901 204.832,-158.927 5.286,-3.603 31.295,-47.543 60.448,-61.802 26.384,-12.907 56.473,-16.368 85.615,-20.37 11.13,-1.529 24.232,-0.866 27.255,9.955 3.899,13.97 -14.035,21.622 -28.235,24.585 -42.605,8.888 -78.315,39.133 -103.032,74.956 -24.715,35.822 -39.9,77.202 -54.834,118.081 z"
                               style="fill:#f79c00;fill-opacity:1;fill-rule:nonzero;stroke:none"
                               id="path139764" />
                          </g>
                        </g>
                      </g>
                      <g
                         transform="translate(336.59318,-68.21742)"
                         id="g139778">
                        <g
                           id="g139776">
                          <g
                             id="g139774">
                            <path
                               d="m 0,-71.9596 c 13.869,15.795 23.934,34.154 37.803,49.95 5.733,6.529 23.487,19.073 31.788,20.761 26.633,5.416 43.566,-7.538 60.14,-24.373 25.775,-26.178 33.023,-33.7 50.206,-40.32 l -7.248,-7.522 -10.596,-10.834 z"
                               style="fill:#f79c00;fill-opacity:1;fill-rule:nonzero;stroke:none"
                               id="path139772" />
                          </g>
                        </g>
                      </g>
                      <g
                         transform="translate(49.41548,-275.50352)"
                         id="g139786">
                        <g
                           id="g139784">
                          <g
                             id="g139782">
                            <path
                               d="m 36.559,-88.949 c 0.021,0 0.043,0 0.064,0 -0.021,0 -0.043,0 -0.064,0 z m 14.355,2.832 c -4.589,-1.939 -9.433,-2.832 -14.291,-2.832 4.86,-0.001 9.7,0.893 14.291,2.832 z m 0.453,0.195 c -0.085,-0.037 -0.172,-0.075 -0.257,-0.112 0.085,0.037 0.172,0.075 0.257,0.112 z m -23.135,57.27 c -0.002,-2.2 0.147,-4.4 0.477,-6.592 1.625,-10.795 8.523,-21.38 18.959,-24.583 4.626,-1.422 10.07,-1.564 13.348,-5.126 1.563,-1.698 2.236,-3.663 2.232,-5.707 0.004,2.044 -0.669,4.009 -2.232,5.707 -3.278,3.562 -8.722,3.704 -13.348,5.126 -10.436,3.203 -17.334,13.788 -18.959,24.583 -0.33,2.192 -0.479,4.392 -0.477,6.592 z M 0.011,-8.827 C 0.007,-8.844 0.004,-8.863 0,-8.88 c 0.004,0.017 0.007,0.036 0.011,0.053 z M 0.054,-8.6 C 0.051,-8.619 0.047,-8.64 0.043,-8.659 0.047,-8.64 0.051,-8.619 0.054,-8.6 Z m 0.041,0.215 c -0.002,-0.01 -0.004,-0.022 -0.006,-0.032 0.002,0.01 0.004,0.022 0.006,0.032 z m 0.088,0.477 C 0.182,-7.917 0.181,-7.922 0.179,-7.931 c 0.002,0.007 0.003,0.016 0.004,0.023 z m 0.042,0.229 C 0.224,-7.685 0.222,-7.693 0.221,-7.698 c 0.001,0.007 0.002,0.011 0.004,0.019 z m 33.398,4.985 c -0.012,-0.033 -0.023,-0.065 -0.035,-0.099 0.012,0.035 0.023,0.065 0.035,0.099 z m 0.141,0.4 c -0.013,-0.037 -0.026,-0.074 -0.04,-0.112 0.014,0.038 0.027,0.074 0.04,0.112 z m 0.141,0.395 c -0.014,-0.04 -0.029,-0.081 -0.043,-0.12 0.015,0.04 0.029,0.08 0.043,0.12 z m 0.137,0.381 c -0.014,-0.037 -0.028,-0.076 -0.041,-0.113 0.014,0.039 0.027,0.075 0.041,0.113 z m 0.138,0.384 c -0.012,-0.035 -0.025,-0.069 -0.037,-0.104 0.012,0.034 0.025,0.07 0.037,0.104 z m 0.139,0.381 c -0.012,-0.031 -0.022,-0.059 -0.033,-0.091 0.011,0.031 0.022,0.06 0.033,0.091 z m 0.14,0.383 c -0.009,-0.025 -0.019,-0.051 -0.028,-0.075 0.009,0.024 0.019,0.05 0.028,0.075 z M 34.595,0 c -0.003,-0.006 -0.003,-0.009 -0.006,-0.015 0.002,0.004 0.004,0.011 0.006,0.015 z"
                               style="fill:#78706e;fill-opacity:1;fill-rule:nonzero;stroke:none"
                               id="path139780" />
                          </g>
                        </g>
                      </g>
                      <g
                         transform="translate(29.00698,-179.58422)"
                         id="g139794">
                        <g
                           id="g139792">
                          <g
                             id="g139790">
                            <path
                               d="M 31.084,0 C 28.361,-10.341 25.642,-20.68 22.921,-31.019 15.28,-22.924 7.64,-14.828 0,-6.731 c 11.591,-31.945 26.197,-65.675 20.633,-96.868 -10e-4,-0.007 -0.002,-0.011 -0.003,-0.019 -0.013,-0.069 -0.025,-0.139 -0.038,-0.209 -10e-4,-0.007 -0.003,-0.016 -0.004,-0.023 -0.028,-0.151 -0.056,-0.304 -0.084,-0.454 -0.002,-0.01 -0.005,-0.022 -0.006,-0.032 -0.012,-0.061 -0.023,-0.121 -0.035,-0.183 -0.004,-0.019 -0.008,-0.04 -0.012,-0.06 -0.01,-0.056 -0.021,-0.111 -0.032,-0.167 -0.003,-0.017 -0.007,-0.036 -0.011,-0.054 -0.014,-0.073 -0.028,-0.144 -0.042,-0.217 -2.523,-12.701 -8.116,-24.978 -8.121,-37.882 0,-0.417 0.005,-0.834 0.017,-1.251 0.631,-22.502 22.81,-40.681 44.705,-40.718 0.022,0 0.043,-0.001 0.065,-0.001 4.858,0.001 9.701,0.894 14.291,2.833 0.065,0.027 0.13,0.055 0.195,0.083 0.085,0.037 0.172,0.074 0.258,0.112 6.148,2.7 11.872,9.317 11.881,15.262 0.003,2.044 -0.67,4.008 -2.233,5.707 -3.277,3.562 -8.721,3.704 -13.348,5.125 -10.435,3.204 -17.334,13.789 -18.958,24.584 -0.331,2.192 -0.48,4.392 -0.477,6.592 0.009,8.63 2.349,17.263 5.22,25.474 0.045,0.128 0.09,0.258 0.135,0.385 0.012,0.034 0.024,0.066 0.035,0.099 0.034,0.095 0.068,0.193 0.102,0.288 0.013,0.037 0.026,0.074 0.04,0.111 0.032,0.092 0.065,0.185 0.098,0.276 0.014,0.039 0.028,0.08 0.042,0.119 0.032,0.09 0.065,0.18 0.097,0.269 0.013,0.037 0.027,0.076 0.04,0.113 0.034,0.093 0.068,0.187 0.101,0.28 0.013,0.035 0.025,0.069 0.038,0.104 0.035,0.096 0.07,0.193 0.105,0.29 0.011,0.031 0.022,0.06 0.033,0.09 0.038,0.103 0.075,0.206 0.113,0.308 0.009,0.025 0.018,0.05 0.027,0.075 0.044,0.12 0.087,0.237 0.131,0.356 0.002,0.006 0.003,0.009 0.005,0.015 11.055,29.97 28.91,56.92 43.758,85.275 -7.466,-9.892 -15.93,-19.027 -25.239,-27.209 -0.068,4.477 -0.941,8.941 -2.565,13.116 -3.172,-6.365 -7.3,-12.249 -12.203,-17.396 -2.515,8.14 -5.028,16.28 -7.542,24.42 -3.446,-7.056 -6.891,-14.116 -10.338,-21.176 -3.263,12.962 -6.527,25.927 -9.79,38.889 z"
                               style="fill:#754500;fill-opacity:1;fill-rule:nonzero;stroke:none"
                               id="path139788" />
                          </g>
                        </g>
                      </g>
                      <g
                         transform="translate(418.28548,-309.79232)"
                         id="g139802">
                        <g
                           id="g139800">
                          <g
                             id="g139798">
                            <path
                               d="M 0,0 C 0.014,-0.028 0.027,-0.056 0.041,-0.083 1.572,-1.199 3.119,-2.287 4.684,-3.348 4.679,-3.329 4.674,-3.309 4.669,-3.289 3.096,-2.22 1.539,-1.123 0,0 Z"
                               style="fill:#6e4000;fill-opacity:1;fill-rule:nonzero;stroke:none"
                               id="path139796" />
                          </g>
                        </g>
                      </g>
                      <g
                         transform="translate(422.95498,-313.08092)"
                         id="g139810">
                        <g
                           id="g139808">
                          <g
                             id="g139806">
                            <path
                               d="m 50.642,-22.114 c 0.086,-0.018 0.169,-0.035 0.255,-0.053 12.868,-2.686 28.804,-9.221 28.777,-20.821 0.027,11.6 -15.909,18.135 -28.777,20.821 -0.085,0.017 -0.171,0.035 -0.255,0.053 z m -0.256,0.054 c 0.054,-0.011 0.104,-0.022 0.159,-0.033 -0.053,0.011 -0.106,0.022 -0.159,0.033 z m -0.259,0.056 c 0.055,-0.012 0.108,-0.023 0.162,-0.035 -0.053,0.011 -0.109,0.024 -0.162,0.035 z m -0.261,0.056 c 0.06,-0.013 0.119,-0.026 0.178,-0.038 -0.058,0.012 -0.119,0.025 -0.178,0.038 z m -0.262,0.057 c 0.065,-0.014 0.13,-0.028 0.195,-0.042 -0.066,0.014 -0.13,0.028 -0.195,0.042 z m -0.266,0.059 c 0.072,-0.016 0.144,-0.032 0.217,-0.048 -0.072,0.016 -0.145,0.032 -0.217,0.048 z M 0,0 C 0.004,-0.02 0.01,-0.041 0.014,-0.06 15.033,-10.248 31.565,-17.888 49.314,-21.827 31.552,-17.884 15.023,-10.21 0,0 Z"
                               style="fill:#381c00;fill-opacity:1;fill-rule:nonzero;stroke:none"
                               id="path139804" />
                          </g>
                        </g>
                      </g>
                      <g
                         transform="translate(413.14438,-305.90702)"
                         id="g139818">
                        <g
                           id="g139816">
                          <g
                             id="g139814">
                            <path
                               d="M 0.014,0 C 0.009,-0.015 0.005,-0.03 0,-0.045 1.706,-1.387 3.432,-2.694 5.182,-3.969 5.169,-3.941 5.155,-3.914 5.141,-3.885 3.41,-2.623 1.702,-1.327 0.014,0 Z"
                               style="fill:#754500;fill-opacity:1;fill-rule:nonzero;stroke:none"
                               id="path139812" />
                          </g>
                        </g>
                      </g>
                      <g
                         transform="translate(360.26348,-292.05702)"
                         id="g139826">
                        <g
                           id="g139824">
                          <g
                             id="g139822">
                            <path
                               d="m 11.028,0 c 4.693,-10.874 9.384,-21.747 14.078,-32.621 -2.462,-0.189 -4.932,-0.284 -7.401,-0.284 -5.935,0 -11.87,0.546 -17.705,1.636 9.536,-9.804 19.955,-18.735 31.033,-26.758 27.149,-9.122 55.114,-15.801 83.535,-19.704 2.695,-0.37 5.507,-0.612 8.262,-0.612 8.623,0 16.703,2.366 18.994,10.567 0.365,1.31 0.539,2.564 0.542,3.764 0.027,11.6 -15.909,18.135 -28.778,20.821 -0.086,0.018 -0.169,0.035 -0.254,0.053 -0.033,0.007 -0.065,0.014 -0.097,0.021 -0.055,0.011 -0.105,0.022 -0.16,0.034 -0.033,0.006 -0.063,0.013 -0.096,0.02 -0.055,0.012 -0.108,0.023 -0.162,0.035 -0.029,0.006 -0.054,0.012 -0.083,0.018 -0.06,0.012 -0.119,0.025 -0.178,0.038 -0.023,0.005 -0.045,0.01 -0.068,0.015 -0.064,0.014 -0.129,0.028 -0.194,0.042 -0.016,0.004 -0.033,0.008 -0.05,0.011 -0.072,0.016 -0.144,0.032 -0.217,0.048 -0.008,0.002 -0.015,0.004 -0.023,0.005 -17.749,3.939 -34.281,11.58 -49.3,21.767 -1.565,1.062 -3.112,2.15 -4.643,3.265 -1.75,1.275 -3.476,2.582 -5.182,3.924 -0.126,-0.394 -0.225,-0.799 -0.371,-1.185 -4.649,3.495 -9.3,6.988 -13.947,10.481 0.468,-5.582 1.554,-11.111 3.231,-16.455 C 33.082,-12.074 22.553,-4.868 11.028,0 Z"
                               style="fill:#754500;fill-opacity:1;fill-rule:nonzero;stroke:none"
                               id="path139820" />
                          </g>
                        </g>
                      </g>
                      <g
                         transform="translate(304.46768,-221.47232)"
                         id="g139834">
                        <g
                           id="g139832">
                          <g
                             id="g139830">
                            <path
                               d="m 82.659,-127.154 c -10.637,7.326 -20.462,15.849 -29.433,25.194 -8.978,9.343 -16.976,19.618 -24.125,30.434 -6.989,10.92 -13.125,22.404 -18.025,34.4 L 7.622,-28.047 4.581,-18.83 2.052,-9.467 0,0 l 2.653,-9.301 3.023,-9.174 3.334,-9.053 3.727,-8.891 c 5.203,-11.746 11.257,-23.115 18.331,-33.828 6.917,-10.817 14.855,-20.961 23.475,-30.487 8.627,-9.524 18.066,-18.323 28.116,-26.42 z"
                               style="fill:#e38c00;fill-opacity:1;fill-rule:nonzero;stroke:none"
                               id="path139828" />
                          </g>
                        </g>
                      </g>
                      <g
                         transform="translate(308.30998,-106.71688)"
                         id="g139842">
                        <g
                           id="g139840">
                          <g
                             id="g139838">
                            <path
                               d="m 142.925,-0.21134 c -24.673,-3.009 -23.471,-23.01896 -65.295,-29.03596 -15.67,-2.255 -33.098,1.204 -64.393,5.416 l 13.844,-26.479 c -9.832,-2.756 -16.689,-4.419 -27.081,-5.416 26.209,-26.904 53.753,-49.9727 96.093,-59.0127 10.511,-2.245 21.438,-3.84 32.307,-3.082 23.801,1.661 41.53,17.212 56.744,30.0887 14.515,12.288 24.82,30.379 23.677,59.086 -16.249,-4.212 -7.688,-0.79 -18.052,-1.504 -17.454,-1.204 -21.553,33.14496 -47.844,29.93896 z"
                               style="fill:#ffebd1;fill-opacity:1;fill-rule:nonzero;stroke:none"
                               id="path139836" />
                          </g>
                        </g>
                      </g>
                      <g
                         transform="translate(339.83808,-41.54518)"
                         id="g139850">
                        <g
                           id="g139848">
                          <g
                             id="g139846">
                            <path
                               d="m 54.8781,-37.2223 c -8.076,16.768 -23.019,30.10196 -40.594,36.22496 -2.006,0.699 -4.165,1.314 -6.23099,0.817 -4.603,-1.106 -6.208,-6.745 -6.781,-11.44396 -3.05,-24.929 -0.595,-50.518 7.144,-74.411 z"
                               style="fill:#f79c00;fill-opacity:1;fill-rule:nonzero;stroke:none"
                               id="path139844" />
                          </g>
                        </g>
                      </g>
                      <g
                         transform="translate(343.97127,-47.33222)"
                         id="g139858">
                        <g
                           id="g139856">
                          <g
                             id="g139854">
                            <path
                               d="m 7.88601,-74.34 c -7.16,22.233 -7.872,32.591 -7.886,55.952 -0.004,8.123 1.336,16.292 3.638,18.388 C 16.577,-12.214 31.026,-35.221 33.484,-53.186 Z"
                               style="fill:#ffebd1;fill-opacity:1;fill-rule:nonzero;stroke:none"
                               id="path139852" />
                          </g>
                        </g>
                      </g>
                      <g
                         transform="translate(343.70738,-44.34452)"
                         id="g139866">
                        <g
                           id="g139864">
                          <g
                             id="g139862">
                            <path
                               d="m 34.097,-55.748 c -1.04,5.486 -2.706,10.76 -5.04,15.73 -2.338,4.967 -5.163,9.697 -8.152,14.357 -2.88,4.758 -6.123,9.097 -9.689,13.355 -1.763,2.127 -3.612,4.192 -5.504,6.219 C 3.872,-4.005 1.917,-2.033 0,0 c 4.503,-3.309 8.666,-7.067 12.554,-11.106 3.913,-3.985 7.404,-8.559 10.334,-13.296 2.97,-4.729 5.82,-9.62 7.833,-14.908 1.003,-2.637 1.843,-5.34 2.444,-8.088 0.53,-2.765 0.914,-5.554 0.932,-8.35 z"
                               style="fill:#d68200;fill-opacity:1;fill-rule:nonzero;stroke:none"
                               id="path139860" />
                          </g>
                        </g>
                      </g>
                      <g
                         transform="translate(348.21968,-81.03212)"
                         id="g139874">
                        <g
                           id="g139872">
                          <g
                             id="g139870">
                            <path
                               d="m 0,-46.729 c 3.282,5.678 5.223,12.175 5.611,18.78 0.994,1.38 2.564,-1.754 4.232,-1.67 1.005,0.052 1.499,1.256 1.763,2.257 1.005,3.822 2.012,7.643 3.018,11.464 1.533,-1.213 3.91,-2.364 5.145,-0.843 0.365,0.447 0.512,1.036 0.649,1.603 0.962,3.948 1.924,7.896 2.885,11.843 0.381,-1.641 2.658,-2.19 4,-1.229 1.343,0.962 1.784,2.848 1.584,4.524 l 9.074,-5.816 -21.398,-32.943 z"
                               style="fill:#f79c00;fill-opacity:1;fill-rule:nonzero;stroke:none"
                               id="path139868" />
                          </g>
                        </g>
                      </g>
                      <g
                         transform="translate(348.21968,-81.03212)"
                         id="g139882">
                        <g
                           id="g139880">
                          <g
                             id="g139878">
                            <path
                               d="m 0,-46.729 c 0.698,1.501 1.336,3.017 1.896,4.556 0.562,1.537 0.991,3.116 1.402,4.686 0.812,3.148 1.258,6.375 1.324,9.597 l 0.007,0.311 0.179,0.211 0.431,0.446 c 0.221,0.139 0.443,0.273 0.721,0.3 0.567,0.087 0.93,-0.099 1.221,-0.229 0.535,-0.289 0.858,-0.584 1.187,-0.841 0.601,-0.521 1.289,-0.92 1.42,-0.841 0.012,-0.067 0.381,0.301 0.588,0.996 0.197,0.632 0.408,1.557 0.612,2.321 0.81,3.212 1.653,6.415 2.529,9.608 l 0.476,1.733 1.34,-1.127 c 1.069,-0.899 2.692,-1.606 3.307,-1.28 0.617,0.035 0.916,2.165 1.368,3.654 l 2.687,9.481 0.849,3.003 0.37,-3.009 c 0.14,-1.145 2.051,-1.861 3.24,-1.044 1.256,0.83 1.781,2.577 1.733,4.197 0.321,-1.584 0.11,-3.52 -1.313,-4.755 -0.73,-0.616 -1.746,-0.819 -2.685,-0.631 -0.927,0.163 -1.93,0.855 -2.196,1.95 l 1.218,-0.007 -1.973,-9.654 -0.537,-2.406 c -0.097,-0.417 -0.209,-0.902 -0.482,-1.422 -0.273,-0.529 -0.739,-1.008 -1.318,-1.308 -1.223,-0.585 -2.409,-0.305 -3.281,0.033 -0.909,0.358 -1.68,0.849 -2.405,1.405 l 1.815,0.606 c -0.81,-3.212 -1.653,-6.415 -2.532,-9.61 -0.234,-0.831 -0.387,-1.524 -0.688,-2.471 -0.163,-0.459 -0.372,-0.934 -0.744,-1.416 -0.351,-0.472 -1.053,-0.992 -1.854,-1.016 -1.593,0.056 -2.222,0.937 -2.878,1.417 -0.307,0.272 -0.61,0.529 -0.803,0.641 l 0.034,0.039 0.152,0.077 0.183,0.52 C 6.281,-31.367 5.568,-34.673 4.496,-37.844 3.966,-39.431 3.27,-40.958 2.534,-42.448 1.792,-43.938 0.952,-45.375 0,-46.729 Z"
                               style="fill:#d68200;fill-opacity:1;fill-rule:nonzero;stroke:none"
                               id="path139876" />
                          </g>
                        </g>
                      </g>
                      <g
                         transform="translate(340.97898,-40.99852)"
                         id="g139890">
                        <g
                           id="g139888">
                          <g
                             id="g139886">
                            <path
                               d="m 0,-13.0588 c 0.028,0.24 0.048,0.481 0.078,0.721 0.574,4.69899 0.383,11.12799 4.985,12.23399 2.067,0.49601 6.022,-0.909 8.028,-1.607 1.567,-0.547 3.105,-1.17 4.629,-1.827 -2.548,0.53 -5.224,0.453 -7.707,-0.331 -4.503,-1.42 -8.248,-5.053 -9.804,-9.51099 z"
                               style="fill:#754500;fill-opacity:1;fill-rule:nonzero;stroke:none"
                               id="path139884" />
                          </g>
                        </g>
                      </g>
                      <g
                         transform="translate(491.67482,-133.62118)"
                         id="g139898">
                        <g
                           id="g139896">
                          <g
                             id="g139894">
                            <path
                               d="m 14.5688,-18.026 c -3.36,2.812 -9.13603,8.005 -13.51503,11.98296 -2.141,1.944 -0.806,5.5 2.086,5.57 l 18.96803,0.472 c 2.791,0.068 4.328,-3.217 2.49,-5.317 L 19.0258,-17.668 c -1.148,-1.31 -3.121,-1.476 -4.457,-0.358 z"
                               style="fill:#120300;fill-opacity:1;fill-rule:nonzero;stroke:none"
                               id="path139892" />
                          </g>
                        </g>
                      </g>
                      <g
                         transform="translate(481.19148,-173.65524)"
                         id="g139906">
                        <g
                           id="g139904">
                          <g
                             id="g139902">
                            <path
                               d="m 0,-6.09198 c 4.966,-2.343 10.504,-2.474 15.425,-0.775 2.46,0.83 4.723,2.196 6.648,3.944 0.498,0.423 0.902,0.937 1.366,1.403 0.415,0.482 0.966,1.191 1.801,1.427 0.865,0.287 1.703,-0.144 2.229,-0.564 0.567,-0.43 1.03,-0.916 1.551,-1.371 -1.207,0.51 -2.517,1.628 -3.452,1.063 -0.481,-0.225 -0.773,-0.698 -1.159,-1.288 -0.44,-0.55 -0.833,-1.151 -1.324,-1.663 -1.918,-2.102 -4.392,-3.7 -7.089,-4.611 -2.699,-0.893 -5.593,-1.223 -8.393,-0.828 -2.797,0.392 -5.485,1.514 -7.603,3.263 z"
                               style="fill:#120300;fill-opacity:1;fill-rule:nonzero;stroke:none"
                               id="path139900" />
                          </g>
                        </g>
                      </g>
                      <g
                         transform="translate(506.88141,-144.99172)"
                         id="g139914">
                        <g
                           id="g139912">
                          <g
                             id="g139910">
                            <path
                               d="m 0.92277,0 c 0.695,-2.309 0.884,-4.739 0.989,-7.135 0.108,-2.405 0.014,-4.808 -0.121,-7.2 -0.306,-4.787 -0.937,-9.531 -1.772,-14.249 -0.069,2.403 0.066,4.794 0.181,7.181 l 0.42,7.142 c 0.163,2.375 0.287,4.75 0.392,7.126 0.081,2.375 0.129,4.746 -0.089,7.135 z"
                               style="fill:#120300;fill-opacity:1;fill-rule:nonzero;stroke:none"
                               id="path139908" />
                          </g>
                        </g>
                      </g>
                      <g
                         transform="translate(448.71278,-118.29685)"
                         id="g139922">
                        <g
                           id="g139920">
                          <g
                             id="g139918">
                            <path
                               d="m 20.586,-3.91017 c -3.766,1.68 -7.635,2.169 -11.234,1.278 -1.792,-0.423 -3.493,-1.24 -5.067,-2.3 -1.57,-1.08 -2.986,-2.43 -4.285,-4.053 0.863,4.12 4.503,7.578 8.79,8.633 4.287,1.058 9.118,-0.308 11.796,-3.558 z"
                               style="fill:#754500;fill-opacity:1;fill-rule:nonzero;stroke:none"
                               id="path139916" />
                          </g>
                        </g>
                      </g>
                      <g
                         transform="translate(119.61558,1.46888)"
                         id="g139930">
                        <g
                           id="g139928">
                          <g
                             id="g139926">
                            <path
                               d="m 22.383,-161.44 c 7.716,27.533 13.325,56.092 11.163,84.603 C 31.384,-48.326 20.765,-19.654 0,0 c 10.405,-5.002 19.521,-12.66 26.241,-22.049 17.582,-24.567 17.233,-57.234 16.18,-87.427 -0.721,-20.65 -3.454,-43.415 -4.175,-64.066 z"
                               style="fill:#e38c00;fill-opacity:1;fill-rule:nonzero;stroke:none"
                               id="path139924" />
                          </g>
                        </g>
                      </g>
                      <g
                         transform="translate(457.59898,-130.38342)"
                         id="g139938">
                        <g
                           id="g139936">
                          <g
                             id="g139934">
                            <path
                               d="m 0,-3.737 c 0.969,-1.597 2.277,-2.729 3.716,-3.449 1.439,-0.696 3.013,-0.95 4.369,-0.518 1.304,0.352 2.424,1.508 3.062,2.923 0.608,1.418 0.817,3.14 -0.133,4.781 1.73,-0.929 2.386,-3.357 1.882,-5.333 C 12.464,-7.347 10.968,-9.281 8.751,-9.956 6.607,-10.577 4.326,-9.975 2.736,-8.73 1.125,-7.514 0.023,-5.635 0,-3.737 Z"
                               style="fill:#120300;fill-opacity:1;fill-rule:nonzero;stroke:none"
                               id="path139932" />
                          </g>
                        </g>
                      </g>
                    </g>
                  </g>
                </g>
              </g>
            </g>
          </g>
        </g>
      </g>
    </g>
  </g>
</svg>
