<?xml version="1.0" encoding="UTF-8" standalone="no"?>
<!-- Created with Inkscape (http://www.inkscape.org/) -->

<svg
   version="1.1"
   id="svg18"
   width="300"
   height="300"
   viewBox="0 0 300 300"
   sodipodi:docname="1522_pic.svg"
   inkscape:version="1.2.1 (9c6d41e410, 2022-07-14)"
   xmlns:inkscape="http://www.inkscape.org/namespaces/inkscape"
   xmlns:sodipodi="http://sodipodi.sourceforge.net/DTD/sodipodi-0.dtd"
   xmlns="http://www.w3.org/2000/svg"
   xmlns:svg="http://www.w3.org/2000/svg">
  <sodipodi:namedview
     id="namedview1572"
     pagecolor="#ffffff"
     bordercolor="#000000"
     borderopacity="0.25"
     inkscape:showpageshadow="2"
     inkscape:pageopacity="0.0"
     inkscape:pagecheckerboard="0"
     inkscape:deskcolor="#d1d1d1"
     showgrid="false"
     inkscape:zoom="3.010349"
     inkscape:cx="84.375599"
     inkscape:cy="213.5965"
     inkscape:window-width="1700"
     inkscape:window-height="1396"
     inkscape:window-x="8"
     inkscape:window-y="28"
     inkscape:window-maximized="1"
     inkscape:current-layer="svg18" />
  <defs
     id="defs22">
    <clipPath
       clipPathUnits="userSpaceOnUse"
       id="clipPath7032">
      <path
         d="m 155.25,550.3 h 634.5 v 539.401 h -634.5 z"
         id="path7030" />
    </clipPath>
    <clipPath
       clipPathUnits="userSpaceOnUse"
       id="clipPath7044">
      <path
         d="m 500.504,1075.978 c -33.103,-14.772 -57.613,-52.205 -52.77,-88.954 v 0 c 2.443,-18.569 16.486,-41.179 38.189,-37.356 v 0 c 22.558,3.978 20.049,34.184 34.088,47.421 v 0 c 18.375,17.319 57.608,13.256 75.141,-3.327 v 0 c 16.312,-15.43 20.925,-42.468 17.097,-63.87 v 0 c -0.883,-4.943 -2.225,-9.795 -3.911,-14.525 v 0 C 595.46,879.247 565.195,851.638 544.542,820.02 v 0 C 523.147,787.26 505.063,750.029 502.338,710.429 v 0 c -1.53,-22.304 4.969,-46.72 23.711,-60.35 v 0 c 18.139,-13.19 51.695,-19.107 54.465,10.852 v 0 c 4.14,44.775 4.986,89.154 29.266,128.537 v 0 c 14.988,24.311 34.964,46.193 50.318,69.989 v 0 c 24.408,37.825 41.033,81.21 28.622,126.38 v 0 c -12.156,44.254 -44.838,85.62 -90.918,96.786 v 0 c -11.572,2.805 -24.884,4.29 -38.472,4.29 v 0 c -20.704,0 -42.045,-3.45 -58.826,-10.935"
         id="path7042" />
    </clipPath>
    <clipPath
       clipPathUnits="userSpaceOnUse"
       id="clipPath7072">
      <path
         d="m 155.25,550.3 h 634.5 v 539.401 h -634.5 z"
         id="path7070" />
    </clipPath>
    <clipPath
       clipPathUnits="userSpaceOnUse"
       id="clipPath7080">
      <path
         d="M 447.13,1020.09 H 692.929 V 639.27 H 447.13 Z"
         id="path7078" />
    </clipPath>
    <clipPath
       clipPathUnits="userSpaceOnUse"
       id="clipPath7084">
      <path
         d="m 447.13,639.27 h 245.799 v 380.824 H 447.13 Z"
         id="path7082" />
    </clipPath>
    <clipPath
       clipPathUnits="userSpaceOnUse"
       id="clipPath7112">
      <path
         d="m 237.735,776.981 c 1.201,0.213 2.408,0.404 3.621,0.566 v 0 c -1.22,-0.134 -2.428,-0.324 -3.621,-0.566 m -71.681,-62.656 c -11.517,-32.501 -5.749,-69.951 12.475,-99.219 v 0 c 5.347,-8.588 11.756,-16.601 19.616,-22.967 v 0 c 13.322,-10.797 30.117,-16.351 46.858,-20.066 v 0 c 28.175,-6.247 57.18,-7.88 86.042,-8.089 v 0 c 18.08,-0.13 119.792,-8.014 116.273,22.212 v 0 c -0.935,8.043 -7.439,14.316 -14.302,18.614 v 0 c -16.078,10.063 -35.612,13.033 -54.576,13.434 v 0 c -14.896,0.312 -29.749,-0.218 -44.594,-0.751 v 0 c -19.138,-0.689 -38.26,-1.375 -57.447,-0.245 v 0 c -26.392,1.558 -55.337,7.763 -70.966,29.09 v 0 c -11.207,15.291 -13.206,35.407 -12.694,54.36 v 0 c 0.449,16.58 2.646,33.532 10.354,48.222 v 0 c 7.135,13.599 19.727,25.018 34.642,28.061 v 0 c -32.636,-5.856 -60.569,-31.31 -71.681,-62.656"
         id="path7110" />
    </clipPath>
    <clipPath
       clipPathUnits="userSpaceOnUse"
       id="clipPath7136">
      <path
         d="m 155.25,550.3 h 634.5 v 539.401 h -634.5 z"
         id="path7134" />
    </clipPath>
    <clipPath
       clipPathUnits="userSpaceOnUse"
       id="clipPath7144">
      <path
         d="M 296.694,618.34 H 447.407 V 563.779 H 296.694 Z"
         id="path7142" />
    </clipPath>
    <clipPath
       clipPathUnits="userSpaceOnUse"
       id="clipPath7148">
      <path
         d="M 296.694,563.779 H 447.407 V 618.34 H 296.694 Z"
         id="path7146" />
    </clipPath>
    <clipPath
       clipPathUnits="userSpaceOnUse"
       id="clipPath7172">
      <path
         d="m 675.539,712.633 c -23.672,-3.216 -47.029,-5.761 -70.956,-6.031 v 0 c -46.824,-0.531 -93.454,4.659 -139.996,9.091 v 0 c -14.008,1.333 -31.158,1.174 -38.34,-10.926 v 0 c -5.094,-8.578 -2.399,-20.091 3.891,-27.836 v 0 c 6.287,-7.749 15.455,-12.511 24.48,-16.773 v 0 c 63.595,-30.037 133.894,-45.774 204.225,-45.72 v 0 c 14.56,0.015 29.393,0.743 43.065,5.745 v 0 c 20.43,7.472 41.952,5.519 58.044,23.511 v 0 c 23.782,26.591 14.913,64.499 -21.268,72.005 v 0 c -5.79,1.2 -11.863,1.673 -18.057,1.673 v 0 c -15.129,0 -30.964,-2.822 -45.088,-4.739"
         id="path7170" />
    </clipPath>
    <clipPath
       clipPathUnits="userSpaceOnUse"
       id="clipPath7188">
      <path
         d="m 155.25,550.3 h 634.5 v 539.401 h -634.5 z"
         id="path7186" />
    </clipPath>
    <clipPath
       clipPathUnits="userSpaceOnUse"
       id="clipPath7200">
      <path
         d="m 366.04,700.39 c -10.428,-1.526 -21.104,-4.568 -28.837,-11.724 v 0 c -22.489,-20.817 -13.087,-58.587 3.553,-79.334 v 0 c 17.494,-21.808 45.372,-34.782 72.04,-41.183 v 0 c 24.092,-5.784 49.03,-6.869 73.785,-7.927 v 0 c 39.162,-1.675 78.327,-3.351 117.492,-5.026 v 0 c 18.433,-0.792 37.018,-1.572 55.235,1.337 v 0 c 12.933,2.066 66.399,16.764 55.485,39.48 v 0 c -3.728,7.767 -12.682,11.313 -20.915,13.858 v 0 c -42.198,13.037 -86.652,17.922 -128.491,32.067 v 0 c -33.23,11.232 -64.241,28.114 -96.798,41.171 v 0 c -26.381,10.578 -54.558,18.683 -82.763,18.683 v 0 c -6.603,0 -13.205,-0.444 -19.786,-1.402"
         id="path7198" />
    </clipPath>
    <clipPath
       clipPathUnits="userSpaceOnUse"
       id="clipPath7216">
      <path
         d="m 155.25,550.3 h 634.5 v 539.401 h -634.5 z"
         id="path7214" />
    </clipPath>
    <clipPath
       clipPathUnits="userSpaceOnUse"
       id="clipPath7228">
      <path
         d="M 423.587,716.249 H 773.203 V 614.438 H 423.587 Z"
         id="path7226" />
    </clipPath>
    <clipPath
       clipPathUnits="userSpaceOnUse"
       id="clipPath7232">
      <path
         d="M 423.587,614.438 H 773.203 V 716.249 H 423.587 Z"
         id="path7230" />
    </clipPath>
    <clipPath
       clipPathUnits="userSpaceOnUse"
       id="clipPath7256">
      <path
         d="m 384.631,727.6 c -14.223,-2.918 -27.456,-9.309 -38.22,-19.06 v 0 c -14.809,-13.418 -23.477,-31.834 -22.647,-52.076 v 0 c 0.132,-3.204 0.519,-6.484 2.009,-9.324 v 0 c 3.38,-6.462 11.599,-8.957 18.871,-8.353 v 0 c 7.268,0.599 14.098,3.585 21.177,5.338 v 0 c 18.705,4.628 36.228,-0.202 54.228,-5.526 v 0 c 45.708,-13.715 90.49,-31.926 135.367,-48.549 v 0 c 5.096,-1.886 10.194,-3.755 15.296,-5.597 v 0 c 39.766,-14.33 80.214,-27.915 122.496,-32.234 v 0 c 17.838,-1.82 36.258,-1.919 53.241,3.85 v 0 c 16.981,5.762 32.434,18.182 38.225,35.154 v 0 c 5.79,16.975 -0.28,38.257 -16.026,46.836 v 0 c -6.746,3.672 -14.518,4.856 -22.117,5.981 v 0 c -44.728,6.626 -87.617,12.977 -131.109,25.787 v 0 c -41.726,12.288 -82.788,26.686 -124.17,40.06 v 0 c -27.304,8.827 -56.657,19.745 -85.836,19.745 v 0 c -6.948,0 -13.886,-0.618 -20.785,-2.032"
         id="path7254" />
    </clipPath>
    <clipPath
       clipPathUnits="userSpaceOnUse"
       id="clipPath7284">
      <path
         d="m 155.25,550.3 h 634.5 v 539.401 h -634.5 z"
         id="path7282" />
    </clipPath>
    <clipPath
       clipPathUnits="userSpaceOnUse"
       id="clipPath7296">
      <path
         d="m 424.144,975.839 c -9.185,-20.769 -5.857,-44.199 0.982,-65.15 v 0 c 8.917,-27.311 23.059,-70.64 53.915,-75.348 v 0 c 14.18,-2.159 27.816,4.462 36.969,16.028 v 0 c 25.802,32.608 46.041,91.481 25.362,132.441 v 0 c -10.927,21.648 -31.95,31.58 -53.546,31.58 v 0 c -25.826,0 -52.474,-14.199 -63.682,-39.551"
         id="path7294" />
    </clipPath>
    <clipPath
       clipPathUnits="userSpaceOnUse"
       id="clipPath7324">
      <path
         d="m 155.25,550.3 h 634.5 v 539.401 h -634.5 z"
         id="path7322" />
    </clipPath>
    <clipPath
       clipPathUnits="userSpaceOnUse"
       id="clipPath7332">
      <path
         d="M 420.082,638.525 H 661.898 V 554.47 H 420.082 Z"
         id="path7330" />
    </clipPath>
    <clipPath
       clipPathUnits="userSpaceOnUse"
       id="clipPath7336">
      <path
         d="m 420.082,554.47 h 241.816 v 84.055 H 420.082 Z"
         id="path7334" />
    </clipPath>
  </defs>
  <g
     id="g18982"
     transform="matrix(0.44443999,0,0,-0.44443999,-60.427447,514.00263)">
    <g
       id="g7026">
      <g
         id="g7028"
         clip-path="url(#clipPath7032)">
        <g
           id="g7034"
           transform="translate(609.7804,789.4691)">
          <path
             d="m 0,0 c -24.28,-39.383 -25.124,-83.762 -29.266,-128.539 -2.77,-29.957 -36.327,-24.041 -54.465,-10.851 -18.743,13.63 -25.244,38.044 -23.712,60.349 2.728,39.601 20.81,76.832 42.205,109.592 20.65,31.618 50.917,59.228 63.795,95.345 1.687,4.732 3.029,9.584 3.915,14.528 3.827,21.402 -0.787,48.44 -17.1,63.87 -17.533,16.583 -56.766,20.645 -75.142,3.325 -14.038,-13.236 -11.529,-43.441 -34.089,-47.419 -21.703,-3.825 -35.744,18.787 -38.19,37.353 -4.84,36.749 19.671,74.185 52.773,88.954 27.793,12.401 68.095,13.724 97.296,6.649 C 34.101,281.989 66.784,240.62 78.94,196.369 91.351,151.196 74.728,107.814 50.318,69.989 34.964,46.192 14.988,24.311 0,0"
             style="fill:#43722e;fill-opacity:1;fill-rule:nonzero;stroke:none"
             id="path7036" />
        </g>
      </g>
    </g>
    <g
       id="g7038">
      <g
         id="g7040"
         clip-path="url(#clipPath7044)">
        <g
           id="g7046"
           transform="translate(472.4575,1068.6211)">
          <path
             d="m 0,0 c 0.446,-0.987 2.617,-3.628 7.354,-5.895 7.364,-3.527 17.229,-4.21 29.337,-2.021 2.65,0.477 5.239,1.086 7.979,1.727 4.699,1.105 9.558,2.246 15.173,2.841 1.856,0.195 3.908,0.371 6.095,0.559 16.343,1.4 32.36,3.487 33.089,12.081 0.127,1.474 -0.162,3.358 -0.86,5.606 -0.653,2.108 -1.121,2.686 -1.173,2.745 -0.138,0.103 -0.827,0.514 -3.063,1.306 -3.835,1.363 -6.572,1.4 -11.546,1.473 -1.358,0.019 -2.775,0.04 -4.283,0.089 C 63.8,20.984 51.57,20.22 40.723,18.171 30.14,16.17 20.512,12.854 12.11,8.315 L 10.766,7.594 C 7.472,5.829 2.493,3.165 0.789,1.139 0.327,0.59 0.103,0.209 0,0 m 23.85,-35.001 c -10.335,0 -19.593,1.936 -27.659,5.794 h 0.003 c -11.595,5.554 -19.443,14.28 -21.529,23.949 -1.715,7.948 0.538,16.127 6.344,23.03 4.903,5.834 11.921,9.591 17.56,12.61 l 1.264,0.677 c 10.74,5.801 22.885,10.009 36.089,12.509 12.737,2.403 26.809,3.308 43.035,2.777 1.339,-0.045 2.594,-0.064 3.801,-0.082 5.888,-0.083 11.976,-0.172 19.824,-2.958 3.876,-1.377 8.364,-3.28 12.227,-6.939 3.587,-3.399 6.217,-7.918 8.042,-13.815 1.713,-5.521 2.345,-10.573 1.927,-15.446 -2.632,-31.019 -37.762,-34.026 -56.634,-35.643 -2.004,-0.174 -3.879,-0.331 -5.58,-0.512 -4.004,-0.423 -7.883,-1.335 -11.985,-2.298 -2.944,-0.693 -5.987,-1.405 -9.302,-2.004 -6.102,-1.1 -11.917,-1.649 -17.427,-1.649"
             style="fill:#9cc342;fill-opacity:1;fill-rule:nonzero;stroke:none"
             id="path7048" />
        </g>
        <g
           id="g7050"
           transform="translate(578.9883,1013.6543)">
          <path
             d="m 0,0 c -1.955,0 -2.892,-0.728 -3.444,-1.313 -1.229,-1.302 -1.868,-3.506 -1.551,-5.357 1.99,-11.689 7.918,-23.125 16.693,-32.199 7.441,-7.69 11.259,-8.157 11.946,-8.171 6.508,-0.134 7.13,2.206 7.73,4.473 v 0.002 c 0.747,2.836 0.719,6.805 -0.078,10.893 -2.122,10.886 -9.349,20.878 -19.83,27.41 C 7.46,-1.769 4.041,-0.395 1.017,-0.059 0.648,-0.019 0.312,0 0,0 m 24.085,-72.888 c -0.336,0 -0.667,0.002 -1.005,0.007 -9.925,0.216 -19.725,5.465 -29.962,16.045 -12.537,12.965 -20.695,28.813 -23.592,45.828 -1.687,9.922 1.386,20.174 8.226,27.427 6.661,7.062 15.93,10.333 26.101,9.21 6.955,-0.768 13.914,-3.369 21.278,-7.958 16.548,-10.31 28.044,-26.494 31.533,-44.402 1.09,-5.585 1.922,-14.008 -0.303,-22.429 -3.933,-14.915 -15.963,-23.728 -32.276,-23.728"
             style="fill:#9cc342;fill-opacity:1;fill-rule:nonzero;stroke:none"
             id="path7052" />
        </g>
        <g
           id="g7054"
           transform="translate(682.9493,1002.4505)">
          <path
             d="m 0,0 c -0.385,0 -1.083,-0.169 -2.35,-0.973 -3.583,-2.265 -5.836,-8.202 -6.898,-18.155 -1.619,-15.26 -1.109,-30.664 1.516,-45.783 1.024,-5.883 2.521,-12.474 5.892,-16.729 2.239,-2.827 5.625,-4.199 7.27,-3.656 0.82,0.27 3.738,1.826 6.675,10.416 5.538,16.167 6.05,34.425 1.443,51.417 C 10.235,-11.247 4.065,-1.508 0.381,-0.073 0.312,-0.047 0.197,0 0,0 m 4.598,-111.259 c -9.842,0 -19.837,4.899 -26.703,13.579 -6.961,8.794 -9.513,19.264 -11.092,28.345 -3.035,17.483 -3.625,35.295 -1.748,52.937 1.241,11.687 4.539,28.266 18.782,37.271 10.703,6.767 20.002,5.444 25.918,3.139 18.367,-7.147 26.637,-32.971 28.738,-40.713 5.942,-21.919 5.253,-45.553 -1.932,-66.551 -4.866,-14.205 -12.617,-23.152 -23.042,-26.59 -2.897,-0.954 -5.902,-1.417 -8.921,-1.417"
             style="fill:#9cc342;fill-opacity:1;fill-rule:nonzero;stroke:none"
             id="path7056" />
        </g>
        <g
           id="g7058"
           transform="translate(603.8077,891.4913)">
          <path
             d="m 0,0 c -1.626,0 -4.368,-0.414 -7.862,-1.856 -18.791,-7.763 -40.555,-24.628 -40.069,-46.622 0.08,-3.635 0.825,-6.57 2.096,-8.261 1.419,-1.892 4.727,-2.832 6.922,-1.972 1.776,0.691 4.06,2.531 6.266,4.309 7.063,5.696 14.433,11.884 20.481,18.574 l 0.002,0.002 c 9.819,10.855 14.196,20.798 13.78,31.289 -0.1,2.634 -0.34,3.877 -0.519,4.452 C 0.827,-0.035 0.456,0 0,0 m -40.777,-84.882 c -9.877,0 -19.665,4.553 -25.727,12.624 -4.619,6.151 -7.063,13.961 -7.265,23.211 -0.507,22.958 13.947,53.69 56.037,71.076 16.153,6.676 30.704,4.552 38.927,-5.69 5.092,-6.335 6.013,-13.938 6.248,-19.852 0.693,-17.44 -5.994,-33.68 -20.439,-49.65 -7.248,-8.015 -15.545,-15.005 -23.432,-21.363 -3.388,-2.73 -7.606,-6.127 -13.104,-8.268 -3.623,-1.414 -7.441,-2.088 -11.245,-2.088"
             style="fill:#9cc342;fill-opacity:1;fill-rule:nonzero;stroke:none"
             id="path7060" />
        </g>
        <g
           id="g7062"
           transform="translate(597.3695,776.8355)">
          <path
             d="m 0,0 c -2.888,0 -6.217,-1.083 -9.302,-3.078 -11.179,-7.232 -19.337,-20.3 -21.825,-34.954 -2.239,-13.191 0.418,-25.46 7.476,-34.553 1.779,-2.291 2.641,-3.028 3.045,-3.242 0.254,-0.134 1.055,-0.268 2.503,-0.35 2.514,0.016 7.76,0.051 10.669,10.859 1.917,7.129 3.017,14.497 4.18,22.295 1.271,8.499 2.584,17.286 5.061,26.127 2.378,8.494 1.694,15.108 0.622,16.609 -0.032,0.005 -0.112,0.029 -0.22,0.052 C 1.516,-0.078 0.773,0 0,0 m -18.186,-102.022 c -5.406,0 -10.272,1.12 -14.468,3.329 -5.136,2.709 -8.649,6.703 -11.407,10.253 -11.558,14.88 -16.012,34.318 -12.549,54.729 3.679,21.672 16.118,41.237 33.27,52.336 9.776,6.323 21.169,8.635 31.267,6.346 L 7.93,24.969 c 7.208,-1.636 12.988,-5.804 16.71,-12.051 7.587,-12.732 3.964,-29.966 2.053,-36.785 -2.041,-7.286 -3.179,-14.905 -4.384,-22.974 -1.222,-8.174 -2.483,-16.63 -4.788,-25.189 -5.097,-18.95 -18.021,-29.88 -35.462,-29.992 z"
             style="fill:#9cc342;fill-opacity:1;fill-rule:nonzero;stroke:none"
             id="path7064" />
        </g>
      </g>
    </g>
    <g
       id="g7066">
      <g
         id="g7068"
         clip-path="url(#clipPath7072)">
        <g
           id="g7074">
          <g
             id="g7076" />
          <g
             id="g7100">
            <g
               clip-path="url(#clipPath7080)"
               opacity="0.300003"
               id="g7098">
              <g
                 id="g7096">
                <g
                   clip-path="url(#clipPath7084)"
                   id="g7094">
                  <g
                     transform="translate(595.1484,993.7623)"
                     id="g7088">
                    <path
                       d="M 0,0 C 11.386,-10.768 17.058,-27.191 18.153,-43.408 19.508,-23.782 14.177,-1.607 0,11.804 c -17.532,16.583 -56.765,20.648 -75.141,3.325 -14.039,-13.233 -11.532,-43.441 -34.09,-47.417 -21.703,-3.827 -35.744,18.785 -38.19,37.351 -0.148,1.13 -0.267,2.261 -0.361,3.393 -0.397,-5.037 -0.306,-10.122 0.361,-15.197 2.446,-18.566 16.487,-41.178 38.19,-37.353 22.558,3.978 20.051,34.186 34.09,47.421 C -56.765,20.648 -17.532,16.586 0,0"
                       style="fill:#231f20;fill-opacity:1;fill-rule:nonzero;stroke:none"
                       id="path7086" />
                  </g>
                  <g
                     transform="translate(660.094,871.2606)"
                     id="g7092">
                    <path
                       d="m 0,0 c -15.354,-23.794 -35.33,-45.678 -50.318,-69.986 -24.28,-39.384 -25.124,-83.764 -29.266,-128.54 -2.77,-29.959 -36.327,-24.043 -54.465,-10.852 -15.385,11.186 -22.509,29.637 -23.724,48.224 -1.452,-22.219 5.071,-46.462 23.724,-60.028 18.138,-13.191 51.695,-19.107 54.465,10.85 4.142,44.778 4.986,89.158 29.266,128.539 C -35.33,-57.482 -15.354,-35.598 0,-11.802 19.79,18.862 34.456,53.182 32.689,89.142 31.167,57.48 17.612,27.292 0,0"
                       style="fill:#231f20;fill-opacity:1;fill-rule:nonzero;stroke:none"
                       id="path7090" />
                  </g>
                </g>
              </g>
            </g>
          </g>
        </g>
        <g
           id="g7102"
           transform="translate(331.0447,563.985)">
          <path
             d="m 0,0 c 18.08,-0.132 119.792,-8.014 116.275,22.21 -0.94,8.045 -7.441,14.316 -14.304,18.614 C 85.893,50.887 66.359,53.859 47.398,54.261 13.291,54.98 -20.577,51.256 -54.646,53.264 c -26.393,1.556 -55.337,7.763 -70.964,29.088 -11.207,15.293 -13.209,35.408 -12.694,54.362 0.449,16.578 2.643,33.532 10.352,48.22 7.709,14.687 21.776,26.829 38.265,28.629 -34.179,-4.558 -63.784,-30.725 -75.304,-63.224 -11.517,-32.499 -5.749,-69.949 12.477,-99.22 5.345,-8.585 11.754,-16.599 19.614,-22.967 13.322,-10.793 30.116,-16.35 46.857,-20.062 C -57.865,1.84 -28.862,0.209 0,0"
             style="fill:#2b4a1e;fill-opacity:1;fill-rule:nonzero;stroke:none"
             id="path7104" />
        </g>
      </g>
    </g>
    <g
       id="g7106">
      <g
         id="g7108"
         clip-path="url(#clipPath7112)">
        <g
           id="g7114"
           transform="translate(323.0381,574.8472)">
          <path
             d="m 0,0 c -2.194,0 -4.281,-0.169 -6.25,-0.508 -5.439,-0.935 -11.628,-4.076 -12.391,-8.058 -1.215,-6.335 3.827,-10.362 8.512,-11.882 v -0.003 c 4.758,-1.543 10.406,-1.931 16.259,-2.222 12.326,-0.609 26.369,-0.816 37.36,4.389 -1.724,3.665 -6.341,7.389 -13.054,10.451 C 19.09,-2.66 8.712,0 0,0 m 16.863,-48.831 c -4.112,0 -8.134,0.153 -12.011,0.343 -7.359,0.367 -15.192,0.933 -22.965,3.459 v -0.003 c -18.455,5.996 -29.353,23.378 -25.911,41.336 3.356,17.493 20.087,26.369 33.392,28.66 15.148,2.596 32.577,-0.519 51.794,-9.283 15.972,-7.286 25.76,-17.941 28.307,-30.81 0.884,-4.464 0.668,-8.618 -0.643,-12.351 -3.027,-8.628 -10.83,-12.474 -13.395,-13.738 -12.526,-6.177 -25.96,-7.613 -38.568,-7.613"
             style="fill:#7c9b34;fill-opacity:1;fill-rule:nonzero;stroke:none"
             id="path7116" />
        </g>
        <g
           id="g7118"
           transform="translate(239.8056,627.6939)">
          <path
             d="m 0,0 c 2.277,-4.041 11.393,-11.099 17.687,-13.432 7.143,-2.653 12.733,-3.32 16.609,-2 2.564,0.874 4.14,3.4 4.091,4.192 -0.012,0.03 -0.482,1.546 -4.49,4.219 C 23.81,-0.301 6.118,4.215 0,0 m 29.908,-41.947 c -6.481,0 -13.503,1.424 -21.205,4.281 -6.53,2.42 -31.55,15.387 -34.677,34.6 -1.427,8.757 1.922,16.905 9.426,22.943 C 2.155,34.931 33.11,24.558 48.229,14.485 56.291,9.112 61.206,2.996 63.252,-4.208 67.348,-18.613 58.1,-34.623 42.635,-39.895 c -4.008,-1.368 -8.237,-2.052 -12.727,-2.052"
             style="fill:#7c9b34;fill-opacity:1;fill-rule:nonzero;stroke:none"
             id="path7120" />
        </g>
        <g
           id="g7122"
           transform="translate(164.9962,632.4456)">
          <path
             d="m 0,0 c -2.35,-4.929 -1.027,-15.397 2.859,-21.505 2.402,-3.779 6.102,-6.539 9.899,-7.385 2.528,-0.566 4.758,0.037 5.336,0.667 0.221,0.247 1.337,1.72 1.492,6.917 0.202,6.821 -1.605,15.97 -7.368,19.302 H 12.215 C 8.895,-0.08 2.446,0.735 0,0 m 14.833,-54.97 c -2.538,0 -5.125,0.279 -7.707,0.855 -10.486,2.34 -19.99,9.17 -26.075,18.738 -8.21,12.911 -11.929,34.707 -2.65,49.672 9.727,15.69 33.819,13.554 46.751,6.078 13.254,-7.664 20.829,-23.531 20.267,-42.449 -0.303,-10.125 -2.998,-17.836 -8.244,-23.578 -5.496,-6.015 -13.637,-9.316 -22.342,-9.316"
             style="fill:#7c9b34;fill-opacity:1;fill-rule:nonzero;stroke:none"
             id="path7124" />
        </g>
        <g
           id="g7126"
           transform="translate(194.6431,709.2446)">
          <path
             d="m 0,0 c -2.18,-2.023 -4.02,-4.96 -5.324,-8.491 -1.835,-4.977 -2.068,-9.915 -0.637,-13.545 1.133,-2.879 3.814,-5.235 6.102,-5.365 2.411,-0.225 5.613,2.226 7.067,5.275 1.859,3.879 2.023,9.267 0.463,15.169 C 6.396,-2.117 4.673,1.057 3.515,2.613 2.629,2.124 1.386,1.285 0,0 m 0.336,-53.25 c -0.552,0 -1.102,0.014 -1.656,0.044 -12.322,0.698 -23.848,9.415 -28.686,21.694 -3.783,9.6 -3.628,20.953 0.434,31.965 2.745,7.434 6.781,13.656 11.997,18.496 l 0.005,0.005 C -6.837,28.904 5.388,31.625 15.133,26.219 25.843,20.293 30.711,7.023 32.661,-0.357 34.87,-8.724 36.291,-21.224 30.525,-33.279 24.729,-45.393 12.751,-53.25 0.336,-53.25"
             style="fill:#7c9b34;fill-opacity:1;fill-rule:nonzero;stroke:none"
             id="path7128" />
        </g>
      </g>
    </g>
    <g
       id="g7130">
      <g
         id="g7132"
         clip-path="url(#clipPath7136)">
        <g
           id="g7138">
          <g
             id="g7140" />
          <g
             id="g7160">
            <g
               clip-path="url(#clipPath7144)"
               opacity="0.300003"
               id="g7158">
              <g
                 id="g7156">
                <g
                   clip-path="url(#clipPath7148)"
                   id="g7154">
                  <g
                     transform="translate(433.0153,604.8085)"
                     id="g7152">
                    <path
                       d="m 0,0 c -16.078,10.063 -35.612,13.035 -54.573,13.437 -27.325,0.578 -54.5,-1.694 -81.748,-1.588 1.604,-2.608 3.32,-5.073 5.124,-7.324 17.495,-21.808 45.37,-34.783 72.038,-41.185 8.063,-1.936 16.226,-3.313 24.44,-4.37 26.839,1.863 50.759,7.495 49.023,22.417 C 13.364,-10.568 6.863,-4.297 0,0"
                       style="fill:#231f20;fill-opacity:1;fill-rule:nonzero;stroke:none"
                       id="path7150" />
                  </g>
                </g>
              </g>
            </g>
          </g>
        </g>
        <g
           id="g7162"
           transform="translate(759.9525,643.6956)">
          <path
             d="m 0,0 c -16.094,-17.993 -37.614,-16.04 -58.043,-23.514 -13.673,-5.003 -28.508,-5.731 -43.065,-5.743 -70.332,-0.056 -140.633,15.684 -204.229,45.72 -9.022,4.26 -18.19,9.025 -24.477,16.774 -6.29,7.744 -8.985,19.257 -3.891,27.835 7.182,12.1 24.332,12.258 38.338,10.925 46.544,-4.431 93.174,-9.621 139.998,-9.092 23.93,0.272 47.285,2.817 70.954,6.031 19.908,2.702 43.211,7.204 63.147,3.069 C 14.913,64.495 23.782,26.588 0,0"
             style="fill:#2b4a1e;fill-opacity:1;fill-rule:nonzero;stroke:none"
             id="path7164" />
        </g>
      </g>
    </g>
    <g
       id="g7166">
      <g
         id="g7168"
         clip-path="url(#clipPath7172)">
        <g
           id="g7174"
           transform="translate(589.7219,715.4374)">
          <path
             d="m 0,0 c 0.007,-0.033 0.002,-0.113 0.007,-0.226 0.139,-3.381 2.281,-7.262 5.735,-10.378 9.89,-8.916 24.635,-13.404 39.431,-11.987 13.317,1.266 24.477,7.02 31.42,16.2 1.748,2.315 2.237,3.334 2.34,3.785 0.064,0.282 0.068,1.123 -0.312,2.5 -0.67,2.427 -2.068,7.484 -13.254,7.484 H 65.358 C 57.975,7.378 50.572,6.522 42.736,5.622 34.205,4.638 25.375,3.67 16.203,3.715 7.373,3.867 1.17,1.426 0,0 m 39.921,-48.685 c -19.278,-0.003 -38.088,6.811 -51.483,18.886 -8.649,7.795 -13.844,18.199 -14.253,28.547 -0.296,7.384 2.225,14.048 7.291,19.266 10.324,10.637 27.906,11.597 34.987,11.546 7.561,-0.08 15.216,0.803 23.317,1.736 8.214,0.947 16.708,1.927 25.578,1.927 h 0.009 c 19.614,0 33.523,-9.64 38.166,-26.449 1.464,-5.308 1.671,-10.381 0.606,-15.08 -1.28,-5.662 -4.222,-10.091 -6.933,-13.674 -11.365,-15.025 -28.975,-24.379 -49.588,-26.341 -2.565,-0.244 -5.136,-0.364 -7.697,-0.364"
             style="fill:#7c9b34;fill-opacity:1;fill-rule:nonzero;stroke:none"
             id="path7176" />
        </g>
        <g
           id="g7178"
           transform="translate(744.5334,629.6464)">
          <path
             d="m 0,0 c 5.63,0 11.372,-0.167 17.213,-0.801 8.771,-0.952 15.185,0.81 16.489,2.114 -0.002,0.033 0.007,0.113 0.014,0.224 0.198,3.381 -1.558,7.45 -4.692,10.887 -8.973,9.843 -23.204,15.743 -38.07,15.787 -0.058,0 -0.117,0.003 -0.176,0.003 -13.306,0 -24.901,-4.634 -32.678,-13.057 -1.966,-2.131 -2.554,-3.101 -2.699,-3.543 -0.09,-0.268 -0.179,-1.104 0.065,-2.512 0.43,-2.486 1.326,-7.652 12.47,-8.745 7.347,-0.719 14.797,-0.594 22.68,-0.463 C -6.292,-0.052 -3.165,0 0,0 m 22.114,-26.905 c -3.111,0 -5.785,0.205 -7.685,0.411 -7.524,0.813 -15.221,0.682 -23.378,0.548 -8.264,-0.141 -16.814,-0.284 -25.641,0.583 -19.525,1.917 -32.431,12.87 -35.41,30.053 -0.938,5.422 -0.646,10.488 0.869,15.06 1.83,5.517 5.193,9.636 8.24,12.937 12.725,13.785 31.068,21.372 51.667,21.372 0.087,0 0.171,-0.003 0.258,-0.003 21.98,-0.066 43.321,-9.121 57.085,-24.217 7.843,-8.601 11.999,-19.463 11.398,-29.801 -0.43,-7.383 -3.591,-13.766 -9.14,-18.463 -8.257,-6.985 -19.861,-8.48 -28.263,-8.48"
             style="fill:#7c9b34;fill-opacity:1;fill-rule:nonzero;stroke:none"
             id="path7180" />
        </g>
      </g>
    </g>
    <g
       id="g7182">
      <g
         id="g7184"
         clip-path="url(#clipPath7188)">
        <g
           id="g7190"
           transform="translate(659.3092,556.5327)">
          <path
             d="M 0,0 C 12.932,2.065 66.398,16.764 55.485,39.482 51.754,47.247 42.802,50.795 34.569,53.337 -7.629,66.377 -52.083,71.26 -93.924,85.404 c -33.227,11.233 -64.239,28.115 -96.797,41.171 -32.555,13.054 -67.838,22.345 -102.548,17.281 -10.428,-1.522 -21.104,-4.565 -28.839,-11.724 -22.487,-20.815 -13.084,-58.586 3.555,-79.33 17.495,-21.811 45.37,-34.783 72.04,-41.186 24.092,-5.784 49.03,-6.868 73.785,-7.927 39.163,-1.675 78.327,-3.351 117.492,-5.026 C -36.803,-2.126 -18.221,-2.906 0,0"
             style="fill:#43722e;fill-opacity:1;fill-rule:nonzero;stroke:none"
             id="path7192" />
        </g>
      </g>
    </g>
    <g
       id="g7194">
      <g
         id="g7196"
         clip-path="url(#clipPath7200)">
        <g
           id="g7202"
           transform="translate(358.0646,572.8487)">
          <path
             d="m 0,0 c -1.196,0.959 -2.415,1.882 -3.642,2.791 -7.495,5.569 -15.11,10.63 -17.711,20.604 -2.408,9.236 2.035,20.575 11.147,23.413 5.126,1.598 10.671,0.387 15.847,-1.041 6.671,-1.842 13.264,-4.041 19.513,-7.013 C 41.007,31.214 68.283,12.601 57.957,-8.411 53.112,-18.27 41.989,-17.589 32.553,-17.389 20.27,-17.131 9.206,-7.394 0,0 Z"
             style="fill:none;stroke:#9cc342;stroke-width:25.845;stroke-linecap:butt;stroke-linejoin:miter;stroke-miterlimit:10;stroke-dasharray:none;stroke-opacity:1"
             id="path7204" />
        </g>
        <g
           id="g7206"
           transform="translate(505.3766,579.918)">
          <path
             d="m 0,0 c -5.052,5.174 -8.23,11.586 -7.317,19.337 1.546,13.092 19.537,16.451 30.566,16.677 9.046,0.186 17.943,-2.096 26.674,-4.478 17.11,-4.664 35.013,-10.327 46.886,-23.503 2.53,-2.808 4.802,-6.078 5.333,-9.821 0.811,-5.716 -2.746,-11.391 -7.577,-14.56 -4.828,-3.167 -10.714,-4.255 -16.463,-4.807 C 60.647,-22.838 43.03,-20.147 26.39,-14.83 18.049,-12.166 7.15,-7.321 0,0 Z"
             style="fill:none;stroke:#9cc342;stroke-width:25.845;stroke-linecap:butt;stroke-linejoin:miter;stroke-miterlimit:10;stroke-dasharray:none;stroke-opacity:1"
             id="path7208" />
        </g>
      </g>
    </g>
    <g
       id="g7210">
      <g
         id="g7212"
         clip-path="url(#clipPath7216)">
        <g
           id="g7218"
           transform="translate(481.18,839.2388)">
          <path
             d="m 0,0 -2.737,-61.692 5.477,9.945 4.858,-8.827 c 0,0 -1.846,47.433 -1.846,60.574 C 5.752,13.143 0,0 0,0"
             style="fill:#d73d47;fill-opacity:1;fill-rule:nonzero;stroke:none"
             id="path7220" />
        </g>
        <g
           id="g7222">
          <g
             id="g7224" />
          <g
             id="g7244">
            <g
               clip-path="url(#clipPath7228)"
               opacity="0.300003"
               id="g7242">
              <g
                 id="g7240">
                <g
                   clip-path="url(#clipPath7232)"
                   id="g7238">
                  <g
                     transform="translate(773.1708,677.9225)"
                     id="g7236">
                    <path
                       d="m 0,0 c -3.433,-5.134 -8.51,-9.201 -14.175,-11.743 -18.268,-8.2 -41.813,-2.697 -60.835,-0.336 -21.122,2.629 -42.158,6.029 -62.918,10.759 -42.41,9.668 -84.288,21.477 -126.421,32.25 -5.178,1.325 -10.429,2.713 -15.739,4.09 -9.499,0.912 -18.994,1.845 -28.486,2.749 -14.008,1.335 -31.158,1.175 -38.34,-10.923 -5.094,-8.581 -2.397,-20.091 3.891,-27.838 6.289,-7.748 15.455,-12.511 24.477,-16.773 63.598,-30.037 133.897,-45.774 204.231,-45.72 14.558,0.012 29.388,0.742 43.062,5.745 20.432,7.471 41.949,5.519 58.046,23.514 C -3.816,-23.726 0.463,-11.464 0,0"
                       style="fill:#231f20;fill-opacity:1;fill-rule:nonzero;stroke:none"
                       id="path7234" />
                  </g>
                </g>
              </g>
            </g>
          </g>
        </g>
        <g
           id="g7246"
           transform="translate(555.4171,590.0482)">
          <path
             d="m 0,0 c -44.877,16.625 -89.659,34.837 -135.367,48.549 -18,5.326 -35.526,10.157 -54.228,5.528 -7.079,-1.752 -13.909,-4.739 -21.179,-5.34 -7.27,-0.602 -15.488,1.894 -18.872,8.355 -1.487,2.84 -1.877,6.12 -2.006,9.325 -0.83,20.239 7.838,38.657 22.645,52.076 10.763,9.75 23.998,16.141 38.22,19.057 35.868,7.354 72.815,-6.783 106.623,-17.711 41.38,-13.374 82.441,-27.772 124.167,-40.062 43.495,-12.81 86.384,-19.158 131.112,-25.787 7.596,-1.123 15.371,-2.307 22.114,-5.979 15.747,-8.581 21.816,-29.861 16.027,-46.836 -5.79,-16.973 -21.243,-29.393 -38.223,-35.157 -16.983,-5.765 -35.403,-5.669 -53.241,-3.846 C 95.507,-33.509 55.062,-19.924 15.296,-5.594 10.195,-3.755 5.096,-1.887 0,0"
             style="fill:#43722e;fill-opacity:1;fill-rule:nonzero;stroke:none"
             id="path7248" />
        </g>
      </g>
    </g>
    <g
       id="g7250">
      <g
         id="g7252"
         clip-path="url(#clipPath7256)">
        <g
           id="g7258"
           transform="translate(334.6551,690.7786)">
          <path
             d="M 0.754,-0.195 C 1.231,-0.28 1.96,-0.35 3.005,-0.334 c 8.362,0.162 16.992,4.617 26.129,9.333 6.6,3.404 13.423,6.926 20.998,9.377 15.341,4.964 31.571,5.185 48.258,5.002 0.092,-0.002 0.186,-0.002 0.28,-0.002 7.257,0 15.901,3.322 18.256,7.048 0.338,0.536 1.04,1.65 -0.555,4.911 -1.518,3.094 -4.835,6.186 -9.863,9.184 -11.821,7.051 -26.945,10.733 -44.952,10.94 -4.617,0.042 -9.278,-0.592 -13.829,-1.92 L 47.724,53.537 C 28.216,47.846 10.345,29.501 2.197,6.797 0.937,3.296 0.712,0.963 0.754,-0.195 m 1.934,-25.986 c -10.216,-0.002 -16.44,3.757 -19.889,6.955 -4.875,4.52 -12.002,15.051 -4.929,34.754 11.019,30.697 35.013,54.768 62.615,62.823 v -0.003 c 7.002,2.044 14.208,2.98 21.372,2.956 22.626,-0.263 42.101,-5.171 57.89,-14.586 9.537,-5.691 16.024,-12.237 19.833,-20.011 5.127,-10.465 4.842,-21.151 -0.806,-30.089 C 130.344,3.275 111.799,-2.596 98.085,-2.467 83.642,-2.296 69.707,-2.453 58.09,-6.215 52.529,-8.012 46.923,-10.907 40.986,-13.968 30.154,-19.558 17.875,-25.894 3.505,-26.174 3.231,-26.179 2.956,-26.181 2.688,-26.181"
             style="fill:#9cc342;fill-opacity:1;fill-rule:nonzero;stroke:none"
             id="path7260" />
        </g>
        <g
           id="g7262"
           transform="translate(603.0047,595.048)">
          <path
             d="m 0,0 c -6.184,-0.999 -7.476,-5.803 -7.472,-9.659 0.012,-7.183 2.329,-12.486 14.502,-19.917 7.692,-4.69 17.636,-6.624 28.166,-8.67 2.568,-0.501 5.118,-0.996 7.622,-1.53 7.157,-1.524 16.478,0.038 19.56,3.269 0.435,0.458 1.344,1.412 0.421,4.924 -0.879,3.334 -3.527,7.014 -7.864,10.94 -10.209,9.238 -24.313,15.817 -41.93,19.56 C 8.797,-0.19 3.961,0.641 0,0 m 48.704,-66.189 c -3.985,0 -7.822,0.401 -11.261,1.134 -2.359,0.501 -4.761,0.969 -7.178,1.438 -11.734,2.282 -25.037,4.866 -36.696,11.978 -12.499,7.632 -26.85,19.29 -26.886,41.942 -0.026,18.24 11.708,32.389 29.201,35.211 8.16,1.318 15.946,0.075 22.489,-1.316 22.138,-4.701 40.272,-13.341 53.902,-25.676 8.23,-7.446 13.305,-15.138 15.514,-23.517 2.972,-11.268 0.592,-21.688 -6.701,-29.341 -8.092,-8.491 -20.862,-11.853 -32.384,-11.853"
             style="fill:#9cc342;fill-opacity:1;fill-rule:nonzero;stroke:none"
             id="path7264" />
        </g>
        <g
           id="g7266"
           transform="translate(467.0793,642.1653)">
          <path
             d="m 0,0 c -0.898,0 -1.793,-0.016 -2.69,-0.049 -16.814,-0.618 -26.059,-4.892 -27.535,-8.597 -1.842,-4.629 -0.535,-10.397 3.038,-13.419 4.098,-3.465 11.191,-4.555 17.591,-5.166 13.682,-1.307 27.892,-1.993 39.156,1.814 4.99,1.684 8.801,4.522 10.455,7.788 1.382,2.726 1.18,4.161 -0.874,6.142 -0.815,0.787 -1.842,1.532 -3.049,2.211 C 25.373,-3.256 12.655,0 0,0 m 8.578,-54.11 c -6.917,0 -13.855,0.503 -20.631,1.151 -10.381,0.989 -22.279,3.09 -31.82,11.158 -12.053,10.192 -16.316,27.753 -10.367,42.708 6.074,15.277 23.574,23.876 50.601,24.872 18.476,0.691 36.596,-3.651 52.388,-12.523 3.134,-1.76 5.942,-3.827 8.343,-6.149 C 67.366,-2.812 69.601,-16.43 63.069,-29.318 58.311,-38.7 49.35,-46.011 37.835,-49.902 28.472,-53.067 18.545,-54.11 8.578,-54.11"
             style="fill:#9cc342;fill-opacity:1;fill-rule:nonzero;stroke:none"
             id="path7268" />
        </g>
        <g
           id="g7270"
           transform="translate(573.1282,695.395)">
          <path
             d="m 0,0 c -6.132,0 -12.521,-0.594 -18.966,-1.812 -1.682,-0.314 -5.65,-1.228 -6.151,-2.859 -1.092,-3.538 -3.646,-11.825 11.419,-19.504 17.875,-9.109 45.845,-8.855 55.351,-2.265 3.221,2.233 3.184,3.875 3.162,4.667 -0.082,3.526 -3.78,9.435 -9.825,13.216 C 26.017,-2.942 13.637,0 0,0 m 18.745,-57.026 c -15.188,0 -31.339,3.282 -44.177,9.823 -21.561,10.987 -30.678,29.732 -24.383,50.147 2.349,7.62 8.778,17.387 26.063,20.646 12.96,2.438 45.967,6.332 72.449,-10.235 C 61.732,5.2 70.35,-8.353 70.654,-21.165 70.903,-31.71 65.832,-41.127 56.378,-47.682 47.376,-53.918 33.516,-57.026 18.745,-57.026"
             style="fill:#9cc342;fill-opacity:1;fill-rule:nonzero;stroke:none"
             id="path7272" />
        </g>
        <g
           id="g7274"
           transform="translate(712.9474,649.8356)">
          <path
             d="m 0,0 c 0.174,-0.287 0.367,-0.566 0.578,-0.808 3.029,-3.452 10.683,-6.027 13.197,-6.875 4.112,-1.382 8.299,-2.627 12.728,-3.943 15.086,-4.483 30.685,-9.118 44.127,-19.644 0.994,-0.783 1.978,-1.596 2.965,-2.413 2.3,-1.906 4.904,-4.065 6.438,-4.424 0.63,-0.116 2.016,0.65 2.211,1.247 0.644,1.981 -1.565,6.718 -6.934,11.583 C 66.34,-17.145 54.218,-10.423 38.258,-4.73 22.528,0.881 12.366,3.177 0.505,0.134 0.327,0.087 0.155,0.045 0,0 m 80.136,-63.96 c -1.983,0 -3.982,0.221 -5.961,0.682 -7.473,1.738 -12.798,6.153 -17.074,9.696 -0.803,0.668 -1.602,1.333 -2.415,1.967 -9.568,7.495 -22.185,11.245 -35.546,15.213 -4.453,1.323 -9.058,2.693 -13.609,4.225 -7.808,2.627 -17.636,6.633 -24.391,14.337 -8.973,10.242 -11.55,26.714 -0.341,36.564 4.333,3.804 9.375,5.444 13.287,6.447 20.035,5.129 36.43,0.301 52.856,-5.555 19.229,-6.86 34.186,-15.281 45.727,-25.746 13.129,-11.903 18.289,-26.019 14.151,-38.73 -3.71,-11.405 -14.957,-19.1 -26.684,-19.1"
             style="fill:#9cc342;fill-opacity:1;fill-rule:nonzero;stroke:none"
             id="path7276" />
        </g>
      </g>
    </g>
    <g
       id="g7278">
      <g
         id="g7280"
         clip-path="url(#clipPath7284)">
        <g
           id="g7286"
           transform="translate(516.0093,851.3686)">
          <path
             d="m 0,0 c 25.803,32.607 46.044,91.482 25.363,132.442 -24,47.536 -96.649,38.577 -117.228,-7.97 -9.185,-20.77 -5.858,-44.199 0.982,-65.15 8.916,-27.314 23.058,-70.64 53.915,-75.348 C -22.786,-18.188 -9.154,-11.567 0,0"
             style="fill:#43722e;fill-opacity:1;fill-rule:nonzero;stroke:none"
             id="path7288" />
        </g>
      </g>
    </g>
    <g
       id="g7290">
      <g
         id="g7292"
         clip-path="url(#clipPath7296)">
        <g
           id="g7298"
           transform="translate(571.8616,1006.0436)">
          <path
             d="m 0,0 c -2.629,7.246 -8.012,13.562 -15.056,16.492 -14.741,6.132 -33.885,5.046 -49.507,5.044 -29.713,-0.005 -60.527,-0.93 -87.216,-13.994 -16.936,-8.287 -17.413,-34.703 -15.58,-50.706 1.071,-9.344 8.355,-13.392 16.313,-16.961 13.865,-6.215 28.669,-13.691 38.178,-26.172 6.727,-8.825 12.309,-26.472 26.369,-25.248 12.375,1.076 19.645,15.977 25.887,24.926 5.346,7.657 12.472,13.16 20.573,17.69 7.787,4.351 16.548,7.989 22.697,14.682 7.103,7.73 11.665,17.491 14.873,27.392 C 0.266,-18.404 3.146,-8.675 0,0"
             style="fill:#9cc342;fill-opacity:1;fill-rule:nonzero;stroke:none"
             id="path7300" />
        </g>
        <g
           id="g7302"
           transform="translate(419.5995,897.988)">
          <path
             d="m 0,0 c 6.734,-4.8 12.626,-10.73 17.936,-17.088 5.259,-6.412 9.897,-13.315 14.3,-20.301 l 6.63,-10.476 c 1.083,-1.767 2.225,-3.466 3.252,-5.303 1.029,-1.814 1.986,-3.635 3.031,-5.369 2.044,-3.477 4.605,-6.588 8.045,-8.432 3.402,-1.847 7.472,-2.623 11.414,-2.912 1.964,-0.122 3.839,0.043 5.587,0.752 1.76,0.689 3.438,1.807 5.035,3.001 3.189,2.417 5.978,5.392 8.536,8.554 2.55,3.168 4.934,6.551 7.223,9.934 2.244,3.412 4.316,6.96 6.417,10.515 4.142,7.152 8.651,14.167 13.916,20.589 5.329,6.344 11.586,12.074 18.982,15.824 -3.553,-2.112 -6.835,-4.624 -9.856,-7.401 -2.998,-2.812 -5.722,-5.897 -8.226,-9.145 -5.031,-6.498 -9.309,-13.526 -13.247,-20.763 -3.872,-7.302 -8.4,-14.334 -13.54,-20.89 -2.601,-3.265 -5.468,-6.393 -8.842,-9.001 -1.691,-1.285 -3.465,-2.507 -5.549,-3.352 -2.085,-0.872 -4.425,-1.095 -6.57,-0.961 -4.248,0.357 -8.489,1.174 -12.366,3.296 -3.886,2.119 -6.717,5.686 -8.794,9.302 -3.863,7.373 -8.425,14.137 -12.605,21.287 C 22.302,-24.226 12.906,-10.434 0,0"
             style="fill:#231f20;fill-opacity:1;fill-rule:nonzero;stroke:none"
             id="path7304" />
        </g>
        <g
           id="g7306"
           transform="translate(458.6585,982.3552)">
          <path
             d="m 0,0 c -2.514,0 -5.049,-0.94 -6.75,-3.076 -6.755,-8.479 -9.765,-15.295 -9.758,-22.107 0.002,-3.529 5.977,-6.224 11.182,-8.176 l 1.16,-0.442 c 7.763,-2.953 10.416,-3.235 11.807,-1.259 3.242,4.596 2.652,13.211 2.178,20.133 l -0.174,2.611 c -0.148,2.46 -0.4,5.018 -1.229,7.051 C 7.822,-3.802 6.858,-2.599 5.554,-1.687 4.011,-0.604 2.011,0 0,0 m 5.258,-50.407 c -5.413,0 -10.751,2.03 -14.438,3.432 l -1.102,0.419 c -6.076,2.279 -20.309,7.624 -20.323,21.359 -0.014,13.252 7.316,23.985 12.831,30.906 7.377,9.262 21.47,11.121 31.42,4.15 3.508,-2.46 6.215,-5.851 7.827,-9.81 1.6,-3.926 2.032,-8.023 2.246,-11.513 l 0.162,-2.497 c 0.597,-8.668 1.41,-20.535 -4.718,-29.222 -3.882,-5.507 -8.926,-7.224 -13.905,-7.224"
             style="fill:#43722e;fill-opacity:1;fill-rule:nonzero;stroke:none"
             id="path7308" />
        </g>
        <g
           id="g7310"
           transform="translate(509.6742,982.3552)">
          <path
             d="m 0,0 c -2.014,0 -4.011,-0.604 -5.554,-1.687 h -0.003 c -1.304,-0.912 -2.265,-2.115 -2.859,-3.576 -0.832,-2.035 -1.083,-4.593 -1.229,-7.053 l -0.176,-2.611 c -0.472,-6.922 -1.065,-15.537 2.176,-20.133 1.395,-1.974 4.043,-1.694 11.808,1.259 l 1.161,0.442 c 5.204,1.952 11.179,4.647 11.182,8.176 0.009,6.809 -3.001,13.626 -9.756,22.107 C 5.047,-0.94 2.512,0 0,0 m -5.258,-50.407 c -4.979,0 -10.026,1.717 -13.907,7.224 -6.126,8.687 -5.313,20.554 -4.718,29.222 l 0.162,2.497 c 0.214,3.49 0.648,7.587 2.248,11.516 1.612,3.956 4.317,7.347 7.824,9.807 9.948,6.971 24.043,5.11 31.421,-4.147 5.517,-6.927 12.847,-17.662 12.831,-30.909 -0.012,-13.735 -14.245,-19.08 -20.324,-21.359 l -1.102,-0.419 c -3.684,-1.402 -9.022,-3.432 -14.435,-3.432"
             style="fill:#43722e;fill-opacity:1;fill-rule:nonzero;stroke:none"
             id="path7312" />
        </g>
        <g
           id="g7314"
           transform="translate(488.0463,994.6445)">
          <path
             d="m 0,0 c -7.756,0 -15.744,2.474 -22.053,7.091 -7.549,5.519 -11.731,13.399 -11.781,22.184 l 14.098,0.078 c 0.028,-5.387 3.282,-8.893 6.005,-10.885 5.428,-3.967 13.433,-5.426 19.48,-3.544 6.69,2.084 12.397,7.74 14.535,14.413 l 13.423,-4.31 C 30.154,13.954 21.05,4.927 9.943,1.464 6.783,0.477 3.414,0 0,0"
             style="fill:#43722e;fill-opacity:1;fill-rule:nonzero;stroke:none"
             id="path7316" />
        </g>
      </g>
    </g>
    <g
       id="g7318">
      <g
         id="g7320"
         clip-path="url(#clipPath7324)">
        <g
           id="g7326">
          <g
             id="g7328" />
          <g
             id="g7348">
            <g
               clip-path="url(#clipPath7332)"
               opacity="0.300003"
               id="g7346">
              <g
                 id="g7344">
                <g
                   clip-path="url(#clipPath7336)"
                   id="g7342">
                  <g
                     transform="translate(661.8996,557.0122)"
                     id="g7340">
                    <path
                       d="m 0,0 c -31.176,6.309 -61.474,16.661 -91.388,27.443 -5.099,1.84 -10.197,3.707 -15.294,5.594 -44.799,16.597 -89.506,34.771 -135.134,48.476 32.966,-16.292 65.301,-34.315 97.805,-51.439 4.809,-2.532 9.621,-5.047 14.44,-7.53 15.707,-8.099 31.555,-16.069 47.694,-23.331 8.016,-0.343 16.035,-0.686 24.052,-1.029 18.43,-0.79 37.015,-1.57 55.233,1.337 C -1.856,-0.362 -0.977,-0.2 0,0"
                       style="fill:#231f20;fill-opacity:1;fill-rule:nonzero;stroke:none"
                       id="path7338" />
                  </g>
                </g>
              </g>
            </g>
          </g>
        </g>
        <g
           id="g7350"
           transform="translate(453.279,898.8519)">
          <path
             d="m 0,0 c 1.56,-7.81 -0.789,-14.863 -4.608,-15.625 -5.124,-1.024 -11.571,4.272 -13.129,12.084 -1.56,7.81 2.326,15.171 7.481,16.2 C -5.956,13.517 -1.56,7.81 0,0"
             style="fill:#003730;fill-opacity:1;fill-rule:nonzero;stroke:none"
             id="path7352" />
        </g>
        <g
           id="g7354"
           transform="translate(450.855,897.8986)">
          <path
             d="m 0,0 c 0.482,-4.478 -1.41,-8.357 -4.227,-8.661 -2.817,-0.303 -5.491,3.083 -5.972,7.564 -0.484,4.478 1.409,8.355 4.226,8.66 C -3.158,7.866 -0.484,4.481 0,0"
             style="fill:#231f20;fill-opacity:1;fill-rule:nonzero;stroke:none"
             id="path7356" />
        </g>
        <g
           id="g7358"
           transform="translate(443.3909,902.1869)">
          <path
             d="m 0,0 c 0.312,-1.57 -0.707,-3.099 -2.277,-3.414 -1.572,-0.312 -3.101,0.707 -3.414,2.279 -0.314,1.57 0.705,3.097 2.277,3.412 C -1.842,2.592 -0.315,1.572 0,0"
             style="fill:#ffffff;fill-opacity:1;fill-rule:nonzero;stroke:none"
             id="path7360" />
        </g>
        <g
           id="g7362"
           transform="translate(515.1442,898.8519)">
          <path
             d="m 0,0 c -1.56,-7.81 0.789,-14.863 4.607,-15.625 5.125,-1.024 11.572,4.272 13.132,12.084 1.558,7.81 -2.328,15.171 -7.486,16.2 C 5.956,13.517 1.56,7.81 0,0"
             style="fill:#003730;fill-opacity:1;fill-rule:nonzero;stroke:none"
             id="path7364" />
        </g>
        <g
           id="g7366"
           transform="translate(517.5671,897.8986)">
          <path
             d="M 0,0 C -0.482,-4.478 1.412,-8.357 4.229,-8.661 7.044,-8.964 9.72,-5.578 10.202,-1.097 10.683,3.381 8.79,7.258 5.975,7.563 3.158,7.866 0.484,4.481 0,0"
             style="fill:#231f20;fill-opacity:1;fill-rule:nonzero;stroke:none"
             id="path7368" />
        </g>
        <g
           id="g7370"
           transform="translate(518.462,902.1869)">
          <path
             d="M 0,0 C -0.315,-1.57 0.705,-3.099 2.277,-3.414 3.849,-3.726 5.376,-2.707 5.691,-1.135 6.003,0.435 4.983,1.962 3.412,2.277 1.842,2.592 0.315,1.572 0,0"
             style="fill:#ffffff;fill-opacity:1;fill-rule:nonzero;stroke:none"
             id="path7372" />
        </g>
      </g>
    </g>
  </g>
</svg>
