<?xml version="1.0" encoding="UTF-8" standalone="no"?>
<!-- Created with Inkscape (http://www.inkscape.org/) -->

<svg
   version="1.1"
   id="svg141187"
   width="400"
   height="200"
   viewBox="0 0 400 200"
   sodipodi:docname="1522_word.pdf"
   xmlns:inkscape="http://www.inkscape.org/namespaces/inkscape"
   xmlns:sodipodi="http://sodipodi.sourceforge.net/DTD/sodipodi-0.dtd"
   xmlns="http://www.w3.org/2000/svg"
   xmlns:svg="http://www.w3.org/2000/svg">
  <defs
     id="defs141191">
    <clipPath
       clipPathUnits="userSpaceOnUse"
       id="clipPath141209">
      <path
         d="m 0,-270.86505 h 445.50453 v 541.7301 H 0 Z"
         id="path141207" />
    </clipPath>
  </defs>
  <sodipodi:namedview
     id="namedview141189"
     pagecolor="#ffffff"
     bordercolor="#000000"
     borderopacity="0.25"
     inkscape:showpageshadow="2"
     inkscape:pageopacity="0.0"
     inkscape:pagecheckerboard="0"
     inkscape:deskcolor="#d1d1d1" />
  <g
     id="g141193"
     inkscape:groupmode="layer"
     inkscape:label="1522_word42"
     transform="matrix(1.3333333,0,0,-1.3333333,0,200)">
    <g
       id="g141195">
      <g
         id="g141197">
        <g
           id="g141199"
           transform="translate(75.75,140.14372)">
          <g
             id="g141201"
             transform="matrix(0.33333,0,0,0.33333,0,-30.0955)">
            <g
               id="g141203">
              <g
                 id="g141205" />
              <g
                 id="g141261">
                <g
                   clip-path="url(#clipPath141209)"
                   id="g141259">
                  <g
                     transform="translate(0,-0.44655)"
                     id="g141217">
                    <g
                       id="g141215">
                      <g
                         id="g141213">
                        <path
                           d="m 54.8075,-158.696 c -16.5012,0 -29.7637,4.902 -39.7875,14.707 C 5.00668,-134.195 0,-121.412 0,-105.641 c 0,5.299 0.66234,11.1868 1.98703,17.6642 1.32468,6.4878 3.2387,12.3133 5.74204,17.4764 L 20.324,-72.7221 c -2.9414,-9.8673 -4.4121,-18.9993 -4.4121,-27.3959 0,-12.381 3.9792,-21.883 11.9378,-28.507 7.9585,-6.634 17.8311,-9.951 29.6176,-9.951 9.2833,0 17.9719,1.732 26.0661,5.195 8.1045,3.463 14.3681,9.393 18.7906,17.789 0.741,1.179 1.366,2.796 1.878,4.85 0.521,2.066 0.782,3.615 0.782,4.647 0,15.1768 -6.4097,35.5842 -19.2289,61.2226 l 17.0069,5.523 c 3.693,-7.0719 7.416,-16.3917 11.171,-27.9592 3.755,-11.5571 5.633,-23.5262 5.633,-35.9074 0,-3.244 -0.516,-7.004 -1.549,-11.281 -1.033,-4.266 -2.211,-7.802 -3.536,-10.607 -5.601,-11.046 -13.633,-19.407 -24.0947,-25.081 -10.4619,-5.674 -22.3215,-8.511 -35.5788,-8.511 z m -2.6441,134.8204 c -3.2439,0 -5.9715,1.0691 -8.1828,3.2074 -2.2113,2.1383 -3.3169,5.0484 -3.3169,8.7304 0,7.07193 3.8332,11.0512 11.4997,11.9378 6.9155,0 10.7435,-3.97927 11.4841,-11.9378 0,-7.218 -3.8281,-11.1972 -11.4841,-11.9378 z"
                           style="fill:#000000;fill-opacity:1;fill-rule:nonzero;stroke:none"
                           id="path141211" />
                      </g>
                    </g>
                  </g>
                  <g
                     transform="translate(144.10532,35.78931)"
                     id="g141225">
                    <g
                       id="g141223">
                      <g
                         id="g141221">
                        <path
                           d="m 45.9676,-160.449 c -12.9652,0 -22.9473,3.463 -29.9462,10.389 -6.99894,6.926 -10.86347,18.713 -11.59361,35.36 L 0,-1.09521 16.5846,0 20.7777,-109.177 c 0.4381,-11.641 2.8684,-19.709 7.291,-24.204 4.4226,-4.485 10.3889,-6.806 17.8989,-6.963 3.2439,0 6.008,-0.808 8.2923,-2.425 2.2843,-1.616 3.4265,-4.12 3.4265,-7.51 0,-6.78 -3.9063,-10.17 -11.7188,-10.17 z"
                           style="fill:#000000;fill-opacity:1;fill-rule:nonzero;stroke:none"
                           id="path141219" />
                      </g>
                    </g>
                  </g>
                  <g
                     transform="translate(177.92296,-69.8517)"
                     id="g141233">
                    <g
                       id="g141231">
                      <g
                         id="g141229">
                        <path
                           d="m 81.3273,-54.8075 c -9.5753,0 -17.0905,1.841 -22.5457,5.523 -5.4448,3.682 -9.2728,9.2102 -11.4841,16.5846 C 41.8423,-47.4383 29.8367,-54.8075 11.2807,-54.8075 3.76023,-54.8075 0,-51.4176 0,-44.6377 c 0,2.2113 0.8866,4.3808 2.6598,6.5087 1.76277,2.1383 4.70941,3.2074 8.8399,3.2074 8.1046,0 14.2899,1.4707 18.556,4.4121 4.2766,2.9519 7.3327,6.9677 9.1685,12.0474 1.8462,5.0901 3.0666,10.87906 3.6612,17.36689 L 55.9184,0 c -0.2921,-2.35731 -0.4381,-4.86065 -0.4381,-7.51002 0,-4.56858 0.6623,-8.95468 1.987,-13.15818 1.3247,-4.1931 3.8646,-7.5831 7.6196,-10.1698 3.755,-2.5764 9.1685,-3.9376 16.2404,-4.0836 3.2439,0 6.008,-0.7719 8.2923,-2.3156 2.2843,-1.5437 3.4265,-4.0106 3.4265,-7.4005 0,-6.7799 -3.9063,-10.1698 -11.7188,-10.1698 z M 47.2975,-110.726 c -3.2439,0 -5.9715,1.106 -8.1828,3.317 -2.2008,2.211 -3.3013,5.158 -3.3013,8.8399 0,7.072 3.8281,11.0512 11.4841,11.9378 6.9259,0 10.7592,-3.9792 11.4997,-11.9378 0,-7.5099 -3.8332,-11.5619 -11.4997,-12.1569 z"
                           style="fill:#000000;fill-opacity:1;fill-rule:nonzero;stroke:none"
                           id="path141227" />
                      </g>
                    </g>
                  </g>
                  <g
                     transform="translate(248.12329,-37.13615)"
                     id="g141241">
                    <g
                       id="g141239">
                      <g
                         id="g141237">
                        <path
                           d="m 145.413,-87.5231 h -2.644 c -20.33,0 -39.412,4.9337 -57.2486,14.801 -21.6539,-9.8673 -46.4787,-14.801 -74.4744,-14.801 -4.13052,0 -7.00415,1.1422 -8.62089,3.4265 C 0.80837,-81.8123 0,-79.6375 0,-77.5723 c 0,1.9088 0.80837,4.0784 2.42511,6.5087 1.61674,2.4303 4.6364,3.6455 9.05899,3.6455 21.6643,0 40.1577,2.3573 55.4803,7.0719 -14.1439,11.797 -24.3867,23.8078 -30.7285,36.0325 -4.5686,-1.6167 -8.6209,-3.3847 -12.1569,-5.304 l -1.987,15.9119 c 2.9518,1.6167 7.3014,3.4577 13.0487,5.523 5.7472,2.06526 12.5584,3.94277 20.4335,5.63252 C 63.4597,-0.85009 72.1171,0 81.5463,0 c 12.5272,0 22.2907,-1.14215 29.2887,-3.42645 6.999,-2.2843 11.97,-5.34568 14.911,-9.18415 2.952,-3.828 4.428,-8.0263 4.428,-12.5949 0,-11.9326 -8.324,-24.0842 -24.971,-36.4549 11.63,-3.8385 24.887,-5.7577 39.772,-5.7577 3.536,0 6.446,-0.8084 8.73,-2.4251 2.284,-1.6168 3.427,-4.1201 3.427,-7.5101 0,-6.7798 -3.907,-10.1698 -11.719,-10.1698 z m -59.6736,33.8108 c 9.8778,4.4226 17.3566,9.0277 22.4366,13.8153 5.09,4.7876 7.635,8.8034 7.635,12.0473 0,1.3247 -0.887,2.9049 -2.66,4.7407 -1.763,1.8462 -5.153,3.4317 -10.17,4.7564 -5.0065,1.3247 -12.4435,1.987 -22.3108,1.987 -8.5531,0 -18.7229,-1.3247 -30.5095,-3.974 7.8125,-13.2573 19.6721,-24.3816 35.5787,-33.3727 z"
                           style="fill:#000000;fill-opacity:1;fill-rule:nonzero;stroke:none"
                           id="path141235" />
                      </g>
                    </g>
                  </g>
                  <g
                     transform="translate(393.00282,90.28743)"
                     id="g141249">
                    <g
                       id="g141247">
                      <g
                         id="g141245">
                        <path
                           d="m 9.05897,-37.5658 c -4.13052,0 -7.15017,0.6624 -9.05897,1.9871 v 5.523 c 2.7954,-0.5842 5.29874,-0.8762 7.51002,-0.8762 2.35732,0 4.93368,0.5163 7.72908,1.5489 2.8058,1.0327 4.8711,2.5034 6.1958,4.4122 h -1.768 c -3.682,0 -6.9624,0.9596 -9.84128,2.8788 -2.86842,1.9192 -4.30262,5.0119 -4.30262,9.278 0,3.68202 1.25167,6.73818 3.75501,9.16851 C 11.7814,-1.21516 14.874,0 18.556,0 c 2.5034,0 5.1892,-1.17866 8.0576,-3.53597 2.8789,-2.35731 4.3183,-6.25835 4.3183,-11.70313 0,-7.218 -2.3938,-12.7462 -7.1814,-16.5846 -4.7877,-3.8281 -9.6849,-5.7421 -14.69153,-5.7421 z m 15.47373,18.5717 0.2191,3.0822 c 0,2.2113 -0.5528,4.3131 -1.6585,6.30533 -1.1056,1.99224 -3.1344,2.98836 -6.0862,2.98836 -1.4707,0 -2.7954,-0.47981 -3.9741,-1.43942 -1.1786,-0.95961 -1.768,-2.24777 -1.768,-3.86457 0,-1.7732 0.9544,-3.3951 2.8632,-4.8658 1.9193,-1.4707 4.7251,-2.2061 8.4175,-2.2061 z"
                           style="fill:#f81436;fill-opacity:1;fill-rule:nonzero;stroke:none"
                           id="path141243" />
                      </g>
                    </g>
                  </g>
                  <g
                     transform="translate(382.74889,38.23007)"
                     id="g141257">
                    <g
                       id="g141255">
                      <g
                         id="g141253">
                        <path
                           d="m 42.6507,-50.1763 c -3.2439,0 -5.8985,1.0691 -7.9638,3.2074 -2.0548,2.1382 -3.0822,5.0484 -3.0822,8.7304 0,3.2439 1.0274,5.9663 3.0822,8.1671 2.0653,2.2113 4.7199,3.3169 7.9638,3.3169 3.3899,0 6.0393,-1.1056 7.9481,-3.3169 1.9192,-2.2008 2.8788,-4.9232 2.8788,-8.1671 0,-7.218 -3.609,-11.1973 -10.8269,-11.9378 z m -29.3986,0 c -3.2439,0 -5.89332,1.0691 -7.94815,3.2074 -2.06525,2.1382 -3.09788,5.0484 -3.09788,8.7304 0,3.2439 1.06914,5.9663 3.20741,8.1671 2.13827,2.2113 4.75112,3.3169 7.83862,3.3169 3.3899,0 6.1175,-1.1056 8.1828,-3.3169 2.0652,-2.2008 3.0978,-4.9232 3.0978,-8.1671 0,-7.218 -3.7602,-11.1973 -11.2806,-11.9378 z m 14.8166,26.7388 c -6.3418,0 -9.8778,3.9062 -10.6079,11.7187 0,3.38997 0.9544,6.19059 2.8632,8.40187 C 22.2432,-1.10564 24.8248,0 28.0687,0 c 6.9259,0 10.6809,-3.90626 11.2651,-11.7188 0,-7.2179 -3.7551,-11.1242 -11.2651,-11.7187 z M 14.3629,-162.889 H 11.046 C 3.682,-162.889 0,-159.426 0,-152.5 c 0,2.065 0.77186,4.198 2.31559,6.399 1.54373,2.211 4.45386,3.317 8.73041,3.317 h 4.4278 c 15.9066,0 26.2903,1.695 31.1509,5.085 l 0.4381,1.768 c 0.5946,1.919 0.8918,4.203 0.8918,6.852 0,2.65 -0.5163,5.299 -1.5489,7.949 -1.0326,2.659 -2.9466,6.201 -5.742,10.623 l -3.7551,6.399 16.1309,6.4151 c 6.4774,-12.0791 9.7161,-24.2351 9.7161,-36.4701 0,-6.04 -1.1786,-12.006 -3.5359,-17.899 -2.6494,-2.796 -7.0668,-5.299 -13.2521,-7.51 -6.1853,-2.212 -16.7202,-3.317 -31.6047,-3.317 z"
                           style="fill:#f81436;fill-opacity:1;fill-rule:nonzero;stroke:none"
                           id="path141251" />
                      </g>
                    </g>
                  </g>
                </g>
              </g>
            </g>
          </g>
        </g>
      </g>
    </g>
  </g>
</svg>
