<?xml version="1.0" encoding="UTF-8" standalone="no"?>
<!-- Created with Inkscape (http://www.inkscape.org/) -->

<svg
   version="1.1"
   id="svg141301"
   width="400"
   height="400"
   viewBox="0 0 400 400"
   sodipodi:docname="1523_pic.pdf"
   xmlns:inkscape="http://www.inkscape.org/namespaces/inkscape"
   xmlns:sodipodi="http://sodipodi.sourceforge.net/DTD/sodipodi-0.dtd"
   xmlns="http://www.w3.org/2000/svg"
   xmlns:svg="http://www.w3.org/2000/svg">
  <defs
     id="defs141305">
    <clipPath
       clipPathUnits="userSpaceOnUse"
       id="clipPath141321">
      <path
         d="M 0,0 H 179.39528 V -215.33143 H 0 Z"
         clip-rule="evenodd"
         id="path141319" />
    </clipPath>
    <clipPath
       clipPathUnits="userSpaceOnUse"
       id="clipPath141331">
      <path
         d="M 0,-645.9933 H 538.185 V 645.9933 H 0 Z"
         id="path141329" />
    </clipPath>
    <clipPath
       clipPathUnits="userSpaceOnUse"
       id="clipPath141335">
      <path
         d="M 0,0 H 538.185 V -540.057 H 0 Z"
         clip-rule="evenodd"
         id="path141333" />
    </clipPath>
    <clipPath
       clipPathUnits="userSpaceOnUse"
       id="clipPath141339">
      <path
         d="M 0,-540.0566 H 538.185 V 540.0566 H 0 Z"
         id="path141337" />
    </clipPath>
    <clipPath
       clipPathUnits="userSpaceOnUse"
       id="clipPath141343">
      <path
         d="M 0,0 H 104.489 V -66.6882 H 0 Z"
         clip-rule="evenodd"
         id="path141341" />
    </clipPath>
    <clipPath
       clipPathUnits="userSpaceOnUse"
       id="clipPath141347">
      <path
         d="M 0,-66.6882 H 300 V 66.6882 H 0 Z"
         id="path141345" />
    </clipPath>
    <clipPath
       clipPathUnits="userSpaceOnUse"
       id="clipPath141351">
      <path
         d="M 0,0 H 203.908 V -279.202 H 0 Z"
         clip-rule="evenodd"
         id="path141349" />
    </clipPath>
    <clipPath
       clipPathUnits="userSpaceOnUse"
       id="clipPath141355">
      <path
         d="M 0,-279.2019 H 300 V 279.2019 H 0 Z"
         id="path141353" />
    </clipPath>
    <clipPath
       clipPathUnits="userSpaceOnUse"
       id="clipPath141359">
      <path
         d="M 0,0 H 437.615 V -553.498 H 0 Z"
         clip-rule="evenodd"
         id="path141357" />
    </clipPath>
    <clipPath
       clipPathUnits="userSpaceOnUse"
       id="clipPath141363">
      <path
         d="M 0,-553.4985 H 437.61461 V 553.4985 H 0 Z"
         id="path141361" />
    </clipPath>
  </defs>
  <sodipodi:namedview
     id="namedview141303"
     pagecolor="#ffffff"
     bordercolor="#000000"
     borderopacity="0.25"
     inkscape:showpageshadow="2"
     inkscape:pageopacity="0.0"
     inkscape:pagecheckerboard="0"
     inkscape:deskcolor="#d1d1d1" />
  <g
     id="g141307"
     inkscape:groupmode="layer"
     inkscape:label="1523_pic43"
     transform="matrix(1.3333333,0,0,-1.3333333,0,400)">
    <g
       id="g141309">
      <g
         id="g141311">
        <g
           id="g141313"
           transform="translate(60.30236,257.66572)">
          <g
             id="g141315">
            <g
               id="g141317"
               clip-path="url(#clipPath141321)">
              <g
                 id="g141323"
                 transform="matrix(0.33333,0,0,0.33333,0,-71.77725)">
                <g
                   id="g141325">
                  <g
                     id="g141327" />
                  <g
                     id="g141743">
                    <g
                       clip-path="url(#clipPath141331)"
                       id="g141741">
                      <g
                         transform="translate(0,109.39473)"
                         id="g141453">
                        <g
                           id="g141451">
                          <g
                             id="g141449">
                            <g
                               clip-path="url(#clipPath141335)"
                               id="g141447">
                              <g
                                 transform="translate(0,-540.0566)"
                                 id="g141445">
                                <g
                                   id="g141443">
                                <g
                                   id="g141365" />
                                <g
                                   id="g141441">
                                <g
                                   clip-path="url(#clipPath141339)"
                                   id="g141439">
                                <g
                                   transform="translate(0,540.0566)"
                                   id="g141373">
                                <g
                                   id="g141371">
                                <g
                                   id="g141369">
                                <path
                                   d="m 538.185,-269.093 c 0,-148.616 -120.477,-269.094 -269.094,-269.094 C 120.477,-538.187 0,-417.709 0,-269.093 0,-120.479 120.477,0 269.091,0 417.708,0 538.185,-120.479 538.185,-269.093 Z"
                                   style="fill:#c2360a;fill-opacity:1;fill-rule:nonzero;stroke:none"
                                   id="path141367" />
                                </g>
                                </g>
                                </g>
                                <g
                                   transform="translate(155.2224,523.518)"
                                   id="g141381">
                                <g
                                   id="g141379">
                                <g
                                   id="g141377">
                                <path
                                   d="m 206.958,0 c 92.118,-42.723 155.768,-138.096 155.768,-246.321 0,-148.613 -120.477,-269.092 -269.092,-269.092 -32.928,0 -64.472,8.152 -93.634,18.976 34.382,-15.945 72.694,-27.081 113.086,-27.081 148.616,0 269.093,120.478 269.093,269.094 0,115.687 -72.767,216.394 -175.221,254.424 z"
                                   style="fill:#9e260a;fill-opacity:1;fill-rule:nonzero;stroke:none"
                                   id="path141375" />
                                </g>
                                </g>
                                </g>
                                <g
                                   transform="translate(51.7727,488.2826)"
                                   id="g141389">
                                <g
                                   id="g141387">
                                <g
                                   id="g141385">
                                <path
                                   d="m 434.64,-217.319 c 0,-120.024 -97.297,-217.32 -217.321,-217.32 C 97.297,-434.639 0,-337.343 0,-217.319 0,-97.296 97.297,0 217.319,0 337.343,0 434.64,-97.296 434.64,-217.319 Z"
                                   style="fill:#9e260a;fill-opacity:1;fill-rule:nonzero;stroke:none"
                                   id="path141383" />
                                </g>
                                </g>
                                </g>
                                <g
                                   transform="translate(64.0816,475.9736)"
                                   id="g141397">
                                <g
                                   id="g141395">
                                <g
                                   id="g141393">
                                <path
                                   d="m 410.022,-205.01 c 0,-113.226 -91.787,-205.011 -205.012,-205.011 C 91.786,-410.021 0,-318.236 0,-205.01 0,-91.786 91.786,0 205.01,0 318.235,0 410.022,-91.786 410.022,-205.01 Z"
                                   style="fill:#f0dec7;fill-opacity:1;fill-rule:nonzero;stroke:none"
                                   id="path141391" />
                                </g>
                                </g>
                                </g>
                                <g
                                   transform="translate(64.0816,472.8926)"
                                   id="g141405">
                                <g
                                   id="g141403">
                                <g
                                   id="g141401">
                                <path
                                   d="m 410.022,-205.012 c 0,-113.224 -91.787,-205.009 -205.012,-205.009 C 91.786,-410.021 0,-318.236 0,-205.012 0,-91.786 91.786,0 205.01,0 318.235,0 410.022,-91.786 410.022,-205.012 Z"
                                   style="fill:#f0dec7;fill-opacity:1;fill-rule:nonzero;stroke:none"
                                   id="path141399" />
                                </g>
                                </g>
                                </g>
                                <g
                                   transform="translate(149.4851,446.4517)"
                                   id="g141413">
                                <g
                                   id="g141411">
                                <g
                                   id="g141409">
                                <path
                                   d="m 221.674,0 c 49.646,-37.414 81.746,-96.871 81.746,-163.824 0,-113.227 -91.787,-205.012 -205.011,-205.012 -35.664,0 -69.198,9.109 -98.409,25.123 34.308,-25.855 76.995,-41.185 123.266,-41.185 113.223,0 205.01,91.785 205.01,205.009 0,77.564 -43.073,145.062 -106.602,179.889 z"
                                   style="fill:#d9c7b5;fill-opacity:1;fill-rule:nonzero;stroke:none"
                                   id="path141407" />
                                </g>
                                </g>
                                </g>
                                <g
                                   transform="translate(336.698,427.3265)"
                                   id="g141421">
                                <g
                                   id="g141419">
                                <g
                                   id="g141417">
                                <path
                                   d="M 19.229,0 V -45.583 H 7.855 v 24.438 c 0,3.53 -0.085,5.651 -0.254,6.363 -0.168,0.714 -0.633,1.254 -1.393,1.619 -0.761,0.365 -2.456,0.55 -5.082,0.55 H 0 V -7.3 c 5.498,1.183 9.675,3.616 12.528,7.3 z"
                                   style="fill:#000000;fill-opacity:1;fill-rule:nonzero;stroke:none"
                                   id="path141415" />
                                </g>
                                </g>
                                </g>
                                <g
                                   transform="translate(388.9755,371.8511)"
                                   id="g141429">
                                <g
                                   id="g141427">
                                <g
                                   id="g141425">
                                <path
                                   d="m 25.029,-38.684 v -7.771 H 0 l 0.006,6.504 c 7.414,12.124 11.821,19.627 13.219,22.508 1.399,2.881 2.098,5.131 2.098,6.745 0,1.239 -0.213,2.161 -0.634,2.772 -0.425,0.611 -1.067,0.915 -1.931,0.915 -0.865,0 -1.509,-0.337 -1.932,-1.014 -0.423,-0.674 -0.635,-2.017 -0.635,-4.026 v -4.335 H 0 v 1.662 c 0,2.551 0.131,4.563 0.394,6.038 0.262,1.475 0.91,2.924 1.942,4.351 1.033,1.426 2.374,2.505 4.026,3.238 C 8.014,-0.365 9.993,0 12.303,0 c 4.523,0 7.944,-1.123 10.262,-3.365 2.318,-2.242 3.478,-5.08 3.478,-8.516 0,-2.61 -0.653,-5.369 -1.958,-8.278 -1.305,-2.909 -5.147,-9.084 -11.529,-18.525 z"
                                   style="fill:#000000;fill-opacity:1;fill-rule:nonzero;stroke:none"
                                   id="path141423" />
                                </g>
                                </g>
                                </g>
                                <g
                                   transform="translate(426.5664,298.7018)"
                                   id="g141437">
                                <g
                                   id="g141435">
                                <g
                                   id="g141433">
                                <path
                                   d="m 21.707,-20.653 c 1.727,-0.583 3.013,-1.536 3.856,-2.858 0.845,-1.325 1.267,-4.429 1.267,-9.309 0,-3.626 -0.413,-6.439 -1.239,-8.438 -0.826,-1.999 -2.251,-3.522 -4.279,-4.563 -2.027,-1.042 -4.626,-1.564 -7.798,-1.564 -3.605,0 -6.433,0.606 -8.488,1.817 -2.055,1.209 -3.407,2.691 -4.054,4.447 C 0.324,-39.365 0,-36.32 0,-31.984 v 3.603 h 11.374 v -7.404 c 0,-1.971 0.117,-3.223 0.352,-3.76 0.235,-0.535 0.755,-0.801 1.562,-0.801 0.882,0 1.465,0.337 1.746,1.014 0.281,0.674 0.422,2.44 0.422,5.293 v 3.152 c 0,1.746 -0.196,3.023 -0.591,3.828 -0.395,0.809 -0.976,1.338 -1.745,1.592 -0.771,0.253 -2.263,0.398 -4.476,0.436 v 6.618 c 2.702,0 4.372,0.101 5.011,0.309 0.637,0.205 1.098,0.656 1.379,1.351 0.281,0.694 0.422,1.783 0.422,3.266 v 2.533 c 0,1.597 -0.165,2.648 -0.492,3.155 -0.329,0.507 -0.841,0.76 -1.535,0.76 -0.788,0 -1.328,-0.268 -1.618,-0.803 -0.293,-0.535 -0.437,-1.675 -0.437,-3.421 v -3.745 H 0 v 3.887 c 0,4.353 0.994,7.295 2.984,8.826 C 4.973,-0.765 8.136,0 12.472,0 c 5.424,0 9.103,-1.062 11.038,-3.18 1.932,-2.121 2.898,-5.065 2.898,-8.835 0,-2.552 -0.347,-4.394 -1.041,-5.529 -0.694,-1.135 -1.916,-2.172 -3.66,-3.109 z"
                                   style="fill:#000000;fill-opacity:1;fill-rule:nonzero;stroke:none"
                                   id="path141431" />
                                </g>
                                </g>
                                </g>
                                </g>
                                </g>
                                </g>
                              </g>
                            </g>
                          </g>
                        </g>
                      </g>
                      <g
                         transform="translate(400.9557,-211.05057)"
                         id="g141461">
                        <g
                           id="g141459">
                          <g
                             id="g141457">
                            <path
                               d="m 24.888,0 v -29.788 h 3.238 v -7.771 h -3.238 v -8.024 H 13.514 v 8.024 H 0 v 7.771 L 9.825,0 Z M 13.514,-29.788 v 19.399 L 8.488,-29.788 Z"
                               style="fill:#000000;fill-opacity:1;fill-rule:nonzero;stroke:none"
                               id="path141455" />
                          </g>
                        </g>
                      </g>
                      <g
                         transform="translate(255.4366,-288.25617)"
                         id="g141495">
                        <g
                           id="g141493">
                          <g
                             id="g141491">
                            <g
                               clip-path="url(#clipPath141343)"
                               id="g141489">
                              <g
                                 transform="translate(0,-66.6882)"
                                 id="g141487">
                                <g
                                   id="g141485">
                                <g
                                   id="g141463" />
                                <g
                                   id="g141483">
                                <g
                                   clip-path="url(#clipPath141347)"
                                   id="g141481">
                                <g
                                   transform="translate(77.263,66.6882)"
                                   id="g141471">
                                <g
                                   id="g141469">
                                <g
                                   id="g141467">
                                <path
                                   d="M 25.001,0 V -7.292 H 10.895 v -7.744 c 1.765,2.086 4.036,3.127 6.815,3.127 3.134,0 5.503,-0.879 7.108,-2.633 1.604,-1.756 2.408,-5.128 2.408,-10.122 v -6.505 c 0,-3.228 -0.155,-5.597 -0.465,-7.107 -0.31,-1.513 -0.971,-2.911 -1.984,-4.196 -1.014,-1.285 -2.426,-2.27 -4.238,-2.954 -1.812,-0.687 -4.021,-1.029 -6.631,-1.029 -2.928,0 -5.509,0.512 -7.742,1.533 -2.234,1.024 -3.82,2.549 -4.757,4.576 C 0.47,-38.319 0,-35.185 0,-30.943 v 2.478 h 11.374 v -2.843 c 0,-2.947 0.104,-5.04 0.309,-6.279 0.208,-1.239 0.92,-1.857 2.141,-1.857 0.562,0 1.018,0.177 1.366,0.535 0.347,0.354 0.535,0.74 0.562,1.153 0.028,0.412 0.061,2.206 0.098,5.379 v 9.035 c 0,1.708 -0.177,2.874 -0.534,3.492 -0.357,0.621 -0.948,0.93 -1.773,0.93 -0.526,0 -0.968,-0.16 -1.324,-0.479 -0.357,-0.319 -0.587,-0.661 -0.689,-1.029 -0.104,-0.365 -0.156,-1.213 -0.156,-2.546 H 0.112 L 0.591,0 Z"
                                   style="fill:#000000;fill-opacity:1;fill-rule:nonzero;stroke:none"
                                   id="path141465" />
                                </g>
                                </g>
                                </g>
                                <g
                                   transform="translate(0,47.355)"
                                   id="g141479">
                                <g
                                   id="g141477">
                                <g
                                   id="g141475">
                                <path
                                   d="M 27.311,-13.006 H 15.935 c 0,2.121 -0.022,3.456 -0.069,4.011 -0.047,0.552 -0.273,1.019 -0.676,1.394 -0.404,0.375 -0.954,0.562 -1.648,0.562 -0.581,0 -1.06,-0.177 -1.435,-0.535 -0.375,-0.357 -0.592,-0.815 -0.648,-1.378 -0.057,-0.565 -0.084,-1.7 -0.084,-3.408 v -7.264 c 0.581,1.221 1.436,2.136 2.562,2.746 1.127,0.608 2.515,0.915 4.167,0.915 2.083,0 3.923,-0.562 5.519,-1.69 1.594,-1.125 2.607,-2.478 3.04,-4.054 0.431,-1.576 0.648,-3.707 0.648,-6.39 v -3.634 c 0,-3.19 -0.123,-5.564 -0.367,-7.123 -0.244,-1.558 -0.896,-2.997 -1.956,-4.32 -1.061,-1.325 -2.515,-2.351 -4.365,-3.083 -1.849,-0.733 -4.002,-1.098 -6.46,-1.098 -3.061,0 -5.567,0.421 -7.518,1.265 -1.952,0.846 -3.459,2.06 -4.519,3.649 -1.061,1.583 -1.68,3.25 -1.859,4.996 C 0.089,-35.699 0,-32.311 0,-27.282 v 6.307 c 0,5.425 0.08,9.051 0.24,10.883 0.159,1.829 0.812,3.56 1.956,5.194 1.145,1.632 2.708,2.856 4.688,3.674 C 8.863,-0.408 11.15,0 13.74,0 c 3.19,0 5.809,-0.517 7.856,-1.548 2.045,-1.034 3.508,-2.488 4.391,-4.363 0.882,-1.878 1.324,-4.242 1.324,-7.095 z m -11.376,-14.22 c 0,1.614 -0.178,2.722 -0.533,3.322 -0.359,0.601 -0.94,0.902 -1.747,0.902 -0.788,0 -1.366,-0.286 -1.731,-0.859 -0.366,-0.573 -0.549,-1.695 -0.549,-3.365 v -8.247 c 0,-2.01 0.173,-3.325 0.52,-3.943 0.347,-0.618 0.925,-0.93 1.732,-0.93 0.488,0 0.994,0.241 1.52,0.72 0.526,0.479 0.788,1.768 0.788,3.869 z"
                                   style="fill:#000000;fill-opacity:1;fill-rule:nonzero;stroke:none"
                                   id="path141473" />
                                </g>
                                </g>
                                </g>
                                </g>
                                </g>
                                </g>
                              </g>
                            </g>
                          </g>
                        </g>
                      </g>
                      <g
                         transform="translate(183.5374,-288.69197)"
                         id="g141503">
                        <g
                           id="g141501">
                          <g
                             id="g141499">
                            <path
                               d="m 21.736,0 v -9.933 l -7.263,-35.65 H 3.154 L 11.248,-8.194 0,-8.194 V 0 Z"
                               style="fill:#000000;fill-opacity:1;fill-rule:nonzero;stroke:none"
                               id="path141497" />
                          </g>
                        </g>
                      </g>
                      <g
                         transform="translate(89.7763,14.70013)"
                         id="g141593">
                        <g
                           id="g141591">
                          <g
                             id="g141589">
                            <g
                               clip-path="url(#clipPath141351)"
                               id="g141587">
                              <g
                                 transform="translate(0,-279.2019)"
                                 id="g141585">
                                <g
                                   id="g141583">
                                <g
                                   id="g141505" />
                                <g
                                   id="g141581">
                                <g
                                   clip-path="url(#clipPath141355)"
                                   id="g141579">
                                <g
                                   transform="translate(26.0428,47.327)"
                                   id="g141513">
                                <g
                                   id="g141511">
                                <g
                                   id="g141509">
                                <path
                                   d="m 21.877,-20.595 c 1.67,-0.677 2.956,-1.685 3.857,-3.028 0.9,-1.343 1.351,-4.54 1.351,-9.593 0,-3.679 -0.357,-6.393 -1.069,-8.141 -0.714,-1.746 -2.102,-3.178 -4.167,-4.295 -2.065,-1.117 -4.834,-1.675 -8.306,-1.675 -3.379,0 -6.053,0.535 -8.024,1.604 -1.97,1.072 -3.383,2.489 -4.237,4.254 C 0.427,-39.705 0,-36.763 0,-32.651 c 0,2.759 0.212,5.154 0.634,7.184 0.423,2.027 1.75,3.651 3.984,4.872 -1.407,0.674 -2.464,1.749 -3.167,3.221 -0.705,1.472 -1.056,3.344 -1.056,5.612 0,3.923 1.089,6.862 3.266,8.823 C 5.838,-0.981 9.094,0 13.431,0 c 5.01,0 8.474,-1.041 10.389,-3.122 1.914,-2.083 2.872,-5.057 2.872,-8.919 0,-2.458 -0.315,-4.231 -0.944,-5.318 -0.629,-1.09 -1.92,-2.167 -3.871,-3.236 z m -6.166,-9.165 c 0,1.746 -0.179,2.904 -0.536,3.477 -0.356,0.572 -0.918,0.859 -1.689,0.859 -0.749,0 -1.291,-0.276 -1.618,-0.83 -0.329,-0.554 -0.494,-1.722 -0.494,-3.506 v -5.911 c 0,-1.971 0.184,-3.238 0.551,-3.8 0.366,-0.566 0.943,-0.847 1.731,-0.847 0.806,0 1.351,0.286 1.632,0.859 0.283,0.572 0.423,1.862 0.423,3.871 z m -0.226,18.948 c 0,1.541 -0.136,2.557 -0.407,3.056 -0.272,0.497 -0.793,0.745 -1.564,0.745 -0.751,0 -1.257,-0.266 -1.518,-0.803 C 11.732,-8.348 11.6,-9.347 11.6,-10.812 v -3.46 c 0,-1.372 0.149,-2.32 0.451,-2.847 0.3,-0.524 0.807,-0.788 1.521,-0.788 0.749,0 1.256,0.259 1.519,0.776 0.263,0.514 0.394,1.581 0.394,3.195 z"
                                   style="fill:#000000;fill-opacity:1;fill-rule:nonzero;stroke:none"
                                   id="path141507" />
                                </g>
                                </g>
                                </g>
                                <g
                                   transform="translate(0,125.3989)"
                                   id="g141521">
                                <g
                                   id="g141519">
                                <g
                                   id="g141517">
                                <path
                                   d="m 0,-34.348 h 11.375 c 0,-2.121 0.027,-3.459 0.085,-4.011 0.056,-0.555 0.285,-1.019 0.689,-1.394 0.404,-0.375 0.952,-0.562 1.646,-0.562 0.584,0 1.061,0.177 1.437,0.535 0.375,0.354 0.587,0.815 0.634,1.378 0.045,0.562 0.07,1.7 0.07,3.407 v 7.262 c -0.563,-1.218 -1.408,-2.133 -2.534,-2.744 -1.126,-0.61 -2.525,-0.914 -4.195,-0.914 -2.084,0 -3.923,0.562 -5.518,1.69 -1.596,1.125 -2.609,2.475 -3.042,4.054 C 0.216,-24.071 0,-21.941 0,-19.257 v 3.631 c 0,3.193 0.127,5.567 0.38,7.126 0.254,1.555 0.905,2.997 1.958,4.319 1.05,1.323 2.505,2.352 4.363,3.084 C 8.56,-0.365 10.718,0 13.176,0 c 3.042,0 5.538,-0.42 7.491,-1.267 1.95,-0.844 3.461,-2.06 4.532,-3.646 1.069,-1.586 1.689,-3.251 1.857,-4.997 0.17,-1.745 0.254,-5.123 0.254,-10.135 v -6.334 c 0,-5.425 -0.075,-9.054 -0.226,-10.883 -0.149,-1.83 -0.801,-3.56 -1.956,-5.195 -1.154,-1.631 -2.716,-2.858 -4.687,-3.674 -1.972,-0.816 -4.251,-1.223 -6.841,-1.223 -3.211,0 -5.833,0.514 -7.869,1.548 -2.038,1.031 -3.502,2.485 -4.393,4.363 C 0.446,-39.565 0,-37.202 0,-34.348 Z m 11.375,14.217 c 0,-1.913 0.248,-3.096 0.746,-3.547 0.498,-0.448 1.008,-0.674 1.534,-0.674 0.788,0 1.366,0.286 1.732,0.859 0.366,0.573 0.549,1.692 0.549,3.362 v 8.25 c 0,2.009 -0.174,3.322 -0.521,3.943 -0.347,0.618 -0.924,0.93 -1.731,0.93 -0.489,0 -0.996,-0.241 -1.521,-0.719 -0.526,-0.48 -0.788,-1.769 -0.788,-3.873 z"
                                   style="fill:#000000;fill-opacity:1;fill-rule:nonzero;stroke:none"
                                   id="path141515" />
                                </g>
                                </g>
                                </g>
                                <g
                                   transform="translate(15.9359,196.8807)"
                                   id="g141529">
                                <g
                                   id="g141527">
                                <g
                                   id="g141525">
                                <path
                                   d="M 19.23,0 V -45.581 H 7.856 v 24.438 c 0,3.528 -0.085,5.649 -0.254,6.364 -0.17,0.711 -0.633,1.251 -1.394,1.619 -0.759,0.364 -2.454,0.547 -5.082,0.547 H 0 v 5.315 C 5.499,-6.114 9.675,-3.682 12.528,0 Z"
                                   style="fill:#000000;fill-opacity:1;fill-rule:nonzero;stroke:none"
                                   id="path141523" />
                                </g>
                                </g>
                                </g>
                                <g
                                   transform="translate(39.586,197.7553)"
                                   id="g141537">
                                <g
                                   id="g141535">
                                <g
                                   id="g141533">
                                <path
                                   d="m 26.831,-16.303 v -15.203 c 0,-3.454 -0.188,-5.97 -0.562,-7.546 -0.377,-1.576 -1.155,-3.05 -2.338,-4.419 -1.182,-1.37 -2.609,-2.356 -4.28,-2.957 -1.669,-0.6 -3.538,-0.899 -5.602,-0.899 -2.721,0 -4.984,0.314 -6.786,0.943 -1.801,0.628 -3.236,1.608 -4.307,2.941 -1.069,1.333 -1.83,2.734 -2.28,4.209 C 0.226,-37.762 0,-35.418 0,-32.21 v 15.907 c 0,4.186 0.361,7.32 1.083,9.406 0.724,2.082 2.159,3.752 4.308,5.009 2.15,1.259 4.753,1.888 7.813,1.888 2.496,0 4.731,-0.436 6.702,-1.31 1.97,-0.872 3.444,-1.939 4.419,-3.195 0.976,-1.257 1.638,-2.676 1.985,-4.252 0.347,-1.577 0.521,-4.092 0.521,-7.546 z m -11.374,3.832 c 0,2.419 -0.118,3.934 -0.352,4.545 -0.235,0.611 -0.784,0.914 -1.647,0.914 -0.844,0 -1.403,-0.324 -1.675,-0.97 -0.273,-0.649 -0.408,-2.146 -0.408,-4.489 v -22.243 c 0,-2.648 0.126,-4.244 0.38,-4.789 0.253,-0.542 0.801,-0.816 1.647,-0.816 0.844,0 1.397,0.32 1.66,0.958 0.263,0.639 0.395,2.075 0.395,4.308 z"
                                   style="fill:#000000;fill-opacity:1;fill-rule:nonzero;stroke:none"
                                   id="path141531" />
                                </g>
                                </g>
                                </g>
                                <g
                                   transform="translate(77.93,261.166)"
                                   id="g141545">
                                <g
                                   id="g141543">
                                <g
                                   id="g141541">
                                <path
                                   d="M 19.231,0 V -45.583 H 7.857 v 24.439 c 0,3.529 -0.085,5.65 -0.254,6.362 -0.169,0.715 -0.633,1.254 -1.394,1.619 -0.76,0.365 -2.455,0.55 -5.082,0.55 H 0 V -7.3 c 5.5,1.184 9.676,3.616 12.529,7.3 z"
                                   style="fill:#000000;fill-opacity:1;fill-rule:nonzero;stroke:none"
                                   id="path141539" />
                                </g>
                                </g>
                                </g>
                                <g
                                   transform="translate(99.8918,261.166)"
                                   id="g141553">
                                <g
                                   id="g141551">
                                <g
                                   id="g141549">
                                <path
                                   d="M 19.23,0 V -45.583 H 7.855 v 24.439 c 0,3.529 -0.084,5.65 -0.253,6.362 -0.169,0.715 -0.634,1.254 -1.395,1.619 -0.759,0.365 -2.454,0.55 -5.081,0.55 H 0 V -7.3 c 5.499,1.184 9.675,3.616 12.528,7.3 z"
                                   style="fill:#000000;fill-opacity:1;fill-rule:nonzero;stroke:none"
                                   id="path141547" />
                                </g>
                                </g>
                                </g>
                                <g
                                   transform="translate(154.7224,278.3298)"
                                   id="g141561">
                                <g
                                   id="g141559">
                                <g
                                   id="g141557">
                                <path
                                   d="M 19.23,0 V -45.583 H 7.856 v 24.439 c 0,3.527 -0.085,5.651 -0.254,6.362 -0.17,0.714 -0.633,1.255 -1.394,1.619 -0.76,0.365 -2.455,0.551 -5.083,0.551 H 0 v 5.313 C 5.499,-6.116 9.675,-3.683 12.528,0 Z"
                                   style="fill:#000000;fill-opacity:1;fill-rule:nonzero;stroke:none"
                                   id="path141555" />
                                </g>
                                </g>
                                </g>
                                <g
                                   transform="translate(177.866,279.2019)"
                                   id="g141569">
                                <g
                                   id="g141567">
                                <g
                                   id="g141565">
                                <path
                                   d="m 25.029,-38.684 v -7.771 H 0 l 0.006,6.504 c 7.414,12.125 11.82,19.627 13.219,22.508 1.399,2.884 2.098,5.131 2.098,6.746 0,1.238 -0.213,2.16 -0.635,2.771 -0.423,0.611 -1.066,0.915 -1.931,0.915 -0.865,0 -1.508,-0.337 -1.931,-1.014 -0.423,-0.674 -0.635,-2.016 -0.635,-4.026 v -4.335 H 0 v 1.662 c 0,2.552 0.13,4.566 0.394,6.038 0.262,1.475 0.909,2.924 1.942,4.351 1.032,1.426 2.374,2.506 4.027,3.238 C 8.014,-0.365 9.994,0 12.303,0 c 4.523,0 7.945,-1.122 10.262,-3.365 2.318,-2.242 3.477,-5.08 3.477,-8.516 0,-2.61 -0.652,-5.369 -1.957,-8.278 -1.305,-2.909 -5.147,-9.084 -11.529,-18.525 z"
                                   style="fill:#000000;fill-opacity:1;fill-rule:nonzero;stroke:none"
                                   id="path141563" />
                                </g>
                                </g>
                                </g>
                                <g
                                   transform="translate(165.6402,119.8775)"
                                   id="g141577">
                                <g
                                   id="g141575">
                                <g
                                   id="g141573">
                                <path
                                   d="m 37.664,-18.831 c 0,-10.401 -8.431,-18.831 -18.833,-18.831 C 8.431,-37.662 0,-29.232 0,-18.831 0,-8.43 8.431,0 18.831,0 29.233,0 37.664,-8.43 37.664,-18.831 Z"
                                   style="fill:#000000;fill-opacity:1;fill-rule:nonzero;stroke:none"
                                   id="path141571" />
                                </g>
                                </g>
                                </g>
                                </g>
                                </g>
                                </g>
                              </g>
                            </g>
                          </g>
                        </g>
                      </g>
                      <g
                         transform="translate(269.8745,-33.31547)"
                         id="g141601">
                        <g
                           id="g141599">
                          <g
                             id="g141597">
                            <path
                               d="M 0.005,-188.22 H 6.422 L 6.416,0 H 0 Z"
                               style="fill:#000000;fill-opacity:1;fill-rule:nonzero;stroke:none"
                               id="path141595" />
                          </g>
                        </g>
                      </g>
                      <g
                         transform="translate(266.9145,-66.80027)"
                         id="g141609">
                        <g
                           id="g141607">
                          <g
                             id="g141605">
                            <path
                               d="M 13.293,-123.777 H 0 V 0 h 13.292 z"
                               style="fill:#191919;fill-opacity:1;fill-rule:nonzero;stroke:none"
                               id="path141603" />
                          </g>
                        </g>
                      </g>
                      <g
                         transform="translate(10.55029,215.33143)"
                         id="g141739">
                        <g
                           id="g141737">
                          <g
                             id="g141735">
                            <g
                               clip-path="url(#clipPath141359)"
                               id="g141733">
                              <g
                                 transform="translate(0,-553.4985)"
                                 id="g141731">
                                <g
                                   id="g141729">
                                <g
                                   id="g141611" />
                                <g
                                   id="g141727">
                                <g
                                   clip-path="url(#clipPath141363)"
                                   id="g141725">
                                <g
                                   transform="translate(254.16901,183.7828)"
                                   id="g141619">
                                <g
                                   id="g141617">
                                <g
                                   id="g141615">
                                <path
                                   d="m 16.793,-8.397 c 0,-4.637 -3.759,-8.395 -8.397,-8.395 C 3.759,-16.792 0,-13.034 0,-8.397 0,-3.758 3.759,0 8.396,0 c 4.638,0 8.397,-3.758 8.397,-8.397 z"
                                   style="fill:#c2360a;fill-opacity:1;fill-rule:nonzero;stroke:none"
                                   id="path141613" />
                                </g>
                                </g>
                                </g>
                                <g
                                   transform="translate(79.22601,366.768)"
                                   id="g141627">
                                <g
                                   id="g141625">
                                <g
                                   id="g141623">
                                <path
                                   d="m 109.832,-355.031 -0.995,-4.882 c 5.426,-2.541 10.991,-4.83 16.684,-6.855 -5.436,3.643 -10.673,7.563 -15.689,11.737 z m -56.891,80.908 c 0.125,-1.366 0.187,-2.989 0.187,-4.869 0,-3.678 -0.357,-6.393 -1.069,-8.141 -0.715,-1.746 -2.103,-3.178 -4.167,-4.294 -2.065,-1.118 -4.834,-1.675 -8.306,-1.675 -3.379,0 -6.053,0.534 -8.025,1.603 -0.856,0.467 -1.608,0.998 -2.254,1.595 17.195,-27.078 41.094,-49.477 69.363,-64.866 l 1.756,8.109 c -21.006,19.976 -37.416,44.738 -47.485,72.538 z m -13.412,2.923 c -0.75,0 -1.291,-0.276 -1.618,-0.829 -0.329,-0.555 -0.494,-1.722 -0.494,-3.507 v -5.911 c 0,-1.971 0.184,-3.238 0.55,-3.8 0.366,-0.566 0.944,-0.847 1.732,-0.847 0.806,0 1.351,0.287 1.632,0.859 0.283,0.573 0.423,1.862 0.423,3.871 v 5.828 c 0,1.746 -0.179,2.904 -0.536,3.477 -0.356,0.573 -0.919,0.859 -1.689,0.859 z m 10.399,6.104 c -0.565,-0.426 -1.235,-0.851 -2.008,-1.275 1.222,-0.495 2.239,-1.168 3.049,-2.02 -0.356,1.095 -0.703,2.192 -1.041,3.295 z m -10.371,12.309 c -0.751,0 -1.257,-0.266 -1.519,-0.803 -0.263,-0.534 -0.395,-1.533 -0.395,-2.998 v -3.46 c 0,-1.372 0.149,-2.319 0.451,-2.846 0.3,-0.525 0.807,-0.788 1.52,-0.788 0.75,0 1.257,0.258 1.52,0.775 0.263,0.514 0.394,1.582 0.394,3.195 v 3.124 c 0,1.541 -0.137,2.557 -0.407,3.056 -0.273,0.497 -0.794,0.745 -1.564,0.745 z M 0.004,-187.583 C 0.002,-187.996 0,-188.409 0,-188.823 c 0,-4.449 0.154,-8.857 0.456,-13.229 h 10.919 c 0,-2.121 0.027,-3.458 0.085,-4.011 0.056,-0.555 0.285,-1.019 0.689,-1.394 0.404,-0.375 0.952,-0.562 1.647,-0.562 0.583,0 1.06,0.177 1.436,0.535 0.375,0.354 0.587,0.815 0.634,1.378 0.045,0.562 0.07,1.7 0.07,3.407 v 7.263 c -0.563,-1.219 -1.408,-2.134 -2.534,-2.744 -1.126,-0.611 -2.525,-0.915 -4.195,-0.915 -2.084,0 -3.923,0.562 -5.518,1.69 -1.596,1.125 -2.609,2.476 -3.042,4.054 -0.397,1.452 -0.612,3.375 -0.643,5.768 z m 13.68,12.871 c -0.489,0 -0.996,-0.241 -1.521,-0.719 -0.526,-0.48 -0.788,-1.769 -0.788,-3.872 v -8.531 c 0,-1.914 0.248,-3.097 0.746,-3.548 0.498,-0.448 1.008,-0.674 1.534,-0.674 0.788,0 1.366,0.286 1.732,0.859 0.366,0.573 0.549,1.692 0.549,3.363 v 8.249 c 0,2.01 -0.174,3.322 -0.521,3.943 -0.347,0.618 -0.924,0.93 -1.731,0.93 z m 39.36,72.353 c -0.844,0 -1.403,-0.324 -1.675,-0.971 -0.273,-0.648 -0.408,-2.145 -0.408,-4.489 v -22.242 c 0,-2.648 0.126,-4.244 0.38,-4.789 0.253,-0.542 0.801,-0.816 1.647,-0.816 0.844,0 1.397,0.319 1.66,0.958 0.263,0.638 0.395,2.075 0.395,4.307 v 22.582 c 0,2.42 -0.118,3.935 -0.352,4.546 -0.235,0.611 -0.784,0.914 -1.647,0.914 z m 137.579,81.447 c -0.865,0 -1.508,-0.337 -1.931,-1.013 -0.412,-0.657 -0.623,-1.947 -0.634,-3.869 1.701,0.392 3.412,0.76 5.131,1.105 0,0.03 0,0.061 0,0.091 0,1.238 -0.213,2.16 -0.635,2.772 -0.423,0.61 -1.066,0.914 -1.931,0.914 z M 188.822,0 C 115.912,0 52.65,-41.329 21.187,-101.834 c 2.989,1.338 5.415,3.209 7.277,5.612 h 6.702 v -45.581 H 23.792 v 24.439 c 0,3.527 -0.085,5.648 -0.254,6.363 -0.17,0.711 -0.633,1.251 -1.395,1.619 -0.692,0.333 -2.165,0.513 -4.416,0.542 -9.647,-20.6 -15.681,-43.217 -17.292,-67.06 0.286,1.44 0.919,2.78 1.903,4.016 1.05,1.323 2.505,2.351 4.363,3.083 1.859,0.732 4.018,1.097 6.475,1.097 3.042,0 5.538,-0.42 7.491,-1.267 1.95,-0.843 3.461,-2.06 4.532,-3.646 1.069,-1.586 1.689,-3.251 1.857,-4.997 0.17,-1.745 0.254,-5.123 0.254,-10.135 v -6.334 c 0,-5.425 -0.075,-9.054 -0.226,-10.883 -0.149,-1.829 -0.801,-3.56 -1.956,-5.194 -1.154,-1.632 -2.716,-2.858 -4.687,-3.674 -1.972,-0.816 -4.251,-1.224 -6.841,-1.224 -3.211,0 -5.833,0.514 -7.869,1.548 -2.038,1.031 -3.502,2.486 -4.393,4.363 -0.122,0.257 -0.235,0.522 -0.34,0.797 2.889,-28.122 11.953,-54.418 25.809,-77.505 -0.509,1.776 -0.764,4.253 -0.764,7.428 0,2.76 0.212,5.154 0.634,7.184 0.423,2.027 1.75,3.651 3.984,4.872 -1.407,0.674 -2.464,1.749 -3.167,3.221 -0.705,1.472 -1.056,3.344 -1.056,5.612 0,3.923 1.089,6.862 3.266,8.823 2.177,1.959 5.433,2.939 9.77,2.939 2.231,0 4.157,-0.206 5.774,-0.62 -2.322,11.833 -3.539,24.062 -3.539,36.575 0,23.652 4.347,46.284 12.288,67.15 -0.12,-0.003 -0.241,-0.003 -0.362,-0.003 -2.721,0 -4.984,0.314 -6.786,0.943 -1.801,0.627 -3.236,1.608 -4.307,2.941 -1.069,1.333 -1.83,2.734 -2.28,4.209 -0.45,1.472 -0.676,3.816 -0.676,7.023 v 15.908 c 0,4.186 0.361,7.32 1.083,9.405 0.724,2.083 2.159,3.753 4.308,5.01 2.15,1.259 4.753,1.888 7.813,1.888 2.496,0 4.731,-0.437 6.702,-1.311 1.97,-0.871 3.444,-1.938 4.419,-3.195 0.976,-1.257 1.638,-2.675 1.985,-4.251 0.347,-1.577 0.521,-4.093 0.521,-7.546 v -4.721 c 8.107,14.208 18.007,27.261 29.39,38.851 h -10.02 v 24.439 c 0,3.53 -0.085,5.651 -0.253,6.362 -0.17,0.715 -0.634,1.255 -1.395,1.619 -0.76,0.365 -2.455,0.551 -5.082,0.551 H 77.93 v 5.313 c 5.5,1.183 9.676,3.616 12.529,7.299 h 6.702 v -44.218 c 3.403,3.396 6.933,6.661 10.586,9.79 v 13.284 c 0,3.53 -0.084,5.651 -0.253,6.362 -0.169,0.715 -0.634,1.255 -1.395,1.619 -0.759,0.365 -2.454,0.551 -5.082,0.551 h -1.126 v 5.313 c 5.5,1.183 9.676,3.616 12.529,7.299 h 6.702 v -25.414 c 13.272,9.715 27.855,17.736 43.441,23.751 -0.031,2.157 -0.111,3.506 -0.238,4.046 -0.17,0.714 -0.634,1.254 -1.395,1.619 -0.759,0.364 -2.454,0.55 -5.082,0.55 h -1.126 v 5.313 c 5.5,1.183 9.675,3.616 12.529,7.299 h 6.701 V -29.62 c 1.298,0.407 2.604,0.801 3.914,1.18 0.006,2.465 0.137,4.417 0.394,5.854 0.262,1.474 0.909,2.924 1.942,4.35 1.032,1.427 2.374,2.506 4.027,3.238 1.651,0.733 3.631,1.097 5.94,1.097 4.523,0 7.945,-1.122 10.262,-3.364 1.636,-1.583 2.694,-3.461 3.176,-5.638 8.793,1.256 17.783,1.906 26.923,1.906 22.204,0 43.512,-3.837 63.301,-10.876 C 263.805,-11.744 227.686,0 188.822,0 Z"
                                   style="fill:#f7f0e5;fill-opacity:1;fill-rule:nonzero;stroke:none"
                                   id="path141621" />
                                </g>
                                </g>
                                </g>
                                <g
                                   transform="translate(177.89561,20.1068)"
                                   id="g141635">
                                <g
                                   id="g141633">
                                <g
                                   id="g141631">
                                <path
                                   d="M 1.756,0 0,-8.109 c 3.33,-1.813 6.721,-3.528 10.168,-5.143 l 0.994,4.882 C 7.934,-5.684 4.797,-2.892 1.756,0 Z"
                                   style="fill:#878787;fill-opacity:1;fill-rule:nonzero;stroke:none"
                                   id="path141629" />
                                </g>
                                </g>
                                </g>
                                <g
                                   transform="translate(105.26901,120.992)"
                                   id="g141643">
                                <g
                                   id="g141641">
                                <g
                                   id="g141639">
                                <path
                                   d="m 13.656,-40.318 c -0.788,0 -1.366,0.281 -1.732,0.847 -0.366,0.562 -0.55,1.829 -0.55,3.8 v 5.911 c 0,1.785 0.165,2.952 0.494,3.507 0.327,0.553 0.868,0.829 1.618,0.829 0.77,0 1.333,-0.287 1.689,-0.859 0.357,-0.573 0.536,-1.731 0.536,-3.477 v -5.828 c 0,-2.009 -0.14,-3.298 -0.423,-3.871 -0.281,-0.572 -0.826,-0.859 -1.632,-0.859 z m -0.085,22.412 c -0.713,0 -1.22,0.263 -1.52,0.788 -0.302,0.527 -0.451,1.474 -0.451,2.846 v 3.46 c 0,1.465 0.132,2.464 0.395,2.998 0.262,0.537 0.768,0.803 1.519,0.803 0.77,0 1.291,-0.248 1.564,-0.745 0.27,-0.499 0.407,-1.515 0.407,-3.056 v -3.124 c 0,-1.614 -0.131,-2.681 -0.394,-3.195 -0.263,-0.517 -0.77,-0.775 -1.52,-0.775 z M 13.431,0 C 9.094,0 5.838,-0.98 3.661,-2.939 1.484,-4.9 0.395,-7.839 0.395,-11.762 c 0,-2.268 0.351,-4.14 1.056,-5.612 0.702,-1.472 1.759,-2.547 3.167,-3.221 C 2.384,-21.816 1.057,-23.44 0.633,-25.467 0.212,-27.497 0,-29.891 0,-32.651 c 0,-3.175 0.255,-5.652 0.764,-7.428 0.817,-1.362 1.65,-2.711 2.5,-4.049 0.646,-0.597 1.398,-1.128 2.254,-1.595 1.972,-1.069 4.646,-1.604 8.025,-1.604 3.472,0 6.241,0.558 8.306,1.676 2.064,1.116 3.452,2.548 4.167,4.294 0.712,1.748 1.069,4.463 1.069,8.141 0,1.88 -0.062,3.503 -0.187,4.869 -0.686,1.895 -1.345,3.809 -1.972,5.732 -0.81,0.852 -1.827,1.525 -3.049,2.02 0.773,0.424 1.443,0.849 2.008,1.275 -1.867,6.109 -3.432,12.346 -4.68,18.7 C 17.588,-0.206 15.662,0 13.431,0 Z"
                                   style="fill:#878787;fill-opacity:1;fill-rule:nonzero;stroke:none"
                                   id="path141637" />
                                </g>
                                </g>
                                </g>
                                <g
                                   transform="translate(79.22991,199.0648)"
                                   id="g141651">
                                <g
                                   id="g141649">
                                <g
                                   id="g141647">
                                <path
                                   d="m 13.651,-24.353 c -0.525,0 -1.036,0.226 -1.534,0.674 -0.498,0.451 -0.746,1.634 -0.746,3.548 v 8.531 c 0,2.103 0.262,3.393 0.788,3.872 0.525,0.478 1.032,0.719 1.521,0.719 0.807,0 1.384,-0.312 1.731,-0.93 0.347,-0.621 0.521,-1.933 0.521,-3.943 v -8.249 c 0,-1.671 -0.183,-2.79 -0.549,-3.363 -0.366,-0.573 -0.944,-0.859 -1.732,-0.859 z M 13.172,0 C 10.715,0 8.556,-0.366 6.697,-1.098 4.839,-1.83 3.384,-2.858 2.334,-4.181 1.35,-5.417 0.717,-6.757 0.432,-8.197 0.171,-12.058 0.026,-15.959 0,-19.88 c 0.031,-2.393 0.246,-4.316 0.644,-5.768 0.432,-1.578 1.445,-2.929 3.041,-4.054 1.595,-1.127 3.434,-1.69 5.518,-1.69 1.67,0 3.069,0.304 4.195,0.915 1.126,0.61 1.971,1.525 2.534,2.744 v -7.263 c 0,-1.707 -0.024,-2.845 -0.07,-3.407 -0.047,-0.563 -0.259,-1.024 -0.634,-1.378 -0.375,-0.358 -0.853,-0.535 -1.436,-0.535 -0.694,0 -1.243,0.187 -1.647,0.562 -0.404,0.375 -0.633,0.839 -0.689,1.394 -0.057,0.553 -0.085,1.89 -0.085,4.011 H 0.453 c 0.145,-2.107 0.326,-4.21 0.541,-6.298 0.105,-0.274 0.219,-0.54 0.341,-0.797 0.89,-1.877 2.354,-3.332 4.392,-4.363 2.036,-1.034 4.658,-1.548 7.869,-1.548 2.59,0 4.869,0.408 6.841,1.224 1.971,0.816 3.533,2.042 4.687,3.674 1.155,1.634 1.807,3.365 1.956,5.194 0.152,1.83 0.226,5.458 0.226,10.883 v 6.334 c 0,5.012 -0.084,8.39 -0.253,10.135 -0.169,1.747 -0.789,3.412 -1.858,4.997 -1.071,1.587 -2.581,2.803 -4.532,3.647 C 18.71,-0.421 16.214,0 13.172,0 Z"
                                   style="fill:#878787;fill-opacity:1;fill-rule:nonzero;stroke:none"
                                   id="path141645" />
                                </g>
                                </g>
                                </g>
                                <g
                                   transform="translate(96.95291,270.546)"
                                   id="g141659">
                                <g
                                   id="g141657">
                                <g
                                   id="g141655">
                                <path
                                   d="M 17.439,0 H 10.737 C 8.875,-2.403 6.449,-4.274 3.46,-5.612 2.26,-7.921 1.107,-10.255 0,-12.618 c 2.251,-0.029 3.724,-0.209 4.417,-0.542 0.761,-0.368 1.224,-0.908 1.394,-1.619 0.169,-0.715 0.254,-2.836 0.254,-6.364 v -24.438 h 11.374 z"
                                   style="fill:#878787;fill-opacity:1;fill-rule:nonzero;stroke:none"
                                   id="path141653" />
                                </g>
                                </g>
                                </g>
                                <g
                                   transform="translate(118.81161,271.4207)"
                                   id="g141667">
                                <g
                                   id="g141665">
                                <g
                                   id="g141663">
                                <path
                                   d="m 13.402,-40.319 c -0.845,0 -1.394,0.274 -1.647,0.816 -0.253,0.545 -0.38,2.141 -0.38,4.789 v 22.243 c 0,2.343 0.135,3.84 0.408,4.489 0.272,0.646 0.831,0.97 1.675,0.97 0.864,0 1.413,-0.303 1.647,-0.914 0.234,-0.611 0.352,-2.126 0.352,-4.545 v -22.582 c 0,-2.233 -0.132,-3.669 -0.394,-4.308 -0.264,-0.638 -0.817,-0.958 -1.661,-0.958 z M 13.204,0 C 10.145,0 7.541,-0.629 5.391,-1.888 3.242,-3.145 1.807,-4.815 1.084,-6.897 0.361,-8.983 0,-12.117 0,-16.303 V -32.21 c 0,-3.208 0.226,-5.552 0.676,-7.024 0.451,-1.475 1.211,-2.876 2.281,-4.209 1.07,-1.333 2.505,-2.313 4.307,-2.941 1.802,-0.629 4.064,-0.943 6.785,-0.943 0.122,0 0.242,10e-4 0.363,0.003 3.472,9.124 7.636,17.917 12.419,26.3 v 4.721 c 0,3.453 -0.173,5.969 -0.521,7.546 -0.347,1.576 -1.009,2.995 -1.985,4.252 -0.975,1.256 -2.449,2.323 -4.419,3.195 C 17.935,-0.436 15.7,0 13.204,0 Z"
                                   style="fill:#878787;fill-opacity:1;fill-rule:nonzero;stroke:none"
                                   id="path141661" />
                                </g>
                                </g>
                                </g>
                                <g
                                   transform="translate(157.15601,334.8313)"
                                   id="g141675">
                                <g
                                   id="g141673">
                                <g
                                   id="g141671">
                                <path
                                   d="M 19.231,0 H 12.529 C 9.676,-3.684 5.5,-6.116 0,-7.3 v -5.313 h 1.127 c 2.627,0 4.322,-0.185 5.082,-0.55 0.761,-0.365 1.225,-0.904 1.394,-1.619 0.169,-0.712 0.254,-2.833 0.254,-6.362 v -24.439 h 10.02 c 0.45,0.458 0.899,0.911 1.354,1.365 z"
                                   style="fill:#878787;fill-opacity:1;fill-rule:nonzero;stroke:none"
                                   id="path141669" />
                                </g>
                                </g>
                                </g>
                                <g
                                   transform="translate(179.11781,334.8313)"
                                   id="g141683">
                                <g
                                   id="g141681">
                                <g
                                   id="g141679">
                                <path
                                   d="M 19.23,0 H 12.528 C 9.675,-3.684 5.499,-6.116 0,-7.3 v -5.313 h 1.126 c 2.627,0 4.322,-0.185 5.081,-0.55 0.761,-0.365 1.226,-0.904 1.395,-1.619 0.169,-0.712 0.253,-2.833 0.253,-6.362 v -13.284 c 3.671,3.145 7.468,6.154 11.375,9.014 z"
                                   style="fill:#878787;fill-opacity:1;fill-rule:nonzero;stroke:none"
                                   id="path141677" />
                                </g>
                                </g>
                                </g>
                                <g
                                   transform="translate(233.94841,351.9951)"
                                   id="g141691">
                                <g
                                   id="g141689">
                                <g
                                   id="g141687">
                                <path
                                   d="M 19.23,0 H 12.528 C 9.675,-3.683 5.499,-6.116 0,-7.299 v -5.313 h 1.125 c 2.628,0 4.323,-0.186 5.083,-0.551 0.761,-0.364 1.224,-0.905 1.394,-1.619 0.128,-0.539 0.208,-1.889 0.239,-4.045 3.737,1.442 7.542,2.773 11.389,3.979 z"
                                   style="fill:#878787;fill-opacity:1;fill-rule:nonzero;stroke:none"
                                   id="path141685" />
                                </g>
                                </g>
                                </g>
                                <g
                                   transform="translate(257.09191,352.8675)"
                                   id="g141699">
                                <g
                                   id="g141697">
                                <g
                                   id="g141695">
                                <path
                                   d="M 12.303,0 C 9.995,0 8.014,-0.365 6.363,-1.097 4.711,-1.829 3.368,-2.909 2.336,-4.335 1.303,-5.762 0.656,-7.212 0.394,-8.686 0.137,-10.123 0.006,-12.075 0,-14.539 c 3.364,0.975 6.753,1.856 10.192,2.646 0.011,1.922 0.222,3.212 0.634,3.868 0.423,0.677 1.066,1.014 1.932,1.014 0.864,0 1.507,-0.304 1.931,-0.915 0.421,-0.611 0.634,-1.533 0.634,-2.772 0,-0.03 0,-0.06 0,-0.091 3.438,0.69 6.915,1.287 10.418,1.787 -0.482,2.176 -1.54,4.055 -3.176,5.637 C 20.248,-1.123 16.826,0 12.303,0 Z"
                                   style="fill:#878787;fill-opacity:1;fill-rule:nonzero;stroke:none"
                                   id="path141693" />
                                </g>
                                </g>
                                </g>
                                <g
                                   transform="translate(0,356.7189)"
                                   id="g141707">
                                <g
                                   id="g141705">
                                <g
                                   id="g141703">
                                <path
                                   d="m 74.8069,0 c -0.264,0 -0.526,-0.017 -0.784,-0.051 -2.502,-0.329 -4.667,-1.857 -6.652,-3.416 -18.136,-14.232 -28.546,-35.648 -40.342,-54.938 -13.36,-21.844 -22.03699,-46.52 -25.42399,-71.894 -1.95,-14.6 -2.144,-29.439 -0.467,-44.073 0.423,-3.688 1.002,-7.483 2.963,-10.636 1.724,-2.769 4.79,-4.926 7.98299,-4.926 0.438,0 0.877,0.04 1.316,0.125 5.358,1.034 7.522,7.417 8.498,12.786 5.172,28.407 5.267,57.695 12.48,85.653 6.091,23.613 17.258,45.901 32.52,64.917 4.761,5.932 10.018,11.721 12.632,18.864 0.485,1.323 0.876,2.767 0.523,4.133 -0.57,2.19 -2.955,3.456 -5.246,3.456 z"
                                   style="fill:#d47052;fill-opacity:1;fill-rule:nonzero;stroke:none"
                                   id="path141701" />
                                </g>
                                </g>
                                </g>
                                <g
                                   transform="translate(92.36277,400.4912)"
                                   id="g141715">
                                <g
                                   id="g141713">
                                <g
                                   id="g141711">
                                <path
                                   d="m 38.9345,0 c -1.976,0 -3.976,-0.405 -5.833,-1.085 -3.5,-1.282 -6.589,-3.461 -9.592,-5.666 -6.506,-4.779 -16.21796,-10.285 -20.97396,-16.868 -2.918,-4.037 -4.6,-12.913 2.299,-12.913 0.518,0 1.084,0.05 1.702,0.156 2.352,0.403 4.42096,1.743 6.41696,3.053 8.234,5.412 16.471,10.822 24.705,16.232 3.799,2.496 7.834,5.283 9.359,9.565 0.343,0.965 0.545,2.014 0.313,3.013 -0.375,1.619 -1.814,2.787 -3.327,3.473 -1.593,0.723 -3.322,1.04 -5.069,1.04 z"
                                   style="fill:#d47052;fill-opacity:1;fill-rule:nonzero;stroke:none"
                                   id="path141709" />
                                </g>
                                </g>
                                </g>
                                <g
                                   transform="translate(293.29961,553.4985)"
                                   id="g141723">
                                <g
                                   id="g141721">
                                <g
                                   id="g141719">
                                <path
                                   d="m 0,-206.898 94.388,91.491 -34.007,10e-4 c 24.796,25.072 53.624,44.705 83.934,57.471 L 106.865,0 C 72.509,-29.591 45.992,-65.492 27.833,-103.955 L 0.34,-75.446 Z"
                                   style="fill:#e5bc20;fill-opacity:1;fill-rule:nonzero;stroke:none"
                                   id="path141717" />
                                </g>
                                </g>
                                </g>
                                </g>
                                </g>
                                </g>
                              </g>
                            </g>
                          </g>
                        </g>
                      </g>
                    </g>
                  </g>
                </g>
              </g>
            </g>
          </g>
        </g>
      </g>
    </g>
  </g>
</svg>
