<?xml version="1.0" encoding="UTF-8" standalone="no"?>
<!-- Created with Inkscape (http://www.inkscape.org/) -->

<svg
   version="1.1"
   id="svg142231"
   width="400"
   height="200"
   viewBox="0 0 400 200"
   sodipodi:docname="1524_word.pdf"
   xmlns:inkscape="http://www.inkscape.org/namespaces/inkscape"
   xmlns:sodipodi="http://sodipodi.sourceforge.net/DTD/sodipodi-0.dtd"
   xmlns="http://www.w3.org/2000/svg"
   xmlns:svg="http://www.w3.org/2000/svg">
  <defs
     id="defs142235">
    <clipPath
       clipPathUnits="userSpaceOnUse"
       id="clipPath142253">
      <path
         d="M 0,-300.612 H 348.57665 V 300.612 H 0 Z"
         id="path142251" />
    </clipPath>
  </defs>
  <sodipodi:namedview
     id="namedview142233"
     pagecolor="#ffffff"
     bordercolor="#000000"
     borderopacity="0.25"
     inkscape:showpageshadow="2"
     inkscape:pageopacity="0.0"
     inkscape:pagecheckerboard="0"
     inkscape:deskcolor="#d1d1d1" />
  <g
     id="g142237"
     inkscape:groupmode="layer"
     inkscape:label="1524_word46"
     transform="matrix(1.3333333,0,0,-1.3333333,0,200)">
    <g
       id="g142239">
      <g
         id="g142241">
        <g
           id="g142243"
           transform="translate(91.90333,148.10248)">
          <g
             id="g142245"
             transform="matrix(0.33334,0,0,0.33334,0,-33.40198)">
            <g
               id="g142247">
              <g
                 id="g142249" />
              <g
                 id="g142289">
                <g
                   clip-path="url(#clipPath142253)"
                   id="g142287">
                  <g
                     transform="translate(0,-78.40044)"
                     id="g142261">
                    <g
                       id="g142259">
                      <g
                         id="g142257">
                        <path
                           d="m 39.7875,-122.007 h -4.1931 c -16.0631,0 -27.92792,3.093 -35.5944,9.278 l 2.00267,14.379 c 2.20086,-1.773 5.06927,-3.249 8.60523,-4.428 3.536,-1.178 7.1085,-2.06 10.7174,-2.644 3.6195,-0.595 6.7538,-0.965 9.4032,-1.111 l 3.755,-0.438 c 11.2025,1.909 19.8234,7.6927 25.8627,17.3514 6.0393,9.6483 9.424,20.3657 10.1542,32.1523 -1.7628,12.5271 -8.1672,28.9553 -19.2132,49.2845 L 67.4181,0 c 4.7146,-9.42925 8.7669,-18.5664 12.1569,-27.4116 2.7954,-5.7472 6.0341,-9.69 9.7161,-11.8283 3.682,-2.1382 7.9533,-3.2074 12.8139,-3.2074 3.244,0 6.008,-0.8084 8.292,-2.4251 2.285,-1.6167 3.427,-4.1201 3.427,-7.51 0,-6.7799 -3.906,-10.1698 -11.719,-10.1698 -6.6234,0 -11.8491,1.2516 -15.6771,3.755 0,-3.8281 -0.2973,-7.218 -0.8919,-10.1699 C 83.3248,-81.3377 78.8657,-92.9 72.1588,-103.654 65.4624,-114.418 54.6719,-120.536 39.7875,-122.007 Z"
                           style="fill:#000000;fill-opacity:1;fill-rule:nonzero;stroke:none"
                           id="path142255" />
                      </g>
                    </g>
                  </g>
                  <g
                     transform="translate(88.50463,-47.68757)"
                     id="g142269">
                    <g
                       id="g142267">
                      <g
                         id="g142265">
                        <path
                           d="m 74.9125,-147.196 c -10.3054,0 -18.8481,2.764 -25.628,8.292 -6.7798,5.528 -11.9743,12.381 -15.5833,20.559 -3.6089,8.177 -5.7837,16.537 -6.5243,25.0799 H 11.046 c -4.13052,0 -7.00415,1.1786 -8.62089,3.536 C 0.80837,-87.3718 0,-85.1605 0,-83.0953 c 0,2.5034 0.92311,4.7824 2.76932,6.8373 1.83579,2.0652 4.59468,3.0978 8.27668,3.0978 h 16.569 c 2.0652,13.4138 5.9715,26.4937 11.7188,39.2399 C 45.081,-21.1741 51.3446,-9.86734 58.1245,0 h 5.961 c 5.6013,-6.4774 10.1699,-11.9274 13.7058,-16.3499 11.4945,-14.5924 17.2418,-27.0414 17.2418,-37.3468 0,-6.6338 -1.768,-13.1217 -5.304,-19.4635 h 27.1769 c 3.39,0 6.227,-0.8083 8.511,-2.4251 2.285,-1.6167 3.427,-4.12 3.427,-7.51 0,-6.7799 -3.979,-10.1698 -11.938,-10.1698 H 93.7032 c 4.2765,-2.9519 7.6298,-6.2323 10.0608,-9.8409 2.43,-3.609 3.645,-7.99 3.645,-13.143 0,-6.331 -1.585,-11.818 -4.756,-16.459 -3.1713,-4.642 -7.26,-8.214 -12.2667,-10.718 -5.0067,-2.514 -10.1646,-3.77 -15.4738,-3.77 z m -19.8859,74.0358 c 7.2179,0 12.7044,0.6624 16.4594,1.9871 3.7655,1.3351 6.3106,3.1813 7.6352,5.5386 1.3247,2.3573 1.9871,5.0067 1.9871,7.9481 0,5.4552 -1.9923,11.4215 -5.9768,17.8989 -3.974,6.4878 -8.6104,12.3811 -13.9092,17.6799 C 51.1985,-38.1603 44.789,-55.1778 41.9936,-73.1602 Z m 20.3396,-57.4518 c 5.4448,0 9.7526,1.288 12.9235,3.865 3.1709,2.576 4.7564,6.149 4.7564,10.717 0,2.952 -1.1787,6.196 -3.536,9.732 -2.3573,3.536 -6.2636,6.592 -11.7188,9.1684 -5.4552,2.5763 -12.8244,3.8645 -22.1076,3.8645 H 41.5398 c 1.4812,-10.0239 5.1684,-18.7539 11.0617,-26.1909 5.8932,-7.437 13.4815,-11.156 22.7647,-11.156 z"
                           style="fill:#000000;fill-opacity:1;fill-rule:nonzero;stroke:none"
                           id="path142263" />
                      </g>
                    </g>
                  </g>
                  <g
                     transform="translate(209.1732,100.20496)"
                     id="g142277">
                    <g
                       id="g142275">
                      <g
                         id="g142273">
                        <path
                           d="M 1.54894,-20.105 0,-12.814 C 13.8518,-8.53744 25.7844,-4.26611 35.7978,0 l 1.3299,-7.94811 C 25.1951,-12.8088 13.3355,-16.861 1.54894,-20.105 Z"
                           style="fill:#f81436;fill-opacity:1;fill-rule:nonzero;stroke:none"
                           id="path142271" />
                      </g>
                    </g>
                  </g>
                  <g
                     transform="translate(194.32388,19.49586)"
                     id="g142285">
                    <g
                       id="g142283">
                      <g
                         id="g142281">
                        <path
                           d="M 45.9676,-160.449 H 11.046 c -4.42258,0 -7.36922,1.179 -8.83993,3.536 C 0.73536,-154.555 0,-152.271 0,-150.06 c 0,1.92 0.73536,4.016 2.20607,6.29 1.47071,2.284 4.41735,3.426 8.83993,3.426 h 14.582 c 2.3573,3.839 4.2713,7.448 5.742,10.827 1.4811,3.39 2.2217,7.594 2.2217,12.611 L 29.1639,-1.31425 45.9676,0 48.8308,-79.7784 c 0.3025,-8.8451 0.4537,-15.771 0.4537,-20.7776 -0.146,-5.007 -0.3703,-8.913 -0.6727,-11.719 8.407,10.765 17.951,19.6827 28.6319,26.7546 10.681,7.0719 21.7687,10.6079 33.2633,10.6079 8.689,0 16.308,-2.0287 22.859,-6.0862 6.56,-4.0471 11.682,-9.2415 15.364,-15.5833 3.682,-6.331 5.523,-12.96 5.523,-19.886 0,-9.429 -3.093,-17.388 -9.278,-23.876 -7.802,-8.396 -21.873,-14.138 -42.213,-17.226 -12.3705,-1.919 -31.302,-2.879 -56.7944,-2.879 z m 4.4121,20.105 c 15.3226,0 29.3934,0.48 42.2126,1.44 12.8197,0.959 22.1027,2.284 27.8497,3.974 5.747,1.7 10.389,3.911 13.925,6.634 3.536,2.733 5.304,6.602 5.304,11.609 0,3.39 -1.142,6.926 -3.427,10.608 -2.284,3.682 -5.747,6.8476 -10.389,9.497 -4.641,2.6598 -10.571,3.9897 -17.789,3.9897 -9.1371,0 -19.4894,-3.8698 -31.057,-11.6097 -11.5571,-7.739 -22.7178,-19.786 -33.4822,-36.142 z m 46.8595,93.2655 c -3.2439,0 -5.9715,1.1057 -8.1828,3.317 -2.2113,2.2112 -3.317,5.1579 -3.317,8.8399 0,3.3899 1.1057,6.227 3.317,8.5113 2.2113,2.2843 4.9389,3.4265 8.1828,3.4265 6.9258,0 10.7588,-3.9793 11.4998,-11.9378 0,-7.51 -3.833,-11.5623 -11.4998,-12.1569 z"
                           style="fill:#f81436;fill-opacity:1;fill-rule:nonzero;stroke:none"
                           id="path142279" />
                      </g>
                    </g>
                  </g>
                </g>
              </g>
            </g>
          </g>
        </g>
      </g>
    </g>
  </g>
</svg>
