<?xml version="1.0" encoding="UTF-8" standalone="no"?>
<!-- Created with Inkscape (http://www.inkscape.org/) -->

<svg
   version="1.1"
   id="svg142057"
   width="400"
   height="400"
   viewBox="0 0 400 400"
   sodipodi:docname="1524_pic.pdf"
   xmlns:inkscape="http://www.inkscape.org/namespaces/inkscape"
   xmlns:sodipodi="http://sodipodi.sourceforge.net/DTD/sodipodi-0.dtd"
   xmlns="http://www.w3.org/2000/svg"
   xmlns:svg="http://www.w3.org/2000/svg">
  <defs
     id="defs142061">
    <clipPath
       clipPathUnits="userSpaceOnUse"
       id="clipPath142077">
      <path
         d="M 0,0 H 131.83475 V -179.35223 H 0 Z"
         clip-rule="evenodd"
         id="path142075" />
    </clipPath>
    <clipPath
       clipPathUnits="userSpaceOnUse"
       id="clipPath142087">
      <path
         d="M 0,-538.05475 H 395.50269 V 538.05475 H 0 Z"
         id="path142085" />
    </clipPath>
  </defs>
  <sodipodi:namedview
     id="namedview142059"
     pagecolor="#ffffff"
     bordercolor="#000000"
     borderopacity="0.25"
     inkscape:showpageshadow="2"
     inkscape:pageopacity="0.0"
     inkscape:pagecheckerboard="0"
     inkscape:deskcolor="#d1d1d1" />
  <g
     id="g142063"
     inkscape:groupmode="layer"
     inkscape:label="1524_pic45"
     transform="matrix(1.3333333,0,0,-1.3333333,0,400)">
    <g
       id="g142065">
      <g
         id="g142067">
        <g
           id="g142069"
           transform="translate(84.08268,239.67607)">
          <g
             id="g142071">
            <g
               id="g142073"
               clip-path="url(#clipPath142077)">
              <g
                 id="g142079"
                 transform="matrix(0.33333,0,0,0.33333,0,-59.78424)">
                <g
                   id="g142081">
                  <g
                     id="g142083" />
                  <g
                     id="g142171">
                    <g
                       clip-path="url(#clipPath142087)"
                       id="g142169">
                      <g
                         transform="translate(104.87563,165.15017)"
                         id="g142095">
                        <g
                           id="g142093">
                          <g
                             id="g142091">
                            <path
                               d="M 181.767,-51.9948 C 169.478,-9.37277 128.02,0.31623 92.8771,-0.00777 c -35.145,0.324 -76.604,-9.365 -88.89197,-51.98703 -6.634,-23.008 -3.961,-48.1302 0.6,-71.7882 5.78997,-30.038 15.07997,-60.409 33.86797,-82.396 14.12,-16.523 34.698,-27.095 54.424,-25.899 19.7219,-1.196 40.3019,9.376 54.4219,25.899 18.788,21.987 28.076,52.358 33.868,82.396 4.561,23.658 7.234,48.7802 0.6,71.7882 z"
                               style="fill:#ffd3ae;fill-opacity:1;fill-rule:nonzero;stroke:none"
                               id="path142089" />
                          </g>
                        </g>
                      </g>
                      <g
                         transform="translate(138.40106,-13.89509)"
                         id="g142103">
                        <g
                           id="g142101">
                          <g
                             id="g142099">
                            <path
                               d="m 101.68,-50.2074 c 0.983,9.653 5.806,21.661 3.21,31.318 -3.174,11.80999 -14.286,17.96199 -24.603,18.75499 -7.122,0.547 -14.46,-0.549 -20.937,-3.777 -6.477,3.228 -13.816,4.324 -20.936,3.777 -10.318,-0.793 -21.429,-6.945 -24.604,-18.75499 -2.595,-9.657 2.228,-21.665 3.211,-31.318 3.017,-29.662 -2.913,-60.4596 -17.021,-85.9376 19.633,-3.269 39.494,-4.854 59.35,-4.767 19.856,-0.087 39.716,1.498 59.351,4.767 -14.109,25.478 -20.041,56.2756 -17.021,85.9376 z"
                               style="fill:#ffd3ae;fill-opacity:1;fill-rule:nonzero;stroke:none"
                               id="path142097" />
                          </g>
                        </g>
                      </g>
                      <g
                         transform="translate(0,-92.20044)"
                         id="g142111">
                        <g
                           id="g142109">
                          <g
                             id="g142107">
                            <path
                               d="m 393.177,-266.502 c 4.104,44.74 1.958,90.013 -0.207,134.983 -0.51,10.576 -1.034,21.255 -3.775,31.444 -2.74,10.1925 -7.929,19.9995 -16.13,26.1725 -14.792,11.138 -34.838,8.073 -53.046,7.943 -26.259,-0.187 -52.535,6.937 -75.417,20.45 -12.688,7.494 -25.084,17.698 -30.328,32.388 -2.374,6.65803 -3.123,9.47603 -10.564,11.86203 v 0.975 c -1.969,0.296 -3.974,0.358 -5.959,0.2 -1.986,0.158 -3.989,0.096 -5.958,-0.2 v -0.975 c -7.441,-2.386 -8.19,-5.204 -10.567,-11.86203 -5.241,-14.69 -17.639,-24.894 -30.327,-32.388 -22.882,-13.513 -49.156,-20.637 -75.4159,-20.45 -18.207,0.13 -38.253,3.195 -53.045,-7.943 -8.201,-6.173 -13.39004,-15.98 -16.13104,-26.1725 -2.74,-10.189 -3.265,-20.868 -3.774,-31.444 -2.16499,-44.97 -4.31199,-90.243 -0.20703,-134.983 z"
                               style="fill:#ffd3ae;fill-opacity:1;fill-rule:nonzero;stroke:none"
                               id="path142105" />
                          </g>
                        </g>
                      </g>
                      <g
                         transform="translate(89.21687,179.35215)"
                         id="g142119">
                        <g
                           id="g142117">
                          <g
                             id="g142115">
                            <path
                               d="m 214.326,-59.9219 c -4.504,16.715 -14.62,32.569 -29.934,40.64 -19.778,10.42695 -45.323,5.081 -45.323,5.081 0,0 -62.5381,31.811 -97.9511,0.211 -5.972,-5.328 -12.029,-10.591 -16.884,-16.951 -20.89301,-27.37 -28.19001,-63.983 -22.22601,-97.8981 5.964,-33.914 24.50301,-65 49.53101,-88.649 17.243,-16.295 38.274,-30.298 47.505,-52.153 -0.588,3.495 -0.337,7.126 0.73,10.504 2.4491,-3.205 15.8651,-12.786 21.5421,-18.686 -5.583,10.053 -0.211,26.625 7.69,31.452 8.828,5.392 60.869,41.916 71.087,64.043 10.217,22.125 14.51,46.534 16.691,70.807 1.548,17.2421 2.046,34.8841 -2.458,51.5991 z"
                               style="fill:#a36655;fill-opacity:1;fill-rule:nonzero;stroke:none"
                               id="path142113" />
                          </g>
                        </g>
                      </g>
                      <g
                         transform="translate(89.21792,166.5199)"
                         id="g142127">
                        <g
                           id="g142125">
                          <g
                             id="g142123">
                            <path
                               d="m 184.389,-6.4492 c -11.155,5.879 -24.143,6.743 -33.348,6.377 15.705,-13.496 27.009,-32.114 31.484,-52.347 5.352,-24.187 0.889,-50.3968 -12.164,-71.4508 1.119,12.708 1.025,25.5198 -0.279,38.2108 -5.179,-23.6488 -12.813,-46.7608 -22.74,-68.8418 1.394,21.842 2.786,43.682 4.177,65.5218 -4.982,-43.8708 -19.702,-86.6078 -42.792,-124.2428 -2.918,-0.07 -4.235,3.571 -4.703,6.453 -2.552,15.772 -5.1039,31.544 -7.6559,47.315 -2.84,-18.841 -3.721,-37.979 -2.623,-57.003 -20.047,22.719 -35.083,49.835 -43.741,78.869 1.681,-17.59 6.713,-34.853 14.75,-50.591 -16.108,13.531 -29.413,30.269 -39.385,48.771 -13.24,24.558 -20.36896,51.7738 -21.21396,79.4028 -4.701,-18.178 -5.406,-37.49 -2.151,-56.0008 5.965,-33.914 24.50396,-65 49.53196,-88.649 17.245,-16.297 38.274,-30.298 47.505,-52.153 -0.588,3.493 -0.338,7.126 0.73,10.504 2.4479,-3.204 15.8649,-12.788 21.5439,-18.688 -5.585,10.053 -0.213,26.627 7.688,31.454 8.827,5.393 60.869,41.917 71.087,64.042 10.217,22.126 14.512,46.535 16.69,70.8088 1.549,17.241 2.047,34.883 -2.457,51.598 -4.504,16.714 -14.62,32.567 -29.934,40.64 z"
                               style="fill:#895043;fill-opacity:1;fill-rule:nonzero;stroke:none"
                               id="path142121" />
                          </g>
                        </g>
                      </g>
                      <g
                         transform="translate(82.87376,-263.2168)"
                         id="g142135">
                        <g
                           id="g142133">
                          <g
                             id="g142131">
                            <path
                               d="m 63.402,-58.385 c 2.639,1.168 5.332,2.386 7.407,4.389 2.75,2.654 4.123,6.392 5.355,10.012 4.896,14.397 8.912,29.096 12.013,43.984 -2.435,-19.454 -5.442,-38.838 -9.014,-58.117 -0.532,-2.878 -1.143,-5.894 -3.042,-8.122 -1.606,-1.884 -3.941,-2.967 -6.223,-3.923 C 47.73,-79.45 23.662,-82.041 0,-84.733 c 9.269,2.258 18.837,7.863 27.768,11.406 11.974,4.749 23.855,9.731 35.634,14.942 z"
                               style="fill:#ffbc8f;fill-opacity:1;fill-rule:nonzero;stroke:none"
                               id="path142129" />
                          </g>
                        </g>
                      </g>
                      <g
                         transform="translate(232.33426,-258.5928)"
                         id="g142143">
                        <g
                           id="g142141">
                          <g
                             id="g142139">
                            <path
                               d="m 18.154,-60.771 c -2.492,1.454 -5.034,2.959 -6.875,5.183 -2.437,2.945 -3.388,6.809 -4.212,10.542 C 3.795,-30.194 1.433,-15.142 0,0 c 0.265,-19.607 1.105,-39.203 2.519,-58.76 0.212,-2.918 0.485,-5.985 2.126,-8.409 1.387,-2.05 3.586,-3.386 5.751,-4.587 21.001,-11.687 44.635,-16.929 67.852,-22.221 -8.961,3.267 -17.851,9.898 -26.335,14.408 -11.374,6.045 -22.629,12.313 -33.759,18.798 z"
                               style="fill:#ffbc8f;fill-opacity:1;fill-rule:nonzero;stroke:none"
                               id="path142137" />
                          </g>
                        </g>
                      </g>
                      <g
                         transform="translate(44.15966,-289.3559)"
                         id="g142151">
                        <g
                           id="g142149">
                          <g
                             id="g142147">
                            <path
                               d="m 17.76,-69.3467 c -0.885,17.7889 -2.495,35.5388 -4.829,53.1937 -0.164,1.247 -0.352,2.548 -1.071,3.58 -0.72,1.032 -1.875,1.656 -2.939,2.331 C 5.045,-7.78 1.905,-4.176 0,0 c 6.803,-14.914 10.081,-29.918 10.858,-46.303 0.363,-7.6259 0.495,-15.3958 0.108,-23.0437 z"
                               style="fill:#ffbc8f;fill-opacity:1;fill-rule:nonzero;stroke:none"
                               id="path142145" />
                          </g>
                        </g>
                      </g>
                      <g
                         transform="translate(322.65888,-289.3559)"
                         id="g142159">
                        <g
                           id="g142157">
                          <g
                             id="g142155">
                            <path
                               d="m 0,-69.3467 c 0.885,17.7889 2.494,35.5388 4.82698,53.1937 0.164,1.247 0.352,2.548 1.073,3.58 0.72,1.032 1.873,1.656 2.937,2.331 C 12.713,-7.78 15.853,-4.176 17.758,0 10.957,-14.914 7.67698,-29.918 6.90198,-46.303 6.53899,-53.9289 6.40599,-61.6988 6.79397,-69.3467 Z"
                               style="fill:#ffbc8f;fill-opacity:1;fill-rule:nonzero;stroke:none"
                               id="path142153" />
                          </g>
                        </g>
                      </g>
                      <g
                         transform="translate(161.94506,-168.47)"
                         id="g142167">
                        <g
                           id="g142165">
                          <g
                             id="g142163">
                            <path
                               d="m 23.9,-18.592 c 4.138,-19.897 5.706,-40.146 7.266,-60.341 1.616,-20.931 3.233,-41.862 4.849,-62.791 1.23,-15.908 2.458,-31.826 2.541,-47.77 2.948,53.342 2.024,106.855 -2.762,160.088 -0.196,2.181 -0.413,4.41 -1.426,6.4 -0.965,1.894 -2.591,3.441 -4.244,4.899 C 21.638,-10.629 11.172,-3.772 0,0 3.022,-2.999 7.639,-5.962 11.442,-8.194 15.354,-10.493 23.659,-17.436 23.9,-18.592 Z"
                               style="fill:#ffbc8f;fill-opacity:1;fill-rule:nonzero;stroke:none"
                               id="path142161" />
                          </g>
                        </g>
                      </g>
                    </g>
                  </g>
                </g>
              </g>
            </g>
          </g>
        </g>
      </g>
    </g>
  </g>
</svg>
