<?xml version="1.0" encoding="UTF-8" standalone="no"?>
<!-- Created with Inkscape (http://www.inkscape.org/) -->

<svg
   version="1.1"
   id="svg142618"
   width="400"
   height="200"
   viewBox="0 0 400 200"
   sodipodi:docname="1525_word.pdf"
   xmlns:inkscape="http://www.inkscape.org/namespaces/inkscape"
   xmlns:sodipodi="http://sodipodi.sourceforge.net/DTD/sodipodi-0.dtd"
   xmlns="http://www.w3.org/2000/svg"
   xmlns:svg="http://www.w3.org/2000/svg">
  <defs
     id="defs142622">
    <clipPath
       clipPathUnits="userSpaceOnUse"
       id="clipPath142640">
      <path
         d="M 0,-272.98137 H 439.57862 V 272.98137 H 0 Z"
         id="path142638" />
    </clipPath>
  </defs>
  <sodipodi:namedview
     id="namedview142620"
     pagecolor="#ffffff"
     bordercolor="#000000"
     borderopacity="0.25"
     inkscape:showpageshadow="2"
     inkscape:pageopacity="0.0"
     inkscape:pagecheckerboard="0"
     inkscape:deskcolor="#d1d1d1" />
  <g
     id="g142624"
     inkscape:groupmode="layer"
     inkscape:label="1525_word48"
     transform="matrix(1.3333333,0,0,-1.3333333,0,200)">
    <g
       id="g142626">
      <g
         id="g142628">
        <g
           id="g142630"
           transform="translate(76.73667,148.49704)">
          <g
             id="g142632"
             transform="matrix(0.33333,0,0,0.33333,0,-30.33145)">
            <g
               id="g142634">
              <g
                 id="g142636" />
              <g
                 id="g142676">
                <g
                   clip-path="url(#clipPath142640)"
                   id="g142674">
                  <g
                     transform="translate(0,-61.31059)"
                     id="g142648">
                    <g
                       id="g142646">
                      <g
                         id="g142644">
                        <path
                           d="M 10.6079,-120.677 0,-109.631 c 16.0527,6.634 30.7442,13.9251 44.0745,21.8732 13.3407,7.9586 22.7386,15.6981 28.1938,23.2185 2.5034,2.7954 6.0393,11.6354 10.6079,26.5198 4.4226,13.5493 9.2468,23.2706 14.4725,29.16393 C 102.585,-2.95186 109.401,0 117.798,0 c 7.072,0 13.33,-2.39904 18.775,-7.19711 5.455,-4.78759 9.69,-10.71739 12.704,-17.78939 3.025,-7.0719 4.538,-13.9196 4.538,-20.543 0,-9.1372 -2.321,-16.6525 -6.963,-22.5457 -4.641,-5.8933 -10.498,-8.84 -17.57,-8.84 -12.663,0 -25.92,5.231 -39.7719,15.6929 l -0.6728,-1.9871 c -1.3247,-5.8933 -4.2713,-12.2298 -8.8399,-19.0097 -6.6234,-8.2506 -16.496,-15.9119 -29.6177,-22.9839 -13.1112,-7.072 -26.3685,-12.23 -39.7718,-15.474 z m 118.6741,62.9906 c 2.952,0 5.455,1.1005 7.51,3.3013 2.065,2.2113 3.098,5.0901 3.098,8.6365 0,6.6235 -2.357,13.0278 -7.072,19.2132 -4.715,6.1958 -10.092,9.2936 -16.131,9.2936 -4.12,0 -7.875,-1.6949 -11.265,-5.0849 -3.39,-3.3899 -6.6339,-10.1698 -9.7318,-20.3396 4.1305,-3.9741 9.2888,-7.4735 15.4738,-10.4984 6.185,-3.0145 12.225,-4.5217 18.118,-4.5217 z"
                           style="fill:#000000;fill-opacity:1;fill-rule:nonzero;stroke:none"
                           id="path142642" />
                      </g>
                    </g>
                  </g>
                  <g
                     transform="translate(158.72887,10.28497)"
                     id="g142656">
                    <g
                       id="g142654">
                      <g
                         id="g142652">
                        <path
                           d="m 19.0097,-165.533 h -4.6468 l -5.96106,15.035 c 22.83256,1.617 42.64546,7.583 59.43876,17.899 -0.5842,3.244 -2.5347,7.698 -5.8516,13.362 -3.3169,5.674 -8.6574,13.888 -16.0214,24.642 C 29.7585,-71.0115 14.4359,-51.1933 0,-35.1407 l 14.801,13.0487 c 11.0564,-13.7058 23.5836,-30.6503 37.5814,-50.8335 18.118,-26.671 27.4742,-43.8395 28.0687,-51.5065 3.682,2.514 7.0668,6.937 10.1542,13.268 3.0979,6.331 4.6468,14.3629 4.6468,24.0947 L 92.3733,-1.31425 108.958,0 l 3.317,-91.2781 c 0.438,-19.1509 2.461,-32.1519 6.07,-39.0049 3.609,-6.853 10.129,-10.28 19.558,-10.28 3.39,0 6.227,-0.771 8.511,-2.315 2.284,-1.544 3.427,-4.011 3.427,-7.401 0,-6.78 -3.98,-10.17 -11.938,-10.17 -10.316,0 -18.9,2.723 -25.753,8.168 -6.843,5.455 -11.516,15.108 -14.019,28.96 -6.6339,-14.144 -17.5756,-24.715 -32.8251,-31.714 -15.2495,-6.999 -30.6816,-10.498 -46.2962,-10.498 z"
                           style="fill:#000000;fill-opacity:1;fill-rule:nonzero;stroke:none"
                           id="path142650" />
                      </g>
                    </g>
                  </g>
                  <g
                     transform="translate(300.17517,90.99408)"
                     id="g142664">
                    <g
                       id="g142662">
                      <g
                         id="g142660">
                        <path
                           d="M 1.54894,-20.105 0,-12.814 C 13.8518,-8.53744 25.7844,-4.26611 35.7978,0 l 1.3299,-7.94811 C 25.1951,-12.8088 13.3355,-16.861 1.54894,-20.105 Z"
                           style="fill:#f81436;fill-opacity:1;fill-rule:nonzero;stroke:none"
                           id="path142658" />
                      </g>
                    </g>
                  </g>
                  <g
                     transform="translate(285.32585,10.28497)"
                     id="g142672">
                    <g
                       id="g142670">
                      <g
                         id="g142668">
                        <path
                           d="M 45.9676,-160.449 H 11.046 c -4.42258,0 -7.36922,1.179 -8.83993,3.536 C 0.73536,-154.555 0,-152.271 0,-150.06 c 0,1.92 0.73536,4.016 2.20607,6.29 1.47071,2.284 4.41735,3.426 8.83993,3.426 h 14.582 c 2.3573,3.839 4.2713,7.448 5.742,10.827 1.4811,3.39 2.2217,7.594 2.2217,12.611 L 29.1639,-1.31425 45.9676,0 48.8308,-79.7784 c 0.3025,-8.8451 0.4537,-15.771 0.4537,-20.7776 -0.146,-5.007 -0.3703,-8.913 -0.6727,-11.719 8.407,10.765 17.951,19.6827 28.6319,26.7546 10.681,7.0719 21.7687,10.6079 33.2633,10.6079 8.689,0 16.308,-2.0287 22.859,-6.0862 6.56,-4.0471 11.682,-9.2415 15.364,-15.5833 3.682,-6.331 5.523,-12.96 5.523,-19.886 0,-9.429 -3.093,-17.388 -9.278,-23.876 -7.802,-8.396 -21.873,-14.138 -42.213,-17.226 -12.3705,-1.919 -31.302,-2.879 -56.7944,-2.879 z m 4.4121,20.105 c 15.3226,0 29.3934,0.48 42.2126,1.44 12.8197,0.959 22.1027,2.284 27.8497,3.974 5.747,1.7 10.389,3.911 13.925,6.634 3.536,2.733 5.304,6.602 5.304,11.609 0,3.39 -1.142,6.926 -3.427,10.608 -2.284,3.682 -5.747,6.8476 -10.389,9.497 -4.641,2.6598 -10.571,3.9897 -17.789,3.9897 -9.1371,0 -19.4894,-3.8698 -31.057,-11.6097 -11.5571,-7.739 -22.7178,-19.786 -33.4822,-36.142 z m 46.8595,93.2655 c -3.2439,0 -5.9715,1.1057 -8.1828,3.317 -2.2113,2.2112 -3.317,5.1579 -3.317,8.8399 0,3.3899 1.1057,6.227 3.317,8.5113 2.2113,2.2843 4.9389,3.4265 8.1828,3.4265 6.9258,0 10.7588,-3.9793 11.4998,-11.9378 0,-7.51 -3.833,-11.5623 -11.4998,-12.1569 z"
                           style="fill:#f81436;fill-opacity:1;fill-rule:nonzero;stroke:none"
                           id="path142666" />
                      </g>
                    </g>
                  </g>
                </g>
              </g>
            </g>
          </g>
        </g>
      </g>
    </g>
  </g>
</svg>
