<?xml version="1.0" encoding="UTF-8" standalone="no"?>
<!-- Created with Inkscape (http://www.inkscape.org/) -->

<svg
   version="1.1"
   id="svg142708"
   width="400"
   height="400"
   viewBox="0 0 400 400"
   sodipodi:docname="1530_pic.pdf"
   xmlns:inkscape="http://www.inkscape.org/namespaces/inkscape"
   xmlns:sodipodi="http://sodipodi.sourceforge.net/DTD/sodipodi-0.dtd"
   xmlns="http://www.w3.org/2000/svg"
   xmlns:svg="http://www.w3.org/2000/svg">
  <defs
     id="defs142712">
    <clipPath
       clipPathUnits="userSpaceOnUse"
       id="clipPath142728">
      <path
         d="M 0,0 H 106.33351 V -183.10625 H 0 Z"
         clip-rule="evenodd"
         id="path142726" />
    </clipPath>
    <clipPath
       clipPathUnits="userSpaceOnUse"
       id="clipPath142738">
      <path
         d="m 0,-183.10625 h 300 v 366.2125 H 0 Z"
         id="path142736" />
    </clipPath>
  </defs>
  <sodipodi:namedview
     id="namedview142710"
     pagecolor="#ffffff"
     bordercolor="#000000"
     borderopacity="0.25"
     inkscape:showpageshadow="2"
     inkscape:pageopacity="0.0"
     inkscape:pagecheckerboard="0"
     inkscape:deskcolor="#d1d1d1" />
  <g
     id="g142714"
     inkscape:groupmode="layer"
     inkscape:label="1530_pic49"
     transform="matrix(1.3333333,0,0,-1.3333333,0,400)">
    <g
       id="g142716">
      <g
         id="g142718">
        <g
           id="g142720"
           transform="translate(108.17183,241.55313)">
          <g
             id="g142722">
            <g
               id="g142724"
               clip-path="url(#clipPath142728)">
              <g
                 id="g142730"
                 transform="translate(0,-183.10625)">
                <g
                   id="g142732">
                  <g
                     id="g142734" />
                  <g
                     id="g143054">
                    <g
                       clip-path="url(#clipPath142738)"
                       id="g143052">
                      <g
                         transform="translate(84.80147,44.23134)"
                         id="g142746">
                        <g
                           id="g142744">
                          <g
                             id="g142742">
                            <path
                               d="m 5.095,0 c 0,0 2.89634,-0.59867 5.24567,-1.67033 2.34967,-1.07201 5.16734,-2.44867 6.60401,-3.13701 1.72833,-0.827 0.22633,-2.359 -2.22534,-1.345 -2.453,1.014 -3.01833,1.23434 -3.01833,1.23434 0,0 8.22567,-6.16168 9.61901,-8.54634 1.27266,-2.17701 -3.43267,0.99433 -7.47001,3.40167 0,0 6.91001,-7.33168 6.48401,-8.99068 -0.559,-2.179 -8.90368,6.72801 -8.90368,6.72801 0,0 5.17734,-7.48234 4.19667,-7.97668 -1.09367,-0.55066 -7.32867,6.46034 -7.32867,6.46034 0,0 3.101,-5.45334 2.334,-5.54967 C 9.11601,-19.58035 0.29667,-9.55001 0,-3.45134 0,-3.45134 3.60767,0.002 5.095,0 Z"
                               style="fill:#ffaf82;fill-opacity:1;fill-rule:nonzero;stroke:none"
                               id="path142740" />
                          </g>
                        </g>
                      </g>
                      <g
                         transform="translate(90.69447,36.21353)"
                         id="g142754">
                        <g
                           id="g142752">
                          <g
                             id="g142750">
                            <path
                               d="M 7.20667,0 C 7.20667,0 4.43434,-3.95167 0,-4.61834 0,-4.61834 4.332,-5.994 7.20667,0 Z"
                               style="fill:#f88968;fill-opacity:1;fill-rule:nonzero;stroke:none"
                               id="path142748" />
                          </g>
                        </g>
                      </g>
                      <g
                         transform="translate(88.71469,42.85497)"
                         id="g142762">
                        <g
                           id="g142760">
                          <g
                             id="g142758">
                            <path
                               d="m 4.2887,-6.68134 c 0,0 -5.22299,2.125 -3.22099,6.68134 0,0 -3.905,-4.401 3.22099,-6.68134 z"
                               style="fill:#f88968;fill-opacity:1;fill-rule:nonzero;stroke:none"
                               id="path142756" />
                          </g>
                        </g>
                      </g>
                      <g
                         transform="translate(56.51371,126.0546)"
                         id="g142770">
                        <g
                           id="g142768">
                          <g
                             id="g142766">
                            <path
                               d="M 15.17171,-47.95204 C 11.19104,-13.70834 3.44504,0 3.44504,0 -3.5633,-28.67136 1.90703,-44.26203 4.2627,-51.73937 c 2.35767,-7.47734 24.02502,-34.4287 24.02502,-34.4287 1.67434,2.10034 3.91334,3.62601 6.05797,4.11901 0,0 -6.8663,12.10501 -9.2973,16.63768 -2.43334,4.53367 -9.87668,17.45934 -9.87668,17.45934 z"
                               style="fill:#00784e;fill-opacity:1;fill-rule:nonzero;stroke:none"
                               id="path142764" />
                          </g>
                        </g>
                      </g>
                      <g
                         transform="translate(45.92154,37.55373)"
                         id="g142778">
                        <g
                           id="g142776">
                          <g
                             id="g142774">
                            <path
                               d="M 2.58124,-37.5537 C 0.98184,-21.16325 0,-6.47267 0,-6.47267 7.39467,-3.08734 19.24968,0 19.24968,0 c 1.67464,-9.50931 2.80837,-24.02129 3.55824,-37.5537 z"
                               style="fill:#050705;fill-opacity:1;fill-rule:nonzero;stroke:none"
                               id="path142772" />
                          </g>
                        </g>
                      </g>
                      <g
                         transform="translate(17.13394,34.30356)"
                         id="g142786">
                        <g
                           id="g142784">
                          <g
                             id="g142782">
                            <path
                               d="m 23.57229,-3.222 c 0,0 -0.1106,-11.66321 -1.28534,-31.08169 L 0,-34.30369 C 0.31485,-22.97068 1.13309,-10.58727 2.94695,0 Z"
                               style="fill:#2c2c2c;fill-opacity:1;fill-rule:nonzero;stroke:none"
                               id="path142780" />
                          </g>
                        </g>
                      </g>
                      <g
                         transform="translate(18.1967,41.68843)"
                         id="g142794">
                        <g
                           id="g142792">
                          <g
                             id="g142790">
                            <path
                               d="m 3.25325,-0.47733 c 0,0 -3.286,-11.62035 -3.253,-21.97735 0,0 16.08366,-7.03834 36.54478,0.739 8.36634,3.17933 12.61568,12.50401 9.61701,20.93868 -0.035,0.099 -0.07134,0.19933 -0.10734,0.29967 0,0 -26.16378,1.074 -42.80145,0 z"
                               style="fill:#2c2c2c;fill-opacity:1;fill-rule:nonzero;stroke:none"
                               id="path142788" />
                          </g>
                        </g>
                      </g>
                      <g
                         transform="translate(10.72784,129.90097)"
                         id="g142802">
                        <g
                           id="g142800">
                          <g
                             id="g142798">
                            <path
                               d="m 59.32638,-95.39441 c -3.32334,-1.55467 -6.83134,-2.945 -10.46667,-4.084 -0.96767,-0.30267 -1.94234,-0.588 -2.92334,-0.85067 -5.14334,-1.38933 -10.49568,-2.241 -15.89735,-2.31533 -8.89967,-0.124 -17.92134,1.86366 -26.32202,7.04633 L 9.39301,-61.86705 0,-7.00901 l 14.05268,4.81367 0.75333,0.25834 1.384,0.47333 0.58634,0.20067 1.18433,0.404 2.50367,0.859 14.86268,-1.98767 0.89533,-0.12 1.52467,-0.20367 0.85067,-0.11466 10.63301,-1.419 z"
                               style="fill:#009762;fill-opacity:1;fill-rule:nonzero;stroke:none"
                               id="path142796" />
                          </g>
                        </g>
                      </g>
                      <g
                         transform="translate(27.50389,129.90057)"
                         id="g142810">
                        <g
                           id="g142808">
                          <g
                             id="g142806">
                            <path
                               d="m 29.16036,-100.32908 c -5.14334,-1.38833 -10.49568,-2.24 -15.89768,-2.31533 0.239,1.51233 0.43533,3.08033 0.58733,4.69467 0.08067,0.80533 0.14667,1.621 0.20133,2.44766 0.11267,1.62301 0.18834,3.28601 0.22867,4.98868 0.01967,0.804 0.03,1.61866 0.033,2.43833 0.0063,1.627 -0.01333,3.28367 -0.062,4.96334 -0.02467,0.80733 -0.05367,1.61667 -0.089,2.43233 -0.07033,1.632 -0.16333,3.28401 -0.281,4.95101 -0.055,0.80533 -0.11467,1.61167 -0.183,2.424 -0.13033,1.63633 -0.28,3.283 -0.45167,4.939 -0.08166,0.805 -0.16766,1.61434 -0.25833,2.42167 -0.181,1.64034 -0.38067,3.285 -0.59433,4.93067 -0.10467,0.807 -0.212,1.61634 -0.32267,2.42267 -0.22533,1.64567 -0.464,3.288 -0.71433,4.92634 -0.124,0.80933 -0.25,1.61667 -0.38034,2.424 -0.26366,1.65367 -0.53733,3.29934 -0.82267,4.93034 -0.13966,0.81166 -0.28333,1.621 -0.427,2.426 -0.29866,1.66233 -0.60366,3.30767 -0.91666,4.93267 -0.15534,0.81133 -0.31234,1.62067 -0.47134,2.426 -0.332,1.67334 -0.668,3.32534 -1.007,4.94401 -0.16933,0.82066 -0.342,1.631 -0.51466,2.43433 -0.36267,1.691 -0.72467,3.34367 -1.08734,4.951 -0.184,0.825 -0.37,1.63834 -0.55633,2.43834 -0.39267,1.716 -0.78434,3.374 -1.167,4.96567 -0.19834,0.83433 -0.39767,1.653 -0.59434,2.44867 -0.432,1.75933 -0.85166,3.42467 -1.25166,4.98134 -0.21901,0.85166 -0.43101,1.67133 -0.63667,2.457 C 0.955,-4.74234 0.44033,-2.84567 0,-1.262 L 1.18567,-0.858 3.688,0 l 14.86301,-1.98767 0.89601,-0.12 c 0.26666,-1.40167 0.53033,-2.80533 0.78466,-4.214 0.14567,-0.798 0.28734,-1.596 0.429,-2.397 0.281,-1.60034 0.555,-3.20334 0.82067,-4.80867 0.13433,-0.8 0.26567,-1.60101 0.394,-2.40134 0.25833,-1.605 0.50733,-3.20834 0.75133,-4.80934 0.121,-0.80233 0.24067,-1.60333 0.35767,-2.40333 0.23667,-1.60734 0.467,-3.21034 0.68734,-4.80967 0.11366,-0.804 0.22133,-1.60934 0.32966,-2.41234 0.217,-1.61167 0.427,-3.21667 0.62867,-4.81267 0.101,-0.80933 0.20133,-1.61467 0.30067,-2.41767 0.19633,-1.61766 0.38666,-3.223 0.56966,-4.818 0.093,-0.81033 0.184,-1.61867 0.27267,-2.42267 0.181,-1.625 0.35367,-3.23433 0.517,-4.82734 0.08467,-0.81333 0.16833,-1.62266 0.246,-2.428 0.16533,-1.631 0.31833,-3.24567 0.464,-4.83333 0.07533,-0.81967 0.14767,-1.63101 0.22133,-2.43634 0.14567,-1.64333 0.282,-3.257 0.40934,-4.83967 0.068,-0.82567 0.132,-1.63934 0.19433,-2.44667 0.126,-1.65567 0.24467,-3.27433 0.35134,-4.85067 0.059,-0.829 0.11266,-1.64467 0.16533,-2.45 0.10867,-1.67534 0.20567,-3.29834 0.29267,-4.86834 0.04833,-0.834 0.08966,-1.65367 0.132,-2.457 0.086,-1.70434 0.15933,-3.33667 0.21933,-4.884 0.035,-0.84667 0.064,-1.67134 0.091,-2.46734 0.05767,-1.76733 0.097,-3.40567 0.121,-4.90667 0.01333,-0.87667 0.02267,-1.70433 0.02267,-2.48267 0.004,-1.681 -0.01567,-3.13 -0.06,-4.31667 z"
                               style="fill:#e2e2e2;fill-opacity:1;fill-rule:nonzero;stroke:none"
                               id="path142804" />
                          </g>
                        </g>
                      </g>
                      <g
                         transform="translate(29.02782,123.57916)"
                         id="g142818">
                        <g
                           id="g142816">
                          <g
                             id="g142814">
                            <path
                               d="M 19.13702,-2.397 C 15.23901,-2.89834 10.94234,-3.14834 6.2,-3.14834 c -1.79133,0 -3.64466,0.035 -5.56333,0.10734 C 0.41767,-2.18934 0.20567,-1.36867 0,-0.584 7.12401,-0.87767 13.31768,-0.68533 18.70801,0 c 0.14567,-0.798 0.28734,-1.597 0.42901,-2.397 z"
                               style="fill:#e2e2e2;fill-opacity:1;fill-rule:nonzero;stroke:none"
                               id="path142812" />
                          </g>
                        </g>
                      </g>
                      <g
                         transform="translate(30.91566,116.37282)"
                         id="g142826">
                        <g
                           id="g142824">
                          <g
                             id="g142822">
                            <path
                               d="M 18.46301,-2.401 C 14.19934,-3.00667 9.45267,-3.30767 4.15534,-3.30767 2.99434,-3.30767 1.809,-3.292 0.59433,-3.263 0.396,-2.43 0.19733,-1.61133 0,-0.81533 6.87267,-1.00767 12.85334,-0.739 18.06935,0 c 0.13533,-0.8 0.26533,-1.601 0.39366,-2.401 z"
                               style="fill:#e2e2e2;fill-opacity:1;fill-rule:nonzero;stroke:none"
                               id="path142820" />
                          </g>
                        </g>
                      </g>
                      <g
                         transform="translate(32.67789,109.16235)"
                         id="g142834">
                        <g
                           id="g142832">
                          <g
                             id="g142830">
                            <path
                               d="M 17.81068,-2.40334 C 13.21401,-3.11434 8.03767,-3.467 2.20867,-3.467 1.663,-3.467 1.112,-3.465 0.555,-3.45767 0.371,-2.63267 0.186,-1.81933 0,-1.01933 6.62467,-1.11867 12.40468,-0.78067 17.45201,0 c 0.122,-0.80233 0.242,-1.60333 0.35867,-2.40334 z"
                               style="fill:#e2e2e2;fill-opacity:1;fill-rule:nonzero;stroke:none"
                               id="path142828" />
                          </g>
                        </g>
                      </g>
                      <g
                         transform="translate(34.32126,101.95031)"
                         id="g142842">
                        <g
                           id="g142840">
                          <g
                             id="g142838">
                            <path
                               d="M 17.18435,-2.41267 C 12.31601,-3.22 6.79201,-3.624 0.51467,-3.63134 0.344,-2.81067 0.17267,-1.99933 0,-1.196 6.38567,-1.21367 11.96868,-0.81867 16.85468,0 c 0.11367,-0.80533 0.221,-1.61067 0.32967,-2.41267 z"
                               style="fill:#e2e2e2;fill-opacity:1;fill-rule:nonzero;stroke:none"
                               id="path142836" />
                          </g>
                        </g>
                      </g>
                      <g
                         transform="translate(35.84223,94.72371)"
                         id="g142850">
                        <g
                           id="g142848">
                          <g
                             id="g142846">
                            <path
                               d="M 16.59201,-2.41667 C 11.87334,-3.24767 6.52934,-3.69834 0.47133,-3.774 0.31633,-2.96234 0.159,-2.153 0,-1.349 6.16034,-1.289 11.55901,-0.84233 16.29135,0 c 0.10233,-0.80933 0.20133,-1.61367 0.30066,-2.41667 z"
                               style="fill:#e2e2e2;fill-opacity:1;fill-rule:nonzero;stroke:none"
                               id="path142844" />
                          </g>
                        </g>
                      </g>
                      <g
                         transform="translate(37.2312,87.48904)"
                         id="g142858">
                        <g
                           id="g142856">
                          <g
                             id="g142854">
                            <path
                               d="M 16.04535,-2.423 C 11.46201,-3.27167 6.28367,-3.76067 0.426,-3.898 0.28633,-3.08667 0.14267,-2.27734 0,-1.472 5.95367,-1.35 11.18101,-0.86433 15.77335,0 c 0.09333,-0.81067 0.184,-1.61867 0.272,-2.423 z"
                               style="fill:#e2e2e2;fill-opacity:1;fill-rule:nonzero;stroke:none"
                               id="path142852" />
                          </g>
                        </g>
                      </g>
                      <g
                         transform="translate(38.48,80.23926)"
                         id="g142866">
                        <g
                           id="g142864">
                          <g
                             id="g142862">
                            <path
                               d="M 15.55968,-2.428 C 11.09534,-3.29 6.06267,-3.812 0.38067,-4.00234 0.25633,-3.193 0.13033,-2.38567 0,-1.57933 5.767,-1.40167 10.84301,-0.87667 15.31368,0 c 0.08467,-0.81333 0.16833,-1.62267 0.246,-2.428 z"
                               style="fill:#e2e2e2;fill-opacity:1;fill-rule:nonzero;stroke:none"
                               id="path142860" />
                          </g>
                        </g>
                      </g>
                      <g
                         transform="translate(39.57476,72.97722)"
                         id="g142874">
                        <g
                           id="g142872">
                          <g
                             id="g142870">
                            <path
                               d="M 15.15035,-2.43634 C 10.78301,-3.30767 5.864,-3.85567 0.32267,-4.09 0.21833,-3.283 0.11067,-2.47367 0,-1.66633 5.614,-1.441 10.56201,-0.886 14.92901,0 c 0.07567,-0.81967 0.148,-1.631 0.22134,-2.43634 z"
                               style="fill:#e2e2e2;fill-opacity:1;fill-rule:nonzero;stroke:none"
                               id="path142868" />
                          </g>
                        </g>
                      </g>
                      <g
                         transform="translate(40.49173,65.70108)"
                         id="g142882">
                        <g
                           id="g142880">
                          <g
                             id="g142878">
                            <path
                               d="M 14.83701,-2.44567 C 10.53601,-3.32534 5.70067,-3.898 0.25833,-4.16567 0.17667,-3.36034 0.091,-2.552 0,-1.745 5.497,-1.47933 10.35301,-0.90033 14.64268,0 c 0.06833,-0.825 0.13233,-1.63833 0.19433,-2.44567 z"
                               style="fill:#e2e2e2;fill-opacity:1;fill-rule:nonzero;stroke:none"
                               id="path142876" />
                          </g>
                        </g>
                      </g>
                      <g
                         transform="translate(41.2019,58.40391)"
                         id="g142890">
                        <g
                           id="g142888">
                          <g
                             id="g142886">
                            <path
                               d="M 14.64368,-2.44967 C 10.37467,-3.34267 5.57667,-3.935 0.183,-4.23167 0.128,-3.42634 0.06833,-2.62034 0,-1.80767 5.43067,-1.51 10.23301,-0.91067 14.47834,0 c 0.059,-0.829 0.11267,-1.64433 0.16534,-2.44967 z"
                               style="fill:#e2e2e2;fill-opacity:1;fill-rule:nonzero;stroke:none"
                               id="path142884" />
                          </g>
                        </g>
                      </g>
                      <g
                         transform="translate(41.66617,51.08591)"
                         id="g142898">
                        <g
                           id="g142896">
                          <g
                             id="g142894">
                            <path
                               d="M 14.60434,-2.457 C 10.31867,-3.36567 5.503,-3.97534 0.08867,-4.297 0.064,-3.48967 0.035,-2.68034 0,-1.86467 5.42867,-1.54133 10.22901,-0.922 14.47201,0 c 0.04867,-0.83433 0.09,-1.654 0.13233,-2.457 z"
                               style="fill:#e2e2e2;fill-opacity:1;fill-rule:nonzero;stroke:none"
                               id="path142892" />
                          </g>
                        </g>
                      </g>
                      <g
                         transform="translate(41.78373,43.7446)"
                         id="g142906">
                        <g
                           id="g142904">
                          <g
                             id="g142902">
                            <path
                               d="M 14.79668,-2.46734 C 10.43567,-3.39567 5.528,-4.024 0,-4.358 c 0.01967,0.80533 0.03,1.61866 0.033,2.43833 5.50734,0.338 10.37367,0.976 14.67268,1.91967 0.03533,-0.84667 0.064,-1.67133 0.091,-2.46734 z"
                               style="fill:#e2e2e2;fill-opacity:1;fill-rule:nonzero;stroke:none"
                               id="path142900" />
                          </g>
                        </g>
                      </g>
                      <g
                         transform="translate(41.35443,36.3705)"
                         id="g142914">
                        <g
                           id="g142912">
                          <g
                             id="g142910">
                            <path
                               d="M 15.36935,-2.48267 C 10.85434,-3.43767 5.75734,-4.08167 0,-4.41967 0.07967,-3.61467 0.14567,-2.799 0.20167,-1.972 5.901,-1.62467 10.92268,-0.97033 15.34768,0 c 0.01233,-0.87533 0.02167,-1.70433 0.02167,-2.48267 z"
                               style="fill:#e2e2e2;fill-opacity:1;fill-rule:nonzero;stroke:none"
                               id="path142908" />
                          </g>
                        </g>
                      </g>
                      <g
                         transform="translate(58.9969,169.87973)"
                         id="g142922">
                        <g
                           id="g142920">
                          <g
                             id="g142918">
                            <path
                               d="m 2.91525,0 c 0,0 3.76666,-2.48267 2.41665,-9.22834 -1.349,-6.74567 -3.95665,-7.46401 -3.95665,-7.46401 0,0 -3.95067,14.93502 1.54,16.69235 z"
                               style="fill:#32324c;fill-opacity:1;fill-rule:nonzero;stroke:none"
                               id="path142916" />
                          </g>
                        </g>
                      </g>
                      <g
                         transform="translate(30.14266,140.64503)"
                         id="g142930">
                        <g
                           id="g142928">
                          <g
                             id="g142926">
                            <path
                               d="m 14.45134,-2.28352 -0.47766,-8.52869 -0.218,-3.90933 C 8.84267,-18.35588 0.85367,-13.35288 0.85367,-13.35288 L 0,-0.71152 c 2.273,1.532 8.13067,0.25767 11.65234,-0.71933 1.658,-0.461 2.799,-0.85267 2.799,-0.85267 z"
                               style="fill:#ffaf82;fill-opacity:1;fill-rule:nonzero;stroke:none"
                               id="path142924" />
                          </g>
                        </g>
                      </g>
                      <g
                         transform="translate(33.51533,139.21418)"
                         id="g142938">
                        <g
                           id="g142936">
                          <g
                             id="g142934">
                            <path
                               d="M 11.07868,-0.85267 10.60101,-9.38134 C 4.83234,-8.04901 0,-0.05467 0,-0.05467 L 8.27967,0 c 1.658,-0.461 2.79901,-0.85267 2.79901,-0.85267 z"
                               style="fill:#f88968;fill-opacity:1;fill-rule:nonzero;stroke:none"
                               id="path142932" />
                          </g>
                        </g>
                      </g>
                      <g
                         transform="translate(23.50165,183.10625)"
                         id="g142946">
                        <g
                           id="g142944">
                          <g
                             id="g142942">
                            <path
                               d="m 37.65236,-16.66255 c 0,0 9.20068,4.28134 6.50267,11.83635 -2.69766,7.55399 -13.70494,4.07966 -23.60428,3.70366 -15.94001,-0.606 -20.93235,-8.89767 -20.52835,-17.53201 0.40533,-8.634 0.31333,-20.20781 4.22567,-24.52448 3.91234,-4.31734 6.58534,1.78533 8.60934,7.185 2.02267,5.39981 14.51434,21.93115 24.79495,19.33148 z"
                               style="fill:#32324c;fill-opacity:1;fill-rule:nonzero;stroke:none"
                               id="path142940" />
                          </g>
                        </g>
                      </g>
                      <g
                         transform="translate(26.45598,174.14852)"
                         id="g142954">
                        <g
                           id="g142952">
                          <g
                             id="g142950">
                            <path
                               d="m 35.52903,-15.04998 c -0.0053,-0.29167 -0.01034,-0.588 -0.01867,-0.888 -0.16433,-5.36034 -1.08733,-11.87434 -1.996,-17.17301 -0.9665,-5.62304 -6.38684,-9.34104 -11.98018,-8.21338 -6.734,1.35934 -15.03934,3.42467 -18.82667,5.91468 -1.15267,0.75533 -1.88434,1.55133 -2.03034,2.37936 -0.339,1.93201 -0.526,4.56767 -0.61166,7.43601 -0.26667,8.69301 0.367,19.54002 0.367,19.54002 8.09333,10.05334 30.65268,6.12968 34.08752,-1.22467 0.78466,-1.684 1.05866,-4.47467 1.009,-7.77101 z"
                               style="fill:#ffaf82;fill-opacity:1;fill-rule:nonzero;stroke:none"
                               id="path142948" />
                          </g>
                        </g>
                      </g>
                      <g
                         transform="translate(46.36417,156.28939)"
                         id="g142962">
                        <g
                           id="g142960">
                          <g
                             id="g142958">
                            <path
                               d="M 2.24834,-2.04567 C 2.24834,-3.17534 1.745,-4.09134 1.12367,-4.09134 0.50367,-4.09134 0,-3.17534 0,-2.04567 0,-0.916 0.50367,0 1.12367,0 1.745,0 2.24834,-0.916 2.24834,-2.04567 Z"
                               style="fill:#32324c;fill-opacity:1;fill-rule:nonzero;stroke:none"
                               id="path142956" />
                          </g>
                        </g>
                      </g>
                      <g
                         transform="translate(57.87211,156.28939)"
                         id="g142970">
                        <g
                           id="g142968">
                          <g
                             id="g142966">
                            <path
                               d="M 2.24834,-2.04567 C 2.24834,-3.17534 1.746,-4.09134 1.12467,-4.09134 0.50367,-4.09134 0,-3.17534 0,-2.04567 0,-0.916 0.50367,0 1.12467,0 1.746,0 2.24834,-0.916 2.24834,-2.04567 Z"
                               style="fill:#32324c;fill-opacity:1;fill-rule:nonzero;stroke:none"
                               id="path142964" />
                          </g>
                        </g>
                      </g>
                      <g
                         transform="translate(25.4194,177.53389)"
                         id="g142978">
                        <g
                           id="g142976">
                          <g
                             id="g142974">
                            <path
                               d="m 1.06258,-21.01385 c 0,0 3.60332,2.34634 6.63899,-1.842 h 2.361 c 0,0 -0.13533,4.85 1.01201,7.48067 1.14633,2.63067 5.66533,2.56234 6.34033,5.66534 0,0 10.66935,-4.24534 18.31945,-1.38 C 43.38437,-8.22551 20.44958,4.5235 9.38757,-1.68251 -1.67442,-7.88851 -0.65342,-12.75718 1.06258,-21.01385 Z"
                               style="fill:#32324c;fill-opacity:1;fill-rule:nonzero;stroke:none"
                               id="path142972" />
                          </g>
                        </g>
                      </g>
                      <g
                         transform="translate(42.61507,160.07813)"
                         id="g142986">
                        <g
                           id="g142984">
                          <g
                             id="g142982">
                            <path
                               d="m 0,-3.00047 c 0,0 1.08133,2.22333 3.15867,2.77933 1.92367,0.515 3.29634,0.01867 3.985,-0.35633 0.30067,-0.16333 0.43,-0.52733 0.311,-0.84767 C 7.31301,-1.80447 6.88001,-1.98247 6.51301,-1.8118 5.348,-1.26914 2.78667,-0.57147 0,-3.00047 Z"
                               style="fill:#32324c;fill-opacity:1;fill-rule:nonzero;stroke:none"
                               id="path142980" />
                          </g>
                        </g>
                      </g>
                      <g
                         transform="translate(56.1566,160.07768)"
                         id="g142994">
                        <g
                           id="g142992">
                          <g
                             id="g142990">
                            <path
                               d="m 5.82824,-0.97912 c -0.00534,-0.29167 -0.01034,-0.588 -0.01867,-0.888 -2.09633,1.015 -3.901,0.486 -4.825,0.057 -0.093,-0.04333 -0.19333,-0.06533 -0.29366,-0.06533 -0.277,0 -0.54467,0.17066 -0.647,0.45066 -0.119,0.32167 0.01033,0.68234 0.31,0.84767 0.68866,0.37433 2.06133,0.87134 3.98599,0.35567 0.57134,-0.154 1.07067,-0.431 1.48834,-0.75767 z"
                               style="fill:#32324c;fill-opacity:1;fill-rule:nonzero;stroke:none"
                               id="path142988" />
                          </g>
                        </g>
                      </g>
                      <g
                         transform="translate(26.52095,148.55425)"
                         id="g143002">
                        <g
                           id="g143000">
                          <g
                             id="g142998">
                            <path
                               d="M 2.642,-9.81567 C 1.48933,-9.06001 0.75867,-8.26434 0.613,-7.43634 0.273,-5.50434 0.08667,-2.86734 0,0 l 5.95467,-4.09234 c 0,0 0.07867,-4.239 -3.31267,-5.72333 z"
                               style="fill:#32324c;fill-opacity:1;fill-rule:nonzero;stroke:none"
                               id="path142996" />
                          </g>
                        </g>
                      </g>
                      <g
                         transform="translate(25.02574,157.31049)"
                         id="g143010">
                        <g
                           id="g143008">
                          <g
                             id="g143006">
                            <path
                               d="m 8.09517,-2.63263 c 0,0 -3.61467,4.37867 -6.63899,1.842 -3.33366,-2.79501 -0.78066,-12.27468 5.99399,-12.05968 z"
                               style="fill:#ffaf82;fill-opacity:1;fill-rule:nonzero;stroke:none"
                               id="path143004" />
                          </g>
                        </g>
                      </g>
                      <g
                         transform="translate(28.07491,153.7833)"
                         id="g143018">
                        <g
                           id="g143016">
                          <g
                             id="g143014">
                            <path
                               d="m 4.5675,-7.26711 c -0.29866,0 -0.557,0.22434 -0.59133,0.52834 -0.552,4.79499 -3.39533,5.53299 -3.51733,5.56199 -0.31733,0.07634 -0.517,0.39567 -0.44367,0.714 0.07467,0.31967 0.38867,0.519 0.70834,0.44867 0.155,-0.035 3.78299,-0.90733 4.43633,-6.58833 0.03833,-0.32767 -0.19634,-0.62333 -0.524,-0.66067 -0.023,-0.003 -0.04567,-0.004 -0.06834,-0.004 z"
                               style="fill:#f88968;fill-opacity:1;fill-rule:nonzero;stroke:none"
                               id="path143012" />
                          </g>
                        </g>
                      </g>
                      <g
                         transform="translate(45.76808,146.79031)"
                         id="g143026">
                        <g
                           id="g143024">
                          <g
                             id="g143022">
                            <path
                               d="m 8.42811,-4.57834 c -2.37534,0 -5.70668,0.63167 -8.28169,3.59101 -0.216,0.248 -0.19,0.62534 0.058,0.84134 0.249,0.216 0.62434,0.189 0.84134,-0.059 3.90101,-4.48301 10.01302,-2.89001 10.07402,-2.87367 0.31833,0.084 0.646,-0.101 0.73166,-0.41968 0.087,-0.316 -0.1,-0.64366 -0.41733,-0.73066 -0.116,-0.031 -1.321,-0.34934 -3.006,-0.34934 z"
                               style="fill:#f88968;fill-opacity:1;fill-rule:nonzero;stroke:none"
                               id="path143020" />
                          </g>
                        </g>
                      </g>
                      <g
                         transform="translate(52.82788,155.27423)"
                         id="g143034">
                        <g
                           id="g143032">
                          <g
                             id="g143030">
                            <path
                               d="m 1.20372,-7.60731 c -0.17866,0 -0.35666,0.08067 -0.47333,0.23467 -0.20067,0.26033 -0.15,0.63567 0.11167,0.835 l 1.58867,1.21267 -1.37701,0.35767 c -0.22933,0.059 -0.401,0.249 -0.43933,0.48266 l -0.60667,3.79333 c -0.05266,0.32567 0.16967,0.63167 0.494,0.68333 0.32267,0.05367 0.63167,-0.16933 0.68334,-0.494 l 0.54566,-3.40899 2.18535,-0.56767 c 0.221,-0.05666 0.38967,-0.23533 0.435,-0.45866 0.04467,-0.22334 -0.04133,-0.453 -0.223,-0.59134 L 1.56539,-7.48531 c -0.10733,-0.08166 -0.23567,-0.122 -0.36167,-0.122 z"
                               style="fill:#f88968;fill-opacity:1;fill-rule:nonzero;stroke:none"
                               id="path143028" />
                          </g>
                        </g>
                      </g>
                      <g
                         transform="translate(14.45581,31.20219)"
                         id="g143042">
                        <g
                           id="g143040">
                          <g
                             id="g143038">
                            <path
                               d="m 6.42834,0 c 0,0 2.64833,-0.84667 3.445,-2.392 0,0 0,-9.80101 -4.93667,-14.07601 0,0 -2.427,5.897 -4.93667,11.54467 z"
                               style="fill:#ffaf82;fill-opacity:1;fill-rule:nonzero;stroke:none"
                               id="path143036" />
                          </g>
                        </g>
                      </g>
                      <g
                         transform="translate(0,122.8916)"
                         id="g143050">
                        <g
                           id="g143048">
                          <g
                             id="g143046">
                            <path
                               d="m 10.72834,0 c 0,0 -9.85601,-30.81002 -10.72834,-46.6547 0,0 0,-29.63803 14.45568,-49.95738 l 6.42834,4.92234 c 0,0 -8.10301,29.48369 -8.10301,40.98203 0,0 8.20534,21.35302 9.55101,29.76603 0,0 -5.51667,20.94168 -11.60368,20.94168 z"
                               style="fill:#009762;fill-opacity:1;fill-rule:nonzero;stroke:none"
                               id="path143044" />
                          </g>
                        </g>
                      </g>
                    </g>
                  </g>
                </g>
              </g>
            </g>
          </g>
        </g>
      </g>
    </g>
  </g>
</svg>
