<?xml version="1.0" encoding="UTF-8" standalone="no"?>
<!-- Created with Inkscape (http://www.inkscape.org/) -->

<svg
   version="1.1"
   id="svg143230"
   width="400"
   height="200"
   viewBox="0 0 400 200"
   sodipodi:docname="1530_word.pdf"
   xmlns:inkscape="http://www.inkscape.org/namespaces/inkscape"
   xmlns:sodipodi="http://sodipodi.sourceforge.net/DTD/sodipodi-0.dtd"
   xmlns="http://www.w3.org/2000/svg"
   xmlns:svg="http://www.w3.org/2000/svg">
  <defs
     id="defs143234">
    <clipPath
       clipPathUnits="userSpaceOnUse"
       id="clipPath143252">
      <path
         d="M 0,-221.67088 H 470.19396 V 221.67088 H 0 Z"
         id="path143250" />
    </clipPath>
  </defs>
  <sodipodi:namedview
     id="namedview143232"
     pagecolor="#ffffff"
     bordercolor="#000000"
     borderopacity="0.25"
     inkscape:showpageshadow="2"
     inkscape:pageopacity="0.0"
     inkscape:pagecheckerboard="0"
     inkscape:deskcolor="#d1d1d1" />
  <g
     id="g143236"
     inkscape:groupmode="layer"
     inkscape:label="1530_word50"
     transform="matrix(1.3333333,0,0,-1.3333333,0,200)">
    <g
       id="g143238">
      <g
         id="g143240">
        <g
           id="g143242"
           transform="translate(71.635,121.94484)">
          <g
             id="g143244"
             transform="matrix(0.33333,0,0,0.33333,0,-24.62968)">
            <g
               id="g143246">
              <g
                 id="g143248" />
              <g
                 id="g143296">
                <g
                   clip-path="url(#clipPath143252)"
                   id="g143294">
                  <g
                     transform="translate(0,37.65381)"
                     id="g143260">
                    <g
                       id="g143258">
                      <g
                         id="g143256">
                        <path
                           d="m 54.8075,-158.696 c -16.5012,0 -29.7637,4.902 -39.7875,14.707 C 5.00668,-134.195 0,-121.412 0,-105.641 c 0,5.299 0.66234,11.1868 1.98703,17.6642 1.32468,6.4878 3.2387,12.3133 5.74204,17.4764 L 20.324,-72.7221 c -2.9414,-9.8673 -4.4121,-18.9993 -4.4121,-27.3959 0,-12.381 3.9792,-21.883 11.9378,-28.507 7.9585,-6.634 17.8311,-9.951 29.6176,-9.951 9.2833,0 17.9719,1.732 26.0661,5.195 8.1045,3.463 14.3681,9.393 18.7906,17.789 0.741,1.179 1.366,2.796 1.878,4.85 0.521,2.066 0.782,3.615 0.782,4.647 0,15.1768 -6.4097,35.5842 -19.2289,61.2226 l 17.0069,5.523 c 3.693,-7.0719 7.416,-16.3917 11.171,-27.9592 3.755,-11.5571 5.633,-23.5262 5.633,-35.9074 0,-3.244 -0.516,-7.004 -1.549,-11.281 -1.033,-4.266 -2.211,-7.802 -3.536,-10.607 -5.601,-11.046 -13.633,-19.407 -24.0947,-25.081 -10.4619,-5.674 -22.3215,-8.511 -35.5788,-8.511 z m -2.6441,134.8204 c -3.2439,0 -5.9715,1.0691 -8.1828,3.2074 -2.2113,2.1383 -3.3169,5.0484 -3.3169,8.7304 0,7.07193 3.8332,11.0512 11.4997,11.9378 6.9155,0 10.7435,-3.97927 11.4841,-11.9378 0,-7.218 -3.8281,-11.1972 -11.4841,-11.9378 z"
                           style="fill:#000000;fill-opacity:1;fill-rule:nonzero;stroke:none"
                           id="path143254" />
                      </g>
                    </g>
                  </g>
                  <g
                     transform="translate(144.10532,73.88967)"
                     id="g143268">
                    <g
                       id="g143266">
                      <g
                         id="g143264">
                        <path
                           d="m 45.9676,-160.449 c -12.9652,0 -22.9473,3.463 -29.9462,10.389 -6.99894,6.926 -10.86347,18.713 -11.59361,35.36 L 0,-1.09521 16.5846,0 20.7777,-109.177 c 0.4381,-11.641 2.8684,-19.709 7.291,-24.204 4.4226,-4.485 10.3889,-6.806 17.8989,-6.963 3.2439,0 6.008,-0.808 8.2923,-2.425 2.2843,-1.616 3.4265,-4.12 3.4265,-7.51 0,-6.78 -3.9063,-10.17 -11.7188,-10.17 z"
                           style="fill:#000000;fill-opacity:1;fill-rule:nonzero;stroke:none"
                           id="path143262" />
                      </g>
                    </g>
                  </g>
                  <g
                     transform="translate(178.81478,-28.65345)"
                     id="g143276">
                    <g
                       id="g143274">
                      <g
                         id="g143272">
                        <path
                           d="m 172.605,-57.9054 h -0.657 c -17.836,0 -28.96,6.6286 -33.372,19.8859 -2.806,-6.4774 -6.53,-11.4111 -11.172,-14.801 -4.641,-3.3899 -9.763,-5.0849 -15.364,-5.0849 -6.915,0 -11.849,1.6584 -14.8008,4.9754 -2.9415,3.3169 -4.9285,6.8894 -5.9611,10.7174 -5.3092,-10.4619 -14.1491,-15.6928 -26.5198,-15.6928 -11.4945,0 -18.5717,5.45 -21.2315,16.3499 -2.7953,-4.7146 -7.0302,-8.6208 -12.7044,-11.7187 -5.6742,-3.0875 -12.1934,-4.6312 -19.5574,-4.6312 -4.27651,0 -7.22315,1.0691 -8.83989,3.2074 C 0.80837,-52.5597 0,-50.3119 0,-47.9546 c 0,2.7954 0.8866,5.184 2.6598,7.1658 1.76277,1.9922 4.63118,2.9883 8.6052,2.9883 10.754,0 18.4152,2.7642 22.9838,8.2924 4.5686,5.5282 7.7395,13.0069 9.5127,22.43616 l 14.1439,0.65713 c -2.2113,-7.21799 -3.3169,-13.11129 -3.3169,-17.67989 0,-1.6167 0.219,-3.4942 0.6571,-5.6325 0.4485,-2.1383 1.5542,-4.167 3.3169,-6.0862 1.7732,-1.9088 4.5008,-2.8632 8.1828,-2.8632 3.536,0 6.7747,0.7353 9.7161,2.206 2.9519,1.4708 5.5282,4.3079 7.7291,8.5114 2.2113,4.2035 4.0575,10.2063 5.5386,18.00842 l 13.7059,0.67277 v -0.45373 c -1.179,-4.41216 -1.768,-8.90246 -1.768,-13.47106 0,-10.1699 3.828,-15.2548 11.484,-15.2548 11.349,0 18.566,12.4489 21.654,37.34674 L 148.073,0 c -0.146,-1.03263 -0.292,-1.99224 -0.438,-2.87884 -0.146,-0.87617 -0.261,-1.86708 -0.345,-2.97272 -0.073,-1.10564 -0.182,-2.39904 -0.328,-3.88018 -0.146,-1.47076 -0.219,-2.86846 -0.219,-4.19306 0,-6.4879 1.658,-12.0161 4.975,-16.5847 3.317,-4.5581 10.279,-6.9885 20.887,-7.291 3.244,0 6.008,-0.8083 8.293,-2.4251 2.284,-1.6167 3.426,-4.1201 3.426,-7.51 0,-6.7799 -3.906,-10.1698 -11.719,-10.1698 z"
                           style="fill:#000000;fill-opacity:1;fill-rule:nonzero;stroke:none"
                           id="path143270" />
                      </g>
                    </g>
                  </g>
                  <g
                     transform="translate(340.32837,50.24874)"
                     id="g143284">
                    <g
                       id="g143282">
                      <g
                         id="g143280">
                        <path
                           d="m 27.8497,-24.0947 c -3.2439,0 -5.935,1.1057 -8.0733,3.317 -2.1383,2.2113 -3.2074,5.1579 -3.2074,8.8399 0,3.38993 1.0691,6.22705 3.2074,8.51135 C 21.9147,-1.14215 24.6788,0 28.0687,0 c 6.9259,0 10.754,-3.97927 11.4841,-11.9378 0,-7.51 -3.901,-11.5623 -11.7031,-12.1569 z M 14.3629,-136.808 H 11.046 c -7.364,0 -11.046,3.463 -11.046,10.389 0,2.066 0.77186,4.199 2.31559,6.399 1.54373,2.212 4.45386,3.317 8.73041,3.317 h 4.4278 c 15.9066,0 26.2903,1.695 31.1509,5.085 l 0.4381,1.768 c 0.5946,1.919 0.8918,4.204 0.8918,6.853 0,2.65 -0.5163,5.2989 -1.5489,7.9483 -1.0326,2.6598 -2.9466,6.2009 -5.742,10.6235 l -3.7551,6.3992 16.1309,6.4148 c 6.4774,-12.0786 9.7161,-24.2355 9.7161,-36.4708 0,-6.039 -1.1786,-12.005 -3.5359,-17.899 -2.6494,-2.795 -7.0668,-5.298 -13.2521,-7.51 -6.1853,-2.211 -16.7202,-3.317 -31.6047,-3.317 z"
                           style="fill:#000000;fill-opacity:1;fill-rule:nonzero;stroke:none"
                           id="path143278" />
                      </g>
                    </g>
                  </g>
                  <g
                     transform="translate(421.78559,73.88967)"
                     id="g143292">
                    <g
                       id="g143290">
                      <g
                         id="g143288">
                        <path
                           d="M 30.0557,-160.449 H 13.4868 L 7.29098,-1.31425 23.8756,0 Z M 0,-221.671 l 1.3299,10.389 c 1.03263,0.595 2.57636,1.189 4.63118,1.784 2.06526,0.584 3.91147,0.876 5.53862,0.876 -5.30915,3.379 -7.96373,7.943 -7.96373,13.69 0,6.05 2.2843,10.697 6.85293,13.94 4.5686,3.234 9.7995,4.851 15.6928,4.851 8.6887,0 15.0253,-1.914 19.0097,-5.742 l -3.3169,-10.17 c -4.8606,3.244 -10.1646,4.866 -15.9119,4.866 -3.682,0 -6.5191,-0.845 -8.5113,-2.535 -1.9923,-1.7 -2.9884,-3.51 -2.9884,-5.429 0,-7.072 6.5556,-10.9 19.6669,-11.484 h 14.3786 l -4.4278,-11.281 H 29.6177 c -13.1113,0 -22.98385,-1.252 -29.6177,-3.755 z"
                           style="fill:#f81436;fill-opacity:1;fill-rule:nonzero;stroke:none"
                           id="path143286" />
                      </g>
                    </g>
                  </g>
                </g>
              </g>
            </g>
          </g>
        </g>
      </g>
    </g>
  </g>
</svg>
