<?xml version="1.0" encoding="UTF-8" standalone="no"?>
<!-- Created with Inkscape (http://www.inkscape.org/) -->

<svg
   version="1.1"
   id="svg147814"
   width="400"
   height="200"
   viewBox="0 0 400 200"
   sodipodi:docname="15312_word.pdf"
   xmlns:inkscape="http://www.inkscape.org/namespaces/inkscape"
   xmlns:sodipodi="http://sodipodi.sourceforge.net/DTD/sodipodi-0.dtd"
   xmlns="http://www.w3.org/2000/svg"
   xmlns:svg="http://www.w3.org/2000/svg">
  <defs
     id="defs147818">
    <clipPath
       clipPathUnits="userSpaceOnUse"
       id="clipPath147836">
      <path
         d="M 0,-219.9029 H 417.16846 V 219.9029 H 0 Z"
         id="path147834" />
    </clipPath>
  </defs>
  <sodipodi:namedview
     id="namedview147816"
     pagecolor="#ffffff"
     bordercolor="#000000"
     borderopacity="0.25"
     inkscape:showpageshadow="2"
     inkscape:pageopacity="0.0"
     inkscape:pagecheckerboard="0"
     inkscape:deskcolor="#d1d1d1" />
  <g
     id="g147820"
     inkscape:groupmode="layer"
     inkscape:label="15312_word56"
     transform="matrix(1.3333333,0,0,-1.3333333,0,200)">
    <g
       id="g147822">
      <g
         id="g147824">
        <g
           id="g147826"
           transform="translate(80.47167,121.65062)">
          <g
             id="g147828"
             transform="matrix(0.33333,0,0,0.33333,0,-24.43384)">
            <g
               id="g147830">
              <g
                 id="g147832" />
              <g
                 id="g147880">
                <g
                   clip-path="url(#clipPath147836)"
                   id="g147878">
                  <g
                     transform="translate(0,63.13141)"
                     id="g147844">
                    <g
                       id="g147842">
                      <g
                         id="g147840">
                        <path
                           d="m 17.8989,-23.4219 c -3.2439,0 -5.935,1.0326 -8.07328,3.0979 -2.12785,2.0653 -3.19177,4.9389 -3.19177,8.6209 0,7.07192 3.75505,10.97296 11.26505,11.7031 3.3899,0 6.1123,-1.06914 8.1671,-3.20741 2.0653,-2.12784 3.0979,-4.95974 3.0979,-8.49569 0,-7.218 -3.755,-11.1242 -11.265,-11.7188 z m 29.6176,0 c -3.2439,0 -5.8619,1.0326 -7.8542,3.0979 -1.9818,2.0653 -2.9727,4.9389 -2.9727,8.6209 0,7.07192 3.609,10.97296 10.8269,11.7031 6.926,0 10.681,-3.90104 11.2651,-11.7031 0,-7.218 -3.755,-11.1242 -11.2651,-11.7188 z M 37.3467,-152.047 c -7.8125,0 -14.5194,1.914 -20.1206,5.742 -5.5908,3.839 -9.8621,8.851 -12.81396,15.036 C 1.47071,-125.084 0,-118.455 0,-111.383 c 0,9.721 2.35731,18.8897 7.07194,27.5054 4.71466,8.6261 10.60786,16.9914 17.67986,25.096 l -4.4278,3.3169 10.1698,13.4868 c 16.5012,-12.2351 28.2878,-23.3593 35.3597,-33.3727 8.1046,-11.3485 12.1569,-22.77 12.1569,-34.2644 0,-9.575 -2.1018,-17.497 -6.3053,-23.766 -4.1931,-6.259 -9.3875,-10.937 -15.5833,-14.035 -6.1854,-3.087 -12.4437,-4.631 -18.7751,-4.631 z m 1.768,20.559 c 5.7473,0 10.4619,1.252 14.1439,3.755 3.682,2.503 6.3679,5.523 8.0576,9.059 1.7002,3.536 2.5503,6.853 2.5503,9.951 0,6.769 -2.2843,13.4344 -6.8529,19.9952 -4.5686,6.5608 -11.4945,13.5963 -20.7777,21.1063 -6.1854,-6.0393 -11.4163,-12.5949 -15.6929,-19.6669 -4.2661,-7.0719 -6.3991,-13.6276 -6.3991,-19.6666 0,-7.667 2.5033,-13.675 7.51,-18.024 5.0067,-4.339 10.827,-6.509 17.4608,-6.509 z"
                           style="fill:#000000;fill-opacity:1;fill-rule:nonzero;stroke:none"
                           id="path147838" />
                      </g>
                    </g>
                  </g>
                  <g
                     transform="translate(52.50233,-24.59506)"
                     id="g147852">
                    <g
                       id="g147850">
                      <g
                         id="g147848">
                        <path
                           d="m 39.7875,-122.007 h -4.1931 c -16.0631,0 -27.92792,3.093 -35.5944,9.278 l 2.00267,14.379 c 2.20086,-1.773 5.06927,-3.249 8.60523,-4.428 3.536,-1.178 7.1085,-2.06 10.7174,-2.644 3.6195,-0.595 6.7538,-0.965 9.4032,-1.111 l 3.755,-0.438 c 11.2025,1.909 19.8234,7.6927 25.8627,17.3514 6.0393,9.6483 9.424,20.3657 10.1542,32.1523 -1.7628,12.5271 -8.1672,28.9553 -19.2132,49.2845 L 67.4181,0 c 4.7146,-9.42925 8.7669,-18.5664 12.1569,-27.4116 2.7954,-5.7472 6.0341,-9.69 9.7161,-11.8283 3.682,-2.1382 7.9533,-3.2074 12.8139,-3.2074 3.244,0 6.008,-0.8084 8.292,-2.4251 2.285,-1.6167 3.427,-4.1201 3.427,-7.51 0,-6.7799 -3.906,-10.1698 -11.719,-10.1698 -6.6234,0 -11.8491,1.2516 -15.6771,3.755 0,-3.8281 -0.2973,-7.218 -0.8919,-10.1699 C 83.3248,-81.3377 78.8657,-92.9 72.1588,-103.654 65.4624,-114.418 54.6719,-120.536 39.7875,-122.007 Z"
                           style="fill:#000000;fill-opacity:1;fill-rule:nonzero;stroke:none"
                           id="path147846" />
                      </g>
                    </g>
                  </g>
                  <g
                     transform="translate(141.00696,69.32718)"
                     id="g147860">
                    <g
                       id="g147858">
                      <g
                         id="g147856">
                        <path
                           d="M 14.3629,-156.474 H 11.046 c -7.364,0 -11.046,3.462 -11.046,10.388 0,2.066 0.77186,4.199 2.31559,6.4 1.54373,2.211 4.45386,3.316 8.73041,3.316 h 4.4278 c 15.9066,0 26.2903,1.695 31.1509,5.085 l 0.2191,4.209 c -0.8762,16.501 -6.5452,33.5918 -17.0071,51.2717 l 16.1309,6.4148 c 3.682,-6.6338 7.218,-15.552 10.6079,-26.7545 3.39,-11.192 5.0849,-22.019 5.0849,-32.481 0,-5.747 -0.8136,-11.421 -2.4407,-17.023 -2.6494,-2.795 -7.0668,-5.298 -13.2521,-7.51 -6.1853,-2.211 -16.7202,-3.316 -31.6047,-3.316 z M 3.31693,-45.5295 4.63118,-35.1407 c 1.03263,0.5946 2.58157,1.1839 4.64683,1.768 2.06529,0.5946 3.90629,0.8918 5.52299,0.8918 -5.29873,3.3796 -7.9481,7.9429 -7.9481,13.6902 0,6.0393 2.27908,10.68092 6.8372,13.92483 C 18.2587,-1.62196 23.4897,0 29.383,0 38.0821,0 44.4187,-1.91401 48.3927,-5.74204 l -3.536,-10.16986 c -4.5685,3.2439 -9.8725,4.8659 -15.9118,4.8659 -3.682,0 -6.4826,-0.8501 -8.4019,-2.5503 -1.9088,-1.6897 -2.8632,-3.4942 -2.8632,-5.4134 0,-7.072 6.4827,-10.9 19.4479,-11.4841 H 51.7096 L 47.2975,-41.7745 H 32.9189 c -13.2572,0 -23.12458,-1.2517 -29.60197,-3.755 z"
                           style="fill:#f81436;fill-opacity:1;fill-rule:nonzero;stroke:none"
                           id="path147854" />
                      </g>
                    </g>
                  </g>
                  <g
                     transform="translate(228.20623,73.30124)"
                     id="g147868">
                    <g
                       id="g147866">
                      <g
                         id="g147864">
                        <path
                           d="m 45.9676,-160.449 c -12.9652,0 -22.9473,3.463 -29.9462,10.389 -6.99894,6.926 -10.86347,18.713 -11.59361,35.36 L 0,-1.09521 16.5846,0 20.7777,-109.177 c 0.4381,-11.641 2.8684,-19.709 7.291,-24.204 4.4226,-4.485 10.3889,-6.806 17.8989,-6.963 3.2439,0 6.008,-0.808 8.2923,-2.425 2.2843,-1.616 3.4265,-4.12 3.4265,-7.51 0,-6.78 -3.9063,-10.17 -11.7188,-10.17 z"
                           style="fill:#000000;fill-opacity:1;fill-rule:nonzero;stroke:none"
                           id="path147862" />
                      </g>
                    </g>
                  </g>
                  <g
                     transform="translate(262.91569,73.30124)"
                     id="g147876">
                    <g
                       id="g147874">
                      <g
                         id="g147872">
                        <path
                           d="M 45.9676,-160.449 H 11.046 c -4.42258,0 -7.36922,1.179 -8.83993,3.536 C 0.73536,-154.555 0,-152.271 0,-150.06 c 0,1.92 0.73536,4.016 2.20607,6.29 1.47071,2.284 4.41735,3.426 8.83993,3.426 h 14.582 c 2.3573,3.839 4.2713,7.448 5.742,10.827 1.4811,3.39 2.2217,7.594 2.2217,12.611 L 29.1639,-1.31425 45.9676,0 48.8308,-79.7784 c 0.3025,-8.8451 0.4537,-15.771 0.4537,-20.7776 -0.146,-5.007 -0.3703,-8.913 -0.6727,-11.719 8.407,10.765 17.951,19.6827 28.6319,26.7546 10.681,7.0719 21.7687,10.6079 33.2633,10.6079 8.689,0 16.308,-2.0287 22.859,-6.0862 6.56,-4.0471 11.682,-9.2415 15.364,-15.5833 3.682,-6.331 5.523,-12.96 5.523,-19.886 0,-9.429 -3.093,-17.388 -9.278,-23.876 -7.802,-8.396 -21.873,-14.138 -42.213,-17.226 -12.3705,-1.919 -31.302,-2.879 -56.7944,-2.879 z m 4.4121,20.105 c 15.3226,0 29.3934,0.48 42.2126,1.44 12.8197,0.959 22.1027,2.284 27.8497,3.974 5.747,1.7 10.389,3.911 13.925,6.634 3.536,2.733 5.304,6.602 5.304,11.609 0,3.39 -1.142,6.926 -3.427,10.608 -2.284,3.682 -5.747,6.8476 -10.389,9.497 -4.641,2.6598 -10.571,3.9897 -17.789,3.9897 -9.1371,0 -19.4894,-3.8698 -31.057,-11.6097 -11.5571,-7.739 -22.7178,-19.786 -33.4822,-36.142 z"
                           style="fill:#000000;fill-opacity:1;fill-rule:nonzero;stroke:none"
                           id="path147870" />
                      </g>
                    </g>
                  </g>
                </g>
              </g>
            </g>
          </g>
        </g>
      </g>
    </g>
  </g>
</svg>
