<?xml version="1.0" encoding="UTF-8" standalone="no"?>
<!-- Created with Inkscape (http://www.inkscape.org/) -->

<svg
   version="1.1"
   id="svg149122"
   width="400"
   height="200"
   viewBox="0 0 400 200"
   sodipodi:docname="15314_word.pdf"
   xmlns:inkscape="http://www.inkscape.org/namespaces/inkscape"
   xmlns:sodipodi="http://sodipodi.sourceforge.net/DTD/sodipodi-0.dtd"
   xmlns="http://www.w3.org/2000/svg"
   xmlns:svg="http://www.w3.org/2000/svg">
  <defs
     id="defs149126">
    <clipPath
       clipPathUnits="userSpaceOnUse"
       id="clipPath149144">
      <path
         d="m 0,-302.16095 h 357.00928 v 604.3219 H 0 Z"
         id="path149142" />
    </clipPath>
  </defs>
  <sodipodi:namedview
     id="namedview149124"
     pagecolor="#ffffff"
     bordercolor="#000000"
     borderopacity="0.25"
     inkscape:showpageshadow="2"
     inkscape:pageopacity="0.0"
     inkscape:pagecheckerboard="0"
     inkscape:deskcolor="#d1d1d1" />
  <g
     id="g149128"
     inkscape:groupmode="layer"
     inkscape:label="15314_word60"
     transform="matrix(1.3333333,0,0,-1.3333333,0,200)">
    <g
       id="g149130">
      <g
         id="g149132">
        <g
           id="g149134"
           transform="translate(90.49833,138.36026)">
          <g
             id="g149136"
             transform="matrix(0.33333,0,0,0.33333,0,-33.57357)">
            <g
               id="g149138">
              <g
                 id="g149140" />
              <g
                 id="g149196">
                <g
                   clip-path="url(#clipPath149144)"
                   id="g149194">
                  <g
                     transform="translate(0,100.72052)"
                     id="g149152">
                    <g
                       id="g149150">
                      <g
                         id="g149148">
                        <path
                           d="M 1.54894,-35.125 0,-27.834 c 13.8518,4.2661 25.7844,8.5374 35.7978,12.814 l 1.3299,-7.9638 C 25.1951,-27.8445 13.3355,-31.8915 1.54894,-35.125 Z m 0,15.02 L 0,-12.814 C 13.8518,-8.53744 25.7844,-4.26611 35.7978,0 l 1.3299,-7.94811 C 25.1951,-12.8088 13.3355,-16.861 1.54894,-20.105 Z"
                           style="fill:#f81436;fill-opacity:1;fill-rule:nonzero;stroke:none"
                           id="path149146" />
                      </g>
                    </g>
                  </g>
                  <g
                     transform="translate(15.11042,20.01141)"
                     id="g149160">
                    <g
                       id="g149158">
                      <g
                         id="g149156">
                        <path
                           d="M 22.7648,-160.449 H 6.19577 L 0,-1.31425 16.5846,0 Z"
                           style="fill:#f81436;fill-opacity:1;fill-rule:nonzero;stroke:none"
                           id="path149154" />
                      </g>
                    </g>
                  </g>
                  <g
                     transform="translate(38.80905,-63.52196)"
                     id="g149168">
                    <g
                       id="g149166">
                      <g
                         id="g149164">
                        <path
                           d="m 33.3727,-137.918 c -14.1439,0 -25.26813,3.609 -33.3727,10.826 l 3.31693,13.925 c 3.682,-2.055 7.65607,-3.635 11.92217,-4.74 4.2765,-1.106 9.7317,-1.659 16.3656,-1.659 12.5167,0 23.0464,4.089 31.589,12.267 8.5531,8.1771 14.3786,18.3052 17.4765,30.3838 h -4.4278 c -13.2573,0 -23.5366,1.8775 -30.838,5.6326 -7.291,3.755 -12.4124,8.6521 -15.3643,14.6914 -2.9414,6.0498 -4.4121,12.4646 -4.4121,19.2445 0,10.0133 3.3899,18.7385 10.1698,26.1755 C 42.5777,-3.72372 50.7552,0 60.3305,0 c 4.8607,0 10.1281,-1.62196 15.8024,-4.86587 5.6742,-3.24391 10.5714,-8.99113 14.6915,-17.24173 4.1305,-8.2506 6.4148,-19.8912 6.8529,-34.9216 h 16.8037 c 3.244,0 6.008,-0.7719 8.292,-2.3156 2.285,-1.5438 3.427,-4.0106 3.427,-7.4005 0,-6.7799 -3.907,-10.1699 -11.719,-10.1699 H 96.1283 C 92.5923,-94.595 85.1136,-109.182 73.6921,-120.677 62.281,-132.171 48.8412,-137.918 33.3727,-137.918 Z m 49.5035,80.8888 c -0.5945,13.1216 -3.2491,23.1037 -7.9637,29.9462 -4.7146,6.8529 -10.5349,10.2793 -17.4608,10.2793 -5.2988,0 -9.5701,-1.914 -12.814,-5.742 -3.2439,-3.828 -4.8659,-8.0264 -4.8659,-12.595 0,-3.3899 0.9231,-6.7798 2.7694,-10.1698 1.8462,-3.3899 5.6012,-6.1905 11.265,-8.4018 5.6742,-2.2113 14.2586,-3.3169 25.7531,-3.3169 z"
                           style="fill:#000000;fill-opacity:1;fill-rule:nonzero;stroke:none"
                           id="path149162" />
                      </g>
                    </g>
                  </g>
                  <g
                     transform="translate(141.80403,5.42945)"
                     id="g149176">
                    <g
                       id="g149174">
                      <g
                         id="g149172">
                        <path
                           d="m 57.4517,-24.0947 c -3.2335,0 -5.9194,1.1057 -8.0576,3.317 -2.1383,2.2113 -3.2075,5.1579 -3.2075,8.8399 0,3.38993 1.0692,6.22705 3.2075,8.51135 C 51.5323,-1.14215 54.2912,0 57.6707,0 c 6.9259,0 10.7592,-3.97927 11.4998,-11.9378 0,-7.51 -3.9063,-11.5623 -11.7188,-12.1569 z M 112.494,-145.867 h -7.526 c -14.7278,0 -29.0907,2.874 -43.0885,8.621 -13.1113,-5.747 -27.1091,-8.621 -41.9936,-8.621 H 11.265 c -7.21793,0 -10.97294,3.39 -11.265,10.17 0,1.763 0.77186,3.86 2.31559,6.29 1.54373,2.43 4.52688,3.645 8.94941,3.645 11.9326,0 21.9512,0.444 30.0558,1.33 -9.7213,8.397 -14.582,18.64 -14.582,30.7288 0,7.9481 1.987,15.1244 5.9611,21.5287 3.9845,6.4148 8.9234,11.4998 14.8166,15.2548 5.8933,3.7654 11.6354,5.6481 17.2262,5.6481 4.8711,0 9.7734,-1.7314 14.7071,-5.1944 4.9337,-3.463 9.0225,-8.2558 12.2664,-14.3786 3.2439,-6.1123 4.8658,-13.2937 4.8658,-21.5443 0,-11.7871 -4.7928,-22.3211 -14.3785,-31.6051 8.1045,-1.178 16.2091,-1.768 24.3135,-1.768 h 5.977 c 3.379,0 6.211,-0.808 8.496,-2.425 2.284,-1.616 3.426,-4.12 3.426,-7.51 0,-6.78 -3.974,-10.17 -11.922,-10.17 z m -49.2846,26.739 c 12.8087,5.163 19.2131,13.638 19.2131,25.4248 0,6.6234 -2.0652,12.402 -6.1958,17.3356 -4.12,4.9441 -8.6104,7.4162 -13.4711,7.4162 -6.4774,0 -11.7448,-2.5816 -15.8023,-7.7447 -4.0471,-5.1527 -6.0706,-10.5297 -6.0706,-16.1309 0,-11.787 7.4422,-20.554 22.3267,-26.301 z"
                           style="fill:#000000;fill-opacity:1;fill-rule:nonzero;stroke:none"
                           id="path149170" />
                      </g>
                    </g>
                  </g>
                  <g
                     transform="translate(280.63759,58.33094)"
                     id="g149184">
                    <g
                       id="g149182">
                      <g
                         id="g149180">
                        <path
                           d="M 1.54894,-20.105 0,-12.814 C 13.8518,-8.53744 25.7844,-4.26611 35.7978,0 l 1.3299,-7.94811 C 25.1951,-12.8088 13.3355,-16.861 1.54894,-20.105 Z"
                           style="fill:#000000;fill-opacity:1;fill-rule:nonzero;stroke:none"
                           id="path149178" />
                      </g>
                    </g>
                  </g>
                  <g
                     transform="translate(242.98208,-44.51221)"
                     id="g149192">
                    <g
                       id="g149190">
                      <g
                         id="g149188">
                        <path
                           d="M 14.3629,-95.9249 H 11.046 c -3.82803,0 -6.62343,1.0691 -8.3862,3.2074 C 0.8866,-90.5792 0,-88.1854 0,-85.536 c 0,2.0652 0.77186,4.1983 2.31559,6.3991 1.54373,2.2113 4.52688,3.3169 8.94941,3.3169 l 11.9378,0.2347 c 9.2833,0.4381 16.7203,0.8762 22.3111,1.3143 -2.9414,1.7732 -5.9611,4.167 -9.059,7.1814 -3.0874,3.0249 -5.7368,6.6339 -7.9481,10.827 -2.2113,4.2035 -3.3169,8.9599 -3.3169,14.269 0,12.3707 4.3808,22.4623 13.1425,30.2748 C 47.1045,-3.90626 57.4569,0 69.3895,0 81.1761,0 90.4593,-2.58157 97.2392,-7.74471 l 1.987,-16.78799 c -3.536,2.2008 -7.9951,3.8906 -13.3772,5.0692 -5.3718,1.1891 -10.7123,1.7837 -16.0214,1.7837 -8.9808,0 -16.2717,-2.2843 -21.873,-6.8529 -5.6012,-4.5686 -8.4018,-10.0969 -8.4018,-16.5847 0,-9.7213 7.1449,-18.3422 21.4349,-25.8626 4.8606,-2.6494 9.5752,-3.9741 14.1438,-3.9741 4.4226,0 10.3524,0.6989 17.7894,2.0966 7.4471,1.4081 14.4831,3.5099 21.1061,6.3053 l -2.863,-19.2288 c -9.137,-4.1201 -23.1715,-7.5101 -42.1031,-10.1699 -18.9315,-2.6493 -37.1642,-3.974 -54.698,-3.974 z"
                           style="fill:#000000;fill-opacity:1;fill-rule:nonzero;stroke:none"
                           id="path149186" />
                      </g>
                    </g>
                  </g>
                </g>
              </g>
            </g>
          </g>
        </g>
      </g>
    </g>
  </g>
</svg>
