<?xml version="1.0" encoding="UTF-8" standalone="no"?>
<!-- Created with Inkscape (http://www.inkscape.org/) -->

<svg
   version="1.1"
   id="svg148396"
   width="400"
   height="200"
   viewBox="0 0 400 200"
   sodipodi:docname="15313_word.pdf"
   xmlns:inkscape="http://www.inkscape.org/namespaces/inkscape"
   xmlns:sodipodi="http://sodipodi.sourceforge.net/DTD/sodipodi-0.dtd"
   xmlns="http://www.w3.org/2000/svg"
   xmlns:svg="http://www.w3.org/2000/svg">
  <defs
     id="defs148400">
    <clipPath
       clipPathUnits="userSpaceOnUse"
       id="clipPath148418">
      <path
         d="M 0,-300.612 H 358.0379 V 300.612 H 0 Z"
         id="path148416" />
    </clipPath>
  </defs>
  <sodipodi:namedview
     id="namedview148398"
     pagecolor="#ffffff"
     bordercolor="#000000"
     borderopacity="0.25"
     inkscape:showpageshadow="2"
     inkscape:pageopacity="0.0"
     inkscape:pagecheckerboard="0"
     inkscape:deskcolor="#d1d1d1" />
  <g
     id="g148402"
     inkscape:groupmode="layer"
     inkscape:label="15313_word58"
     transform="matrix(1.3333333,0,0,-1.3333333,0,200)">
    <g
       id="g148404">
      <g
         id="g148406">
        <g
           id="g148408"
           transform="translate(90.32667,139.10229)">
          <g
             id="g148410"
             transform="matrix(0.33334,0,0,0.33334,0,-33.40172)">
            <g
               id="g148412">
              <g
                 id="g148414" />
              <g
                 id="g148470">
                <g
                   clip-path="url(#clipPath148418)"
                   id="g148468">
                  <g
                     transform="translate(0,100.20459)"
                     id="g148426">
                    <g
                       id="g148424">
                      <g
                         id="g148422">
                        <path
                           d="M 1.54894,-35.125 0,-27.834 c 13.8518,4.2661 25.7844,8.5374 35.7978,12.814 l 1.3299,-7.9638 C 25.1951,-27.8445 13.3355,-31.8915 1.54894,-35.125 Z m 0,15.02 L 0,-12.814 C 13.8518,-8.53744 25.7844,-4.26611 35.7978,0 l 1.3299,-7.94811 C 25.1951,-12.8088 13.3355,-16.861 1.54894,-20.105 Z"
                           style="fill:#f81436;fill-opacity:1;fill-rule:nonzero;stroke:none"
                           id="path148420" />
                      </g>
                    </g>
                  </g>
                  <g
                     transform="translate(15.11042,19.49548)"
                     id="g148434">
                    <g
                       id="g148432">
                      <g
                         id="g148430">
                        <path
                           d="M 22.7648,-160.449 H 6.19577 L 0,-1.31425 16.5846,0 Z"
                           style="fill:#f81436;fill-opacity:1;fill-rule:nonzero;stroke:none"
                           id="path148428" />
                      </g>
                    </g>
                  </g>
                  <g
                     transform="translate(23.19596,-78.40081)"
                     id="g148442">
                    <g
                       id="g148440">
                      <g
                         id="g148438">
                        <path
                           d="m 39.7875,-122.007 h -4.1931 c -16.0631,0 -27.92792,3.093 -35.5944,9.278 l 2.00267,14.379 c 2.20086,-1.773 5.06927,-3.249 8.60523,-4.428 3.536,-1.178 7.1085,-2.06 10.7174,-2.644 3.6195,-0.595 6.7538,-0.965 9.4032,-1.111 l 3.755,-0.438 c 11.2025,1.909 19.8234,7.6927 25.8627,17.3514 6.0393,9.6483 9.424,20.3657 10.1542,32.1523 -1.7628,12.5271 -8.1672,28.9553 -19.2132,49.2845 L 67.4181,0 c 4.7146,-9.42925 8.7669,-18.5664 12.1569,-27.4116 2.7954,-5.7472 6.0341,-9.69 9.7161,-11.8283 3.682,-2.1382 7.9533,-3.2074 12.8139,-3.2074 3.244,0 6.008,-0.8084 8.292,-2.4251 2.285,-1.6167 3.427,-4.1201 3.427,-7.51 0,-6.7799 -3.906,-10.1698 -11.719,-10.1698 -6.6234,0 -11.8491,1.2516 -15.6771,3.755 0,-3.8281 -0.2973,-7.218 -0.8919,-10.1699 C 83.3248,-81.3377 78.8657,-92.9 72.1588,-103.654 65.4624,-114.418 54.6719,-120.536 39.7875,-122.007 Z"
                           style="fill:#000000;fill-opacity:1;fill-rule:nonzero;stroke:none"
                           id="path148436" />
                      </g>
                    </g>
                  </g>
                  <g
                     transform="translate(111.48155,18.61931)"
                     id="g148450">
                    <g
                       id="g148448">
                      <g
                         id="g148446">
                        <path
                           d="m 109.834,-159.572 h -1.768 c -7.218,0 -13.7005,1.695 -19.4477,5.085 -5.7473,3.389 -12.3759,10.905 -19.8859,22.545 -1.6272,-9.137 -6.3836,-16.026 -14.2691,-20.668 -7.8751,-4.642 -20.1362,-6.962 -36.7835,-6.962 H 11.265 c -7.50999,0 -11.265,3.463 -11.265,10.388 0,1.92 0.77186,4.016 2.31559,6.29 1.54373,2.284 4.52688,3.427 8.94941,3.427 h 6.6339 c 14.4359,0 24.7466,1.47 30.9319,4.412 6.1958,2.952 9.2937,7.452 9.2937,13.502 0,2.357 -0.5894,4.788 -1.768,7.291 -1.1787,2.503 -3.536,6.331 -7.072,11.484 -11.2024,15.3227 -23.5053,29.1745 -36.9086,41.5557 l 0.4381,4.1931 c 0.8866,7.9585 1.5124,12.5271 1.8775,13.7057 0.3651,1.1787 3.9375,3.7603 10.7174,7.7448 10.0238,5.2987 23.1351,11.338 39.3338,18.1179 C 80.9518,-10.6809 96.7907,-4.86065 112.259,0 l -3.755,-19.4478 c -11.6403,-3.682 -25.9355,-8.913 -42.8852,-15.6929 -16.9392,-6.7798 -29.8262,-12.6001 -38.6609,-17.4608 11.3484,-11.3484 20.7777,-21.8103 28.2877,-31.3856 7.51,-9.5753 16.0579,-21.2159 25.6436,-34.9219 l 1.3143,-1.987 c 5.7472,-8.25 10.6809,-13.408 14.801,-15.474 4.1305,-2.065 8.2615,-3.097 12.3915,-3.097 3.536,0 6.446,-0.809 8.73,-2.426 2.285,-1.616 3.427,-4.12 3.427,-7.51 0,-6.779 -3.906,-10.169 -11.719,-10.169 z"
                           style="fill:#000000;fill-opacity:1;fill-rule:nonzero;stroke:none"
                           id="path148444" />
                      </g>
                    </g>
                  </g>
                  <g
                     transform="translate(283.77753,47.07467)"
                     id="g148458">
                    <g
                       id="g148456">
                      <g
                         id="g148454">
                        <path
                           d="m 9.05897,-37.5658 c -4.13052,0 -7.15017,0.6624 -9.05897,1.9871 v 5.523 c 2.7954,-0.5842 5.29874,-0.8762 7.51002,-0.8762 2.35732,0 4.93368,0.5163 7.72908,1.5489 2.8058,1.0327 4.8711,2.5034 6.1958,4.4122 h -1.768 c -3.682,0 -6.9624,0.9596 -9.84128,2.8788 -2.86842,1.9192 -4.30262,5.0119 -4.30262,9.278 0,3.68202 1.25167,6.73818 3.75501,9.16851 C 11.7814,-1.21516 14.874,0 18.556,0 c 2.5034,0 5.1892,-1.17866 8.0576,-3.53597 2.8789,-2.35731 4.3183,-6.25835 4.3183,-11.70313 0,-7.218 -2.3938,-12.7462 -7.1814,-16.5846 -4.7877,-3.8281 -9.6849,-5.7421 -14.69153,-5.7421 z m 15.47373,18.5717 0.2191,3.0822 c 0,2.2113 -0.5528,4.3131 -1.6585,6.30533 -1.1056,1.99224 -3.1344,2.98836 -6.0862,2.98836 -1.4707,0 -2.7954,-0.47981 -3.9741,-1.43942 -1.1786,-0.95961 -1.768,-2.24777 -1.768,-3.86457 0,-1.7732 0.9544,-3.3951 2.8632,-4.8658 1.9193,-1.4707 4.7251,-2.2061 8.4175,-2.2061 z"
                           style="fill:#000000;fill-opacity:1;fill-rule:nonzero;stroke:none"
                           id="path148452" />
                      </g>
                    </g>
                  </g>
                  <g
                     transform="translate(210.1843,-5.03726)"
                     id="g148466">
                    <g
                       id="g148464">
                      <g
                         id="g148462">
                        <path
                           d="m 114.919,-135.916 c -11.933,0 -19.8129,5.158 -23.6409,15.474 -5.6012,-10.316 -14.3682,-15.474 -26.3007,-15.474 -11.4946,0 -18.5717,5.377 -21.2315,16.131 -7.0719,-10.754 -17.8989,-16.131 -32.4809,-16.131 -4.27651,0 -7.22315,1.069 -8.83989,3.208 C 0.80837,-130.57 0,-128.322 0,-125.965 c 0,2.795 0.8866,5.184 2.6598,7.166 1.76277,1.992 4.63118,2.988 8.6052,2.988 10.754,0 18.4517,2.764 23.0934,8.292 4.6416,5.529 7.7708,13.0074 9.3875,22.4367 l 14.1595,0.6571 c -2.0652,-6.4774 -3.0979,-12.0734 -3.0979,-16.7878 0,-10.316 4.0523,-15.474 12.1569,-15.474 5.8933,0 10.6809,2.06 14.3629,6.18 3.682,4.131 6.4826,11.7189 8.4018,22.7649 l 13.9249,0.6728 c -0.156,-0.2921 -0.235,-0.6624 -0.235,-1.1109 -1.022,-3.2439 -1.533,-7.2232 -1.533,-11.9378 0,-10.9 5.007,-16.35 15.02,-16.35 4.861,0 8.913,1.58 12.157,4.741 3.244,3.171 4.866,7.265 4.866,12.2818 0,3.828 -0.777,8.3184 -2.331,13.4711 -1.544,5.1631 -3.276,9.7317 -5.195,13.7058 l 16.147,4.6468 c 3.536,-6.9259 5.304,-16.5012 5.304,-28.7259 0,-12.5266 -3.208,-22.2536 -9.623,-29.1796 -6.404,-6.926 -14.175,-10.389 -23.312,-10.389 z m -9.278,85.7553 c -3.244,0 -5.8985,1.0639 -7.9637,3.1918 -2.0653,2.1382 -3.0979,5.0536 -3.0979,8.746 0,3.2335 1.0326,5.9559 3.0979,8.1672 2.0652,2.2112 4.7197,3.3169 7.9637,3.3169 3.39,0 6.039,-1.1057 7.948,-3.3169 1.919,-2.2113 2.879,-4.9337 2.879,-8.1672 0,-7.2284 -3.609,-11.2077 -10.827,-11.9378 z m -29.1796,0 c -3.2439,0 -5.8985,1.0639 -7.9637,3.1918 -2.0548,2.1382 -3.0823,5.0536 -3.0823,8.746 0,3.2335 1.064,5.9559 3.1918,8.1672 2.1383,2.2112 4.7563,3.3169 7.8542,3.3169 3.2439,0 5.8933,-1.1057 7.9481,-3.3169 2.0653,-2.2113 3.0979,-4.9337 3.0979,-8.1672 0,-7.2284 -3.682,-11.2077 -11.046,-11.9378 z m 14.8167,26.7388 c -3.2439,0 -5.862,1.0326 -7.8542,3.0979 -1.9923,2.0653 -2.9884,4.9389 -2.9884,8.6209 0,3.38992 0.9961,6.18532 2.9884,8.38617 C 85.4161,-1.10564 88.0342,0 91.2781,0 c 6.9155,0 10.5979,-3.90104 11.0459,-11.7031 0,-7.2284 -3.6819,-11.1347 -11.0459,-11.7188 z"
                           style="fill:#000000;fill-opacity:1;fill-rule:nonzero;stroke:none"
                           id="path148460" />
                      </g>
                    </g>
                  </g>
                </g>
              </g>
            </g>
          </g>
        </g>
      </g>
    </g>
  </g>
</svg>
