<?xml version="1.0" encoding="UTF-8" standalone="no"?>
<!-- Created with Inkscape (http://www.inkscape.org/) -->

<svg
   version="1.1"
   id="svg152926"
   width="400"
   height="200"
   viewBox="0 0 400 200"
   sodipodi:docname="1531_word.pdf"
   xmlns:inkscape="http://www.inkscape.org/namespaces/inkscape"
   xmlns:sodipodi="http://sodipodi.sourceforge.net/DTD/sodipodi-0.dtd"
   xmlns="http://www.w3.org/2000/svg"
   xmlns:svg="http://www.w3.org/2000/svg">
  <defs
     id="defs152930">
    <clipPath
       clipPathUnits="userSpaceOnUse"
       id="clipPath152948">
      <path
         d="M 0,-221.67088 H 300 V 221.67088 H 0 Z"
         id="path152946" />
    </clipPath>
  </defs>
  <sodipodi:namedview
     id="namedview152928"
     pagecolor="#ffffff"
     bordercolor="#000000"
     borderopacity="0.25"
     inkscape:showpageshadow="2"
     inkscape:pageopacity="0.0"
     inkscape:pagecheckerboard="0"
     inkscape:deskcolor="#d1d1d1" />
  <g
     id="g152932"
     inkscape:groupmode="layer"
     inkscape:label="1531_word64"
     transform="matrix(1.3333333,0,0,-1.3333333,0,200)">
    <g
       id="g152934">
      <g
         id="g152936">
        <g
           id="g152938"
           transform="translate(104.855,121.9448)">
          <g
             id="g152940"
             transform="matrix(0.33333,0,0,0.33333,0,-24.62963)">
            <g
               id="g152942">
              <g
                 id="g152944" />
              <g
                 id="g152984">
                <g
                   clip-path="url(#clipPath152948)"
                   id="g152982">
                  <g
                     transform="translate(0,63.71977)"
                     id="g152956">
                    <g
                       id="g152954">
                      <g
                         id="g152952">
                        <path
                           d="m 17.8989,-23.4219 c -3.2439,0 -5.935,1.0326 -8.07328,3.0979 -2.12785,2.0653 -3.19177,4.9389 -3.19177,8.6209 0,7.07192 3.75505,10.97296 11.26505,11.7031 3.3899,0 6.1123,-1.06914 8.1671,-3.20741 2.0653,-2.12784 3.0979,-4.95974 3.0979,-8.49569 0,-7.218 -3.755,-11.1242 -11.265,-11.7188 z m 29.6176,0 c -3.2439,0 -5.8619,1.0326 -7.8542,3.0979 -1.9818,2.0653 -2.9727,4.9389 -2.9727,8.6209 0,7.07192 3.609,10.97296 10.8269,11.7031 6.926,0 10.681,-3.90104 11.2651,-11.7031 0,-7.218 -3.755,-11.1242 -11.2651,-11.7188 z M 37.3467,-152.047 c -7.8125,0 -14.5194,1.914 -20.1206,5.742 -5.5908,3.839 -9.8621,8.851 -12.81396,15.036 C 1.47071,-125.084 0,-118.455 0,-111.383 c 0,9.721 2.35731,18.8897 7.07194,27.5054 4.71466,8.6261 10.60786,16.9914 17.67986,25.096 l -4.4278,3.3169 10.1698,13.4868 c 16.5012,-12.2351 28.2878,-23.3593 35.3597,-33.3727 8.1046,-11.3485 12.1569,-22.77 12.1569,-34.2644 0,-9.575 -2.1018,-17.497 -6.3053,-23.766 -4.1931,-6.259 -9.3875,-10.937 -15.5833,-14.035 -6.1854,-3.087 -12.4437,-4.631 -18.7751,-4.631 z m 1.768,20.559 c 5.7473,0 10.4619,1.252 14.1439,3.755 3.682,2.503 6.3679,5.523 8.0576,9.059 1.7002,3.536 2.5503,6.853 2.5503,9.951 0,6.769 -2.2843,13.4344 -6.8529,19.9952 -4.5686,6.5608 -11.4945,13.5963 -20.7777,21.1063 -6.1854,-6.0393 -11.4163,-12.5949 -15.6929,-19.6669 -4.2661,-7.0719 -6.3991,-13.6276 -6.3991,-19.6666 0,-7.667 2.5033,-13.675 7.51,-18.024 5.0067,-4.339 10.827,-6.509 17.4608,-6.509 z"
                           style="fill:#000000;fill-opacity:1;fill-rule:nonzero;stroke:none"
                           id="path152950" />
                      </g>
                    </g>
                  </g>
                  <g
                     transform="translate(52.50233,-24.0067)"
                     id="g152964">
                    <g
                       id="g152962">
                      <g
                         id="g152960">
                        <path
                           d="m 39.7875,-122.007 h -4.1931 c -16.0631,0 -27.92792,3.093 -35.5944,9.278 l 2.00267,14.379 c 2.20086,-1.773 5.06927,-3.249 8.60523,-4.428 3.536,-1.178 7.1085,-2.06 10.7174,-2.644 3.6195,-0.595 6.7538,-0.965 9.4032,-1.111 l 3.755,-0.438 c 11.2025,1.909 19.8234,7.6927 25.8627,17.3514 6.0393,9.6483 9.424,20.3657 10.1542,32.1523 -1.7628,12.5271 -8.1672,28.9553 -19.2132,49.2845 L 67.4181,0 c 4.7146,-9.42925 8.7669,-18.5664 12.1569,-27.4116 2.7954,-5.7472 6.0341,-9.69 9.7161,-11.8283 3.682,-2.1382 7.9533,-3.2074 12.8139,-3.2074 3.244,0 6.008,-0.8084 8.292,-2.4251 2.285,-1.6167 3.427,-4.1201 3.427,-7.51 0,-6.7799 -3.906,-10.1698 -11.719,-10.1698 -6.6234,0 -11.8491,1.2516 -15.6771,3.755 0,-3.8281 -0.2973,-7.218 -0.8919,-10.1699 C 83.3248,-81.3377 78.8657,-92.9 72.1588,-103.654 65.4624,-114.418 54.6719,-120.536 39.7875,-122.007 Z"
                           style="fill:#000000;fill-opacity:1;fill-rule:nonzero;stroke:none"
                           id="path152958" />
                      </g>
                    </g>
                  </g>
                  <g
                     transform="translate(141.13073,-21.36254)"
                     id="g152972">
                    <g
                       id="g152970">
                      <g
                         id="g152968">
                        <path
                           d="m 39.1147,-121.115 c -3.2439,0 -5.9715,1.106 -8.1828,3.317 -2.2113,2.211 -3.3169,5.158 -3.3169,8.84 0,7.072 3.8332,11.0513 11.4997,11.9379 6.9259,0 10.7592,-3.9789 11.4997,-11.9379 0,-7.51 -3.8332,-11.562 -11.4997,-12.157 z M 14.3629,-65.1964 H 11.046 c -7.364,0 -11.046,3.463 -11.046,10.3889 0,2.0652 0.77186,4.1983 2.31559,6.3991 1.54373,2.2113 4.45386,3.317 8.73041,3.317 h 4.4278 c 15.9066,0 26.2903,1.6949 31.1509,5.0849 l 0.4381,1.768 c 0.5946,1.9192 0.8918,4.2035 0.8918,6.8529 0,2.6493 -0.5163,5.2987 -1.5489,7.9481 -1.0326,2.6598 -2.9466,6.201 -5.742,10.6235 L 36.9086,-6.41481 53.0395,0 c 6.4774,-12.0786 9.7161,-24.2355 9.7161,-36.4706 0,-6.0393 -1.1786,-12.0056 -3.5359,-17.8988 -2.6494,-2.7954 -7.0668,-5.2988 -13.2521,-7.5101 -6.1853,-2.2113 -16.7202,-3.3169 -31.6047,-3.3169 z"
                           style="fill:#000000;fill-opacity:1;fill-rule:nonzero;stroke:none"
                           id="path152966" />
                      </g>
                    </g>
                  </g>
                  <g
                     transform="translate(222.46419,73.8896)"
                     id="g152980">
                    <g
                       id="g152978">
                      <g
                         id="g152976">
                        <path
                           d="M 30.0557,-160.449 H 13.4868 L 7.29098,-1.31425 23.8756,0 Z M 0,-221.671 l 1.3299,10.389 c 1.03263,0.595 2.57636,1.189 4.63118,1.784 2.06526,0.584 3.91147,0.876 5.53862,0.876 -5.30915,3.379 -7.96373,7.943 -7.96373,13.69 0,6.05 2.2843,10.697 6.85293,13.94 4.5686,3.234 9.7995,4.851 15.6928,4.851 8.6887,0 15.0253,-1.914 19.0097,-5.742 l -3.3169,-10.17 c -4.8606,3.244 -10.1646,4.866 -15.9119,4.866 -3.682,0 -6.5191,-0.845 -8.5113,-2.535 -1.9923,-1.7 -2.9884,-3.51 -2.9884,-5.429 0,-7.072 6.5556,-10.9 19.6669,-11.484 h 14.3786 l -4.4278,-11.281 H 29.6177 c -13.1113,0 -22.98385,-1.252 -29.6177,-3.755 z"
                           style="fill:#f81436;fill-opacity:1;fill-rule:nonzero;stroke:none"
                           id="path152974" />
                      </g>
                    </g>
                  </g>
                </g>
              </g>
            </g>
          </g>
        </g>
      </g>
    </g>
  </g>
</svg>
