<?xml version="1.0" encoding="UTF-8" standalone="no"?>
<!-- Created with Inkscape (http://www.inkscape.org/) -->

<svg
   version="1.1"
   id="svg147916"
   width="400"
   height="400"
   viewBox="0 0 400 400"
   sodipodi:docname="15313_pic.pdf"
   xmlns:inkscape="http://www.inkscape.org/namespaces/inkscape"
   xmlns:sodipodi="http://sodipodi.sourceforge.net/DTD/sodipodi-0.dtd"
   xmlns="http://www.w3.org/2000/svg"
   xmlns:svg="http://www.w3.org/2000/svg">
  <defs
     id="defs147920">
    <clipPath
       clipPathUnits="userSpaceOnUse"
       id="clipPath147936">
      <path
         d="M 0,0 H 230.64189 V -118.83003 H 0 Z"
         clip-rule="evenodd"
         id="path147934" />
    </clipPath>
    <clipPath
       clipPathUnits="userSpaceOnUse"
       id="clipPath147946">
      <path
         d="M 0,-356.4897 H 691.9249 V 356.4897 H 0 Z"
         id="path147944" />
    </clipPath>
    <clipPath
       clipPathUnits="userSpaceOnUse"
       id="clipPath147950">
      <path
         d="M 0,0 H 691.925 V -356.49 H 0 Z"
         clip-rule="evenodd"
         id="path147948" />
    </clipPath>
    <clipPath
       clipPathUnits="userSpaceOnUse"
       id="clipPath147954">
      <path
         d="M 0,-356.4897 H 691.9249 V 356.4897 H 0 Z"
         id="path147952" />
    </clipPath>
    <clipPath
       clipPathUnits="userSpaceOnUse"
       id="clipPath147958">
      <path
         d="M 0,-290.33848 H 349.50271 V 290.33848 H 0 Z"
         id="path147956" />
    </clipPath>
  </defs>
  <sodipodi:namedview
     id="namedview147918"
     pagecolor="#ffffff"
     bordercolor="#000000"
     borderopacity="0.25"
     inkscape:showpageshadow="2"
     inkscape:pageopacity="0.0"
     inkscape:pagecheckerboard="0"
     inkscape:deskcolor="#d1d1d1" />
  <g
     id="g147922"
     inkscape:groupmode="layer"
     inkscape:label="15313_pic57"
     transform="matrix(1.3333333,0,0,-1.3333333,0,400)">
    <g
       id="g147924">
      <g
         id="g147926">
        <g
           id="g147928"
           transform="translate(34.67906,209.41502)">
          <g
             id="g147930">
            <g
               id="g147932"
               clip-path="url(#clipPath147936)">
              <g
                 id="g147938"
                 transform="matrix(0.33333,0,0,0.33333,0,-39.61005)">
                <g
                   id="g147940">
                  <g
                     id="g147942" />
                  <g
                     id="g148234">
                    <g
                       clip-path="url(#clipPath147946)"
                       id="g148232">
                      <g
                         transform="translate(0,118.83003)"
                         id="g148128">
                        <g
                           id="g148126">
                          <g
                             id="g148124">
                            <g
                               clip-path="url(#clipPath147950)"
                               id="g148122">
                              <g
                                 transform="translate(0,-356.4897)"
                                 id="g148120">
                                <g
                                   id="g148118">
                                <g
                                   id="g147960" />
                                <g
                                   id="g148116">
                                <g
                                   clip-path="url(#clipPath147954)"
                                   id="g148114">
                                <g
                                   transform="translate(272.4008,186.0678)"
                                   id="g147968">
                                <g
                                   id="g147966">
                                <g
                                   id="g147964">
                                <path
                                   d="m 0,-46.3231 c 0.03185,12.3114 3.86586,23.908 10.8078,32.6733 C 17.6901,-4.95607 26.7791,-0.11772 36.4367,0 H 381.27 c 9.658,-0.11772 18.748,-4.95607 25.629,-13.6498 6.862,-8.6647 10.69,-20.096 10.808,-32.2497 V -107.94 c -0.118,-12.155 -3.946,-23.585 -10.808,-32.253 -6.966,-8.802 -16.198,-13.652 -25.99,-13.652 H 60.1648 c -8.932,-11.597 -26.267,-24.009 -44.663,-31.897 -0.504,-0.215 -1.022,-0.326 -1.545,-0.326 -1.627,0 -3.169,1.087 -4.021,2.844 -0.84,1.726 -0.908,3.842 -0.181,5.661 3.729,9.312 6.463,19.517 8.143,30.37 C 6.84152,-138.796 0.04245,-123.826 0,-107.515 Z"
                                   style="mix-blend-mode:multiply;fill:#d1d1d1;fill-opacity:1;fill-rule:nonzero;stroke:none"
                                   id="path147962" />
                                </g>
                                </g>
                                </g>
                                <g
                                   transform="translate(279.6699,189.5128)"
                                   id="g147976">
                                <g
                                   id="g147974">
                                <g
                                   id="g147972">
                                <path
                                   d="M 378.182,0 H 34.074 C 15.332,0 0,-19.369 0,-43.039 v -60.881 c 0,-16.447 7.405,-30.806 18.207,-38.046 -0.642,-16.976 -6.066,-27.017 -8.743,-33.708 -0.786,-1.961 0.764,-4.086 2.436,-3.367 18.447,7.911 30.766,20.651 39.07,32.084 h 327.212 c 18.741,0 34.073,19.364 34.073,43.037 v 60.881 C 412.255,-19.369 396.923,0 378.182,0 Z"
                                   style="fill:#0279be;fill-opacity:1;fill-rule:nonzero;stroke:none"
                                   id="path147970" />
                                </g>
                                </g>
                                </g>
                                <g
                                   transform="translate(557.3119,163.6288)"
                                   id="g147984">
                                <g
                                   id="g147982">
                                <g
                                   id="g147980">
                                <path
                                   d="M 0,-48.913 C 0,-21.899 21.896,0 48.91,0 c 27.014,0 48.913,-21.899 48.913,-48.913 0,-27.011 -21.899,-48.91 -48.913,-48.91 -27.014,0 -48.91,21.899 -48.91,48.91 z"
                                   style="fill:#ffd053;fill-opacity:1;fill-rule:nonzero;stroke:none"
                                   id="path147978" />
                                </g>
                                </g>
                                </g>
                                <g
                                   transform="translate(565.0072,156.4648)"
                                   id="g147992">
                                <g
                                   id="g147990">
                                <g
                                   id="g147988">
                                <path
                                   d="m 66.806,0 c 4.872,-7.605 7.696,-16.648 7.696,-26.349 0,-27.012 -21.902,-48.91 -48.913,-48.91 -9.382,0 -18.145,2.642 -25.589,7.223 8.692,-13.572 23.902,-22.564 41.215,-22.564 27.014,0 48.913,21.899 48.913,48.91 0,17.632 -9.331,33.083 -23.322,41.69 z"
                                   style="fill:#ffc448;fill-opacity:1;fill-rule:nonzero;stroke:none"
                                   id="path147986" />
                                </g>
                                </g>
                                </g>
                                <g
                                   transform="translate(560.5786,160.0185)"
                                   id="g148000">
                                <g
                                   id="g147998">
                                <g
                                   id="g147996">
                                <path
                                   d="m 3.381,-50.461 c 0,25.079 20.331,45.41 45.41,45.41 14.659,0 27.696,-6.946 35.998,-17.728 C 76.949,-9.164 62.25,0 45.41,0 20.331,0 0,-20.335 0,-45.414 0,-55.831 3.511,-65.431 9.416,-73.095 5.574,-66.432 3.381,-58.703 3.381,-50.461 Z"
                                   style="fill:#ffd77a;fill-opacity:1;fill-rule:nonzero;stroke:none"
                                   id="path147994" />
                                </g>
                                </g>
                                </g>
                                <g
                                   transform="translate(583.42142,110.14947)"
                                   id="g148008">
                                <g
                                   id="g148006">
                                <g
                                   id="g148004">
                                <path
                                   d="m 2.75278,-0.47337 c -1.259,1.225 -3.279,-0.13 -2.626,-1.76 3.616,-9.02803 12.44402,-15.40803 22.76202,-15.40803 10.149,0 18.855,6.165 22.578,14.95803 0.679,1.602 -1.355,2.991 -2.606,1.78 -7.158,-6.94 -22.354,-16.81703 -40.10802,0.43 z"
                                   style="fill:#654735;fill-opacity:1;fill-rule:nonzero;stroke:none"
                                   id="path148002" />
                                </g>
                                </g>
                                </g>
                                <g
                                   transform="translate(618.7416,127.4229)"
                                   id="g148016">
                                <g
                                   id="g148014">
                                <g
                                   id="g148012">
                                <path
                                   d="m 0.1077,-2.006 c 1.384,-3.46 4.685,-5.695 8.414,-5.695 3.647,0 6.924,2.17 8.347,5.528 0.271,0.645 0.056,1.372 -0.524,1.766 -0.577,0.396 -1.329,0.336 -1.833,-0.153 -2.713,-2.632 -7.005,-4.742 -12.033,0.144 C 2.1927,-0.141 1.8277,0 1.4627,0 1.1797,0 0.8967,-0.082 0.6447,-0.249 0.0707,-0.637 -0.1523,-1.358 0.1077,-2.006 Z"
                                   style="fill:#2c2c2c;fill-opacity:1;fill-rule:nonzero;stroke:none"
                                   id="path148010" />
                                </g>
                                </g>
                                </g>
                                <g
                                   transform="translate(576.7194,127.4229)"
                                   id="g148024">
                                <g
                                   id="g148022">
                                <g
                                   id="g148020">
                                <path
                                   d="m 0.1077,-2.006 c 1.384,-3.46 4.685,-5.695 8.414,-5.695 3.647,0 6.921,2.17 8.344,5.528 0.274,0.645 0.059,1.369 -0.518,1.766 -0.58,0.396 -1.332,0.336 -1.836,-0.153 -2.713,-2.632 -7.005,-4.742 -12.033,0.144 C 2.1927,-0.141 1.8277,0 1.4627,0 1.1797,0 0.8967,-0.082 0.6447,-0.249 0.0707,-0.637 -0.1523,-1.358 0.1077,-2.006 Z"
                                   style="fill:#2c2c2c;fill-opacity:1;fill-rule:nonzero;stroke:none"
                                   id="path148018" />
                                </g>
                                </g>
                                </g>
                                <g
                                   transform="translate(561.7224,116.4497)"
                                   id="g148032">
                                <g
                                   id="g148030">
                                <g
                                   id="g148028">
                                <path
                                   d="m 17.08,-8.542 c 0,-4.716 -3.825,-8.539 -8.542,-8.539 C 3.822,-17.081 0,-13.258 0,-8.542 0,-3.826 3.822,0 8.538,0 13.255,0 17.08,-3.826 17.08,-8.542 Z"
                                   style="fill:#ffa6ad;fill-opacity:1;fill-rule:nonzero;stroke:none"
                                   id="path148026" />
                                </g>
                                </g>
                                </g>
                                <g
                                   transform="translate(633.6421,116.4497)"
                                   id="g148040">
                                <g
                                   id="g148038">
                                <g
                                   id="g148036">
                                <path
                                   d="m 17.081,-8.542 c 0,-4.716 -3.825,-8.539 -8.542,-8.539 C 3.823,-17.081 0,-13.258 0,-8.542 0,-3.826 3.823,0 8.539,0 c 4.717,0 8.542,-3.826 8.542,-8.542 z"
                                   style="fill:#ffa6ad;fill-opacity:1;fill-rule:nonzero;stroke:none"
                                   id="path148034" />
                                </g>
                                </g>
                                </g>
                                <g
                                   transform="translate(2.2948,353.0478)"
                                   id="g148048">
                                <g
                                   id="g148046">
                                <g
                                   id="g148044">
                                <path
                                   d="m 419.037,-107.363 v 60.8836 c 0,12.367 -4.849,24.026 -13.651,32.831 C 396.637,-4.90295 385.073,-0.06185 372.792,0 H 46.2412 C 33.9628,-0.06185 22.3969,-4.90295 13.6515,-13.6484 4.89814,-22.4018 0.05649,-33.9757 0,-46.2619 v -61.3191 c 0.05649,-12.289 4.89814,-23.86 13.6515,-32.613 8.802,-8.802 20.461,-13.649 32.828,-13.649 H 343.045 c 11.28,-11.6 33.176,-24.012 56.41,-31.9 0.614,-0.208 1.247,-0.319 1.886,-0.326 h 0.137 c 2.027,0.024 3.941,1.106 5.008,2.844 1.061,1.726 1.149,3.842 0.229,5.661 -4.71,9.312 -8.162,19.517 -10.284,30.37 14.008,8.423 22.606,23.461 22.606,39.831 z"
                                   style="mix-blend-mode:multiply;fill:#d1d1d1;fill-opacity:1;fill-rule:nonzero;stroke:none"
                                   id="path148042" />
                                </g>
                                </g>
                                </g>
                                <g
                                   transform="translate(0,356.4897)"
                                   id="g148056">
                                <g
                                   id="g148054">
                                <g
                                   id="g148052">
                                <path
                                   d="m 412.15,-103.92 v 60.884 C 412.15,-19.366 392.783,0 369.113,0 H 43.036 C 19.366,0 0,-19.366 0,-43.036 v -60.884 c 0,-23.67 19.366,-43.037 43.036,-43.037 h 304.736 c 10.485,-11.433 26.047,-24.173 49.349,-32.084 2.113,-0.716 4.068,1.409 3.075,3.37 -3.381,6.691 -10.231,16.732 -11.043,33.708 13.643,7.238 22.997,21.599 22.997,38.043 z"
                                   style="fill:#eaeaea;fill-opacity:1;fill-rule:nonzero;stroke:none"
                                   id="path148050" />
                                </g>
                                </g>
                                </g>
                                <g
                                   transform="translate(53.9902,334.0555)"
                                   id="g148064">
                                <g
                                   id="g148062">
                                <g
                                   id="g148060">
                                <path
                                   d="M 0,-48.91 C 0,-21.899 21.899,0 48.913,0 c 27.011,0 48.91,-21.899 48.91,-48.91 0,-27.014 -21.899,-48.913 -48.91,-48.913 C 21.899,-97.823 0,-75.924 0,-48.91 Z"
                                   style="fill:#ffd053;fill-opacity:1;fill-rule:nonzero;stroke:none"
                                   id="path148058" />
                                </g>
                                </g>
                                </g>
                                <g
                                   transform="translate(61.6864,326.8916)"
                                   id="g148072">
                                <g
                                   id="g148070">
                                <g
                                   id="g148068">
                                <path
                                   d="m 66.805,0 c 4.872,-7.605 7.696,-16.645 7.696,-26.347 0,-27.011 -21.899,-48.912 -48.913,-48.912 -9.382,0 -18.145,2.645 -25.588,7.226 8.691,-13.573 23.901,-22.567 41.217,-22.567 27.011,0 48.91,21.899 48.91,48.91 0,17.632 -9.331,33.083 -23.322,41.69 z"
                                   style="fill:#ffc448;fill-opacity:1;fill-rule:nonzero;stroke:none"
                                   id="path148066" />
                                </g>
                                </g>
                                </g>
                                <g
                                   transform="translate(57.257,330.4452)"
                                   id="g148080">
                                <g
                                   id="g148078">
                                <g
                                   id="g148076">
                                <path
                                   d="m 3.381,-50.461 c 0,25.082 20.331,45.413 45.41,45.413 14.659,0 27.696,-6.949 35.998,-17.731 C 76.949,-9.164 62.25,0 45.41,0 20.331,0 0,-20.332 0,-45.411 c 0,-10.42 3.514,-20.02 9.416,-27.684 -3.839,6.663 -6.035,14.392 -6.035,22.634 z"
                                   style="fill:#ffd77a;fill-opacity:1;fill-rule:nonzero;stroke:none"
                                   id="path148074" />
                                </g>
                                </g>
                                </g>
                                <g
                                   transform="translate(81.2772,303.0853)"
                                   id="g148088">
                                <g
                                   id="g148086">
                                <g
                                   id="g148084">
                                <path
                                   d="m 7.209,-6.074 c 0,-3.356 -1.613,-6.075 -3.605,-6.075 C 1.613,-12.149 0,-9.43 0,-6.074 0,-2.718 1.613,0 3.604,0 5.596,0 7.209,-2.718 7.209,-6.074 Z"
                                   style="fill:#2c2c2c;fill-opacity:1;fill-rule:nonzero;stroke:none"
                                   id="path148082" />
                                </g>
                                </g>
                                </g>
                                <g
                                   transform="translate(117.3163,303.0853)"
                                   id="g148096">
                                <g
                                   id="g148094">
                                <g
                                   id="g148092">
                                <path
                                   d="m 7.209,-6.074 c 0,-3.356 -1.613,-6.075 -3.605,-6.075 C 1.613,-12.149 0,-9.43 0,-6.074 0,-2.718 1.613,0 3.604,0 5.596,0 7.209,-2.718 7.209,-6.074 Z"
                                   style="fill:#2c2c2c;fill-opacity:1;fill-rule:nonzero;stroke:none"
                                   id="path148090" />
                                </g>
                                </g>
                                </g>
                                <g
                                   transform="translate(70.0349,280.5187)"
                                   id="g148104">
                                <g
                                   id="g148102">
                                <g
                                   id="g148100">
                                <path
                                   d="m 0,0 c 1.865,-16.506 15.864,-29.334 32.868,-29.334 17.001,0 31.004,12.828 32.865,29.334 z"
                                   style="fill:#71523f;fill-opacity:1;fill-rule:nonzero;stroke:none"
                                   id="path148098" />
                                </g>
                                </g>
                                </g>
                                <g
                                   transform="translate(80.1986,265.03208)"
                                   id="g148112">
                                <g
                                   id="g148110">
                                <g
                                   id="g148108">
                                <path
                                   d="m 0,-4.81418 c 5.925,-5.59602 13.909,-9.03402 22.702,-9.03402 8.417,0 16.091,3.146 21.927,8.32102 l -0.302,0.71 C 22.255,5.94582 0.3,-4.66718 0,-4.81418 Z"
                                   style="fill:#ff6669;fill-opacity:1;fill-rule:nonzero;stroke:none"
                                   id="path148106" />
                                </g>
                                </g>
                                </g>
                                </g>
                                </g>
                                </g>
                              </g>
                            </g>
                          </g>
                        </g>
                      </g>
                      <g
                         transform="translate(175.21448,102.84705)"
                         id="g148230">
                        <g
                           id="g148228">
                          <g
                             transform="translate(0,-290.33848)"
                             id="g148226">
                            <g
                               id="g148224">
                              <g
                                 id="g148130" />
                              <g
                                 id="g148222">
                                <g
                                   clip-path="url(#clipPath147958)"
                                   id="g148220">
                                <g
                                   transform="translate(0,236.41372)"
                                   id="g148138">
                                <g
                                   id="g148136">
                                <g
                                   id="g148134">
                                <path
                                   d="M 4.36407,-49.5689 0,-45.0328 c 6.60085,2.7321 12.6386,5.7301 18.1132,8.994 5.4851,3.2744 9.3486,6.4549 11.5906,9.5416 1.0219,1.147 2.4714,4.7759 4.3484,10.8867 1.8145,5.5685 3.7958,9.56233 5.9439,11.9816 C 42.1547,-1.20963 44.9598,0 48.4114,0 c 2.899,0 5.4695,-0.98543 7.7114,-2.9563 2.242,-1.96045 3.9835,-4.39535 5.2244,-7.3047 1.2409,-2.9094 1.8614,-5.7249 1.8614,-8.4466 0,-3.7541 -0.9542,-6.8407 -2.8625,-9.26 -1.9083,-2.4192 -4.3119,-3.6289 -7.2108,-3.6289 -5.214,0 -10.6678,2.1534 -16.3614,6.4601 l -0.2659,-0.829 c -0.5422,-2.4193 -1.7519,-5.021 -3.6289,-7.8053 -2.7217,-3.389 -6.7781,-6.5331 -12.1693,-9.432 -5.3912,-2.9094 -10.83981,-5.0315 -16.34573,-6.3662 z m 48.77123,25.8715 c 1.2096,0 2.2367,0.4537 3.0814,1.3609 0.8447,0.9072 1.267,2.0856 1.267,3.535 0,2.7217 -0.9698,5.3547 -2.9094,7.8992 -1.9292,2.54435 -4.1346,3.81656 -6.6165,3.81656 -1.6997,0 -3.2483,-0.69867 -4.6456,-2.09601 -1.3869,-1.38695 -2.7165,-4.16595 -3.9887,-8.33705 1.6998,-1.6372 3.8166,-3.0763 6.3506,-4.3172 2.5444,-1.2409 5.0315,-1.8614 7.4612,-1.8614 z"
                                   style="fill:#000000;fill-opacity:1;fill-rule:nonzero;stroke:none"
                                   id="path148132" />
                                </g>
                                </g>
                                </g>
                                <g
                                   transform="translate(75.75786,265.83781)"
                                   id="g148146">
                                <g
                                   id="g148144">
                                <g
                                   id="g148142">
                                <path
                                   d="m 18.864,-65.9303 c -5.3286,0 -9.43198,1.4234 -12.31008,4.2703 -2.86766,2.8468 -4.4527,7.6905 -4.75511,14.5312 L 0,-0.45361 6.80419,0 8.50915,-44.8607 c 0.1877,-4.7864 1.18878,-8.1025 3.00325,-9.9482 1.8144,-1.8458 4.265,-2.7999 7.3516,-2.8625 1.3348,0 2.4714,-0.3337 3.4099,-1.0011 0.9386,-0.6569 1.4078,-1.6841 1.4078,-3.0814 0,-2.7842 -1.6059,-4.1764 -4.8177,-4.1764 z"
                                   style="fill:#000000;fill-opacity:1;fill-rule:nonzero;stroke:none"
                                   id="path148140" />
                                </g>
                                </g>
                                </g>
                                <g
                                   transform="translate(89.62151,230.42017)"
                                   id="g148154">
                                <g
                                   id="g148152">
                                <g
                                   id="g148150">
                                <path
                                   d="m 32.1596,-31.6121 c -5.1514,0 -10.7512,2.242 -16.7993,6.726 -1.2097,-1.9396 -2.6018,-3.363 -4.1764,-4.2703 -1.57461,-0.9072 -3.63412,-1.3608 -6.17852,-1.3608 -1.39733,0 -2.5809,0.3337 -3.55069,1.0011 C 0.4849,-28.8487 0,-27.8216 0,-26.4347 c 0,2.7843 1.63718,4.1764 4.91153,4.1764 h 0.45361 c 1.87702,0 3.38906,0.5579 4.53613,1.6737 1.15753,1.1262 2.24723,3.2326 3.26913,6.3193 1.877,5.15133 3.874,8.81673 5.9908,10.99616 C 21.2885,-1.08971 24.078,0 27.5296,0 c 2.534,0 4.7864,-0.76124 6.7573,-2.28371 1.9708,-1.51204 3.6028,-3.44641 4.8959,-5.80311 1.3034,-2.35668 2.2315,-4.80728 2.7842,-7.35168 1.3243,-2.9094 2.6383,-4.7759 3.9417,-5.5997 1.3035,-0.8238 2.6226,-1.2357 3.9574,-1.2357 1.3348,0 2.4714,-0.3337 3.4099,-1.0011 0.9385,-0.657 1.4078,-1.6841 1.4078,-3.0815 0,-2.7842 -1.6059,-4.1763 -4.8177,-4.1763 -3.6393,0.0104 -6.5487,1.5277 -8.7281,4.5517 -2.0543,-3.754 -5.0471,-5.631 -8.9784,-5.631 z m 0.172,7.993 c 2.8469,0 4.2703,1.2722 4.2703,3.8166 0,1.8144 -0.4119,3.7071 -1.2357,5.6779 -0.8134,1.9709 -1.9292,3.6342 -3.3474,4.98978 -1.4182,1.36605 -3.0397,2.04908 -4.8646,2.04908 -1.7519,0 -3.3421,-0.71431 -4.7708,-2.14293 -1.4181,-1.41823 -2.7946,-4.18683 -4.1294,-8.30583 1.7623,-1.5746 3.9417,-2.9824 6.5383,-4.2233 2.607,-1.2409 5.1201,-1.8613 7.5393,-1.8613 z"
                                   style="fill:#000000;fill-opacity:1;fill-rule:nonzero;stroke:none"
                                   id="path148148" />
                                </g>
                                </g>
                                </g>
                                <g
                                   transform="translate(136.82878,290.33848)"
                                   id="g148162">
                                <g
                                   id="g148160">
                                <g
                                   id="g148158">
                                <path
                                   d="M 0.64132,-8.25888 0,-5.25565 C 5.69362,-3.50377 10.5999,-1.75188 14.719,0 l 0.5474,-3.26914 C 10.3549,-5.26087 5.47985,-6.92411 0.64132,-8.25888 Z"
                                   style="fill:#000000;fill-opacity:1;fill-rule:nonzero;stroke:none"
                                   id="path148156" />
                                </g>
                                </g>
                                </g>
                                <g
                                   transform="translate(135.00816,255.82964)"
                                   id="g148170">
                                <g
                                   id="g148168">
                                <g
                                   id="g148166">
                                <path
                                   d="m 22.1645,-9.61972 c -1.3348,0 -2.4089,0.42233 -3.2223,1.26699 -0.8133,0.84466 -1.22,2.02822 -1.22,3.55069 0,2.89895 1.4807,4.49963 4.4423,4.80204 2.8468,0 4.3901,-1.60068 4.6299,-4.80204 0,-2.97194 -1.5433,-4.57784 -4.6299,-4.81768 z m -12.16938,0 c -1.33477,0 -2.44012,0.42233 -3.31606,1.26699 -0.87595,0.84466 -1.31392,2.02822 -1.31392,3.55069 0,2.89895 1.54333,4.49963 4.62998,4.80204 1.39738,0 2.51838,-0.43797 3.36298,-1.31391 0.8447,-0.87594 1.267,-2.03865 1.267,-3.48813 0,-2.97194 -1.5433,-4.57784 -4.62998,-4.81768 z M 9.16611,-55.9351 4.53613,-55.8413 c -0.36498,0 -1.20964,0.4849 -2.53398,1.4547 C 0.66738,-53.4168 0,-52.4783 0,-51.5711 c 0,0.7195 0.69867,1.5642 2.096,2.534 1.38691,0.9698 2.20029,1.4547 2.44013,1.4547 l 5.08359,-0.0939 c 6.53828,0 10.80848,0.6987 12.81068,2.096 l 0.172,0.7196 c 0.2399,0.7925 0.3598,1.731 0.3598,2.8155 0,1.0949 -0.2138,2.1846 -0.6413,3.2691 -0.4171,1.095 -1.1992,2.5496 -2.3463,4.3641 l -1.5485,2.6278 6.6321,2.6435 c 2.6591,-4.9637 3.9887,-9.9586 3.9887,-14.9849 0,-2.4818 -0.4849,-4.9376 -1.4547,-7.3673 -1.0845,-1.147 -2.899,-2.1742 -5.4434,-3.0814 -2.5444,-0.9072 -6.872,-1.3608 -12.98269,-1.3608 z"
                                   style="fill:#000000;fill-opacity:1;fill-rule:nonzero;stroke:none"
                                   id="path148164" />
                                </g>
                                </g>
                                </g>
                                <g
                                   transform="translate(198.5863,126.57475)"
                                   id="g148178">
                                <g
                                   id="g148176">
                                <g
                                   id="g148174">
                                <path
                                   d="M 0.64132,-14.4374 0,-11.4342 c 5.69362,1.75191 10.5999,3.50901 14.719,5.27132 l 0.5474,-3.26914 C 10.3549,-11.4342 5.47985,-13.1026 0.64132,-14.4374 Z m 0,6.17852 L 0,-5.25565 C 5.69362,-3.50377 10.5999,-1.75188 14.719,0 l 0.5474,-3.26914 C 10.3549,-5.26087 5.47985,-6.92411 0.64132,-8.25888 Z"
                                   style="fill:#ffffff;fill-opacity:1;fill-rule:nonzero;stroke:none"
                                   id="path148172" />
                                </g>
                                </g>
                                </g>
                                <g
                                   transform="translate(204.79662,90.36491)"
                                   id="g148186">
                                <g
                                   id="g148184">
                                <g
                                   id="g148182">
                                <path
                                   d="M 9.33817,-65.9303 H 2.53397 L 0,-0.54746 6.81983,0 Z"
                                   style="fill:#ffffff;fill-opacity:1;fill-rule:nonzero;stroke:none"
                                   id="path148180" />
                                </g>
                                </g>
                                </g>
                                <g
                                   transform="translate(211.86892,50.13203)"
                                   id="g148194">
                                <g
                                   id="g148192">
                                <g
                                   id="g148190">
                                <path
                                   d="m 16.3457,-50.132 h -1.7206 c -6.60085,0 -11.47588,1.2722 -14.6251,3.8166 l 0.82902,5.8969 c 0.90722,-0.7195 2.08557,-1.3191 3.53505,-1.7988 1.44947,-0.4901 2.91459,-0.8551 4.39535,-1.0949 1.49118,-0.2503 2.77898,-0.4015 3.86348,-0.4536 l 1.5486,-0.1877 c 4.5987,0.7925 8.1389,3.1701 10.6208,7.1327 2.4818,3.9626 3.8739,8.3683 4.1763,13.2173 -0.7195,5.1409 -3.3525,11.8878 -7.8991,20.24051 L 27.7017,0 c 1.9395,-3.87917 3.6028,-7.63321 4.9897,-11.2621 1.1575,-2.3567 2.4923,-3.9782 4.0043,-4.8646 1.512,-0.876 3.2691,-1.3191 5.2713,-1.3296 1.3243,0 2.4558,-0.3337 3.3943,-1.001 0.9385,-0.657 1.4077,-1.6841 1.4077,-3.0815 0,-2.7842 -1.6006,-4.1763 -4.802,-4.1763 -2.7321,0.0104 -4.8855,0.5318 -6.4601,1.5641 0,-1.5746 -0.1199,-2.9667 -0.3597,-4.1763 -0.9073,-5.0888 -2.7374,-9.844 -5.4903,-14.2654 -2.753,-4.4214 -7.19,-6.9345 -13.3112,-7.5393 z"
                                   style="fill:#ffffff;fill-opacity:1;fill-rule:nonzero;stroke:none"
                                   id="path148188" />
                                </g>
                                </g>
                                </g>
                                <g
                                   transform="translate(248.14242,89.99496)"
                                   id="g148202">
                                <g
                                   id="g148200">
                                <g
                                   id="g148198">
                                <path
                                   d="m 45.1266,-65.5705 h -0.7195 c -2.9719,0 -5.6362,0.6935 -7.9929,2.0804 -2.3567,1.3973 -5.0836,4.4892 -8.1807,9.2756 -0.657,-3.7541 -2.607,-6.5852 -5.8501,-8.4936 -3.243,-1.9083 -8.2849,-2.8624 -15.1256,-2.8624 H 4.62998 C 1.54333,-65.5705 0,-64.1471 0,-61.3003 c 0,0.7821 0.31805,1.6424 0.95415,2.5809 0.6361,0.9385 1.86138,1.4078 3.67583,1.4078 h 2.72167 c 5.93345,0 10.17245,0.6048 12.71685,1.8144 2.5444,1.2201 3.8166,3.071 3.8166,5.5529 0,0.9593 -0.2451,1.9552 -0.7352,2.9876 -0.4797,1.0323 -1.4443,2.6069 -2.8937,4.7238 -4.6092,6.2984 -9.6667,11.9921 -15.17261,17.0809 l 0.1877,1.7206 c 0.36498,3.2639 0.62568,5.1357 0.78209,5.6154 0.15642,0.4901 1.62675,1.5537 4.41102,3.1909 4.1086,2.1794 9.4946,4.66126 16.158,7.44551 C 33.2858,-4.39535 39.7928,-2.00215 46.1434,0 L 44.6105,-7.99297 C 39.8241,-9.50501 33.948,-11.6532 26.9821,-14.4374 20.0267,-17.2216 14.7294,-19.6148 11.09,-21.617 c 4.6509,-4.6613 8.5196,-8.9628 11.6063,-12.9045 3.0866,-3.9313 6.6008,-8.7125 10.5426,-14.3435 l 0.5474,-0.8134 c 2.3567,-3.3891 4.3797,-5.5112 6.0691,-6.3662 1.6997,-0.8447 3.3994,-1.267 5.0992,-1.267 1.4495,0 2.6435,-0.3337 3.582,-1.0011 0.9385,-0.6674 1.4077,-1.6997 1.4077,-3.0971 0,-2.7842 -1.6059,-4.1711 -4.8177,-4.1607 z"
                                   style="fill:#ffffff;fill-opacity:1;fill-rule:nonzero;stroke:none"
                                   id="path148196" />
                                </g>
                                </g>
                                </g>
                                <g
                                   transform="translate(319.00025,104.73021)"
                                   id="g148210">
                                <g
                                   id="g148208">
                                <g
                                   id="g148206">
                                <path
                                   d="m 3.72275,-15.4385 c -1.68931,0 -2.93023,0.2711 -3.72275,0.8134 v 2.2681 c 1.14707,-0.2399 2.17943,-0.3598 3.09708,-0.3598 0.95936,0 2.01258,0.2086 3.15965,0.6257 1.15749,0.4275 2.00736,1.0375 2.54961,1.8301 H 8.08682 c -1.51204,0 -2.86245,0.39101 -4.05123,1.1731 -1.17835,0.79252 -1.76753,2.06472 -1.76753,3.81661 0,1.51204 0.51618,2.7686 1.54854,3.76968 C 4.84896,-0.50054 6.12117,0 7.63321,0 c 1.03236,0 2.13771,-0.4849 3.31609,-1.45469 1.1783,-0.96979 1.7675,-2.57569 1.7675,-4.81768 0,-2.96152 -0.9854,-5.22963 -2.95631,-6.80423 -1.96044,-1.5746 -3.97302,-2.3619 -6.03774,-2.3619 z m 6.36625,7.61759 0.0782,1.28263 c 0,0.90723 -0.22943,1.76753 -0.68826,2.5809 -0.4484,0.8238 -1.27741,1.2357 -2.48705,1.2357 -0.60481,0 -1.15228,-0.19813 -1.64239,-0.59439 -0.47968,-0.39625 -0.71952,-0.92808 -0.71952,-1.59546 0,-0.71952 0.39104,-1.38691 1.17313,-2.00215 0.79252,-0.60482 1.9448,-0.90723 3.45685,-0.90723 z"
                                   style="fill:#ffffff;fill-opacity:1;fill-rule:nonzero;stroke:none"
                                   id="path148204" />
                                </g>
                                </g>
                                </g>
                                <g
                                   transform="translate(288.74989,80.27373)"
                                   id="g148218">
                                <g
                                   id="g148216">
                                <g
                                   id="g148214">
                                <path
                                   d="m 47.2227,-55.8569 c -4.9012,0 -8.139,2.1168 -9.7136,6.3505 -2.3046,-4.2337 -5.9074,-6.3505 -10.8085,-6.3505 -4.7238,0 -7.6332,2.2107 -8.7282,6.6321 -2.8989,-4.4214 -7.3464,-6.6321 -13.34242,-6.6321 -1.75189,0 -2.96152,0.4379 -3.6289,1.3139 C 0.33369,-53.6671 0,-52.7442 0,-51.7744 c 0,1.1575 0.36498,2.1429 1.09493,2.9563 0.71952,0.8134 1.89787,1.22 3.53505,1.22 4.42142,0 7.58632,1.1367 9.49462,3.41 1.9083,2.2732 3.1909,5.3443 3.8478,9.213 l 5.8188,0.2815 c -0.8447,-2.6695 -1.267,-4.9741 -1.267,-6.9136 0,-4.2338 1.6633,-6.3506 4.9898,-6.3506 2.4192,0 4.3849,0.8446 5.8969,2.534 1.5225,1.6997 2.6748,4.8229 3.4569,9.3694 l 5.7249,0.2659 c -0.0626,-0.1251 -0.0939,-0.2763 -0.0939,-0.4536 -0.4275,-1.3348 -0.6413,-2.9667 -0.6413,-4.8959 0,-4.484 2.0595,-6.7312 6.1785,-6.7416 2.0022,0 3.6654,0.6517 4.9898,1.9552 1.3347,1.3035 2.0021,2.9824 2.0021,5.0367 0,1.5746 -0.318,3.4203 -0.9541,5.5372 -0.6361,2.1168 -1.3452,3.9939 -2.1273,5.631 l 6.6321,1.9083 c 1.4495,-2.8468 2.1742,-6.7833 2.1742,-11.8095 0,-5.141 -1.3191,-9.1348 -3.9574,-11.9817 -2.6278,-2.8468 -5.8187,-4.265 -9.5727,-4.2545 z m -3.8167,35.241 c -1.3347,0 -2.4244,0.438 -3.2691,1.3139 -0.8447,0.8759 -1.267,2.0699 -1.267,3.582 0,1.3347 0.4223,2.4557 1.267,3.363 0.8551,0.9072 1.95,1.3608 3.2848,1.3608 1.3973,0 2.487,-0.4588 3.2691,-1.3765 0.7821,-0.9072 1.1732,-2.0282 1.1732,-3.363 0,-2.9615 -1.486,-4.5882 -4.458,-4.8802 z m -11.9816,0 c -1.3348,0 -2.4297,0.438 -3.2848,1.3139 -0.8446,0.8759 -1.267,2.0699 -1.267,3.582 0,1.3347 0.4432,2.4557 1.3296,3.363 0.8864,0.9072 1.9657,1.3608 3.2379,1.3608 1.3243,0 2.4088,-0.4536 3.2535,-1.3608 0.8446,-0.9073 1.2669,-2.0283 1.2669,-3.363 0,-2.9615 -1.512,-4.5935 -4.5361,-4.8959 z m 6.1003,10.98054 c -1.3347,0 -2.414,0.42233 -3.2378,1.26699 -0.8134,0.85508 -1.2201,2.03865 -1.2201,3.55069 0,1.38691 0.4067,2.53397 1.2201,3.4412 C 35.1107,-0.45883 36.19,0 37.5247,0 c 2.8468,0 4.3589,-1.60589 4.5362,-4.81768 0,-2.97195 -1.5121,-4.57784 -4.5362,-4.81768 z"
                                   style="fill:#ffffff;fill-opacity:1;fill-rule:nonzero;stroke:none"
                                   id="path148212" />
                                </g>
                                </g>
                                </g>
                                </g>
                              </g>
                            </g>
                          </g>
                        </g>
                      </g>
                    </g>
                  </g>
                </g>
              </g>
            </g>
          </g>
        </g>
      </g>
    </g>
  </g>
</svg>
