<?xml version="1.0" encoding="UTF-8" standalone="no"?>
<!-- Created with Inkscape (http://www.inkscape.org/) -->

<svg
   version="1.1"
   id="svg146566"
   width="400"
   height="200"
   viewBox="0 0 400 200"
   sodipodi:docname="15311_word.pdf"
   xmlns:inkscape="http://www.inkscape.org/namespaces/inkscape"
   xmlns:sodipodi="http://sodipodi.sourceforge.net/DTD/sodipodi-0.dtd"
   xmlns="http://www.w3.org/2000/svg"
   xmlns:svg="http://www.w3.org/2000/svg">
  <defs
     id="defs146570">
    <clipPath
       clipPathUnits="userSpaceOnUse"
       id="clipPath146588">
      <path
         d="M 0,-221.45184 H 317.36737 V 221.45184 H 0 Z"
         id="path146586" />
    </clipPath>
  </defs>
  <sodipodi:namedview
     id="namedview146568"
     pagecolor="#ffffff"
     bordercolor="#000000"
     borderopacity="0.25"
     inkscape:showpageshadow="2"
     inkscape:pageopacity="0.0"
     inkscape:pagecheckerboard="0"
     inkscape:deskcolor="#d1d1d1" />
  <g
     id="g146572"
     inkscape:groupmode="layer"
     inkscape:label="15311_word54"
     transform="matrix(1.3333333,0,0,-1.3333333,0,200)">
    <g
       id="g146574">
      <g
         id="g146576">
        <g
           id="g146578"
           transform="translate(97.105,121.90895)">
          <g
             id="g146580"
             transform="matrix(0.33334,0,0,0.33334,0,-24.60617)">
            <g
               id="g146582">
              <g
                 id="g146584" />
              <g
                 id="g146624">
                <g
                   clip-path="url(#clipPath146588)"
                   id="g146622">
                  <g
                     transform="translate(0,62.33381)"
                     id="g146596">
                    <g
                       id="g146594">
                      <g
                         id="g146592">
                        <path
                           d="m 29.6177,-45.5295 1.3142,10.3888 c 1.0326,0.5842 2.5816,1.1683 4.6468,1.7524 2.0653,0.5945 3.8333,0.8918 5.304,0.8918 -5.1527,3.3899 -7.7291,7.9585 -7.7291,13.7058 0,6.0393 2.2791,10.68092 6.8373,13.92483 C 44.5595,-1.62196 49.7904,0 55.6837,0 64.2368,0 70.5004,-1.91923 74.4744,-5.75769 L 71.1575,-15.9119 c -1.9088,1.4707 -4.3026,2.6442 -7.1815,3.5204 -2.8684,0.8866 -5.7785,1.3299 -8.7304,1.3299 -3.682,0 -6.4826,-0.8449 -8.4018,-2.5347 -1.9088,-1.6897 -2.8632,-3.4942 -2.8632,-5.4134 0,-7.072 6.4826,-10.9052 19.4478,-11.4998 h 14.582 l -4.6469,-11.265 H 59.0006 c -13.1112,0 -22.9055,-1.2517 -29.3829,-3.755 z m 3.755,-164.4385 c -14.1439,0 -25.26813,3.609 -33.3727,10.827 l 3.31693,13.925 c 3.682,-2.055 7.65607,-3.635 11.92217,-4.741 4.2765,-1.105 9.7317,-1.658 16.3656,-1.658 12.5167,0 23.0464,4.089 31.589,12.266 8.5531,8.178 14.3786,18.306 17.4765,30.385 h -4.4278 c -13.2573,0 -23.5366,1.877 -30.838,5.632 -7.291,3.755 -12.4124,8.652 -15.3643,14.692 -2.9414,6.049 -4.4121,12.464 -4.4121,19.244 0,10.0133 3.3899,18.7385 10.1698,26.1755 6.7799,7.4475 14.9574,11.1712 24.5327,11.1712 4.8607,0 10.1281,-1.622 15.8024,-4.8659 5.6742,-3.2439 10.5714,-8.9911 14.6915,-17.2417 4.1305,-8.2511 6.4148,-19.8911 6.8529,-34.9221 h 16.8037 c 3.244,0 6.008,-0.771 8.292,-2.315 2.285,-1.544 3.427,-4.011 3.427,-7.401 0,-6.78 -3.907,-10.169 -11.719,-10.169 H 96.1283 c -3.536,-17.68 -11.0147,-32.267 -22.4362,-43.762 -11.4111,-11.495 -24.8509,-17.242 -40.3194,-17.242 z m 49.5035,80.889 c -0.5945,13.122 -3.2491,23.104 -7.9637,29.9467 -4.7146,6.8529 -10.5349,10.2793 -17.4608,10.2793 -5.2988,0 -9.5701,-1.914 -12.814,-5.742 -3.2439,-3.828 -4.8659,-8.026 -4.8659,-12.595 0,-3.39 0.9231,-6.78 2.7694,-10.17 1.8462,-3.39 5.6012,-6.19 11.265,-8.402 5.6742,-2.211 14.2586,-3.317 25.7531,-3.317 z"
                           style="fill:#f81436;fill-opacity:1;fill-rule:nonzero;stroke:none"
                           id="path146590" />
                      </g>
                    </g>
                  </g>
                  <g
                     transform="translate(102.99498,73.81789)"
                     id="g146604">
                    <g
                       id="g146602">
                      <g
                         id="g146600">
                        <path
                           d="m 11.265,-160.449 c -4.42253,0 -7.40568,1.143 -8.94941,3.427 C 0.77186,-154.738 0,-152.417 0,-150.06 c 0,1.92 0.84488,4.016 2.53463,6.29 1.68976,2.284 4.59989,3.426 8.73037,3.426 8.1046,0 14.4047,2.102 18.9003,6.306 4.4955,4.203 6.7433,10.722 6.7433,19.557 L 31.6047,-1.31425 48.1737,0 53.4776,-116.249 c 0,-14.582 -3.609,-25.597 -10.8269,-33.044 -7.218,-7.437 -17.6799,-11.156 -31.3857,-11.156 z"
                           style="fill:#000000;fill-opacity:1;fill-rule:nonzero;stroke:none"
                           id="path146598" />
                      </g>
                    </g>
                  </g>
                  <g
                     transform="translate(160.89476,62.33381)"
                     id="g146612">
                    <g
                       id="g146610">
                      <g
                         id="g146608">
                        <path
                           d="m 29.6177,-45.5295 1.3142,10.3888 c 1.0326,0.5842 2.5816,1.1683 4.6468,1.7524 2.0653,0.5945 3.8333,0.8918 5.304,0.8918 -5.1527,3.3899 -7.7291,7.9585 -7.7291,13.7058 0,6.0393 2.2791,10.68092 6.8373,13.92483 C 44.5595,-1.62196 49.7904,0 55.6837,0 64.2368,0 70.5004,-1.91923 74.4744,-5.75769 L 71.1575,-15.9119 c -1.9088,1.4707 -4.3026,2.6442 -7.1815,3.5204 -2.8684,0.8866 -5.7785,1.3299 -8.7304,1.3299 -3.682,0 -6.4826,-0.8449 -8.4018,-2.5347 -1.9088,-1.6897 -2.8632,-3.4942 -2.8632,-5.4134 0,-7.072 6.4826,-10.9052 19.4478,-11.4998 h 14.582 l -4.6469,-11.265 H 59.0006 c -13.1112,0 -22.9055,-1.2517 -29.3829,-3.755 z m 3.755,-164.4385 c -14.1439,0 -25.26813,3.609 -33.3727,10.827 l 3.31693,13.925 c 3.682,-2.055 7.65607,-3.635 11.92217,-4.741 4.2765,-1.105 9.7317,-1.658 16.3656,-1.658 12.5167,0 23.0464,4.089 31.589,12.266 8.5531,8.178 14.3786,18.306 17.4765,30.385 h -4.4278 c -13.2573,0 -23.5366,1.877 -30.838,5.632 -7.291,3.755 -12.4124,8.652 -15.3643,14.692 -2.9414,6.049 -4.4121,12.464 -4.4121,19.244 0,10.0133 3.3899,18.7385 10.1698,26.1755 6.7799,7.4475 14.9574,11.1712 24.5327,11.1712 4.8607,0 10.1281,-1.622 15.8024,-4.8659 5.6742,-3.2439 10.5714,-8.9911 14.6915,-17.2417 4.1305,-8.2511 6.4148,-19.8911 6.8529,-34.9221 h 16.8037 c 3.244,0 6.008,-0.771 8.292,-2.315 2.285,-1.544 3.427,-4.011 3.427,-7.401 0,-6.78 -3.907,-10.169 -11.719,-10.169 H 96.1283 c -3.536,-17.68 -11.0147,-32.267 -22.4362,-43.762 -11.4111,-11.495 -24.8509,-17.242 -40.3194,-17.242 z m 49.5035,80.889 c -0.5945,13.122 -3.2491,23.104 -7.9637,29.9467 -4.7146,6.8529 -10.5349,10.2793 -17.4608,10.2793 -5.2988,0 -9.5701,-1.914 -12.814,-5.742 -3.2439,-3.828 -4.8659,-8.026 -4.8659,-12.595 0,-3.39 0.9231,-6.78 2.7694,-10.17 1.8462,-3.39 5.6012,-6.19 11.265,-8.402 5.6742,-2.211 14.2586,-3.317 25.7531,-3.317 z"
                           style="fill:#f81436;fill-opacity:1;fill-rule:nonzero;stroke:none"
                           id="path146606" />
                      </g>
                    </g>
                  </g>
                  <g
                     transform="translate(263.88974,73.81789)"
                     id="g146620">
                    <g
                       id="g146618">
                      <g
                         id="g146616">
                        <path
                           d="m 11.265,-160.449 c -4.42253,0 -7.40568,1.143 -8.94941,3.427 C 0.77186,-154.738 0,-152.417 0,-150.06 c 0,1.92 0.84488,4.016 2.53463,6.29 1.68976,2.284 4.59989,3.426 8.73037,3.426 8.1046,0 14.4047,2.102 18.9003,6.306 4.4955,4.203 6.7433,10.722 6.7433,19.557 L 31.6047,-1.31425 48.1737,0 53.4776,-116.249 c 0,-14.582 -3.609,-25.597 -10.8269,-33.044 -7.218,-7.437 -17.6799,-11.156 -31.3857,-11.156 z"
                           style="fill:#000000;fill-opacity:1;fill-rule:nonzero;stroke:none"
                           id="path146614" />
                      </g>
                    </g>
                  </g>
                </g>
              </g>
            </g>
          </g>
        </g>
      </g>
    </g>
  </g>
</svg>
