<?xml version="1.0" encoding="UTF-8" standalone="no"?>
<!-- Created with Inkscape (http://www.inkscape.org/) -->

<svg
   version="1.1"
   id="svg150880"
   width="400"
   height="200"
   viewBox="0 0 400 200"
   sodipodi:docname="15315_word.pdf"
   xmlns:inkscape="http://www.inkscape.org/namespaces/inkscape"
   xmlns:sodipodi="http://sodipodi.sourceforge.net/DTD/sodipodi-0.dtd"
   xmlns="http://www.w3.org/2000/svg"
   xmlns:svg="http://www.w3.org/2000/svg">
  <defs
     id="defs150884">
    <clipPath
       clipPathUnits="userSpaceOnUse"
       id="clipPath150902">
      <path
         d="M 0,-225.64494 H 340.61915 V 225.64494 H 0 Z"
         id="path150900" />
    </clipPath>
  </defs>
  <sodipodi:namedview
     id="namedview150882"
     pagecolor="#ffffff"
     bordercolor="#000000"
     borderopacity="0.25"
     inkscape:showpageshadow="2"
     inkscape:pageopacity="0.0"
     inkscape:pagecheckerboard="0"
     inkscape:deskcolor="#d1d1d1" />
  <g
     id="g150886"
     inkscape:groupmode="layer"
     inkscape:label="15315_word62"
     transform="matrix(1.3333333,0,0,-1.3333333,0,200)">
    <g
       id="g150888">
      <g
         id="g150890">
        <g
           id="g150892"
           transform="translate(93.23,141.60758)">
          <g
             id="g150894"
             transform="matrix(0.33333,0,0,0.33333,0,-25.07178)">
            <g
               id="g150896">
              <g
                 id="g150898" />
              <g
                 id="g150938">
                <g
                   clip-path="url(#clipPath150902)"
                   id="g150936">
                  <g
                     transform="translate(0,69.82209)"
                     id="g150910">
                    <g
                       id="g150908">
                      <g
                         id="g150906">
                        <path
                           d="M 1.54894,-35.125 0,-27.834 c 13.8518,4.2661 25.7844,8.5374 35.7978,12.814 l 1.3299,-7.9638 C 25.1951,-27.8445 13.3355,-31.8915 1.54894,-35.125 Z m 0,15.02 L 0,-12.814 C 13.8518,-8.53744 25.7844,-4.26611 35.7978,0 l 1.3299,-7.94811 C 25.1951,-12.8088 13.3355,-16.861 1.54894,-20.105 Z"
                           style="fill:#f81436;fill-opacity:1;fill-rule:nonzero;stroke:none"
                           id="path150904" />
                      </g>
                    </g>
                  </g>
                  <g
                     transform="translate(19.13905,15.10368)"
                     id="g150918">
                    <g
                       id="g150916">
                      <g
                         id="g150914">
                        <path
                           d="m 19.0097,-165.533 h -4.6468 l -5.96106,15.035 c 22.83256,1.617 42.64546,7.583 59.43876,17.899 -0.5842,3.244 -2.5347,7.698 -5.8516,13.362 -3.3169,5.674 -8.6574,13.888 -16.0214,24.642 C 29.7585,-71.0115 14.4359,-51.1933 0,-35.1407 l 14.801,13.0487 c 11.0564,-13.7058 23.5836,-30.6503 37.5814,-50.8335 18.118,-26.671 27.4742,-43.8395 28.0687,-51.5065 3.682,2.514 7.0668,6.937 10.1542,13.268 3.0979,6.331 4.6468,14.3629 4.6468,24.0947 L 92.3733,-1.31425 108.958,0 l 3.317,-91.2781 c 0.438,-19.1509 2.461,-32.1519 6.07,-39.0049 3.609,-6.853 10.129,-10.28 19.558,-10.28 3.39,0 6.227,-0.771 8.511,-2.315 2.284,-1.544 3.427,-4.011 3.427,-7.401 0,-6.78 -3.98,-10.17 -11.938,-10.17 -10.316,0 -18.9,2.723 -25.753,8.168 -6.843,5.455 -11.516,15.108 -14.019,28.96 -6.6339,-14.144 -17.5756,-24.715 -32.8251,-31.714 -15.2495,-6.999 -30.6816,-10.498 -46.2962,-10.498 z"
                           style="fill:#f81436;fill-opacity:1;fill-rule:nonzero;stroke:none"
                           id="path150912" />
                      </g>
                    </g>
                  </g>
                  <g
                     transform="translate(145.95507,-28.8769)"
                     id="g150926">
                    <g
                       id="g150924">
                      <g
                         id="g150922">
                        <path
                           d="m 97.2392,-118.455 c -12.5272,0 -24.5328,3.239 -36.0169,9.716 -12.6731,-5.153 -28.512,-7.729 -47.5165,-7.729 H 10.827 c -7.21802,0 -10.827,3.39 -10.827,10.17 0,1.909 0.73536,4.042 2.20607,6.399 1.47071,2.3573 4.34434,3.536 8.62093,3.536 12.9652,0 23.9434,0.6676 32.9345,2.0027 -8.1045,8.9807 -12.1568,18.848 -12.1568,29.602 0,9.8778 2.9831,18.5717 8.9494,26.0817 5.9663,7.5204 13.2938,13.1947 21.9825,17.0227 l -9.7161,7.51 L 62.3176,0 72.2683,-6.8529 c 9.5753,-6.4774 19.0776,-13.2521 28.5067,-20.324 11.349,-8.1046 20.668,-16.6889 27.959,-25.7531 7.291,-9.0642 10.937,-18.9003 10.937,-29.5082 -0.146,-10.7539 -4.125,-19.4478 -11.938,-26.0818 -7.802,-6.623 -17.967,-9.935 -30.4938,-9.935 z m -34.4679,29.1639 c 15.6146,6.6339 23.4219,18.3474 23.4219,35.1407 0,5.0171 -0.8501,9.1059 -2.5503,12.2664 -1.6898,3.1709 -3.6403,5.5282 -5.8516,7.0719 -2.2113,1.5542 -4.1253,2.3312 -5.742,2.3312 -2.8058,0 -6.2323,-1.1421 -10.2794,-3.4264 -4.047,-2.2843 -7.6195,-5.6377 -10.7174,-10.0603 -3.0979,-4.4226 -4.6468,-9.8726 -4.6468,-16.35 0,-10.4618 5.4552,-19.453 16.3656,-26.9735 z M 98.131,-100.118 c 9.127,0 15.974,1.5854 20.543,4.7563 4.569,3.1709 6.853,7.4788 6.853,12.9235 0,11.6406 -8.767,24.2407 -26.3008,37.8005 1.0328,-3.9845 1.5488,-8.2558 1.5488,-12.814 0,-16.0631 -6.6285,-29.4716 -19.8858,-40.2256 6.0393,-1.6271 11.7866,-2.4407 17.2418,-2.4407 z"
                           style="fill:#000000;fill-opacity:1;fill-rule:nonzero;stroke:none"
                           id="path150920" />
                      </g>
                    </g>
                  </g>
                  <g
                     transform="translate(292.21079,75.21517)"
                     id="g150934">
                    <g
                       id="g150932">
                      <g
                         id="g150930">
                        <path
                           d="m 40.2256,-220.56 h -16.569 l -6.1958,159.1343 16.5846,1.3142 z M 0,-45.5139 1.3299,-35.1407 c 1.03263,0.5946 2.57636,1.1839 4.63118,1.768 2.06526,0.5946 3.91147,0.8918 5.53862,0.8918 -5.30915,3.39 -7.96373,7.9586 -7.96373,13.7058 0,6.0394 2.2843,10.67575 6.85293,13.90923 C 14.9575,-1.62196 20.1884,0 26.0817,0 34.7704,0 41.107,-1.91401 45.0914,-5.74204 L 41.5555,-15.9119 c -4.5686,3.2439 -9.8726,4.8659 -15.9119,4.8659 -3.682,0 -6.4826,-0.8501 -8.4018,-2.5503 -1.9193,-1.6897 -2.8789,-3.489 -2.8789,-5.3978 0,-7.0719 6.4826,-10.9052 19.4479,-11.4997 H 48.4084 L 43.9806,-41.7589 H 29.6177 c -13.1113,0 -22.98385,-1.2516 -29.6177,-3.755 z"
                           style="fill:#000000;fill-opacity:1;fill-rule:nonzero;stroke:none"
                           id="path150928" />
                      </g>
                    </g>
                  </g>
                </g>
              </g>
            </g>
          </g>
        </g>
      </g>
    </g>
  </g>
</svg>
