<?xml version="1.0" encoding="UTF-8" standalone="no"?>
<!-- Created with Inkscape (http://www.inkscape.org/) -->

<svg
   version="1.1"
   id="svg148510"
   width="400"
   height="400"
   viewBox="0 0 400 400"
   sodipodi:docname="15314_pic.pdf"
   xmlns:inkscape="http://www.inkscape.org/namespaces/inkscape"
   xmlns:sodipodi="http://sodipodi.sourceforge.net/DTD/sodipodi-0.dtd"
   xmlns="http://www.w3.org/2000/svg"
   xmlns:svg="http://www.w3.org/2000/svg">
  <defs
     id="defs148514">
    <clipPath
       clipPathUnits="userSpaceOnUse"
       id="clipPath148530">
      <path
         d="M 0,0 H 216.4526 V -164.26811 H 0 Z"
         clip-rule="evenodd"
         id="path148528" />
    </clipPath>
    <clipPath
       clipPathUnits="userSpaceOnUse"
       id="clipPath148540">
      <path
         d="M 0,-492.8047 H 649.3583 V 492.8047 H 0 Z"
         id="path148538" />
    </clipPath>
    <clipPath
       clipPathUnits="userSpaceOnUse"
       id="clipPath148544">
      <path
         d="M 0,0 H 649.358 V -492.805 H 0 Z"
         clip-rule="evenodd"
         id="path148542" />
    </clipPath>
    <clipPath
       clipPathUnits="userSpaceOnUse"
       id="clipPath148548">
      <path
         d="M 0,-492.8047 H 649.3583 V 492.8047 H 0 Z"
         id="path148546" />
    </clipPath>
    <clipPath
       clipPathUnits="userSpaceOnUse"
       id="clipPath148552">
      <path
         d="m 0,-434.0085 h 327.30221 v 868.017 H 0 Z"
         id="path148550" />
    </clipPath>
  </defs>
  <sodipodi:namedview
     id="namedview148512"
     pagecolor="#ffffff"
     bordercolor="#000000"
     borderopacity="0.25"
     inkscape:showpageshadow="2"
     inkscape:pageopacity="0.0"
     inkscape:pagecheckerboard="0"
     inkscape:deskcolor="#d1d1d1" />
  <g
     id="g148516"
     inkscape:groupmode="layer"
     inkscape:label="15314_pic59"
     transform="matrix(1.3333333,0,0,-1.3333333,0,400)">
    <g
       id="g148518">
      <g
         id="g148520">
        <g
           id="g148522"
           transform="translate(41.7737,232.13405)">
          <g
             id="g148524">
            <g
               id="g148526"
               clip-path="url(#clipPath148530)">
              <g
                 id="g148532"
                 transform="matrix(0.33333,0,0,0.33333,0,-54.75599)">
                <g
                   id="g148534">
                  <g
                     id="g148536" />
                  <g
                     id="g148916">
                    <g
                       clip-path="url(#clipPath148540)"
                       id="g148914">
                      <g
                         transform="translate(0,164.26811)"
                         id="g148762">
                        <g
                           id="g148760">
                          <g
                             id="g148758">
                            <g
                               clip-path="url(#clipPath148544)"
                               id="g148756">
                              <g
                                 transform="translate(0,-492.8047)"
                                 id="g148754">
                                <g
                                   id="g148752">
                                <g
                                   id="g148554" />
                                <g
                                   id="g148750">
                                <g
                                   clip-path="url(#clipPath148548)"
                                   id="g148748">
                                <g
                                   transform="translate(1.7086,174.2435)"
                                   id="g148562">
                                <g
                                   id="g148560">
                                <g
                                   id="g148558">
                                <path
                                   d="m 392.559,-43.2658 c -0.053,11.4868 -3.654,22.3017 -10.157,30.4833 C 375.921,-4.627 367.36,-0.09425 358.266,0 H 34.2935 C 25.2001,-0.09425 16.6363,-4.627 10.155,-12.7825 3.606,-21.0255 0,-31.9415 0,-43.5245 V -100.54 c 0,-11.584 3.606,-22.5 10.155,-30.745 6.55,-8.242 15.227,-12.784 24.428,-12.784 h 301.434 c 8.394,-10.86 24.685,-22.483 41.973,-29.87 0.475,-0.201 0.962,-0.305 1.455,-0.305 1.526,0 2.975,1.018 3.778,2.663 0.787,1.616 0.853,3.598 0.167,5.302 -3.5,8.719 -6.073,18.276 -7.652,28.439 10.365,7.844 16.75,21.813 16.821,37.043 z"
                                   style="mix-blend-mode:multiply;fill:#d1d1d1;fill-opacity:1;fill-rule:nonzero;stroke:none"
                                   id="path148556" />
                                </g>
                                </g>
                                </g>
                                <g
                                   transform="translate(0,177.469)"
                                   id="g148570">
                                <g
                                   id="g148568">
                                <g
                                   id="g148566">
                                <path
                                   d="M 32.0219,0 H 355.417 c 17.609,0 32.022,-18.138 32.022,-40.304 v -57.012 c 0,-15.402 -6.96,-28.848 -17.113,-35.628 0.604,-15.897 5.702,-25.3 8.216,-31.566 0.737,-1.836 -0.715,-3.826 -2.289,-3.153 -17.336,7.408 -28.914,19.339 -36.717,30.045 H 32.0219 c -17.5842,0 -31.97815,18.079 -32.0219,40.2009 v 57.2142 C 0.04375,-18.0829 14.4377,0 32.0219,0 Z"
                                   style="fill:#eaeaea;fill-opacity:1;fill-rule:nonzero;stroke:none"
                                   id="path148564" />
                                </g>
                                </g>
                                </g>
                                <g
                                   transform="translate(34.0714,151.0217)"
                                   id="g148578">
                                <g
                                   id="g148576">
                                <g
                                   id="g148574">
                                <path
                                   d="m 84.644,-22.765 c 0,0.064 0.005,0.125 0.005,0.188 C 84.649,-10.789 75.503,0 61.75,0 50.823,0 44.486,-7.321 42.324,-14.17 40.162,-7.321 33.827,0 22.897,0 9.146,0 0,-10.789 0,-22.577 0,-22.64 0.003,-22.701 0.006,-22.765 -0.068,-25.33 0,-51.417 42.31,-72.684 v -0.006 c 0.003,0 0.006,0.003 0.008,0.003 0.003,0 0.003,-0.003 0.006,-0.003 0.002,0 0.005,0.003 0.007,0.003 0,0 0.003,-0.003 0.006,-0.003 v 0.006 c 42.312,21.267 42.381,47.354 42.307,49.919 z"
                                   style="fill:#ff4141;fill-opacity:1;fill-rule:nonzero;stroke:none"
                                   id="path148572" />
                                </g>
                                </g>
                                </g>
                                <g
                                   transform="translate(61.1479,137.7817)"
                                   id="g148586">
                                <g
                                   id="g148584">
                                <g
                                   id="g148582">
                                <path
                                   d="m 15.261,-59.449 v 0.005 c 42.313,21.265 42.381,47.355 42.307,49.919 0,0.064 0.006,0.128 0.006,0.189 0,3.259 -0.703,6.438 -2.006,9.336 C 51.813,-35.672 15.248,-46.951 0,-50.422 c 4.345,-3.05 9.384,-6.083 15.235,-9.022 v -0.005 c 0.002,0 0.005,0.003 0.007,0.003 0.003,0 0.003,-0.003 0.006,-0.003 0.002,0 0.005,0.003 0.008,0.003 0,0 0.002,-0.003 0.005,-0.003 z"
                                   style="fill:#f73131;fill-opacity:1;fill-rule:nonzero;stroke:none"
                                   id="path148580" />
                                </g>
                                </g>
                                </g>
                                <g
                                   transform="translate(36.03106,149.4032)"
                                   id="g148594">
                                <g
                                   id="g148592">
                                <g
                                   id="g148590">
                                <path
                                   d="m 4e-5,-23.84 c 0,0 -0.178,22.017 22.08096,23.84 0,0 -13.71096,-4.864 -22.08096,-23.84 z"
                                   style="fill:#ff6060;fill-opacity:1;fill-rule:nonzero;stroke:none"
                                   id="path148588" />
                                </g>
                                </g>
                                </g>
                                <g
                                   transform="translate(256.495,333.2135)"
                                   id="g148602">
                                <g
                                   id="g148600">
                                <g
                                   id="g148598">
                                <path
                                   d="m 0,-43.3129 c 0.04349,11.5023 3.63237,22.3376 10.1206,30.5304 C 16.5781,-4.627 25.1074,-0.09425 34.17,0 h 322.82 c 9.063,-0.09425 17.595,-4.627 24.05,-12.7825 6.427,-8.115 10.011,-18.8224 10.121,-30.2028 v -58.0937 c -0.11,-11.383 -3.694,-22.089 -10.121,-30.206 -6.523,-8.242 -15.168,-12.784 -24.338,-12.784 H 56.3416 c -8.365,-10.86 -24.598,-22.483 -41.825,-29.87 -0.472,-0.201 -0.957,-0.305 -1.447,-0.305 -1.524,0 -2.967,1.018 -3.765,2.663 -0.787,1.616 -0.85,3.598 -0.17,5.302 3.492,8.719 6.052,18.276 7.626,28.439 C 6.42211,-129.988 0.05801,-115.998 0,-100.75 Z"
                                   style="mix-blend-mode:multiply;fill:#d1d1d1;fill-opacity:1;fill-rule:nonzero;stroke:none"
                                   id="path148596" />
                                </g>
                                </g>
                                </g>
                                <g
                                   transform="translate(263.3023,336.4391)"
                                   id="g148610">
                                <g
                                   id="g148608">
                                <g
                                   id="g148606">
                                <path
                                   d="M 354.148,0 H 31.908 C 14.358,0 0,-18.136 0,-40.302 v -57.014 c 0,-15.402 6.934,-28.848 17.049,-35.628 -0.601,-15.897 -5.68,-25.3 -8.186,-31.566 -0.737,-1.836 0.715,-3.826 2.281,-3.153 17.274,7.408 28.81,19.339 36.587,30.045 h 306.417 c 17.55,0 31.908,18.134 31.908,40.302 v 57.014 C 386.056,-18.136 371.698,0 354.148,0 Z"
                                   style="fill:#0279be;fill-opacity:1;fill-rule:nonzero;stroke:none"
                                   id="path148604" />
                                </g>
                                </g>
                                </g>
                                <g
                                   transform="translate(523.2997,312.2018)"
                                   id="g148618">
                                <g
                                   id="g148616">
                                <g
                                   id="g148614">
                                <path
                                   d="M 0,-45.805 C 0,-20.508 20.505,0 45.802,0 71.099,0 91.606,-20.508 91.606,-45.805 91.606,-71.1 71.099,-91.61 45.802,-91.61 20.505,-91.61 0,-71.1 0,-45.805 Z"
                                   style="fill:#ffd053;fill-opacity:1;fill-rule:nonzero;stroke:none"
                                   id="path148612" />
                                </g>
                                </g>
                                </g>
                                <g
                                   transform="translate(530.5064,305.49)"
                                   id="g148626">
                                <g
                                   id="g148624">
                                <g
                                   id="g148622">
                                <path
                                   d="m 62.56,0 c 4.562,-7.122 7.207,-15.587 7.207,-24.672 0,-25.298 -20.51,-45.802 -45.805,-45.802 -8.786,0 -16.991,2.472 -23.962,6.764 8.139,-12.71 22.383,-21.132 38.595,-21.132 25.298,0 45.805,20.507 45.805,45.804 C 84.4,-22.529 75.662,-8.06 62.56,0 Z"
                                   style="fill:#ffc448;fill-opacity:1;fill-rule:nonzero;stroke:none"
                                   id="path148620" />
                                </g>
                                </g>
                                </g>
                                <g
                                   transform="translate(526.359,308.8189)"
                                   id="g148634">
                                <g
                                   id="g148632">
                                <g
                                   id="g148630">
                                <path
                                   d="m 3.166,-47.254 c 0,23.485 19.039,42.524 42.524,42.524 13.727,0 25.936,-6.507 33.71,-16.601 C 72.058,-8.582 58.294,0 42.524,0 19.039,0 0,-19.04 0,-42.527 0,-52.283 3.288,-61.272 8.817,-68.45 5.219,-62.21 3.166,-54.972 3.166,-47.254 Z"
                                   style="fill:#ffd77a;fill-opacity:1;fill-rule:nonzero;stroke:none"
                                   id="path148628" />
                                </g>
                                </g>
                                </g>
                                <g
                                   transform="translate(547.74992,262.11913)"
                                   id="g148642">
                                <g
                                   id="g148640">
                                <g
                                   id="g148638">
                                <path
                                   d="m 2.57788,-0.44313 c -1.179,1.147 -3.071,-0.122 -2.459,-1.651 3.386,-8.45197 11.65302,-14.42597 21.31602,-14.42597 9.503,0 17.656,5.773 21.143,14.00797 0.635,1.502 -1.27,2.8 -2.441,1.666 -6.703,-6.499 -20.933,-15.74797 -37.55902,0.403 z"
                                   style="fill:#654735;fill-opacity:1;fill-rule:nonzero;stroke:none"
                                   id="path148636" />
                                </g>
                                </g>
                                </g>
                                <g
                                   transform="translate(580.82526,278.2938)"
                                   id="g148650">
                                <g
                                   id="g148648">
                                <g
                                   id="g148646">
                                <path
                                   d="m 0.10114,-1.876 c 1.296,-3.24 4.387,-5.333 7.88,-5.333 3.41496,0 6.48296,2.032 7.81596,5.177 0.254,0.601 0.053,1.282 -0.491,1.653 -0.54,0.371 -1.245,0.313 -1.716,-0.143 -2.541,-2.464 -6.56096,-4.443 -11.26896,0.132 -0.267,0.26 -0.609,0.39 -0.951,0.39 -0.265,0 -0.53,-0.077 -0.766,-0.233 -0.538,-0.363 -0.747,-1.036 -0.503,-1.643 z"
                                   style="fill:#2c2c2c;fill-opacity:1;fill-rule:nonzero;stroke:none"
                                   id="path148644" />
                                </g>
                                </g>
                                </g>
                                <g
                                   transform="translate(541.47356,278.2938)"
                                   id="g148658">
                                <g
                                   id="g148656">
                                <g
                                   id="g148654">
                                <path
                                   d="m 0.10114,-1.876 c 1.296,-3.24 4.387,-5.333 7.88,-5.333 3.41496,0 6.47996,2.032 7.81296,5.177 0.257,0.601 0.056,1.282 -0.485,1.65 -0.543,0.374 -1.248,0.316 -1.719,-0.14 -2.541,-2.464 -6.56096,-4.443 -11.26896,0.132 -0.267,0.26 -0.609,0.39 -0.951,0.39 -0.265,0 -0.53,-0.077 -0.766,-0.233 -0.538,-0.363 -0.747,-1.036 -0.503,-1.643 z"
                                   style="fill:#2c2c2c;fill-opacity:1;fill-rule:nonzero;stroke:none"
                                   id="path148652" />
                                </g>
                                </g>
                                </g>
                                <g
                                   transform="translate(527.4296,268.0173)"
                                   id="g148666">
                                <g
                                   id="g148664">
                                <g
                                   id="g148662">
                                <path
                                   d="m 15.995,-7.996 c 0,-4.417 -3.582,-7.996 -7.999,-7.996 C 3.579,-15.992 0,-12.413 0,-7.996 0,-3.579 3.579,0 7.996,0 c 4.417,0 7.999,-3.579 7.999,-7.996 z"
                                   style="fill:#ffa6ad;fill-opacity:1;fill-rule:nonzero;stroke:none"
                                   id="path148660" />
                                </g>
                                </g>
                                </g>
                                <g
                                   transform="translate(594.7796,268.0173)"
                                   id="g148674">
                                <g
                                   id="g148672">
                                <g
                                   id="g148670">
                                <path
                                   d="m 15.995,-7.996 c 0,-4.417 -3.582,-7.996 -7.999,-7.996 C 3.579,-15.992 0,-12.413 0,-7.996 0,-3.579 3.579,0 7.996,0 c 4.417,0 7.999,-3.579 7.999,-7.996 z"
                                   style="fill:#ffa6ad;fill-opacity:1;fill-rule:nonzero;stroke:none"
                                   id="path148668" />
                                </g>
                                </g>
                                </g>
                                <g
                                   transform="translate(3.554,489.5795)"
                                   id="g148682">
                                <g
                                   id="g148680">
                                <g
                                   id="g148678">
                                <path
                                   d="m 392.407,-100.539 v 57.0154 c 0,11.581 -4.541,22.499 -12.784,30.744 C 371.487,-4.64608 360.751,-0.11882 349.339,0 H 43.0647 C 31.6553,-0.11882 20.9173,-4.64608 12.7838,-12.7796 4.5704,-20.993 0.03465,-31.8589 0,-43.3905 v -57.2815 c 0.03465,-11.534 4.5704,-22.398 12.7838,-30.612 8.243,-8.242 19.161,-12.781 30.742,-12.781 H 321.244 c 10.564,-10.863 31.068,-22.486 52.826,-29.873 0.57,-0.192 1.157,-0.295 1.749,-0.304 h 0.162 c 1.891,0.028 3.677,1.042 4.673,2.662 0.993,1.616 1.076,3.598 0.214,5.302 -4.411,8.719 -7.643,18.276 -9.631,28.439 13.118,7.888 21.17,21.97 21.17,37.3 z"
                                   style="mix-blend-mode:multiply;fill:#d1d1d1;fill-opacity:1;fill-rule:nonzero;stroke:none"
                                   id="path148676" />
                                </g>
                                </g>
                                </g>
                                <g
                                   transform="translate(1.4049,492.8047)"
                                   id="g148690">
                                <g
                                   id="g148688">
                                <g
                                   id="g148686">
                                <path
                                   d="m 385.958,-97.316 v 57.015 C 385.958,-18.136 367.822,0 345.656,0 H 40.302 C 18.136,0 0,-18.136 0,-40.301 v -57.015 c 0,-22.166 18.136,-40.302 40.302,-40.302 h 285.369 c 9.819,-10.706 24.392,-22.637 46.213,-30.045 1.979,-0.67 3.81,1.32 2.88,3.156 -3.166,6.266 -9.581,15.669 -10.341,31.566 12.776,6.777 21.535,20.226 21.535,35.625 z"
                                   style="fill:#eaeaea;fill-opacity:1;fill-rule:nonzero;stroke:none"
                                   id="path148684" />
                                </g>
                                </g>
                                </g>
                                <g
                                   transform="translate(51.9644,471.7962)"
                                   id="g148698">
                                <g
                                   id="g148696">
                                <g
                                   id="g148694">
                                <path
                                   d="M 0,-45.802 C 0,-20.507 20.507,0 45.805,0 71.099,0 91.606,-20.507 91.606,-45.802 91.606,-71.099 71.099,-91.607 45.805,-91.607 20.507,-91.607 0,-71.099 0,-45.802 Z"
                                   style="fill:#ffd053;fill-opacity:1;fill-rule:nonzero;stroke:none"
                                   id="path148692" />
                                </g>
                                </g>
                                </g>
                                <g
                                   transform="translate(59.171,465.0873)"
                                   id="g148706">
                                <g
                                   id="g148704">
                                <g
                                   id="g148702">
                                <path
                                   d="m 62.56,0 c 4.562,-7.122 7.207,-15.587 7.207,-24.672 0,-25.295 -20.507,-45.805 -45.805,-45.805 -8.786,0 -16.991,2.478 -23.962,6.767 8.139,-12.71 22.383,-21.132 38.598,-21.132 25.295,0 45.802,20.507 45.802,45.802 0,16.511 -8.738,30.98 -21.84,39.04 z"
                                   style="fill:#ffc448;fill-opacity:1;fill-rule:nonzero;stroke:none"
                                   id="path148700" />
                                </g>
                                </g>
                                </g>
                                <g
                                   transform="translate(55.0236,468.415)"
                                   id="g148714">
                                <g
                                   id="g148712">
                                <g
                                   id="g148710">
                                <path
                                   d="m 3.166,-47.254 c 0,23.488 19.039,42.527 42.524,42.527 13.728,0 25.936,-6.507 33.71,-16.604 C 72.058,-8.582 58.294,0 42.524,0 19.039,0 0,-19.04 0,-42.525 0,-52.283 3.291,-61.272 8.817,-68.45 5.222,-62.21 3.166,-54.972 3.166,-47.254 Z"
                                   style="fill:#ffd77a;fill-opacity:1;fill-rule:nonzero;stroke:none"
                                   id="path148708" />
                                </g>
                                </g>
                                </g>
                                <g
                                   transform="translate(77.5171,442.7939)"
                                   id="g148722">
                                <g
                                   id="g148720">
                                <g
                                   id="g148718">
                                <path
                                   d="m 6.751,-5.688 c 0,-3.142 -1.51,-5.688 -3.375,-5.688 C 1.51,-11.376 0,-8.83 0,-5.688 0,-2.546 1.51,0 3.376,0 5.241,0 6.751,-2.546 6.751,-5.688 Z"
                                   style="fill:#2c2c2c;fill-opacity:1;fill-rule:nonzero;stroke:none"
                                   id="path148716" />
                                </g>
                                </g>
                                </g>
                                <g
                                   transform="translate(111.2659,442.7939)"
                                   id="g148730">
                                <g
                                   id="g148728">
                                <g
                                   id="g148726">
                                <path
                                   d="m 6.751,-5.688 c 0,-3.142 -1.51,-5.688 -3.375,-5.688 C 1.51,-11.376 0,-8.83 0,-5.688 0,-2.546 1.51,0 3.376,0 5.241,0 6.751,-2.546 6.751,-5.688 Z"
                                   style="fill:#2c2c2c;fill-opacity:1;fill-rule:nonzero;stroke:none"
                                   id="path148724" />
                                </g>
                                </g>
                                </g>
                                <g
                                   transform="translate(66.9894,421.6615)"
                                   id="g148738">
                                <g
                                   id="g148736">
                                <g
                                   id="g148734">
                                <path
                                   d="M 0,0 C 1.746,-15.457 14.856,-27.47 30.779,-27.47 46.7,-27.47 59.812,-15.457 61.556,0 Z"
                                   style="fill:#71523f;fill-opacity:1;fill-rule:nonzero;stroke:none"
                                   id="path148732" />
                                </g>
                                </g>
                                </g>
                                <g
                                   transform="translate(76.5072,407.15897)"
                                   id="g148746">
                                <g
                                   id="g148744">
                                <g
                                   id="g148742">
                                <path
                                   d="m 0,-4.50817 c 5.548,-5.241 13.025,-8.46003 21.26,-8.46003 7.882,0 15.067,2.946 20.533,7.79203 l -0.283,0.665 C 20.841,5.56783 0.281,-4.37017 0,-4.50817 Z"
                                   style="fill:#ff6669;fill-opacity:1;fill-rule:nonzero;stroke:none"
                                   id="path148740" />
                                </g>
                                </g>
                                </g>
                                </g>
                                </g>
                                </g>
                              </g>
                            </g>
                          </g>
                        </g>
                      </g>
                      <g
                         transform="translate(165.4841,149.30978)"
                         id="g148912">
                        <g
                           id="g148910">
                          <g
                             transform="translate(0,-434.0085)"
                             id="g148908">
                            <g
                               id="g148906">
                              <g
                                 id="g148764" />
                              <g
                                 id="g148904">
                                <g
                                   clip-path="url(#clipPath148552)"
                                   id="g148902">
                                <g
                                   transform="translate(0,383.50087)"
                                   id="g148772">
                                <g
                                   id="g148770">
                                <g
                                   id="g148768">
                                <path
                                   d="M 4.08008,-46.4129 0,-42.1608 c 6.18005,2.5428 11.8338,5.3463 16.9613,8.4102 5.1378,3.064 8.7542,6.0394 10.8489,8.9262 0.9692,1.0838 2.3293,4.4865 4.0801,10.208 1.6987,5.22127 3.5538,8.96265 5.5652,11.22415 C 39.4773,-1.13075 42.1035,0 45.3342,0 c 2.7201,0 5.1275,-0.92232 7.2223,-2.76695 2.0947,-1.84464 3.7205,-4.12698 4.8773,-6.84704 1.1672,-2.72001 1.7508,-5.35671 1.7508,-7.91001 0,-3.5121 -0.891,-6.4041 -2.6731,-8.6761 -1.7821,-2.2615 -4.0332,-3.3922 -6.7533,-3.3922 -4.8773,0 -9.9839,2.0166 -15.3198,6.0498 l -0.2501,-0.766 c -0.5107,-2.272 -1.6467,-4.7106 -3.4079,-7.316 -2.5429,-3.1682 -6.3416,-6.1123 -11.3961,-8.8324 -5.0441,-2.7305 -10.14549,-4.7158 -15.30422,-5.956 z m 45.67812,24.2148 c 1.1256,0 2.0844,0.422 2.8764,1.2662 0.8025,0.8546 1.2037,1.9645 1.2037,3.3297 0,2.5533 -0.9067,5.018 -2.72,7.3942 -1.8134,2.38654 -3.8821,3.57982 -6.2061,3.57982 -1.5945,0 -3.0432,-0.65135 -4.3459,-1.95406 -1.3027,-1.30271 -2.5481,-3.90816 -3.7361,-7.81626 1.5841,-1.532 3.5642,-2.8816 5.9403,-4.0488 2.3866,-1.1672 4.7158,-1.7508 6.9877,-1.7508 z"
                                   style="fill:#000000;fill-opacity:1;fill-rule:nonzero;stroke:none"
                                   id="path148766" />
                                </g>
                                </g>
                                </g>
                                <g
                                   transform="translate(70.94858,411.04801)"
                                   id="g148780">
                                <g
                                   id="g148778">
                                <g
                                   id="g148776">
                                <path
                                   d="m 17.6647,-61.7327 c -4.992,0 -8.83234,1.3287 -11.52113,3.9863 -2.68879,2.6679 -4.17909,7.2065 -4.47089,13.6159 L 0,-0.42208 6.37806,0 7.97257,-42.0045 c 0.16675,-4.4813 1.09949,-7.587 2.79823,-9.317 1.7091,-1.73 4.0071,-2.621 6.8939,-2.6731 1.2506,0 2.3136,-0.3127 3.1891,-0.938 0.8754,-0.6253 1.3131,-1.5893 1.3131,-2.892 0,-2.6054 -1.5007,-3.9081 -4.5022,-3.9081 z"
                                   style="fill:#000000;fill-opacity:1;fill-rule:nonzero;stroke:none"
                                   id="path148774" />
                                </g>
                                </g>
                                </g>
                                <g
                                   transform="translate(83.93981,377.88721)"
                                   id="g148788">
                                <g
                                   id="g148786">
                                <g
                                   id="g148784">
                                <path
                                   d="m 30.1082,-29.5923 c -4.8148,0 -10.0569,2.0947 -15.7263,6.2842 -1.136,-1.8133 -2.4439,-3.1473 -3.9238,-4.0019 -1.46941,-0.8441 -3.39742,-1.2662 -5.78398,-1.2662 -1.30271,0 -2.40741,0.3126 -3.31409,0.9379 C 0.45334,-27.013 0,-26.049 0,-24.7462 c 0,2.6054 1.53198,3.9081 4.59595,3.9081 h 0.42208 c 1.76126,0 3.17861,0.5211 4.25204,1.5632 1.08383,1.0526 2.10513,3.0275 3.06393,5.9247 1.7613,4.81486 3.632,8.24358 5.6121,10.28623 C 19.9262,-1.02132 22.5369,0 25.778,0 c 2.3761,0 4.4865,-0.70867 6.3312,-2.12602 1.8446,-1.41735 3.3766,-3.23072 4.5959,-5.44011 1.2193,-2.20939 2.0843,-4.50737 2.595,-6.89397 1.2402,-2.72 2.4699,-4.4656 3.6893,-5.2368 1.2193,-0.7608 2.4491,-1.1464 3.6892,-1.1569 1.2506,0 2.3136,-0.3126 3.1891,-0.9379 0.8858,-0.6253 1.3287,-1.5893 1.3287,-2.892 0,-2.6054 -1.5007,-3.9029 -4.5021,-3.8925 -3.4079,0 -6.128,1.4173 -8.1602,4.252 -1.928,-3.5121 -4.7366,-5.2681 -8.4259,-5.2681 z m 0.1719,7.4723 c 2.668,0 4.002,1.1933 4.002,3.5799 0,1.6987 -0.3856,3.4704 -1.1568,5.315 -0.7608,1.8446 -1.8082,3.40268 -3.1422,4.67412 -1.3339,1.28187 -2.8503,1.9228 -4.549,1.9228 -1.6466,0 -3.1369,-0.66699 -4.4709,-2.00096 -1.334,-1.33397 -2.6211,-3.92896 -3.8612,-7.78496 1.6362,-1.4799 3.6736,-2.8035 6.1123,-3.9707 2.4386,-1.1568 4.7939,-1.7352 7.0658,-1.7352 z"
                                   style="fill:#000000;fill-opacity:1;fill-rule:nonzero;stroke:none"
                                   id="path148782" />
                                </g>
                                </g>
                                </g>
                                <g
                                   transform="translate(128.15429,434.0085)"
                                   id="g148796">
                                <g
                                   id="g148794">
                                <g
                                   id="g148792">
                                <path
                                   d="M 0.59404,-7.73809 0,-4.93987 C 5.32547,-3.29325 9.91621,-1.64662 13.7722,0 l 0.5003,-3.06397 C 9.68694,-4.93987 5.12746,-6.49791 0.59404,-7.73809 Z"
                                   style="fill:#000000;fill-opacity:1;fill-rule:nonzero;stroke:none"
                                   id="path148790" />
                                </g>
                                </g>
                                </g>
                                <g
                                   transform="translate(126.42476,401.68755)"
                                   id="g148804">
                                <g
                                   id="g148802">
                                <g
                                   id="g148800">
                                <path
                                   d="m 20.7756,-9.01995 c -1.2506,0 -2.2615,0.39602 -3.0327,1.18807 -0.7608,0.80247 -1.1412,1.91237 -1.1412,3.32972 0,2.72006 1.3913,4.22077 4.1739,4.50216 2.6575,0 4.1009,-1.50072 4.3302,-4.50216 0,-2.78258 -1.4434,-4.28851 -4.3302,-4.51779 z m -11.3961,0 c -1.2506,0 -2.28756,0.39602 -3.11087,1.18807 -0.82331,0.80247 -1.23497,1.91237 -1.23497,3.32972 0,2.72006 1.44862,4.22077 4.34584,4.50216 1.3027,0 2.3501,-0.41166 3.1421,-1.23497 0.7921,-0.82331 1.1881,-1.91237 1.1881,-3.26719 0,-2.78258 -1.4434,-4.28851 -4.3302,-4.51779 z M 8.59787,-52.3845 4.25204,-52.3063 c -0.33349,0 -1.12554,0.4533 -2.37614,1.36 C 0.6253,-50.0292 0,-49.1486 0,-48.3044 c 0,0.6774 0.65657,1.4694 1.96969,2.3761 1.30271,0.9067 2.06349,1.36 2.28235,1.36 l 4.76791,-0.0781 c 6.12795,0 10.12465,0.6513 11.99015,1.954 l 0.1719,0.6879 c 0.2293,0.7295 0.3439,1.6049 0.3439,2.6262 0,1.0214 -0.198,2.0427 -0.594,3.064 -0.396,1.0213 -1.1359,2.3814 -2.2198,4.0801 l -1.4382,2.4699 6.2061,2.47 c 2.4908,-4.6481 3.7362,-9.3274 3.7362,-14.038 0,-2.3241 -0.4534,-4.6168 -1.36,-6.8783 -1.0214,-1.0839 -2.7253,-2.0531 -5.1119,-2.9077 -2.3761,-0.8441 -6.4249,-1.2662 -12.14643,-1.2662 z"
                                   style="fill:#000000;fill-opacity:1;fill-rule:nonzero;stroke:none"
                                   id="path148798" />
                                </g>
                                </g>
                                </g>
                                <g
                                   transform="translate(4.27539,119.12587)"
                                   id="g148812">
                                <g
                                   id="g148810">
                                <g
                                   id="g148808">
                                <path
                                   d="M 0.59404,-13.5221 0,-10.7239 c 5.32547,1.64663 9.91621,3.29325 13.7722,4.93988 l 0.5003,-3.06397 C 9.68694,-10.7239 5.12746,-12.2819 0.59404,-13.5221 Z m 0,5.78401 L 0,-4.93987 C 5.32547,-3.29325 9.91621,-1.64662 13.7722,0 l 0.5003,-3.06397 C 9.68694,-4.93987 5.12746,-6.49791 0.59404,-7.73809 Z"
                                   style="fill:#000000;fill-opacity:1;fill-rule:nonzero;stroke:none"
                                   id="path148806" />
                                </g>
                                </g>
                                </g>
                                <g
                                   transform="translate(10.08328,85.20033)"
                                   id="g148820">
                                <g
                                   id="g148818">
                                <g
                                   id="g148816">
                                <path
                                   d="M 8.73857,-61.7327 H 2.36051 L 0,-0.50024 6.37806,0 Z"
                                   style="fill:#000000;fill-opacity:1;fill-rule:nonzero;stroke:none"
                                   id="path148814" />
                                </g>
                                </g>
                                </g>
                                <g
                                   transform="translate(22.74698,53.0567)"
                                   id="g148828">
                                <g
                                   id="g148826">
                                <g
                                   id="g148824">
                                <path
                                   d="m 12.8499,-53.0567 c -5.45052,0 -9.73382,1.3861 -12.8499,4.1582 l 1.28186,5.362 c 1.41735,-0.7921 2.94413,-1.4017 4.58033,-1.829 1.64662,-0.4273 3.74659,-0.6409 6.29991,-0.6409 4.8148,0 8.8688,1.5736 12.1621,4.721 3.2932,3.1473 5.5339,7.045 6.7219,11.6931 h -1.7039 c -5.1066,0 -9.0616,0.7191 -11.8651,2.1573 -2.8034,1.4486 -4.7731,3.3349 -5.9091,5.6589 -1.1359,2.3345 -1.70389,4.8044 -1.70389,7.4098 0,3.8561 1.30269,7.21183 3.90809,10.06736 C 16.3881,-1.43298 19.5354,0 23.2143,0 c 1.8759,0 3.9029,-0.6253 6.081,-1.8759 2.1886,-1.24018 4.0749,-3.44957 5.659,-6.62818 1.5841,-3.17862 2.4647,-7.65472 2.6419,-13.42832 l 6.4562,-0.0156 c 1.2506,0 2.3136,-0.3023 3.189,-0.9067 0.8754,-0.594 1.3131,-1.5424 1.3131,-2.8451 0,-2.6054 -1.5007,-3.9082 -4.5021,-3.9082 l -7.0503,0.0157 c -1.3652,-6.8054 -4.2468,-12.4174 -8.6447,-16.8362 -4.3876,-4.4188 -9.5567,-6.6282 -15.5075,-6.6282 z m 19.0404,31.1243 c -0.2293,5.0441 -1.2506,8.8845 -3.064,11.5212 -1.8133,2.63664 -4.0488,3.95498 -6.7063,3.95498 -2.0427,0 -3.6893,-0.73994 -4.9399,-2.21982 -1.2506,-1.46946 -1.8759,-3.08476 -1.8759,-4.84606 0,-1.3027 0.3544,-2.6054 1.063,-3.9081 0.7087,-1.3027 2.1521,-2.3814 4.3302,-3.236 2.1886,-0.8441 5.4975,-1.2662 9.9267,-1.2662 z"
                                   style="fill:#000000;fill-opacity:1;fill-rule:nonzero;stroke:none"
                                   id="path148822" />
                                </g>
                                </g>
                                </g>
                                <g
                                   transform="translate(62.39225,79.5765)"
                                   id="g148836">
                                <g
                                   id="g148834">
                                <g
                                   id="g148832">
                                <path
                                   d="m 22.12,-9.27007 c -1.2506,0 -2.2876,0.42729 -3.1109,1.28186 -0.8129,0.85458 -1.2193,1.99054 -1.2193,3.40789 0,1.30271 0.4064,2.39177 1.2193,3.26719 C 19.8324,-0.43771 20.8954,0 22.1981,0 c 2.668,0 4.1427,-1.52677 4.424,-4.58032 0,-2.89722 -1.5007,-4.46047 -4.5021,-4.68975 z M 43.2864,-56.1207 h -2.892 c -5.6694,0 -11.1981,1.1047 -16.5861,3.3141 -5.0441,-2.2094 -10.4321,-3.3141 -16.16401,-3.3141 H 4.3302 c -2.78258,0 -4.22598,1.3027 -4.3302,3.9082 0,0.6878 0.29702,1.4955 0.89105,2.423 0.59404,0.9379 1.74042,1.4069 3.43915,1.4069 4.59596,0 8.452,0.172 11.5681,0.5159 -3.7414,3.2307 -5.6121,7.1701 -5.6121,11.8182 0,3.0639 0.766,5.8257 2.298,8.2852 1.5319,2.4699 3.4287,4.424 5.6902,5.8622 2.2719,1.4486 4.4813,2.1729 6.6282,2.1729 1.8759,0 3.7622,-0.667 5.6589,-2.001 1.8968,-1.3235 3.4704,-3.1629 4.721,-5.5182 1.2506,-2.3553 1.8759,-5.1223 1.8759,-8.3009 0,-4.5334 -1.8446,-8.5822 -5.5339,-12.1465 3.1161,-0.4585 6.2374,-0.6878 9.3639,-0.6878 h 2.298 c 1.3027,0 2.3918,-0.3178 3.2672,-0.9536 0.8754,-0.6253 1.3131,-1.5893 1.3131,-2.892 0,-2.6054 -1.5268,-3.9029 -4.5803,-3.8925 z m -18.9779,10.2862 c 4.9399,1.9906 7.4098,5.2525 7.4098,9.786 0,2.5533 -0.7972,4.7783 -2.3917,6.675 -1.5841,1.8968 -3.3089,2.8452 -5.1744,2.8452 -2.5012,0 -4.5334,-0.9953 -6.0967,-2.9859 -1.5528,-1.9801 -2.3292,-4.0436 -2.3292,-6.1904 0,-4.5439 2.8607,-7.9205 8.5822,-10.1299 z"
                                   style="fill:#000000;fill-opacity:1;fill-rule:nonzero;stroke:none"
                                   id="path148830" />
                                </g>
                                </g>
                                </g>
                                <g
                                   transform="translate(115.82881,102.79397)"
                                   id="g148844">
                                <g
                                   id="g148842">
                                <g
                                   id="g148840">
                                <path
                                   d="M 0.59404,-7.73809 0,-4.93987 C 5.32547,-3.29325 9.91621,-1.64662 13.7722,0 l 0.5003,-3.06397 C 9.68694,-4.93987 5.12746,-6.49791 0.59404,-7.73809 Z"
                                   style="fill:#000000;fill-opacity:1;fill-rule:nonzero;stroke:none"
                                   id="path148838" />
                                </g>
                                </g>
                                </g>
                                <g
                                   transform="translate(101.32392,60.3568)"
                                   id="g148852">
                                <g
                                   id="g148850">
                                <g
                                   id="g148848">
                                <path
                                   d="M 5.51827,-36.9083 H 4.25204 c -1.47988,0 -2.55852,0.4116 -3.23593,1.2349 C 0.3387,-34.85 0,-33.9277 0,-32.9064 c 0,0.792 0.29702,1.6101 0.89105,2.4543 0.59404,0.8546 1.74042,1.2819 3.43915,1.2819 l 4.59596,0.0781 c 3.56424,0.1772 6.42494,0.3491 8.58224,0.5159 -1.136,0.6774 -2.298,1.5945 -3.486,2.7513 -1.1881,1.1672 -2.2094,2.5585 -3.064,4.1739 -0.8442,1.6258 -1.26625,3.4548 -1.26625,5.487 0,4.7627 1.68305,8.64477 5.04925,11.64621 C 18.1181,-1.50593 22.1044,0 26.7003,0 c 4.5334,0 8.1029,-0.99006 10.7083,-2.97017 l 0.766,-6.47186 c -1.3549,0.85458 -3.0692,1.50593 -5.1431,1.95406 -2.0739,0.45856 -4.127,0.68783 -6.1592,0.68783 -3.46,0 -6.2687,-0.88063 -8.426,-2.64189 -2.1572,-1.76127 -3.2359,-3.88727 -3.2359,-6.37807 0,-3.7414 2.7513,-7.0555 8.254,-9.9423 1.8759,-1.0213 3.6892,-1.5319 5.4401,-1.5319 1.6987,0 3.9811,0.2657 6.847,0.7972 2.866,0.5419 5.5756,1.3496 8.1289,2.4231 l -1.1099,-7.3942 c -3.5121,-1.5841 -8.9105,-2.8868 -16.1953,-3.9081 -7.2847,-1.0214 -14.3037,-1.532 -21.05693,-1.532 z"
                                   style="fill:#000000;fill-opacity:1;fill-rule:nonzero;stroke:none"
                                   id="path148846" />
                                </g>
                                </g>
                                </g>
                                <g
                                   transform="translate(185.98708,280.77108)"
                                   id="g148860">
                                <g
                                   id="g148858">
                                <g
                                   id="g148856">
                                <path
                                   d="M 0.59404,-13.5221 0,-10.7239 c 5.32547,1.64663 9.91621,3.29325 13.7722,4.93988 l 0.5003,-3.06397 C 9.68694,-10.7239 5.12746,-12.2819 0.59404,-13.5221 Z m 0,5.78401 L 0,-4.93987 C 5.32547,-3.29325 9.91621,-1.64662 13.7722,0 l 0.5003,-3.06397 C 9.68694,-4.93987 5.12746,-6.49791 0.59404,-7.73809 Z"
                                   style="fill:#ffffff;fill-opacity:1;fill-rule:nonzero;stroke:none"
                                   id="path148854" />
                                </g>
                                </g>
                                </g>
                                <g
                                   transform="translate(191.79497,246.84554)"
                                   id="g148868">
                                <g
                                   id="g148866">
                                <g
                                   id="g148864">
                                <path
                                   d="M 8.73857,-61.7327 H 2.36051 L 0,-0.50024 6.37806,0 Z"
                                   style="fill:#ffffff;fill-opacity:1;fill-rule:nonzero;stroke:none"
                                   id="path148862" />
                                </g>
                                </g>
                                </g>
                                <g
                                   transform="translate(198.40404,209.18486)"
                                   id="g148876">
                                <g
                                   id="g148874">
                                <g
                                   id="g148872">
                                <path
                                   d="m 15.3198,-46.9444 h -1.6257 c -6.18008,0 -10.74477,1.1881 -13.6941,3.5642 l 0.76599,5.5339 c 0.85458,-0.6878 1.95928,-1.2558 3.31409,-1.7039 1.36524,-0.4586 2.7409,-0.7973 4.12698,-1.0161 1.3965,-0.2293 2.60544,-0.3752 3.62674,-0.4377 l 1.4382,-0.1564 c 4.3041,0.7296 7.6182,2.9546 9.9423,6.6751 2.3344,3.7101 3.6423,7.8319 3.9237,12.3653 -0.6878,4.8252 -3.1577,11.146 -7.4098,18.96224 L 25.9499,0 c 1.8134,-3.63716 3.3715,-7.15447 4.6742,-10.5519 1.0734,-2.2094 2.3188,-3.7258 3.7361,-4.5491 1.4174,-0.8233 3.064,-1.235 4.9399,-1.235 1.2402,-0.0104 2.298,-0.3282 3.1734,-0.9535 0.8858,-0.6253 1.3288,-1.5893 1.3288,-2.8921 0,-2.6054 -1.5008,-3.9029 -4.5022,-3.8924 -2.5533,0 -4.5699,0.4794 -6.0498,1.4381 0,-1.4694 -0.1094,-2.7721 -0.3283,-3.9081 -0.8545,-4.7627 -2.5741,-9.2127 -5.1587,-13.3501 -2.5741,-4.1374 -6.722,-6.4875 -12.4435,-7.0503 z"
                                   style="fill:#ffffff;fill-opacity:1;fill-rule:nonzero;stroke:none"
                                   id="path148870" />
                                </g>
                                </g>
                                </g>
                                <g
                                   transform="translate(232.38872,246.5077)"
                                   id="g148884">
                                <g
                                   id="g148882">
                                <g
                                   id="g148880">
                                <path
                                   d="m 42.2546,-61.4045 h -0.6722 c -2.7825,0 -5.2785,0.6514 -7.4879,1.9541 -2.2094,1.3027 -4.7627,4.1947 -7.6599,8.676 -0.6149,-3.5121 -2.4439,-6.1644 -5.4871,-7.9569 -3.0327,-1.7821 -7.7485,-2.6732 -14.14736,-2.6732 H 4.3302 c -2.8868,0 -4.3302,1.334 -4.3302,4.002 0,0.7295 0.29702,1.532 0.89105,2.4074 0.59404,0.8858 1.74042,1.3287 3.43915,1.3287 h 2.5481 c 5.5547,0 9.5202,0.568 11.8963,1.704 2.3866,1.1359 3.5799,2.8659 3.5799,5.19 0,0.9067 -0.2293,1.8394 -0.6879,2.7982 -0.4481,0.9692 -1.3496,2.4439 -2.7044,4.424 -4.3145,5.8986 -9.0512,11.2293 -14.20992,15.992 l 0.17196,1.6102 c 0.35433,3.0639 0.59924,4.82 0.73472,5.2681 0.14591,0.4586 1.52157,1.4538 4.12698,2.9858 3.85606,2.0427 8.90006,4.36671 15.13226,6.97213 C 31.1608,-4.11656 37.2575,-1.8759 43.2082,0 L 41.77,-7.48797 c -4.4813,-1.41734 -9.9839,-3.43393 -16.5079,-6.04973 -6.5135,-2.6055 -11.4794,-4.8409 -14.8978,-6.7064 4.3667,-4.3667 7.9935,-8.3946 10.8803,-12.0839 2.8972,-3.6789 6.1904,-8.155 9.8797,-13.4283 l 0.5002,-0.766 c 2.2094,-3.1786 4.1062,-5.1639 5.6903,-5.956 1.5945,-0.792 3.1838,-1.1881 4.7679,-1.1881 1.3652,0 2.4856,-0.3126 3.361,-0.9379 0.8858,-0.6253 1.3287,-1.5893 1.3287,-2.892 0,-2.6054 -1.5059,-3.9082 -4.5178,-3.9082 z"
                                   style="fill:#ffffff;fill-opacity:1;fill-rule:nonzero;stroke:none"
                                   id="path148878" />
                                </g>
                                </g>
                                </g>
                                <g
                                   transform="translate(298.73832,260.30896)"
                                   id="g148892">
                                <g
                                   id="g148890">
                                <g
                                   id="g148888">
                                <path
                                   d="m 3.48605,-14.4601 c -1.5841,0 -2.74611,0.2554 -3.48605,0.766 v 2.1261 c 1.08385,-0.2293 2.04786,-0.344 2.89201,-0.344 0.90669,0 1.89675,0.198 2.97018,0.5941 1.08385,0.396 1.88111,0.964 2.39177,1.70391 H 7.56613 c -1.41735,0 -2.67837,0.36476 -3.78307,1.09428 -1.10469,0.73994 -1.65704,1.93322 -1.65704,3.57984 0,1.41735 0.4794,2.595 1.43819,3.53295 C 4.53342,-0.46898 5.7267,0 7.14405,0 c 0.96922,0 2.00617,-0.45855 3.11085,-1.37566 1.1047,-0.90668 1.6571,-2.4074 1.6571,-4.50216 0,-2.77216 -0.9224,-4.89818 -2.76699,-6.37808 -1.84463,-1.4694 -3.73095,-2.2042 -5.65896,-2.2042 z m 5.95598,7.14409 0.07816,1.18807 c 0,0.84416 -0.21364,1.64662 -0.64093,2.40741 -0.41687,0.7712 -1.19328,1.1568 -2.32924,1.1568 -0.56277,0 -1.07343,-0.18238 -1.53199,-0.54714 -0.44813,-0.36476 -0.6722,-0.85978 -0.6722,-1.48508 0,-0.67741 0.36476,-1.30271 1.09428,-1.8759 0.73994,-0.56277 1.81858,-0.84416 3.23593,-0.84416 z"
                                   style="fill:#ffffff;fill-opacity:1;fill-rule:nonzero;stroke:none"
                                   id="path148886" />
                                </g>
                                </g>
                                </g>
                                <g
                                   transform="translate(270.41555,237.4024)"
                                   id="g148900">
                                <g
                                   id="g148898">
                                <g
                                   id="g148896">
                                <path
                                   d="m 44.2087,-52.3063 c -4.5855,0 -7.6182,1.9853 -9.0981,5.9559 -2.1469,-3.9706 -5.5183,-5.9559 -10.1142,-5.9559 -4.4188,0 -7.1389,2.0687 -8.1602,6.2061 -2.7201,-4.1374 -6.88872,-6.2061 -12.506,-6.2061 -1.64662,0 -2.77737,0.4116 -3.39225,1.2349 C 0.31265,-50.2481 0,-49.3831 0,-48.4764 c 0,1.0735 0.3387,1.9906 1.01611,2.7513 0.67741,0.7712 1.78211,1.1568 3.31409,1.1568 4.1374,0 7.0972,1.0631 8.8793,3.1891 1.7925,2.126 3.0014,5.0024 3.6267,8.6291 l 5.4401,0.2658 c -0.792,-2.5012 -1.1881,-4.6585 -1.1881,-6.4719 0,-3.9706 1.5581,-5.956 4.6742,-5.956 2.2615,0 4.1009,0.7921 5.5182,2.3762 1.4174,1.5945 2.496,4.5178 3.236,8.7698 l 5.3619,0.2501 c -0.0625,-0.1146 -0.0938,-0.2553 -0.0938,-0.4221 -0.396,-1.2506 -0.594,-2.7825 -0.594,-4.5959 0,-4.1895 1.928,-6.2843 5.784,-6.2843 1.8759,-0.0104 3.4339,0.5941 4.6741,1.8134 1.2506,1.2193 1.8759,2.793 1.8759,4.721 0,1.4695 -0.297,3.1943 -0.891,5.1744 -0.5941,1.9905 -1.2611,3.7518 -2.001,5.2838 l 6.2061,1.7821 c 1.3652,-2.668 2.0479,-6.352 2.0479,-11.0522 0,-4.8252 -1.235,-8.5718 -3.7049,-11.2398 -2.4596,-2.6575 -5.4506,-3.9811 -8.9731,-3.9706 z m -3.5642,33.0002 c -1.2506,0 -2.2719,0.4064 -3.064,1.2193 -0.792,0.8233 -1.188,1.9436 -1.188,3.361 0,1.2506 0.396,2.298 1.188,3.1421 0.7921,0.8546 1.8134,1.2819 3.064,1.2819 1.3027,0 2.3188,-0.4273 3.0483,-1.2819 0.74,-0.8441 1.1099,-1.8915 1.1099,-3.1421 0,-2.7722 -1.386,-4.2989 -4.1582,-4.5803 z m -11.2241,0 c -1.2506,0 -2.272,0.4064 -3.064,1.2193 -0.7921,0.8233 -1.1881,1.9436 -1.1881,3.361 0,1.2506 0.4117,2.298 1.235,3.1421 0.8233,0.8546 1.829,1.2819 3.0171,1.2819 1.2401,0 2.2563,-0.4273 3.0483,-1.2819 0.8025,-0.8441 1.2037,-1.8915 1.2037,-3.1421 0,-2.7722 -1.4173,-4.2989 -4.252,-4.5803 z m 5.7058,10.28615 c -1.2402,0 -2.2458,0.39602 -3.017,1.18807 -0.7608,0.79205 -1.1412,1.89674 -1.1412,3.31409 0,1.30271 0.3804,2.38135 1.1412,3.23593 C 32.8804,-0.42729 33.886,0 35.1262,0 c 2.668,0 4.0853,-1.50593 4.2521,-4.51779 0,-2.77216 -1.4174,-4.27288 -4.2521,-4.50216 z"
                                   style="fill:#ffffff;fill-opacity:1;fill-rule:nonzero;stroke:none"
                                   id="path148894" />
                                </g>
                                </g>
                                </g>
                                </g>
                              </g>
                            </g>
                          </g>
                        </g>
                      </g>
                    </g>
                  </g>
                </g>
              </g>
            </g>
          </g>
        </g>
      </g>
    </g>
  </g>
</svg>
