<?xml version="1.0" encoding="UTF-8" standalone="no"?>
<!-- Created with Inkscape (http://www.inkscape.org/) -->

<svg
   version="1.1"
   id="svg144676"
   width="400"
   height="200"
   viewBox="0 0 400 200"
   sodipodi:docname="15310_word.pdf"
   xmlns:inkscape="http://www.inkscape.org/namespaces/inkscape"
   xmlns:sodipodi="http://sodipodi.sourceforge.net/DTD/sodipodi-0.dtd"
   xmlns="http://www.w3.org/2000/svg"
   xmlns:svg="http://www.w3.org/2000/svg">
  <defs
     id="defs144680">
    <clipPath
       clipPathUnits="userSpaceOnUse"
       id="clipPath144698">
      <path
         d="M 0,-258.22242 H 300 V 258.22242 H 0 Z"
         id="path144696" />
    </clipPath>
  </defs>
  <sodipodi:namedview
     id="namedview144678"
     pagecolor="#ffffff"
     bordercolor="#000000"
     borderopacity="0.25"
     inkscape:showpageshadow="2"
     inkscape:pageopacity="0.0"
     inkscape:pagecheckerboard="0"
     inkscape:deskcolor="#d1d1d1" />
  <g
     id="g144682"
     inkscape:groupmode="layer"
     inkscape:label="15310_word52"
     transform="matrix(1.3333333,0,0,-1.3333333,0,200)">
    <g
       id="g144684">
      <g
         id="g144686">
        <g
           id="g144688"
           transform="translate(101.59167,135.03712)">
          <g
             id="g144690"
             transform="matrix(0.33333,0,0,0.33333,0,-28.69144)">
            <g
               id="g144692">
              <g
                 id="g144694" />
              <g
                 id="g144726">
                <g
                   clip-path="url(#clipPath144698)"
                   id="g144724">
                  <g
                     transform="translate(0,47.75471)"
                     id="g144706">
                    <g
                       id="g144704">
                      <g
                         id="g144702">
                        <path
                           d="m 61.2223,-219.903 c -20.6212,0 -35.9803,5.085 -46.0771,15.255 C 5.04841,-194.478 0,-180.554 0,-162.874 c 0,5.445 0.69885,11.333 2.09655,17.665 1.40813,6.341 3.36386,11.943 5.8672,16.803 l 11.70315,-2.206 c -3.0875,-10.316 -4.6312,-19.453 -4.6312,-27.411 0,-10.306 2.2478,-18.624 6.7434,-24.956 4.4956,-6.341 10.4984,-10.91 18.0084,-13.705 7.51,-2.806 15.7606,-4.209 24.7518,-4.209 11.046,0 21.3566,1.33 30.9319,3.99 9.5858,2.649 17.3248,6.92 23.2188,12.814 4.714,5.444 7.072,9.935 7.072,13.471 0,6.78 -8.251,10.169 -24.752,10.169 H 89.9482 l 5.5386,19.886 h 21.6542 c 11.494,0 19.375,2.509 23.641,7.526 3.692,4.412 5.538,11.703 5.538,21.873 L 141.893,-1.31425 158.462,0 162.67,-108.739 c 0.292,-10.159 2.425,-17.894 6.399,-23.203 3.985,-5.298 10.321,-8.099 19.01,-8.402 3.244,0 6.008,-0.808 8.292,-2.425 2.285,-1.616 3.427,-4.12 3.427,-7.51 0,-6.78 -3.906,-10.17 -11.719,-10.17 -17.231,0 -28.355,7.145 -33.372,21.435 -3.536,-9.429 -10.238,-15.839 -20.105,-19.228 2.941,-3.39 4.412,-7.516 4.412,-12.376 0,-2.942 -0.663,-6.4 -1.987,-10.374 -1.325,-3.984 -3.166,-7.525 -5.523,-10.623 -6.634,-8.689 -16.027,-15.573 -28.179,-20.653 -12.1512,-5.09 -26.1856,-7.635 -42.1027,-7.635 z"
                           style="fill:#f81436;fill-opacity:1;fill-rule:nonzero;stroke:none"
                           id="path144700" />
                      </g>
                    </g>
                  </g>
                  <g
                     transform="translate(214.078,86.07423)"
                     id="g144714">
                    <g
                       id="g144712">
                      <g
                         id="g144710">
                        <path
                           d="M 1.54894,-20.105 0,-12.814 C 13.8518,-8.53744 25.7844,-4.26611 35.7978,0 l 1.3299,-7.94811 C 25.1951,-12.8088 13.3355,-16.861 1.54894,-20.105 Z"
                           style="fill:#000000;fill-opacity:1;fill-rule:nonzero;stroke:none"
                           id="path144708" />
                      </g>
                    </g>
                  </g>
                  <g
                     transform="translate(176.42249,-16.76892)"
                     id="g144722">
                    <g
                       id="g144720">
                      <g
                         id="g144718">
                        <path
                           d="M 14.3629,-95.9249 H 11.046 c -3.82803,0 -6.62343,1.0691 -8.3862,3.2074 C 0.8866,-90.5792 0,-88.1854 0,-85.536 c 0,2.0652 0.77186,4.1983 2.31559,6.3991 1.54373,2.2113 4.52688,3.3169 8.94941,3.3169 l 11.9378,0.2347 c 9.2833,0.4381 16.7203,0.8762 22.3111,1.3143 -2.9414,1.7732 -5.9611,4.167 -9.059,7.1814 -3.0874,3.0249 -5.7368,6.6339 -7.9481,10.827 -2.2113,4.2035 -3.3169,8.9599 -3.3169,14.269 0,12.3707 4.3808,22.4623 13.1425,30.2748 C 47.1045,-3.90626 57.4569,0 69.3895,0 81.1761,0 90.4593,-2.58157 97.2392,-7.74471 l 1.987,-16.78799 c -3.536,2.2008 -7.9951,3.8906 -13.3772,5.0692 -5.3718,1.1891 -10.7123,1.7837 -16.0214,1.7837 -8.9808,0 -16.2717,-2.2843 -21.873,-6.8529 -5.6012,-4.5686 -8.4018,-10.0969 -8.4018,-16.5847 0,-9.7213 7.1449,-18.3422 21.4349,-25.8626 4.8606,-2.6494 9.5752,-3.9741 14.1438,-3.9741 4.4226,0 10.3524,0.6989 17.7894,2.0966 7.4471,1.4081 14.4831,3.5099 21.1061,6.3053 l -2.863,-19.2288 c -9.137,-4.1201 -23.1715,-7.5101 -42.1031,-10.1699 -18.9315,-2.6493 -37.1642,-3.974 -54.698,-3.974 z"
                           style="fill:#000000;fill-opacity:1;fill-rule:nonzero;stroke:none"
                           id="path144716" />
                      </g>
                    </g>
                  </g>
                </g>
              </g>
            </g>
          </g>
        </g>
      </g>
    </g>
  </g>
</svg>
