<?xml version="1.0" encoding="UTF-8" standalone="no"?>
<!-- Created with Inkscape (http://www.inkscape.org/) -->

<svg
   version="1.1"
   id="svg153016"
   width="400"
   height="400"
   viewBox="0 0 400 400"
   sodipodi:docname="1532_pic.pdf"
   xmlns:inkscape="http://www.inkscape.org/namespaces/inkscape"
   xmlns:sodipodi="http://sodipodi.sourceforge.net/DTD/sodipodi-0.dtd"
   xmlns="http://www.w3.org/2000/svg"
   xmlns:svg="http://www.w3.org/2000/svg">
  <defs
     id="defs153020">
    <clipPath
       clipPathUnits="userSpaceOnUse"
       id="clipPath153036">
      <path
         d="M 0,0 H 60.94586 V -199.89954 H 0 Z"
         clip-rule="evenodd"
         id="path153034" />
    </clipPath>
    <clipPath
       clipPathUnits="userSpaceOnUse"
       id="clipPath153046">
      <path
         d="M 0,-599.7 H 300 V 599.7 H 0 Z"
         id="path153044" />
    </clipPath>
  </defs>
  <sodipodi:namedview
     id="namedview153018"
     pagecolor="#ffffff"
     bordercolor="#000000"
     borderopacity="0.25"
     inkscape:showpageshadow="2"
     inkscape:pageopacity="0.0"
     inkscape:pagecheckerboard="0"
     inkscape:deskcolor="#d1d1d1" />
  <g
     id="g153022"
     inkscape:groupmode="layer"
     inkscape:label="1532_pic65"
     transform="matrix(1.3333333,0,0,-1.3333333,0,400)">
    <g
       id="g153024">
      <g
         id="g153026">
        <g
           id="g153028"
           transform="translate(119.52709,249.94977)">
          <g
             id="g153030">
            <g
               id="g153032"
               clip-path="url(#clipPath153036)">
              <g
                 id="g153038"
                 transform="matrix(0.33333,0,0,0.33333,0,-66.63303)">
                <g
                   id="g153040">
                  <g
                     id="g153042" />
                  <g
                     id="g153170">
                    <g
                       clip-path="url(#clipPath153046)"
                       id="g153168">
                      <g
                         transform="translate(0,199.89954)"
                         id="g153054">
                        <g
                           id="g153052">
                          <g
                             id="g153050">
                            <path
                               d="m 182.838,-508.309 c 0,-46.607 -37.779,-84.39 -84.3801,-84.39 h -14.068 c -46.5592,0 -84.319,37.712 -84.3899,84.259 V -84.2584 C 0.07078,-37.7836 37.7078,-0.12256 84.1625,0 h 14.5228 c 46.4967,-0.12268 84.1527,-37.8545 84.1527,-84.3897 z"
                               style="fill:#373231;fill-opacity:1;fill-rule:nonzero;stroke:none"
                               id="path153048" />
                          </g>
                        </g>
                      </g>
                      <g
                         transform="translate(0,192.90454)"
                         id="g153062">
                        <g
                           id="g153060">
                          <g
                             id="g153058">
                            <path
                               d="m 182.838,-508.321 c 0,-46.603 -37.779,-84.384 -84.3801,-84.384 h -14.068 c -46.5592,0 -84.319,37.71 -84.3899,84.253 V -84.2587 C 0.0709,-37.714 37.8307,0 84.3899,0 h 14.068 c 46.6011,0 84.3801,-37.785 84.3801,-84.39 z"
                               style="fill:#383431;fill-opacity:1;fill-rule:nonzero;stroke:none"
                               id="path153056" />
                          </g>
                        </g>
                      </g>
                      <g
                         transform="translate(0.0021,192.90374)"
                         id="g153070">
                        <g
                           id="g153068">
                          <g
                             id="g153066">
                            <path
                               d="M 91.431,0 H 84.388 C 37.787,0 0,-37.783 0,-84.39 v -423.931 c 0,-46.603 37.787,-84.382 84.388,-84.382 h 7.043 z"
                               style="fill:#615d5c;fill-opacity:1;fill-rule:nonzero;stroke:none"
                               id="path153064" />
                          </g>
                        </g>
                      </g>
                      <g
                         transform="translate(15.0876,161.35214)"
                         id="g153078">
                        <g
                           id="g153076">
                          <g
                             id="g153074">
                            <path
                               d="m 152.659,-76.325 c 0,-42.151 -34.179,-76.327 -76.313,-76.327 C 34.173,-152.652 0,-118.476 0,-76.325 0,-34.17 34.173,0 76.346,0 c 42.134,0 76.313,-34.17 76.313,-76.325 z"
                               style="fill:#1f140f;fill-opacity:1;fill-rule:nonzero;stroke:none"
                               id="path153072" />
                          </g>
                        </g>
                      </g>
                      <g
                         transform="translate(13.6513,151.81454)"
                         id="g153086">
                        <g
                           id="g153084">
                          <g
                             id="g153082">
                            <path
                               d="m 155.537,-77.754 c 0,-42.947 -34.816,-77.766 -77.756,-77.766 C 34.818,-155.52 0,-120.701 0,-77.754 0,-34.809 34.818,0 77.781,0 c 42.94,0 77.756,-34.809 77.756,-77.754 z"
                               style="fill:#727276;fill-opacity:1;fill-rule:nonzero;stroke:none"
                               id="path153080" />
                          </g>
                        </g>
                      </g>
                      <g
                         transform="translate(22.815,142.66154)"
                         id="g153094">
                        <g
                           id="g153092">
                          <g
                             id="g153090">
                            <path
                               d="m 137.207,-68.601 c 0,-37.895 -30.703,-68.608 -68.589,-68.608 C 30.717,-137.209 0,-106.496 0,-68.601 0,-30.708 30.717,0 68.618,0 c 37.886,0 68.589,-30.708 68.589,-68.601 z"
                               style="fill:#db251c;fill-opacity:1;fill-rule:nonzero;stroke:none"
                               id="path153088" />
                          </g>
                        </g>
                      </g>
                      <g
                         transform="translate(26.734,133.17954)"
                         id="g153102">
                        <g
                           id="g153100">
                          <g
                             id="g153098">
                            <path
                               d="M 31.2837,0 C 11.1714,-12.4247 0.01681,-34.146 0,-56.623 v -0.1017 C 0.00873,-68.3984 3.02199,-80.2723 9.3451,-91.1505 22.0096,-112.919 44.7016,-125.138 67.8707,-125.19 h 0.2965 c 10.6347,0.024 21.3613,2.613 31.2568,8.019 v 0.005 L 31.287,0 Z"
                               style="mix-blend-mode:multiply;fill:#edeef0;fill-opacity:1;fill-rule:nonzero;stroke:none"
                               id="path153096" />
                          </g>
                        </g>
                      </g>
                      <g
                         transform="translate(15.0876,-19.64706)"
                         id="g153110">
                        <g
                           id="g153108">
                          <g
                             id="g153106">
                            <path
                               d="m 152.659,-76.331 c 0,-42.161 -34.179,-76.338 -76.313,-76.338 C 34.173,-152.669 0,-118.492 0,-76.331 0,-34.18 34.173,0 76.346,0 c 42.134,0 76.313,-34.18 76.313,-76.331 z"
                               style="fill:#1f140f;fill-opacity:1;fill-rule:nonzero;stroke:none"
                               id="path153104" />
                          </g>
                        </g>
                      </g>
                      <g
                         transform="translate(13.6513,-29.19376)"
                         id="g153118">
                        <g
                           id="g153116">
                          <g
                             id="g153114">
                            <path
                               d="m 155.537,-77.76 c 0,-42.945 -34.816,-77.762 -77.756,-77.762 C 34.818,-155.522 0,-120.705 0,-77.76 0,-34.815 34.818,0 77.781,0 c 42.94,0 77.756,-34.815 77.756,-77.76 z"
                               style="fill:#727276;fill-opacity:1;fill-rule:nonzero;stroke:none"
                               id="path153112" />
                          </g>
                        </g>
                      </g>
                      <g
                         transform="translate(22.815,-38.34376)"
                         id="g153126">
                        <g
                           id="g153124">
                          <g
                             id="g153122">
                            <path
                               d="m 137.207,-68.61 c 0,-37.882 -30.703,-68.597 -68.589,-68.597 C 30.717,-137.207 0,-106.492 0,-68.61 0,-30.717 30.717,0 68.618,0 c 37.886,0 68.589,-30.717 68.589,-68.61 z"
                               style="fill:#f6cd2d;fill-opacity:1;fill-rule:nonzero;stroke:none"
                               id="path153120" />
                          </g>
                        </g>
                      </g>
                      <g
                         transform="translate(26.734,-47.82846)"
                         id="g153134">
                        <g
                           id="g153132">
                          <g
                             id="g153130">
                            <path
                               d="M 31.2855,0 C 11.172,-12.4245 0.01681,-34.149 0,-56.625 v -0.1018 C 0.00873,-68.3996 3.02199,-80.2715 9.3451,-91.1456 27.8757,-123.008 67.8743,-134.414 99.424,-117.176 v 0.005 L 31.2863,0 Z"
                               style="mix-blend-mode:multiply;fill:#edeef0;fill-opacity:1;fill-rule:nonzero;stroke:none"
                               id="path153128" />
                          </g>
                        </g>
                      </g>
                      <g
                         transform="translate(15.0876,-200.66126)"
                         id="g153142">
                        <g
                           id="g153140">
                          <g
                             id="g153138">
                            <path
                               d="m 152.659,-76.327 c 0,-42.151 -34.179,-76.331 -76.313,-76.331 C 34.173,-152.658 0,-118.478 0,-76.327 0,-34.181 34.173,0 76.346,0 c 42.134,0 76.313,-34.181 76.313,-76.327 z"
                               style="fill:#1f140f;fill-opacity:1;fill-rule:nonzero;stroke:none"
                               id="path153136" />
                          </g>
                        </g>
                      </g>
                      <g
                         transform="translate(13.6513,-210.18996)"
                         id="g153150">
                        <g
                           id="g153148">
                          <g
                             id="g153146">
                            <path
                               d="m 155.537,-77.768 c 0,-42.951 -34.816,-77.771 -77.756,-77.771 C 34.818,-155.539 0,-120.719 0,-77.768 0,-34.823 34.818,0 77.781,0 c 42.94,0 77.756,-34.823 77.756,-77.768 z"
                               style="fill:#727276;fill-opacity:1;fill-rule:nonzero;stroke:none"
                               id="path153144" />
                          </g>
                        </g>
                      </g>
                      <g
                         transform="translate(22.815,-219.34796)"
                         id="g153158">
                        <g
                           id="g153156">
                          <g
                             id="g153154">
                            <path
                               d="m 137.207,-68.61 c 0,-37.889 -30.703,-68.608 -68.589,-68.608 C 30.717,-137.218 0,-106.499 0,-68.61 0,-30.73 30.717,0 68.618,0 c 37.886,0 68.589,-30.73 68.589,-68.61 z"
                               style="fill:#16a942;fill-opacity:1;fill-rule:nonzero;stroke:none"
                               id="path153152" />
                          </g>
                        </g>
                      </g>
                      <g
                         transform="translate(26.734,-228.84246)"
                         id="g153166">
                        <g
                           id="g153164">
                          <g
                             id="g153162">
                            <path
                               d="M 31.2859,0 C 11.1722,-12.4231 0.01681,-34.1465 0,-56.6231 v -0.1017 c 0.00873,-11.673 3.02199,-23.5457 9.3451,-34.4211 18.5306,-31.8551 58.5292,-43.2581 90.0789,-26.0301 v 0.005 L 31.2862,0 Z"
                               style="mix-blend-mode:multiply;fill:#edeef0;fill-opacity:1;fill-rule:nonzero;stroke:none"
                               id="path153160" />
                          </g>
                        </g>
                      </g>
                    </g>
                  </g>
                </g>
              </g>
            </g>
          </g>
        </g>
      </g>
    </g>
  </g>
</svg>
