<?xml version="1.0" encoding="UTF-8" standalone="no"?>
<!-- Created with Inkscape (http://www.inkscape.org/) -->

<svg
   version="1.1"
   id="svg153250"
   width="400"
   height="200"
   viewBox="0 0 400 200"
   sodipodi:docname="1532_word.pdf"
   xmlns:inkscape="http://www.inkscape.org/namespaces/inkscape"
   xmlns:sodipodi="http://sodipodi.sourceforge.net/DTD/sodipodi-0.dtd"
   xmlns="http://www.w3.org/2000/svg"
   xmlns:svg="http://www.w3.org/2000/svg">
  <defs
     id="defs153254">
    <clipPath
       clipPathUnits="userSpaceOnUse"
       id="clipPath153272">
      <path
         d="M 0,-221.67088 H 412.2743 V 221.67088 H 0 Z"
         id="path153270" />
    </clipPath>
  </defs>
  <sodipodi:namedview
     id="namedview153252"
     pagecolor="#ffffff"
     bordercolor="#000000"
     borderopacity="0.25"
     inkscape:showpageshadow="2"
     inkscape:pageopacity="0.0"
     inkscape:pagecheckerboard="0"
     inkscape:deskcolor="#d1d1d1" />
  <g
     id="g153256"
     inkscape:groupmode="layer"
     inkscape:label="1532_word66"
     transform="matrix(1.3333333,0,0,-1.3333333,0,200)">
    <g
       id="g153258">
      <g
         id="g153260">
        <g
           id="g153262"
           transform="translate(81.28833,121.94476)">
          <g
             id="g153264"
             transform="matrix(0.33333,0,0,0.33333,0,-24.62958)">
            <g
               id="g153266">
              <g
                 id="g153268" />
              <g
                 id="g153316">
                <g
                   clip-path="url(#clipPath153272)"
                   id="g153314">
                  <g
                     transform="translate(0,63.7197)"
                     id="g153280">
                    <g
                       id="g153278">
                      <g
                         id="g153276">
                        <path
                           d="m 17.8989,-23.4219 c -3.2439,0 -5.935,1.0326 -8.07328,3.0979 -2.12785,2.0653 -3.19177,4.9389 -3.19177,8.6209 0,7.07192 3.75505,10.97296 11.26505,11.7031 3.3899,0 6.1123,-1.06914 8.1671,-3.20741 2.0653,-2.12784 3.0979,-4.95974 3.0979,-8.49569 0,-7.218 -3.755,-11.1242 -11.265,-11.7188 z m 29.6176,0 c -3.2439,0 -5.8619,1.0326 -7.8542,3.0979 -1.9818,2.0653 -2.9727,4.9389 -2.9727,8.6209 0,7.07192 3.609,10.97296 10.8269,11.7031 6.926,0 10.681,-3.90104 11.2651,-11.7031 0,-7.218 -3.755,-11.1242 -11.2651,-11.7188 z M 37.3467,-152.047 c -7.8125,0 -14.5194,1.914 -20.1206,5.742 -5.5908,3.839 -9.8621,8.851 -12.81396,15.036 C 1.47071,-125.084 0,-118.455 0,-111.383 c 0,9.721 2.35731,18.8897 7.07194,27.5054 4.71466,8.6261 10.60786,16.9914 17.67986,25.096 l -4.4278,3.3169 10.1698,13.4868 c 16.5012,-12.2351 28.2878,-23.3593 35.3597,-33.3727 8.1046,-11.3485 12.1569,-22.77 12.1569,-34.2644 0,-9.575 -2.1018,-17.497 -6.3053,-23.766 -4.1931,-6.259 -9.3875,-10.937 -15.5833,-14.035 -6.1854,-3.087 -12.4437,-4.631 -18.7751,-4.631 z m 1.768,20.559 c 5.7473,0 10.4619,1.252 14.1439,3.755 3.682,2.503 6.3679,5.523 8.0576,9.059 1.7002,3.536 2.5503,6.853 2.5503,9.951 0,6.769 -2.2843,13.4344 -6.8529,19.9952 -4.5686,6.5608 -11.4945,13.5963 -20.7777,21.1063 -6.1854,-6.0393 -11.4163,-12.5949 -15.6929,-19.6669 -4.2661,-7.0719 -6.3991,-13.6276 -6.3991,-19.6666 0,-7.667 2.5033,-13.675 7.51,-18.024 5.0067,-4.339 10.827,-6.509 17.4608,-6.509 z"
                           style="fill:#000000;fill-opacity:1;fill-rule:nonzero;stroke:none"
                           id="path153274" />
                      </g>
                    </g>
                  </g>
                  <g
                     transform="translate(57.85648,-1.91478)"
                     id="g153288">
                    <g
                       id="g153286">
                      <g
                         id="g153284">
                        <path
                           d="m 32.9346,-133.71 c -1.7732,0 -5.4239,0.334 -10.9521,1.002 -5.5178,0.657 -12.8453,3.27 -21.9825,7.838 l 2.42511,13.487 c 2.35732,-1.179 5.9663,-2.576 10.82699,-4.193 4.871,-1.627 9.5127,-2.811 13.9248,-3.552 0.1565,-0.146 1.1891,-0.219 3.0979,-0.219 10.9104,0 21.2992,5.82 31.1666,17.461 7.0719,8.5427 10.6079,18.8585 10.6079,30.9476 0,10.4618 -1.987,21.7321 -5.9611,33.8107 -0.7406,2.5034 -4.4278,12.0786 -11.0616,28.72586 L 70.7194,0 c 0.8866,-2.35731 2.4355,-6.99893 4.6468,-13.9248 2.2113,-6.9259 4.5686,-14.2169 7.072,-21.873 3.2439,-10.3158 4.8658,-20.9237 4.8658,-31.8237 0,-1.7732 -0.1877,-6.3053 -0.5632,-13.5963 -0.3651,-7.291 -3.4213,-15.359 -9.1685,-24.2042 -12.2247,-17.826 -26.5146,-27.182 -42.8697,-28.069 z"
                           style="fill:#000000;fill-opacity:1;fill-rule:nonzero;stroke:none"
                           id="path153282" />
                      </g>
                    </g>
                  </g>
                  <g
                     transform="translate(163.72456,73.88952)"
                     id="g153296">
                    <g
                       id="g153294">
                      <g
                         id="g153292">
                        <path
                           d="m 45.9676,-160.449 c -12.9652,0 -22.9473,3.463 -29.9462,10.389 -6.99894,6.926 -10.86347,18.713 -11.59361,35.36 L 0,-1.09521 16.5846,0 20.7777,-109.177 c 0.4381,-11.641 2.8684,-19.709 7.291,-24.204 4.4226,-4.485 10.3889,-6.806 17.8989,-6.963 3.2439,0 6.008,-0.808 8.2923,-2.425 2.2843,-1.616 3.4265,-4.12 3.4265,-7.51 0,-6.78 -3.9063,-10.17 -11.7188,-10.17 z"
                           style="fill:#000000;fill-opacity:1;fill-rule:nonzero;stroke:none"
                           id="path153290" />
                      </g>
                    </g>
                  </g>
                  <g
                     transform="translate(198.21497,49.35678)"
                     id="g153304">
                    <g
                       id="g153302">
                      <g
                         id="g153300">
                        <path
                           d="m 114.919,-135.916 c -11.933,0 -19.8129,5.158 -23.6409,15.474 -5.6012,-10.316 -14.3682,-15.474 -26.3007,-15.474 -11.4946,0 -18.5717,5.377 -21.2315,16.131 -7.0719,-10.754 -17.8989,-16.131 -32.4809,-16.131 -4.27651,0 -7.22315,1.069 -8.83989,3.208 C 0.80837,-130.57 0,-128.322 0,-125.965 c 0,2.795 0.8866,5.184 2.6598,7.166 1.76277,1.992 4.63118,2.988 8.6052,2.988 10.754,0 18.4517,2.764 23.0934,8.292 4.6416,5.529 7.7708,13.0074 9.3875,22.4367 l 14.1595,0.6571 c -2.0652,-6.4774 -3.0979,-12.0734 -3.0979,-16.7878 0,-10.316 4.0523,-15.474 12.1569,-15.474 5.8933,0 10.6809,2.06 14.3629,6.18 3.682,4.131 6.4826,11.7189 8.4018,22.7649 l 13.9249,0.6728 c -0.156,-0.2921 -0.235,-0.6624 -0.235,-1.1109 -1.022,-3.2439 -1.533,-7.2232 -1.533,-11.9378 0,-10.9 5.007,-16.35 15.02,-16.35 4.861,0 8.913,1.58 12.157,4.741 3.244,3.171 4.866,7.265 4.866,12.2818 0,3.828 -0.777,8.3184 -2.331,13.4711 -1.544,5.1631 -3.276,9.7317 -5.195,13.7058 l 16.147,4.6468 c 3.536,-6.9259 5.304,-16.5012 5.304,-28.7259 0,-12.5266 -3.208,-22.2536 -9.623,-29.1796 -6.404,-6.926 -14.175,-10.389 -23.312,-10.389 z m -9.278,85.7553 c -3.244,0 -5.8985,1.0639 -7.9637,3.1918 -2.0653,2.1382 -3.0979,5.0536 -3.0979,8.746 0,3.2335 1.0326,5.9559 3.0979,8.1672 2.0652,2.2112 4.7197,3.3169 7.9637,3.3169 3.39,0 6.039,-1.1057 7.948,-3.3169 1.919,-2.2113 2.879,-4.9337 2.879,-8.1672 0,-7.2284 -3.609,-11.2077 -10.827,-11.9378 z m -29.1796,0 c -3.2439,0 -5.8985,1.0639 -7.9637,3.1918 -2.0548,2.1382 -3.0823,5.0536 -3.0823,8.746 0,3.2335 1.064,5.9559 3.1918,8.1672 2.1383,2.2112 4.7563,3.3169 7.8542,3.3169 3.2439,0 5.8933,-1.1057 7.9481,-3.3169 2.0653,-2.2113 3.0979,-4.9337 3.0979,-8.1672 0,-7.2284 -3.682,-11.2077 -11.046,-11.9378 z m 14.8167,26.7388 c -3.2439,0 -5.862,1.0326 -7.8542,3.0979 -1.9923,2.0653 -2.9884,4.9389 -2.9884,8.6209 0,3.38992 0.9961,6.18532 2.9884,8.38617 C 85.4161,-1.10564 88.0342,0 91.2781,0 c 6.9155,0 10.5979,-3.90104 11.0459,-11.7031 0,-7.2284 -3.6819,-11.1347 -11.0459,-11.7188 z"
                           style="fill:#000000;fill-opacity:1;fill-rule:nonzero;stroke:none"
                           id="path153298" />
                      </g>
                    </g>
                  </g>
                  <g
                     transform="translate(363.86593,73.88952)"
                     id="g153312">
                    <g
                       id="g153310">
                      <g
                         id="g153308">
                        <path
                           d="M 30.0557,-160.449 H 13.4868 L 7.29098,-1.31425 23.8756,0 Z M 0,-221.671 l 1.3299,10.389 c 1.03263,0.595 2.57636,1.189 4.63118,1.784 2.06526,0.584 3.91147,0.876 5.53862,0.876 -5.30915,3.379 -7.96373,7.943 -7.96373,13.69 0,6.05 2.2843,10.697 6.85293,13.94 4.5686,3.234 9.7995,4.851 15.6928,4.851 8.6887,0 15.0253,-1.914 19.0097,-5.742 l -3.3169,-10.17 c -4.8606,3.244 -10.1646,4.866 -15.9119,4.866 -3.682,0 -6.5191,-0.845 -8.5113,-2.535 -1.9923,-1.7 -2.9884,-3.51 -2.9884,-5.429 0,-7.072 6.5556,-10.9 19.6669,-11.484 h 14.3786 l -4.4278,-11.281 H 29.6177 c -13.1113,0 -22.98385,-1.252 -29.6177,-3.755 z"
                           style="fill:#f81436;fill-opacity:1;fill-rule:nonzero;stroke:none"
                           id="path153306" />
                      </g>
                    </g>
                  </g>
                </g>
              </g>
            </g>
          </g>
        </g>
      </g>
    </g>
  </g>
</svg>
