<?xml version="1.0" encoding="UTF-8" standalone="no"?>
<!-- Created with Inkscape (http://www.inkscape.org/) -->

<svg
   version="1.1"
   id="svg155059"
   width="400"
   height="200"
   viewBox="0 0 400 200"
   sodipodi:docname="1533_word.pdf"
   xmlns:inkscape="http://www.inkscape.org/namespaces/inkscape"
   xmlns:sodipodi="http://sodipodi.sourceforge.net/DTD/sodipodi-0.dtd"
   xmlns="http://www.w3.org/2000/svg"
   xmlns:svg="http://www.w3.org/2000/svg">
  <defs
     id="defs155063">
    <clipPath
       clipPathUnits="userSpaceOnUse"
       id="clipPath155081">
      <path
         d="m 0,-300.60825 h 300 v 601.2165 H 0 Z"
         id="path155079" />
    </clipPath>
  </defs>
  <sodipodi:namedview
     id="namedview155061"
     pagecolor="#ffffff"
     bordercolor="#000000"
     borderopacity="0.25"
     inkscape:showpageshadow="2"
     inkscape:pageopacity="0.0"
     inkscape:pagecheckerboard="0"
     inkscape:deskcolor="#d1d1d1" />
  <g
     id="g155065"
     inkscape:groupmode="layer"
     inkscape:label="1533_word68"
     transform="matrix(1.3333333,0,0,-1.3333333,0,200)">
    <g
       id="g155067">
      <g
         id="g155069">
        <g
           id="g155071"
           transform="translate(115.39667,149.10231)">
          <g
             id="g155073"
             transform="matrix(0.33334,0,0,0.33334,0,-33.40216)">
            <g
               id="g155075">
              <g
                 id="g155077" />
              <g
                 id="g155117">
                <g
                   clip-path="url(#clipPath155081)"
                   id="g155115">
                  <g
                     transform="translate(92.96071,14.6359)"
                     id="g155089">
                    <g
                       id="g155087">
                      <g
                         id="g155085">
                        <path
                           d="m 9.27801,-32.4809 c -3.53597,0 -5.9663,1.3247 -7.29098,3.9741 C 0.66234,-25.8574 0,-23.2081 0,-20.5587 c 0,2.5138 0.51631,5.1684 1.54894,7.9638 l 6.39917,2.206 c -0.73014,-3.0874 -1.09521,-5.815 -1.09521,-8.1828 0,-3.5359 1.17865,-5.3039 3.536,-5.3039 3.828,0 5.742,3.7602 5.742,11.2807 l -0.219,4.86583 6.1801,2.42512 c 0.4485,-5.45525 1.1839,-9.14245 2.2061,-11.06165 1.0326,-1.9088 2.5085,-2.8632 4.4277,-2.8632 1.0327,0 1.9871,0.4798 2.8632,1.4394 0.8866,0.9596 1.3299,2.3208 1.3299,4.0836 v 0.219 c 0,3.0979 -0.8813,6.71213 -2.6441,10.84265 L 36.674,0 c 1.7732,-4.86065 2.6598,-9.35624 2.6598,-13.4868 0,-3.828 -1.0327,-7.1449 -3.0979,-9.9507 -2.0653,-2.7954 -4.6416,-4.1931 -7.7291,-4.1931 -3.536,0 -6.1906,1.6219 -7.9638,4.8658 -1.3246,-3.2439 -3.0196,-5.6742 -5.0849,-7.2909 -2.0548,-1.6168 -4.1148,-2.4252 -6.18009,-2.4252 z"
                           style="fill:#000000;fill-opacity:1;fill-rule:nonzero;stroke:none"
                           id="path155083" />
                      </g>
                    </g>
                  </g>
                  <g
                     transform="translate(0,-79.72692)"
                     id="g155097">
                    <g
                       id="g155095">
                      <g
                         id="g155093">
                        <path
                           d="M 10.6079,-120.677 0,-109.631 c 16.0527,6.634 30.7442,13.9251 44.0745,21.8732 13.3407,7.9586 22.7386,15.6981 28.1938,23.2185 2.5034,2.7954 6.0393,11.6354 10.6079,26.5198 4.4226,13.5493 9.2468,23.2706 14.4725,29.16393 C 102.585,-2.95186 109.401,0 117.798,0 c 7.072,0 13.33,-2.39904 18.775,-7.19711 5.455,-4.78759 9.69,-10.71739 12.704,-17.78939 3.025,-7.0719 4.538,-13.9196 4.538,-20.543 0,-9.1372 -2.321,-16.6525 -6.963,-22.5457 -4.641,-5.8933 -10.498,-8.84 -17.57,-8.84 -12.663,0 -25.92,5.231 -39.7719,15.6929 l -0.6728,-1.9871 c -1.3247,-5.8933 -4.2713,-12.2298 -8.8399,-19.0097 -6.6234,-8.2506 -16.496,-15.9119 -29.6177,-22.9839 -13.1112,-7.072 -26.3685,-12.23 -39.7718,-15.474 z m 118.6741,62.9906 c 2.952,0 5.455,1.1005 7.51,3.3013 2.065,2.2113 3.098,5.0901 3.098,8.6365 0,6.6235 -2.357,13.0278 -7.072,19.2132 -4.715,6.1958 -10.092,9.2936 -16.131,9.2936 -4.12,0 -7.875,-1.6949 -11.265,-5.0849 -3.39,-3.3899 -6.6339,-10.1698 -9.7318,-20.3396 4.1305,-3.9741 9.2888,-7.4735 15.4738,-10.4984 6.185,-3.0145 12.225,-4.5217 18.118,-4.5217 z"
                           style="fill:#000000;fill-opacity:1;fill-rule:nonzero;stroke:none"
                           id="path155091" />
                      </g>
                    </g>
                  </g>
                  <g
                     transform="translate(166.24515,100.20462)"
                     id="g155105">
                    <g
                       id="g155103">
                      <g
                         id="g155101">
                        <path
                           d="m 9.05897,-37.5658 c -4.13052,0 -7.15017,0.6624 -9.05897,1.9871 v 5.523 c 2.7954,-0.5842 5.29874,-0.8762 7.51002,-0.8762 2.35732,0 4.93368,0.5163 7.72908,1.5489 2.8058,1.0327 4.8711,2.5034 6.1958,4.4122 h -1.768 c -3.682,0 -6.9624,0.9596 -9.84128,2.8788 -2.86842,1.9192 -4.30262,5.0119 -4.30262,9.278 0,3.68202 1.25167,6.73818 3.75501,9.16851 C 11.7814,-1.21516 14.874,0 18.556,0 c 2.5034,0 5.1892,-1.17866 8.0576,-3.53597 2.8789,-2.35731 4.3183,-6.25835 4.3183,-11.70313 0,-7.218 -2.3938,-12.7462 -7.1814,-16.5846 -4.7877,-3.8281 -9.6849,-5.7421 -14.69153,-5.7421 z m 15.47373,18.5717 0.2191,3.0822 c 0,2.2113 -0.5528,4.3131 -1.6585,6.30533 -1.1056,1.99224 -3.1344,2.98836 -6.0862,2.98836 -1.4707,0 -2.7954,-0.47981 -3.9741,-1.43942 -1.1786,-0.95961 -1.768,-2.24777 -1.768,-3.86457 0,-1.7732 0.9544,-3.3951 2.8632,-4.8658 1.9193,-1.4707 4.7251,-2.2061 8.4175,-2.2061 z"
                           style="fill:#f81436;fill-opacity:1;fill-rule:nonzero;stroke:none"
                           id="path155099" />
                      </g>
                    </g>
                  </g>
                  <g
                     transform="translate(159.20776,51.98013)"
                     id="g155113">
                    <g
                       id="g155111">
                      <g
                         id="g155109">
                        <path
                           d="m 40.2256,-220.56 h -16.569 l -6.1958,159.1343 16.5846,1.3142 z M 0,-45.5139 1.3299,-35.1407 c 1.03263,0.5946 2.57636,1.1839 4.63118,1.768 2.06526,0.5946 3.91147,0.8918 5.53862,0.8918 -5.30915,3.39 -7.96373,7.9586 -7.96373,13.7058 0,6.0394 2.2843,10.67575 6.85293,13.90923 C 14.9575,-1.62196 20.1884,0 26.0817,0 34.7704,0 41.107,-1.91401 45.0914,-5.74204 L 41.5555,-15.9119 c -4.5686,3.2439 -9.8726,4.8659 -15.9119,4.8659 -3.682,0 -6.4826,-0.8501 -8.4018,-2.5503 -1.9193,-1.6897 -2.8789,-3.489 -2.8789,-5.3978 0,-7.0719 6.4826,-10.9052 19.4479,-11.4997 H 48.4084 L 43.9806,-41.7589 H 29.6177 c -13.1113,0 -22.98385,-1.2516 -29.6177,-3.755 z"
                           style="fill:#f81436;fill-opacity:1;fill-rule:nonzero;stroke:none"
                           id="path155107" />
                      </g>
                    </g>
                  </g>
                </g>
              </g>
            </g>
          </g>
        </g>
      </g>
    </g>
  </g>
</svg>
