<?xml version="1.0" encoding="UTF-8" standalone="no"?>
<!-- Created with Inkscape (http://www.inkscape.org/) -->

<svg
   version="1.1"
   id="svg156535"
   width="400"
   height="200"
   viewBox="0 0 400 200"
   sodipodi:docname="1534_word.pdf"
   xmlns:inkscape="http://www.inkscape.org/namespaces/inkscape"
   xmlns:sodipodi="http://sodipodi.sourceforge.net/DTD/sodipodi-0.dtd"
   xmlns="http://www.w3.org/2000/svg"
   xmlns:svg="http://www.w3.org/2000/svg">
  <defs
     id="defs156539">
    <clipPath
       clipPathUnits="userSpaceOnUse"
       id="clipPath156557">
      <path
         d="M 0,-273.65039 H 381.3355 V 273.65039 H 0 Z"
         id="path156555" />
    </clipPath>
  </defs>
  <sodipodi:namedview
     id="namedview156537"
     pagecolor="#ffffff"
     bordercolor="#000000"
     borderopacity="0.25"
     inkscape:showpageshadow="2"
     inkscape:pageopacity="0.0"
     inkscape:pagecheckerboard="0"
     inkscape:deskcolor="#d1d1d1" />
  <g
     id="g156541"
     inkscape:groupmode="layer"
     inkscape:label="1534_word74"
     transform="matrix(1.3333333,0,0,-1.3333333,0,200)">
    <g
       id="g156543">
      <g
         id="g156545">
        <g
           id="g156547"
           transform="translate(86.44333,148.60894)">
          <g
             id="g156549"
             transform="matrix(0.33334,0,0,0.33334,0,-30.40632)">
            <g
               id="g156551">
              <g
                 id="g156553" />
              <g
                 id="g156593">
                <g
                   clip-path="url(#clipPath156557)"
                   id="g156591">
                  <g
                     transform="translate(0,-60.87964)"
                     id="g156565">
                    <g
                       id="g156563">
                      <g
                         id="g156561">
                        <path
                           d="m 75.1472,-121.553 c -23.1351,0 -41.3312,4.751 -54.5885,14.254 C 7.30141,-97.7972 0.44852,-82.8762 0,-62.5366 c 0,10.4619 1.54894,19.5939 4.64683,27.3959 l 12.15687,-2.206 c -1.6272,-5.8933 -2.4408,-12.1569 -2.4408,-18.7907 0,-30.0506 20.8508,-45.0756 62.5523,-45.0756 12.6731,0 23.9798,0.954 33.9198,2.863 9.951,1.9192 18.348,4.167 25.19,6.7433 6.853,2.5764 12.048,5.0432 15.584,7.4006 -0.438,3.5359 -0.658,6.6338 -0.658,9.2936 0,4.2661 0.809,9.1998 2.426,14.801 l 13.048,1.3299 c -0.74,-3.974 -1.111,-7.9533 -1.111,-11.9378 0,-16.6472 8.767,-25.2681 26.301,-25.8626 v -0.2191 c 3.244,0 6.045,-0.7718 8.402,-2.3156 2.357,-1.5433 3.536,-4.0103 3.536,-7.4003 0,-6.78 -3.979,-10.17 -11.938,-10.17 -16.647,0 -28.136,5.523 -34.468,16.569 -9.585,-6.331 -21.268,-11.489 -35.047,-15.474 -13.768,-3.974 -29.419,-5.961 -46.9528,-5.961 z m 23.86,98.1311 c -3.2335,0 -5.8464,1.0326 -7.8386,3.0979 -1.9923,2.0653 -2.9884,4.9389 -2.9884,8.6209 0,7.07192 3.609,10.97296 10.827,11.7031 6.9258,0 10.6858,-3.90104 11.2808,-11.7031 0,-7.218 -3.76,-11.1242 -11.2808,-11.7188 z m -29.6021,0 c -3.2439,0 -5.935,1.0326 -8.0732,3.0979 -2.1383,2.0653 -3.2074,4.9389 -3.2074,8.6209 0,7.07192 3.7602,10.97296 11.2806,11.7031 3.39,0 6.1124,-1.06914 8.1672,-3.20741 2.0652,-2.12784 3.0979,-4.95974 3.0979,-8.49569 0,-7.218 -3.755,-11.1242 -11.2651,-11.7188 z"
                           style="fill:#000000;fill-opacity:1;fill-rule:nonzero;stroke:none"
                           id="path156559" />
                      </g>
                    </g>
                  </g>
                  <g
                     transform="translate(180.26411,-44.29501)"
                     id="g156573">
                    <g
                       id="g156571">
                      <g
                         id="g156569">
                        <path
                           d="M 13.7058,-133.272 H 11.265 c -3.68196,0 -6.47736,0.955 -8.38616,2.864 C 0.95961,-128.489 0,-126.127 0,-123.321 c 0,2.503 0.85009,4.819 2.55028,6.947 1.68975,2.138 4.59467,3.207 8.71472,3.207 h 2.6598 c 28.4338,0 53.4047,4.866 74.9125,14.5979 l 7.7447,3.536 c 5.893,2.7954 11.046,4.9285 15.458,6.3992 -4.86,1.7732 -10.086,3.9114 -15.677,6.4148 -7.0824,3.2439 -14.4151,6.227 -21.9981,8.9494 -7.5831,2.7224 -14.8375,4.0836 -21.7634,4.0836 -11.6406,0 -21.5131,-1.6898 -29.6177,-5.0693 l 3.0979,18.118 c 7.0719,3.2439 15.9849,4.8658 26.7388,4.8658 9.4293,0 18.4882,-1.5489 27.1769,-4.6468 8.6991,-3.0979 17.247,-6.6338 25.6436,-10.6079 10.159,-4.5686 17.45,-7.4422 21.873,-8.6209 4.423,-1.1786 8.772,-1.768 13.049,-1.768 h 8.167 l -3.082,-18.3369 h -3.536 c -10.17,0 -22.989,-4.7147 -38.458,-14.1439 -15.9171,-9.283 -30.692,-15.583 -44.3248,-18.9 -13.6224,-3.317 -28.8302,-4.976 -45.6234,-4.976 z m 74.0363,109.1773 c -3.2439,0 -5.935,1.1057 -8.0733,3.317 -2.1382,2.2113 -3.2074,5.1579 -3.2074,8.8399 0,3.38993 1.0692,6.22705 3.2074,8.51135 C 81.8071,-1.14215 84.5712,0 87.9612,0 c 6.9259,0 10.7539,-3.97927 11.484,-11.9378 0,-7.51 -3.901,-11.5623 -11.7031,-12.1569 z"
                           style="fill:#000000;fill-opacity:1;fill-rule:nonzero;stroke:none"
                           id="path156567" />
                      </g>
                    </g>
                  </g>
                  <g
                     transform="translate(339.96453,91.21787)"
                     id="g156581">
                    <g
                       id="g156579">
                      <g
                         id="g156577">
                        <path
                           d="m 9.05897,-37.5658 c -4.13052,0 -7.15017,0.6624 -9.05897,1.9871 v 5.523 c 2.7954,-0.5842 5.29874,-0.8762 7.51002,-0.8762 2.35732,0 4.93368,0.5163 7.72908,1.5489 2.8058,1.0327 4.8711,2.5034 6.1958,4.4122 h -1.768 c -3.682,0 -6.9624,0.9596 -9.84128,2.8788 -2.86842,1.9192 -4.30262,5.0119 -4.30262,9.278 0,3.68202 1.25167,6.73818 3.75501,9.16851 C 11.7814,-1.21516 14.874,0 18.556,0 c 2.5034,0 5.1892,-1.17866 8.0576,-3.53597 2.8789,-2.35731 4.3183,-6.25835 4.3183,-11.70313 0,-7.218 -2.3938,-12.7462 -7.1814,-16.5846 -4.7877,-3.8281 -9.6849,-5.7421 -14.69153,-5.7421 z m 15.47373,18.5717 0.2191,3.0822 c 0,2.2113 -0.5528,4.3131 -1.6585,6.30533 -1.1056,1.99224 -3.1344,2.98836 -6.0862,2.98836 -1.4707,0 -2.7954,-0.47981 -3.9741,-1.43942 -1.1786,-0.95961 -1.768,-2.24777 -1.768,-3.86457 0,-1.7732 0.9544,-3.3951 2.8632,-4.8658 1.9193,-1.4707 4.7251,-2.2061 8.4175,-2.2061 z"
                           style="fill:#f81436;fill-opacity:1;fill-rule:nonzero;stroke:none"
                           id="path156575" />
                      </g>
                    </g>
                  </g>
                  <g
                     transform="translate(332.92714,42.99338)"
                     id="g156589">
                    <g
                       id="g156587">
                      <g
                         id="g156585">
                        <path
                           d="m 40.2256,-220.56 h -16.569 l -6.1958,159.1343 16.5846,1.3142 z M 0,-45.5139 1.3299,-35.1407 c 1.03263,0.5946 2.57636,1.1839 4.63118,1.768 2.06526,0.5946 3.91147,0.8918 5.53862,0.8918 -5.30915,3.39 -7.96373,7.9586 -7.96373,13.7058 0,6.0394 2.2843,10.67575 6.85293,13.90923 C 14.9575,-1.62196 20.1884,0 26.0817,0 34.7704,0 41.107,-1.91401 45.0914,-5.74204 L 41.5555,-15.9119 c -4.5686,3.2439 -9.8726,4.8659 -15.9119,4.8659 -3.682,0 -6.4826,-0.8501 -8.4018,-2.5503 -1.9193,-1.6897 -2.8789,-3.489 -2.8789,-5.3978 0,-7.0719 6.4826,-10.9052 19.4479,-11.4997 H 48.4084 L 43.9806,-41.7589 H 29.6177 c -13.1113,0 -22.98385,-1.2516 -29.6177,-3.755 z"
                           style="fill:#f81436;fill-opacity:1;fill-rule:nonzero;stroke:none"
                           id="path156583" />
                      </g>
                    </g>
                  </g>
                </g>
              </g>
            </g>
          </g>
        </g>
      </g>
    </g>
  </g>
</svg>
