<?xml version="1.0" encoding="UTF-8" standalone="no"?>
<!-- Created with Inkscape (http://www.inkscape.org/) -->

<svg
   version="1.1"
   id="svg155251"
   width="400"
   height="200"
   viewBox="0 0 400 200"
   sodipodi:docname="15341_word.pdf"
   xmlns:inkscape="http://www.inkscape.org/namespaces/inkscape"
   xmlns:sodipodi="http://sodipodi.sourceforge.net/DTD/sodipodi-0.dtd"
   xmlns="http://www.w3.org/2000/svg"
   xmlns:svg="http://www.w3.org/2000/svg">
  <defs
     id="defs155255">
    <clipPath
       clipPathUnits="userSpaceOnUse"
       id="clipPath155273">
      <path
         d="M 0,-241.95471 H 349.45532 V 241.95471 H 0 Z"
         id="path155271" />
    </clipPath>
  </defs>
  <sodipodi:namedview
     id="namedview155253"
     pagecolor="#ffffff"
     bordercolor="#000000"
     borderopacity="0.25"
     inkscape:showpageshadow="2"
     inkscape:pageopacity="0.0"
     inkscape:pagecheckerboard="0"
     inkscape:deskcolor="#d1d1d1" />
  <g
     id="g155257"
     inkscape:groupmode="layer"
     inkscape:label="15341_word70"
     transform="matrix(1.3333333,0,0,-1.3333333,0,200)">
    <g
       id="g155259">
      <g
         id="g155261">
        <g
           id="g155263"
           transform="translate(91.75667,131.32632)">
          <g
             id="g155265"
             transform="matrix(0.33334,0,0,0.33334,0,-26.88458)">
            <g
               id="g155267">
              <g
                 id="g155269" />
              <g
                 id="g155325">
                <g
                   clip-path="url(#clipPath155273)"
                   id="g155323">
                  <g
                     transform="translate(0,47.99293)"
                     id="g155281">
                    <g
                       id="g155279">
                      <g
                         id="g155277">
                        <path
                           d="m 44.1996,-23.2028 c -3.2439,0 -5.935,0.9909 -8.0733,2.9727 -2.1278,1.9922 -3.1917,4.8293 -3.1917,8.5113 0,7.0824 3.755,10.98866 11.265,11.7188 3.39,0 6.1123,-1.06914 8.1672,-3.20741 2.0652,-2.13827 3.0979,-4.97539 3.0979,-8.51139 0,-7.0719 -3.7551,-10.8999 -11.2651,-11.484 z m 29.6177,0 c -3.2439,0 -5.862,0.9909 -7.8543,2.9727 -1.9818,1.9922 -2.9727,4.8293 -2.9727,8.5113 0,7.0824 3.609,10.98866 10.827,11.7188 6.9259,0 10.6809,-3.90626 11.265,-11.7188 0,-7.0719 -3.755,-10.8999 -11.265,-11.484 z M 95.6902,-160.229 c -6.7694,0 -13.3616,1.361 -19.7764,4.083 -6.4044,2.733 -11.3745,8.073 -14.9105,16.021 -3.8385,-2.357 -8.4123,-4.088 -13.7214,-5.194 -5.2988,-1.095 -9.8622,-1.643 -13.6902,-1.643 -10.0238,0 -18.1284,2.54 -24.31369,7.62 C 3.09267,-134.263 0,-127.524 0,-119.128 c 0,13.268 7.21797,25.6491 21.6539,37.1436 6.6339,5.1527 17.539,11.5571 32.7155,19.2131 l -0.6727,17.6799 15.0357,1.5489 2.6598,-68.2785 c 0.4381,-7.813 1.7627,-13.784 3.974,-17.915 2.2113,-4.12 5.1214,-6.884 8.7304,-8.292 3.609,-1.398 7.4735,-2.097 11.5936,-2.097 3.2439,0 6.0448,-0.808 8.4018,-2.425 2.357,-1.616 3.536,-4.12 3.536,-7.51 0,-6.78 -3.979,-10.169 -11.9378,-10.169 z m -59.6734,32.934 c 7.5205,0 14.5194,1.398 20.9968,4.193 l -1.987,43.9808 C 41.0287,-85.1605 30.8589,-91.1634 24.5171,-97.1296 18.1857,-103.096 15.02,-108.734 15.02,-114.043 c 0,-4.568 1.9506,-7.922 5.8516,-10.06 3.9115,-2.128 8.9599,-3.192 15.1452,-3.192 z"
                           style="fill:#000000;fill-opacity:1;fill-rule:nonzero;stroke:none"
                           id="path155275" />
                      </g>
                    </g>
                  </g>
                  <g
                     transform="translate(84.25571,48.21197)"
                     id="g155289">
                    <g
                       id="g155287">
                      <g
                         id="g155285">
                        <path
                           d="m 39.1147,-23.4219 c -3.2439,0 -5.935,1.0274 -8.0733,3.0823 -2.1382,2.0652 -3.2074,4.9441 -3.2074,8.6365 0,7.07192 3.7603,10.97296 11.2807,11.7031 3.39,0 6.1123,-1.06914 8.1672,-3.20741 2.0652,-2.12784 3.0978,-4.95974 3.0978,-8.49569 0,-7.2284 -3.755,-11.1347 -11.265,-11.7188 z m 29.6177,0 c -6.6339,0 -10.2429,3.9063 -10.827,11.7188 0,7.07192 3.609,10.97296 10.827,11.7031 3.3899,0 6.1123,-1.06914 8.1671,-3.20741 2.0653,-2.12784 3.0979,-4.95974 3.0979,-8.49569 0,-7.2284 -3.755,-11.1347 -11.265,-11.7188 z M 24.079,-160.449 H 11.265 c -3.68196,0 -6.47736,1.07 -8.38616,3.208 C 0.95961,-155.103 0,-152.709 0,-150.06 c 0,2.504 0.95961,4.746 2.87884,6.728 1.9088,1.992 4.7042,2.988 8.38616,2.988 h 14.801 c 11.3485,0 22.0294,0.699 32.0428,2.097 10.0238,1.408 16.7307,2.848 20.1206,4.318 0.7406,2.212 1.1109,4.715 1.1109,7.51 h -4.6469 c -11.4945,0 -21.148,1.586 -28.9605,4.757 -7.8021,3.171 -13.5441,7.588 -17.2261,13.252 -3.682,5.674 -5.523,11.5359 -5.523,17.5856 0,10.1594 3.828,19.4374 11.4841,27.8341 4.1305,4.1305 8.5531,7.1501 13.2677,9.0589 4.7146,1.9193 8.9129,2.8789 12.5949,2.8789 5.6013,0 11.0877,-2.1748 16.4595,-6.5244 5.3822,-4.3391 9.8413,-10.7122 13.3772,-19.1192 3.536,-8.3966 5.304,-18.7073 5.304,-30.9319 0,-5.455 -0.4798,-11.938 -1.4394,-19.448 -0.9597,-7.51 -2.3939,-13.846 -4.3027,-19.01 -2.2112,-1.762 -5.7889,-3.749 -10.733,-5.961 -4.9337,-2.211 -11.7866,-4.167 -20.5587,-5.867 -8.7617,-1.69 -20.2145,-2.535 -34.3584,-2.535 z m 56.3565,50.834 0.219,3.755 c 0,4.13 -0.6623,8.9911 -1.987,14.5819 -1.3247,5.6012 -3.755,10.7957 -7.291,15.5833 -3.5359,4.7877 -8.1045,7.1815 -13.7058,7.1815 -5.8933,0 -10.7904,-2.0288 -14.6915,-6.0863 -3.901,-4.047 -5.8515,-8.7199 -5.8515,-14.0187 0,-6.6338 3.755,-11.8647 11.265,-15.6927 6.9259,-3.536 16.6525,-5.304 29.1796,-5.304 z"
                           style="fill:#000000;fill-opacity:1;fill-rule:nonzero;stroke:none"
                           id="path155283" />
                      </g>
                    </g>
                  </g>
                  <g
                     transform="translate(188.74443,67.34789)"
                     id="g155297">
                    <g
                       id="g155295">
                      <g
                         id="g155293">
                        <path
                           d="M 1.54894,-20.105 0,-12.814 C 13.8518,-8.53744 25.7844,-4.26611 35.7978,0 l 1.3299,-7.94811 C 25.1951,-12.8088 13.3355,-16.861 1.54894,-20.105 Z"
                           style="fill:#000000;fill-opacity:1;fill-rule:nonzero;stroke:none"
                           id="path155291" />
                      </g>
                    </g>
                  </g>
                  <g
                     transform="translate(164.07551,-27.59234)"
                     id="g155305">
                    <g
                       id="g155303">
                      <g
                         id="g155301">
                        <path
                           d="m 32.9346,-133.71 c -1.7732,0 -5.4239,0.334 -10.9521,1.002 -5.5178,0.657 -12.8453,3.27 -21.9825,7.838 l 2.42511,13.487 c 2.35732,-1.179 5.9663,-2.576 10.82699,-4.193 4.871,-1.627 9.5127,-2.811 13.9248,-3.552 0.1565,-0.146 1.1891,-0.219 3.0979,-0.219 10.9104,0 21.2992,5.82 31.1666,17.461 7.0719,8.5427 10.6079,18.8585 10.6079,30.9476 0,10.4618 -1.987,21.7321 -5.9611,33.8107 -0.7406,2.5034 -4.4278,12.0786 -11.0616,28.72586 L 70.7194,0 c 0.8866,-2.35731 2.4355,-6.99893 4.6468,-13.9248 2.2113,-6.9259 4.5686,-14.2169 7.072,-21.873 3.2439,-10.3158 4.8658,-20.9237 4.8658,-31.8237 0,-1.7732 -0.1877,-6.3053 -0.5632,-13.5963 -0.3651,-7.291 -3.4213,-15.359 -9.1685,-24.2042 -12.2247,-17.826 -26.5146,-27.182 -42.8697,-28.069 z"
                           style="fill:#000000;fill-opacity:1;fill-rule:nonzero;stroke:none"
                           id="path155299" />
                      </g>
                    </g>
                  </g>
                  <g
                     transform="translate(283.73422,80.65265)"
                     id="g155313">
                    <g
                       id="g155311">
                      <g
                         id="g155309">
                        <path
                           d="M 1.54894,-20.105 0,-12.814 C 13.8518,-8.53744 25.7844,-4.26611 35.7978,0 l 1.3299,-7.94811 C 25.1951,-12.8088 13.3355,-16.861 1.54894,-20.105 Z"
                           style="fill:#f81436;fill-opacity:1;fill-rule:nonzero;stroke:none"
                           id="path155307" />
                      </g>
                    </g>
                  </g>
                  <g
                     transform="translate(251.99711,-23.61828)"
                     id="g155321">
                    <g
                       id="g155319">
                      <g
                         id="g155317">
                        <path
                           d="m 32.2618,-137.684 c -5.2987,0 -10.973,0.85 -17.0227,2.551 -6.03932,1.689 -11.11902,4.521 -15.2391,8.495 l 2.64415,13.049 c 6.92592,-3.985 16.13615,-5.977 27.63065,-5.977 12.8192,0 23.7974,4.24 32.9346,12.72 9.1372,8.4699 15.3955,19.1873 18.775,32.1526 -3.0874,-0.7406 -7.5048,-1.1109 -13.252,-1.1109 -7.5205,0 -14.4829,1.3977 -20.8873,4.1931 -6.4044,2.8058 -11.5988,7.0093 -15.5833,12.6106 -3.974,5.6012 -5.9611,12.6001 -5.9611,20.9967 0,10.754 3.536,19.7764 10.6079,27.0674 C 43.9806,-3.64549 52.0069,0 60.9877,0 c 8.553,0 15.4789,-2.80061 20.7777,-8.40184 5.3092,-5.59076 9.2519,-12.54796 11.8283,-20.87156 2.5763,-8.3237 3.8645,-16.6108 3.8645,-24.8614 0,-11.4945 -1.5437,-21.9563 -4.6312,-31.3856 -7.5204,-23.7196 -19.8233,-39.3386 -36.9086,-46.8596 -7.8125,-3.536 -15.698,-5.304 -23.6566,-5.304 z m 38.8957,80.8894 c 4.8606,0 9.1372,0.4433 12.8296,1.3299 -0.3025,8.9912 -1.7784,16.3917 -4.4278,22.2016 -2.6494,5.8202 -5.9298,10.0915 -9.8412,12.8139 -3.9011,2.7328 -7.7656,4.0993 -11.5936,4.0993 -6.1854,0 -10.754,-2.1383 -13.7058,-6.4149 -2.9415,-4.2661 -4.4122,-8.3914 -4.4122,-12.3759 0,-5.5908 1.6168,-9.9716 4.8502,-13.1425 3.244,-3.1709 7.2962,-5.3822 12.1569,-6.6339 4.8607,-1.2516 9.5753,-1.8775 14.1439,-1.8775 z"
                           style="fill:#f81436;fill-opacity:1;fill-rule:nonzero;stroke:none"
                           id="path155315" />
                      </g>
                    </g>
                  </g>
                </g>
              </g>
            </g>
          </g>
        </g>
      </g>
    </g>
  </g>
</svg>
