<?xml version="1.0" encoding="UTF-8" standalone="no"?>
<!-- Created with Inkscape (http://www.inkscape.org/) -->

<svg
   version="1.1"
   id="svg155443"
   width="400"
   height="200"
   viewBox="0 0 400 200"
   sodipodi:docname="15343_word.pdf"
   xmlns:inkscape="http://www.inkscape.org/namespaces/inkscape"
   xmlns:sodipodi="http://sodipodi.sourceforge.net/DTD/sodipodi-0.dtd"
   xmlns="http://www.w3.org/2000/svg"
   xmlns:svg="http://www.w3.org/2000/svg">
  <defs
     id="defs155447">
    <clipPath
       clipPathUnits="userSpaceOnUse"
       id="clipPath155465">
      <path
         d="m 0,-249.87015 h 318.96212 v 499.7403 H 0 Z"
         id="path155463" />
    </clipPath>
  </defs>
  <sodipodi:namedview
     id="namedview155445"
     pagecolor="#ffffff"
     bordercolor="#000000"
     borderopacity="0.25"
     inkscape:showpageshadow="2"
     inkscape:pageopacity="0.0"
     inkscape:pagecheckerboard="0"
     inkscape:deskcolor="#d1d1d1" />
  <g
     id="g155449"
     inkscape:groupmode="layer"
     inkscape:label="15343_word72"
     transform="matrix(1.3333333,0,0,-1.3333333,0,200)">
    <g
       id="g155451">
      <g
         id="g155453">
        <g
           id="g155455"
           transform="translate(96.84,130.64475)">
          <g
             id="g155457"
             transform="matrix(0.33333,0,0,0.33333,0,-27.76298)">
            <g
               id="g155459">
              <g
                 id="g155461" />
              <g
                 id="g155501">
                <g
                   clip-path="url(#clipPath155465)"
                   id="g155499">
                  <g
                     transform="translate(0,-16.72438)"
                     id="g155473">
                    <g
                       id="g155471">
                      <g
                         id="g155469">
                        <path
                           d="M 10.6079,-120.677 0,-109.631 c 16.0527,6.634 30.7442,13.9251 44.0745,21.8732 13.3407,7.9586 22.7386,15.6981 28.1938,23.2185 2.5034,2.7954 6.0393,11.6354 10.6079,26.5198 4.4226,13.5493 9.2468,23.2706 14.4725,29.16393 C 102.585,-2.95186 109.401,0 117.798,0 c 7.072,0 13.33,-2.39904 18.775,-7.19711 5.455,-4.78759 9.69,-10.71739 12.704,-17.78939 3.025,-7.0719 4.538,-13.9196 4.538,-20.543 0,-9.1372 -2.321,-16.6525 -6.963,-22.5457 -4.641,-5.8933 -10.498,-8.84 -17.57,-8.84 -12.663,0 -25.92,5.231 -39.7719,15.6929 l -0.6728,-1.9871 c -1.3247,-5.8933 -4.2713,-12.2298 -8.8399,-19.0097 -6.6234,-8.2506 -16.496,-15.9119 -29.6177,-22.9839 -13.1112,-7.072 -26.3685,-12.23 -39.7718,-15.474 z m 118.6741,62.9906 c 2.952,0 5.455,1.1005 7.51,3.3013 2.065,2.2113 3.098,5.0901 3.098,8.6365 0,6.6235 -2.357,13.0278 -7.072,19.2132 -4.715,6.1958 -10.092,9.2936 -16.131,9.2936 -4.12,0 -7.875,-1.6949 -11.265,-5.0849 -3.39,-3.3899 -6.6339,-10.1698 -9.7318,-20.3396 4.1305,-3.9741 9.2888,-7.4735 15.4738,-10.4984 6.185,-3.0145 12.225,-4.5217 18.118,-4.5217 z"
                           style="fill:#000000;fill-opacity:1;fill-rule:nonzero;stroke:none"
                           id="path155467" />
                      </g>
                    </g>
                  </g>
                  <g
                     transform="translate(150.52076,-28.66219)"
                     id="g155481">
                    <g
                       id="g155479">
                      <g
                         id="g155477">
                        <path
                           d="m 33.3727,-137.918 c -14.1439,0 -25.26813,3.609 -33.3727,10.826 l 3.31693,13.925 c 3.682,-2.055 7.65607,-3.635 11.92217,-4.74 4.2765,-1.106 9.7317,-1.659 16.3656,-1.659 12.5167,0 23.0464,4.089 31.589,12.267 8.5531,8.1771 14.3786,18.3052 17.4765,30.3838 h -4.4278 c -13.2573,0 -23.5366,1.8775 -30.838,5.6326 -7.291,3.755 -12.4124,8.6521 -15.3643,14.6914 -2.9414,6.0498 -4.4121,12.4646 -4.4121,19.2445 0,10.0133 3.3899,18.7385 10.1698,26.1755 C 42.5777,-3.72372 50.7552,0 60.3305,0 c 4.8607,0 10.1281,-1.62196 15.8024,-4.86587 5.6742,-3.24391 10.5714,-8.99113 14.6915,-17.24173 4.1305,-8.2506 6.4148,-19.8912 6.8529,-34.9216 h 16.8037 c 3.244,0 6.008,-0.7719 8.292,-2.3156 2.285,-1.5438 3.427,-4.0106 3.427,-7.4005 0,-6.7799 -3.907,-10.1699 -11.719,-10.1699 H 96.1283 C 92.5923,-94.595 85.1136,-109.182 73.6921,-120.677 62.281,-132.171 48.8412,-137.918 33.3727,-137.918 Z m 49.5035,80.8888 c -0.5945,13.1216 -3.2491,23.1037 -7.9637,29.9462 -4.7146,6.8529 -10.5349,10.2793 -17.4608,10.2793 -5.2988,0 -9.5701,-1.914 -12.814,-5.742 -3.2439,-3.828 -4.8659,-8.0264 -4.8659,-12.595 0,-3.3899 0.9231,-6.7798 2.7694,-10.1698 1.8462,-3.3899 5.6012,-6.1905 11.265,-8.4018 5.6742,-2.2113 14.2586,-3.3169 25.7531,-3.3169 z"
                           style="fill:#000000;fill-opacity:1;fill-rule:nonzero;stroke:none"
                           id="path155475" />
                      </g>
                    </g>
                  </g>
                  <g
                     transform="translate(259.95148,83.2895)"
                     id="g155489">
                    <g
                       id="g155487">
                      <g
                         id="g155485">
                        <path
                           d="M 1.54894,-20.105 0,-12.814 C 13.8518,-8.53744 25.7844,-4.26611 35.7978,0 l 1.3299,-7.94811 C 25.1951,-12.8088 13.3355,-16.861 1.54894,-20.105 Z"
                           style="fill:#f81436;fill-opacity:1;fill-rule:nonzero;stroke:none"
                           id="path155483" />
                      </g>
                    </g>
                  </g>
                  <g
                     transform="translate(253.76572,-40.38095)"
                     id="g155497">
                    <g
                       id="g155495">
                      <g
                         id="g155493">
                        <path
                           d="m 53.9157,-120.442 c -6.6234,0 -10.2324,3.901 -10.8269,11.703 0,7.072 3.6089,10.9783 10.8269,11.7189 3.39,0 6.1176,-1.0692 8.1828,-3.2079 2.0653,-2.138 3.0979,-4.975 3.0979,-8.511 0,-7.072 -3.7602,-10.973 -11.2807,-11.703 z m -29.602,0 c -3.2439,0 -5.935,1.033 -8.0733,3.098 -2.1382,2.055 -3.2074,4.923 -3.2074,8.605 0,7.072 3.7602,10.9783 11.2807,11.7189 3.2335,0 5.9194,-1.0692 8.0576,-3.2079 2.1383,-2.138 3.2074,-4.975 3.2074,-8.511 0,-7.072 -3.755,-10.973 -11.265,-11.703 z m -9.9508,55.2456 H 11.046 c -7.364,0 -11.046,3.463 -11.046,10.3889 0,2.0652 0.77186,4.1983 2.31559,6.3991 1.54373,2.2113 4.45386,3.317 8.73041,3.317 h 4.4278 c 15.9066,0 26.2903,1.6949 31.1509,5.0849 l 0.4381,1.768 c 0.5946,1.9192 0.8918,4.2035 0.8918,6.8529 0,2.6493 -0.5163,5.2987 -1.5489,7.9481 -1.0326,2.6598 -2.9466,6.201 -5.742,10.6235 L 36.9086,-6.41481 53.0395,0 c 6.4774,-12.0786 9.7161,-24.2355 9.7161,-36.4706 0,-6.0393 -1.1786,-12.0056 -3.5359,-17.8988 -2.6494,-2.7954 -7.0668,-5.2988 -13.2521,-7.5101 -6.1853,-2.2113 -16.7202,-3.3169 -31.6047,-3.3169 z"
                           style="fill:#f81436;fill-opacity:1;fill-rule:nonzero;stroke:none"
                           id="path155491" />
                      </g>
                    </g>
                  </g>
                </g>
              </g>
            </g>
          </g>
        </g>
      </g>
    </g>
  </g>
</svg>
