<?xml version="1.0" encoding="UTF-8" standalone="no"?>
<!-- Created with Inkscape (http://www.inkscape.org/) -->

<svg
   version="1.1"
   id="svg155149"
   width="400"
   height="200"
   viewBox="0 0 400 200"
   sodipodi:docname="15340_word.pdf"
   xmlns:inkscape="http://www.inkscape.org/namespaces/inkscape"
   xmlns:sodipodi="http://sodipodi.sourceforge.net/DTD/sodipodi-0.dtd"
   xmlns="http://www.w3.org/2000/svg"
   xmlns:svg="http://www.w3.org/2000/svg">
  <defs
     id="defs155153">
    <clipPath
       clipPathUnits="userSpaceOnUse"
       id="clipPath155171">
      <path
         d="M 0,-290.22314 H 300 V 290.22314 H 0 Z"
         id="path155169" />
    </clipPath>
  </defs>
  <sodipodi:namedview
     id="namedview155151"
     pagecolor="#ffffff"
     bordercolor="#000000"
     borderopacity="0.25"
     inkscape:showpageshadow="2"
     inkscape:pageopacity="0.0"
     inkscape:pagecheckerboard="0"
     inkscape:deskcolor="#d1d1d1" />
  <g
     id="g155155"
     inkscape:groupmode="layer"
     inkscape:label="15340_word69"
     transform="matrix(1.3333333,0,0,-1.3333333,0,200)">
    <g
       id="g155157">
      <g
         id="g155159">
        <g
           id="g155161"
           transform="translate(106.615,138.37125)">
          <g
             id="g155163"
             transform="matrix(0.33334,0,0,0.33334,0,-32.24799)">
            <g
               id="g155165">
              <g
                 id="g155167" />
              <g
                 id="g155215">
                <g
                   clip-path="url(#clipPath155171)"
                   id="g155213">
                  <g
                     transform="translate(0,-32.81305)"
                     id="g155179">
                    <g
                       id="g155177">
                      <g
                         id="g155175">
                        <path
                           d="m 116.484,-111.602 c -10.911,0 -18.9476,1.914 -24.1107,5.742 -5.1527,3.838 -9.2728,9.4396 -12.3602,16.8036 -2.0653,-6.4878 -7.0772,-11.8696 -15.0357,-16.1466 -7.9586,-4.266 -17.3148,-6.399 -28.0688,-6.399 -12.0786,0 -21.101,2.686 -27.06734,8.058 C 3.87496,-98.1623 0.59454,-89.3536 0,-77.1186 l 12.5949,2.4252 c 1.3352,-5.4552 3.8437,-9.544 7.5257,-12.2664 3.682,-2.7224 9.7213,-4.0836 18.1179,-4.0836 5.8933,0 11.6406,0.7719 17.2418,2.3156 5.6012,1.5437 10.1698,3.8645 13.7058,6.9624 1.6167,1.6168 2.9049,3.3065 3.8645,5.0693 0.9596,1.7732 1.4395,3.0301 1.4395,3.7706 v 0.4381 C 69.3269,-50.823 63.2824,-28.5016 56.3565,-5.523 L 72.503,0 79.3403,-26.7388 c 3.2439,-13.4033 6.9311,-27.6202 11.0616,-42.6507 2.5034,-8.8451 5.7786,-14.7436 9.8261,-17.6955 4.057,-2.9414 9.476,-4.4121 16.256,-4.4121 3.233,0 5.992,-0.8084 8.276,-2.4251 2.285,-1.6168 3.427,-4.1201 3.427,-7.5098 0,-6.78 -3.901,-10.17 -11.703,-10.17 z"
                           style="fill:#000000;fill-opacity:1;fill-rule:nonzero;stroke:none"
                           id="path155173" />
                      </g>
                    </g>
                  </g>
                  <g
                     transform="translate(121.87292,96.7425)"
                     id="g155187">
                    <g
                       id="g155185">
                      <g
                         id="g155183">
                        <path
                           d="M 1.54894,-20.105 0,-12.814 C 13.8518,-8.53744 25.7844,-4.26611 35.7978,0 l 1.3299,-7.94811 C 25.1951,-12.8088 13.3355,-16.861 1.54894,-20.105 Z"
                           style="fill:#000000;fill-opacity:1;fill-rule:nonzero;stroke:none"
                           id="path155181" />
                      </g>
                    </g>
                  </g>
                  <g
                     transform="translate(104.94808,16.0334)"
                     id="g155195">
                    <g
                       id="g155193">
                      <g
                         id="g155191">
                        <path
                           d="m 11.265,-160.449 c -4.42253,0 -7.40568,1.143 -8.94941,3.427 C 0.77186,-154.738 0,-152.417 0,-150.06 c 0,1.92 0.84488,4.016 2.53463,6.29 1.68976,2.284 4.59989,3.426 8.73037,3.426 8.1046,0 14.4047,2.102 18.9003,6.306 4.4955,4.203 6.7433,10.722 6.7433,19.557 L 31.6047,-1.31425 48.1737,0 53.4776,-116.249 c 0,-14.582 -3.609,-25.597 -10.8269,-33.044 -7.218,-7.437 -17.6799,-11.156 -31.3857,-11.156 z"
                           style="fill:#000000;fill-opacity:1;fill-rule:nonzero;stroke:none"
                           id="path155189" />
                      </g>
                    </g>
                  </g>
                  <g
                     transform="translate(194.58498,48.47407)"
                     id="g155203">
                    <g
                       id="g155201">
                      <g
                         id="g155199">
                        <path
                           d="M 1.54894,-20.105 0,-12.814 C 13.8518,-8.53744 25.7844,-4.26611 35.7978,0 l 1.3299,-7.94811 C 25.1951,-12.8088 13.3355,-16.861 1.54894,-20.105 Z"
                           style="fill:#f81436;fill-opacity:1;fill-rule:nonzero;stroke:none"
                           id="path155197" />
                      </g>
                    </g>
                  </g>
                  <g
                     transform="translate(162.84787,-55.79685)"
                     id="g155211">
                    <g
                       id="g155209">
                      <g
                         id="g155207">
                        <path
                           d="m 32.2618,-137.684 c -5.2987,0 -10.973,0.85 -17.0227,2.551 -6.03932,1.689 -11.11902,4.521 -15.2391,8.495 l 2.64415,13.049 c 6.92592,-3.985 16.13615,-5.977 27.63065,-5.977 12.8192,0 23.7974,4.24 32.9346,12.72 9.1372,8.4699 15.3955,19.1873 18.775,32.1526 -3.0874,-0.7406 -7.5048,-1.1109 -13.252,-1.1109 -7.5205,0 -14.4829,1.3977 -20.8873,4.1931 -6.4044,2.8058 -11.5988,7.0093 -15.5833,12.6106 -3.974,5.6012 -5.9611,12.6001 -5.9611,20.9967 0,10.754 3.536,19.7764 10.6079,27.0674 C 43.9806,-3.64549 52.0069,0 60.9877,0 c 8.553,0 15.4789,-2.80061 20.7777,-8.40184 5.3092,-5.59076 9.2519,-12.54796 11.8283,-20.87156 2.5763,-8.3237 3.8645,-16.6108 3.8645,-24.8614 0,-11.4945 -1.5437,-21.9563 -4.6312,-31.3856 -7.5204,-23.7196 -19.8233,-39.3386 -36.9086,-46.8596 -7.8125,-3.536 -15.698,-5.304 -23.6566,-5.304 z m 38.8957,80.8894 c 4.8606,0 9.1372,0.4433 12.8296,1.3299 -0.3025,8.9912 -1.7784,16.3917 -4.4278,22.2016 -2.6494,5.8202 -5.9298,10.0915 -9.8412,12.8139 -3.9011,2.7328 -7.7656,4.0993 -11.5936,4.0993 -6.1854,0 -10.754,-2.1383 -13.7058,-6.4149 -2.9415,-4.2661 -4.4122,-8.3914 -4.4122,-12.3759 0,-5.5908 1.6168,-9.9716 4.8502,-13.1425 3.244,-3.1709 7.2962,-5.3822 12.1569,-6.6339 4.8607,-1.2516 9.5753,-1.8775 14.1439,-1.8775 z"
                           style="fill:#f81436;fill-opacity:1;fill-rule:nonzero;stroke:none"
                           id="path155205" />
                      </g>
                    </g>
                  </g>
                </g>
              </g>
            </g>
          </g>
        </g>
      </g>
    </g>
  </g>
</svg>
