<?xml version="1.0" encoding="UTF-8" standalone="no"?>
<!-- Created with Inkscape (http://www.inkscape.org/) -->

<svg
   version="1.1"
   id="svg155365"
   width="400"
   height="200"
   viewBox="0 0 400 200"
   sodipodi:docname="15342_word.pdf"
   xmlns:inkscape="http://www.inkscape.org/namespaces/inkscape"
   xmlns:sodipodi="http://sodipodi.sourceforge.net/DTD/sodipodi-0.dtd"
   xmlns="http://www.w3.org/2000/svg"
   xmlns:svg="http://www.w3.org/2000/svg">
  <defs
     id="defs155369">
    <clipPath
       clipPathUnits="userSpaceOnUse"
       id="clipPath155387">
      <path
         d="M 0,-246.15719 H 300 V 246.15719 H 0 Z"
         id="path155385" />
    </clipPath>
  </defs>
  <sodipodi:namedview
     id="namedview155367"
     pagecolor="#ffffff"
     bordercolor="#000000"
     borderopacity="0.25"
     inkscape:showpageshadow="2"
     inkscape:pageopacity="0.0"
     inkscape:pagecheckerboard="0"
     inkscape:deskcolor="#d1d1d1" />
  <g
     id="g155371"
     inkscape:groupmode="layer"
     inkscape:label="15342_word71"
     transform="matrix(1.3333333,0,0,-1.3333333,0,200)">
    <g
       id="g155373">
      <g
         id="g155375">
        <g
           id="g155377"
           transform="translate(108.01,129.02558)">
          <g
             id="g155379"
             transform="matrix(0.33333,0,0,0.33333,0,-27.34998)">
            <g
               id="g155381">
              <g
                 id="g155383" />
              <g
                 id="g155415">
                <g
                   clip-path="url(#clipPath155387)"
                   id="g155413">
                  <g
                     transform="translate(0,-26.18756)"
                     id="g155395">
                    <g
                       id="g155393">
                      <g
                         id="g155391">
                        <path
                           d="m 33.3727,-137.918 c -14.1439,0 -25.26813,3.609 -33.3727,10.826 l 3.31693,13.925 c 3.682,-2.055 7.65607,-3.635 11.92217,-4.74 4.2765,-1.106 9.7317,-1.659 16.3656,-1.659 12.5167,0 23.0464,4.089 31.589,12.267 8.5531,8.1771 14.3786,18.3052 17.4765,30.3838 h -4.4278 c -13.2573,0 -23.5366,1.8775 -30.838,5.6326 -7.291,3.755 -12.4124,8.6521 -15.3643,14.6914 -2.9414,6.0498 -4.4121,12.4646 -4.4121,19.2445 0,10.0133 3.3899,18.7385 10.1698,26.1755 C 42.5777,-3.72372 50.7552,0 60.3305,0 c 4.8607,0 10.1281,-1.62196 15.8024,-4.86587 5.6742,-3.24391 10.5714,-8.99113 14.6915,-17.24173 4.1305,-8.2506 6.4148,-19.8912 6.8529,-34.9216 h 16.8037 c 3.244,0 6.008,-0.7719 8.292,-2.3156 2.285,-1.5438 3.427,-4.0106 3.427,-7.4005 0,-6.7799 -3.907,-10.1699 -11.719,-10.1699 H 96.1283 C 92.5923,-94.595 85.1136,-109.182 73.6921,-120.677 62.281,-132.171 48.8412,-137.918 33.3727,-137.918 Z m 49.5035,80.8888 c -0.5945,13.1216 -3.2491,23.1037 -7.9637,29.9462 -4.7146,6.8529 -10.5349,10.2793 -17.4608,10.2793 -5.2988,0 -9.5701,-1.914 -12.814,-5.742 -3.2439,-3.828 -4.8659,-8.0264 -4.8659,-12.595 0,-3.3899 0.9231,-6.7798 2.7694,-10.1698 1.8462,-3.3899 5.6012,-6.1905 11.265,-8.4018 5.6742,-2.2113 14.2586,-3.3169 25.7531,-3.3169 z"
                           style="fill:#f81436;fill-opacity:1;fill-rule:nonzero;stroke:none"
                           id="path155389" />
                      </g>
                    </g>
                  </g>
                  <g
                     transform="translate(169.4259,82.05116)"
                     id="g155403">
                    <g
                       id="g155401">
                      <g
                         id="g155399">
                        <path
                           d="M 1.54894,-20.105 0,-12.814 C 13.8518,-8.53744 25.7844,-4.26611 35.7978,0 l 1.3299,-7.94811 C 25.1951,-12.8088 13.3355,-16.861 1.54894,-20.105 Z"
                           style="fill:#000000;fill-opacity:1;fill-rule:nonzero;stroke:none"
                           id="path155397" />
                      </g>
                    </g>
                  </g>
                  <g
                     transform="translate(103.21402,-21.10265)"
                     id="g155411">
                    <g
                       id="g155409">
                      <g
                         id="g155407">
                        <path
                           d="M 13.7058,-82.0001 H 11.265 c -3.68196,0 -6.47736,0.9544 -8.38616,2.8632 C 0.95961,-77.2177 0,-74.8551 0,-72.0493 c 0,2.5033 0.85009,4.8189 2.55028,6.9468 1.68975,2.1382 4.59467,3.2074 8.71472,3.2074 h 2.6598 c 28.4338,0 53.4047,4.8659 74.9125,14.5976 l 7.7447,3.536 c 5.893,2.7954 11.046,4.9284 15.458,6.3991 -4.86,1.7732 -10.086,3.9115 -15.677,6.4148 -7.0824,3.244 -14.4151,6.2271 -21.9981,8.9495 -7.5831,2.7224 -14.8375,4.0836 -21.7634,4.0836 -11.6406,0 -21.5131,-1.6898 -29.6177,-5.0693 l 3.0979,18.11793 C 33.1536,-1.62196 42.0666,0 52.8205,0 c 9.4293,0 18.4882,-1.54894 27.1769,-4.64683 8.6991,-3.09788 17.247,-6.63387 25.6436,-10.60787 10.159,-4.5686 17.45,-7.4423 21.873,-8.6209 4.423,-1.1787 8.772,-1.768 13.049,-1.768 h 8.167 l -3.082,-18.337 h -3.536 c -10.17,0 -22.989,-4.7146 -38.458,-14.1439 C 87.7369,-67.4077 72.962,-73.7078 59.3292,-77.0247 45.7068,-80.3416 30.499,-82.0001 13.7058,-82.0001 Z m 67.6215,-47.2979 c -3.2439,0 -5.935,1.106 -8.0733,3.317 -2.1278,2.212 -3.1917,5.158 -3.1917,8.84 0,3.536 1.0639,6.41 3.1917,8.621 2.1383,2.211 4.9024,3.317 8.2923,3.317 6.926,0 10.6862,-3.979 11.2807,-11.938 0,-7.51 -3.8332,-11.562 -11.4997,-12.157 z"
                           style="fill:#000000;fill-opacity:1;fill-rule:nonzero;stroke:none"
                           id="path155405" />
                      </g>
                    </g>
                  </g>
                </g>
              </g>
            </g>
          </g>
        </g>
      </g>
    </g>
  </g>
</svg>
