<?xml version="1.0" encoding="UTF-8" standalone="no"?>
<!-- Created with Inkscape (http://www.inkscape.org/) -->

<svg
   version="1.1"
   id="svg158083"
   width="400"
   height="200"
   viewBox="0 0 400 200"
   sodipodi:docname="1535_word.pdf"
   xmlns:inkscape="http://www.inkscape.org/namespaces/inkscape"
   xmlns:sodipodi="http://sodipodi.sourceforge.net/DTD/sodipodi-0.dtd"
   xmlns="http://www.w3.org/2000/svg"
   xmlns:svg="http://www.w3.org/2000/svg">
  <defs
     id="defs158087">
    <clipPath
       clipPathUnits="userSpaceOnUse"
       id="clipPath158105">
      <path
         d="M 0,-164.2983 H 380.45495 V 164.2983 H 0 Z"
         id="path158103" />
    </clipPath>
  </defs>
  <sodipodi:namedview
     id="namedview158085"
     pagecolor="#ffffff"
     bordercolor="#000000"
     borderopacity="0.25"
     inkscape:showpageshadow="2"
     inkscape:pageopacity="0.0"
     inkscape:pagecheckerboard="0"
     inkscape:deskcolor="#d1d1d1" />
  <g
     id="g158089"
     inkscape:groupmode="layer"
     inkscape:label="1535_word76"
     transform="matrix(1.3333333,0,0,-1.3333333,0,200)">
    <g
       id="g158091">
      <g
         id="g158093">
        <g
           id="g158095"
           transform="translate(86.59167,122.38269)">
          <g
             id="g158097"
             transform="matrix(0.33333,0,0,0.33333,0,-18.25489)">
            <g
               id="g158099">
              <g
                 id="g158101" />
              <g
                 id="g158149">
                <g
                   clip-path="url(#clipPath158105)"
                   id="g158147">
                  <g
                     transform="translate(0,-28.18996)"
                     id="g158113">
                    <g
                       id="g158111">
                      <g
                         id="g158109">
                        <path
                           d="m 0,-70.5004 1.76798,16.131 c 4.71463,2.5033 9.65352,4.047 14.81662,4.6311 -8.55305,5.1632 -12.82959,12.1621 -12.82959,20.9968 0,8.9912 3.49946,16.0266 10.49839,21.10631 C 21.2523,-2.54506 29.4664,0 38.8957,0 49.0655,0 57.1701,-2.2843 63.2094,-6.8529 l -2.4251,-14.8166 c -5.6013,3.9844 -12.9705,5.9767 -22.1077,5.9767 -5.4447,0 -10.1229,-1.1422 -14.0343,-3.4265 -3.9011,-2.2843 -5.8516,-5.6377 -5.8516,-10.0603 0,-10.7539 11.1242,-16.5012 33.3727,-17.2417 h 18.337 l -4.8503,-16.35 H 47.0785 c -10.9,0 -19.8494,-0.5528 -26.8484,-1.6584 C 13.2312,-65.5354 6.48783,-67.5589 0,-70.5004 Z"
                           style="fill:#f81436;fill-opacity:1;fill-rule:nonzero;stroke:none"
                           id="path158107" />
                      </g>
                    </g>
                  </g>
                  <g
                     transform="translate(88.88815,53.57542)"
                     id="g158121">
                    <g
                       id="g158119">
                      <g
                         id="g158117">
                        <path
                           d="m 45.9676,-160.449 c -12.9652,0 -22.9473,3.463 -29.9462,10.389 -6.99894,6.926 -10.86347,18.713 -11.59361,35.36 L 0,-1.09521 16.5846,0 20.7777,-109.177 c 0.4381,-11.641 2.8684,-19.709 7.291,-24.204 4.4226,-4.485 10.3889,-6.806 17.8989,-6.963 3.2439,0 6.008,-0.808 8.2923,-2.425 2.2843,-1.616 3.4265,-4.12 3.4265,-7.51 0,-6.78 -3.9063,-10.17 -11.7188,-10.17 z"
                           style="fill:#f81436;fill-opacity:1;fill-rule:nonzero;stroke:none"
                           id="path158115" />
                      </g>
                    </g>
                  </g>
                  <g
                     transform="translate(122.70579,-32.61775)"
                     id="g158129">
                    <g
                       id="g158127">
                      <g
                         id="g158125">
                        <path
                           d="m 78.2451,-76.9152 c -12.5272,0 -26.16,5.4552 -40.8984,16.3656 -2.9414,-4.7146 -6.3313,-8.1776 -10.1698,-10.3888 -3.828,-2.2113 -8.8347,-3.317 -15.02,-3.317 -3.38999,0 -6.26362,0.8084 -8.62093,2.4251 C 1.17866,-70.2031 0,-67.6945 0,-64.3046 c 0,6.7695 3.97927,10.1542 11.9378,10.1542 h 1.1109 c 4.5686,0 8.2506,1.3612 11.046,4.0836 2.7954,2.7328 5.4447,7.8594 7.9481,15.3799 4.5686,12.5167 9.4292,21.4244 14.5819,26.72315 C 51.7879,-2.65458 58.5678,0 66.9644,0 c 6.1958,0 11.6875,-1.841 16.4751,-5.523 4.7876,-3.682 8.7617,-8.3966 11.9222,-14.1439 3.1709,-5.7472 5.4183,-11.7135 6.7433,-17.8989 3.244,-7.0719 6.446,-11.604 9.607,-13.5962 3.171,-1.9923 6.378,-2.9884 9.622,-2.9884 3.244,0 6.008,-0.8084 8.292,-2.4251 2.284,-1.6168 3.427,-4.1201 3.427,-7.51 0,-6.7799 -3.907,-10.1699 -11.719,-10.1699 -8.835,0 -15.907,3.682 -21.216,11.046 -5.0067,-9.1372 -12.2977,-13.7058 -21.8729,-13.7058 z m 0.4381,19.4635 c 6.9259,0 10.3888,3.0927 10.3888,9.278 0,4.4226 -0.9961,9.0277 -2.9883,13.8153 -1.9923,4.7877 -4.7199,8.8347 -8.1828,12.1412 -3.4526,3.317 -7.3901,4.9754 -11.8127,4.9754 -4.2765,0 -8.1463,-1.7314 -11.6092,-5.1944 -3.463,-3.4525 -6.8164,-10.1907 -10.0603,-20.2145 4.2765,-3.828 9.5805,-7.2545 15.9118,-10.2793 6.3418,-3.0145 12.4594,-4.5217 18.3527,-4.5217 z"
                           style="fill:#000000;fill-opacity:1;fill-rule:nonzero;stroke:none"
                           id="path158123" />
                      </g>
                    </g>
                  </g>
                  <g
                     transform="translate(301.81699,54.76539)"
                     id="g158137">
                    <g
                       id="g158135">
                      <g
                         id="g158133">
                        <path
                           d="M 1.54894,-20.105 0,-12.814 C 13.8518,-8.53744 25.7844,-4.26611 35.7978,0 l 1.3299,-7.94811 C 25.1951,-12.8088 13.3355,-16.861 1.54894,-20.105 Z"
                           style="fill:#000000;fill-opacity:1;fill-rule:nonzero;stroke:none"
                           id="path158131" />
                      </g>
                    </g>
                  </g>
                  <g
                     transform="translate(232.60135,-38.57883)"
                     id="g158145">
                    <g
                       id="g158143">
                      <g
                         id="g158141">
                        <path
                           d="m 114.919,-68.2943 c -11.933,0 -19.8129,5.1579 -23.6409,15.4738 -5.6012,-10.3159 -14.3682,-15.4738 -26.3007,-15.4738 -11.4946,0 -18.5717,5.377 -21.2315,16.1309 C 36.674,-62.9173 25.847,-68.2943 11.265,-68.2943 c -4.27651,0 -7.22315,1.0692 -8.83989,3.2074 C 0.80837,-62.9486 0,-60.7008 0,-58.3435 c 0,2.7954 0.8866,5.184 2.6598,7.1658 1.76277,1.9923 4.63118,2.9884 8.6052,2.9884 10.754,0 18.4517,2.7641 23.0934,8.2923 4.6416,5.5282 7.7708,13.0069 9.3875,22.4362 l 14.1595,0.6571 c -2.0652,-6.4774 -3.0979,-12.0734 -3.0979,-16.788 0,-10.3159 4.0523,-15.4738 12.1569,-15.4738 5.8933,0 10.6809,2.06 14.3629,6.1801 3.682,4.1305 6.4826,11.7188 8.4018,22.7648 l 13.9249,0.6728 c -0.156,-0.2921 -0.235,-0.6624 -0.235,-1.1109 -1.022,-3.2439 -1.533,-7.2232 -1.533,-11.9378 0,-10.9 5.007,-16.3499 15.02,-16.3499 4.861,0 8.913,1.5802 12.157,4.7407 3.244,3.1709 4.866,7.2649 4.866,12.282 0,3.828 -0.777,8.3184 -2.331,13.4711 -1.544,5.1631 -3.276,9.73172 -5.195,13.70577 L 142.55,0 c 3.536,-6.92591 5.304,-16.5012 5.304,-28.7258 0,-12.5272 -3.208,-22.2537 -9.623,-29.1796 -6.404,-6.9259 -14.175,-10.3889 -23.312,-10.3889 z"
                           style="fill:#000000;fill-opacity:1;fill-rule:nonzero;stroke:none"
                           id="path158139" />
                      </g>
                    </g>
                  </g>
                </g>
              </g>
            </g>
          </g>
        </g>
      </g>
    </g>
  </g>
</svg>
