<?xml version="1.0" encoding="UTF-8" standalone="no"?>
<!-- Created with Inkscape (http://www.inkscape.org/) -->

<svg
   version="1.1"
   id="svg159643"
   width="400"
   height="200"
   viewBox="0 0 400 200"
   sodipodi:docname="1536_word.pdf"
   xmlns:inkscape="http://www.inkscape.org/namespaces/inkscape"
   xmlns:sodipodi="http://sodipodi.sourceforge.net/DTD/sodipodi-0.dtd"
   xmlns="http://www.w3.org/2000/svg"
   xmlns:svg="http://www.w3.org/2000/svg">
  <defs
     id="defs159647">
    <clipPath
       clipPathUnits="userSpaceOnUse"
       id="clipPath159665">
      <path
         d="m 0,-244.60825 h 530.78511 v 489.2165 H 0 Z"
         id="path159663" />
    </clipPath>
  </defs>
  <sodipodi:namedview
     id="namedview159645"
     pagecolor="#ffffff"
     bordercolor="#000000"
     borderopacity="0.25"
     inkscape:showpageshadow="2"
     inkscape:pageopacity="0.0"
     inkscape:pagecheckerboard="0"
     inkscape:deskcolor="#d1d1d1" />
  <g
     id="g159649"
     inkscape:groupmode="layer"
     inkscape:label="1536_word78"
     transform="matrix(1.3333333,0,0,-1.3333333,0,200)">
    <g
       id="g159651">
      <g
         id="g159653">
        <g
           id="g159655"
           transform="translate(61.535,129.76842)">
          <g
             id="g159657"
             transform="matrix(0.33334,0,0,0.33334,0,-27.1792)">
            <g
               id="g159659">
              <g
                 id="g159661" />
              <g
                 id="g159725">
                <g
                   clip-path="url(#clipPath159665)"
                   id="g159723">
                  <g
                     transform="translate(0,-24.93391)"
                     id="g159673">
                    <g
                       id="g159671">
                      <g
                         id="g159669">
                        <path
                           d="m 0,-70.5004 1.76798,16.131 c 4.71463,2.5033 9.65352,4.047 14.81662,4.6311 -8.55305,5.1632 -12.82959,12.1621 -12.82959,20.9968 0,8.9912 3.49946,16.0266 10.49839,21.10631 C 21.2523,-2.54506 29.4664,0 38.8957,0 49.0655,0 57.1701,-2.2843 63.2094,-6.8529 l -2.4251,-14.8166 c -5.6013,3.9844 -12.9705,5.9767 -22.1077,5.9767 -5.4447,0 -10.1229,-1.1422 -14.0343,-3.4265 -3.9011,-2.2843 -5.8516,-5.6377 -5.8516,-10.0603 0,-10.7539 11.1242,-16.5012 33.3727,-17.2417 h 18.337 l -4.8503,-16.35 H 47.0785 c -10.9,0 -19.8494,-0.5528 -26.8484,-1.6584 C 13.2312,-65.5354 6.48783,-67.5589 0,-70.5004 Z"
                           style="fill:#f81436;fill-opacity:1;fill-rule:nonzero;stroke:none"
                           id="path159667" />
                      </g>
                    </g>
                  </g>
                  <g
                     transform="translate(90.43709,56.83148)"
                     id="g159681">
                    <g
                       id="g159679">
                      <g
                         id="g159677">
                        <path
                           d="M 22.7648,-160.449 H 6.19577 L 0,-1.31425 16.5846,0 Z"
                           style="fill:#f81436;fill-opacity:1;fill-rule:nonzero;stroke:none"
                           id="path159675" />
                      </g>
                    </g>
                  </g>
                  <g
                     transform="translate(98.21322,-41.06481)"
                     id="g159689">
                    <g
                       id="g159687">
                      <g
                         id="g159685">
                        <path
                           d="m 39.7875,-122.007 h -4.1931 c -16.0631,0 -27.92792,3.093 -35.5944,9.278 l 2.00267,14.379 c 2.20086,-1.773 5.06927,-3.249 8.60523,-4.428 3.536,-1.178 7.1085,-2.06 10.7174,-2.644 3.6195,-0.595 6.7538,-0.965 9.4032,-1.111 l 3.755,-0.438 c 11.2025,1.909 19.8234,7.6927 25.8627,17.3514 6.0393,9.6483 9.424,20.3657 10.1542,32.1523 -1.7628,12.5271 -8.1672,28.9553 -19.2132,49.2845 L 67.4181,0 c 4.7146,-9.42925 8.7669,-18.5664 12.1569,-27.4116 2.7954,-5.7472 6.0341,-9.69 9.7161,-11.8283 3.682,-2.1382 7.9533,-3.2074 12.8139,-3.2074 3.244,0 6.008,-0.8084 8.292,-2.4251 2.285,-1.6167 3.427,-4.1201 3.427,-7.51 0,-6.7799 -3.906,-10.1698 -11.719,-10.1698 -6.6234,0 -11.8491,1.2516 -15.6771,3.755 0,-3.8281 -0.2973,-7.218 -0.8919,-10.1699 C 83.3248,-81.3377 78.8657,-92.9 72.1588,-103.654 65.4624,-114.418 54.6719,-120.536 39.7875,-122.007 Z"
                           style="fill:#000000;fill-opacity:1;fill-rule:nonzero;stroke:none"
                           id="path159683" />
                      </g>
                    </g>
                  </g>
                  <g
                     transform="translate(252.92973,81.53683)"
                     id="g159697">
                    <g
                       id="g159695">
                      <g
                         id="g159693">
                        <path
                           d="M 1.54894,-20.105 0,-12.814 C 13.8518,-8.53744 25.7844,-4.26611 35.7978,0 l 1.3299,-7.94811 C 25.1951,-12.8088 13.3355,-16.861 1.54894,-20.105 Z"
                           style="fill:#000000;fill-opacity:1;fill-rule:nonzero;stroke:none"
                           id="path159691" />
                      </g>
                    </g>
                  </g>
                  <g
                     transform="translate(186.71785,-21.61698)"
                     id="g159705">
                    <g
                       id="g159703">
                      <g
                         id="g159701">
                        <path
                           d="m 161.778,-82.0001 c -12.965,0 -22.983,2.8006 -30.055,8.4019 -7.072,5.6012 -11.052,14.5871 -11.938,26.9578 -5.601,-2.2113 -11.641,-5.3039 -18.118,-9.278 -14.5924,-9.5753 -28.2982,-16.3186 -41.1174,-20.2301 -12.8192,-3.9011 -29.2474,-5.8516 -49.2846,-5.8516 -3.68196,0 -6.47736,0.9544 -8.38616,2.8632 C 0.95961,-77.2177 0,-74.8551 0,-72.0493 c 0,2.5033 0.85009,4.8189 2.55028,6.9468 1.68975,2.1382 4.59467,3.2074 8.71472,3.2074 h 2.6598 c 28.1418,0 50.9013,4.4226 68.2787,13.2677 l 13.4867,6.6338 c 5.7468,2.9415 10.6078,5.0745 14.5818,6.3992 -5.153,1.6272 -10.7485,3.6924 -16.7878,6.1958 -6.6339,2.9414 -13.5598,5.5908 -20.7778,7.9481 -7.2179,2.3573 -14.5819,3.536 -22.092,3.536 -12.235,0 -21.9616,-1.9871 -29.1795,-5.9611 l 3.3169,18.33696 C 31.6777,-1.84621 40.5906,0 51.4906,0 c 9.5753,0 18.8168,-1.43942 27.7245,-4.31826 8.9182,-2.86842 18.0919,-6.58694 27.5209,-11.15554 7.813,-3.3899 14.259,-5.6012 19.339,-6.6338 5.09,-1.0327 10.065,-1.549 14.926,-1.549 h 6.415 l -3.098,-18.337 h -5.977 c -1.763,0 -3.677,-0.146 -5.742,-0.438 0.886,-7.8125 4.089,-13.0122 9.606,-15.599 5.529,-2.5763 12.053,-3.8645 19.573,-3.8645 3.244,0 6.003,-0.8084 8.277,-2.4251 2.284,-1.6168 3.427,-4.1201 3.427,-7.5101 0,-6.7798 -3.901,-10.1698 -11.704,-10.1698 z"
                           style="fill:#000000;fill-opacity:1;fill-rule:nonzero;stroke:none"
                           id="path159699" />
                      </g>
                    </g>
                  </g>
                  <g
                     transform="translate(433.93634,74.11092)"
                     id="g159713">
                    <g
                       id="g159711">
                      <g
                         id="g159709">
                        <path
                           d="M 1.54894,-20.105 0,-12.814 C 13.8518,-8.53744 25.7844,-4.26611 35.7978,0 l 1.3299,-7.94811 C 25.1951,-12.8088 13.3355,-16.861 1.54894,-20.105 Z"
                           style="fill:#000000;fill-opacity:1;fill-rule:nonzero;stroke:none"
                           id="path159707" />
                      </g>
                    </g>
                  </g>
                  <g
                     transform="translate(336.94825,-18.08101)"
                     id="g159721">
                    <g
                       id="g159719">
                      <g
                         id="g159717">
                        <path
                           d="m 106.095,-87.085 c -14.5927,0 -25.8316,1.1057 -33.7171,3.3169 -7.8751,2.2113 -13.7319,5.1215 -17.5704,8.7304 -3.828,3.609 -6.8477,7.4788 -9.0589,11.6093 -2.7954,-6.4878 -7.1763,-11.797 -13.1426,-15.9275 -5.9663,-4.1201 -13.0747,-6.1801 -21.3253,-6.1801 -4.13053,0 -7.04067,1.0691 -8.73042,3.2074 C 0.85009,-80.1904 0,-77.9426 0,-75.5853 c 0,2.6494 0.95961,5.0015 2.87884,7.0563 1.91923,2.0653 4.71984,3.0979 8.40186,3.0979 8.3966,0 14.6915,1.9505 18.8846,5.8516 4.2035,3.9114 7.1501,8.9964 8.8399,15.2547 1.7002,6.2688 2.9206,13.0852 3.6611,20.4492 l 13.9249,0.8918 c -0.8866,-4.5686 -1.3299,-9.2102 -1.3299,-13.9248 0,-6.6339 1.2151,-11.9066 3.6455,-15.818 2.4303,-3.9011 5.8567,-6.879 10.2793,-8.9338 5.8933,9.5753 12.9652,19.041 21.2158,28.3973 8.2506,9.3562 17.4191,17.2365 27.5051,23.64088 C 128.004,-3.20741 138.727,0 150.075,0 c 8.981,0 16.715,-2.10176 23.203,-6.30529 6.488,-4.20351 11.536,-9.47101 15.145,-15.80231 3.609,-6.3314 5.414,-12.887 5.414,-19.6669 0,-8.6991 -2.947,-16.0683 -8.84,-22.1076 -15.031,-15.4686 -41.331,-23.2029 -78.902,-23.2029 z m 1.987,19.6669 c 8.25,0 16.537,0.4068 24.861,1.2204 8.324,0.8136 15.067,1.9557 20.23,3.4264 7.218,2.0653 13.477,4.7877 18.775,8.1672 5.309,3.3899 7.964,7.4474 7.964,12.1725 0,3.828 -1.252,7.6195 -3.755,11.3745 -2.503,3.755 -6.191,6.9207 -11.062,9.4971 -4.86,2.5868 -10.9,3.8802 -18.118,3.8802 -5.152,0 -11.306,-1.549 -18.462,-4.6469 -7.145,-3.0979 -14.623,-8.1098 -22.436,-15.0357 -7.802,-6.9259 -15.6093,-16.2039 -23.4218,-27.834 3.2439,-0.7406 6.5974,-1.2986 10.0603,-1.6741 3.463,-0.3651 8.5845,-0.5476 15.3645,-0.5476 z"
                           style="fill:#000000;fill-opacity:1;fill-rule:nonzero;stroke:none"
                           id="path159715" />
                      </g>
                    </g>
                  </g>
                </g>
              </g>
            </g>
          </g>
        </g>
      </g>
    </g>
  </g>
</svg>
