<?xml version="1.0" encoding="UTF-8" standalone="no"?>
<!-- Created with Inkscape (http://www.inkscape.org/) -->

<svg
   version="1.1"
   id="svg159859"
   width="400"
   height="200"
   viewBox="0 0 400 200"
   sodipodi:docname="1537_word.pdf"
   xmlns:inkscape="http://www.inkscape.org/namespaces/inkscape"
   xmlns:sodipodi="http://sodipodi.sourceforge.net/DTD/sodipodi-0.dtd"
   xmlns="http://www.w3.org/2000/svg"
   xmlns:svg="http://www.w3.org/2000/svg">
  <defs
     id="defs159863">
    <clipPath
       clipPathUnits="userSpaceOnUse"
       id="clipPath159881">
      <path
         d="M 0,-160.44854 H 300 V 160.44854 H 0 Z"
         id="path159879" />
    </clipPath>
  </defs>
  <sodipodi:namedview
     id="namedview159861"
     pagecolor="#ffffff"
     bordercolor="#000000"
     borderopacity="0.25"
     inkscape:showpageshadow="2"
     inkscape:pageopacity="0.0"
     inkscape:pagecheckerboard="0"
     inkscape:deskcolor="#d1d1d1" />
  <g
     id="g159865"
     inkscape:groupmode="layer"
     inkscape:label="1537_word80"
     transform="matrix(1.3333333,0,0,-1.3333333,0,200)">
    <g
       id="g159867">
      <g
         id="g159869">
        <g
           id="g159871"
           transform="translate(112.38333,121.74111)">
          <g
             id="g159873"
             transform="matrix(0.33333,0,0,0.33333,0,-17.8272)">
            <g
               id="g159875">
              <g
                 id="g159877" />
              <g
                 id="g159909">
                <g
                   clip-path="url(#clipPath159881)"
                   id="g159907">
                  <g
                     transform="translate(0,-28.28317)"
                     id="g159889">
                    <g
                       id="g159887">
                      <g
                         id="g159885">
                        <path
                           d="m 0,-70.5004 1.76798,16.131 c 4.71463,2.5033 9.65352,4.047 14.81662,4.6311 -8.55305,5.1632 -12.82959,12.1621 -12.82959,20.9968 0,8.9912 3.49946,16.0266 10.49839,21.10631 C 21.2523,-2.54506 29.4664,0 38.8957,0 49.0655,0 57.1701,-2.2843 63.2094,-6.8529 l -2.4251,-14.8166 c -5.6013,3.9844 -12.9705,5.9767 -22.1077,5.9767 -5.4447,0 -10.1229,-1.1422 -14.0343,-3.4265 -3.9011,-2.2843 -5.8516,-5.6377 -5.8516,-10.0603 0,-10.7539 11.1242,-16.5012 33.3727,-17.2417 h 18.337 l -4.8503,-16.35 H 47.0785 c -10.9,0 -19.8494,-0.5528 -26.8484,-1.6584 C 13.2312,-65.5354 6.48783,-67.5589 0,-70.5004 Z"
                           style="fill:#f81436;fill-opacity:1;fill-rule:nonzero;stroke:none"
                           id="path159883" />
                      </g>
                    </g>
                  </g>
                  <g
                     transform="translate(88.88815,53.48222)"
                     id="g159897">
                    <g
                       id="g159895">
                      <g
                         id="g159893">
                        <path
                           d="m 45.9676,-160.449 c -12.9652,0 -22.9473,3.463 -29.9462,10.389 -6.99894,6.926 -10.86347,18.713 -11.59361,35.36 L 0,-1.09521 16.5846,0 20.7777,-109.177 c 0.4381,-11.641 2.8684,-19.709 7.291,-24.204 4.4226,-4.485 10.3889,-6.806 17.8989,-6.963 3.2439,0 6.008,-0.808 8.2923,-2.425 2.2843,-1.616 3.4265,-4.12 3.4265,-7.51 0,-6.78 -3.9063,-10.17 -11.7188,-10.17 z"
                           style="fill:#f81436;fill-opacity:1;fill-rule:nonzero;stroke:none"
                           id="path159891" />
                      </g>
                    </g>
                  </g>
                  <g
                     transform="translate(122.70579,-30.05115)"
                     id="g159905">
                    <g
                       id="g159903">
                      <g
                         id="g159901">
                        <path
                           d="m 77.7913,-76.9152 c -12.3706,0 -25.774,5.45 -40.2099,16.35 -2.8058,-5.7473 -6.0862,-9.9091 -9.8412,-12.4854 -3.7551,-2.5764 -8.9495,-3.8646 -15.5833,-3.8646 -3.38999,0 -6.26362,0.8084 -8.62093,2.4251 C 1.17866,-72.8629 0,-70.2813 0,-66.7453 c 0,2.3573 0.85009,4.5998 2.55028,6.7277 1.68975,2.1383 4.89195,3.2074 9.60662,3.2074 h 0.6727 c 5.0067,0 8.9443,1.622 11.8127,4.8659 2.8788,3.2439 5.3456,8.1097 7.4005,14.5976 4.4225,13.1112 9.2467,22.6135 14.4724,28.50678 C 51.7514,-2.94664 58.5678,0 66.9644,0 74.6309,0 81.1135,-2.61808 86.4122,-7.85423 91.7214,-13.08 95.8102,-19.4896 98.6786,-27.083 c 2.8784,-7.5831 4.3184,-14.8375 4.3184,-21.7634 0,-8.2506 -2.436,-14.994 -7.3068,-20.2302 -4.8606,-5.2257 -10.8269,-7.8386 -17.8989,-7.8386 z m 0.8919,19.4479 c 6.9259,0 10.3888,3.0926 10.3888,9.278 0,6.6338 -2.3208,13.4502 -6.9624,20.4491 -4.6416,6.999 -9.9821,10.4984 -16.0214,10.4984 -4.2765,0 -8.1098,-1.7314 -11.4997,-5.1944 -3.39,-3.463 -6.6287,-10.2063 -9.7161,-20.2301 4.2661,-3.8281 9.4918,-7.2545 15.6772,-10.2794 6.1957,-3.0144 12.2403,-4.5216 18.1336,-4.5216 z"
                           style="fill:#000000;fill-opacity:1;fill-rule:nonzero;stroke:none"
                           id="path159899" />
                      </g>
                    </g>
                  </g>
                </g>
              </g>
            </g>
          </g>
        </g>
      </g>
    </g>
  </g>
</svg>
