<?xml version="1.0" encoding="UTF-8" standalone="no"?>
<!-- Created with Inkscape (http://www.inkscape.org/) -->

<svg
   version="1.1"
   id="svg159937"
   width="400"
   height="400"
   viewBox="0 0 400 400"
   sodipodi:docname="1538_pic.pdf"
   xmlns:inkscape="http://www.inkscape.org/namespaces/inkscape"
   xmlns:sodipodi="http://sodipodi.sourceforge.net/DTD/sodipodi-0.dtd"
   xmlns="http://www.w3.org/2000/svg"
   xmlns:svg="http://www.w3.org/2000/svg">
  <defs
     id="defs159941">
    <clipPath
       clipPathUnits="userSpaceOnUse"
       id="clipPath159957">
      <path
         d="M 0,0 H 117.63763 V -196.1005 H 0 Z"
         clip-rule="evenodd"
         id="path159955" />
    </clipPath>
    <clipPath
       clipPathUnits="userSpaceOnUse"
       id="clipPath159967">
      <path
         d="M 0,-588.2997 H 352.91249 V 588.2997 H 0 Z"
         id="path159965" />
    </clipPath>
  </defs>
  <sodipodi:namedview
     id="namedview159939"
     pagecolor="#ffffff"
     bordercolor="#000000"
     borderopacity="0.25"
     inkscape:showpageshadow="2"
     inkscape:pageopacity="0.0"
     inkscape:pagecheckerboard="0"
     inkscape:deskcolor="#d1d1d1" />
  <g
     id="g159943"
     inkscape:groupmode="layer"
     inkscape:label="1538_pic81"
     transform="matrix(1.3333333,0,0,-1.3333333,0,400)">
    <g
       id="g159945">
      <g
         id="g159947">
        <g
           id="g159949"
           transform="translate(91.1811,248.0502)">
          <g
             id="g159951">
            <g
               id="g159953"
               clip-path="url(#clipPath159957)">
              <g
                 id="g159959"
                 transform="matrix(0.33333,0,0,0.33333,0,-65.36697)">
                <g
                   id="g159961">
                  <g
                     id="g159963" />
                  <g
                     id="g160107">
                    <g
                       clip-path="url(#clipPath159967)"
                       id="g160105">
                      <g
                         transform="translate(143.68633,-81.77706)"
                         id="g159975">
                        <g
                           id="g159973">
                          <g
                             id="g159971">
                            <path
                               d="m 54.066,-7.47865 c 4.945,7.60101 15.051,9.766 22.645,4.833 7.589,-4.926 9.748,-15.06095 4.811,-22.65295 L 30.089,-108.4 c -4.914,-7.578 -15.057,-9.733 -22.63904,-4.819 -7.574,4.923 -9.727,15.0664 -4.815,22.6524 z"
                               style="fill:#e0a769;fill-opacity:1;fill-rule:nonzero;stroke:none"
                               id="path159969" />
                          </g>
                        </g>
                      </g>
                      <g
                         transform="translate(75.49749,166.1077)"
                         id="g159983">
                        <g
                           id="g159981">
                          <g
                             id="g159979">
                            <path
                               d="M 239.283,-456.874 0,-20.954 38.124,0 277.415,-435.945 Z"
                               style="fill:#9e5a43;fill-opacity:1;fill-rule:nonzero;stroke:none"
                               id="path159977" />
                          </g>
                        </g>
                      </g>
                      <g
                         transform="translate(86.03069,160.3095)"
                         id="g159991">
                        <g
                           id="g159989">
                          <g
                             id="g159987">
                            <path
                               d="M 153.628,-248.819 17.055,0 0,-9.371 139.314,-263.162 Z"
                               style="fill:#b56a55;fill-opacity:1;fill-rule:nonzero;stroke:none"
                               id="path159985" />
                          </g>
                        </g>
                      </g>
                      <g
                         transform="translate(147.81549,196.1004)"
                         id="g159999">
                        <g
                           id="g159997">
                          <g
                             id="g159995">
                            <path
                               d="M 30.252,-68.368 54.38,-55.104 24.06,0 0,-13.367 Z"
                               style="fill:#bfbfbf;fill-opacity:1;fill-rule:nonzero;stroke:none"
                               id="path159993" />
                          </g>
                        </g>
                      </g>
                      <g
                         transform="translate(0,169.4612)"
                         id="g160007">
                        <g
                           id="g160005">
                          <g
                             id="g160003">
                            <path
                               d="M 51.3049,-39.692 C -8.94511,-77.458 -1.93411,-145.239 3.37889,-158.176 c 0.879,-2.143 2.561,-8.852 6.81701,-9.191 3.909,-0.317 5.113,5.003 5.113,7.551 -0.002,37.638 19.872,59.214 39.369,70.068 16.656,9.206 29.651,7.986 38.677,1.431 L 153.944,-54.991 123.696,0 c 0,0 -71.7911,-39.403 -72.3911,-39.692 z"
                               style="fill:#bfbfbf;fill-opacity:1;fill-rule:nonzero;stroke:none"
                               id="path160001" />
                          </g>
                        </g>
                      </g>
                      <g
                         transform="translate(161.47799,182.3793)"
                         id="g160015">
                        <g
                           id="g160013">
                          <g
                             id="g160011">
                            <path
                               d="m 0,-3.584 20.563,-37.378 6.469,3.554 L 6.447,0 Z"
                               style="fill:#d0d0d0;fill-opacity:1;fill-rule:nonzero;stroke:none"
                               id="path160009" />
                          </g>
                        </g>
                      </g>
                      <g
                         transform="translate(10.46329,155.7894)"
                         id="g160023">
                        <g
                           id="g160021">
                          <g
                             id="g160019">
                            <path
                               d="M 45.973,-34.687 C 11.04,-56.702 1.477,-89.914 0,-113.43 c 8.879,25.446 27.117,39.376 39.315,46.164 19.963,11.028 34.656,8.523 43.727,4.205 L 129.81,-37.353 109.257,0 C 59.193,-27.473 48.445,-33.351 45.973,-34.687 Z"
                               style="fill:#d0d0d0;fill-opacity:1;fill-rule:nonzero;stroke:none"
                               id="path160017" />
                          </g>
                        </g>
                      </g>
                      <g
                         transform="translate(123.69689,182.7319)"
                         id="g160031">
                        <g
                           id="g160029">
                          <g
                             id="g160027">
                            <path
                               d="M 15.21,-12.349 C 10.259,-15.073 4.691,-15.245 0.319,-13.094 L 0,-13.271 l 30.248,-54.991 0.327,0.178 c 0.532,4.829 3.582,9.561 8.542,12.268 4.939,2.726 10.56,2.778 14.929,0.646 L 54.37,-55.001 24.118,0 23.799,-0.177 c -0.531,-4.84 -3.64,-9.458 -8.589,-12.172 z"
                               style="fill:#bfbfbf;fill-opacity:1;fill-rule:nonzero;stroke:none"
                               id="path160025" />
                          </g>
                        </g>
                      </g>
                      <g
                         transform="translate(143.48914,-122.84459)"
                         id="g160039">
                        <g
                           id="g160037">
                          <g
                             id="g160035">
                            <path
                               d="m 42.3403,-7.49251 c 9.983,9.983 26.087,9.986 36.039,0.033 9.953,-9.95399 9.949,-26.10299 -0.018,-36.05399 l -34.875,-34.875 c -9.951,-9.969 -26.087,-9.95 -36.02705,-0.01 -9.942,9.942 -9.948,26.066 -0.004,36.029 z"
                               style="fill:#e0a769;fill-opacity:1;fill-rule:nonzero;stroke:none"
                               id="path160033" />
                          </g>
                        </g>
                      </g>
                      <g
                         transform="translate(59.14059,-190.7359)"
                         id="g160047">
                        <g
                           id="g160045">
                          <g
                             id="g160043">
                            <path
                               d="M 90.459,-185.76 0,-95.301 102.308,0 185.764,-83.448 Z"
                               style="fill:#ffd097;fill-opacity:1;fill-rule:nonzero;stroke:none"
                               id="path160041" />
                          </g>
                        </g>
                      </g>
                      <g
                         transform="translate(43.43959,-205.9013)"
                         id="g160055">
                        <g
                           id="g160053">
                          <g
                             id="g160051">
                            <path
                               d="M 92.468,0 0,-92.468 l 93.833,-93.83 92.468,92.465 z"
                               style="fill:#da3546;fill-opacity:1;fill-rule:nonzero;stroke:none"
                               id="path160049" />
                          </g>
                        </g>
                      </g>
                      <g
                         transform="translate(154.73314,-116.8289)"
                         id="g160063">
                        <g
                           id="g160061">
                          <g
                             id="g160059">
                            <path
                               d="M 71.7808,0 5.79975,-65.979 c -7.736,-7.74 -7.732,-20.288 0.006,-28.023 l 69.29005,-69.291 c 7.746,-7.746 20.296,-7.739 28.0292,-0.014 l 65.982,65.981 z"
                               style="fill:#ffd097;fill-opacity:1;fill-rule:nonzero;stroke:none"
                               id="path160057" />
                          </g>
                        </g>
                      </g>
                      <g
                         transform="translate(150.36989,-75.84075)"
                         id="g160071">
                        <g
                           id="g160069">
                          <g
                             id="g160067">
                            <path
                               d="m 110.246,-4.80875 c 6.407,6.416 16.749,6.401 23.144,0.019 6.399,-6.39805 6.399,-16.77405 0,-23.16305 L 27.929,-133.45 c -6.376,-6.398 -16.759,-6.395 -23.133,-0.011 -6.395,6.395 -6.391,16.753 -0.01,23.154 z"
                               style="fill:#ffd097;fill-opacity:1;fill-rule:nonzero;stroke:none"
                               id="path160065" />
                          </g>
                        </g>
                      </g>
                      <g
                         transform="translate(232.2507,-100.71535)"
                         id="g160079">
                        <g
                           id="g160077">
                          <g
                             id="g160075">
                            <path
                               d="m 54.479,-4.80375 c 6.412,6.411 16.759,6.401 23.154,-0.006 6.395,-6.38505 6.393,-16.75305 -0.006,-23.14205 l -50.114,-50.124 c -6.393,-6.393 -15.861,-5.495 -22.23002,0.912 -6.399,6.399 -7.315,15.847 -0.924,22.24 z"
                               style="fill:#ffd097;fill-opacity:1;fill-rule:nonzero;stroke:none"
                               id="path160073" />
                          </g>
                        </g>
                      </g>
                      <g
                         transform="translate(254.93126,-136.4991)"
                         id="g160087">
                        <g
                           id="g160085">
                          <g
                             id="g160083">
                            <path
                               d="m 46.9871,-4.7955 c 6.424,6.397 16.759,6.393 23.156,-0.006 6.389,-6.391 6.401,-16.761 0.006,-23.154 l -42.213,-42.197 c -6.374,-6.401 -16.751,-6.414 -23.14197,0 -6.397,6.372 -6.384,16.751 -0.01,23.154 z"
                               style="fill:#ffd097;fill-opacity:1;fill-rule:nonzero;stroke:none"
                               id="path160081" />
                          </g>
                        </g>
                      </g>
                      <g
                         transform="translate(233.10953,-177.7761)"
                         id="g160095">
                        <g
                           id="g160093">
                          <g
                             id="g160091">
                            <path
                               d="m 79.4248,-4.4755 c 5.965,5.965 15.626,5.971 21.5862,-0.004 5.963,-5.965 5.967,-15.64 0.015,-21.595 L 26.0678,-101.041 c -5.94,-5.969 -15.628,-5.967 -21.60104,0.015 -5.965,5.9655 -5.952,15.6305 0.017,21.6095 z"
                               style="fill:#ffd097;fill-opacity:1;fill-rule:nonzero;stroke:none"
                               id="path160089" />
                          </g>
                        </g>
                      </g>
                      <g
                         transform="translate(304.32339,-232.4208)"
                         id="g160103">
                        <g
                           id="g160101">
                          <g
                             id="g160099">
                            <path
                               d="M 14.329,0 0,-14.329 l 20.983,-38.242 17.063,9.365 z"
                               style="fill:#b56a55;fill-opacity:1;fill-rule:nonzero;stroke:none"
                               id="path160097" />
                          </g>
                        </g>
                      </g>
                    </g>
                  </g>
                </g>
              </g>
            </g>
          </g>
        </g>
      </g>
    </g>
  </g>
</svg>
