<?xml version="1.0" encoding="UTF-8" standalone="no"?>
<!-- Created with Inkscape (http://www.inkscape.org/) -->

<svg
   version="1.1"
   id="svg160195"
   width="400"
   height="200"
   viewBox="0 0 400 200"
   sodipodi:docname="1538_word.pdf"
   xmlns:inkscape="http://www.inkscape.org/namespaces/inkscape"
   xmlns:sodipodi="http://sodipodi.sourceforge.net/DTD/sodipodi-0.dtd"
   xmlns="http://www.w3.org/2000/svg"
   xmlns:svg="http://www.w3.org/2000/svg">
  <defs
     id="defs160199">
    <clipPath
       clipPathUnits="userSpaceOnUse"
       id="clipPath160217">
      <path
         d="M 0,-248.32121 H 314.27511 V 248.32121 H 0 Z"
         id="path160215" />
    </clipPath>
  </defs>
  <sodipodi:namedview
     id="namedview160197"
     pagecolor="#ffffff"
     bordercolor="#000000"
     borderopacity="0.25"
     inkscape:showpageshadow="2"
     inkscape:pageopacity="0.0"
     inkscape:pagecheckerboard="0"
     inkscape:deskcolor="#d1d1d1" />
  <g
     id="g160201"
     inkscape:groupmode="layer"
     inkscape:label="1538_word82"
     transform="matrix(1.3333333,0,0,-1.3333333,0,200)">
    <g
       id="g160203">
      <g
         id="g160205">
        <g
           id="g160207"
           transform="translate(97.62,131.38751)">
          <g
             id="g160209"
             transform="matrix(0.33334,0,0,0.33334,0,-27.5921)">
            <g
               id="g160211">
              <g
                 id="g160213" />
              <g
                 id="g160261">
                <g
                   clip-path="url(#clipPath160217)"
                   id="g160259">
                  <g
                     transform="translate(0,-68.52606)"
                     id="g160225">
                    <g
                       id="g160223">
                      <g
                         id="g160221">
                        <path
                           d="m 62.3332,-97.0201 c -14.4464,0 -26.2747,2.545 -35.4849,7.6352 -9.1997,5.0797 -15.9744,12.0421 -20.32397,20.8872 C 2.17478,-59.663 0,-49.5714 0,-38.2229 0,-31.151 0.88139,-24.2668 2.64415,-17.5703 4.41735,-10.8635 6.55563,-5.00668 9.05897,0 L 21.4349,-1.76798 C 17.6068,-12.0734 15.6928,-22.9734 15.6928,-34.4679 c 0,-10.3158 2.2843,-18.6394 6.8529,-24.9708 4.5686,-6.3418 10.6079,-10.9469 18.118,-13.8153 7.5204,-2.8789 15.698,-4.3183 24.5327,-4.3183 12.5271,0 23.5783,1.8827 33.1536,5.6482 9.575,3.755 16.872,8.2819 21.889,13.5806 3.536,3.682 5.304,6.7017 5.304,9.059 0,3.3899 -2.436,6.1905 -7.307,8.4018 -4.861,2.2113 -11.562,3.3169 -20.105,3.3169 l 5.742,19.886 h 30.948 c 3.243,0 6.008,-0.7719 8.292,-2.3156 2.284,-1.5438 3.426,-4.0106 3.426,-7.4005 0,-2.2113 -0.74,-4.4591 -2.221,-6.7434 -1.471,-2.2843 -4.934,-3.4265 -10.389,-3.4265 3.39,-3.3899 5.085,-7.5152 5.085,-12.3759 0,-5.8932 -2.06,-11.5675 -6.18,-17.0227 -6.634,-8.8347 -16.251,-16.0527 -28.851,-21.6539 -12.5902,-5.6012 -26.4733,-8.4018 -41.6498,-8.4018 z"
                           style="fill:#f81436;fill-opacity:1;fill-rule:nonzero;stroke:none"
                           id="path160219" />
                      </g>
                    </g>
                  </g>
                  <g
                     transform="translate(123.42249,-85.98686)"
                     id="g160233">
                    <g
                       id="g160231">
                      <g
                         id="g160229">
                        <path
                           d="M 69.6085,-20.105 H 11.046 C 3.682,-20.105 0,-16.642 0,-9.71609 0,-7.65084 0.77186,-5.51778 2.31559,-3.31693 3.85932,-1.10564 6.76945,0 11.046,0 h 58.5625 c 7.3745,0 11.0617,-3.38473 11.0617,-10.1542 0,-2.0652 -0.7771,-4.24 -2.3313,-6.5243 -1.5437,-2.2843 -4.4538,-3.4265 -8.7304,-3.4265 z"
                           style="fill:#f81436;fill-opacity:1;fill-rule:nonzero;stroke:none"
                           id="path160227" />
                      </g>
                    </g>
                  </g>
                  <g
                     transform="translate(181.31915,7.27825)"
                     id="g160241">
                    <g
                       id="g160239">
                      <g
                         id="g160237">
                        <path
                           d="m 81.3273,-113.37 c -9.5753,0 -17.0905,1.841 -22.5457,5.523 -5.4448,3.682 -9.2728,9.2101 -11.4841,16.5846 C 41.8423,-106.001 29.8367,-113.37 11.2807,-113.37 3.76023,-113.37 0,-109.98 0,-103.2 c 0,2.211 0.8866,4.3806 2.6598,6.5084 1.76277,2.1383 4.70941,3.2074 8.8399,3.2074 8.1046,0 14.2899,1.4708 18.556,4.4122 4.2766,2.9518 7.3327,6.9676 9.1685,12.0473 1.8462,5.0901 3.0666,10.8791 3.6612,17.3669 l 13.033,1.0953 c -0.2921,-2.3574 -0.4381,-4.8607 -0.4381,-7.5101 0,-4.5686 0.6623,-8.9546 1.987,-13.1582 1.3247,-4.1931 3.8646,-7.583 7.6196,-10.1698 3.755,-2.5763 9.1685,-3.9375 16.2404,-4.0836 3.2439,0 6.008,-0.7718 8.2923,-2.3155 2.2843,-1.5438 3.4265,-4.0106 3.4265,-7.4003 0,-6.78 -3.9063,-10.17 -11.7188,-10.17 z m -34.4679,89.291 c -3.2439,0 -5.9715,1.1056 -8.1828,3.3169 -2.2113,2.2113 -3.3169,5.1579 -3.3169,8.8399 0,3.38998 1.1056,6.22188 3.3169,8.49575 C 40.8879,-1.14215 43.6155,0 46.8594,0 c 6.9259,0 10.754,-3.97405 11.4841,-11.9222 0,-7.5204 -3.828,-11.5727 -11.4841,-12.1568 z"
                           style="fill:#000000;fill-opacity:1;fill-rule:nonzero;stroke:none"
                           id="path160235" />
                      </g>
                    </g>
                  </g>
                  <g
                     transform="translate(257.70523,82.77502)"
                     id="g160249">
                    <g
                       id="g160247">
                      <g
                         id="g160245">
                        <path
                           d="M 1.54894,-20.105 0,-12.814 C 13.8518,-8.53744 25.7844,-4.26611 35.7978,0 l 1.3299,-7.94811 C 25.1951,-12.8088 13.3355,-16.861 1.54894,-20.105 Z"
                           style="fill:#000000;fill-opacity:1;fill-rule:nonzero;stroke:none"
                           id="path160243" />
                      </g>
                    </g>
                  </g>
                  <g
                     transform="translate(251.51947,-40.89543)"
                     id="g160257">
                    <g
                       id="g160255">
                      <g
                         id="g160253">
                        <path
                           d="m 39.1147,-121.115 c -3.2439,0 -5.9715,1.106 -8.1828,3.317 -2.2113,2.211 -3.3169,5.158 -3.3169,8.84 0,7.072 3.8332,11.0513 11.4997,11.9379 6.9259,0 10.7592,-3.9789 11.4997,-11.9379 0,-7.51 -3.8332,-11.562 -11.4997,-12.157 z M 14.3629,-65.1964 H 11.046 c -7.364,0 -11.046,3.463 -11.046,10.3889 0,2.0652 0.77186,4.1983 2.31559,6.3991 1.54373,2.2113 4.45386,3.317 8.73041,3.317 h 4.4278 c 15.9066,0 26.2903,1.6949 31.1509,5.0849 l 0.4381,1.768 c 0.5946,1.9192 0.8918,4.2035 0.8918,6.8529 0,2.6493 -0.5163,5.2987 -1.5489,7.9481 -1.0326,2.6598 -2.9466,6.201 -5.742,10.6235 L 36.9086,-6.41481 53.0395,0 c 6.4774,-12.0786 9.7161,-24.2355 9.7161,-36.4706 0,-6.0393 -1.1786,-12.0056 -3.5359,-17.8988 -2.6494,-2.7954 -7.0668,-5.2988 -13.2521,-7.5101 -6.1853,-2.2113 -16.7202,-3.3169 -31.6047,-3.3169 z"
                           style="fill:#000000;fill-opacity:1;fill-rule:nonzero;stroke:none"
                           id="path160251" />
                      </g>
                    </g>
                  </g>
                </g>
              </g>
            </g>
          </g>
        </g>
      </g>
    </g>
  </g>
</svg>
