<?xml version="1.0" encoding="UTF-8" standalone="no"?>
<!-- Created with Inkscape (http://www.inkscape.org/) -->

<svg
   version="1.1"
   id="svg160297"
   width="400"
   height="400"
   viewBox="0 0 400 400"
   sodipodi:docname="1539_pic.pdf"
   xmlns:inkscape="http://www.inkscape.org/namespaces/inkscape"
   xmlns:sodipodi="http://sodipodi.sourceforge.net/DTD/sodipodi-0.dtd"
   xmlns="http://www.w3.org/2000/svg"
   xmlns:svg="http://www.w3.org/2000/svg">
  <defs
     id="defs160301">
    <clipPath
       clipPathUnits="userSpaceOnUse"
       id="clipPath160317">
      <path
         d="M 0,0 H 206.05996 V -174.65197 H 0 Z"
         clip-rule="evenodd"
         id="path160315" />
    </clipPath>
    <clipPath
       clipPathUnits="userSpaceOnUse"
       id="clipPath160327">
      <path
         d="M 0,-523.95645 H 618.17964 V 523.95645 H 0 Z"
         id="path160325" />
    </clipPath>
  </defs>
  <sodipodi:namedview
     id="namedview160299"
     pagecolor="#ffffff"
     bordercolor="#000000"
     borderopacity="0.25"
     inkscape:showpageshadow="2"
     inkscape:pageopacity="0.0"
     inkscape:pagecheckerboard="0"
     inkscape:deskcolor="#d1d1d1" />
  <g
     id="g160303"
     inkscape:groupmode="layer"
     inkscape:label="1539_pic83"
     transform="matrix(1.3333333,0,0,-1.3333333,0,400)">
    <g
       id="g160305">
      <g
         id="g160307">
        <g
           id="g160309"
           transform="translate(46.97008,237.32606)">
          <g
             id="g160311">
            <g
               id="g160313"
               clip-path="url(#clipPath160317)">
              <g
                 id="g160319"
                 transform="matrix(0.33333,0,0,0.33333,0,-58.21736)">
                <g
                   id="g160321">
                  <g
                     id="g160323" />
                  <g
                     id="g160651">
                    <g
                       clip-path="url(#clipPath160327)"
                       id="g160649">
                      <g
                         transform="translate(0,-313.34833)"
                         id="g160335">
                        <g
                           id="g160333">
                          <g
                             id="g160331">
                            <path
                               d="M 225.016,0 C 100.743,0 0,-8.049 0,-17.978 c 0,-9.929 100.743,-17.978 225.016,-17.978 124.272,0 225.013,8.049 225.013,17.978 C 450.029,-8.049 349.288,0 225.016,0 Z"
                               style="fill:#b0b0b0;fill-opacity:1;fill-rule:nonzero;stroke:none"
                               id="path160329" />
                          </g>
                        </g>
                      </g>
                      <g
                         transform="translate(326.6999,-34.76553)"
                         id="g160343">
                        <g
                           id="g160341">
                          <g
                             id="g160339">
                            <path
                               d="m 121.913,-51.773 c -15.479,19.103 -38.655,33.581 -54.269,40.851 l -22.247,9.089 c -2.383,0.888 -3.798,1.417 -4.489,1.833 0,0 -1.264,-2.994 -4.024,-6.377 -1.471,-6.891 -10.563,-17.755 -22.458,-28.931 14.742,-9.069 40.57,-18.929 64.05,-26.914 23.479,-7.982 26.766,-17.634 20.662,-23.375 C 93.033,-91.338 84.343,-88.049 56.52,-106.364 28.698,-124.677 0,-155.036 0,-155.036 c 5.106,-7.377 12.391,-16.703 16.254,-16.131 3.522,4.578 10.565,14.44 26.415,21.131 15.849,6.693 35.572,19.723 56.704,32.755 21.132,13.03 36.629,26.414 38.917,33.458 2.289,7.044 0.176,11.622 -16.377,32.05 z"
                               style="fill:#5273c4;fill-opacity:1;fill-rule:nonzero;stroke:none"
                               id="path160337" />
                          </g>
                        </g>
                      </g>
                      <g
                         transform="translate(310.552,-70.07263)"
                         id="g160351">
                        <g
                           id="g160349">
                          <g
                             id="g160347">
                            <path
                               d="m 72.668,-71.057 c 27.823,18.315 36.513,15.027 42.618,20.768 6.104,5.741 2.817,15.392 -20.662,23.374 C 71.144,-18.93 45.315,-9.07 30.574,0 21.321,-8.692 10.375,-17.575 0,-24.918 c 0,0 12.327,-5.283 35.572,-7.75 23.245,-2.464 22.188,-2.816 30.993,-4.929 8.805,-2.113 19.371,-6.339 21.132,-8.101 1.761,-1.761 -6.339,-4.226 -19.723,-15.145 -13.383,-10.917 -23.95,-26.062 -39.447,-37.333 -6.318,-4.594 -12.695,-9.131 -18.032,-12.894 0.001,0 2.38,-3.93 5.653,-8.659 0,0 28.698,30.359 56.52,48.672 z"
                               style="fill:#3d5494;fill-opacity:1;fill-rule:nonzero;stroke:none"
                               id="path160345" />
                          </g>
                        </g>
                      </g>
                      <g
                         transform="translate(52.0626,4.30017)"
                         id="g160359">
                        <g
                           id="g160357">
                          <g
                             id="g160355">
                            <path
                               d="m 87.321,-185.443 c 16.906,7.417 23.949,12.308 47.899,27.805 23.949,15.497 43.203,41.794 65.274,62.925 22.071,21.133 23.949,25.829 61.26,54.731 -13.955,13.163 -20.496,30.625 -20.42,39.982 -7.635,-2.063 -24.252,-6.427 -36.379,-18.168 -14.792,-14.323 -14.557,-27.472 -18.079,-38.978 -3.523,-11.503 -2.923,-16.434 -21.302,-27 -18.379,-10.567 -33.172,-35.573 -43.385,-47.9 -10.214,-12.327 -11.976,-18.315 -36.628,-29.232 C 60.906,-172.197 39.423,-204.599 21.108,-224.673 8.768,-238.201 2.669,-243.567 0,-245.633 c 0.473,-7.476 4.552,-13.075 8.991,-17.009 0,0 61.424,69.784 78.33,77.199 z"
                               style="fill:#5470cc;fill-opacity:1;fill-rule:nonzero;stroke:none"
                               id="path160353" />
                          </g>
                        </g>
                      </g>
                      <g
                         transform="translate(61.0533,-35.68213)"
                         id="g160367">
                        <g
                           id="g160365">
                          <g
                             id="g160363">
                            <path
                               d="m 15.992,-225.898 c 7.043,7.044 10.213,18.666 20.779,25.357 10.566,6.693 24.653,21.133 38.39,29.234 13.736,8.099 15.849,14.44 28.176,19.369 12.326,4.932 22.187,7.75 31.345,15.851 9.157,8.101 16.553,11.973 31.346,18.666 14.792,6.691 31.345,27.824 48.251,38.741 16.905,10.919 35.219,19.371 35.219,19.371 23.715,16.789 50.417,41.602 53.033,53.848 -5.104,-6.256 -15.337,-13.844 -32.253,-6.301 -6.785,3.025 -12.605,7.13 -17.515,11.762 -37.31,-28.902 -39.188,-33.598 -61.259,-54.731 -22.071,-21.131 -41.326,-47.428 -65.275,-62.925 -23.95,-15.497 -30.993,-20.388 -47.899,-27.805 C 61.424,-152.876 0,-222.659 0,-222.659 c 5.704,-5.055 12.002,-7.358 12.002,-7.358 1.144,1.222 2.462,2.59 3.99,4.119 z"
                               style="fill:#4761a1;fill-opacity:1;fill-rule:nonzero;stroke:none"
                               id="path160361" />
                          </g>
                        </g>
                      </g>
                      <g
                         transform="translate(23.00789,-242.09218)"
                         id="g160375">
                        <g
                           id="g160373">
                          <g
                             id="g160371">
                            <path
                               d="m 3.31971,-31.1075 c 4.931,-15.148 -1.206,-30.644 -0.427,-36.632 0.78,-5.988 3.013,-10.566 19.09399,-15.143 16.083,-4.58 17.962,2.113 17.962,2.113 0,0 3.435,7.004 6.472,3.324 h 0.002 c -0.199,0.612 -0.386,1.253 -0.486,1.959 -0.353,2.464 -12.327,6.69 -12.327,6.69 0,0 -1.761,4.932 3.169,15.848 4.931,10.919 5.635,12.327 7.045,14.794 1.409,2.465 0.352,7.747 0.352,7.747 -7.748,-6.339 -12.28,-8.452 -15.121,-2.464 -2.841,5.988 -14.464,4.226 -11.295,14.44 3.171,10.21395 7.797,10.75095 7.068,18.23195 -2.58,0.221 -6.794,0.399 -10.589,-0.271 -5.98799,-1.056 -8.45299,-3.169 -8.45299,-3.169 -7.044,-10.21395 -7.396,-12.31795 -2.466,-27.46795 z"
                               style="fill:#545766;fill-opacity:1;fill-rule:nonzero;stroke:none"
                               id="path160369" />
                          </g>
                        </g>
                      </g>
                      <g
                         transform="translate(16.19465,-245.54863)"
                         id="g160383">
                        <g
                           id="g160381">
                          <g
                             id="g160379">
                            <path
                               d="m 0.62425,-5.8175 c -2.466,-7.396 3.17,-21.133 3.17,-37.686 0,-16.554 -3.523,-27.119 8.09995,-34.515 11.622,-7.396 14.441,-8.806 27.119,-7.044 12.68,1.761 14.089,4.577 14.793,6.693 0.503,1.51 -0.071,2.844 -0.57,4.38 h -0.002 c -3.037,3.68 -6.473,-3.324 -6.473,-3.324 0,0 -1.879,-6.693 -17.961,-2.113 -16.082,4.578 -18.315,9.155 -19.09495,15.143 -0.778,5.988 5.35895,21.485 0.42795,36.632 -4.92995,15.151 -4.57795,17.254 2.466,27.468 0,0 -9.50995,1.762 -11.97495,-5.634 z"
                               style="fill:#fcfffc;fill-opacity:1;fill-rule:nonzero;stroke:none"
                               id="path160377" />
                          </g>
                        </g>
                      </g>
                      <g
                         transform="translate(277.98596,-203.11613)"
                         id="g160391">
                        <g
                           id="g160389">
                          <g
                             id="g160387">
                            <path
                               d="m 0.86814,-6.691 c -1.057,-5.283 -4.226,-9.509 14.79196,-21.836 19.018,-12.327 21.837,-20.779 34.868,-30.642 13.031,-9.86 26.414,-12.327 34.515,-10.214 5.59,1.458 7.822,3.756 6.936,7.237 -5.144,-2.98 -13.36,-3.927 -25.954,2.272 -22.893,11.27 -16.554,27.472 -39.095,35.82 C 4.39014,-15.706 8.61614,-11.271 8.96914,0 c 0,0 -7.044,-1.408 -8.101,-6.691 z"
                               style="fill:#fcfffc;fill-opacity:1;fill-rule:nonzero;stroke:none"
                               id="path160385" />
                          </g>
                        </g>
                      </g>
                      <g
                         transform="translate(286.41816,-189.99369)"
                         id="g160399">
                        <g
                           id="g160397">
                          <g
                             id="g160395">
                            <path
                               d="M 13.2154,-2.73314 C 6.87644,-6.95914 0.53644,-13.1231 0.53644,-13.1231 c -0.352,-11.27 -4.578,-15.705 17.96196,-24.053 22.541,-8.348 16.202,-24.55 39.094,-35.821 12.594,-6.199 20.81,-5.251 25.954,-2.272 -0.398,1.565 -1.423,3.369 -3.061,5.444 -5.283,6.691 -16.554,15.849 -19.371,17.61 -2.818,1.76 -4.931,13.03 -6.691,20.075 -0.452,1.802 -0.759,3.44 -0.915,4.959 l -0.003,0.012 c -1.91,9.132 -13.875,7.004 -26.107,7.004 -12.234,0 -8.548,11.97396 -6.082,19.72296 0,0 -1.762,1.935 -8.101,-2.291 z"
                               style="fill:#545766;fill-opacity:1;fill-rule:nonzero;stroke:none"
                               id="path160393" />
                          </g>
                        </g>
                      </g>
                      <g
                         transform="translate(40.22492,-242.41283)"
                         id="g160407">
                        <g
                           id="g160405">
                          <g
                             id="g160403">
                            <path
                               d="m 10.053,-0.387 c 0,0 -0.95102,0.259 -2.44202,0.387 0.729,-7.479 -3.897,-7.956 -7.068,-18.17 -3.17,-10.214 8.453,-8.424 11.29402,-14.412 2.842,-5.985 7.373,-4.098 15.122,2.242 0,0 0.932,0.607 3.013,3.423 H 29.971 C 6.88298,-21.28 10.053,-0.387 10.053,-0.387 Z"
                               style="fill:#a8214f;fill-opacity:1;fill-rule:nonzero;stroke:none"
                               id="path160401" />
                          </g>
                        </g>
                      </g>
                      <g
                         transform="translate(50.13105,-241.33253)"
                         id="g160415">
                        <g
                           id="g160413">
                          <g
                             id="g160411">
                            <path
                               d="m 1.93115,0 c -1.292,-1 -1.784,-1.467 -1.784,-1.467 0,0 -3.17,-20.894 19.91695,-26.53 h 0.002 c 0.787,0 1.724,2.179 2.858,3.393 0,0 -19.91195,7.521 -20.99295,24.604 z"
                               style="fill:#fac29e;fill-opacity:1;fill-rule:nonzero;stroke:none"
                               id="path160409" />
                          </g>
                        </g>
                      </g>
                      <g
                         transform="translate(305.22534,-187.88323)"
                         id="g160423">
                        <g
                           id="g160421">
                          <g
                             id="g160419">
                            <path
                               d="M 35.7035,-21.48 C 35.5095,-21.926 8.84846,-17.111 6.19346,0 c -2.318,-1.612 -3.684,-2.553 -3.684,-2.553 -2.466,-7.749 -6.152,-19.722 6.081,-19.722 12.23204,0 24.19704,2.127 26.10704,-7.004 l 0.004,-0.012 c -0.304,2.956 -0.002,5.458 1.002,7.811 z"
                               style="fill:#a8214f;fill-opacity:1;fill-rule:nonzero;stroke:none"
                               id="path160417" />
                          </g>
                        </g>
                      </g>
                      <g
                         transform="translate(311.4188,-181.14323)"
                         id="g160431">
                        <g
                           id="g160429">
                          <g
                             id="g160427">
                            <path
                               d="m 29.51,-28.22 c 0.497,1.166 1.156,2.301 2.025,3.431 C 25.196,-25.729 9.629,0 9.628,0 5.715,-2.756 2.364,-5.097 0,-6.74 2.655,-23.851 29.316,-28.666 29.51,-28.22 Z"
                               style="fill:#fac29e;fill-opacity:1;fill-rule:nonzero;stroke:none"
                               id="path160425" />
                          </g>
                        </g>
                      </g>
                      <g
                         transform="translate(217.63659,134.86689)"
                         id="g160439">
                        <g
                           id="g160437">
                          <g
                             id="g160435">
                            <path
                               d="m 191.851,-10.3271 c -2.185,0.55297 -4.51,1.10897 -6.979,1.67197 -13.912,3.169 -17.804,3.862 -24.846,7.207 -4.579,2.175 -6.483,1.447 -8.463,0.719 -1.067,-0.393 -2.156,-0.785 -3.697,-0.723 -4.402,0.175 -22.017,-1.94 -39.098,-8.104 C 91.6862,-15.7201 76.8922,-27.5191 71.6102,-30.5141 c -5.284,-2.993 -10.391,-3.053 -17.671,-0.939 -7.278,2.112 -12.563,-6.69 -18.08,-7.045 -5.517,-0.351 -6.574,1.176 -17.022,2.583 -10.44899,1.411 -10.44899,0.941 -11.27199,0.354 -0.821,-0.588 -0.528,-0.824 -0.528,-0.824 0,0 -6.574,1.057 -6.985,-1.584 -0.41,-2.642 1.645,-3.523 4.403,-3.639 2.759,-0.119 5.518,-0.411 5.518,-0.411 0,0 -1.35,-3.169 2.40499,-3.345 3.758,-0.178 7.338,-1.411 10.39,-3.169 3.053,-1.762 10.802,-7.926 13.56,-9.513 2.759,-1.583 6.281,-0.877 7.632,0.471 1.349,1.351 13.97,7.455 17.022,8.161 3.052,0.702 7.162,0.234 10.332,1.172 3.17,0.94 11.857,4.345 18.666,5.402 6.809,1.056 15.6138,4.226 24.5358,4.461 8.923,0.236 21.954,1.643 32.284,1.643 10.332,0 11.977,0.705 11.977,0.705 0,0 1.522,-1.942 4.509,-4.164 -2.045,24.825 28.563,29.868 28.565,29.868 z"
                               style="fill:#fac29e;fill-opacity:1;fill-rule:nonzero;stroke:none"
                               id="path160433" />
                          </g>
                        </g>
                      </g>
                      <g
                         transform="translate(380.8249,124.53907)"
                         id="g160447">
                        <g
                           id="g160445">
                          <g
                             id="g160443">
                            <path
                               d="m 12.0241,-36.036 c 14.44,10.098 13.97,11.976 26.65,15.732 12.678,3.758 21.63,5.342 23.259,7.954 -4.05,0 -9.4,1.189 -13.097,4.534 -3.042,2.752 -10.045,5.252 -20.173,7.816 -0.003,0 -30.61,-5.042 -28.565,-29.868 1.17,-0.871 2.559,-1.785 4.178,-2.645 5.752,-3.053 7.748,-3.523 7.748,-3.523 z"
                               style="fill:#a8214f;fill-opacity:1;fill-rule:nonzero;stroke:none"
                               id="path160441" />
                          </g>
                        </g>
                      </g>
                      <g
                         transform="translate(334.6491,37.9975)"
                         id="g160455">
                        <g
                           id="g160453">
                          <g
                             id="g160451">
                            <path
                               d="m 108.109,-10.8616 c -0.015,5.95497 -1.423,6.89497 -3.301,10.18296 -1.88,3.28601 -1.88,-6.10599 -18.784,-12.21096 -16.906,-6.104 -43.748,-10.33 -50.52,-22.541 -6.772,-12.208 1.211,-10.406 -14.286,-25.63 -9.537,-9.371 -16.935,-19.371 -21.218,-25.682 23.608,-8.22 32.959,13.98 32.959,13.98 -1.762,1.056 4.578,7.749 12.679,9.157 8.101,1.408 17.257,4.226 21.484,5.988 4.226,1.762 3.17,5.634 10.566,6.339 7.395,0.705 14.087,8.453 18.314,9.158 4.227,0.702 12.679,6.69 12.679,6.69 -2.465,11.741 -0.558,18.614 -0.572,24.569 z"
                               style="fill:#a8214f;fill-opacity:1;fill-rule:nonzero;stroke:none"
                               id="path160449" />
                          </g>
                        </g>
                      </g>
                      <g
                         transform="translate(293.39525,112.21806)"
                         id="g160463">
                        <g
                           id="g160461">
                          <g
                             id="g160459">
                            <path
                               d="m 201.885,-99.6126 c -3.522,11.446 -10.391,15.497 -10.391,16.905 0,1.41 2.466,12.327 1.409,20.076 -1.056,7.748 -1.76,11.447 -4.754,15.673 -2.994,4.226 -10.214,10.389 -9.686,16.904 0.528,6.518 4.755,12.152 1.585,18.491 -3.17,6.33901 -8.189,7.75001 -8.189,7.75001 -14.968,4.401 -18.445,3.784 -22.496,3.784 -1.629,-2.612 -10.581,-4.195 -23.259,-7.954 -12.68,-3.75601 -12.21,-5.63401 -26.6504,-15.73101 0,0 -15.907,-8.628 -30.876,-21.131 -14.968,-12.503 -34.163,-33.107 -45.61,-44.026 -11.447,-10.917 -15.67295,-16.3754 -19.37095,-17.9614 -0.666,-0.285 -1.917,-0.629 -3.596,-1.085 -0.102,-12.65 11.87295,-40.123 37.93495,-51.745 1.14,-0.508 2.239,-0.923 3.318,-1.301 4.283,6.311 11.681,16.311 21.219,25.683 15.496,15.223 7.513,13.421 14.286,25.63 6.771,12.2104 33.6134,16.4374 50.5194,22.5414 16.904,6.104 16.904,15.497 18.784,12.211 1.878,-3.289 3.286,-4.229 3.301,-10.184 0.015,-5.954 -1.893,-12.828 0.573,-24.5684 0,0 1.118,-2.759 2.822,-6.909 24.296,-1.544 49.127,16.9474 49.127,16.9474 z"
                               style="fill:#bf2957;fill-opacity:1;fill-rule:nonzero;stroke:none"
                               id="path160457" />
                          </g>
                        </g>
                      </g>
                      <g
                         transform="translate(446.8735,56.14385)"
                         id="g160471">
                        <g
                           id="g160469">
                          <g
                             id="g160467">
                            <path
                               d="m 29.916,-113.802 c 4.226,-1.057 3.756,0.821 20.427,5.048 16.671,4.226 33.106,11.74 45.081,19.958 11.976,8.217 27.472,18.315 27.472,18.315 0,0 11.036,2.113 16.905,7.279 5.87,5.164 10.888,9.606 13.559,13.324 2.869,3.991 6.869,7.22 9.686,8.453 2.818,1.232 7.22,3.874 8.013,6.075 0.792,2.201 -0.265,3.609 -3.963,2.465 -3.697,-1.145 -7.395,-3.345 -9.068,-3.963 -1.674,-0.615 -4.139,-1.759 -4.843,-2.376 -0.704,-0.615 -1.145,0.351 1.409,2.818 2.553,2.464 6.427,5.722 9.333,8.013 2.906,2.289 4.842,3.345 5.811,4.49 0.968,1.144 1.673,4.755 -2.025,4.05 -3.698,-0.705 -6.692,-2.642 -8.893,-3.699 -2.201,-1.057 -2.994,-0.791 -4.667,-2.025 -1.672,-1.232 -5.723,-6.252 -6.339,-6.779 -0.616,-0.529 0.969,2.377 3.522,4.932 2.553,2.552 4.93,4.226 6.78,5.546 1.848,1.32 6.867,5.722 8.805,6.691 1.936,0.968 1.76,5.98701 -2.994,5.28201 -4.755,-0.70301 -10.918,-5.81001 -12.943,-6.95401 -2.026,-1.144 -3.963,-3.345 -5.548,-4.844 -1.585,-1.495 -2.025,-2.818 -3.522,-3.081 -1.497,-0.264 0.969,3.874 3.17,7.483 2.202,3.612 4.843,7.30801 6.78,9.07001 1.937,1.762 4.49,4.931 3.17,7.132 -1.321,2.201 -4.843,1.057 -9.07,-3.082 -4.226,-4.138 -6.779,-6.25101 -7.483,-7.65901 -0.705,-1.41 -4.844,-8.894 -5.635,-10.038 -0.793,-1.145 -5.283,-5.459 -8.189,-7.22 -2.906,-1.762 -5.988,-1.762 -7.396,-2.555 -1.409,-0.791 -1.585,-2.992 -2.113,-8.186 -0.528,-5.198 -1.146,-7.133 -1.233,-8.189 -0.089,-1.057 -0.792,-2.291 -1.145,-2.643 -0.353,-0.351 -17.522,-8.716 -22.805,-10.653 -5.282,-1.937 -8.453,-4.069 -13.031,-4.069 -4.578,0 -14.793,-0.195 -19.371,-0.195 h -5.811 c 0,0 0.536,9.879 -2.986,21.325 0,0 -25.328,-17.942 -48.766,-16.399 v 0.088 c 3.126,-9.038 9.86,-24.64 13.722,-32.845 5.636,-11.973 11.968,-19.326 16.194,-20.383 z"
                               style="fill:#fac29e;fill-opacity:1;fill-rule:nonzero;stroke:none"
                               id="path160465" />
                          </g>
                        </g>
                      </g>
                      <g
                         transform="translate(564.1339,44.53868)"
                         id="g160479">
                        <g
                           id="g160477">
                          <g
                             id="g160475">
                            <path
                               d="m 14.734,-11.2654 c 1.174,5.87399 -2.583,12.61399 -5.4,11.03099 -2.818,-1.586 -1.057,-6.164 -1.409,-9.333 C 7.572,-12.7374 1.937,-15.2044 0,-20.0474 c 1.408,0.793 4.49,0.793 7.396,2.554 2.339,1.418 5.7,4.485 7.338,6.228 z"
                               style="fill:#f2bd96;fill-opacity:1;fill-rule:nonzero;stroke:none"
                               id="path160473" />
                          </g>
                        </g>
                      </g>
                      <g
                         transform="translate(462.4984,165.53773)"
                         id="g160487">
                        <g
                           id="g160485">
                          <g
                             id="g160483">
                            <path
                               d="M 89.309,-34.7707 C 88.253,-22.4437 79.448,-3.42367 50.567,-0.25367 21.687,2.91633 18.554,-24.5567 15.737,-30.6707 12.919,-36.7837 4.688,-54.4937 0,-56.5237 c 1.564,-0.195 1.698,-0.392 2.441,-0.61 0,0 5.177,-1.41 8.347,-7.75 3.17,-6.339 -0.978,-11.973 -1.507,-18.49 -0.528,-6.515 6.731,-12.679 9.725,-16.9053 0,0 5.126,3.2863 8.18,4.5783 3.051,1.291 6.701,4.815 11.513,4.815 4.814,0 9.633,-1.997 15.502,-6.575 5.87,-4.5803 10.686,0.468 11.625,4.226 0.94,3.757 2.35,3.612 2.35,3.612 0,0 2.936,1.085 3.639,2.141 0.705,1.057 -0.351,2.7 -0.351,2.7 l 1.878,0.938 c 0,0 0.353,1.88 0.823,3.288 0.469,1.408 1.643,2.7 2.348,2.462 0.704,-0.237 3.169,0.002 5.048,0.002 1.878,0 3.287,-0.235 3.169,3.64 -0.117,3.875 -0.939,8.452 -1.526,13.268 -0.587,4.812 -0.118,4.342 3.287,7.042 3.404,2.701 3.875,7.044 2.818,19.371 z"
                               style="fill:#fac29e;fill-opacity:1;fill-rule:nonzero;stroke:none"
                               id="path160481" />
                          </g>
                        </g>
                      </g>
                      <g
                         transform="translate(486.9039,107.77213)"
                         id="g160495">
                        <g
                           id="g160493">
                          <g
                             id="g160491">
                            <path
                               d="m 2.786,-37.9354 c 3.052,1.292 6.698,4.815 11.512,4.815 4.814,0 9.63,-1.997 15.5,-6.574 -3.754,4.342 -4.928,7.63 -11.502,12.443 -6.575,4.813 -9.158,11.152 -8.805,18.19604 0.352,7.045 -1.109,11.311 -1.644,7.804 C 6.08,-12.8424 1.732,-31.7794 0,-39.3154 c 0.985,0.535 1.961,1.031 2.786,1.38 z"
                               style="fill:#e5a17a;fill-opacity:1;fill-rule:nonzero;stroke:none"
                               id="path160489" />
                          </g>
                        </g>
                      </g>
                      <g
                         transform="translate(468.641,174.65212)"
                         id="g160503">
                        <g
                           id="g160501">
                          <g
                             id="g160499">
                            <path
                               d="m 0,-59.3746 c 7.092,-4.409 14.135,-3.882 20.123,2.282 5.987,6.163 20.604,14.663 23.773,6.98 3.17,-7.683 -0.352,-14.376 0,-15.433 0.353,-1.056 5.811,-2.585 5.811,-2.585 0,0 1.409,10.888 7.22,13.956 5.811,3.07 8.101,5.712 5.811,13.284 -2.288,7.571 9.51,9.081 13.208,1.106 3.698,-7.975 7.62,-8.502 7.344,-5.594 -0.278,2.906 5.159,18.576 -9.281,29.493 -14.44,10.91895 -24.302,17.60995 -34.163,15.49695 -9.862,-2.113 -13.912,0.881 -20.251,-5.986 C 13.255,-13.2426 5.859,-15.8856 6.739,-25.0426 7.62,-34.1976 9.557,-32.2626 5.154,-40.5396 0.751,-48.8166 0,-59.3746 0,-59.3746 Z"
                               style="fill:#383330;fill-opacity:1;fill-rule:nonzero;stroke:none"
                               id="path160497" />
                          </g>
                        </g>
                      </g>
                      <g
                         transform="translate(532.73583,117.32312)"
                         id="g160511">
                        <g
                           id="g160509">
                          <g
                             id="g160507">
                            <path
                               d="m 16.2532,-4.16585 c -5.4,5.048 -7.51303,4.345 -10.33003,3.756 -2.819,-0.586 -7.984,-1.821 -5.049,-1.674 2.936,0.15 6.223,0.15 8.687,-2.082 2.46603,-2.229 4.34403,-2.113 4.34403,-2.113 z"
                               style="fill:#2e1f17;fill-opacity:1;fill-rule:nonzero;stroke:none"
                               id="path160505" />
                          </g>
                        </g>
                      </g>
                      <g
                         transform="translate(571.83356,44.36241)"
                         id="g160519">
                        <g
                           id="g160517">
                          <g
                             id="g160515">
                            <path
                               d="m 0.14054,-6.14834 c 2.373,-0.252 3.519,-0.074 3.607,1.686 0.088,1.761 -0.177,4.931 -2.113,4.404 -1.94,-1.092 -1.711,-3.599 -1.494,-6.09 z"
                               style="fill:#ffe8d6;fill-opacity:1;fill-rule:nonzero;stroke:none"
                               id="path160513" />
                          </g>
                        </g>
                      </g>
                      <g
                         transform="translate(595.0627,56.15789)"
                         id="g160527">
                        <g
                           id="g160525">
                          <g
                             id="g160523">
                            <path
                               d="m 0,-2.23813 c 0.506,-1.693 1.473,-3.101 3.498,-2.044 2.026,1.056 4.037,4.63401 1.05,4.254 C 1.562,-0.40713 0,-2.23813 0,-2.23813 Z"
                               style="fill:#ffe8d6;fill-opacity:1;fill-rule:nonzero;stroke:none"
                               id="path160521" />
                          </g>
                        </g>
                      </g>
                      <g
                         transform="translate(608.24209,45.75684)"
                         id="g160535">
                        <g
                           id="g160533">
                          <g
                             id="g160531">
                            <path
                               d="m 2.64611,-4.51557 c -1.673,0.772 -2.729,2.094 -2.641,2.621 0.087,0.53 3,2.994 4.842,1.32 1.844,-1.671 -2.201,-3.941 -2.201,-3.941 z"
                               style="fill:#ffe8d6;fill-opacity:1;fill-rule:nonzero;stroke:none"
                               id="path160529" />
                          </g>
                        </g>
                      </g>
                      <g
                         transform="translate(613.38746,35.99757)"
                         id="g160543">
                        <g
                           id="g160541">
                          <g
                             id="g160539">
                            <path
                               d="m 0.18364,-2.5248 c -0.82,0.935 1.28,3.523 2.864,2.113 1.585,-1.408 -1.082,-4.145 -2.864,-2.113 z"
                               style="fill:#ffe8d6;fill-opacity:1;fill-rule:nonzero;stroke:none"
                               id="path160537" />
                          </g>
                        </g>
                      </g>
                      <g
                         transform="translate(614.4815,23.21573)"
                         id="g160551">
                        <g
                           id="g160549">
                          <g
                             id="g160547">
                            <path
                               d="m 0.1925,-2.15807 c 0,0 0.352,-1.144 2.245,-0.351 1.893,0.793 0.881,3.081 -1.122,2.376 -2.003,-0.705 -1.123,-2.025 -1.123,-2.025 z"
                               style="fill:#ffe8d6;fill-opacity:1;fill-rule:nonzero;stroke:none"
                               id="path160545" />
                          </g>
                        </g>
                      </g>
                      <g
                         transform="translate(249.86794,108.0923)"
                         id="g160559">
                        <g
                           id="g160557">
                          <g
                             id="g160555">
                            <path
                               d="m 12.4723,-6.97043 c -1.457,-1.001 -2.62304,0.414 -3.79704,1.94 -1.174,1.527 -0.821,1.99 -1.76,3.459 -0.939,1.473 -3.053,2.638 -5.401,0 -2.34801,-2.637 -1.66101,-7.313 0,-8.74197 1.662,-1.429 5.1,-2.937 4.721,-5.871 -0.376,-2.935 5.05104,-6.14 10.86404,-5.252 5.195,0.791 7.748,1.847 9.421,3.373 1.649,1.504 8.101,9.50897 0.587,11.27097 -7.513,1.762 -12.758,1.113 -14.635,-0.178 z"
                               style="fill:#fac29e;fill-opacity:1;fill-rule:nonzero;stroke:none"
                               id="path160553" />
                          </g>
                        </g>
                      </g>
                      <g
                         transform="translate(231.7533,101.96547)"
                         id="g160567">
                        <g
                           id="g160565">
                          <g
                             id="g160563">
                            <path
                               d="m 8.559,-15.579 c 0.031,-0.018 0.062,-0.035 0.093,-0.053 -0.031,0.018 -0.062,0.035 -0.093,0.053 z m -0.711,0.391 c 0.003,-0.002 0.006,-0.003 0.01,-0.005 -0.003,0.002 -0.007,0.003 -0.01,0.005 z m -0.158,0.083 c 0.02,-0.01 0.039,-0.021 0.059,-0.031 -0.02,0.01 -0.039,0.021 -0.059,0.031 z M 0,-12.627 0.002,-12.629 c 2.721,-0.363 5.319,-1.248 7.649,-2.456 -2.311,1.199 -4.886,2.086 -7.585,2.456 -0.022,10e-4 -0.044,0.002 -0.066,0.002 z M 49.241,0 c -0.03,0 -0.06,-0.002 -0.089,-0.007 0.047,0.002 0.094,0.003 0.141,0.005 C 49.276,0 49.259,0 49.241,0 Z"
                               style="fill:#f2d9cc;fill-opacity:1;fill-rule:nonzero;stroke:none"
                               id="path160561" />
                          </g>
                        </g>
                      </g>
                      <g
                         transform="translate(231.8193,101.96357)"
                         id="g160575">
                        <g
                           id="g160573">
                          <g
                             id="g160571">
                            <path
                               d="m 49.227,0 c -0.047,-0.002 -0.094,-0.003 -0.141,-0.005 -0.63,-0.101 -1.123,-1.269 -0.718,-2.739 1.562,-3.051 -2.534,-8.036 -3.8,-9.19 -1.672,-1.526 -4.225,-2.583 -9.421,-3.374 -0.672,-0.102 -1.339,-0.15 -1.992,-0.15 -0.796,0 -1.571,0.071 -2.311,0.201 2.04,-1.038 3.772,-1.857 3.16,-2.781 -1.828,-2.762 -4.028,-4.034 -6.422,-4.034 -1.814,0 -3.74,0.73 -5.702,2.096 -4.541,3.162 -13.366,7.024 -21.88,7.349 2.699,-0.37 5.273,-1.257 7.585,-2.456 0.013,-0.007 0.026,-0.013 0.039,-0.02 0.02,-0.01 0.039,-0.021 0.059,-0.031 0.033,-0.017 0.066,-0.034 0.099,-0.052 0.003,-0.002 0.007,-0.004 0.01,-0.005 0.236,-0.126 0.47,-0.254 0.701,-0.386 0.031,-0.018 0.062,-0.035 0.093,-0.053 3.053,-1.762 10.801,-7.926 13.56,-9.512 1.116,-0.641 2.358,-0.907 3.53,-0.907 1.724,0 3.298,0.575 4.102,1.377 1.349,1.351 13.97,7.455 17.021,8.161 3.052,0.703 7.162,0.235 10.333,1.172 -0.242,-0.013 -0.477,-0.019 -0.702,-0.019 -8.238,0 -5.359,8.181 -5.873,12.582 -0.226,1.939 -0.805,2.728 -1.33,2.776 z"
                               style="fill:#edb28c;fill-opacity:1;fill-rule:nonzero;stroke:none"
                               id="path160569" />
                          </g>
                        </g>
                      </g>
                      <g
                         transform="translate(254.4392,102.05087)"
                         id="g160583">
                        <g
                           id="g160581">
                          <g
                             id="g160579">
                            <path
                               d="M 2.836,0 C 2.795,-0.132 2.749,-0.266 2.696,-0.399 2.281,-1.452 1.224,-2.581 0,-3.227 c 0.945,-1.251 2.165,-2.866 2.402,-3.157 3.346,-4.11 -0.738,-3.759 1.762,-6.328 1.032,-1.062 2.623,-1.902 4.06,-2.632 0.74,-0.13 1.516,-0.202 2.311,-0.202 0.654,0 1.32,0.048 1.993,0.151 5.195,0.791 7.748,1.848 9.421,3.374 1.265,1.153 5.361,6.138 3.799,9.19 0.003,-0.011 0.006,-0.022 0.009,-0.032 0.789,-2.79 -0.27,-4.072 -3.279,-5.557 -1.136,-0.56 -2.342,-0.751 -3.65,-0.751 -2.158,0 -4.593,0.519 -7.444,0.751 C 6.805,-8.049 8.743,-6.328 6.628,-2.863 6.516,-2.678 4.117,-0.961 2.836,0 Z"
                               style="fill:#edb28c;fill-opacity:1;fill-rule:nonzero;stroke:none"
                               id="path160577" />
                          </g>
                        </g>
                      </g>
                      <g
                         transform="translate(251.3396,107.04747)"
                         id="g160591">
                        <g
                           id="g160589">
                          <g
                             id="g160587">
                            <path
                               d="M 0.001,-0.574 C 0,-0.574 0,-0.575 0,-0.575 c 0,0 0,0 0.001,0.001 z m 0.515,0.532 C 0.359,-0.187 0.202,-0.348 0.043,-0.527 c 0.159,0.179 0.316,0.34 0.473,0.485 z M 0.562,0 C 0.552,-0.009 0.543,-0.017 0.533,-0.026 0.543,-0.017 0.552,-0.009 0.562,0 Z"
                               style="fill:#ffe0cf;fill-opacity:1;fill-rule:nonzero;stroke:none"
                               id="path160585" />
                          </g>
                        </g>
                      </g>
                      <g
                         transform="translate(249.87511,108.08917)"
                         id="g160599">
                        <g
                           id="g160597">
                          <g
                             id="g160595">
                            <path
                               d="m 4.34259,0 c -0.704,0 -1.49,-0.293 -2.316,-1.042 -0.01,-0.008 -0.019,-0.017 -0.029,-0.026 -0.006,-0.005 -0.012,-0.01 -0.017,-0.016 -0.157,-0.145 -0.315,-0.306 -0.473,-0.484 -0.014,-0.016 -0.028,-0.032 -0.042,-0.048 -10e-4,0 -10e-4,-10e-4 -10e-4,-10e-4 -1.784,-2.057 -1.756,-5.288 -0.885,-7.304 0.588,-0.624 1.295,-0.882 2.028,-0.882 0.653,0 1.327,0.205 1.957,0.538 -0.547,0.724 -1.001,1.325 -1.12,1.479 1.571,0.667 1.533,1.223 3.171,2.376 0.042,-0.061 0.348,-0.301 0.784,-0.628 0.538,1.745 0.085,3.372 -0.296,4.135 l -0.195,0.335 c -0.095,0.124 -0.493,0.532 -1.042,1.078 -0.439,0.298 -0.955,0.49 -1.524,0.49 z"
                               style="fill:#fcc29e;fill-opacity:1;fill-rule:nonzero;stroke:none"
                               id="path160593" />
                          </g>
                        </g>
                      </g>
                      <g
                         transform="translate(253.3204,102.67937)"
                         id="g160607">
                        <g
                           id="g160605">
                          <g
                             id="g160603">
                            <path
                               d="M 3.17,0 C 1.532,-1.153 1.57,-1.709 0,-2.376 0.118,-2.53 0.573,-3.132 1.119,-3.855 c 1.223,0.646 2.28,1.775 2.696,2.828 0.053,0.133 0.099,0.266 0.14,0.398 C 3.519,-0.301 3.212,-0.061 3.17,0 Z"
                               style="fill:#f7ba96;fill-opacity:1;fill-rule:nonzero;stroke:none"
                               id="path160601" />
                          </g>
                        </g>
                      </g>
                      <g
                         transform="translate(528.1517,83.33937)"
                         id="g160615">
                        <g
                           id="g160613">
                          <g
                             id="g160611">
                            <path
                               d="m 7.727,-1.451 c 0,0.335 -0.322,0.995 -2.855,1.04 C 1.467,-0.354 0,0 0,0 c 0,0 0.682,-7.819 3.854,-6.855 0.876,0.413 1.922,0.993 2.308,1.572 0.704,1.056 -0.352,2.7 -0.352,2.7 l 1.879,0.937 z"
                               style="fill:#e8b28f;fill-opacity:1;fill-rule:nonzero;stroke:none"
                               id="path160609" />
                          </g>
                        </g>
                      </g>
                      <g
                         transform="translate(496.31827,129.27315)"
                         id="g160623">
                        <g
                           id="g160621">
                          <g
                             id="g160619">
                            <path
                               d="m 15.1031,-7.19348 c -2.855,6.581 -7.63097,8.922 -11.73897,5.872 -4.109,-3.054 -3.874,-8.69002 -2.348,-14.67602 1.526,-5.988 3.991,-8.101 3.991,-10.214 0,-2.113 4.227,-0.47 5.63497,2.935 1.409,3.405 2.936,1.291 2.701,6.223 -0.236,4.929 -2.114,4.226 0.117,6.104 2.231,1.87802 2.229,2.40502 1.643,3.75602 z"
                               style="fill:#fac29e;fill-opacity:1;fill-rule:nonzero;stroke:none"
                               id="path160617" />
                          </g>
                        </g>
                      </g>
                      <g
                         transform="translate(500.55386,120.47879)"
                         id="g160631">
                        <g
                           id="g160629">
                          <g
                             id="g160627">
                            <path
                               d="m 4.88084,-0.04202 c -4.403,-1.092 -5.87,-3.269 -4.226,-5.038 1.643,-1.771 2.954,-1.42 2.826,-4.119 -0.126,-2.69998 1.165,-0.352 1.4,2.113 0.235,2.464 -0.939,2.113 0,3.639 0.939,1.527 1.518,3.783 0,3.405 z"
                               style="fill:#d99670;fill-opacity:1;fill-rule:nonzero;stroke:none"
                               id="path160625" />
                          </g>
                        </g>
                      </g>
                      <g
                         transform="translate(496.31827,129.27357)"
                         id="g160639">
                        <g
                           id="g160637">
                          <g
                             id="g160635">
                            <path
                               d="m 5.40213,-27.0141 c 0.51,2.633 -0.27,6.584 -2.156,9.96 -2.23,3.991 -3.238,8.445 0.47,12.32 3.707,3.875 6.089,1.617 9.15597,-2.225 0.622,-0.779 1.48,-1.465 2.391,-2.056 0.288,0.596 0.158,1.09 -0.16,1.821 -2.855,6.582 -7.63097,8.923 -11.73897,5.872 -4.109,-3.054 -3.874,-8.69 -2.348,-14.676 1.526,-5.987 3.992,-8.1 3.992,-10.214 0,-0.394 0.147,-0.657 0.394,-0.802 z"
                               style="fill:#ffba8f;fill-opacity:1;fill-rule:nonzero;stroke:none"
                               id="path160633" />
                          </g>
                        </g>
                      </g>
                      <g
                         transform="translate(279.4065,112.78132)"
                         id="g160647">
                        <g
                           id="g160645">
                          <g
                             id="g160643">
                            <path
                               d="m 9.544,-26.1563 c 3.17,0.94 11.857,4.345 18.667,5.401 6.809,1.057 15.614,4.227 24.536,4.462 8.923,0.235 21.954,1.643 32.284,1.643 10.332,0 11.976,0.705 11.976,0.705 -7.397,6.80905 -8.336,11.03505 -9.979,12.44305 -1.644,1.408 -4.697,3.521 -26.299,-2.818 -21.6,-6.33905 -45.316,-12.91405 -52.594,-13.61905 -4.766,-0.46 -5.617,-4.252 -8.135,-9.25 2.948,0.485 6.636,0.171 9.544,1.033 z"
                               style="fill:#e5a17a;fill-opacity:1;fill-rule:nonzero;stroke:none"
                               id="path160641" />
                          </g>
                        </g>
                      </g>
                    </g>
                  </g>
                </g>
              </g>
            </g>
          </g>
        </g>
      </g>
    </g>
  </g>
</svg>
