<?xml version="1.0" encoding="UTF-8" standalone="no"?>
<!-- Created with Inkscape (http://www.inkscape.org/) -->

<svg
   version="1.1"
   id="svg160831"
   width="400"
   height="200"
   viewBox="0 0 400 200"
   sodipodi:docname="1539_word.pdf"
   xmlns:inkscape="http://www.inkscape.org/namespaces/inkscape"
   xmlns:sodipodi="http://sodipodi.sourceforge.net/DTD/sodipodi-0.dtd"
   xmlns="http://www.w3.org/2000/svg"
   xmlns:svg="http://www.w3.org/2000/svg">
  <defs
     id="defs160835">
    <clipPath
       clipPathUnits="userSpaceOnUse"
       id="clipPath160853">
      <path
         d="m 0,-244.60825 h 369.30795 v 489.2165 H 0 Z"
         id="path160851" />
    </clipPath>
  </defs>
  <sodipodi:namedview
     id="namedview160833"
     pagecolor="#ffffff"
     bordercolor="#000000"
     borderopacity="0.25"
     inkscape:showpageshadow="2"
     inkscape:pageopacity="0.0"
     inkscape:pagecheckerboard="0"
     inkscape:deskcolor="#d1d1d1" />
  <g
     id="g160837"
     inkscape:groupmode="layer"
     inkscape:label="1539_word84"
     transform="matrix(1.3333333,0,0,-1.3333333,0,200)">
    <g
       id="g160839">
      <g
         id="g160841">
        <g
           id="g160843"
           transform="translate(88.44833,129.76827)">
          <g
             id="g160845"
             transform="matrix(0.33334,0,0,0.33334,0,-27.179)">
            <g
               id="g160847">
              <g
                 id="g160849" />
              <g
                 id="g160889">
                <g
                   clip-path="url(#clipPath160853)"
                   id="g160887">
                  <g
                     transform="translate(0,-2.16944)"
                     id="g160861">
                    <g
                       id="g160859">
                      <g
                         id="g160857">
                        <path
                           d="m 60.3462,-144.552 c -19.015,0 -33.8264,5.048 -44.4343,15.145 C 5.30395,-119.31 0,-105.646 0,-88.4149 c 0,13.1217 2.7276,25.7218 8.1828,37.8005 l 12.1568,-1.549 c -3.0978,-9.4292 -4.6468,-19.0045 -4.6468,-28.7258 0,-11.6406 2.4303,-20.7358 7.291,-27.2868 4.8711,-6.56 11.0251,-11.166 18.4621,-13.815 7.4371,-2.66 14.8376,-3.99 22.2016,-3.99 20.3396,0 36.0324,5.523 47.0785,16.569 5.017,5.602 7.526,10.2432 7.526,13.9252 0,1.3351 -0.48,2.665 -1.44,3.9897 -0.959,1.3247 -3.025,2.7954 -6.196,4.4121 -3.16,1.6272 -8.057,3.4682 -14.6911,5.523 l -11.046,3.536 c -9.1372,2.8058 -15.3642,6.1592 -18.6812,10.0603 -3.3169,3.901 -4.9754,9.1685 -4.9754,15.8023 0,5.0067 1.2152,10.7122 3.6455,17.1166 2.4304,6.4148 6.4461,12.6419 12.0474,18.6812 C 87.9612,-5.4552 99.6747,0 112.056,0 c 13.257,0 21.727,-6.8529 25.409,-20.5587 l -10.608,-12.1568 c -4.412,10.1698 -10.744,15.2547 -18.994,15.2547 -6.342,0 -11.9068,-1.695 -16.6944,-5.0849 -4.7877,-3.39 -8.5479,-7.4057 -11.2807,-12.0473 -2.7224,-4.6417 -4.0836,-8.8765 -4.0836,-12.7045 0,-2.3573 0.9961,-4.4956 2.9884,-6.4148 1.9922,-1.9088 6.227,-3.8958 12.7044,-5.9611 l 15.9119,-5.0849 c 8.105,-2.3573 14.478,-5.3405 19.119,-8.9495 4.642,-3.6089 6.963,-8.9494 6.963,-16.0213 0,-11.2029 -4.199,-21.2989 -12.595,-30.2909 -7.959,-8.396 -17.242,-14.582 -27.8499,-18.556 -10.6079,-3.984 -21.5079,-5.976 -32.6999,-5.976 z"
                           style="fill:#f81436;fill-opacity:1;fill-rule:nonzero;stroke:none"
                           id="path160855" />
                      </g>
                    </g>
                  </g>
                  <g
                     transform="translate(132.07354,-41.06511)"
                     id="g160869">
                    <g
                       id="g160867">
                      <g
                         id="g160865">
                        <path
                           d="m 39.7875,-122.007 h -4.1931 c -16.0631,0 -27.92792,3.093 -35.5944,9.278 l 2.00267,14.379 c 2.20086,-1.773 5.06927,-3.249 8.60523,-4.428 3.536,-1.178 7.1085,-2.06 10.7174,-2.644 3.6195,-0.595 6.7538,-0.965 9.4032,-1.111 l 3.755,-0.438 c 11.2025,1.909 19.8234,7.6927 25.8627,17.3514 6.0393,9.6483 9.424,20.3657 10.1542,32.1523 -1.7628,12.5271 -8.1672,28.9553 -19.2132,49.2845 L 67.4181,0 c 4.7146,-9.42925 8.7669,-18.5664 12.1569,-27.4116 2.7954,-5.7472 6.0341,-9.69 9.7161,-11.8283 3.682,-2.1382 7.9533,-3.2074 12.8139,-3.2074 3.244,0 6.008,-0.8084 8.292,-2.4251 2.285,-1.6167 3.427,-4.1201 3.427,-7.51 0,-6.7799 -3.906,-10.1698 -11.719,-10.1698 -6.6234,0 -11.8491,1.2516 -15.6771,3.755 0,-3.8281 -0.2973,-7.218 -0.8919,-10.1699 C 83.3248,-81.3377 78.8657,-92.9 72.1588,-103.654 65.4624,-114.418 54.6719,-120.536 39.7875,-122.007 Z"
                           style="fill:#000000;fill-opacity:1;fill-rule:nonzero;stroke:none"
                           id="path160863" />
                      </g>
                    </g>
                  </g>
                  <g
                     transform="translate(286.79005,81.53654)"
                     id="g160877">
                    <g
                       id="g160875">
                      <g
                         id="g160873">
                        <path
                           d="M 1.54894,-20.105 0,-12.814 C 13.8518,-8.53744 25.7844,-4.26611 35.7978,0 l 1.3299,-7.94811 C 25.1951,-12.8088 13.3355,-16.861 1.54894,-20.105 Z"
                           style="fill:#000000;fill-opacity:1;fill-rule:nonzero;stroke:none"
                           id="path160871" />
                      </g>
                    </g>
                  </g>
                  <g
                     transform="translate(220.57817,-21.61728)"
                     id="g160885">
                    <g
                       id="g160883">
                      <g
                         id="g160881">
                        <path
                           d="M 13.7058,-82.0001 H 11.265 c -3.68196,0 -6.47736,0.9544 -8.38616,2.8632 C 0.95961,-77.2177 0,-74.8551 0,-72.0493 c 0,2.5033 0.85009,4.8189 2.55028,6.9468 1.68975,2.1382 4.59467,3.2074 8.71472,3.2074 h 2.6598 c 28.4338,0 53.4047,4.8659 74.9125,14.5976 l 7.7447,3.536 c 5.893,2.7954 11.046,4.9284 15.458,6.3991 -4.86,1.7732 -10.086,3.9115 -15.677,6.4148 -7.0824,3.244 -14.4151,6.2271 -21.9981,8.9495 -7.5831,2.7224 -14.8375,4.0836 -21.7634,4.0836 -11.6406,0 -21.5131,-1.6898 -29.6177,-5.0693 l 3.0979,18.11793 C 33.1536,-1.62196 42.0666,0 52.8205,0 c 9.4293,0 18.4882,-1.54894 27.1769,-4.64683 8.6991,-3.09788 17.247,-6.63387 25.6436,-10.60787 10.159,-4.5686 17.45,-7.4423 21.873,-8.6209 4.423,-1.1787 8.772,-1.768 13.049,-1.768 h 8.167 l -3.082,-18.337 h -3.536 c -10.17,0 -22.989,-4.7146 -38.458,-14.1439 C 87.7369,-67.4077 72.962,-73.7078 59.3292,-77.0247 45.7068,-80.3416 30.499,-82.0001 13.7058,-82.0001 Z m 67.6215,-47.2979 c -3.2439,0 -5.935,1.106 -8.0733,3.317 -2.1278,2.212 -3.1917,5.158 -3.1917,8.84 0,3.536 1.0639,6.41 3.1917,8.621 2.1383,2.211 4.9024,3.317 8.2923,3.317 6.926,0 10.6862,-3.979 11.2807,-11.938 0,-7.51 -3.8332,-11.562 -11.4997,-12.157 z"
                           style="fill:#000000;fill-opacity:1;fill-rule:nonzero;stroke:none"
                           id="path160879" />
                      </g>
                    </g>
                  </g>
                </g>
              </g>
            </g>
          </g>
        </g>
      </g>
    </g>
  </g>
</svg>
