<?xml version="1.0" encoding="UTF-8" standalone="no"?>
<!-- Created with Inkscape (http://www.inkscape.org/) -->

<svg
   version="1.1"
   id="svg160921"
   width="400"
   height="400"
   viewBox="0 0 400 400"
   sodipodi:docname="1540_pic.pdf"
   xmlns:inkscape="http://www.inkscape.org/namespaces/inkscape"
   xmlns:sodipodi="http://sodipodi.sourceforge.net/DTD/sodipodi-0.dtd"
   xmlns="http://www.w3.org/2000/svg"
   xmlns:svg="http://www.w3.org/2000/svg">
  <defs
     id="defs160925">
    <clipPath
       clipPathUnits="userSpaceOnUse"
       id="clipPath160941">
      <path
         d="M 0,0 H 113.44441 V -185.99996 H 0 Z"
         clip-rule="evenodd"
         id="path160939" />
    </clipPath>
    <clipPath
       clipPathUnits="userSpaceOnUse"
       id="clipPath160951">
      <path
         d="M 0,-558.00002 H 340.33332 V 558.00002 H 0 Z"
         id="path160949" />
    </clipPath>
  </defs>
  <sodipodi:namedview
     id="namedview160923"
     pagecolor="#ffffff"
     bordercolor="#000000"
     borderopacity="0.25"
     inkscape:showpageshadow="2"
     inkscape:pageopacity="0.0"
     inkscape:pagecheckerboard="0"
     inkscape:deskcolor="#d1d1d1" />
  <g
     id="g160927"
     inkscape:groupmode="layer"
     inkscape:label="1540_pic85"
     transform="matrix(1.3333333,0,0,-1.3333333,0,400)">
    <g
       id="g160929">
      <g
         id="g160931">
        <g
           id="g160933"
           transform="translate(93.2778,242.99998)">
          <g
             id="g160935">
            <g
               id="g160937"
               clip-path="url(#clipPath160941)">
              <g
                 id="g160943"
                 transform="matrix(0.33333,0,0,0.33333,0,-61.99997)">
                <g
                   id="g160945">
                  <g
                     id="g160947" />
                  <g
                     id="g161587">
                    <g
                       clip-path="url(#clipPath160951)"
                       id="g161585">
                      <g
                         transform="translate(98.60708,-246.19817)"
                         id="g160959">
                        <g
                           id="g160957">
                          <g
                             id="g160955">
                            <path
                               d="m 8.73983,0 c 0,0 -10.689,-44.174 -8.425,-93.667 l 15.54897,-1.094 c 0,0 -1.623,66.793 11.661,90.653 z"
                               style="fill:#f5d9bf;fill-opacity:1;fill-rule:nonzero;stroke:none"
                               id="path160953" />
                          </g>
                        </g>
                      </g>
                      <g
                         transform="translate(208.0762,-239.96137)"
                         id="g160967">
                        <g
                           id="g160965">
                          <g
                             id="g160963">
                            <path
                               d="m 0,-3.978 c 0,0 14.239,-64.826 23.641,-85.531 l 15.214,4.657 c 0,0 -13.602,54.497 -19.428,84.852 z"
                               style="fill:#f5d9bf;fill-opacity:1;fill-rule:nonzero;stroke:none"
                               id="path160961" />
                          </g>
                        </g>
                      </g>
                      <g
                         transform="translate(105.3929,-250.10257)"
                         id="g160975">
                        <g
                           id="g160973">
                          <g
                             id="g160971">
                            <path
                               d="m 17.259,-8.317 c -0.257,-0.761 -0.508,-1.547 -0.749,-2.346 h 10e-4 c 0.242,0.8 0.491,1.582 0.748,2.346 z M 1.086,0 C 0.782,-1.44 0.412,-3.252 0,-5.397 0.001,-5.398 0.002,-5.399 0.003,-5.399 0.414,-3.252 0.783,-1.439 1.087,0 Z"
                               style="fill:#f5d9bf;fill-opacity:1;fill-rule:nonzero;stroke:none"
                               id="path160969" />
                          </g>
                        </g>
                      </g>
                      <g
                         transform="translate(105.3959,-250.10307)"
                         id="g160983">
                        <g
                           id="g160981">
                          <g
                             id="g160979">
                            <path
                               d="M 1.084,0 C 0.78,-1.438 0.411,-3.252 0,-5.399 5.151,-7.868 11.265,-9.5 16.507,-10.662 c 0.241,0.798 0.492,1.584 0.749,2.345 0.521,1.548 1.075,3.016 1.665,4.391 C 12.466,-2.678 6.363,-1.295 1.084,0 Z"
                               style="fill:#e8ba8f;fill-opacity:1;fill-rule:nonzero;stroke:none"
                               id="path160977" />
                          </g>
                        </g>
                      </g>
                      <g
                         transform="translate(209.8269,-251.20517)"
                         id="g160991">
                        <g
                           id="g160989">
                          <g
                             id="g160987">
                            <path
                               d="M 0.002,-0.5 H 0 C 0.509,-2.72 1.117,-5.339 1.804,-8.255 1.118,-5.34 0.511,-2.719 0.002,-0.5 Z M 19.948,0 c 0.267,-1.267 0.541,-2.559 0.821,-3.863 0,0 0.001,0 0.002,10e-4 C 20.49,-2.558 20.215,-1.268 19.948,0 Z"
                               style="fill:#f5d9bf;fill-opacity:1;fill-rule:nonzero;stroke:none"
                               id="path160985" />
                          </g>
                        </g>
                      </g>
                      <g
                         transform="translate(209.8288,-247.24827)"
                         id="g160999">
                        <g
                           id="g160997">
                          <g
                             id="g160995">
                            <path
                               d="M 19.124,0 C 18.333,-0.212 17.543,-0.42 16.755,-0.624 10.946,-2.122 5.222,-3.398 0,-4.457 c 0.509,-2.219 1.116,-4.84 1.802,-7.755 6.373,1.2 12.702,2.638 18.965,4.392 -0.28,1.304 -0.554,2.596 -0.821,3.864 -0.283,1.343 -0.557,2.662 -0.822,3.956 z"
                               style="fill:#e8ba8f;fill-opacity:1;fill-rule:nonzero;stroke:none"
                               id="path160993" />
                          </g>
                        </g>
                      </g>
                      <g
                         transform="translate(60.09926,-337.3002)"
                         id="g161007">
                        <g
                           id="g161005">
                          <g
                             id="g161003">
                            <path
                               d="m 55.925,-2.80497 c -1.201,1.321 -5.912,-0.916 -5.912,-0.916 0,0 -8.168,7.12 -13.402,1.662 0,0 -38.88696,-10.23103 -36.50596,-28.11503 0,0 31.37896,-0.044 56.62496,11.007 0.067,5.617 0.046,15.42403 -0.805,16.36203 z"
                               style="fill:#009999;fill-opacity:1;fill-rule:nonzero;stroke:none"
                               id="path161001" />
                          </g>
                        </g>
                      </g>
                      <g
                         transform="translate(60.2047,-356.46707)"
                         id="g161015">
                        <g
                           id="g161013">
                          <g
                             id="g161011">
                            <path
                               d="m 0,-11.007 1.935,-4.526 c 0,0 44.625,1.672 54.629,11.632 0,0 0.039,1.603 0.061,3.901 C 31.378,-11.052 0,-11.007 0,-11.007 Z"
                               style="fill:#ffcc26;fill-opacity:1;fill-rule:nonzero;stroke:none"
                               id="path161009" />
                          </g>
                        </g>
                      </g>
                      <g
                         transform="translate(103.5391,-360.42707)"
                         id="g161023">
                        <g
                           id="g161021">
                          <g
                             id="g161019">
                            <path
                               d="M 0.034,-6.081 C 0.023,-6.084 0.012,-6.087 0,-6.09 c 0.012,0.003 0.023,0.006 0.034,0.009 z m 0.135,0.037 c -0.013,-0.004 -0.027,-0.008 -0.04,-0.011 0.013,0.004 0.026,0.007 0.04,0.011 z m 0.146,0.04 C 0.296,-6.009 0.275,-6.015 0.256,-6.02 c 0.02,0.005 0.039,0.011 0.059,0.016 z m 0.134,0.037 C 0.425,-5.973 0.403,-5.98 0.38,-5.986 c 0.023,0.006 0.045,0.013 0.069,0.019 z m 0.154,0.043 c -0.035,-0.01 -0.066,-0.018 -0.101,-0.028 0.033,0.009 0.068,0.019 0.101,0.028 z m 10.842,4.527 C 8.819,-3.198 5.004,-4.689 0.607,-5.922 c 4.397,1.232 8.212,2.724 10.838,4.525 z m 0.078,0.054 c -0.024,-0.017 -0.049,-0.034 -0.073,-0.051 0.024,0.017 0.049,0.034 0.073,0.051 z m 0.071,0.05 c -0.021,-0.016 -0.045,-0.032 -0.067,-0.047 0.023,0.015 0.045,0.031 0.067,0.047 z m 0.078,0.054 c -0.022,-0.015 -0.042,-0.03 -0.064,-0.045 0.021,0.015 0.043,0.03 0.064,0.045 z m 0.073,0.053 c -0.02,-0.015 -0.041,-0.029 -0.061,-0.044 0.02,0.015 0.041,0.029 0.061,0.044 z m 0.076,0.055 c -0.019,-0.014 -0.04,-0.029 -0.059,-0.043 0.02,0.014 0.039,0.028 0.059,0.043 z m 0.073,0.054 c -0.019,-0.015 -0.038,-0.029 -0.058,-0.043 0.02,0.014 0.039,0.028 0.058,0.043 z m 0.074,0.055 c -0.018,-0.014 -0.037,-0.028 -0.056,-0.042 0.019,0.014 0.038,0.027 0.056,0.042 z m 0.072,0.054 c -0.018,-0.014 -0.036,-0.027 -0.054,-0.041 0.018,0.013 0.036,0.027 0.054,0.041 z m 0.072,0.055 c -0.017,-0.014 -0.034,-0.026 -0.051,-0.039 0.018,0.013 0.034,0.025 0.051,0.039 z m 0.07,0.054 c -0.016,-0.012 -0.032,-0.025 -0.049,-0.038 0.017,0.013 0.033,0.025 0.049,0.038 z m 0.071,0.055 c -0.015,-0.011 -0.03,-0.022 -0.044,-0.034 0.014,0.012 0.029,0.023 0.044,0.034 z m 0.071,0.057 c -0.015,-0.012 -0.03,-0.023 -0.045,-0.036 0.015,0.013 0.03,0.024 0.045,0.036 z m 0.07,0.057 c -0.015,-0.012 -0.03,-0.024 -0.045,-0.037 0.015,0.013 0.03,0.025 0.045,0.037 z m 0.068,0.055 c -0.015,-0.012 -0.029,-0.024 -0.044,-0.036 0.015,0.012 0.029,0.024 0.044,0.036 z m 0.068,0.058 c -0.013,-0.012 -0.028,-0.024 -0.041,-0.035 0.014,0.012 0.028,0.023 0.041,0.035 z m 0.067,0.056 c -0.013,-0.011 -0.027,-0.023 -0.04,-0.034 0.014,0.011 0.027,0.022 0.04,0.034 z m 0.067,0.056 c -0.013,-0.01 -0.025,-0.02 -0.037,-0.031 0.012,0.011 0.024,0.021 0.037,0.031 z m 0.066,0.058 c -0.013,-0.011 -0.025,-0.021 -0.037,-0.032 0.012,0.011 0.024,0.021 0.037,0.032 z m 0.065,0.058 c -0.011,-0.01 -0.024,-0.021 -0.035,-0.031 0.012,0.01 0.024,0.021 0.035,0.031 z m 0.065,0.058 c -0.013,-0.012 -0.024,-0.022 -0.037,-0.033 0.012,0.011 0.025,0.022 0.037,0.033 z m 0.063,0.058 c -0.011,-0.011 -0.023,-0.021 -0.035,-0.032 0.012,0.011 0.024,0.021 0.035,0.032 z m 0.063,0.058 c -0.01,-0.01 -0.022,-0.021 -0.032,-0.03 0.01,0.009 0.021,0.019 0.032,0.03 z m 0.062,0.058 c -0.009,-0.009 -0.019,-0.018 -0.028,-0.027 0.009,0.009 0.019,0.018 0.028,0.027 z m 0.062,0.058 c -0.01,-0.008 -0.02,-0.018 -0.029,-0.027 0.009,0.009 0.019,0.018 0.029,0.027 z M 13.17,0 c -0.008,-0.007 -0.015,-0.015 -0.023,-0.021 0.008,0.007 0.015,0.014 0.023,0.021 z"
                               style="fill:#ffcc26;fill-opacity:1;fill-rule:nonzero;stroke:none"
                               id="path161017" />
                          </g>
                        </g>
                      </g>
                      <g
                         transform="translate(100.6713,-356.46697)"
                         id="g161031">
                        <g
                           id="g161029">
                          <g
                             id="g161027">
                            <path
                               d="M 16.158,0 C 10.926,-2.287 5.435,-4.098 0.011,-5.534 0.007,-5.537 0.004,-5.539 0,-5.542 5.427,-4.105 10.924,-2.291 16.158,0 Z"
                               style="fill:#007a17;fill-opacity:1;fill-rule:nonzero;stroke:none"
                               id="path161025" />
                          </g>
                        </g>
                      </g>
                      <g
                         transform="translate(84.7003,-356.46697)"
                         id="g161039">
                        <g
                           id="g161037">
                          <g
                             id="g161035">
                            <path
                               d="M 32.129,0 C 26.895,-2.291 21.398,-4.105 15.971,-5.542 11.365,-8.993 5.557,-11.47 0,-13.579 c 6.324,0.815 13.05,1.955 18.839,3.529 0.011,0.003 0.023,0.006 0.034,0.009 0.031,0.009 0.063,0.017 0.094,0.026 0.014,0.003 0.027,0.007 0.041,0.011 0.028,0.008 0.058,0.016 0.087,0.024 0.018,0.005 0.04,0.011 0.059,0.016 0.021,0.006 0.043,0.012 0.064,0.018 0.024,0.006 0.046,0.013 0.069,0.019 0.019,0.005 0.036,0.01 0.054,0.015 0.034,0.009 0.066,0.018 0.1,0.028 0.002,0 0.003,0.001 0.005,0.002 4.397,1.233 8.212,2.724 10.838,4.525 0.001,0.001 0.003,0.002 0.004,0.003 0.025,0.017 0.05,0.034 0.074,0.051 0.001,0.001 0.002,0.002 0.004,0.003 0.022,0.015 0.046,0.031 0.067,0.047 0.005,0.003 0.009,0.006 0.014,0.009 0.021,0.015 0.042,0.03 0.063,0.045 0.004,0.003 0.009,0.006 0.013,0.009 0.02,0.015 0.04,0.029 0.061,0.044 0.005,0.003 0.011,0.008 0.016,0.012 0.02,0.014 0.04,0.028 0.06,0.043 0.005,0.003 0.01,0.007 0.015,0.011 0.019,0.014 0.039,0.028 0.058,0.043 0.006,0.004 0.012,0.009 0.018,0.013 0.018,0.014 0.038,0.028 0.056,0.042 0.006,0.004 0.012,0.008 0.017,0.013 0.019,0.013 0.037,0.027 0.055,0.041 0.007,0.005 0.014,0.01 0.021,0.015 0.017,0.014 0.034,0.026 0.051,0.04 0.007,0.005 0.014,0.011 0.021,0.016 0.017,0.013 0.033,0.026 0.049,0.038 0.009,0.007 0.018,0.014 0.026,0.021 0.015,0.011 0.03,0.023 0.045,0.034 0.008,0.007 0.017,0.014 0.026,0.021 0.015,0.013 0.03,0.024 0.045,0.036 0.008,0.007 0.016,0.014 0.025,0.02 0.015,0.013 0.03,0.025 0.045,0.037 0.007,0.006 0.016,0.013 0.023,0.019 0.015,0.012 0.03,0.024 0.045,0.036 0.009,0.008 0.018,0.016 0.027,0.023 0.013,0.011 0.028,0.023 0.041,0.034 0.009,0.007 0.018,0.015 0.027,0.023 0.013,0.011 0.027,0.023 0.04,0.034 0.01,0.008 0.02,0.016 0.029,0.025 0.013,0.011 0.025,0.021 0.037,0.031 0.01,0.009 0.02,0.017 0.03,0.026 0.012,0.011 0.024,0.021 0.036,0.032 0.01,0.009 0.021,0.018 0.031,0.026 0.011,0.011 0.023,0.022 0.035,0.032 0.009,0.008 0.018,0.016 0.027,0.024 0.013,0.012 0.025,0.022 0.038,0.034 0.009,0.008 0.019,0.017 0.028,0.026 0.012,0.01 0.023,0.021 0.035,0.032 0.01,0.009 0.021,0.018 0.031,0.028 0.01,0.009 0.021,0.02 0.032,0.029 0.011,0.011 0.022,0.022 0.033,0.032 0.01,0.009 0.019,0.018 0.029,0.027 0.011,0.01 0.022,0.02 0.032,0.031 0.01,0.009 0.02,0.019 0.03,0.027 0.012,0.012 0.025,0.025 0.037,0.037 0.008,0.007 0.015,0.015 0.023,0.022 0.02,0.02 0.04,0.039 0.06,0.059 0,0.025 0.039,1.62 0.06,3.901 z"
                               style="fill:#fca305;fill-opacity:1;fill-rule:nonzero;stroke:none"
                               id="path161033" />
                          </g>
                        </g>
                      </g>
                      <g
                         transform="translate(225.0904,-340.98367)"
                         id="g161047">
                        <g
                           id="g161045">
                          <g
                             id="g161043">
                            <path
                               d="m 0,-1.918 c 0.285,-2.572 0.516,-4.314 0.516,-4.314 0,0 23.178,-9.669 49.583,-4.699 0,0 13.899,3.676 14.59,10.256 0.034,0.216 0,0.44 -0.054,0.675 C 64.328,-0.212 64.043,-0.42 63.724,-0.641 40.853,-16.224 0.012,-1.925 0,-1.918 Z"
                               style="fill:#ffcc26;fill-opacity:1;fill-rule:nonzero;stroke:none"
                               id="path161041" />
                          </g>
                        </g>
                      </g>
                      <g
                         transform="translate(223.87958,-314.71085)"
                         id="g161055">
                        <g
                           id="g161053">
                          <g
                             id="g161051">
                            <path
                               d="m 28.065,-5.00682 c 0,0 -1.229,4.92 -6.768,5.006 -5.54,0.094 -14.87498,-7.94 -14.87498,-7.94 0,0 -3.916,4.255 -5.803,1.318 -1.36,-2.131 -0.164,-14.77698 0.592,-21.56798 0.011,-0.007 40.85198,-14.306 63.72398,1.277 0.319,0.221 0.604,0.429 0.911,0.641 -1.723,6.901 -37.781,21.26598 -37.781,21.26598 z"
                               style="fill:#009999;fill-opacity:1;fill-rule:nonzero;stroke:none"
                               id="path161049" />
                          </g>
                        </g>
                      </g>
                      <g
                         transform="translate(281.0257,-340.98317)"
                         id="g161063">
                        <g
                           id="g161061">
                          <g
                             id="g161059">
                            <path
                               d="M 0.202,-8.74 C 0.134,-8.77 0.067,-8.801 0,-8.83 c 0.067,0.029 0.134,0.06 0.202,0.09 z m 0.029,0.014 C 0.225,-8.729 0.219,-8.732 0.213,-8.735 c 0.006,0.003 0.012,0.006 0.018,0.009 z m 6.134,3.84 c -0.001,0 -0.003,-0.002 -0.003,-0.002 0,0 0.002,0.001 0.003,0.002 z M 6.4,-4.852 C 6.399,-4.853 6.398,-4.855 6.396,-4.856 6.398,-4.855 6.399,-4.853 6.4,-4.852 Z m 0.036,0.035 C 6.433,-4.82 6.43,-4.823 6.428,-4.826 6.43,-4.823 6.433,-4.82 6.436,-4.817 Z m 2.305,4.026 C 8.548,-2.281 7.68,-3.62 6.454,-4.8 c 1.226,1.179 2.094,2.519 2.287,4.009 z m 0.004,0.038 C 8.744,-0.766 8.742,-0.778 8.741,-0.79 c 0.001,0.012 0.003,0.025 0.004,0.037 z M 8.75,-0.714 C 8.748,-0.726 8.747,-0.737 8.746,-0.749 8.747,-0.737 8.748,-0.726 8.75,-0.714 Z M 8.7,0 C 8.393,-0.212 8.108,-0.421 7.788,-0.642 7.757,-0.663 7.726,-0.684 7.694,-0.706 7.726,-0.684 7.756,-0.663 7.788,-0.642 8.108,-0.421 8.393,-0.212 8.7,0 8.739,-0.169 8.767,-0.332 8.768,-0.491 8.767,-0.332 8.739,-0.169 8.7,0 Z"
                               style="fill:#ffcc26;fill-opacity:1;fill-rule:nonzero;stroke:none"
                               id="path161057" />
                          </g>
                        </g>
                      </g>
                      <g
                         transform="translate(278.9903,-340.98347)"
                         id="g161071">
                        <g
                           id="g161069">
                          <g
                             id="g161067">
                            <path
                               d="M 10.735,0 C 10.429,-0.212 10.143,-0.42 9.824,-0.641 9.792,-0.663 9.761,-0.684 9.729,-0.705 9.184,-1.075 8.628,-1.426 8.064,-1.762 5.539,-3.263 2.828,-4.437 0,-5.34 c 0.745,-1.099 1.433,-2.256 2.035,-3.49 0.067,0.03 0.135,0.06 0.202,0.09 0.004,0.002 0.008,0.004 0.011,0.005 0.006,0.003 0.013,0.006 0.019,0.009 2.155,0.976 4.457,2.262 6.13,3.838 10e-4,0.001 0.002,0.002 0.003,0.003 0.011,0.01 0.021,0.02 0.032,0.03 10e-4,0.001 0.003,0.002 0.004,0.004 0.009,0.008 0.018,0.017 0.027,0.025 0.003,0.003 0.006,0.006 0.009,0.009 0.005,0.006 0.012,0.011 0.018,0.017 1.225,1.18 2.093,2.519 2.286,4.009 v 0.001 c 10e-4,0.012 0.003,0.024 0.005,0.037 0,0.002 0,0.003 0,0.005 10e-4,0.011 0.003,0.023 0.004,0.034 0.002,0.013 0.003,0.026 0.005,0.039 0.009,0.061 0.013,0.122 0.013,0.184 0,0.159 -0.029,0.322 -0.068,0.491 z"
                               style="fill:#fca305;fill-opacity:1;fill-rule:nonzero;stroke:none"
                               id="path161065" />
                          </g>
                        </g>
                      </g>
                      <g
                         transform="translate(278.9838,-340.98327)"
                         id="g161079">
                        <g
                           id="g161077">
                          <g
                             id="g161075">
                            <path
                               d="M 8.07,-1.762 C 5.545,-3.26 2.83,-4.426 0,-5.331 0.003,-5.334 0.005,-5.337 0.007,-5.34 2.835,-4.437 5.545,-3.263 8.07,-1.762 Z M 10.741,0 C 10.435,-0.212 10.15,-0.42 9.83,-0.642 10.15,-0.42 10.435,-0.212 10.741,0 Z"
                               style="fill:#007a17;fill-opacity:1;fill-rule:nonzero;stroke:none"
                               id="path161073" />
                          </g>
                        </g>
                      </g>
                      <g
                         transform="translate(88.4788,-169.93147)"
                         id="g161087">
                        <g
                           id="g161085">
                          <g
                             id="g161083">
                            <path
                               d="m 17.25,-8.983 c 0,0 -13.361,-44.215 -17.25,-66.314 0,0 41.778,-12.878 71.66,-12.878 L 87.686,-52.22 98.13,-85.746 c 0,0 45.186,5.831 70.449,18.462 0,0 -8.26,52.471 -14.086,67.284 z"
                               style="fill:#006bb0;fill-opacity:1;fill-rule:nonzero;stroke:none"
                               id="path161081" />
                          </g>
                        </g>
                      </g>
                      <g
                         transform="translate(135.8835,-219.37147)"
                         id="g161095">
                        <g
                           id="g161093">
                          <g
                             id="g161091">
                            <path
                               d="M 32.779,0 0,-36.649 c 8.261,-1.245 16.642,-2.086 24.255,-2.086 L 40.282,-2.78 Z"
                               style="fill:#002b78;fill-opacity:1;fill-rule:nonzero;stroke:none"
                               id="path161089" />
                          </g>
                        </g>
                      </g>
                      <g
                         transform="translate(102.9367,-182.32347)"
                         id="g161103">
                        <g
                           id="g161101">
                          <g
                             id="g161099">
                            <path
                               d="m 129.766,-63.889 c -1.248,-0.355 -2.5,-0.7 -3.749,-1.035 v -10e-4 c 1.25,0.335 2.501,0.68 3.749,1.036 z M 1.774,0 C 1.308,-1.571 0.703,-3.628 0,-6.054 c 0.705,2.426 1.31,4.483 1.775,6.053 z"
                               style="fill:#006bb0;fill-opacity:1;fill-rule:nonzero;stroke:none"
                               id="path161097" />
                          </g>
                        </g>
                      </g>
                      <g
                         transform="translate(228.9529,-247.24797)"
                         id="g161111">
                        <g
                           id="g161109">
                          <g
                             id="g161107">
                            <path
                               d="M 0,0 H 0.001 Z"
                               style="fill:#005985;fill-opacity:1;fill-rule:nonzero;stroke:none"
                               id="path161105" />
                          </g>
                        </g>
                      </g>
                      <g
                         transform="translate(226.5836,-247.24757)"
                         id="g161119">
                        <g
                           id="g161117">
                          <g
                             id="g161115">
                            <path
                               d="M 2.369,0 C 1.577,-0.213 0.79,-0.419 0,-0.623 v -0.001 c 0.788,0.204 1.578,0.411 2.369,0.623 z"
                               style="fill:#004c63;fill-opacity:1;fill-rule:nonzero;stroke:none"
                               id="path161113" />
                          </g>
                        </g>
                      </g>
                      <g
                         transform="translate(102.5706,-172.31557)"
                         id="g161127">
                        <g
                           id="g161125">
                          <g
                             id="g161123">
                            <path
                               d="m 141.256,0 c -26.403,-14.772 -54.132,-19.284 -78.17,-19.284 -27.947,0 -50.901,6.102 -60.945,9.276 -0.465,-1.571 -1.07,-3.628 -1.775,-6.054 -0.119,-0.411 -0.242,-0.834 -0.366,-1.266 8.453,-3.404 30.374,-10.637 63.965,-10.637 15.27,0 32.947,1.494 52.872,5.52 0,0 4.257,-31.658 7.176,-53.111 0.79,0.205 1.577,0.411 2.369,0.624 h 10e-4 c 1.249,0.335 2.501,0.68 3.749,1.035 8.726,2.487 17.311,5.481 24.355,8.997 0,0 -7.486,47.552 -13.231,64.9 z"
                               style="fill:#002b78;fill-opacity:1;fill-rule:nonzero;stroke:none"
                               id="path161121" />
                          </g>
                        </g>
                      </g>
                      <g
                         transform="translate(0,-53.25137)"
                         id="g161135">
                        <g
                           id="g161133">
                          <g
                             id="g161131">
                            <path
                               d="m 88.8244,0 c 0,0 -30.968,-9.066 -69.769,-60.909 0,0 -14.634,-7.794 -18.81399,-19.104 0,0 -1.15001,-2.127 1.56999,-2.776 0,0 1.667,-0.329 2.705,1.203 1.036,1.53 3.965,7.645 8.166,10.169 0,0 -7.694,-9.643 -6.866,-17.475 0,0 1.206,-2.091 2.978,-0.582 1.782,1.514 4.223,12.792 8.55,14.052 0,0 -4.244,-16.124 -1.71,-18.971 0,0 2.511,-1.104 4.101,3.284 1.603,4.393 2.397,11.041 5.311,14.557 0,0 2.402,-8.632 2.949,-12.818 0.544,-4.19 1.844,-6.428 4.57,-4.481 2.731,1.947 -0.724,20.43 -1.013,22.099 0,0 4.913,-2.068 6.888,-6.538 1.978,-4.471 5.758,0.982 2.83,6.252 -2.929,5.277 -9.621,7.809 -9.621,7.809 0,0 24.298,33.07 60.445,49.24 z"
                               style="fill:#f5d9bf;fill-opacity:1;fill-rule:nonzero;stroke:none"
                               id="path161129" />
                          </g>
                        </g>
                      </g>
                      <g
                         transform="translate(75.167,-57.09077)"
                         id="g161143">
                        <g
                           id="g161141">
                          <g
                             id="g161139">
                            <path
                               d="m 10.259,-14.384 c -1.561,-0.816 -3.094,-1.659 -4.603,-2.527 0.001,-0.003 0.003,-0.006 0.004,-0.008 1.508,0.866 3.042,1.711 4.602,2.529 -0.001,0.002 -0.002,0.004 -0.003,0.006 z M 4.998,0 C 3.502,-0.79 1.831,-1.728 0,-2.834 1.831,-1.728 3.502,-0.79 4.998,0 Z"
                               style="fill:#f5d9bf;fill-opacity:1;fill-rule:nonzero;stroke:none"
                               id="path161137" />
                          </g>
                        </g>
                      </g>
                      <g
                         transform="translate(75.1667,-57.09047)"
                         id="g161151">
                        <g
                           id="g161149">
                          <g
                             id="g161147">
                            <path
                               d="M 4.998,0 C 3.503,-0.79 1.831,-1.729 0,-2.834 c 1.628,-4.802 3.519,-9.484 5.656,-14.077 1.509,0.868 3.042,1.71 4.603,2.527 C 7.9,-8.914 6.111,-3.602 4.998,0 Z"
                               style="fill:#e8ba8f;fill-opacity:1;fill-rule:nonzero;stroke:none"
                               id="path161145" />
                          </g>
                        </g>
                      </g>
                      <g
                         transform="translate(260.6992,-48.47297)"
                         id="g161159">
                        <g
                           id="g161157">
                          <g
                             id="g161155">
                            <path
                               d="m 0,-10.932 c 0,0 28.664,-12.649 44.943,-43.128 0,0 -11.178,-10.92 -9.116,-17.354 2.072,-6.437 9.96,9.104 9.96,9.104 0,0 2.314,-23.802 7.164,-22.827 0,0 2.435,0.243 1.832,6.676 -0.614,6.438 -1.701,13.74 -1.701,13.74 0,0 4.608,-11.305 7.406,-16.654 2.796,-5.342 8.017,-2.67 5.583,3.401 -2.424,6.072 -5.463,16.246 -5.463,16.246 0,0 6.319,-6.653 9.84,-11.144 3.521,-4.498 6.922,0.883 2.798,8.151 -4.137,7.271 -5.716,8.486 -5.716,8.486 0,0 5.222,-1.577 8.863,-4.252 3.654,-2.672 5.716,2.675 -2.182,10.81 -7.899,8.14 -19.922,4.817 -19.922,4.817 0,0 -16.509,33.447 -48.947,44.86 z"
                               style="fill:#f5d9bf;fill-opacity:1;fill-rule:nonzero;stroke:none"
                               id="path161153" />
                          </g>
                        </g>
                      </g>
                      <g
                         transform="translate(264.3522,-61.25807)"
                         id="g161167">
                        <g
                           id="g161165">
                          <g
                             id="g161163">
                            <path
                               d="m 0.091,-0.049 c 0.003,-0.002 0.007,-0.003 0.01,-0.006 -0.004,0.003 -0.007,0.004 -0.01,0.006 z M 0,0 C 0.025,-0.013 0.05,-0.027 0.075,-0.04 0.05,-0.027 0.025,-0.013 0,0 Z"
                               style="fill:#f5d9bf;fill-opacity:1;fill-rule:nonzero;stroke:none"
                               id="path161161" />
                          </g>
                        </g>
                      </g>
                      <g
                         transform="translate(264.353,-49.56927)"
                         id="g161175">
                        <g
                           id="g161173">
                          <g
                             id="g161171">
                            <path
                               d="M 4.59,0 0,-11.688 c 0.024,-0.014 0.05,-0.028 0.074,-0.041 0.005,-0.003 0.011,-0.006 0.016,-0.009 0.003,-0.002 0.007,-0.003 0.01,-0.005 1.882,-1.031 4.373,-2.49 7.249,-4.405 1.601,4.196 3.027,8.479 4.355,12.796 C 9.431,-2.128 7.061,-0.999 4.59,0 Z"
                               style="fill:#e8ba8f;fill-opacity:1;fill-rule:nonzero;stroke:none"
                               id="path161169" />
                          </g>
                        </g>
                      </g>
                      <g
                         transform="translate(78.8409,-24.61329)"
                         id="g161183">
                        <g
                           id="g161181">
                          <g
                             id="g161179">
                            <path
                               d="m 69.472,-6.69228 c 0,0 -34.811,0 -69.472,-21.21502 0,0 6.966,-26.887 17.979,-37.248 0,0 7.121,4.86 16.763,7.289 0,0 -14.984,-39.031 -14.338,-97.9757 0,0 83.887,-32.64 153.852,13.799 0,0 -8.425,70.4097 -17.168,101.5027 l 22.345,-11.584 12.308,31.342 c 0,0 -22.027,22.02602 -82.91,20.72702 z"
                               style="fill:#e30512;fill-opacity:1;fill-rule:nonzero;stroke:none"
                               id="path161177" />
                          </g>
                        </g>
                      </g>
                      <g
                         transform="translate(100.3315,-118.18057)"
                         id="g161191">
                        <g
                           id="g161189">
                          <g
                             id="g161187">
                            <path
                               d="M 2.067,-12.649 C 1.25,-18.457 0.538,-24.699 0,-31.358 c 21.386,-5.166 90.874,-18.175 148.684,13.582 -0.8,5.587 -1.7,11.606 -2.665,17.776 C 90.512,-29.02 25.198,-17.986 2.067,-12.649 Z"
                               style="fill:#ffffff;fill-opacity:1;fill-rule:nonzero;stroke:none"
                               id="path161185" />
                          </g>
                        </g>
                      </g>
                      <g
                         transform="translate(99.22718,-153.77757)"
                         id="g161199">
                        <g
                           id="g161197">
                          <g
                             id="g161195">
                            <path
                               d="m 0.10602,-14.715 c -0.093,-3.889 -0.131,-7.873 -0.089,-11.963 0,0 83.88698,-32.64 153.85298,13.799 0,0 -0.603,4.998 -1.646,12.879 C 93.021,-34.045 20.526,-19.763 0.10602,-14.715 Z"
                               style="fill:#ffffff;fill-opacity:1;fill-rule:nonzero;stroke:none"
                               id="path161193" />
                          </g>
                        </g>
                      </g>
                      <g
                         transform="translate(139.9988,-24.61966)"
                         id="g161207">
                        <g
                           id="g161205">
                          <g
                             id="g161203">
                            <path
                               d="m 71.293,-10.7992 c -4.784,3.89299 -10.324,7.62399 -16.632,10.78999 -2.28,0.016 -4.596,0.016 -6.988,-0.04 l -39.359,-6.637 c 0,0 -0.251,0 -0.69,-0.01 C 5.018,-9.62021 2.467,-12.7462 0,-15.9612 c 20.557,-1.651 45.843,-1.26 71.293,5.162 z"
                               style="fill:#ffffff;fill-opacity:1;fill-rule:nonzero;stroke:none"
                               id="path161201" />
                          </g>
                        </g>
                      </g>
                      <g
                         transform="translate(105.552,-82.86457)"
                         id="g161215">
                        <g
                           id="g161213">
                          <g
                             id="g161211">
                            <path
                               d="M 4.377,-11.171 C 3.044,-15.938 1.504,-22.087 0,-29.469 25.017,-34.867 85.379,-43.588 137.881,-17.601 136.815,-11.517 135.697,-5.56 134.556,0 85.719,-22.689 30.941,-16.393 4.377,-11.171 Z"
                               style="fill:#ffffff;fill-opacity:1;fill-rule:nonzero;stroke:none"
                               id="path161209" />
                          </g>
                        </g>
                      </g>
                      <g
                         transform="translate(117.0164,-50.20057)"
                         id="g161223">
                        <g
                           id="g161221">
                          <g
                             id="g161219">
                            <path
                               d="M 10.52,-8.282 C 6.093,-15.216 2.445,-21.524 0,-25.928 c 27.556,-4.629 75.253,-8.15 119.001,10.636 l -0.089,0.339 c 0,0 -3.159,6.583 -9.927,14.953 C 73.334,-12.512 36.304,-11.568 10.52,-8.282 Z"
                               style="fill:#ffffff;fill-opacity:1;fill-rule:nonzero;stroke:none"
                               id="path161217" />
                          </g>
                        </g>
                      </g>
                      <g
                         transform="translate(214.8122,-26.37447)"
                         id="g161231">
                        <g
                           id="g161229">
                          <g
                             id="g161227">
                            <path
                               d="M 5.012,0 C 3.214,-3.971 1.514,-8.124 0,-12.049 c 4.202,-3.77 7.744,-7.586 10.641,-11.119 2.281,6.263 5.243,13.856 8.468,20.613 C 14.853,-1.565 10.147,-0.696 5.012,0 Z"
                               style="fill:#ffffff;fill-opacity:1;fill-rule:nonzero;stroke:none"
                               id="path161225" />
                          </g>
                        </g>
                      </g>
                      <g
                         transform="translate(194.6605,-24.62937)"
                         id="g161239">
                        <g
                           id="g161237">
                          <g
                             id="g161235">
                            <path
                               d="m 0,0 c 3.193,-1.603 6.187,-3.362 8.995,-5.201 0.648,1.607 1.317,3.22 2.019,4.828 C 7.492,-0.172 3.828,-0.034 0,0 Z"
                               style="fill:#ffffff;fill-opacity:1;fill-rule:nonzero;stroke:none"
                               id="path161233" />
                          </g>
                        </g>
                      </g>
                      <g
                         transform="translate(233.8454,-32.21017)"
                         id="g161247">
                        <g
                           id="g161245">
                          <g
                             id="g161243">
                            <path
                               d="M 11.749,0 C 6.866,-9.768 2.478,-21.875 0,-29.18 c 1.393,-2.341 2.083,-3.763 2.083,-3.763 l 11.201,-5.808 c 2.204,6.68 7.273,21.319 12.988,32.602 C 22.554,-4.168 17.759,-2.013 11.749,0 Z"
                               style="fill:#ffffff;fill-opacity:1;fill-rule:nonzero;stroke:none"
                               id="path161241" />
                          </g>
                        </g>
                      </g>
                      <g
                         transform="translate(78.8411,-47.86447)"
                         id="g161255">
                        <g
                           id="g161253">
                          <g
                             id="g161251">
                            <path
                               d="m 0,-4.656 c 0,0 6.966,-26.888 17.98,-37.249 0,0 3.335,2.272 8.513,4.487 C 22.73,-28.701 15.215,-11.907 8.244,0 5.507,-1.431 2.754,-2.973 0,-4.656 Z"
                               style="fill:#ffffff;fill-opacity:1;fill-rule:nonzero;stroke:none"
                               id="path161249" />
                          </g>
                        </g>
                      </g>
                      <g
                         transform="translate(128.1234,-31.31637)"
                         id="g161263">
                        <g
                           id="g161261">
                          <g
                             id="g161259">
                            <path
                               d="M 19.499,0 C 17.344,-0.061 10.11,-0.39 0,-2.336 3.203,-6.144 6.193,-10.048 8.715,-13.488 12.126,-8.798 15.758,-4.19 19.499,0 Z"
                               style="fill:#ffffff;fill-opacity:1;fill-rule:nonzero;stroke:none"
                               id="path161257" />
                          </g>
                        </g>
                      </g>
                      <g
                         transform="translate(101.0001,-37.25587)"
                         id="g161271">
                        <g
                           id="g161269">
                          <g
                             id="g161267">
                            <path
                               d="m 0,-4.269 c 6.226,-11.073 12.715,-25.453 16.4,-33.907 2.321,4.143 5.596,9.77 9.512,15.96 C 22.598,-16.016 17.727,-7.404 12.353,0 8.414,-1.175 4.267,-2.591 0,-4.269 Z"
                               style="fill:#ffffff;fill-opacity:1;fill-rule:nonzero;stroke:none"
                               id="path161265" />
                          </g>
                        </g>
                      </g>
                      <g
                         transform="translate(130.7992,-33.00997)"
                         id="g161279">
                        <g
                           id="g161277">
                          <g
                             id="g161275">
                            <path
                               d="M 0.754,0 C 0.503,-0.049 0.252,-0.099 0,-0.15 0.268,-0.103 0.534,-0.058 0.797,-0.013 0.781,-0.009 0.77,-0.005 0.754,0 Z"
                               style="fill:#a6a6a6;fill-opacity:1;fill-rule:nonzero;stroke:none"
                               id="path161273" />
                          </g>
                        </g>
                      </g>
                      <g
                         transform="translate(130.6994,-33.02317)"
                         id="g161287">
                        <g
                           id="g161285">
                          <g
                             id="g161283">
                            <path
                               d="M 0.897,0 C 0.634,-0.045 0.368,-0.09 0.1,-0.136 0.067,-0.143 0.033,-0.15 0,-0.156 c 0.304,0.053 0.605,0.104 0.903,0.154 z"
                               style="fill:#94050d;fill-opacity:1;fill-rule:nonzero;stroke:none"
                               id="path161281" />
                          </g>
                        </g>
                      </g>
                      <g
                         transform="translate(130.5751,-33.02487)"
                         id="g161295">
                        <g
                           id="g161293">
                          <g
                             id="g161291">
                            <path
                               d="M 1.027,0 C 0.729,-0.05 0.428,-0.102 0.124,-0.155 0.083,-0.163 0.042,-0.171 0,-0.179 c 0.348,0.06 0.693,0.12 1.033,0.177 C 1.031,-0.001 1.029,-0.001 1.027,0 Z"
                               style="fill:#a6a6a6;fill-opacity:1;fill-rule:nonzero;stroke:none"
                               id="path161289" />
                          </g>
                        </g>
                      </g>
                      <g
                         transform="translate(113.3597,-33.65427)"
                         id="g161303">
                        <g
                           id="g161301">
                          <g
                             id="g161299">
                            <path
                               d="M 14.765,0 C 10.33,-0.853 5.351,-2.018 0,-3.611 0.012,-3.628 0.024,-3.645 0.037,-3.662 5.052,-2.255 9.971,-1.066 14.804,-0.047 14.791,-0.031 14.778,-0.015 14.765,0 Z"
                               style="fill:#94050d;fill-opacity:1;fill-rule:nonzero;stroke:none"
                               id="path161297" />
                          </g>
                        </g>
                      </g>
                      <g
                         transform="translate(128.1243,-33.20407)"
                         id="g161311">
                        <g
                           id="g161309">
                          <g
                             id="g161307">
                            <path
                               d="M 2.451,0 C 1.654,-0.14 0.837,-0.289 0,-0.45 0.013,-0.466 0.027,-0.482 0.04,-0.497 0.846,-0.326 1.65,-0.162 2.451,0 Z"
                               style="fill:#a6a6a6;fill-opacity:1;fill-rule:nonzero;stroke:none"
                               id="path161305" />
                          </g>
                        </g>
                      </g>
                      <g
                         transform="translate(110.2593,-37.26487)"
                         id="g161319">
                        <g
                           id="g161317">
                          <g
                             id="g161315">
                            <path
                               d="M 3.1,0 C 2.08,-0.303 1.046,-0.622 0,-0.957 1.05,-0.646 2.096,-0.344 3.137,-0.052 3.125,-0.034 3.112,-0.017 3.1,0 Z"
                               style="fill:#a6a6a6;fill-opacity:1;fill-rule:nonzero;stroke:none"
                               id="path161313" />
                          </g>
                        </g>
                      </g>
                      <g
                         transform="translate(219.4077,-43.13027)"
                         id="g161327">
                        <g
                           id="g161325">
                          <g
                             id="g161323">
                            <path
                               d="m 0,0 c 0,0 0.472,-3.225 1.21,-8.855 1.797,0.562 3.593,1.157 5.384,1.785 3.63,-4.489 6.222,-8.465 7.845,-11.186 0.011,0.034 0.022,0.067 0.034,0.1 C 12.61,-14.816 9.64,-9.897 6.26,-5.824 6.187,-6.021 6.116,-6.218 6.045,-6.412 4.503,-4.531 2.778,-2.57 0.868,-0.578 0.578,-0.371 0.29,-0.178 0,0 Z"
                               style="fill:#94050d;fill-opacity:1;fill-rule:nonzero;stroke:none"
                               id="path161321" />
                          </g>
                        </g>
                      </g>
                      <g
                         transform="translate(222.8856,-65.15377)"
                         id="g161335">
                        <g
                           id="g161333">
                          <g
                             id="g161331">
                            <path
                               d="m 26.13,-70.803 c -6.577,-3.613 -13.304,-6.646 -20.095,-9.178 0.25,-6.392 0.411,-12.771 0.457,-19.023 7.478,2.814 14.872,6.239 22.074,10.38 1.028,-7.772 1.629,-12.739 1.645,-12.876 -0.027,0.225 -1.601,13.35 -4.081,30.697 z M 13.043,0 13.131,-0.339 C 8.784,-2.206 4.401,-3.852 0,-5.298 c 0.642,-5.585 1.321,-11.829 1.988,-18.531 5.117,1.754 10.206,3.782 15.235,6.119 1.141,-5.561 2.259,-11.518 3.324,-17.602 -5.55,-2.747 -11.185,-5.105 -16.859,-7.121 0.503,-6.071 0.969,-12.346 1.372,-18.704 6.206,2.268 12.364,4.952 18.405,8.11 0.964,-6.163 1.863,-12.175 2.662,-17.757 C 22.852,-47.879 17.999,-17.625 13.043,0 Z"
                               style="fill:#94050d;fill-opacity:1;fill-rule:nonzero;stroke:none"
                               id="path161329" />
                          </g>
                        </g>
                      </g>
                      <g
                         transform="translate(227.9453,-118.18037)"
                         id="g161343">
                        <g
                           id="g161341">
                          <g
                             id="g161339">
                            <path
                               d="M 18.405,0 C 12.364,-3.158 6.206,-5.843 0,-8.11 c 0.395,-6.232 0.728,-12.544 0.975,-18.844 6.791,2.531 13.518,5.565 20.095,9.178 0,0.004 -0.002,0.013 -0.002,0.018 -0.8,5.583 -1.699,11.595 -2.663,17.758 z"
                               style="fill:#a6a6a6;fill-opacity:1;fill-rule:nonzero;stroke:none"
                               id="path161337" />
                          </g>
                        </g>
                      </g>
                      <g
                         transform="translate(229.2372,-153.77757)"
                         id="g161351">
                        <g
                           id="g161349">
                          <g
                             id="g161347">
                            <path
                               d="M 22.214,0 C 15.013,-4.141 7.618,-7.566 0.141,-10.381 0.179,-15.574 0.137,-20.68 0,-25.643 c 8.03,3.373 16.027,7.577 23.86,12.764 0,0 0,10e-4 -10e-4,0.003 C 23.843,-12.74 23.242,-7.772 22.214,0 Z"
                               style="fill:#a6a6a6;fill-opacity:1;fill-rule:nonzero;stroke:none"
                               id="path161345" />
                          </g>
                        </g>
                      </g>
                      <g
                         transform="translate(224.8735,-82.86417)"
                         id="g161359">
                        <g
                           id="g161357">
                          <g
                             id="g161355">
                            <path
                               d="M 15.235,0 C 10.206,-2.336 5.118,-4.364 0,-6.118 c 0.587,-5.891 1.164,-12.133 1.7,-18.604 5.675,2.016 11.309,4.373 16.859,7.121 -1.065,6.084 -2.183,12.04 -3.324,17.601 z"
                               style="fill:#a6a6a6;fill-opacity:1;fill-rule:nonzero;stroke:none"
                               id="path161353" />
                          </g>
                        </g>
                      </g>
                      <g
                         transform="translate(220.6178,-50.20037)"
                         id="g161367">
                        <g
                           id="g161365">
                          <g
                             id="g161363">
                            <path
                               d="M 5.384,0 C 3.593,-0.628 1.797,-1.223 0,-1.785 0.612,-6.448 1.407,-12.76 2.268,-20.252 c 4.401,1.447 8.784,3.093 13.131,4.96 l -0.088,0.339 c 0,0 0,0 0,10e-4 -0.002,0.002 -0.009,0.017 -0.022,0.044 -0.128,0.258 -0.812,1.619 -2.062,3.718 10e-4,0.002 10e-4,0.003 0.002,0.004 C 11.606,-8.465 9.014,-4.489 5.384,0 Z"
                               style="fill:#a6a6a6;fill-opacity:1;fill-rule:nonzero;stroke:none"
                               id="path161361" />
                          </g>
                        </g>
                      </g>
                      <g
                         transform="translate(220.2752,-43.70847)"
                         id="g161375">
                        <g
                           id="g161373">
                          <g
                             id="g161371">
                            <path
                               d="m 0,0 c 1.91,-1.991 3.636,-3.953 5.178,-5.834 0.07,0.195 0.142,0.391 0.214,0.588 C 3.67,-3.171 1.842,-1.316 0,0 Z"
                               style="fill:#a6a6a6;fill-opacity:1;fill-rule:nonzero;stroke:none"
                               id="path161369" />
                          </g>
                        </g>
                      </g>
                      <g
                         transform="translate(233.8453,-61.28627)"
                         id="g161383">
                        <g
                           id="g161381">
                          <g
                             id="g161379">
                            <path
                               d="m 2.083,-3.866 c 0,-10e-4 0,-10e-4 0,-10e-4 0,0 0,0 0,10e-4 z M 0.035,0 C 0.024,-0.033 0.012,-0.066 0.001,-0.1 0.001,-0.101 0,-0.103 0,-0.104 1.249,-2.203 1.934,-3.564 2.061,-3.823 1.928,-3.552 1.196,-2.082 0.035,0 Z"
                               style="fill:#a6a6a6;fill-opacity:1;fill-rule:nonzero;stroke:none"
                               id="path161377" />
                          </g>
                        </g>
                      </g>
                      <g
                         transform="translate(156.695,-31.30537)"
                         id="g161391">
                        <g
                           id="g161389">
                          <g
                             id="g161387">
                            <path
                               d="M 0,-3.241 V -9.72 c 0,0 1.014,-9.877 10.41,-9.553 9.39,0.323 9.707,13.118 8.095,19.273 z"
                               style="fill:#f5d9bf;fill-opacity:1;fill-rule:nonzero;stroke:none"
                               id="path161385" />
                          </g>
                        </g>
                      </g>
                      <g
                         transform="translate(156.6954,-35.05027)"
                         id="g161399">
                        <g
                           id="g161397">
                          <g
                             id="g161395">
                            <path
                               d="M 19.136,0 C 13.592,-0.991 7.776,-1.535 1.716,-1.603 1.323,-1.608 0.932,-1.61 0.543,-1.61 0.362,-1.61 0.18,-1.609 0,-1.609 v -4.366 c 0,0 0.982,-9.561 9.961,-9.561 0.148,0 0.297,0.002 0.449,0.008 6.785,0.233 8.833,6.98 8.838,13.027 10e-4,0.855 -0.039,1.695 -0.112,2.501 z"
                               style="fill:#e8ba8f;fill-opacity:1;fill-rule:nonzero;stroke:none"
                               id="path161393" />
                          </g>
                        </g>
                      </g>
                      <g
                         transform="translate(46.34976,185.99996)"
                         id="g161407">
                        <g
                           id="g161405">
                          <g
                             id="g161403">
                            <path
                               d="m 225.143,-56.7845 c -3.577,4.624 -8.106,8.573 -13.339,11.096 0.383,0.05 0.757,0.087 1.152,0.111 3.795,0.236 7.425,-0.346 11.079,-1.306 0.318,-0.087 0.548,0.334 0.297,0.554 l -0.615,0.476 c -3.544,5.71 -9.873,10.137 -15.951,12.804 -3.411,1.496 -7.107,2.658 -10.759,3.388 -1.131,0.225 -2.295,0.21 -3.479,0.12 4.257,3.002 8.271,6.752 13.909,5.842 0.603,-0.098 0.78,0.702 0.208,0.91 l -0.285,0.093 -0.338,0.264 c -7.876,2.299 -18.234,3.408 -25.989,0.323 -1.722,-0.68 -4.245,-1.869 -6.297,-3.46 1.603,7.152 -1.875,13.839 -4.453,20.96898 l -0.165,0.177 c -0.065,0.421 -0.636,0.542 -0.778,0.07 -1.208,-3.77 -1.744,-8.34798 -1.548,-12.76398 -2.765,3.175 -7.074,5.38 -10.815,6.768 -5.134,1.90798 -10.346,3.67598 -15.511,5.44198 -4.926,1.667 -9.994,2.654 -14.733,4.864 -0.439,0.204 -0.9,-0.357 -0.505,-0.691 l 0.264,-0.201 v -0.024 c 0.821,-3.723 2.205,-6.948 4.564,-9.98298 l 0.262,-0.334 c -5.639,3.03398 -11.902,4.32398 -18.785,4.71398 -12.292,0.684 -24.6656,-0.37 -36.7166,-2.82 -24.155,-4.89898 -46.342,-18.50798 -63.794,-35.70798 l -0.253,-0.24 v -0.007 c -0.286,-0.28 0.099,-0.685 0.417,-0.516 l 0.203,0.106 c 2.034,-0.671 4.108,-0.983 6.248,-1.202 1.074,-0.115 2.084,-0.292 3.059,-0.493 -2.808,-1.438 -5.385,-3.39 -7.661,-5.682 -5.18295,-5.222 -9.71895,-11.843 -13.95895,-17.844 -0.208,-0.286 0.043,-0.626 0.339,-0.707 0.11,-0.142 0.307,-0.232 0.528,-0.115 4.272,2.206 8.138,1.881 12.15795,1.317 -4.05195,-2.086 -7.80395,-5.43 -9.97595,-8.021 -0.356,-0.114 -0.34,-0.607 0.077,-0.652 21.13795,-1.94 23.37095,-27.8205 27.01795,-44.2745 1.942,-8.792 4.137,-17.628 7.235,-26.097 2.682,-7.328 6.593,-15.874 13.092,-20.585 l 0.021,-0.005 c 7.867,-8.041 17.68,-11.816 28.94,-14.734 15.039,-3.904 30.6266,-4.824 46.0836,-3.921 13.294,0.775 25.439,3.929 36.485,11.48 5.759,3.955 11.157,8.387 16.904,12.319 3.062,2.084 6.517,4.306 8.766,7.345 0.405,-0.099 0.844,-0.031 1.13,0.323 4.234,5.211 6.428,12.28 8.666,18.551 2.731,7.677 5.09,15.489 7.767,23.189 2.752,7.915 5.156,15.9405 10.158,22.7905 4.453,6.1 9.97,4.625 16.389,4.526 l 0.066,-0.089 c 0.318,-0.46 1.053,-0.165 0.898,0.401 -1.064,3.884 -3.696,7.345 -6.252,10.404 -0.823,0.999 -1.821,2.095 -2.906,3.154 0.383,-0.126 0.767,-0.267 1.129,-0.421 3.772,-1.569 6.911,-3.927 10.376,-6.017 l 0.352,0.158 0.274,0.346 c -2.434,8.777 -4.98,16.174 -10.651,23.519 z"
                               style="fill:#823d17;fill-opacity:1;fill-rule:nonzero;stroke:none"
                               id="path161401" />
                          </g>
                        </g>
                      </g>
                      <g
                         transform="translate(58.1193,141.69303)"
                         id="g161415">
                        <g
                           id="g161413">
                          <g
                             id="g161411">
                            <path
                               d="m 204.113,-1.245 c 2.483,-0.109 4.912,-0.538 7.352,-1.146 -0.016,0.01 -0.031,0.02 -0.046,0.03 -2.421,0.596 -4.838,1.011 -7.306,1.116 z m -0.063,0.003 c 0.017,-0.001 0.034,-0.002 0.051,-0.002 -0.017,0 -0.034,10e-4 -0.051,0.002 z M 1.054,0 C 0.786,-0.26 0.519,-0.521 0.253,-0.784 L 0,-1.024 0.253,-0.784 C 0.519,-0.521 0.786,-0.26 1.054,0 Z"
                               style="fill:#a67d73;fill-opacity:1;fill-rule:nonzero;stroke:none"
                               id="path161409" />
                          </g>
                        </g>
                      </g>
                      <g
                         transform="translate(46.34975,148.84063)"
                         id="g161423">
                        <g
                           id="g161421">
                          <g
                             id="g161419">
                            <path
                               d="m 20.7541,0 c -2.729,-2.301 -5.387,-4.68 -7.93,-7.147 -0.269,-0.261 -0.535,-0.522 -0.802,-0.784 l -0.252,-0.24 v -0.007 c -0.071,-0.07 -0.101,-0.147 -0.101,-0.221 10e-4,-0.176 0.171,-0.335 0.359,-0.335 0.053,0 0.106,0.013 0.158,0.04 l 0.203,0.106 c 2.035,-0.671 4.108,-0.983 6.249,-1.202 1.074,-0.115 2.083,-0.292 3.059,-0.494 -2.808,-1.437 -5.385,-3.389 -7.662,-5.681 -5.18304,-5.222 -9.71904,-11.843 -13.95904,-17.844 -0.052,-0.071 -0.075,-0.147 -0.076,-0.22 -0.004,-0.22 0.193,-0.426 0.416,-0.488 0.074,-0.096 0.189,-0.168 0.324,-0.168 0.064,0 0.132,0.016 0.203,0.054 2.552,1.317 4.96,1.731 7.342,1.731 1.605,0 3.19804,-0.187 4.81604,-0.414 -4.05204,-2.086 -7.80404,-5.43 -9.97604,-8.021 -0.167,-0.054 -0.252,-0.19 -0.252,-0.325 0,-0.153 0.108,-0.303 0.329,-0.328 21.13904,-1.939 23.37104,-27.82 27.01804,-44.273 1.683,-7.62 3.556,-15.271 6.042,-22.688 0.14,6.924 -0.173,15.817 -2.338,28.913 -5.574,33.683 12.538,49.672 12.538,49.672 -11.458,-17.761 -8.42,-34.167 -8.42,-34.167 7.614,13.95 29.29,22.067 29.29,22.067 -6.253,-6.374 -9.05,-15.214 -9.05,-15.214 23.946,1.223 51.5909,18.427 51.5909,18.427 -2.606,-5.693 -6.978,-10.83 -6.978,-10.83 33.01,2.005 53.61,14.687 53.61,14.687 l -2.489,-11.101 c 10.651,4.738 19.801,14.078 19.801,14.078 l -5.892,-14.939 c 22.094,7.628 24.835,15.565 24.835,15.565 0.769,-9.5 1.492,-5.046 -0.658,-25.179 -1.994,-18.678 4.868,-32.098 5.16,-45.406 0.094,0.264 0.188,0.529 0.281,0.791 2.731,7.677 5.09,15.489 7.767,23.188 2.752,7.916 5.156,15.941 10.159,22.791 2.938,4.026 6.342,4.752 10.161,4.752 1.967,0 4.045,-0.193 6.227,-0.227 l 0.066,-0.088 c 0.109,-0.157 0.267,-0.227 0.421,-0.227 0.255,0 0.499,0.189 0.499,0.478 0,0.046 -0.007,0.097 -0.022,0.149 -1.063,3.885 -3.696,7.345 -6.251,10.405 -0.823,0.999 -1.821,2.095 -2.907,3.154 0.384,-0.126 0.767,-0.267 1.13,-0.421 3.772,-1.569 6.91,-3.928 10.376,-6.017 l 0.352,0.158 0.274,0.346 c -2.435,8.776 -4.98,16.174 -10.652,23.519 -3.576,4.624 -8.105,8.573 -13.339,11.095 0.383,0.051 0.757,0.088 1.152,0.112 0.569,0.036 1.134,0.053 1.695,0.053 0.391,0 0.78,-0.008 1.169,-0.025 0.016,0 0.034,-10e-4 0.051,-10e-4 0.004,-10e-4 0.008,-0.002 0.011,-0.002 2.468,-0.105 4.886,-0.52 7.306,-1.116 -0.335,0.222 -0.66,0.452 -1.006,0.666 -6.512,4.121 -13.557,5.383 -20.883,5.383 -1.609,0 -3.23,-0.061 -4.863,-0.165 10.991,-5.561 22.575,-11.381 27.588,-23.345 0.28,-0.672 -0.246,-1.302 -0.833,-1.302 -0.22,0 -0.449,0.089 -0.647,0.299 -4.146,4.498 -9.26,7.981 -14.7,10.734 2.172,-7.898 1.765,-17.218 -2.293,-24.352 -0.151,-0.264 -0.448,-0.388 -0.748,-0.388 -0.421,0 -0.848,0.245 -0.885,0.699 -0.659,9.051 -2.185,18.271 -7.394,25.714 -2.403,-9.654 -10.313,-17.113 -18.968,-21.911 -0.126,-0.07 -0.259,-0.101 -0.389,-0.101 -0.576,0 -1.114,0.602 -0.873,1.197 2.534,6.17 4.214,12.51 5.233,19.005 -4.036,-7.137 -9.797,-13.295 -16.87,-17.496 -0.139,-0.082 -0.278,-0.118 -0.411,-0.118 -0.562,0 -1.01,0.646 -0.851,1.213 2.292,7.993 4.881,15.918 5.924,24.128 -5.19,-6.016 -11.442,-11.215 -17.859,-15.663 -8.831,-6.109 -19.445,-11.443 -30.412,-11.443 -0.218,0 -0.436,0.002 -0.655,0.006 -0.537,0.006 -1.054,0.67 -0.801,1.186 3.631,7.606 8.622,14.955 11.343,22.991 -17.761,-15.937 -36.8479,-33.612 -61.1129,-37.225 -0.051,-0.007 -0.102,-0.011 -0.151,-0.011 -0.618,0 -1.074,0.549 -0.891,1.183 2.473,8.115 6.548,15.473 11.418,22.314 -10.871,-8.595 -23.968,-14.123 -36.133,-20.891 -0.122,-0.07 -0.254,-0.101 -0.387,-0.101 -0.49,0 -0.982,0.428 -0.912,0.955 1.715,12.638 6.344,25.994 15.439,35.24 -12.872,-6.115 -26.865,-12.855 -41.038,-12.855 -0.611,0 -1.22,0.013 -1.832,0.038 -0.856,0.037 -1.031,1.02 -0.543,1.57 6.225,6.893 13.564,13.212 21.715,17.956 -4.766,-1.129 -9.62,-1.859 -14.416,-1.859 -1.288,0 -2.571,0.053 -3.848,0.164 -0.715,0.071 -1.044,0.813 -0.692,1.404 0.959,1.639 2.035,3.192 3.203,4.69 z"
                               style="fill:#571f0a;fill-opacity:1;fill-rule:nonzero;stroke:none"
                               id="path161417" />
                          </g>
                        </g>
                      </g>
                      <g
                         transform="translate(64.28641,59.99115)"
                         id="g161431">
                        <g
                           id="g161429">
                          <g
                             id="g161427">
                            <path
                               d="m 21.3339,-6.53352 c 0,0 -4.267,6.271 -8.303,6.523 -4.038,0.252 -12.709,-4.015 -13.022,-13.91098 -0.307,-9.888 7.393,-16.371 13.482,-17.507 6.077,-1.12 8.14,5.501 8.14,5.501 z"
                               style="fill:#f0c9a6;fill-opacity:1;fill-rule:nonzero;stroke:none"
                               id="path161425" />
                          </g>
                        </g>
                      </g>
                      <g
                         transform="translate(69.4901,49.05654)"
                         id="g161439">
                        <g
                           id="g161437">
                          <g
                             id="g161435">
                            <path
                               d="M 6.779,-0.3306 C 1.234,1.5064 0.147,-4.7306 0,-8.7246 l 0.301,-0.027 c 0.511,1.575 0.911,3.231 1.514,4.768 1.032,2.638 3.751,2.265 5.595,0.882 0.712,-0.539 1.29,-1.157 1.799,-1.837 -1.097,-0.307 -2.013,-1.321 -2.6,-2.233 -0.795,-1.239 -1.119,-2.687 -1.273,-4.141 -0.022,-0.22 0.307,-0.263 0.395,-0.094 0.582,1.033 1.054,2.13 1.689,3.138 0.702,1.129 1.663,1.404 2.733,1.898 1.162,-2.106 1.83,-4.525 2.715,-6.724 0.159,-0.412 0.783,-0.361 0.783,0.119 -0.022,4.663 -1.788,10.959 -6.872,12.645 z"
                               style="fill:#c29469;fill-opacity:1;fill-rule:nonzero;stroke:none"
                               id="path161433" />
                          </g>
                        </g>
                      </g>
                      <g
                         transform="translate(238.7043,69.43515)"
                         id="g161447">
                        <g
                           id="g161445">
                          <g
                             id="g161443">
                            <path
                               d="m 0.187,-5.78591 c 0,0 3.74,5.53299 7.306,5.776 3.553,0.229 11.211,-3.499 11.529,-12.21599 0.307,-8.731 -6.462,-14.468 -11.826,-15.478 C 1.831,-28.7229 0,-22.8829 0,-22.8829 Z"
                               style="fill:#f0c9a6;fill-opacity:1;fill-rule:nonzero;stroke:none"
                               id="path161441" />
                          </g>
                        </g>
                      </g>
                      <g
                         transform="translate(241.1405,59.80065)"
                         id="g161455">
                        <g
                           id="g161453">
                          <g
                             id="g161451">
                            <path
                               d="m 6.021,-0.29912 c 4.871,1.642 5.859,-3.85 6.002,-7.377 l -0.264,-0.027 c -0.461,1.388 -0.812,2.842 -1.36,4.207 -0.911,2.309 -3.303,1.974 -4.937,0.751 -0.615,-0.476 -1.118,-1.026 -1.569,-1.624 0.966,-0.263 1.778,-1.156 2.293,-1.951 0.702,-1.108 0.998,-2.375 1.14,-3.653 l -0.35,-0.08698 c -0.515,0.90498 -0.932,1.87598 -1.492,2.76898 -0.637,0.982 -1.47,1.223 -2.414,1.656 -1.031,-1.853 -1.601,-3.999 -2.38,-5.93398 -0.143,-0.369 -0.69,-0.319 -0.69,0.103 0,4.10798 1.535,9.66498 6.021,11.16698 z"
                               style="fill:#c29469;fill-opacity:1;fill-rule:nonzero;stroke:none"
                               id="path161449" />
                          </g>
                        </g>
                      </g>
                      <g
                         transform="translate(79.20878,118.47643)"
                         id="g161463">
                        <g
                           id="g161461">
                          <g
                             id="g161459">
                            <path
                               d="m 13.6034,0 c 0,0 -18.11198,-15.989 -12.53798,-49.672 5.566,-33.671 -1.109,-39.567 3.746,-55.633 4.859,-16.07 25.26298,-50.379 74.39098,-49.825 49.1276,0.554 82.1796,32.367 85.1426,80.009 0.888,14.36 -7.252,28.383 -5.103,48.515 2.151,20.134 1.427,15.679 0.659,25.18 0,0 -2.741,-7.937 -24.835,-15.566 l 5.891,14.94 c 0,0 -9.15,-9.341 -19.801,-14.079 l 2.49,11.101 c 0,0 -20.601,-12.681 -53.6096,-14.687 0,0 4.372,5.137 6.978,10.831 0,0 -27.646,-17.205 -51.591,-18.428 0,0 2.797,8.841 9.05,15.214 0,0 -21.676,-8.116 -29.28998,-22.067 0,0 -3.039,16.406 8.41998,34.167 z"
                               style="fill:#f5d9bf;fill-opacity:1;fill-rule:nonzero;stroke:none"
                               id="path161457" />
                          </g>
                        </g>
                      </g>
                      <g
                         transform="translate(119.09702,17.81533)"
                         id="g161471">
                        <g
                           id="g161469">
                          <g
                             id="g161467">
                            <path
                               d="M 67.698,-6.504 C 60.568,-7.813 53.295,-8.478 46.088,-8.835 40.241,-9.13 34.416,-9.394 28.558,-9.366 25.355,-9.35 -3.12801,-6.563 1.26599,-0.075 L 1.14399,0 c -1.95301,-1.836 -1.25601,-3.416 0.961,-4.864 9.87801,-6.456 22.62401,-6.039 33.89001,-6.039 16.488,0 34.226,1.832 49.573,7.971 l 0.034,0.015 C 79.633,-4.132 73.72,-5.58 67.698,-6.504 Z"
                               style="fill:#c29469;fill-opacity:1;fill-rule:nonzero;stroke:none"
                               id="path161465" />
                          </g>
                        </g>
                      </g>
                      <g
                         transform="translate(121.115,13.44123)"
                         id="g161479">
                        <g
                           id="g161477">
                          <g
                             id="g161475">
                            <path
                               d="M 79.679,0 C 65.266,-4.988 49.096,-6.529 33.977,-6.529 c -1.288,0 -2.593,-0.006 -3.913,-0.006 -10.228,0 -21.228,0.328 -29.977,6.045 -0.029,0.02 -0.058,0.04 -0.087,0.058 3.039,-9.221 5.349,-18.814 12.455,-25.979 7.262,-7.322 17.321,-11.631 27.544,-12.741 1.829,-0.201 3.67,-0.309 5.504,-0.309 9.442,0 18.658,2.881 24.619,10.9 6.057,8.13 9.594,18.452 9.557,28.561 z"
                               style="fill:#8c0319;fill-opacity:1;fill-rule:nonzero;stroke:none"
                               id="path161473" />
                          </g>
                        </g>
                      </g>
                      <g
                         transform="translate(120.8995,13.65993)"
                         id="g161487">
                        <g
                           id="g161485">
                          <g
                             id="g161483">
                            <path
                               d="m 0,0 c 0.072,-0.217 0.144,-0.433 0.216,-0.65 0.029,-0.019 0.058,-0.039 0.087,-0.058 8.748,-5.718 19.749,-6.045 29.976,-6.045 1.32,0 2.626,0.005 3.914,0.005 15.118,0 31.288,1.541 45.701,6.529 0,0.055 0,0.109 -0.001,0.164 C 67.41,-4.771 52.656,-5.271 39.629,-5.994 37.291,-6.126 34.929,-6.198 32.556,-6.198 21.437,-6.198 10.088,-4.606 0,0 Z"
                               style="fill:#70030d;fill-opacity:1;fill-rule:nonzero;stroke:none"
                               id="path161481" />
                          </g>
                        </g>
                      </g>
                      <g
                         transform="translate(130.158,10.89043)"
                         id="g161495">
                        <g
                           id="g161493">
                          <g
                             id="g161491">
                            <path
                               d="m 5.365,-9.823 c 18.779,-3.527 37.209,-3.758 55.156,2.1 0.647,2.513 0.91,5.105 0.8,7.723 C 51.174,-2.238 40.282,-2.677 30.37,-3.225 20.328,-3.79 9.823,-3.259 0,-0.554 1.141,-3.96 3.05,-7.114 5.365,-9.823 Z"
                               style="fill:#ffffff;fill-opacity:1;fill-rule:nonzero;stroke:none"
                               id="path161489" />
                          </g>
                        </g>
                      </g>
                      <g
                         transform="translate(143.6617,-12.17191)"
                         id="g161503">
                        <g
                           id="g161501">
                          <g
                             id="g161499">
                            <path
                               d="m 40.413,-6.74326 c -4.695,3.142 -10.794,5.561 -16.389,6.369 -5.539,0.8 -11.803,0.394 -16.97,-1.965 -3.198,-1.463 -5.266,-3.483 -7.054,-5.867 5.403,-2.86304 11.387,-4.66804 17.453,-5.33204 8.788,-0.971 17.87,0.213 24.836,5.34104 -0.604,0.517 -1.218,1.01 -1.876,1.454 z"
                               style="fill:#f08294;fill-opacity:1;fill-rule:nonzero;stroke:none"
                               id="path161497" />
                          </g>
                        </g>
                      </g>
                      <g
                         transform="translate(191.55018,60.70571)"
                         id="g161511">
                        <g
                           id="g161509">
                          <g
                             id="g161507">
                            <path
                               d="m 8.84842,-11.6019 c 0.119,-6.523 -1.767,-11.909 -4.191,-12.04 -2.446,-0.115 -4.542,5.068 -4.652,11.607 -0.12,6.52003 1.767,11.91903 4.202,12.03303 2.435,0.115 4.52,-5.079 4.641,-11.60003 z"
                               style="fill:#3d190a;fill-opacity:1;fill-rule:nonzero;stroke:none"
                               id="path161505" />
                          </g>
                        </g>
                      </g>
                      <g
                         transform="translate(192.56424,57.44564)"
                         id="g161519">
                        <g
                           id="g161517">
                          <g
                             id="g161515">
                            <path
                               d="m 2.68817,-3.63771 c -0.097,-1.979 -0.789,-3.552 -1.524,-3.525 -0.735,0.032 -1.251,1.668 -1.152,3.653 0.1,1.968 0.778,3.548 1.514,3.509 0.745,-0.037 1.262,-1.672 1.162,-3.637 z"
                               style="fill:#ffffff;fill-opacity:1;fill-rule:nonzero;stroke:none"
                               id="path161513" />
                          </g>
                        </g>
                      </g>
                      <g
                         transform="translate(112.76863,61.05499)"
                         id="g161527">
                        <g
                           id="g161525">
                          <g
                             id="g161523">
                            <path
                               d="m 8.88787,-11.9239 c -0.373,-6.511 -2.666,-11.729 -5.102,-11.673 -2.445,0.082 -4.124,5.414 -3.728,11.93 0.384,6.51104 2.682,11.74404 5.122,11.66604 2.44,-0.055 4.103,-5.402 3.708,-11.92304 z"
                               style="fill:#3d190a;fill-opacity:1;fill-rule:nonzero;stroke:none"
                               id="path161521" />
                          </g>
                        </g>
                      </g>
                      <g
                         transform="translate(114.17469,57.94837)"
                         id="g161535">
                        <g
                           id="g161533">
                          <g
                             id="g161531">
                            <path
                               d="m 2.72171,-3.72814 c -0.253,-1.963 -1.054,-3.465 -1.783,-3.39 -0.729,0.094 -1.114,1.762 -0.861,3.724 0.24,1.965 1.042,3.484 1.777,3.39 0.734,-0.087 1.129,-1.759 0.867,-3.724 z"
                               style="fill:#ffffff;fill-opacity:1;fill-rule:nonzero;stroke:none"
                               id="path161529" />
                          </g>
                        </g>
                      </g>
                      <g
                         transform="translate(147.06546,35.66883)"
                         id="g161543">
                        <g
                           id="g161541">
                          <g
                             id="g161539">
                            <path
                               d="m 2.42725,-14.4124 c -0.582,1.963 0.181,4.23 2.172,5.06401 3.79,1.589 8.11095,0.559 11.33695,-1.85601 l -0.098,0.603 c -1.426,1.56001 -3.917,2.94801 -6.52795,3.60001 0.86195,2.176 -0.088,3.855 -1.261,5.781 -0.209,0.334 -1.723,1.562 -1.58,1.129 0.45,-1.479 1.021,-4.826 -0.18,-5.973 l -0.401,-0.566 c -1.733,-0.087 -3.345,-0.634 -4.542,-1.859 -3.614,-3.73401 0.735,-10.18501 4.958,-11.01201 l 0.209,0.08 c -1.876,1.218 -3.401,2.716 -4.086,5.009 z"
                               style="fill:#c29469;fill-opacity:1;fill-rule:nonzero;stroke:none"
                               id="path161537" />
                          </g>
                        </g>
                      </g>
                      <g
                         transform="translate(179.7309,89.61413)"
                         id="g161551">
                        <g
                           id="g161549">
                          <g
                             id="g161547">
                            <path
                               d="m 36.135,-20.8482 c -1.098,9.193 -8.041,22.362 -19.297,20.706 C 7.745,-1.4982 0.076,-11.3252 0,-20.4412 c 0,-0.813 1.141,-1.108 1.426,-0.29 2.479,7.141 5.77,12.493 13.449,14.644 9.807,2.76 13.756,-8.722 15.599,-15.824 0.921,-3.614 6.11,-2.627 5.661,1.063 z"
                               style="fill:#6e2614;fill-opacity:1;fill-rule:nonzero;stroke:none"
                               id="path161545" />
                          </g>
                        </g>
                      </g>
                      <g
                         transform="translate(98.48005,88.87551)"
                         id="g161559">
                        <g
                           id="g161557">
                          <g
                             id="g161555">
                            <path
                               d="m 19.6885,-0.09488 c -10.02705,1.211 -21.11805,-9.383 -19.53705,-19.63502 0.279,-1.843 2.686,-2.633 4.047,-1.383 5.188,4.75 4.767,14.26202 13.76205,14.63502 7.509,0.307 13.147,-6.84102 15.155,-13.24702 0.23,-0.712 1.409,-0.806 1.425,0.071 0.067,8.595 -5.627,18.45002 -14.852,19.55902 z"
                               style="fill:#6e2614;fill-opacity:1;fill-rule:nonzero;stroke:none"
                               id="path161553" />
                          </g>
                        </g>
                      </g>
                      <g
                         transform="translate(75.33548,83.13441)"
                         id="g161567">
                        <g
                           id="g161565">
                          <g
                             id="g161563">
                            <path
                               d="m 69.4346,-17.7032 c -15.835,32.274 -75.87197,17.37202 -68.86897,-20.15 4.212,-22.605 28.68697,-31.551 48.47597,-26.196 19.691,5.325 29.355,28.088 20.393,46.346 z m -24.156,-42.02 c -16.301,-4.365 -36.72697,6.74 -38.11997,25.214 -2.369,31.72502 45.51497,37.60602 56.35197,15.146 8.94,-18.54 -2.204,-36.047 -18.232,-40.36 z"
                               style="fill:#6b787d;fill-opacity:1;fill-rule:nonzero;stroke:none"
                               id="path161561" />
                          </g>
                        </g>
                      </g>
                      <g
                         transform="translate(174.60151,83.46901)"
                         id="g161575">
                        <g
                           id="g161573">
                          <g
                             id="g161571">
                            <path
                               d="m 69.4235,-17.6806 c -15.786,32.197 -75.86801,17.41502 -68.85701,-20.157 4.212,-22.602 28.69601,-31.548 48.47501,-26.203 19.702,5.332 29.344,28.095 20.382,46.36 z m -24.145,-42.02 c -16.3,-4.376 -36.72701,6.748 -38.10901,25.214 -2.38,31.72002 45.51401,37.59902 56.34001,15.139 8.942,-18.533 -2.214,-36.054 -18.231,-40.353 z"
                               style="fill:#6b787d;fill-opacity:1;fill-rule:nonzero;stroke:none"
                               id="path161569" />
                          </g>
                        </g>
                      </g>
                      <g
                         transform="translate(143.0986,63.94138)"
                         id="g161583">
                        <g
                           id="g161581">
                          <g
                             id="g161579">
                            <path
                               d="m 38.497,-19.3952 c -1.886,8.856 -8.688,18.95005 -18.714,19.37805 -10.367,0.444 -18.023,-7.794 -19.751,-17.60805 -0.28,-1.635 1.332,-2.567 2.703,-1.875 6.352,3.133 10.317,13.22805 18.682,9.60305 6.011,-2.60405 8.128,-10.76005 14.557,-12.25305 1.701,-0.399 2.853,1.218 2.523,2.755 z"
                               style="fill:#3d474a;fill-opacity:1;fill-rule:nonzero;stroke:none"
                               id="path161577" />
                          </g>
                        </g>
                      </g>
                    </g>
                  </g>
                </g>
              </g>
            </g>
          </g>
        </g>
      </g>
    </g>
  </g>
</svg>
