<?xml version="1.0" encoding="UTF-8" standalone="no"?>
<!-- Created with Inkscape (http://www.inkscape.org/) -->

<svg
   version="1.1"
   id="svg162025"
   width="400"
   height="400"
   viewBox="0 0 400 400"
   sodipodi:docname="1541_pic.pdf"
   xmlns:inkscape="http://www.inkscape.org/namespaces/inkscape"
   xmlns:sodipodi="http://sodipodi.sourceforge.net/DTD/sodipodi-0.dtd"
   xmlns="http://www.w3.org/2000/svg"
   xmlns:svg="http://www.w3.org/2000/svg">
  <defs
     id="defs162029">
    <clipPath
       clipPathUnits="userSpaceOnUse"
       id="clipPath162045">
      <path
         d="M 0,0 H 124.46079 V -183.48311 H 0 Z"
         clip-rule="evenodd"
         id="path162043" />
    </clipPath>
    <clipPath
       clipPathUnits="userSpaceOnUse"
       id="clipPath162055">
      <path
         d="M 0,-550.4488 H 373.382 V 550.4488 H 0 Z"
         id="path162053" />
    </clipPath>
    <clipPath
       clipPathUnits="userSpaceOnUse"
       id="clipPath162059">
      <path
         d="M 0,0 H 73.265 V -75.6087 H 0 Z"
         clip-rule="evenodd"
         id="path162057" />
    </clipPath>
    <clipPath
       clipPathUnits="userSpaceOnUse"
       id="clipPath162063">
      <path
         d="M 0,-75.6087 H 300 V 75.6087 H 0 Z"
         id="path162061" />
    </clipPath>
  </defs>
  <sodipodi:namedview
     id="namedview162027"
     pagecolor="#ffffff"
     bordercolor="#000000"
     borderopacity="0.25"
     inkscape:showpageshadow="2"
     inkscape:pageopacity="0.0"
     inkscape:pagecheckerboard="0"
     inkscape:deskcolor="#d1d1d1" />
  <g
     id="g162031"
     inkscape:groupmode="layer"
     inkscape:label="1541_pic87"
     transform="matrix(1.3333333,0,0,-1.3333333,0,400)">
    <g
       id="g162033">
      <g
         id="g162035">
        <g
           id="g162037"
           transform="translate(87.76961,241.74156)">
          <g
             id="g162039">
            <g
               id="g162041"
               clip-path="url(#clipPath162045)">
              <g
                 id="g162047"
                 transform="matrix(0.33333,0,0,0.33333,0,-61.1611)">
                <g
                   id="g162049">
                  <g
                     id="g162051" />
                  <g
                     id="g162125">
                    <g
                       clip-path="url(#clipPath162055)"
                       id="g162123">
                      <g
                         transform="translate(0,127.76431)"
                         id="g162071">
                        <g
                           id="g162069">
                          <g
                             id="g162067">
                            <path
                               d="M 373.382,-494.73 H 0 V 0 h 373.382 z"
                               style="fill:#f7e3a3;fill-opacity:1;fill-rule:nonzero;stroke:none"
                               id="path162065" />
                          </g>
                        </g>
                      </g>
                      <g
                         transform="translate(15.828,104.17431)"
                         id="g162079">
                        <g
                           id="g162077">
                          <g
                             id="g162073" />
                          <path
                             d="M 341.726,-0.63 H 0 V 0 h 341.726 z m 0,-17.19 H 0 v 0.627 h 341.726 z m 0,-17.189 H 0 v 0.627 h 341.726 z m 0,-17.189 H 0 v 0.627 h 341.726 z m 0,-17.189 H 0 v 0.627 h 341.726 z m 0,-17.189 H 0 v 0.627 h 341.726 z m 0,-17.189 H 0 v 0.627 h 341.726 z m 0,-17.189 H 0 v 0.627 h 341.726 z m 0,-17.189 H 0 v 0.628 h 341.726 z m 0,-17.189 H 0 v 0.627 h 341.726 z m 0,-17.189 H 0 v 0.627 h 341.726 z m 0,-17.19 H 0 v 0.627 h 341.726 z m 0,-17.189 H 0 v 0.627 h 341.726 z m 0,-17.188 H 0 v 0.627 h 341.726 z m 0,-17.189 H 0 v 0.628 h 341.726 z m 0,-17.189 H 0 v 0.627 h 341.726 z m 0,-17.189 H 0 v 0.627 h 341.726 z m 0,-17.189 H 0 v 0.628 h 341.726 z m 0,-17.189 H 0 v 0.627 h 341.726 z m 0,-17.189 H 0 v 0.627 h 341.726 z m 0,-17.19 H 0 v 0.628 h 341.726 z m 0,-17.189 H 0 v 0.628 h 341.726 z m 0,-17.189 H 0 v 0.628 h 341.726 z m 0,-17.188 H 0 v 0.627 h 341.726 z m 0,-17.189 H 0 v 0.627 h 341.726 z m 0,-17.189 H 0 v 0.627 h 341.726 z m 0,-17.19 H 0 v 0.627 h 341.726 z"
                             style="fill:none;stroke:#cfcfcf;stroke-width:1;stroke-linecap:butt;stroke-linejoin:miter;stroke-miterlimit:10;stroke-dasharray:none;stroke-opacity:1"
                             id="path162075" />
                        </g>
                      </g>
                      <g
                         transform="translate(153.16,144.13431)"
                         id="g162087">
                        <g
                           id="g162085">
                          <g
                             id="g162083">
                            <path
                               d="M 67.062,-36.26 H 0 V 0 h 67.062 z"
                               style="fill:#404042;fill-opacity:1;fill-rule:nonzero;stroke:none"
                               id="path162081" />
                          </g>
                        </g>
                      </g>
                      <g
                         transform="translate(150.0585,183.48311)"
                         id="g162121">
                        <g
                           id="g162119">
                          <g
                             id="g162117">
                            <g
                               clip-path="url(#clipPath162059)"
                               id="g162115">
                              <g
                                 transform="translate(0,-75.6087)"
                                 id="g162113">
                                <g
                                   id="g162111">
                                <g
                                   id="g162089" />
                                <g
                                   id="g162109">
                                <g
                                   clip-path="url(#clipPath162063)"
                                   id="g162107">
                                <g
                                   transform="translate(17.02493,75.6087)"
                                   id="g162097">
                                <g
                                   id="g162095">
                                <g
                                   id="g162093">
                                <path
                                   d="m 37.2064,-71.336 c -0.944,0 -1.785,0.668 -1.968,1.629 l -9.304,48.581 c -0.102,0.536 0.018,1.088 0.33,1.532 l 5.916,12.069 c 0.379,0.772 0.335,1.634 -0.119,2.363 -0.455,0.729 -1.209,1.148 -2.069,1.148 H 9.22237 c -0.859,0 -1.614,-0.419 -2.068,-1.148 -0.455,-0.729 -0.499,-1.591 -0.12,-2.363 l 5.95203,-12.141 c 0.278,-0.43 0.391,-0.952 0.294,-1.46 L 3.97737,-69.707 c -0.208,-1.088 -1.265,-1.801 -2.348,-1.593 -1.089,0.208 -1.802,1.259 -1.593,2.348 l 9.169,47.882 -5.775,11.777 c -0.987,2.014 -0.868,4.352 0.318,6.255 1.186,1.901 3.233,3.038 5.474,3.038 L 29.9924,0 c 2.242,0 4.288,-1.137 5.475,-3.038 1.186,-1.903 1.305,-4.241 0.318,-6.255 l -5.775,-11.777 9.169,-47.882 c 0.209,-1.089 -0.505,-2.14 -1.593,-2.348 -0.127,-0.025 -0.255,-0.036 -0.38,-0.036 z"
                                   style="fill:#e5e8e8;fill-opacity:1;fill-rule:nonzero;stroke:none"
                                   id="path162091" />
                                </g>
                                </g>
                                </g>
                                <g
                                   transform="translate(0,6.761)"
                                   id="g162105">
                                <g
                                   id="g162103">
                                <g
                                   id="g162101">
                                <path
                                   d="M 69.884,0 H 3.381 C 1.514,0 0,-1.513 0,-3.381 c 0,-1.866 1.514,-3.38 3.381,-3.38 h 66.503 c 1.867,0 3.381,1.514 3.381,3.38 0,1.868 -1.514,3.381 -3.381,3.381 z"
                                   style="fill:#241f21;fill-opacity:1;fill-rule:nonzero;stroke:none"
                                   id="path162099" />
                                </g>
                                </g>
                                </g>
                                </g>
                                </g>
                                </g>
                              </g>
                            </g>
                          </g>
                        </g>
                      </g>
                    </g>
                  </g>
                </g>
              </g>
            </g>
          </g>
        </g>
      </g>
    </g>
  </g>
</svg>
