<?xml version="1.0" encoding="UTF-8" standalone="no"?>
<!-- Created with Inkscape (http://www.inkscape.org/) -->

<svg
   version="1.1"
   id="svg162292"
   width="400"
   height="400"
   viewBox="0 0 400 400"
   sodipodi:docname="1542_pic.pdf"
   xmlns:inkscape="http://www.inkscape.org/namespaces/inkscape"
   xmlns:sodipodi="http://sodipodi.sourceforge.net/DTD/sodipodi-0.dtd"
   xmlns="http://www.w3.org/2000/svg"
   xmlns:svg="http://www.w3.org/2000/svg">
  <defs
     id="defs162296">
    <clipPath
       clipPathUnits="userSpaceOnUse"
       id="clipPath162312">
      <path
         d="M 0,0 H 249.0189 V -77.66374 H 0 Z"
         clip-rule="evenodd"
         id="path162310" />
    </clipPath>
    <clipPath
       clipPathUnits="userSpaceOnUse"
       id="clipPath162322">
      <path
         d="M 0,-232.99081 H 747.056 V 232.99081 H 0 Z"
         id="path162320" />
    </clipPath>
  </defs>
  <sodipodi:namedview
     id="namedview162294"
     pagecolor="#ffffff"
     bordercolor="#000000"
     borderopacity="0.25"
     inkscape:showpageshadow="2"
     inkscape:pageopacity="0.0"
     inkscape:pagecheckerboard="0"
     inkscape:deskcolor="#d1d1d1" />
  <g
     id="g162298"
     inkscape:groupmode="layer"
     inkscape:label="1542_pic89"
     transform="matrix(1.3333333,0,0,-1.3333333,0,400)">
    <g
       id="g162300">
      <g
         id="g162302">
        <g
           id="g162304"
           transform="translate(25.49055,188.83184)">
          <g
             id="g162306">
            <g
               id="g162308"
               clip-path="url(#clipPath162312)">
              <g
                 id="g162314"
                 transform="matrix(0.33333,0,0,0.33333,0,-25.88792)">
                <g
                   id="g162316">
                  <g
                     id="g162318" />
                  <g
                     id="g162510">
                    <g
                       clip-path="url(#clipPath162322)"
                       id="g162508">
                      <g
                         transform="translate(0,77.66367)"
                         id="g162330">
                        <g
                           id="g162328">
                          <g
                             id="g162326">
                            <path
                               d="M 236.478,-232.991 H 0 V 0 h 236.478 z"
                               style="fill:#ededed;fill-opacity:1;fill-rule:nonzero;stroke:none"
                               id="path162324" />
                          </g>
                        </g>
                      </g>
                      <g
                         transform="translate(255.289,77.66367)"
                         id="g162338">
                        <g
                           id="g162336">
                          <g
                             id="g162334">
                            <path
                               d="M 236.478,-232.991 H 0 V 0 h 236.478 z"
                               style="fill:#ededed;fill-opacity:1;fill-rule:nonzero;stroke:none"
                               id="path162332" />
                          </g>
                        </g>
                      </g>
                      <g
                         transform="translate(510.57803,77.66367)"
                         id="g162346">
                        <g
                           id="g162344">
                          <g
                             id="g162342">
                            <path
                               d="M 236.478,-232.991 H 0 V 0 h 236.478 z"
                               style="fill:#ededed;fill-opacity:1;fill-rule:nonzero;stroke:none"
                               id="path162340" />
                          </g>
                        </g>
                      </g>
                      <g
                         transform="translate(72.88888,5.84688)"
                         id="g162354">
                        <g
                           id="g162352">
                          <g
                             id="g162350">
                            <path
                               d="m 45.3507,-89.3648 c 25.0044,0 45.3481,20.0445 45.3481,44.6811 C 90.6988,-20.0445 70.3551,0 45.3507,0 20.3437,0 0,-20.0445 0,-44.6837 0,-69.3203 20.3437,-89.3648 45.3507,-89.3648 Z"
                               style="fill:#fabf00;fill-opacity:1;fill-rule:nonzero;stroke:none"
                               id="path162348" />
                          </g>
                        </g>
                      </g>
                      <g
                         transform="translate(113.41293,50.96584)"
                         id="g162362">
                        <g
                           id="g162360">
                          <g
                             id="g162358">
                            <path
                               d="m 0,-24.8964 c 0,-2.6259 2.16103,-4.7552 4.82614,-4.7552 2.6651,0 4.82614,2.1293 4.82614,4.7552 V -4.75515 C 9.65228,-2.12925 7.49124,0 4.82614,0 2.16103,0 0,-2.12925 0,-4.75515 Z"
                               style="fill:#fabf00;fill-opacity:1;fill-rule:nonzero;stroke:none"
                               id="path162356" />
                          </g>
                        </g>
                      </g>
                      <g
                         transform="translate(113.41293,-98.98657)"
                         id="g162370">
                        <g
                           id="g162368">
                          <g
                             id="g162366">
                            <path
                               d="M 0,-4.75515 V -24.8964 c 0,-2.6259 2.16103,-4.7552 4.82614,-4.7552 2.6651,0 4.82614,2.1293 4.82614,4.7552 V -4.75515 C 9.65228,-2.12925 7.49124,0 4.82614,0 2.16103,0 0,-2.12925 0,-4.75515 Z"
                               style="fill:#fabf00;fill-opacity:1;fill-rule:nonzero;stroke:none"
                               id="path162364" />
                          </g>
                        </g>
                      </g>
                      <g
                         transform="translate(70.25408,39.57317)"
                         id="g162378">
                        <g
                           id="g162376">
                          <g
                             id="g162374">
                            <path
                               d="m 15.0525,-26.9562 c 0.8194,0 1.6492,0.2063 2.4092,0.6367 2.3083,1.3142 3.0993,4.2228 1.7655,6.4973 L 9.00623,-2.37819 C 7.67239,-0.10376 4.72035,0.67561 2.41197,-0.63862 0.10618,-1.9503 -0.68482,-4.85891 0.64644,-7.13334 L 10.8674,-24.5774 c 0.8944,-1.5256 2.5152,-2.3788 4.1851,-2.3788 z"
                               style="fill:#fabf00;fill-opacity:1;fill-rule:nonzero;stroke:none"
                               id="path162372" />
                          </g>
                        </g>
                      </g>
                      <g
                         transform="translate(146.34871,-90.28899)"
                         id="g162386">
                        <g
                           id="g162384">
                          <g
                             id="g162382">
                            <path
                               d="M 2.41447,-0.63853 C 0.10609,-1.95275 -0.68491,-4.85882 0.64635,-7.1358 L 10.8699,-24.5773 c 0.8944,-1.5256 2.5152,-2.3789 4.1825,-2.3789 0.8194,0 1.6492,0.2038 2.4092,0.6368 2.3084,1.3142 3.0994,4.2203 1.7655,6.4972 L 9.00614,-2.38064 C 7.67488,-0.10367 4.72284,0.6757 2.41447,-0.63853 Z"
                               style="fill:#fabf00;fill-opacity:1;fill-rule:nonzero;stroke:none"
                               id="path162380" />
                          </g>
                        </g>
                      </g>
                      <g
                         transform="translate(38.65849,8.44385)"
                         id="g162394">
                        <g
                           id="g162392">
                          <g
                             id="g162390">
                            <path
                               d="M 0.6475,-2.37819 C -0.68635,-4.65261 0.10724,-7.56123 2.41562,-8.87545 L 20.1201,-18.9461 c 0.76,-0.4304 1.5871,-0.6367 2.4066,-0.6367 1.6673,0 3.2906,0.8532 4.185,2.3788 1.3339,2.2719 0.5403,5.1805 -1.7681,6.4947 L 7.23917,-0.63862 C 4.93338,0.67561 1.98134,-0.10376 0.6475,-2.37819 Z"
                               style="fill:#fabf00;fill-opacity:1;fill-rule:nonzero;stroke:none"
                               id="path162388" />
                          </g>
                        </g>
                      </g>
                      <g
                         transform="translate(170.46079,-66.53248)"
                         id="g162402">
                        <g
                           id="g162400">
                          <g
                             id="g162398">
                            <path
                               d="M 24.9443,-10.71 7.23982,-0.63684 C 4.93145,0.67484 1.97941,-0.10453 0.64815,-2.37895 -0.68569,-4.65338 0.10531,-7.562 2.41369,-8.87367 L 20.1181,-18.9443 c 0.76,-0.433 1.5898,-0.6393 2.4092,-0.6393 1.6673,0 3.2881,0.8532 4.1851,2.3789 1.3313,2.2744 0.5403,5.1804 -1.7681,6.4947 z"
                               style="fill:#fabf00;fill-opacity:1;fill-rule:nonzero;stroke:none"
                               id="path162396" />
                          </g>
                        </g>
                      </g>
                      <g
                         transform="translate(27.09433,-34.08164)"
                         id="g162410">
                        <g
                           id="g162408">
                          <g
                             id="g162406">
                            <path
                               d="M 30.0968,-4.75515 C 30.0968,-2.12925 27.9358,0 25.2707,0 H 4.82872 C 2.16103,0 0,-2.12925 0,-4.75515 0,-7.38106 2.16103,-9.51031 4.82872,-9.51031 H 25.2707 c 2.6651,0 4.8261,2.12925 4.8261,4.75516 z"
                               style="fill:#fabf00;fill-opacity:1;fill-rule:nonzero;stroke:none"
                               id="path162404" />
                          </g>
                        </g>
                      </g>
                      <g
                         transform="translate(179.28779,-34.08113)"
                         id="g162418">
                        <g
                           id="g162416">
                          <g
                             id="g162414">
                            <path
                               d="M 25.2681,0 H 4.82355 C 2.16103,0 0,-2.12925 0,-4.75515 0,-7.38106 2.16103,-9.51031 4.82355,-9.51031 H 25.2681 c 2.6651,0 4.8261,2.12925 4.8261,4.75516 C 30.0942,-2.12925 27.9332,0 25.2681,0 Z"
                               style="fill:#fabf00;fill-opacity:1;fill-rule:nonzero;stroke:none"
                               id="path162412" />
                          </g>
                        </g>
                      </g>
                      <g
                         transform="translate(38.65886,-66.53227)"
                         id="g162426">
                        <g
                           id="g162424">
                          <g
                             id="g162422">
                            <path
                               d="M 20.1189,-0.63806 2.41447,-10.7112 c -2.30838,-1.3117 -3.09938,-4.2203 -1.76812,-6.4922 0.8944,-1.5282 2.51776,-2.3814 4.18506,-2.3814 0.81944,0 1.64921,0.2063 2.4092,0.6393 L 24.9451,-8.8749 c 2.3083,1.31423 3.0993,4.2203 1.7655,6.49727 -1.3313,2.27188 -4.2833,3.05379 -6.5917,1.73957 z"
                               style="fill:#fabf00;fill-opacity:1;fill-rule:nonzero;stroke:none"
                               id="path162420" />
                          </g>
                        </g>
                      </g>
                      <g
                         transform="translate(170.46027,8.44355)"
                         id="g162434">
                        <g
                           id="g162432">
                          <g
                             id="g162430">
                            <path
                               d="M 20.1181,-0.63806 2.41369,-10.7087 c -2.30838,-1.3142 -3.09938,-4.2228 -1.76554,-6.4947 0.89182,-1.5282 2.51518,-2.3789 4.18248,-2.3789 0.81944,0 1.64921,0.2063 2.40919,0.6368 L 24.9443,-8.8749 c 2.3084,1.31423 3.0994,4.22284 1.7681,6.49727 -1.3338,2.27188 -4.2859,3.05379 -6.5943,1.73957 z"
                               style="fill:#fabf00;fill-opacity:1;fill-rule:nonzero;stroke:none"
                               id="path162428" />
                          </g>
                        </g>
                      </g>
                      <g
                         transform="translate(70.25314,-90.2891)"
                         id="g162442">
                        <g
                           id="g162440">
                          <g
                             id="g162438">
                            <path
                               d="M 10.8691,-2.37951 0.64815,-19.8236 c -1.33384,-2.2744 -0.54284,-5.183 1.76554,-6.4947 0.75998,-0.433 1.58975,-0.6367 2.40919,-0.6367 1.6673,0 3.29066,0.8532 4.18506,2.3763 L 19.2289,-7.13466 c 1.3339,2.27442 0.5403,5.18304 -1.7681,6.49726 -2.3058,1.31168 -5.2578,0.53486 -6.5917,-1.74211 z"
                               style="fill:#fabf00;fill-opacity:1;fill-rule:nonzero;stroke:none"
                               id="path162436" />
                          </g>
                        </g>
                      </g>
                      <g
                         transform="translate(146.34871,39.57267)"
                         id="g162450">
                        <g
                           id="g162448">
                          <g
                             id="g162446">
                            <path
                               d="m 2.41447,-26.3177 c 0.75998,-0.433 1.58975,-0.6368 2.40919,-0.6368 1.6673,0 3.29066,0.8507 4.18248,2.3789 L 19.2271,-7.13156 c 1.3339,2.27188 0.5429,5.18049 -1.7655,6.49472 -2.3084,1.31168 -5.2604,0.53231 -6.5917,-1.74211 L 0.64635,-19.823 c -1.33126,-2.2719 -0.54026,-5.1805 1.76812,-6.4947 z"
                               style="fill:#fabf00;fill-opacity:1;fill-rule:nonzero;stroke:none"
                               id="path162444" />
                          </g>
                        </g>
                      </g>
                      <g
                         transform="translate(275.92507,24.02777)"
                         id="g162458">
                        <g
                           id="g162456">
                          <g
                             id="g162454">
                            <path
                               d="m 73.8939,-79.5565 c 0,19.4918 17.8958,35.3491 39.8941,35.3491 4.751,0 9.357,-0.7208 13.741,-2.1496 4.542,4.5819 10.446,7.8904 16.968,9.5841 -5.811,11.5708 -17.97,19.2473 -31.386,19.2473 -2.857,0 -5.698,-0.3413 -8.453,-1.0136 -2.035,-0.4967 -4.167,0.2979 -5.3564,1.9993 C 92.0663,-6.18145 80.1418,0 67.4057,0 57.7198,0 48.4501,-3.54281 41.3078,-9.9764 34.2095,-16.3692 29.7995,-25.062 28.887,-34.45 c -0.168,-1.7371 -1.2485,-3.2576 -2.846,-4.0064 -0.4653,-0.219 -0.9332,-0.4559 -1.3907,-0.7029 -0.4188,-0.2293 -0.8712,-0.3974 -1.339,-0.4992 C 16.7971,-41.0925 10.8776,-44.699 6.64596,-49.8209 2.29804,-55.0803 0,-61.4452 0,-68.2302 0,-84.3753 13.4082,-97.5125 29.89,-97.5125 h 35.8871 c 0.9901,6.0286 3.787,11.6956 8.153,16.4431 -0.0232,0.5043 -0.0362,1.0111 -0.0362,1.5129 z"
                               style="fill:#45a0ce;fill-opacity:1;fill-rule:nonzero;stroke:none"
                               id="path162452" />
                          </g>
                        </g>
                      </g>
                      <g
                         transform="translate(351.35966,-21.37084)"
                         id="g162466">
                        <g
                           id="g162464">
                          <g
                             id="g162462">
                            <path
                               d="m 107.033,-34.99 c -2.611,0.9322 -3.962,3.7695 -3.019,6.3445 0.776,2.1165 1.166,4.3196 1.166,6.5533 0,9.4109 -6.9615,17.46185 -16.7353,20.63789 C 85.5651,-0.51703 82.445,0 79.188,0 77.4767,0 75.7965,-0.14772 74.1576,-0.42279 67.447,-1.54855 61.4577,-4.89524 57.5569,-9.84905 56.1507,-11.637 53.6976,-12.261 51.5908,-11.367 c -4.1359,1.75227 -8.5898,2.6437 -13.2376,2.6437 -16.4482,0 -29.82797,-11.4103 -29.82797,-25.4338 0,-0.9017 0.05687,-1.8211 0.17319,-2.738 C 8.8923,-38.4437 8.33394,-39.9947 7.19139,-41.0772 3.86194,-44.2278 1.61561,-48.038 0.60747,-52.1131 0.21197,-53.7177 0,-55.363 0,-57.0237 0,-58.7428 0.21972,-60.4162 0.62556,-62.031 3.33461,-72.7995 14.5973,-80.9013 28.0418,-80.9013 h 68.1915 c 15.4637,0 28.0417,10.7099 28.0417,23.8776 0,9.6479 -6.767,18.2973 -17.242,22.0337 z"
                               style="fill:#0c638e;fill-opacity:1;fill-rule:nonzero;stroke:none"
                               id="path162460" />
                          </g>
                        </g>
                      </g>
                      <g
                         transform="translate(531.37257,32.34891)"
                         id="g162474">
                        <g
                           id="g162472">
                          <g
                             id="g162470">
                            <path
                               d="m 72.1775,-77.7074 c 0,19.041 17.4796,34.529 38.9655,34.529 4.64,0 9.141,-0.7055 13.424,-2.1013 4.436,4.475 10.203,7.7071 16.575,9.3626 -5.677,11.3008 -17.555,18.7991 -30.66,18.7991 -2.787,0 -5.566,-0.3337 -8.254,-0.9908 -1.991,-0.4865 -4.0715,0.2929 -5.2322,1.9535 C 89.9259,-6.03882 78.2806,0 65.8392,0 56.3782,0 47.3256,-3.4613 40.3488,-9.74463 33.4159,-15.9897 29.1068,-24.4787 28.2175,-33.6477 c -0.1628,-1.6963 -1.2227,-3.1812 -2.7814,-3.9147 -0.4524,-0.2114 -0.9099,-0.4432 -1.3571,-0.6877 -0.411,-0.2216 -0.853,-0.3871 -1.308,-0.4865 C 16.4068,-40.1374 10.6242,-43.6598 6.49086,-48.662 2.24375,-53.7992 0,-60.0163 0,-66.6435 0,-82.4142 13.098,-95.2457 29.1946,-95.2457 H 64.252 c 0.9668,5.8885 3.6939,11.4256 7.9617,16.061 -0.0232,0.4942 -0.0362,0.9883 -0.0362,1.4773 z"
                               style="fill:#45a0ce;fill-opacity:1;fill-rule:nonzero;stroke:none"
                               id="path162468" />
                          </g>
                        </g>
                      </g>
                      <g
                         transform="translate(563.55688,-99.92451)"
                         id="g162482">
                        <g
                           id="g162480">
                          <g
                             id="g162478">
                            <path
                               d="m 10.834,-28.7147 c 0.4782,0 0.9616,0.0688 1.4424,0.214 2.5953,0.7844 4.0532,3.4918 3.2571,6.049 L 9.61646,-3.42346 C 8.82029,-0.86633 6.06988,0.57015 3.47457,-0.21431 0.87926,-0.99622 -0.57866,-3.70617 0.21751,-6.26331 L 6.13709,-25.289 c 0.64882,-2.086 2.59272,-3.4257 4.69691,-3.4257 z"
                               style="fill:#45a0ce;fill-opacity:1;fill-rule:nonzero;stroke:none"
                               id="path162476" />
                          </g>
                        </g>
                      </g>
                      <g
                         transform="translate(604.71873,-99.92451)"
                         id="g162490">
                        <g
                           id="g162488">
                          <g
                             id="g162486">
                            <path
                               d="m 10.8323,-28.7147 c 0.4783,0 0.9617,0.0688 1.4425,0.214 2.5953,0.7844 4.0532,3.4918 3.257,6.049 L 9.61483,-3.42346 c -0.79359,2.55713 -3.544,3.99361 -6.13931,3.20915 -2.59531,-0.78191 -4.05582,-3.49186 -3.25706,-6.049 l 5.917,-19.02569 c 0.64882,-2.086 2.59531,-3.4257 4.69684,-3.4257 z"
                               style="fill:#45a0ce;fill-opacity:1;fill-rule:nonzero;stroke:none"
                               id="path162484" />
                          </g>
                        </g>
                      </g>
                      <g
                         transform="translate(645.87964,-99.92451)"
                         id="g162498">
                        <g
                           id="g162496">
                          <g
                             id="g162494">
                            <path
                               d="m 10.8314,-28.7147 c 0.4782,0 0.9642,0.0688 1.445,0.214 2.5927,0.7844 4.0532,3.4918 3.2571,6.049 L 9.61387,-3.42346 C 8.82029,-0.86633 6.06988,0.57015 3.47457,-0.21431 0.87926,-0.99622 -0.57866,-3.70617 0.21751,-6.26331 L 6.1345,-25.289 c 0.64883,-2.086 2.59531,-3.4257 4.6969,-3.4257 z"
                               style="fill:#45a0ce;fill-opacity:1;fill-rule:nonzero;stroke:none"
                               id="path162492" />
                          </g>
                        </g>
                      </g>
                      <g
                         transform="translate(605.05532,-11.99552)"
                         id="g162506">
                        <g
                           id="g162504">
                          <g
                             id="g162502">
                            <path
                               d="m 104.547,-34.175 c -2.549,0.9093 -3.87,3.6829 -2.953,6.1968 0.758,2.0655 1.143,4.2203 1.143,6.4004 0,9.192 -6.801,17.05696 -16.3499,20.15915 C 83.5772,-0.5043 80.5296,0 77.3475,0 75.6776,0 74.0335,-0.14263 72.4334,-0.41261 65.878,-1.51034 60.0282,-4.77808 56.2205,-9.61983 c -1.3752,-1.74467 -3.7689,-2.35597 -5.8291,-1.48237 -4.0403,1.7116 -8.3882,2.58265 -12.93,2.58265 -16.0656,0 -29.1378,-11.14545 -29.1378,-24.84295 0,-0.8812 0.05946,-1.7803 0.17061,-2.6717 C 8.6855,-37.5497 8.14007,-39.0626 7.02078,-40.1221 3.77406,-43.1988 1.57683,-46.9199 0.59196,-50.9008 0.2068,-52.4672 0,-54.0717 0,-55.6992 0,-57.3751 0.21455,-59.0077 0.61005,-60.5894 3.25706,-71.1057 14.2561,-79.0191 27.3878,-79.0191 h 66.6095 c 15.1037,0 27.3907,10.4603 27.3907,23.3199 0,9.4262 -6.613,17.8745 -16.841,21.5242 z"
                               style="fill:#0c638e;fill-opacity:1;fill-rule:nonzero;stroke:none"
                               id="path162500" />
                          </g>
                        </g>
                      </g>
                    </g>
                  </g>
                </g>
              </g>
            </g>
          </g>
        </g>
      </g>
    </g>
  </g>
</svg>
