<?xml version="1.0" encoding="UTF-8" standalone="no"?>
<!-- Created with Inkscape (http://www.inkscape.org/) -->

<svg
   version="1.1"
   id="svg162700"
   width="400"
   height="400"
   viewBox="0 0 400 400"
   sodipodi:docname="1543_pic.pdf"
   xmlns:inkscape="http://www.inkscape.org/namespaces/inkscape"
   xmlns:sodipodi="http://sodipodi.sourceforge.net/DTD/sodipodi-0.dtd"
   xmlns="http://www.w3.org/2000/svg"
   xmlns:svg="http://www.w3.org/2000/svg">
  <defs
     id="defs162704">
    <clipPath
       clipPathUnits="userSpaceOnUse"
       id="clipPath162720">
      <path
         d="M 0,0 H 207.13811 V -186.5001 H 0 Z"
         clip-rule="evenodd"
         id="path162718" />
    </clipPath>
    <clipPath
       clipPathUnits="userSpaceOnUse"
       id="clipPath162730">
      <path
         d="m 0,-559.5 h 621.41353 v 1119 H 0 Z"
         id="path162728" />
    </clipPath>
  </defs>
  <sodipodi:namedview
     id="namedview162702"
     pagecolor="#ffffff"
     bordercolor="#000000"
     borderopacity="0.25"
     inkscape:showpageshadow="2"
     inkscape:pageopacity="0.0"
     inkscape:pagecheckerboard="0"
     inkscape:deskcolor="#d1d1d1" />
  <g
     id="g162706"
     inkscape:groupmode="layer"
     inkscape:label="1543_pic91"
     transform="matrix(1.3333333,0,0,-1.3333333,0,400)">
    <g
       id="g162708">
      <g
         id="g162710">
        <g
           id="g162712"
           transform="translate(46.43102,243.25005)">
          <g
             id="g162714">
            <g
               id="g162716"
               clip-path="url(#clipPath162720)">
              <g
                 id="g162722"
                 transform="matrix(0.33333,0,0,0.33333,0,-62.16673)">
                <g
                   id="g162724">
                  <g
                     id="g162726" />
                  <g
                     id="g163350">
                    <g
                       clip-path="url(#clipPath162730)"
                       id="g163348">
                      <g
                         transform="translate(19.0368,156.48909)"
                         id="g162738">
                        <g
                           id="g162736">
                          <g
                             id="g162734">
                            <path
                               d="M 561.614,-478.415 262.868,-529.489 H 24.5962 c -1.0094,2.749 -1.7833,5.625 -2.2935,8.609 0,0 -47.272,488.7868 -4.172,496.1548 0,0 507.0393,50.393 514.4063,7.294 l 69.139,-404.3978 c 4.544,-26.581 -13.486,-52.042 -40.062,-56.586 z"
                               style="fill:#c8c8c8;fill-opacity:1;fill-rule:nonzero;stroke:none"
                               id="path162732" />
                          </g>
                        </g>
                      </g>
                      <g
                         transform="translate(11.05548,155.06799)"
                         id="g162746">
                        <g
                           id="g162744">
                          <g
                             id="g162742">
                            <path
                               d="M 542.232,-494.331 189.878,-528.068 H 16.7198 c -8.50765,7.896 -14.27568,18.799 -15.46218,31.191 0,0 -11.067,490.94361 32.45898,495.11061 0,0 509.3744,12.83499 513.5424,-30.69101 l 39.103,-408.3996 c 2.57,-26.84 -17.29,-50.904 -44.13,-53.474 z"
                               style="fill:#ededed;fill-opacity:1;fill-rule:nonzero;stroke:none"
                               id="path162740" />
                          </g>
                        </g>
                      </g>
                      <g
                         transform="translate(25.40881,154.57836)"
                         id="g162754">
                        <g
                           id="g162752">
                          <g
                             id="g162750">
                            <path
                               d="m 25.1966,-476.331 352.0194,-51.247 h 126.882 c 8.507,7.895 14.275,18.799 15.463,31.19 0,0 11.068,490.94394 -32.456,495.11094 0,0 -436.0494,11.14 -440.2164,-32.38404 L 1.09559,-406.437 c -2.57,-26.84 -2.741,-67.324 24.10101,-69.894 z"
                               style="fill:#ededed;fill-opacity:1;fill-rule:nonzero;stroke:none"
                               id="path162748" />
                          </g>
                        </g>
                      </g>
                      <g
                         transform="translate(9e-4,178.084)"
                         id="g162762">
                        <g
                           id="g162760">
                          <g
                             id="g162758">
                            <path
                               d="M 463.274,-530.471 H 124.505 C 56.027,-530.471 0,-474.442 0,-405.966 v 204.071 C 0,-90.852 90.851,0 201.895,0 h 183.987 c 111.043,0 201.897,-90.852 201.897,-201.895 v -204.071 c 0,-68.476 -56.029,-124.505 -124.505,-124.505 z"
                               style="fill:#e2e2e2;fill-opacity:1;fill-rule:nonzero;stroke:none"
                               id="path162756" />
                          </g>
                        </g>
                      </g>
                      <g
                         transform="translate(0,178.0835)"
                         id="g162770">
                        <g
                           id="g162768">
                          <g
                             id="g162766">
                            <path
                               d="M 587.78,-137.874 H 0 v 43.158 C 0,-42.621 42.624,0 94.719,0 h 398.342 c 52.096,0 94.719,-42.621 94.719,-94.716 z"
                               style="fill:#dc4844;fill-opacity:1;fill-rule:nonzero;stroke:none"
                               id="path162764" />
                          </g>
                        </g>
                      </g>
                      <g
                         transform="translate(83.6946,178.0846)"
                         id="g162778">
                        <g
                           id="g162776">
                          <g
                             id="g162774">
                            <path
                               d="M 11.955,-40.116 C 5.38,-40.116 0,-34.736 0,-28.161 V 0 h 23.91 v -28.161 c 0,-6.575 -5.378,-11.955 -11.955,-11.955 z"
                               style="fill:#bf3a37;fill-opacity:1;fill-rule:nonzero;stroke:none"
                               id="path162772" />
                          </g>
                        </g>
                      </g>
                      <g
                         transform="translate(225.1869,178.0846)"
                         id="g162786">
                        <g
                           id="g162784">
                          <g
                             id="g162782">
                            <path
                               d="M 11.955,-40.116 C 5.378,-40.116 0,-34.736 0,-28.161 V 0 h 23.91 v -28.161 c 0,-6.575 -5.38,-11.955 -11.955,-11.955 z"
                               style="fill:#bf3a37;fill-opacity:1;fill-rule:nonzero;stroke:none"
                               id="path162780" />
                          </g>
                        </g>
                      </g>
                      <g
                         transform="translate(357.5223,178.0846)"
                         id="g162794">
                        <g
                           id="g162792">
                          <g
                             id="g162790">
                            <path
                               d="M 11.958,-40.116 C 5.381,-40.116 0,-34.736 0,-28.161 V 0 h 23.913 v -28.161 c 0,-6.575 -5.38,-11.955 -11.955,-11.955 z"
                               style="fill:#bf3a37;fill-opacity:1;fill-rule:nonzero;stroke:none"
                               id="path162788" />
                          </g>
                        </g>
                      </g>
                      <g
                         transform="translate(490.7898,178.86278)"
                         id="g162802">
                        <g
                           id="g162800">
                          <g
                             id="g162798">
                            <path
                               d="M 11.955,-40.8942 C 5.38,-40.8942 0,-35.5142 0,-28.9392 v 28.16102 c 0,1.89 23.91,-0.257 23.91,-0.257 V -28.9392 c 0,-6.575 -5.378,-11.955 -11.955,-11.955 z"
                               style="fill:#bf3a37;fill-opacity:1;fill-rule:nonzero;stroke:none"
                               id="path162796" />
                          </g>
                        </g>
                      </g>
                      <g
                         transform="translate(220.466,186.5001)"
                         id="g162810">
                        <g
                           id="g162808">
                          <g
                             id="g162806">
                            <path
                               d="M 15.699,-44.5071 H 8.212 c -4.516,0 -8.212,3.696 -8.212,8.214 V 0 h 23.911 v -36.2931 c 0,-4.518 -3.696,-8.214 -8.212,-8.214 z"
                               style="fill:#ebebeb;fill-opacity:1;fill-rule:nonzero;stroke:none"
                               id="path162804" />
                          </g>
                        </g>
                      </g>
                      <g
                         transform="translate(353.4664,186.5001)"
                         id="g162818">
                        <g
                           id="g162816">
                          <g
                             id="g162814">
                            <path
                               d="M 15.701,-44.5071 H 8.214 c -4.516,0 -8.214,3.696 -8.214,8.214 V 0 h 23.913 v -36.2931 c 0,-4.518 -3.696,-8.214 -8.212,-8.214 z"
                               style="fill:#ebebeb;fill-opacity:1;fill-rule:nonzero;stroke:none"
                               id="path162812" />
                          </g>
                        </g>
                      </g>
                      <g
                         transform="translate(486.4686,186.5001)"
                         id="g162826">
                        <g
                           id="g162824">
                          <g
                             id="g162822">
                            <path
                               d="M 15.699,-44.5071 H 8.214 c -4.518,0 -8.214,3.696 -8.214,8.214 L 0,0 h 23.913 v -36.2931 c 0,-4.518 -3.696,-8.214 -8.214,-8.214 z"
                               style="fill:#ebebeb;fill-opacity:1;fill-rule:nonzero;stroke:none"
                               id="path162820" />
                          </g>
                        </g>
                      </g>
                      <g
                         transform="translate(399.1603,-204.7008)"
                         id="g162834">
                        <g
                           id="g162832">
                          <g
                             id="g162830">
                            <path
                               d="M 139.033,0 0,-146.19 c 0,0 5.261,25.736 5.3,41.913 0.026,10.271 -2.074,19.234 -2.78,33.989 -1.981,41.387 21.984,51.928 33.301,58.056 17.355,9.396 45.81,2.444 62.97,3.557 7.247,0.472 34.834,1.678 40.242,8.675 z"
                               style="fill:#bababa;fill-opacity:1;fill-rule:nonzero;stroke:none"
                               id="path162828" />
                          </g>
                        </g>
                      </g>
                      <g
                         transform="translate(399.161,-194.59995)"
                         id="g162842">
                        <g
                           id="g162840">
                          <g
                             id="g162838">
                            <path
                               d="M 185.088,-0.90155 0,-156.292 c 0,0 9.204,29.547 11.016,48.489 1.152,12.0315 -0.428,22.7675 0.321,40.1295 2.1,48.705 32.406,58.31995 46.842,64.20595 22.138,9.031 56.004,-2.357 77,-3.007 8.871,-0.275 42.565,-2.007 49.909,5.573 z"
                               style="fill:#e7e6e6;fill-opacity:1;fill-rule:nonzero;stroke:none"
                               id="path162836" />
                          </g>
                        </g>
                      </g>
                      <g
                         transform="translate(60.6591,-36.9399)"
                         id="g162850">
                        <g
                           id="g162848">
                          <g
                             id="g162846">
                            <path
                               d="M 78.403,-50.831 H 0 V 0 h 78.403 z"
                               style="fill:#ffffff;fill-opacity:1;fill-rule:nonzero;stroke:none"
                               id="path162844" />
                          </g>
                        </g>
                      </g>
                      <g
                         transform="translate(60.6591,-127.4109)"
                         id="g162858">
                        <g
                           id="g162856">
                          <g
                             id="g162854">
                            <path
                               d="M 78.403,-50.831 H 0 V 0 h 78.403 z"
                               style="fill:#ffffff;fill-opacity:1;fill-rule:nonzero;stroke:none"
                               id="path162852" />
                          </g>
                        </g>
                      </g>
                      <g
                         transform="translate(185.4281,-127.4109)"
                         id="g162866">
                        <g
                           id="g162864">
                          <g
                             id="g162862">
                            <path
                               d="M 78.403,-50.831 H 0 V 0 h 78.403 z"
                               style="fill:#ffffff;fill-opacity:1;fill-rule:nonzero;stroke:none"
                               id="path162860" />
                          </g>
                        </g>
                      </g>
                      <g
                         transform="translate(310.1981,-127.4109)"
                         id="g162874">
                        <g
                           id="g162872">
                          <g
                             id="g162870">
                            <path
                               d="M 78.405,-50.831 H 0 V 0 h 78.405 z"
                               style="fill:#ffffff;fill-opacity:1;fill-rule:nonzero;stroke:none"
                               id="path162868" />
                          </g>
                        </g>
                      </g>
                      <g
                         transform="translate(432.5601,-127.4109)"
                         id="g162882">
                        <g
                           id="g162880">
                          <g
                             id="g162878">
                            <path
                               d="M 78.403,-50.831 H 0 V 0 h 78.403 z"
                               style="fill:#ffffff;fill-opacity:1;fill-rule:nonzero;stroke:none"
                               id="path162876" />
                          </g>
                        </g>
                      </g>
                      <g
                         transform="translate(60.6591,-217.8819)"
                         id="g162890">
                        <g
                           id="g162888">
                          <g
                             id="g162886">
                            <path
                               d="M 78.403,-50.833 H 0 V 0 h 78.403 z"
                               style="fill:#ffffff;fill-opacity:1;fill-rule:nonzero;stroke:none"
                               id="path162884" />
                          </g>
                        </g>
                      </g>
                      <g
                         transform="translate(185.4281,-217.8819)"
                         id="g162898">
                        <g
                           id="g162896">
                          <g
                             id="g162894">
                            <path
                               d="M 78.403,-50.833 H 0 V 0 h 78.403 z"
                               style="fill:#ffffff;fill-opacity:1;fill-rule:nonzero;stroke:none"
                               id="path162892" />
                          </g>
                        </g>
                      </g>
                      <g
                         transform="translate(310.1981,-217.8819)"
                         id="g162906">
                        <g
                           id="g162904">
                          <g
                             id="g162902">
                            <path
                               d="M 78.405,-50.833 H 0 V 0 h 78.405 z"
                               style="fill:#ffffff;fill-opacity:1;fill-rule:nonzero;stroke:none"
                               id="path162900" />
                          </g>
                        </g>
                      </g>
                      <g
                         transform="translate(185.4281,-36.9399)"
                         id="g162914">
                        <g
                           id="g162912">
                          <g
                             id="g162910">
                            <path
                               d="M 78.403,-50.831 H 0 V 0 h 78.403 z"
                               style="fill:#ffffff;fill-opacity:1;fill-rule:nonzero;stroke:none"
                               id="path162908" />
                          </g>
                        </g>
                      </g>
                      <g
                         transform="translate(310.1981,-36.9399)"
                         id="g162922">
                        <g
                           id="g162920">
                          <g
                             id="g162918">
                            <path
                               d="M 78.405,-50.831 H 0 V 0 h 78.405 z"
                               style="fill:#ffffff;fill-opacity:1;fill-rule:nonzero;stroke:none"
                               id="path162916" />
                          </g>
                        </g>
                      </g>
                      <g
                         transform="translate(434.9651,-36.9399)"
                         id="g162930">
                        <g
                           id="g162928">
                          <g
                             id="g162926">
                            <path
                               d="M 78.405,-50.831 H 0 V 0 h 78.405 z"
                               style="fill:#ffffff;fill-opacity:1;fill-rule:nonzero;stroke:none"
                               id="path162924" />
                          </g>
                        </g>
                      </g>
                      <g
                         transform="translate(78.9495,186.5001)"
                         id="g162938">
                        <g
                           id="g162936">
                          <g
                             id="g162934">
                            <path
                               d="M 15.699,-44.5071 H 8.212 c -4.516,0 -8.212,3.696 -8.212,8.214 V 0 h 23.911 v -36.2931 c 0,-4.518 -3.696,-8.214 -8.212,-8.214 z"
                               style="fill:#ebebeb;fill-opacity:1;fill-rule:nonzero;stroke:none"
                               id="path162932" />
                          </g>
                        </g>
                      </g>
                      <g
                         transform="translate(222.86227,-70.9868)"
                         id="g162946">
                        <g
                           id="g162944">
                          <g
                             id="g162942">
                            <path
                               d="m 0.14663,-0.333 c -0.294,-0.381 -0.175,-1.271 0.624,-1.141 L 1.41063,0 Z"
                               style="fill:#dc4844;fill-opacity:1;fill-rule:nonzero;stroke:none"
                               id="path162940" />
                          </g>
                        </g>
                      </g>
                      <g
                         transform="translate(224.6232,-71.271)"
                         id="g162954">
                        <g
                           id="g162952">
                          <g
                             id="g162950">
                            <path
                               d="M 3.479,-3.213 C 3.97,-2.89 4.516,-2.462 4.893,-1.914 5.267,-1.371 5.471,-0.725 5.25,0 4.698,-0.661 4.39,-0.834 4.068,-1.044 3.747,-1.252 3.412,-1.509 2.84,-2.321 2.046,-2.427 1.517,-1.717 1.691,-1.176 1.537,-1.36 1.238,-1.239 0.911,-1.213 0.589,-1.18 0.238,-1.219 0,-1.678 0.957,-2.882 2.195,-3.062 3.641,-2.219 3.895,-2.577 3.572,-2.942 3.479,-3.213 Z"
                               style="fill:#dc4844;fill-opacity:1;fill-rule:nonzero;stroke:none"
                               id="path162948" />
                          </g>
                        </g>
                      </g>
                      <g
                         transform="translate(288.75868,-113.3509)"
                         id="g162962">
                        <g
                           id="g162960">
                          <g
                             id="g162958">
                            <path
                               d="M 0.11812,-0.494 0.00112,0 c -0.009,-0.165 0.037,-0.329 0.117,-0.494 z"
                               style="fill:#dc4844;fill-opacity:1;fill-rule:nonzero;stroke:none"
                               id="path162956" />
                          </g>
                        </g>
                      </g>
                      <g
                         transform="translate(300.9742,-156.4088)"
                         id="g162970">
                        <g
                           id="g162968">
                          <g
                             id="g162966">
                            <path
                               d="M 0.342,-0.496 C 0.292,-0.154 0.136,-0.013 0,0 0.113,-0.316 0.214,-0.576 0.342,-0.496 Z"
                               style="fill:#dc4844;fill-opacity:1;fill-rule:nonzero;stroke:none"
                               id="path162964" />
                          </g>
                        </g>
                      </g>
                      <g
                         transform="translate(299.46106,-164.0815)"
                         id="g162978">
                        <g
                           id="g162976">
                          <g
                             id="g162974">
                            <path
                               d="m 0.04844,-0.439 c 0.056,0.158 0.084,0.294 0.126,0.439 -0.148,-0.162 -0.234,-0.326 -0.126,-0.439 z"
                               style="fill:#dc4844;fill-opacity:1;fill-rule:nonzero;stroke:none"
                               id="path162972" />
                          </g>
                        </g>
                      </g>
                      <g
                         transform="translate(288.8768,-113.8449)"
                         id="g162986">
                        <g
                           id="g162984">
                          <g
                             id="g162982">
                            <path
                               d="M 0,0 0.141,-0.634 C 0.203,-0.953 0.266,-1.275 0.266,-1.275 0.723,-1.083 0.249,-0.546 0,0 Z"
                               style="fill:#dc4844;fill-opacity:1;fill-rule:nonzero;stroke:none"
                               id="path162980" />
                          </g>
                        </g>
                      </g>
                      <g
                         transform="translate(238.4446,-72.689)"
                         id="g162994">
                        <g
                           id="g162992">
                          <g
                             id="g162990">
                            <path
                               d="M 0.782,0 C 0.498,-0.009 0.243,-0.097 0,-0.229 0.234,-0.216 0.457,-0.21 0.687,-0.221 0.717,-0.145 0.743,-0.078 0.782,0 Z"
                               style="fill:#dc4844;fill-opacity:1;fill-rule:nonzero;stroke:none"
                               id="path162988" />
                          </g>
                        </g>
                      </g>
                      <g
                         transform="translate(274.0882,-99.2693)"
                         id="g163002">
                        <g
                           id="g163000">
                          <g
                             id="g162998">
                            <path
                               d="M 0.905,-0.247 0.637,0 C 0.442,-0.054 0.227,-0.143 0,-0.254 l 0.455,0.007 z"
                               style="fill:#dc4844;fill-opacity:1;fill-rule:nonzero;stroke:none"
                               id="path162996" />
                          </g>
                        </g>
                      </g>
                      <g
                         transform="translate(262.7566,-89.3253)"
                         id="g163010">
                        <g
                           id="g163008">
                          <g
                             id="g163006">
                            <path
                               d="M 0,-1.184 C 0.26,-1.414 1.046,-0.398 1.459,0 1.009,-0.338 0.658,-0.413 0.349,-0.333 0.216,-0.537 0.1,-0.807 0,-1.184 Z"
                               style="fill:#dc4844;fill-opacity:1;fill-rule:nonzero;stroke:none"
                               id="path163004" />
                          </g>
                        </g>
                      </g>
                      <g
                         transform="translate(240.9554,-78.6037)"
                         id="g163018">
                        <g
                           id="g163016">
                          <g
                             id="g163014">
                            <path
                               d="M 0.47,0 C 0.47,0 0.353,-0.011 0.236,-0.024 0.119,-0.039 0,-0.054 0,-0.054 0.126,-0.028 0.325,-0.028 0.47,0 Z"
                               style="fill:#dc4844;fill-opacity:1;fill-rule:nonzero;stroke:none"
                               id="path163012" />
                          </g>
                        </g>
                      </g>
                      <g
                         transform="translate(282.0478,-107.5528)"
                         id="g163026">
                        <g
                           id="g163024">
                          <g
                             id="g163022">
                            <path
                               d="M 0.262,0 C 0.132,-0.141 0.039,-0.29 0,-0.398 0.123,-0.297 0.206,-0.156 0.262,0 Z"
                               style="fill:#dc4844;fill-opacity:1;fill-rule:nonzero;stroke:none"
                               id="path163020" />
                          </g>
                        </g>
                      </g>
                      <g
                         transform="translate(215.18882,-80.126)"
                         id="g163034">
                        <g
                           id="g163032">
                          <g
                             id="g163030">
                            <path
                               d="m 0.00128,0 c -0.007,-0.091 0.017,-0.147 0.017,-0.227 0.085,0.136 0.106,0.227 -0.017,0.227 z"
                               style="fill:#dc4844;fill-opacity:1;fill-rule:nonzero;stroke:none"
                               id="path163028" />
                          </g>
                        </g>
                      </g>
                      <g
                         transform="translate(233.70661,-85.4308)"
                         id="g163042">
                        <g
                           id="g163040">
                          <g
                             id="g163038">
                            <path
                               d="m 0.27759,0 -0.251,-0.08 c -0.017,-0.243 -0.033,-0.483 -0.024,-0.719 z"
                               style="fill:#dc4844;fill-opacity:1;fill-rule:nonzero;stroke:none"
                               id="path163036" />
                          </g>
                        </g>
                      </g>
                      <g
                         transform="translate(295.85182,-177.56785)"
                         id="g163050">
                        <g
                           id="g163048">
                          <g
                             id="g163046">
                            <path
                               d="m 0.02218,-0.26425 c 0.019,0.024 0.022,0.032 0.039,0.052 -0.059,0.381 -0.082,0.177 -0.039,-0.052 z"
                               style="fill:#dc4844;fill-opacity:1;fill-rule:nonzero;stroke:none"
                               id="path163044" />
                          </g>
                        </g>
                      </g>
                      <g
                         transform="translate(194.42926,-221.0189)"
                         id="g163058">
                        <g
                           id="g163056">
                          <g
                             id="g163054">
                            <path
                               d="m 1.36844,0 c 0.565,-0.734 -0.102,-0.946 -0.688,-1.184 -0.585,-0.238 -1.098,-0.513 -0.174,-1.421 -0.039,0.271 0.578,0.62 1.003,1.063 0.424,0.442 0.649,0.957 -0.141,1.542 z"
                               style="fill:#dc4844;fill-opacity:1;fill-rule:nonzero;stroke:none"
                               id="path163052" />
                          </g>
                        </g>
                      </g>
                      <g
                         transform="translate(239.6061,-72.94411)"
                         id="g163066">
                        <g
                           id="g163064">
                          <g
                             id="g163062">
                            <path
                               d="m 0,-0.00279 c 0.223,-0.032 0.444,-0.08 0.66,-0.149 -0.288,0.119 -0.491,0.164 -0.66,0.149 z"
                               style="fill:#dc4844;fill-opacity:1;fill-rule:nonzero;stroke:none"
                               id="path163060" />
                          </g>
                        </g>
                      </g>
                      <g
                         transform="translate(194.9332,-223.6237)"
                         id="g163074">
                        <g
                           id="g163072">
                          <g
                             id="g163070">
                            <path
                               d="M 0.002,0 0,-0.011 0.193,-0.186 C 0.115,-0.108 0.069,-0.065 0.002,0 Z"
                               style="fill:#dc4844;fill-opacity:1;fill-rule:nonzero;stroke:none"
                               id="path163068" />
                          </g>
                        </g>
                      </g>
                      <g
                         transform="translate(283.4843,-206.24692)"
                         id="g163082">
                        <g
                           id="g163080">
                          <g
                             id="g163078">
                            <path
                               d="m 0,-0.00788 c 0.216,-0.087 0.426,-0.091 0.634,-0.084 -0.11,0.069 -0.281,0.11 -0.634,0.084 z"
                               style="fill:#dc4844;fill-opacity:1;fill-rule:nonzero;stroke:none"
                               id="path163076" />
                          </g>
                        </g>
                      </g>
                      <g
                         transform="translate(295.7515,-186.3211)"
                         id="g163090">
                        <g
                           id="g163088">
                          <g
                             id="g163086">
                            <path
                               d="M 0.355,0 0,-0.502 C 0.186,-0.32 0.286,-0.154 0.355,0 Z"
                               style="fill:#dc4844;fill-opacity:1;fill-rule:nonzero;stroke:none"
                               id="path163084" />
                          </g>
                        </g>
                      </g>
                      <g
                         transform="translate(275.7904,-216.211)"
                         id="g163098">
                        <g
                           id="g163096">
                          <g
                             id="g163094">
                            <path
                               d="M 0.725,0 C 0.418,-0.123 0.225,-0.05 0,-0.45 0.071,-0.476 0.13,-0.487 0.199,-0.492 0.21,-0.258 0.318,-0.067 0.725,0 Z"
                               style="fill:#dc4844;fill-opacity:1;fill-rule:nonzero;stroke:none"
                               id="path163092" />
                          </g>
                        </g>
                      </g>
                      <g
                         transform="translate(265.9249,-222.7324)"
                         id="g163106">
                        <g
                           id="g163104">
                          <g
                             id="g163102">
                            <path
                               d="M 0,-0.071 C 0.1,-0.134 0.21,-0.168 0.316,-0.216 0.422,-0.145 0.548,-0.069 0.656,0 Z"
                               style="fill:#dc4844;fill-opacity:1;fill-rule:nonzero;stroke:none"
                               id="path163100" />
                          </g>
                        </g>
                      </g>
                      <g
                         transform="translate(173.4443,-88.17394)"
                         id="g163114">
                        <g
                           id="g163112">
                          <g
                             id="g163110">
                            <path
                               d="m 0,-0.34806 c 0.414,-0.24 0.725,-0.556 0.996,-0.879 -0.505,0.788 1.377,1.758 -0.996,0.879 z"
                               style="fill:#dc4844;fill-opacity:1;fill-rule:nonzero;stroke:none"
                               id="path163108" />
                          </g>
                        </g>
                      </g>
                      <g
                         transform="translate(239.03481,-72.91)"
                         id="g163122">
                        <g
                           id="g163120">
                          <g
                             id="g163118">
                            <path
                               d="m 0.03419,-0.481 c 0.154,0.297 0.31,0.424 0.537,0.444 -0.162,0.022 -0.321,0.032 -0.476,0.037 -0.083,-0.176 -0.132,-0.349 -0.061,-0.481 z"
                               style="fill:#dc4844;fill-opacity:1;fill-rule:nonzero;stroke:none"
                               id="path163116" />
                          </g>
                        </g>
                      </g>
                      <g
                         transform="translate(280.4886,-224.3447)"
                         id="g163130">
                        <g
                           id="g163128">
                          <g
                             id="g163126">
                            <path
                               d="m 2.024,0 c 0,0 -0.502,-0.342 -1.005,-0.684 -0.253,-0.171 -0.5,-0.344 -0.697,-0.461 L 0,-1.347 C 0.63,-1.054 1.344,-0.539 2.024,0 Z"
                               style="fill:#dc4844;fill-opacity:1;fill-rule:nonzero;stroke:none"
                               id="path163124" />
                          </g>
                        </g>
                      </g>
                      <g
                         transform="translate(124.1554,-169.1907)"
                         id="g163138">
                        <g
                           id="g163136">
                          <g
                             id="g163134">
                            <path
                               d="M 0.29,-0.474 0,0 c 0.026,-0.206 0.112,-0.379 0.29,-0.474 z"
                               style="fill:#dc4844;fill-opacity:1;fill-rule:nonzero;stroke:none"
                               id="path163132" />
                          </g>
                        </g>
                      </g>
                      <g
                         transform="translate(272.78763,-229.63843)"
                         id="g163146">
                        <g
                           id="g163144">
                          <g
                             id="g163142">
                            <path
                               d="m 1.72667,-0.16327 c -0.606,0.182 -1.132,0.195 -1.628,0.121 -0.041,-0.138 -0.106,-0.264 -0.098,-0.428 z"
                               style="fill:#dc4844;fill-opacity:1;fill-rule:nonzero;stroke:none"
                               id="path163140" />
                          </g>
                        </g>
                      </g>
                      <g
                         transform="translate(174.4405,-89.4022)"
                         id="g163154">
                        <g
                           id="g163152">
                          <g
                             id="g163150">
                            <path
                               d="M 0.009,-0.011 C 0.002,-0.009 0,0 0,0 0,0 0.002,-0.009 0.009,-0.011 Z"
                               style="fill:#dc4844;fill-opacity:1;fill-rule:nonzero;stroke:none"
                               id="path163148" />
                          </g>
                        </g>
                      </g>
                      <g
                         transform="translate(121.9404,-72.3001)"
                         id="g163162">
                        <g
                           id="g163160">
                          <g
                             id="g163158">
                            <path
                               d="m 31.603,-39.179 c -0.344,-0.513 -0.656,-0.442 -0.886,-0.29 0.206,0.193 0.429,0.437 0.713,0.773 -0.015,0.047 -0.02,0.112 -0.039,0.166 0.106,-0.229 0.195,-0.446 0.212,-0.649 z m -12.165,1 c 0.4,0.329 0.853,0.784 1.344,1.252 0.411,-0.217 0.611,-0.656 0.292,-0.929 -0.021,0.184 -0.255,0.158 -0.569,0.052 -0.314,-0.106 -0.71,-0.282 -1.067,-0.375 z m 3.05,2.93 c -0.009,0.01 -0.013,0.017 -0.017,0.019 0.303,0.312 0.558,0.585 0.727,0.747 -0.153,-0.149 -0.357,-0.375 -0.71,-0.766 z m 43.546,25.006 c -2.12,-0.438 -0.632,-1.83 -0.866,-2.871 -2.362,-1.037 -1.427,0.94 -2.477,1.58 -0.184,-0.099 -0.357,-0.214 -0.522,-0.339 -0.164,-0.128 -0.318,-0.271 -0.47,-0.416 -0.296,-0.29 -0.571,-0.602 -0.833,-0.896 -0.526,-0.587 -1.011,-1.096 -1.594,-1.215 -0.158,0.247 -0.411,0.284 -0.24,0.688 -0.32,-0.424 -0.775,-0.744 -1.306,-0.998 -0.53,-0.255 -1.134,-0.454 -1.74,-0.664 -0.303,-0.106 -0.611,-0.215 -0.907,-0.336 -0.295,-0.132 -0.583,-0.273 -0.853,-0.435 -0.54,-0.325 -1.012,-0.732 -1.341,-1.284 -0.184,0.095 -0.301,0.208 -0.376,0.316 0.573,-0.697 0.892,-1.494 1.026,-2.091 -0.44,-0.163 -0.764,-0.55 -1.065,-0.782 -0.299,-0.24 -0.572,-0.322 -0.927,0.134 0.554,0.165 0.448,0.602 0.591,1.016 l -0.385,-0.392 -0.386,-0.394 c -1.381,1.178 1.089,0.983 0.708,2.07 -0.422,-0.271 -0.84,-0.622 -1.255,-0.97 -0.414,-0.353 -0.827,-0.706 -1.232,-1.05 -0.403,-0.338 -0.801,-0.635 -1.195,-0.866 -0.39,-0.234 -0.778,-0.39 -1.163,-0.429 -0.442,0.656 0.316,1.108 0.892,1.461 0.578,0.34 0.976,0.589 -0.214,0.864 l 1.197,0.147 c 0.593,0.076 1.191,0.135 1.191,0.135 -2.533,1.671 1.405,0.331 -1.055,2.21 -1.548,-0.344 -2.297,-0.851 -3.029,-1.368 -0.736,-0.511 -1.457,-1.033 -2.972,-1.462 -0.282,-1.073 0.729,-1.063 0.457,-2.134 -0.827,-0.799 -1.52,-1.083 -2.15,-1.1 -0.314,-0.009 -0.613,0.05 -0.899,0.141 -0.283,0.086 -0.554,0.207 -0.818,0.329 -1.046,0.483 -1.977,0.965 -2.921,-0.723 -0.125,-0.652 -0.017,-1.447 -0.184,-2.105 -0.167,-0.662 -0.613,-1.163 -1.849,-1.308 l -0.112,0.951 -0.106,0.957 c -1.345,-0.702 -1.39,-1.462 -1.499,-2.128 -0.054,-0.332 -0.127,-0.639 -0.392,-0.905 -0.132,-0.132 -0.311,-0.254 -0.56,-0.366 -0.245,-0.115 -0.561,-0.219 -0.968,-0.314 0.043,0.439 0.452,0.894 0.799,1.21 0.346,0.318 0.619,0.52 0.372,0.487 -1.24,0.041 -1.409,-0.381 -1.431,-0.896 -0.019,-0.52 0.106,-1.141 -0.537,-1.576 l -1.141,1.091 c -0.63,-0.511 -1.247,-1.076 -1.838,-1.698 -0.297,-0.307 -0.595,-0.617 -0.885,-0.944 -0.288,-0.329 -0.576,-0.658 -0.869,-0.991 -0.29,-0.329 -0.573,-0.673 -0.859,-1.013 -0.288,-0.338 -0.576,-0.676 -0.866,-1.016 -0.572,-0.688 -1.171,-1.342 -1.773,-1.994 -0.165,0.472 -0.026,1.247 -0.968,1.037 -1.429,-1.803 -3.178,-3.446 -5.001,-5.057 -1.819,-1.609 -3.713,-3.181 -5.424,-4.726 0,0 0.018,-0.542 0.033,-1.085 0.006,-0.266 0.026,-0.541 0.036,-0.745 0.013,-0.203 0.02,-0.338 0.02,-0.338 -0.234,-0.314 -0.914,-0.259 -0.881,0.241 -1.412,-1.154 0.649,-0.555 0.61,-1.531 -0.454,-0.862 -1.346,-0.669 -1.344,0.078 -0.381,-1.596 -0.968,-3.769 -1.721,-5.82 -0.769,-2.052 -1.646,-4.022 -2.912,-5.25 0,0 -0.037,0.184 -0.074,0.37 l -0.061,0.364 c -0.372,-0.528 -0.435,-1.041 -0.389,-1.507 0.05,-0.47 0.229,-0.905 0.392,-1.325 0.082,-0.208 0.158,-0.411 0.212,-0.615 0.063,-0.205 0.104,-0.407 0.104,-0.613 0,-0.409 -0.163,-0.82 -0.633,-1.273 l -0.093,0.49 c -0.571,-1.228 -0.915,-2.566 -1.27,-3.897 -0.275,-1.347 -0.559,-2.691 -0.75,-4.01 -0.056,-0.327 -0.112,-0.654 -0.173,-0.976 -0.032,-0.161 -0.063,-0.321 -0.093,-0.481 -0.026,-0.16 -0.052,-0.318 -0.078,-0.476 -0.108,-0.633 -0.236,-1.25 -0.392,-1.845 -0.078,-0.301 -0.156,-0.593 -0.234,-0.881 -0.08,-0.29 -0.168,-0.574 -0.266,-0.853 -0.195,-0.557 -0.444,-1.091 -0.708,-1.6 0.476,-0.217 0.654,-0.652 0.695,-1.195 0.022,-0.271 0.007,-0.568 -0.019,-0.879 -0.018,-0.154 -0.033,-0.314 -0.05,-0.472 C 0.76,-79.955 0.751,-80.116 0.738,-80.274 0.656,-81.551 0.647,-82.79 2.015,-82.885 1.736,-83.651 1.492,-84.186 1.277,-84.617 1.063,-85.05 0.862,-85.383 0.708,-85.751 0.55,-86.122 0.409,-86.531 0.283,-87.128 0.218,-87.427 0.162,-87.773 0.106,-88.187 0.056,-88.596 0.028,-89.07 0,-89.631 0.028,-90.22 0.509,-90.588 1.043,-90.969 1.589,-91.348 2.197,-91.736 2.47,-92.4 L 1.1,-92.71 c 0,0 0.454,-0.4 0.909,-0.803 0.221,-0.197 0.463,-0.39 0.637,-0.537 0.177,-0.143 0.294,-0.24 0.294,-0.24 l -0.702,-0.684 -0.697,-0.7 c 0,0 0.167,-0.305 0.332,-0.612 0.16,-0.308 0.342,-0.604 0.342,-0.604 -0.067,0.536 0.342,1.255 0.747,1.27 0.138,-0.233 0.24,-0.487 0.324,-0.753 0.091,-0.264 0.154,-0.541 0.195,-0.827 0.08,-0.567 0.074,-1.156 0.013,-1.702 -0.106,-1.082 -0.418,-1.989 -0.755,-2.124 0,0 0.166,-0.275 0.413,-0.686 0.24,-0.411 0.602,-0.942 0.948,-1.474 0.351,-0.533 0.695,-1.061 0.962,-1.451 0.275,-0.388 0.459,-0.645 0.459,-0.645 -0.565,-0.106 -1.063,0.587 -1.613,1.085 0.279,-0.25 0.467,-0.451 0.595,-0.613 0.13,-0.165 0.193,-0.293 0.208,-0.399 0.028,-0.21 -0.128,-0.327 -0.29,-0.441 -0.323,-0.225 -0.667,-0.44 0.396,-1.321 0.173,0.422 0.838,0.154 1.122,0.214 -0.091,-0.361 -0.078,-0.786 0.004,-1.249 0.082,-0.465 0.229,-0.968 0.422,-1.481 0.188,-0.513 0.448,-1.022 0.727,-1.511 0.28,-0.487 0.581,-0.955 0.884,-1.37 l -1.035,-0.085 c 0.169,-0.431 0.377,-0.851 0.598,-1.273 0.218,-0.42 0.45,-0.838 0.692,-1.26 0.236,-0.422 0.503,-0.834 0.775,-1.247 0.275,-0.409 0.555,-0.823 0.834,-1.238 0.275,-0.418 0.58,-0.823 0.879,-1.232 0.294,-0.412 0.593,-0.823 0.894,-1.239 0.598,-0.829 1.221,-1.645 1.788,-2.507 -0.456,1.485 1.133,2.128 1.919,1.252 l -0.94,-1.237 c 1.197,-0.091 -0.266,1.321 1.568,0.704 0.736,-1.308 -0.767,-1.819 -1.678,-1.384 l 1.506,-1.197 c -0.29,-0.355 -0.733,-0.143 -1.255,-0.385 0.589,-0.043 0.788,-0.901 1.089,-1.754 0.149,-0.426 0.325,-0.849 0.582,-1.158 0.262,-0.308 0.617,-0.489 1.104,-0.45 l -0.272,-0.364 c 1.314,-1.613 2.44,-2.637 3.485,-3.592 0.539,-0.463 1.063,-0.905 1.6,-1.381 0.134,-0.117 0.269,-0.238 0.407,-0.362 0.141,-0.119 0.282,-0.242 0.427,-0.368 0.29,-0.251 0.587,-0.517 0.898,-0.803 0.466,0.439 0.886,0.379 1.364,0.221 0.477,-0.161 1.037,-0.399 1.747,-0.345 0.384,-0.478 0.743,-1.009 1.135,-1.537 0.394,-0.524 0.795,-1.071 1.223,-1.617 0.108,-0.136 0.217,-0.273 0.325,-0.411 0.113,-0.13 0.227,-0.26 0.342,-0.39 0.232,-0.26 0.472,-0.515 0.723,-0.767 0.251,-0.249 0.511,-0.491 0.782,-0.727 0.273,-0.236 0.567,-0.448 0.868,-0.658 2.031,-0.702 1.124,0.522 2.308,0.597 -0.576,-1.047 1.888,-2.6 0.167,-2.435 1.491,-0.933 2.474,-1.473 3.587,-2.02 0.559,-0.269 1.167,-0.509 1.89,-0.791 0.364,-0.136 0.754,-0.292 1.193,-0.435 0.44,-0.143 0.922,-0.298 1.455,-0.472 -0.178,0.652 -0.53,1.094 -0.093,1.304 0.773,-0.226 1.31,-1.317 0.942,-1.752 l -0.243,-0.002 c 0.643,-0.11 1.26,-0.307 1.847,-0.589 0.292,-0.141 0.58,-0.299 0.864,-0.474 0.286,-0.171 0.569,-0.353 0.846,-0.55 0.559,-0.392 1.098,-0.842 1.639,-1.295 0.542,-0.45 1.079,-0.922 1.613,-1.383 2.144,-1.823 4.328,-3.486 6.604,-3.049 l -0.249,-0.03 c 0,0 0.266,-0.019 0.664,-0.045 0.399,-0.024 0.925,-0.07 1.457,-0.087 l 2.109,-0.091 c 0.84,-0.4 0.509,-0.511 0.093,-0.673 -0.411,-0.156 -0.907,-0.347 -0.374,-0.922 1.199,0.11 2.193,0.006 3.081,-0.193 0.889,-0.189 1.669,-0.494 2.422,-0.806 0.758,-0.301 1.49,-0.61 2.267,-0.833 0.782,-0.217 1.613,-0.325 2.557,-0.245 0.448,-1.017 1.288,-1.639 2.332,-2.078 0.524,-0.225 1.1,-0.373 1.706,-0.502 0.604,-0.126 1.238,-0.237 1.883,-0.312 0.646,-0.078 1.297,-0.156 1.942,-0.234 0.643,-0.087 1.278,-0.167 1.882,-0.29 1.208,-0.256 2.301,-0.617 3.137,-1.321 l -0.08,0.836 c 1.08,0.617 1.076,-0.652 1.756,-0.942 -0.005,0.637 -0.923,0.877 -0.26,1.221 4.101,-0.158 8.201,-0.957 12.367,-1.838 4.159,-0.883 8.374,-1.832 12.55,-2.301 1.529,-0.146 1.984,0.894 2.525,1.723 0.546,0.831 1.163,1.425 3.083,0.468 l -1.096,-1.507 c 3.099,0.89 6.266,0.946 9.47,1.11 0.804,0.05 1.605,0.096 2.401,0.156 0.804,0.08 1.6,0.171 2.391,0.288 0.794,0.139 1.578,0.301 2.351,0.505 0.773,0.216 1.533,0.485 2.271,0.799 -0.307,-0.403 -0.245,-0.851 -0.853,-0.944 0.372,-0.215 0.868,-0.282 1.396,-0.23 0.531,0.061 1.096,0.225 1.6,0.446 0.256,0.111 0.496,0.232 0.711,0.364 0.214,0.136 0.404,0.279 0.558,0.422 0.312,0.284 0.483,0.561 0.437,0.779 0.986,0.128 0.41,-0.731 1.115,-1.03 0.373,-0.085 0.747,0.026 1.111,0.212 0.364,0.186 0.717,0.45 1.052,0.697 0.671,0.474 1.256,0.938 1.771,0.524 0.174,-0.13 -0.262,-0.455 -0.48,-0.613 0.177,0.195 0.517,0.364 0.909,0.524 0.392,0.163 0.84,0.297 1.219,0.477 0.764,0.342 1.282,0.693 0.658,1.134 1.249,0.119 2.278,0.734 3.243,1.271 0.243,0.134 0.477,0.284 0.71,0.418 0.234,0.136 0.468,0.262 0.702,0.372 0.472,0.23 0.961,0.373 1.479,0.444 0.119,0.466 0.422,0.784 0.807,1.033 0.386,0.247 0.855,0.422 1.273,0.63 0.847,0.4 1.579,0.81 1.2,1.76 0.478,-0.916 1.6,-0.673 2.693,0.026 0.528,0.366 1.048,0.842 1.47,1.327 0.42,0.492 0.721,1.016 0.868,1.438 -0.011,-0.808 1.447,0.335 1.527,-0.708 0.677,0.576 1.24,1.223 1.53,1.777 0.29,0.555 0.267,1.053 -0.197,1.336 0.498,0.043 0.927,0.173 1.299,0.36 0.377,0.184 0.695,0.428 0.959,0.716 0.267,0.286 0.494,0.604 0.698,0.931 0.205,0.327 0.387,0.663 0.547,0.994 0.332,0.665 0.648,1.271 1.096,1.671 0.437,0.407 1.017,0.604 1.916,0.435 1.234,2.328 2.332,4.549 3.345,6.701 1.002,2.157 1.931,4.237 2.825,6.277 0.849,-0.572 0.275,-1.674 -0.29,-2.733 -0.576,-1.052 -1.126,-2.071 -0.177,-2.576 0.816,2.059 1.121,3.843 1.502,5.538 0.184,0.851 0.42,1.665 0.723,2.501 0.295,0.84 0.713,1.671 1.271,2.563 0.706,0.866 0.557,-0.944 0.687,-1.429 0.151,0.524 0.298,1.037 0.467,1.535 0.171,0.501 0.357,0.986 0.554,1.46 0.384,0.954 0.776,1.885 1.172,2.801 0.372,0.925 0.714,1.847 0.993,2.776 0.254,0.937 0.425,1.888 0.466,2.864 0.177,-0.071 0.245,-0.519 0.266,-0.933 0.191,0.719 0.829,1.552 -0.086,1.756 l 0.028,-0.769 c -0.418,-0.173 -0.736,-0.03 -0.987,0.286 -0.256,0.314 -0.455,0.801 -0.624,1.314 -0.342,1.031 -0.556,2.161 -0.894,2.326 1.123,-0.962 1.524,-0.143 1.987,0.58 0.464,0.714 0.994,1.349 2.365,-0.048 -0.039,0.52 -0.308,1.219 -0.942,1.267 0.342,0.649 0.751,0.79 1.269,-0.098 0.064,1.358 -0.202,1.856 -0.41,2.308 -0.203,0.451 -0.372,0.86 -0.119,2.018 0.442,-0.1 0.513,-0.608 0.983,-0.963 -0.307,0.69 -0.615,1.37 -0.749,2.113 -0.149,0.744 -0.141,1.552 0.223,2.505 0.249,-0.163 0.639,0.008 0.528,-0.581 0.126,0.856 0.07,1.676 -0.03,2.466 -0.052,0.399 -0.115,0.791 -0.182,1.176 -0.067,0.388 -0.156,0.775 -0.227,1.158 -0.074,0.386 -0.139,0.771 -0.186,1.163 -0.048,0.387 -0.072,0.782 -0.089,1.184 -0.028,0.808 0.073,1.648 0.346,2.566 1.901,-1.232 0.713,1.232 2.419,1.355 0,0 -0.102,0.518 -0.204,1.037 -0.115,0.518 -0.227,1.033 -0.227,1.033 l -0.842,-0.795 c 0.032,0.89 -0.254,1.735 -0.475,2.536 -0.233,0.803 -0.42,1.563 -0.149,2.327 l 0.714,-1.308 -0.179,1.663 c -0.039,0.414 -0.108,0.829 -0.147,1.139 -0.044,0.31 -0.072,0.517 -0.072,0.517 0,0 -0.143,-0.474 -0.283,-0.95 -0.072,-0.236 -0.143,-0.472 -0.202,-0.65 -0.06,-0.175 -0.099,-0.292 -0.099,-0.292 -0.221,0.442 -0.472,0.643 -0.713,0.736 -0.24,0.095 -0.465,0.085 -0.651,0.087 -0.371,0.013 -0.574,0.095 -0.384,1.253 0.096,-0.229 0.083,0.202 0.167,0.812 0.087,0.609 0.227,1.395 0.697,1.886 0,0 0.002,-0.004 0.005,-0.004 -0.301,0.409 -0.607,0.825 -0.804,1.294 -0.205,0.472 -0.298,1.003 -0.156,1.663 0.507,0.394 1.899,-0.067 2.235,0.188 -0.375,0.178 -0.615,0.52 -0.786,0.947 -0.182,0.428 -0.308,0.939 -0.431,1.454 -0.128,0.52 -0.249,1.044 -0.461,1.488 -0.214,0.444 -0.498,0.81 -0.916,1.013 0.411,-0.296 1.293,-0.175 1.455,-0.026 l -1.258,0.52 c 0.232,0.861 0.388,1.013 1.109,1.009 -0.126,1.232 -0.624,0.935 -1.037,0.716 -0.416,-0.216 -0.752,-0.366 -0.579,1.139 0.137,-0.201 0.286,-0.06 0.548,-0.491 -0.028,1.481 -0.55,2.819 -1.026,4.118 -0.526,1.29 -1,2.546 -1.132,3.903 0.708,0.626 0.976,0.093 1.21,-0.441 0.24,-0.531 0.413,-1.07 0.992,-0.429 -0.351,0.922 -0.804,1.834 -1.282,2.736 -0.513,0.89 -1.048,1.774 -1.578,2.648 -0.555,0.864 -1.061,1.734 -1.529,2.598 -0.236,0.431 -0.455,0.864 -0.645,1.306 -0.193,0.437 -0.349,0.885 -0.503,1.331 0,0 0.031,-0.179 0.059,-0.357 0.028,-0.175 0.048,-0.357 0.048,-0.357 -1.202,-0.232 -1.217,0.5 -1.152,1.479 0.03,0.487 0.086,1.039 0,1.537 -0.087,0.498 -0.297,0.952 -0.76,1.251 0.361,-0.335 1.472,0.041 1.173,0.037 -0.786,2.512 -2.948,4.482 -5.65,7.342 l 0.779,-0.08 c -0.082,0.396 -0.24,0.816 -0.442,1.251 -0.21,0.426 -0.47,0.862 -0.734,1.297 -0.268,0.433 -0.539,0.872 -0.796,1.286 -0.265,0.411 -0.505,0.812 -0.689,1.186 -0.788,0.033 -1.253,0.847 -1.645,-0.149 -0.005,0.19 -0.013,0.379 -0.033,0.561 -0.019,0.179 -0.047,0.353 -0.08,0.524 -0.067,0.34 -0.158,0.66 -0.271,0.963 -0.11,0.305 -0.242,0.593 -0.394,0.866 -0.073,0.134 -0.153,0.269 -0.236,0.396 -0.086,0.126 -0.177,0.251 -0.27,0.371 -0.749,0.954 -1.693,1.721 -2.683,2.401 -0.491,0.346 -0.974,0.688 -1.444,1.034 -0.474,0.34 -0.924,0.695 -1.325,1.092 -0.201,0.199 -0.39,0.407 -0.563,0.63 -0.179,0.218 -0.346,0.446 -0.495,0.692 -0.297,0.494 -0.524,1.057 -0.667,1.715 0.385,-0.372 1.29,-0.515 0.989,-0.212 0,0 -0.195,0.145 -0.489,0.359 -0.147,0.109 -0.316,0.234 -0.5,0.368 -0.187,0.128 -0.386,0.267 -0.587,0.403 -0.795,0.55 -1.591,1.096 -1.591,1.096 -0.49,-0.983 -0.063,-0.812 -0.044,-1.951 -0.775,-0.132 -1.857,0.234 -2.557,0.829 1.722,-0.584 1.12,1.267 0.942,2.204 -0.119,-0.327 -0.541,-0.428 -0.71,-0.716 -0.063,0.677 -0.199,0.933 -0.383,0.972 -0.186,0.037 -0.42,-0.139 -0.68,-0.316 -0.526,-0.351 -1.158,-0.715 -1.782,0.614 l 0.457,0.34 c -0.238,0.104 -0.489,0.184 -0.743,0.256 -0.255,0.069 -0.519,0.125 -0.77,0.199 -0.509,0.141 -0.988,0.329 -1.362,0.721 0.381,1.241 1.182,-0.197 1.853,0.55 -0.314,0.221 -0.708,0.331 -1.124,0.4 -0.21,0.035 -0.424,0.059 -0.638,0.081 -0.217,0.019 -0.433,0.034 -0.643,0.058 -0.836,0.091 -1.55,0.294 -1.754,1.191 0.717,-0.1 1.468,-0.639 2.191,-0.747 -0.182,1.015 -0.372,1.483 -0.606,1.797 -0.238,0.312 -0.515,0.483 -0.922,0.888 l 0.075,-0.089 c 0,0 -0.45,0.502 -0.9,1.002 -0.225,0.251 -0.453,0.502 -0.622,0.693 -0.169,0.188 -0.288,0.31 -0.288,0.31 0,0 0.091,-0.169 0.174,-0.347 0.084,-0.173 0.168,-0.348 0.168,-0.348 -0.835,-0.384 -1.48,-0.496 -2.024,-0.429 -0.543,0.067 -0.987,0.303 -1.431,0.582 -0.446,0.277 -0.905,0.572 -1.446,0.782 -0.273,0.104 -0.567,0.182 -0.892,0.219 -0.325,0.041 -0.687,0.034 -1.091,-0.044 0.781,0.137 1.225,0.225 1.474,0.34 0.247,0.108 0.292,0.227 0.264,0.366 -0.052,0.275 -0.392,0.637 0.033,1.187 -0.384,0.66 -1.072,1.524 -0.63,1.723 -0.814,-0.186 -1.157,0.26 -1.598,0.671 -0.444,0.401 -0.987,0.782 -2.131,0.453 0.065,0.216 -0.225,0.381 -0.439,0.593 -0.217,0.208 -0.36,0.472 0.013,0.913 -1.622,0.381 0.009,-0.861 -0.362,-1.301 -1.45,-0.153 -2.537,0.892 -3.851,1.871 -0.327,0.249 -0.663,0.5 -1.018,0.725 -0.359,0.217 -0.734,0.416 -1.132,0.574 -0.399,0.158 -0.819,0.277 -1.265,0.338 -0.446,0.056 -0.928,0.036 -1.435,-0.052 -0.792,0.058 -1.444,0.034 -2.031,-0.057 -0.584,-0.093 -1.095,-0.231 -1.595,-0.37 -0.501,-0.141 -0.983,-0.268 -1.527,-0.377 -0.543,-0.11 -1.139,-0.177 -1.849,-0.164 -0.346,0.472 -0.056,0.81 0.327,1.024 0.386,0.216 0.862,0.314 0.862,0.314 -1.271,1.072 -2.442,1.236 -3.949,1.104 0.372,0.299 0.167,0.704 -0.152,1.286 -1.167,0.145 -1.119,-1.405 -2.461,-0.431 0.357,0.429 0.853,1.128 1.517,1.485 -1.444,-0.073 -2.946,-0.649 -4.399,-0.775 -0.238,0.832 1.046,0.994 1.641,1.395 -0.411,-0.005 -0.883,-0.013 -1.368,-0.02 -0.485,-0.019 -0.985,-0.06 -1.453,-0.13 -0.935,-0.141 -1.741,-0.411 -2.065,-0.996 0,0 0.235,-0.136 0.471,-0.281 0.234,-0.147 0.468,-0.295 0.468,-0.295 -0.574,0.031 -0.143,1.087 0.316,1.241 1.505,0.734 1.884,-0.727 1.877,-1.178 l -1.035,-0.125 c 0.15,-0.682 0.468,-1.033 0.897,-1.191 0.428,-0.169 0.965,-0.141 1.552,-0.046 1.174,0.213 2.544,0.615 3.516,0.325 0,0 -0.312,-0.415 -0.623,-0.831 -0.308,-0.416 -0.615,-0.832 -0.615,-0.832 0,0 0.582,0.271 1.167,0.542 0.296,0.138 0.591,0.264 0.812,0.357 0.223,0.095 0.37,0.158 0.37,0.158 0.307,-0.591 0.32,-1.687 -0.687,-1.717 0.566,-0.63 0.905,-0.546 1.224,-0.468 0.314,0.076 0.612,0.154 1.052,-0.513 0.082,-0.195 0,-0.266 -0.139,-0.303 l 1.473,0.154 c -0.371,-0.305 -0.165,-1.345 -0.888,-0.847 0.509,-0.435 1.02,-0.634 1.511,-0.716 0.489,-0.095 0.959,-0.078 1.386,-0.052 0.848,0.045 1.522,0.119 1.712,-0.723 l -0.229,-0.039 c 1.693,-0.277 1.896,0.019 2.039,0.469 0.07,0.226 0.126,0.488 0.353,0.735 0.225,0.242 0.628,0.489 1.382,0.619 0,0 0.101,-0.962 0.181,-1.919 0.085,-0.959 0.152,-1.907 0.152,-1.907 l 0.84,1.16 c 0.31,-0.179 0.903,-0.56 0.565,-1.017 1.576,0.349 0.035,0.645 1.091,1.163 0.264,-0.462 0.68,-0.773 1.143,-1.02 0.459,-0.26 0.97,-0.455 1.434,-0.656 0.928,-0.399 1.636,-0.873 1.305,-1.944 1.022,0.662 -1.08,1.468 0.868,1.294 -0.309,-1.18 0.197,-1.325 0.901,-1.39 0.693,-0.078 1.589,-0.091 2,-0.939 -1.019,-0.842 -1.963,0.422 -1.16,-1.273 0.455,0.342 0.834,0.396 1.165,0.283 0.327,-0.119 0.604,-0.413 0.862,-0.753 0.515,-0.686 0.956,-1.553 1.595,-1.737 0.463,0.687 1.15,0.455 1.988,-0.036 0.42,-0.245 0.859,-0.578 1.335,-0.881 0.472,-0.312 0.988,-0.589 1.505,-0.802 -0.216,-0.186 0.483,-0.974 1.384,-1.913 0.879,-0.973 1.968,-2.094 2.535,-2.973 l -0.223,-0.178 c 0.678,0.524 1.37,0.394 2.07,0.044 0.682,-0.368 1.366,-0.959 2.052,-1.33 -0.714,-0.705 -1.182,-0.818 -2.085,-0.625 l 1.059,-0.916 c 0.602,0.171 1.113,0.078 1.916,-0.409 l -1.115,-0.669 c 0.351,-0.308 0.764,-0.548 1.197,-0.786 0.427,-0.245 0.879,-0.477 1.327,-0.743 0.908,-0.522 1.743,-1.23 2.267,-2.386 0.477,0.344 0.741,1.247 1.174,1.901 0.428,0.652 1.043,1.063 2.234,0.338 -0.403,-0.5 -1.134,-1.286 -1.786,-0.959 0.219,-0.102 0.92,-0.243 1.022,-0.76 l -1.477,0.067 c 0.392,-1.145 1.044,0.158 1.566,-0.582 -0.687,-0.583 -0.044,-0.918 -0.667,-1.291 -0.215,0.113 -0.234,0.825 -0.721,0.842 0.27,-0.426 0.504,-0.952 0.636,-1.461 0.132,-0.511 0.145,-1.02 0.011,-1.388 0.338,0.396 0.927,0.782 1.483,0.292 0.628,-0.705 0.52,-0.998 0.292,-1.257 -0.225,-0.26 -0.558,-0.483 -0.411,-1.055 0.769,0.031 0.981,-1.299 2.072,-0.513 0.331,-0.442 -0.123,-0.905 -0.29,-1.288 0.26,-0.106 0.563,-0.381 0.881,-0.708 0.316,-0.327 0.654,-0.702 0.951,-1.024 0.608,-0.639 1.164,-1.013 1.45,-0.158 l -0.06,0.26 c 0.047,-0.024 0.08,-0.07 0.136,-0.1 l -0.002,0.007 0.002,-0.007 c 0.364,-0.24 0.686,-0.515 0.976,-0.818 0.284,-0.306 0.524,-0.643 0.745,-0.994 0.221,-0.353 0.418,-0.723 0.6,-1.102 0.184,-0.377 0.327,-0.78 0.476,-1.176 0.292,-0.79 0.585,-1.582 0.873,-2.364 0.151,-0.385 0.318,-0.758 0.508,-1.115 0.096,-0.18 0.197,-0.353 0.308,-0.522 0.102,-0.173 0.212,-0.342 0.333,-0.504 l -0.405,-0.197 c 0.641,-0.734 1.198,-1.641 1.709,-2.496 0.264,-0.423 0.532,-0.828 0.827,-1.178 0.301,-0.351 0.595,-0.663 0.952,-0.886 0.217,-0.528 -0.253,-1.546 -0.842,-1.52 0.437,-0.602 0.764,-0.909 1.007,-1.336 0.119,-0.214 0.216,-0.456 0.283,-0.788 0.063,-0.331 0.12,-0.74 0.102,-1.299 -0.299,0.282 -0.483,0.375 -0.597,0.39 -0.113,0.013 -0.152,-0.05 -0.169,-0.086 -0.037,-0.074 0.008,-0.05 -0.282,0.898 0.072,-0.47 0.096,-0.862 0.111,-1.208 0.008,-0.349 0.017,-0.652 0.073,-0.942 0.059,-0.288 0.165,-0.565 0.371,-0.864 0.205,-0.301 0.511,-0.621 0.944,-1.013 -0.648,0.154 -0.892,-0.29 -0.908,-0.857 -0.015,-0.57 0.219,-1.263 0.494,-1.641 0,0 0.119,0.368 0.219,0.736 0.104,0.368 0.208,0.738 0.208,0.738 0.461,-0.903 0.573,-1.782 0.705,-2.659 l -1.584,0.072 c -0.104,-0.511 -0.107,-0.981 -0.037,-1.421 0.054,-0.443 0.182,-0.859 0.355,-1.253 0.173,-0.396 0.394,-0.773 0.63,-1.141 0.223,-0.368 0.465,-0.73 0.697,-1.087 0.232,-0.359 0.452,-0.717 0.634,-1.074 0.184,-0.359 0.306,-0.725 0.373,-1.091 0.063,-0.372 0.058,-0.749 -0.041,-1.137 -0.05,-0.192 -0.124,-0.389 -0.228,-0.586 -0.106,-0.2 -0.242,-0.401 -0.409,-0.607 0.589,-0.415 0.706,0.115 0.842,0.669 0.122,0.552 0.26,1.126 0.946,0.778 0.011,-0.221 -0.006,-0.449 -0.052,-0.676 -0.047,-0.231 -0.119,-0.461 -0.205,-0.691 -0.176,-0.454 -0.407,-0.9 -0.641,-1.301 -0.459,-0.803 -0.953,-1.444 -0.925,-1.71 -0.296,-1.213 0.319,-1.697 0.936,-2.219 0.312,-0.26 0.634,-0.526 0.853,-0.886 0.108,-0.179 0.192,-0.383 0.238,-0.623 0.045,-0.236 0.048,-0.509 -0.013,-0.829 0.524,0.346 1.951,0.753 2.54,-1.157 -0.033,-0.454 -0.178,-0.822 -0.403,-1.102 -0.225,-0.279 -0.513,-0.465 -0.812,-0.563 -0.593,-0.194 -1.221,-0.026 -1.442,0.52 -0.056,0.418 0.102,0.626 0.288,0.613 -0.221,0.563 -0.483,1.288 -1.039,0.576 l 0.548,-0.204 c -0.128,-0.223 -0.215,-0.537 -0.286,-0.875 -0.083,-0.339 -0.152,-0.703 -0.23,-1.021 -0.158,-0.637 -0.361,-1.089 -0.807,-0.812 0.53,-1.299 0.892,-0.563 1.16,0.415 -0.366,-1.117 -0.398,-1.981 -0.39,-2.857 0.022,-0.877 0.022,-1.765 -0.296,-2.893 0.316,0.344 0.965,0.65 0.944,0.286 -0.108,-0.418 -0.167,-0.756 -0.204,-1.031 -0.041,-0.275 -0.045,-0.485 -0.024,-0.654 0.039,-0.34 0.184,-0.502 0.358,-0.634 0.346,-0.266 0.829,-0.409 0.838,-1.58 -0.966,-1.224 -1.904,0.669 -1.475,-1.704 -0.721,-1.325 -1.453,-0.109 -1.831,0.482 0.099,-0.27 0.158,-0.532 0.181,-0.788 0.016,-0.253 -0.002,-0.495 -0.045,-0.729 -0.087,-0.47 -0.273,-0.903 -0.496,-1.299 -0.214,-0.399 -0.487,-0.756 -0.719,-1.083 -0.231,-0.327 -0.431,-0.625 -0.528,-0.903 l -0.245,1.126 c 0.145,-0.671 0.048,-1.186 -0.047,-1.71 l 1.169,0.409 c -0.149,-0.299 -0.247,-0.578 -0.362,-0.771 -0.123,-0.19 -0.262,-0.296 -0.48,-0.249 0.281,-0.387 0.747,-0.355 1.227,-0.402 0.483,-0.052 0.981,-0.182 1.319,-0.931 -0.36,-0.371 -0.34,-1.048 -0.44,-1.631 -0.101,-0.582 -0.296,-1.071 -1.028,-1.043 0.554,1.26 0.186,1.266 -0.282,1.245 -0.233,-0.011 -0.491,-0.031 -0.673,0.095 -0.184,0.126 -0.279,0.39 -0.225,0.953 0.087,-0.462 -0.052,-0.975 -0.385,-1.548 -0.178,-0.055 -0.269,0.158 -0.308,0.344 -1.834,-2.139 1.312,-1.518 0.578,-4.09 -0.688,0.546 -1.632,-0.165 -1.6,-0.615 0.327,1 1.446,0.111 1.743,-1.022 -0.559,-0.727 -0.574,-1.21 -0.52,-1.611 0.059,-0.404 0.215,-0.736 0.033,-1.151 l 0.617,0.883 c 0.652,-0.589 0.268,-1.383 0.104,-2.624 -0.619,0.117 -0.046,1.193 -0.446,0.875 0.113,-0.217 0.158,-0.42 0.156,-0.611 -0.007,-0.188 -0.067,-0.364 -0.163,-0.53 -0.188,-0.336 -0.517,-0.639 -0.861,-0.949 -0.682,-0.623 -1.479,-1.242 -1.399,-2.288 -0.836,-0.576 -1.427,0.522 -2.055,-0.015 0.05,-1.139 -0.437,-1.533 -0.941,-1.916 -0.128,-0.098 -0.254,-0.193 -0.377,-0.301 -0.126,-0.104 -0.247,-0.221 -0.353,-0.362 -0.214,-0.281 -0.372,-0.658 -0.418,-1.234 1.241,0.056 1.065,0.292 1.314,-1.567 0,0 0.016,0.054 0.042,0.151 0.023,0.098 0.06,0.236 0.103,0.403 0.089,0.333 0.204,0.777 0.319,1.221 0.117,0.442 0.234,0.879 0.305,1.217 0.074,0.335 0.123,0.556 0.123,0.556 0,0 0.029,-0.171 0.074,-0.429 0.041,-0.257 0.108,-0.608 0.154,-0.95 0.093,-0.693 0.186,-1.386 0.186,-1.386 0.249,0.488 0.37,1.074 0.45,1.613 0.085,0.539 0.163,1.016 0.381,1.273 0.345,-1.377 0.141,-1.169 1.182,-1.065 -0.528,-0.173 -0.816,-0.452 -0.978,-0.794 -0.173,-0.338 -0.223,-0.736 -0.262,-1.154 -0.041,-0.416 -0.069,-0.849 -0.199,-1.245 -0.126,-0.399 -0.381,-0.745 -0.832,-1.001 l -2.34,1.323 c -0.572,-0.415 -0.905,-0.909 -1.143,-1.455 -0.245,-0.541 -0.379,-1.145 -0.513,-1.781 -0.15,-0.626 -0.299,-1.284 -0.559,-1.942 -0.275,-0.648 -0.656,-1.299 -1.264,-1.888 0,0 0.251,0.151 0.493,0.309 l 0.492,0.319 c 0.316,-0.481 0.071,-0.949 -0.316,-1.408 -0.384,-0.463 -0.862,-0.952 -1.016,-1.515 -0.664,0.612 -1.331,0.268 -2.048,0.249 0.277,-0.178 -0.08,-0.661 -0.394,-1.237 -0.303,-0.578 -0.528,-1.286 0.065,-1.978 0,0 -0.47,-0.091 -0.937,-0.184 -0.464,-0.085 -0.927,-0.172 -0.927,-0.172 -0.13,-0.103 -0.245,-0.212 -0.344,-0.32 -0.104,-0.108 -0.195,-0.216 -0.271,-0.327 -0.154,-0.221 -0.26,-0.45 -0.333,-0.686 -0.148,-0.474 -0.161,-0.981 -0.191,-1.475 -0.054,-0.989 -0.091,-2.037 -1.167,-2.818 -0.045,0.63 -0.398,0.853 -0.636,1.134 -0.241,0.284 -0.362,0.617 0.002,1.453 -0.613,-0.578 -1.278,-0.966 -0.864,-1.436 -0.186,0.02 -0.331,-0.132 -0.472,-0.355 -0.143,-0.223 -0.277,-0.528 -0.424,-0.831 -0.15,-0.307 -0.312,-0.613 -0.509,-0.834 -0.202,-0.216 -0.442,-0.34 -0.728,-0.298 -0.032,-0.527 0.466,-1.347 -0.35,-1.89 -0.197,0.082 -0.267,0.355 -0.267,0.355 0.271,-0.351 -0.872,-1.39 0.412,-1.681 -0.485,0.078 -0.938,0.068 -1.364,-0.01 -0.436,-0.07 -0.851,-0.195 -1.252,-0.375 -0.788,-0.37 -1.563,-0.853 -2.31,-1.373 -0.379,-0.253 -0.766,-0.482 -1.147,-0.705 -0.381,-0.219 -0.76,-0.42 -1.154,-0.546 -0.39,-0.132 -0.778,-0.216 -1.163,-0.234 -0.193,-0.006 -0.383,0.002 -0.574,0.035 -0.192,0.032 -0.387,0.095 -0.578,0.177 -0.396,-0.251 -0.816,-0.508 -1.247,-0.768 -0.214,-0.134 -0.441,-0.251 -0.667,-0.37 -0.227,-0.115 -0.454,-0.232 -0.679,-0.351 -0.899,-0.481 -1.836,-0.838 -2.64,-1.139 0.026,0.292 -0.123,0.431 0.21,0.44 -0.617,0.013 -0.974,-0.132 -1.199,-0.392 -0.227,-0.258 -0.329,-0.615 -0.444,-0.977 -0.117,-0.359 -0.245,-0.721 -0.53,-0.981 -0.284,-0.251 -0.73,-0.391 -1.457,-0.322 -1.683,1.098 1.236,1.095 0.264,1.433 -0.264,0.697 -0.585,0.977 -0.949,1.022 -0.181,0.024 -0.376,-0.013 -0.58,-0.082 -0.208,-0.067 -0.426,-0.163 -0.656,-0.273 -0.457,-0.219 -0.955,-0.487 -1.47,-0.615 -0.519,-0.11 -1.054,-0.08 -1.565,0.273 l 0.403,0.242 c -0.382,0.193 -0.763,0.184 -1.163,0.07 -0.403,-0.109 -0.823,-0.332 -1.271,-0.581 -0.227,-0.125 -0.459,-0.253 -0.697,-0.387 -0.24,-0.124 -0.489,-0.24 -0.745,-0.344 -0.513,-0.208 -1.059,-0.362 -1.635,-0.362 0,0 0.089,0.269 -0.025,0.446 -0.717,-0.805 -1.819,-1.418 -3.036,-1.838 -1.214,-0.444 -2.535,-0.71 -3.663,-0.955 0.675,1.176 1.007,0.645 0.548,1.806 -1.003,-0.199 0.355,-1.888 -1.674,-2.256 -0.675,0.615 -2.141,1.167 -2.332,2.425 l 0.946,0.034 c 0.239,0.009 0.475,0.02 0.65,0.031 0.177,0.006 0.297,0.013 0.297,0.013 -0.494,0.803 -1.1,0.79 -1.715,0.606 -0.615,-0.182 -1.234,-0.535 -1.737,-0.386 l 0.135,0.708 c -0.726,-0.047 -1.273,-0.197 -1.739,-0.391 -0.465,-0.187 -0.846,-0.418 -1.234,-0.639 -0.779,-0.444 -1.589,-0.842 -3.161,-0.717 l 0.305,-0.547 c -1.801,-1.709 -1.403,1.052 -3.182,-0.18 l -0.422,1.818 c -0.576,-0.186 -1.59,-0.552 -2.724,-0.907 -1.132,-0.335 -2.388,-0.658 -3.421,-0.734 1.271,1.224 3.687,1.724 5.192,2.432 -0.554,0.045 -1.505,0.06 -2.392,-0.013 -0.89,-0.078 -1.724,-0.273 -2.051,-0.693 0.466,0.138 1.065,0.535 1.488,0.223 -0.739,-0.65 -1.579,-1.122 -2.514,-1.379 -0.937,-0.262 -1.97,-0.336 -3.089,-0.197 0.381,1.714 -1.044,2.074 -2.715,2.412 -0.838,0.158 -1.737,0.322 -2.501,0.621 -0.769,0.294 -1.397,0.738 -1.689,1.47 -0.506,-0.087 -1.002,-0.121 -1.498,-0.121 -0.494,0.004 -0.979,0.056 -1.461,0.132 -0.483,0.08 -0.966,0.18 -1.445,0.309 -0.478,0.135 -0.956,0.284 -1.437,0.444 -0.966,0.314 -1.929,0.702 -2.936,1.033 -0.502,0.162 -1.011,0.34 -1.533,0.483 -0.524,0.151 -1.063,0.27 -1.613,0.381 0.23,-0.758 0.269,-1.113 0.184,-1.278 -0.086,-0.164 -0.29,-0.127 -0.537,-0.08 -0.489,0.091 -1.143,0.217 -1.344,-1.169 -1.083,0.083 -1.468,0.23 -1.513,0.431 l -1.345,1.223 c -0.336,0.301 -0.667,0.609 -0.911,0.845 -0.247,0.236 -0.41,0.389 -0.41,0.389 -0.5,0.99 1.13,0.312 1.204,0.942 -2.135,0.84 -0.597,1.401 -1.819,2.527 0.007,-1.048 -1.169,-1.13 -2.288,-0.381 l 1.364,-1.773 c -1.747,-0.226 -2.245,0.534 -2.711,1.316 -0.472,0.784 -0.933,1.533 -2.676,1.392 l 1.241,0.485 c -0.849,0.037 -2.269,0.535 -3.735,0.894 -0.368,0.087 -0.745,0.154 -1.113,0.215 -0.368,0.058 -0.734,0.095 -1.093,0.095 -0.714,0.006 -1.405,-0.139 -1.994,-0.481 -0.141,0.414 -0.182,1.267 0.554,1.158 -0.855,0.479 -1.846,0.778 -2.864,1.068 -0.511,0.141 -1.035,0.262 -1.563,0.381 -0.524,0.13 -1.044,0.258 -1.559,0.387 -1.037,0.247 -2.011,0.574 -2.875,0.966 -0.855,0.403 -1.566,0.931 -2.053,1.6 l 0.6,0.442 c -0.73,0.182 -1.743,-0.448 -2.172,0.61 0.189,0.215 0.607,0.427 0.343,0.637 -0.223,0.004 -0.802,-0.013 -1.382,0.108 -0.582,0.119 -1.188,0.346 -1.485,0.775 l 1.111,0.193 c -0.336,0.353 -0.68,0.634 -1.027,0.877 -0.339,0.246 -0.688,0.443 -1.045,0.606 -0.355,0.162 -0.719,0.283 -1.087,0.385 -0.364,0.111 -0.732,0.197 -1.104,0.273 -1.492,0.292 -3.031,0.474 -4.441,1.308 0.635,0.775 0.487,1.766 0.082,2.697 -0.207,0.459 -0.459,0.933 -0.72,1.354 -0.262,0.422 -0.531,0.801 -0.745,1.099 l 0.231,0.176 c -0.374,0.381 -0.736,0.747 -1.117,1.069 -0.19,0.163 -0.381,0.316 -0.576,0.466 -0.097,0.073 -0.195,0.147 -0.292,0.218 -0.095,0.074 -0.19,0.145 -0.284,0.219 -0.385,0.286 -0.775,0.552 -1.175,0.803 -0.199,0.124 -0.403,0.247 -0.604,0.366 -0.202,0.124 -0.399,0.247 -0.598,0.37 -0.799,0.49 -1.639,0.942 -2.442,1.479 -0.407,0.264 -0.816,0.539 -1.225,0.829 -0.405,0.297 -0.795,0.622 -1.191,0.964 0.019,0.42 -0.037,0.846 -0.152,1.277 -0.106,0.44 -0.264,0.892 -0.467,1.349 -0.102,0.23 -0.217,0.457 -0.338,0.691 -0.124,0.229 -0.249,0.465 -0.379,0.708 -0.26,0.48 -0.546,0.967 -0.847,1.461 -1.162,1.99 -2.472,4.135 -2.838,6.192 -0.035,-0.708 -1.425,-0.647 -1.948,-0.095 -0.042,0.513 -0.63,0.952 -1.016,1.351 -0.383,0.398 -0.543,0.751 0.323,1.074 l 0.117,-0.319 c 0.331,0.355 0.489,0.711 0.558,1.076 0.067,0.364 0.024,0.732 -0.076,1.096 -0.103,0.368 -0.266,0.734 -0.437,1.095 -0.162,0.364 -0.327,0.728 -0.455,1.079 l -2.325,-0.665 c 0.418,1.256 0.386,2.455 0.065,3.605 -0.151,0.574 -0.342,1.149 -0.582,1.71 -0.117,0.279 -0.249,0.557 -0.373,0.834 -0.119,0.279 -0.242,0.552 -0.366,0.825 -0.242,0.547 -0.504,1.078 -0.694,1.6 -0.191,0.521 -0.349,1.024 -0.438,1.5 -0.043,0.238 -0.076,0.472 -0.076,0.695 0.003,0.227 0.029,0.444 0.076,0.652 0.1,0.417 0.297,0.796 0.632,1.13 -0.192,0.201 -0.353,0.426 -0.491,0.662 -0.132,0.241 -0.245,0.487 -0.357,0.736 -0.228,0.5 -0.455,1.001 -0.825,1.429 l 1.284,0.122 c 0.004,0.653 0.019,1.221 0.013,1.755 -0.003,0.269 -0.007,0.526 -0.011,0.784 0.002,0.258 0.002,0.511 -0.007,0.771 -0.008,0.517 -0.056,1.054 -0.106,1.656 -0.034,0.602 -0.099,1.271 -0.199,2.061 l 0.94,-0.63 c 0.004,0.221 -0.052,0.418 -0.154,0.602 -0.102,0.182 -0.232,0.351 -0.405,0.511 -0.34,0.318 -0.803,0.604 -1.273,0.892 -0.468,0.286 -0.942,0.576 -1.301,0.907 -0.364,0.329 -0.578,0.695 -0.574,1.128 0,0 0.489,0.1 0.979,0.199 0.487,0.096 0.974,0.191 0.974,0.191 0.028,0.394 0.058,0.786 0.147,1.176 0.082,0.387 0.184,0.772 0.29,1.156 l 0.163,0.573 c 0.054,0.193 0.11,0.381 0.177,0.568 0.13,0.379 0.254,0.753 0.366,1.13 0.054,0.188 0.106,0.376 0.154,0.565 l 0.067,0.281 0.074,0.282 c 0.093,0.377 0.162,0.755 0.199,1.143 0.019,0.195 0.028,0.387 0.028,0.587 0,0.097 -0.002,0.199 -0.004,0.298 0,0.1 -0.003,0.2 -0.007,0.299 -0.019,0.401 -0.082,0.814 -0.193,1.247 0.258,-0.123 0.773,-0.357 0.721,-0.857 0.106,0.346 0.325,0.838 0.552,1.379 0.254,0.533 0.522,1.111 0.689,1.658 0.154,0.55 0.266,1.051 0.143,1.453 -0.119,0.405 -0.451,0.708 -1.115,0.814 0.405,-0.143 0.688,-0.028 0.881,0.249 0.097,0.137 0.171,0.319 0.229,0.529 0.068,0.21 0.117,0.446 0.156,0.705 0.037,0.26 0.063,0.539 0.078,0.83 0.015,0.29 0.041,0.58 0.052,0.876 0.028,0.587 0.026,1.174 0.063,1.642 l 1.013,-0.802 c -0.4,0.996 -0.686,1.574 -0.803,2.152 -0.102,0.572 -0.054,1.15 0.279,2.172 0.399,0.344 1.098,-0.145 0.483,-0.539 0.708,0.535 0.611,0.957 0.544,1.429 -0.068,0.468 -0.085,0.972 0.738,1.635 l 0.277,-1.068 c 0.249,0.338 0.403,0.604 0.502,0.825 0.102,0.217 0.135,0.398 0.13,0.58 -0.008,0.364 -0.18,0.723 -0.296,1.386 0.108,0.587 0.66,1.204 1.318,1.598 0.669,0.385 1.427,0.552 1.949,0.288 -0.206,0.309 -0.336,0.788 -0.301,1.266 0.037,0.474 0.229,0.957 0.69,1.228 0.42,-0.184 0.375,-0.63 0.36,-0.858 0.628,0.397 1.052,0.838 1.364,1.312 0.322,0.462 0.541,0.944 0.749,1.401 0.208,0.459 0.429,0.873 0.723,1.219 0.149,0.171 0.32,0.325 0.526,0.448 0.208,0.122 0.45,0.212 0.736,0.269 0.321,-0.275 0.557,-0.34 0.76,-0.319 -0.833,-0.755 -1.55,-1.467 -2.078,-1.948 -0.509,-0.496 -0.821,-0.767 -0.797,-0.673 0.429,-0.399 0.987,-0.308 1.459,-0.388 0.472,-0.08 0.855,-0.338 0.97,-1.396 0.076,0.404 0.149,0.902 0.26,1.426 0.11,0.522 0.232,1.096 0.418,1.628 0.184,0.533 0.409,1.048 0.695,1.477 0.294,0.422 0.645,0.76 1.061,0.95 0.138,-0.028 0.275,-0.056 0.439,-0.149 l -0.045,-0.219 c 0.374,0.184 0.582,0.492 0.712,0.864 0.548,0.219 0.905,0.342 1.334,0.661 0.389,-0.31 0.863,-0.089 1.335,0.27 0.481,0.351 0.957,0.847 1.323,1.098 -0.831,0.976 0.256,1.516 -1.279,1.704 0.173,0.015 -0.046,-0.228 -0.492,-0.639 -0.086,-0.115 -0.201,-0.227 -0.227,-0.342 -0.007,0.037 -0.015,0.085 -0.02,0.126 -0.452,-0.39 -1.043,-0.899 -1.712,-1.477 0.141,0.948 0.392,1.875 1.639,1.925 -0.132,0.939 -0.221,1.94 -0.214,2.431 2.1,-0.647 4.62,-0.091 5.505,-0.84 0.938,1.067 2.267,2.014 3.393,3.066 0.576,0.511 1.091,1.067 1.507,1.66 0.413,0.591 0.708,1.254 0.827,1.992 0.582,0.645 1.145,-0.188 1.58,-0.389 -0.301,-0.427 -0.807,-0.643 -0.868,-1.064 0.284,0.319 0.682,0.626 1.113,0.934 0.433,0.309 0.907,0.599 1.329,0.915 0.849,0.624 1.524,1.276 1.356,2.129 1.091,0.069 0.983,-0.407 0.911,-0.715 -0.069,-0.311 -0.106,-0.467 1.115,0.212 l -0.141,-0.621 c 0.754,-0.03 1.423,0.037 2.025,0.208 0.599,0.173 1.145,0.416 1.652,0.732 0.504,0.32 0.98,0.682 1.444,1.082 0.467,0.412 0.928,0.819 1.394,1.232 0.47,0.414 0.95,0.825 1.461,1.197 0.258,0.184 0.518,0.368 0.795,0.524 0.275,0.154 0.563,0.295 0.862,0.416 1.193,0.483 2.576,0.693 4.289,0.229 -0.468,0.098 -0.7,0.137 -0.858,0.388 0.901,0.039 1.784,0.147 2.661,0.303 0.881,0.141 1.758,0.316 2.628,0.533 0.433,0.112 0.869,0.223 1.306,0.335 0.437,0.109 0.872,0.223 1.312,0.338 l 1.31,0.36 0.656,0.181 0.658,0.165 c 0.883,0.219 1.764,0.429 2.65,0.615 0.886,0.177 1.78,0.305 2.674,0.402 0.446,0.046 0.894,0.083 1.342,0.102 0.448,0.013 0.899,0.011 1.349,-0.006 0.901,-0.037 1.797,-0.13 2.698,-0.327 2.024,-0.26 2.111,0.831 3.236,1.78 l 0.572,-1.328 1.912,1.782 c 1.416,0.732 2.775,-0.022 4.2,-0.615 1.427,-0.597 2.929,-1.084 4.72,0.143 l -0.544,0.892 c 1.353,-0.089 4.229,0.81 4.064,-0.268 0.128,0.175 0.388,0.987 0.942,0.532 l 0.08,-0.716 3.243,1.405 c 2.594,-0.396 -0.26,-2.871 3.486,-2.834 1.379,0.34 3.873,2.271 3.33,2.728 -0.565,0.01 -1.457,0.383 -1.533,1.102 l 1.262,0.431 c 0.137,2.128 1.031,4.343 -2.18,5.681 l -2.135,-1.395 -0.758,0.992 1.847,0.152 c -1.091,0.92 -1.721,0.03 -2.435,-0.592 -0.202,0.54 -0.531,0.905 -0.977,1.087 l -2.057,-2.132 c -0.307,0.814 0.884,1.695 -0.593,2.074 -0.963,-0.992 1.07,-1.804 -0.571,-2.512 -1.105,0.903 -0.843,1.711 -2.033,0.812 -0.206,0.537 0.034,0.899 0.513,1.169 -1.066,-0.723 -2.908,-0.456 -3.404,-1.617 -1.18,1.115 -3.702,-0.571 -3.743,1.438 -0.314,-0.498 -1.83,-1.73 -2.834,-1.895 0.827,1.273 -0.128,1.23 -1.26,1.193 -1.13,-0.05 -2.438,-0.099 -2.317,1.206 -0.589,-1.141 -1.81,-1.498 -3.178,-1.78 -0.684,-0.138 -1.405,-0.251 -2.098,-0.42 -0.693,-0.177 -1.36,-0.42 -1.931,-0.796 0.114,0.188 0.337,0.567 0.569,0.487 -1.401,-0.004 -1.89,0.589 -2.838,0.872 0.071,-1.794 -2.007,-2.524 -2.973,-3.786 -0.974,0.712 -0.81,1.266 -0.494,1.846 0.319,0.57 0.789,1.154 0.39,1.93 0.156,-0.711 -0.524,-1.17 -1.141,-1.622 -0.617,-0.444 -1.173,-0.847 -0.784,-1.39 -1.472,0.821 -1.195,0.314 -2.132,1.65 0.186,-2.224 -1.137,-0.609 -1.936,-2.165 -1.037,0.35 -1.266,0.838 -1.472,1.102 -0.102,0.132 -0.199,0.21 -0.392,0.184 -0.192,-0.02 -0.476,-0.147 -0.952,-0.433 -0.563,0.221 -0.431,0.628 -0.156,0.981 0.138,0.177 0.312,0.342 0.45,0.461 0.139,0.117 0.245,0.186 0.245,0.186 z"
                               style="fill:#dc4844;fill-opacity:1;fill-rule:nonzero;stroke:none"
                               id="path163156" />
                          </g>
                        </g>
                      </g>
                      <g
                         transform="translate(153.0426,-109.25643)"
                         id="g163170">
                        <g
                           id="g163168">
                          <g
                             id="g163166">
                            <path
                               d="m 0.32,-0.23947 c 0.052,0.076 0.058,0.147 0.141,0.225 -0.167,0.015 -0.319,0.02 -0.461,0.007 0.023,-0.152 0.047,-0.304 0.075,-0.449 0.083,0.074 0.167,0.15 0.245,0.217 z"
                               style="fill:#dc4844;fill-opacity:1;fill-rule:nonzero;stroke:none"
                               id="path163164" />
                          </g>
                        </g>
                      </g>
                      <g
                         transform="translate(288.7382,-113.1056)"
                         id="g163178">
                        <g
                           id="g163176">
                          <g
                             id="g163174">
                            <path
                               d="M 0,-0.16 0.022,-0.247 C 0.026,-0.162 0.032,-0.08 0.076,0 0.056,-0.08 0.022,-0.104 0,-0.16 Z"
                               style="fill:#dc4844;fill-opacity:1;fill-rule:nonzero;stroke:none"
                               id="path163172" />
                          </g>
                        </g>
                      </g>
                      <g
                         transform="translate(122.6881,-164.6867)"
                         id="g163186">
                        <g
                           id="g163184">
                          <g
                             id="g163182">
                            <path
                               d="M 0.035,-0.392 0.351,-0.323 0,0 Z"
                               style="fill:#dc4844;fill-opacity:1;fill-rule:nonzero;stroke:none"
                               id="path163180" />
                          </g>
                        </g>
                      </g>
                      <g
                         transform="translate(277.23675,-93.3087)"
                         id="g163194">
                        <g
                           id="g163192">
                          <g
                             id="g163190">
                            <path
                               d="m 0.03665,-0.446 c 0.041,0.113 0.052,0.258 -0.011,0.446 -0.045,-0.074 -0.024,-0.247 0.011,-0.446 z"
                               style="fill:#dc4844;fill-opacity:1;fill-rule:nonzero;stroke:none"
                               id="path163188" />
                          </g>
                        </g>
                      </g>
                      <g
                         transform="translate(268.7546,-86.301)"
                         id="g163202">
                        <g
                           id="g163200">
                          <g
                             id="g163198">
                            <path
                               d="M 0.903,-1.165 0,0 c 0.36,-0.557 0.654,-0.905 0.903,-1.165 z"
                               style="fill:#dc4844;fill-opacity:1;fill-rule:nonzero;stroke:none"
                               id="path163196" />
                          </g>
                        </g>
                      </g>
                      <g
                         transform="translate(263.1507,-82.844)"
                         id="g163210">
                        <g
                           id="g163208">
                          <g
                             id="g163206">
                            <path
                               d="M 0.403,0 C 0.208,-0.145 0.1,-0.277 0,-0.401 0.005,-0.405 0.007,-0.407 0.009,-0.414 Z"
                               style="fill:#dc4844;fill-opacity:1;fill-rule:nonzero;stroke:none"
                               id="path163204" />
                          </g>
                        </g>
                      </g>
                      <g
                         transform="translate(304.3308,-188.6108)"
                         id="g163218">
                        <g
                           id="g163216">
                          <g
                             id="g163214">
                            <path
                               d="M 0.046,0 C 0.018,-0.102 0,-0.206 0,-0.305 0.005,-1.054 0.07,-0.567 0.046,0 Z"
                               style="fill:#dc4844;fill-opacity:1;fill-rule:nonzero;stroke:none"
                               id="path163212" />
                          </g>
                        </g>
                      </g>
                      <g
                         transform="translate(305.9551,-152.50087)"
                         id="g163226">
                        <g
                           id="g163224">
                          <g
                             id="g163222">
                            <path
                               d="m 0,-0.00193 c 0.26,-0.362 0.513,-0.719 0.686,-1.109 0.052,0.646 0.041,1.146 -0.686,1.109 z"
                               style="fill:#dc4844;fill-opacity:1;fill-rule:nonzero;stroke:none"
                               id="path163220" />
                          </g>
                        </g>
                      </g>
                      <g
                         transform="translate(282.5127,-224.1757)"
                         id="g163234">
                        <g
                           id="g163232">
                          <g
                             id="g163230">
                            <path
                               d="M 0.221,-0.019 C 0.221,-0.01 0.214,-0.01 0.21,0 0.141,-0.062 0.074,-0.11 0,-0.168 Z"
                               style="fill:#dc4844;fill-opacity:1;fill-rule:nonzero;stroke:none"
                               id="path163228" />
                          </g>
                        </g>
                      </g>
                      <g
                         transform="translate(306.57024,-153.6099)"
                         id="g163242">
                        <g
                           id="g163240">
                          <g
                             id="g163238">
                            <path
                               d="m 0.12896,-1.667 c 0.225,0.649 0.162,1.184 -0.058,1.667 -0.042,-0.528 -0.163,-1.15 0.058,-1.667 z"
                               style="fill:#dc4844;fill-opacity:1;fill-rule:nonzero;stroke:none"
                               id="path163236" />
                          </g>
                        </g>
                      </g>
                      <g
                         transform="translate(232.0533,-71.157)"
                         id="g163250">
                        <g
                           id="g163248">
                          <g
                             id="g163246">
                            <path
                               d="M 0.435,-0.11 0.073,0 C 0.069,-0.086 0.037,-0.151 0,-0.199 Z"
                               style="fill:#dc4844;fill-opacity:1;fill-rule:nonzero;stroke:none"
                               id="path163244" />
                          </g>
                        </g>
                      </g>
                      <g
                         transform="translate(231.6248,-71.3549)"
                         id="g163258">
                        <g
                           id="g163256">
                          <g
                             id="g163254">
                            <path
                               d="M 0.429,0 0,-0.084 C 0.187,-0.115 0.349,-0.13 0.429,0 Z"
                               style="fill:#dc4844;fill-opacity:1;fill-rule:nonzero;stroke:none"
                               id="path163252" />
                          </g>
                        </g>
                      </g>
                      <g
                         transform="translate(230.7208,-71.3964)"
                         id="g163266">
                        <g
                           id="g163264">
                          <g
                             id="g163262">
                            <path
                               d="m 0,-0.2523 c 0,0 0.225,0.052 0.45,0.106 0.115,0.028 0.228,0.054 0.312,0.074 0.085,0.017 0.141,0.03 0.141,0.03 C 0.606,0.0027 0.242,0.0837 0,-0.2523 Z"
                               style="fill:#dc4844;fill-opacity:1;fill-rule:nonzero;stroke:none"
                               id="path163260" />
                          </g>
                        </g>
                      </g>
                      <g
                         transform="translate(242.3324,-73.5447)"
                         id="g163274">
                        <g
                           id="g163272">
                          <g
                             id="g163270">
                            <path
                               d="M 0,-0.418 0.236,0 C 0.149,-0.076 0.069,-0.212 0,-0.418 Z"
                               style="fill:#dc4844;fill-opacity:1;fill-rule:nonzero;stroke:none"
                               id="path163268" />
                          </g>
                        </g>
                      </g>
                      <g
                         transform="translate(242.5677,-73.2158)"
                         id="g163282">
                        <g
                           id="g163280">
                          <g
                             id="g163278">
                            <path
                               d="M 2.765,-1.487 C 2.096,-1.175 1.271,-0.013 0.193,0 L 0,-0.329 c 0.327,0.269 0.801,-0.164 1.299,-0.586 0.496,-0.427 1.016,-0.843 1.466,-0.572 z"
                               style="fill:#dc4844;fill-opacity:1;fill-rule:nonzero;stroke:none"
                               id="path163276" />
                          </g>
                        </g>
                      </g>
                      <g
                         transform="translate(252.1595,-83.249)"
                         id="g163290">
                        <g
                           id="g163288">
                          <g
                             id="g163286">
                            <path
                               d="M 2.678,-1.353 1.66,-0.665 C 1.407,-0.489 1.147,-0.327 0.952,-0.203 0.758,-0.082 0.628,0 0.628,0 0.818,-0.623 1.046,-1.446 0,-1.119 c 0.543,-0.639 0.801,-0.877 0.931,-0.909 0.132,-0.029 0.141,0.164 0.169,0.394 0.052,0.456 0.184,1.052 1.578,0.281 z"
                               style="fill:#dc4844;fill-opacity:1;fill-rule:nonzero;stroke:none"
                               id="path163284" />
                          </g>
                        </g>
                      </g>
                      <g
                         transform="translate(260.4356,-88.6393)"
                         id="g163298">
                        <g
                           id="g163296">
                          <g
                             id="g163294">
                            <path
                               d="m 0.6677,-0.112 c -1.225,0.459 -0.349,-0.628 -0.552,-0.831 0.924,-0.026 1.16,-0.033 0.552,0.831 z"
                               style="fill:#dc4844;fill-opacity:1;fill-rule:nonzero;stroke:none"
                               id="path163292" />
                          </g>
                        </g>
                      </g>
                      <g
                         transform="translate(294.5274,-128.645)"
                         id="g163306">
                        <g
                           id="g163304">
                          <g
                             id="g163302">
                            <path
                               d="M 1.132,0 0,-0.31 C 0.513,-1.158 0.426,-0.152 1.132,0 Z"
                               style="fill:#dc4844;fill-opacity:1;fill-rule:nonzero;stroke:none"
                               id="path163300" />
                          </g>
                        </g>
                      </g>
                      <g
                         transform="translate(303.9084,-135.558)"
                         id="g163314">
                        <g
                           id="g163312">
                          <g
                             id="g163310">
                            <path
                               d="M 0.723,-1.392 1.156,-0.201 0,0 Z"
                               style="fill:#dc4844;fill-opacity:1;fill-rule:nonzero;stroke:none"
                               id="path163308" />
                          </g>
                        </g>
                      </g>
                      <g
                         transform="translate(297.5903,-144.3732)"
                         id="g163322">
                        <g
                           id="g163320">
                          <g
                             id="g163318">
                            <path
                               d="M 0.232,-0.387 0,0 0.682,-1.522 Z"
                               style="fill:#dc4844;fill-opacity:1;fill-rule:nonzero;stroke:none"
                               id="path163316" />
                          </g>
                        </g>
                      </g>
                      <g
                         transform="translate(267.4346,-220.604)"
                         id="g163330">
                        <g
                           id="g163328">
                          <g
                             id="g163326">
                            <path
                               d="M 0,-0.24781 0.901,-1.4058 C 1.134,-1.1568 1.083,-0.63981 0.89,-0.31281 0.795,-0.15081 0.663,-0.0288 0.511,-0.0058 0.359,0.0202 0.182,-0.0378 0,-0.24781 Z"
                               style="fill:#dc4844;fill-opacity:1;fill-rule:nonzero;stroke:none"
                               id="path163324" />
                          </g>
                        </g>
                      </g>
                      <g
                         transform="translate(227.957,-226.85362)"
                         id="g163338">
                        <g
                           id="g163336">
                          <g
                             id="g163334">
                            <path
                               d="m 2.215,-0.87828 c -0.407,0.732 -1.496,1.232 -2.215,0.567 0.883,-0.149 1.752,-0.734 2.215,-0.567 z"
                               style="fill:#dc4844;fill-opacity:1;fill-rule:nonzero;stroke:none"
                               id="path163332" />
                          </g>
                        </g>
                      </g>
                      <g
                         transform="translate(136.5296,-171.6281)"
                         id="g163346">
                        <g
                           id="g163344">
                          <g
                             id="g163342">
                            <path
                               d="M 0.149,-0.652 0.85,-1.185 0,0 Z"
                               style="fill:#dc4844;fill-opacity:1;fill-rule:nonzero;stroke:none"
                               id="path163340" />
                          </g>
                        </g>
                      </g>
                    </g>
                  </g>
                </g>
              </g>
            </g>
          </g>
        </g>
      </g>
    </g>
  </g>
</svg>
