<?xml version="1.0" encoding="UTF-8" standalone="no"?>
<!-- Created with Inkscape (http://www.inkscape.org/) -->

<svg
   version="1.1"
   id="svg18"
   width="200"
   height="200"
   viewBox="0 0 199.99999 200"
   sodipodi:docname="2_lf2.svg"
   inkscape:version="1.2.1 (9c6d41e410, 2022-07-14)"
   xmlns:inkscape="http://www.inkscape.org/namespaces/inkscape"
   xmlns:sodipodi="http://sodipodi.sourceforge.net/DTD/sodipodi-0.dtd"
   xmlns="http://www.w3.org/2000/svg"
   xmlns:svg="http://www.w3.org/2000/svg">
  <sodipodi:namedview
     id="namedview452"
     pagecolor="#ffffff"
     bordercolor="#000000"
     borderopacity="0.25"
     inkscape:showpageshadow="2"
     inkscape:pageopacity="0.0"
     inkscape:pagecheckerboard="0"
     inkscape:deskcolor="#d1d1d1"
     showgrid="false"
     inkscape:zoom="1.7760465"
     inkscape:cx="53.489591"
     inkscape:cy="169.47754"
     inkscape:window-width="2040"
     inkscape:window-height="460"
     inkscape:window-x="696"
     inkscape:window-y="28"
     inkscape:window-maximized="1"
     inkscape:current-layer="svg18" />
  <defs
     id="defs22" />
  <g
     id="g274"
     transform="matrix(1.3333333,0,0,-1.3333333,-51.181063,245.0656)">
    <g
       id="g342"
       transform="translate(122.1253,35.0882)"
       clip-path="none">
      <path
         d="m 0,0 c -1.857,0 -3.356,0.592 -4.496,1.773 -1.14,1.184 -1.71,2.831 -1.71,4.94 0,4.053 2.068,6.291 6.206,6.713 3.969,0 6.121,-2.236 6.46,-6.713 C 6.46,2.66 4.307,0.424 0,0 m -16.972,0 c -1.858,0 -3.4,0.592 -4.624,1.773 -1.224,1.184 -1.836,2.831 -1.836,4.94 0,4.053 2.153,6.291 6.46,6.713 1.941,0 3.502,-0.612 4.687,-1.837 1.181,-1.222 1.772,-2.849 1.772,-4.876 0,-4.053 -2.153,-6.289 -6.459,-6.713 m 3.419,25.585 c -10.892,0 -19.379,2.894 -25.459,8.677 -6.079,5.785 -9.119,13.616 -9.119,23.495 0,7.515 1.562,14.735 4.687,21.66 l 6.965,-0.887 c -1.773,-5.405 -2.659,-10.893 -2.659,-16.466 0,-6.671 1.393,-11.884 4.18,-15.643 2.787,-3.756 6.311,-6.396 10.576,-7.916 4.263,-1.52 8.506,-2.28 12.73,-2.28 11.652,0 20.645,3.167 26.978,9.5 2.869,3.21 4.307,5.868 4.307,7.98 0,0.759 -0.276,1.52 -0.823,2.279 -0.55,0.76 -1.732,1.603 -3.547,2.534 -1.817,0.928 -4.623,1.982 -8.423,3.166 l -6.333,2.027 c -5.236,1.602 -8.803,3.524 -10.703,5.763 -1.9,2.236 -2.85,5.256 -2.85,9.056 0,2.87 0.696,6.143 2.09,9.816 1.393,3.674 3.693,7.239 6.903,10.703 6.333,6.248 13.046,9.373 20.139,9.373 7.6,0 12.455,-3.926 14.566,-11.779 l -6.08,-6.967 c -2.533,5.826 -6.165,8.74 -10.892,8.74 -3.632,0 -6.821,-0.972 -9.563,-2.914 -2.745,-1.943 -4.899,-4.243 -6.46,-6.903 -1.563,-2.66 -2.343,-5.088 -2.343,-7.283 0,-1.351 0.57,-2.576 1.709,-3.672 1.14,-1.099 3.567,-2.239 7.284,-3.42 l 9.12,-2.913 c 4.642,-1.353 8.296,-3.062 10.955,-5.131 2.661,-2.07 3.99,-5.129 3.99,-9.182 0,-6.419 -2.406,-12.202 -7.22,-17.353 -4.559,-4.813 -9.88,-8.359 -15.959,-10.64 -6.08,-2.279 -12.329,-3.42 -18.746,-3.42"
         style="fill:#000000;fill-opacity:1;fill-rule:nonzero;stroke:none"
         id="path344" />
    </g>
  </g>
</svg>
