<?xml version="1.0" encoding="UTF-8" standalone="no"?>
<!-- Created with Inkscape (http://www.inkscape.org/) -->

<svg
   version="1.1"
   id="svg18"
   width="200"
   height="200"
   viewBox="0 0 200 200.00001"
   sodipodi:docname="3_lf2.svg"
   inkscape:version="1.2.1 (9c6d41e410, 2022-07-14)"
   xmlns:inkscape="http://www.inkscape.org/namespaces/inkscape"
   xmlns:sodipodi="http://sodipodi.sourceforge.net/DTD/sodipodi-0.dtd"
   xmlns="http://www.w3.org/2000/svg"
   xmlns:svg="http://www.w3.org/2000/svg">
  <sodipodi:namedview
     id="namedview466"
     pagecolor="#ffffff"
     bordercolor="#000000"
     borderopacity="0.25"
     inkscape:showpageshadow="2"
     inkscape:pageopacity="0.0"
     inkscape:pagecheckerboard="0"
     inkscape:deskcolor="#d1d1d1"
     showgrid="false"
     inkscape:zoom="1.6718722"
     inkscape:cx="92.112304"
     inkscape:cy="73.570217"
     inkscape:window-width="2040"
     inkscape:window-height="460"
     inkscape:window-x="696"
     inkscape:window-y="28"
     inkscape:window-maximized="1"
     inkscape:current-layer="svg18" />
  <defs
     id="defs22" />
  <g
     id="g348"
     transform="matrix(1.3333333,0,0,-1.3333333,-51.18093,233.06586)">
    <g
       id="g416"
       transform="translate(115.7927,48.5779)"
       clip-path="none">
      <path
         d="m 0,0 c -1.858,0 -3.42,0.633 -4.687,1.899 -1.266,1.267 -1.899,2.957 -1.899,5.067 0,4.053 2.194,6.333 6.586,6.84 3.968,0 6.163,-2.28 6.586,-6.84 C 6.586,2.66 4.39,0.338 0,0 m -7.22,29.385 c -29.638,0 -44.458,11.229 -44.458,33.692 0,5.741 0.928,10.976 2.786,15.706 l 6.84,-1.393 c -0.929,-3.294 -1.392,-6.84 -1.392,-10.64 0,-17.311 12.286,-26.009 36.858,-26.092 19.252,0 34.112,2.153 44.584,6.459 0.083,0.675 0.127,1.52 0.127,2.534 -0.254,8.95 -3.252,18.702 -8.993,29.258 l 9.12,2.534 c 2.194,-3.885 4.18,-8.698 5.953,-14.44 1.774,-5.743 2.659,-11.864 2.659,-18.366 0,-3.885 -0.423,-7.009 -1.266,-9.372 -15.285,-6.587 -32.89,-9.88 -52.818,-9.88"
         style="fill:#000000;fill-opacity:1;fill-rule:nonzero;stroke:none"
         id="path418" />
    </g>
  </g>
</svg>
