<?xml version="1.0" encoding="UTF-8" standalone="no"?>
<!-- Created with Inkscape (http://www.inkscape.org/) -->

<svg
   version="1.1"
   id="svg18"
   width="200"
   height="200"
   viewBox="0 0 200 200.00001"
   sodipodi:docname="440_lf1.svg"
   inkscape:version="1.2.1 (9c6d41e410, 2022-07-14)"
   xmlns:inkscape="http://www.inkscape.org/namespaces/inkscape"
   xmlns:sodipodi="http://sodipodi.sourceforge.net/DTD/sodipodi-0.dtd"
   xmlns="http://www.w3.org/2000/svg"
   xmlns:svg="http://www.w3.org/2000/svg">
  <sodipodi:namedview
     id="namedview53"
     pagecolor="#ffffff"
     bordercolor="#000000"
     borderopacity="0.25"
     inkscape:showpageshadow="2"
     inkscape:pageopacity="0.0"
     inkscape:pagecheckerboard="0"
     inkscape:deskcolor="#d1d1d1"
     showgrid="false"
     inkscape:zoom="2.9614656"
     inkscape:cx="199.56335"
     inkscape:cy="13.506826"
     inkscape:window-width="1700"
     inkscape:window-height="1396"
     inkscape:window-x="8"
     inkscape:window-y="28"
     inkscape:window-maximized="1"
     inkscape:current-layer="text43064" />
  <defs
     id="defs22" />
  <g
     aria-label="ذ"
     id="text43064"
     style="font-size:271.552px;font-family:Kalamna;-inkscape-font-specification:Kalamna;fill:#f81436;stroke-width:0.501252">
    <path
       d="m 91.077578,139.09767 q -14.547429,0 -25.603475,-4.07328 l -2.71552,-17.45691 q 10.86208,3.87931 30.258652,3.87931 11.056045,0 18.814675,-2.13362 7.95259,-2.13362 12.02587,-5.04311 v -1.16379 q 0,-10.66812 -9.50432,-25.797445 -9.31035,-15.323291 -33.750031,-30.258651 l 12.21984,-10.474149 q 19.008641,10.86208 31.616411,28.900892 12.80174,17.844846 12.80174,38.017283 0,7.95259 -1.1638,11.25001 -5.81897,6.2069 -17.06898,10.28018 -11.05605,4.07328 -27.931062,4.07328 z M 92.241372,21.554448 q -4.267246,0 -7.176732,-2.909486 -2.71552,-2.909486 -2.71552,-7.758629 0,-4.461211 2.71552,-7.3706968 2.909486,-3.1034514 7.370698,-3.1034514 9.116392,0 10.086212,10.4741482 0,9.892252 -10.280178,10.668115 z"
       id="path267" />
  </g>
</svg>
