<?xml version="1.0" encoding="UTF-8" standalone="no"?>
<!-- Created with Inkscape (http://www.inkscape.org/) -->

<svg
   version="1.1"
   id="svg163768"
   width="266.66666"
   height="266.66666"
   viewBox="0 0 266.66666 266.66666"
   sodipodi:docname="510_lf1.pdf"
   xmlns:inkscape="http://www.inkscape.org/namespaces/inkscape"
   xmlns:sodipodi="http://sodipodi.sourceforge.net/DTD/sodipodi-0.dtd"
   xmlns="http://www.w3.org/2000/svg"
   xmlns:svg="http://www.w3.org/2000/svg">
  <defs
     id="defs163772">
    <clipPath
       clipPathUnits="userSpaceOnUse"
       id="clipPath163788">
      <path
         d="M 0,0 H 146.99333 V -81.1284 H 0 Z"
         clip-rule="evenodd"
         id="path163786" />
    </clipPath>
    <clipPath
       clipPathUnits="userSpaceOnUse"
       id="clipPath163798">
      <path
         d="M 0,-243.38539 H 440.98035 V 243.38539 H 0 Z"
         id="path163796" />
    </clipPath>
  </defs>
  <sodipodi:namedview
     id="namedview163770"
     pagecolor="#ffffff"
     bordercolor="#000000"
     borderopacity="0.25"
     inkscape:showpageshadow="2"
     inkscape:pageopacity="0.0"
     inkscape:pagecheckerboard="0"
     inkscape:deskcolor="#d1d1d1" />
  <g
     id="g163774"
     inkscape:groupmode="layer"
     inkscape:label="510_lf193"
     transform="matrix(1.3333333,0,0,-1.3333333,0,266.66667)">
    <g
       id="g163776">
      <g
         id="g163778">
        <g
           id="g163780"
           transform="translate(26.50333,150.5642)">
          <g
             id="g163782">
            <g
               id="g163784"
               clip-path="url(#clipPath163788)">
              <g
                 id="g163790"
                 transform="matrix(0.33333,0,0,0.33333,0,-27.04278)">
                <g
                   id="g163792">
                  <g
                     id="g163794" />
                  <g
                     id="g163818">
                    <g
                       clip-path="url(#clipPath163798)"
                       id="g163816">
                      <g
                         transform="translate(0,-124.33735)"
                         id="g163806">
                        <g
                           id="g163804">
                          <g
                             id="g163802">
                            <path
                               d="M 121.896,-35.2178 H 19.3503 C 6.45009,-35.2178 0,-29.1529 0,-17.0232 0,-13.4208 1.35353,-9.68294 4.06059,-5.80976 6.76765,-1.93659 11.8642,0 19.3503,0 H 121.896 c 12.9,0 19.35,-5.93471 19.35,-17.8041 0,-3.6129 -1.359,-7.4184 -4.076,-11.4165 -2.707,-3.9981 -7.799,-5.9972 -15.274,-5.9972 z"
                               style="fill:#f81436;fill-opacity:1;fill-rule:nonzero;stroke:none"
                               id="path163800" />
                          </g>
                        </g>
                      </g>
                      <g
                         transform="translate(101.62452,81.1284)"
                         id="g163814">
                        <g
                           id="g163812">
                          <g
                             id="g163810">
                            <path
                               d="m 185.741,-243.385 c -25.54,0 -45.213,1.931 -59.019,5.794 -13.796,3.873 -24.052,8.969 -30.7672,15.289 -6.7052,6.32 -11.9943,13.093 -15.8675,20.319 -4.8935,-11.349 -12.567,-20.636 -23.0204,-27.862 -10.443,-7.226 -22.8903,-10.839 -37.3418,-10.839 -7.2258,0 -12.31713,1.869 -15.27407,5.607 C 1.48368,-231.329 0,-227.393 0,-223.27 c 0,4.644 1.67629,8.772 5.02888,12.385 3.35259,3.613 8.25132,5.419 14.69622,5.419 14.7118,0 25.7431,3.415 33.0938,10.245 7.3507,6.841 12.5097,15.743 15.4771,26.707 2.9673,10.963 5.0965,22.895 6.3876,35.795 l 24.3791,1.546 c -1.5513,-7.996 -2.327,-16.122 -2.327,-24.379 0,-11.609 2.1292,-20.834 6.3873,-27.674 4.259,-6.83 10.256,-12.052 17.992,-15.665 10.318,16.763 22.697,33.334 37.139,49.711 14.451,16.388 30.511,30.194 48.18,41.418 17.669,11.2241 36.436,16.8361 56.302,16.8361 15.742,0 29.288,-3.6806 40.637,-11.0421 11.349,-7.35 20.183,-16.57 26.503,-27.658 6.32,-11.089 9.48,-22.568 9.48,-34.437 0,-15.222 -5.159,-28.123 -15.477,-38.701 -26.311,-27.081 -72.357,-40.621 -138.138,-40.621 z m 3.482,34.437 c 14.442,0 28.95,0.708 43.527,2.124 14.576,1.416 26.378,3.415 35.405,5.997 12.64,3.613 23.603,8.386 32.891,14.321 9.287,5.935 13.931,13.03 13.931,21.287 0,6.705 -2.192,13.343 -6.575,19.912 -4.384,6.581 -10.834,12.13 -19.351,16.649 -8.516,4.519 -19.095,6.778 -31.735,6.778 -9.027,0 -19.798,-2.712 -32.313,-8.137 -12.504,-5.414 -25.597,-14.186 -39.278,-26.316 -13.671,-12.119 -27.341,-28.372 -41.012,-48.758 5.675,-1.281 11.542,-2.244 17.601,-2.889 6.07,-0.646 15.04,-0.968 26.909,-0.968 z m 18.57,166.7804 c -5.675,0 -10.448,1.9313 -14.322,5.7941 -3.862,3.8732 -5.794,9.0322 -5.794,15.4771 0,5.9347 1.932,10.90111 5.794,14.89922 C 197.345,-1.99906 202.118,0 207.793,0 c 12.119,0 18.824,-6.96547 20.115,-20.8964 0,-13.1501 -6.705,-20.2405 -20.115,-21.2712 z"
                               style="fill:#f81436;fill-opacity:1;fill-rule:nonzero;stroke:none"
                               id="path163808" />
                          </g>
                        </g>
                      </g>
                    </g>
                  </g>
                </g>
              </g>
            </g>
          </g>
        </g>
      </g>
    </g>
  </g>
</svg>
