<?xml version="1.0" encoding="UTF-8" standalone="no"?>
<!-- Created with Inkscape (http://www.inkscape.org/) -->

<svg
   version="1.1"
   id="svg163846"
   width="266.66666"
   height="266.66666"
   viewBox="0 0 266.66666 266.66666"
   sodipodi:docname="510_lf2.pdf"
   xmlns:inkscape="http://www.inkscape.org/namespaces/inkscape"
   xmlns:sodipodi="http://sodipodi.sourceforge.net/DTD/sodipodi-0.dtd"
   xmlns="http://www.w3.org/2000/svg"
   xmlns:svg="http://www.w3.org/2000/svg">
  <defs
     id="defs163850" />
  <sodipodi:namedview
     id="namedview163848"
     pagecolor="#ffffff"
     bordercolor="#000000"
     borderopacity="0.25"
     inkscape:showpageshadow="2"
     inkscape:pageopacity="0.0"
     inkscape:pagecheckerboard="0"
     inkscape:deskcolor="#d1d1d1" />
  <g
     id="g163852"
     inkscape:groupmode="layer"
     inkscape:label="510_lf294"
     transform="matrix(1.3333333,0,0,-1.3333333,0,266.66667)">
    <g
       id="g163854">
      <g
         id="g163856">
        <g
           id="g163858"
           transform="translate(28.60667,150.4326)">
          <g
             id="g163860">
            <path
               d="m 29.53811,-108.86513 c -9.37405,0 -16.64143,2.77466 -21.80219,8.32398 C 2.57864,-94.99516 0,-87.83684 0,-79.06685 c 0,6.36498 1.58953,12.98697 4.76859,19.86563 l 6.96545,-1.291 C 9.75582,-66.59688 8.76668,-71.7142 8.76668,-75.84419 c 0,-4.81399 1.0325,-8.83265 3.0975,-12.05698 2.06499,-3.224 4.77379,-5.63099 8.12638,-7.22065 3.35256,-1.593 7.00709,-2.38933 10.96355,-2.38933 5.41749,0 10.38415,1.22499 14.89914,3.67532 4.51532,2.45033 7.71865,6.34066 9.60998,11.67165 0.60067,1.291 0.90067,2.62366 0.90067,3.99799 0,7.91299 -2.45,17.2003 -7.35066,27.86195 l 9.02699,4.12799 1.16099,-3.35233 c 1.548,-4.98732 3.09566,-8.66431 4.64366,-11.03131 1.54767,-2.36333 3.61266,-4.19066 6.19499,-5.48165 3.43933,5.59098 7.54499,11.09531 12.31698,16.51296 4.77199,5.41733 10.10298,9.97432 15.99264,13.67065 5.88932,3.69952 12.14531,5.54935 18.76696,5.54935 5.24766,0 9.78365,-1.22686 13.60831,-3.68069 3.82799,-2.45 6.79532,-5.52332 8.90198,-9.21932 2.10666,-3.69632 3.16,-7.52265 3.16,-11.47898 0,-5.07399 -1.763,-9.39498 -5.28933,-12.96264 -3.52599,-3.56799 -7.95465,-6.38432 -13.28531,-8.44932 -8.68331,-3.35266 -19.30329,-5.02865 -31.85994,-5.02865 -7.48265,0 -13.41731,0.60033 -17.80396,1.80099 -4.38333,1.20433 -7.77932,2.839 -10.18799,4.90399 0,-4.46999 -0.34366,-8.33965 -1.03066,-11.60897 -2.322,-7.22232 -6.45032,-12.83265 -12.38498,-16.83064 -5.93099,-4.00166 -13.06664,-6.00232 -21.40646,-6.00232 z M 92.7375,-69.6492 c 4.81699,0 9.63264,0.23599 14.4463,0.70799 4.81699,0.472 8.73032,1.13834 11.73931,1.999 10.31798,3.00899 15.47698,7.00699 15.47698,11.99431 0,2.15166 -0.73067,4.32266 -2.19167,6.51232 -1.46133,2.19367 -3.56799,4.04333 -6.31999,5.54966 -2.75232,1.50633 -6.14832,2.25933 -10.18798,2.25933 -3.18232,0 -6.85965,-0.88167 -11.03131,-2.64466 -4.16799,-1.763 -8.55298,-4.66599 -13.15498,-8.70932 -4.60199,-4.03966 -9.18165,-9.41398 -13.7383,-16.12264 3.69966,-1.03066 8.68665,-1.54599 14.96164,-1.54599 z m 5.80432,55.59336 c -1.89133,0 -3.46,0.64376 -4.70599,1.93136 -1.246,1.29107 -1.869,3.01073 -1.869,5.15903 0,1.97823 0.623,3.63369 1.869,4.96639 C 95.08182,-0.66635 96.69382,0 98.67215,0 c 4.04333,0 6.27999,-2.32182 6.71032,-6.96545 0,-4.38336 -2.28033,-6.74682 -6.84065,-7.09039 z"
               style="fill:#000000;fill-opacity:1;fill-rule:nonzero;stroke:none"
               id="path163862" />
          </g>
        </g>
      </g>
    </g>
  </g>
</svg>
