<?xml version="1.0" encoding="UTF-8" standalone="no"?>
<!-- Created with Inkscape (http://www.inkscape.org/) -->

<svg
   version="1.1"
   id="svg163873"
   width="266.66666"
   height="266.66666"
   viewBox="0 0 266.66666 266.66666"
   sodipodi:docname="511_lf1.pdf"
   xmlns:inkscape="http://www.inkscape.org/namespaces/inkscape"
   xmlns:sodipodi="http://sodipodi.sourceforge.net/DTD/sodipodi-0.dtd"
   xmlns="http://www.w3.org/2000/svg"
   xmlns:svg="http://www.w3.org/2000/svg">
  <defs
     id="defs163877">
    <clipPath
       clipPathUnits="userSpaceOnUse"
       id="clipPath163893">
      <path
         d="M 0,0 H 100.55667 V -85.77705 H 0 Z"
         clip-rule="evenodd"
         id="path163891" />
    </clipPath>
    <clipPath
       clipPathUnits="userSpaceOnUse"
       id="clipPath163903">
      <path
         d="m 0,-257.33195 h 301.67095 v 514.6639 H 0 Z"
         id="path163901" />
    </clipPath>
  </defs>
  <sodipodi:namedview
     id="namedview163875"
     pagecolor="#ffffff"
     bordercolor="#000000"
     borderopacity="0.25"
     inkscape:showpageshadow="2"
     inkscape:pageopacity="0.0"
     inkscape:pagecheckerboard="0"
     inkscape:deskcolor="#d1d1d1" />
  <g
     id="g163879"
     inkscape:groupmode="layer"
     inkscape:label="511_lf195"
     transform="matrix(1.3333333,0,0,-1.3333333,0,266.66667)">
    <g
       id="g163881">
      <g
         id="g163883">
        <g
           id="g163885"
           transform="translate(49.72167,154.88852)">
          <g
             id="g163887">
            <g
               id="g163889"
               clip-path="url(#clipPath163893)">
              <g
                 id="g163895"
                 transform="matrix(0.33333,0,0,0.33333,0,-28.59226)">
                <g
                   id="g163897">
                  <g
                     id="g163899" />
                  <g
                     id="g163923">
                    <g
                       clip-path="url(#clipPath163903)"
                       id="g163921">
                      <g
                         transform="translate(0,-136.33711)"
                         id="g163911">
                        <g
                           id="g163909">
                          <g
                             id="g163907">
                            <path
                               d="M 121.896,-35.2178 H 19.3503 C 6.45009,-35.2178 0,-29.1529 0,-17.0232 0,-13.4208 1.35353,-9.68294 4.06059,-5.80976 6.76765,-1.93659 11.8642,0 19.3503,0 H 121.896 c 12.9,0 19.35,-5.93471 19.35,-17.8041 0,-3.6129 -1.359,-7.4184 -4.076,-11.4165 -2.707,-3.9981 -7.799,-5.9972 -15.274,-5.9972 z"
                               style="fill:#f81436;fill-opacity:1;fill-rule:nonzero;stroke:none"
                               id="path163905" />
                          </g>
                        </g>
                      </g>
                      <g
                         transform="translate(101.99934,85.77705)"
                         id="g163919">
                        <g
                           id="g163917">
                          <g
                             id="g163915">
                            <path
                               d="m 25.16,-257.332 h -5.8097 c -6.7052,0 -11.60395,1.869 -14.69624,5.607 C 1.55135,-247.977 0,-243.781 0,-239.137 c 0,3.602 1.35874,7.34 4.07621,11.213 2.70705,3.873 7.92859,5.81 15.66449,5.81 l 20.8964,0.375 c 16.2528,0.781 29.2779,1.556 39.0754,2.327 -5.1539,3.092 -10.443,7.283 -15.8676,12.572 -5.4141,5.289 -10.0577,11.609 -13.9309,18.96 -3.8628,7.361 -5.7942,15.685 -5.7942,24.972 0,21.667 7.6735,39.336 23.0205,53.007 15.3469,13.6703 33.4687,20.5056 54.3647,20.5056 20.647,0 36.9,-4.5135 48.759,-13.5406 l 3.482,-29.408 c -6.184,3.873 -13.988,6.841 -23.411,8.902 -9.412,2.062 -18.762,3.092 -28.049,3.092 -15.732,0 -28.502,-3.998 -38.3099,-11.994 -9.8079,-7.996 -14.7118,-17.669 -14.7118,-29.018 0,-17.033 12.5149,-32.125 37.5447,-45.275 8.517,-4.644 16.773,-6.966 24.77,-6.966 7.736,0 18.116,1.224 31.141,3.671 13.025,2.457 25.342,6.132 36.952,11.026 l -5.029,-33.656 c -15.993,-7.226 -40.565,-13.161 -73.716,-17.804 -33.1506,-4.644 -65.0731,-6.966 -95.767,-6.966 z m 78.932,215.5392 c -5.6748,0 -10.4486,1.8689 -14.3218,5.6067 -3.8627,3.7378 -5.7941,8.8344 -5.7941,15.2897 0,12.37958 6.7052,19.34505 20.1159,20.8964 12.129,0 18.84,-6.96547 20.131,-20.8964 0,-12.6399 -6.711,-19.6054 -20.131,-20.8964 z"
                               style="fill:#f81436;fill-opacity:1;fill-rule:nonzero;stroke:none"
                               id="path163913" />
                          </g>
                        </g>
                      </g>
                    </g>
                  </g>
                </g>
              </g>
            </g>
          </g>
        </g>
      </g>
    </g>
  </g>
</svg>
