<?xml version="1.0" encoding="UTF-8" standalone="no"?>
<!-- Created with Inkscape (http://www.inkscape.org/) -->

<svg
   version="1.1"
   id="svg163951"
   width="266.66666"
   height="266.66666"
   viewBox="0 0 266.66666 266.66666"
   sodipodi:docname="511_lf2.pdf"
   xmlns:inkscape="http://www.inkscape.org/namespaces/inkscape"
   xmlns:sodipodi="http://sodipodi.sourceforge.net/DTD/sodipodi-0.dtd"
   xmlns="http://www.w3.org/2000/svg"
   xmlns:svg="http://www.w3.org/2000/svg">
  <defs
     id="defs163955" />
  <sodipodi:namedview
     id="namedview163953"
     pagecolor="#ffffff"
     bordercolor="#000000"
     borderopacity="0.25"
     inkscape:showpageshadow="2"
     inkscape:pageopacity="0.0"
     inkscape:pagecheckerboard="0"
     inkscape:deskcolor="#d1d1d1" />
  <g
     id="g163957"
     inkscape:groupmode="layer"
     inkscape:label="511_lf296"
     transform="matrix(1.3333333,0,0,-1.3333333,0,266.66667)">
    <g
       id="g163959">
      <g
         id="g163961">
        <g
           id="g163963"
           transform="translate(65.36833,142.74959)">
          <g
             id="g163965">
            <path
               d="m 46.56604,-141.49911 c -14.27437,0 -25.60395,3.26729 -33.98881,9.80254 C 4.19241,-125.16166 0,-116.43311 0,-105.51126 c 0,6.19125 1.69709,11.84485 5.0913,16.96044 3.39765,5.1156 8.06379,9.47988 13.99841,13.0925 -4.5568,2.75229 -8.01869,6.01958 -10.38559,9.80253 -2.36344,3.78295 -3.54516,7.73923 -3.54516,11.86918 0,6.70524 2.5786,12.42283 7.73583,17.15343 5.1607,4.73024 11.56732,7.09541 19.21988,7.09541 7.13881,0 12.8584,-1.54788 17.15834,-4.64344 l 0.77565,-9.54754 c -4.56027,2.6653 -10.45152,3.99795 -17.67373,3.99795 -4.21321,0 -7.71846,-0.75299 -10.51572,-2.25931 -2.7938,-1.50264 -4.85704,-3.32995 -6.18972,-5.48159 -1.33268,-2.1483 -1.99904,-4.21161 -1.99904,-6.18992 0,-3.43928 1.63291,-6.64257 4.89867,-9.60987 3.26925,-2.96396 6.88211,-4.96293 10.83852,-5.99692 2.66536,0.77366 12.4678,3.82795 29.40757,9.16221 L 57.0089,-72.2357 c -8.59655,-1.97497 -17.06643,-4.46861 -25.40962,-7.4809 -7.30897,-2.8353 -12.83406,-6.40325 -16.57531,-10.70319 -3.73775,-4.29994 -5.60666,-9.03021 -5.60666,-14.19114 0,-3.60929 1.24591,-7.45624 3.73778,-11.54118 2.4953,-4.08495 6.64435,-7.58824 12.4471,-10.51053 5.80622,-2.92563 13.60962,-4.38861 23.41049,-4.38861 6.19158,0 12.94182,0.68899 20.25073,2.06697 l -3.99828,-9.93286 c -5.07393,-1.72131 -11.30685,-2.58197 -18.69909,-2.58197 z m -21.15648,127.4382 c -1.89144,0 -3.46185,0.64379 -4.71124,1.93137 -1.24595,1.29105 -1.86891,3.01243 -1.86891,5.16417 0,1.9782 0.62296,3.63365 1.86891,4.96634 C 21.94771,-0.66634 23.56152,0 25.53973,0 c 1.9782,0 3.56771,-0.66634 4.7685,-1.99903 1.20428,-1.33269 1.80644,-2.98814 1.80644,-4.96634 0,-4.38678 -2.23504,-6.75195 -6.70511,-7.09554 z"
               style="fill:#000000;fill-opacity:1;fill-rule:nonzero;stroke:none"
               id="path163967" />
          </g>
        </g>
      </g>
    </g>
  </g>
</svg>
