<?xml version="1.0" encoding="UTF-8" standalone="no"?>
<!-- Created with Inkscape (http://www.inkscape.org/) -->

<svg
   version="1.1"
   id="svg163978"
   width="266.66666"
   height="266.66666"
   viewBox="0 0 266.66666 266.66666"
   sodipodi:docname="520_lf1.pdf"
   xmlns:inkscape="http://www.inkscape.org/namespaces/inkscape"
   xmlns:sodipodi="http://sodipodi.sourceforge.net/DTD/sodipodi-0.dtd"
   xmlns="http://www.w3.org/2000/svg"
   xmlns:svg="http://www.w3.org/2000/svg">
  <defs
     id="defs163982">
    <clipPath
       clipPathUnits="userSpaceOnUse"
       id="clipPath163998">
      <path
         d="M 0,0 H 70.76333 V -95.06409 H 0 Z"
         clip-rule="evenodd"
         id="path163996" />
    </clipPath>
    <clipPath
       clipPathUnits="userSpaceOnUse"
       id="clipPath164008">
      <path
         d="M 0,-285.19383 H 212.29116 V 285.19383 H 0 Z"
         id="path164006" />
    </clipPath>
  </defs>
  <sodipodi:namedview
     id="namedview163980"
     pagecolor="#ffffff"
     bordercolor="#000000"
     borderopacity="0.25"
     inkscape:showpageshadow="2"
     inkscape:pageopacity="0.0"
     inkscape:pagecheckerboard="0"
     inkscape:deskcolor="#d1d1d1" />
  <g
     id="g163984"
     inkscape:groupmode="layer"
     inkscape:label="520_lf197"
     transform="matrix(1.3333333,0,0,-1.3333333,0,266.66667)">
    <g
       id="g163986">
      <g
         id="g163988">
        <g
           id="g163990"
           transform="translate(64.61833,164.53205)">
          <g
             id="g163992">
            <g
               id="g163994"
               clip-path="url(#clipPath163998)">
              <g
                 id="g164000"
                 transform="matrix(0.33333,0,0,0.33333,0,-31.68786)">
                <g
                   id="g164002">
                  <g
                     id="g164004" />
                  <g
                     id="g164028">
                    <g
                       clip-path="url(#clipPath164008)"
                       id="g164026">
                      <g
                         transform="translate(0,-154.91195)"
                         id="g164016">
                        <g
                           id="g164014">
                          <g
                             id="g164012">
                            <path
                               d="M 121.896,-35.2178 H 19.3503 C 6.45009,-35.2178 0,-29.1529 0,-17.0232 0,-13.4208 1.35353,-9.68294 4.06059,-5.80976 6.76765,-1.93659 11.8642,0 19.3503,0 H 121.896 c 12.9,0 19.35,-5.93471 19.35,-17.8041 0,-3.6129 -1.359,-7.4184 -4.076,-11.4165 -2.707,-3.9981 -7.799,-5.9972 -15.274,-5.9972 z"
                               style="fill:#f81436;fill-opacity:1;fill-rule:nonzero;stroke:none"
                               id="path164010" />
                          </g>
                        </g>
                      </g>
                      <g
                         transform="translate(102.38979,95.06409)"
                         id="g164024">
                        <g
                           id="g164022">
                          <g
                             id="g164020">
                            <path
                               d="m 74.6836,-87.8493 c -5.6744,0 -10.3181,1.869 -13.931,5.6068 -3.6128,3.7482 -5.4193,8.8448 -5.4193,15.2897 0,5.6744 1.8065,10.4482 5.4193,14.3213 3.6129,3.8732 8.2566,5.8098 13.931,5.8098 5.9347,0 10.5783,-1.9366 13.9309,-5.8098 3.3526,-3.8731 5.0289,-8.6469 5.0289,-14.3213 0,-12.6399 -6.3199,-19.6054 -18.9598,-20.8965 z m -51.4602,0 c -5.6744,0 -10.318,1.869 -13.9309,5.6068 -3.61288,3.7482 -5.41932,8.8448 -5.41932,15.2897 0,5.6744 1.86891,10.4482 5.60673,14.3213 3.73779,3.8732 8.31899,5.8098 13.74349,5.8098 5.9347,0 10.7033,-1.9366 14.3058,-5.8098 3.6129,-3.8731 5.4193,-8.6469 5.4193,-14.3213 0,-12.6399 -6.575,-19.6054 -19.7251,-20.8965 z m 25.9253,46.8217 c -11.0989,0 -17.2887,6.8406 -18.5693,20.5216 0,5.9243 1.6762,10.82306 5.0288,14.69624 C 38.9608,-1.93659 43.4743,0 49.1487,0 61.268,0 67.8431,-6.83532 68.8738,-20.506 c 0,-12.6503 -6.575,-19.4908 -19.7251,-20.5216 z M 25.16,-285.194 H 19.3503 C 6.45009,-285.194 0,-279.129 0,-266.999 c 0,3.602 1.35353,7.34 4.06059,11.213 2.70706,3.873 7.80361,5.81 15.28971,5.81 h 7.7463 c 27.8515,0 46.0356,2.967 54.5525,8.902 l 0.7808,3.092 c 1.0308,3.353 1.5462,7.351 1.5462,11.995 0,4.643 -0.9058,9.287 -2.7175,13.931 -1.8012,4.643 -5.1538,10.833 -10.0578,18.569 l -6.575,11.229 28.2523,11.214 c 11.3489,-21.147 17.0229,-42.428 17.0229,-63.845 0,-10.579 -2.066,-21.027 -6.2,-31.345 -4.6435,-4.904 -12.3846,-9.293 -23.2233,-13.166 -10.8282,-3.862 -29.2674,-5.794 -55.3177,-5.794 z"
                               style="fill:#f81436;fill-opacity:1;fill-rule:nonzero;stroke:none"
                               id="path164018" />
                          </g>
                        </g>
                      </g>
                    </g>
                  </g>
                </g>
              </g>
            </g>
          </g>
        </g>
      </g>
    </g>
  </g>
</svg>
