<?xml version="1.0" encoding="UTF-8" standalone="no"?>
<!-- Created with Inkscape (http://www.inkscape.org/) -->

<svg
   version="1.1"
   id="svg164056"
   width="266.66666"
   height="266.66666"
   viewBox="0 0 266.66666 266.66666"
   sodipodi:docname="520_lf2.pdf"
   xmlns:inkscape="http://www.inkscape.org/namespaces/inkscape"
   xmlns:sodipodi="http://sodipodi.sourceforge.net/DTD/sodipodi-0.dtd"
   xmlns="http://www.w3.org/2000/svg"
   xmlns:svg="http://www.w3.org/2000/svg">
  <defs
     id="defs164060" />
  <sodipodi:namedview
     id="namedview164058"
     pagecolor="#ffffff"
     bordercolor="#000000"
     borderopacity="0.25"
     inkscape:showpageshadow="2"
     inkscape:pageopacity="0.0"
     inkscape:pagecheckerboard="0"
     inkscape:deskcolor="#d1d1d1" />
  <g
     id="g164062"
     inkscape:groupmode="layer"
     inkscape:label="520_lf298"
     transform="matrix(1.3333333,0,0,-1.3333333,0,266.66667)">
    <g
       id="g164064">
      <g
         id="g164066">
        <g
           id="g164068"
           transform="translate(49.82333,155.20863)">
          <g
             id="g164070">
            <path
               d="M 45.27546,-86.41728 C 15.0918,-86.41728 0,-74.98166 0,-52.11076 c 0,5.84797 0.94573,11.18061 2.83719,15.99759 l 6.96543,-1.42099 c -0.94399,-3.35266 -1.41599,-6.96364 -1.41599,-10.83362 0,-17.62692 12.51141,-26.48388 37.53416,-26.57055 19.60525,0 34.73885,2.19166 45.40046,6.57497 0.08667,0.69067 0.13,1.55133 0.13,2.58199 -0.25666,9.11396 -3.30898,19.04658 -9.15695,29.79853 l 9.28729,2.57699 c 2.23499,-3.95665 4.25464,-8.85863 6.05964,-14.7066 1.80799,-5.84464 2.71198,-12.07761 2.71198,-18.69958 0,-3.95632 -0.43033,-7.13897 -1.29099,-9.54763 -15.5656,-6.70496 -33.49452,-10.05762 -53.78676,-10.05762 z m 12.50961,57.13955 c -1.89166,0 -3.43932,0.62296 -4.64364,1.86889 -1.20433,1.24592 -1.80633,2.94478 -1.80633,5.09654 0,1.89146 0.602,3.48099 1.80633,4.76855 1.20432,1.29106 2.75198,1.93659 4.64364,1.93659 1.97833,0 3.52599,-0.64553 4.64365,-1.93659 1.11733,-1.28756 1.67632,-2.87709 1.67632,-4.76855 0,-4.21328 -2.10665,-6.5351 -6.31997,-6.96543 z m -17.15325,0 c -1.89166,0 -3.43932,0.62296 -4.64365,1.86889 -1.20433,1.24592 -1.80666,2.94478 -1.80666,5.09654 0,1.89146 0.623,3.48099 1.86899,4.76855 1.24933,1.29106 2.77666,1.93659 4.58132,1.93659 1.97799,0 3.56931,-0.64553 4.77364,-1.93659 1.20433,-1.28756 1.80633,-2.87709 1.80633,-4.76855 0,-4.21328 -2.19333,-6.5351 -6.57997,-6.96543 z m 8.64162,15.60716 c -3.69631,0 -5.7593,2.27842 -6.18963,6.83527 0,1.97822 0.55866,3.61114 1.67632,4.89872 C 45.87746,-0.64553 47.38212,0 49.27344,0 c 4.03965,0 6.23331,-2.27843 6.58031,-6.8353 0,-4.21328 -2.19366,-6.49171 -6.58031,-6.83527 z"
               style="fill:#12100b;fill-opacity:1;fill-rule:nonzero;stroke:none"
               id="path164072" />
          </g>
        </g>
      </g>
    </g>
  </g>
</svg>
