<?xml version="1.0" encoding="UTF-8" standalone="no"?>
<!-- Created with Inkscape (http://www.inkscape.org/) -->

<svg
   version="1.1"
   id="svg164083"
   width="266.66666"
   height="266.66666"
   viewBox="0 0 266.66666 266.66666"
   sodipodi:docname="521_lf1.pdf"
   xmlns:inkscape="http://www.inkscape.org/namespaces/inkscape"
   xmlns:sodipodi="http://sodipodi.sourceforge.net/DTD/sodipodi-0.dtd"
   xmlns="http://www.w3.org/2000/svg"
   xmlns:svg="http://www.w3.org/2000/svg">
  <defs
     id="defs164087" />
  <sodipodi:namedview
     id="namedview164085"
     pagecolor="#ffffff"
     bordercolor="#000000"
     borderopacity="0.25"
     inkscape:showpageshadow="2"
     inkscape:pageopacity="0.0"
     inkscape:pagecheckerboard="0"
     inkscape:deskcolor="#d1d1d1" />
  <g
     id="g164089"
     inkscape:groupmode="layer"
     inkscape:label="521_lf199"
     transform="matrix(1.3333333,0,0,-1.3333333,0,266.66667)">
    <g
       id="g164091">
      <g
         id="g164093">
        <g
           id="g164095"
           transform="translate(54.53167,162.82187)">
          <g
             id="g164097">
            <path
               d="m 27.73183,-93.64366 h -3.61288 c -5.16078,0 -11.86774,0.55867 -20.1208,1.67634 L 0,-79.97295 c 4.55688,-1.28767 9.88773,-1.93134 15.99252,-1.93134 1.37437,2.23501 2.49191,4.34168 3.35261,6.31969 0.86071,1.97834 1.29104,4.42868 1.29104,7.35103 L 18.05406,-0.77047 27.6017,0 29.40814,-46.5615 c 0.25683,-5.16102 0.38523,-9.20236 0.38523,-12.12471 -0.08677,-2.92567 -0.21517,-5.20568 -0.38523,-6.84035 4.90031,6.27835 10.46733,11.4807 16.70036,15.60705 6.23668,4.13002 12.66604,6.19502 19.28806,6.19502 5.15736,0 9.64837,-1.18334 13.47272,-3.55034 3.82834,-2.36335 6.79569,-5.39502 8.90236,-9.0947 2.11001,-3.69602 3.16501,-7.56403 3.16501,-11.60404 0,-2.23834 -0.34533,-4.56035 -1.036,-6.96536 -2.66534,-8.7737 -12.29638,-14.44972 -28.89277,-17.02839 -7.30902,-1.11767 -18.40106,-1.67634 -33.27605,-1.67634 z m 2.57691,11.73937 c 8.94373,0 17.17776,0.27934 24.70212,0.838 7.52403,0.55867 12.96271,1.33268 16.31506,2.32168 3.35634,0.98934 6.06502,2.27867 8.12669,3.86801 2.06501,1.58967 3.09735,3.84735 3.09735,6.77303 0,1.97834 -0.66634,4.04134 -1.99901,6.18969 -1.33267,2.152 -3.37534,4.00168 -6.12735,5.54968 -2.75235,1.54767 -6.19169,2.32168 -10.31804,2.32168 -5.41769,0 -11.52437,-2.25768 -18.31973,-6.77269 -6.79203,-4.51535 -13.28365,-11.54505 -19.4752,-21.08908 z m 27.21646,54.43276 c -1.89134,0 -3.48268,0.6438 -4.77368,1.93137 -1.28767,1.29107 -1.93167,3.01075 -1.93167,5.15905 0,1.97825 0.644,3.63372 1.93167,4.96646 1.291,1.3327 2.88234,1.99904 4.77368,1.99904 4.04335,0 6.28002,-2.32181 6.71036,-6.9655 0,-4.38334 -2.23667,-6.74685 -6.71036,-7.09042 z"
               style="fill:#f81436;fill-opacity:1;fill-rule:nonzero;stroke:none"
               id="path164099" />
          </g>
        </g>
      </g>
    </g>
  </g>
</svg>
