<?xml version="1.0" encoding="UTF-8" standalone="no"?>
<!-- Created with Inkscape (http://www.inkscape.org/) -->

<svg
   version="1.1"
   id="svg164110"
   width="266.66666"
   height="266.66666"
   viewBox="0 0 266.66666 266.66666"
   sodipodi:docname="530_lf1.pdf"
   xmlns:inkscape="http://www.inkscape.org/namespaces/inkscape"
   xmlns:sodipodi="http://sodipodi.sourceforge.net/DTD/sodipodi-0.dtd"
   xmlns="http://www.w3.org/2000/svg"
   xmlns:svg="http://www.w3.org/2000/svg">
  <defs
     id="defs164114" />
  <sodipodi:namedview
     id="namedview164112"
     pagecolor="#ffffff"
     bordercolor="#000000"
     borderopacity="0.25"
     inkscape:showpageshadow="2"
     inkscape:pageopacity="0.0"
     inkscape:pagecheckerboard="0"
     inkscape:deskcolor="#d1d1d1" />
  <g
     id="g164116"
     inkscape:groupmode="layer"
     inkscape:label="530_lf1100"
     transform="matrix(1.3333333,0,0,-1.3333333,0,266.66667)">
    <g
       id="g164118">
      <g
         id="g164120">
        <g
           id="g164122"
           transform="translate(85.87667,161.68466)">
          <g
             id="g164124">
            <path
               d="M 17.54355,-93.64185 H 7.86598 L 4.25833,-0.77046 13.93071,0 Z M 0,-129.36928 l 0.77566,6.05957 c 0.6004,0.34366 1.50274,0.68899 2.70702,1.03599 1.20428,0.34332 2.2784,0.51532 3.22238,0.51532 -3.09572,1.97464 -4.64356,4.63993 -4.64356,7.99621 0,3.52594 1.33268,6.23457 3.99804,8.1262 2.66539,1.89131 5.71944,2.83696 9.16222,2.83696 5.07045,0 8.76656,-1.11732 11.08836,-3.35228 l -1.93137,-5.93491 c -2.83889,1.89164 -5.93461,2.83729 -9.28712,2.83729 -2.15174,0 -3.80894,-0.49466 -4.97156,-1.48364 -1.15915,-0.98899 -1.73874,-2.0423 -1.73874,-3.15995 0,-4.12627 3.82801,-6.36157 11.48399,-6.7049 h 8.38133 l -2.57686,-6.58023 h -8.38653 c -7.65255,0 -13.41362,-0.73065 -17.28326,-2.19163 z"
               style="fill:#f81436;fill-opacity:1;fill-rule:nonzero;stroke:none"
               id="path164126" />
          </g>
        </g>
      </g>
    </g>
  </g>
</svg>
