<?xml version="1.0" encoding="UTF-8" standalone="no"?>
<!-- Created with Inkscape (http://www.inkscape.org/) -->

<svg
   version="1.1"
   id="svg164137"
   width="266.66666"
   height="266.66666"
   viewBox="0 0 266.66666 266.66666"
   sodipodi:docname="531_lf1.pdf"
   xmlns:inkscape="http://www.inkscape.org/namespaces/inkscape"
   xmlns:sodipodi="http://sodipodi.sourceforge.net/DTD/sodipodi-0.dtd"
   xmlns="http://www.w3.org/2000/svg"
   xmlns:svg="http://www.w3.org/2000/svg">
  <defs
     id="defs164141">
    <clipPath
       clipPathUnits="userSpaceOnUse"
       id="clipPath164159">
      <path
         d="M 0,-470.62252 H 200 V 470.62252 H 0 Z"
         id="path164157" />
    </clipPath>
  </defs>
  <sodipodi:namedview
     id="namedview164139"
     pagecolor="#ffffff"
     bordercolor="#000000"
     borderopacity="0.25"
     inkscape:showpageshadow="2"
     inkscape:pageopacity="0.0"
     inkscape:pagecheckerboard="0"
     inkscape:deskcolor="#d1d1d1" />
  <g
     id="g164143"
     inkscape:groupmode="layer"
     inkscape:label="531_lf1101"
     transform="matrix(1.3333333,0,0,-1.3333333,0,266.66667)">
    <g
       id="g164145">
      <g
         id="g164147">
        <g
           id="g164149"
           transform="translate(85.87667,199.43584)">
          <g
             id="g164151"
             transform="matrix(0.33333,0,0,0.33333,0,-52.28973)">
            <g
               id="g164153">
              <g
                 id="g164155" />
              <g
                 id="g164179">
                <g
                   clip-path="url(#clipPath164159)"
                   id="g164177">
                  <g
                     transform="translate(12.29883,156.87168)"
                     id="g164167">
                    <g
                       id="g164165">
                      <g
                         id="g164163">
                        <path
                           d="m 15.8675,-65.7815 c -7.22574,0 -12.51491,1.1609 -15.8675,3.4827 v 9.6673 c 4.90394,-1.0307 9.2925,-1.5461 13.1657,-1.5461 4.123,0 8.6365,0.9006 13.5405,2.7018 4.9039,1.8117 8.5168,4.3938 10.8386,7.7464 h -3.1079 c -6.4449,0 -12.1818,1.6763 -17.2106,5.0289 -5.0289,3.3526 -7.54336,8.7719 -7.54336,16.2579 0,6.4449 2.19166,11.7966 6.57506,16.05498 C 20.6413,-2.12921 26.0606,0 32.5159,0 c 4.3834,0 9.0895,-2.06674 14.1184,-6.20021 5.0289,-4.12309 7.5433,-10.95839 7.5433,-20.50599 0,-12.6399 -4.1907,-22.3124 -12.5722,-29.0176 -8.3815,-6.7051 -16.9608,-10.0577 -25.7379,-10.0577 z m 27.0966,32.5003 0.3749,5.4193 c 0,3.8732 -0.9683,7.5485 -2.9049,11.0261 -1.9262,3.4879 -5.4714,5.2319 -10.6356,5.2319 -2.5821,0 -4.904,-0.8382 -6.9655,-2.5145 -2.0615,-1.6762 -3.0923,-3.9356 -3.0923,-6.778 0,-3.0923 1.6763,-5.9295 5.0289,-8.5116 3.3526,-2.5821 8.2565,-3.8732 14.7118,-3.8732 z"
                           style="fill:#f81436;fill-opacity:1;fill-rule:nonzero;stroke:none"
                           id="path164161" />
                      </g>
                    </g>
                  </g>
                  <g
                     transform="translate(0,72.44231)"
                     id="g164175">
                    <g
                       id="g164173">
                      <g
                         id="g164171">
                        <path
                           d="M 70.4356,-386.193 H 41.4024 l -10.823,278.619 29.0175,2.311 z M 0,-79.7281 2.32703,-61.5335 c 1.80123,1.0307 4.50829,2.0615 8.12117,3.0923 3.6129,1.0307 6.8405,1.5461 9.6829,1.5461 -9.2872,5.9347 -13.93089,13.9362 -13.93089,24.0043 0,10.568 3.99809,18.6892 11.99439,24.36357 C 26.1908,-2.84241 35.3479,0 45.666,0 60.888,0 71.9817,-3.35779 78.9472,-10.0734 L 72.747,-27.8619 c -7.9962,5.6744 -17.2835,8.5116 -27.8619,8.5116 -6.4449,0 -11.3436,-1.4836 -14.6962,-4.451 -3.3526,-2.9673 -5.0289,-6.1273 -5.0289,-9.4799 0,-12.39 11.3489,-19.1004 34.0465,-20.1311 h 25.5348 l -7.7307,-19.7251 h -25.16 c -22.958,0 -40.2415,-2.1969 -51.8506,-6.5907 z"
                           style="fill:#f81436;fill-opacity:1;fill-rule:nonzero;stroke:none"
                           id="path164169" />
                      </g>
                    </g>
                  </g>
                </g>
              </g>
            </g>
          </g>
        </g>
      </g>
    </g>
  </g>
</svg>
