<?xml version="1.0" encoding="UTF-8" standalone="no"?>
<!-- Created with Inkscape (http://www.inkscape.org/) -->

<svg
   version="1.1"
   id="svg164335"
   width="266.66666"
   height="266.66666"
   viewBox="0 0 266.66666 266.66666"
   sodipodi:docname="533_lf2.pdf"
   xmlns:inkscape="http://www.inkscape.org/namespaces/inkscape"
   xmlns:sodipodi="http://sodipodi.sourceforge.net/DTD/sodipodi-0.dtd"
   xmlns="http://www.w3.org/2000/svg"
   xmlns:svg="http://www.w3.org/2000/svg">
  <defs
     id="defs164339" />
  <sodipodi:namedview
     id="namedview164337"
     pagecolor="#ffffff"
     bordercolor="#000000"
     borderopacity="0.25"
     inkscape:showpageshadow="2"
     inkscape:pageopacity="0.0"
     inkscape:pagecheckerboard="0"
     inkscape:deskcolor="#d1d1d1" />
  <g
     id="g164341"
     inkscape:groupmode="layer"
     inkscape:label="533_lf2104"
     transform="matrix(1.3333333,0,0,-1.3333333,0,266.66667)">
    <g
       id="g164343">
      <g
         id="g164345">
        <g
           id="g164347"
           transform="translate(59.88667,119.18004)">
          <g
             id="g164349">
            <path
               d="m 35.21215,-84.36009 c -11.0919,0 -19.73354,2.94662 -25.92499,8.83953 C 3.09572,-69.63098 0,-61.65576 0,-51.59457 c 0,7.65222 1.59124,15.00477 4.77373,22.05684 l 7.0903,-0.90582 C 10.05935,-35.94447 9.157,-41.53372 9.157,-47.21131 c 0,-6.7919 1.41771,-12.10015 4.25317,-15.92476 2.83889,-3.82794 6.42914,-6.51591 10.77081,-8.06388 4.3451,-1.54765 8.66764,-2.32164 12.96781,-2.32164 11.86549,0 21.02269,3.22429 27.47093,9.67253 2.92562,3.26895 4.3886,5.97791 4.3886,8.12621 0,0.77399 -0.27966,1.54765 -0.83832,2.32164 -0.55866,0.77398 -1.76298,1.63297 -3.61295,2.57696 -1.84964,0.94732 -4.70926,2.0233 -8.57887,3.22762 l -6.45024,2.0613 c -5.33059,1.63464 -8.9642,3.59028 -10.90084,5.86725 -1.93297,2.27996 -2.89963,5.35492 -2.89963,9.22453 0,2.92565 0.70966,6.25737 2.12931,9.99515 1.41931,3.74125 3.76194,7.37489 7.02756,10.90094 C 51.33624,-3.18248 58.17314,0 65.39537,0 73.13459,0 78.07852,-3.99981 80.22682,-11.99939 l -6.18991,-7.0903 c -2.57863,5.93115 -6.27657,8.89671 -11.0935,8.89671 -3.69628,0 -6.9429,-0.98909 -9.74019,-2.96729 -2.79363,-1.97474 -4.98693,-4.31734 -6.57991,-7.02783 -1.58964,-2.70703 -2.38429,-5.17979 -2.38429,-7.41829 0,-1.37432 0.57965,-2.62027 1.73864,-3.73775 1.16265,-1.11752 3.63728,-2.27837 7.42355,-3.48268 l 9.2872,-2.96729 c 4.72693,-1.37431 8.44388,-3.11662 11.15084,-5.22659 2.71029,-2.10664 4.0656,-5.22326 4.0656,-9.34986 0,-6.53491 -2.45029,-12.42449 -7.35055,-17.66841 -4.6436,-4.90393 -10.06119,-8.51654 -16.25243,-10.83851 -6.19158,-2.32163 -12.55482,-3.48261 -19.08972,-3.48261 z"
               style="fill:#000000;fill-opacity:1;fill-rule:nonzero;stroke:none"
               id="path164351" />
          </g>
        </g>
      </g>
    </g>
  </g>
</svg>
