<?xml version="1.0" encoding="UTF-8" standalone="no"?>
<!-- Created with Inkscape (http://www.inkscape.org/) -->

<svg
   version="1.1"
   id="svg164269"
   width="266.66666"
   height="266.66666"
   viewBox="0 0 266.66666 266.66666"
   sodipodi:docname="533_lf1.pdf"
   xmlns:inkscape="http://www.inkscape.org/namespaces/inkscape"
   xmlns:sodipodi="http://sodipodi.sourceforge.net/DTD/sodipodi-0.dtd"
   xmlns="http://www.w3.org/2000/svg"
   xmlns:svg="http://www.w3.org/2000/svg">
  <defs
     id="defs164273">
    <clipPath
       clipPathUnits="userSpaceOnUse"
       id="clipPath164291">
      <path
         d="M 0,-169.87313 H 357.31687 V 169.87313 H 0 Z"
         id="path164289" />
    </clipPath>
  </defs>
  <sodipodi:namedview
     id="namedview164271"
     pagecolor="#ffffff"
     bordercolor="#000000"
     borderopacity="0.25"
     inkscape:showpageshadow="2"
     inkscape:pageopacity="0.0"
     inkscape:pagecheckerboard="0"
     inkscape:deskcolor="#d1d1d1" />
  <g
     id="g164275"
     inkscape:groupmode="layer"
     inkscape:label="533_lf1103"
     transform="matrix(1.3333333,0,0,-1.3333333,0,266.66667)">
    <g
       id="g164277">
      <g
         id="g164279">
        <g
           id="g164281"
           transform="translate(40.44667,91.31244)">
          <g
             id="g164283"
             transform="matrix(0.33334,0,0,0.33334,0,-18.87512)">
            <g
               id="g164285">
              <g
                 id="g164287" />
              <g
                 id="g164311">
                <g
                   clip-path="url(#clipPath164291)"
                   id="g164309">
                  <g
                     transform="translate(0,56.62487)"
                     id="g164299">
                    <g
                       id="g164297">
                      <g
                         id="g164295">
                        <path
                           d="m 109.12,-169.873 c -25.2793,0 -45.9831,4.451 -62.1109,13.353 -16.1174,8.902 -27.9816,21.094 -35.5926,36.576 C 3.8055,-104.472 0,-86.8029 0,-66.9372 0,-54.5576 1.54615,-42.5008 4.63844,-30.7668 7.74115,-19.0223 11.4842,-8.76671 15.8675,0 L 37.5292,-3.09229 C 30.824,-21.1567 27.4714,-40.2467 27.4714,-60.3622 c 0,-18.0644 3.9982,-32.6409 11.9944,-43.7298 7.9962,-11.088 18.5694,-19.147 31.7194,-24.176 13.1605,-5.039 27.4819,-7.559 42.9638,-7.559 21.928,0 41.273,3.29 58.036,9.871 16.773,6.58 29.548,14.514 38.325,23.801 6.185,6.4449 9.277,11.734 9.277,15.8675 0,5.9347 -4.258,10.8387 -12.775,14.7118 -8.507,3.8628 -20.241,5.7942 -35.202,5.7942 l 10.057,34.8273 h 54.178 c 5.675,0 10.511,-1.3535 14.509,-4.0606 3.998,-2.707 5.997,-7.0279 5.997,-12.9626 0,-3.8732 -1.291,-7.8088 -3.873,-11.8069 -2.572,-3.9982 -8.631,-5.9972 -18.179,-5.9972 5.935,-5.9347 8.902,-13.1605 8.902,-21.6773 0,-10.3181 -3.613,-20.2452 -10.839,-29.7832 -11.609,-15.482 -28.445,-28.122 -50.507,-37.919 -22.052,-9.808 -46.364,-14.712 -72.935,-14.712 z"
                           style="fill:#f81436;fill-opacity:1;fill-rule:nonzero;stroke:none"
                           id="path164293" />
                      </g>
                    </g>
                  </g>
                  <g
                     transform="translate(216.07088,26.06114)"
                     id="g164307">
                    <g
                       id="g164305">
                      <g
                         id="g164303">
                        <path
                           d="M 121.896,-35.2178 H 19.3503 C 6.45009,-35.2178 0,-29.1529 0,-17.0232 0,-13.4208 1.35353,-9.68294 4.06059,-5.80976 6.76765,-1.93659 11.8642,0 19.3503,0 H 121.896 c 12.9,0 19.35,-5.93471 19.35,-17.8041 0,-3.6129 -1.359,-7.4184 -4.076,-11.4165 -2.707,-3.9981 -7.799,-5.9972 -15.274,-5.9972 z"
                           style="fill:#f81436;fill-opacity:1;fill-rule:nonzero;stroke:none"
                           id="path164301" />
                      </g>
                    </g>
                  </g>
                </g>
              </g>
            </g>
          </g>
        </g>
      </g>
    </g>
  </g>
</svg>
