<?xml version="1.0" encoding="UTF-8" standalone="no"?>
<!-- Created with Inkscape (http://www.inkscape.org/) -->

<svg
   version="1.1"
   id="svg164362"
   width="266.66666"
   height="266.66666"
   viewBox="0 0 266.66666 266.66666"
   sodipodi:docname="534_lf1.pdf"
   xmlns:inkscape="http://www.inkscape.org/namespaces/inkscape"
   xmlns:sodipodi="http://sodipodi.sourceforge.net/DTD/sodipodi-0.dtd"
   xmlns="http://www.w3.org/2000/svg"
   xmlns:svg="http://www.w3.org/2000/svg">
  <defs
     id="defs164366" />
  <sodipodi:namedview
     id="namedview164364"
     pagecolor="#ffffff"
     bordercolor="#000000"
     borderopacity="0.25"
     inkscape:showpageshadow="2"
     inkscape:pageopacity="0.0"
     inkscape:pagecheckerboard="0"
     inkscape:deskcolor="#d1d1d1" />
  <g
     id="g164368"
     inkscape:groupmode="layer"
     inkscape:label="534_lf1105"
     transform="matrix(1.3333333,0,0,-1.3333333,0,266.66667)">
    <g
       id="g164370">
      <g
         id="g164372">
        <g
           id="g164374"
           transform="translate(71.55833,155.20411)">
          <g
             id="g164376">
            <path
               d="m 17.28313,-26.57021 0.77564,6.05953 c 0.60039,0.34705 1.50274,0.69235 2.70701,1.03594 1.20427,0.34359 2.23675,0.51535 3.09743,0.51535 -3.0124,1.97819 -4.5186,4.64356 -4.5186,7.99605 0,3.52605 1.33267,6.23478 3.99801,8.1262 C 26.01145,-0.94571 29.06548,0 32.50477,0 c 4.98701,0 8.64159,-1.1175 10.96321,-3.35252 l -1.93629,-5.93456 c -1.11764,0.86068 -2.51461,1.54786 -4.1909,2.06148 -1.6763,0.51712 -3.37492,0.77565 -5.09632,0.77565 -2.14825,0 -3.78111,-0.49452 -4.89861,-1.48363 -1.11751,-0.98908 -1.67626,-2.04239 -1.67626,-3.15989 0,-4.12644 3.78284,-6.36145 11.34853,-6.70501 h 8.51147 l -2.70694,-6.58008 h -8.38647 c -7.65255,0 -13.37022,-0.73055 -17.15306,-2.19165 z m 1.54609,-95.83791 c -3.09569,0 -6.40655,0.49432 -9.93256,1.48363 -3.52259,0.98898 -6.48813,2.64427 -8.89666,4.96622 l 1.54611,7.61082 c 4.04313,-2.32195 9.41723,-3.48258 16.12224,-3.48258 7.48242,0 13.88897,2.4726 19.21978,7.41815 5.33054,4.94555 8.98512,11.20107 10.96308,18.76656 -1.80463,-0.43032 -4.38323,-0.64532 -7.73549,-0.64532 -4.38689,0 -8.45083,0.81732 -12.19201,2.45195 -3.74121,1.63462 -6.77271,4.08457 -9.09449,7.35049 -2.32174,3.26926 -3.48265,7.35383 -3.48265,12.25438 0,6.27818 2.06322,11.54473 6.18966,15.79929 4.1299,4.25857 8.81682,6.38752 14.0606,6.38752 4.98721,0 9.02879,-1.63463 12.12438,-4.90388 3.09559,-3.26559 5.39654,-7.32783 6.90284,-12.18638 1.5063,-4.85889 2.25928,-9.69678 2.25928,-14.51366 0,-6.70518 -0.90398,-12.8097 -2.71227,-18.31391 -4.38323,-13.844 -11.56373,-22.95912 -21.54136,-27.34602 -4.55676,-2.06495 -9.15692,-3.09726 -13.80048,-3.09726 z m 22.70247,47.21089 c 2.8386,0 5.33221,0.25866 7.48049,0.77565 -0.17,5.24387 -1.02898,9.56311 -2.57694,12.95703 -1.54763,3.39792 -3.46158,5.89119 -5.74186,7.48082 -2.27995,1.59296 -4.53756,2.38961 -6.77251,2.38961 -3.60948,0 -6.27482,-1.24797 -7.99618,-3.74324 -1.71789,-2.49161 -2.57687,-4.89856 -2.57687,-7.22017 0,-3.26592 0.94571,-5.82353 2.83716,-7.67348 1.89143,-1.84963 4.25484,-3.1406 7.09024,-3.87291 2.83893,-0.72899 5.59087,-1.09331 8.25647,-1.09331 z"
               style="fill:#f81436;fill-opacity:1;fill-rule:nonzero;stroke:none"
               id="path164378" />
          </g>
        </g>
      </g>
    </g>
  </g>
</svg>
