<?xml version="1.0" encoding="UTF-8" standalone="no"?>
<!-- Created with Inkscape (http://www.inkscape.org/) -->

<svg
   version="1.1"
   id="svg164467"
   width="266.66666"
   height="266.66666"
   viewBox="0 0 266.66666 266.66666"
   sodipodi:docname="535_lf2.pdf"
   xmlns:inkscape="http://www.inkscape.org/namespaces/inkscape"
   xmlns:sodipodi="http://sodipodi.sourceforge.net/DTD/sodipodi-0.dtd"
   xmlns="http://www.w3.org/2000/svg"
   xmlns:svg="http://www.w3.org/2000/svg">
  <defs
     id="defs164471" />
  <sodipodi:namedview
     id="namedview164469"
     pagecolor="#ffffff"
     bordercolor="#000000"
     borderopacity="0.25"
     inkscape:showpageshadow="2"
     inkscape:pageopacity="0.0"
     inkscape:pagecheckerboard="0"
     inkscape:deskcolor="#d1d1d1" />
  <g
     id="g164473"
     inkscape:groupmode="layer"
     inkscape:label="535_lf2107"
     transform="matrix(1.3333333,0,0,-1.3333333,0,266.66667)">
    <g
       id="g164475">
      <g
         id="g164477">
        <g
           id="g164479"
           transform="translate(59.56333,135.59641)">
          <g
             id="g164481">
            <path
               d="m 35.85798,-99.19295 c -11.09189,0 -19.73362,2.94667 -25.92515,8.83966 -6.19153,5.88967 -9.2873,13.865 -9.2873,23.92633 0,7.65266 1.59126,15.00499 4.7738,22.05732 l 7.0904,-0.906 c -1.8047,-5.50067 -2.70707,-11.09 -2.70707,-16.76799 0,-6.792 1.41773,-12.10033 4.2532,-15.92466 2.83896,-3.82833 6.42926,-6.51633 10.77099,-8.064 4.34517,-1.548 8.6678,-2.322 12.9678,-2.322 11.86599,0 21.02299,3.22434 27.47132,9.67267 2.92599,3.26933 4.38866,5.97799 4.38866,8.12632 0,0.774 -0.27933,1.548 -0.838,2.322 -0.559,0.77367 -1.76333,1.63267 -3.613,2.57667 -1.84966,0.94766 -4.70966,2.02333 -8.57933,3.22766 l -6.44999,2.06167 c -5.331,1.63466 -8.96467,3.59033 -10.901,5.867 -1.93333,2.27999 -2.9,5.35499 -2.9,9.22466 0,2.92566 0.71,6.25766 2.12934,9.99533 1.41966,3.74136 3.76199,7.37506 7.02799,10.90119 6.45167,6.36503 13.289,9.54756 20.51099,9.54756 7.73966,0 12.68333,-3.99983 14.83166,-11.99953 l -6.18966,-7.09056 c -2.57867,5.93136 -6.27667,8.897 -11.09366,8.897 -3.69634,0 -6.943,-0.98914 -9.74033,-2.96737 -2.794,-1.97476 -4.98733,-4.3174 -6.58033,-7.02796 -1.58933,-2.707 -2.38433,-5.17967 -2.38433,-7.41833 0,-1.37433 0.57966,-2.62033 1.739,-3.738 1.16266,-1.11733 3.63699,-2.27833 7.42332,-3.48266 l 9.28733,-2.96734 c 4.727,-1.37433 8.444,-3.11666 11.151,-5.22666 2.71066,-2.10666 4.066,-5.22333 4.066,-9.34966 0,-6.53533 -2.45034,-12.42466 -7.35067,-17.66866 -4.64366,-4.904 -10.06133,-8.51699 -16.25299,-10.83866 -6.19133,-2.322 -12.55466,-3.483 -19.08999,-3.483 z M 0,-26.57082 l 0.77568,6.06486 c 0.60041,0.3436 1.50276,0.68717 2.70705,1.03077 1.2043,0.3436 2.27843,0.51537 3.22243,0.51537 -3.09576,1.97823 -4.64363,4.64366 -4.64363,7.99623 0,3.52613 1.3327,6.23493 3.9981,8.12638 C 8.72853,-0.94574 11.78263,0 15.22199,0 c 5.074,0 8.7719,-1.11753 11.09373,-3.3526 l -2.06673,-5.9347 c -2.6654,1.89147 -5.76117,2.8372 -9.2873,2.8372 -2.1483,0 -3.78293,-0.49453 -4.90393,-1.48366 -1.11753,-0.9891 -1.6763,-2.04243 -1.6763,-3.15997 0,-4.12653 3.78467,-6.36159 11.35403,-6.70516 h 8.5116 l -2.5769,-6.58023 h -8.38667 c -7.73939,0 -13.50059,-0.73057 -17.28352,-2.1917 z"
               style="fill:#000000;fill-opacity:1;fill-rule:nonzero;stroke:none"
               id="path164483" />
          </g>
        </g>
      </g>
    </g>
  </g>
</svg>
