<?xml version="1.0" encoding="UTF-8" standalone="no"?>
<!-- Created with Inkscape (http://www.inkscape.org/) -->

<svg
   version="1.1"
   id="svg164560"
   width="266.66666"
   height="266.66666"
   viewBox="0 0 266.66666 266.66666"
   sodipodi:docname="540_lf1.pdf"
   xmlns:inkscape="http://www.inkscape.org/namespaces/inkscape"
   xmlns:sodipodi="http://sodipodi.sourceforge.net/DTD/sodipodi-0.dtd"
   xmlns="http://www.w3.org/2000/svg"
   xmlns:svg="http://www.w3.org/2000/svg">
  <defs
     id="defs164564">
    <clipPath
       clipPathUnits="userSpaceOnUse"
       id="clipPath164582">
      <path
         d="M 0,-423.65701 H 200 V 423.65701 H 0 Z"
         id="path164580" />
    </clipPath>
  </defs>
  <sodipodi:namedview
     id="namedview164562"
     pagecolor="#ffffff"
     bordercolor="#000000"
     borderopacity="0.25"
     inkscape:showpageshadow="2"
     inkscape:pageopacity="0.0"
     inkscape:pagecheckerboard="0"
     inkscape:deskcolor="#d1d1d1" />
  <g
     id="g164566"
     inkscape:groupmode="layer"
     inkscape:label="540_lf1109"
     transform="matrix(1.3333333,0,0,-1.3333333,0,266.66667)">
    <g
       id="g164568">
      <g
         id="g164570">
        <g
           id="g164572"
           transform="translate(71.55833,174.60784)">
          <g
             id="g164574"
             transform="matrix(0.33333,0,0,0.33333,0,-47.07078)">
            <g
               id="g164576">
              <g
                 id="g164578" />
              <g
                 id="g164602">
                <g
                   clip-path="url(#clipPath164582)"
                   id="g164600">
                  <g
                     transform="translate(55.55871,141.21568)"
                     id="g164590">
                    <g
                       id="g164588">
                      <g
                         id="g164586">
                        <path
                           d="M 2.71747,-35.2178 0,-22.4426 C 24.249,-14.9669 45.1454,-7.48606 62.6892,0 l 2.3271,-13.9309 C 44.1198,-22.4478 23.3536,-29.5434 2.71747,-35.2178 Z"
                           style="fill:#f81436;fill-opacity:1;fill-rule:nonzero;stroke:none"
                           id="path164584" />
                      </g>
                    </g>
                  </g>
                  <g
                     transform="translate(0,-41.35173)"
                     id="g164598">
                    <g
                       id="g164596">
                      <g
                         id="g164594">
                        <path
                           d="m 56.489,-241.09 c -9.2873,0 -19.2201,1.484 -29.7984,4.451 -10.568,2.968 -19.46484,7.934 -26.6906,14.9 l 4.63844,22.833 c 12.12966,-6.966 28.25236,-10.449 48.36786,-10.449 22.4478,0 41.6679,7.419 57.6607,22.256 15.992,14.836 26.956,33.604 32.89,56.301 -5.414,-1.291 -13.15,-1.936 -23.207,-1.936 -13.161,0 -25.3531,2.452 -36.5769,7.356 -11.2239,4.903 -20.3186,12.254 -27.2841,22.052 -6.9654,9.8075 -10.4482,22.0622 -10.4482,36.7636 0,18.8349 6.1898,34.6347 18.5694,47.3995 C 77.0002,-6.38762 91.0613,0 106.793,0 c 14.962,0 27.087,-4.90394 36.374,-14.7118 9.287,-9.7975 16.19,-21.9845 20.709,-36.5609 4.519,-14.5765 6.778,-29.0905 6.778,-43.542 0,-20.1153 -2.712,-38.4303 -8.137,-54.9433 -13.15,-41.532 -34.692,-68.879 -64.6256,-82.039 -13.6706,-6.195 -27.4714,-9.293 -41.4024,-9.293 z m 68.109,141.6368 c 8.516,0 15.997,0.7757 22.442,2.3271 -0.51,15.7321 -3.087,28.6896 -7.731,38.8723 -4.643,10.1931 -10.385,17.674 -17.226,22.4425 -6.84,4.779 -13.613,7.1685 -20.318,7.1685 -10.8287,0 -18.8249,-3.743 -23.9891,-11.229 -5.1538,-7.4757 -7.7308,-14.6963 -7.7308,-21.6617 0,-9.7975 2.8372,-17.471 8.5117,-23.0204 5.6744,-5.5495 12.7648,-9.4227 21.2712,-11.6196 8.517,-2.1864 16.773,-3.2797 24.77,-3.2797 z"
                           style="fill:#f81436;fill-opacity:1;fill-rule:nonzero;stroke:none"
                           id="path164592" />
                      </g>
                    </g>
                  </g>
                </g>
              </g>
            </g>
          </g>
        </g>
      </g>
    </g>
  </g>
</svg>
