<?xml version="1.0" encoding="UTF-8" standalone="no"?>
<!-- Created with Inkscape (http://www.inkscape.org/) -->

<svg
   version="1.1"
   id="svg164626"
   width="266.66666"
   height="266.66666"
   viewBox="0 0 266.66666 266.66666"
   sodipodi:docname="540_lf2.pdf"
   xmlns:inkscape="http://www.inkscape.org/namespaces/inkscape"
   xmlns:sodipodi="http://sodipodi.sourceforge.net/DTD/sodipodi-0.dtd"
   xmlns="http://www.w3.org/2000/svg"
   xmlns:svg="http://www.w3.org/2000/svg">
  <defs
     id="defs164630">
    <clipPath
       clipPathUnits="userSpaceOnUse"
       id="clipPath164648">
      <path
         d="M 0,-403.36519 H 321.94902 V 403.36519 H 0 Z"
         id="path164646" />
    </clipPath>
  </defs>
  <sodipodi:namedview
     id="namedview164628"
     pagecolor="#ffffff"
     bordercolor="#000000"
     borderopacity="0.25"
     inkscape:showpageshadow="2"
     inkscape:pageopacity="0.0"
     inkscape:pagecheckerboard="0"
     inkscape:deskcolor="#d1d1d1" />
  <g
     id="g164632"
     inkscape:groupmode="layer"
     inkscape:label="540_lf2110"
     transform="matrix(1.3333333,0,0,-1.3333333,0,266.66667)">
    <g
       id="g164634">
      <g
         id="g164636">
        <g
           id="g164638"
           transform="translate(46.34167,168.22773)">
          <g
             id="g164640"
             transform="matrix(0.33333,0,0,0.33333,0,-44.81863)">
            <g
               id="g164642">
              <g
                 id="g164644" />
              <g
                 id="g164676">
                <g
                   clip-path="url(#clipPath164648)"
                   id="g164674">
                  <g
                     transform="translate(0,-27.46091)"
                     id="g164656">
                    <g
                       id="g164654">
                      <g
                         id="g164652">
                        <path
                           d="m 58.4256,-241.449 c -24.7592,0 -44.2344,6.32 -58.4256,18.96 l 5.80976,24.379 c 6.44484,-3.613 13.40514,-6.387 20.88084,-8.324 7.486,-1.937 17.0336,-2.905 28.6427,-2.905 21.9272,0 40.3716,7.158 55.3337,21.474 14.961,14.317 25.154,32.053 30.579,53.21 H 133.5 c -23.219,0 -41.2153,3.29 -53.9906,9.87 -12.7648,6.58 -21.7293,15.154 -26.8936,25.7223 -5.1538,10.5783 -7.7307,21.8022 -7.7307,33.6716 0,17.5438 5.9347,32.8283 17.8041,45.8534 C 74.5586,-6.51256 88.8748,0 105.638,0 c 8.517,0 17.741,-2.83721 27.674,-8.51162 9.933,-5.67438 18.507,-15.73738 25.722,-30.18888 7.226,-14.4411 11.224,-34.817 11.995,-61.1275 h 29.408 c 5.685,0 10.526,-1.354 14.524,-4.061 3.998,-2.707 5.997,-7.028 5.997,-12.962 0,-11.87 -6.84,-17.804 -20.521,-17.804 h -32.11 c -6.195,-30.955 -19.288,-56.489 -39.278,-76.605 -19.991,-20.126 -43.532,-30.189 -70.6234,-30.189 z m 86.6784,141.621 c -1.031,22.9579 -5.675,40.4341 -13.931,52.4284 -8.257,11.9944 -18.445,17.9916 -30.564,17.9916 -9.2874,0 -16.7683,-3.3526 -22.4427,-10.0578 -5.6744,-6.7052 -8.5116,-14.0559 -8.5116,-22.0521 0,-5.9347 1.6086,-11.8694 4.8259,-17.8041 3.2276,-5.9347 9.8078,-10.8387 19.7407,-14.7118 9.9327,-3.8628 24.9617,-5.7942 45.0877,-5.7942 z"
                           style="fill:#000000;fill-opacity:1;fill-rule:nonzero;stroke:none"
                           id="path164650" />
                      </g>
                    </g>
                  </g>
                  <g
                     transform="translate(172.03387,134.45547)"
                     id="g164664">
                    <g
                       id="g164662">
                      <g
                         id="g164660">
                        <path
                           d="M 2.71747,-35.2178 0,-22.4426 C 24.249,-14.9669 45.1454,-7.48606 62.6892,0 l 2.3271,-13.9309 C 44.1198,-22.4478 23.3536,-29.5434 2.71747,-35.2178 Z"
                           style="fill:#000000;fill-opacity:1;fill-rule:nonzero;stroke:none"
                           id="path164658" />
                      </g>
                    </g>
                  </g>
                  <g
                     transform="translate(180.70303,-126.89846)"
                     id="g164672">
                    <g
                       id="g164670">
                      <g
                         id="g164668">
                        <path
                           d="M 121.896,-35.2178 H 19.3503 C 6.45009,-35.2178 0,-29.1529 0,-17.0232 0,-13.4208 1.35353,-9.68294 4.06059,-5.80976 6.76765,-1.93659 11.8642,0 19.3503,0 H 121.896 c 12.9,0 19.35,-5.93471 19.35,-17.8041 0,-3.6129 -1.359,-7.4184 -4.076,-11.4165 -2.707,-3.9981 -7.799,-5.9972 -15.274,-5.9972 z"
                           style="fill:#000000;fill-opacity:1;fill-rule:nonzero;stroke:none"
                           id="path164666" />
                      </g>
                    </g>
                  </g>
                </g>
              </g>
            </g>
          </g>
        </g>
      </g>
    </g>
  </g>
</svg>
