<?xml version="1.0" encoding="UTF-8" standalone="no"?>
<!-- Created with Inkscape (http://www.inkscape.org/) -->

<svg
   version="1.1"
   id="svg164704"
   width="266.66666"
   height="266.66666"
   viewBox="0 0 266.66666 266.66666"
   sodipodi:docname="541_lf1.pdf"
   xmlns:inkscape="http://www.inkscape.org/namespaces/inkscape"
   xmlns:sodipodi="http://sodipodi.sourceforge.net/DTD/sodipodi-0.dtd"
   xmlns="http://www.w3.org/2000/svg"
   xmlns:svg="http://www.w3.org/2000/svg">
  <defs
     id="defs164708">
    <clipPath
       clipPathUnits="userSpaceOnUse"
       id="clipPath164726">
      <path
         d="m 0,-427.43735 h 216.53916 v 854.8747 H 0 Z"
         id="path164724" />
    </clipPath>
  </defs>
  <sodipodi:namedview
     id="namedview164706"
     pagecolor="#ffffff"
     bordercolor="#000000"
     borderopacity="0.25"
     inkscape:showpageshadow="2"
     inkscape:pageopacity="0.0"
     inkscape:pagecheckerboard="0"
     inkscape:deskcolor="#d1d1d1" />
  <g
     id="g164710"
     inkscape:groupmode="layer"
     inkscape:label="541_lf1111"
     transform="matrix(1.3333333,0,0,-1.3333333,0,266.66667)">
    <g
       id="g164712">
      <g
         id="g164714">
        <g
           id="g164716"
           transform="translate(63.91,179.23983)">
          <g
             id="g164718"
             transform="matrix(0.33333,0,0,0.33333,0,-47.49341)">
            <g
               id="g164720">
              <g
                 id="g164722" />
              <g
                 id="g164754">
                <g
                   clip-path="url(#clipPath164726)"
                   id="g164752">
                  <g
                     transform="translate(0,-153.00419)"
                     id="g164734">
                    <g
                       id="g164732">
                      <g
                         id="g164730">
                        <path
                           d="M 121.896,-35.2178 H 19.3503 C 6.45009,-35.2178 0,-29.1529 0,-17.0232 0,-13.4208 1.35353,-9.68294 4.06059,-5.80976 6.76765,-1.93659 11.8642,0 19.3503,0 H 121.896 c 12.9,0 19.35,-5.93471 19.35,-17.8041 0,-3.6129 -1.359,-7.4184 -4.076,-11.4165 -2.707,-3.9981 -7.799,-5.9972 -15.274,-5.9972 z"
                           style="fill:#f81436;fill-opacity:1;fill-rule:nonzero;stroke:none"
                           id="path164728" />
                      </g>
                    </g>
                  </g>
                  <g
                     transform="translate(113.22343,142.47967)"
                     id="g164742">
                    <g
                       id="g164740">
                      <g
                         id="g164738">
                        <path
                           d="M 2.71747,-35.2178 0,-22.4426 C 24.249,-14.9669 45.1454,-7.48606 62.6892,0 l 2.3271,-13.9309 C 44.1198,-22.4478 23.3536,-29.5434 2.71747,-35.2178 Z"
                           style="fill:#f81436;fill-opacity:1;fill-rule:nonzero;stroke:none"
                           id="path164736" />
                      </g>
                    </g>
                  </g>
                  <g
                     transform="translate(102.38979,-74.07261)"
                     id="g164750">
                    <g
                       id="g164748">
                      <g
                         id="g164746">
                        <path
                           d="m 94.4243,-210.885 c -11.6091,0 -17.9291,6.835 -18.9598,20.506 0,12.379 6.3199,19.215 18.9598,20.506 5.9347,0 10.7037,-1.869 14.3057,-5.607 3.613,-3.738 5.419,-8.704 5.419,-14.899 0,-12.38 -6.575,-19.215 -19.7247,-20.506 z m -51.8506,0 c -5.6744,0 -10.3857,1.806 -14.134,5.419 -3.7378,3.603 -5.6067,8.632 -5.6067,15.087 0,12.379 6.5802,19.215 19.7407,20.506 5.6744,0 10.3805,-1.869 14.1184,-5.607 3.7378,-3.738 5.6067,-8.704 5.6067,-14.899 0,-12.38 -6.575,-19.215 -19.7251,-20.506 z M 25.16,-114.149 H 19.3503 C 6.45009,-114.149 0,-108.085 0,-95.9548 c 0,3.6025 1.35353,7.3403 4.06059,11.2135 2.70706,3.8731 7.80361,5.8097 15.28971,5.8097 h 7.7463 c 27.8515,0 46.0356,2.9674 54.5525,8.9021 l 0.7808,3.0923 c 1.0308,3.3526 1.5462,7.3507 1.5462,11.9943 0,4.6437 -0.9058,9.2873 -2.7175,13.931 -1.8012,4.6436 -5.1538,10.8334 -10.0578,18.5693 L 64.6258,-11.2135 92.8781,0 c 11.3489,-21.1463 17.0229,-42.4279 17.0229,-63.8449 0,-10.5784 -2.066,-21.0266 -6.2,-31.3447 -4.6435,-4.9034 -12.3846,-9.2924 -23.2233,-13.1654 -10.8282,-3.863 -29.2674,-5.794 -55.3177,-5.794 z"
                           style="fill:#f81436;fill-opacity:1;fill-rule:nonzero;stroke:none"
                           id="path164744" />
                      </g>
                    </g>
                  </g>
                </g>
              </g>
            </g>
          </g>
        </g>
      </g>
    </g>
  </g>
</svg>
