<?xml version="1.0" encoding="UTF-8" standalone="no"?>
<!-- Created with Inkscape (http://www.inkscape.org/) -->

<svg
   version="1.1"
   id="svg18"
   width="200"
   height="200"
   viewBox="0 0 200 199.99999"
   sodipodi:docname="5_lf2.svg"
   inkscape:version="1.2.1 (9c6d41e410, 2022-07-14)"
   xmlns:inkscape="http://www.inkscape.org/namespaces/inkscape"
   xmlns:sodipodi="http://sodipodi.sourceforge.net/DTD/sodipodi-0.dtd"
   xmlns="http://www.w3.org/2000/svg"
   xmlns:svg="http://www.w3.org/2000/svg">
  <sodipodi:namedview
     id="namedview494"
     pagecolor="#ffffff"
     bordercolor="#000000"
     borderopacity="0.25"
     inkscape:showpageshadow="2"
     inkscape:pageopacity="0.0"
     inkscape:pagecheckerboard="0"
     inkscape:deskcolor="#d1d1d1"
     showgrid="false"
     inkscape:zoom="2.799532"
     inkscape:cx="37.327668"
     inkscape:cy="89.657843"
     inkscape:window-width="1700"
     inkscape:window-height="1396"
     inkscape:window-x="8"
     inkscape:window-y="28"
     inkscape:window-maximized="1"
     inkscape:current-layer="svg18" />
  <defs
     id="defs22" />
  <g
     id="g496"
     transform="matrix(1.3333333,0,0,-1.3333333,-51.181063,219.0652)">
    <g
       id="g564"
       transform="translate(128.1413,40.6614)"
       clip-path="none">
      <path
         d="m 0,0 c -9.373,0 -17.881,1.479 -25.521,4.433 -7.644,2.957 -13.702,7.327 -18.177,13.109 -4.476,5.785 -6.712,12.9 -6.712,21.343 0,6.25 1.456,11.736 4.369,16.466 2.914,4.728 6.67,8.759 11.272,12.096 4.602,3.335 9.542,5.994 14.821,7.979 5.276,1.983 10.364,3.357 15.261,4.117 l -4.052,1.52 c -3.04,1.267 -6.671,2.553 -10.893,3.863 -4.223,1.308 -8.571,1.963 -13.047,1.963 -6.585,0 -12.286,-1.098 -17.098,-3.293 l 2.153,10.893 c 1.603,0.76 3.588,1.413 5.953,1.963 2.363,0.548 5.656,0.823 9.88,0.823 5.065,0 10.048,-0.781 14.945,-2.342 4.897,-1.564 9.583,-3.274 14.06,-5.131 l 4.813,-1.899 c 4.896,-2.28 9.035,-3.421 12.413,-3.421 l 6.459,-0.126 -2.66,-11.146 c -2.025,0.253 -5.109,0.38 -9.246,0.38 -4.898,0 -9.923,-0.633 -15.072,-1.9 -6.08,-1.437 -11.652,-3.568 -16.72,-6.397 -5.066,-2.83 -9.163,-6.354 -12.286,-10.576 -3.124,-4.223 -4.686,-9.161 -4.686,-14.819 0,-6.586 2.004,-12.074 6.017,-16.466 4.009,-4.39 9.351,-7.682 16.023,-9.879 6.668,-2.195 13.973,-3.293 21.911,-3.293 4.643,0 10.175,0.591 16.593,1.773 l -4.18,-9.88 C 12.033,0.718 6.502,0 0,0"
         style="fill:#000000;fill-opacity:1;fill-rule:nonzero;stroke:none"
         id="path566" />
    </g>
  </g>
</svg>
