<svg enable-background="new 0 0 56.18 56.18" viewBox="0 0 56.18 56.18" xmlns="http://www.w3.org/2000/svg"><ellipse cx="28.09" cy="28.09" fill="#0ad" rx="24.53" ry="25.81"/><g fill="#fff"><path d="m16.64 33.31h2.82v-8.55c0-.33.01-.68.03-1.04l-2 1.76c-.08.07-.17.12-.25.15-.09.03-.17.04-.26.04-.13 0-.25-.03-.35-.09-.11-.06-.18-.12-.24-.2l-.75-1.08 4.25-3.8h1.96v12.81h2.51v1.88h-7.71v-1.88z"/><path d="m25.92 33.8c0-.21.04-.41.11-.6s.18-.35.31-.49.29-.24.47-.32.37-.12.58-.12c.2 0 .39.04.57.12s.33.19.46.32c.13.14.23.3.31.49s.12.39.12.6c0 .22-.04.42-.12.6-.08.19-.18.35-.31.48-.13.14-.28.24-.46.32s-.37.12-.57.12c-.21 0-.4-.04-.58-.12s-.34-.18-.47-.32-.23-.3-.31-.48c-.07-.18-.11-.38-.11-.6z"/><path d="m32.15 33.31h2.82v-8.55c0-.33.01-.68.03-1.04l-2 1.76c-.08.07-.17.12-.25.15-.09.03-.17.04-.26.04-.13 0-.25-.03-.35-.09-.11-.06-.18-.12-.24-.2l-.75-1.08 4.25-3.8h1.96v12.81h2.51v1.88h-7.71v-1.88z"/></g></svg>