<svg enable-background="new 0 0 56.18 56.18" viewBox="0 0 56.18 56.18" xmlns="http://www.w3.org/2000/svg"><ellipse cx="28.09" cy="28.09" fill="#0ad" rx="24.53" ry="25.81"/><g fill="#fff"><path d="m16.64 33.31h2.82v-8.55c0-.33.01-.68.03-1.04l-2 1.76c-.08.07-.17.12-.25.15-.09.03-.17.04-.26.04-.13 0-.25-.03-.35-.09-.11-.06-.18-.12-.24-.2l-.75-1.08 4.25-3.8h1.96v12.81h2.51v1.88h-7.71v-1.88z"/><path d="m25.92 33.8c0-.21.04-.41.11-.6s.18-.35.31-.49.29-.24.47-.32.37-.12.58-.12c.2 0 .39.04.57.12s.33.19.46.32c.13.14.23.3.31.49s.12.39.12.6c0 .22-.04.42-.12.6-.08.19-.18.35-.31.48-.13.14-.28.24-.46.32s-.37.12-.57.12c-.21 0-.4-.04-.58-.12s-.34-.18-.47-.32-.23-.3-.31-.48c-.07-.18-.11-.38-.11-.6z"/><path d="m35.36 20.36c.64 0 1.23.1 1.76.3s.99.48 1.37.85.68.81.89 1.32.32 1.08.32 1.71c0 .54-.08 1.04-.23 1.5s-.35.9-.61 1.32c-.25.42-.55.82-.89 1.22-.34.39-.7.79-1.07 1.2l-3.14 3.38c.31-.09.61-.17.91-.22s.58-.08.85-.08h3.58c.26 0 .46.08.61.23s.23.35.23.6v1.5h-9.56v-.83c0-.17.03-.34.1-.53.07-.18.17-.35.32-.51l4.23-4.46c.35-.38.67-.74.95-1.08s.51-.69.7-1.02c.19-.34.33-.68.43-1.03s.15-.71.15-1.1c0-.35-.05-.66-.14-.93-.1-.27-.23-.49-.41-.67s-.39-.32-.64-.41-.53-.14-.83-.14c-.57 0-1.04.15-1.41.46-.37.3-.63.71-.78 1.23-.07.26-.18.44-.32.55s-.32.17-.54.17c-.1 0-.2-.01-.32-.03l-1.25-.23c.1-.7.28-1.32.56-1.85s.62-.97 1.04-1.33c.41-.35.89-.62 1.43-.8.52-.2 1.09-.29 1.71-.29z"/></g></svg>