<svg enable-background="new 0 0 56.18 56.18" viewBox="0 0 56.18 56.18" xmlns="http://www.w3.org/2000/svg"><ellipse cx="28.09" cy="28.09" fill="#01afa0" rx="24.53" ry="25.81"/><g fill="#fff"><path d="m20.07 20.36c.64 0 1.22.1 1.74.29s.96.46 1.33.8.65.74.84 1.2c.2.46.29.96.29 1.49 0 .47-.05.88-.15 1.23-.1.36-.24.66-.43.93-.19.26-.42.49-.69.67s-.58.33-.93.46c.83.28 1.46.7 1.87 1.27s.62 1.28.62 2.14c0 .73-.13 1.38-.39 1.94s-.6 1.03-1.04 1.41-.94.67-1.52.87c-.57.2-1.18.29-1.83.29-.7 0-1.31-.08-1.83-.25s-.97-.42-1.36-.75-.71-.74-.98-1.22-.5-1.03-.69-1.66l1.04-.47c.18-.08.36-.12.55-.12.17 0 .32.04.45.11s.23.18.3.32c.12.24.24.47.38.7s.3.43.5.61c.19.18.42.32.68.44.26.11.57.17.93.17.4 0 .76-.07 1.06-.21s.55-.32.76-.54c.2-.22.35-.47.45-.75.1-.27.15-.55.15-.83 0-.35-.04-.67-.11-.96s-.22-.53-.44-.73c-.23-.2-.55-.36-.97-.48-.42-.11-.98-.17-1.69-.17v-1.79c.58 0 1.07-.05 1.46-.16s.69-.26.92-.45.39-.42.48-.69.13-.57.13-.89c0-.7-.18-1.22-.54-1.58-.36-.35-.85-.53-1.47-.53-.57 0-1.03.16-1.41.47-.37.31-.63.72-.78 1.21-.08.26-.18.44-.32.55-.13.11-.31.17-.53.17-.1 0-.21-.01-.33-.03l-1.25-.23c.1-.7.28-1.32.56-1.85s.62-.97 1.04-1.33.89-.62 1.43-.8c.52-.18 1.1-.27 1.72-.27z"/><path d="m25.92 33.8c0-.21.04-.41.11-.6s.18-.35.31-.49.29-.24.47-.32.37-.12.58-.12c.2 0 .39.04.57.12s.33.19.46.32c.13.14.23.3.31.49s.12.39.12.6c0 .22-.04.42-.12.6-.08.19-.18.35-.31.48-.13.14-.28.24-.46.32s-.37.12-.57.12c-.21 0-.4-.04-.58-.12s-.34-.18-.47-.32-.23-.3-.31-.48c-.07-.18-.11-.38-.11-.6z"/><path d="m35.36 20.36c.64 0 1.23.1 1.76.3s.99.48 1.37.85.67.81.89 1.32c.21.51.32 1.08.32 1.71 0 .54-.08 1.04-.23 1.5s-.35.9-.61 1.32c-.25.42-.55.82-.89 1.22-.34.39-.7.79-1.07 1.2l-3.14 3.38c.31-.09.61-.17.91-.22s.58-.08.85-.08h3.58c.26 0 .46.08.61.23s.23.35.23.6v1.5h-9.56v-.83c0-.17.03-.34.1-.53.07-.18.17-.35.32-.51l4.23-4.46c.35-.38.67-.74.95-1.08s.51-.69.7-1.02c.19-.34.33-.68.43-1.03s.15-.71.15-1.1c0-.35-.05-.66-.14-.93-.1-.27-.23-.49-.41-.67s-.39-.32-.64-.41-.53-.14-.83-.14c-.57 0-1.04.15-1.41.46-.37.3-.63.71-.78 1.23-.07.26-.18.44-.32.55s-.32.17-.54.17c-.1 0-.2-.01-.32-.03l-1.25-.23c.1-.7.28-1.32.56-1.85s.62-.97 1.04-1.33c.41-.35.89-.62 1.43-.8.52-.2 1.09-.29 1.71-.29z"/></g></svg>