<svg enable-background="new 0 0 56.18 56.18" viewBox="0 0 56.18 56.18" xmlns="http://www.w3.org/2000/svg"><ellipse cx="28.09" cy="28.09" fill="#cddd44" rx="24.53" ry="25.81"/><g fill="#fff"><path d="m23.12 29.66h1.75v1.45c0 .14-.04.25-.12.35s-.21.15-.37.15h-1.26v3.58h-2.08v-3.59h-5.88c-.16 0-.3-.05-.42-.16-.12-.1-.2-.23-.23-.39l-.24-1.27 6.6-9.28h2.25zm-2.08-4.8c0-.22.01-.45.02-.7s.04-.51.07-.78l-4.33 6.28h4.24z"/><path d="m25.92 33.8c0-.21.04-.41.11-.6s.18-.35.31-.49.29-.24.47-.32.37-.12.58-.12c.2 0 .39.04.57.12s.33.19.46.32c.13.14.23.3.31.49s.12.39.12.6c0 .22-.04.42-.12.6-.08.19-.18.35-.31.48-.13.14-.28.24-.46.32s-.37.12-.57.12c-.21 0-.4-.04-.58-.12s-.34-.18-.47-.32-.23-.3-.31-.48c-.07-.18-.11-.38-.11-.6z"/><path d="m35.58 20.36c.64 0 1.22.1 1.74.29s.96.46 1.33.8.65.74.84 1.2c.2.46.29.96.29 1.49 0 .47-.05.88-.15 1.23s-.24.66-.43.93c-.19.26-.42.49-.69.67s-.58.33-.93.46c.83.28 1.46.7 1.87 1.27s.62 1.28.62 2.14c0 .73-.13 1.38-.39 1.94s-.6 1.03-1.04 1.41-.94.67-1.52.87c-.57.2-1.18.29-1.83.29-.7 0-1.31-.08-1.83-.25s-.97-.42-1.36-.75-.71-.74-.98-1.22-.5-1.03-.69-1.66l1.04-.47c.18-.08.36-.12.55-.12.17 0 .32.04.45.11s.23.18.3.32c.12.24.24.47.38.7s.3.43.5.61c.19.18.42.32.68.44.26.11.57.17.93.17.4 0 .76-.07 1.06-.21s.55-.32.76-.54c.2-.22.35-.47.45-.75.1-.27.15-.55.15-.83 0-.35-.04-.67-.11-.96s-.22-.53-.44-.73-.55-.36-.97-.48-.98-.17-1.69-.17v-1.79c.58 0 1.07-.05 1.46-.16s.69-.26.92-.45.39-.42.48-.69.13-.57.13-.89c0-.7-.18-1.22-.54-1.58s-.85-.53-1.47-.53c-.57 0-1.03.16-1.41.47-.37.31-.63.72-.78 1.21-.08.26-.18.44-.32.55-.13.11-.31.17-.53.17-.1 0-.21-.01-.33-.03l-1.25-.23c.1-.7.28-1.32.56-1.85s.62-.97 1.04-1.33c.41-.36.89-.62 1.43-.8.53-.18 1.1-.27 1.72-.27z"/></g></svg>