<svg enable-background="new 0 0 56.18 56.18" viewBox="0 0 56.18 56.18" xmlns="http://www.w3.org/2000/svg"><ellipse cx="28.09" cy="28.09" fill="#8f4f98" rx="24.53" ry="25.81"/><g fill="#fff"><path d="m23.57 21.59c0 .36-.11.65-.32.87-.22.22-.57.33-1.07.33h-3.84l-.5 3.06c.63-.14 1.2-.2 1.72-.2.73 0 1.38.11 1.93.34.56.23 1.02.55 1.4.95.38.41.66.88.86 1.42.19.54.29 1.13.29 1.76 0 .78-.13 1.49-.39 2.13s-.62 1.19-1.08 1.65-1.01.81-1.64 1.06-1.32.38-2.07.38c-.44 0-.85-.05-1.24-.14s-.76-.22-1.1-.38-.66-.34-.95-.55-.55-.42-.79-.65l.73-1.06c.15-.23.36-.34.62-.34.16 0 .32.05.49.16.16.11.36.23.57.35.22.13.47.25.76.36s.64.16 1.05.16c.44 0 .82-.07 1.16-.22.33-.15.61-.36.83-.62.22-.27.39-.58.5-.95s.17-.77.17-1.2c0-.8-.22-1.42-.66-1.87s-1.09-.67-1.94-.67c-.67 0-1.35.13-2.03.39l-1.48-.45 1.16-7.12h6.88v1.05z"/><path d="m25.92 33.8c0-.21.04-.41.11-.6s.18-.35.31-.49.29-.24.47-.32.37-.12.58-.12c.2 0 .39.04.57.12s.33.19.46.32c.13.14.23.3.31.49s.12.39.12.6c0 .22-.04.42-.12.6-.08.19-.18.35-.31.48-.13.14-.28.24-.46.32s-.37.12-.57.12c-.21 0-.4-.04-.58-.12s-.34-.18-.47-.32-.23-.3-.31-.48c-.07-.18-.11-.38-.11-.6z"/><path d="m35.36 20.36c.64 0 1.23.1 1.76.3s.99.48 1.37.85c.38.36.67.8.89 1.32.21.51.32 1.08.32 1.71 0 .54-.08 1.04-.23 1.5s-.35.9-.61 1.32c-.25.42-.55.82-.89 1.22-.34.39-.7.79-1.07 1.2l-3.14 3.38c.31-.09.61-.17.91-.22s.58-.08.85-.08h3.58c.26 0 .46.08.61.23s.23.35.23.6v1.5h-9.56v-.83c0-.17.03-.34.1-.53.07-.18.18-.35.32-.51l4.23-4.46c.35-.38.67-.74.95-1.08s.51-.69.7-1.02c.19-.34.33-.68.43-1.03s.15-.71.15-1.1c0-.35-.05-.66-.14-.93-.1-.27-.23-.49-.41-.67s-.39-.32-.64-.41-.53-.14-.83-.14c-.57 0-1.04.15-1.41.46-.37.3-.63.71-.78 1.23-.07.26-.18.44-.32.55s-.32.17-.54.17c-.1 0-.2-.01-.32-.03l-1.25-.23c.1-.7.28-1.32.56-1.85s.62-.97 1.04-1.33.89-.62 1.43-.8c.52-.2 1.09-.29 1.71-.29z"/></g></svg>