<svg enable-background="new 0 0 56.18 56.18" viewBox="0 0 56.18 56.18" xmlns="http://www.w3.org/2000/svg"><ellipse cx="28.09" cy="28.09" fill="#8f4f98" rx="24.53" ry="25.81"/><g fill="#fff"><path d="m23.57 21.59c0 .36-.11.65-.32.87-.22.22-.57.33-1.07.33h-3.84l-.5 3.06c.63-.14 1.2-.2 1.73-.2.73 0 1.38.11 1.93.34.56.23 1.02.55 1.4.95.38.41.67.88.86 1.42s.29 1.13.29 1.76c0 .78-.13 1.49-.39 2.13s-.62 1.19-1.08 1.65-1.01.81-1.64 1.06-1.32.38-2.07.38c-.44 0-.85-.05-1.24-.14s-.76-.22-1.1-.38-.66-.34-.95-.55-.55-.42-.79-.65l.73-1.06c.15-.23.36-.34.62-.34.16 0 .32.05.49.16.16.11.35.23.57.35.22.13.47.25.76.36s.64.16 1.05.16c.44 0 .82-.07 1.16-.22.33-.15.61-.36.83-.62.22-.27.39-.58.5-.95s.17-.77.17-1.2c0-.8-.22-1.42-.66-1.87s-1.09-.67-1.94-.67c-.67 0-1.35.13-2.03.39l-1.48-.45 1.16-7.12h6.88v1.05z"/><path d="m25.92 33.8c0-.21.04-.41.11-.6s.18-.35.31-.49.29-.24.47-.32.37-.12.58-.12c.2 0 .39.04.57.12s.33.19.46.32c.13.14.23.3.31.49s.12.39.12.6c0 .22-.04.42-.12.6-.08.19-.18.35-.31.48-.13.14-.28.24-.46.32s-.37.12-.57.12c-.21 0-.4-.04-.58-.12s-.34-.18-.47-.32-.23-.3-.31-.48c-.07-.18-.11-.38-.11-.6z"/><path d="m35.58 20.36c.64 0 1.22.1 1.74.29s.96.46 1.33.8.65.74.84 1.2c.2.46.29.96.29 1.49 0 .47-.05.88-.15 1.23s-.24.66-.43.93c-.19.26-.42.49-.69.67s-.58.33-.93.46c.83.28 1.46.7 1.87 1.27s.62 1.28.62 2.14c0 .73-.13 1.38-.39 1.94s-.6 1.03-1.04 1.41-.94.67-1.52.87c-.57.2-1.18.29-1.83.29-.7 0-1.31-.08-1.83-.25s-.97-.42-1.36-.75-.71-.74-.98-1.22-.5-1.03-.69-1.66l1.04-.47c.18-.08.36-.12.55-.12.17 0 .32.04.45.11s.23.18.3.32c.12.24.24.47.38.7s.3.43.5.61c.19.18.42.32.68.44.26.11.57.17.93.17.4 0 .76-.07 1.06-.21s.55-.32.76-.54c.2-.22.35-.47.45-.75.1-.27.15-.55.15-.83 0-.35-.04-.67-.11-.96s-.22-.53-.44-.73-.55-.36-.97-.48-.98-.17-1.69-.17v-1.79c.58 0 1.07-.05 1.46-.16s.69-.26.92-.45.39-.42.48-.69.13-.57.13-.89c0-.7-.18-1.22-.54-1.58s-.85-.53-1.47-.53c-.57 0-1.03.16-1.41.47-.37.31-.63.72-.78 1.21-.08.26-.18.44-.32.55-.13.11-.31.17-.53.17-.1 0-.21-.01-.33-.03l-1.25-.23c.1-.7.28-1.32.56-1.85s.62-.97 1.04-1.33.89-.62 1.43-.8c.53-.18 1.1-.27 1.72-.27z"/></g></svg>