<svg enable-background="new 0 0 56.18 56.18" viewBox="0 0 56.18 56.18" xmlns="http://www.w3.org/2000/svg"><ellipse cx="28.09" cy="28.09" fill="#8f4f98" rx="24.53" ry="25.81"/><g fill="#fff"><path d="m23.57 21.59c0 .36-.11.65-.32.87-.22.22-.57.33-1.07.33h-3.84l-.5 3.06c.63-.14 1.2-.2 1.73-.2.73 0 1.38.11 1.93.34.56.23 1.02.55 1.4.95.38.41.67.88.86 1.42s.29 1.13.29 1.76c0 .78-.13 1.49-.39 2.13s-.62 1.19-1.08 1.65-1.01.81-1.64 1.06-1.32.38-2.07.38c-.44 0-.85-.05-1.24-.14s-.76-.22-1.1-.38-.66-.34-.95-.55-.55-.42-.79-.65l.73-1.06c.15-.23.36-.34.62-.34.16 0 .32.05.49.16.16.11.35.23.57.35.22.13.47.25.76.36s.64.16 1.05.16c.44 0 .82-.07 1.16-.22.33-.15.61-.36.83-.62.22-.27.39-.58.5-.95s.17-.77.17-1.2c0-.8-.22-1.42-.66-1.87s-1.09-.67-1.94-.67c-.67 0-1.35.13-2.03.39l-1.48-.45 1.16-7.12h6.88v1.05z"/><path d="m25.92 33.8c0-.21.04-.41.11-.6s.18-.35.31-.49.29-.24.47-.32.37-.12.58-.12c.2 0 .39.04.57.12s.33.19.46.32c.13.14.23.3.31.49s.12.39.12.6c0 .22-.04.42-.12.6-.08.19-.18.35-.31.48-.13.14-.28.24-.46.32s-.37.12-.57.12c-.21 0-.4-.04-.58-.12s-.34-.18-.47-.32-.23-.3-.31-.48c-.07-.18-.11-.38-.11-.6z"/><path d="m38.63 29.66h1.75v1.45c0 .14-.04.25-.12.35s-.21.15-.37.15h-1.26v3.58h-2.08v-3.59h-5.88c-.16 0-.3-.05-.42-.16-.12-.1-.2-.23-.23-.39l-.24-1.27 6.6-9.28h2.25zm-2.08-4.8c0-.22.01-.45.02-.7s.04-.51.07-.78l-4.33 6.28h4.24z"/></g></svg>