<svg enable-background="new 0 0 56.18 56.18" viewBox="0 0 56.18 56.18" xmlns="http://www.w3.org/2000/svg"><g fill="#01afa0"><path d="m6.44 48.45c0-8.69 0-17.31 0-25.98h14.65c.01.16.02.33.02.5v25.39c0 .69-.02.71-.73.71-4.91 0-9.83 0-14.74 0-.11 0-.25.03-.34-.01-.13-.06-.22-.19-.33-.29.11-.11.2-.29.32-.3.37-.04.73-.02 1.15-.02zm10.14-14.3c0-.21 0-.39 0-.57 0-1.02.02-2.04-.01-3.05-.04-1.58-1.13-2.76-2.7-2.95-1.4-.17-2.78.8-3.13 2.22-.09.34-.09.71-.09 1.07-.01 1.08 0 2.16 0 3.3-.3 0-.55-.04-.78.01-.14.03-.25.2-.37.31.12.11.24.23.38.31.07.04.19.01.29.01h6.65c.13 0 .28.02.39-.03.11-.06.26-.2.25-.3 0-.1-.15-.25-.26-.29-.17-.05-.36-.02-.62-.04z"/><path d="m51.02 48.45c.41 0 .74-.03 1.06.01.15.02.28.19.42.29-.14.1-.27.29-.41.3-.69.03-1.38.02-2.07.02-4.31 0-8.61 0-12.92 0-.71 0-.71-.01-.71-.72 0-8.45 0-16.9 0-25.35 0-.18 0-.35 0-.56h14.62c.01 8.67.01 17.31.01 26.01zm-4.64-14.28c0-.21 0-.39 0-.57 0-1.05.02-2.1-.01-3.15-.04-1.61-1.37-2.89-2.97-2.89s-2.92 1.29-2.95 2.9c-.02 1.05-.01 2.1-.01 3.15v.56c-.32 0-.57-.03-.81.01-.13.03-.23.19-.34.28.12.11.22.24.36.33.07.05.19.01.29.01h6.65c.08 0 .18.03.24-.01.15-.09.29-.2.43-.31-.13-.11-.25-.26-.41-.32-.11-.03-.27.01-.47.01z"/><path d="m21.75 26.25h6.38c0-.22 0-.41 0-.6 0-7.13 0-14.27 0-21.4 0-.77 0-.77.79-.79 1.01-.03 1.96.2 2.82.73 1.58.98 3.15 1.01 4.73.02.12-.07.32-.02.48-.03-.01.17.04.37-.04.49-.46.76-.94 1.51-1.44 2.24-.18.26-.15.42.06.63.44.44.85.92 1.28 1.36.31.32.27.55-.1.78-1.67 1.05-3.36.99-5.05.08-.9-.49-1.8-.86-2.88-.75v17.24h6.94v22.8c-.89 0-1.8 0-2.77 0 0-.19 0-.37 0-.54 0-2.22.01-4.44-.01-6.66-.02-1.92-1.36-3.59-3.19-4.02-1.88-.44-3.85.42-4.68 2.16-.29.6-.45 1.32-.47 1.98-.06 2.17-.02 4.34-.02 6.51v.57c-.96 0-1.89 0-2.84 0 .01-7.59.01-15.16.01-22.8z"/></g><g fill="#cddd44"><path d="m38.57 16.96h2.7c0-.85 0-1.68 0-2.51 0-.76.02-.78.76-.78.97 0 1.94.01 2.91-.01.42-.01.59.15.58.58-.02.88-.01 1.77-.01 2.7h2.85c0-.66 0-1.34 0-2.02.01-1.37-.16-1.24 1.24-1.24.82 0 1.64.01 2.46 0 .4-.01.55.15.55.56-.01 2.35-.01 4.7 0 7.05 0 .42-.17.54-.56.54-5.72-.01-11.44-.01-17.16 0-.43 0-.57-.16-.57-.58.01-2.33.01-4.67 0-7 0-.4.12-.57.54-.57 1.05.01 2.1.02 3.15 0 .44-.01.57.19.56.6-.01.87 0 1.76 0 2.68z"/><path d="m8.89 17.22h2.71c0-.96 0-1.89 0-2.83 0-.68.04-.72.73-.72.97 0 1.94.01 2.91-.01.44-.01.62.14.61.6-.03.85 0 1.71-.01 2.56-.01.32.09.44.42.43.79-.02 1.57-.01 2.43-.01 0-.82 0-1.6 0-2.38 0-1.3-.12-1.19 1.19-1.19.82 0 1.64.02 2.46-.01.45-.01.6.17.59.61-.02 2.32-.01 4.63 0 6.95 0 .42-.13.59-.56.59-5.72-.01-11.43-.01-17.15 0-.42 0-.58-.15-.58-.58.01-2.33.01-4.67 0-7 0-.44.16-.58.58-.57 1.03.02 2.07.02 3.1 0 .43-.01.58.17.57.59-.01.98 0 1.94 0 2.97z"/></g></svg>