<svg enable-background="new 0 0 74.18 71.29" viewBox="0 0 74.18 71.29" xmlns="http://www.w3.org/2000/svg"><g fill="#01afa0"><path d="m22.88 53.14c0-8.85 0-17.64 0-26.47h14.92c.01.16.02.33.02.51v25.86c0 .71-.02.73-.74.73-5 0-10.01 0-15.01 0-.12 0-.25.03-.35-.01-.13-.07-.22-.19-.33-.3.11-.11.21-.29.32-.31.36-.03.73-.01 1.17-.01zm10.32-14.57c0-.21 0-.4 0-.58 0-1.04.02-2.07-.01-3.11-.04-1.61-1.15-2.81-2.75-3-1.42-.17-2.83.81-3.19 2.26-.09.35-.09.73-.1 1.09-.01 1.1 0 2.2 0 3.36-.3 0-.56-.04-.79.01-.14.03-.25.2-.38.31.13.11.24.23.38.32.08.04.2.01.3.01h6.78c.13 0 .29.03.39-.03.12-.06.26-.2.26-.31 0-.1-.15-.25-.27-.29-.16-.04-.36-.02-.62-.04z"/><path d="m68.28 53.14c.42 0 .76-.03 1.08.01.15.02.29.2.43.3-.14.11-.27.3-.41.31-.7.03-1.4.02-2.11.02-4.39 0-8.77 0-13.16 0-.72 0-.73-.01-.73-.73 0-8.61 0-17.21 0-25.82 0-.18 0-.36 0-.57h14.9zm-4.72-14.54c0-.21 0-.4 0-.58 0-1.07.02-2.14-.01-3.21-.04-1.64-1.4-2.95-3.02-2.94-1.63 0-2.97 1.31-3 2.95-.02 1.07-.01 2.14-.01 3.21v.57c-.33 0-.58-.03-.82.01-.13.03-.24.19-.35.29.12.11.23.25.36.34.07.05.2.01.3.01h6.78c.08 0 .18.03.25-.01.16-.09.29-.21.44-.31-.14-.11-.26-.26-.42-.33-.13-.05-.3 0-.5 0z"/><path d="m38.47 30.52h6.5c0-.22 0-.42 0-.61 0-7.27 0-14.53 0-21.8 0-.79 0-.78.8-.81 1.03-.03 2 .2 2.87.75 1.61 1 3.2 1.03 4.82.02.12-.08.32-.02.49-.03-.01.17.04.37-.04.5-.47.77-.96 1.53-1.46 2.28-.18.26-.15.42.06.64.45.45.86.94 1.31 1.39.32.33.27.56-.1.8-1.7 1.07-3.43 1.01-5.14.08-.92-.5-1.84-.88-2.94-.77v17.56h7.07v23.22c-.91 0-1.83 0-2.82 0 0-.2 0-.37 0-.55 0-2.26.01-4.52-.01-6.78-.02-1.96-1.39-3.66-3.25-4.09-1.92-.45-3.92.43-4.77 2.2-.29.61-.46 1.34-.48 2.02-.06 2.21-.02 4.42-.02 6.63v.58c-.98 0-1.92 0-2.89 0 0-7.74 0-15.45 0-23.23z"/></g><path d="m55.6 21.06h2.76c0-.86 0-1.71 0-2.55 0-.78.02-.8.78-.8.99 0 1.98.01 2.96-.01.43-.01.6.15.59.59-.02.9-.01 1.8-.01 2.75h2.9c0-.67 0-1.37 0-2.06.01-1.39-.16-1.26 1.26-1.27.84 0 1.67.01 2.51 0 .41-.01.56.15.56.57-.01 2.39-.01 4.79 0 7.18 0 .43-.18.55-.57.55-5.83-.01-11.65-.01-17.48 0-.44 0-.58-.16-.58-.59.01-2.38.01-4.75 0-7.13 0-.4.13-.58.55-.58 1.07.01 2.14.02 3.21 0 .45-.01.58.2.57.61-.02.9-.01 1.8-.01 2.74z" fill="#cddd44"/><path d="m25.36 21.32h2.76c0-.98 0-1.93 0-2.88 0-.69.04-.73.74-.73.99 0 1.98.01 2.96-.01.45-.01.64.14.62.61-.03.87 0 1.74-.01 2.61-.01.32.09.44.43.44.8-.02 1.6-.01 2.48-.01 0-.84 0-1.63 0-2.43 0-1.33-.13-1.21 1.21-1.21.84 0 1.67.02 2.51-.01.46-.01.61.17.6.62-.02 2.36-.01 4.72 0 7.08 0 .42-.13.6-.57.6-5.82-.01-11.65-.01-17.47 0-.43 0-.59-.15-.59-.59.01-2.38.02-4.75 0-7.13 0-.45.17-.59.59-.58 1.05.02 2.11.02 3.16 0 .44-.01.59.18.58.6-.01 1 0 1.98 0 3.02z" fill="#cddd44"/><path d="m29.39 39.9-10.35 4.55s-.06-8.26 4.81-9.35c5.45-1.22 5.54 4.8 5.54 4.8z" fill="#8c633a"/><path d="m19.07 44.39v15.88l10.32-5.06v-15.37z" fill="#8c633a"/><path d="m28.35 41.55c-.32.14-9 3.87-9 3.87l.38 13.54 1.34-.61s-.02-9.65 2.63-11.63c2.5-1.87 4.83.41 4.83.41z" fill="#7f281e" opacity=".21"/><path d="m19.07 59.84 10.32-5.07v-1.75l-10.32 5.02z" fill="#c46f29"/><path d="m29.04 39.98-1.04.46v15.43l1.04-.51z" fill="#c46f29"/><path d="m29.39 39.84-1.04.46v15.42l1.04-.51z" fill="#dd8826"/><path d="m19.07 44.39v15.88l1.3-.64v-15.82z" fill="#dd8826"/><path d="m2.55 39.84-.01 13.83 16.53 6.6v-15.88z" fill="#a57c52"/><path d="m25.33 34.94-13.41-2.4c-1.28-.26-3.1-.54-4.51-.13-3.47 1.02-4.5 4.96-4.87 7.49l16.5 4.55s-.06-8.26 4.81-9.35c.13-.03 1.48-.16 1.48-.16z" fill="#a57c52"/><path d="m13.93 46.86c3.4 2.21 4.2 11.71 4.2 11.71v-16.78s-8.24-2.21-10.2-2.88-2.26-1.76-1.41-3.49c1.14-2.34 4.84-2.98 4.84-2.98l-3.46-.14s-3.12 1.87-4.07 4.32c-.95 2.46-.35 16.84-.35 16.84l14.46 5.48v-1.26s-10.39-5-11.91-6.22c-1.28-1.03-.94-4.15-.97-7.86 2.77.83 7.37 2.28 8.87 3.26z" fill="#7f281e" opacity=".33"/><path d="m9.11 34.82c-1.25.98-1.22 2.77 1.34 3.58 1.64.52 8.62 1.82 8.62 1.82l3.26-5.09-8.41-1.38c0-.01-3.21-.18-4.81 1.07z" fill="#fff" opacity=".08"/><path d="m8.9 43.1v2.47c0 .41.25.78.63.9l1.04.34c.58.19 1.16-.26 1.16-.9v-1.97z" fill="#c46f29"/><path d="m2.84 39.96h-.01v13.83l1.29.52v-14z" fill="#c46f29"/><path d="m23.93 35.53c-4.26 1.31-4.04 8.55-4.04 8.55l7.82-3.63s-3.91.86-3.91-.9c0-3 2.66-3.66 2.66-3.66s-.69-.93-2.53-.36z" fill="#7f281e" opacity=".21"/><path d="m19.07 44.39v15.88l1.3-.64v-15.82z" fill="#dd8826"/><path d="m23.85 35.1c-4.87 1.09-4.83 9.44-4.83 9.44l10.37-4.64v-.06c-.03-.64-.42-5.89-5.54-4.74zm.23.92c4.2-.97 4.27 3.45 4.27 3.45l-7.98 3.5c0 .01-.04-6.08 3.71-6.95z" fill="#dd8826"/><path d="m24.08 36.02c-3.75.87-3.71 6.95-3.71 6.95l7.98-3.5c0 .01-.07-4.42-4.27-3.45zm.01.25c3.59-.82 3.9 3.07 3.9 3.07l-7.37 3.27s.26-5.6 3.47-6.34z" fill="#c46f29"/><path d="m19.07 42.9v1.32l-16.16-4.58s.11-1.1.14-1.27z" fill="#dd8826"/><path d="m2.54 51.72v1.59l16.53 6.61v-1.8z" fill="#c46f29"/><g fill="#faa62a"><path d="m19.07 44.39-1.12-.31v15.74l1.12.45z"/><path d="m2.55 39.84-.01 1.46 16.53 4.96v-1.94z"/><path d="m2.54 52.08v1.59l16.53 6.61v-1.8z"/></g><path d="m8.69 32.78c.64-.23 2.16-.34 2.67-.35-1.14-.18-2.61-.22-3.71.11-3.47 1.02-4.51 4.85-4.88 7.39l1.23.31c.14-1.5.81-6.03 4.69-7.46z" fill="#dd8826"/><path d="m2.55 39.84-.01.01v13.82l1.29.52v-14z" fill="#faa62a"/><path d="m19.1 44.41-.02.46-.3-.09-16.22-4.6s-.04-.16 0-.32z" fill="#dd8826"/><path d="m23.76 34.66c-.6.07-5.03-.1-5.75 8.2l-14.15-3.93c.4-2 1.51-5.14 4.59-6.28.63-.23 2.04-.28 2.54-.29-1.14-.18-2.48-.28-3.58.04-2.93.87-4.12 3.81-4.64 6.23l-.23 1.24 16.52 4.57c.62-10.04 5.93-9.5 6.82-9.46z" fill="#faa62a"/><path d="m19.07 44.49v.37l10.32-4.6v-.36z" fill="#c46f29"/><path d="m19.07 44.86 10.32-4.6v1.3l-10.32 4.7z" fill="#dd8826"/><path d="m19.07 60.28 10.32-5.07v-1.75l-10.32 5.02z" fill="#dd8826"/><path d="m8.54 43.1v2.47c0 .41.25.78.63.9l1.04.34c.58.19 1.16-.26 1.16-.9v-1.97z" fill="#faa62a"/><path d="m10.28 46.17-.28-1.28c.16-.02.28-.16.29-.37.01-.26-.15-.53-.36-.58-.21-.06-.39.11-.4.36-.01.2.09.4.23.51l-.37 1.04z" fill="#c46f29"/><path d="m7.91 32.29h.01z" fill="#7f281e" opacity=".33"/><path d="m27.82 29.42 1.41 7.8 7.8 1.41-7.8 1.42-1.41 7.79-1.42-7.79-7.79-1.42 7.79-1.41z" fill="#ffda91"/><path d="m36.1 38.76.6 3.28 3.28.6-3.28.6-.6 3.28-.6-3.28-3.28-.6 3.28-.6z" fill="#ffda91"/></svg>