<svg enable-background="new 0 0 56.18 56.18" viewBox="0 0 56.18 56.18" xmlns="http://www.w3.org/2000/svg"><path d="m54.62 29.25c-.66.85-1.33 1.7-1.99 2.54s-1.18.88-1.98.18c-7.18-6.3-14.36-12.6-21.55-18.9-.16-.14-.31-.27-.51-.44-.81.71-1.61 1.41-2.41 2.11-6.57 5.76-13.13 11.51-19.68 17.26-.75.66-1.29.61-1.91-.17-.54-.67-1.07-1.34-1.6-2.01-.62-.79-.57-1.34.19-2l17.22-15.09c1.87-1.64 3.74-3.3 5.63-4.92 1.32-1.14 2.79-1.28 4.33-.56.41.19.77.52 1.12.82 2.34 2.05 4.68 4.11 7.02 6.17.11.1.23.18.41.32.01-.24.03-.41.03-.58 0-1.89 0-3.78 0-5.67 0-1.05.34-1.41 1.34-1.41h5.54c1.03 0 1.38.36 1.38 1.44 0 4.33.01 8.66-.01 13 0 .38.1.62.38.86 2.12 1.83 4.23 3.68 6.33 5.54.28.24.48.58.72.87z" fill="#cddd44"/><path d="m32.73 50.35c0-4.32 0-8.61 0-12.94-2.77 0-5.5 0-8.28 0v13c-.24 0-.42 0-.6 0-3.8 0-7.59 0-11.39 0-1.66 0-2.48-.85-2.48-2.58 0-5.17 0-10.34-.01-15.51 0-.41.12-.68.42-.95 5.9-5.1 11.79-10.22 17.69-15.33.16-.13.31-.26.5-.42.49.43.98.84 1.46 1.26 5.61 4.86 11.22 9.72 16.81 14.6.18.15.31.47.32.71.02 5.29.02 10.59.01 15.88 0 1.35-.83 2.31-2.1 2.32-4.05.03-8.1.01-12.15.01-.03 0-.08-.02-.2-.05z" fill="#01afa0"/></svg>