<svg enable-background="new 0 0 566.93 566.93" viewBox="0 0 566.93 566.93" xmlns="http://www.w3.org/2000/svg"><g fill="#69cdec"><path d="m328.24 354.99h-3.25c-1.38 0-2.5-1.12-2.5-2.5s1.12-2.5 2.5-2.5h3.25c1.47 0 3.06-.04 4.72-.12 1.36-.08 2.55 1 2.62 2.38s-1 2.55-2.38 2.62c-1.74.07-3.41.12-4.96.12z"/><path d="m305.8 354.99h-8.08c-1.38 0-2.5-1.12-2.5-2.5s1.12-2.5 2.5-2.5h8.08c1.38 0 2.5 1.12 2.5 2.5s-1.12 2.5-2.5 2.5z"/><path d="m278.53 354.99h-8.08c-1.38 0-2.5-1.12-2.5-2.5s1.12-2.5 2.5-2.5h8.08c1.38 0 2.5 1.12 2.5 2.5s-1.12 2.5-2.5 2.5z"/><path d="m251.25 354.99h-8.08c-1.38 0-2.5-1.12-2.5-2.5s1.12-2.5 2.5-2.5h8.08c1.38 0 2.5 1.12 2.5 2.5s-1.11 2.5-2.5 2.5z"/><path d="m223.98 354.99h-8.08c-1.38 0-2.5-1.12-2.5-2.5s1.12-2.5 2.5-2.5h8.08c1.38 0 2.5 1.12 2.5 2.5s-1.12 2.5-2.5 2.5z"/><path d="m196.71 354.99h-8.08c-1.38 0-2.5-1.12-2.5-2.5s1.12-2.5 2.5-2.5h8.08c1.38 0 2.5 1.12 2.5 2.5s-1.12 2.5-2.5 2.5z"/><path d="m169.43 354.99h-8.08c-1.38 0-2.5-1.12-2.5-2.5s1.12-2.5 2.5-2.5h8.08c1.38 0 2.5 1.12 2.5 2.5s-1.12 2.5-2.5 2.5z"/><path d="m142.16 354.99h-8.08c-1.38 0-2.5-1.12-2.5-2.5s1.12-2.5 2.5-2.5h8.08c1.38 0 2.5 1.12 2.5 2.5s-1.12 2.5-2.5 2.5z"/><path d="m352.17 352.75c-1.21 0-2.27-.88-2.47-2.11-.22-1.36.71-2.64 2.07-2.86 2.58-.41 5.24-.88 7.89-1.39 1.36-.26 2.67.63 2.93 1.98.26 1.36-.63 2.67-1.98 2.93-2.71.52-5.42 1-8.05 1.42-.12.02-.25.03-.39.03z"/><path d="m378.89 347.1c-1.11 0-2.12-.75-2.42-1.87-.35-1.34.46-2.7 1.79-3.05 2.58-.67 5.18-1.38 7.74-2.12 1.33-.39 2.71.38 3.1 1.71s-.38 2.71-1.71 3.1c-2.6.75-5.25 1.48-7.87 2.16-.21.05-.42.07-.63.07z"/><path d="m404.97 339.01c-1.02 0-1.98-.63-2.35-1.64-.47-1.3.19-2.73 1.49-3.21 2.55-.93 5.06-1.9 7.47-2.88 1.28-.52 2.74.09 3.26 1.37s-.09 2.74-1.37 3.26c-2.46 1-5.03 1.99-7.63 2.95-.29.1-.58.15-.87.15z"/><path d="m429.92 327.94c-.88 0-1.74-.47-2.2-1.3-.66-1.21-.22-2.73.99-3.39 2.43-1.33 4.72-2.69 6.8-4.03 1.16-.75 2.71-.42 3.46.74s.42 2.71-.74 3.46c-2.18 1.41-4.58 2.83-7.12 4.22-.38.2-.79.3-1.19.3z"/><path d="m451.28 311.27c-.53 0-1.06-.17-1.51-.51-1.1-.83-1.31-2.4-.48-3.5 1.61-2.12 2.77-4.24 3.45-6.3.43-1.31 1.84-2.03 3.15-1.6s2.03 1.84 1.6 3.15c-.85 2.6-2.27 5.21-4.21 7.77-.5.65-1.24.99-2 .99z"/><path d="m455.98 285.18c-1.38 0-2.5-1.12-2.5-2.5v-8.08c0-1.38 1.12-2.5 2.5-2.5s2.5 1.12 2.5 2.5v8.08c0 1.38-1.12 2.5-2.5 2.5z"/><path d="m455.98 257.91c-1.38 0-2.5-1.12-2.5-2.5v-3.9c0-1.16-.15-2.33-.45-3.5-.34-1.34.46-2.7 1.8-3.04 1.33-.34 2.7.46 3.04 1.8.4 1.57.61 3.17.61 4.74v3.9c0 1.38-1.12 2.5-2.5 2.5z"/><path d="m444.39 234.64c-.57 0-1.13-.19-1.6-.58-1.85-1.55-3.96-3.11-6.27-4.65-1.15-.76-1.46-2.32-.7-3.47s2.32-1.46 3.47-.7c2.46 1.64 4.72 3.31 6.71 4.98 1.06.89 1.2 2.46.31 3.52-.5.6-1.21.9-1.92.9z"/><path d="m421.07 220.59c-.35 0-.71-.08-1.05-.23-2.32-1.08-4.78-2.15-7.32-3.2-1.28-.53-1.88-1.99-1.36-3.27.53-1.28 1.99-1.88 3.27-1.36 2.6 1.08 5.13 2.18 7.51 3.29 1.25.58 1.8 2.07 1.21 3.32-.42.91-1.32 1.45-2.26 1.45z"/><path d="m115.02 354.99h-4c-1.38 0-2.5-1.12-2.5-2.5s1.12-2.5 2.5-2.5h4c1.38 0 2.5 1.12 2.5 2.5s-1.12 2.5-2.5 2.5z"/></g></svg>