<svg enable-background="new 0 0 566.93 566.93" viewBox="0 0 566.93 566.93" xmlns="http://www.w3.org/2000/svg"><g fill="#e0e891"><path d="m414.04 349.01h-8.09c-1.38 0-2.5-1.12-2.5-2.5s1.12-2.5 2.5-2.5h8.09c1.38 0 2.5 1.12 2.5 2.5s-1.13 2.5-2.5 2.5zm-27.31 0h-8.09c-1.38 0-2.5-1.12-2.5-2.5s1.12-2.5 2.5-2.5h8.09c1.38 0 2.5 1.12 2.5 2.5s-1.12 2.5-2.5 2.5zm-27.3 0h-8.09c-1.38 0-2.5-1.12-2.5-2.5s1.12-2.5 2.5-2.5h8.09c1.38 0 2.5 1.12 2.5 2.5s-1.1 2.5-2.5 2.5zm-27.28 0h-8.09c-1.38 0-2.5-1.12-2.5-2.5s1.12-2.5 2.5-2.5h8.09c1.38 0 2.5 1.12 2.5 2.5s-1.12 2.5-2.5 2.5zm-27.3 0h-8.09c-1.38 0-2.5-1.12-2.5-2.5s1.12-2.5 2.5-2.5h8.09c1.38 0 2.5 1.12 2.5 2.5s-1.13 2.5-2.5 2.5zm-27.31 0h-8.09c-1.38 0-2.5-1.12-2.5-2.5s1.12-2.5 2.5-2.5h8.09c1.38 0 2.5 1.12 2.5 2.5s-1.12 2.5-2.5 2.5zm-27.29 0h-8.09c-1.38 0-2.5-1.12-2.5-2.5s1.12-2.5 2.5-2.5h8.09c1.38 0 2.5 1.12 2.5 2.5s-1.13 2.5-2.5 2.5zm-27.3 0h-8.08c-1.38 0-2.5-1.12-2.5-2.5s1.12-2.5 2.5-2.5h8.09c1.38 0 2.5 1.12 2.5 2.5s-1.12 2.5-2.51 2.5zm-27.3 0h-8.09c-1.38 0-2.5-1.12-2.5-2.5s1.12-2.5 2.5-2.5h8.09c1.38 0 2.5 1.12 2.5 2.5s-1.11 2.5-2.5 2.5zm-27.16-1.77c-.18 0-.37-.02-.55-.06-2.75-.62-5.46-1.41-8.05-2.33-1.3-.46-1.98-1.89-1.51-3.2.46-1.3 1.89-1.98 3.19-1.51 2.41.86 4.92 1.59 7.48 2.16 1.35.3 2.19 1.64 1.89 2.99-.29 1.16-1.32 1.95-2.45 1.95zm-24.5-11.49c-.55 0-1.11-.18-1.57-.56-2.26-1.84-4.32-3.83-6.12-5.94-.9-1.05-.78-2.63.27-3.53s2.63-.77 3.52.27c1.6 1.88 3.45 3.66 5.48 5.31 1.07.87 1.24 2.45.37 3.52-.51.62-1.23.93-1.95.93zm-13.92-22.73c-1.22 0-2.28-.89-2.47-2.13-.24-1.6-.36-3.24-.36-4.86v-3.58c0-1.38 1.12-2.5 2.5-2.5s2.5 1.12 2.5 2.5v3.58c0 1.38.1 2.76.31 4.12.2 1.37-.74 2.64-2.1 2.84-.14.02-.27.03-.38.03zm-.33-27.28c-1.38 0-2.5-1.12-2.5-2.5v-8.09c0-1.38 1.12-2.5 2.5-2.5s2.5 1.12 2.5 2.5v8.09c0 1.38-1.12 2.5-2.5 2.5zm4.85-26.37c-.45 0-.9-.12-1.3-.37-1.18-.72-1.55-2.26-.83-3.44 1.46-2.38 3.21-4.67 5.23-6.81.95-1.01 2.53-1.05 3.53-.11 1.01.95 1.05 2.53.11 3.53-1.78 1.89-3.33 3.91-4.61 5.99-.48.78-1.29 1.21-2.13 1.21zm20.49-17.46c-.94 0-1.84-.53-2.26-1.43-.59-1.25-.06-2.74 1.19-3.33 2.49-1.17 5.12-2.21 7.82-3.08 1.32-.42 2.72.3 3.15 1.61.42 1.31-.3 2.72-1.61 3.15-2.5.81-4.92 1.76-7.22 2.85-.36.15-.72.23-1.07.23zm26.37-6.28c-1.33 0-2.44-1.05-2.5-2.4-.06-1.38 1.02-2.54 2.4-2.6 1.05-.04 2.12-.06 3.19-.06h5c1.38 0 2.5 1.12 2.5 2.5s-1.12 2.5-2.5 2.5h-5c-1 0-1.99.02-2.98.06-.05 0-.07 0-.11 0zm140.96-.07h-5.84c-.36 0-.72-.08-1.05-.23-.02-.01-.72-.33-1.99-.86s-1.88-1.99-1.35-3.27 1.99-1.88 3.27-1.35c.73.3 1.29.54 1.65.71h5.3c1.38 0 2.5 1.12 2.5 2.5s-1.11 2.5-2.49 2.5zm-113.79-.54c-.92 0-1.8-.51-2.24-1.38-.62-1.24-.12-2.74 1.12-3.35 1.54-.77 4.11-1.98 7.58-3.38 1.28-.51 2.74.11 3.25 1.39.52 1.28-.11 2.74-1.39 3.25-3.49 1.4-6.02 2.62-7.22 3.21-.33.17-.72.26-1.1.26zm87.68-6.55c-.22 0-.44-.03-.67-.09-2.57-.71-5.18-1.36-7.73-1.94-1.35-.3-2.19-1.64-1.89-2.99s1.64-2.19 2.99-1.89c2.64.59 5.32 1.26 7.97 2 1.33.37 2.11 1.75 1.74 3.08-.3 1.1-1.31 1.83-2.41 1.83zm-61.97-2.54c-1.13 0-2.16-.78-2.43-1.93-.31-1.34.52-2.69 1.86-3 2.71-.63 5.43-1.18 8.11-1.61 1.36-.22 2.65.7 2.87 2.07.22 1.36-.7 2.65-2.07 2.87-2.56.42-5.17.94-7.77 1.54-.18.04-.39.06-.57.06zm35.15-2.45c-.07 0-.15 0-.23-.01-2.67-.24-5.33-.39-7.91-.45-1.38-.03-2.47-1.18-2.44-2.56s1.15-2.47 2.56-2.44c2.69.06 5.46.22 8.24.47 1.38.12 2.39 1.34 2.27 2.71-.11 1.3-1.2 2.28-2.49 2.28z"/><path d="m437.27 349.01h-4c-1.38 0-2.5-1.12-2.5-2.5s1.12-2.5 2.5-2.5h4c1.38 0 2.5 1.12 2.5 2.5s-1.12 2.5-2.5 2.5z"/></g></svg>