<svg enable-background="new 0 0 566.93 566.93" viewBox="0 0 566.93 566.93" xmlns="http://www.w3.org/2000/svg"><g fill="#fabf7a"><path d="m420.3 301.09c-.26 0-.52-.04-.77-.12-2.5-.81-5.08-1.61-7.67-2.37-1.33-.39-2.08-1.78-1.7-3.1.39-1.33 1.78-2.08 3.1-1.7 2.63.77 5.26 1.58 7.81 2.41 1.31.43 2.03 1.83 1.61 3.15-.35 1.04-1.33 1.73-2.38 1.73z"/><path d="m393.97 293.88c-.18 0-.37-.02-.55-.06-2.63-.59-5.27-1.15-7.85-1.66-1.35-.27-2.24-1.58-1.97-2.94s1.58-2.24 2.94-1.97c2.63.52 5.32 1.08 7.99 1.69 1.35.3 2.19 1.64 1.89 2.99-.28 1.16-1.31 1.95-2.45 1.95z"/><path d="m367.06 289.22c-.09 0-.19 0-.28-.02-2.79-.31-5.46-.54-7.93-.69-1.38-.08-2.43-1.26-2.35-2.64s1.24-2.43 2.64-2.35c2.56.15 5.32.39 8.2.71 1.37.15 2.36 1.39 2.21 2.76-.15 1.29-1.23 2.23-2.49 2.23z"/><path d="m339.79 288.33h-8.08c-1.38 0-2.5-1.12-2.5-2.5s1.12-2.5 2.5-2.5h8.08c1.38 0 2.5 1.12 2.5 2.5s-1.12 2.5-2.5 2.5z"/><path d="m181.75 288.33h-8.08c-1.38 0-2.5-1.12-2.5-2.5s1.12-2.5 2.5-2.5h8.08c1.38 0 2.5 1.12 2.5 2.5s-1.12 2.5-2.5 2.5z"/><path d="m154.48 288.33h-8.08c-1.38 0-2.5-1.12-2.5-2.5s1.12-2.5 2.5-2.5h8.08c1.38 0 2.5 1.12 2.5 2.5s-1.12 2.5-2.5 2.5z"/><path d="m199.99 283.76c-.99 0-1.93-.59-2.32-1.57-.52-1.28.1-2.74 1.39-3.25 2.5-1.01 5.08-1.98 7.67-2.9 1.3-.46 2.73.22 3.19 1.52s-.22 2.73-1.52 3.19c-2.52.89-5.03 1.84-7.47 2.82-.31.13-.63.19-.94.19z"/><path d="m313.79 282.91c-.34 0-.69-.07-1.02-.22-2.4-1.07-4.87-2.1-7.34-3.05-1.29-.49-1.93-1.94-1.44-3.23s1.94-1.94 3.23-1.44c2.56.98 5.12 2.04 7.6 3.15 1.26.56 1.82 2.04 1.26 3.3-.42.94-1.33 1.49-2.29 1.49z"/><path d="m225.96 275.41c-1.13 0-2.15-.77-2.43-1.91-.33-1.34.5-2.69 1.84-3.02 2.67-.65 5.36-1.24 8.01-1.75 1.35-.26 2.67.62 2.93 1.98s-.62 2.67-1.98 2.93c-2.57.5-5.19 1.07-7.78 1.7-.2.05-.4.07-.59.07z"/><path d="m287.99 274.15c-.19 0-.38-.02-.57-.07-2.59-.61-5.21-1.14-7.77-1.57-1.36-.23-2.28-1.52-2.05-2.88s1.52-2.28 2.88-2.05c2.66.45 5.38 1 8.08 1.63 1.34.32 2.18 1.66 1.86 3.01-.27 1.16-1.3 1.93-2.43 1.93z"/><path d="m252.88 271.2c-1.31 0-2.41-1.02-2.49-2.34-.09-1.38.96-2.57 2.33-2.66 2.77-.18 5.54-.27 8.23-.28h.01c1.38 0 2.5 1.12 2.5 2.49 0 1.38-1.11 2.5-2.49 2.51-2.59.01-5.25.1-7.92.27-.06-.01-.11.01-.17.01z"/></g></svg>