<svg enable-background="new 0 0 566.93 566.93" viewBox="0 0 566.93 566.93" xmlns="http://www.w3.org/2000/svg"><g fill="#6fc9c3"><path d="m488.83 206.98c-.07 0-.14 0-.21-.01-1.38-.12-2.4-1.33-2.28-2.7.11-1.25.16-2.52.16-3.78 0-1.38 1.12-2.5 2.5-2.5s2.5 1.12 2.5 2.5c0 1.4-.06 2.82-.18 4.21-.11 1.29-1.2 2.28-2.49 2.28z"/><path d="m127.47 369.01c-.19 0-.38-.02-.57-.07-2.71-.63-5.41-1.4-8.02-2.3-1.31-.45-2-1.87-1.55-3.18.45-1.3 1.87-2 3.18-1.55 2.44.84 4.97 1.57 7.51 2.15 1.35.31 2.18 1.65 1.87 3-.25 1.17-1.28 1.95-2.42 1.95zm-24.88-10.78c-.49 0-.98-.14-1.41-.44-2.32-1.59-4.55-3.32-6.62-5.15-1.03-.92-1.13-2.5-.21-3.53s2.5-1.13 3.53-.21c1.91 1.69 3.97 3.3 6.12 4.77 1.14.78 1.43 2.33.65 3.47-.48.71-1.27 1.09-2.06 1.09zm-18.41-19.78c-.88 0-1.73-.46-2.19-1.28-1.38-2.49-2.57-5.08-3.52-7.7-.47-1.3.2-2.73 1.5-3.2s2.73.2 3.2 1.5c.86 2.37 1.93 4.72 3.18 6.97.67 1.21.24 2.73-.97 3.4-.37.21-.79.31-1.2.31zm-6.1-26.18c-.05 0-.1 0-.15 0-1.38-.08-2.43-1.26-2.35-2.64.17-2.82.58-5.65 1.23-8.41.32-1.34 1.66-2.17 3.01-1.86 1.34.32 2.18 1.66 1.86 3.01-.58 2.48-.95 5.02-1.1 7.56-.08 1.31-1.18 2.34-2.5 2.34zm9.05-25.34c-.5 0-1-.15-1.43-.45-1.13-.79-1.4-2.35-.61-3.48 1.59-2.26 3.38-4.46 5.33-6.53.95-1 2.53-1.05 3.53-.11 1.01.95 1.05 2.53.11 3.53-1.78 1.9-3.43 3.91-4.88 5.98-.49.69-1.27 1.06-2.05 1.06zm20.17-18.03c-.87 0-1.71-.45-2.17-1.26-.68-1.2-.27-2.73.93-3.41 2.39-1.36 4.91-2.62 7.48-3.73 1.27-.54 2.74.04 3.28 1.31s-.04 2.74-1.31 3.28c-2.4 1.04-4.75 2.2-6.98 3.48-.39.23-.81.33-1.23.33zm25.62-8.89c-1.21 0-2.27-.88-2.47-2.11-.22-1.36.72-2.64 2.08-2.86 2.73-.43 5.51-.73 8.28-.89 1.36-.08 2.56.97 2.64 2.35s-.97 2.56-2.35 2.64c-2.6.15-5.22.43-7.78.84-.14.02-.27.03-.4.03zm280.77-1h-8.08c-1.38 0-2.5-1.12-2.5-2.5s1.12-2.5 2.5-2.5h8.08c1.38 0 2.5 1.12 2.5 2.5s-1.12 2.5-2.5 2.5zm-27.28 0h-8.08c-1.38 0-2.5-1.12-2.5-2.5s1.12-2.5 2.5-2.5h8.08c1.38 0 2.5 1.12 2.5 2.5s-1.12 2.5-2.5 2.5zm-27.27 0h-8.08c-1.38 0-2.5-1.12-2.5-2.5s1.12-2.5 2.5-2.5h8.08c1.38 0 2.5 1.12 2.5 2.5s-1.12 2.5-2.5 2.5zm-27.28 0h-8.08c-1.38 0-2.5-1.12-2.5-2.5s1.12-2.5 2.5-2.5h8.08c1.38 0 2.5 1.12 2.5 2.5s-1.12 2.5-2.5 2.5zm-27.27 0h-8.08c-1.38 0-2.5-1.12-2.5-2.5s1.12-2.5 2.5-2.5h8.08c1.38 0 2.5 1.12 2.5 2.5s-1.12 2.5-2.5 2.5zm-27.27 0h-8.08c-1.38 0-2.5-1.12-2.5-2.5s1.12-2.5 2.5-2.5h8.08c1.38 0 2.5 1.12 2.5 2.5s-1.12 2.5-2.5 2.5zm-27.28 0h-8.08c-1.38 0-2.5-1.12-2.5-2.5s1.12-2.5 2.5-2.5h8.08c1.38 0 2.5 1.12 2.5 2.5s-1.12 2.5-2.5 2.5zm-27.27 0h-8.08c-1.38 0-2.5-1.12-2.5-2.5s1.12-2.5 2.5-2.5h8.08c1.38 0 2.5 1.12 2.5 2.5s-1.12 2.5-2.5 2.5zm-27.27 0h-8.08c-1.38 0-2.5-1.12-2.5-2.5s1.12-2.5 2.5-2.5h8.08c1.38 0 2.5 1.12 2.5 2.5s-1.12 2.5-2.5 2.5zm-27.28 0h-8.08c-1.38 0-2.5-1.12-2.5-2.5s1.12-2.5 2.5-2.5h8.08c1.38 0 2.5 1.12 2.5 2.5s-1.12 2.5-2.5 2.5zm264.61-.82c-1.23 0-2.29-.9-2.47-2.15-.19-1.37.76-2.63 2.12-2.83 2.58-.37 5.16-.87 7.68-1.49 1.34-.33 2.7.48 3.03 1.82s-.48 2.7-1.82 3.03c-2.68.67-5.43 1.2-8.18 1.59-.12.03-.24.03-.36.03zm25.78-8.46c-.88 0-1.74-.47-2.19-1.3-.66-1.21-.22-2.73.99-3.39 2.29-1.26 4.51-2.65 6.59-4.13 1.12-.8 2.69-.54 3.49.58s.54 2.69-.58 3.49c-2.24 1.6-4.63 3.09-7.09 4.44-.39.21-.8.31-1.21.31zm20.53-17.63c-.52 0-1.04-.16-1.48-.49-1.11-.82-1.35-2.38-.53-3.5 1.54-2.09 2.91-4.28 4.09-6.51.64-1.22 2.15-1.69 3.38-1.05 1.22.64 1.69 2.15 1.05 3.38-1.29 2.46-2.8 4.87-4.49 7.16-.5.66-1.26 1.01-2.02 1.01z"/></g></svg>