<svg enable-background="new 0 0 566.93 566.93" viewBox="0 0 566.93 566.93" xmlns="http://www.w3.org/2000/svg"><g fill="#bb95c0"><path d="m391.4 344.2c-1.38 0-2.5-1.12-2.5-2.5v-8.09c0-1.38 1.12-2.5 2.5-2.5s2.5 1.12 2.5 2.5v8.09c0 1.38-1.12 2.5-2.5 2.5zm0-27.31c-1.38 0-2.5-1.12-2.5-2.5v-8.09c0-1.38 1.12-2.5 2.5-2.5s2.5 1.12 2.5 2.5v8.09c0 1.38-1.12 2.5-2.5 2.5zm0-27.31c-1.38 0-2.5-1.12-2.5-2.5v-1.09c0-2.23-.14-4.48-.42-6.67-.17-1.37.8-2.62 2.17-2.79 1.37-.18 2.62.8 2.79 2.17.3 2.4.46 4.86.46 7.3v1.09c0 1.37-1.12 2.49-2.5 2.49zm-6.11-26.31c-.9 0-1.77-.49-2.22-1.35-1.19-2.28-2.55-4.48-4.06-6.54-.82-1.11-.57-2.68.54-3.49 1.11-.82 2.68-.58 3.49.54 1.66 2.26 3.16 4.68 4.46 7.18.64 1.22.16 2.73-1.06 3.37-.36.2-.76.29-1.15.29zm-18.2-19.91c-.46 0-.92-.12-1.33-.39-2.17-1.37-4.46-2.56-6.8-3.54-1.27-.53-1.87-2-1.34-3.27s2-1.87 3.27-1.34c2.59 1.09 5.13 2.41 7.53 3.93 1.17.74 1.52 2.28.78 3.45-.47.75-1.28 1.16-2.11 1.16zm-25.87-7.46h-8.09c-1.38 0-2.5-1.12-2.5-2.5s1.12-2.5 2.5-2.5h8.09c1.38 0 2.5 1.12 2.5 2.5s-1.12 2.5-2.5 2.5zm-129.92 0h-8.09c-1.38 0-2.5-1.12-2.5-2.5s1.12-2.5 2.5-2.5h8.09c1.38 0 2.5 1.12 2.5 2.5s-1.12 2.5-2.5 2.5zm-27.29-.2c-.08 0-.15 0-.23-.01-2.82-.26-5.64-.76-8.37-1.49-1.33-.36-2.13-1.73-1.77-3.06s1.73-2.13 3.06-1.77c2.46.66 4.99 1.11 7.53 1.34 1.38.13 2.39 1.34 2.26 2.72-.11 1.3-1.2 2.27-2.48 2.27zm131-3.41c-.45 0-.9-.12-1.3-.37-2.21-1.35-4.53-2.64-6.9-3.82-1.23-.62-1.73-2.12-1.12-3.35.62-1.23 2.12-1.74 3.35-1.12 2.49 1.25 4.93 2.6 7.27 4.03 1.18.72 1.55 2.26.83 3.44-.48.75-1.3 1.19-2.13 1.19zm-85.7-1.08c-.92 0-1.8-.5-2.24-1.38-.62-1.23-.12-2.74 1.11-3.36 2.44-1.23 4.97-2.4 7.5-3.47 1.27-.54 2.74.06 3.28 1.33s-.06 2.74-1.33 3.28c-2.43 1.03-4.85 2.15-7.2 3.33-.36.18-.74.27-1.12.27zm-70.35-5.39c-.53 0-1.07-.17-1.52-.52-2.23-1.71-4.35-3.62-6.29-5.68-.95-1-.91-2.59.1-3.53 1-.95 2.58-.91 3.53.1 1.77 1.87 3.69 3.6 5.7 5.15 1.1.84 1.3 2.41.46 3.51-.49.64-1.23.97-1.98.97zm95.94-4c-1.14 0-2.17-.78-2.43-1.94-.31-1.35.53-2.69 1.87-3 2.75-.64 5.49-1.15 8.17-1.52 1.37-.19 2.63.76 2.82 2.13s-.76 2.63-2.13 2.82c-2.53.36-5.13.84-7.74 1.44-.19.04-.37.07-.56.07zm35.05-.2c-.2 0-.4-.02-.61-.07-2.57-.64-5.15-1.13-7.67-1.47-1.37-.18-2.33-1.44-2.15-2.81s1.44-2.33 2.81-2.15c2.7.36 5.47.88 8.22 1.57 1.34.33 2.16 1.69 1.82 3.03-.28 1.15-1.29 1.9-2.42 1.9zm-147.38-17.25c-.98 0-1.91-.58-2.31-1.54-1.08-2.59-1.97-5.29-2.65-8.03-.33-1.34.48-2.7 1.82-3.03s2.7.48 3.03 1.82c.62 2.49 1.44 4.95 2.42 7.32.53 1.27-.07 2.74-1.35 3.27-.31.13-.64.19-.96.19zm-3.88-26.73c-.08 0-.17 0-.26-.01-1.37-.14-2.37-1.37-2.23-2.74.29-2.8.78-5.6 1.47-8.32.34-1.34 1.7-2.15 3.04-1.81s2.15 1.7 1.81 3.04c-.63 2.48-1.08 5.03-1.34 7.59-.14 1.29-1.23 2.25-2.49 2.25zm9.31-25.35c-.49 0-.99-.14-1.42-.45-1.13-.79-1.41-2.35-.63-3.48 1.61-2.32 3.41-4.53 5.35-6.56.95-1 2.54-1.04 3.53-.08 1 .95 1.04 2.54.08 3.53-1.76 1.84-3.4 3.85-4.86 5.96-.48.71-1.26 1.08-2.05 1.08zm20.65-17.34c-.95 0-1.86-.55-2.28-1.47-.57-1.26-.01-2.74 1.25-3.31 2.58-1.17 5.28-2.13 8.01-2.84 1.33-.35 2.7.45 3.05 1.78.35 1.34-.45 2.7-1.78 3.05-2.46.64-4.89 1.51-7.22 2.56-.33.16-.68.23-1.03.23zm116.68-4.27h-8.09c-1.38 0-2.5-1.12-2.5-2.5s1.12-2.5 2.5-2.5h8.09c1.38 0 2.5 1.12 2.5 2.5s-1.12 2.5-2.5 2.5zm-27.3 0h-8.09c-1.38 0-2.5-1.12-2.5-2.5s1.12-2.5 2.5-2.5h8.09c1.38 0 2.5 1.12 2.5 2.5s-1.12 2.5-2.5 2.5zm-27.3 0h-8.09c-1.38 0-2.5-1.12-2.5-2.5s1.12-2.5 2.5-2.5h8.09c1.38 0 2.5 1.12 2.5 2.5s-1.12 2.5-2.5 2.5zm-27.3 0h-8.09c-1.38 0-2.5-1.12-2.5-2.5s1.12-2.5 2.5-2.5h8.09c1.38 0 2.5 1.12 2.5 2.5s-1.12 2.5-2.5 2.5z"/><path d="m391.4 367.52c-1.38 0-2.5-1.12-2.5-2.5v-4c0-1.38 1.12-2.5 2.5-2.5s2.5 1.12 2.5 2.5v4c0 1.37-1.12 2.5-2.5 2.5z"/><path d="m371.09 441.32h-8.09c-1.38 0-2.5-1.12-2.5-2.5s1.12-2.5 2.5-2.5h8.09c1.38 0 2.5 1.12 2.5 2.5s-1.12 2.5-2.5 2.5z"/><path d="m390.15 439.45c-1.14 0-2.16-.78-2.43-1.93-.31-1.34.52-2.69 1.87-3 2.55-.59 5.06-1.34 7.46-2.22 1.3-.47 2.73.19 3.21 1.49.47 1.3-.19 2.73-1.49 3.21-2.59.95-5.29 1.75-8.04 2.39-.2.03-.39.06-.58.06z"/><path d="m414.57 427.76c-.72 0-1.43-.31-1.93-.9-.88-1.06-.73-2.64.33-3.52 2.01-1.67 3.83-3.47 5.41-5.36.89-1.06 2.46-1.2 3.52-.32 1.06.89 1.2 2.46.32 3.52-1.78 2.13-3.82 4.15-6.06 6.01-.46.38-1.04.57-1.59.57z"/><path d="m428.17 404.83c-.11 0-.22-.01-.33-.02-1.37-.18-2.33-1.44-2.15-2.81.16-1.21.24-2.44.24-3.66 0-1.38 1.12-2.5 2.5-2.5s2.5 1.12 2.5 2.5c0 1.44-.1 2.89-.28 4.31-.17 1.25-1.25 2.18-2.48 2.18z"/></g></svg>