<svg enable-background="new 0 0 141.73 141.73" viewBox="0 0 141.73 141.73" xmlns="http://www.w3.org/2000/svg"><circle cx="70.82" cy="70.95" fill="#f89521" r="60.48"/><path d="m69.16 31.9h3.33c1.22.21 2.47.35 3.67.64 4.72 1.16 8.6 3.67 11.66 7.43 2.94 3.61 4.66 7.76 4.95 12.42.15 2.47.09 4.95.13 7.42v.82h1.23c1.32-.01 2.29.61 3.03 1.66.8 1.13 1 2.41 1 3.75v31.52c0 .51-.04 1.02-.11 1.52-.35 2.51-1.99 3.93-4.52 3.93-10.78 0-21.57 0-32.35 0-4.49 0-8.98-.01-13.47 0-1.45 0-2.52-.62-3.3-1.81-.72-1.09-.91-2.31-.91-3.57 0-10.55-.01-21.1.01-31.66 0-.69.09-1.39.25-2.06.52-2.15 1.99-3.28 4.19-3.29h.82c0-.32 0-.57 0-.82 0-1.78-.07-3.57.02-5.34.09-1.73.14-3.5.56-5.16 2.36-9.25 8.15-15.05 17.58-17.06.72-.15 1.48-.22 2.23-.34zm-11.3 28.68h25.88c0-2.25.04-4.45-.02-6.64-.03-1.03-.17-2.08-.42-3.08-1.41-5.69-6.66-9.78-12.48-9.78s-11.06 4.1-12.5 9.77c-.8 3.2-.24 6.45-.46 9.73zm8.56 26.24c0 1.53-.02 3.05 0 4.58.02 1.44.87 2.28 2.31 2.29 1.32.01 2.64 0 3.96 0 1.74 0 2.53-.8 2.54-2.55 0-2.78.02-5.55-.01-8.33-.01-.67.09-1.24.58-1.76.33-.36.56-.85.73-1.32.84-2.35.43-4.5-1.27-6.3-1.77-1.88-4.06-2.21-6.4-1.5-4.06 1.23-5.44 6.14-2.78 9.46.2.24.32.61.33.93.03 1.49.01 2.99.01 4.5z" fill="#fff"/></svg>