<?xml version="1.0" encoding="utf-8"?>
<!-- Generator: Adobe Illustrator 24.0.1, SVG Export Plug-In . SVG Version: 6.00 Build 0)  -->
<svg version="1.1" id="Layer_1" xmlns="http://www.w3.org/2000/svg" xmlns:xlink="http://www.w3.org/1999/xlink" x="0px" y="0px"
	 viewBox="0 0 566.93 566.93" style="enable-background:new 0 0 566.93 566.93;" xml:space="preserve">
<style type="text/css">
	.st0{fill:#05AFA0;}
	.st1{fill:#CCDC45;}
	.st2{fill:#69CFC6;}
</style>
<g>
	<path class="st0" d="M507.78,438.8c-5.1,6.7-7.87,7.14-15.56,3.38c-20.69-10.13-42.56-16.65-65.15-20.9
		c-46.01-8.66-91.75-7.02-137.17,3.95c-6.97,1.68-13.32-0.16-19.81-1.58c-54.41-11.89-108.38-10.38-161.73,5.73
		c-11.81,3.57-23.22,8.58-34.6,13.42c-8.62,3.66-14.51,0.26-14.51-9.19c-0.02-90.95-0.02-181.9,0-272.85
		c0-8.1,3.03-11.13,11.07-11.16c8.73-0.03,17.46-0.01,26.86-0.01c0-3.21-0.08-6.07,0.02-8.92c0.22-6.3,2.4-8.78,8.56-10.33
		c28.74-7.27,57.9-9.4,87.29-5.84c33.69,4.08,64.17,15.76,88.72,40.24c0.41,0.41,0.88,0.75,1.54,1.3c1-0.84,2.03-1.62,2.96-2.51
		c21.84-20.84,48.2-32.34,77.61-37.44c32.86-5.7,65.39-3.59,97.65,4.34c5.6,1.38,7.76,4.03,7.92,9.89c0.08,2.9,0.01,5.79,0.01,9.33
		c5.84,0,11.32,0,16.8,0c3.21,0,6.44,0.22,9.63-0.05c5.38-0.46,9.32,1.5,11.9,6.23C507.78,250.16,507.78,344.48,507.78,438.8z
		 M274.74,399.47c0-10.07,0.01-19.55,0-29.04c-0.05-60.88-0.13-121.77-0.1-182.65c0-3.16-0.87-5.41-3.09-7.69
		c-9.35-9.62-19.94-17.5-31.94-23.47c-23.5-11.71-48.61-15.9-74.62-15.84c-16.96,0.04-33.7,1.92-50.3,5.68
		c0,76.22,0,152.21,0,228.54C170.09,369.42,224.31,370.1,274.74,399.47z M452.1,375.04c0-76.57,0-152.43,0-228.39
		c-0.67-0.22-1.19-0.45-1.74-0.56c-27.97-5.87-56.06-7.46-84.3-2.2c-27.33,5.1-51.7,16.1-71.07,36.61
		c-1.57,1.67-2.67,4.52-2.67,6.82c-0.14,69.19-0.11,138.37-0.1,207.56c0,1.37,0.13,2.74,0.22,4.37
		C342.6,370.25,396.62,369.18,452.1,375.04z M233.23,399.99c-18.65-6.04-36.79-9.27-55.27-10.15c-23.24-1.11-46.38,0.37-69.41,3.68
		c-6.65,0.96-10.65-2.38-11.07-9.05c-0.1-1.6-0.04-3.21-0.04-4.82c0-68.91,0-137.81,0-206.72c0-1.84,0-3.68,0-5.51
		c-7.27,0-13.9,0-20.47,0c0,84.91,0,169.48,0,254.14C166.87,394.68,152.15,399.59,233.23,399.99z M334.36,398.85
		c0.07,0.47,0.14,0.93,0.2,1.4c53.53-5.69,105.25,1.67,155.66,21.85c0-85.3,0-169.97,0-254.67c-6.86,0-13.47,0-20.28,0
		c0,2.25,0,4.14,0,6.03c0,69.03,0,138.05,0,207.08c0,1.46,0.08,2.93-0.04,4.38c-0.48,5.55-3.98,8.7-9.55,8.61
		c-1.6-0.02-3.21-0.19-4.79-0.41c-28.29-3.93-56.68-5.32-85.05-1.47C358.35,393.31,346.4,396.41,334.36,398.85z"/>
	<path class="st1" d="M274.74,399.47C224.31,370.1,170.09,369.42,114.7,375c0-76.33,0-152.33,0-228.54
		c16.6-3.76,33.34-5.64,50.3-5.68c26.01-0.06,51.11,4.13,74.62,15.84c12,5.98,22.59,13.85,31.94,23.47
		c2.22,2.28,3.09,4.53,3.09,7.69c-0.03,60.88,0.05,121.77,0.1,182.65C274.75,379.91,274.74,389.4,274.74,399.47z"/>
	<path class="st1" d="M452.1,375.04c-55.48-5.86-109.5-4.8-159.67,24.22c-0.08-1.63-0.22-3-0.22-4.37
		c-0.01-69.19-0.03-138.37,0.1-207.56c0-2.3,1.1-5.15,2.67-6.82c19.37-20.51,43.74-31.52,71.07-36.61
		c28.24-5.27,56.34-3.68,84.3,2.2c0.55,0.11,1.07,0.34,1.74,0.56C452.1,222.62,452.1,298.47,452.1,375.04z"/>
	<path class="st2" d="M233.23,399.99c-81.08-0.4-66.36-5.31-156.27,21.57c0-84.66,0-169.23,0-254.14c6.57,0,13.2,0,20.47,0
		c0,1.83,0,3.67,0,5.51c0,68.91,0,137.81,0,206.72c0,1.61-0.06,3.22,0.04,4.82c0.42,6.66,4.41,10,11.07,9.05
		c23.03-3.31,46.18-4.78,69.41-3.68C196.45,390.72,214.58,393.95,233.23,399.99z"/>
	<path class="st2" d="M334.36,398.85c12.04-2.44,23.99-5.55,36.14-7.19c28.37-3.85,56.76-2.46,85.05,1.47
		c1.59,0.22,3.19,0.38,4.79,0.41c5.57,0.09,9.06-3.07,9.55-8.61c0.13-1.45,0.04-2.92,0.04-4.38c0-69.03,0-138.05,0-207.08
		c0-1.89,0-3.78,0-6.03c6.81,0,13.42,0,20.28,0c0,84.69,0,169.36,0,254.67c-50.4-20.18-102.13-27.55-155.66-21.85
		C334.49,399.79,334.42,399.32,334.36,398.85z"/>
</g>
</svg>
