<?xml version="1.0" encoding="utf-8"?>
<!-- Generator: Adobe Illustrator 24.0.1, SVG Export Plug-In . SVG Version: 6.00 Build 0)  -->
<svg version="1.1" id="Layer_1" xmlns="http://www.w3.org/2000/svg" xmlns:xlink="http://www.w3.org/1999/xlink" x="0px" y="0px"
	 viewBox="0 0 566.93 566.93" style="enable-background:new 0 0 566.93 566.93;" xml:space="preserve">
<style type="text/css">
	.st0{fill:#05AFA0;}
</style>
<g>
	<path class="st0" d="M461.76,414.29c-2.39,2.42-4.79,4.82-7.15,7.25c-4.74,4.87-9.46,9.76-14.19,14.64
		c-0.22,0.23-0.46,0.43-0.79,0.73c-24.94-21.28-49.86-42.55-75.05-64.04c-0.54,16.8-1.06,33.3-1.6,49.93
		c-38.62-0.26-77.11-1.88-115.76-0.52c-0.54-16.7-1.08-33.24-1.62-50.08c-25.14,21.45-50.06,42.72-75.09,64.07
		c-7.37-7.6-14.69-15.15-22.1-22.79c0.91-1.02,1.78-2,2.66-2.96c29-31.81,58.01-63.63,87.01-95.44c4.69-5.14,9.38-10.27,14.04-15.44
		c0.87-0.96,1.85-1.37,3.15-1.37c32.16,0.02,64.31-0.02,96.47,0.08c2.78,0.01,5.37,0.81,7.55,3.22
		c24.57,27.15,49.26,54.18,73.92,81.25c9.39,10.31,18.79,20.63,28.18,30.94c0.11,0.12,0.24,0.2,0.37,0.3
		C461.76,414.13,461.76,414.21,461.76,414.29z"/>
	<path class="st0" d="M290.88,130.61c2.18,0.23,4.35,0.49,6.53,0.7c12.53,1.23,25.07,2.33,37.58,3.7
		c7.75,0.85,15.37,2.47,22.84,4.78c11.36,3.51,17.7,11.33,19.68,22.9c0.93,5.44,0.73,10.91,0.41,16.39
		c-0.6,10.37-1.27,20.74-1.83,31.11c-0.86,15.99-6.04,30.42-15.88,43.05c-12.37,15.88-28.59,25.33-48.53,28.36
		c-14.49,2.2-28.58,0.92-41.95-5.33c-16.45-7.69-29.24-19.36-37.46-35.71c-4.82-9.59-7.34-19.84-7.58-30.57
		c-0.19-8.36-1.52-16.52-3.23-24.67c-0.88-4.21-1.51-8.51-1.77-12.79c-0.3-4.93,1.73-9.22,5.35-12.5
		c10.73-9.74,22.55-17.84,35.99-23.44c5.28-2.2,10.61-4.35,16.31-5.05c3.87-0.47,7.8-0.36,11.71-0.58c0.52-0.03,1.27,0.62,1.6-0.35
		C290.72,130.61,290.8,130.61,290.88,130.61z M293.51,190.67c-0.05-0.06-0.1-0.13-0.15-0.19c-0.5,0.23-1,0.45-1.49,0.69
		c-6.54,3.17-13.06,6.37-19.62,9.5c-0.63,0.3-1.54,0.53-2.14,0.31c-6.73-2.42-13.63-2.92-20.67-1.99c-1.77,0.23-1.99,0.42-2.24,2.18
		c-0.85,5.99-0.57,11.93,0.42,17.89c4.43,26.67,31.06,49.71,61.19,45.3c16.78-2.46,30.03-10.29,39.28-24.61
		c7.58-11.72,10.77-24.45,8.81-38.37c-0.24-1.71-0.55-2.11-2.01-2.37c-14.64-2.58-29.34-3.6-44.14-1.65
		c-6.66,0.88-13.24,2.14-19.49,4.77c-0.43,0.18-0.92,0.26-1.39,0.3c-0.77,0.06-1.29-0.31-1.18-1.11c0.13-1.01,0.22-2.09,0.66-2.98
		C290.64,195.74,292.11,193.22,293.51,190.67z"/>
</g>
</svg>
