<?xml version="1.0" encoding="utf-8"?>
<!-- Generator: Adobe Illustrator 24.0.1, SVG Export Plug-In . SVG Version: 6.00 Build 0)  -->
<svg version="1.1" id="Layer_1" xmlns="http://www.w3.org/2000/svg" xmlns:xlink="http://www.w3.org/1999/xlink" x="0px" y="0px"
	 viewBox="0 0 566.93 566.93" style="enable-background:new 0 0 566.93 566.93;" xml:space="preserve">
<style type="text/css">
	.st0{fill:#F79421;}
</style>
<g>
	<path class="st0" d="M277.2,126.05c1.44,0,2.88,0,4.32,0c0.34,0.09,0.68,0.22,1.02,0.25c4.41,0.41,8.86,0.59,13.24,1.24
		c12.59,1.87,24.29,6.19,34.72,13.57c16.99,12.02,27.8,28.39,33.57,48.24c2.09,7.2,3.1,14.6,3.79,22.05
		c0.12,1.26,0.67,1.86,1.9,2.03c0.94,0.14,1.88,0.38,2.8,0.64c12.36,3.48,22.57,10.35,31.17,19.77
		c7.47,8.18,13.13,17.39,15.86,28.24c0.52,2.08,0.92,4.2,1.38,6.29c0,2.56,0,5.12,0,7.68c-0.1,0.3-0.23,0.59-0.28,0.89
		c-1.84,11.18-8.56,18.14-18.96,21.92c-5.77,2.1-11.77,2.89-17.87,3.09c-0.74,0.02-1.48,0-2.31,0c0.63-7.4,0.37-14.58-0.73-21.72
		c-1.1-7.17-3.04-14.12-5.5-20.94c-2.09-5.81-7.91-18.41-9.15-19.45c-2.55,9.43-6.33,18.28-11.73,26.4
		c-5.42,8.14-12.12,15.05-19.99,20.83c-7.86,5.78-16.4,10.18-25.77,12.96c-9.38,2.78-18.96,3.59-28.69,3.09
		c-39.15-2.01-71.65-32.96-77.09-69.81c-17.43,19.8-23.47,42.93-20.99,68.76c-1.19-0.11-2.21-0.2-3.24-0.31
		c-14.5-1.64-25.63-11.34-29.14-25.52c-0.66-2.66-0.97-5.41-1.44-8.12c0-1.92,0-3.84,0-5.76c0.28-1.81,0.49-3.64,0.86-5.43
		c1.88-9.14,6.59-16.71,13.02-23.31c7.22-7.41,16.02-12.23,25.78-15.36c4.36-1.4,8.85-2.43,13.29-3.57c0.8-0.2,1.1-0.51,1.15-1.33
		c0.09-1.43,0.27-2.87,0.54-4.28c1.13-5.96,2.39-11.9,3.45-17.87c1.43-8.07,3.12-16.07,6.24-23.69
		c5.06-12.35,12.61-22.74,23.92-30.11c10.57-6.89,22.37-9.95,34.82-10.88C273.16,126.39,275.18,126.21,277.2,126.05z M286.72,186.63
		c-0.1-0.02-0.19-0.04-0.29-0.06c-0.53,0.93-1.06,1.86-1.6,2.79c-5.08,8.85-10.54,17.45-17.45,25.03c-2.46,2.7-5.09,5.2-8.46,6.78
		c-1.47,0.69-2.98,1.12-4.64,0.91c-0.73-0.09-1.1-0.3-1.15-1.16c-0.16-2.91-0.4-5.82-0.65-8.73c-0.3-3.51-0.73-6.99-2.14-10.28
		c-0.95-2.23-2.23-4.22-4.23-5.79c-0.3,0.63-0.57,1.19-0.85,1.76c-2.64,5.49-5.74,10.71-9.69,15.38c-2.39,2.83-5.02,5.4-8.43,6.97
		c-1.3,0.6-1.71,1.44-1.62,2.83c0.56,8.27,2.42,16.21,6.25,23.58c11.44,22.03,36.59,38.44,67.66,31.25
		c23.68-5.48,46.22-28.46,45.46-59.09c-0.04-1.58-1.04-2.51-2.63-2.39c-2.55,0.2-5.1,0.43-7.64,0.66
		c-11.19,1.01-22.39,1.94-33.63,1.58c-4.3-0.14-8.6-0.52-12.9-0.77c-1.08-0.06-1.41-0.53-1.4-1.65c0.05-9.44,0.03-18.88,0.03-28.32
		C286.72,187.48,286.72,187.05,286.72,186.63z"/>
	<path class="st0" d="M188.4,432.05c-3.33-0.79-6.66-1.62-10-2.38c-7.2-1.64-14.42-3.24-21.63-4.86c-0.31-0.07-0.61-0.17-1.01-0.28
		c0.17-0.31,0.29-0.59,0.46-0.83c12.72-17.93,25.23-36.02,38.24-53.74c10.12-13.79,20.89-27.1,31.32-40.67
		c3.51-4.56,6.89-9.23,10.25-13.9c0.77-1.06,1.6-1.48,2.89-1.47c9.71,0.07,19.43,0.08,29.14,0.1c22.2,0.06,44.39,0.14,66.59,0.17
		c1.23,0,1.98,0.43,2.69,1.39c25.58,34.64,51.18,69.26,76.78,103.88c0.61,0.83,1.22,1.66,1.92,2.61c-3.68,0.93-7.18,1.83-10.7,2.7
		c-6.98,1.73-13.96,3.43-20.93,5.19c-1.29,0.33-2.14,0.1-2.97-1.02c-15.91-21.4-31.86-42.77-47.81-64.15
		c-0.33-0.44-0.67-0.88-1.22-1.59c-0.16,1.71-0.3,3.1-0.42,4.5c-0.6,7.41-1.19,14.82-1.78,22.23c-0.19,2.35-0.32,4.71-0.56,7.05
		c-0.13,1.22,0.11,2.25,0.79,3.28c4.55,6.91,9.07,13.84,13.59,20.76c0.28,0.42,0.53,0.86,0.93,1.5c-39.1,0.65-77.97,1.31-117,1.96
		c0.59-1.13,1.09-2.14,1.63-3.14c3.22-5.98,6.3-12.03,9.73-17.89c1.64-2.79,2.33-5.42,1.94-8.68c-1.22-10.16-2.14-20.35-3.21-30.9
		c-0.46,0.59-0.74,0.92-0.99,1.28c-15.32,21.48-30.64,42.96-45.98,64.43c-0.64,0.89-1.47,1.64-2.21,2.45
		C188.72,432.05,188.56,432.05,188.4,432.05z"/>
</g>
</svg>
