<?xml version="1.0" encoding="utf-8"?>
<!-- Generator: Adobe Illustrator 24.0.1, SVG Export Plug-In . SVG Version: 6.00 Build 0)  -->
<svg version="1.1" xmlns="http://www.w3.org/2000/svg" xmlns:xlink="http://www.w3.org/1999/xlink" x="0px" y="0px"
	 viewBox="0 0 384.84 349.92" style="enable-background:new 0 0 384.84 349.92;" xml:space="preserve">
<style type="text/css">
	.st0{fill:#7F7F7F;}
</style>
<g id="Background_xA0_Image_1_">
</g>
<g id="Layer_1_xA0_Image_1_">
	<g>
		<g>
			<path class="st0" d="M283.07,271.63c-1.76,3.04-3.62,6.02-5.24,9.13c-1.14,2.2-2.69,3-5.16,3
				c-66.12-0.05-132.25-0.04-198.37-0.04c-7.53,0-13.8-2.68-18.38-8.76c-3-3.99-4.4-8.57-4.4-13.59
				c0.02-39.26,0.01-78.52,0.02-117.77c0-18.04-0.08-36.08,0.03-54.12c0.07-10.21,4.86-17.58,14.28-21.63
				c2.19-0.94,4.74-1.4,7.14-1.47c6.89-0.2,13.79-0.1,20.68-0.08c2.41,0.01,3.07,0.7,3.09,3.15c0.03,3.66,0.01,7.31,0,10.97
				c0,2.22,0.1,2.33,2.31,2.33c17.86,0,35.73,0,53.59,0c21.94,0,43.88,0,65.82-0.02c1.76,0,3.08,0.51,4.03,2.1
				c1.75,2.92,3.64,5.76,5.45,8.64c0.74,1.18,1.32,1.23,2.07,0.06c1.9-2.97,3.8-5.94,5.67-8.93c0.85-1.37,2.07-1.87,3.63-1.87
				c30.03,0.01,60.07,0.01,90.1,0.02c3.01,0,3.92,0.95,3.92,4c0,64.31,0,128.62,0,192.93c0,3.15-0.89,4.05-4.02,4.05
				c-10.73,0-21.46-0.03-32.19,0.03c-1.83,0.01-3.22-0.57-4.4-1.94c-2.59-2.99-5.25-5.9-7.85-8.88c-0.43-0.49-0.67-1.14-1-1.72
				C283.63,271.34,283.35,271.48,283.07,271.63z M179.34,88.66c-12.23,0-24.46-0.03-36.69,0.05c-1.03,0.01-2.24,0.44-3.06,1.07
				c-5.63,4.33-9.64,10.05-13.66,15.81c-2.04,2.92-4.34,5.78-7.02,8.08c-5.81,4.99-12.89,7.65-20.18,9.72
				c-1.41,0.4-1.97,1.04-1.96,2.49c0.03,11.87,0.03,23.73,0,35.6c0,1.33,0.44,1.89,1.78,2.14c5.82,1.12,11.5,2.74,16.82,5.43
				c11.32,5.71,20.41,13.92,27.07,24.71c2.99,4.84,4.6,10.25,3.53,15.95c-0.77,4.14-2.23,8.17-3.55,12.19
				c-1.41,4.3-2.52,8.6-1.85,13.19c0.77,5.21,2.99,9.83,5.84,14.14c5.52,8.34,7.88,17.34,6.17,27.28c-0.17,1.02,0.25,1.31,1.11,1.35
				c0.48,0.02,0.96,0.01,1.44,0.01c34.41,0,68.82,0,103.23,0c4.26,0,8.51,0.06,12.77-0.06c0.8-0.02,1.9-0.57,2.3-1.22
				c2.16-3.5,4.2-7.08,6.18-10.69c1.73-3.15,3.78-3.5,6.13-0.88c3.35,3.75,6.66,7.53,9.98,11.3c0.91,1.04,1.9,1.59,3.4,1.58
				c8.63-0.08,17.26-0.04,25.9-0.04c2.63,0,2.63,0,2.63-2.72c0-34.52,0-69.04,0-103.56c0-4.02-0.03-8.03,0.02-12.05
				c0.02-1.14-0.29-1.75-1.49-2c-2.28-0.47-4.57-0.97-6.8-1.65c-8.19-2.52-15.69-6.4-22.44-11.66c-3.67-2.86-6.84-6.24-8.71-10.57
				c-2.14-4.95-1.87-10.16-1.36-15.38c0.27-2.79,0.5-5.63,0.36-8.42c-0.19-4.08-1.46-7.94-4.16-11.05c-2.73-3.15-5.72-6.08-8.71-9
				c-0.64-0.62-1.75-1.07-2.65-1.08c-9.95-0.08-19.9-0.02-29.85-0.08c-1.32-0.01-2.09,0.47-2.75,1.53c-2.3,3.71-4.68,7.37-7,11.06
				c-1.74,2.77-4.28,2.92-5.95,0.27c-2.2-3.48-4.38-6.98-6.54-10.48c-1-1.62-2.16-2.45-4.31-2.42
				C203.32,88.74,191.33,88.67,179.34,88.66z M91.04,156.98c0-10.49,0-20.97,0-31.46c0.01-17.08,0.02-34.15,0.02-51.23
				c0-2.24-0.07-2.31-2.33-2.31c-5.09,0-10.19,0-15.28,0.02c-4.19,0.02-7.65,1.84-10.61,4.59c-3.84,3.57-5.55,8.11-5.55,13.34
				c0,51.77,0,103.54,0.02,155.31c0,0.54,0.27,1.08,0.42,1.63c0.53-0.21,1.15-0.31,1.58-0.65c2.89-2.29,6.11-3.85,9.81-3.96
				c6.46-0.2,12.93-0.21,19.4-0.28c2.48-0.03,2.52-0.03,2.52-2.5C91.04,211.99,91.04,184.49,91.04,156.98z M96.8,208.07
				C96.8,208.07,96.8,208.07,96.8,208.07c0.01,11.92,0.01,23.84,0.01,35.77c0,3.33-0.78,4.09-4.16,4.09
				c-7.37,0-14.74-0.08-22.11,0.04c-7.55,0.12-14.24,8.24-13.1,15.67c1.22,7.97,7.81,14.34,16.65,14.28
				c23.25-0.16,46.5-0.05,69.75-0.05c0.36,0,0.8,0.13,1.06-0.03c0.63-0.39,1.52-0.81,1.7-1.4c0.45-1.47,0.68-3.03,0.79-4.57
				c0.52-7.46-2.28-13.89-6.23-19.99c-4.56-7.05-7.59-14.67-6.25-23.2c0.75-4.73,2.3-9.38,3.9-13.93c2.3-6.53,2.01-12.68-1.75-18.54
				c-5.28-8.24-12.21-14.79-20.56-19.89c-5.11-3.12-10.65-5.09-16.43-6.48c-2.93-0.71-3.26-0.43-3.26,2.48
				C96.8,184.22,96.8,196.15,96.8,208.07z M282.42,88.94c1.36,1.46,2.36,2.46,3.28,3.54c4.44,5.2,7.36,11.07,7.37,18.04
				c0,3.83-0.2,7.67-0.57,11.48c-0.66,6.84,1.75,12.35,6.94,16.64c7.54,6.23,16.14,10.38,25.63,12.71c2.2,0.54,2.58,0.28,2.58-1.9
				c0-19.48,0-38.96,0-58.44c0-2.31-0.02-2.35-2.27-2.35c-13.55,0-27.1-0.01-40.65,0.01C284.13,88.68,283.51,88.81,282.42,88.94z
				 M131.11,88.93c-0.48-0.09-0.97-0.26-1.46-0.26c-10.36-0.01-20.72,0-31.08-0.02c-1.28,0-1.81,0.45-1.8,1.8
				c0.04,8.5,0.01,17,0.02,25.5c0,1.66,0.58,2.05,2.11,1.48c1.9-0.72,3.79-1.44,5.67-2.2c4.74-1.92,9.4-4.08,12.66-8.15
				C121.92,101.23,126.36,95.17,131.11,88.93z"/>
			<path class="st0" d="M272.68,286.25c0,0-0.01,0-0.01,0c-63.92-0.05-128.91-0.04-191.76-0.04l-6.61,0c0,0,0,0,0,0
				c-8.65,0-15.5-3.28-20.37-9.76c-3.25-4.32-4.9-9.4-4.9-15.1c0.01-30.72,0.01-61.45,0.01-92.17l0-25.6
				c0-5.41-0.01-10.83-0.01-16.24c-0.02-12.42-0.03-25.26,0.05-37.9c0.07-11.23,5.54-19.5,15.8-23.91c2.97-1.28,6.02-1.62,8.05-1.67
				c5.49-0.16,11.06-0.13,16.45-0.1c1.44,0.01,2.87,0.01,4.31,0.02c3.78,0.01,5.56,1.8,5.59,5.63c0.02,2.73,0.02,5.46,0.01,8.19
				l-0.01,2.63l65.81,0c17.81,0,35.61,0,53.42-0.02c0,0,0.01,0,0.01,0c2.81,0,4.82,1.08,6.16,3.31c1.07,1.78,2.22,3.58,3.34,5.32
				c0.34,0.53,0.68,1.07,1.03,1.61c1.53-2.39,3.05-4.79,4.56-7.19c1.26-2.02,3.19-3.04,5.75-3.04c0,0,0,0,0,0
				c20.74,0.01,41.48,0.01,62.21,0.01l27.89,0c4.38,0,6.42,2.06,6.42,6.5l0,192.93c0,4.53-2.01,6.55-6.52,6.55l-8.76,0
				c-7.81,0-15.62-0.01-23.42,0.03c-0.02,0-0.04,0-0.06,0c-2.57,0-4.61-0.92-6.25-2.81c-1.38-1.59-2.78-3.16-4.18-4.73
				c-0.98-1.1-1.96-2.2-2.94-3.31c-0.04,0.07-0.09,0.15-0.13,0.22c-1.22,2.05-2.47,4.17-3.57,6.29
				C278.52,284.87,276.18,286.25,272.68,286.25z M138.01,281.21c44.68,0,89.94,0.01,134.67,0.04c0,0,0.01,0,0.01,0
				c1.63,0,2.26-0.36,2.93-1.65c1.16-2.24,2.46-4.43,3.71-6.54c0.53-0.9,1.06-1.79,1.58-2.69l0.36-0.63l3.61-1.88l1.19,2.09
				c0.13,0.22,0.24,0.45,0.36,0.67c0.12,0.24,0.27,0.54,0.36,0.64c1.2,1.38,2.42,2.74,3.63,4.1c1.42,1.59,2.83,3.18,4.22,4.78
				c0.68,0.79,1.35,1.08,2.47,1.08c0.01,0,0.02,0,0.03,0c7.82-0.04,15.64-0.03,23.45-0.03l8.75,0c0.84,0,1.23-0.08,1.39-0.13
				c0.05-0.16,0.13-0.56,0.13-1.43l0-192.93c0-0.84-0.09-1.22-0.13-1.37c-0.14-0.05-0.51-0.13-1.29-0.13l-27.89,0
				c-20.74,0-41.48,0-62.21-0.01c0,0,0,0,0,0c-1,0-1.25,0.29-1.51,0.69c-1.87,3-3.78,5.98-5.69,8.96c-0.86,1.34-1.91,1.96-3.14,2
				c-1.23-0.01-2.29-0.71-3.15-2.08c-0.68-1.08-1.37-2.16-2.06-3.24c-1.13-1.77-2.3-3.6-3.41-5.44c-0.37-0.61-0.73-0.89-1.88-0.89
				c0,0,0,0-0.01,0c-17.81,0.02-35.62,0.02-53.43,0.02l-66,0c-1.32,0-2.69,0-3.75-1.07c-1.06-1.06-1.06-2.44-1.06-3.77l0.01-2.8
				c0.01-2.71,0.01-5.43-0.01-8.14c0-0.29-0.02-0.5-0.03-0.65c-0.14-0.01-0.32-0.02-0.57-0.02c-1.44,0-2.88-0.01-4.32-0.02
				c-5.35-0.03-10.87-0.06-16.28,0.1c-2.26,0.07-4.47,0.52-6.22,1.27c-8.41,3.62-12.71,10.13-12.77,19.35
				c-0.08,12.61-0.06,25.45-0.05,37.86c0.01,5.42,0.01,10.83,0.01,16.25l0,25.6c0,30.72,0,61.45-0.01,92.17
				c0,4.58,1.31,8.65,3.89,12.09c3.93,5.22,9.28,7.76,16.37,7.76c0,0,0,0,0,0l6.61,0C99.78,281.21,118.84,281.21,138.01,281.21z
				 M73.95,280.41c-9.56,0-17.54-6.88-19-16.4c-0.66-4.3,0.77-8.91,3.93-12.65c3.11-3.68,7.33-5.83,11.6-5.9
				c5.22-0.08,10.52-0.07,15.64-0.05c2.17,0.01,4.34,0,6.51,0.01c0.91,0,1.35-0.07,1.56-0.11c0.05-0.2,0.11-0.62,0.11-1.47
				L94.3,172.3c0-1.51,0-3.39,1.47-4.56c1.49-1.17,3.36-0.72,4.87-0.36c6.72,1.62,12.33,3.83,17.15,6.78
				c8.84,5.39,16.03,12.35,21.36,20.67c3.98,6.21,4.65,13.18,2,20.72c-1.52,4.33-3.07,8.94-3.79,13.49
				c-1.07,6.79,0.8,13.6,5.88,21.45c5.07,7.84,7.11,14.48,6.62,21.53c-0.14,1.93-0.43,3.61-0.89,5.13c-0.44,1.43-1.68,2.16-2.5,2.64
				l-0.28,0.17c-0.91,0.56-1.84,0.46-2.29,0.41l-0.12-0.01c-6.62,0-13.25-0.01-19.89-0.02c-16.32-0.02-33.2-0.04-49.8,0.07
				C74.05,280.41,74,280.41,73.95,280.41z M143.63,275.67c-0.02,0.01-0.03,0.02-0.05,0.03L143.63,275.67z M79.89,250.39
				c-3.1,0-6.23,0.01-9.32,0.07c-2.82,0.05-5.69,1.55-7.87,4.12c-2.19,2.6-3.24,5.84-2.81,8.67c1.1,7.17,6.87,12.16,14.05,12.16
				c0.04,0,0.07,0,0.11,0c16.62-0.12,33.51-0.09,49.84-0.07c6.64,0.01,13.28,0.02,19.93,0.02c0.1,0,0.21,0,0.31,0.01
				c0.06-0.04,0.13-0.08,0.18-0.11c0.28-1.05,0.46-2.22,0.56-3.58c0.41-5.9-1.39-11.59-5.83-18.46c-5.79-8.94-7.89-16.87-6.62-24.95
				c0.78-4.97,2.41-9.82,4.01-14.37c2.14-6.1,1.66-11.45-1.49-16.36c-4.93-7.68-11.57-14.11-19.76-19.11
				c-4.37-2.67-9.51-4.69-15.71-6.18c-0.06-0.01-0.12-0.03-0.17-0.04c0,0.03,0,0.06,0,0.09l0.01,71.53c0,4.74-1.87,6.59-6.66,6.59
				c-2.17,0-4.35-0.01-6.53-0.01C84.06,250.4,81.98,250.39,79.89,250.39z M299.08,280.39c-2.08,0-3.79-0.79-5.23-2.43l-0.15-0.17
				c-3.26-3.71-6.52-7.43-9.82-11.12c-0.57-0.64-0.93-0.84-1.07-0.9c-0.13,0.09-0.5,0.4-1,1.31c-2.35,4.28-4.34,7.71-6.25,10.8
				c-0.94,1.52-2.91,2.36-4.36,2.4c-3.2,0.09-6.43,0.08-9.56,0.06c-1.09,0-2.18-0.01-3.27-0.01l-103.23,0l-0.34,0
				c-0.4,0-0.8,0-1.2-0.01c-1.23-0.05-2.18-0.47-2.82-1.26c-0.64-0.79-0.87-1.8-0.66-3c1.53-8.94-0.37-17.27-5.8-25.48
				c-3.51-5.31-5.49-10.13-6.23-15.16c-0.78-5.34,0.59-10.2,1.95-14.33l0.64-1.93c1.08-3.26,2.21-6.62,2.82-9.94
				c0.86-4.58-0.22-9.35-3.21-14.18c-6.32-10.24-15.09-18.25-26.06-23.79c-4.58-2.31-9.72-3.97-16.17-5.2
				c-2.5-0.48-3.81-2.07-3.81-4.61c0.03-11.49,0.03-23.46,0-35.58c-0.01-2.54,1.27-4.18,3.78-4.9c6.28-1.79,13.48-4.28,19.23-9.21
				c2.18-1.87,4.28-4.29,6.6-7.62c4.04-5.79,8.22-11.78,14.19-16.36c1.26-0.97,3.01-1.58,4.57-1.59c9.69-0.06,19.55-0.05,29.08-0.05
				l7.62,0c3.02,0,6.04,0,9.06,0.01c8.81,0.01,17.93,0.03,26.88-0.08c0.04,0,0.08,0,0.12,0c2.81,0,4.83,1.15,6.35,3.61
				c2.05,3.31,4.26,6.87,6.53,10.46c0.37,0.58,0.66,0.73,0.72,0.73c0.08,0,0.5-0.19,1.01-1c0.98-1.56,1.98-3.12,2.97-4.68
				c1.35-2.12,2.7-4.24,4.03-6.37c1.13-1.83,2.72-2.72,4.85-2.72c0.01,0,0.03,0,0.04,0c4.54,0.02,9.08,0.03,13.61,0.03
				c5.41,0,10.83,0.01,16.24,0.05c1.55,0.01,3.27,0.72,4.37,1.79c2.79,2.73,5.96,5.82,8.85,9.15c2.93,3.38,4.54,7.61,4.77,12.57
				c0.15,3.07-0.12,6.14-0.37,8.78c-0.48,4.92-0.75,9.71,1.17,14.15c1.5,3.48,4.03,6.53,7.95,9.59c6.45,5.03,13.73,8.81,21.63,11.24
				c2.02,0.62,4.08,1.09,6.57,1.59c1.32,0.27,3.54,1.21,3.49,4.48c-0.04,2.9-0.03,5.86-0.03,8.72l0,3.29v103.56
				c0,1.77,0,3.05-1.03,4.12c-1.07,1.1-2.4,1.1-4.1,1.1l-6.56,0c-6.33-0.01-12.88-0.02-19.32,0.04
				C299.13,280.39,299.11,280.39,299.08,280.39z M282.81,260.76c1.66,0,3.28,0.87,4.82,2.59c3.3,3.7,6.57,7.42,9.84,11.15l0.15,0.17
				c0.5,0.58,0.79,0.72,1.5,0.73c6.46-0.06,13.02-0.05,19.37-0.04l6.55,0c0.04,0,0.08,0,0.13,0c0-0.07,0-0.14,0-0.21l0-106.84
				c-0.01-2.76-0.01-5.6,0.02-8.42c-2.4-0.5-4.46-0.97-6.52-1.61c-8.49-2.61-16.31-6.67-23.24-12.08
				c-4.54-3.54-7.64-7.32-9.47-11.55c-2.39-5.53-2.08-11.24-1.55-16.62c0.24-2.47,0.48-5.33,0.35-8.06
				c-0.18-3.82-1.38-7.02-3.56-9.53c-2.75-3.17-5.84-6.19-8.56-8.85c-0.17-0.17-0.66-0.37-0.92-0.37
				c-5.4-0.04-10.81-0.04-16.21-0.05c-4.55,0-9.09-0.01-13.64-0.03c-0.01,0-0.01,0-0.02,0c-0.26,0-0.35,0.04-0.36,0.04l0,0
				c0,0-0.08,0.06-0.24,0.32c-1.34,2.15-2.7,4.29-4.06,6.42c-0.99,1.55-1.97,3.1-2.95,4.65c-1.35,2.15-3.21,3.34-5.23,3.34
				c0,0,0,0-0.01,0c-1.94,0-3.69-1.09-4.94-3.06c-2.28-3.61-4.5-7.18-6.56-10.51c-0.62-1.01-1.01-1.25-2.16-1.24
				c-8.99,0.11-18.12,0.09-26.95,0.08c-3.02,0-6.03-0.01-9.05-0.01l-7.63,0c-9.52,0-19.37-0.01-29.05,0.05
				c-0.47,0-1.15,0.24-1.55,0.55c-5.35,4.11-9.31,9.78-13.13,15.26c-2.57,3.68-4.93,6.39-7.44,8.55
				c-6.48,5.57-14.32,8.29-21.12,10.23c-0.06,0.02-0.11,0.03-0.15,0.04c0,0.01,0,0.02,0,0.03c0.03,12.04,0.03,23.93,0,35.34
				c6.8,1.32,12.28,3.1,17.23,5.6c11.81,5.96,21.25,14.58,28.07,25.62c3.66,5.92,4.96,11.89,3.87,17.72c-0.68,3.65-1.86,7.18-3,10.6
				l-0.63,1.91c-1.46,4.45-2.32,8.21-1.75,12.04c0.63,4.28,2.36,8.45,5.45,13.12c5.76,8.71,8.04,17.96,6.79,27.51l103.08,0
				c1.1,0,2.19,0,3.29,0.01c3.09,0.01,6.29,0.02,9.41-0.06c0.06-0.01,0.22-0.09,0.32-0.15c1.84-2.99,3.77-6.32,6.04-10.46
				c1.3-2.37,2.93-3.68,4.82-3.89C282.44,260.77,282.63,260.76,282.81,260.76z M99.29,161.73
				C99.29,161.73,99.29,161.73,99.29,161.73C99.29,161.73,99.29,161.73,99.29,161.73z M56.03,250.24l-0.73-2.71
				c-0.03-0.12-0.07-0.24-0.11-0.35c-0.16-0.48-0.39-1.13-0.39-1.92c-0.01-35.5-0.01-71-0.01-106.5l0-48.81
				c0-6.15,2.13-11.25,6.35-15.17c3.73-3.48,7.87-5.25,12.3-5.26c4.23-0.02,8.46-0.02,12.69-0.02l2.6,0c1.4,0.01,2.73,0,3.78,1.04
				c1.06,1.05,1.06,2.43,1.06,3.77l-0.02,72.86l0,92.34c0,3.84-1.12,4.96-4.99,5l-4.28,0.04c-4.95,0.04-10.06,0.09-15.07,0.24
				c-2.81,0.08-5.54,1.2-8.34,3.42c-0.66,0.52-1.35,0.74-1.86,0.9c-0.12,0.04-0.24,0.07-0.35,0.12L56.03,250.24z M88.56,74.48
				l-2.44,0c-4.22,0-8.45,0-12.67,0.02c-3.17,0.01-6.09,1.3-8.91,3.92c-3.2,2.98-4.75,6.74-4.75,11.51l0,48.81
				c0,34.68,0,69.36,0.01,104.04c3-1.94,6.05-2.93,9.24-3.03c5.07-0.15,10.21-0.2,15.18-0.24l4.27-0.04c0.02,0,0.03,0,0.04,0
				l0-92.34L88.56,74.48z M326.51,154.09c-0.77,0-1.49-0.18-2.03-0.31c-10.05-2.46-19.01-6.91-26.63-13.21
				c-5.94-4.91-8.57-11.24-7.84-18.81c0.37-3.87,0.56-7.65,0.56-11.24c0-5.72-2.22-11.09-6.77-16.42c-0.57-0.66-1.2-1.33-1.92-2.1
				c-0.39-0.42-0.82-0.86-1.29-1.37l-3.35-3.6l4.88-0.58c0.36-0.04,0.67-0.09,0.94-0.13c0.59-0.09,1.1-0.16,1.68-0.16
				c13.55-0.01,27.1-0.01,40.65-0.01c3.61,0,4.76,1.18,4.77,4.85l0,58.44c0,1.06,0,2.82-1.4,3.92
				C328.06,153.92,327.26,154.09,326.51,154.09z M287.87,91.17c5.18,6.17,7.7,12.5,7.7,19.35c0,3.75-0.2,7.69-0.58,11.72
				c-0.57,5.91,1.41,10.64,6.05,14.48c6.91,5.71,15.02,9.77,24.12,12.08l0-57.63C312.73,91.16,300.3,91.16,287.87,91.17z
				 M97.82,120.18c-0.62,0-1.31-0.14-1.96-0.59c-1.56-1.08-1.56-3-1.57-3.63c0-3.09,0-6.19,0-9.28c0-5.41,0.01-10.81-0.02-16.22
				c0-0.5-0.01-2.02,1.13-3.17c1.14-1.15,2.66-1.14,3.17-1.14c10.36,0.02,20.72,0.01,31.08,0.02c0.62,0,1.15,0.13,1.57,0.23
				c0.11,0.03,0.23,0.05,0.34,0.08l3.99,0.74l-2.46,3.23c-1.43,1.88-2.83,3.74-4.22,5.58c-3.29,4.37-6.4,8.49-9.7,12.61
				c-3.69,4.6-8.78,6.92-13.67,8.91c-1.9,0.77-3.79,1.49-5.72,2.22C99.44,119.9,98.69,120.18,97.82,120.18z M99.31,116.28
				C99.31,116.28,99.31,116.28,99.31,116.28S99.31,116.28,99.31,116.28z M97.72,115.19C97.72,115.19,97.72,115.19,97.72,115.19
				C97.72,115.19,97.72,115.19,97.72,115.19z M99.28,91.15c0.02,5.18,0.02,10.35,0.01,15.53c0,2.64,0,5.28,0,7.93
				c1.46-0.56,2.9-1.11,4.34-1.7c4.28-1.74,8.71-3.74,11.65-7.4c3.25-4.05,6.34-8.15,9.6-12.49c0.46-0.62,0.93-1.23,1.4-1.85
				C117.29,91.16,108.28,91.17,99.28,91.15z"/>
		</g>
		<g>
			<path class="st0" d="M154.69,166.28c0.03-1.48-0.16-3.11,1.57-3.85c2.23-0.95,4.24,0.44,4.22,3c-0.02,3.46,0.81,6.58,2.94,9.37
				c2.8,3.66,6.55,5.43,11.04,5.83c1.3,0.12,2.52,0.27,2.96,1.8c0.59,2.07-0.69,3.99-2.88,3.93c-6.05-0.15-11.17-2.5-15.12-7.07
				C156.26,175.6,154.65,171.21,154.69,166.28z"/>
			<path class="st0" d="M174.64,188.86c-0.05,0-0.1,0-0.15,0c-6.85-0.17-12.55-2.84-16.95-7.93c-3.6-4.18-5.4-9.11-5.35-14.66
				l0.01-0.47c0.01-1.41,0.02-4.36,3.09-5.66c1.82-0.78,3.74-0.65,5.26,0.36c1.57,1.04,2.46,2.84,2.45,4.95
				c-0.02,3.16,0.76,5.65,2.43,7.84c2.22,2.91,5.26,4.5,9.28,4.86c1.26,0.11,4.22,0.38,5.14,3.61c0.52,1.82,0.19,3.67-0.89,5.07
				C177.93,188.12,176.37,188.86,174.64,188.86z M157.19,166.3L157.19,166.3c-0.04,4.31,1.36,8.13,4.14,11.35
				c3.43,3.98,7.9,6.07,13.28,6.2c0.13,0,0.3-0.01,0.38-0.11c0.07-0.08,0.11-0.27,0.06-0.54c-0.24-0.05-0.61-0.08-0.8-0.1
				c-5.42-0.48-9.73-2.77-12.81-6.8c-2.35-3.07-3.48-6.64-3.46-10.9c0-0.45-0.13-0.7-0.21-0.76c-0.07-0.04-0.26-0.04-0.52,0.07
				c-0.05,0.24-0.05,0.75-0.06,1.09L157.19,166.3z"/>
		</g>
		<g>
			<path class="st0" d="M277.27,180.69c9.93,0.24,19,9.33,18.45,20.74c-0.1,2.09-1.08,3.23-2.83,3.27
				c-1.68,0.04-2.99-1.38-2.98-3.34c0.03-7.04-3.29-11.8-9.8-14.33c-1.14-0.44-2.44-0.52-3.68-0.61c-2.28-0.18-3.63-1.31-3.57-3.15
				c0.06-1.85,1.28-2.72,3.69-2.62C276.79,180.66,277.03,180.68,277.27,180.69z"/>
			<path class="st0" d="M292.82,207.2c-1.39,0-2.69-0.53-3.68-1.51c-1.12-1.1-1.74-2.64-1.73-4.34c0.03-5.99-2.58-9.8-8.2-11.99
				c-0.72-0.28-1.69-0.35-2.73-0.43l-0.24-0.02c-3.67-0.29-5.98-2.53-5.88-5.72c0.06-1.86,0.87-2.99,1.53-3.61
				c1.11-1.03,2.71-1.52,4.76-1.44c0.21,0.01,0.41,0.02,0.61,0.04l0.13,0.01c5.46,0.15,10.86,2.67,14.81,6.92
				c4.17,4.49,6.31,10.33,6.01,16.44c-0.2,4.08-2.85,5.59-5.27,5.65C292.9,207.2,292.86,207.2,292.82,207.2z M275.36,183.23
				c0,0.03-0.01,0.07-0.01,0.12c-0.01,0.39,0.68,0.53,1.26,0.58l0.23,0.02c1.29,0.1,2.75,0.21,4.16,0.76
				c7.49,2.91,11.43,8.68,11.39,16.67c0,0.48,0.18,0.7,0.23,0.75c0.07,0.07,0.14,0.08,0.19,0.08c0.14,0,0.21-0.02,0.24-0.03
				c-0.01-0.01,0.12-0.24,0.15-0.86c0.23-4.76-1.43-9.3-4.68-12.79c-3.05-3.28-7.18-5.23-11.33-5.33l-0.32-0.02
				c-0.15-0.01-0.3-0.02-0.44-0.03C275.84,183.12,275.51,183.19,275.36,183.23z"/>
		</g>
		<g>
			<path class="st0" d="M289.89,252.41c0-1.55-0.02-3.1,0.01-4.66c0.04-1.81,1.28-3.2,2.88-3.27c1.59-0.07,2.86,1.11,2.9,2.98
				c0.08,3.34,0.09,6.69,0,10.03c-0.05,1.89-1.27,3.03-2.88,3c-1.59-0.04-2.85-1.4-2.9-3.24
				C289.86,255.64,289.89,254.03,289.89,252.41z"/>
			<path class="st0" d="M292.88,262.99c-0.04,0-0.09,0-0.13,0c-2.96-0.07-5.26-2.5-5.35-5.67c-0.03-1.16-0.02-2.32-0.02-3.48
				l0.01-1.43l0-1.44c0-1.09-0.01-2.17,0.01-3.26c0.06-3.13,2.33-5.59,5.27-5.71c1.42-0.05,2.77,0.43,3.78,1.38
				c1.07,1,1.68,2.43,1.72,4.03c0.09,3.51,0.09,6.92,0,10.15C298.1,260.73,295.88,262.99,292.88,262.99z M292.39,252.42l-0.01,1.46
				c-0.01,1.1-0.02,2.21,0.01,3.31c0.01,0.44,0.22,0.8,0.46,0.81c0.15,0,0.31,0.01,0.32-0.56c0.08-3.15,0.08-6.48,0-9.9
				c-0.01-0.3-0.09-0.46-0.14-0.51c-0.03-0.03-0.1-0.04-0.16-0.03c-0.26,0.01-0.47,0.37-0.48,0.82c-0.02,1.05-0.02,2.09-0.01,3.14
				L292.39,252.42z"/>
		</g>
		<g>
			<path class="st0" d="M225.33,180.66c1.61,0,3.23-0.05,4.84,0.01c1.66,0.07,2.79,1.16,2.85,2.6c0.06,1.5-1.28,3.05-2.89,3.09
				c-3.23,0.07-6.46,0.07-9.69,0.01c-1.69-0.03-3.01-1.43-3.03-2.96c-0.02-1.58,1.17-2.69,3.07-2.75c1.61-0.06,3.23-0.01,4.84-0.01
				C225.33,180.65,225.33,180.65,225.33,180.66z"/>
			<path class="st0" d="M225.2,188.92c-1.59,0-3.2-0.02-4.81-0.05c-2.99-0.06-5.45-2.5-5.48-5.43c-0.03-2.95,2.27-5.17,5.48-5.28
				c1.17-0.04,2.34-0.03,3.47-0.02c0.49,0,0.98,0.01,1.46,0.01h2.12c0.93-0.01,1.88-0.01,2.83,0.03c2.92,0.12,5.13,2.22,5.25,5
				c0.06,1.41-0.49,2.84-1.52,3.94c-1.01,1.08-2.41,1.72-3.82,1.76C228.55,188.9,226.88,188.92,225.2,188.92z M222.35,183.13
				c-0.6,0-1.19,0.01-1.79,0.03c-0.43,0.02-0.63,0.13-0.66,0.17c0.01,0.23,0.23,0.55,0.59,0.55c3.25,0.07,6.47,0.06,9.58-0.01
				c0.17,0,0.45-0.32,0.45-0.48c-0.01-0.17-0.32-0.21-0.46-0.21c-1.05-0.04-2.11-0.03-3.23-0.02c-0.5,0-1.01,0.01-1.51,0.01
				l-2.5-0.03C222.67,183.13,222.51,183.13,222.35,183.13z"/>
		</g>
		<g>
			<path class="st0" d="M197.51,186.39c-1.49,0-2.99,0.03-4.48-0.01c-1.89-0.05-3.35-1.43-3.31-3.06c0.04-1.57,1.24-2.63,3.17-2.66
				c3.17-0.05,6.33-0.05,9.5,0c1.75,0.03,2.9,1.18,2.92,2.7c0.01,1.53-1.32,2.93-2.97,3C200.74,186.44,199.12,186.38,197.51,186.39
				C197.51,186.39,197.51,186.39,197.51,186.39z"/>
			<path class="st0" d="M194.78,188.9c-0.61,0-1.21,0-1.82-0.02c-1.63-0.04-3.19-0.72-4.27-1.86c-0.99-1.04-1.51-2.38-1.47-3.78
				c0.08-2.95,2.4-5.04,5.64-5.09c3.29-0.05,6.52-0.04,9.58,0c3.04,0.05,5.35,2.28,5.38,5.18c0.02,2.92-2.38,5.39-5.36,5.52
				c-1.19,0.05-2.36,0.04-3.49,0.03c-0.15,0-0.3,0-0.46,0l-2.35,0.01C195.7,188.9,195.24,188.9,194.78,188.9z M192.23,183.31
				c0,0.01,0,0.04-0.01,0.08c0,0.08,0.06,0.16,0.1,0.2c0.17,0.18,0.46,0.29,0.77,0.3c0.64,0.02,1.27,0.02,1.92,0.02v-0.02h2.5
				c0.5,0,1,0,1.5,0.01c1.12,0.01,2.18,0.02,3.23-0.02c0.33-0.01,0.57-0.33,0.57-0.48c0-0.06,0-0.22-0.46-0.22
				c-3.01-0.05-6.18-0.05-9.42,0C192.5,183.16,192.28,183.26,192.23,183.31z"/>
		</g>
		<g>
			<path class="st0" d="M252.93,180.65c1.61,0,3.23-0.05,4.84,0.01c1.73,0.07,2.94,1.25,2.93,2.72c0,1.5-1.36,2.95-3.02,2.98
				c-3.23,0.07-6.46,0.06-9.68,0c-1.61-0.03-2.94-1.54-2.9-3.07c0.04-1.51,1.09-2.55,2.81-2.62
				C249.59,180.6,251.26,180.66,252.93,180.65C252.93,180.66,252.93,180.65,252.93,180.65z"/>
			<path class="st0" d="M252.93,188.92c-1.66,0-3.32-0.02-4.98-0.05c-1.42-0.03-2.77-0.64-3.79-1.71c-1.03-1.08-1.59-2.51-1.56-3.92
				c0.07-2.85,2.21-4.93,5.2-5.06c1.22-0.05,2.44-0.04,3.62-0.03c0.2,0,0.4,0,0.61,0.01l0.9,0c0.49,0,0.98,0,1.46-0.01
				c1.13-0.01,2.3-0.02,3.48,0.03c3.05,0.13,5.34,2.38,5.33,5.23c-0.01,2.91-2.51,5.41-5.47,5.47
				C256.15,188.9,254.54,188.92,252.93,188.92z M247.61,183.26c0,0.01-0.01,0.05-0.01,0.11c0,0.05,0.04,0.2,0.18,0.34
				c0.11,0.11,0.22,0.16,0.28,0.16c3.2,0.07,6.42,0.07,9.58,0c0.31-0.01,0.57-0.36,0.57-0.49c0-0.08-0.21-0.2-0.54-0.22
				c-0.73-0.03-1.47-0.04-2.23-0.03v0.03h-2.5c-0.52,0-1.04,0-1.56-0.01c-1.16-0.01-2.26-0.02-3.36,0.02
				C247.77,183.18,247.65,183.24,247.61,183.26z"/>
		</g>
		<g>
			<path class="st0" d="M289.89,224.61c0-1.55-0.03-3.1,0.01-4.65c0.05-1.69,1.32-3.05,2.83-3.12c1.62-0.08,2.87,1.05,2.93,2.92
				c0.09,3.28,0.1,6.56,0.01,9.84c-0.05,1.69-1.38,2.84-2.9,2.78c-1.4-0.05-2.79-1.42-2.85-2.94
				C289.85,227.83,289.9,226.22,289.89,224.61C289.9,224.61,289.89,224.61,289.89,224.61z"/>
			<path class="st0" d="M292.87,234.88c-0.07,0-0.13,0-0.2,0c-2.74-0.1-5.15-2.54-5.26-5.34c-0.05-1.18-0.04-2.35-0.02-3.48
				c0-0.2,0-0.39,0-0.59l-0.01-2.28c-0.01-1.1-0.01-2.21,0.02-3.31c0.08-2.98,2.37-5.42,5.21-5.55c1.43-0.08,2.8,0.41,3.82,1.35
				c1.06,0.98,1.67,2.4,1.72,4c0.09,3.31,0.1,6.67,0.01,9.98c-0.04,1.47-0.63,2.81-1.67,3.79
				C295.51,234.38,294.23,234.88,292.87,234.88z M292.38,222.11h0.02v2.5c0,0.5,0,1-0.01,1.5c-0.01,1.12-0.02,2.18,0.02,3.24
				c0.01,0.19,0.3,0.5,0.47,0.54c0,0,0,0,0,0c0.09,0,0.15-0.04,0.19-0.07c0.06-0.06,0.09-0.15,0.1-0.28
				c0.09-3.22,0.09-6.48-0.01-9.7c-0.01-0.3-0.09-0.44-0.12-0.47c-0.01-0.01-0.07-0.04-0.19-0.03c-0.15,0.01-0.45,0.26-0.46,0.7
				C292.38,220.72,292.38,221.41,292.38,222.11z"/>
		</g>
		<g>
			<path class="st0" d="M160.5,142.25c0,1.49,0.04,2.98-0.01,4.47c-0.06,1.83-1.34,3.24-2.89,3.26c-1.6,0.03-2.86-1.27-2.9-3.21
				c-0.06-3.1-0.07-6.21,0-9.31c0.05-1.98,1.07-2.95,2.83-2.97c1.78-0.01,2.9,1.13,2.96,3.09
				C160.54,139.15,160.5,140.7,160.5,142.25z"/>
			<path class="st0" d="M157.55,152.49c-2.99,0-5.28-2.42-5.35-5.66c-0.07-3.34-0.07-6.42,0-9.42c0.08-3.27,2.16-5.39,5.32-5.41
				c3.13-0.02,5.37,2.2,5.47,5.51c0.03,1.09,0.02,2.18,0.02,3.27c0,0.49-0.01,0.97-0.01,1.46l0.01,1.32
				c0.01,1.08,0.02,2.16-0.02,3.23c-0.1,3.14-2.45,5.64-5.35,5.69C157.61,152.49,157.58,152.49,157.55,152.49z M157.27,137.03
				c-0.02,0.08-0.06,0.24-0.06,0.5c-0.07,2.92-0.07,5.93,0,9.2c0,0.21,0.08,0.76,0.35,0.76c0,0,0,0,0,0c0.12,0,0.42-0.29,0.44-0.84
				c0.03-1.01,0.02-2.03,0.01-3.04l-0.01-1.35c0-0.5,0-1,0.01-1.49c0.01-1.03,0.01-2.06-0.02-3.09c-0.01-0.4-0.1-0.58-0.13-0.62h0
				c0,0-0.07-0.03-0.31-0.04C157.42,137.01,157.32,137.02,157.27,137.03z"/>
		</g>
	</g>
	<g>
		<path class="st0" d="M154.68,114.32c0-1.55-0.02-3.1,0.01-4.66c0.04-1.81,1.28-3.2,2.88-3.27c1.59-0.07,2.86,1.11,2.9,2.98
			c0.08,3.34,0.09,6.69,0,10.03c-0.05,1.89-1.27,3.03-2.88,3c-1.59-0.04-2.85-1.4-2.9-3.24
			C154.64,117.54,154.68,115.93,154.68,114.32z"/>
		<path class="st0" d="M157.67,124.9c-0.04,0-0.09,0-0.13,0c-2.96-0.07-5.26-2.5-5.35-5.67c-0.03-1.15-0.02-2.3-0.02-3.45l0.01-1.46
			l0-1.45c0-1.08-0.01-2.17,0.01-3.25c0.06-3.13,2.33-5.59,5.27-5.71c1.43-0.05,2.77,0.43,3.78,1.38c1.07,1,1.68,2.43,1.72,4.03
			c0.09,3.5,0.09,6.92,0,10.15C162.88,122.63,160.66,124.9,157.67,124.9z M157.18,114.32l-0.01,1.49c-0.01,1.09-0.02,2.19,0.01,3.28
			c0.01,0.44,0.22,0.8,0.46,0.81c0.14,0.01,0.31,0.01,0.32-0.56c0.08-3.15,0.08-6.48,0-9.9c-0.01-0.3-0.09-0.46-0.14-0.51
			c-0.03-0.03-0.11-0.04-0.16-0.03c-0.26,0.01-0.47,0.37-0.48,0.82c-0.02,1.04-0.02,2.09-0.01,3.13L157.18,114.32z"/>
	</g>
</g>
</svg>
