<?xml version="1.0" encoding="utf-8"?>
<!-- Generator: Adobe Illustrator 24.0.1, SVG Export Plug-In . SVG Version: 6.00 Build 0)  -->
<svg version="1.1" id="Layer_1" xmlns="http://www.w3.org/2000/svg" xmlns:xlink="http://www.w3.org/1999/xlink" x="0px" y="0px"
	 viewBox="0 0 566.93 566.93" style="enable-background:new 0 0 566.93 566.93;" xml:space="preserve">
<style type="text/css">
	.st0{fill:#05AFA0;}
</style>
<g>
	<path class="st0" d="M91,306c0-14.72,0-29.44,0-44.17c0.24-0.4,0.58-0.78,0.71-1.21c3.11-10.58,10.23-16.54,21.04-18.06
		c8.52-1.2,17.05-2.28,25.61-3.14c2.78-0.28,4.06-1.36,4.99-3.96c1.93-5.38,4.18-10.66,6.57-15.85c0.9-1.97,0.9-3.26-0.49-4.99
		c-5.54-6.91-10.95-13.91-16.32-20.95c-8.22-10.77-7.46-23.22,2.03-32.81c7.9-7.98,15.85-15.9,23.82-23.81
		c9.83-9.74,22.09-10.61,33.07-2.27c7.05,5.35,14.05,10.78,20.96,16.31c1.73,1.39,3.03,1.37,4.99,0.48
		c5.32-2.42,10.74-4.65,16.21-6.69c2.31-0.86,3.28-2.07,3.54-4.52c0.91-8.55,2.02-17.08,3.12-25.61
		c1.76-13.63,11.39-22.07,25.19-22.1c11.48-0.02,22.95-0.07,34.43,0.02c11.85,0.1,21.5,7.99,23.44,19.61
		c1.56,9.33,2.56,18.76,3.69,28.16c0.27,2.21,0.96,3.46,3.26,4.29c5.61,2.03,11.13,4.36,16.55,6.85c2,0.92,3.3,0.8,4.99-0.54
		c6.82-5.45,13.73-10.78,20.64-16.11c10.89-8.4,23.28-7.72,33.11,1.92c8.01,7.86,15.94,15.81,23.82,23.81
		c9.82,9.97,10.51,22.2,1.94,33.38c-5.23,6.83-10.49,13.64-15.87,20.36c-1.43,1.79-1.6,3.18-0.61,5.31
		c2.41,5.18,4.66,10.47,6.56,15.86c0.95,2.7,2.39,3.55,5.08,3.85c9.16,1.02,18.34,2.05,27.43,3.57
		c11.69,1.95,19.65,11.48,19.78,23.29c0.13,11.97,0.12,23.95,0,35.92c-0.12,11.82-8.07,21.4-19.72,23.35
		c-9.09,1.53-18.26,2.6-27.43,3.58c-2.93,0.31-4.26,1.45-5.23,4.17c-1.87,5.27-4.07,10.44-6.43,15.51c-0.98,2.1-0.92,3.5,0.53,5.31
		c5.38,6.71,10.64,13.53,15.88,20.35c8.66,11.29,7.91,23.5-2.13,33.67c-7.8,7.9-15.65,15.75-23.56,23.54
		c-9.8,9.66-22.17,10.38-33.1,1.98c-6.92-5.32-13.82-10.66-20.66-16.09c-1.65-1.31-2.96-1.57-4.99-0.63
		c-5.42,2.5-10.95,4.78-16.54,6.89c-2,0.76-3.04,1.68-3.28,3.87c-0.71,6.69-1.54,13.37-2.43,20.04c-0.84,6.28-1.22,12.65-5.16,18.11
		c-3.95,5.46-9.46,8.28-15.69,10.07c-14.48,0-28.95,0-43.43,0c-0.45-0.21-0.88-0.49-1.35-0.61c-10.68-2.8-16.9-9.74-18.55-20.55
		c-1.34-8.75-2.35-17.55-3.3-26.34c-0.28-2.57-1.2-3.89-3.71-4.79c-5.38-1.94-10.67-4.16-15.87-6.55c-2.07-0.95-3.48-0.97-5.32,0.5
		c-6.81,5.46-13.71,10.81-20.66,16.09c-11.02,8.37-23.33,7.62-33.12-2.04c-7.99-7.89-15.93-15.83-23.82-23.82
		c-9.69-9.8-10.42-22.09-2.01-33.09c5.38-7.03,10.92-13.95,16.2-21.06c0.75-1.01,0.99-3,0.54-4.18c-2.19-5.82-4.58-11.58-7.19-17.22
		c-0.59-1.27-2.26-2.65-3.6-2.85c-8.51-1.27-17.05-2.26-25.6-3.27c-6.7-0.79-12.79-3.1-16.81-8.63C94.31,314.09,92.9,309.87,91,306z
		 M280.3,364.13c43.14,1.98,80.09-32.77,82.21-77.29c2.05-43.32-32.87-80.46-77.48-82.39c-43.25-1.87-80.25,32.91-82.21,77.29
		C200.9,325.17,235.61,362.08,280.3,364.13z"/>
</g>
</svg>
