<?xml version="1.0" encoding="utf-8"?>
<!-- Generator: Adobe Illustrator 24.0.1, SVG Export Plug-In . SVG Version: 6.00 Build 0)  -->
<svg version="1.1" id="Layer_1" xmlns="http://www.w3.org/2000/svg" xmlns:xlink="http://www.w3.org/1999/xlink" x="0px" y="0px"
	 viewBox="0 0 566.93 566.93" style="enable-background:new 0 0 566.93 566.93;" xml:space="preserve">
<style type="text/css">
	.st0{fill-rule:evenodd;clip-rule:evenodd;fill:#F79421;}
	.st1{fill-rule:evenodd;clip-rule:evenodd;fill:#05AFA0;}
</style>
<g>
	<path class="st0" d="M328.53,213.13c-9.04,9.35-17.41,19.37-25.31,29.7c0.62,0.97,1.24,1.95,1.84,2.93
		c6.39,9.59,12.76,19.21,19.06,28.86c7.83-10.86,16.13-21.46,25.15-31.35c10.23-11.22,21.59-21.72,34.34-30.03
		c16.98-11.05,35.33-17.16,55.71-17.58c25.22-0.51,50.08,7.81,72.4,18.97c4.25,2.12,9.15,2.47,13.65,0.97
		c4.5-1.5,8.19-4.71,10.31-8.95c2.12-4.25,2.47-9.15,0.97-13.65c-1.5-4.5-4.71-8.19-8.95-10.31
		c-28.27-14.13-59.51-24.16-91.43-23.05c-26.34,0.92-50.19,9.34-72.14,23.64C351.11,191.75,339.32,201.98,328.53,213.13z"/>
	<path class="st1" d="M114.65,161.07l0.02-29.98l-84.73,48.92l84.73,48.92l-0.01-31.31c0-0.12,0.03-0.35,0.09-0.5
		c6.16-1.1,12.86-1.54,19.09-1.68c12.98-0.28,26.1,0.97,38.77,3.8c39.07,8.73,69.83,31.28,91.19,65.11
		c3.85,6.1,7.7,12.19,11.68,18.24c6.98,10.78,13.88,21.67,21.81,31.78c0.08,0.1,0.15,0.2,0.22,0.3c3.72,5.43,7.87,10.53,12,15.65
		c15.69,19.5,33.57,37.84,54.63,51.56c21.95,14.29,45.79,22.72,72.14,23.64c31.92,1.11,63.16-8.92,91.43-23.05
		c4.24-2.12,7.45-5.81,8.95-10.31c1.5-4.5,1.16-9.4-0.97-13.65c-2.12-4.24-5.81-7.45-10.31-8.95c-4.5-1.5-9.4-1.16-13.65,0.97
		c-22.32,11.16-47.18,19.48-72.4,18.97c-20.38-0.41-38.73-6.52-55.71-17.58c-18.44-12-34.18-28.75-47.79-45.89
		c-6.01-7.57-11.49-15.55-17.24-23.32c-0.06-0.09-0.13-0.18-0.19-0.27c-6.92-10.61-13.92-21.17-20.93-31.72
		c-0.04-0.06-0.08-0.13-0.12-0.19c-1.07-1.77-2.21-3.49-3.32-5.24c-18.64-29.54-43.65-52.97-75.36-67.86
		c-19.52-9.17-40.62-14.71-62.06-16.83c-13.57-1.34-28.33-1.47-41.88,0.44C114.72,161.06,114.68,161.06,114.65,161.07z"/>
	<path class="st0" d="M114.65,368v-29.98l-84.71,48.91l84.71,48.91l0-31.68c25.6,3.04,53.46,0.58,78.13-6.64
		c42.12-12.33,75.46-38.24,99.36-74.7c-0.7-0.96-1.39-1.94-2.06-2.92c-7.25-9.26-13.62-19.12-20.02-28.97l-0.47,0.74
		c-1.95,3.04-3.87,6.1-5.8,9.15c-21.35,33.83-52.1,56.37-91.17,65.11c-12.32,2.75-25.01,3.96-37.63,3.74
		c-6.87-0.12-13.33-0.72-20.12-1.58C114.82,368.07,114.71,368.04,114.65,368z"/>
</g>
</svg>
