<?xml version="1.0" encoding="utf-8"?>
<!-- Generator: Adobe Illustrator 24.0.1, SVG Export Plug-In . SVG Version: 6.00 Build 0)  -->
<svg version="1.1" id="Layer_1" xmlns="http://www.w3.org/2000/svg" xmlns:xlink="http://www.w3.org/1999/xlink" x="0px" y="0px"
	 viewBox="0 0 566.93 566.93" style="enable-background:new 0 0 566.93 566.93;" xml:space="preserve">
<style type="text/css">
	.st0{fill:#F79421;}
	.st1{fill:#05AFA0;}
</style>
<g>
	<path class="st0" d="M546,283.97c-0.29,1.4-0.52,2.81-0.87,4.19c-2.3,9.06-8.22,14.85-16.63,18.36c-5.98,2.49-12.28,3.43-18.7,3.73
		c-1.02,0.05-2.05,0.01-3.16,0.01c1.95-22.48-4.7-42.79-15.3-62.48c-5.34,20.17-16.1,36.37-32.84,48.35
		c-16.75,11.99-35.55,16.98-56.04,15.1c-18.78-1.73-35.13-9.19-48.89-22.07c-13.75-12.88-22.12-28.74-25.52-47.64
		c-17.54,19.89-23.55,42.96-21.07,68.9c-1.85-0.2-3.63-0.3-5.37-0.6c-15-2.6-24.8-13.79-27.49-27.27
		c-2.99-15.04,1.47-28.06,11.64-39.21c8.12-8.9,18.46-14.24,29.86-17.65c3.74-1.12,7.58-1.93,11.55-2.93
		c0.19-1.66,0.3-3.53,0.64-5.36c0.74-3.96,1.64-7.89,2.41-11.84c0.7-3.6,1.27-7.23,1.94-10.83c2.34-12.6,6.52-24.45,14.27-34.83
		c8.51-11.4,19.85-18.58,33.47-22.3c7.01-1.91,14.17-2.82,21.44-2.95c0.38-0.01,0.76-0.13,1.14-0.19c1.36,0,2.72,0,4.08,0
		c0.26,0.07,0.51,0.19,0.77,0.19c6.05,0.08,12.04,0.76,17.96,1.98c15.9,3.29,29.77,10.46,41.26,22c10.46,10.51,17.68,23,22.05,37.14
		c2.43,7.85,3.61,15.95,4.37,24.11c0.1,1.03,0.29,1.6,1.51,1.8c1.92,0.32,3.82,0.87,5.67,1.48c11.6,3.82,21.21,10.66,29.28,19.7
		c7.62,8.54,13.25,18.18,15.71,29.48c0.34,1.55,0.57,3.12,0.85,4.68C546,279.33,546,281.65,546,283.97z M411.8,225.94
		c0-10.54,0-20.89,0-31.58c-0.41,0.72-0.63,1.1-0.84,1.48c-5.41,9.55-11.16,18.85-18.61,26.98c-2.49,2.72-5.18,5.24-8.61,6.79
		c-1.74,0.78-3.53,1.21-5.5,0.49c0-0.35,0.02-0.67,0-0.98c-0.31-3.98-0.49-7.98-1-11.93c-0.46-3.62-1.44-7.14-3.55-10.21
		c-0.65-0.94-1.54-1.71-2.44-2.69c-2.56,5.56-5.36,10.58-8.88,15.16c-2.92,3.8-6.14,7.3-10.59,9.35c-0.95,0.44-1.25,0.93-1.19,1.96
		c0.95,16.38,7.29,30.31,19.39,41.34c14.15,12.9,30.91,17.87,49.85,15c12.81-1.94,23.78-7.74,32.89-16.92
		c9.33-9.4,14.98-20.72,16.81-33.85c0.44-3.15,0.43-6.36,0.46-9.55c0.01-1.35-1.27-2.19-2.66-2.06c-0.56,0.05-1.11,0.15-1.67,0.2
		c-8.84,0.68-17.68,1.58-26.54,1.96c-7.13,0.31-14.3,0.05-21.45-0.09C415.76,226.74,413.85,226.24,411.8,225.94z"/>
	<path class="st1" d="M30.96,428.93c7.78-8.53,15.57-17.06,23.35-25.6c25.9-28.42,51.8-56.84,77.71-85.26
		c1.08-1.18,2.11-2.41,3.25-3.53c0.4-0.39,1.06-0.74,1.61-0.74c32.76-0.03,65.52-0.03,98.28,0c0.5,0,1.17,0.3,1.49,0.69
		c21.28,26.09,42.54,52.19,63.78,78.31c0.3,0.37,0.53,0.92,0.53,1.38c0.03,18.04,0.02,36.08,0.02,54.12c0,0.19-0.03,0.37-0.06,0.83
		c-1.1-1.47-2.1-2.69-2.97-4.01c-3.48-5.22-7.84-9.67-12.2-14.14c-12.94-13.24-25.83-26.53-38.73-39.8c-0.3-0.31-0.53-0.7-0.8-1.05
		c-0.17,0.06-0.34,0.12-0.51,0.18c0,15.14,0,30.29,0,45.58c-38.83,0.59-77.33,1.18-115.96,1.78c-0.55-16.64-1.09-33.16-1.64-50
		C102.94,409.14,78,430.42,53,451.76c-3.24-3.35-6.43-6.64-9.63-9.94c-3.98-4.11-7.96-8.21-11.94-12.31
		c-0.13-0.14-0.31-0.22-0.47-0.34C30.96,429.09,30.96,429.01,30.96,428.93z"/>
	<path class="st0" d="M541.12,430.42c-4.23,1.05-8.25,2.06-12.27,3.05c-6.63,1.64-13.26,3.26-19.88,4.94
		c-0.96,0.24-1.47,0.07-2.07-0.73c-16.04-21.55-32.11-43.07-48.18-64.6c-0.35-0.47-0.7-0.94-1.24-1.64
		c-0.27,3.22-0.52,6.14-0.76,9.06c-0.69,8.52-1.38,17.05-2.03,25.57c-0.05,0.62,0.11,1.37,0.44,1.88c4.67,7.21,9.4,14.39,14.1,21.57
		c0.24,0.36,0.47,0.73,0.85,1.33c-39,0.65-77.81,1.3-116.81,1.96c0.19-0.47,0.31-0.82,0.46-1.15c3.44-7.65,6.84-15.31,10.34-22.93
		c0.56-1.21,0.6-2.34,0.44-3.58c-1.13-8.8-2.24-17.6-3.36-26.4c-0.01-0.11-0.07-0.21-0.17-0.49c-0.44,0.48-0.81,0.87-1.16,1.28
		c-17.28,19.78-34.53,39.58-51.85,59.33c-2.57,2.93-4.39,5.43-6.51,9.54c-0.07,0.16-0.2,0.29-0.49,0.71c0-0.71,0-1.09,0-1.47
		c0-15.92-0.01-36.84,0.03-52.75c0-0.72,0.31-1.58,0.77-2.13c17.8-21.5,35.62-37.97,53.45-59.44c2.78-3.35,5.55-6.72,8.38-10.04
		c0.33-0.39,0.98-0.7,1.48-0.7c31.8-0.03,63.59-0.03,95.39-0.05c0.75,0,1.14,0.31,1.55,0.86c15.08,20.42,30.18,40.82,45.27,61.23
		c11.03,14.91,22.06,29.83,33.08,44.74C540.61,429.67,540.81,429.97,541.12,430.42z"/>
	<path class="st1" d="M173.18,146.23c11.74,1.04,23.5,1.92,35.21,3.18c10.8,1.16,21.57,2.7,32,5.94
		c11.76,3.65,18.03,11.94,19.77,23.9c0.96,6.62,0.38,13.24-0.07,19.86c-0.55,8.13-1.28,16.26-1.43,24.4
		c-0.66,35.31-25.64,65.95-60.25,72.86c-25.8,5.15-48.69-1.34-67.97-19.36c-12.76-11.93-20.25-26.79-22.66-44.1
		c-0.61-4.42-0.65-8.92-0.86-13.38c-0.3-6.46-1.74-12.72-3.06-19.02c-0.75-3.58-1.39-7.22-1.68-10.87
		c-0.46-5.93,1.81-11.01,6.18-14.86c13.67-12.04,28.83-21.55,46.49-26.67c6-1.74,12.13-1.91,18.31-1.51
		C173.16,146.46,173.17,146.34,173.18,146.23z M176.15,206.07c-0.05-0.06-0.11-0.12-0.16-0.19c-0.38,0.18-0.76,0.35-1.14,0.53
		c-6.86,3.34-13.71,6.68-20.58,9.99c-0.42,0.2-1.04,0.35-1.44,0.2c-7.06-2.69-14.31-3.07-21.71-2.01c-0.78,0.11-1.15,0.37-1.29,1.22
		c-0.84,5.09-0.93,10.18-0.26,15.29c1.68,12.93,6.98,24.17,16.34,33.24c13.6,13.18,29.94,18.45,48.6,15.01
		c18.22-3.37,31.41-13.87,39.67-30.38c5.14-10.26,6.87-21.2,5.15-32.63c-0.17-1.14-0.52-1.58-1.69-1.79
		c-10.81-1.94-21.69-2.96-32.68-2.63c-6.4,0.19-12.76,0.83-19.03,2.15c-4.18,0.88-8.34,1.83-12.27,3.6
		c-0.65,0.29-1.78,0.41-2.22,0.04c-0.41-0.34-0.29-1.44-0.24-2.19c0.04-0.54,0.3-1.08,0.56-1.57c1.19-2.22,2.41-4.41,3.62-6.61
		C175.62,206.91,175.89,206.5,176.15,206.07z"/>
</g>
</svg>
