<?xml version="1.0" encoding="utf-8"?>
<!-- Generator: Adobe Illustrator 24.0.1, SVG Export Plug-In . SVG Version: 6.00 Build 0)  -->
<svg version="1.1" id="Layer_1" xmlns="http://www.w3.org/2000/svg" xmlns:xlink="http://www.w3.org/1999/xlink" x="0px" y="0px"
	 viewBox="0 0 566.93 566.93" style="enable-background:new 0 0 566.93 566.93;" xml:space="preserve">
<style type="text/css">
	.st0{fill:#0CB0A1;}
	.st1{fill:#F89522;}
	.st2{fill:#CDDD46;}
</style>
<g>
	<path class="st0" d="M225.59,103.62c119.92-12.3,108.84,204.52,55.14,245.07c-21.73,18.98-50.7,18.63-79,10.92
		c-17.91-0.1-74.8,67.84-92.44,70.87c48.52-109.8,37.44-91.76,19.83-104.52C-43.46,224.48,139.19,117.4,225.59,103.62z"/>
	<path class="st1" d="M344.21,164.53c-119.92-12.3-108.84,204.52-55.14,245.07c21.73,18.98,50.7,18.63,79,10.92
		c17.91-0.1,74.8,67.84,92.44,70.87c-48.52-109.8-37.44-91.76-19.83-104.52C613.26,285.39,430.6,178.31,344.21,164.53z"/>
	<path class="st2" d="M311.03,301.21c-11.2,35.26-27.17,52.3-50.74,59.54l-0.51-1.54c-27.17-99.51-5.22-153.29,31.36-182.04
		c5.8-4.56,12.71-7.73,19.58-9.58C321.61,198.89,323.29,241.47,311.03,301.21"/>
	<path class="st0" d="M313.05,136.93c-7.05-10.3-14.78-20.09-23.88-28.29c-9.09-8.15-19.76-14.53-31.46-17.49
		c-1.42-0.53-2.95-0.62-4.42-0.92l-4.46-0.78c-3.01-0.14-6.03-0.42-9.06-0.4l-4.55,0.23c-1.52,0.07-3.04,0.1-4.54,0.4l-4.52,0.69
		l-2.27,0.32l-2.23,0.54c-11.97,2.67-23.58,7.21-34.87,12.55c10.47-6.78,21.83-12.49,34.08-15.81c12.17-3.32,25.41-4.31,37.92-0.98
		l4.62,1.41c0.77,0.24,1.54,0.45,2.3,0.72l2.2,0.98c2.93,1.32,5.93,2.52,8.58,4.34l4.09,2.52c1.31,0.91,2.53,1.95,3.79,2.92
		l3.75,2.96l3.38,3.36C300.5,115.13,307.43,125.8,313.05,136.93"/>
	<path class="st1" d="M67.42,295.81c-9.17-7.75-17.23-17.28-22.26-28.56c-5.17-11.22-6.63-24.02-5.13-36.23
		c1.55-12.26,5.84-23.93,11.53-34.65c5.66-10.76,12.75-20.63,20.55-29.8c-6.45,10.17-12.5,20.53-17.54,31.29
		c-4.95,10.77-8.86,22.06-10.26,33.68c-1.49,11.58-0.34,23.49,3.95,34.43C52.53,276.91,59.39,286.85,67.42,295.81"/>
	<path class="st0" d="M255.6,397.45c7.13,8.08,14.72,15.64,23.22,21.94c8.51,6.25,17.93,11.17,27.98,14.08
		c10.02,3.02,20.59,4,31.14,3.52c10.57-0.5,21.09-2.5,31.56-5.06c-9.89,4.26-20.44,7.25-31.3,8.41c-10.85,1.2-22.03,0.37-32.62-2.74
		c-10.57-3.15-20.44-8.54-28.81-15.57C268.36,415,261.3,406.59,255.6,397.45"/>
	<path class="st1" d="M497.08,208.26c7.25,11.85,14.59,23.63,20.98,36.03c6.42,12.36,11.94,25.38,14.99,39.21
		c1.47,6.91,2.31,13.99,2.27,21.08c-0.09,7.09-0.96,14.19-2.84,21.01c-3.61,13.72-10.84,26.1-19.58,36.85
		c7.39-11.74,13.39-24.33,16.31-37.64c2.94-13.3,2.58-27.12-0.37-40.39c-2.85-13.33-8.05-26.12-13.79-38.65
		C509.25,233.25,502.87,220.9,497.08,208.26"/>
</g>
</svg>
